<svg version="1.1" xmlns="http://www.w3.org/2000/svg" xmlns:xlink="http://www.w3.org/1999/xlink" width="60.0696" height="126.89283" viewBox="0,0,60.0696,126.89283"><g transform="translate(-211.55156,-212.87047)"><g data-paper-data="{&quot;isPaintingLayer&quot;:true}" fill-rule="nonzero" stroke-linejoin="miter" stroke-miterlimit="10" stroke-dasharray="" stroke-dashoffset="0" style="mix-blend-mode: normal"><path d="M267.72317,297.86382l-5.30205,22.00756l-42.32902,3.06018l-7.70173,-24.65574z" fill="#314443" stroke="#4f6e6c" stroke-width="0" stroke-linecap="round"/><path d="M218.35696,255.7673l44.75072,-0.06362l0.09041,63.59313c0,0 -5.77036,19.68938 -21.95379,20.44386c-17.3701,0.8098 -22.79693,-20.38024 -22.79693,-20.38024z" fill="#314443" stroke="none" stroke-width="0" stroke-linecap="butt"/><path d="M266.23096,225.1992l-51.99995,0.07393z" fill="#364b4a" stroke="none" stroke-width="0" stroke-linecap="butt"/><path d="M211.55157,216.27693l56.99994,-0.08104c0,0 3.04884,31.35241 3.06959,45.94775c0.01679,11.81073 -2.95443,35.05217 -2.95443,35.05217c0,0 -7.34983,25.07879 -27.96301,26.03978c-22.12466,1.03146 -29.03694,-25.95874 -29.03694,-25.95874c0,0 3.98349,-11.61097 3.97138,-20.13181c-0.02106,-14.81617 -4.08653,-60.86811 -4.08653,-60.86811z" fill="#364b4a" stroke="none" stroke-width="0" stroke-linecap="butt"/><path d="M258.93197,307.95966c0,0 -7.08257,8.55039 -17.94711,8.99018c-9.77307,0.39561 -18.55144,-7.93828 -18.55144,-7.93828l-0.02915,-20.49998c0,0 7.71579,5.76855 18.99007,5.20612c10.85104,-0.54132 17.50918,-5.75801 17.50918,-5.75801z" fill="#97bfc7" stroke="#4f6e6c" stroke-width="1.5" stroke-linecap="round"/><path d="M240.71799,294.23554l0.03128,21.99998" fill="none" stroke="#89adb4" stroke-width="1.5" stroke-linecap="round"/><path d="M250.71656,293.22133l0.36129,19.66618" fill="none" stroke="#89adb4" stroke-width="1.5" stroke-linecap="round"/><path d="M230.71563,292.58309l0.02938,20.66665" fill="none" stroke="#89adb4" stroke-width="1.5" stroke-linecap="round"/><path d="M258.93197,307.95966c0,0 -7.08257,8.55039 -17.94711,8.99018c-9.77307,0.39561 -18.55144,-7.93828 -18.55144,-7.93828l-0.02915,-20.49998c0,0 7.71579,5.76856 18.99006,5.20612c10.85104,-0.54132 17.50919,-5.75801 17.50919,-5.75801z" fill="none" stroke="#4f6e6c" stroke-width="1.5" stroke-linecap="round"/><path d="M230.40213,287.0002c0,0 0.681,-9.85077 0.86328,-19.26747c0.17244,-8.90846 -0.48557,-26.02509 -0.09613,-49.51882c0.05304,-3.2 4.58906,1.13715 8.53836,1.06345c4.99823,-0.09327 10.65842,-2.64113 10.75775,2.46181c0.33592,17.25693 -1.87122,27.87426 -1.68994,36.03906c0.29507,13.29057 1.12596,28.69426 1.12596,28.69426c0,0 -6.15813,2.6924 -9.52759,2.78359c-3.10938,0.08415 -9.97168,-2.25586 -9.97168,-2.25586z" fill="#304040" stroke="#304040" stroke-width="7.5" stroke-linecap="round"/><path d="M239.72859,252.40359c-7.57689,0.01077 -13.72781,-6.06195 -13.73847,-13.56381c-0.01067,-7.50186 6.12296,-13.59205 13.69985,-13.60282c7.57689,-0.01077 13.72781,6.06195 13.73847,13.56381c0.01067,7.50186 -6.12296,13.59205 -13.69985,13.60282z" data-paper-data="{&quot;index&quot;:null}" fill="#2f2f2f" stroke="#2f2f2f" stroke-width="1.5" stroke-linecap="butt"/><path d="" fill="#314443" stroke="none" stroke-width="0.5" stroke-linecap="butt"/><path d="M265.77983,257.64484c-2.5,0 -2.5,-2.5 -2.5,-2.5v-4c0.0457,-6.57411 -4.40951,-11.2115 -5.9549,-17.52723c-0.21779,-0.89008 0.35489,-1.87998 0.06216,-2.7483c-0.38393,-1.13888 -1.67432,-1.84312 -2,-3c-0.39924,-1.41817 0.10038,-2.95787 -0.08854,-4.419c-0.17623,-1.36302 -0.83267,-2.63585 -1,-4c-1.03961,-8.47573 3.91153,-8.85228 4.96254,-0.61092c0.17386,1.36333 0.83594,2.63546 1,4c0.14253,1.1855 -0.42158,2.43435 -0.08854,3.581c0.33522,1.15416 1.62351,1.85864 2,3c0.3396,1.02953 -0.19204,2.19782 0.06216,3.25169c0.94416,3.91429 3.35596,6.90829 4.83139,10.46139c1.45328,3.49976 1.19459,4.63576 1.21372,8.01138v4c0,0 0,2.5 -2.5,2.5z" fill="#314443" stroke="none" stroke-width="0.5" stroke-linecap="butt"/><path d="M218.77983,233.64484c2.5,0 2.5,2.5 2.5,2.5v1c0,3.33031 0.05692,6.66991 0,10c-0.01867,1.09227 -0.40329,2.22398 -0.10727,3.27554c0.26041,0.92507 1.12493,1.55848 1.68739,2.33771c0,0 1.38675,2.08012 -0.69338,3.46687c-2.08013,1.38675 -3.46688,-0.69338 -3.46688,-0.69338c-0.77087,-1.22077 -1.91235,-2.2751 -2.3126,-3.66229c-1.15719,-4.01056 -0.10727,-10.52005 -0.10727,-14.72446v-1c0,0 0,-2.5 2.5,-2.5z" fill="#314443" stroke="none" stroke-width="0.5" stroke-linecap="butt"/><path d="M265.77983,277.64484c-2.5,0 -2.5,-2.5 -2.5,-2.5l1.70943,0.37171c-2.85366,-1.00831 -7.37158,-3.15251 -8.51913,-6.415c-0.54863,-1.55978 -0.12686,-3.30447 -0.1903,-4.9567c0,0 0,-2.5 2.5,-2.5c2.5,0 2.5,2.5 2.5,2.5c-0.06344,1.01443 -0.48197,2.06963 -0.19031,3.04329c0.52233,1.74372 4.05805,3.15123 5.48087,3.585l1.70943,4.37171c0,0 0,2.5 -2.5,2.5z" fill="#314443" stroke="none" stroke-width="0.5" stroke-linecap="butt"/><path d="M241.77983,283.64484c-2.5,0 -2.5,-2.5 -2.5,-2.5v-2c0,-1.05135 -0.04804,-6.31774 0.1903,-6.95671c0.36339,-0.97423 1.6614,-1.34895 2.1342,-2.27504c0.52397,-1.0263 0.50009,-2.24973 0.75014,-3.37459c0,0 0.60634,-2.42536 3.0317,-1.81902c2.42535,0.60634 1.81902,3.0317 1.81902,3.0317c-0.41662,1.54181 -0.54638,3.19158 -1.24985,4.62541c-0.37308,0.76041 -1.52168,0.95101 -1.86581,1.72496c-0.68349,1.53719 0.19031,3.361 0.19031,5.0433v2c0,0 0,2.5 -2.5,2.5z" fill="#273333" stroke="none" stroke-width="0.5" stroke-linecap="butt"/><path d="M244.27982,330.14484c0,-2.32142 2.1556,-2.48724 2.46355,-2.49909c1.08956,-1.08956 2.17912,-2.17912 3.26868,-3.26868c0,0 1.76777,-1.76777 3.53553,0c1.76777,1.76777 0,3.53553 0,3.53553c-1.33333,1.33333 -2.66667,2.66667 -4,4l-2.76777,0.73223c0,0 -2.5,0 -2.5,-2.5z" fill="#273333" stroke="none" stroke-width="0.5" stroke-linecap="butt"/><path d="M227.27982,326.14484c0,-1.38071 1.11929,-2.5 2.5,-2.5c1.38071,0 2.5,1.11929 2.5,2.5c0,1.38071 -1.11929,2.5 -2.5,2.5c-1.38071,0 -2.5,-1.11929 -2.5,-2.5z" fill="#273333" stroke="none" stroke-width="0.5" stroke-linecap="butt"/><path d="M240.27982,260.14484c0,-1.79691 1.29155,-2.30226 2.01801,-2.44439c-0.3465,-0.04406 -0.68849,-0.08924 -1.01859,-0.12c-3.35356,-0.31245 -6.58803,-1.41676 -9.91043,-1.96963c0,0 -2.46598,-0.411 -2.05499,-2.87699c0.411,-2.46598 2.87698,-2.05498 2.87698,-2.05498c3.25028,0.54253 6.48047,1.20844 9.69385,1.93839c0.55708,0.12654 1.25791,0.72926 1.67908,0.3433c0.92584,-0.84846 1.09655,-2.25961 1.64482,-3.38941l0.14569,-1.03182c0,0 0.06817,-0.27309 0.25041,-0.61314c0.1092,-2.43597 0.00121,-4.86198 -1.00035,-6.54959c-0.60843,-1.0252 -1.72818,-1.64265 -2.59227,-2.46398c0,0 -1.76776,-1.76777 0,-3.53554c1.76776,-1.76776 3.53554,0 3.53554,0c1.13591,1.17867 2.61119,2.10595 3.40774,3.53602c2.34515,4.21033 1.45773,10.64718 1.3245,15.23175c-0.05023,1.72863 0.48872,3.63848 -0.29582,5.17964c-0.725,1.42419 -2.54496,1.93366 -3.81744,2.90048l-3.38675,0.41987c0,0 -2.5,0 -2.5,-2.5zM243.39307,258.06471c0.18374,-0.09256 0.39136,-0.16169 0.60476,-0.22513c-0.33489,0.00099 -0.67702,-0.0235 -1.01945,-0.0588z" fill="#283535" stroke="none" stroke-width="0.5" stroke-linecap="butt"/><path d="M231.54758,227.37707c1.76776,1.76776 0,3.53554 0,3.53554l-0.68764,0.61898c-0.86392,1.28706 -4.58012,4.77371 -4.58012,6.61325c0,0.32225 0.80856,2.50662 1.4567,2.6903c1.61855,0.45871 3.361,-0.1903 5.0433,-0.1903c0,0 2.5,0 2.5,2.5c0,2.5 -2.5,2.5 -2.5,2.5c-0.97124,0 -6.42352,0.04803 -6.95671,-0.1903c-1.32719,-0.59327 -2.4025,-1.76067 -3.16992,-2.99537c-3.60021,-5.79237 1.15714,-9.33284 4.0465,-13.70108l1.31236,-1.38102c0,0 1.76777,-1.76776 3.53554,0z" fill="#283535" stroke="none" stroke-width="0.5" stroke-linecap="butt"/><path d="M237.01205,218.37707c1.76776,-1.76776 3.53554,0 3.53554,0l1,1c1.71951,1.73002 3.61113,3.30266 5.61898,4.68765c1.21251,0.83637 3.02204,1.20779 3.60002,2.56264c0.10731,0.25154 0.19147,0.50842 0.25677,0.76964l0.12817,-0.04272l0.98155,2.94464c0.09499,0.2642 0.14675,0.54902 0.14675,0.84593c0,1.38071 -1.11929,2.5 -2.5,2.5c-0.69036,0 -1.31536,-0.27982 -1.76777,-0.73223l-2,-2c0,0 -0.87543,-0.87544 -0.77812,-2.01025c-2.77035,-1.07616 -5.44077,-4.21827 -7.22188,-5.98975l-1,-1c0,0 -1.76776,-1.76777 0,-3.53554z" fill="#283535" stroke="none" stroke-width="0.5" stroke-linecap="butt"/></g></g></svg>