<svg version="1.1" xmlns="http://www.w3.org/2000/svg" xmlns:xlink="http://www.w3.org/1999/xlink" width="39.06174" height="28.61459" viewBox="0,0,39.06174,28.61459"><g transform="translate(-181.42847,-217.96738)"><g data-paper-data="{&quot;isPaintingLayer&quot;:true}" fill-rule="nonzero" stroke="none" stroke-linecap="butt" stroke-linejoin="miter" stroke-miterlimit="10" stroke-dasharray="" stroke-dashoffset="0" style="mix-blend-mode: normal"><path d="M206.26548,246.57513c-8.62409,0.09478 -17.42874,-0.82673 -17.42874,-0.82673l-7.35703,-7.425l-0.05124,-15.26282l38.73547,0c-0.10135,2.46358 -2.85762,6.64615 -2.99728,9.7172c-0.17964,3.95037 0.14988,8.95427 1.57122,13.44263c-4.25362,0.17226 -8.4952,0.31101 -12.47241,0.35472z" data-paper-data="{&quot;index&quot;:null}" fill="#0b8600" stroke-width="0"/><path d="M217.25001,242.1552c-11.17987,0 -28.41326,-1.5 -28.41326,-1.5l-7.35703,-7.425l-0.05124,-15.26282c0,0 14.49824,1 27.82153,1c3.00062,0 6.77131,-0.14134 11.06629,-0.35838c0.4598,1.3138 -0.1361,2.91264 -0.14964,4.34492c-0.02314,2.44804 -2.85831,6.70803 -3,9.82386c-0.12663,2.78465 -0.00026,6.09278 0.58319,9.37482c-0.16826,0.00172 -0.33488,0.0026 -0.49985,0.0026z" data-paper-data="{&quot;index&quot;:null}" fill="#0c9200" stroke-width="0"/><path d="M187.74865,223.84005c-0.05252,-0.21565 -0.08198,-0.45757 -0.08198,-0.72894c0,-2.5 2.5,-2.5 2.5,-2.5l2.2206,0.04012c2.97037,-1.11389 5.30206,-1.04288 8.44606,-1.04012c2.39987,0.00211 3.39481,-0.10706 5.79238,0.37584c2.64955,0.53365 5.78769,1.23356 6.91266,4.33359c1.06145,2.92499 -1.95004,8.22797 -4.09909,10.03986c-5.74589,4.84445 -14.59461,3.49142 -18.92536,-2.39756c-0.97294,-1.32301 -2.14999,-2.56433 -2.73161,-4.10013c-0.40377,-1.06618 -0.0771,-2.27884 -0.11566,-3.41827c0,0 0,-0.25612 0.08198,-0.60439z" fill="#686868" stroke-width="0.5"/><path d="" fill="#686868" stroke-width="0.5"/><path d="" fill="#686868" stroke-width="0.5"/><path d="M194.19612,228.46423c-0.55113,-0.19939 -1.09483,-0.64359 -1.40115,-1.56255c-0.79057,-2.37171 1.58114,-3.16228 1.58114,-3.16228l0.55022,-0.13223c2.50073,-1.37875 9.70081,-4.46877 10.95259,1.06865c0.80102,3.54343 -3.31474,8.78017 -7.1074,8.57053c-1.28294,-0.07092 -3.46906,-3.1929 -4.5754,-4.78212z" fill="#606060" stroke-width="0.5"/><path d="" fill="#606060" stroke-width="0.5"/><path d="" fill="#606060" stroke-width="0.5"/><path d="M209.54485,240.68161c-0.23717,0.71151 -0.94868,0.47434 -0.94868,0.47434l-0.88297,-0.30453c-0.73772,0.00589 -1.47546,0.00968 -2.2132,0.00968c-4.3756,0 -7.62527,-0.07009 -11.65973,-1.73322c-1.30458,-0.53779 -3.09869,0.24583 -4.20393,-0.81978c-0.49102,-0.47341 -0.58134,-1.97572 -0.82222,-2.56025c-0.41852,-1.01559 -1.64829,-1.7438 -2.4493,-2.38443c0,0 -0.58565,-0.46852 -0.11713,-1.05417c0.46852,-0.58565 1.05417,-0.11713 1.05417,-0.11713c1.06533,0.8525 2.30856,1.64537 2.88403,2.9489c0.2918,0.66097 0.02377,1.57301 0.51111,2.10642c0.40984,0.44859 3.09458,0.252 3.72463,0.49768c3.88247,1.51395 6.86125,1.61599 11.07838,1.61599c0.81783,0 1.63566,0.00424 2.45347,0.00968l1.11703,0.36214c0,0 0.71151,0.23717 0.47434,0.94868z" fill="#0d9c00" stroke-width="0.5"/><path d="M218.71696,222.95403c-0.21479,0.21312 -0.11018,1.84222 -0.15369,1.99606c-0.94722,3.34897 -3.85565,7.03186 -2.05912,10.49228c0,0 0.33541,0.67082 -0.33541,1.00623c-0.67082,0.33541 -1.00623,-0.33541 -1.00623,-0.33541c-1.97814,-4.07855 0.81632,-7.61701 1.94088,-11.50772c0.2517,-0.87083 -0.11285,-2.01483 0.51298,-2.67061c0.52526,-0.5504 1.64578,-0.82022 2.78017,-1.02623c-0.06734,0.49623 -0.15394,0.99711 -0.19929,1.48595c-0.66239,0.13468 -1.22576,0.3069 -1.48029,0.55945z" fill="#0d9c00" stroke-width="0.5"/><path d="" fill="#0d9c00" stroke-width="0.5"/><path d="" fill="#0d9c00" stroke-width="0.5"/><path d="" fill="#0d9c00" stroke-width="0.5"/></g></g></svg>