<svg version="1.1" xmlns="http://www.w3.org/2000/svg" xmlns:xlink="http://www.w3.org/1999/xlink" width="91" height="486.41667" viewBox="0,0,91,486.41667"><defs><linearGradient x1="236.34092" y1="308.73137" x2="209.75001" y2="308.73137" gradientUnits="userSpaceOnUse" id="color-1"><stop offset="0" stop-color="#e6fffe"/><stop offset="1" stop-color="#e6fffe" stop-opacity="0"/></linearGradient><linearGradient x1="245.20455" y1="309.39803" x2="271.79546" y2="309.39803" gradientUnits="userSpaceOnUse" id="color-2"><stop offset="0" stop-color="#e6fffe"/><stop offset="1" stop-color="#e6fffe" stop-opacity="0"/></linearGradient><radialGradient cx="239" cy="179" r="45.5" gradientUnits="userSpaceOnUse" id="color-3"><stop offset="0" stop-color="#e6fffe"/><stop offset="1" stop-color="#e6fffe" stop-opacity="0"/></radialGradient><radialGradient cx="239" cy="179" r="34.27272" gradientUnits="userSpaceOnUse" id="color-4"><stop offset="0" stop-color="#e6fffe"/><stop offset="1" stop-color="#e6fffe" stop-opacity="0"/></radialGradient><radialGradient cx="239" cy="179" r="41.36363" gradientUnits="userSpaceOnUse" id="color-5"><stop offset="0" stop-color="#e6fffe"/><stop offset="1" stop-color="#e6fffe" stop-opacity="0"/></radialGradient></defs><g transform="translate(-193.5,-140.5)"><g data-paper-data="{&quot;isPaintingLayer&quot;:true}" fill-rule="nonzero" stroke-linejoin="miter" stroke-miterlimit="10" stroke-dasharray="" stroke-dashoffset="0" style="mix-blend-mode: normal"><path d="M209.75001,509.12939v-340.79606h26.59091v340.79606z" data-paper-data="{&quot;index&quot;:null}" fill="url(#color-1)" stroke="none" stroke-width="0" stroke-linecap="butt"/><path d="M232.50001,516v-348h18.90909v348z" fill="#e6fffe" stroke="none" stroke-width="0" stroke-linecap="butt"/><path d="M245.20455,511.79606v-344.79606h26.59091v344.79606z" fill="url(#color-2)" stroke="none" stroke-width="0" stroke-linecap="butt"/><path d="M249.16717,532.41667c0,0 3.8312,-25.95864 -0.19359,-53.21686c-3.33433,-22.58204 -14.65539,-46.05601 -14.65539,-56.40109c0,-12.20591 10.30396,-32.73541 11.60313,-56.89232c1.00443,-18.6765 -11.78715,-39.52123 -11.29146,-60.36394c0.48259,-20.29232 14.51333,-40.58273 16.86693,-58.86842c5.13584,-39.90155 -2.32961,-70.25737 -2.32961,-70.25737" data-paper-data="{&quot;index&quot;:null}" fill="none" stroke="#e6fffe" stroke-width="5" stroke-linecap="round"/><path d="M193.5,179c0,-21.26296 20.37105,-38.5 45.5,-38.5c25.12895,0 45.5,17.23704 45.5,38.5c0,21.26296 -20.37105,38.5 -45.5,38.5c-25.12895,0 -45.5,-17.23704 -45.5,-38.5z" fill="url(#color-3)" stroke="none" stroke-width="0" stroke-linecap="butt"/><path d="M204.72728,179c0,-16.01626 15.34442,-29 34.27272,-29c18.9283,0 34.27272,12.98374 34.27272,29c0,16.01626 -15.34442,29 -34.27272,29c-18.9283,0 -34.27272,-12.98374 -34.27272,-29z" fill="url(#color-4)" stroke="none" stroke-width="0" stroke-linecap="butt"/><path d="M197.63637,179c0,-19.32997 18.51913,-35 41.36363,-35c22.8445,0 41.36363,15.67003 41.36363,35c0,19.32997 -18.51913,35 -41.36363,35c-22.8445,0 -41.36363,-15.67003 -41.36363,-35z" fill="url(#color-5)" stroke="none" stroke-width="0" stroke-linecap="butt"/><path d="M236.45128,268.41667c0,0 -7.46545,30.35582 -2.32961,70.25737c2.3536,18.28569 16.38434,38.5761 16.86693,58.86842c0.49569,20.84271 -12.29589,41.68744 -11.29146,60.36394c1.29917,24.15691 11.60313,44.68641 11.60313,56.89232c0,10.34508 -11.32106,33.81905 -14.65539,56.40109c-4.02479,27.25822 -0.19359,53.21686 -0.19359,53.21686" data-paper-data="{&quot;index&quot;:null}" fill="none" stroke="#e6fffe" stroke-width="5" stroke-linecap="round"/></g></g></svg>