<svg version="1.1" xmlns="http://www.w3.org/2000/svg" xmlns:xlink="http://www.w3.org/1999/xlink" width="273.81822" height="273.81822" viewBox="0,0,273.81822,273.81822"><defs><radialGradient cx="196.54122" cy="194.95421" r="6.164" gradientUnits="userSpaceOnUse" id="color-1"><stop offset="0" stop-color="#e591ff"/><stop offset="1" stop-color="#e591ff" stop-opacity="0"/></radialGradient><radialGradient cx="218.51491" cy="195.33174" r="11.09857" gradientUnits="userSpaceOnUse" id="color-2"><stop offset="0" stop-color="#dcffea"/><stop offset="1" stop-color="#dcffea" stop-opacity="0"/></radialGradient><radialGradient cx="210.23443" cy="195.15203" r="9.69654" gradientUnits="userSpaceOnUse" id="color-3"><stop offset="0" stop-color="#6bedff"/><stop offset="1" stop-color="#6bedff" stop-opacity="0"/></radialGradient><radialGradient cx="227.91528" cy="195.2449" r="12.72433" gradientUnits="userSpaceOnUse" id="color-4"><stop offset="0" stop-color="#ffe684"/><stop offset="1" stop-color="#ffe684" stop-opacity="0"/></radialGradient><radialGradient cx="238.98484" cy="194.65091" r="15.67238" gradientUnits="userSpaceOnUse" id="color-5"><stop offset="0" stop-color="#ffd942"/><stop offset="1" stop-color="#ffd942" stop-opacity="0"/></radialGradient><radialGradient cx="205.33764" cy="195.55421" r="6.96757" gradientUnits="userSpaceOnUse" id="color-6"><stop offset="0" stop-color="#dd6eff"/><stop offset="1" stop-color="#dd6eff" stop-opacity="0"/></radialGradient><linearGradient x1="251.81702" y1="195.24982" x2="148.99854" y2="194.81452" gradientUnits="userSpaceOnUse" id="color-7"><stop offset="0" stop-color="#b850ff"/><stop offset="1" stop-color="#b850ff" stop-opacity="0"/></linearGradient><linearGradient x1="251.1189" y1="195.24999" x2="192.20457" y2="194.76512" gradientUnits="userSpaceOnUse" id="color-8"><stop offset="0" stop-color="#5df3ff"/><stop offset="1" stop-color="#5df3ff" stop-opacity="0"/></linearGradient><linearGradient x1="249.75047" y1="195.34999" x2="215.70329" y2="194.86512" gradientUnits="userSpaceOnUse" id="color-9"><stop offset="0" stop-color="#ffca00"/><stop offset="1" stop-color="#ffca00" stop-opacity="0"/></linearGradient><linearGradient x1="247.41588" y1="195.33315" x2="221.24457" y2="194.89785" gradientUnits="userSpaceOnUse" id="color-10"><stop offset="0" stop-color="#ffca00"/><stop offset="1" stop-color="#ffca00" stop-opacity="0"/></linearGradient><radialGradient cx="235.09516" cy="195.31373" r="4.66228" gradientUnits="userSpaceOnUse" id="color-11"><stop offset="0" stop-color="#ffaa00"/><stop offset="1" stop-color="#ffaa00" stop-opacity="0"/></radialGradient><linearGradient x1="245.77657" y1="195.48393" x2="210.7986" y2="195.2136" gradientUnits="userSpaceOnUse" id="color-12"><stop offset="0" stop-color="#ffd350"/><stop offset="1" stop-color="#ffd350" stop-opacity="0"/></linearGradient><radialGradient cx="239.75088" cy="195.48774" r="6.19551" gradientUnits="userSpaceOnUse" id="color-13"><stop offset="0" stop-color="#ffab00"/><stop offset="1" stop-color="#ffab00" stop-opacity="0"/></radialGradient><linearGradient x1="246.24146" y1="195.30175" x2="228.30209" y2="194.97908" gradientUnits="userSpaceOnUse" id="color-14"><stop offset="0" stop-color="#ff7800"/><stop offset="1" stop-color="#ff7800" stop-opacity="0"/></linearGradient><linearGradient x1="245.48619" y1="195.30516" x2="229.74399" y2="194.9876" gradientUnits="userSpaceOnUse" id="color-15"><stop offset="0" stop-color="#ffab00"/><stop offset="1" stop-color="#ffab00" stop-opacity="0"/></linearGradient></defs><g transform="translate(-103.09089,-43.09089)"><g data-paper-data="{&quot;isPaintingLayer&quot;:true}" fill-rule="nonzero" stroke-linejoin="miter" stroke-miterlimit="10" stroke-dasharray="" stroke-dashoffset="0" style="mix-blend-mode: normal"><path d="M202.70524,194.95421c0,3.38915 -2.75971,6.1366 -6.164,6.1366c-3.40428,0 -6.164,-2.74745 -6.164,-6.1366c0,-3.38915 2.75971,-6.13661 6.164,-6.13661c3.40428,0 6.164,2.74746 6.164,6.13661z" fill="url(#color-1)" stroke="none" stroke-width="0" stroke-linecap="butt"/><path d="M229.61344,195.33174c0,6.10233 -4.969,11.04925 -11.09857,11.04925c-6.12957,0 -11.09857,-4.94692 -11.09857,-11.04925c0,-6.10233 4.969,-11.04924 11.09857,-11.04924c6.12957,0 11.09857,4.94691 11.09857,11.04924z" fill="url(#color-2)" stroke="none" stroke-width="0" stroke-linecap="butt"/><path d="M219.93097,195.15203c0,5.33145 -4.34129,9.65345 -9.69654,9.65345c-5.35525,0 -9.69654,-4.322 -9.69654,-9.65345c0,-5.33145 4.34128,-9.65344 9.69654,-9.65344c5.35525,0 9.69654,4.32199 9.69654,9.65344z" fill="url(#color-3)" stroke="none" stroke-width="0" stroke-linecap="butt"/><path d="M240.63965,195.2449c0,6.99623 -5.69688,12.66778 -12.72433,12.66778c-7.02746,0 -12.72434,-5.67156 -12.72434,-12.66778c0,-6.99623 5.69688,-12.66778 12.72434,-12.66778c7.02746,0 12.72433,5.67156 12.72433,12.66778z" fill="url(#color-4)" stroke="none" stroke-width="0" stroke-linecap="butt"/><path d="M254.65722,194.65091c0,8.61715 -7.01676,15.60273 -15.67238,15.60273c-8.65562,0 -15.6724,-6.98558 -15.6724,-15.60273c0,-8.61715 7.01678,-15.60273 15.6724,-15.60273c8.65562,0 15.67238,6.98558 15.67238,15.60273z" fill="url(#color-5)" stroke="none" stroke-width="0" stroke-linecap="butt"/><path d="M212.30523,195.55421c0,3.83098 -3.11948,6.9366 -6.96757,6.9366c-3.84808,0 -6.96757,-3.10562 -6.96757,-6.9366c0,-3.83098 3.11948,-6.93661 6.96757,-6.93661c3.84808,0 6.96757,3.10563 6.96757,6.93661z" fill="url(#color-6)" stroke="none" stroke-width="0" stroke-linecap="butt"/><path d="M229.42175,199.48263c-4.27284,-0.01809 -18.48638,0.13354 -31.32572,-0.33343c-11.57095,-0.42083 -26.85676,-0.71485 -36.15434,-1.47472c-9.60631,-0.78507 -13.03438,-2.0418 -12.94686,-2.82611c0.08536,-0.7657 3.82956,-2.13943 12.97299,-2.83724c9.74844,-0.74397 25.29243,-0.79788 37.67594,-1.13823c12.19084,-0.33504 26.66508,-0.04702 30.74177,-0.02976c12.10201,0.05124 15.61211,2.02678 15.34603,4.41251c-0.2661,2.38573 -4.20771,4.27822 -16.30979,4.22698z" fill="url(#color-7)" stroke="none" stroke-width="0" stroke-linecap="butt"/><path d="M238.28657,199.96486c-2.44831,-0.02015 -10.59258,0.14875 -17.94945,-0.3714c-6.63008,-0.46875 -15.38877,-0.79626 -20.71621,-1.64267c-5.50436,-0.87447 -7.46861,-2.27434 -7.41845,-3.14796c0.04892,-0.85291 2.19431,-2.38308 7.43344,-3.16036c5.58578,-0.82869 14.49239,-0.88875 21.58808,-1.26785c6.98528,-0.3732 15.27892,-0.05238 17.61484,-0.03315c6.93438,0.05707 8.94564,2.2576 8.79317,4.91503c-0.15247,2.65743 -2.411,4.76544 -9.34541,4.70837z" fill="url(#color-8)" stroke="none" stroke-width="0" stroke-linecap="butt"/><path d="M242.33453,200.06486c-1.4149,-0.02015 -6.12156,0.14875 -10.37316,-0.3714c-3.83159,-0.46875 -8.89332,-0.79626 -11.9721,-1.64267c-3.18102,-0.87447 -4.31618,-2.27434 -4.2872,-3.14796c0.02827,-0.85291 1.26811,-2.38308 4.29585,-3.16036c3.22808,-0.82869 8.3753,-0.88875 12.47597,-1.26785c4.03686,-0.3732 8.82984,-0.05238 10.17979,-0.03315c4.00745,0.05707 5.16978,2.2576 5.08166,4.91503c-0.08811,2.65743 -1.39334,4.76544 -5.40081,4.70837z" fill="url(#color-9)" stroke="none" stroke-width="0" stroke-linecap="butt"/><path d="M159.21204,124.08229l170.55683,142.64666" fill="none" stroke="none" stroke-width="0" stroke-linecap="round"/><path d="M241.71541,199.56597c-1.0876,-0.01809 -4.70551,0.13354 -7.97362,-0.33343c-2.94526,-0.42083 -6.83609,-0.71485 -9.20268,-1.47472c-2.44518,-0.78507 -3.31776,-2.0418 -3.29549,-2.82611c0.02173,-0.7657 0.97477,-2.13943 3.30213,-2.83725c2.48136,-0.74397 6.43792,-0.79788 9.59,-1.13822c3.10305,-0.33504 6.7873,-0.04702 7.82498,-0.02976c3.08043,0.05124 3.97389,2.02678 3.90617,4.41251c-0.06773,2.38573 -1.07103,4.27822 -4.15148,4.22698z" fill="url(#color-10)" stroke="none" stroke-width="0" stroke-linecap="butt"/><path d="M234.97598,199.97449c-2.57407,-0.06582 -4.6074,-2.20587 -4.54158,-4.77994c0.06582,-2.57407 2.20587,-4.6074 4.77994,-4.54158c2.57407,0.06582 4.6074,2.20587 4.54158,4.77994c-0.06582,2.57407 -2.20587,4.6074 -4.77994,4.54158z" fill="url(#color-11)" stroke="none" stroke-width="NaN" stroke-linecap="butt"/><path d="M238.15793,198.1125c-1.45359,-0.01123 -6.28892,0.08293 -10.65676,-0.20705c-3.93634,-0.26133 -9.13645,-0.44392 -12.29941,-0.9158c-3.26799,-0.48753 -4.43419,-1.26796 -4.40441,-1.75501c0.02904,-0.4755 1.30278,-1.32859 4.4133,-1.76193c3.31634,-0.462 8.60427,-0.49549 12.81704,-0.70684c4.14722,-0.20806 9.07124,-0.0292 10.4581,-0.01848c4.11701,0.03182 5.31111,1.25863 5.22059,2.74016c-0.09052,1.48154 -1.43143,2.65677 -5.54846,2.62494z" fill="url(#color-12)" stroke="none" stroke-width="0" stroke-linecap="butt"/><path d="M239.59248,201.68123c-3.42057,-0.08747 -6.12258,-2.9313 -6.03511,-6.35186c0.08747,-3.42057 2.9313,-6.12258 6.35186,-6.03511c3.42057,0.08747 6.12258,2.9313 6.03511,6.35186c-0.08747,3.42057 -2.9313,6.12258 -6.35186,6.03511z" fill="url(#color-13)" stroke="none" stroke-width="NaN" stroke-linecap="butt"/><path d="M242.33405,198.43932c-0.74551,-0.01342 -3.22544,0.09899 -5.4656,-0.24715c-2.01886,-0.31194 -4.68587,-0.52988 -6.30808,-1.09314c-1.67607,-0.58193 -2.27419,-1.51349 -2.25892,-2.09486c0.01489,-0.56758 0.66817,-1.58585 2.26348,-2.1031c1.70087,-0.55147 4.41293,-0.59143 6.57356,-0.84371c2.12701,-0.24835 4.65242,-0.03485 5.36371,-0.02206c2.11151,0.03798 2.72395,1.50235 2.67752,3.27077c-0.04642,1.76843 -0.73415,3.17123 -2.84567,3.13325z" fill="url(#color-14)" stroke="none" stroke-width="0" stroke-linecap="butt"/><path d="M242.05737,198.39309c-0.6542,-0.0132 -2.83039,0.09742 -4.79618,-0.24324c-1.77159,-0.307 -4.11195,-0.5215 -5.53547,-1.07584c-1.47079,-0.57272 -1.99565,-1.48954 -1.98225,-2.06171c0.01307,-0.5586 0.58633,-1.56076 1.98625,-2.06983c1.49255,-0.54274 3.87244,-0.58207 5.76844,-0.83036c1.8665,-0.24442 4.0826,-0.0343 4.70677,-0.02171c1.8529,0.03738 3.32194,1.47858 3.2812,3.21902c-0.04074,1.74044 -1.57585,3.12105 -3.42876,3.08367z" fill="url(#color-15)" stroke="none" stroke-width="0" stroke-linecap="butt"/><path d="M236.67208,195.38083c0.02538,-1.08404 0.98152,-1.94393 2.1356,-1.92066c1.15407,0.02328 2.06907,0.92094 2.0437,2.00497c-0.02538,1.08404 -0.98152,1.94393 -2.13559,1.92066c-1.15407,-0.02328 -2.06907,-0.92093 -2.0437,-2.00497z" data-paper-data="{&quot;index&quot;:null}" fill="#f18500" stroke="none" stroke-width="0" stroke-linecap="butt"/><path d="M237.5871,195.44029c0.02538,-1.08404 0.98152,-1.94393 2.13559,-1.92066c1.15407,0.02328 2.06907,0.92094 2.0437,2.00497c-0.02538,1.08404 -0.98151,1.94394 -2.13559,1.92066c-1.15407,-0.02328 -2.06908,-0.92094 -2.04371,-2.00497z" data-paper-data="{&quot;index&quot;:null}" fill="#f18500" stroke="none" stroke-width="0" stroke-linecap="butt"/><path d="M240.63402,197.46548c-1.15407,-0.02328 -2.06907,-0.92093 -2.0437,-2.00497c0.02538,-1.08404 0.98151,-1.94394 2.13559,-1.92066c1.15407,0.02328 2.06908,0.92094 2.04371,2.00497c-0.02538,1.08404 -0.98152,1.94392 -2.13559,1.92066z" fill="#ff8d00" stroke="none" stroke-width="0" stroke-linecap="butt"/><path d="M236.01308,200.06409c-0.20398,0.28655 -0.42966,0.4457 -0.66702,0.4457c-0.9122,0 -1.65168,-2.3505 -1.65168,-5.25c0,-2.8995 0.73948,-5.25 1.65168,-5.25c0.25956,0 0.50513,0.19031 0.72367,0.52942" fill="none" stroke="#ffbe00" stroke-width="0.5" stroke-linecap="butt"/><path d="M227.38808,199.93909c-0.20398,0.28655 -0.42966,0.4457 -0.66702,0.4457c-0.9122,0 -1.65168,-2.3505 -1.65168,-5.25c0,-2.8995 0.73948,-5.25 1.65168,-5.25c0.25956,0 0.50513,0.19031 0.72367,0.52942" fill="none" stroke="#fcf399" stroke-width="0.5" stroke-linecap="butt"/><path d="M231.74918,200.06409c-0.20398,0.28655 -0.42966,0.4457 -0.66702,0.4457c-0.9122,0 -1.65168,-2.3505 -1.65168,-5.25c0,-2.8995 0.73948,-5.25 1.65168,-5.25c0.25956,0 0.50513,0.19031 0.72367,0.52942" fill="none" stroke="#ffd910" stroke-width="0.5" stroke-linecap="butt"/><path d="M223.12659,199.5274c-0.19535,0.27443 -0.41146,0.42683 -0.63878,0.42683c-0.87359,0 -1.58177,-2.25101 -1.58177,-5.02778c0,-2.77677 0.70818,-5.02777 1.58177,-5.02777c0.24857,0 0.48375,0.18225 0.69304,0.50701" fill="none" stroke="#e7fcfc" stroke-width="0.5" stroke-linecap="butt"/><path d="M218.29099,199.32876c-0.18455,0.25926 -0.38873,0.40326 -0.60349,0.40326c-0.82532,0 -1.49438,-2.12665 -1.49438,-4.75001c0,-2.62336 0.66906,-4.74999 1.49438,-4.74999c0.23484,0 0.45703,0.17218 0.65475,0.47899" fill="none" stroke="#97e9fc" stroke-width="0.5" stroke-linecap="butt"/><path d="M212.62614,199.2318c-0.17808,0.25017 -0.37509,0.38911 -0.58231,0.38911c-0.79637,0 -1.44195,-2.05204 -1.44195,-4.58334c0,-2.53131 0.64559,-4.58333 1.44195,-4.58333c0.2266,0 0.441,0.16614 0.63178,0.46219" fill="none" stroke="#a4c7fc" stroke-width="0.5" stroke-linecap="butt"/><path d="M206.18524,198.92676c-0.16513,0.23198 -0.34781,0.36081 -0.53996,0.36081c-0.73845,0 -1.33708,-1.9028 -1.33708,-4.25001c0,-2.34721 0.59863,-4.25 1.33708,-4.25c0.21012,0 0.40892,0.15406 0.58583,0.42858" fill="none" stroke="#c2a4fc" stroke-width="0.5" stroke-linecap="butt"/><path d="M198.91532,198.56785c-0.1565,0.21984 -0.32963,0.34194 -0.51172,0.34194c-0.69984,0 -1.26717,-1.8033 -1.26717,-4.02778c0,-2.22448 0.56734,-4.02777 1.26717,-4.02777c0.19913,0 0.38754,0.146 0.55519,0.40617" fill="none" stroke="#e197fc" stroke-width="0.5" stroke-linecap="butt"/><path d="M191.88401,194.76211c0,2.21681 -0.59902,4.01388 -1.33796,4.01388c-0.73893,0 -1.33796,-1.79708 -1.33796,-4.01388c0,-2.21681 0.59902,-4.01388 1.33796,-4.01388c0.73893,0 1.33796,1.79708 1.33796,4.01388z" fill="none" stroke="#e197fc" stroke-width="0.5" stroke-linecap="butt"/><path d="M184.30163,194.70191c0,1.94323 -0.47259,3.51851 -1.05556,3.51851c-0.58297,0 -1.05556,-1.57529 -1.05556,-3.51851c0,-1.94323 0.47259,-3.51852 1.05556,-3.51852c0.58297,0 1.05556,1.57529 1.05556,3.51852z" fill="none" stroke="#e197fc" stroke-width="0.5" stroke-linecap="butt"/><path d="M136.21549,285.06668l207.56911,-200.80003" fill="none" stroke="none" stroke-width="0" stroke-linecap="round"/><path d="M174.97341,194.70192c0,1.83277 -0.44573,3.31851 -0.99556,3.31851c-0.54983,0 -0.99556,-1.48575 -0.99556,-3.31851c0,-1.83277 0.44573,-3.31852 0.99556,-3.31852c0.54983,0 0.99556,1.48575 0.99556,3.31852z" fill="none" stroke="#e197fc" stroke-width="0.5" stroke-linecap="butt"/><path d="M347.28311,259.06518l-207.56911,-200.80003" data-paper-data="{&quot;index&quot;:null}" fill="none" stroke="none" stroke-width="0" stroke-linecap="round"/><path d="M103.09089,316.90911v-273.81822h273.81822v273.81822z" fill="none" stroke="none" stroke-width="0" stroke-linecap="butt"/></g></g></svg>