<svg version="1.1" xmlns="http://www.w3.org/2000/svg" xmlns:xlink="http://www.w3.org/1999/xlink" width="61.5" height="54.125" viewBox="0,0,61.5,54.125"><g transform="translate(-210.47222,-148.66669)"><g data-paper-data="{&quot;isPaintingLayer&quot;:true}" fill-rule="nonzero" stroke-linejoin="miter" stroke-miterlimit="10" stroke-dasharray="" stroke-dashoffset="0" style="mix-blend-mode: normal"><path d="M210.47222,202.79169l61.5,-54.125" fill="none" stroke="#000000" stroke-width="0" stroke-linecap="round"/><path d="M234.93375,190.6717c-0.39861,0 -0.73316,-0.13524 -1.00364,-0.40573c-0.26337,-0.2776 -0.39505,-0.60859 -0.39505,-0.99296c0,-0.39861 0.12812,-0.72604 0.38437,-0.98229l7.7622,-9.07548c0.54809,-0.6335 0.97161,-1.23142 1.27057,-1.79374c0.30607,-0.56944 0.45911,-1.11041 0.45911,-1.62291c0,-0.79722 -0.1388,-1.48767 -0.4164,-2.07134c-0.27048,-0.58368 -0.66198,-1.03567 -1.17447,-1.35598c-0.5125,-0.32031 -1.12109,-0.48047 -1.82577,-0.48047c-0.69757,0 -1.32395,0.17795 -1.87916,0.53385c-0.55521,0.3559 -0.99296,0.83281 -1.31327,1.43072c-0.31319,0.5908 -0.46979,1.23854 -0.46979,1.94322c0,0.37014 -0.13524,0.69045 -0.40573,0.96093c-0.26337,0.27048 -0.59435,0.40573 -0.99296,0.40573c-0.38437,0 -0.71536,-0.13524 -0.99296,-0.40573c-0.27048,-0.27048 -0.40573,-0.5908 -0.40573,-0.96093c0,-1.23854 0.28116,-2.34539 0.84349,-3.32056c0.56944,-0.97517 1.34175,-1.74391 2.31692,-2.30624c0.97517,-0.56232 2.0749,-0.84349 3.2992,-0.84349c1.23854,0 2.31336,0.26337 3.22446,0.7901c0.91111,0.52673 1.61579,1.27413 2.11405,2.24218c0.49826,0.96093 0.74739,2.10693 0.74739,3.438c0,0.58368 -0.12457,1.17803 -0.3737,1.78306c-0.24201,0.59791 -0.55165,1.17091 -0.9289,1.719c-0.37014,0.54809 -0.74383,1.03923 -1.12109,1.47343l-6.26742,7.1109h7.65543c0.39861,0 0.73316,0.14236 1.00364,0.42708c0.2776,0.2776 0.4164,0.59791 0.4164,0.96093c0,0.38437 -0.1388,0.71536 -0.4164,0.99296c-0.27048,0.27048 -0.60503,0.40573 -1.00364,0.40573z" fill="#ffffff" stroke="#f3f3f3" stroke-width="1" stroke-linecap="square"/></g></g></svg>