<svg version="1.1" xmlns="http://www.w3.org/2000/svg" xmlns:xlink="http://www.w3.org/1999/xlink" width="83.31486" height="36.41743" viewBox="0,0,83.31486,36.41743"><defs><linearGradient x1="310.61967" y1="233.77696" x2="310.621" y2="256.15795" gradientUnits="userSpaceOnUse" id="color-1"><stop offset="0" stop-color="#000000"/><stop offset="1" stop-color="#000000" stop-opacity="0"/></linearGradient><linearGradient x1="247.40629" y1="241.7573" x2="304.40627" y2="241.7573" gradientUnits="userSpaceOnUse" id="color-2"><stop offset="0" stop-color="#6f7171"/><stop offset="1" stop-color="#6f7171" stop-opacity="0"/></linearGradient></defs><g transform="translate(-247.40628,-226.68136)"><g data-paper-data="{&quot;isPaintingLayer&quot;:true}" fill-rule="nonzero" stroke-linejoin="miter" stroke-miterlimit="10" stroke-dasharray="" stroke-dashoffset="0" style="mix-blend-mode: normal"><path d="M316.96538,241.06226l0.0012,19.28572" fill="none" stroke="#f7fbfb" stroke-width="5.5" stroke-linecap="round"/><path d="M310.46535,241.06267l0.00119,19.28572" fill="none" stroke="#f7fbfb" stroke-width="5.5" stroke-linecap="round"/><path d="M303.96657,260.34879l-0.00119,-19.28572" fill="none" stroke="#f7fbfb" stroke-width="5.5" stroke-linecap="round"/><path d="M302.46216,241.98854l2.7273,-0.00017l0.0007,11.25l-2.7273,0.00017z" fill="#00ddff" stroke="none" stroke-width="0" stroke-linecap="butt"/><path d="M316.09853,241.98768l2.72722,-0.00017l0.0007,11.25l-2.72722,0.00017z" fill="#00ddff" stroke="none" stroke-width="0" stroke-linecap="butt"/><path d="M317.16801,262.77552c-1.39328,0.00009 -2.52274,-0.66419 -2.52279,-1.48379c-0.00005,-0.81952 1.12934,-1.48409 2.52261,-1.48417c1.39328,-0.00009 2.52281,0.66426 2.52286,1.48386c0.00005,0.81952 -1.12941,1.48402 -2.52268,1.4841z" fill="#797c7c" stroke="none" stroke-width="0" stroke-linecap="butt"/><path d="M310.66795,262.77592c-1.39328,0.00009 -2.52283,-0.66419 -2.52287,-1.48379c-0.00005,-0.81952 1.12941,-1.48409 2.52269,-1.48417c1.39328,-0.00009 2.52281,0.66426 2.52285,1.48386c0.00005,0.81952 -1.12941,1.48402 -2.52267,1.4841z" fill="#797c7c" stroke="none" stroke-width="0" stroke-linecap="butt"/><path d="M303.91795,262.77634c-1.39328,0.00009 -2.52283,-0.6642 -2.52287,-1.4838c-0.00005,-0.81952 1.12941,-1.48409 2.52269,-1.48417c1.39328,-0.00009 2.52281,0.66426 2.52285,1.48387c0.00005,0.81952 -1.12941,1.48402 -2.52267,1.4841z" fill="#797c7c" stroke="none" stroke-width="0" stroke-linecap="butt"/><path d="M300.44111,246.27759l20.3571,-0.00126l0.00138,9.88095l-20.3571,0.00126z" fill="url(#color-1)" stroke="none" stroke-width="NaN" stroke-linecap="butt"/><path d="M270.82965,227.30474l59.8915,-0.62338l-0.60798,15.36478l-22.50742,14.05688l-49.50966,2.05122z" data-paper-data="{&quot;index&quot;:null}" fill="#f7fbfb" stroke="#8f8f8f" stroke-width="0" stroke-linecap="round"/><path d="M257.48955,236.1323h65l-15,10.25h-29.75z" data-paper-data="{&quot;index&quot;:null}" fill="#e5e9e9" stroke="none" stroke-width="0" stroke-linecap="butt"/><path d="M247.40629,256.42393v-29.33333h56.99999v29.33333z" fill="url(#color-2)" stroke="none" stroke-width="0" stroke-linecap="butt"/></g></g></svg>