<svg version="1.1" xmlns="http://www.w3.org/2000/svg" xmlns:xlink="http://www.w3.org/1999/xlink" width="69.69646" height="53.23854" viewBox="0,0,69.69646,53.23854"><defs><linearGradient x1="271.38219" y1="169.47968" x2="257.82707" y2="169.47968" gradientUnits="userSpaceOnUse" id="color-1"><stop offset="0" stop-color="#404040"/><stop offset="1" stop-color="#555555"/></linearGradient><linearGradient x1="257.82707" y1="169.47968" x2="271.38219" y2="169.47968" gradientUnits="userSpaceOnUse" id="color-2"><stop offset="0" stop-color="#404040"/><stop offset="1" stop-color="#232323"/></linearGradient><linearGradient x1="219.72219" y1="169.45368" x2="233.27732" y2="169.45368" gradientUnits="userSpaceOnUse" id="color-3"><stop offset="0" stop-color="#404040"/><stop offset="1" stop-color="#555555"/></linearGradient><linearGradient x1="219.72219" y1="169.45368" x2="233.27732" y2="169.45368" gradientUnits="userSpaceOnUse" id="color-4"><stop offset="0" stop-color="#232323"/><stop offset="1" stop-color="#404040"/></linearGradient><linearGradient x1="271.38219" y1="167.58148" x2="257.82707" y2="167.58148" gradientUnits="userSpaceOnUse" id="color-5"><stop offset="0" stop-color="#404040"/><stop offset="1" stop-color="#555555"/></linearGradient><linearGradient x1="257.82707" y1="167.58148" x2="271.38219" y2="167.58148" gradientUnits="userSpaceOnUse" id="color-6"><stop offset="0" stop-color="#404040"/><stop offset="1" stop-color="#232323"/></linearGradient><linearGradient x1="219.72219" y1="167.55549" x2="233.27732" y2="167.55549" gradientUnits="userSpaceOnUse" id="color-7"><stop offset="0" stop-color="#404040"/><stop offset="1" stop-color="#555555"/></linearGradient><linearGradient x1="219.72219" y1="167.55549" x2="233.27732" y2="167.55549" gradientUnits="userSpaceOnUse" id="color-8"><stop offset="0" stop-color="#232323"/><stop offset="1" stop-color="#404040"/></linearGradient><linearGradient x1="271.4697" y1="168.60019" x2="257.91461" y2="168.60019" gradientUnits="userSpaceOnUse" id="color-9"><stop offset="0" stop-color="#404040"/><stop offset="1" stop-color="#555555"/></linearGradient><linearGradient x1="257.91461" y1="168.60019" x2="271.4697" y2="168.60019" gradientUnits="userSpaceOnUse" id="color-10"><stop offset="0" stop-color="#404040"/><stop offset="1" stop-color="#232323"/></linearGradient><linearGradient x1="219.80972" y1="168.57419" x2="233.36484" y2="168.57419" gradientUnits="userSpaceOnUse" id="color-11"><stop offset="0" stop-color="#404040"/><stop offset="1" stop-color="#555555"/></linearGradient><linearGradient x1="219.80972" y1="168.57419" x2="233.36484" y2="168.57419" gradientUnits="userSpaceOnUse" id="color-12"><stop offset="0" stop-color="#232323"/><stop offset="1" stop-color="#404040"/></linearGradient><linearGradient x1="271.4697" y1="166.70201" x2="257.91461" y2="166.70201" gradientUnits="userSpaceOnUse" id="color-13"><stop offset="0" stop-color="#404040"/><stop offset="1" stop-color="#555555"/></linearGradient><linearGradient x1="257.91461" y1="166.70201" x2="271.4697" y2="166.70201" gradientUnits="userSpaceOnUse" id="color-14"><stop offset="0" stop-color="#404040"/><stop offset="1" stop-color="#232323"/></linearGradient><linearGradient x1="219.80972" y1="166.676" x2="233.36484" y2="166.676" gradientUnits="userSpaceOnUse" id="color-15"><stop offset="0" stop-color="#404040"/><stop offset="1" stop-color="#555555"/></linearGradient><linearGradient x1="219.80972" y1="166.676" x2="233.36484" y2="166.676" gradientUnits="userSpaceOnUse" id="color-16"><stop offset="0" stop-color="#232323"/><stop offset="1" stop-color="#404040"/></linearGradient><linearGradient x1="271.6631" y1="198.57747" x2="258.10801" y2="198.57747" gradientUnits="userSpaceOnUse" id="color-17"><stop offset="0" stop-color="#404040"/><stop offset="1" stop-color="#555555"/></linearGradient><linearGradient x1="258.10801" y1="198.57747" x2="271.6631" y2="198.57747" gradientUnits="userSpaceOnUse" id="color-18"><stop offset="0" stop-color="#404040"/><stop offset="1" stop-color="#232323"/></linearGradient><linearGradient x1="220.00311" y1="198.55144" x2="233.55825" y2="198.55144" gradientUnits="userSpaceOnUse" id="color-19"><stop offset="0" stop-color="#404040"/><stop offset="1" stop-color="#555555"/></linearGradient><linearGradient x1="220.00311" y1="198.55144" x2="233.55825" y2="198.55144" gradientUnits="userSpaceOnUse" id="color-20"><stop offset="0" stop-color="#232323"/><stop offset="1" stop-color="#404040"/></linearGradient><linearGradient x1="271.6631" y1="196.67927" x2="258.10801" y2="196.67927" gradientUnits="userSpaceOnUse" id="color-21"><stop offset="0" stop-color="#404040"/><stop offset="1" stop-color="#555555"/></linearGradient><linearGradient x1="258.10801" y1="196.67927" x2="271.6631" y2="196.67927" gradientUnits="userSpaceOnUse" id="color-22"><stop offset="0" stop-color="#404040"/><stop offset="1" stop-color="#232323"/></linearGradient><linearGradient x1="220.00311" y1="196.65325" x2="233.55825" y2="196.65325" gradientUnits="userSpaceOnUse" id="color-23"><stop offset="0" stop-color="#404040"/><stop offset="1" stop-color="#555555"/></linearGradient><linearGradient x1="220.00311" y1="196.65325" x2="233.55825" y2="196.65325" gradientUnits="userSpaceOnUse" id="color-24"><stop offset="0" stop-color="#232323"/><stop offset="1" stop-color="#404040"/></linearGradient><linearGradient x1="271.75064" y1="197.69798" x2="258.19552" y2="197.69798" gradientUnits="userSpaceOnUse" id="color-25"><stop offset="0" stop-color="#404040"/><stop offset="1" stop-color="#555555"/></linearGradient><linearGradient x1="258.19552" y1="197.69798" x2="271.75064" y2="197.69798" gradientUnits="userSpaceOnUse" id="color-26"><stop offset="0" stop-color="#404040"/><stop offset="1" stop-color="#232323"/></linearGradient><linearGradient x1="220.09065" y1="197.67198" x2="233.64578" y2="197.67198" gradientUnits="userSpaceOnUse" id="color-27"><stop offset="0" stop-color="#404040"/><stop offset="1" stop-color="#555555"/></linearGradient><linearGradient x1="220.09065" y1="197.67198" x2="233.64578" y2="197.67198" gradientUnits="userSpaceOnUse" id="color-28"><stop offset="0" stop-color="#232323"/><stop offset="1" stop-color="#404040"/></linearGradient><linearGradient x1="271.75064" y1="195.79979" x2="258.19552" y2="195.79979" gradientUnits="userSpaceOnUse" id="color-29"><stop offset="0" stop-color="#404040"/><stop offset="1" stop-color="#555555"/></linearGradient><linearGradient x1="258.19552" y1="195.79979" x2="271.75064" y2="195.79979" gradientUnits="userSpaceOnUse" id="color-30"><stop offset="0" stop-color="#404040"/><stop offset="1" stop-color="#232323"/></linearGradient><linearGradient x1="220.09065" y1="195.77378" x2="233.64578" y2="195.77378" gradientUnits="userSpaceOnUse" id="color-31"><stop offset="0" stop-color="#404040"/><stop offset="1" stop-color="#555555"/></linearGradient><linearGradient x1="220.09065" y1="195.77378" x2="233.64578" y2="195.77378" gradientUnits="userSpaceOnUse" id="color-32"><stop offset="0" stop-color="#232323"/><stop offset="1" stop-color="#404040"/></linearGradient><linearGradient x1="266.17555" y1="198.56003" x2="252.62044" y2="198.56003" gradientUnits="userSpaceOnUse" id="color-33"><stop offset="0" stop-color="#404040"/><stop offset="1" stop-color="#555555"/></linearGradient><linearGradient x1="252.62044" y1="198.56003" x2="266.17555" y2="198.56003" gradientUnits="userSpaceOnUse" id="color-34"><stop offset="0" stop-color="#404040"/><stop offset="1" stop-color="#232323"/></linearGradient><linearGradient x1="214.51555" y1="198.53402" x2="228.07068" y2="198.53402" gradientUnits="userSpaceOnUse" id="color-35"><stop offset="0" stop-color="#404040"/><stop offset="1" stop-color="#555555"/></linearGradient><linearGradient x1="214.51555" y1="198.53402" x2="228.07068" y2="198.53402" gradientUnits="userSpaceOnUse" id="color-36"><stop offset="0" stop-color="#232323"/><stop offset="1" stop-color="#404040"/></linearGradient><linearGradient x1="266.17555" y1="196.66184" x2="252.62044" y2="196.66184" gradientUnits="userSpaceOnUse" id="color-37"><stop offset="0" stop-color="#404040"/><stop offset="1" stop-color="#555555"/></linearGradient><linearGradient x1="252.62044" y1="196.66184" x2="266.17555" y2="196.66184" gradientUnits="userSpaceOnUse" id="color-38"><stop offset="0" stop-color="#404040"/><stop offset="1" stop-color="#232323"/></linearGradient><linearGradient x1="214.51555" y1="196.48363" x2="228.07068" y2="196.48363" gradientUnits="userSpaceOnUse" id="color-39"><stop offset="0" stop-color="#404040"/><stop offset="1" stop-color="#555555"/></linearGradient><linearGradient x1="214.51555" y1="196.48363" x2="228.07068" y2="196.48363" gradientUnits="userSpaceOnUse" id="color-40"><stop offset="0" stop-color="#232323"/><stop offset="1" stop-color="#404040"/></linearGradient><linearGradient x1="265.90439" y1="169.54485" x2="252.34926" y2="169.54485" gradientUnits="userSpaceOnUse" id="color-41"><stop offset="0" stop-color="#404040"/><stop offset="1" stop-color="#555555"/></linearGradient><linearGradient x1="252.34926" y1="169.54485" x2="265.90439" y2="169.54485" gradientUnits="userSpaceOnUse" id="color-42"><stop offset="0" stop-color="#404040"/><stop offset="1" stop-color="#232323"/></linearGradient><linearGradient x1="214.24439" y1="169.51884" x2="227.79951" y2="169.51884" gradientUnits="userSpaceOnUse" id="color-43"><stop offset="0" stop-color="#404040"/><stop offset="1" stop-color="#555555"/></linearGradient><linearGradient x1="214.24439" y1="169.51884" x2="227.79951" y2="169.51884" gradientUnits="userSpaceOnUse" id="color-44"><stop offset="0" stop-color="#232323"/><stop offset="1" stop-color="#404040"/></linearGradient><linearGradient x1="265.90439" y1="167.40013" x2="252.34926" y2="167.40013" gradientUnits="userSpaceOnUse" id="color-45"><stop offset="0" stop-color="#404040"/><stop offset="1" stop-color="#555555"/></linearGradient><linearGradient x1="252.34926" y1="167.40013" x2="265.90439" y2="167.40013" gradientUnits="userSpaceOnUse" id="color-46"><stop offset="0" stop-color="#404040"/><stop offset="1" stop-color="#232323"/></linearGradient><linearGradient x1="214.24439" y1="167.37412" x2="227.79951" y2="167.37412" gradientUnits="userSpaceOnUse" id="color-47"><stop offset="0" stop-color="#404040"/><stop offset="1" stop-color="#555555"/></linearGradient><linearGradient x1="214.24439" y1="167.37412" x2="227.79951" y2="167.37412" gradientUnits="userSpaceOnUse" id="color-48"><stop offset="0" stop-color="#232323"/><stop offset="1" stop-color="#404040"/></linearGradient><linearGradient x1="266.02302" y1="166.07048" x2="252.4679" y2="166.07048" gradientUnits="userSpaceOnUse" id="color-49"><stop offset="0" stop-color="#404040"/><stop offset="1" stop-color="#555555"/></linearGradient><linearGradient x1="252.4679" y1="166.07048" x2="266.02302" y2="166.07048" gradientUnits="userSpaceOnUse" id="color-50"><stop offset="0" stop-color="#404040"/><stop offset="1" stop-color="#232323"/></linearGradient><linearGradient x1="214.36303" y1="166.04448" x2="227.91813" y2="166.04448" gradientUnits="userSpaceOnUse" id="color-51"><stop offset="0" stop-color="#404040"/><stop offset="1" stop-color="#555555"/></linearGradient><linearGradient x1="214.36303" y1="166.04448" x2="227.91813" y2="166.04448" gradientUnits="userSpaceOnUse" id="color-52"><stop offset="0" stop-color="#232323"/><stop offset="1" stop-color="#404040"/></linearGradient><linearGradient x1="266.17555" y1="194.89923" x2="252.62044" y2="194.89923" gradientUnits="userSpaceOnUse" id="color-53"><stop offset="0" stop-color="#404040"/><stop offset="1" stop-color="#555555"/></linearGradient><linearGradient x1="252.62044" y1="194.89923" x2="266.17555" y2="194.89923" gradientUnits="userSpaceOnUse" id="color-54"><stop offset="0" stop-color="#404040"/><stop offset="1" stop-color="#232323"/></linearGradient><linearGradient x1="214.51555" y1="194.87321" x2="228.07068" y2="194.87321" gradientUnits="userSpaceOnUse" id="color-55"><stop offset="0" stop-color="#404040"/><stop offset="1" stop-color="#555555"/></linearGradient><linearGradient x1="214.51555" y1="194.87321" x2="228.07068" y2="194.87321" gradientUnits="userSpaceOnUse" id="color-56"><stop offset="0" stop-color="#232323"/><stop offset="1" stop-color="#404040"/></linearGradient><linearGradient x1="228.31125" y1="175.10248" x2="232.82623" y2="175.10248" gradientUnits="userSpaceOnUse" id="color-57"><stop offset="0" stop-color="#4d4e4e" stop-opacity="0"/><stop offset="1" stop-color="#4d4e4e"/></linearGradient><radialGradient cx="221.29004" cy="153.79547" r="1.47449" gradientUnits="userSpaceOnUse" id="color-58"><stop offset="0" stop-color="#00d9ff"/><stop offset="1" stop-color="#00d9ff" stop-opacity="0"/></radialGradient><linearGradient x1="231.15506" y1="184.40478" x2="282.92859" y2="184.40478" gradientUnits="userSpaceOnUse" id="color-59"><stop offset="0" stop-color="#ffffff"/><stop offset="1" stop-color="#ffffff" stop-opacity="0"/></linearGradient><linearGradient x1="231.15506" y1="168.97621" x2="282.92859" y2="168.97621" gradientUnits="userSpaceOnUse" id="color-60"><stop offset="0" stop-color="#ffffff"/><stop offset="1" stop-color="#ffffff" stop-opacity="0"/></linearGradient><linearGradient x1="224.58333" y1="167.76324" x2="224.58333" y2="173.73149" gradientUnits="userSpaceOnUse" id="color-61"><stop offset="0" stop-color="#434343"/><stop offset="1" stop-color="#292929"/></linearGradient><linearGradient x1="223.71389" y1="169.47223" x2="225.4139" y2="169.47223" gradientUnits="userSpaceOnUse" id="color-62"><stop offset="0" stop-color="#828282"/><stop offset="1" stop-color="#6f6f6f"/></linearGradient><linearGradient x1="224.00719" y1="172.1678" x2="222.9889" y2="170.80652" gradientUnits="userSpaceOnUse" id="color-63"><stop offset="0" stop-color="#828282"/><stop offset="1" stop-color="#6f6f6f"/></linearGradient><linearGradient x1="225.29728" y1="172.15793" x2="226.21947" y2="170.7298" gradientUnits="userSpaceOnUse" id="color-64"><stop offset="0" stop-color="#828282"/><stop offset="1" stop-color="#6f6f6f"/></linearGradient><linearGradient x1="224.58333" y1="176.4299" x2="224.58333" y2="182.39816" gradientUnits="userSpaceOnUse" id="color-65"><stop offset="0" stop-color="#434343"/><stop offset="1" stop-color="#292929"/></linearGradient><linearGradient x1="223.65272" y1="178.08341" x2="223.04174" y2="179.66982" gradientUnits="userSpaceOnUse" id="color-66"><stop offset="0" stop-color="#828282"/><stop offset="1" stop-color="#6f6f6f"/></linearGradient><linearGradient x1="226.06277" y1="179.32591" x2="225.15843" y2="177.88641" gradientUnits="userSpaceOnUse" id="color-67"><stop offset="0" stop-color="#828282"/><stop offset="1" stop-color="#6f6f6f"/></linearGradient><linearGradient x1="225.5899" y1="180.52625" x2="223.92574" y2="180.87354" gradientUnits="userSpaceOnUse" id="color-68"><stop offset="0" stop-color="#828282"/><stop offset="1" stop-color="#6f6f6f"/></linearGradient><radialGradient cx="256.23238" cy="172.22387" r="2.97275" gradientUnits="userSpaceOnUse" id="color-69"><stop offset="0" stop-color="#87e2ff"/><stop offset="1" stop-color="#00c1ff"/></radialGradient><radialGradient cx="256.23238" cy="176.64054" r="2.97275" gradientUnits="userSpaceOnUse" id="color-70"><stop offset="0" stop-color="#87e2ff"/><stop offset="1" stop-color="#00c1ff"/></radialGradient><linearGradient x1="252.75001" y1="174.43221" x2="261.58332" y2="174.43221" gradientUnits="userSpaceOnUse" id="color-71"><stop offset="0" stop-color="#858586"/><stop offset="1" stop-color="#6e7071"/></linearGradient><radialGradient cx="257.16669" cy="174.43221" r="4.41668" gradientUnits="userSpaceOnUse" id="color-72"><stop offset="0" stop-color="#000000" stop-opacity="0"/><stop offset="1" stop-color="#000000" stop-opacity="0"/></radialGradient></defs><g transform="translate(-213.23213,-152.32099)"><g data-paper-data="{&quot;isPaintingLayer&quot;:true}" fill-rule="nonzero" stroke-linejoin="miter" stroke-miterlimit="10" stroke-dasharray="" stroke-dashoffset="0" style="mix-blend-mode: normal"><path d="M221.09355,174.96176v-10.92117h46.2402v10.92117z" fill="#555555" stroke="#3e3e3e" stroke-width="2" stroke-linecap="butt"/><path d="M257.82707,174.92945v-10.89953c0,0 11.02631,0 13.01754,0c0.63944,0 0.53758,0 0.53758,0v10.89953c0,0 0.14056,0 -0.6835,0c-2.17252,0 -12.87163,0 -12.87163,0z" data-paper-data="{&quot;index&quot;:null}" fill="url(#color-1)" stroke="url(#color-2)" stroke-width="3" stroke-linecap="butt"/><path d="M219.72219,174.90344v-10.89952c0,0 -0.12983,0 0.48774,0c1.96607,0 13.06739,0 13.06739,0v10.89952c0,0 -11.18168,0 -13.06739,0c-0.55244,0 -0.48774,0 -0.48774,0z" fill="url(#color-3)" stroke="url(#color-4)" stroke-width="2" stroke-linecap="butt"/><path d="M231.91549,173.75034v-8.58547h27.60731v8.58547z" fill="#555555" stroke="none" stroke-width="0" stroke-linecap="butt"/><path d="M223.12314,173.63937v-8.45468h2.15755v8.45468z" fill="#3f3f3f" stroke="none" stroke-width="0" stroke-linecap="butt"/><path d="M227.53205,173.72652v-8.45468h2.15754v8.45468z" fill="#494949" stroke="none" stroke-width="0" stroke-linecap="butt"/><path d="M232.22238,173.72652v-8.45468h2.15755v8.45468z" fill="#505050" stroke="none" stroke-width="0" stroke-linecap="butt"/><path d="M236.91272,173.72652v-8.45468h2.15755v8.45468z" fill="#505050" stroke="none" stroke-width="0" stroke-linecap="butt"/><path d="M241.60303,173.72652v-8.45468h2.15755v8.45468z" fill="#505050" stroke="none" stroke-width="0" stroke-linecap="butt"/><path d="M246.29338,173.63937v-8.45468h2.15755v8.45468z" fill="#505050" stroke="none" stroke-width="0" stroke-linecap="butt"/><path d="M251.17131,173.72652v-8.45468h2.15755v8.45468z" fill="#505050" stroke="none" stroke-width="0" stroke-linecap="butt"/><path d="M255.86163,173.72652v-8.45468h2.15755v8.45468z" fill="#505050" stroke="none" stroke-width="0" stroke-linecap="butt"/><path d="M260.73958,173.72652v-8.45468h2.15755v8.45468z" fill="#494949" stroke="none" stroke-width="0" stroke-linecap="butt"/><path d="M265.24226,173.63937v-8.45468h2.15755v8.45468z" fill="#3f3f3f" stroke="none" stroke-width="0" stroke-linecap="butt"/><path d="M221.09355,173.06357v-10.92117h46.2402v10.92117z" fill="#555555" stroke="#3e3e3e" stroke-width="2" stroke-linecap="butt"/><path d="M257.82707,173.03125v-10.89952c0,0 11.02631,0 13.01754,0c0.63944,0 0.53758,0 0.53758,0v10.89952c0,0 0.14056,0 -0.6835,0c-2.17252,0 -12.87163,0 -12.87163,0z" data-paper-data="{&quot;index&quot;:null}" fill="url(#color-5)" stroke="url(#color-6)" stroke-width="2" stroke-linecap="butt"/><path d="M219.72219,173.00525v-10.89952c0,0 -0.12983,0 0.48774,0c1.96607,0 13.06739,0 13.06739,0v10.89952c0,0 -11.18168,0 -13.06739,0c-0.55244,0 -0.48774,0 -0.48774,0z" fill="url(#color-7)" stroke="url(#color-8)" stroke-width="2" stroke-linecap="butt"/><path d="M231.91549,171.85215v-8.58548h27.60731v8.58548z" fill="#555555" stroke="none" stroke-width="0" stroke-linecap="butt"/><path d="M223.12314,171.74118v-8.45469h2.15755v8.45469z" fill="#3f3f3f" stroke="none" stroke-width="0" stroke-linecap="butt"/><path d="M227.53205,171.82833v-8.45468h2.15754v8.45468z" fill="#494949" stroke="none" stroke-width="0" stroke-linecap="butt"/><path d="M232.22238,171.82833v-8.45468h2.15755v8.45468z" fill="#505050" stroke="none" stroke-width="0" stroke-linecap="butt"/><path d="M236.91272,171.82833v-8.45468h2.15755v8.45468z" fill="#505050" stroke="none" stroke-width="0" stroke-linecap="butt"/><path d="M241.60303,171.82833v-8.45468h2.15755v8.45468z" fill="#505050" stroke="none" stroke-width="0" stroke-linecap="butt"/><path d="M246.29338,171.74118v-8.45469h2.15755v8.45469z" fill="#505050" stroke="none" stroke-width="0" stroke-linecap="butt"/><path d="M251.17131,171.82833v-8.45468h2.15755v8.45468z" fill="#505050" stroke="none" stroke-width="0" stroke-linecap="butt"/><path d="M255.86163,171.82833v-8.45468h2.15755v8.45468z" fill="#505050" stroke="none" stroke-width="0" stroke-linecap="butt"/><path d="M260.73958,171.82833v-8.45468h2.15755v8.45468z" fill="#494949" stroke="none" stroke-width="0" stroke-linecap="butt"/><path d="M265.24226,171.74118v-8.45469h2.15755v8.45469z" fill="#3f3f3f" stroke="none" stroke-width="0" stroke-linecap="butt"/><path d="M221.18109,174.08228v-10.92117h46.2402v10.92117z" fill="#555555" stroke="#3e3e3e" stroke-width="2" stroke-linecap="butt"/><path d="M257.91461,174.04996v-10.89952c0,0 11.02631,0 13.01754,0c0.63944,0 0.53758,0 0.53758,0v10.89952c0,0 0.14056,0 -0.6835,0c-2.17252,0 -12.87163,0 -12.87163,0z" data-paper-data="{&quot;index&quot;:null}" fill="url(#color-9)" stroke="url(#color-10)" stroke-width="3" stroke-linecap="butt"/><path d="M219.80972,174.02396v-10.89952c0,0 -0.12983,0 0.48774,0c1.96607,0 13.06738,0 13.06738,0v10.89952c0,0 -11.18167,0 -13.06738,0c-0.55244,0 -0.48774,0 -0.48774,0z" fill="url(#color-11)" stroke="url(#color-12)" stroke-width="2" stroke-linecap="butt"/><path d="M232.00301,172.87086v-8.58548h27.60731v8.58548z" fill="#555555" stroke="none" stroke-width="0" stroke-linecap="butt"/><path d="M223.21066,172.75988v-8.45468h2.15755v8.45468z" fill="#3f3f3f" stroke="none" stroke-width="0" stroke-linecap="butt"/><path d="M227.61958,172.84705v-8.45468h2.15754v8.45468z" fill="#494949" stroke="none" stroke-width="0" stroke-linecap="butt"/><path d="M232.30992,172.84705v-8.45468h2.15755v8.45468z" fill="#505050" stroke="none" stroke-width="0" stroke-linecap="butt"/><path d="M237.00024,172.84705v-8.45468h2.15755v8.45468z" fill="#505050" stroke="none" stroke-width="0" stroke-linecap="butt"/><path d="M241.69057,172.84705v-8.45468h2.15755v8.45468z" fill="#505050" stroke="none" stroke-width="0" stroke-linecap="butt"/><path d="M246.38091,172.75988v-8.45468h2.15755v8.45468z" fill="#505050" stroke="none" stroke-width="0" stroke-linecap="butt"/><path d="M251.25883,172.84705v-8.45468h2.15755v8.45468z" fill="#505050" stroke="none" stroke-width="0" stroke-linecap="butt"/><path d="M255.94917,172.84705v-8.45468h2.15755v8.45468z" fill="#505050" stroke="none" stroke-width="0" stroke-linecap="butt"/><path d="M260.8271,172.84705v-8.45468h2.15755v8.45468z" fill="#494949" stroke="none" stroke-width="0" stroke-linecap="butt"/><path d="M265.3298,172.75988v-8.45468h2.15755v8.45468z" fill="#3f3f3f" stroke="none" stroke-width="0" stroke-linecap="butt"/><path d="M221.18109,172.18409v-10.92117h46.2402v10.92117z" fill="#555555" stroke="#3e3e3e" stroke-width="2" stroke-linecap="butt"/><path d="M257.91461,172.15177v-10.89952c0,0 11.02631,0 13.01754,0c0.63944,0 0.53758,0 0.53758,0v10.89952c0,0 0.14056,0 -0.6835,0c-2.17252,0 -12.87163,0 -12.87163,0z" data-paper-data="{&quot;index&quot;:null}" fill="url(#color-13)" stroke="url(#color-14)" stroke-width="3" stroke-linecap="butt"/><path d="M219.80972,172.12577v-10.89952c0,0 -0.12983,0 0.48774,0c1.96607,0 13.06738,0 13.06738,0v10.89952c0,0 -11.18167,0 -13.06738,0c-0.55244,0 -0.48774,0 -0.48774,0z" fill="url(#color-15)" stroke="url(#color-16)" stroke-width="2" stroke-linecap="butt"/><path d="M232.00301,170.97267v-8.58548h27.60731v8.58548z" fill="#555555" stroke="none" stroke-width="0" stroke-linecap="butt"/><path d="M223.21066,170.86168v-8.45468h2.15755v8.45468z" fill="#3f3f3f" stroke="none" stroke-width="0" stroke-linecap="butt"/><path d="M227.61958,170.94886v-8.45469h2.15754v8.45469z" fill="#494949" stroke="none" stroke-width="0" stroke-linecap="butt"/><path d="M232.30992,170.94886v-8.45469h2.15755v8.45469z" fill="#505050" stroke="none" stroke-width="0" stroke-linecap="butt"/><path d="M237.00024,170.94886v-8.45469h2.15755v8.45469z" fill="#505050" stroke="none" stroke-width="0" stroke-linecap="butt"/><path d="M241.69057,170.94886v-8.45469h2.15755v8.45469z" fill="#505050" stroke="none" stroke-width="0" stroke-linecap="butt"/><path d="M246.38091,170.86168v-8.45468h2.15755v8.45468z" fill="#505050" stroke="none" stroke-width="0" stroke-linecap="butt"/><path d="M251.25883,170.94886v-8.45469h2.15755v8.45469z" fill="#505050" stroke="none" stroke-width="0" stroke-linecap="butt"/><path d="M255.94917,170.94886v-8.45469h2.15755v8.45469z" fill="#505050" stroke="none" stroke-width="0" stroke-linecap="butt"/><path d="M260.8271,170.94886v-8.45469h2.15755v8.45469z" fill="#494949" stroke="none" stroke-width="0" stroke-linecap="butt"/><path d="M265.3298,170.86168v-8.45468h2.15755v8.45468z" fill="#3f3f3f" stroke="none" stroke-width="0" stroke-linecap="butt"/><path d="M221.37449,204.05953v-10.92117h46.2402v10.92117z" fill="#555555" stroke="#3e3e3e" stroke-width="3" stroke-linecap="butt"/><path d="M258.10801,204.02723v-10.89952c0,0 11.02631,0 13.01754,0c0.63944,0 0.53758,0 0.53758,0v10.89952c0,0 0.14056,0 -0.6835,0c-2.17252,0 -12.87163,0 -12.87163,0z" data-paper-data="{&quot;index&quot;:null}" fill="url(#color-17)" stroke="url(#color-18)" stroke-width="3" stroke-linecap="butt"/><path d="M220.00311,204.00121v-10.89951c0,0 -0.12983,0 0.48774,0c1.96607,0 13.06738,0 13.06738,0v10.89951c0,0 -11.18167,0 -13.06738,0c-0.55244,0 -0.48774,0 -0.48774,0z" fill="url(#color-19)" stroke="url(#color-20)" stroke-width="2" stroke-linecap="butt"/><path d="M232.19641,202.84812v-8.58548h27.60731v8.58548z" fill="#555555" stroke="none" stroke-width="0" stroke-linecap="butt"/><path d="M223.40406,202.73714v-8.45468h2.15755v8.45468z" fill="#3f3f3f" stroke="none" stroke-width="0" stroke-linecap="butt"/><path d="M227.81298,202.82432v-8.45468h2.15754v8.45468z" fill="#494949" stroke="none" stroke-width="0" stroke-linecap="butt"/><path d="M232.50332,202.82432v-8.45468h2.15755v8.45468z" fill="#505050" stroke="none" stroke-width="0" stroke-linecap="butt"/><path d="M237.19364,202.82432v-8.45468h2.15755v8.45468z" fill="#505050" stroke="none" stroke-width="0" stroke-linecap="butt"/><path d="M241.88397,202.82432v-8.45468h2.15755v8.45468z" fill="#505050" stroke="none" stroke-width="0" stroke-linecap="butt"/><path d="M246.5743,202.73714v-8.45468h2.15755v8.45468z" fill="#505050" stroke="none" stroke-width="0" stroke-linecap="butt"/><path d="M251.45223,202.82432v-8.45468h2.15755v8.45468z" fill="#505050" stroke="none" stroke-width="0" stroke-linecap="butt"/><path d="M256.14257,202.82432v-8.45468h2.15755v8.45468z" fill="#505050" stroke="none" stroke-width="0" stroke-linecap="butt"/><path d="M261.0205,202.82432v-8.45468h2.15755v8.45468z" fill="#494949" stroke="none" stroke-width="0" stroke-linecap="butt"/><path d="M265.5232,202.73714v-8.45468h2.15755v8.45468z" fill="#3f3f3f" stroke="none" stroke-width="0" stroke-linecap="butt"/><path d="M221.37449,202.16134v-10.92117h46.2402v10.92117z" fill="#555555" stroke="#3e3e3e" stroke-width="2" stroke-linecap="butt"/><path d="M258.10801,202.12903v-10.89952c0,0 11.02631,0 13.01754,0c0.63944,0 0.53758,0 0.53758,0v10.89952c0,0 0.14056,0 -0.6835,0c-2.17252,0 -12.87163,0 -12.87163,0z" data-paper-data="{&quot;index&quot;:null}" fill="url(#color-21)" stroke="url(#color-22)" stroke-width="2" stroke-linecap="butt"/><path d="M220.00311,202.10302v-10.89951c0,0 -0.12983,0 0.48774,0c1.96607,0 13.06738,0 13.06738,0v10.89951c0,0 -11.18167,0 -13.06738,0c-0.55244,0 -0.48774,0 -0.48774,0z" fill="url(#color-23)" stroke="url(#color-24)" stroke-width="2" stroke-linecap="butt"/><path d="M232.19641,200.94993v-8.58547h27.60731v8.58547z" fill="#555555" stroke="none" stroke-width="0" stroke-linecap="butt"/><path d="M223.40406,200.83896v-8.45469h2.15755v8.45469z" fill="#3f3f3f" stroke="none" stroke-width="0" stroke-linecap="butt"/><path d="M227.81298,200.92612v-8.45468h2.15754v8.45468z" fill="#494949" stroke="none" stroke-width="0" stroke-linecap="butt"/><path d="M232.50332,200.92612v-8.45468h2.15755v8.45468z" fill="#505050" stroke="none" stroke-width="0" stroke-linecap="butt"/><path d="M237.19364,200.92612v-8.45468h2.15755v8.45468z" fill="#505050" stroke="none" stroke-width="0" stroke-linecap="butt"/><path d="M241.88397,200.92612v-8.45468h2.15755v8.45468z" fill="#505050" stroke="none" stroke-width="0" stroke-linecap="butt"/><path d="M246.5743,200.83896v-8.45469h2.15755v8.45469z" fill="#505050" stroke="none" stroke-width="0" stroke-linecap="butt"/><path d="M251.45223,200.92612v-8.45468h2.15755v8.45468z" fill="#505050" stroke="none" stroke-width="0" stroke-linecap="butt"/><path d="M256.14257,200.92612v-8.45468h2.15755v8.45468z" fill="#505050" stroke="none" stroke-width="0" stroke-linecap="butt"/><path d="M261.02051,200.92612v-8.45468h2.15755v8.45468z" fill="#494949" stroke="none" stroke-width="0" stroke-linecap="butt"/><path d="M265.5232,200.83896v-8.45469h2.15755v8.45469z" fill="#3f3f3f" stroke="none" stroke-width="0" stroke-linecap="butt"/><path d="M221.46201,203.18004v-10.92117h46.2402v10.92117z" fill="#555555" stroke="#3e3e3e" stroke-width="2" stroke-linecap="butt"/><path d="M258.19552,203.14775v-10.89952c0,0 11.02631,0 13.01754,0c0.63944,0 0.53758,0 0.53758,0v10.89952c0,0 0.14056,0 -0.6835,0c-2.17252,0 -12.87163,0 -12.87163,0z" data-paper-data="{&quot;index&quot;:null}" fill="url(#color-25)" stroke="url(#color-26)" stroke-width="3" stroke-linecap="butt"/><path d="M220.09065,203.12174v-10.89952c0,0 -0.12983,0 0.48774,0c1.96607,0 13.06739,0 13.06739,0v10.89952c0,0 -11.18168,0 -13.06739,0c-0.55244,0 -0.48774,0 -0.48774,0z" fill="url(#color-27)" stroke="url(#color-28)" stroke-width="2" stroke-linecap="butt"/><path d="M232.28395,201.96863v-8.58548h27.60731v8.58548z" fill="#555555" stroke="none" stroke-width="0" stroke-linecap="butt"/><path d="M223.4916,201.85767v-8.45468h2.15755v8.45468z" fill="#3f3f3f" stroke="none" stroke-width="0" stroke-linecap="butt"/><path d="M227.9005,201.94483v-8.45469h2.15754v8.45469z" fill="#494949" stroke="none" stroke-width="0" stroke-linecap="butt"/><path d="M232.59084,201.94483v-8.45469h2.15755v8.45469z" fill="#505050" stroke="none" stroke-width="0" stroke-linecap="butt"/><path d="M237.28118,201.94483v-8.45469h2.15755v8.45469z" fill="#505050" stroke="none" stroke-width="0" stroke-linecap="butt"/><path d="M241.97149,201.94483v-8.45469h2.15755v8.45469z" fill="#505050" stroke="none" stroke-width="0" stroke-linecap="butt"/><path d="M246.66184,201.85767v-8.45468h2.15755v8.45468z" fill="#505050" stroke="none" stroke-width="0" stroke-linecap="butt"/><path d="M251.53977,201.94483v-8.45469h2.15755v8.45469z" fill="#505050" stroke="none" stroke-width="0" stroke-linecap="butt"/><path d="M256.23008,201.94483v-8.45469h2.15755v8.45469z" fill="#505050" stroke="none" stroke-width="0" stroke-linecap="butt"/><path d="M261.10803,201.94483v-8.45469h2.15755v8.45469z" fill="#494949" stroke="none" stroke-width="0" stroke-linecap="butt"/><path d="M265.61073,201.85767v-8.45468h2.15755v8.45468z" fill="#3f3f3f" stroke="none" stroke-width="0" stroke-linecap="butt"/><path d="M221.46201,201.28185v-10.92117h46.2402v10.92117z" fill="#555555" stroke="#3e3e3e" stroke-width="2" stroke-linecap="butt"/><path d="M258.19552,201.24954v-10.89952c0,0 11.02631,0 13.01754,0c0.63944,0 0.53758,0 0.53758,0v10.89952c0,0 0.14056,0 -0.6835,0c-2.17252,0 -12.87163,0 -12.87163,0z" data-paper-data="{&quot;index&quot;:null}" fill="url(#color-29)" stroke="url(#color-30)" stroke-width="3" stroke-linecap="butt"/><path d="M220.09065,201.22355v-10.89952c0,0 -0.12983,0 0.48774,0c1.96607,0 13.06739,0 13.06739,0v10.89952c0,0 -11.18168,0 -13.06739,0c-0.55244,0 -0.48774,0 -0.48774,0z" fill="url(#color-31)" stroke="url(#color-32)" stroke-width="2" stroke-linecap="butt"/><path d="M232.28395,200.07044v-8.58547h27.60731v8.58547z" fill="#555555" stroke="none" stroke-width="0" stroke-linecap="butt"/><path d="M223.4916,199.95948v-8.45468h2.15755v8.45468z" fill="#3f3f3f" stroke="none" stroke-width="0" stroke-linecap="butt"/><path d="M227.9005,200.04664v-8.45468h2.15754v8.45468z" fill="#494949" stroke="none" stroke-width="0" stroke-linecap="butt"/><path d="M232.59084,200.04664v-8.45468h2.15755v8.45468z" fill="#505050" stroke="none" stroke-width="0" stroke-linecap="butt"/><path d="M237.28118,200.04664v-8.45468h2.15755v8.45468z" fill="#505050" stroke="none" stroke-width="0" stroke-linecap="butt"/><path d="M241.97149,200.04664v-8.45468h2.15755v8.45468z" fill="#505050" stroke="none" stroke-width="0" stroke-linecap="butt"/><path d="M246.66184,199.95948v-8.45468h2.15755v8.45468z" fill="#505050" stroke="none" stroke-width="0" stroke-linecap="butt"/><path d="M251.53977,200.04664v-8.45468h2.15755v8.45468z" fill="#505050" stroke="none" stroke-width="0" stroke-linecap="butt"/><path d="M256.23008,200.04664v-8.45468h2.15755v8.45468z" fill="#505050" stroke="none" stroke-width="0" stroke-linecap="butt"/><path d="M261.10803,200.04664v-8.45468h2.15755v8.45468z" fill="#494949" stroke="none" stroke-width="0" stroke-linecap="butt"/><path d="M265.61073,199.95948v-8.45468h2.15755v8.45468z" fill="#3f3f3f" stroke="none" stroke-width="0" stroke-linecap="butt"/><path d="M215.88693,204.04209v-10.92117h46.2402v10.92117z" fill="#555555" stroke="#3e3e3e" stroke-width="3" stroke-linecap="butt"/><path d="M252.62044,204.00979v-10.89952c0,0 11.02631,0 13.01754,0c0.63944,0 0.53758,0 0.53758,0v10.89952c0,0 0.14056,0 -0.6835,0c-2.17252,0 -12.87163,0 -12.87163,0z" data-paper-data="{&quot;index&quot;:null}" fill="url(#color-33)" stroke="url(#color-34)" stroke-width="3" stroke-linecap="butt"/><path d="M214.51555,203.98377v-10.89951c0,0 -0.12983,0 0.48774,0c1.96607,0 13.06738,0 13.06738,0v10.89951c0,0 -11.18167,0 -13.06738,0c-0.55244,0 -0.48774,0 -0.48774,0z" fill="url(#color-35)" stroke="url(#color-36)" stroke-width="3" stroke-linecap="butt"/><path d="M226.70885,202.83068v-8.58547h27.60731v8.58547z" fill="#555555" stroke="none" stroke-width="0" stroke-linecap="butt"/><path d="M217.91651,202.71972v-8.45469h2.15755v8.45469z" fill="#3f3f3f" stroke="none" stroke-width="0" stroke-linecap="butt"/><path d="M222.32542,202.80687v-8.45468h2.15754v8.45468z" fill="#494949" stroke="none" stroke-width="0" stroke-linecap="butt"/><path d="M227.01574,202.80687v-8.45468h2.15755v8.45468z" fill="#505050" stroke="none" stroke-width="0" stroke-linecap="butt"/><path d="M231.70608,202.80687v-8.45468h2.15755v8.45468z" fill="#505050" stroke="none" stroke-width="0" stroke-linecap="butt"/><path d="M236.39641,202.80687v-8.45468h2.15755v8.45468z" fill="#505050" stroke="none" stroke-width="0" stroke-linecap="butt"/><path d="M241.08673,202.71972v-8.45469h2.15755v8.45469z" fill="#505050" stroke="none" stroke-width="0" stroke-linecap="butt"/><path d="M245.96467,202.80687v-8.45468h2.15755v8.45468z" fill="#505050" stroke="none" stroke-width="0" stroke-linecap="butt"/><path d="M250.655,202.80687v-8.45468h2.15755v8.45468z" fill="#505050" stroke="none" stroke-width="0" stroke-linecap="butt"/><path d="M255.53293,202.80687v-8.45468h2.15755v8.45468z" fill="#494949" stroke="none" stroke-width="0" stroke-linecap="butt"/><path d="M260.03565,202.71972v-8.45469h2.15755v8.45469z" fill="#3f3f3f" stroke="none" stroke-width="0" stroke-linecap="butt"/><path d="M215.88693,202.1439v-10.92117h46.2402v10.92117z" fill="#555555" stroke="#3e3e3e" stroke-width="2" stroke-linecap="butt"/><path d="M252.62044,202.11159v-10.89952c0,0 11.02631,0 13.01754,0c0.63944,0 0.53758,0 0.53758,0v10.89952c0,0 0.14056,0 -0.6835,0c-2.17252,0 -12.87163,0 -12.87163,0z" data-paper-data="{&quot;index&quot;:null}" fill="url(#color-37)" stroke="url(#color-38)" stroke-width="2" stroke-linecap="butt"/><path d="M214.51555,201.93339v-10.89951c0,0 -0.12983,0 0.48774,0c1.96607,0 13.06738,0 13.06738,0v10.89951c0,0 -11.18167,0 -13.06738,0c-0.55244,0 -0.48774,0 -0.48774,0z" fill="url(#color-39)" stroke="url(#color-40)" stroke-width="3" stroke-linecap="butt"/><path d="M226.70885,200.93249v-8.58548h27.60731v8.58548z" fill="#555555" stroke="none" stroke-width="0" stroke-linecap="butt"/><path d="M217.91651,200.82152v-8.45469h2.15755v8.45469z" fill="#3f3f3f" stroke="none" stroke-width="0" stroke-linecap="butt"/><path d="M222.32542,200.90868v-8.45469h2.15754v8.45469z" fill="#494949" stroke="none" stroke-width="0" stroke-linecap="butt"/><path d="M227.01574,200.90868v-8.45469h2.15755v8.45469z" fill="#505050" stroke="none" stroke-width="0" stroke-linecap="butt"/><path d="M231.70608,200.90868v-8.45469h2.15755v8.45469z" fill="#505050" stroke="none" stroke-width="0" stroke-linecap="butt"/><path d="M236.39641,200.90868v-8.45469h2.15755v8.45469z" fill="#505050" stroke="none" stroke-width="0" stroke-linecap="butt"/><path d="M241.08673,200.82152v-8.45469h2.15755v8.45469z" fill="#505050" stroke="none" stroke-width="0" stroke-linecap="butt"/><path d="M245.96467,200.90868v-8.45469h2.15755v8.45469z" fill="#505050" stroke="none" stroke-width="0" stroke-linecap="butt"/><path d="M250.655,200.90868v-8.45469h2.15755v8.45469z" fill="#505050" stroke="none" stroke-width="0" stroke-linecap="butt"/><path d="M255.53295,200.90868v-8.45469h2.15755v8.45469z" fill="#494949" stroke="none" stroke-width="0" stroke-linecap="butt"/><path d="M260.03565,200.82152v-8.45469h2.15755v8.45469z" fill="#3f3f3f" stroke="none" stroke-width="0" stroke-linecap="butt"/><path d="M215.61575,175.02692v-10.92117h46.24019v10.92117z" fill="#555555" stroke="#3e3e3e" stroke-width="2" stroke-linecap="butt"/><path d="M252.34926,174.99461v-10.89952c0,0 11.02631,0 13.01755,0c0.63944,0 0.53758,0 0.53758,0v10.89952c0,0 0.14056,0 -0.6835,0c-2.17252,0 -12.87163,0 -12.87163,0z" data-paper-data="{&quot;index&quot;:null}" fill="url(#color-41)" stroke="url(#color-42)" stroke-width="3" stroke-linecap="butt"/><path d="M214.24439,174.96859v-10.89951c0,0 -0.12983,0 0.48774,0c1.96607,0 13.06739,0 13.06739,0v10.89951c0,0 -11.18168,0 -13.06739,0c-0.55244,0 -0.48774,0 -0.48774,0z" fill="url(#color-43)" stroke="url(#color-44)" stroke-width="3" stroke-linecap="butt"/><path d="M226.43769,173.81551v-8.58548h27.60731v8.58548z" fill="#555555" stroke="none" stroke-width="0" stroke-linecap="butt"/><path d="M217.64535,173.70452v-8.45469h2.15755v8.45469z" fill="#3f3f3f" stroke="none" stroke-width="0" stroke-linecap="butt"/><path d="M222.05426,173.7917v-8.45469h2.15754v8.45469z" fill="#494949" stroke="none" stroke-width="0" stroke-linecap="butt"/><path d="M226.74459,173.7917v-8.45469h2.15755v8.45469z" fill="#505050" stroke="none" stroke-width="0" stroke-linecap="butt"/><path d="M231.43491,173.7917v-8.45469h2.15755v8.45469z" fill="#505050" stroke="none" stroke-width="0" stroke-linecap="butt"/><path d="M236.12523,173.7917v-8.45469h2.15755v8.45469z" fill="#505050" stroke="none" stroke-width="0" stroke-linecap="butt"/><path d="M240.81557,173.70452v-8.45469h2.15755v8.45469z" fill="#505050" stroke="none" stroke-width="0" stroke-linecap="butt"/><path d="M245.69352,173.7917v-8.45469h2.15755v8.45469z" fill="#505050" stroke="none" stroke-width="0" stroke-linecap="butt"/><path d="M250.38383,173.7917v-8.45469h2.15755v8.45469z" fill="#505050" stroke="none" stroke-width="0" stroke-linecap="butt"/><path d="M255.26178,173.7917v-8.45469h2.15755v8.45469z" fill="#494949" stroke="none" stroke-width="0" stroke-linecap="butt"/><path d="M259.76446,173.70452v-8.45469h2.15755v8.45469z" fill="#3f3f3f" stroke="none" stroke-width="0" stroke-linecap="butt"/><path d="M215.61575,172.88221v-10.92117h46.2402v10.92117z" fill="#555555" stroke="#3e3e3e" stroke-width="2" stroke-linecap="butt"/><path d="M252.34926,172.84989v-10.89952c0,0 11.02631,0 13.01755,0c0.63944,0 0.53758,0 0.53758,0v10.89952c0,0 0.14056,0 -0.6835,0c-2.17252,0 -12.87163,0 -12.87163,0z" data-paper-data="{&quot;index&quot;:null}" fill="url(#color-45)" stroke="url(#color-46)" stroke-width="2" stroke-linecap="butt"/><path d="M214.24439,172.8239v-10.89952c0,0 -0.12983,0 0.48774,0c1.96607,0 13.06739,0 13.06739,0v10.89952c0,0 -11.18168,0 -13.06739,0c-0.55244,0 -0.48774,0 -0.48774,0z" fill="url(#color-47)" stroke="url(#color-48)" stroke-width="3" stroke-linecap="butt"/><path d="M226.43769,171.67079v-8.58548h27.60731v8.58548z" fill="#555555" stroke="none" stroke-width="0" stroke-linecap="butt"/><path d="M217.64534,171.55982v-8.45469h2.15755v8.45469z" fill="#3f3f3f" stroke="none" stroke-width="0" stroke-linecap="butt"/><path d="M222.05424,171.64699v-8.45469h2.15754v8.45469z" fill="#494949" stroke="none" stroke-width="0" stroke-linecap="butt"/><path d="M226.74458,171.64699v-8.45469h2.15755v8.45469z" fill="#505050" stroke="none" stroke-width="0" stroke-linecap="butt"/><path d="M231.43491,171.64699v-8.45469h2.15755v8.45469z" fill="#505050" stroke="none" stroke-width="0" stroke-linecap="butt"/><path d="M236.12523,171.64699v-8.45469h2.15755v8.45469z" fill="#505050" stroke="none" stroke-width="0" stroke-linecap="butt"/><path d="M240.81557,171.55982v-8.45469h2.15755v8.45469z" fill="#505050" stroke="none" stroke-width="0" stroke-linecap="butt"/><path d="M245.69351,171.64699v-8.45469h2.15755v8.45469z" fill="#505050" stroke="none" stroke-width="0" stroke-linecap="butt"/><path d="M250.38383,171.64699v-8.45469h2.15755v8.45469z" fill="#505050" stroke="none" stroke-width="0" stroke-linecap="butt"/><path d="M255.26177,171.64699v-8.45469h2.15755v8.45469z" fill="#494949" stroke="none" stroke-width="0" stroke-linecap="butt"/><path d="M259.76446,171.55982v-8.45469h2.15755v8.45469z" fill="#3f3f3f" stroke="none" stroke-width="0" stroke-linecap="butt"/><path d="M215.73438,171.55256v-10.92117h46.2402v10.92117z" fill="#555555" stroke="#3e3e3e" stroke-width="2" stroke-linecap="butt"/><path d="M252.4679,171.52025v-10.89953c0,0 11.02631,0 13.01754,0c0.63944,0 0.53758,0 0.53758,0v10.89953c0,0 0.14056,0 -0.68349,0c-2.17252,0 -12.87163,0 -12.87163,0z" data-paper-data="{&quot;index&quot;:null}" fill="url(#color-49)" stroke="url(#color-50)" stroke-width="3" stroke-linecap="butt"/><path d="M214.36303,171.49423v-10.89952c0,0 -0.12983,0 0.48774,0c1.96607,0 13.06739,0 13.06739,0v10.89952c0,0 -11.18168,0 -13.06739,0c-0.55244,0 -0.48774,0 -0.48774,0z" fill="url(#color-51)" stroke="url(#color-52)" stroke-width="3" stroke-linecap="butt"/><path d="M226.55632,170.34115v-8.58547h27.60731v8.58547z" fill="#555555" stroke="none" stroke-width="0" stroke-linecap="butt"/><path d="M217.76399,170.23016v-8.45468h2.15755v8.45468z" fill="#3f3f3f" stroke="none" stroke-width="0" stroke-linecap="butt"/><path d="M222.1729,170.31734v-8.45468h2.15754v8.45468z" fill="#494949" stroke="none" stroke-width="0" stroke-linecap="butt"/><path d="M226.86323,170.31734v-8.45468h2.15755v8.45468z" fill="#505050" stroke="none" stroke-width="0" stroke-linecap="butt"/><path d="M231.55355,170.31734v-8.45468h2.15755v8.45468z" fill="#505050" stroke="none" stroke-width="0" stroke-linecap="butt"/><path d="M236.24387,170.31734v-8.45468h2.15755v8.45468z" fill="#505050" stroke="none" stroke-width="0" stroke-linecap="butt"/><path d="M240.9342,170.23016v-8.45468h2.15755v8.45468z" fill="#505050" stroke="none" stroke-width="0" stroke-linecap="butt"/><path d="M245.81215,170.31734v-8.45468h2.15755v8.45468z" fill="#505050" stroke="none" stroke-width="0" stroke-linecap="butt"/><path d="M250.50247,170.31734v-8.45468h2.15754v8.45468z" fill="#505050" stroke="none" stroke-width="0" stroke-linecap="butt"/><path d="M255.38042,170.31734v-8.45468h2.15755v8.45468z" fill="#494949" stroke="none" stroke-width="0" stroke-linecap="butt"/><path d="M259.88311,170.23016v-8.45468h2.15755v8.45468z" fill="#3f3f3f" stroke="none" stroke-width="0" stroke-linecap="butt"/><path d="M215.88693,200.3813v-10.92117h46.2402v10.92117z" fill="#555555" stroke="#3e3e3e" stroke-width="3" stroke-linecap="butt"/><path d="M252.62044,200.34899v-10.89952c0,0 11.02631,0 13.01754,0c0.63944,0 0.53758,0 0.53758,0v10.89952c0,0 0.14056,0 -0.6835,0c-2.17252,0 -12.87163,0 -12.87163,0z" data-paper-data="{&quot;index&quot;:null}" fill="url(#color-53)" stroke="url(#color-54)" stroke-width="3" stroke-linecap="butt"/><path d="M214.51555,200.32298v-10.89951c0,0 -0.12983,0 0.48774,0c1.96607,0 13.06738,0 13.06738,0v10.89951c0,0 -11.18167,0 -13.06738,0c-0.55244,0 -0.48774,0 -0.48774,0z" fill="url(#color-55)" stroke="url(#color-56)" stroke-width="3" stroke-linecap="butt"/><path d="M226.70885,199.16989v-8.58548h27.60731v8.58548z" fill="#555555" stroke="none" stroke-width="0" stroke-linecap="butt"/><path d="M217.91651,199.05892v-8.45468h2.15755v8.45468z" fill="#3f3f3f" stroke="none" stroke-width="0" stroke-linecap="butt"/><path d="M222.32543,199.14609v-8.45468h2.15754v8.45468z" fill="#494949" stroke="none" stroke-width="0" stroke-linecap="butt"/><path d="M227.01576,199.14609v-8.45468h2.15755v8.45468z" fill="#505050" stroke="none" stroke-width="0" stroke-linecap="butt"/><path d="M231.70608,199.14609v-8.45468h2.15755v8.45468z" fill="#505050" stroke="none" stroke-width="0" stroke-linecap="butt"/><path d="M236.39641,199.14609v-8.45468h2.15755v8.45468z" fill="#505050" stroke="none" stroke-width="0" stroke-linecap="butt"/><path d="M241.08673,199.05892v-8.45468h2.15755v8.45468z" fill="#505050" stroke="none" stroke-width="0" stroke-linecap="butt"/><path d="M245.96468,199.14609v-8.45468h2.15755v8.45468z" fill="#505050" stroke="none" stroke-width="0" stroke-linecap="butt"/><path d="M250.65502,199.14609v-8.45468h2.15754v8.45468z" fill="#505050" stroke="none" stroke-width="0" stroke-linecap="butt"/><path d="M255.53295,199.14609v-8.45468h2.15755v8.45468z" fill="#494949" stroke="none" stroke-width="0" stroke-linecap="butt"/><path d="M260.03565,199.05892v-8.45468h2.15755v8.45468z" fill="#3f3f3f" stroke="none" stroke-width="0" stroke-linecap="butt"/><path d="M217.83332,163.68047h43.37864l1.11588,4.30413l2.23177,1.59413v21.68011l-2.71001,1.53339l-1.2753,4.30414h-42.72256l-1.27529,-1.2753v-9.24593l2.23177,-1.91295l0.15941,-8.13004l-2.23177,-2.07237v-9.40534z" fill="#535454" stroke="#1de200" stroke-width="0" stroke-linecap="round"/><path d="M217.83332,158.4389h43.37864l1.11588,4.30414l2.23177,1.59413v21.6801l-2.71001,1.53339l-1.2753,4.30414h-42.72256l-1.27529,-1.2753v-9.24593l2.23177,-1.91295l0.15941,-8.13004l-2.23177,-2.07236v-9.40534z" fill="#686969" stroke="#1de200" stroke-width="0" stroke-linecap="round"/><path d="M259.4398,185.91847l-1.08468,3.38962h-38.50613l-0.81351,-0.9491v-3.93195h13.55849l3.11846,-2.44053l24.67646,0.13559l2.03378,2.30494z" fill="#e88b00" stroke="#000000" stroke-width="0" stroke-linecap="round"/><path d="M262.42267,165.8519l-2.03378,2.30494l-24.67646,0.13559l-3.11845,-2.44053h-13.5585v-3.93195l0.81351,-0.9491h38.50612l1.08468,3.38962z" data-paper-data="{&quot;index&quot;:null}" fill="#e88b00" stroke="#000000" stroke-width="0" stroke-linecap="round"/><path d="M247.93707,173.98831l3.39506,-11.70405l3.57375,3.48442v11.70405z" fill="#535454" stroke="#000000" stroke-width="0" stroke-linecap="round"/><path d="M248.60989,184.41406v-9.85598h6.28905v9.85598z" fill="#535454" stroke="none" stroke-width="0" stroke-linecap="butt"/><path d="M228.31125,184.31548v-18.426h4.51498v18.426z" fill="url(#color-57)" stroke="none" stroke-width="NaN" stroke-linecap="butt"/><path d="M230.60437,181.14367v-18.57779h20.63841v18.57779z" fill="#686969" stroke="none" stroke-width="0" stroke-linecap="butt"/><path d="M237.57319,181.85842l-4.19916,-0.62541l2.05491,-1.96556z" fill="#d98200" stroke="#000000" stroke-width="0" stroke-linecap="round"/><path d="M235.41486,181.13796v-1.95081h16.57172v1.95081z" fill="#d98200" stroke="none" stroke-width="0" stroke-linecap="butt"/><path d="M230.66243,184.44548v-3.6649h21.25817l3.02753,3.6649z" fill="#bd7100" stroke="none" stroke-width="0" stroke-linecap="butt"/><path d="M252.04688,179.1781l3.12703,3.03769v2.59096l-4.2885,-4.19916z" fill="#ca7900" stroke="#000000" stroke-width="0" stroke-linecap="round"/><path d="M230.60891,184.44938v-3.75244h3.39054v3.75244z" fill="#535454" stroke="none" stroke-width="0" stroke-linecap="butt"/><path d="M251.32951,162.50707v1.82879h-16.29012v-1.82879z" data-paper-data="{&quot;index&quot;:null}" fill="#d98200" stroke="none" stroke-width="0" stroke-linecap="butt"/><path d="M235.03209,164.36121l-2.21994,-1.86943h4.43988z" fill="#d98200" stroke="#3e3e3e" stroke-width="0" stroke-linecap="round"/><path d="M251.36948,162.30246l3.61671,3.39282v2.59098l-4.28851,-4.19915z" fill="#ca7900" stroke="#000000" stroke-width="0" stroke-linecap="round"/><path d="M218.96513,165.90245v-4.54825h4.99199v4.54825z" fill="#1b1b1b" stroke="none" stroke-width="0" stroke-linecap="butt"/><path d="M218.96513,164.34937v-4.54825h4.99199v4.54825z" fill="#373737" stroke="none" stroke-width="0" stroke-linecap="butt"/><path d="M221.00531,162.43118v-8.54185h0.56946v8.54185z" fill="#989898" stroke="none" stroke-width="0" stroke-linecap="butt"/><path d="M264.87559,199.12428v-8.19319l2.78917,0.69729v8.36754z" fill="#3d3d3d" stroke="none" stroke-width="0" stroke-linecap="butt"/><path d="M264.52696,170.01225v-8.1932l2.78917,0.6973v8.36754z" fill="#3d3d3d" stroke="none" stroke-width="0" stroke-linecap="butt"/><path d="M232.80008,171.92982c0,-3.36968 2.73165,-6.10132 6.10132,-6.10132c3.36968,0 6.10132,2.73165 6.10132,6.10132c0,3.36968 -2.73165,6.10133 -6.10132,6.10133c-3.36968,0 -6.10132,-2.73165 -6.10132,-6.10133z" fill="#474848" stroke="none" stroke-width="0.5" stroke-linecap="butt"/><path d="M220.60949,153.79547c0,-0.37584 0.30469,-0.68053 0.68053,-0.68053c0.37584,0 0.68054,0.30469 0.68054,0.68053c0,0.37584 -0.3047,0.68053 -0.68054,0.68053c-0.37584,0 -0.68053,-0.30469 -0.68053,-0.68053z" fill="#00d9ff" stroke="none" stroke-width="0.5" stroke-linecap="butt"/><path d="M219.81555,153.79547c0,-0.81432 0.66016,-1.47448 1.47448,-1.47448c0.81432,0 1.4745,0.66016 1.4745,1.47448c0,0.81432 -0.66018,1.47448 -1.4745,1.47448c-0.81432,0 -1.47448,-0.66016 -1.47448,-1.47448z" fill="url(#color-58)" stroke="none" stroke-width="0.5" stroke-linecap="butt"/><path d="M261.30294,170.14816c0.14203,-0.04654 0.25958,-0.04654 0.25958,-0.04654l0.35607,0.00754c2.14334,0.3599 2.14393,1.32413 2.14393,3.24246c-0.00193,1.06012 -0.02507,1.98555 -0.62232,2.91051c-0.68244,1.0569 -1.9932,3.39273 -3.5708,2.64368c-1.53268,-0.72772 -0.72681,-1.77613 -1.24172,-2.87341c-0.41718,-0.88904 -1.46497,-1.17547 -1.93893,-1.88934c-1.58621,-2.38912 2.54707,-4.31584 4.21678,-4.16065c0,0 0.21342,0.02668 0.39739,0.16575z" fill="#737475" stroke="none" stroke-width="0.5" stroke-linecap="butt"/><path d="M222.83699,175.38598c0.79953,-1.3936 4.085,-4.7147 5.06503,-1.51235c0.49958,1.63242 -2.97674,5.98642 -4.714,4.66246c-0.02157,-0.01644 -0.76869,-2.01391 -0.82775,-2.17113c0,0 -0.26334,-0.70225 0.4389,-0.96559c0.01275,-0.00478 0.02535,-0.00924 0.03782,-0.0134z" fill="#737475" stroke="none" stroke-width="0.5" stroke-linecap="butt"/><path d="M223.45201,166.82249c0.00655,-0.02693 0.01452,-0.05461 0.02399,-0.08304c0.14771,-0.44312 0.4794,-0.51828 0.70861,-0.51193c0.16808,-0.0382 0.37262,-0.02103 0.58116,0.14894c0.50015,0.16318 1.14952,0.38894 1.43715,0.68032c3.4283,3.47299 -4.47523,4.14015 -2.81123,-0.16557z" fill="#737475" stroke="none" stroke-width="0.5" stroke-linecap="butt"/><path d="M226.81252,181.60162c0,0.75 -0.75,0.75 -0.75,0.75l-0.1931,-0.02239c-0.33333,0.08333 -0.66667,0.16667 -1,0.25c0,0 -0.72761,0.1819 -0.90951,-0.54571c-0.1819,-0.72761 0.54571,-0.90951 0.54571,-0.90951c0.33333,-0.08333 0.66667,-0.16667 1,-0.25l0.5569,-0.02239c0,0 0.75,0 0.75,0.75z" fill="#737475" stroke="none" stroke-width="0.5" stroke-linecap="butt"/><path d="M260.21783,161.50696c-0.53033,0.53033 -1.06066,0 -1.06066,0l-0.65903,-0.73489c-0.10798,-0.42141 -0.75062,-0.54705 -1.18564,-0.54544c0,0 -0.75,0 -0.75,-0.75c0,-0.75 0.75,-0.75 0.75,-0.75c1.521,0.00479 1.84494,0.05522 2.56436,1.45456l0.34097,0.26511c0,0 0.53033,0.53033 0,1.06066z" fill="#737475" stroke="none" stroke-width="0.5" stroke-linecap="butt"/><path d="M259.16252,181.67662c-0.45,0.6 -1.05,0.15 -1.05,0.15l-0.51852,-0.38935c-0.49519,-0.42139 -0.89359,-0.98821 -1.11799,-1.59848c0,0 -0.23717,-0.71151 0.47434,-0.94868c0.71151,-0.23717 0.94868,0.47434 0.94868,0.47434c0.09742,0.35383 0.33387,0.68752 0.63201,0.90152l0.48148,0.36065c0,0 0.6,0.45 0.15,1.05z" fill="#737475" stroke="none" stroke-width="0.5" stroke-linecap="butt"/><path d="M244.5801,166.63972c-0.00266,-0.01298 -0.00513,-0.02624 -0.00739,-0.03979c-0.1233,-0.7398 0.6165,-0.86309 0.6165,-0.86309l0.75,-0.125c0.74933,-0.1225 2.96513,-0.50975 3.60219,-0.04646c1.81395,1.31915 -0.45531,5.19598 -2.37311,5.16101c-1.90644,-0.03477 -1.25003,-2.48166 -2.33593,-3.29859c0,0 -0.40617,-0.33847 -0.25227,-0.78807z" fill="#737475" stroke="none" stroke-width="0.5" stroke-linecap="butt"/><path d="M247.44843,173.90147c0.04907,-0.27324 0.34993,-0.34845 0.34993,-0.34845l0.34654,-0.08511c0.39827,-0.06166 0.80712,-0.18549 1.201,0.03602c2.33531,1.31333 -1.30027,4.96568 -2.26552,2.65871c-0.1216,-0.29062 0.17745,-1.43528 0.13521,-1.80174c0,0 -0.0328,-0.32796 0.23284,-0.45943z" fill="#737475" stroke="none" stroke-width="0.5" stroke-linecap="butt"/><path d="M233.60355,179.22566c-0.62404,0.41603 -1.04006,-0.20801 -1.04006,-0.20801l-0.20213,-0.31089c-0.20833,-0.25 -0.41667,-0.5 -0.625,-0.75c0,0 -0.48014,-0.57617 0.09603,-1.0563c0.57617,-0.48014 1.0563,0.09603 1.0563,0.09603c0.20833,0.25 0.41667,0.5 0.625,0.75l0.29787,0.43911c0,0 0.41603,0.62404 -0.20801,1.04006z" fill="#737475" stroke="none" stroke-width="0.5" stroke-linecap="butt"/><path d="M224.06252,190.72662c0,0.75 -0.75,0.75 -0.75,0.75c-0.625,0 -1.375,0 -2,0c0,0 -0.75,0 -0.75,-0.75c0,-0.75 0.75,-0.75 0.75,-0.75c0.625,0 1.25,0 1.875,0h0.125c0,0 0.75,0 0.75,0.75z" fill="#737475" stroke="none" stroke-width="0.5" stroke-linecap="butt"/><path d="M264.35715,173.33335v-7.28571h0.85714v7.28571z" fill="#919394" stroke="none" stroke-width="0" stroke-linecap="butt"/><path d="M264.35715,188.90478v-7.28571h0.85714v7.28571z" fill="#919394" stroke="none" stroke-width="0" stroke-linecap="butt"/><path d="M264.78573,188.47621v-6.85714l18.14286,-4.42857v14.42857z" fill="url(#color-59)" stroke="#000000" stroke-width="0" stroke-linecap="round"/><path d="M264.78573,173.04764v-6.85714l18.14286,-4.42857v14.42857z" fill="url(#color-60)" stroke="#000000" stroke-width="0" stroke-linecap="round"/><g stroke-width="0"><path d="M221.02779,171.03308c0,-1.96368 1.59187,-3.55556 3.55555,-3.55556c1.96368,0 3.55555,1.59188 3.55555,3.55556c0,1.96368 -1.59187,3.55555 -3.55555,3.55555c-1.96368,0 -3.55555,-1.59187 -3.55555,-3.55555z" fill="#3d3d3d" stroke="none" stroke-linecap="butt"/><path d="M221.02779,170.67594c0,-1.96368 1.59187,-3.55555 3.55555,-3.55555c1.96368,0 3.55555,1.59187 3.55555,3.55555c0,1.96368 -1.59187,3.55555 -3.55555,3.55555c-1.96368,0 -3.55555,-1.59187 -3.55555,-3.55555z" fill="#606060" stroke="none" stroke-linecap="butt"/><path d="M221.59921,170.74737c0,-1.64809 1.33604,-2.98413 2.98413,-2.98413c1.64809,0 2.98413,1.33604 2.98413,2.98413c0,1.64809 -1.33604,2.98413 -2.98413,2.98413c-1.64809,0 -2.98413,-1.33604 -2.98413,-2.98413z" fill="url(#color-61)" stroke="none" stroke-linecap="butt"/><path d="M224.8639,171.02223h-0.55l-0.6,-3.1c0,0 0.42549,-0.15 0.85,-0.15c0.39117,0 0.85,0.15 0.85,0.15z" fill="url(#color-62)" stroke="#000000" stroke-linecap="round"/><path d="M224.55951,170.31849l0.32945,0.44041l-2.12294,2.33733c0,0 -0.37498,-0.25086 -0.62926,-0.59079c-0.23431,-0.31323 -0.38903,-0.77049 -0.38903,-0.77049z" fill="url(#color-63)" stroke="#000000" stroke-linecap="round"/><path d="M227.52159,171.57062c0,0 -0.12289,0.46682 -0.33508,0.79544c-0.23028,0.35663 -0.58711,0.6327 -0.58711,0.6327l-2.27876,-2.18569l0.29836,-0.46204z" data-paper-data="{&quot;index&quot;:null}" fill="url(#color-64)" stroke="#000000" stroke-linecap="round"/><path d="M224.09921,170.74737c0,-0.26737 0.21676,-0.48413 0.48413,-0.48413c0.26737,0 0.48413,0.21676 0.48413,0.48413c0,0.26737 -0.21675,0.48413 -0.48413,0.48413c-0.26737,0 -0.48413,-0.21675 -0.48413,-0.48413z" fill="#5c5c5c" stroke="none" stroke-linecap="butt"/></g><g stroke="none" stroke-width="0" stroke-linecap="butt"><path d="M224.58333,183.2553c-1.96368,0 -3.55555,-1.59187 -3.55555,-3.55555c0,-1.96368 1.59187,-3.55556 3.55555,-3.55556c1.96368,0 3.55555,1.59188 3.55555,3.55556c0,1.96368 -1.59187,3.55555 -3.55555,3.55555z" fill="#3d3d3d"/><path d="M224.58333,182.89816c-1.96368,0 -3.55555,-1.59187 -3.55555,-3.55555c0,-1.96368 1.59187,-3.55555 3.55555,-3.55555c1.96368,0 3.55555,1.59187 3.55555,3.55555c0,1.96368 -1.59187,3.55555 -3.55555,3.55555z" fill="#606060"/><path d="M224.58333,182.39816c-1.64809,0 -2.98413,-1.33604 -2.98413,-2.98413c0,-1.64809 1.33604,-2.98413 2.98413,-2.98413c1.64809,0 2.98413,1.33604 2.98413,2.98413c0,1.64809 -1.33604,2.98413 -2.98413,2.98413z" fill="url(#color-65)"/></g><g stroke-width="0"><path d="M221.59531,179.11274c0,0 0.02493,-0.48208 0.16552,-0.84711c0.15257,-0.39615 0.44547,-0.73929 0.44547,-0.73929l2.67722,1.67407l-0.19767,0.51325z" fill="url(#color-66)" stroke="#000000" stroke-linecap="round"/><path d="M226.47092,177.06186c0,0 0.3711,0.30873 0.57919,0.63996c0.22583,0.35946 0.32516,0.79955 0.32516,0.79955l-2.94415,1.14104l-0.29258,-0.46572z" fill="url(#color-67)" stroke="#000000" stroke-linecap="round"/><path d="M224.14751,179.24387l0.5384,-0.11236l1.22064,2.91205c0,0 -0.38587,0.23376 -0.80143,0.32048c-0.38292,0.07991 -0.86272,0.02681 -0.86272,0.02681z" data-paper-data="{&quot;index&quot;:null}" fill="url(#color-68)" stroke="#000000" stroke-linecap="round"/><path d="M224.98196,179.52705c-0.0961,0.24951 -0.37626,0.37388 -0.62577,0.27778c-0.24951,-0.0961 -0.37388,-0.37627 -0.27778,-0.62578c0.0961,-0.24951 0.37627,-0.37388 0.62578,-0.27778c0.24951,0.0961 0.37387,0.37627 0.27778,0.62578z" fill="#5c5c5c" stroke="none" stroke-linecap="butt"/></g><g><path d="M253.25962,171.86024c0,0 1.38037,-0.18274 2.2429,-0.12999c1.07299,0.06562 3.70261,0.49362 3.70261,0.49362" fill="none" stroke="url(#color-69)" stroke-width="1.5" stroke-linecap="round"/><path d="M253.25962,176.2769c0,0 1.423,-0.35639 2.32436,-0.30126c1.05592,0.06458 3.62115,0.6649 3.62115,0.6649" fill="none" stroke="url(#color-70)" stroke-width="1.5" stroke-linecap="round"/><path d="M252.75001,175.93715v-3.73717c0,0 1.56655,-0.45851 2.82503,-0.4067c1.60217,0.06596 6.0083,0.77034 6.0083,0.77034v3.73717c0,0 -4.45837,-0.81616 -6.08748,-0.88322c-1.1205,-0.04613 -2.74585,0.51958 -2.74585,0.51958z" fill="url(#color-71)" stroke="url(#color-72)" stroke-width="0" stroke-linecap="butt"/><path d="M256.14746,170.52515h3.39744l1.1891,1.1891" fill="none" stroke="#e88b00" stroke-width="1" stroke-linecap="round"/><path d="M260.734,177.15016l-1.1891,1.1891h-3.39744" data-paper-data="{&quot;index&quot;:null}" fill="none" stroke="#e88b00" stroke-width="1" stroke-linecap="round"/></g></g></g></svg>