<svg version="1.1" xmlns="http://www.w3.org/2000/svg" xmlns:xlink="http://www.w3.org/1999/xlink" width="406.31869" height="289.24627" viewBox="0,0,406.31869,289.24627"><defs><radialGradient cx="207.92092" cy="179.43282" r="35.29924" gradientUnits="userSpaceOnUse" id="color-1"><stop offset="0" stop-color="#ffde47"/><stop offset="1" stop-color="#ffde47" stop-opacity="0"/></radialGradient><radialGradient cx="207.5305" cy="179.42313" r="35.29924" gradientUnits="userSpaceOnUse" id="color-2"><stop offset="0" stop-color="#ffd100"/><stop offset="1" stop-color="#ffd100" stop-opacity="0"/></radialGradient><linearGradient x1="245.40005" y1="180.02925" x2="215.72737" y2="180.16123" gradientUnits="userSpaceOnUse" id="color-3"><stop offset="0" stop-color="#ffb800"/><stop offset="1" stop-color="#ffb800" stop-opacity="0"/></linearGradient><linearGradient x1="243.22513" y1="180.02025" x2="225.37853" y2="180.09968" gradientUnits="userSpaceOnUse" id="color-4"><stop offset="0" stop-color="#ffb95c"/><stop offset="1" stop-color="#ffb95c" stop-opacity="0"/></linearGradient><radialGradient cx="240" cy="180.00002" r="10.48333" gradientUnits="userSpaceOnUse" id="color-5"><stop offset="0" stop-color="#ffb900"/><stop offset="1" stop-color="#ffb900" stop-opacity="0"/></radialGradient><radialGradient cx="240" cy="180.00002" r="10.48333" gradientUnits="userSpaceOnUse" id="color-6"><stop offset="0" stop-color="#000000" stop-opacity="0"/><stop offset="1" stop-color="#000000" stop-opacity="0"/></radialGradient><radialGradient cx="224.92366" cy="180.15002" r="7.80699" gradientUnits="userSpaceOnUse" id="color-7"><stop offset="0" stop-color="#ffb900"/><stop offset="1" stop-color="#ffb900" stop-opacity="0"/></radialGradient><radialGradient cx="224.92366" cy="180.15002" r="7.80699" gradientUnits="userSpaceOnUse" id="color-8"><stop offset="0" stop-color="#000000" stop-opacity="0"/><stop offset="1" stop-color="#000000" stop-opacity="0"/></radialGradient><radialGradient cx="233" cy="179.60002" r="10.48333" gradientUnits="userSpaceOnUse" id="color-9"><stop offset="0" stop-color="#ffb900"/><stop offset="1" stop-color="#ffb900" stop-opacity="0"/></radialGradient><radialGradient cx="233" cy="179.60002" r="10.48333" gradientUnits="userSpaceOnUse" id="color-10"><stop offset="0" stop-color="#000000" stop-opacity="0"/><stop offset="1" stop-color="#000000" stop-opacity="0"/></radialGradient><radialGradient cx="220.03546" cy="179.69616" r="6.39439" gradientUnits="userSpaceOnUse" id="color-11"><stop offset="0" stop-color="#ffb900"/><stop offset="1" stop-color="#ffb900" stop-opacity="0"/></radialGradient><radialGradient cx="220.03546" cy="179.69616" r="6.39439" gradientUnits="userSpaceOnUse" id="color-12"><stop offset="0" stop-color="#000000" stop-opacity="0"/><stop offset="1" stop-color="#000000" stop-opacity="0"/></radialGradient></defs><g transform="translate(-36.84065,-35.37686)"><g data-paper-data="{&quot;isPaintingLayer&quot;:true}" fill-rule="nonzero" stroke-linejoin="miter" stroke-miterlimit="10" stroke-dasharray="" stroke-dashoffset="0" style="mix-blend-mode: normal"><path d="M172.57945,180.23447c0,0 1.07248,0.1283 5.92865,0.21789c1.2369,0.02282 4.51602,-1.22851 5.98217,-1.17766c1.73586,0.0602 3.25453,1.70356 5.26105,1.7405c1.90029,0.03499 4.87878,-1.50196 6.92099,-1.45936c1.74474,0.03638 3.79143,1.4016 5.58502,1.41171c2.27503,0.01282 4.32938,-1.84205 6.61869,-1.81703c1.9,0.02076 4.65696,1.92236 6.49916,1.92567c2.48442,0.00446 3.74836,-2.93901 6.02909,-2.90219c3.03897,0.04907 4.52053,3.7743 7.06916,3.76785c6.27704,-0.01589 5.8531,-3.87782 8.2439,-3.82777c2.88596,0.06042 6.42168,4.13812 6.42168,4.13812" fill="none" stroke="url(#color-1)" stroke-width="4.5" stroke-linecap="round"/><path d="M172.18903,180.22478c0,0 1.07248,0.1283 5.92865,0.2179c1.2369,0.02282 4.51603,-1.2285 5.98217,-1.17765c1.73588,0.0602 3.25454,1.70356 5.26105,1.7405c1.90029,0.03499 4.87879,-1.50196 6.92099,-1.45936c1.74474,0.03638 3.79141,1.4016 5.58501,1.41171c2.27503,0.01282 4.32938,-1.84205 6.61868,-1.81703c1.9,0.02076 4.65696,1.92236 6.49917,1.92567c2.48442,0.00446 3.74837,-2.93901 6.02909,-2.90219c3.03897,0.04907 4.52054,3.77429 7.06916,3.76784c6.27704,-0.0159 5.8531,-3.87781 8.24389,-3.82777c2.88595,0.06042 6.4217,4.13813 6.4217,4.13813" fill="none" stroke="url(#color-2)" stroke-width="2" stroke-linecap="round"/><path d="M239.1036,184.33261c-1.23308,0.01028 -5.32679,0.25442 -9.04801,-0.1236c-3.35359,-0.34064 -7.77376,-0.53111 -10.4847,-1.22275c-2.80095,-0.7146 -3.83813,-1.93744 -3.84312,-2.71527c-0.00487,-0.75941 1.02209,-2.14554 3.63242,-2.89745c2.78303,-0.80167 7.26425,-0.95776 10.82287,-1.37683c3.50326,-0.41256 7.6891,-0.22267 8.8656,-0.23246c3.49253,-0.02914 6.33607,1.86533 6.35126,4.23143c0.01519,2.36611 -2.80377,4.30781 -6.29628,4.33695z" fill="url(#color-3)" stroke="none" stroke-width="0" stroke-linecap="butt"/><path d="M239.43815,182.60848c-0.74165,0.00618 -3.20378,0.15301 -5.44192,-0.07432c-2.01701,-0.20488 -4.67552,-0.31944 -6.30603,-0.73542c-1.68463,-0.4298 -2.30845,-1.16528 -2.31144,-1.63309c-0.00293,-0.45676 0.61473,-1.29044 2.18472,-1.74268c1.67386,-0.48217 4.36908,-0.57603 6.5094,-0.82807c2.10704,-0.24814 4.62459,-0.13391 5.33221,-0.13983c2.10058,-0.01753 3.81083,1.12192 3.81996,2.545c0.00913,1.42308 -1.68632,2.59093 -3.78689,2.60846z" fill="url(#color-4)" stroke="none" stroke-width="0" stroke-linecap="butt"/><path d="M250.48333,180.00002c0,5.94914 -4.69355,10.77186 -10.48333,10.77186c-5.78979,0 -10.48333,-4.82273 -10.48333,-10.77186c0,-5.94914 4.69355,-10.77186 10.48333,-10.77186c5.78979,0 10.48333,4.82273 10.48333,10.77186z" fill="url(#color-5)" stroke="url(#color-6)" stroke-width="0" stroke-linecap="butt"/><path d="M232.73065,180.15002c0,4.43036 -3.49531,8.02186 -7.80699,8.02186c-4.31169,0 -7.80699,-3.59151 -7.80699,-8.02186c0,-4.43036 3.49531,-8.02186 7.80699,-8.02186c4.31169,0 7.80699,3.59151 7.80699,8.02186z" fill="url(#color-7)" stroke="url(#color-8)" stroke-width="0" stroke-linecap="butt"/><path d="M243.48333,179.60002c0,5.94914 -4.69355,10.77186 -10.48333,10.77186c-5.78979,0 -10.48333,-4.82273 -10.48333,-10.77186c0,-5.94914 4.69355,-10.77186 10.48333,-10.77186c5.78979,0 10.48333,4.82273 10.48333,10.77186z" fill="url(#color-9)" stroke="url(#color-10)" stroke-width="0" stroke-linecap="butt"/><path d="M107.5,274.32284v-188.64567h265v188.64567z" fill="none" stroke="none" stroke-width="0" stroke-linecap="butt"/><path d="M226.42985,179.69616c0,3.62873 -2.86287,6.57038 -6.39439,6.57038c-3.53153,0 -6.39439,-2.94166 -6.39439,-6.57038c0,-3.62873 2.86287,-6.57038 6.39439,-6.57038c3.53153,0 6.39439,2.94166 6.39439,6.57038z" fill="url(#color-11)" stroke="url(#color-12)" stroke-width="0" stroke-linecap="butt"/><path d="M36.84066,324.62314v-289.24627h406.31869v289.24627z" fill="none" stroke="none" stroke-width="0" stroke-linecap="butt"/></g></g></svg>