<svg version="1.1" xmlns="http://www.w3.org/2000/svg" xmlns:xlink="http://www.w3.org/1999/xlink" width="52.84033" height="40.80159" viewBox="0,0,52.84033,40.80159"><defs><linearGradient x1="263.96837" y1="185.40818" x2="266.54835" y2="185.40818" gradientUnits="userSpaceOnUse" id="color-1"><stop offset="0" stop-color="#a1a1a1"/><stop offset="1" stop-color="#898989"/></linearGradient><linearGradient x1="259.42158" y1="185.35444" x2="263.82903" y2="185.35444" gradientUnits="userSpaceOnUse" id="color-2"><stop offset="0" stop-color="#898989"/><stop offset="1" stop-color="#a1a1a1"/></linearGradient><linearGradient x1="262.5286" y1="184.14902" x2="262.5286" y2="187.3255" gradientUnits="userSpaceOnUse" id="color-3"><stop offset="0" stop-color="#b7b7b7" stop-opacity="0"/><stop offset="1" stop-color="#b7b7b7"/></linearGradient><linearGradient x1="259.17026" y1="172.57674" x2="263.5777" y2="172.57674" gradientUnits="userSpaceOnUse" id="color-4"><stop offset="0" stop-color="#898989"/><stop offset="1" stop-color="#a1a1a1"/></linearGradient><linearGradient x1="264.23019" y1="172.63051" x2="266.81021" y2="172.63051" gradientUnits="userSpaceOnUse" id="color-5"><stop offset="0" stop-color="#a1a1a1"/><stop offset="1" stop-color="#898989"/></linearGradient><linearGradient x1="262.45716" y1="171.29188" x2="262.45716" y2="174.46836" gradientUnits="userSpaceOnUse" id="color-6"><stop offset="0" stop-color="#b7b7b7" stop-opacity="0"/><stop offset="1" stop-color="#b7b7b7"/></linearGradient><linearGradient x1="256.20773" y1="185.35442" x2="257.92772" y2="185.35442" gradientUnits="userSpaceOnUse" id="color-7"><stop offset="0" stop-color="#898989"/><stop offset="1" stop-color="#a1a1a1"/></linearGradient><linearGradient x1="256.48274" y1="172.64817" x2="258.20273" y2="172.64817" gradientUnits="userSpaceOnUse" id="color-8"><stop offset="0" stop-color="#898989"/><stop offset="1" stop-color="#a1a1a1"/></linearGradient><linearGradient x1="247.35467" y1="174.72177" x2="247.35467" y2="177.97471" gradientUnits="userSpaceOnUse" id="color-9"><stop offset="0" stop-color="#ba3838" stop-opacity="0"/><stop offset="1" stop-color="#ba3838"/></linearGradient><linearGradient x1="247.15136" y1="180.2111" x2="247.15136" y2="183.46404" gradientUnits="userSpaceOnUse" id="color-10"><stop offset="0" stop-color="#ba3838"/><stop offset="1" stop-color="#ba3838" stop-opacity="0"/></linearGradient><linearGradient x1="247.35466" y1="170.6556" x2="247.35466" y2="173.90854" gradientUnits="userSpaceOnUse" id="color-11"><stop offset="0" stop-color="#ba3838"/><stop offset="1" stop-color="#ba3838" stop-opacity="0"/></linearGradient><linearGradient x1="247.35467" y1="183.66734" x2="247.35467" y2="186.92029" gradientUnits="userSpaceOnUse" id="color-12"><stop offset="0" stop-color="#ba3838" stop-opacity="0"/><stop offset="1" stop-color="#ba3838"/></linearGradient><linearGradient x1="240.625" y1="185.45834" x2="240.625" y2="191.20834" gradientUnits="userSpaceOnUse" id="color-13"><stop offset="0" stop-color="#942e2e"/><stop offset="1" stop-color="#942e2e" stop-opacity="0"/></linearGradient><linearGradient x1="240.625" y1="166.70834" x2="240.625" y2="172.45834" gradientUnits="userSpaceOnUse" id="color-14"><stop offset="0" stop-color="#942e2e" stop-opacity="0"/><stop offset="1" stop-color="#942e2e"/></linearGradient><linearGradient x1="238.73956" y1="178.84017" x2="238.73956" y2="179.99401" gradientUnits="userSpaceOnUse" id="color-15"><stop offset="0" stop-color="#b7b7b7" stop-opacity="0"/><stop offset="1" stop-color="#b7b7b7"/></linearGradient></defs><g transform="translate(-218.48485,-158.6045)"><g data-paper-data="{&quot;isPaintingLayer&quot;:true}" fill-rule="nonzero" stroke-linejoin="miter" stroke-miterlimit="10" stroke-dasharray="" stroke-dashoffset="0" style="mix-blend-mode: normal"><g data-paper-data="{&quot;index&quot;:null}" fill="#ab3333" stroke="none" stroke-width="0" stroke-linecap="butt"><path d="M237.9643,158.6045v2h-6.5v-2z"/><path d="M247.63096,158.64418v2.33333h-6v-2.33333z"/></g><g fill="#ab3333" stroke="none" stroke-width="0" stroke-linecap="butt"><path d="M231.75,199.40609v-2h6.5v2z"/><path d="M241.91667,199.36641v-2.33333h6v2.33333z"/></g><path d="M253.59275,187.02066v-3.22498h16.12491v3.22498z" fill="#a1a1a1" stroke="#a1a1a1" stroke-width="0.5" stroke-linecap="butt"/><path d="M263.96837,187.23568v-3.65498h2.57999v3.65498z" fill="url(#color-1)" stroke="none" stroke-width="0" stroke-linecap="butt"/><path d="M259.42158,187.12818v-3.54748h4.40748v3.54748z" fill="url(#color-2)" stroke="none" stroke-width="0" stroke-linecap="butt"/><path d="M258.20086,187.3255v-3.17647h8.65546v3.17647z" fill="url(#color-3)" stroke="none" stroke-width="0" stroke-linecap="butt"/><path d="M253.86773,174.243v-3.22498h16.12491v3.22498z" fill="#a1a1a1" stroke="#a1a1a1" stroke-width="0.5" stroke-linecap="butt"/><path d="M259.17026,174.3505v-3.54748h4.40748v3.54748z" fill="url(#color-4)" stroke="none" stroke-width="0" stroke-linecap="butt"/><path d="M264.23019,174.45799v-3.65498h2.57999v3.65498z" fill="url(#color-5)" stroke="none" stroke-width="0" stroke-linecap="butt"/><path d="M266.75021,187.88068v-5.05247h4.29998v5.05247z" fill="#a1a1a1" stroke="#a1a1a1" stroke-width="0.5" stroke-linecap="butt"/><path d="M258.12943,174.46836v-3.17647h8.65546v3.17647z" fill="url(#color-6)" stroke="none" stroke-width="0" stroke-linecap="butt"/><path d="M266.7752,175.103v-5.05247h4.29998v5.05247z" fill="#a1a1a1" stroke="#a1a1a1" stroke-width="0.5" stroke-linecap="butt"/><path d="M256.20773,187.55816v-4.40748h1.71999v4.40748z" fill="url(#color-7)" stroke="none" stroke-width="0" stroke-linecap="butt"/><path d="M256.48274,174.85191v-4.40748h1.71999v4.40748z" fill="url(#color-8)" stroke="none" stroke-width="0" stroke-linecap="butt"/><g><path d="M254.625,186.95834l-0.04404,1.70321l-8.45596,6.29679h-13c0,0 -4.09609,-2.36301 -5.08505,-3.62887c-1.0854,-1.38931 -1.16495,-4.37113 -1.16495,-4.37113z" data-paper-data="{&quot;index&quot;:null}" fill="#3ea1cf" stroke="#ab3333" stroke-width="7.5" stroke-linecap="round"/><path d="M226.625,170.95834c0,0 0.07955,-2.98182 1.16495,-4.37113c0.98896,-1.26586 5.08505,-3.62887 5.08505,-3.62887h13l8.45596,6.29679l0.04404,1.70321z" fill="#3ea1cf" stroke="#ab3333" stroke-width="7.5" stroke-linecap="round"/><path d="M224.17749,181.63427v-5.69264h10.16542v5.69264z" fill="#752323" stroke="none" stroke-width="0" stroke-linecap="butt"/><g stroke="none" stroke-width="0" stroke-linecap="butt"><path d="M221.33117,175.37839v-1.82978h19.51763v1.82978z" fill="#854848"/><path d="M218.48485,176.59824v-1.42316h21.95732v1.42316z" fill="#ab5c5c"/><path d="M218.48485,173.54861v-1.42316h21.95732v1.42316z" fill="#ab5c5c"/></g><g stroke="none" stroke-width="0" stroke-linecap="butt"><path d="M221.33117,184.77728v-1.82978h19.51763v1.82978z" fill="#854848"/><path d="M218.48485,185.99713v-1.42316h21.95732v1.42316z" fill="#ab5c5c"/><path d="M218.48485,182.9475v-1.42316h21.95732v1.42316z" fill="#ab5c5c"/></g><path d="M240.23887,185.49713v-13.62168h14.02829v13.62168z" fill="#cf3e3e" stroke="none" stroke-width="0" stroke-linecap="butt"/><path d="M254.26716,174.72177v3.25294h-13.82498v-3.25294z" data-paper-data="{&quot;index&quot;:null}" fill="url(#color-9)" stroke="none" stroke-width="0" stroke-linecap="butt"/><path d="M240.23887,183.46404v-3.25294h13.82498v3.25294z" fill="url(#color-10)" stroke="none" stroke-width="0" stroke-linecap="butt"/><path d="M232.71645,181.63427v-5.28602h23.17718c0,0 2.43971,0.54216 2.43971,2.64301c0,2.30417 -2.43971,2.64301 -2.43971,2.64301z" fill="#cf3e3e" stroke="none" stroke-width="0" stroke-linecap="butt"/><path d="M234.54623,180.0078v-2.2364h8.53896v2.2364z" fill="#a5a5a5" stroke="none" stroke-width="0" stroke-linecap="butt"/><path d="M240.44217,173.90854v-3.25294h13.82498v3.25294z" data-paper-data="{&quot;index&quot;:null}" fill="url(#color-11)" stroke="none" stroke-width="0" stroke-linecap="butt"/><path d="M226.875,171.20834c0,0 0.07955,-2.98183 1.16495,-4.37113c0.98895,-1.26586 5.08505,-3.62887 5.08505,-3.62887h13l8.45596,6.29679l0.04404,1.70321z" fill="#cf3e3e" stroke="#cf3e3e" stroke-width="2.5" stroke-linecap="round"/><path d="M254.26716,183.66734v3.25295h-13.82498v-3.25295z" data-paper-data="{&quot;index&quot;:null}" fill="url(#color-12)" stroke="none" stroke-width="0" stroke-linecap="butt"/><path d="M254.625,186.70834l-0.04404,1.70321l-8.45596,6.29679h-13c0,0 -3.82482,-2.33577 -4.80852,-3.5949c-1.08892,-1.39382 -1.44148,-4.4051 -1.44148,-4.4051z" data-paper-data="{&quot;index&quot;:null}" fill="#cf3e3e" stroke="#cf3e3e" stroke-width="2.5" stroke-linecap="round"/><path d="M241.875,195.95834v-10h3.75v10z" fill="#c43b3b" stroke="none" stroke-width="0" stroke-linecap="butt"/><path d="M227.125,191.20834c0,0 -1.25,-1.61209 -1.25,-2.5c0,-1.01238 -0.5,-3.25 -0.5,-3.25h30.5c0,0 0,2.02175 0,3c0,0.9366 -3,2.75 -3,2.75z" fill="url(#color-13)" stroke="#3ea1cf" stroke-width="0" stroke-linecap="butt"/><path d="M241.625,172.20834v-10h3.75v10z" fill="#c43b3b" stroke="none" stroke-width="0" stroke-linecap="butt"/><path d="M252.875,166.70834c0,0 3,1.8134 3,2.75c0,0.97825 0,3 0,3h-30.5c0,0 0.25,-2.23762 0.25,-3.25c0,-0.88791 1.5,-2.5 1.5,-2.5z" data-paper-data="{&quot;index&quot;:null}" fill="url(#color-14)" stroke="#3ea1cf" stroke-width="0" stroke-linecap="butt"/></g><path d="M234.5088,179.99401v-1.15384h8.46153v1.15384z" fill="url(#color-15)" stroke="none" stroke-width="0" stroke-linecap="butt"/></g></g></svg>