<svg version="1.1" xmlns="http://www.w3.org/2000/svg" xmlns:xlink="http://www.w3.org/1999/xlink" width="123" height="123" viewBox="0,0,123,123"><g transform="translate(-178.5,-118.5)"><g data-paper-data="{&quot;isPaintingLayer&quot;:true}" fill-rule="nonzero" stroke-width="0" stroke-linejoin="miter" stroke-miterlimit="10" stroke-dasharray="" stroke-dashoffset="0" style="mix-blend-mode: normal"><g stroke="#ffcc00" stroke-linecap="butt"><path d="M235.52426,175.51537c2.47332,-2.47332 6.48336,-2.47332 8.95668,0c2.47332,2.47332 2.47332,6.48336 0,8.95668c-2.47332,2.47332 -6.48336,2.47332 -8.95668,0c-2.47332,-2.47332 -2.47332,-6.48336 0,-8.95668z" fill="#fcc800"/><path d="M235.52426,175.51537c2.47332,-2.47332 6.48336,-2.47332 8.95668,0c2.47332,2.47332 2.47332,6.48336 0,8.95668c-0.17675,0.17675 0.00831,0.01685 0.00831,0.01685l-4.50948,-4.54067l-4.39015,-4.40432c0,0 -0.32594,0.23203 -0.06536,-0.02855z" fill="#ffdb4a"/></g><path d="M178.5,241.5v-123h123v123z" fill="none" stroke="none" stroke-linecap="butt"/><g fill="#c79f00"><path d="M241.13354,177.77447h1.52036v2.77547l-2.66873,2.51058l-2.66873,-2.51058v-2.77547h1.52036l1.17747,1.04952z" stroke="none" stroke-linecap="round"/><path d="M237.3461,180.61518l1.6902,-0.20757l0.97853,0.74132v1.83845z" stroke="#000000" stroke-linecap="round"/><path d="M240.01483,182.98738v-1.83845l0.97853,-0.74132l1.6902,0.20757z" data-paper-data="{&quot;index&quot;:null}" stroke="#000000" stroke-linecap="round"/><path d="M237.36729,180.58695v-2.84664h1.42332l0.20333,2.84664z" stroke="none" stroke-linecap="butt"/><path d="M240.97642,180.53611l0.20333,-2.84664h1.42332v2.84664z" data-paper-data="{&quot;index&quot;:null}" stroke="none" stroke-linecap="butt"/></g></g></g></svg>