<svg version="1.1" xmlns="http://www.w3.org/2000/svg" xmlns:xlink="http://www.w3.org/1999/xlink" width="561.6494" height="401.88989" viewBox="0,0,561.6494,401.88989"><defs><radialGradient cx="195.46472" cy="158.33333" r="82" gradientUnits="userSpaceOnUse" id="color-1"><stop offset="0" stop-color="#0066b9"/><stop offset="1" stop-color="#0066b9" stop-opacity="0"/></radialGradient><radialGradient cx="28.28828" cy="155.72572" r="56.30631" gradientUnits="userSpaceOnUse" id="color-2"><stop offset="0" stop-color="#f5eeb2"/><stop offset="1" stop-color="#f5eeb2" stop-opacity="0"/></radialGradient><radialGradient cx="33.28828" cy="160.72572" r="56.30631" gradientUnits="userSpaceOnUse" id="color-3"><stop offset="0" stop-color="#f5eeb2"/><stop offset="1" stop-color="#f5eeb2" stop-opacity="0"/></radialGradient><radialGradient cx="38.28828" cy="165.72572" r="56.30631" gradientUnits="userSpaceOnUse" id="color-4"><stop offset="0" stop-color="#f5eeb2"/><stop offset="1" stop-color="#f5eeb2" stop-opacity="0"/></radialGradient><radialGradient cx="43.28828" cy="170.72573" r="56.30631" gradientUnits="userSpaceOnUse" id="color-5"><stop offset="0" stop-color="#f5eeb2"/><stop offset="1" stop-color="#f5eeb2" stop-opacity="0"/></radialGradient><radialGradient cx="48.28828" cy="115.66566" r="56.30631" gradientUnits="userSpaceOnUse" id="color-6"><stop offset="0" stop-color="#f5eeb2"/><stop offset="1" stop-color="#f5eeb2" stop-opacity="0"/></radialGradient><radialGradient cx="89.32432" cy="156.7017" r="56.30631" gradientUnits="userSpaceOnUse" id="color-7"><stop offset="0" stop-color="#f5eeb2"/><stop offset="1" stop-color="#f5eeb2" stop-opacity="0"/></radialGradient><radialGradient cx="40.27026" cy="205.24525" r="56.30631" gradientUnits="userSpaceOnUse" id="color-8"><stop offset="0" stop-color="#f5eeb2"/><stop offset="1" stop-color="#f5eeb2" stop-opacity="0"/></radialGradient><radialGradient cx="126.35134" cy="181.71672" r="56.30631" gradientUnits="userSpaceOnUse" id="color-9"><stop offset="0" stop-color="#f5eeb2"/><stop offset="1" stop-color="#f5eeb2" stop-opacity="0"/></radialGradient><radialGradient cx="87.8078" cy="219.74975" r="56.30631" gradientUnits="userSpaceOnUse" id="color-10"><stop offset="0" stop-color="#cef1a9"/><stop offset="1" stop-color="#cef1a9" stop-opacity="0"/></radialGradient><radialGradient cx="20.73573" cy="230.75576" r="56.30631" gradientUnits="userSpaceOnUse" id="color-11"><stop offset="0" stop-color="#f5eeb2"/><stop offset="1" stop-color="#f5eeb2" stop-opacity="0"/></radialGradient><radialGradient cx="32.8078" cy="256.74974" r="56.30631" gradientUnits="userSpaceOnUse" id="color-12"><stop offset="0" stop-color="#aac78b"/><stop offset="1" stop-color="#aac78b" stop-opacity="0"/></radialGradient><radialGradient cx="92.8078" cy="124.74976" r="56.30631" gradientUnits="userSpaceOnUse" id="color-13"><stop offset="0" stop-color="#cef1a9"/><stop offset="1" stop-color="#cef1a9" stop-opacity="0"/></radialGradient><radialGradient cx="14.8078" cy="109.74976" r="56.30631" gradientUnits="userSpaceOnUse" id="color-14"><stop offset="0" stop-color="#a5da96"/><stop offset="1" stop-color="#a5da96" stop-opacity="0"/></radialGradient><radialGradient cx="72.8078" cy="96.74976" r="56.30631" gradientUnits="userSpaceOnUse" id="color-15"><stop offset="0" stop-color="#a1d795"/><stop offset="1" stop-color="#a1d795" stop-opacity="0"/></radialGradient><radialGradient cx="100.8078" cy="240.74976" r="56.30631" gradientUnits="userSpaceOnUse" id="color-16"><stop offset="0" stop-color="#aac78b"/><stop offset="1" stop-color="#aac78b" stop-opacity="0"/></radialGradient><radialGradient cx="130.8078" cy="193.74976" r="56.30631" gradientUnits="userSpaceOnUse" id="color-17"><stop offset="0" stop-color="#b3d193"/><stop offset="1" stop-color="#b3d193" stop-opacity="0"/></radialGradient><radialGradient cx="124.8078" cy="148.74976" r="56.30631" gradientUnits="userSpaceOnUse" id="color-18"><stop offset="0" stop-color="#aac88c"/><stop offset="1" stop-color="#aac88c" stop-opacity="0"/></radialGradient><radialGradient cx="432.64316" cy="75.37515" r="64.92666" gradientUnits="userSpaceOnUse" id="color-19"><stop offset="0" stop-color="#f5eeb2"/><stop offset="1" stop-color="#f5eeb2" stop-opacity="0"/></radialGradient><radialGradient cx="426.87768" cy="81.14064" r="64.92666" gradientUnits="userSpaceOnUse" id="color-20"><stop offset="0" stop-color="#f5eeb2"/><stop offset="1" stop-color="#f5eeb2" stop-opacity="0"/></radialGradient><radialGradient cx="421.11219" cy="86.90612" r="64.92666" gradientUnits="userSpaceOnUse" id="color-21"><stop offset="0" stop-color="#f5eeb2"/><stop offset="1" stop-color="#f5eeb2" stop-opacity="0"/></radialGradient><radialGradient cx="415.3467" cy="92.67161" r="64.92666" gradientUnits="userSpaceOnUse" id="color-22"><stop offset="0" stop-color="#f5eeb2"/><stop offset="1" stop-color="#f5eeb2" stop-opacity="0"/></radialGradient><radialGradient cx="409.58122" cy="29.182" r="64.92666" gradientUnits="userSpaceOnUse" id="color-23"><stop offset="0" stop-color="#f5eeb2"/><stop offset="1" stop-color="#f5eeb2" stop-opacity="0"/></radialGradient><radialGradient cx="362.26267" cy="76.50053" r="64.92666" gradientUnits="userSpaceOnUse" id="color-24"><stop offset="0" stop-color="#f5eeb2"/><stop offset="1" stop-color="#f5eeb2" stop-opacity="0"/></radialGradient><radialGradient cx="418.82677" cy="132.47597" r="64.92666" gradientUnits="userSpaceOnUse" id="color-25"><stop offset="0" stop-color="#f5eeb2"/><stop offset="1" stop-color="#f5eeb2" stop-opacity="0"/></radialGradient><radialGradient cx="319.5669" cy="105.34528" r="64.92666" gradientUnits="userSpaceOnUse" id="color-26"><stop offset="0" stop-color="#f5eeb2"/><stop offset="1" stop-color="#f5eeb2" stop-opacity="0"/></radialGradient><radialGradient cx="364.01136" cy="149.20108" r="64.92666" gradientUnits="userSpaceOnUse" id="color-27"><stop offset="0" stop-color="#cef1a9"/><stop offset="1" stop-color="#cef1a9" stop-opacity="0"/></radialGradient><radialGradient cx="441.352" cy="161.89207" r="64.92666" gradientUnits="userSpaceOnUse" id="color-28"><stop offset="0" stop-color="#f5eeb2"/><stop offset="1" stop-color="#f5eeb2" stop-opacity="0"/></radialGradient><radialGradient cx="427.43172" cy="191.86569" r="64.92666" gradientUnits="userSpaceOnUse" id="color-29"><stop offset="0" stop-color="#aac78b"/><stop offset="1" stop-color="#aac78b" stop-opacity="0"/></radialGradient><radialGradient cx="358.24587" cy="39.65683" r="64.92666" gradientUnits="userSpaceOnUse" id="color-30"><stop offset="0" stop-color="#cef1a9"/><stop offset="1" stop-color="#cef1a9" stop-opacity="0"/></radialGradient><radialGradient cx="448.18747" cy="22.36037" r="64.92666" gradientUnits="userSpaceOnUse" id="color-31"><stop offset="0" stop-color="#a5da96"/><stop offset="1" stop-color="#a5da96" stop-opacity="0"/></radialGradient><radialGradient cx="381.30782" cy="7.3701" r="64.92666" gradientUnits="userSpaceOnUse" id="color-32"><stop offset="0" stop-color="#a1d795"/><stop offset="1" stop-color="#a1d795" stop-opacity="0"/></radialGradient><radialGradient cx="349.02109" cy="173.41613" r="64.92666" gradientUnits="userSpaceOnUse" id="color-33"><stop offset="0" stop-color="#aac78b"/><stop offset="1" stop-color="#aac78b" stop-opacity="0"/></radialGradient><radialGradient cx="314.42817" cy="119.22054" r="64.92666" gradientUnits="userSpaceOnUse" id="color-34"><stop offset="0" stop-color="#b3d193"/><stop offset="1" stop-color="#b3d193" stop-opacity="0"/></radialGradient><radialGradient cx="321.34676" cy="67.33117" r="64.92666" gradientUnits="userSpaceOnUse" id="color-35"><stop offset="0" stop-color="#aac88c"/><stop offset="1" stop-color="#aac88c" stop-opacity="0"/></radialGradient><radialGradient cx="241.96471" cy="260.83333" r="53.5" gradientUnits="userSpaceOnUse" id="color-36"><stop offset="0" stop-color="#005eaa"/><stop offset="1" stop-color="#005eaa" stop-opacity="0"/></radialGradient><radialGradient cx="223.96472" cy="133.83333" r="53.5" gradientUnits="userSpaceOnUse" id="color-37"><stop offset="0" stop-color="#005eaa"/><stop offset="1" stop-color="#005eaa" stop-opacity="0"/></radialGradient><radialGradient cx="231.96472" cy="94.83333" r="53.5" gradientUnits="userSpaceOnUse" id="color-38"><stop offset="0" stop-color="#005eaa"/><stop offset="1" stop-color="#005eaa" stop-opacity="0"/></radialGradient><radialGradient cx="251.96472" cy="280.83333" r="53.5" gradientUnits="userSpaceOnUse" id="color-39"><stop offset="0" stop-color="#005eaa"/><stop offset="1" stop-color="#005eaa" stop-opacity="0"/></radialGradient><radialGradient cx="289.96472" cy="269.83333" r="53.5" gradientUnits="userSpaceOnUse" id="color-40"><stop offset="0" stop-color="#005eaa"/><stop offset="1" stop-color="#005eaa" stop-opacity="0"/></radialGradient><radialGradient cx="207.96472" cy="286.83333" r="53.5" gradientUnits="userSpaceOnUse" id="color-41"><stop offset="0" stop-color="#005eaa"/><stop offset="1" stop-color="#005eaa" stop-opacity="0"/></radialGradient><radialGradient cx="271.96472" cy="290.83333" r="53.5" gradientUnits="userSpaceOnUse" id="color-42"><stop offset="0" stop-color="#005eaa"/><stop offset="1" stop-color="#005eaa" stop-opacity="0"/></radialGradient><radialGradient cx="158.96472" cy="88.83333" r="53.5" gradientUnits="userSpaceOnUse" id="color-43"><stop offset="0" stop-color="#005eaa"/><stop offset="1" stop-color="#005eaa" stop-opacity="0"/></radialGradient><radialGradient cx="317.96472" cy="274.83333" r="53.5" gradientUnits="userSpaceOnUse" id="color-44"><stop offset="0" stop-color="#005eaa"/><stop offset="1" stop-color="#005eaa" stop-opacity="0"/></radialGradient><radialGradient cx="347.96472" cy="286.83333" r="53.5" gradientUnits="userSpaceOnUse" id="color-45"><stop offset="0" stop-color="#005eaa"/><stop offset="1" stop-color="#005eaa" stop-opacity="0"/></radialGradient><radialGradient cx="385.96472" cy="276.83333" r="53.5" gradientUnits="userSpaceOnUse" id="color-46"><stop offset="0" stop-color="#005eaa"/><stop offset="1" stop-color="#005eaa" stop-opacity="0"/></radialGradient><radialGradient cx="263.46472" cy="206.33333" r="82" gradientUnits="userSpaceOnUse" id="color-47"><stop offset="0" stop-color="#0066b9"/><stop offset="1" stop-color="#0066b9" stop-opacity="0"/></radialGradient><radialGradient cx="173.46472" cy="255.33333" r="82" gradientUnits="userSpaceOnUse" id="color-48"><stop offset="0" stop-color="#0066b9"/><stop offset="1" stop-color="#0066b9" stop-opacity="0"/></radialGradient><radialGradient cx="338.46472" cy="229.33333" r="82" gradientUnits="userSpaceOnUse" id="color-49"><stop offset="0" stop-color="#0066b9"/><stop offset="1" stop-color="#0066b9" stop-opacity="0"/></radialGradient><radialGradient cx="33.46472" cy="133.33333" r="82" gradientUnits="userSpaceOnUse" id="color-50"><stop offset="0" stop-color="#0066b9"/><stop offset="1" stop-color="#0066b9" stop-opacity="0"/></radialGradient><radialGradient cx="381.46472" cy="169.33333" r="82" gradientUnits="userSpaceOnUse" id="color-51"><stop offset="0" stop-color="#0066b9"/><stop offset="1" stop-color="#0066b9" stop-opacity="0"/></radialGradient></defs><g transform="translate(48.53528,57.55656)"><g data-paper-data="{&quot;isPaintingLayer&quot;:true}" fill-rule="nonzero" stroke="none" stroke-width="0" stroke-linecap="butt" stroke-linejoin="miter" stroke-miterlimit="10" stroke-dasharray="" stroke-dashoffset="0" style="mix-blend-mode: normal"><path d="M113.46472,158.33333c0,-45.28735 36.71265,-82 82,-82c45.28735,0 82,36.71265 82,82c0,45.28735 -36.71265,82 -82,82c-45.28735,0 -82,-36.71265 -82,-82z" fill="url(#color-1)"/><g><path d="M-28.01802,155.72572c0,-31.09711 25.20919,-56.30631 56.30631,-56.30631c31.09711,0 56.30631,25.20919 56.30631,56.30631c0,31.09711 -25.20919,56.30631 -56.30631,56.30631c-31.09711,0 -56.30631,-25.20919 -56.30631,-56.30631z" fill="url(#color-2)"/><path d="M-23.01802,160.72572c0,-31.09711 25.20919,-56.30631 56.30631,-56.30631c31.09711,0 56.30631,25.20919 56.30631,56.30631c0,31.09711 -25.20919,56.30631 -56.30631,56.30631c-31.09711,0 -56.30631,-25.20919 -56.30631,-56.30631z" fill="url(#color-3)"/><path d="M-18.01802,165.72572c0,-31.09711 25.20919,-56.30631 56.30631,-56.30631c31.09711,0 56.30631,25.20919 56.30631,56.30631c0,31.09711 -25.20919,56.30631 -56.30631,56.30631c-31.09711,0 -56.30631,-25.20919 -56.30631,-56.30631z" fill="url(#color-4)"/><path d="M-13.01802,170.72573c0,-31.09711 25.20919,-56.30631 56.30631,-56.30631c31.09711,0 56.30631,25.20919 56.30631,56.30631c0,31.09711 -25.20919,56.30631 -56.30631,56.30631c-31.09711,0 -56.30631,-25.20919 -56.30631,-56.30631z" fill="url(#color-5)"/><path d="M-8.01802,115.66566c0,-31.09711 25.20919,-56.30631 56.30631,-56.30631c31.09711,0 56.30631,25.20919 56.30631,56.30631c0,31.09711 -25.20919,56.30631 -56.30631,56.30631c-31.09711,0 -56.30631,-25.20919 -56.30631,-56.30631z" fill="url(#color-6)"/><path d="M33.01802,156.7017c0,-31.09711 25.20919,-56.30631 56.30631,-56.30631c31.09711,0 56.30631,25.20919 56.30631,56.30631c0,31.09711 -25.20919,56.30631 -56.30631,56.30631c-31.09711,0 -56.30631,-25.20919 -56.30631,-56.30631z" fill="url(#color-7)"/><path d="M-16.03604,205.24525c0,-31.09711 25.20919,-56.30631 56.30631,-56.30631c31.09711,0 56.30631,25.20919 56.30631,56.30631c0,31.09711 -25.20919,56.30631 -56.30631,56.30631c-31.09711,0 -56.30631,-25.20919 -56.30631,-56.30631z" fill="url(#color-8)"/><path d="M70.04504,181.71672c0,-31.09711 25.20919,-56.30631 56.30631,-56.30631c31.09711,0 56.30631,25.20919 56.30631,56.30631c0,31.09711 -25.20919,56.30631 -56.30631,56.30631c-31.09711,0 -56.30631,-25.20919 -56.30631,-56.30631z" fill="url(#color-9)"/><path d="M31.5015,219.74975c0,-31.09711 25.20919,-56.30631 56.30631,-56.30631c31.09711,0 56.30631,25.20919 56.30631,56.30631c0,31.09711 -25.20919,56.30631 -56.30631,56.30631c-31.09711,0 -56.30631,-25.20919 -56.30631,-56.30631z" fill="url(#color-10)"/><path d="M-35.57057,230.75576c0,-31.09711 25.20919,-56.30631 56.30631,-56.30631c31.09711,0 56.30631,25.20919 56.30631,56.30631c0,31.09711 -25.20919,56.30631 -56.30631,56.30631c-31.09711,0 -56.30631,-25.20919 -56.30631,-56.30631z" fill="url(#color-11)"/><path d="M-23.4985,256.74974c0,-31.09711 25.20919,-56.30631 56.30631,-56.30631c31.09711,0 56.30631,25.20919 56.30631,56.30631c0,31.09711 -25.20919,56.30631 -56.30631,56.30631c-31.09711,0 -56.30631,-25.20919 -56.30631,-56.30631z" fill="url(#color-12)"/><path d="M36.5015,124.74976c0,-31.09711 25.20919,-56.30631 56.30631,-56.30631c31.09711,0 56.30631,25.20919 56.30631,56.30631c0,31.09711 -25.20919,56.30631 -56.30631,56.30631c-31.09711,0 -56.30631,-25.20919 -56.30631,-56.30631z" fill="url(#color-13)"/><path d="M-41.4985,109.74976c0,-31.09711 25.20919,-56.30631 56.30631,-56.30631c31.09711,0 56.30631,25.20919 56.30631,56.30631c0,31.09711 -25.20919,56.30631 -56.30631,56.30631c-31.09711,0 -56.30631,-25.20919 -56.30631,-56.30631z" fill="url(#color-14)"/><path d="M16.5015,96.74976c0,-31.09711 25.20919,-56.30631 56.30631,-56.30631c31.09711,0 56.30631,25.20919 56.30631,56.30631c0,31.09711 -25.20919,56.30631 -56.30631,56.30631c-31.09711,0 -56.30631,-25.20919 -56.30631,-56.30631z" fill="url(#color-15)"/><path d="M44.5015,240.74976c0,-31.09711 25.20919,-56.30631 56.30631,-56.30631c31.09711,0 56.30631,25.20919 56.30631,56.30631c0,31.09711 -25.20919,56.30631 -56.30631,56.30631c-31.09711,0 -56.30631,-25.20919 -56.30631,-56.30631z" fill="url(#color-16)"/><path d="M74.5015,193.74976c0,-31.09711 25.20919,-56.30631 56.30631,-56.30631c31.09711,0 56.30631,25.20919 56.30631,56.30631c0,31.09711 -25.20919,56.30631 -56.30631,56.30631c-31.09711,0 -56.30631,-25.20919 -56.30631,-56.30631z" fill="url(#color-17)"/><path d="M68.5015,148.74976c0,-31.09711 25.20919,-56.30631 56.30631,-56.30631c31.09711,0 56.30631,25.20919 56.30631,56.30631c0,31.09711 -25.20919,56.30631 -56.30631,56.30631c-31.09711,0 -56.30631,-25.20919 -56.30631,-56.30631z" fill="url(#color-18)"/></g><g data-paper-data="{&quot;index&quot;:null}"><path d="M432.64315,140.3018c-35.85801,0 -64.92666,-29.06866 -64.92666,-64.92666c0,-35.85801 29.06866,-64.92666 64.92666,-64.92666c35.85801,0 64.92666,29.06866 64.92666,64.92666c0,35.85801 -29.06866,64.92666 -64.92666,64.92666z" fill="url(#color-19)"/><path d="M426.87767,146.0673c-35.85801,0 -64.92666,-29.06866 -64.92666,-64.92666c0,-35.85801 29.06866,-64.92666 64.92666,-64.92666c35.85801,0 64.92666,29.06866 64.92666,64.92666c0,35.85801 -29.06866,64.92666 -64.92666,64.92666z" fill="url(#color-20)"/><path d="M421.11218,151.83278c-35.85801,0 -64.92666,-29.06866 -64.92666,-64.92666c0,-35.85801 29.06866,-64.92666 64.92666,-64.92666c35.85801,0 64.92666,29.06866 64.92666,64.92666c0,35.85801 -29.06866,64.92666 -64.92666,64.92666z" fill="url(#color-21)"/><path d="M415.34669,157.59827c-35.85801,0 -64.92666,-29.06866 -64.92666,-64.92666c0,-35.85801 29.06866,-64.92666 64.92666,-64.92666c35.85801,0 64.92666,29.06866 64.92666,64.92666c0,35.85801 -29.06866,64.92666 -64.92666,64.92666z" fill="url(#color-22)"/><path d="M409.58121,94.10866c-35.85801,0 -64.92666,-29.06866 -64.92666,-64.92666c0,-35.85801 29.06866,-64.92666 64.92666,-64.92666c35.85801,0 64.92666,29.06866 64.92666,64.92666c0,35.85801 -29.06866,64.92666 -64.92666,64.92666z" fill="url(#color-23)"/><path d="M362.26266,141.42719c-35.85801,0 -64.92666,-29.06866 -64.92666,-64.92666c0,-35.85801 29.06866,-64.92666 64.92666,-64.92666c35.85801,0 64.92666,29.06866 64.92666,64.92666c0,35.85801 -29.06866,64.92666 -64.92666,64.92666z" fill="url(#color-24)"/><path d="M418.82676,197.40263c-35.85801,0 -64.92666,-29.06866 -64.92666,-64.92666c0,-35.85801 29.06866,-64.92666 64.92666,-64.92666c35.85801,0 64.92666,29.06866 64.92666,64.92666c0,35.85801 -29.06866,64.92666 -64.92666,64.92666z" fill="url(#color-25)"/><path d="M319.56689,170.27195c-35.85801,0 -64.92666,-29.06866 -64.92666,-64.92666c0,-35.85801 29.06866,-64.92666 64.92666,-64.92666c35.85801,0 64.92666,29.06866 64.92666,64.92666c0,35.85801 -29.06866,64.92666 -64.92666,64.92666z" fill="url(#color-26)"/><path d="M364.01135,214.12774c-35.85801,0 -64.92666,-29.06866 -64.92666,-64.92666c0,-35.85801 29.06866,-64.92666 64.92666,-64.92666c35.85801,0 64.92666,29.06866 64.92666,64.92666c0,35.85801 -29.06866,64.92666 -64.92666,64.92666z" fill="url(#color-27)"/><path d="M441.35198,226.81873c-35.85801,0 -64.92666,-29.06866 -64.92666,-64.92666c0,-35.85801 29.06866,-64.92666 64.92666,-64.92666c35.85801,0 64.92666,29.06866 64.92666,64.92666c0,35.85801 -29.06866,64.92666 -64.92666,64.92666z" fill="url(#color-28)"/><path d="M427.43171,256.79235c-35.85801,0 -64.92666,-29.06866 -64.92666,-64.92666c0,-35.85801 29.06866,-64.92666 64.92666,-64.92666c35.85801,0 64.92666,29.06866 64.92666,64.92666c0,35.85801 -29.06866,64.92666 -64.92666,64.92666z" fill="url(#color-29)"/><path d="M358.24586,104.58349c-35.85801,0 -64.92666,-29.06866 -64.92666,-64.92666c0,-35.85801 29.06866,-64.92666 64.92666,-64.92666c35.85801,0 64.92666,29.06866 64.92666,64.92666c0,35.85801 -29.06866,64.92666 -64.92666,64.92666z" fill="url(#color-30)"/><path d="M448.18746,87.28703c-35.85801,0 -64.92666,-29.06866 -64.92666,-64.92666c0,-35.85801 29.06866,-64.92666 64.92666,-64.92666c35.85801,0 64.92666,29.06866 64.92666,64.92666c0,35.85801 -29.06866,64.92666 -64.92666,64.92666z" fill="url(#color-31)"/><path d="M381.30781,72.29676c-35.85801,0 -64.92666,-29.06866 -64.92666,-64.92666c0,-35.85801 29.06866,-64.92666 64.92666,-64.92666c35.85801,0 64.92666,29.06866 64.92666,64.92666c0,35.85801 -29.06866,64.92666 -64.92666,64.92666z" fill="url(#color-32)"/><path d="M349.02108,238.34279c-35.85801,0 -64.92666,-29.06866 -64.92666,-64.92666c0,-35.85801 29.06866,-64.92666 64.92666,-64.92666c35.85801,0 64.92666,29.06866 64.92666,64.92666c0,35.85801 -29.06866,64.92666 -64.92666,64.92666z" fill="url(#color-33)"/><path d="M314.42816,184.14721c-35.85801,0 -64.92666,-29.06866 -64.92666,-64.92666c0,-35.85801 29.06866,-64.92666 64.92666,-64.92666c35.85801,0 64.92666,29.06866 64.92666,64.92666c0,35.85801 -29.06866,64.92666 -64.92666,64.92666z" fill="url(#color-34)"/><path d="M321.34674,132.25783c-35.85801,0 -64.92666,-29.06866 -64.92666,-64.92666c0,-35.85801 29.06866,-64.92666 64.92666,-64.92666c35.85801,0 64.92666,29.06866 64.92666,64.92666c0,35.85801 -29.06866,64.92666 -64.92666,64.92666z" fill="url(#color-35)"/></g><path d="M188.46471,260.83333c0,-29.54723 23.95277,-53.5 53.5,-53.5c29.54723,0 53.5,23.95277 53.5,53.5c0,29.54723 -23.95277,53.5 -53.5,53.5c-29.54723,0 -53.5,-23.95277 -53.5,-53.5z" fill="url(#color-36)"/><path d="M170.46472,133.83333c0,-29.54723 23.95277,-53.5 53.5,-53.5c29.54724,0 53.5,23.95277 53.5,53.5c0,29.54724 -23.95276,53.5 -53.5,53.5c-29.54723,0 -53.5,-23.95276 -53.5,-53.5z" fill="url(#color-37)"/><path d="M178.46472,94.83333c0,-29.54723 23.95277,-53.5 53.5,-53.5c29.54724,0 53.5,23.95277 53.5,53.5c0,29.54724 -23.95276,53.5 -53.5,53.5c-29.54723,0 -53.5,-23.95276 -53.5,-53.5z" fill="url(#color-38)"/><path d="M198.46472,280.83333c0,-29.54723 23.95277,-53.5 53.5,-53.5c29.54724,0 53.5,23.95277 53.5,53.5c0,29.54724 -23.95276,53.5 -53.5,53.5c-29.54723,0 -53.5,-23.95276 -53.5,-53.5z" fill="url(#color-39)"/><path d="M236.46472,269.83333c0,-29.54723 23.95277,-53.5 53.5,-53.5c29.54724,0 53.5,23.95277 53.5,53.5c0,29.54724 -23.95276,53.5 -53.5,53.5c-29.54723,0 -53.5,-23.95276 -53.5,-53.5z" fill="url(#color-40)"/><path d="M154.46472,286.83333c0,-29.54723 23.95277,-53.5 53.5,-53.5c29.54724,0 53.5,23.95277 53.5,53.5c0,29.54724 -23.95276,53.5 -53.5,53.5c-29.54723,0 -53.5,-23.95276 -53.5,-53.5z" fill="url(#color-41)"/><path d="M218.46472,290.83333c0,-29.54723 23.95277,-53.5 53.5,-53.5c29.54724,0 53.5,23.95277 53.5,53.5c0,29.54724 -23.95276,53.5 -53.5,53.5c-29.54723,0 -53.5,-23.95276 -53.5,-53.5z" fill="url(#color-42)"/><path d="M105.46472,88.83333c0,-29.54723 23.95277,-53.5 53.5,-53.5c29.54724,0 53.5,23.95277 53.5,53.5c0,29.54724 -23.95276,53.5 -53.5,53.5c-29.54723,0 -53.5,-23.95276 -53.5,-53.5z" fill="url(#color-43)"/><path d="M264.46472,274.83333c0,-29.54723 23.95277,-53.5 53.5,-53.5c29.54724,0 53.5,23.95277 53.5,53.5c0,29.54724 -23.95276,53.5 -53.5,53.5c-29.54723,0 -53.5,-23.95276 -53.5,-53.5z" fill="url(#color-44)"/><path d="M294.46472,286.83333c0,-29.54723 23.95277,-53.5 53.5,-53.5c29.54724,0 53.5,23.95277 53.5,53.5c0,29.54724 -23.95276,53.5 -53.5,53.5c-29.54723,0 -53.5,-23.95276 -53.5,-53.5z" fill="url(#color-45)"/><path d="M332.46472,276.83333c0,-29.54723 23.95277,-53.5 53.5,-53.5c29.54724,0 53.5,23.95277 53.5,53.5c0,29.54724 -23.95276,53.5 -53.5,53.5c-29.54723,0 -53.5,-23.95276 -53.5,-53.5z" fill="url(#color-46)"/><path d="M181.46472,206.33333c0,-45.28735 36.71265,-82 82,-82c45.28735,0 82,36.71265 82,82c0,45.28735 -36.71265,82 -82,82c-45.28735,0 -82,-36.71265 -82,-82z" fill="url(#color-47)"/><path d="M91.46472,255.33333c0,-45.28735 36.71265,-82 82,-82c45.28735,0 82,36.71265 82,82c0,45.28735 -36.71265,82 -82,82c-45.28735,0 -82,-36.71265 -82,-82z" fill="url(#color-48)"/><path d="M256.46472,229.33333c0,-45.28735 36.71265,-82 82,-82c45.28735,0 82,36.71265 82,82c0,45.28735 -36.71265,82 -82,82c-45.28735,0 -82,-36.71265 -82,-82z" fill="url(#color-49)"/><path d="M-48.53528,133.33333c0,-45.28735 36.71265,-82 82,-82c45.28735,0 82,36.71265 82,82c0,45.28735 -36.71265,82 -82,82c-45.28735,0 -82,-36.71265 -82,-82z" fill="url(#color-50)"/><path d="M299.46472,169.33333c0,-45.28735 36.71265,-82 82,-82c45.28735,0 82,36.71265 82,82c0,45.28735 -36.71265,82 -82,82c-45.28735,0 -82,-36.71265 -82,-82z" fill="url(#color-51)"/></g></g></svg>