<svg version="1.1" xmlns="http://www.w3.org/2000/svg" xmlns:xlink="http://www.w3.org/1999/xlink" width="58.25445" height="73.5031" viewBox="0,0,58.25445,73.5031"><defs><linearGradient x1="220.0625" y1="175.04167" x2="220.0625" y2="181.16667" gradientUnits="userSpaceOnUse" id="color-1"><stop offset="0" stop-color="#ff8800"/><stop offset="1" stop-color="#ffc500"/></linearGradient><linearGradient x1="259.8125" y1="175.04167" x2="259.8125" y2="181.16667" gradientUnits="userSpaceOnUse" id="color-2"><stop offset="0" stop-color="#ff8800"/><stop offset="1" stop-color="#ffc500"/></linearGradient><radialGradient cx="240.01406" cy="208.21142" r="8.89813" gradientUnits="userSpaceOnUse" id="color-3"><stop offset="0" stop-color="#fff696"/><stop offset="1" stop-color="#fff696" stop-opacity="0"/></radialGradient><linearGradient x1="226.91072" y1="171.04762" x2="226.91072" y2="180.49789" gradientUnits="userSpaceOnUse" id="color-4"><stop offset="0" stop-color="#ff8800"/><stop offset="1" stop-color="#ffc500"/></linearGradient><linearGradient x1="223.41072" y1="173.47076" x2="223.41072" y2="180.61905" gradientUnits="userSpaceOnUse" id="color-5"><stop offset="0" stop-color="#ff8800"/><stop offset="1" stop-color="#ffc500"/></linearGradient><linearGradient x1="252.91072" y1="171.04762" x2="252.91072" y2="180.49789" gradientUnits="userSpaceOnUse" id="color-6"><stop offset="0" stop-color="#ff8800"/><stop offset="1" stop-color="#ffc500"/></linearGradient><linearGradient x1="256.41072" y1="173.47076" x2="256.41072" y2="180.61905" gradientUnits="userSpaceOnUse" id="color-7"><stop offset="0" stop-color="#ff8800"/><stop offset="1" stop-color="#ffc500"/></linearGradient><radialGradient cx="240.41802" cy="205.42799" r="12.35459" gradientUnits="userSpaceOnUse" id="color-8"><stop offset="0" stop-color="#fcd81d"/><stop offset="1" stop-color="#fcd81d" stop-opacity="0"/></radialGradient><linearGradient x1="239.78409" y1="204.32197" x2="239.78409" y2="221.1856" gradientUnits="userSpaceOnUse" id="color-9"><stop offset="0" stop-color="#ffffff"/><stop offset="1" stop-color="#ffffff" stop-opacity="0"/></linearGradient><radialGradient cx="239.85349" cy="208.4453" r="6.32236" gradientUnits="userSpaceOnUse" id="color-10"><stop offset="0" stop-color="#ffee35"/><stop offset="1" stop-color="#ffee35" stop-opacity="0"/></radialGradient><linearGradient x1="239.19359" y1="125.00033" x2="239.19359" y2="219.02638" gradientUnits="userSpaceOnUse" id="color-11"><stop offset="0" stop-color="#a300f2"/><stop offset="1" stop-color="#a300f2" stop-opacity="0"/></linearGradient><linearGradient x1="238.95587" y1="96.98157" x2="238.95587" y2="225.00218" gradientUnits="userSpaceOnUse" id="color-12"><stop offset="0" stop-color="#f1f1f1"/><stop offset="1" stop-color="#f1f1f1" stop-opacity="0"/></linearGradient><linearGradient x1="239.96416" y1="204.61822" x2="239.96416" y2="212.52598" gradientUnits="userSpaceOnUse" id="color-13"><stop offset="0" stop-color="#ff4f00"/><stop offset="1" stop-color="#ff4f00" stop-opacity="0"/></linearGradient><linearGradient x1="239.89617" y1="204.86496" x2="239.89617" y2="210.21079" gradientUnits="userSpaceOnUse" id="color-14"><stop offset="0" stop-color="#ffd400"/><stop offset="1" stop-color="#ffd400" stop-opacity="0"/></linearGradient><linearGradient x1="239.89388" y1="204.5069" x2="239.89388" y2="213.38922" gradientUnits="userSpaceOnUse" id="color-15"><stop offset="0" stop-color="#ffee00"/><stop offset="1" stop-color="#ffee00" stop-opacity="0"/></linearGradient><linearGradient x1="239.82136" y1="204.43395" x2="239.82136" y2="208.32133" gradientUnits="userSpaceOnUse" id="color-16"><stop offset="0" stop-color="#ffee00"/><stop offset="1" stop-color="#ffee00" stop-opacity="0"/></linearGradient><linearGradient x1="241.86413" y1="204.5069" x2="241.86413" y2="208.39428" gradientUnits="userSpaceOnUse" id="color-17"><stop offset="0" stop-color="#ffee00"/><stop offset="1" stop-color="#ffee00" stop-opacity="0"/></linearGradient><linearGradient x1="237.7786" y1="204.5069" x2="237.7786" y2="208.39428" gradientUnits="userSpaceOnUse" id="color-18"><stop offset="0" stop-color="#ffee00"/><stop offset="1" stop-color="#ffee00" stop-opacity="0"/></linearGradient><radialGradient cx="240.0183" cy="207.64308" r="6.32236" gradientUnits="userSpaceOnUse" id="color-19"><stop offset="0" stop-color="#feea00"/><stop offset="1" stop-color="#feea00" stop-opacity="0"/></radialGradient><linearGradient x1="235.18148" y1="206.02091" x2="244.21558" y2="206.02091" gradientUnits="userSpaceOnUse" id="color-20"><stop offset="0" stop-color="#5f5f5f"/><stop offset="1" stop-color="#4c4c4c"/></linearGradient><linearGradient x1="235.18148" y1="206.02091" x2="244.21558" y2="206.02091" gradientUnits="userSpaceOnUse" id="color-21"><stop offset="0" stop-color="#949494"/><stop offset="1" stop-color="#757575"/></linearGradient><linearGradient x1="235.46004" y1="204.21927" x2="238.39109" y2="204.21927" gradientUnits="userSpaceOnUse" id="color-22"><stop offset="0" stop-color="#4c4c4c"/><stop offset="1" stop-color="#4c4c4c" stop-opacity="0"/></linearGradient><linearGradient x1="243.93637" y1="204.21926" x2="241.00533" y2="204.21926" gradientUnits="userSpaceOnUse" id="color-23"><stop offset="0" stop-color="#5f5f5f"/><stop offset="1" stop-color="#5f5f5f" stop-opacity="0"/></linearGradient><linearGradient x1="237.11583" y1="167.87076" x2="242.8936" y2="167.87076" gradientUnits="userSpaceOnUse" id="color-24"><stop offset="0" stop-color="#5f5f5f"/><stop offset="1" stop-color="#a8a8a8"/></linearGradient><linearGradient x1="240.04887" y1="161.54812" x2="240.04887" y2="162.48361" gradientUnits="userSpaceOnUse" id="color-25"><stop offset="0" stop-color="#7a7a7a"/><stop offset="1" stop-color="#646464"/></linearGradient><linearGradient x1="239.05949" y1="165.17487" x2="239.25947" y2="165.17487" gradientUnits="userSpaceOnUse" id="color-26"><stop offset="0" stop-color="#00eeec"/><stop offset="1" stop-color="#1cfff4"/></linearGradient><linearGradient x1="236.15" y1="195.55476" x2="239.95" y2="195.55476" gradientUnits="userSpaceOnUse" id="color-27"><stop offset="0" stop-color="#0e4d62"/><stop offset="1" stop-color="#126884"/></linearGradient><linearGradient x1="243.65" y1="195.55476" x2="239.85" y2="195.55476" gradientUnits="userSpaceOnUse" id="color-28"><stop offset="0" stop-color="#0e4d62"/><stop offset="1" stop-color="#126884"/></linearGradient><linearGradient x1="229.33807" y1="179.10309" x2="233.11584" y2="179.10309" gradientUnits="userSpaceOnUse" id="color-29"><stop offset="0" stop-color="#105972"/><stop offset="1" stop-color="#105972" stop-opacity="0"/></linearGradient><linearGradient x1="213.71028" y1="183.34817" x2="218.74084" y2="183.34817" gradientUnits="userSpaceOnUse" id="color-30"><stop offset="0" stop-color="#ff9b00"/><stop offset="1" stop-color="#e68100"/></linearGradient><linearGradient x1="250.6714" y1="193.40467" x2="253.56029" y2="193.40467" gradientUnits="userSpaceOnUse" id="color-31"><stop offset="0" stop-color="#009dd2"/><stop offset="1" stop-color="#009dd2" stop-opacity="0"/></linearGradient><linearGradient x1="234.96935" y1="203.97261" x2="244.42393" y2="203.97261" gradientUnits="userSpaceOnUse" id="color-32"><stop offset="0" stop-color="#888888"/><stop offset="1" stop-color="#696969"/></linearGradient><linearGradient x1="239.68182" y1="206.57576" x2="239.68182" y2="212.84849" gradientUnits="userSpaceOnUse" id="color-33"><stop offset="0" stop-color="#fccf00"/><stop offset="1" stop-color="#fccf00" stop-opacity="0"/></linearGradient><linearGradient x1="238.80759" y1="178.09019" x2="241.3165" y2="178.09019" gradientUnits="userSpaceOnUse" id="color-34"><stop offset="0" stop-color="#c7ffff"/><stop offset="1" stop-color="#91f5f5"/></linearGradient><linearGradient x1="250.52458" y1="189.16525" x2="253.52458" y2="189.16525" gradientUnits="userSpaceOnUse" id="color-35"><stop offset="0" stop-color="#105972"/><stop offset="1" stop-color="#105972" stop-opacity="0"/></linearGradient><linearGradient x1="237.61111" y1="197.61641" x2="242.16667" y2="197.61641" gradientUnits="userSpaceOnUse" id="color-36"><stop offset="0" stop-color="#8b8b8b"/><stop offset="1" stop-color="#7f7f7f"/></linearGradient><linearGradient x1="238.01111" y1="192.7664" x2="241.76667" y2="192.7664" gradientUnits="userSpaceOnUse" id="color-37"><stop offset="0" stop-color="#8b8b8b"/><stop offset="1" stop-color="#7f7f7f"/></linearGradient><linearGradient x1="266.18528" y1="183.34817" x2="261.15473" y2="183.34817" gradientUnits="userSpaceOnUse" id="color-38"><stop offset="0" stop-color="#ff9b00"/><stop offset="1" stop-color="#e68100"/></linearGradient><linearGradient x1="231.95313" y1="156.16667" x2="231.95313" y2="180.97917" gradientUnits="userSpaceOnUse" id="color-39"><stop offset="0" stop-color="#e68100"/><stop offset="1" stop-color="#ff9b00"/></linearGradient><linearGradient x1="231.95313" y1="156.16667" x2="231.95313" y2="180.97917" gradientUnits="userSpaceOnUse" id="color-40"><stop offset="0" stop-color="#e68100"/><stop offset="1" stop-color="#ff9b00"/></linearGradient><linearGradient x1="247.82813" y1="156.04167" x2="247.82813" y2="180.85417" gradientUnits="userSpaceOnUse" id="color-41"><stop offset="0" stop-color="#e68100"/><stop offset="1" stop-color="#ff9b00"/></linearGradient><linearGradient x1="247.82813" y1="156.04167" x2="247.82813" y2="180.85417" gradientUnits="userSpaceOnUse" id="color-42"><stop offset="0" stop-color="#e68100"/><stop offset="1" stop-color="#ff9b00"/></linearGradient><linearGradient x1="234.05" y1="187.03334" x2="236.95" y2="187.03334" gradientUnits="userSpaceOnUse" id="color-43"><stop offset="0" stop-color="#ececec"/><stop offset="1" stop-color="#dbdbdb"/></linearGradient><linearGradient x1="235.5" y1="183.33334" x2="235.5" y2="187.03334" gradientUnits="userSpaceOnUse" id="color-44"><stop offset="0" stop-color="#000000" stop-opacity="0"/><stop offset="1" stop-color="#000000" stop-opacity="0"/></linearGradient><linearGradient x1="242.85" y1="186.83334" x2="245.75" y2="186.83334" gradientUnits="userSpaceOnUse" id="color-45"><stop offset="0" stop-color="#dbdbdb"/><stop offset="1" stop-color="#ececec"/></linearGradient><linearGradient x1="244.3" y1="183.13334" x2="244.3" y2="186.83334" gradientUnits="userSpaceOnUse" id="color-46"><stop offset="0" stop-color="#000000" stop-opacity="0"/><stop offset="1" stop-color="#000000" stop-opacity="0"/></linearGradient><linearGradient x1="229.1875" y1="159.66667" x2="234.8125" y2="159.66667" gradientUnits="userSpaceOnUse" id="color-47"><stop offset="0" stop-color="#ececec"/><stop offset="1" stop-color="#dbdbdb"/></linearGradient><linearGradient x1="229.1875" y1="159.66667" x2="234.8125" y2="159.66667" gradientUnits="userSpaceOnUse" id="color-48"><stop offset="0" stop-color="#ececec"/><stop offset="1" stop-color="#dbdbdb"/></linearGradient><linearGradient x1="244.9375" y1="159.54167" x2="250.5625" y2="159.54167" gradientUnits="userSpaceOnUse" id="color-49"><stop offset="0" stop-color="#dbdbdb"/><stop offset="1" stop-color="#ececec"/></linearGradient><linearGradient x1="244.9375" y1="159.54167" x2="250.5625" y2="159.54167" gradientUnits="userSpaceOnUse" id="color-50"><stop offset="0" stop-color="#dbdbdb"/><stop offset="1" stop-color="#ececec"/></linearGradient></defs><g transform="translate(-210.87279,-152.89764)"><g data-paper-data="{&quot;isPaintingLayer&quot;:true}" fill-rule="nonzero" stroke-linejoin="miter" stroke-miterlimit="10" stroke-dasharray="" stroke-dashoffset="0" style="mix-blend-mode: normal"><path d="M238.10575,153.13819c0,0 0.87987,0.91199 1.54546,1.36364c0.66558,0.45165 1.04278,0.53754 1.45454,0.63636c0.41177,0.09883 0.81818,-0.09091 0.81818,-0.09091l1.36364,16.90909l-8.45455,1.36364z" fill="#001820" stroke="#ff0000" stroke-width="0" stroke-linecap="round"/><path d="M220.0625,181.16667v-6.125" fill="none" stroke="url(#color-1)" stroke-width="2" stroke-linecap="round"/><path d="M259.8125,175.04167v6.125" fill="none" stroke="url(#color-2)" stroke-width="2" stroke-linecap="round"/><g><g><path d="M216.62845,177.94988v4.09091" fill="none" stroke="#b6b6b6" stroke-width="2.5" stroke-linecap="round"/><path d="M218.10572,179.10897v3.91667" fill="none" stroke="#115e78" stroke-width="0.5" stroke-linecap="round"/><path d="M218.31029,183.24534v-4.31818h1.59091v4.31818z" fill="#136985" stroke="none" stroke-width="0" stroke-linecap="butt"/></g><path d="M217.08302,178.10897l-0.04545,4.18182" fill="none" stroke="#c2c2c2" stroke-width="1.5" stroke-linecap="round"/></g><g data-paper-data="{&quot;index&quot;:null}"><g><path d="M263.33302,177.94988v4.09091" fill="none" stroke="#b6b6b6" stroke-width="2.5" stroke-linecap="round"/><path d="M261.85574,183.02563v-3.91666" fill="none" stroke="#115e78" stroke-width="0.5" stroke-linecap="round"/><path d="M260.06028,183.24534v-4.31818h1.59091v4.31819z" fill="#136985" stroke="none" stroke-width="0" stroke-linecap="butt"/></g><path d="M262.87846,178.10897l0.04545,4.18182" fill="none" stroke="#c2c2c2" stroke-width="1.5" stroke-linecap="round"/></g><path d="M247.81944,208.21142c0,4.34894 -3.49458,7.87446 -7.80538,7.87446c-4.3108,0 -7.80538,-3.52552 -7.80538,-7.87446c0,-4.34894 3.49459,-7.87446 7.80538,-7.87446c4.3108,0 7.80538,3.52552 7.80538,7.87446z" fill="url(#color-3)" stroke="none" stroke-width="0" stroke-linecap="butt"/><g fill="none" stroke-width="2" stroke-linecap="round"><path d="M226.91072,180.49788v-9.45026" stroke="url(#color-4)"/><path d="M223.41072,180.61904v-7.14828" stroke="url(#color-5)"/></g><g data-paper-data="{&quot;index&quot;:null}" fill="none" stroke-width="2" stroke-linecap="round"><path d="M252.91072,180.49788v-9.45026" stroke="url(#color-6)"/><path d="M256.41072,180.61905v-7.14828" stroke="url(#color-7)"/></g><path d="M252.60788,205.42799c0,6.82325 -5.45758,12.35459 -12.18986,12.35459c-6.73227,0 -12.18987,-5.53134 -12.18987,-12.35459c0,-6.82325 5.45759,-12.35459 12.18987,-12.35459c6.73227,0 12.18986,5.53134 12.18986,12.35459z" fill="url(#color-8)" stroke="none" stroke-width="0" stroke-linecap="butt"/><g fill="none" stroke="#3195b6" stroke-width="1" stroke-linecap="round"><path d="M239.77904,203.02632h-9.0625l-16.875,-8.375"/><path d="M239.84154,202.15132h-9.0625l-16.875,-8.375"/><path d="M239.65404,201.21382h-9.0625l-16.875,-8.375"/></g><g fill="none" stroke="#3195b6" stroke-width="1" stroke-linecap="round"><path d="M266.15849,194.65132l-16.875,8.375h-9.0625"/><path d="M266.09599,193.77632l-16.875,8.375h-9.0625"/><path d="M266.28349,192.83882l-16.875,8.375h-9.0625"/></g><path d="M242.28409,204.32197l-2.5,16.86364l-2.5,-16.86364z" fill="url(#color-9)" stroke="#000000" stroke-width="0" stroke-linecap="round"/><path d="M245.39942,208.4453c0,3.09004 -2.48299,5.59501 -5.54593,5.59501c-3.06293,0 -5.54593,-2.50497 -5.54593,-5.59501c0,-3.09004 2.48299,-5.59501 5.54593,-5.59501c3.06293,0 5.54593,2.50497 5.54593,5.59501z" fill="url(#color-10)" stroke="none" stroke-width="0" stroke-linecap="butt"/><g stroke="#000000" stroke-width="0" stroke-linecap="round"><path d="M241.98054,205.12111l-1.99752,14.93246l-2.35162,-14.93246z" fill="url(#color-11)"/><path d="M242.75043,206.06953l-2.71971,20.33121l-3.20183,-20.33121z" fill="url(#color-12)"/><path d="M241.06246,204.61822c0,0 1.97104,0.54702 1.90371,2.41626c-0.16093,4.46815 -3.2949,5.49149 -3.2949,5.49149c0,0 -2.64402,-0.90981 -2.70914,-5.49149c-0.02772,-1.95089 1.8305,-2.41626 1.8305,-2.41626z" fill="url(#color-13)"/><path d="M240.63865,204.86496c0,0 1.33247,0.3698 1.28696,1.63345c-0.10879,3.02057 -2.22743,3.71239 -2.22743,3.71239c0,0 -1.78743,-0.61506 -1.83145,-3.71239c-0.01874,-1.31885 1.23746,-1.63345 1.23746,-1.63345z" fill="url(#color-14)"/><path d="M241.12754,204.5069c0,0 2.21395,0.61444 2.13833,2.71404c-0.18075,5.01881 -3.70096,6.16828 -3.70096,6.16828c0,0 -2.96987,-1.02195 -3.04302,-6.16828c-0.03114,-2.19132 2.05609,-2.71404 2.05609,-2.71404z" fill="url(#color-15)"/><path d="M240.36128,204.43395c0,0 0.96894,0.26891 0.93585,1.18781c-0.07911,2.1965 -1.61974,2.69957 -1.61974,2.69957c0,0 -1.29978,-0.44726 -1.33179,-2.69957c-0.01364,-0.95904 0.89985,-1.18781 0.89985,-1.18781z" fill="url(#color-16)"/><path d="M242.40405,204.5069c0,0 0.96895,0.26892 0.93585,1.18781c-0.07911,2.1965 -1.61975,2.69957 -1.61975,2.69957c0,0 -1.29978,-0.44726 -1.33179,-2.69957c-0.01363,-0.95904 0.89986,-1.18781 0.89986,-1.18781z" fill="url(#color-17)"/><path d="M238.31851,204.5069c0,0 0.96895,0.26892 0.93585,1.18781c-0.07911,2.1965 -1.61975,2.69957 -1.61975,2.69957c0,0 -1.29978,-0.44726 -1.33179,-2.69957c-0.01363,-0.95904 0.89986,-1.18781 0.89986,-1.18781z" fill="url(#color-18)"/></g><path d="M245.56422,207.64308c0,3.09004 -2.48299,5.59501 -5.54593,5.59501c-3.06294,0 -5.54593,-2.50497 -5.54593,-5.59501c0,-3.09004 2.48299,-5.59501 5.54593,-5.59501c3.06294,0 5.54593,2.50498 5.54593,5.59501z" fill="url(#color-19)" stroke="none" stroke-width="0" stroke-linecap="butt"/><path d="M244.21558,206.02091c0,0.46442 -2.02235,0.84091 -4.51705,0.84091c-2.4947,0 -4.51705,-0.37649 -4.51705,-0.84091c0,-0.46442 2.02235,-0.84091 4.51705,-0.84091c2.4947,0 4.51705,0.37649 4.51705,0.84091z" fill="url(#color-20)" stroke="url(#color-21)" stroke-width="0.5" stroke-linecap="butt"/><path d="M235.46004,206.08133v-3.72414h2.93103l0.03448,4.2069c0,0 -1.15126,-0.04387 -1.66802,-0.12799c-0.46663,-0.07596 -1.2975,-0.35477 -1.2975,-0.35477z" fill="url(#color-22)" stroke="none" stroke-width="0" stroke-linecap="butt"/><path d="M229.07143,203.47619v-3.42857h21.57143v3.42857z" fill="#0f566e" stroke="none" stroke-width="0" stroke-linecap="butt"/><path d="M242.63885,206.4361c-0.51675,0.08413 -1.66802,0.12799 -1.66802,0.12799l0.03448,-4.2069h2.93104v3.72414c0,0 -0.83087,0.2788 -1.2975,0.35477z" data-paper-data="{&quot;index&quot;:null}" fill="url(#color-23)" stroke="none" stroke-width="0" stroke-linecap="butt"/><path d="M237.11583,173.76975v-11.79798h5.77778v11.79798z" fill="url(#color-24)" stroke="none" stroke-width="0" stroke-linecap="butt"/><path d="M242.20285,162.01587c0,0.25833 -0.96436,0.46774 -2.15395,0.46774c-1.1896,0 -2.15396,-0.20941 -2.15396,-0.46774c0,-0.25833 0.96436,-0.46775 2.15396,-0.46775c1.1896,0 2.15395,0.20942 2.15395,0.46775z" fill="url(#color-25)" stroke="#7e7e7e" stroke-width="0.5" stroke-linecap="butt"/><path d="M213.27904,194.71382v-1.9375h1.0625v1.9375z" fill="#0098ca" stroke="none" stroke-width="0" stroke-linecap="butt"/><path d="M213.67387,178.86466l26.37212,0.125l-0.04724,21.91417l-9.09821,-0.03917l-17.65278,-8.625z" fill="#3dbce6" stroke="#b6b6b6" stroke-width="0" stroke-linecap="round"/><path d="M214.1436,178.94646l-0.01282,13.58974" fill="none" stroke="#0098ca" stroke-width="0.5" stroke-linecap="round"/><path d="M215.40641,179.88451l-0.07692,12.23077" fill="none" stroke="#2fb2de" stroke-width="2" stroke-linecap="round"/><path d="M214.45313,180.24805v-1.35714h1.92857v1.35714z" fill="#00bcfb" stroke="none" stroke-width="0" stroke-linecap="butt"/><path d="M238.73886,199.6052v-19.28572" fill="none" stroke="#3195b6" stroke-width="2.5" stroke-linecap="round"/><path d="M237.52458,183.74805v-4.71428h2.5v4.71428z" fill="#f00000" stroke="none" stroke-width="0" stroke-linecap="butt"/><path d="M237.52458,200.81948v-6h2.5v6z" fill="#0098ca" stroke="none" stroke-width="0" stroke-linecap="butt"/><path d="M228.71654,184.71382v7.1875" fill="none" stroke="#00bcfb" stroke-width="1" stroke-linecap="round"/><path d="M230.52904,192.46382l0.125,-8.6875" fill="none" stroke="#f50000" stroke-width="1" stroke-linecap="round"/><path d="M219.21654,181.15132v7.9375" fill="none" stroke="#2fb2de" stroke-width="1" stroke-linecap="round"/><path d="M225.21654,193.96382v-11.875" fill="none" stroke="#2fb2de" stroke-width="1" stroke-linecap="round"/><path d="M233.65404,195.46382l0.0625,-11.1875" fill="none" stroke="#fa0000" stroke-width="1" stroke-linecap="round"/><path d="M222.65404,189.21382l-0.125,5.125" fill="none" stroke="#2fb2de" stroke-width="1" stroke-linecap="round"/><path d="M236.15404,192.40132l-0.0625,-11" fill="none" stroke="#fa0000" stroke-width="1" stroke-linecap="round"/><path d="M265.65849,194.71382v-1.9375h1.0625v1.9375z" fill="#0098ca" stroke="none" stroke-width="0" stroke-linecap="butt"/><path d="M266.75224,192.23966l-17.65278,8.625l-9.09821,0.03917l-0.04724,-21.91417l26.37212,-0.125z" fill="#3dbce6" stroke="#b6b6b6" stroke-width="0" stroke-linecap="round"/><path d="M267.62724,178.73966v13.125" fill="none" stroke="#b6b6b6" stroke-width="3" stroke-linecap="round"/><path d="M265.86924,192.5362l-0.01282,-13.58974" fill="none" stroke="#0098ca" stroke-width="0.5" stroke-linecap="round"/><path d="M267.13205,191.88451v-13" fill="none" stroke="#c2c2c2" stroke-width="2" stroke-linecap="round"/><path d="M264.67052,192.11528l-0.07692,-12.23077" fill="none" stroke="#2fb2de" stroke-width="2" stroke-linecap="round"/><path d="M263.61832,180.24805v-1.35714h1.92857v1.35714z" fill="#00b1ec" stroke="none" stroke-width="0" stroke-linecap="butt"/><path d="M241.26117,199.6052v-19.28572" fill="none" stroke="#3195b6" stroke-width="2.5" stroke-linecap="round"/><path d="M239.97544,183.74805v-4.71428h2.5v4.71428z" fill="#f00000" stroke="none" stroke-width="0" stroke-linecap="butt"/><path d="M239.97544,200.81948v-6h2.5v6z" fill="#0098ca" stroke="none" stroke-width="0" stroke-linecap="butt"/><path d="M251.28351,184.71382v7.1875" fill="none" stroke="#00bcfb" stroke-width="1" stroke-linecap="round"/><path d="M249.47101,192.46382l-0.125,-8.6875" fill="none" stroke="#f50000" stroke-width="1" stroke-linecap="round"/><path d="M260.78349,189.08882v-7.9375" fill="none" stroke="#2fb2de" stroke-width="1" stroke-linecap="round"/><path d="M254.78351,182.08882v11.875" fill="none" stroke="#2fb2de" stroke-width="1" stroke-linecap="round"/><path d="M246.28351,184.27632l0.0625,11.1875" fill="none" stroke="#fa0000" stroke-width="1" stroke-linecap="round"/><path d="M257.47099,194.33882l-0.125,-5.125" fill="none" stroke="#2fb2de" stroke-width="1" stroke-linecap="round"/><path d="M243.90851,181.40132l-0.0625,11" fill="none" stroke="#fa0000" stroke-width="1" stroke-linecap="round"/><path d="M240.83628,167.61264v-4.77419h0.25806v4.77419z" fill="#1dfffb" stroke="none" stroke-width="0" stroke-linecap="butt"/><path d="M241.46935,153.41091v17.45455c0,0 -0.41174,0.95908 -1.54546,0.90909c-1.10778,-0.04885 -1.36363,-0.90909 -1.36363,-0.90909l-0.09091,-17.45455" fill="none" stroke="#0c4152" stroke-width="1" stroke-linecap="round"/><path d="M230.37962,198.72781l0.18067,-37.58147l6.38655,-5.42857v15.66277c0,0 0.80028,1.92095 2.97708,1.92095c2.13875,0 2.93049,-1.79051 2.93049,-1.79051v-15.95287l6.54621,5.42857l-0.21533,37.7619l-2.94533,0.71141l-11.56853,0.0566z" fill="#0f546c" stroke="#0f546c" stroke-width="2.5" stroke-linecap="round"/><path d="M235.22695,195.54753l-0.11111,-18.33333" fill="none" stroke="#10576f" stroke-width="1" stroke-linecap="round"/><path d="M246.78248,177.2142l0.11111,11.77777" fill="none" stroke="#10576f" stroke-width="1" stroke-linecap="round"/><path d="M244.00473,184.76975l0.22222,10.66666" fill="none" stroke="#10576f" stroke-width="1" stroke-linecap="round"/><path d="M237.22695,199.54753v-13.33333" fill="none" stroke="#10576f" stroke-width="1" stroke-linecap="round"/><path d="M242.56029,180.65864l0.11111,-7" fill="none" stroke="#10576f" stroke-width="1" stroke-linecap="round"/><path d="M234.33807,159.3253l-0.22223,13.77777" fill="none" stroke="#10576f" stroke-width="1" stroke-linecap="round"/><path d="M248.22695,160.3253l-0.22222,12.11111" fill="none" stroke="#fa0000" stroke-width="1" stroke-linecap="round"/><path d="M245.22696,173.99197l0.33333,-13" fill="none" stroke="#10576f" stroke-width="1" stroke-linecap="round"/><path d="M239.05949,167.52488v-4.7h0.2v4.7z" fill="url(#color-26)" stroke="none" stroke-width="0" stroke-linecap="butt"/><path d="M239.93306,167.70941v-4.80645h0.22581v4.80645z" fill="#1dfffb" stroke="none" stroke-width="0" stroke-linecap="butt"/><path d="M238.3387,175.83194l1.41473,-1.05738l1.50602,0.91167v7.72276l-1.46037,0.54738l-1.46037,-0.6931z" fill="#8cffff" stroke="#7e7e7e" stroke-width="0.5" stroke-linecap="round"/><path d="M241.15404,175.69406l-1.4375,1.125l-1.3125,-0.875" fill="none" stroke="#55eded" stroke-width="0.5" stroke-linecap="round"/><path d="M238.65404,183.19406l1,-0.6875l1.25,0.8125" fill="none" stroke="#55eded" stroke-width="0.5" stroke-linecap="round"/><path d="M239.96654,183.63156l-0.1875,-0.5625l-0.0625,-6.5625l0.0625,-1.5" fill="none" stroke="#4fdada" stroke-width="0.5" stroke-linecap="round"/><path d="M238.3387,175.83194l1.41473,-1.05738l1.50602,0.91167v7.72276l-1.46037,0.54738l-1.46037,-0.6931z" fill="none" stroke="#7e7e7e" stroke-width="0.5" stroke-linecap="round"/><path d="M240.03649,176.94952l0.92857,-0.82143l0.02381,6.9881l-0.9762,-0.78572z" fill="#5cffff" stroke="none" stroke-width="0" stroke-linecap="round"/><path d="M240.02038,182.99548l0.6927,0.37012l-0.51613,0.13243z" fill="#57f3f3" stroke="#56eeee" stroke-width="0" stroke-linecap="round"/><path d="M239.49136,182.32108l-0.92858,0.66353l-0.02381,-6.80388l0.9762,0.78572z" data-paper-data="{&quot;index&quot;:null}" fill="#87ffff" stroke="none" stroke-width="0" stroke-linecap="round"/><path d="M236.15,200.90476v-10.7h3.8v10.7z" fill="url(#color-27)" stroke="none" stroke-width="0" stroke-linecap="butt"/><path d="M239.85,200.90476v-10.7h3.8v10.7z" data-paper-data="{&quot;index&quot;:null}" fill="url(#color-28)" stroke="none" stroke-width="0" stroke-linecap="butt"/><path d="M239.6681,183.6296l-0.75297,-0.34296l0.61375,-0.37011z" data-paper-data="{&quot;index&quot;:null}" fill="#5afbfb" stroke="#56eeee" stroke-width="0" stroke-linecap="round"/><path d="M234.78248,156.23006l-0.11111,13.44444l-2,1.88889v11.77778l4,3.77778v13.66667h-5.66667l-1.55556,-0.66667l-0.11111,-39.33333z" fill="#146e8c" stroke="#146e8c" stroke-width="0.5" stroke-linecap="round"/><path d="M229.33807,200.10308v-39.44444l3.77777,-3.33333v43.55556h-2.33334z" fill="url(#color-29)" stroke="none" stroke-width="0" stroke-linecap="butt"/><path d="M250.44918,160.77768l-0.11111,39.33333l-1.55556,0.66667h-5.66666v-13.66667l4,-3.77777v-11.77778l-2,-1.88889l-0.11111,-13.44444z" data-paper-data="{&quot;index&quot;:null}" fill="#146e8c" stroke="#146e8c" stroke-width="0.5" stroke-linecap="round"/><path d="M229.11028,192.93827l-15,-7.6l-0.1,-6.44445l15.1,0.07778z" fill="#146e8c" stroke="#146e8c" stroke-width="0.5" stroke-linecap="round"/><path d="M218.74084,188.09108l-4.92206,-2.49384l-0.10849,-6.99198l4.92439,0.02536z" fill="url(#color-30)" stroke="#ff9b00" stroke-width="0" stroke-linecap="round"/><path d="M250.6714,199.96023v-13.11111h2.88889v11.74943z" fill="url(#color-31)" stroke="none" stroke-width="0" stroke-linecap="butt"/><path d="M250.67695,178.9716l15.1,-0.07778l-0.1,6.44445l-15,7.6z" data-paper-data="{&quot;index&quot;:null}" fill="#146e8c" stroke="#146e8c" stroke-width="0.5" stroke-linecap="round"/><g fill="none" stroke-linecap="round"><path d="M212.37279,191.86466v-13.125" stroke="#b6b6b6" stroke-width="3"/><path d="M212.86798,191.88451v-13" stroke="#c2c2c2" stroke-width="2"/></g><path d="M234.96935,206.10897v-4.27273c0,0 2.53809,-0.51228 4.72727,-0.5c2.18839,0.01228 4.72727,0.5 4.72727,0.5v4.27273c0,0 -2.62239,-0.63636 -4.77273,-0.63636c-2.18066,0 -4.68182,0.63636 -4.68182,0.63636z" fill="url(#color-32)" stroke="none" stroke-width="0" stroke-linecap="butt"/><path d="M243.66665,205.54807v-3.68" fill="none" stroke="#656565" stroke-width="0.5" stroke-linecap="round"/><path d="M242.50665,201.66807v3.64" fill="none" stroke="#6a6a6a" stroke-width="0.5" stroke-linecap="round"/><path d="M241.42663,201.54807l-0.04,3.64" fill="none" stroke="#6f6f6f" stroke-width="0.5" stroke-linecap="round"/><path d="M240.30665,201.46807l-0.08,3.68" fill="none" stroke="#747474" stroke-width="0.5" stroke-linecap="round"/><path d="M239.14665,201.42807l-0.04,3.76" fill="none" stroke="#787878" stroke-width="0.5" stroke-linecap="round"/><path d="M238.02664,205.26807v-3.76" fill="none" stroke="#7b7b7b" stroke-width="0.5" stroke-linecap="round"/><path d="M236.22728,212.84849v-6.27273c0,0 1.63798,-0.45454 3.45454,-0.45454c1.93782,0 3.45455,0.45454 3.45455,0.45454v6.27273z" fill="url(#color-33)" stroke="none" stroke-width="0" stroke-linecap="butt"/><path d="M237.65,184.73334v-12.5h4.8v12.5z" fill="#0f546c" stroke="none" stroke-width="0" stroke-linecap="butt"/><g stroke="#a6caca" stroke-width="0.5" stroke-linecap="round"><path d="M241.29867,180.55771c0,0 -0.55811,1.7675 -1.24554,1.7675c-0.68743,0 -1.24554,-1.7675 -1.24554,-1.7675l0.01782,-4.93504c0,0 0.55811,-1.7675 1.24554,-1.7675c0.68744,0 1.24555,1.7675 1.24555,1.7675z" fill="url(#color-34)"/><path d="M238.94515,176.19632h2.15143" fill="none"/><path d="M240.99879,177.58406h-2.05364" fill="none"/><path d="M241.09658,179.80443h-2.24922" fill="none"/><path d="M238.76216,178.39882h2.24922" fill="none"/></g><path d="M250.52458,193.34382v-14.60714h3v13.17857z" fill="url(#color-35)" stroke="none" stroke-width="0" stroke-linecap="butt"/><path d="M237.61111,200.28307v-5.33334h4.55555v5.33334z" fill="url(#color-36)" stroke="none" stroke-width="0" stroke-linecap="butt"/><path d="M238.01111,194.18307v-2.83333h3.75555v2.83333z" fill="url(#color-37)" stroke="none" stroke-width="0" stroke-linecap="butt"/><path d="M239.29167,191.52778v2.41667" fill="none" stroke="#9e9e9e" stroke-width="0.5" stroke-linecap="round"/><path d="M240.54167,191.52778v2.41667" fill="none" stroke="#9e9e9e" stroke-width="0.5" stroke-linecap="round"/><path d="M261.26088,178.63062l4.9244,-0.02536l-0.1085,6.99199l-4.92206,2.49384z" data-paper-data="{&quot;index&quot;:null}" fill="url(#color-38)" stroke="#ff9b00" stroke-width="0" stroke-linecap="round"/><path d="M234.84375,156.04167l-0.25,13.53125l-1.96875,1.96875v9.4375l-3.3125,-3.3125v-17z" fill="url(#color-39)" stroke="url(#color-40)" stroke-width="0.5" stroke-linecap="round"/><path d="M250.46875,160.54167v17l-3.3125,3.3125v-9.4375l-1.96875,-1.96875l-0.25,-13.53125z" data-paper-data="{&quot;index&quot;:null}" fill="url(#color-41)" stroke="url(#color-42)" stroke-width="0.5" stroke-linecap="round"/><path d="M234.05,187.03334v-2.9l2.9,2.9v2.9z" fill="url(#color-43)" stroke="url(#color-44)" stroke-width="0" stroke-linecap="butt"/><path d="M242.85,189.73334v-2.9l2.9,-2.9v2.9z" data-paper-data="{&quot;index&quot;:null}" fill="url(#color-45)" stroke="url(#color-46)" stroke-width="0" stroke-linecap="butt"/><path d="M234.8125,155.79167v7.75l-5.625,-1.625v-1.375z" fill="url(#color-47)" stroke="url(#color-48)" stroke-width="0.5" stroke-linecap="round"/><path d="M250.5625,160.41667v1.54166l-5.625,1.45834v-7.75z" data-paper-data="{&quot;index&quot;:null}" fill="url(#color-49)" stroke="url(#color-50)" stroke-width="0.5" stroke-linecap="round"/></g></g></svg>