<svg version="1.1" xmlns="http://www.w3.org/2000/svg" xmlns:xlink="http://www.w3.org/1999/xlink" width="116.66666" height="63.6" viewBox="0,0,116.66666,63.6"><defs><radialGradient cx="229.95" cy="169.81666" r="21.6" gradientUnits="userSpaceOnUse" id="color-1"><stop offset="0" stop-color="#171717"/><stop offset="1" stop-color="#171717" stop-opacity="0"/></radialGradient><radialGradient cx="245.95" cy="190.21666" r="21.6" gradientUnits="userSpaceOnUse" id="color-2"><stop offset="0" stop-color="#171717"/><stop offset="1" stop-color="#171717" stop-opacity="0"/></radialGradient><radialGradient cx="247.35" cy="170.21666" r="21.6" gradientUnits="userSpaceOnUse" id="color-3"><stop offset="0" stop-color="#171717"/><stop offset="1" stop-color="#171717" stop-opacity="0"/></radialGradient><radialGradient cx="228.55" cy="189.61666" r="21.6" gradientUnits="userSpaceOnUse" id="color-4"><stop offset="0" stop-color="#171717"/><stop offset="1" stop-color="#171717" stop-opacity="0"/></radialGradient><linearGradient x1="212.27083" y1="179.69927" x2="217.79167" y2="179.69927" gradientUnits="userSpaceOnUse" id="color-5"><stop offset="0" stop-color="#666666" stop-opacity="0"/><stop offset="1" stop-color="#666666"/></linearGradient><linearGradient x1="254.33337" y1="180.01666" x2="261.53334" y2="180.01666" gradientUnits="userSpaceOnUse" id="color-6"><stop offset="0" stop-color="#666666"/><stop offset="1" stop-color="#666666" stop-opacity="0"/></linearGradient><linearGradient x1="308.98337" y1="179.81666" x2="319.78334" y2="179.81666" gradientUnits="userSpaceOnUse" id="color-7"><stop offset="0" stop-color="#101010"/><stop offset="1" stop-color="#4b4b4b"/></linearGradient><radialGradient cx="217.71667" cy="198.81666" r="10" gradientUnits="userSpaceOnUse" id="color-8"><stop offset="0" stop-color="#aeaeae"/><stop offset="1" stop-color="#c1c1c1"/></radialGradient><radialGradient cx="217.71667" cy="198.81666" r="10" gradientUnits="userSpaceOnUse" id="color-9"><stop offset="0" stop-color="#c2c2c2"/><stop offset="1" stop-color="#aeaeae"/></radialGradient><radialGradient cx="217.71667" cy="160.61666" r="10" gradientUnits="userSpaceOnUse" id="color-10"><stop offset="0" stop-color="#c1c1c1"/><stop offset="1" stop-color="#a7a7a7"/></radialGradient></defs><g transform="translate(-203.71667,-148.21666)"><g data-paper-data="{&quot;isPaintingLayer&quot;:true}" fill-rule="nonzero" stroke-linejoin="miter" stroke-miterlimit="10" stroke-dasharray="" stroke-dashoffset="0" style="mix-blend-mode: normal"><g><path d="M229.95,191.41666c-11.92935,0 -21.6,-9.67065 -21.6,-21.6c0,-11.92935 9.67065,-21.6 21.6,-21.6c11.92935,0 21.6,9.67065 21.6,21.6c0,11.92935 -9.67065,21.6 -21.6,21.6z" fill="url(#color-1)" stroke="none" stroke-width="NaN" stroke-linecap="butt"/><path d="M245.95,211.81666c-11.92935,0 -21.6,-9.67065 -21.6,-21.6c0,-11.92935 9.67065,-21.6 21.6,-21.6c11.92935,0 21.6,9.67065 21.6,21.6c0,11.92935 -9.67065,21.6 -21.6,21.6z" fill="url(#color-2)" stroke="none" stroke-width="NaN" stroke-linecap="butt"/><path d="M247.35,191.81666c-11.92935,0 -21.6,-9.67065 -21.6,-21.6c0,-11.92935 9.67065,-21.6 21.6,-21.6c11.92935,0 21.6,9.67065 21.6,21.6c0,11.92935 -9.67065,21.6 -21.6,21.6z" fill="url(#color-3)" stroke="none" stroke-width="NaN" stroke-linecap="butt"/><path d="M228.55,211.21666c-11.92935,0 -21.6,-9.67065 -21.6,-21.6c0,-11.92935 9.67065,-21.6 21.6,-21.6c11.92935,0 21.6,9.67065 21.6,21.6c0,11.92935 -9.67065,21.6 -21.6,21.6z" fill="url(#color-4)" stroke="none" stroke-width="NaN" stroke-linecap="butt"/><g fill="#717171" stroke="none" stroke-width="0" stroke-linecap="butt"><path d="M288.76669,192.67499h-15.25v-10.46532l15.25,5.45376z"/><path d="M282.86393,190.75881h-9.33334v-23.58381h9.33334z"/><path d="M288.76669,172.18655l-15.25,5.45376v-10.46532h15.25z"/></g><path d="M272.91667,196.86099h-32.89603c0,0 0,0.18453 0,-0.67389c0,-3.30573 0,-25.84909 0,-32.19718c0,-1.10553 0,-0.84861 0,-0.84861h32.89603c0,0 0,-0.25696 0,0.84861c0,6.33115 0,28.7774 0,32.19718c0,0.93192 0,0.67389 0,0.67389z" fill="#717171" stroke="#717171" stroke-width="5" stroke-linecap="butt"/><path d="M264.25003,196.86099h-32.89603c0,0 0,0.18453 0,-0.67389c0,-3.30573 0,-25.84909 0,-32.19718c0,-1.10553 0,-0.84861 0,-0.84861h32.89603c0,0 0,-0.25696 0,0.84861c0,6.33115 0,28.7774 0,32.19718c0,0.93192 0,0.67389 0,0.67389z" fill="#868686" stroke="#868686" stroke-width="5" stroke-linecap="butt"/><path d="M219.11666,195.09514l-10.6,-8.11782v-14.27617l10.6,-8.11782z" fill="#868686" stroke="#000000" stroke-width="0" stroke-linecap="round"/><path d="M217.79167,194.35715l-5.52083,-4.60604v-20.10369l5.52083,-3.96984z" fill="url(#color-5)" stroke="none" stroke-width="0" stroke-linecap="butt"/><path d="M261.53334,199.21666h-7.2v-38.4h7.2z" fill="url(#color-6)" stroke="none" stroke-width="0" stroke-linecap="butt"/><path d="M253.91667,202.51666h-35.93333c0,0 0,0.24645 0,-0.9c0,-4.41487 0,-34.522 0,-43c0,-1.47647 0,-1.13333 0,-1.13333h35.93333c0,0 0,-0.34318 0,1.13333c0,8.45538 0,38.43282 0,43c0,1.24459 0,0.9 0,0.9z" fill="#868686" stroke="#868686" stroke-width="5" stroke-linecap="butt"/><g stroke-linecap="butt"><g><path d="M313.2381,187.71179h-39.21115c0,0 0,0.0862 0,-0.31479c0,-1.54415 0,-12.07447 0,-15.03975c0,-0.51641 0,-0.3964 0,-0.3964h39.21115c0,0 0,-0.12003 0,0.3964c0,2.95737 0,13.44233 0,15.03975c0,0.43532 0,0.31479 0,0.31479z" fill="#4b4b4b" stroke="#4b4b4b" stroke-width="5"/><path d="M316.41667,185.7089h-45.53333v-3.36947h45.53333z" fill="#555555" stroke="none" stroke-width="0"/><path d="M316.41667,177.52591h-45.53333v-3.36947h45.53333z" fill="#555555" stroke="none" stroke-width="0"/></g><path d="M314.38333,190.21666c-2.98234,0 -5.4,-4.65624 -5.4,-10.4c0,-5.74376 2.41766,-10.4 5.4,-10.4c2.98234,0 5.4,4.65624 5.4,10.4c0,5.74376 -2.41766,10.4 -5.4,10.4z" fill="url(#color-7)" stroke="none" stroke-width="NaN"/><path d="M314.55448,189.41666c-2.6669,0 -4.82884,-4.34284 -4.82884,-9.7c0,-5.35716 2.16194,-9.7 4.82884,-9.7c2.6669,0 4.82885,4.34284 4.82885,9.7c0,5.35716 -2.16195,9.7 -4.82885,9.7z" fill="none" stroke="#565656" stroke-width="2"/></g><path d="M256.18333,199.59166h-40.5v-7.5h40.5z" fill="#555555" stroke="none" stroke-width="0" stroke-linecap="butt"/><path d="M256.18333,167.34166h-40.5v-7.5h40.5z" fill="#555555" stroke="none" stroke-width="0" stroke-linecap="butt"/><g fill="#868686" stroke="none" stroke-width="0" stroke-linecap="butt"><path d="M284.64169,192.67499h-15.25v-10.46532l15.25,5.45376z"/><path d="M278.73893,190.75881h-9.33334v-23.58381h9.33334z"/><path d="M284.64169,172.18655l-15.25,5.45376v-10.46532h15.25z"/></g><path d="M256.16138,190.09166h-40.54945v-0.85714h40.54945z" fill="#00ffff" stroke="none" stroke-width="0" stroke-linecap="butt"/><path d="M256.16139,170.21666h-40.54945v-0.85715h40.54945z" fill="#00ffff" stroke="none" stroke-width="0" stroke-linecap="butt"/><path d="M227.71667,198.81666h-20" fill="url(#color-8)" stroke="url(#color-9)" stroke-width="8" stroke-linecap="round"/><path d="M227.71667,160.61666h-20" fill="none" stroke="url(#color-10)" stroke-width="8" stroke-linecap="round"/></g></g></g></svg>