<svg version="1.1" xmlns="http://www.w3.org/2000/svg" xmlns:xlink="http://www.w3.org/1999/xlink" width="162.25" height="142.79319" viewBox="0,0,162.25,142.79319"><g transform="translate(-158.875,-108.6034)"><g data-paper-data="{&quot;isPaintingLayer&quot;:true}" fill-rule="nonzero" stroke-linejoin="miter" stroke-miterlimit="10" stroke-dasharray="" stroke-dashoffset="0" style="mix-blend-mode: normal"><path d="M158.875,251.3966l162.25,-142.79319" fill="none" stroke="#000000" stroke-width="0" stroke-linecap="round"/><path d="M242.10338,190.67172c-0.36302,0 -0.68333,-0.13524 -0.96093,-0.40573c-0.27048,-0.2776 -0.40573,-0.60859 -0.40573,-0.99296v-16.66684l-1.9966,0.84349c-0.30607,0.12812 -0.59791,0.19219 -0.87552,0.19219c-0.39861,0 -0.7296,-0.12812 -0.99296,-0.38437c-0.26337,-0.25625 -0.39505,-0.58368 -0.39505,-0.98229c0,-0.29184 0.07118,-0.55521 0.21354,-0.7901c0.14948,-0.23489 0.37726,-0.40929 0.68333,-0.52317l4.26013,-1.52682c0.09253,-0.03559 0.18507,-0.0605 0.2776,-0.07474c0.09253,-0.02135 0.17439,-0.03203 0.24557,-0.03203c0.41996,0 0.75095,0.13168 0.99296,0.39505c0.24913,0.26337 0.3737,0.60503 0.3737,1.02499v18.52465c0,0.38437 -0.1388,0.71536 -0.4164,0.99296c-0.27048,0.27048 -0.60503,0.40573 -1.00364,0.40573z" fill="#ffffff" stroke="#f3f3f3" stroke-width="1" stroke-linecap="square"/></g></g></svg>