<svg version="1.1" xmlns="http://www.w3.org/2000/svg" xmlns:xlink="http://www.w3.org/1999/xlink" width="41.93967" height="39.55225" viewBox="0,0,41.93967,39.55225"><defs><linearGradient x1="174.26639" y1="236.1471" x2="169.76901" y2="258.07157" gradientUnits="userSpaceOnUse" id="color-1"><stop offset="0" stop-color="#000000"/><stop offset="1" stop-color="#000000" stop-opacity="0"/></linearGradient><linearGradient x1="177.91667" y1="241.63889" x2="187.41667" y2="241.63889" gradientUnits="userSpaceOnUse" id="color-2"><stop offset="0" stop-color="#c4c8c8" stop-opacity="0"/><stop offset="1" stop-color="#c4c8c8"/></linearGradient></defs><g transform="translate(-146.41395,-226.19241)"><g data-paper-data="{&quot;isPaintingLayer&quot;:true}" fill-rule="nonzero" stroke-linejoin="miter" stroke-miterlimit="10" stroke-dasharray="" stroke-dashoffset="0" style="mix-blend-mode: normal"><g><g><path d="M175.26347,262.86382c0,0 -0.00435,-3.96 0.49717,-6.4049c0.71378,-3.4797 3.25757,-11.89969 3.25757,-11.89969" fill="none" stroke="#f7fbfb" stroke-width="5.5" stroke-linecap="round"/><path d="M172.65077,243.25309c0,0 -0.98085,9.75831 -1.69518,13.24069c-0.44401,2.16454 -1.85857,4.08431 -1.85857,4.08431" fill="none" stroke="#f7fbfb" stroke-width="5.5" stroke-linecap="round"/><path d="M162.40802,260.83931c0,0 -0.14765,-3.26143 0.29638,-5.42607c0.71434,-3.48239 3.57897,-13.46627 3.57897,-13.46627" fill="none" stroke="#f7fbfb" stroke-width="5.5" stroke-linecap="round"/><path d="M164.62481,242.55139l2.67167,0.54803l-2.26061,11.02053l-2.67167,-0.54803z" fill="#00ddff" stroke="none" stroke-width="0" stroke-linecap="butt"/><path d="M177.98304,245.29152l2.67159,0.54802l-2.26061,11.02053l-2.67159,-0.54802z" fill="#00ddff" stroke="none" stroke-width="0" stroke-linecap="butt"/><path d="M175.34532,265.65838c-1.36486,-0.27997 -2.33775,-1.15772 -2.17305,-1.9606c0.16468,-0.8028 1.4046,-1.2268 2.76945,-0.94682c1.36486,0.27997 2.3378,1.1578 2.17311,1.96068c-0.16468,0.8028 -1.40465,1.22672 -2.7695,0.94674z" fill="#797c7c" stroke="none" stroke-width="0" stroke-linecap="butt"/><path d="M168.76617,263.19248c-1.36486,-0.27997 -2.33783,-1.15773 -2.17313,-1.96061c0.16468,-0.8028 1.40467,-1.22678 2.76953,-0.94681c1.36486,0.27997 2.3378,1.1578 2.1731,1.96068c-0.16468,0.8028 -1.40465,1.22672 -2.76949,0.94674z" fill="#797c7c" stroke="none" stroke-width="0" stroke-linecap="butt"/><path d="M161.87245,263.54087c-1.36486,-0.27997 -2.33783,-1.15774 -2.17313,-1.96062c0.16468,-0.8028 1.40467,-1.22678 2.76953,-0.94681c1.36486,0.27997 2.3378,1.1578 2.17309,1.96069c-0.16468,0.8028 -1.40465,1.22672 -2.76949,0.94674z" fill="#797c7c" stroke="none" stroke-width="0" stroke-linecap="butt"/><path d="M161.78287,246.34666l19.94187,4.09063l-1.98476,9.67956l-19.94187,-4.09063z" fill="url(#color-1)" stroke="none" stroke-width="NaN" stroke-linecap="butt"/></g><path d="M164.00704,258.54442c0.2259,0.20699 0.37308,0.33105 0.19476,0.00805zM163.4304,258.06968c0.00029,-0.03791 0.00455,-0.07875 0.01358,-0.12273c0.1005,-0.4898 0.5903,-0.38929 0.5903,-0.38929l0.80698,0.22598c1.19406,3.11994 -2.3858,0.8763 -4.18363,1.09663c0,0 -0.49644,0.05954 -0.55598,-0.4369c-0.05954,-0.49644 0.4369,-0.55598 0.4369,-0.55598c0.93328,-0.10978 1.92927,-0.13645 2.83886,0.15926c0.01628,0.00529 0.03403,0.01309 0.05301,0.02304z" fill="#dee3e3" stroke="none" stroke-width="0.5" stroke-linecap="butt"/><path d="M172.1029,258.27042c0.12915,0.48303 -0.35388,0.61218 -0.35388,0.61218l-0.5399,0.13203c-0.78036,0.02995 -1.45991,-0.08724 -2.2355,-0.05037c0,0 -0.49955,0.02129 -0.52084,-0.47826c-0.02129,-0.49955 0.47826,-0.52084 0.47826,-0.52084c0.78036,-0.02995 1.45991,0.08724 2.2355,0.05037l0.32418,-0.099c0,0 0.48303,-0.12915 0.61218,0.35388z" fill="#dee3e3" stroke="none" stroke-width="0.5" stroke-linecap="butt"/><path d="M176.64325,261.77826c-0.30455,-0.06249 -0.38088,-0.27549 -0.39505,-0.42767c-1.32392,-0.86295 -1.31246,-1.69379 -0.56794,-3.26248c0,0 0.21629,-0.4508 0.66709,-0.2345c0.4508,0.21629 0.2345,0.66709 0.2345,0.66709c-0.62192,1.28006 -0.68224,1.48311 0.45233,2.13897l0.19936,0.7293c0,0 -0.1005,0.4898 -0.5903,0.38929z" fill="#dee3e3" stroke="none" stroke-width="0.5" stroke-linecap="butt"/></g><path d="M170.13677,256.62344c0,0 -3.72276,-4.02001 -6.17752,-5.48299c-4.18065,-2.49156 -16.61761,-8.10233 -16.61761,-8.10233l-0.92769,-15.3488c0,0 5.49308,1.2935 9.0888,1.25608c3.50559,-0.03649 16.60427,-2.29893 25.03412,-2.6167c2.58636,-0.0975 5.06698,-0.13709 7.39781,-0.13628c0.36376,2.1655 0.54874,4.35297 0.31533,6.57389c-0.44646,4.24811 -1.09177,8.47315 -1.58945,12.71556c-0.43452,3.70405 -0.57217,7.65733 -0.11891,11.47936z" fill="#f7fbfb" stroke="#8f8f8f" stroke-width="0" stroke-linecap="round"/><path d="M180.50004,245.3823c-3.42449,0 -10.3437,1 -10.3437,1l-15,-10.25h32.70417c-0.38794,3.11786 -0.83388,6.22902 -1.19995,9.34958c-0.00368,0.03133 -0.00733,0.06268 -0.01096,0.09404c-2.38637,-0.11414 -4.6032,-0.19362 -6.14956,-0.19362z" data-paper-data="{&quot;index&quot;:null}" fill="#e5e9e9" stroke="none" stroke-width="0" stroke-linecap="butt"/><path d="M164.5712,246.18791c-0.92848,2.32119 -3.24967,1.39272 -3.24967,1.39272l-2.43142,-0.97373c-3.16359,-1.08606 -5.00583,-2.37175 -7.64011,-4.34746c0,0 -2,-1.5 -0.5,-3.5c1.5,-2 3.5,-0.5 3.5,-0.5c2.29062,1.71796 3.59766,2.76545 6.35989,3.65254l2.56858,1.02627c0,0 2.32119,0.92848 1.39272,3.24967z" fill="#eff4f4" stroke="none" stroke-width="0.5" stroke-linecap="butt"/><path d="M166.58035,230.35498c2.69193,-0.83096 5.05945,-2.4868 7.6543,-3.58395c3.037,-1.2841 12.02241,2.2488 6.85387,5.82702c-1.40234,0.97085 -4.21647,-1.01159 -5.62558,-0.90134c-4.37813,0.34256 -6.24809,3.61327 -11.28641,3.52551c-2.56732,-0.04472 -6.42143,1.88393 -7.69537,-0.34546c-0.73685,-0.43488 -1.23117,-1.23698 -1.23117,-2.15454c0,-1.38071 1.11929,-2.5 2.5,-2.5c0.21682,0 0.42719,0.0276 0.6278,0.07948c2.41305,-0.43989 5.30949,0.94633 8.20256,0.05328z" fill="#eff4f4" stroke="none" stroke-width="0.5" stroke-linecap="butt"/><path d="M174.94146,251.57415c1.29055,1.01778 5.76903,-0.18273 3.71128,3.93278c-2.19506,4.39011 -8.34766,-1.17388 -9.9914,-2.54039c-0.13674,-0.11367 -2.24192,-1.68107 -2.11845,-2.29117c-0.08189,-0.2473 -0.12622,-0.51171 -0.12622,-0.78648c0,-1.38071 1.11929,-2.5 2.5,-2.5c0.81766,-0.67781 3.75987,2.39905 6.02479,4.18526z" fill="#eff4f4" stroke="none" stroke-width="0.5" stroke-linecap="butt"/><path d="M177.91667,256.88889v-30.5h9.5v30.5z" fill="url(#color-2)" stroke="none" stroke-width="none" stroke-linecap="butt"/></g></g></svg>