<svg version="1.1" xmlns="http://www.w3.org/2000/svg" xmlns:xlink="http://www.w3.org/1999/xlink" width="53.46055" height="73.59801" viewBox="0,0,53.46055,73.59801"><defs><radialGradient cx="242.81804" cy="205.62799" r="12.35459" gradientUnits="userSpaceOnUse" id="color-1"><stop offset="0" stop-color="#fcec00"/><stop offset="1" stop-color="#fcec00" stop-opacity="0"/></radialGradient><linearGradient x1="242.08873" y1="204.32198" x2="242.08873" y2="221.18561" gradientUnits="userSpaceOnUse" id="color-2"><stop offset="0" stop-color="#ffffff"/><stop offset="1" stop-color="#ffffff" stop-opacity="0"/></linearGradient><radialGradient cx="241.85876" cy="208.21143" r="8.89813" gradientUnits="userSpaceOnUse" id="color-3"><stop offset="0" stop-color="#f5eb75"/><stop offset="1" stop-color="#f5eb75" stop-opacity="0"/></radialGradient><linearGradient x1="242.67923" y1="125.00034" x2="242.67923" y2="219.02639" gradientUnits="userSpaceOnUse" id="color-4"><stop offset="0" stop-color="#a300f2"/><stop offset="1" stop-color="#a300f2" stop-opacity="0"/></linearGradient><linearGradient x1="242.91695" y1="96.98158" x2="242.91695" y2="225.00219" gradientUnits="userSpaceOnUse" id="color-5"><stop offset="0" stop-color="#f1f1f1"/><stop offset="1" stop-color="#f1f1f1" stop-opacity="0"/></linearGradient><linearGradient x1="241.90866" y1="204.61823" x2="241.90866" y2="212.52599" gradientUnits="userSpaceOnUse" id="color-6"><stop offset="0" stop-color="#ff4f00"/><stop offset="1" stop-color="#ff4f00" stop-opacity="0"/></linearGradient><linearGradient x1="241.97665" y1="204.86497" x2="241.97665" y2="210.2108" gradientUnits="userSpaceOnUse" id="color-7"><stop offset="0" stop-color="#ffd400"/><stop offset="1" stop-color="#ffd400" stop-opacity="0"/></linearGradient><linearGradient x1="241.97894" y1="204.50691" x2="241.97894" y2="213.38923" gradientUnits="userSpaceOnUse" id="color-8"><stop offset="0" stop-color="#ffee00"/><stop offset="1" stop-color="#ffee00" stop-opacity="0"/></linearGradient><linearGradient x1="242.05146" y1="204.43396" x2="242.05146" y2="208.32134" gradientUnits="userSpaceOnUse" id="color-9"><stop offset="0" stop-color="#ffee00"/><stop offset="1" stop-color="#ffee00" stop-opacity="0"/></linearGradient><linearGradient x1="240.00869" y1="204.50691" x2="240.00869" y2="208.39429" gradientUnits="userSpaceOnUse" id="color-10"><stop offset="0" stop-color="#ffee00"/><stop offset="1" stop-color="#ffee00" stop-opacity="0"/></linearGradient><linearGradient x1="244.09422" y1="204.50691" x2="244.09422" y2="208.39429" gradientUnits="userSpaceOnUse" id="color-11"><stop offset="0" stop-color="#ffee00"/><stop offset="1" stop-color="#ffee00" stop-opacity="0"/></linearGradient><radialGradient cx="242.01933" cy="208.44531" r="6.32236" gradientUnits="userSpaceOnUse" id="color-12"><stop offset="0" stop-color="#feea00"/><stop offset="1" stop-color="#feea00" stop-opacity="0"/></radialGradient><radialGradient cx="241.85452" cy="207.64309" r="6.32236" gradientUnits="userSpaceOnUse" id="color-13"><stop offset="0" stop-color="#feea00"/><stop offset="1" stop-color="#feea00" stop-opacity="0"/></radialGradient><linearGradient x1="246.08091" y1="206.17626" x2="238.19131" y2="206.17626" gradientUnits="userSpaceOnUse" id="color-14"><stop offset="0" stop-color="#5f5f5f"/><stop offset="1" stop-color="#4c4c4c"/></linearGradient><linearGradient x1="246.08091" y1="206.17626" x2="238.19131" y2="206.17626" gradientUnits="userSpaceOnUse" id="color-15"><stop offset="0" stop-color="#949494"/><stop offset="1" stop-color="#757575"/></linearGradient><linearGradient x1="245.83762" y1="204.37462" x2="243.27791" y2="204.37462" gradientUnits="userSpaceOnUse" id="color-16"><stop offset="0" stop-color="#4c4c4c"/><stop offset="1" stop-color="#4c4c4c" stop-opacity="0"/></linearGradient><linearGradient x1="238.43516" y1="204.37461" x2="240.99487" y2="204.37461" gradientUnits="userSpaceOnUse" id="color-17"><stop offset="0" stop-color="#5f5f5f"/><stop offset="1" stop-color="#5f5f5f" stop-opacity="0"/></linearGradient><linearGradient x1="246.38523" y1="163.38445" x2="239.00176" y2="163.38445" gradientUnits="userSpaceOnUse" id="color-18"><stop offset="0" stop-color="#d40000"/><stop offset="1" stop-color="#a30000"/></linearGradient><linearGradient x1="244.39161" y1="168.02611" x2="239.3458" y2="168.02611" gradientUnits="userSpaceOnUse" id="color-19"><stop offset="0" stop-color="#5f5f5f"/><stop offset="1" stop-color="#a8a8a8"/></linearGradient><linearGradient x1="241.83013" y1="161.70348" x2="241.83013" y2="162.63896" gradientUnits="userSpaceOnUse" id="color-20"><stop offset="0" stop-color="#7a7a7a"/><stop offset="1" stop-color="#646464"/></linearGradient><linearGradient x1="242.6942" y1="165.33023" x2="242.51954" y2="165.33023" gradientUnits="userSpaceOnUse" id="color-21"><stop offset="0" stop-color="#00eeec"/><stop offset="1" stop-color="#1cfff4"/></linearGradient><linearGradient x1="251.30905" y1="180.9251" x2="248.00986" y2="180.9251" gradientUnits="userSpaceOnUse" id="color-22"><stop offset="0" stop-color="#dedede"/><stop offset="1" stop-color="#dedede" stop-opacity="0"/></linearGradient><linearGradient x1="246.26615" y1="204.12797" x2="238.00937" y2="204.12797" gradientUnits="userSpaceOnUse" id="color-23"><stop offset="0" stop-color="#888888"/><stop offset="1" stop-color="#696969"/></linearGradient><linearGradient x1="232.6504" y1="185.70287" x2="230.1275" y2="185.70287" gradientUnits="userSpaceOnUse" id="color-24"><stop offset="0" stop-color="#dd0000"/><stop offset="1" stop-color="#dd0000" stop-opacity="0"/></linearGradient><linearGradient x1="232.68158" y1="196.20949" x2="230.06165" y2="196.20949" gradientUnits="userSpaceOnUse" id="color-25"><stop offset="0" stop-color="#dfdfdf"/><stop offset="1" stop-color="#dfdfdf" stop-opacity="0"/></linearGradient><linearGradient x1="242.191" y1="206.57577" x2="242.191" y2="212.8485" gradientUnits="userSpaceOnUse" id="color-26"><stop offset="0" stop-color="#fde704"/><stop offset="1" stop-color="#fde704" stop-opacity="0"/></linearGradient><linearGradient x1="240.57682" y1="178.09019" x2="243.08573" y2="178.09019" gradientUnits="userSpaceOnUse" id="color-27"><stop offset="0" stop-color="#c7ffff"/><stop offset="1" stop-color="#91f5f5"/></linearGradient><linearGradient x1="240.07639" y1="192.79167" x2="243.70139" y2="192.79167" gradientUnits="userSpaceOnUse" id="color-28"><stop offset="0" stop-color="#bf0000"/><stop offset="1" stop-color="#bf0000"/></linearGradient><linearGradient x1="240.07639" y1="198.47917" x2="243.70139" y2="198.47917" gradientUnits="userSpaceOnUse" id="color-29"><stop offset="0" stop-color="#bf0000"/><stop offset="1" stop-color="#bf0000"/></linearGradient></defs><g transform="translate(-213.70615,-152.80274)"><g data-paper-data="{&quot;isPaintingLayer&quot;:true}" fill-rule="nonzero" stroke-linejoin="miter" stroke-miterlimit="10" stroke-dasharray="" stroke-dashoffset="0" style="mix-blend-mode: normal"><path d="M255.0079,205.62799c0,6.82325 -5.45758,12.35459 -12.18986,12.35459c-6.73227,0 -12.18987,-5.53134 -12.18987,-12.35459c0,-6.82325 5.45759,-12.35459 12.18987,-12.35459c6.73227,0 12.18986,5.53134 12.18986,12.35459z" fill="url(#color-1)" stroke="none" stroke-width="0" stroke-linecap="butt"/><g data-paper-data="{&quot;index&quot;:null}" stroke-width="0"><path d="M244.58873,204.32198l-2.5,16.86364l-2.5,-16.86364z" fill="url(#color-2)" stroke="#000000" stroke-linecap="round"/><path d="M241.85876,200.33697c4.31079,0 7.80538,3.52552 7.80538,7.87446c0,4.34894 -3.49458,7.87446 -7.80538,7.87446c-4.3108,0 -7.80538,-3.52552 -7.80538,-7.87446c0,-4.34894 3.49458,-7.87446 7.80538,-7.87446z" fill="url(#color-3)" stroke="none" stroke-linecap="butt"/><g stroke="#000000" stroke-linecap="round"><path d="M244.24142,205.12112l-2.35162,14.93246l-1.99752,-14.93246z" fill="url(#color-4)"/><path d="M245.04393,206.06954l-3.20183,20.33121l-2.71971,-20.33121z" fill="url(#color-5)"/><path d="M243.08019,204.61823c0,0 1.85822,0.46537 1.8305,2.41626c-0.06512,4.58168 -2.70914,5.49149 -2.70914,5.49149c0,0 -3.13397,-1.02334 -3.2949,-5.49149c-0.06733,-1.86924 1.90371,-2.41626 1.90371,-2.41626z" fill="url(#color-6)"/><path d="M242.76863,204.86497c0,0 1.2562,0.3146 1.23746,1.63345c-0.04402,3.09733 -1.83145,3.71239 -1.83145,3.71239c0,0 -2.11864,-0.69182 -2.22743,-3.71239c-0.04551,-1.26365 1.28696,-1.63345 1.28696,-1.63345z" fill="url(#color-7)"/><path d="M243.29484,204.50691c0,0 2.08723,0.52272 2.05609,2.71404c-0.07315,5.14633 -3.04302,6.16828 -3.04302,6.16828c0,0 -3.52021,-1.14947 -3.70096,-6.16828c-0.07562,-2.0996 2.13833,-2.71404 2.13833,-2.71404z" fill="url(#color-8)"/><path d="M242.62737,204.43396c0,0 0.91349,0.22877 0.89985,1.18781c-0.03201,2.25231 -1.33179,2.69957 -1.33179,2.69957c0,0 -1.54063,-0.50307 -1.61974,-2.69957c-0.03309,-0.9189 0.93585,-1.18781 0.93585,-1.18781z" fill="url(#color-9)"/><path d="M240.5846,204.50691c0,0 0.91349,0.22877 0.89986,1.18781c-0.03201,2.25231 -1.33179,2.69957 -1.33179,2.69957c0,0 -1.54064,-0.50307 -1.61975,-2.69957c-0.0331,-0.91889 0.93585,-1.18781 0.93585,-1.18781z" fill="url(#color-10)"/><path d="M244.67014,204.50691c0,0 0.91349,0.22877 0.89986,1.18781c-0.03201,2.25231 -1.33179,2.69957 -1.33179,2.69957c0,0 -1.54064,-0.50307 -1.61975,-2.69957c-0.0331,-0.91889 0.93585,-1.18781 0.93585,-1.18781z" fill="url(#color-11)"/></g><path d="M242.01933,202.8503c3.06294,0 5.54593,2.50497 5.54593,5.59501c0,3.09004 -2.483,5.59501 -5.54593,5.59501c-3.06294,0 -5.54593,-2.50497 -5.54593,-5.59501c0,-3.09004 2.483,-5.59501 5.54593,-5.59501z" fill="url(#color-12)" stroke="none" stroke-linecap="butt"/><path d="M241.85453,202.04808c3.06294,0 5.54593,2.50497 5.54593,5.59501c0,3.09004 -2.48299,5.59501 -5.54593,5.59501c-3.06294,0 -5.54593,-2.50497 -5.54593,-5.59501c0,-3.09003 2.48299,-5.59501 5.54593,-5.59501z" fill="url(#color-13)" stroke="none" stroke-linecap="butt"/></g><path d="M229.87282,181.29167l1,18.16666l-14.66667,-7.66666v-10.66666z" data-paper-data="{&quot;index&quot;:null}" fill="none" stroke="#bf0000" stroke-width="5" stroke-linecap="round"/><g data-paper-data="{&quot;index&quot;:null}" fill="#cecece"><path d="M237.12034,156.52829v-3.54545h2.90909v3.54545z" stroke="none" stroke-width="0" stroke-linecap="butt"/><path d="M243.03774,199.72876l-10.10296,-0.0566l-2.5722,-0.71141l-0.18805,-37.7619l5.71689,-5.42857v15.95287c0,0 0.69143,1.79051 2.55923,1.79051c1.90103,0 2.59992,-1.92095 2.59992,-1.92095v-15.66277l5.57746,5.42857l0.15778,37.58147z" stroke="#cecece" stroke-width="2.5" stroke-linecap="round"/></g><path d="M242.13611,205.33535c2.17866,0 3.9448,0.37649 3.9448,0.84091c0,0.46442 -1.76615,0.84091 -3.9448,0.84091c-2.17866,0 -3.9448,-0.37649 -3.9448,-0.84091c0,-0.46442 1.76615,-0.84091 3.9448,-0.84091z" data-paper-data="{&quot;index&quot;:null}" fill="url(#color-14)" stroke="url(#color-15)" stroke-width="0.5" stroke-linecap="butt"/><path d="M245.83763,206.23669c0,0 -0.7256,0.27881 -1.13312,0.35477c-0.4513,0.08412 -1.45671,0.12799 -1.45671,0.12799l0.03011,-4.2069h2.55971v3.72414z" data-paper-data="{&quot;index&quot;:null}" fill="url(#color-16)" stroke="none" stroke-width="0" stroke-linecap="butt"/><path d="M238.43516,206.23669v-3.72414h2.55972l0.03011,4.2069c0,0 -1.00542,-0.04386 -1.45671,-0.12799c-0.40751,-0.07597 -1.13312,-0.35477 -1.13312,-0.35477z" data-paper-data="{&quot;index&quot;:null}" fill="url(#color-17)" stroke="none" stroke-width="0" stroke-linecap="butt"/><path d="M246.38524,173.47537l-7.38347,-1.36364l1.19089,-16.90909c0,0 0.35493,0.18974 0.71453,0.09091c0.35959,-0.09882 0.689,-0.18471 1.27026,-0.63636c0.58127,-0.45165 1.34967,-1.36364 1.34967,-1.36364z" data-paper-data="{&quot;index&quot;:null}" fill="url(#color-18)" stroke="#ff0000" stroke-width="0" stroke-linecap="round"/><path d="M239.34579,173.9251v-11.79798h5.04582v11.79798z" data-paper-data="{&quot;index&quot;:null}" fill="url(#color-19)" stroke="none" stroke-width="0" stroke-linecap="butt"/><path d="M241.83015,161.70346c1.0389,0 1.88109,0.20942 1.88109,0.46775c0,0.25833 -0.8422,0.46774 -1.88109,0.46774c-1.03889,0 -1.88108,-0.20941 -1.88108,-0.46774c0,-0.25833 0.84219,-0.46775 1.88108,-0.46775z" data-paper-data="{&quot;index&quot;:null}" fill="url(#color-20)" stroke="#7e7e7e" stroke-width="0.5" stroke-linecap="butt"/><path d="M264.28072,194.86917v-1.9375h0.92789v1.9375z" data-paper-data="{&quot;index&quot;:null}" fill="#d80000" stroke="none" stroke-width="0" stroke-linecap="butt"/><path d="M264.71736,194.80667l-14.73717,8.375h-7.91441" data-paper-data="{&quot;index&quot;:null}" fill="none" stroke="#d80000" stroke-width="1" stroke-linecap="round"/><path d="M264.66279,193.93167l-14.73717,8.375h-7.91441" data-paper-data="{&quot;index&quot;:null}" fill="none" stroke="#d80000" stroke-width="1" stroke-linecap="round"/><path d="M264.82655,192.99417l-14.73717,8.375h-7.91441" data-paper-data="{&quot;index&quot;:null}" fill="none" stroke="#d80000" stroke-width="1" stroke-linecap="round"/><path d="M265.23591,192.39501l-15.4164,8.625l-7.94559,0.03917l-0.04126,-21.91417l23.03112,-0.125z" data-paper-data="{&quot;index&quot;:null}" fill="#ff0000" stroke="#b6b6b6" stroke-width="0" stroke-linecap="round"/><path d="M264.45354,179.10182l0.01119,13.58974" data-paper-data="{&quot;index&quot;:null}" fill="none" stroke="#df0000" stroke-width="0.5" stroke-linecap="round"/><path d="M263.41787,192.27064l-0.06718,-12.23077" data-paper-data="{&quot;index&quot;:null}" fill="none" stroke="#f00000" stroke-width="2" stroke-linecap="round"/><path d="M262.49901,180.40341v-1.35714h1.68424v1.35714z" data-paper-data="{&quot;index&quot;:null}" fill="#f00000" stroke="none" stroke-width="0" stroke-linecap="butt"/><path d="M242.97421,180.47483v19.28572" data-paper-data="{&quot;index&quot;:null}" fill="none" stroke="#f00000" stroke-width="2.5" stroke-linecap="round"/><path d="M241.85138,183.90341v-4.71428h2.18328v4.71428z" data-paper-data="{&quot;index&quot;:null}" fill="#f00000" stroke="none" stroke-width="0" stroke-linecap="butt"/><path d="M241.85138,200.97484v-6h2.18328v6z" data-paper-data="{&quot;index&quot;:null}" fill="#f00000" stroke="none" stroke-width="0" stroke-linecap="butt"/><path d="M253.39159,182.97484v9.5c0,0 -0.1823,2.19082 -2.30596,2.17661c-2.09776,-0.01403 -2.31012,-2.10518 -2.31012,-2.10518l-0.06238,-9.57143z" data-paper-data="{&quot;index&quot;:null}" fill="#f70000" stroke="#fa0000" stroke-width="1" stroke-linecap="round"/><path d="M251.72684,184.86917v7.1875" data-paper-data="{&quot;index&quot;:null}" fill="none" stroke="#f50000" stroke-width="1" stroke-linecap="round"/><path d="M250.0348,183.93167l0.10916,8.6875" data-paper-data="{&quot;index&quot;:null}" fill="none" stroke="#f50000" stroke-width="1" stroke-linecap="round"/><path d="M252.38182,182.99417l-2.7291,-0.0625" data-paper-data="{&quot;index&quot;:null}" fill="none" stroke="#f50000" stroke-width="1" stroke-linecap="round"/><path d="M260.02329,189.24417v-7.9375" data-paper-data="{&quot;index&quot;:null}" fill="none" stroke="#fa0000" stroke-width="1" stroke-linecap="round"/><path d="M254.78344,182.24417v11.875" data-paper-data="{&quot;index&quot;:null}" fill="none" stroke="#fa0000" stroke-width="1" stroke-linecap="round"/><path d="M247.36028,184.43167l0.05458,11.1875" data-paper-data="{&quot;index&quot;:null}" fill="none" stroke="#fa0000" stroke-width="1" stroke-linecap="round"/><path d="M257.13046,194.49417l-0.10916,-5.125" data-paper-data="{&quot;index&quot;:null}" fill="none" stroke="#fa0000" stroke-width="1" stroke-linecap="round"/><path d="M245.28616,181.55667l-0.05458,11" data-paper-data="{&quot;index&quot;:null}" fill="none" stroke="#fa0000" stroke-width="1" stroke-linecap="round"/><path d="M241.57457,203.11919v-2.0625h0.54582v2.0625z" data-paper-data="{&quot;index&quot;:null}" fill="#d80000" stroke="none" stroke-width="0" stroke-linecap="butt"/><g data-paper-data="{&quot;index&quot;:null}"><path d="M218.53703,194.86917v-1.9375h0.92789v1.9375z" fill="#d80000" stroke="none" stroke-width="0" stroke-linecap="butt"/><path d="M241.67985,203.18167h-7.91441l-14.73717,-8.375" fill="none" stroke="#d80000" stroke-width="1" stroke-linecap="round"/><path d="M241.73443,202.30667h-7.91441l-14.73717,-8.375" fill="none" stroke="#d80000" stroke-width="1" stroke-linecap="round"/><path d="M241.57069,201.36917h-7.91441l-14.73717,-8.375" fill="none" stroke="#d80000" stroke-width="1" stroke-linecap="round"/><path d="M218.88186,179.02001l23.03112,0.125l-0.04126,21.91417l-7.94559,-0.03917l-15.4164,-8.625z" fill="#ff0000" stroke="#b6b6b6" stroke-width="0" stroke-linecap="round"/><path d="M217.74559,192.02001v-13.125" fill="none" stroke="#b6b6b6" stroke-width="3" stroke-linecap="round"/><path d="M219.29207,179.10182l-0.01119,13.58974" fill="none" stroke="#df0000" stroke-width="0.5" stroke-linecap="round"/><path d="M218.17804,179.03987v13" fill="none" stroke="#c2c2c2" stroke-width="2" stroke-linecap="round"/><path d="M220.32775,192.27064l0.06718,-12.23077" fill="none" stroke="#f00000" stroke-width="2" stroke-linecap="round"/><path d="M219.5624,180.40341v-1.35714h1.68424v1.35714z" fill="#f00000" stroke="none" stroke-width="0" stroke-linecap="butt"/><path d="M240.77143,180.47484v19.28572" fill="none" stroke="#f00000" stroke-width="2.5" stroke-linecap="round"/><path d="M239.71099,183.90341v-4.71428h2.18328v4.71428z" fill="#f00000" stroke="none" stroke-width="0" stroke-linecap="butt"/><path d="M239.71099,200.97484v-6h2.18328v6z" fill="#f00000" stroke="none" stroke-width="0" stroke-linecap="butt"/><path d="M235.03251,182.97484l-0.06238,9.57143c0,0 -0.21236,2.09115 -2.31012,2.10518c-2.12365,0.01421 -2.30596,-2.17661 -2.30596,-2.17661v-9.5z" fill="#f70000" stroke="#fa0000" stroke-width="1" stroke-linecap="round"/><path d="M232.01881,184.86917v7.1875" fill="none" stroke="#f50000" stroke-width="1" stroke-linecap="round"/><path d="M233.71084,183.93167l-0.10916,8.6875" fill="none" stroke="#f50000" stroke-width="1" stroke-linecap="round"/><path d="M231.36381,182.99417l2.7291,-0.0625" fill="none" stroke="#f50000" stroke-width="1" stroke-linecap="round"/><path d="M223.72234,189.24417v-7.9375" fill="none" stroke="#fa0000" stroke-width="1" stroke-linecap="round"/><path d="M228.9622,182.24417v11.875" fill="none" stroke="#fa0000" stroke-width="1" stroke-linecap="round"/><path d="M236.38537,184.43167l-0.05458,11.1875" fill="none" stroke="#fa0000" stroke-width="1" stroke-linecap="round"/><path d="M226.61518,194.49417l0.10916,-5.125" fill="none" stroke="#fa0000" stroke-width="1" stroke-linecap="round"/><path d="M238.51407,192.55667l-0.05458,-11" fill="none" stroke="#fa0000" stroke-width="1" stroke-linecap="round"/><path d="M241.62525,203.11919v-2.0625h0.54582v2.0625z" fill="#d80000" stroke="none" stroke-width="0" stroke-linecap="butt"/></g><path d="M240.91713,167.76799v-4.77419h0.22537v4.77419z" data-paper-data="{&quot;index&quot;:null}" fill="#1dfffb" stroke="none" stroke-width="0" stroke-linecap="butt"/><path d="M243.20955,153.56626l-0.07939,17.45455c0,0 -0.22344,0.86024 -1.19088,0.90909c-0.99009,0.04999 -1.34967,-0.90909 -1.34967,-0.90909v-17.45455" data-paper-data="{&quot;index&quot;:null}" fill="none" stroke="#acacac" stroke-width="1" stroke-linecap="round"/><path d="M246.52638,199.67195l-10.10296,-0.0566l-2.5722,-0.71141l-0.18805,-37.7619l5.71689,-5.42857v15.95287c0,0 0.69143,1.79051 2.55923,1.79051c1.90103,0 2.59992,-1.92095 2.59992,-1.92095v-15.66277l5.57746,5.42857l0.15778,37.58147z" data-paper-data="{&quot;index&quot;:null}" fill="#ff0000" stroke="#ff0000" stroke-width="2.5" stroke-linecap="round"/><path d="M246.13824,177.36956l-0.09704,18.33333" data-paper-data="{&quot;index&quot;:null}" fill="none" stroke="#fa0000" stroke-width="1" stroke-linecap="round"/><path d="M235.85255,189.14733l0.09704,-11.77777" data-paper-data="{&quot;index&quot;:null}" fill="none" stroke="#fa0000" stroke-width="1" stroke-linecap="round"/><path d="M238.18137,195.59176l0.19407,-10.66666" data-paper-data="{&quot;index&quot;:null}" fill="none" stroke="#fa0000" stroke-width="1" stroke-linecap="round"/><path d="M244.29458,199.70288v-13.33333" data-paper-data="{&quot;index&quot;:null}" fill="none" stroke="#fa0000" stroke-width="1" stroke-linecap="round"/><path d="M239.53987,173.81399l0.09704,7" data-paper-data="{&quot;index&quot;:null}" fill="none" stroke="#fa0000" stroke-width="1" stroke-linecap="round"/><path d="M247.01156,173.25842l-0.19408,-13.77777" data-paper-data="{&quot;index&quot;:null}" fill="none" stroke="#fa0000" stroke-width="1" stroke-linecap="round"/><path d="M234.68813,160.48065l0.19407,12.11111" data-paper-data="{&quot;index&quot;:null}" fill="none" stroke="#fa0000" stroke-width="1" stroke-linecap="round"/><path d="M237.30806,174.14733l-0.2911,-13" data-paper-data="{&quot;index&quot;:null}" fill="none" stroke="#fa0000" stroke-width="1" stroke-linecap="round"/><path d="M242.51954,167.68023v-4.7h0.17466v4.7z" data-paper-data="{&quot;index&quot;:null}" fill="url(#color-21)" stroke="none" stroke-width="0" stroke-linecap="butt"/><path d="M241.7341,167.86476v-4.80645h0.1972v4.80645z" data-paper-data="{&quot;index&quot;:null}" fill="#1dfffb" stroke="none" stroke-width="0" stroke-linecap="butt"/><path d="M243.32365,183.41863l-1.27536,0.6931l-1.27536,-0.54738v-7.72276l1.31523,-0.91167l1.23551,1.05738z" data-paper-data="{&quot;index&quot;:null}" fill="#8cffff" stroke="#7e7e7e" stroke-width="0.5" stroke-linecap="round"/><path d="M243.26663,176.09942l-1.14623,0.875l-1.25539,-1.125" data-paper-data="{&quot;index&quot;:null}" fill="none" stroke="#55eded" stroke-width="0.5" stroke-linecap="round"/><path d="M241.08334,183.47442l1.09164,-0.8125l0.87331,0.6875" data-paper-data="{&quot;index&quot;:null}" fill="none" stroke="#55eded" stroke-width="0.5" stroke-linecap="round"/><path d="M242.06581,175.16192l0.05458,1.5l-0.05458,6.5625l-0.16375,0.5625" data-paper-data="{&quot;index&quot;:null}" fill="none" stroke="#4fdada" stroke-width="0.5" stroke-linecap="round"/><path d="M243.32365,183.41863l-1.27536,0.6931l-1.27536,-0.54738v-7.72276l1.31523,-0.91167l1.23551,1.05738z" data-paper-data="{&quot;index&quot;:null}" fill="none" stroke="#7e7e7e" stroke-width="0.5" stroke-linecap="round"/><path d="M241.86178,182.48583l-0.85253,0.78572l0.02079,-6.9881l0.81093,0.82143z" data-paper-data="{&quot;index&quot;:null}" fill="#5cffff" stroke="none" stroke-width="0" stroke-linecap="round"/><path d="M241.70082,183.65338l-0.45074,-0.13243l0.60495,-0.37012z" data-paper-data="{&quot;index&quot;:null}" fill="#57f3f3" stroke="#56eeee" stroke-width="0" stroke-linecap="round"/><path d="M242.29624,177.1218l0.85253,-0.78572l-0.02079,6.80388l-0.81094,-0.66353z" data-paper-data="{&quot;index&quot;:null}" fill="#87ffff" stroke="none" stroke-width="0" stroke-linecap="round"/><path d="M242.28427,183.07189l0.536,0.37011l-0.65758,0.34296z" data-paper-data="{&quot;index&quot;:null}" fill="#5afbfb" stroke="#56eeee" stroke-width="0" stroke-linecap="round"/><path d="M251.30907,160.86955l-0.09704,39.33333l-1.35849,0.66667h-4.94878v-13.66667l3.49326,-3.77778v-11.77778l-1.74663,-1.88889l-0.09704,-13.44444z" data-paper-data="{&quot;index&quot;:null}" fill="#ffffff" stroke="#f5f5f5" stroke-width="0.5" stroke-linecap="round"/><path d="M250.0476,201.03623h-2.03773v-43.55556l3.29918,3.33333v39.44444z" data-paper-data="{&quot;index&quot;:null}" fill="url(#color-22)" stroke="none" stroke-width="0" stroke-linecap="butt"/><path d="M237.37715,156.09178l-0.09704,13.44444l-1.74663,1.88889v11.77778l3.49326,3.77777v13.66667h-4.94877l-1.35849,-0.66667l-0.09704,-39.33333z" data-paper-data="{&quot;index&quot;:null}" fill="#ffffff" stroke="#f5f5f5" stroke-width="0.5" stroke-linecap="round"/><path d="M251.38297,192.90473l13.18704,-2.3l-0.08733,2l-13.0997,7.6z" data-paper-data="{&quot;index&quot;:null}" fill="#ffffff" stroke="#f5f5f5" stroke-width="0.5" stroke-linecap="round"/><path d="M232.43206,199.80473l-13.16688,-7.6c0,0 -0.00802,-0.79603 -0.0116,-1.15051c-0.00307,-0.3046 -0.00856,-0.84949 -0.00856,-0.84949l13.18704,2.3z" data-paper-data="{&quot;index&quot;:null}" fill="#ffffff" stroke="#f5f5f5" stroke-width="0.5" stroke-linecap="round"/><g data-paper-data="{&quot;index&quot;:null}" fill="none" stroke-linecap="round"><path d="M265.6667,178.89501v13.125" stroke="#b6b6b6" stroke-width="3"/><path d="M265.23425,192.03987v-13" stroke="#c2c2c2" stroke-width="2"/></g><path d="M246.26616,206.26433c0,0 -2.1843,-0.63636 -4.0887,-0.63636c-1.87792,0 -4.16809,0.63636 -4.16809,0.63636v-4.27273c0,0 2.21724,-0.48772 4.12839,-0.5c1.91184,-0.01228 4.12839,0.5 4.12839,0.5v4.27273z" data-paper-data="{&quot;index&quot;:null}" fill="url(#color-23)" stroke="none" stroke-width="0" stroke-linecap="butt"/><path d="M230.1275,191.7539v-12.60657h2.5229v13.11111z" data-paper-data="{&quot;index&quot;:null}" fill="url(#color-24)" stroke="none" stroke-width="0" stroke-linecap="butt"/><path d="M230.06164,198.70949v-6.92857l2.61994,0.5v7.85714z" data-paper-data="{&quot;index&quot;:null}" fill="url(#color-25)" stroke="none" stroke-width="0" stroke-linecap="butt"/><g data-paper-data="{&quot;index&quot;:null}"><g><path d="M259.44525,182.19614v-4.09091" fill="none" stroke="#b6b6b6" stroke-width="2.5" stroke-linecap="round"/><path d="M258.15509,183.181v-3.91667" fill="none" stroke="#df0000" stroke-width="0.5" stroke-linecap="round"/><path d="M256.58709,183.4007v-4.31818h1.38936v4.31818z" fill="#f00000" stroke="none" stroke-width="0" stroke-linecap="butt"/></g><path d="M259.08796,182.44615l-0.03969,-4.18182" fill="none" stroke="#c2c2c2" stroke-width="1.5" stroke-linecap="round"/></g><g data-paper-data="{&quot;index&quot;:null}"><g><path d="M224.5524,182.19615v-4.09091" fill="none" stroke="#b6b6b6" stroke-width="2.5" stroke-linecap="round"/><path d="M225.84253,179.26433v3.91666" fill="none" stroke="#df0000" stroke-width="0.5" stroke-linecap="round"/><path d="M226.02116,183.40071v-4.31819h1.38936v4.31818z" fill="#f00000" stroke="none" stroke-width="0" stroke-linecap="butt"/></g><path d="M224.94937,178.26433l-0.03969,4.18182" fill="none" stroke="#c2c2c2" stroke-width="1.5" stroke-linecap="round"/></g><path d="M238.67071,202.02342v3.68" data-paper-data="{&quot;index&quot;:null}" fill="none" stroke="#656565" stroke-width="0.5" stroke-linecap="round"/><path d="M239.68375,201.82342v3.64" data-paper-data="{&quot;index&quot;:null}" fill="none" stroke="#6a6a6a" stroke-width="0.5" stroke-linecap="round"/><path d="M240.62693,201.70342l0.03493,3.64" data-paper-data="{&quot;index&quot;:null}" fill="none" stroke="#6f6f6f" stroke-width="0.5" stroke-linecap="round"/><path d="M241.6749,205.30342l-0.06987,-3.68" data-paper-data="{&quot;index&quot;:null}" fill="none" stroke="#747474" stroke-width="0.5" stroke-linecap="round"/><path d="M242.65302,205.34342l-0.03493,-3.76" data-paper-data="{&quot;index&quot;:null}" fill="none" stroke="#787878" stroke-width="0.5" stroke-linecap="round"/><path d="M243.59619,205.42343v-3.76" data-paper-data="{&quot;index&quot;:null}" fill="none" stroke="#7b7b7b" stroke-width="0.5" stroke-linecap="round"/><path d="M238.73645,212.8485v-6.27273c0,0 1.51673,-0.45454 3.45455,-0.45454c1.81656,0 3.45454,0.45454 3.45454,0.45454v6.27273z" data-paper-data="{&quot;index&quot;:null}" fill="url(#color-26)" stroke="none" stroke-width="0" stroke-linecap="butt"/><path d="M239.50714,184.73334v-12.5h4.8v12.5z" fill="#ff0000" stroke="none" stroke-width="0" stroke-linecap="butt"/><g stroke="#a6caca" stroke-width="0.5" stroke-linecap="round"><path d="M243.0679,180.55771c0,0 -0.55811,1.7675 -1.24554,1.7675c-0.68743,0 -1.24554,-1.7675 -1.24554,-1.7675l0.01782,-4.93504c0,0 0.55811,-1.7675 1.24554,-1.7675c0.68744,0 1.24555,1.7675 1.24555,1.7675z" fill="url(#color-27)"/><path d="M240.71438,176.19632h2.15143" fill="none"/><path d="M240.71438,177.58406h2.05364" fill="none"/><path d="M240.61659,179.80443h2.24922" fill="none"/><path d="M240.53139,178.39882h2.24922" fill="none"/></g><g><path d="M240.07639,196.16667v-6.75h3.625v6.75z" fill="url(#color-28)" stroke="none" stroke-width="0" stroke-linecap="butt"/><path d="M240.07639,199.91667v-2.875h3.625v2.875z" fill="url(#color-29)" stroke="none" stroke-width="0" stroke-linecap="butt"/><g fill="none" stroke="#d4d4d4" stroke-width="1" stroke-linecap="round"><path d="M233.83889,197.13333v3.4"/><path d="M236.43889,197.13333v3.4"/></g><g fill="none" stroke="#d4d4d4" stroke-width="1" stroke-linecap="round"><path d="M247.13889,200.43333v-3.4"/><path d="M249.73889,200.43333v-3.4"/></g></g></g></g></svg>