<svg version="1.1" xmlns="http://www.w3.org/2000/svg" xmlns:xlink="http://www.w3.org/1999/xlink" width="65" height="45.33333" viewBox="0,0,65,45.33333"><defs><linearGradient x1="323.41669" y1="203.67026" x2="313.08335" y2="203.67026" gradientUnits="userSpaceOnUse" id="color-1"><stop offset="0" stop-color="#000000" stop-opacity="0"/><stop offset="1" stop-color="#000000"/></linearGradient><linearGradient x1="317.08335" y1="181.00359" x2="312.68619" y2="181.00359" gradientUnits="userSpaceOnUse" id="color-2"><stop offset="0" stop-color="#000000" stop-opacity="0"/><stop offset="1" stop-color="#000000"/></linearGradient></defs><g transform="translate(-307.16668,-174.19802)"><g data-paper-data="{&quot;isPaintingLayer&quot;:true}" fill-rule="nonzero" stroke-linejoin="miter" stroke-miterlimit="10" stroke-dasharray="" stroke-dashoffset="0" style="mix-blend-mode: normal"><g data-paper-data="{&quot;index&quot;:null}"><g><g data-paper-data="{&quot;index&quot;:null}" stroke-width="0"><path d="M309.37693,174.41853l27.12308,-0.22051v6.39488l-24.03589,7.71794h-4.63077z" fill="#0d0d0d" stroke="#4d4d4d" stroke-linecap="round"/><path d="M310.66668,188.03135c0,0 13.38283,-1.39073 25.47528,-0.85521c9.95673,0.44094 18.39455,2.83188 23.35546,2.79155c5.59585,-0.0455 12.66926,-2.43634 12.66926,-2.43634v14.5c0,0 -16.26309,6.13952 -24.30252,8.72099c-4.38232,1.40717 -12.56475,1.98195 -18.42318,3.65984c-7.21962,2.06774 -11.7743,5.11917 -11.7743,5.11917h-10.5z" fill="#0d0d0d" stroke="#4d4d4d" stroke-linecap="round"/><path d="M317.96438,210.65635l-0.08152,-18.75h8.72282l6.11413,5.625v13.125z" data-paper-data="{&quot;index&quot;:null}" fill="#0a0a0a" stroke="#000000" stroke-linecap="round"/><path d="M368.68316,190.23971l0.03665,8.43131h-3.9224l-2.74934,-2.5294v-5.90192z" data-paper-data="{&quot;index&quot;:null}" fill="#0a0a0a" stroke="#000000" stroke-linecap="round"/><path d="M315.76981,183.67102v-4.96859l2.31456,-2.12939h3.30211l-0.03086,7.09798z" data-paper-data="{&quot;index&quot;:null}" fill="#0a0a0a" stroke="#000000" stroke-linecap="round"/><path d="M323.41668,188.00359v30l-5,1.33333h-5.33333v-31.33333z" fill="url(#color-1)" stroke="none" stroke-linecap="butt"/><path d="M317.08335,174.3369v12.76596l-2.12766,0.56738h-2.2695v-13.33333z" fill="url(#color-2)" stroke="none" stroke-linecap="butt"/></g><path d="M351.87501,193.27106c0,1.25 -1.25,1.25 -1.25,1.25l-0.7945,-0.01701c-0.02487,0.00358 -1.92973,0.16945 -2.06437,0.52722c-0.33652,0.89423 0.63215,1.8043 0.89925,2.72167c0.64022,2.19888 0.70962,3.78767 0.70962,6.01811c0,0 0,1.25 -1.25,1.25c-1.25,0 -1.25,-1.25 -1.25,-1.25c0,-1.99515 -0.02239,-3.34238 -0.60597,-5.30571c-0.30245,-1.01753 -1.2871,-3.40645 -0.78517,-4.45451c0.80082,-1.67217 2.4926,-1.70906 3.93563,-1.97278l1.2055,-0.01701c0,0 1.25,0 1.25,1.25z" data-paper-data="{&quot;index&quot;:null}" fill="#000000" stroke="none" stroke-width="0.5" stroke-linecap="butt"/><path d="M345.49301,190.58003c-0.55902,1.11804 -1.67705,0.55902 -1.67705,0.55902l0.05902,-0.11803c-0.77399,-0.01381 -1.573,0.10856 -2.28576,0.4106c0,0 -1.16059,0.46424 -1.62483,-0.69636c-0.46424,-1.16059 0.69636,-1.62483 0.69636,-1.62483c1.01703,-0.39009 2.12505,-0.57525 3.21424,-0.5894l1.05902,0.38197c0,0 1.11804,0.55902 0.55902,1.67705z" data-paper-data="{&quot;index&quot;:null}" fill="#000000" stroke="none" stroke-width="0.5" stroke-linecap="butt"/><path d="M354.75446,195.93593c1.08509,-0.62053 1.70563,0.46456 1.70563,0.46456l0.20936,0.41597c2.22004,2.68076 3.06367,5.10144 -0.15134,7.27644c0,0 -1.07187,0.64312 -1.71499,-0.42875c-0.64312,-1.07187 0.42875,-1.71499 0.42875,-1.71499c1.92789,-0.88101 0.6721,-2.30659 -0.44386,-3.48644l-0.49811,-0.82115c0,0 -0.62053,-1.08509 0.46456,-1.70563z" data-paper-data="{&quot;index&quot;:null}" fill="#000000" stroke="none" stroke-width="0.5" stroke-linecap="butt"/></g><path d="M325.11934,177.40211c0.11894,1.24433 -1.12539,1.36327 -1.12539,1.36327l-0.69685,0.02476c-1.97962,0.72692 -3.54664,1.35091 -5.03821,2.86479c0,0 -0.88389,0.88388 -1.76777,0c-0.88388,-0.88389 0,-1.76777 0,-1.76777c1.77232,-1.75127 3.62218,-2.57971 5.93889,-3.44185l1.32605,-0.1686c0,0 1.24433,-0.11894 1.36327,1.12539z" data-paper-data="{&quot;index&quot;:null}" fill="#000000" stroke="none" stroke-width="0.5" stroke-linecap="butt"/><path d="M334.12016,175.04532c1.22573,0.24514 0.98058,1.47087 0.98058,1.47087l-0.40794,1.65472c-1.05924,0.90999 -1.98467,1.97942 -2.81779,3.10013c0,0 -0.75,1 -1.75,0.25c-1,-0.75 -0.25,-1.75 -0.25,-1.75c0.79396,-1.0504 1.6148,-2.12892 2.68221,-2.89987l0.09206,-0.84528c0,0 0.24514,-1.22573 1.47087,-0.98058z" data-paper-data="{&quot;index&quot;:null}" fill="#000000" stroke="none" stroke-width="0.5" stroke-linecap="butt"/></g><path d="M336.83335,200.69105c0,3.4863 -2.79822,6.3125 -6.25,6.3125c-2.58573,0 -5.80471,-1.25259 -6.75542,-3.5139c-0.31843,-0.75739 0.50542,-1.92389 0.50542,-2.7986c0,-1.61317 1.09912,-2.75167 2.08488,-3.86758c1.14462,-1.29574 2.31054,-2.44492 4.16512,-2.44492c3.45178,0 6.25,2.8262 6.25,6.3125z" data-paper-data="{&quot;index&quot;:null}" fill="#3d3d3d" stroke="#3e3e3e" stroke-width="1.5" stroke-linecap="butt"/><path d="M324.7856,207.17257c-0.46424,1.1606 -1.62483,0.69636 -1.62483,0.69636l-1.47388,-0.61704c-3.06908,-2.99865 -6.88121,-5.10573 -6.01933,-10.07902c0.29634,-1.70999 1.18962,-3.26072 1.7827,-4.89171c0,0 0.42718,-1.17474 1.60192,-0.74756c1.17474,0.42718 0.74756,1.60192 0.74756,1.60192c-0.54606,1.50165 -1.36043,2.925 -1.67384,4.49181c-0.73537,3.67624 2.75634,5.28316 4.93721,7.53746l1.02612,0.38296c0,0 1.1606,0.46424 0.69636,1.62483z" data-paper-data="{&quot;index&quot;:null}" fill="#000000" stroke="none" stroke-width="0.5" stroke-linecap="butt"/><path d="M342.875,195.95833c0,1.25 -1.25,1.25 -1.25,1.25h-1c-5.55705,-0.00837 -9.13426,-3.30977 -14.3434,-4.7981c0,0 -1.2019,-0.3434 -0.8585,-1.54531c0.3434,-1.2019 1.54531,-0.8585 1.54531,-0.8585c0.24043,0.06869 4.87665,1.38811 4.99644,1.44447c2.11207,0.99385 2.12723,1.78942 4.09079,2.81416c1.21798,0.63564 3.28214,0.44539 4.56937,0.44327h1c0,0 1.25,0 1.25,1.25z" data-paper-data="{&quot;index&quot;:null}" fill="#000000" stroke="none" stroke-width="0.5" stroke-linecap="butt"/><path d="M334.45109,195.30294c-0.0376,0.09851 -0.09029,0.201 -0.16102,0.3071c-0.69338,1.04006 -1.73344,0.34669 -1.73344,0.34669c-2.86753,-2.19408 -5.7616,2.21296 -6.5985,4.78077c-0.18028,0.55316 -0.73392,1.11084 -0.54057,1.65957c0.17309,0.49123 0.8849,0.57378 1.38213,0.72878c2.67101,0.83262 5.13968,0.4252 7.75008,0.05696c0.36908,-0.05206 0.77929,0.30292 1.11041,0.13177c1.78295,-0.92161 0.54706,-5.60439 0.46693,-6.84872c-0.58165,-0.50541 -1.1336,-0.88468 -1.67602,-1.16291zM326.52156,194.96393c-0.23012,-0.14885 -0.43177,-0.4051 -0.50455,-0.84177c-0.2055,-1.23299 1.02749,-1.43849 1.02749,-1.43849l0.53402,-0.089c4.57202,-0.75432 7.44829,-0.80742 10.79438,2.77281c0.48379,3.01175 1.7837,8.03421 -1.53307,10.15128c-0.53222,0.33971 -1.26889,0.01608 -1.88959,0.13177c-2.96022,0.55174 -10.1937,1.52604 -11.84837,-2.31136c-0.43199,-1.00185 0.21966,-2.1748 0.44001,-3.24334c0.39962,-1.93786 1.50663,-3.80537 2.97968,-5.1319z" data-paper-data="{&quot;index&quot;:null}" fill="#141414" stroke="none" stroke-width="0.5" stroke-linecap="butt"/><path d="M329.41354,198.71075c-0.52406,0.79778 -0.87602,1.62949 -1.00113,2.8368c-0.01563,0.15084 -0.62541,2.26045 0.46187,2.37091c2.48105,0.25206 4.25704,-2.08079 5.69431,-3.641c0.38878,-0.42203 1.53428,-0.87642 1.13811,-1.29153c-1.26918,-1.32986 -3.60246,-0.89539 -5.25518,-0.95909l-0.25815,0.45767c0,0 -0.3503,0.23353 -0.77983,0.22624zM330.97165,195.54355c1.28971,0.0433 4.04163,0.13468 4.66702,0.4101c5.91127,2.60331 -0.68524,8.94045 -4.23439,10.05886c-1.99279,0.62797 -4.33126,0.79965 -5.3759,-1.55155c-0.42247,-0.95086 -0.16439,-2.08069 -0.10745,-3.11962c0.04312,-0.78679 0.13716,-1.58811 0.40606,-2.32879c0.45191,-1.2448 1.72645,-2.67493 2.53027,-3.68231c0,0 0.78087,-0.97609 1.75695,-0.19522c0.16558,0.13246 0.2806,0.27054 0.35745,0.40853z" data-paper-data="{&quot;index&quot;:null}" fill="#282828" stroke="none" stroke-width="0.5" stroke-linecap="butt"/></g></g></svg>