<svg version="1.1" xmlns="http://www.w3.org/2000/svg" xmlns:xlink="http://www.w3.org/1999/xlink" width="57.42112" height="73.67853" viewBox="0,0,57.42112,73.67853"><defs><radialGradient cx="240.01411" cy="208.21143" r="8.89813" gradientUnits="userSpaceOnUse" id="color-1"><stop offset="0" stop-color="#fff696"/><stop offset="1" stop-color="#fff696" stop-opacity="0"/></radialGradient><radialGradient cx="240.41804" cy="205.428" r="12.35459" gradientUnits="userSpaceOnUse" id="color-2"><stop offset="0" stop-color="#fcd81d"/><stop offset="1" stop-color="#fcd81d" stop-opacity="0"/></radialGradient><linearGradient x1="239.78413" y1="204.32198" x2="239.78413" y2="221.18561" gradientUnits="userSpaceOnUse" id="color-3"><stop offset="0" stop-color="#ffffff"/><stop offset="1" stop-color="#ffffff" stop-opacity="0"/></linearGradient><radialGradient cx="239.85353" cy="208.44531" r="6.32236" gradientUnits="userSpaceOnUse" id="color-4"><stop offset="0" stop-color="#ffee35"/><stop offset="1" stop-color="#ffee35" stop-opacity="0"/></radialGradient><linearGradient x1="239.19364" y1="125.00034" x2="239.19364" y2="219.02639" gradientUnits="userSpaceOnUse" id="color-5"><stop offset="0" stop-color="#a300f2"/><stop offset="1" stop-color="#a300f2" stop-opacity="0"/></linearGradient><linearGradient x1="238.95591" y1="96.98158" x2="238.95591" y2="225.00219" gradientUnits="userSpaceOnUse" id="color-6"><stop offset="0" stop-color="#f1f1f1"/><stop offset="1" stop-color="#f1f1f1" stop-opacity="0"/></linearGradient><linearGradient x1="239.9642" y1="204.61823" x2="239.9642" y2="212.52599" gradientUnits="userSpaceOnUse" id="color-7"><stop offset="0" stop-color="#ff4f00"/><stop offset="1" stop-color="#ff4f00" stop-opacity="0"/></linearGradient><linearGradient x1="239.89619" y1="204.86497" x2="239.89619" y2="210.2108" gradientUnits="userSpaceOnUse" id="color-8"><stop offset="0" stop-color="#ffd400"/><stop offset="1" stop-color="#ffd400" stop-opacity="0"/></linearGradient><linearGradient x1="239.89393" y1="204.50691" x2="239.89393" y2="213.38923" gradientUnits="userSpaceOnUse" id="color-9"><stop offset="0" stop-color="#ffee00"/><stop offset="1" stop-color="#ffee00" stop-opacity="0"/></linearGradient><linearGradient x1="239.82141" y1="204.43396" x2="239.82141" y2="208.32134" gradientUnits="userSpaceOnUse" id="color-10"><stop offset="0" stop-color="#ffee00"/><stop offset="1" stop-color="#ffee00" stop-opacity="0"/></linearGradient><linearGradient x1="241.86414" y1="204.50691" x2="241.86414" y2="208.39429" gradientUnits="userSpaceOnUse" id="color-11"><stop offset="0" stop-color="#ffee00"/><stop offset="1" stop-color="#ffee00" stop-opacity="0"/></linearGradient><linearGradient x1="237.77862" y1="204.50691" x2="237.77862" y2="208.39429" gradientUnits="userSpaceOnUse" id="color-12"><stop offset="0" stop-color="#ffee00"/><stop offset="1" stop-color="#ffee00" stop-opacity="0"/></linearGradient><radialGradient cx="240.01832" cy="207.64309" r="6.32236" gradientUnits="userSpaceOnUse" id="color-13"><stop offset="0" stop-color="#feea00"/><stop offset="1" stop-color="#feea00" stop-opacity="0"/></radialGradient><linearGradient x1="235.18152" y1="206.02092" x2="244.21559" y2="206.02092" gradientUnits="userSpaceOnUse" id="color-14"><stop offset="0" stop-color="#5f5f5f"/><stop offset="1" stop-color="#4c4c4c"/></linearGradient><linearGradient x1="235.18152" y1="206.02092" x2="244.21559" y2="206.02092" gradientUnits="userSpaceOnUse" id="color-15"><stop offset="0" stop-color="#949494"/><stop offset="1" stop-color="#757575"/></linearGradient><linearGradient x1="235.46008" y1="204.21928" x2="238.39113" y2="204.21928" gradientUnits="userSpaceOnUse" id="color-16"><stop offset="0" stop-color="#4c4c4c"/><stop offset="1" stop-color="#4c4c4c" stop-opacity="0"/></linearGradient><linearGradient x1="243.93639" y1="204.21927" x2="241.00534" y2="204.21927" gradientUnits="userSpaceOnUse" id="color-17"><stop offset="0" stop-color="#5f5f5f"/><stop offset="1" stop-color="#5f5f5f" stop-opacity="0"/></linearGradient><linearGradient x1="239.68183" y1="206.57577" x2="239.68183" y2="212.8485" gradientUnits="userSpaceOnUse" id="color-18"><stop offset="0" stop-color="#fccf00"/><stop offset="1" stop-color="#fccf00" stop-opacity="0"/></linearGradient><linearGradient x1="220.44656" y1="175.04168" x2="220.44656" y2="181.16668" gradientUnits="userSpaceOnUse" id="color-19"><stop offset="0" stop-color="#ff8800"/><stop offset="1" stop-color="#ffc500"/></linearGradient><linearGradient x1="259.59704" y1="175.04168" x2="259.59704" y2="181.16668" gradientUnits="userSpaceOnUse" id="color-20"><stop offset="0" stop-color="#ff8800"/><stop offset="1" stop-color="#ffc500"/></linearGradient><linearGradient x1="227.19149" y1="171.04763" x2="227.19149" y2="180.4979" gradientUnits="userSpaceOnUse" id="color-21"><stop offset="0" stop-color="#ff8800"/><stop offset="1" stop-color="#ffc500"/></linearGradient><linearGradient x1="223.74429" y1="173.47077" x2="223.74429" y2="180.61906" gradientUnits="userSpaceOnUse" id="color-22"><stop offset="0" stop-color="#ff8800"/><stop offset="1" stop-color="#ffc500"/></linearGradient><linearGradient x1="252.79939" y1="171.04763" x2="252.79939" y2="180.4979" gradientUnits="userSpaceOnUse" id="color-23"><stop offset="0" stop-color="#ff8800"/><stop offset="1" stop-color="#ffc500"/></linearGradient><linearGradient x1="256.24656" y1="173.47077" x2="256.24656" y2="180.61906" gradientUnits="userSpaceOnUse" id="color-24"><stop offset="0" stop-color="#ff8800"/><stop offset="1" stop-color="#ffc500"/></linearGradient><linearGradient x1="237.24271" y1="167.87077" x2="242.93334" y2="167.87077" gradientUnits="userSpaceOnUse" id="color-25"><stop offset="0" stop-color="#5f5f5f"/><stop offset="1" stop-color="#a8a8a8"/></linearGradient><linearGradient x1="240.1315" y1="161.54813" x2="240.1315" y2="162.48361" gradientUnits="userSpaceOnUse" id="color-26"><stop offset="0" stop-color="#7a7a7a"/><stop offset="1" stop-color="#646464"/></linearGradient><linearGradient x1="239.15703" y1="165.17487" x2="239.35401" y2="165.17487" gradientUnits="userSpaceOnUse" id="color-27"><stop offset="0" stop-color="#00eeec"/><stop offset="1" stop-color="#1cfff4"/></linearGradient><linearGradient x1="236.29142" y1="195.55477" x2="240.03413" y2="195.55477" gradientUnits="userSpaceOnUse" id="color-28"><stop offset="0" stop-color="#0e4d62"/><stop offset="1" stop-color="#126884"/></linearGradient><linearGradient x1="243.67833" y1="195.55477" x2="239.9356" y2="195.55477" gradientUnits="userSpaceOnUse" id="color-29"><stop offset="0" stop-color="#0e4d62"/><stop offset="1" stop-color="#126884"/></linearGradient><linearGradient x1="229.58225" y1="179.1031" x2="233.30305" y2="179.1031" gradientUnits="userSpaceOnUse" id="color-30"><stop offset="0" stop-color="#105972"/><stop offset="1" stop-color="#105972" stop-opacity="0"/></linearGradient><linearGradient x1="214.19015" y1="183.34818" x2="219.14484" y2="183.34818" gradientUnits="userSpaceOnUse" id="color-31"><stop offset="0" stop-color="#ff9b00"/><stop offset="1" stop-color="#e68100"/></linearGradient><linearGradient x1="250.59381" y1="193.40468" x2="253.43916" y2="193.40468" gradientUnits="userSpaceOnUse" id="color-32"><stop offset="0" stop-color="#009dd2"/><stop offset="1" stop-color="#009dd2" stop-opacity="0"/></linearGradient><linearGradient x1="238.90895" y1="178.0902" x2="241.37999" y2="178.0902" gradientUnits="userSpaceOnUse" id="color-33"><stop offset="0" stop-color="#c7ffff"/><stop offset="1" stop-color="#91f5f5"/></linearGradient><linearGradient x1="250.4492" y1="189.16526" x2="253.40397" y2="189.16526" gradientUnits="userSpaceOnUse" id="color-34"><stop offset="0" stop-color="#105972"/><stop offset="1" stop-color="#105972" stop-opacity="0"/></linearGradient><linearGradient x1="238.12448" y1="192.76641" x2="241.82338" y2="192.76641" gradientUnits="userSpaceOnUse" id="color-35"><stop offset="0" stop-color="#8b8b8b"/><stop offset="1" stop-color="#7f7f7f"/></linearGradient><linearGradient x1="265.8737" y1="183.34818" x2="260.91902" y2="183.34818" gradientUnits="userSpaceOnUse" id="color-36"><stop offset="0" stop-color="#ff9b00"/><stop offset="1" stop-color="#e68100"/></linearGradient><linearGradient x1="232.15783" y1="156.16668" x2="232.15783" y2="180.97918" gradientUnits="userSpaceOnUse" id="color-37"><stop offset="0" stop-color="#e68100"/><stop offset="1" stop-color="#ff9b00"/></linearGradient><linearGradient x1="232.15783" y1="156.16668" x2="232.15783" y2="180.97918" gradientUnits="userSpaceOnUse" id="color-38"><stop offset="0" stop-color="#e68100"/><stop offset="1" stop-color="#ff9b00"/></linearGradient><linearGradient x1="247.79344" y1="156.04168" x2="247.79344" y2="180.85418" gradientUnits="userSpaceOnUse" id="color-39"><stop offset="0" stop-color="#e68100"/><stop offset="1" stop-color="#ff9b00"/></linearGradient><linearGradient x1="247.79344" y1="156.04168" x2="247.79344" y2="180.85418" gradientUnits="userSpaceOnUse" id="color-40"><stop offset="0" stop-color="#e68100"/><stop offset="1" stop-color="#ff9b00"/></linearGradient><linearGradient x1="234.2231" y1="187.03335" x2="237.07938" y2="187.03335" gradientUnits="userSpaceOnUse" id="color-41"><stop offset="0" stop-color="#ececec"/><stop offset="1" stop-color="#dbdbdb"/></linearGradient><linearGradient x1="235.65121" y1="183.33335" x2="235.65121" y2="187.03335" gradientUnits="userSpaceOnUse" id="color-42"><stop offset="0" stop-color="#000000" stop-opacity="0"/><stop offset="1" stop-color="#000000" stop-opacity="0"/></linearGradient><linearGradient x1="242.89037" y1="186.83335" x2="245.74665" y2="186.83335" gradientUnits="userSpaceOnUse" id="color-43"><stop offset="0" stop-color="#dbdbdb"/><stop offset="1" stop-color="#ececec"/></linearGradient><linearGradient x1="244.31852" y1="183.13335" x2="244.31852" y2="186.83335" gradientUnits="userSpaceOnUse" id="color-44"><stop offset="0" stop-color="#000000" stop-opacity="0"/><stop offset="1" stop-color="#000000" stop-opacity="0"/></linearGradient><linearGradient x1="229.43395" y1="159.66668" x2="234.97409" y2="159.66668" gradientUnits="userSpaceOnUse" id="color-45"><stop offset="0" stop-color="#ececec"/><stop offset="1" stop-color="#dbdbdb"/></linearGradient><linearGradient x1="229.43395" y1="159.66668" x2="234.97409" y2="159.66668" gradientUnits="userSpaceOnUse" id="color-46"><stop offset="0" stop-color="#ececec"/><stop offset="1" stop-color="#dbdbdb"/></linearGradient><linearGradient x1="244.94641" y1="159.54168" x2="250.48654" y2="159.54168" gradientUnits="userSpaceOnUse" id="color-47"><stop offset="0" stop-color="#dbdbdb"/><stop offset="1" stop-color="#ececec"/></linearGradient><linearGradient x1="244.94641" y1="159.54168" x2="250.48654" y2="159.54168" gradientUnits="userSpaceOnUse" id="color-48"><stop offset="0" stop-color="#dbdbdb"/><stop offset="1" stop-color="#ececec"/></linearGradient><linearGradient x1="237.73052" y1="197.61642" x2="242.21737" y2="197.61642" gradientUnits="userSpaceOnUse" id="color-49"><stop offset="0" stop-color="#8b8b8b"/><stop offset="1" stop-color="#7f7f7f"/></linearGradient><linearGradient x1="234.96939" y1="203.97262" x2="244.42395" y2="203.97262" gradientUnits="userSpaceOnUse" id="color-50"><stop offset="0" stop-color="#888888"/><stop offset="1" stop-color="#696969"/></linearGradient></defs><g transform="translate(-211.37281,-152.72222)"><g data-paper-data="{&quot;isPaintingLayer&quot;:true}" fill-rule="nonzero" stroke-linejoin="miter" stroke-miterlimit="10" stroke-dasharray="" stroke-dashoffset="0" style="mix-blend-mode: normal"><path d="M241.25003,164.05555v-11.33333l1.86503,0.21803l8.63497,6.78197v4.33333z" fill="#d2d2d2" stroke="none" stroke-width="0" stroke-linecap="butt"/><path d="M250.58333,179.22222v-16.66666h1v16.66666z" fill="#e48500" stroke="none" stroke-width="0" stroke-linecap="butt"/><path d="M265.75001,194.55556v-15.5h1.33333v15.5z" fill="#3195b6" stroke="none" stroke-width="NaN" stroke-linecap="butt"/><path d="M247.81945,208.21143c0,4.34894 -3.49458,7.87446 -7.80538,7.87446c-4.3108,0 -7.80538,-3.52552 -7.80538,-7.87446c0,-4.34894 3.49459,-7.87446 7.80538,-7.87446c4.3108,0 7.80538,3.52552 7.80538,7.87446z" fill="url(#color-1)" stroke="none" stroke-width="0" stroke-linecap="butt"/><path d="M252.60793,205.428c0,6.82325 -5.45758,12.35459 -12.18986,12.35459c-6.73227,0 -12.18987,-5.53134 -12.18987,-12.35459c0,-6.82325 5.45759,-12.35459 12.18987,-12.35459c6.73227,0 12.18986,5.53134 12.18986,12.35459z" fill="url(#color-2)" stroke="none" stroke-width="0" stroke-linecap="butt"/><path d="M242.28413,204.32198l-2.5,16.86364l-2.5,-16.86364z" fill="url(#color-3)" stroke="#000000" stroke-width="0" stroke-linecap="round"/><path d="M245.39946,208.44531c0,3.09004 -2.48299,5.59501 -5.54593,5.59501c-3.06293,0 -5.54593,-2.50497 -5.54593,-5.59501c0,-3.09004 2.48299,-5.59501 5.54593,-5.59501c3.06293,0 5.54593,2.50497 5.54593,5.59501z" fill="url(#color-4)" stroke="none" stroke-width="0" stroke-linecap="butt"/><g stroke="#000000" stroke-width="0" stroke-linecap="round"><path d="M241.98055,205.12112l-1.99752,14.93246l-2.35162,-14.93246z" fill="url(#color-5)"/><path d="M242.75048,206.06954l-2.71971,20.33121l-3.20183,-20.33121z" fill="url(#color-6)"/><path d="M241.06247,204.61823c0,0 1.97104,0.54702 1.90371,2.41626c-0.16093,4.46815 -3.2949,5.49149 -3.2949,5.49149c0,0 -2.64402,-0.90981 -2.70914,-5.49149c-0.02772,-1.95089 1.8305,-2.41626 1.8305,-2.41626z" fill="url(#color-7)"/><path d="M240.63867,204.86497c0,0 1.33247,0.3698 1.28696,1.63345c-0.10879,3.02057 -2.22743,3.71239 -2.22743,3.71239c0,0 -1.78743,-0.61506 -1.83145,-3.71239c-0.01874,-1.31885 1.23746,-1.63345 1.23746,-1.63345z" fill="url(#color-8)"/><path d="M241.12756,204.50691c0,0 2.21395,0.61444 2.13833,2.71404c-0.18075,5.01881 -3.70096,6.16828 -3.70096,6.16828c0,0 -2.96987,-1.02195 -3.04302,-6.16828c-0.03114,-2.19132 2.05609,-2.71404 2.05609,-2.71404z" fill="url(#color-9)"/><path d="M240.36132,204.43396c0,0 0.96894,0.26891 0.93585,1.18781c-0.07911,2.1965 -1.61974,2.69957 -1.61974,2.69957c0,0 -1.29978,-0.44726 -1.33179,-2.69957c-0.01364,-0.95904 0.89985,-1.18781 0.89985,-1.18781z" fill="url(#color-10)"/><path d="M242.40407,204.50691c0,0 0.96895,0.26892 0.93585,1.18781c-0.07911,2.1965 -1.61975,2.69957 -1.61975,2.69957c0,0 -1.29978,-0.44726 -1.33179,-2.69957c-0.01363,-0.95904 0.89986,-1.18781 0.89986,-1.18781z" fill="url(#color-11)"/><path d="M238.31855,204.50691c0,0 0.96895,0.26892 0.93585,1.18781c-0.07911,2.1965 -1.61975,2.69957 -1.61975,2.69957c0,0 -1.29978,-0.44726 -1.33179,-2.69957c-0.01363,-0.95904 0.89986,-1.18781 0.89986,-1.18781z" fill="url(#color-12)"/></g><path d="M245.56425,207.64309c0,3.09004 -2.48299,5.59501 -5.54593,5.59501c-3.06294,0 -5.54593,-2.50497 -5.54593,-5.59501c0,-3.09004 2.48299,-5.59501 5.54593,-5.59501c3.06294,0 5.54593,2.50498 5.54593,5.59501z" fill="url(#color-13)" stroke="none" stroke-width="0" stroke-linecap="butt"/><path d="M244.21559,206.02092c0,0.46442 -2.02235,0.84091 -4.51705,0.84091c-2.4947,0 -4.51705,-0.37649 -4.51705,-0.84091c0,-0.46442 2.02235,-0.84091 4.51705,-0.84091c2.4947,0 4.51705,0.37649 4.51705,0.84091z" fill="url(#color-14)" stroke="url(#color-15)" stroke-width="0.5" stroke-linecap="butt"/><path d="M235.46008,206.08134v-3.72414h2.93103l0.03448,4.2069c0,0 -1.15126,-0.04387 -1.66802,-0.12799c-0.46663,-0.07596 -1.2975,-0.35477 -1.2975,-0.35477z" fill="url(#color-16)" stroke="none" stroke-width="0" stroke-linecap="butt"/><path d="M242.63886,206.43611c-0.51675,0.08413 -1.66802,0.12799 -1.66802,0.12799l0.03448,-4.2069h2.93104v3.72414c0,0 -0.83087,0.2788 -1.2975,0.35477z" data-paper-data="{&quot;index&quot;:null}" fill="url(#color-17)" stroke="none" stroke-width="0" stroke-linecap="butt"/><path d="M213.27906,194.71383v-1.9375h1.0625v1.9375z" fill="#0098ca" stroke="none" stroke-width="0" stroke-linecap="butt"/><path d="M237.52459,200.81949v-6h2.5v6z" fill="#0098ca" stroke="none" stroke-width="0" stroke-linecap="butt"/><path d="M265.65851,194.71383v-1.9375h1.0625v1.9375z" fill="#0098ca" stroke="none" stroke-width="0" stroke-linecap="butt"/><path d="M239.97548,200.81949v-6h2.5v6z" fill="#0098ca" stroke="none" stroke-width="0" stroke-linecap="butt"/><path d="M236.22731,212.8485v-6.27273c0,0 1.63798,-0.45454 3.45454,-0.45454c1.93782,0 3.45455,0.45454 3.45455,0.45454v6.27273z" fill="url(#color-18)" stroke="none" stroke-width="0" stroke-linecap="butt"/><g><g fill="none" stroke="#3195b6" stroke-width="1" stroke-linecap="round"><path d="M239.77906,203.02633h-9.0625l-16.875,-8.375"/><path d="M239.84156,202.15133h-9.0625l-16.875,-8.375"/><path d="M239.65406,201.21383h-9.0625l-16.875,-8.375"/></g><g fill="none" stroke="#3195b6" stroke-width="1" stroke-linecap="round"><path d="M266.15851,194.65133l-16.875,8.375h-9.0625"/><path d="M266.09601,193.77633l-16.875,8.375h-9.0625"/><path d="M266.28351,192.83883l-16.875,8.375h-9.0625"/></g><path d="M229.07147,203.4762v-3.42857h21.57143v3.42857z" fill="#0f566e" stroke="none" stroke-width="0" stroke-linecap="butt"/></g><g><g><path d="M238.21769,153.1382c0,0 0.8666,0.91199 1.52215,1.36364c0.65554,0.45165 1.02705,0.53754 1.4326,0.63636c0.40556,0.09883 0.80584,-0.09091 0.80584,-0.09091l1.34307,16.90909l-8.32704,1.36364z" fill="#001820" stroke="#ff0000" stroke-width="0" stroke-linecap="round"/><path d="M220.44656,175.04168v6.125" fill="none" stroke="url(#color-19)" stroke-width="2" stroke-linecap="round"/><path d="M259.59704,181.16668v-6.125" fill="none" stroke="url(#color-20)" stroke-width="2" stroke-linecap="round"/><g><g><path d="M217.06431,177.94989v4.09091" fill="none" stroke="#b6b6b6" stroke-width="2.5" stroke-linecap="round"/><path d="M218.5193,183.02565v-3.91667" fill="none" stroke="#115e78" stroke-width="0.5" stroke-linecap="round"/><path d="M218.72077,183.24535v-4.31818h1.56691v4.31818z" fill="#136985" stroke="none" stroke-width="0" stroke-linecap="butt"/></g><path d="M217.46727,182.2908l0.04476,-4.18182" fill="none" stroke="#c2c2c2" stroke-width="1.5" stroke-linecap="round"/></g><g data-paper-data="{&quot;index&quot;:null}"><g><path d="M263.06447,177.94989v4.09091" fill="none" stroke="#b6b6b6" stroke-width="2.5" stroke-linecap="round"/><path d="M261.60947,183.02564v-3.91666" fill="none" stroke="#115e78" stroke-width="0.5" stroke-linecap="round"/><path d="M259.8411,183.24535v-4.31818h1.56692v4.31819z" fill="#136985" stroke="none" stroke-width="0" stroke-linecap="butt"/></g><path d="M262.66155,182.2908l-0.04476,-4.18182" fill="none" stroke="#c2c2c2" stroke-width="1.5" stroke-linecap="round"/></g><g fill="none" stroke-width="2" stroke-linecap="round"><path d="M227.19149,171.04763v9.45026" stroke="url(#color-21)"/><path d="M223.74429,173.47077v7.14828" stroke="url(#color-22)"/></g><g data-paper-data="{&quot;index&quot;:null}" fill="none" stroke-width="2" stroke-linecap="round"><path d="M252.79939,180.49789v-9.45026" stroke="url(#color-23)"/><path d="M256.24656,180.61906v-7.14828" stroke="url(#color-24)"/></g><path d="M237.24271,173.76976v-11.79798h5.69064v11.79798z" fill="url(#color-25)" stroke="none" stroke-width="0" stroke-linecap="butt"/><path d="M242.253,162.01588c0,0.25833 -0.94981,0.46774 -2.12146,0.46774c-1.17166,0 -2.12148,-0.20941 -2.12148,-0.46774c0,-0.25833 0.94982,-0.46775 2.12148,-0.46775c1.17166,0 2.12146,0.20942 2.12146,0.46775z" fill="url(#color-26)" stroke="#7e7e7e" stroke-width="0.5" stroke-linecap="butt"/><path d="M214.15426,178.86467l25.97438,0.125l-0.04653,21.91417l-8.96099,-0.03917l-17.38655,-8.625z" fill="#3dbce6" stroke="#b6b6b6" stroke-width="0" stroke-linecap="round"/><path d="M214.60428,192.53621l0.01263,-13.58974" fill="none" stroke="#0098ca" stroke-width="0.5" stroke-linecap="round"/><path d="M215.8607,179.88452l-0.07576,12.23077" fill="none" stroke="#2fb2de" stroke-width="2" stroke-linecap="round"/><path d="M214.92179,180.24806v-1.35714h1.89948v1.35714z" fill="#00bcfb" stroke="none" stroke-width="0" stroke-linecap="butt"/><path d="M238.84122,180.31949v19.28572" fill="none" stroke="#3195b6" stroke-width="2.5" stroke-linecap="round"/><path d="M237.64529,183.74806v-4.71428h2.4623v4.71428z" fill="#f00000" stroke="none" stroke-width="0" stroke-linecap="butt"/><path d="M228.97006,191.90133v-7.1875" fill="none" stroke="#00bcfb" stroke-width="1" stroke-linecap="round"/><path d="M230.75524,192.46383l0.12311,-8.6875" fill="none" stroke="#f50000" stroke-width="1" stroke-linecap="round"/><path d="M219.61333,181.15133v7.9375" fill="none" stroke="#2fb2de" stroke-width="1" stroke-linecap="round"/><path d="M225.52288,182.08883v11.875" fill="none" stroke="#2fb2de" stroke-width="1" stroke-linecap="round"/><path d="M233.89468,184.27633l-0.06155,11.1875" fill="none" stroke="#fa0000" stroke-width="1" stroke-linecap="round"/><path d="M222.99899,189.21383l-0.12311,5.125" fill="none" stroke="#2fb2de" stroke-width="1" stroke-linecap="round"/><path d="M236.29543,192.40133l-0.06156,-11" fill="none" stroke="#fa0000" stroke-width="1" stroke-linecap="round"/><path d="M266.4321,192.23967l-17.38654,8.625l-8.96099,0.03917l-0.04653,-21.91417l25.97438,-0.125z" fill="#3dbce6" stroke="#b6b6b6" stroke-width="0" stroke-linecap="round"/><path d="M267.29393,191.86467v-13.125" fill="none" stroke="#b6b6b6" stroke-width="3" stroke-linecap="round"/><path d="M265.54981,178.94647l0.01262,13.58974" fill="none" stroke="#0098ca" stroke-width="0.5" stroke-linecap="round"/><path d="M266.8062,178.88452v13" fill="none" stroke="#c2c2c2" stroke-width="2" stroke-linecap="round"/><path d="M264.30602,179.88452l0.07576,12.23077" fill="none" stroke="#2fb2de" stroke-width="2" stroke-linecap="round"/><path d="M263.34547,180.24806v-1.35714h1.89949v1.35714z" fill="#00b1ec" stroke="none" stroke-width="0" stroke-linecap="butt"/><path d="M241.32553,199.60521v-19.28572" fill="none" stroke="#3195b6" stroke-width="2.5" stroke-linecap="round"/><path d="M240.05916,183.74806v-4.71428h2.46229v4.71428z" fill="#f00000" stroke="none" stroke-width="0" stroke-linecap="butt"/><path d="M251.19669,191.90133v-7.1875" fill="none" stroke="#00bcfb" stroke-width="1" stroke-linecap="round"/><path d="M249.28843,183.77633l0.12311,8.6875" fill="none" stroke="#f50000" stroke-width="1" stroke-linecap="round"/><path d="M260.55339,181.15133v7.9375" fill="none" stroke="#2fb2de" stroke-width="1" stroke-linecap="round"/><path d="M254.64393,193.96383v-11.875" fill="none" stroke="#2fb2de" stroke-width="1" stroke-linecap="round"/><path d="M246.27209,184.27633l0.06155,11.1875" fill="none" stroke="#fa0000" stroke-width="1" stroke-linecap="round"/><path d="M257.29085,194.33883l-0.12311,-5.125" fill="none" stroke="#2fb2de" stroke-width="1" stroke-linecap="round"/><path d="M243.87137,192.40133l0.06156,-11" fill="none" stroke="#fa0000" stroke-width="1" stroke-linecap="round"/><path d="M240.90702,167.61264v-4.77419h0.25417v4.77419z" fill="#1dfffb" stroke="none" stroke-width="0" stroke-linecap="butt"/><path d="M241.53057,153.41091v17.45455c0,0 -0.40553,0.95908 -1.52215,0.90909c-1.09107,-0.04885 -1.34307,-0.90909 -1.34307,-0.90909l-0.08954,-17.45455" fill="none" stroke="#0c4152" stroke-width="1" stroke-linecap="round"/><path d="M230.60805,198.72782l0.17795,-37.58147l6.29023,-5.42857v15.66277c0,0 0.78822,1.92095 2.93219,1.92095c2.10649,0 2.88629,-1.79051 2.88629,-1.79051v-15.95287l6.44749,5.42857l-0.21209,37.7619l-2.90091,0.71141l-11.39406,0.0566z" fill="#0f546c" stroke="#0f546c" stroke-width="2.5" stroke-linecap="round"/><path d="M235.27288,177.21421l0.10943,18.33333" fill="none" stroke="#10576f" stroke-width="1" stroke-linecap="round"/><path d="M246.873,188.99198l-0.10943,-11.77777" fill="none" stroke="#10576f" stroke-width="1" stroke-linecap="round"/><path d="M244.24658,195.43642l-0.21887,-10.66666" fill="none" stroke="#10576f" stroke-width="1" stroke-linecap="round"/><path d="M237.35213,186.21421v13.33333" fill="none" stroke="#10576f" stroke-width="1" stroke-linecap="round"/><path d="M242.71448,173.65865l-0.10943,7" fill="none" stroke="#10576f" stroke-width="1" stroke-linecap="round"/><path d="M234.50684,159.3253l-0.21887,13.77777" fill="none" stroke="#10576f" stroke-width="1" stroke-linecap="round"/><path d="M247.96737,172.43642l0.21887,-12.11111" fill="none" stroke="#fa0000" stroke-width="1" stroke-linecap="round"/><path d="M245.23151,173.99198l0.3283,-13" fill="none" stroke="#10576f" stroke-width="1" stroke-linecap="round"/><path d="M239.15703,167.52489v-4.7h0.19699v4.7z" fill="url(#color-27)" stroke="none" stroke-width="0" stroke-linecap="butt"/><path d="M240.01742,167.70942v-4.80645h0.2224v4.80645z" fill="#1dfffb" stroke="none" stroke-width="0" stroke-linecap="butt"/><path d="M238.44713,175.83195l1.3934,-1.05738l1.4833,0.91167v7.72276l-1.43834,0.54738l-1.43834,-0.6931z" fill="#8cffff" stroke="#7e7e7e" stroke-width="0.5" stroke-linecap="round"/><path d="M241.21998,175.69407l-1.41582,1.125l-1.29271,-0.875" fill="none" stroke="#55eded" stroke-width="0.5" stroke-linecap="round"/><path d="M238.75768,183.19407l0.98492,-0.6875l1.23114,0.8125" fill="none" stroke="#55eded" stroke-width="0.5" stroke-linecap="round"/><path d="M240.05039,183.63157l-0.18467,-0.5625l-0.06156,-6.5625l0.06156,-1.5" fill="none" stroke="#4fdada" stroke-width="0.5" stroke-linecap="round"/><path d="M238.44713,175.83195l1.3934,-1.05738l1.4833,0.91167v7.72276l-1.43834,0.54738l-1.43834,-0.6931z" fill="none" stroke="#7e7e7e" stroke-width="0.5" stroke-linecap="round"/><path d="M240.11932,176.94953l0.91457,-0.82143l0.02345,6.9881l-0.96148,-0.78572z" fill="#5cffff" stroke="none" stroke-width="0" stroke-linecap="round"/><path d="M240.10346,182.99549l0.68225,0.37012l-0.50834,0.13243z" fill="#57f3f3" stroke="#56eeee" stroke-width="0" stroke-linecap="round"/><path d="M239.58241,182.32109l-0.91457,0.66353l-0.02345,-6.80388l0.96147,0.78572z" data-paper-data="{&quot;index&quot;:null}" fill="#87ffff" stroke="none" stroke-width="0" stroke-linecap="round"/><path d="M236.29142,200.90477v-10.7h3.74269v10.7z" fill="url(#color-28)" stroke="none" stroke-width="0" stroke-linecap="butt"/><path d="M239.9356,200.90477v-10.7h3.74269v10.7z" data-paper-data="{&quot;index&quot;:null}" fill="url(#color-29)" stroke="none" stroke-width="0" stroke-linecap="butt"/><path d="M239.75649,183.62961l-0.74162,-0.34296l0.6045,-0.37011z" data-paper-data="{&quot;index&quot;:null}" fill="#5afbfb" stroke="#56eeee" stroke-width="0" stroke-linecap="round"/><path d="M234.94453,156.23007l-0.10944,13.44444l-1.96983,1.88889v11.77778l3.93967,3.77778v13.66667h-5.58121l-1.5321,-0.66667l-0.10944,-39.33333z" fill="#146e8c" stroke="#146e8c" stroke-width="0.5" stroke-linecap="round"/><path d="M229.58225,200.10309v-39.44444l3.7208,-3.33333v43.55556h-2.29815z" fill="url(#color-30)" stroke="none" stroke-width="0" stroke-linecap="butt"/><path d="M250.37496,160.77769l-0.10943,39.33333l-1.5321,0.66667h-5.5812v-13.66667l3.93967,-3.77777v-11.77778l-1.96983,-1.88889l-0.10944,-13.44444z" data-paper-data="{&quot;index&quot;:null}" fill="#146e8c" stroke="#146e8c" stroke-width="0.5" stroke-linecap="round"/><path d="M229.35787,192.93828l-14.77377,-7.6l-0.09849,-6.44445l14.87226,0.07778z" fill="#146e8c" stroke="#146e8c" stroke-width="0.5" stroke-linecap="round"/><path d="M219.14484,188.09109l-4.84782,-2.49384l-0.10685,-6.99198l4.85012,0.02536z" fill="url(#color-31)" stroke="#ff9b00" stroke-width="0" stroke-linecap="round"/><path d="M250.59381,199.96024v-13.11111h2.84532v11.74943z" fill="url(#color-32)" stroke="none" stroke-width="0" stroke-linecap="butt"/><path d="M250.59927,178.97161l14.87227,-0.07778l-0.0985,6.44445l-14.77377,7.6z" data-paper-data="{&quot;index&quot;:null}" fill="#146e8c" stroke="#146e8c" stroke-width="0.5" stroke-linecap="round"/><g fill="none" stroke-linecap="round"><path d="M212.87281,178.73967v13.125" stroke="#b6b6b6" stroke-width="3"/><path d="M213.36054,191.88452v-13" stroke="#c2c2c2" stroke-width="2"/></g><path d="M237.76878,184.73335v-12.5h4.72761v12.5z" fill="#0f546c" stroke="none" stroke-width="0" stroke-linecap="butt"/><g stroke="#a6caca" stroke-width="0.5" stroke-linecap="round"><path d="M241.36243,180.55772c0,0 -0.54969,1.7675 -1.22675,1.7675c-0.67706,0 -1.22675,-1.7675 -1.22675,-1.7675l0.01755,-4.93504c0,0 0.54969,-1.7675 1.22675,-1.7675c0.67707,0 1.22677,1.7675 1.22677,1.7675z" fill="url(#color-33)"/><path d="M239.04442,176.19633h2.11898" fill="none"/><path d="M239.04444,177.58407h2.02267" fill="none"/><path d="M241.1634,179.80444h-2.21529" fill="none"/><path d="M241.07947,178.39883h-2.21529" fill="none"/></g><path d="M250.4492,193.34383v-14.60714h2.95475v13.17857z" fill="url(#color-34)" stroke="none" stroke-width="0" stroke-linecap="butt"/><path d="M238.12448,194.18308v-2.83333h3.69891v2.83333z" fill="url(#color-35)" stroke="none" stroke-width="0" stroke-linecap="butt"/><path d="M239.38571,191.52779v2.41667" fill="none" stroke="#9e9e9e" stroke-width="0.5" stroke-linecap="round"/><path d="M240.61687,191.52779v2.41667" fill="none" stroke="#9e9e9e" stroke-width="0.5" stroke-linecap="round"/><path d="M261.02358,178.63063l4.85013,-0.02536l-0.10686,6.99199l-4.84783,2.49384z" data-paper-data="{&quot;index&quot;:null}" fill="url(#color-36)" stroke="#ff9b00" stroke-width="0" stroke-linecap="round"/><path d="M235.00489,156.04168l-0.24623,13.53125l-1.93905,1.96875v9.4375l-3.26254,-3.3125v-17z" fill="url(#color-37)" stroke="url(#color-38)" stroke-width="0.5" stroke-linecap="round"/><path d="M250.39422,160.54168v17l-3.26254,3.3125v-9.4375l-1.93905,-1.96875l-0.24623,-13.53125z" data-paper-data="{&quot;index&quot;:null}" fill="url(#color-39)" stroke="url(#color-40)" stroke-width="0.5" stroke-linecap="round"/><path d="M234.2231,187.03335v-2.9l2.85627,2.9v2.9z" fill="url(#color-41)" stroke="url(#color-42)" stroke-width="0" stroke-linecap="butt"/><path d="M242.89037,189.73335v-2.9l2.85627,-2.9v2.9z" data-paper-data="{&quot;index&quot;:null}" fill="url(#color-43)" stroke="url(#color-44)" stroke-width="0" stroke-linecap="butt"/><path d="M234.97409,155.79168v7.75l-5.54017,-1.625v-1.375z" fill="url(#color-45)" stroke="url(#color-46)" stroke-width="0.5" stroke-linecap="round"/><path d="M250.48654,160.41668v1.54166l-5.54017,1.45834v-7.75z" data-paper-data="{&quot;index&quot;:null}" fill="url(#color-47)" stroke="url(#color-48)" stroke-width="0.5" stroke-linecap="round"/></g><path d="M237.73052,200.28308v-5.33334h4.48685v5.33334z" fill="url(#color-49)" stroke="none" stroke-width="0" stroke-linecap="butt"/></g><g><path d="M234.96939,206.10898v-4.27273c0,0 2.53809,-0.51228 4.72727,-0.5c2.18839,0.01228 4.72727,0.5 4.72727,0.5v4.27273c0,0 -2.62239,-0.63636 -4.77273,-0.63636c-2.18066,0 -4.68182,0.63636 -4.68182,0.63636z" fill="url(#color-50)" stroke="none" stroke-width="0" stroke-linecap="butt"/><path d="M243.66669,205.54808v-3.68" fill="none" stroke="#656565" stroke-width="0.5" stroke-linecap="round"/><path d="M242.50668,205.30808v-3.64" fill="none" stroke="#6a6a6a" stroke-width="0.5" stroke-linecap="round"/><path d="M241.38667,205.18808l0.04,-3.64" fill="none" stroke="#6f6f6f" stroke-width="0.5" stroke-linecap="round"/><path d="M240.30666,201.46808l-0.08,3.68" fill="none" stroke="#747474" stroke-width="0.5" stroke-linecap="round"/><path d="M239.14669,201.42808l-0.04,3.76" fill="none" stroke="#787878" stroke-width="0.5" stroke-linecap="round"/><path d="M238.02665,205.26808v-3.76" fill="none" stroke="#7b7b7b" stroke-width="0.5" stroke-linecap="round"/></g></g></g></svg>