<svg version="1.1" xmlns="http://www.w3.org/2000/svg" xmlns:xlink="http://www.w3.org/1999/xlink" width="280.05366" height="200.28744" viewBox="0,0,280.05366,200.28744"><defs><linearGradient x1="103.14125" y1="166.42251" x2="165.84445" y2="166.42251" gradientUnits="userSpaceOnUse" id="color-1"><stop offset="0" stop-color="#0d9700"/><stop offset="1" stop-color="#0a7e00"/></linearGradient><linearGradient x1="315.08172" y1="166.42251" x2="377.78495" y2="166.42251" gradientUnits="userSpaceOnUse" id="color-2"><stop offset="0" stop-color="#0a7e00"/><stop offset="1" stop-color="#0d9700"/></linearGradient><linearGradient x1="140.79872" y1="91.13944" x2="140.79872" y2="99.01071" gradientUnits="userSpaceOnUse" id="color-3"><stop offset="0" stop-color="#096900"/><stop offset="1" stop-color="#096900" stop-opacity="0"/></linearGradient><linearGradient x1="140.41449" y1="93.10246" x2="140.41449" y2="97.2696" gradientUnits="userSpaceOnUse" id="color-4"><stop offset="0" stop-color="#797979"/><stop offset="1" stop-color="#616161"/></linearGradient><linearGradient x1="140.41449" y1="93.33395" x2="140.41449" y2="89.1668" gradientUnits="userSpaceOnUse" id="color-5"><stop offset="0" stop-color="#797979"/><stop offset="1" stop-color="#616161"/></linearGradient><linearGradient x1="340.59047" y1="92.75999" x2="340.59047" y2="100.63127" gradientUnits="userSpaceOnUse" id="color-6"><stop offset="0" stop-color="#096900"/><stop offset="1" stop-color="#096900" stop-opacity="0"/></linearGradient><linearGradient x1="340.70622" y1="93.223" x2="340.70622" y2="97.39016" gradientUnits="userSpaceOnUse" id="color-7"><stop offset="0" stop-color="#797979"/><stop offset="1" stop-color="#616161"/></linearGradient><linearGradient x1="340.70622" y1="93.45451" x2="340.70622" y2="89.28737" gradientUnits="userSpaceOnUse" id="color-8"><stop offset="0" stop-color="#797979"/><stop offset="1" stop-color="#616161"/></linearGradient><linearGradient x1="135.96661" y1="188.02566" x2="157.80561" y2="188.02566" gradientUnits="userSpaceOnUse" id="color-9"><stop offset="0" stop-color="#0a7300"/><stop offset="1" stop-color="#096c00"/></linearGradient><radialGradient cx="252.83341" cy="159.08333" r="28.75" gradientUnits="userSpaceOnUse" id="color-10"><stop offset="0" stop-color="#075b01"/><stop offset="1" stop-color="#075b01" stop-opacity="0"/></radialGradient><radialGradient cx="223.83341" cy="113.75005" r="28.75" gradientUnits="userSpaceOnUse" id="color-11"><stop offset="0" stop-color="#075b01"/><stop offset="1" stop-color="#075b01" stop-opacity="0"/></radialGradient><radialGradient cx="256.50005" cy="112.41671" r="28.75" gradientUnits="userSpaceOnUse" id="color-12"><stop offset="0" stop-color="#075b01"/><stop offset="1" stop-color="#075b01" stop-opacity="0"/></radialGradient><radialGradient cx="236.83341" cy="112.75005" r="28.75" gradientUnits="userSpaceOnUse" id="color-13"><stop offset="0" stop-color="#075b01"/><stop offset="1" stop-color="#075b01" stop-opacity="0"/></radialGradient><radialGradient cx="225.16672" cy="159.08333" r="28.75" gradientUnits="userSpaceOnUse" id="color-14"><stop offset="0" stop-color="#075b01"/><stop offset="1" stop-color="#075b01" stop-opacity="0"/></radialGradient><radialGradient cx="222.83341" cy="127.75005" r="28.75" gradientUnits="userSpaceOnUse" id="color-15"><stop offset="0" stop-color="#075b01"/><stop offset="1" stop-color="#075b01" stop-opacity="0"/></radialGradient><radialGradient cx="222.50007" cy="142.41669" r="28.75" gradientUnits="userSpaceOnUse" id="color-16"><stop offset="0" stop-color="#075b01"/><stop offset="1" stop-color="#075b01" stop-opacity="0"/></radialGradient><radialGradient cx="257.1667" cy="145.41669" r="28.75" gradientUnits="userSpaceOnUse" id="color-17"><stop offset="0" stop-color="#075b01"/><stop offset="1" stop-color="#075b01" stop-opacity="0"/></radialGradient><radialGradient cx="257.83337" cy="127.41671" r="28.75" gradientUnits="userSpaceOnUse" id="color-18"><stop offset="0" stop-color="#075b01"/><stop offset="1" stop-color="#075b01" stop-opacity="0"/></radialGradient><linearGradient x1="185.50007" y1="154.11111" x2="196.50007" y2="154.11111" gradientUnits="userSpaceOnUse" id="color-19"><stop offset="0" stop-color="#0a7401"/><stop offset="1" stop-color="#0a7401" stop-opacity="0"/></linearGradient><linearGradient x1="294.50005" y1="154.11111" x2="283.50005" y2="154.11111" gradientUnits="userSpaceOnUse" id="color-20"><stop offset="0" stop-color="#0a7401"/><stop offset="1" stop-color="#0a7401" stop-opacity="0"/></linearGradient><linearGradient x1="240.25006" y1="212.16669" x2="240.25006" y2="223.16669" gradientUnits="userSpaceOnUse" id="color-21"><stop offset="0" stop-color="#0a7401" stop-opacity="0"/><stop offset="1" stop-color="#0a7401"/></linearGradient><linearGradient x1="317.25005" y1="196.66669" x2="331.25005" y2="196.66669" gradientUnits="userSpaceOnUse" id="color-22"><stop offset="0" stop-color="#042e00" stop-opacity="0"/><stop offset="1" stop-color="#042e00"/></linearGradient><linearGradient x1="335.25005" y1="196.66669" x2="349.25006" y2="196.66669" gradientUnits="userSpaceOnUse" id="color-23"><stop offset="0" stop-color="#042e00"/><stop offset="1" stop-color="#042e00" stop-opacity="0"/></linearGradient><linearGradient x1="130.75" y1="197.91669" x2="144.75" y2="197.91669" gradientUnits="userSpaceOnUse" id="color-24"><stop offset="0" stop-color="#042e00" stop-opacity="0"/><stop offset="1" stop-color="#042e00"/></linearGradient><linearGradient x1="162.5" y1="197.75005" x2="148.5" y2="197.75005" gradientUnits="userSpaceOnUse" id="color-25"><stop offset="0" stop-color="#042e00" stop-opacity="0"/><stop offset="1" stop-color="#042e00"/></linearGradient><linearGradient x1="135.96661" y1="183.39547" x2="157.80561" y2="183.39547" gradientUnits="userSpaceOnUse" id="color-26"><stop offset="0" stop-color="#0b8000"/><stop offset="1" stop-color="#0a7800"/></linearGradient><linearGradient x1="135.89846" y1="231.03264" x2="157.82576" y2="231.03264" gradientUnits="userSpaceOnUse" id="color-27"><stop offset="0" stop-color="#0a7300"/><stop offset="1" stop-color="#096c00"/></linearGradient><linearGradient x1="135.89846" y1="226.40245" x2="157.82576" y2="226.40245" gradientUnits="userSpaceOnUse" id="color-28"><stop offset="0" stop-color="#0b8000"/><stop offset="1" stop-color="#0a7800"/></linearGradient><linearGradient x1="344.06945" y1="230.33808" x2="322.14207" y2="230.33808" gradientUnits="userSpaceOnUse" id="color-29"><stop offset="0" stop-color="#0a7300"/><stop offset="1" stop-color="#096c00"/></linearGradient><linearGradient x1="344.00129" y1="187.3311" x2="322.16229" y2="187.3311" gradientUnits="userSpaceOnUse" id="color-30"><stop offset="0" stop-color="#0a7300"/><stop offset="1" stop-color="#096c00"/></linearGradient><linearGradient x1="344.06945" y1="225.47641" x2="322.14207" y2="225.47641" gradientUnits="userSpaceOnUse" id="color-31"><stop offset="0" stop-color="#0b8000"/><stop offset="1" stop-color="#0a7800"/></linearGradient><linearGradient x1="344.00129" y1="182.46943" x2="322.16229" y2="182.46943" gradientUnits="userSpaceOnUse" id="color-32"><stop offset="0" stop-color="#0b8000"/><stop offset="1" stop-color="#0a7800"/></linearGradient><radialGradient cx="149.5" cy="165.00292" r="3.8" gradientUnits="userSpaceOnUse" id="color-33"><stop offset="0" stop-color="#5d5d5d"/><stop offset="1" stop-color="#727272"/></radialGradient><radialGradient cx="149.625" cy="228.75292" r="3.8" gradientUnits="userSpaceOnUse" id="color-34"><stop offset="0" stop-color="#5d5d5d"/><stop offset="1" stop-color="#727272"/></radialGradient><radialGradient cx="149.5" cy="185.71719" r="3.8" gradientUnits="userSpaceOnUse" id="color-35"><stop offset="0" stop-color="#5d5d5d"/><stop offset="1" stop-color="#727272"/></radialGradient><radialGradient cx="149.35717" cy="206.86008" r="3.8" gradientUnits="userSpaceOnUse" id="color-36"><stop offset="0" stop-color="#5d5d5d"/><stop offset="1" stop-color="#727272"/></radialGradient><radialGradient cx="330.23339" cy="163.50292" r="3.8" gradientUnits="userSpaceOnUse" id="color-37"><stop offset="0" stop-color="#5d5d5d"/><stop offset="1" stop-color="#727272"/></radialGradient><radialGradient cx="330.10839" cy="227.25292" r="3.8" gradientUnits="userSpaceOnUse" id="color-38"><stop offset="0" stop-color="#5d5d5d"/><stop offset="1" stop-color="#727272"/></radialGradient><radialGradient cx="330.23339" cy="184.21719" r="3.8" gradientUnits="userSpaceOnUse" id="color-39"><stop offset="0" stop-color="#5d5d5d"/><stop offset="1" stop-color="#727272"/></radialGradient><radialGradient cx="330.37622" cy="205.36008" r="3.8" gradientUnits="userSpaceOnUse" id="color-40"><stop offset="0" stop-color="#5d5d5d"/><stop offset="1" stop-color="#727272"/></radialGradient><radialGradient cx="134.75" cy="125.33335" r="20.33333" gradientUnits="userSpaceOnUse" id="color-41"><stop offset="0" stop-color="#000000"/><stop offset="1" stop-color="#000000" stop-opacity="0"/></radialGradient><radialGradient cx="345.25003" cy="124.33335" r="20.33334" gradientUnits="userSpaceOnUse" id="color-42"><stop offset="0" stop-color="#000000"/><stop offset="1" stop-color="#000000" stop-opacity="0"/></radialGradient></defs><g transform="translate(-100.94907,-73.12137)"><g data-paper-data="{&quot;isPaintingLayer&quot;:true}" fill-rule="nonzero" stroke-linejoin="miter" stroke-miterlimit="10" stroke-dasharray="" stroke-dashoffset="0" style="mix-blend-mode: normal"><path d="M170.94629,265.77423v-170.50625l12.79725,-12.42427h112.97607l12.72059,11.96125v170.96927c0,0 -3.3003,-1.5 -6.1902,-1.5c-12.19899,0 -93.86629,1.54068 -121.48116,1.88839c-5.53873,0.06974 -10.82255,-0.38839 -10.82255,-0.38839z" fill="#096600" stroke="none" stroke-width="NaN" stroke-linecap="butt"/><path d="M112.88746,254.15988l-9.86737,-10.61287c0,0 1.56336,-34.17107 1.60083,-54.38244c0.04721,-25.46187 -1.33998,-86.30729 -1.33998,-86.30729l12.95066,-11.07425l49.49169,-0.13335v152.77027l-8.20556,9.73994z" data-paper-data="{&quot;index&quot;:null}" fill="#096600" stroke="none" stroke-width="0" stroke-linecap="butt"/><path d="M323.28725,254.15988l-8.20556,-9.73993v-152.77027l49.49169,0.13335l12.95066,11.07425c0,0 -3.3593,75.38582 -3.31123,101.30945c0.0297,16.02014 3.57209,39.38028 3.57209,39.38028l-9.86737,10.61287z" data-paper-data="{&quot;index&quot;:null}" fill="#096600" stroke="none" stroke-width="0" stroke-linecap="butt"/><path d="M156.65706,231.78069v-140.75707h172.2422v140.75707z" fill="#096600" stroke="none" stroke-width="0" stroke-linecap="butt"/><path d="M170.94629,256.51392c0,0 -0.249,-29.28876 0.33261,-59.14593c0.36752,-18.8668 1.66739,-37.96057 1.66739,-50.03465c0,-23.36937 -2,-61.32566 -2,-61.32566l12.79725,-12.42427c0,0 16.65612,4 28.75646,4c10.41009,0 28.63747,-3.01087 47.17538,-4.01626c18.338,-0.99455 37.04422,0.01626 37.04422,0.01626l12.72059,11.96126c0,0 2.42179,17.76995 1.88716,38.7588c-0.45969,18.04679 -3.88716,38.47332 -3.88716,52.02987c0,27.55682 2,80.1806 2,80.1806c0,0 -20.50696,1.22042 -42.92781,0.45607c-21.56199,-0.73508 -44.81889,-3.45607 -57.01239,-3.45607c-12.95492,0 -38.55371,3 -38.55371,3z" fill="#0d9700" stroke="none" stroke-width="NaN" stroke-linecap="butt"/><path d="M113.00863,247.67761l-9.86737,-10.61286c0,0 -1.27326,-6.88989 -1.02774,-14.35323c0.28184,-8.56744 2.08841,-18.36719 2.10512,-27.38242c0.00799,-4.311 1.47331,-10.08935 0.83399,-16.64318c-0.89995,-9.22553 -4.00725,-19.98768 -4.10013,-30.35664c-0.10834,-12.0943 2.3863,-23.91272 2.95887,-33.21424c0.68895,-11.19201 -0.50926,-18.74002 -0.50926,-18.74002l12.95065,-11.07425c0,0 14.38239,-2.03875 22.15507,-2.05969c8.63389,-0.02326 27.33663,1.92634 27.33663,1.92634v152.77027l-8.20557,9.73993c0,0 -8.28209,-0.7999 -15.34403,-0.57871c-3.13931,0.09833 -5.20788,3.33028 -8.04312,3.58697c-5.04453,0.45671 -10.35038,-2.00827 -13.00174,-2.00827c-3.16093,0 -8.24137,-1 -8.24137,-1z" fill="url(#color-1)" stroke="none" stroke-width="0" stroke-linecap="butt"/><path d="M323.28725,247.67761l-8.20556,-9.73994v-152.77027c0,0 19.05183,3.04594 27.4078,3.06846c8.13536,0.02192 22.08389,-2.93511 22.08389,-2.93511c0,0 3.25683,4.64006 5.40311,6.47536c2.17035,1.85589 7.54755,4.59889 7.54755,4.59889c0,0 -1.84392,10.55745 -1.133,27.26439c0.19687,4.6265 4.28291,11.5712 4.18166,16.65556c-0.1872,9.40068 0.42296,19.27878 -0.54462,28.50574c-1.3364,12.74405 -4.32109,24.24597 -4.30758,31.53223c0.01301,7.01531 2.48223,15.18383 2.97,22.3378c0.536,7.86147 -0.9056,14.39401 -0.9056,14.39401l-9.86737,10.61287c0,0 -6.2934,-0.74738 -12.10199,-0.49608c-5.74818,0.24869 -10.99055,1.49608 -15.06554,1.49609c-5.96521,0 -17.46275,-1 -17.46275,-1z" data-paper-data="{&quot;index&quot;:null}" fill="url(#color-2)" stroke="none" stroke-width="0" stroke-linecap="butt"/><path d="M298.57169,223.06058v14.81653l-9.26033,7.87129c0,0 -26.87177,-0.5 -44.06136,-0.5c-9.8112,0 -25.8414,1.18229 -38.98452,1.32673c-8.62409,0.09478 -17.42874,-0.82673 -17.42874,-0.82673l-7.35703,-7.425l-0.05124,-15.26282z" data-paper-data="{&quot;index&quot;:null}" fill="#0b8600" stroke="none" stroke-width="0" stroke-linecap="butt"/><path d="M119.49997,99.01071v-7.87128h42.59753v7.87129z" fill="url(#color-3)" stroke="none" stroke-width="0" stroke-linecap="butt"/><g stroke="none" stroke-width="0" stroke-linecap="butt"><path d="M118.99997,97.2696v-4.16715h42.82904v4.16715c0,0 -8.92057,0.5 -15.07901,0.5c-3.29858,0 -8.81708,-1.18119 -14.06792,-1.38932c-7.08469,-0.28082 -13.68211,0.88932 -13.68211,0.88932z" fill="url(#color-4)"/><path d="M161.82898,89.1668v4.16715h-42.82904v-4.16715c0,0 8.03722,1 12.25006,1c3.84496,0 11.88731,-1.24552 18.51893,-1.49325c6.75208,-0.25223 12.06004,0.49325 12.06004,0.49325z" data-paper-data="{&quot;index&quot;:null}" fill="url(#color-5)"/></g><path d="M319.29161,100.63127v-7.87128h42.59753v7.87129z" data-paper-data="{&quot;index&quot;:null}" fill="url(#color-6)" stroke="none" stroke-width="0" stroke-linecap="butt"/><g stroke="none" stroke-width="0" stroke-linecap="butt"><path d="M319.29161,97.39016v-4.16715h42.82905v4.16715c0,0 -5.75538,1.36379 -12.8607,1.23356c-6.50821,-0.11929 -14.22951,-1.73356 -18.00995,-1.73356c-5.20842,0 -11.95839,0.5 -11.95839,0.5z" fill="url(#color-7)"/><path d="M362.12073,89.28737v4.16715h-42.82905v-4.16715c0,0 11.71089,0.5 17.95832,0.5c4.02597,0 8.12109,-1.13611 13.50856,-1.2663c4.93845,-0.11934 11.36216,0.7663 11.36216,0.7663z" data-paper-data="{&quot;index&quot;:null}" fill="url(#color-8)"/></g><path d="M135.96661,219.27925v-62.50725h21.83895v62.50725z" fill="url(#color-9)" stroke="none" stroke-width="0" stroke-linecap="butt"/><path d="M194.85594,271.90882v-10.95807h88.43619v10.95807c0,0 -13.74339,-1.05851 -27.99714,-0.65456c-12.01954,0.34063 -24.11306,2.15456 -31.54499,2.15456c-11.75576,0 -28.89406,-1.5 -28.89406,-1.5z" fill="#096600" stroke="none" stroke-width="0" stroke-linecap="butt"/><path d="M195.31894,264.92661l-0.5,-14.41467c0,0 16.52862,1.98546 27.90462,2.62502c7.64316,0.4297 21.70746,0.14892 34.01074,0.26051c14.08699,0.12778 27.02082,2.11447 27.02082,2.11447v9.41467c0,0 -15.10194,-0.39577 -30.93954,0.14847c-12.97628,0.44591 -26.28207,1.85153 -33.56558,1.85153c-9.2874,0 -23.93106,-2 -23.93106,-2z" fill="#0c8e00" stroke="none" stroke-width="0" stroke-linecap="butt"/><path d="M195.78198,186.40506v-87.04713h89.36222v87.04714l-16.87448,15.25723l-55.35611,0.02232z" fill="#0b8600" stroke="#000000" stroke-width="0" stroke-linecap="butt"/><path d="M195.78198,179.92286v-87.04713h89.36222v87.04713l-16.87448,15.25723l-55.35611,0.02232z" fill="#0c9200" stroke="#000000" stroke-width="0" stroke-linecap="butt"/><path d="M108.25006,218.66669v-52.5l18.25,-18.25v40.25l-7.625,7.625v22.875z" fill="#0d9c00" stroke="#000000" stroke-width="0" stroke-linecap="round"/><path d="M128.25,102.66672h30.5v27.25h-9.75l-20.75,-20.75z" fill="#0c9100" stroke="#0fb700" stroke-width="0" stroke-linecap="round"/><path d="M335.75006,106.16672l5.5,5.5h16v12l-8.5,8.5h-20v-22v-4.2h6.75" fill="#0c9100" stroke="#000000" stroke-width="0" stroke-linecap="round"/><path d="M353.08343,234.44446l9.16667,-9.16667v-32.83333h11.16667v42.66666l-6.33333,6.33334h-14z" fill="#0d9c00" stroke="#000000" stroke-width="0" stroke-linecap="round"/><path d="M353.08343,164.77781l11,-11h6.66667v11z" fill="#0d9c00" stroke="#000000" stroke-width="0" stroke-linecap="round"/><path d="M304.25005,134.44446l-12.5,12.49999v-12.66666h12.66667" data-paper-data="{&quot;index&quot;:null}" fill="#0d9c00" stroke="#000000" stroke-width="0" stroke-linecap="round"/><path d="M196.75007,212.77781h-12.66666v-12.66666l12.5,12.5" fill="#0d9c00" stroke="#000000" stroke-width="0" stroke-linecap="round"/><path d="M176.99931,118.66672h14.0841v12.58334h-4.5023l-9.58181,-9.58181z" fill="#0d9c00" stroke="#000000" stroke-width="0" stroke-linecap="round"/><path d="M296.50005,73.77778l-11,19h-89.33334l-12,-19.33333c0,0 20.68076,2.0584 34.07773,2.09815c9.88383,0.02933 26.62301,-1.87021 43.00763,-2.29646c17.99215,-0.46807 35.24798,0.53164 35.24798,0.53164z" fill="#0b8700" stroke="#000000" stroke-width="0" stroke-linecap="round"/><path d="M183.83341,74.11114l12,18.66667l-25,-6.33333z" fill="#0c9000" stroke="#000000" stroke-width="0" stroke-linecap="round"/><path d="M309.83337,85.77783l-25,6.33333l12,-18.66666z" data-paper-data="{&quot;index&quot;:null}" fill="#0c9000" stroke="#000000" stroke-width="0" stroke-linecap="round"/><path d="M224.08341,159.08333c0,-15.87819 12.87181,-28.75 28.75,-28.75c15.87819,0 28.75,12.87181 28.75,28.75c0,15.87819 -12.87181,28.75 -28.75,28.75c-15.87819,0 -28.75,-12.87181 -28.75,-28.75z" fill="url(#color-10)" stroke="none" stroke-width="0" stroke-linecap="butt"/><path d="M195.08341,113.75005c0,-15.87819 12.87181,-28.75 28.75,-28.75c15.87819,0 28.75,12.87181 28.75,28.75c0,15.87818 -12.87181,28.75 -28.75,28.75c-15.87819,0 -28.75,-12.87182 -28.75,-28.75z" fill="url(#color-11)" stroke="none" stroke-width="0" stroke-linecap="butt"/><path d="M227.75006,112.41671c0,-15.87819 12.87181,-28.75 28.75,-28.75c15.87818,0 28.75,12.87181 28.75,28.75c0,15.87818 -12.87182,28.75 -28.75,28.75c-15.87819,0 -28.75,-12.87182 -28.75,-28.75z" fill="url(#color-12)" stroke="none" stroke-width="0" stroke-linecap="butt"/><path d="M208.08341,112.75005c0,-15.87819 12.87181,-28.75 28.75,-28.75c15.87819,0 28.75,12.87181 28.75,28.75c0,15.87818 -12.87181,28.75 -28.75,28.75c-15.87819,0 -28.75,-12.87182 -28.75,-28.75z" fill="url(#color-13)" stroke="none" stroke-width="0" stroke-linecap="butt"/><path d="M196.41672,159.08333c0,-15.87819 12.87181,-28.75 28.75,-28.75c15.87819,0 28.75,12.87181 28.75,28.75c0,15.87819 -12.87181,28.75 -28.75,28.75c-15.87819,0 -28.75,-12.87181 -28.75,-28.75z" fill="url(#color-14)" stroke="none" stroke-width="0" stroke-linecap="butt"/><path d="M194.08341,127.75005c0,-15.87819 12.87181,-28.75 28.75,-28.75c15.87819,0 28.75,12.87181 28.75,28.75c0,15.87818 -12.87181,28.75 -28.75,28.75c-15.87819,0 -28.75,-12.87182 -28.75,-28.75z" fill="url(#color-15)" stroke="none" stroke-width="0" stroke-linecap="butt"/><path d="M193.75007,142.41669c0,-15.87819 12.87181,-28.75 28.75,-28.75c15.87819,0 28.75,12.87182 28.75,28.75c0,15.87819 -12.87181,28.75 -28.75,28.75c-15.87819,0 -28.75,-12.87181 -28.75,-28.75z" fill="url(#color-16)" stroke="none" stroke-width="0" stroke-linecap="butt"/><path d="M228.41674,145.41669c0,-15.87819 12.87182,-28.75 28.75,-28.75c15.87818,0 28.75,12.87182 28.75,28.75c0,15.87819 -12.87182,28.75 -28.75,28.75c-15.87819,0 -28.75,-12.87181 -28.75,-28.75z" fill="url(#color-17)" stroke="none" stroke-width="0" stroke-linecap="butt"/><path d="M206.89437,165.87523v-64.20219h65.90969v64.20219l-12.4459,11.25307l-40.82826,0.01646z" fill="#757575" stroke="#000000" stroke-width="0" stroke-linecap="butt"/><path d="M229.08341,127.41671c0,-15.87819 12.87181,-28.75 28.75,-28.75c15.87818,0 28.75,12.87181 28.75,28.75c0,15.87818 -12.87182,28.75 -28.75,28.75c-15.87819,0 -28.75,-12.87182 -28.75,-28.75z" fill="url(#color-18)" stroke="none" stroke-width="0" stroke-linecap="butt"/><path d="M206.89437,159.39297c0,0 -0.66667,-10.92616 -0.66667,-18.44853c0,-5.46679 1.4753,-15.63158 1.62822,-24.99419c0.17844,-10.92595 -0.96155,-20.75946 -0.96155,-20.75946h65.90969c0,0 0.30031,7.19596 -0.04833,15.70952c-0.31647,7.72793 -1.285,16.5415 -1.285,22.04413c0,9.37147 1.33333,26.44853 1.33333,26.44853l-12.4459,11.25308l-40.82826,0.01646z" fill="#8e8e8e" stroke="#000000" stroke-width="0" stroke-linecap="butt"/><path d="M266.62505,102.83339c-1.25,0 -1.25,-1.25 -1.25,-1.25l0.02427,-0.75486c-0.02382,-0.40099 -0.24472,-0.86893 -0.60794,-1.0405c-4.60942,0.22816 -9.10661,-0.85809 -13.79317,-0.46072c-5.54777,0.47038 -11.01529,0.75608 -16.62317,0.75608c-3.76947,0 -8.02975,0.13336 -11.73639,-0.52255c-3.97628,-0.70363 -8.15582,-2.33281 -11.37973,0.90644c0,0 -0.88388,0.88389 -1.76777,0c-0.88388,-0.88389 0,-1.76776 0,-1.76776c3.96991,-3.95333 8.72998,-2.51311 13.62027,-1.59356c3.5113,0.66026 7.67712,0.47745 11.26361,0.47745c5.52826,0 10.90783,-0.29548 16.37683,-0.74392c4.96517,-0.40712 9.79879,0.39871 14.70683,0.53928c1.06982,0.68148 2.06923,1.73282 2.39206,2.95949l0.02427,1.24515c0,0 0,1.25 -1.25,1.25z" fill="#9a9a9a" stroke="none" stroke-width="0.5" stroke-linecap="butt"/><path d="M225.41975,101.29695c0.66117,-1.21357 2.20532,-1.21357 2.20532,-1.21357l1.22634,0.01027c0.9109,0.08283 1.82181,0.16566 2.73271,0.24849c7.31992,0.56724 15.02724,1.34597 21.05936,6.00518c1.22735,0.948 4.97421,3.86814 5.57185,5.60675c1.08544,3.15761 -0.17151,4.73225 -0.92845,7.53752c-0.96452,3.57454 -1.07639,7.29633 -0.91437,10.97851c0.10456,2.37653 0.43075,4.96678 1.32649,7.19167c0.96708,2.40208 2.44847,3.68218 1.66561,6.65019c-0.47852,1.81415 -1.7794,3.30365 -2.66911,4.95548c-1.5165,-1.05219 -3.18518,-1.91338 -4.5495,-3.15655c-4.37475,-3.98628 -4.55657,-11.62581 -7.63593,-16.44457c-1.85675,-2.90556 -4.41312,-5.34683 -6.57709,-8.00868c-4.62734,-5.692 -8.21511,-11.29626 -14.09275,-15.85086c0,0 -1.97338,-1.53485 -0.43853,-3.50823c0.65533,-0.84256 1.39058,-1.04557 2.01806,-1.00158z" fill="#929292" stroke="none" stroke-width="0.5" stroke-linecap="butt"/><path d="M246.98234,160.05381c-0.66117,1.21356 -2.20532,1.21357 -2.20532,1.21357l-1.22634,-0.01027c-0.9109,-0.08283 -1.82181,-0.16565 -2.73271,-0.24848c-7.31992,-0.56724 -15.02723,-1.34597 -21.05935,-6.00518c-1.22735,-0.948 -4.97421,-3.86814 -5.57185,-5.60675c-1.08544,-3.15761 0.17151,-4.73225 0.92845,-7.53752c0.96452,-3.57454 1.07639,-7.29633 0.91437,-10.97851c-0.10457,-2.37653 -0.43076,-4.96678 -1.3265,-7.19167c-0.96708,-2.40208 -2.44847,-3.68218 -1.6656,-6.65018c0.47851,-1.81415 1.77941,-3.30365 2.66911,-4.95548c1.5165,1.05218 3.18517,1.91338 4.5495,3.15655c4.37475,3.98628 4.55657,11.62581 7.63593,16.44457c1.85675,2.90555 4.41312,5.34683 6.57709,8.00868c4.62734,5.69199 8.21511,11.29626 14.09275,15.85087c0,0 1.97338,1.53485 0.43853,3.50823c-0.65533,0.84256 -1.39059,1.04557 -2.01807,1.00158z" fill="#929292" stroke="none" stroke-width="0.5" stroke-linecap="butt"/><path d="M228.12506,166.83333c0,1.25 -1.25,1.25 -1.25,1.25h-0.75c-0.15678,0 -3.32207,0.00758 -3.48639,-0.02255c-2.46664,-0.45231 -3.87646,-2.31008 -5.76361,-3.72745c-4.36301,-3.2769 -9,-6.40628 -9,-12.25c0,0 0,-1.25 1.25,-1.25c1.25,0 1.25,1.25 1.25,1.25c0,4.88772 4.31268,7.48824 8,10.25c1.52536,1.14248 2.79252,2.92338 4.73639,3.27256c0.98874,0.17761 2.00905,-0.02256 3.01361,-0.02256h0.75c0,0 1.25,0 1.25,1.25z" fill="#9a9a9a" stroke="none" stroke-width="0.5" stroke-linecap="butt"/><path d="M209.90653,106.15135c-0.57354,-0.70085 -1.03231,-1.45596 -1.23393,-2.3328c-0.617,-2.68331 1.81811,-7.05182 4.31515,-7.90256c1.39097,-0.47391 2.8889,0.61955 4.24823,1.17778c3.00415,1.23371 2.79093,1.87996 5.0436,3.86542c4.21671,3.71652 8.18727,6.93082 11.11677,11.82956c2.8904,8.63348 10.19741,13.15701 14.6266,20.76534c2.16641,3.7214 2.35734,7.47121 4.88179,11.0697c1.26611,1.80478 3.10152,2.83212 3.92759,5.03572c0.62572,1.66916 1.83211,3.7534 0.89824,5.27179c-1.36277,2.21576 -10.40335,1.68862 -12.48651,0.99171c-2.52818,-0.84579 -5.48506,-3.93735 -7.30235,-5.75465c-2.92563,-4.38844 -7.44135,-7.45585 -10.19327,-12.02065c-2.15428,-3.57344 -3.54571,-6.98073 -6.2864,-10.20488c-5.54841,-6.52714 -11.11385,-13.38452 -11.55551,-21.79149zM229.16807,121.52017c-1.67747,-2.65192 -3.75029,-5.20396 -5.91368,-7.67077c1.7424,2.33664 3.54275,4.64693 5.32487,6.92479c0.19535,0.24969 0.39163,0.49834 0.58881,0.74599z" fill="#959595" stroke="none" stroke-width="0.5" stroke-linecap="butt"/><path d="M185.50007,210.11117v-112h11v112z" fill="url(#color-19)" stroke="none" stroke-width="0" stroke-linecap="butt"/><path d="M176.83341,210.11117v-108.33333h12.66666v108.33334z" fill="#0b8600" stroke="#000000" stroke-width="0" stroke-linecap="butt"/><path d="M176.83341,205.77781c0,0 -1.5,-43.74192 -1.5,-62.61114c0,-17.05901 1.5,-45.72219 1.5,-45.72219h12.66666c0,0 -1.5,55.22096 -1.5,75.22219c0,13.27 1.5,33.11115 1.5,33.11115z" fill="#0c9200" stroke="#000000" stroke-width="0" stroke-linecap="butt"/><path d="M283.50005,210.11117v-112h11v112z" data-paper-data="{&quot;index&quot;:null}" fill="url(#color-20)" stroke="none" stroke-width="0" stroke-linecap="butt"/><path d="M290.83337,210.11117v-108.33333h12.66667v108.33334z" fill="#0b8600" stroke="#000000" stroke-width="0" stroke-linecap="butt"/><path d="M181.75007,223.16669v-11h117v11z" fill="url(#color-21)" stroke="none" stroke-width="0" stroke-linecap="butt"/><path d="M290.83337,205.44444c0,0 1,-19.24776 1,-32.27777c0,-20.00131 -1,-76.05556 -1,-76.05556h12.66667c0,0 -1.5,26.4876 -1.5,42.55556c0,19.40844 1.5,65.77778 1.5,65.77778z" fill="#0c9200" stroke="#000000" stroke-width="0" stroke-linecap="butt"/><path d="M298.57169,217.96738c0,0 1.66667,3.91975 1.66667,6.14373c0,2.64238 -1.66667,8.6728 -1.66667,8.6728l-9.26033,7.87129c0,0 -6.73313,2.63368 -17.49397,2.29279c-5.30602,-0.16809 -12.85275,-3.58229 -18.58291,-3.44904c-6.42538,0.14942 -10.16528,2.34383 -15.67388,2.88998c-7.07337,0.70129 -15.54909,-0.23373 -20.31059,-0.23373c-4.56349,0 -10.13561,-1.58326 -15.13257,-1.87908c-7.24485,-0.42889 -13.28069,0.37908 -13.28069,0.37908l-7.35703,-7.425l-0.05124,-15.26282c0,0 5.4663,1.37703 12.77043,1.66808c4.59127,0.18295 9.90871,-0.66808 15.0511,-0.66808c6.39574,0 15.29001,-3.30882 26.30293,-3.95739c9.90551,-0.58336 21.71601,1.49476 31.69979,1.3636c7.0338,-0.09241 13.13703,2.52199 18.57188,2.87272c7.21742,0.46577 12.74709,-1.27893 12.74709,-1.27893z" data-paper-data="{&quot;index&quot;:null}" fill="#0c9200" stroke="none" stroke-width="0" stroke-linecap="butt"/><path d="M317.25005,236.44588c0,-11.69587 0,-85.27916 0,-85.27916h14v91.42857c0,0 -5.39667,0.34145 -8.41317,-0.49254c-3.87489,-1.07131 -5.58683,-3.95356 -5.58683,-5.65687z" data-paper-data="{&quot;index&quot;:null}" fill="url(#color-22)" stroke="none" stroke-width="0" stroke-linecap="butt"/><path d="M335.25005,242.73814v-91.57143h14c0,0 0,74.59105 0,85.85059c0,2.75758 -2.85399,4.38923 -4.71429,5.14941c-1.8603,0.76018 -9.28571,0.57143 -9.28571,0.57143z" data-paper-data="{&quot;index&quot;:null}" fill="url(#color-23)" stroke="none" stroke-width="0" stroke-linecap="butt"/><path d="M130.75,237.69588c0,-11.69587 0,-85.27916 0,-85.27916h14v91.42857c0,0 -5.39667,0.34145 -8.41317,-0.49254c-3.87489,-1.07131 -5.58683,-3.95356 -5.58683,-5.65687z" data-paper-data="{&quot;index&quot;:null}" fill="url(#color-24)" stroke="none" stroke-width="0" stroke-linecap="butt"/><path d="M156.91323,243.18604c-3.0165,0.83399 -8.41317,0.49254 -8.41317,0.49254v-91.42857h14c0,0 0,73.58329 0,85.27917c0,1.70331 -1.71194,4.58555 -5.58683,5.65687z" data-paper-data="{&quot;index&quot;:null}" fill="url(#color-25)" stroke="none" stroke-width="0" stroke-linecap="butt"/><path d="M135.96661,214.64914v-62.50725h21.83895v62.50725z" fill="url(#color-26)" stroke="none" stroke-width="0" stroke-linecap="butt"/><path d="M135.89846,237.29106v-18.81264h21.92729v18.34962l-6.22416,6.75337l-9.64739,0.00547z" fill="url(#color-27)" stroke="#000000" stroke-width="0" stroke-linecap="butt"/><path d="M135.89846,232.66087v-18.81263h21.92729v18.34962l-6.22416,6.75337l-9.64739,0.00548z" fill="url(#color-28)" stroke="#000000" stroke-width="0" stroke-linecap="butt"/><g data-paper-data="{&quot;index&quot;:null}" stroke-width="0" stroke-linecap="butt"><path d="M338.0137,242.89233l-9.64738,-0.00547l-6.22417,-6.75337v-18.34962h21.92729v18.81264z" fill="url(#color-29)" stroke="#000000"/><path d="M322.16229,218.58476v-62.50725h21.83895v62.50725z" fill="url(#color-30)" stroke="none"/></g><g data-paper-data="{&quot;index&quot;:null}" stroke-width="0" stroke-linecap="butt"><path d="M338.0137,238.03067l-9.64738,-0.00547l-6.22417,-6.75337v-18.34962h21.92729v18.81264z" fill="url(#color-31)" stroke="#000000"/><path d="M322.16229,213.7231v-62.50725h21.83895v62.50725z" fill="url(#color-32)" stroke="none"/></g><g stroke="none" stroke-width="0" stroke-linecap="butt"><g><path d="M153.23073,231.16956h-11.41882v-74.88333h11.41882z" fill="#8d8d8d"/><path d="M151.92152,231.16956h-11.41882c0,0 1,-10.58502 1,-18.39179c0,-6.41095 -1.21955,-19.21696 -1.45291,-31.01746c-0.26467,-13.38375 0.45291,-25.47408 0.45291,-25.47408h11.41882c0,0 0.66667,10.87932 0.66667,18.82487c0,7.4498 0.80319,23.35321 0.62344,36.32472c-0.15108,10.90246 -1.29011,19.73374 -1.29011,19.73374z" fill="#ababab"/></g><path d="M142.5,165.66956c0,0 0.66667,-2.6679 0.66667,-3.89179c0,-1.30432 -0.66667,-3.70821 -0.66667,-3.70821h7.6v7.6c0,0 -1.76765,1 -2.93333,1c-1.34258,0 -4.66667,-1 -4.66667,-1z" fill="url(#color-33)"/><path d="M142.5,229.4696v-7.6h7.6l-0.66667,6.6z" fill="url(#color-34)"/><path d="M142.5,186.26957v-7.6h7.6c0,0 -0.66667,2.46109 -0.66667,3.77487c0,1.21121 0.66667,3.82513 0.66667,3.82513z" fill="url(#color-35)"/><path d="M142.5,207.4696v-7.6h7.6v7.6c0,0 -2.97856,-0.33333 -4.26667,-0.33333c-1.24367,0 -3.33333,0.33333 -3.33333,0.33333z" fill="url(#color-36)"/></g><g data-paper-data="{&quot;index&quot;:null}" stroke="none" stroke-width="0" stroke-linecap="butt"><g><path d="M326.50271,154.78623h11.41882v74.88333h-11.41882z" fill="#8d8d8d"/><path d="M327.8119,154.78623h11.41882c0,0 -0.28433,7.77213 0.07087,17.30743c0.30811,8.27121 1.26246,17.95161 1.26246,24.01744c0,11.7678 -1.33333,33.55846 -1.33333,33.55846h-11.41882c0,0 0.81639,-14.03273 1.201,-28.22025c0.25437,-9.38333 0.13234,-18.83437 0.13234,-24.3382c0,-9.01066 -1.33333,-22.32487 -1.33333,-22.32487z" fill="#ababab"/></g><path d="M329.63338,164.16956v-7.6h7.6v7.6c0,0 -2.00092,-0.66667 -3.40005,-0.66667c-0.98932,0 -4.19995,0.66667 -4.19995,0.66667z" fill="url(#color-37)"/><path d="M329.63338,227.9696v-7.6h7.6v7.6c0,0 -2.11396,-0.66667 -3.06671,-0.66667c-1.4024,0 -4.53329,0.66667 -4.53329,0.66667z" fill="url(#color-38)"/><path d="M329.63338,184.76957c0,0 -0.66667,-3.02813 -0.66667,-4.32513c0,-1.23311 0.66667,-3.27487 0.66667,-3.27487h7.6v7.6c0,0 -1.44729,-0.66667 -2.40005,-0.66667c-1.4024,0 -5.19995,0.66667 -5.19995,0.66667z" fill="url(#color-39)"/><path d="M329.63338,205.9696v-7.6h7.6l-0.33333,6.93333z" fill="url(#color-40)"/></g><g stroke="none" stroke-linecap="butt"><path d="M114.4167,125.33335c0,-11.22979 9.10354,-20.33333 20.33333,-20.33333c11.22979,0 20.33333,9.10354 20.33333,20.33333c0,11.22979 -9.10354,20.33333 -20.33333,20.33333c-11.22979,0 -20.33333,-9.10354 -20.33333,-20.33333z" fill="url(#color-41)" stroke-width="NaN"/><path d="M118.4167,125.50003c0,-5.21294 1.41744,-10.36125 5.19243,-13.38503c2.82404,-2.26207 7.40781,-3.11497 11.30757,-3.11497c6.48613,0 9.09815,3.74251 11.79442,9.1859c1.09186,2.20431 4.70558,4.68753 4.70558,7.3141c0,9.1127 -7.3873,16.5 -16.5,16.5c-2.85834,0 -3.04693,-1.72681 -5.39104,-3.0057c-5.12914,-2.79835 -11.10896,-7.23994 -11.10896,-13.4943z" fill="#555555" stroke-width="NaN"/></g><g stroke="none" stroke-linecap="butt"><path d="M324.91669,124.33335c0,-11.22979 9.10354,-20.33333 20.33333,-20.33333c11.22979,0 20.33334,9.10355 20.33334,20.33333c0,11.22979 -9.10355,20.33334 -20.33334,20.33334c-11.22979,0 -20.33333,-9.10354 -20.33333,-20.33334z" fill="url(#color-42)" stroke-width="NaN"/><path d="M328.91668,124.50003c0,-4.21277 0.5788,-8.55679 3.177,-11.47266c3.022,-3.39149 8.42307,-5.02734 13.323,-5.02734c5.30435,0 8.0241,2.50297 11.0426,6.39227c2.16718,2.79238 5.4574,6.29938 5.4574,10.10773c0,5.29928 -4.49819,8.01507 -8.38111,11.03393c-2.7942,2.1724 -4.30547,5.46607 -8.11889,5.46607c-4.55636,0 -11.18137,-1.84683 -14.16728,-4.83276c-2.9859,-2.98591 -2.33272,-7.1109 -2.33272,-11.66724z" fill="#555555" stroke-width="NaN"/></g><path d="M147.74689,118.68759c0,2.05601 -1.29037,2.82165 -2.25141,3.10676c-0.08119,2.6191 -0.34688,4.96382 -1.2039,7.78315c-0.54572,1.79526 -0.45236,3.90113 -1.57571,5.40408c-3.94607,5.27947 -10.62671,4.60133 -14.90308,0.49272c-6.31337,-6.06569 -7.91854,-16.00984 0.99763,-20.92151c1.18504,-0.65281 2.72015,0.02199 4.05357,-0.20707c1.31989,-0.22673 2.51035,-1.17104 3.84942,-1.15052c1.51434,0.02321 2.90707,0.85089 4.36061,1.27633c0,0 1.43239,0.47746 2.02814,1.75654l1.36881,-0.81643c0,0 3.27594,0 3.27594,3.27594z" fill="#4b4b4b" stroke="none" stroke-width="0.5" stroke-linecap="butt"/><path d="M355.81868,117.93002c0.08739,0.12729 0.13331,0.21315 0.13331,0.21315l1.7635,3.50901c0.03146,1.1924 0.06293,2.3848 0.09439,3.5772c-0.08677,1.35881 0.27424,2.88723 -0.26031,4.07642c-0.57241,1.27343 -1.88414,1.7379 -2.77752,2.68173c-0.96262,1.01698 -1.6417,2.53097 -2.78548,3.1954c-0.47507,0.27597 -5.51921,0.20871 -6.05135,0.20871c-1.36857,0 -5.19064,0.15553 -6.02084,-0.80307c-1.2683,-1.46446 -0.41821,-4.35588 -1.16485,-6.29944c-0.7516,-1.95648 -3.11614,-2.22669 -4.11838,-4.0001c-3.61585,-6.3981 -0.71619,-7.38524 3.89222,-10.00104c2.45665,-1.39443 5.25248,-1.66523 7.93929,-1.99016c4.47302,-0.54095 6.2487,1.75448 9.21446,5.42748c0,0 0.05854,0.07296 0.14155,0.20473z" fill="#4b4b4b" stroke="none" stroke-width="0.5" stroke-linecap="butt"/><path d="M141.14865,120.85018c0,0 0.47631,0.23815 0.6517,0.71446c0.14547,0.48628 -0.09269,0.96259 -0.09269,0.96259c-0.00456,0.00912 -0.00916,0.01814 -0.0138,0.02704l-0.52238,1.02374c-0.51263,0.75668 -0.94729,1.58162 -1.22883,2.45116c-0.64419,1.93257 -1.31506,4.89661 -3.45675,5.79986c-1.5557,0.65611 -5.56808,0.30979 -5.36058,-2.35846c0.06699,-0.86145 2.65778,-0.48235 2.26873,-1.25386c-0.85518,-1.69589 -3.417,-3.42468 -3.67365,-5.42069c-0.07653,-0.59519 0.80372,-0.90867 1.07552,-1.44368c0.35256,-0.69397 0.12195,-1.78126 0.77669,-2.20222c2.81025,-1.80682 7.12338,0.47373 9.57604,1.70006c0.38829,0.19414 0.5743,0.45571 0.6517,0.71446c0.09333,0.25344 0.10146,0.5743 -0.09269,0.96259l-0.0138,0.02704c-0.56339,1.08191 -1.66325,0.53198 -1.66325,0.53198c-0.44044,-0.22022 -0.81325,-0.41076 -1.14362,-0.57616c0.0669,-0.10719 0.13505,-0.21348 0.20436,-0.31883l0.38024,-0.78206c0,0 0.55902,-1.11803 1.67705,-0.55902z" fill="#404040" stroke="none" stroke-width="0.5" stroke-linecap="butt"/><path d="M349.7481,120.46345l0.11893,0.07988c1.66946,1.66946 2.55805,1.64392 2.74856,4.17414c0,1.68646 0.48238,4.7388 -0.93894,6.02555c-0.57102,0.51695 -1.52743,0.29589 -2.29662,0.25538c-1.42458,-0.07504 -6.30915,-0.96928 -7.22887,-1.82277c-0.7579,-0.70332 0.0075,-3.15361 -0.18817,-3.9798c-0.40695,-1.71831 -3.50186,-1.71375 -2.81096,-4.43121c0.73488,-2.89049 5.32578,-2.16035 8.18904,-1.39823c0.54323,-0.15219 1.05223,0.18715 1.05223,0.18715l0.32042,0.2152c0.10722,0.03432 0.20679,0.0669 0.2979,0.09721c0,0 0.4919,0.16397 0.73648,0.59751z" fill="#404040" stroke="none" stroke-width="0.5" stroke-linecap="butt"/><path d="M257.45683,113.5233c0.9185,0.5771 1.98923,0.5831 2.92705,1.53726c1.73289,1.76307 1.52243,4.9167 1.69337,7.09404c0.27449,3.49641 1.99572,6.50452 2.00608,10.12317c-0.01051,3.0936 -0.13528,7.55994 -2.40069,9.91715c-0.96424,1.00331 -2.95241,1.52678 -3.69446,2.89453c-1.02191,1.8836 1.01732,4.49946 -0.85085,6.64257c-1.97644,2.26732 -4.6849,1.79745 -7.04751,2.98117c-2.90131,1.45361 -5.04616,2.90423 -8.48672,3.47698c-3.12812,-0.01244 -5.96318,0.91243 -9.10343,-0.0411c-3.36267,-1.02107 -4.61937,-3.73264 -6.89725,-6.00134c-2.34776,-2.3383 -4.56992,-4.96293 -6.19212,-7.92423c-0.5058,-0.92333 -0.50716,-2.06519 -0.99804,-2.99653c-0.29728,-0.56402 -2.21587,-1.53187 -2.34818,-1.63062c-1.14507,-0.85458 -2.00828,-2.03303 -2.99949,-3.0621c-0.8138,-3.86898 1.02622,-6.11919 2.64895,-9.47861c0.45681,-0.94569 1.37629,-1.6995 1.56991,-2.73174c0.27478,-1.4649 -0.30312,-3.10303 -0.0173,-4.5797c0.25503,-1.31755 0.87035,-2.56605 0.98812,-3.90287c0.12814,-1.45458 -0.53728,-4.16819 0.12771,-5.45592c1.59493,-3.08854 6.84283,-3.69098 9.7847,-3.69098c4.64628,0 9.05927,0.96971 13.66667,1c1.94349,0.01278 2.21422,-0.99255 3.93805,-1.60252c4.83012,-1.70913 8.96753,2.45858 12.20877,5.23678c0,0 0.94907,0.81349 0.13558,1.76256c-0.21685,0.25299 -0.44333,0.38074 -0.6589,0.43204z" fill="#757575" stroke="none" stroke-width="0.5" stroke-linecap="butt"/><path d="M238.91667,144.61111c0,-0.09397 0.00706,-0.18087 0.02013,-0.26125c-3.21875,-0.80805 -5.12199,-2.02498 -7.87273,-4.08683c-2.30101,-1.72474 -4.69786,-2.76994 -5.14132,-5.86208c-0.68928,-4.80621 2.2573,-8.95501 3.36457,-13.42634c0.50339,-1.99688 1.58678,-5.33481 3.56335,-6.43161c3.43788,-1.9077 8.00819,-0.10706 10.95911,1.66292c0.95447,0.5725 3.43961,2.00663 4.04532,2.68514c0.31232,0.34986 0.08278,0.9786 0.35292,1.36196c0.82915,1.17666 2.94076,2.1034 3.68282,3.3583c1.83086,3.09618 0.65847,8.77453 -1.33792,11.34016c-1.35485,2.60412 -4.0607,3.9571 -6.36149,5.36766c-0.92221,0.56539 -2.06003,3.81479 -2.5734,4.851l-1.45137,0.69098c0,0 -1.25,0 -1.25,-1.25z" fill="#676767" stroke="none" stroke-width="0.5" stroke-linecap="butt"/><path d="M234.90999,130.50838c-0.99333,-0.15819 -0.99333,-1.23061 -0.99333,-1.23061l0.03732,-0.6365c0.63231,-2.44928 0.46912,-4.51871 2.76016,-6.33558c2.38234,-1.88927 8.45628,0.55256 9.01111,3.72465c0.5382,3.07699 -4.0425,4.10062 -6.02139,5.04277c-0.61281,0.29176 -1.03074,1.04884 -1.70665,1.11054c-0.80093,0.07311 -1.52987,-0.49685 -2.2948,-0.74528c0,0 -0.68692,-0.27477 -0.79244,-0.92999z" fill="#5c5c5c" stroke="none" stroke-width="0.5" stroke-linecap="butt"/><path d="M117.74146,150.66677c0.00563,-0.0001 0.00854,-0.0001 0.00854,-0.0001l0.00061,0.00154c0.10425,0.01658 0.20976,0.04114 0.31553,0.07523c1.97038,-0.86751 3.58012,-2.65768 5.6987,-3.02924c1.44414,-0.25327 2.87873,0.55831 4.31809,0.83746c1.31314,1.58861 3.91357,4.50505 4.5598,6.39056c1.23659,3.60798 -0.83021,9.23549 -2.04527,12.58435c-2.44454,6.7375 -4.76627,13.84761 -5.8662,20.94556c-0.50683,3.27066 -0.77954,7.02387 -0.9861,10.34989c-0.18412,2.96466 0.39277,4.36828 -0.61267,7.10208c-1.74778,4.75224 -5.07341,10.4613 -11.14559,7.40002c-1.02651,-0.51751 -1.56325,-1.68593 -2.34488,-2.52889c-1.07237,-1.56994 -2.46003,-2.96583 -3.21709,-4.70983c-2.75585,-6.34848 0.84264,-15.28534 2.36518,-21.3648c0.2485,-0.99222 -0.51712,-5.14281 -0.53382,-5.37671c-0.17175,-2.4049 -0.01531,-4.84923 -0.46379,-7.21818c-0.60044,-3.17168 -1.73243,-6.6147 -0.9974,-9.93181c0.48068,-2.16922 2.13791,-3.92559 3.54734,-5.64317c1.66706,-2.03153 3.38879,-4.14141 5.62131,-5.52779c0,0 0.83635,-0.5018 1.7777,-0.35617z" fill="#0c8b00" stroke="none" stroke-width="0.5" stroke-linecap="butt"/><path d="M150.42759,109.07672c-0.30822,-0.11997 -0.62679,-0.32372 -0.94536,-0.64229c-1.76777,-1.76777 0,-3.53553 0,-3.53553l0.5,-0.5c1.27035,-1.18064 2.19798,-2.905 3.81106,-3.54193c1.63839,-0.64692 3.61199,-0.60296 5.28423,-0.04937c5.61364,1.85837 4.72938,7.84725 4.67248,12.35907c-0.01531,1.21411 0.41108,2.53287 -0.08375,3.64167c-2.44886,5.4873 -4.02022,7.39089 -8.53127,2.69126c-0.70268,-0.73206 -0.33269,-2.02099 -0.72624,-2.95629c-1.06495,-2.53091 -2.66631,-4.80291 -3.89481,-7.2586c0,0 -0.03819,-0.07639 -0.08634,-0.20798z" fill="#0c8b00" stroke="none" stroke-width="0.5" stroke-linecap="butt"/><path d="M211.05789,84.46447c-0.44973,-0.83613 -0.25934,-1.78809 -0.25934,-1.78809l0.64175,-2.96642c0.83119,-1.25378 1.66238,-2.50755 2.49356,-3.76133c1.00852,-0.71789 1.85563,-1.74902 3.02556,-2.15367c3.06241,-1.05921 6.58443,0.6738 9.43224,1.45546c3.42787,0.94087 6.37979,0.8519 9.60962,2.75193c2.55477,1.50291 5.11528,3.84604 3.32883,7.55107c-0.57218,1.18669 -2.48966,0.87763 -3.67863,1.44505c-0.77764,0.37112 -1.44328,0.94482 -2.19847,1.35971c-2.78649,1.53086 -5.78552,3.96207 -9.04768,4.30365c-4.71314,0.49351 -8.61586,-2.6709 -12.39569,-4.82456c0,0 -2.14518,-1.22582 -0.95176,-3.3728z" fill="#0c8b00" stroke="none" stroke-width="0.5" stroke-linecap="butt"/><path d="M182.73544,129.18771c-1.66882,1.33111 -3.25321,-0.25328 -3.25321,-0.25328l-1.05342,-3.19624c0.66281,-1.64385 1.843,-3.06019 2.4119,-4.73886c0.84543,-2.49462 -1.71767,-6.65854 -2.55188,-8.39372c0.26345,-2.05964 -0.06119,-4.28514 0.79034,-6.17893c1.68084,-3.73815 9.69993,-4.64895 12.99834,-3.61909c1.19887,0.37432 1.95975,1.57977 3.01987,2.25323c1.09251,0.69404 2.57334,0.8594 3.42038,1.83807c1.27339,1.47127 2.08646,3.33569 2.66536,5.19338c0.99078,3.17941 -0.41779,6.48727 -0.9654,9.47484c-1.03089,5.62415 -1.03327,14.47005 -9.26527,14.58177c-1.31398,0.01783 -2.32422,-1.26045 -3.34045,-2.09359c-0.04832,-0.03962 -3.26999,-3.2609 -4.87656,-4.86759z" fill="#0c8b00" stroke="none" stroke-width="0.5" stroke-linecap="butt"/><path d="M209.33617,203.41257c-0.05514,-0.21991 -0.08617,-0.4674 -0.08617,-0.74591c0,-1.94801 1.5179,-2.37812 2.18819,-2.47309c0.99219,-0.72136 1.92428,-1.57533 3.08735,-1.91964c5.6516,-1.67309 10.46337,2.53081 15.44892,4c2.53211,0.74619 5.66042,0.39273 8.27554,0.39273c5.89144,0 11.49799,-0.07274 16.95671,2.1903c2.22727,1.03722 7.4056,2.40524 4.69655,7.07993c-0.9689,1.67191 -3.71884,1.05567 -5.55521,1.65718c-4.39905,1.44095 -8.69273,4.06809 -13.35171,4.56042c-4.63003,0.48927 -11.34472,-0.10372 -15.70305,-1.67813c-2.57855,-0.93148 -4.73509,-3.26631 -6.91952,-4.7226c-0.74679,-0.49786 -1.75465,-0.49999 -2.5,-1c-1.99287,-1.33688 -3.62121,-3.16201 -5.57687,-4.55277c0,0 -1.57966,-1.12833 -0.96074,-2.78843z" fill="#0c8b00" stroke="none" stroke-width="0.5" stroke-linecap="butt"/><path d="M302.01777,248.3989c1.76777,1.76777 0,3.53553 0,3.53553l-1.83929,1.55342c-4.36419,1.67394 -8.80583,1.17881 -13.42848,1.17881c0,0 -2.5,0 -2.5,-2.5c0,-2.5 2.5,-2.5 2.5,-2.5c3.83616,0 8.01819,0.68459 11.57152,-0.82119l0.16071,-0.44658c0,0 1.76777,-1.76777 3.53553,0z" fill="#0c8b00" stroke="none" stroke-width="0.5" stroke-linecap="butt"/><path d="M361.72655,108.6569c-0.08133,-0.06699 -0.16282,-0.14097 -0.24432,-0.22247c-1.76777,-1.76777 0,-3.53553 0,-3.53553l2.77748,-2.18368c3.05633,-0.57297 4.0438,-1.09084 7.447,0.14175c3.82759,1.3863 7.86465,7.53621 8.95954,11.16803c1.44161,4.78189 -1.85406,12.81405 -7.87296,10.95137c-1.25075,-0.38707 -2.00389,-1.69361 -2.90611,-2.6424c-3.00542,-3.1605 -5.534,-7.1964 -8.13718,-10.6673c0,0 -1.19922,-1.59895 -0.02345,-3.00976z" fill="#0c8b00" stroke="none" stroke-width="0.5" stroke-linecap="butt"/><path d="M246.96609,224.39677c0.58638,0.23128 0.96834,0.61324 0.96834,0.61324l2.04626,3.41119c-0.79485,5.81288 -3.14506,8.66639 -8.8419,10.17118c-2.96244,0.00417 -5.13468,0.30604 -7.79906,1.72643c-2.77859,1.48128 -4.824,3.88624 -8.68963,2.3279c-2.71874,-1.096 -1.79171,-4.22881 -2.74078,-6.12783c-0.54091,-1.08233 -1.74418,-1.79858 -2.11436,-2.95053c-1.23143,-3.83193 0.9276,-7.6911 3.75577,-10.03145c3.65949,-3.02828 5.40202,-2.04082 9.58806,-1.57372c4.36693,0.48729 8.22543,0.06576 12.48511,1.44289c0,0 0.82771,0.2759 1.34219,0.9907z" fill="#686868" stroke="none" stroke-width="0.5" stroke-linecap="butt"/><path d="M187.74864,223.84005c-0.05252,-0.21565 -0.08198,-0.45757 -0.08198,-0.72894c0,-2.5 2.5,-2.5 2.5,-2.5l2.2206,0.04012c2.97037,-1.11389 5.30206,-1.04288 8.44606,-1.04012c2.39987,0.00211 3.39481,-0.10706 5.79238,0.37584c2.64955,0.53365 5.78769,1.23356 6.91266,4.33359c1.06145,2.92499 -1.95004,8.22797 -4.09909,10.03986c-5.74589,4.84445 -14.59461,3.49142 -18.92536,-2.39756c-0.97294,-1.32301 -2.14999,-2.56433 -2.73161,-4.10013c-0.40377,-1.06618 -0.0771,-2.27884 -0.11566,-3.41827c0,0 0,-0.25612 0.08198,-0.60439z" fill="#686868" stroke="none" stroke-width="0.5" stroke-linecap="butt"/><path d="M273.55777,222.69415c0.35057,-0.08304 0.60889,-0.08304 0.60889,-0.08304c0.88889,0 3.11111,0 4,0c2.69565,0 5.46567,-0.16324 8.15534,0.00483c4.5751,0.28588 9.82258,0.34192 6.9922,7.10837c-0.61298,1.46542 -4.63837,3.26135 -6.02951,3.9562c-1.88989,0.94397 -3.46976,2.44607 -5.37694,3.35461c-2.49517,1.18865 -6.56552,1.29494 -9.28063,0.9008c-4.60157,-0.66798 -7.18838,-0.46569 -7.62395,-6.28425c-0.09521,-1.27185 1.06965,-2.3168 1.65954,-3.44758c0.95708,-1.83465 2.26445,-3.47762 3.6058,-5.0533c0,0 1.49416,-1.74318 3.28925,-0.45665z" fill="#686868" stroke="none" stroke-width="0.5" stroke-linecap="butt"/><path d="M194.19611,228.46423c-0.55113,-0.19939 -1.09483,-0.64359 -1.40115,-1.56255c-0.79057,-2.37171 1.58114,-3.16228 1.58114,-3.16228l0.55022,-0.13223c2.50073,-1.37875 9.70081,-4.46877 10.95259,1.06865c0.80102,3.54343 -3.31474,8.78017 -7.1074,8.57053c-1.28294,-0.07092 -3.46906,-3.1929 -4.5754,-4.78212z" fill="#606060" stroke="none" stroke-width="0.5" stroke-linecap="butt"/><path d="M227.80741,227.9489c0.24766,-0.22483 0.45224,-0.34174 0.45224,-0.34174l2.45929,-1.40061c1.08268,-0.41804 2.08754,-1.2407 3.24805,-1.25413c2.49692,-0.02889 8.57288,1.90773 6.47508,6.52766c-1.74964,3.85318 -9.12246,1.74054 -11.88174,1.05638c0,0 -2.42536,-0.60634 -1.81902,-3.0317c0.20371,-0.81482 0.61272,-1.28746 1.0661,-1.55587z" fill="#606060" stroke="none" stroke-width="0.5" stroke-linecap="butt"/><path d="M275.22509,233.52869c-0.18352,0.2532 -1.51622,1.94851 -3.44517,0.66255c-2.08013,-1.38675 -0.69338,-3.46688 -0.69338,-3.46688l0.57618,-0.8536c1.64232,-2.75778 5.01365,-7.25857 9.11748,-5.51653c1.78304,0.75688 4.02003,2.07023 4.21806,3.99712c0.45195,4.39738 -6.57798,4.92148 -9.77318,5.17734z" fill="#606060" stroke="none" stroke-width="0.5" stroke-linecap="butt"/></g></g></svg>