<svg version="1.1" xmlns="http://www.w3.org/2000/svg" xmlns:xlink="http://www.w3.org/1999/xlink" width="166.11278" height="281.22565" viewBox="0,0,166.11278,281.22565"><defs><radialGradient cx="238.58278" cy="243.23852" r="145.16666" gradientUnits="userSpaceOnUse" id="color-1"><stop offset="0" stop-color="#385e5c"/><stop offset="1" stop-color="#457371"/></radialGradient><radialGradient cx="243.37638" cy="210.23879" r="69.66667" gradientUnits="userSpaceOnUse" id="color-2"><stop offset="0" stop-color="#3a6563"/><stop offset="1" stop-color="#51827f"/></radialGradient><radialGradient cx="238.58278" cy="239.23852" r="145.16666" gradientUnits="userSpaceOnUse" id="color-3"><stop offset="0" stop-color="#3a6563"/><stop offset="1" stop-color="#51827f"/></radialGradient><linearGradient x1="76.91665" y1="237.66666" x2="202.9167" y2="237.66666" gradientUnits="userSpaceOnUse" id="color-4"><stop offset="0" stop-color="#426c6a"/><stop offset="1" stop-color="#355a59"/></linearGradient><linearGradient x1="76.91665" y1="233.5" x2="202.9167" y2="233.5" gradientUnits="userSpaceOnUse" id="color-5"><stop offset="0" stop-color="#497876"/><stop offset="1" stop-color="#3c6563"/></linearGradient></defs><g transform="translate(-65.77778,-114.38719)"><g data-paper-data="{&quot;isPaintingLayer&quot;:true}" fill-rule="nonzero" stroke-linejoin="miter" stroke-miterlimit="10" stroke-dasharray="" stroke-dashoffset="0" style="mix-blend-mode: normal"><path d="M66.35223,217.48337c0,0 106.8106,4.48225 127.86623,12.19408c25.30209,9.26714 13.56059,39.6049 13.56059,39.6049c0,0 -36.26508,-6.74067 -57.72883,-11.64352c-13.08067,-2.98794 -37.25357,-11.47194 -55.48836,-16.03861c-16.75299,-4.19557 -28.1819,-4.61687 -28.1819,-4.61687z" fill="url(#color-1)" stroke="none" stroke-width="0" stroke-linecap="butt"/><path d="M169.85652,196.3433l41.92349,-0.06529l1.30099,19.93918l-3.90249,0.14484l-39.30869,-10.66053z" fill="url(#color-2)" stroke="none" stroke-width="0" stroke-linecap="butt"/><path d="M66.35223,213.48337c0,0 8.85326,1.47842 24.67717,1.45618c11.12025,-0.01563 22.55316,-2.61882 49.99456,-2.77023c13.80706,-0.07618 28.72087,1.88596 45.00547,1.87707c8.7269,-0.00476 26.68581,-0.39274 26.68581,-0.39274l-4.93619,51.62869c0,0 -14.81105,-2.27062 -35.37866,-6.99017c-9.99582,-2.2937 -23.11512,-4.42962 -34.08893,-7.19866c-21.79541,-5.49967 -42.59505,-14.18058 -51.90894,-16.3081c-9.88437,-2.25783 -20.02257,-1.80207 -20.02257,-1.80207z" fill="url(#color-3)" stroke="none" stroke-width="0" stroke-linecap="butt"/><path d="M115.20413,206.41391c0,0 1.00431,3.03633 1.00826,5.81401c0.00663,4.66323 -1.4129,19.02176 -1.69572,28.48492c-0.14323,4.79238 0.7486,8.70103 0.7486,8.70103" fill="none" stroke="#849695" stroke-width="7.5" stroke-linecap="round"/><path d="M198.89402,266.29498c0,0 -1.50619,-4.35539 -1.51218,-8.56518c-0.00445,-3.13065 0.27694,-9.24622 0.63201,-16.57508c0.47075,-9.71676 1.07101,-21.56623 1.30625,-31.41962c0.2568,-10.75612 -0.53414,-19.44004 -0.53414,-19.44004" fill="none" stroke="#849695" stroke-width="7.5" stroke-linecap="round"/><path d="M66.52778,232.30555v-18.5" fill="none" stroke="#3985a2" stroke-width="1.5" stroke-linecap="round"/><path d="M202.9167,221.41666v33.5c0,0 -13.51145,-5.00254 -24.44386,-7.43197c-6.23084,-1.38463 -15.41736,-1.60305 -27.58066,-4.0807c-14.54179,-2.96216 -31.51739,-4.22556 -45.53652,-7.40869c-16.19128,-3.67632 -28.43896,-9.07864 -28.43896,-9.07864v-6.5c0,0 37.61177,-1.68562 58.10786,-1.52295c21.45963,0.17031 67.89215,2.52295 67.89215,2.52295z" fill="url(#color-4)" stroke="#000000" stroke-width="0" stroke-linecap="round"/><path d="M202.9167,217.25v33.5c0,0 -18.98429,-5.71873 -32.66739,-8.75942c-2.88921,-0.64204 -6.51304,-1.08281 -10.64288,-1.5074c-8.11739,-0.83454 -18.18965,-1.60657 -28.48068,-3.72168c-26.38549,-5.42298 -54.20905,-14.01151 -54.20905,-14.01151v-6.5c0,0 15.77224,4.11327 27.11929,4.20333c8.63979,0.06857 23.26363,-1.88959 40.45081,-2.4794c27.49414,-0.94351 58.4299,-0.72393 58.4299,-0.72393z" fill="url(#color-5)" stroke="#000000" stroke-width="0" stroke-linecap="round"/><path d="M194.1667,250.79279l1,-33.33333h7.33333l-1,34.83333z" fill="#98adac" stroke="none" stroke-width="0" stroke-linecap="butt"/><path d="M194.12505,253.47335v-4.25l7.75,1.5v4.5z" fill="#6f7e7d" stroke="none" stroke-width="0" stroke-linecap="butt"/><path d="M111.50004,233.95946v-17.16667h7.33333l-0.5,18.66667z" fill="#98adac" stroke="none" stroke-width="0" stroke-linecap="butt"/><path d="M111.37504,237.47335v-4.25l7.75,1.5v4.5z" fill="#6f7e7d" stroke="none" stroke-width="0" stroke-linecap="butt"/><path d="M143.40812,228.35427c0.79057,-2.37171 3.16228,-1.58114 3.16228,-1.58114l2.60989,0.90399c8.86175,-0.11005 17.48703,0.08733 26.28946,-1.01298c0,0 2.48069,-0.31009 2.79078,2.17061c0.31009,2.48069 -2.17061,2.79078 -2.17061,2.79078c-9.25601,1.157 -18.38599,1.07554 -27.71054,0.98702l-3.39011,-1.09601c0,0 -2.37171,-0.79057 -1.58114,-3.16228z" fill="#395f5d" stroke="none" stroke-width="0.5" stroke-linecap="butt"/><path d="M183.27985,236.14484c0,-1.38071 1.11929,-2.5 2.5,-2.5c1.38071,0 2.5,1.11929 2.5,2.5c0,1.38071 -1.11929,2.5 -2.5,2.5c-1.38071,0 -2.5,-1.11929 -2.5,-2.5z" fill="#395f5d" stroke="none" stroke-width="0.5" stroke-linecap="butt"/><path d="M143.27983,250.14484c0,-2.5 2.5,-2.5 2.5,-2.5h1c4.3419,0.04122 8.18987,1.41487 12.40046,2.03228c5.58823,0.81943 11.93754,-0.03228 17.59954,-0.03228c0,0 2.5,0 2.5,2.5c0,2.5 -2.5,2.5 -2.5,2.5c-5.95645,0 -12.50665,0.78984 -18.40046,-0.03228c-3.90736,-0.54503 -7.58713,-2.01755 -11.59954,-1.96772h-1c0,0 -2.5,0 -2.5,-2.5z" fill="#3b6260" stroke="none" stroke-width="0.5" stroke-linecap="butt"/><path d="M204.27985,259.14484c0,-1.38071 1.11929,-2.5 2.5,-2.5c1.38071,0 2.5,1.11929 2.5,2.5c0,1.38071 -1.11929,2.5 -2.5,2.5c-1.38071,0 -2.5,-1.11929 -2.5,-2.5z" fill="#3b6260" stroke="none" stroke-width="0.5" stroke-linecap="butt"/><path d="M209.89788,214.38091c-2.23607,1.11803 -3.3541,-1.11803 -3.3541,-1.11803l-1.26393,-3.11803c0.02186,-1.76048 -0.29547,-3.54578 -0.87171,-5.20943c0,0 -0.79057,-2.37171 1.58114,-3.16228c2.37171,-0.79057 3.16228,1.58114 3.16228,1.58114c0.70585,2.18329 1.10651,4.49612 1.12829,6.79057l0.73607,0.88197c0,0 1.11803,2.23607 -1.11803,3.3541z" fill="#3b6260" stroke="none" stroke-width="0.5" stroke-linecap="butt"/><path d="M119.45865,242.21636c0.92848,-2.32119 3.24967,-1.39272 3.24967,-1.39272l0.35762,0.14305c2.43338,1.00159 5.08268,1.7118 7.71391,1.67815c0,0 2.5,0 2.5,2.5c0,2.5 -2.5,2.5 -2.5,2.5c-3.26149,-0.03289 -6.53261,-0.84941 -9.57086,-2.03576l-0.35762,-0.14305c0,0 -2.32119,-0.92848 -1.39272,-3.24967z" fill="#436f6d" stroke="none" stroke-width="0.5" stroke-linecap="butt"/><path d="M74.8705,234.39439c-2.24955,1.09065 -3.3402,-1.1589 -3.3402,-1.1589l-1.18031,-2.43807c-0.63045,-1.5747 -1.26089,-3.1494 -1.89134,-4.72411c0,0 -0.92848,-2.32119 1.39272,-3.24967c2.32119,-0.92848 3.24967,1.39272 3.24967,1.39272c0.60752,1.52022 1.21505,3.04044 1.82257,4.56066l1.10579,2.27716c0,0 1.09065,2.24955 -1.1589,3.3402z" fill="#436f6d" stroke="none" stroke-width="0.5" stroke-linecap="butt"/><path d="M176.27985,202.14484c0,-2.5 2.5,-2.5 2.5,-2.5c3,0 7,0 10,0c0,0 2.5,0 2.5,2.5c0,2.5 -2.5,2.5 -2.5,2.5c-3,0 -6,0 -9,0h-1c0,0 -2.5,0 -2.5,-2.5z" fill="#436f6d" stroke="none" stroke-width="0.5" stroke-linecap="butt"/><g><path d="M138.97726,254.01855l0.11468,-5.23344l20.06149,0.43963l-0.11471,5.23343z" fill="#8d8d8d" stroke="none" stroke-width="0" stroke-linecap="butt"/><path d="M138.83058,260.7057l0.16949,-7.73387l20.35226,0.44601l-0.16949,7.73388z" fill="#b7b7b7" stroke="#000000" stroke-width="0" stroke-linecap="butt"/><path d="M142.07817,258.52251c-0.84305,-0.01849 -1.51147,-0.71686 -1.49299,-1.55989c0.01848,-0.84302 0.71686,-1.51144 1.55989,-1.49295c0.84305,0.01849 1.51147,0.71685 1.49299,1.55988c-0.01849,0.84305 -0.71686,1.51147 -1.55989,1.49299z" fill="#8d8d8d" stroke="none" stroke-width="0.5" stroke-linecap="butt"/><path d="M147.55681,257.40628c0.01849,-0.84305 0.71686,-1.51147 1.55989,-1.49298c0.84305,0.01849 1.51147,0.71686 1.49299,1.55989c-0.01849,0.84305 -0.71686,1.51147 -1.55989,1.49298c-0.84302,-0.01848 -1.51147,-0.71686 -1.49299,-1.55989z" fill="#8d8d8d" stroke="none" stroke-width="0.5" stroke-linecap="butt"/><path d="M154.86467,259.09362c-0.84305,-0.01849 -1.51147,-0.71685 -1.49299,-1.55988c0.01849,-0.84305 0.71686,-1.51147 1.55989,-1.49299c0.84305,0.01849 1.51147,0.71686 1.49299,1.55989c-0.01848,0.84302 -0.71686,1.51144 -1.55989,1.49295z" fill="#8d8d8d" stroke="none" stroke-width="0.5" stroke-linecap="butt"/><path d="M122.93232,298.93437l52.13539,-87.8687" fill="none" stroke="#000000" stroke-width="0.00001" stroke-linecap="round"/><path d="M66.10948,395.61284l165.78108,-281.22565" fill="none" stroke="#000000" stroke-width="0" stroke-linecap="round"/></g></g></g></svg>