<svg version="1.1" xmlns="http://www.w3.org/2000/svg" xmlns:xlink="http://www.w3.org/1999/xlink" width="290.01295" height="463.96396" viewBox="0,0,290.01295,463.96396"><defs><linearGradient x1="240.01295" y1="184.95898" x2="240.01295" y2="198.45898" gradientUnits="userSpaceOnUse" id="color-1"><stop offset="0" stop-color="#778287"/><stop offset="1" stop-color="#7e8a8f"/></linearGradient><linearGradient x1="240" y1="172.75" x2="240" y2="186.25" gradientUnits="userSpaceOnUse" id="color-2"><stop offset="0" stop-color="#707a7f"/><stop offset="1" stop-color="#737e82"/></linearGradient><linearGradient x1="240.01295" y1="159.95898" x2="240.01295" y2="173.45898" gradientUnits="userSpaceOnUse" id="color-3"><stop offset="0" stop-color="#778287"/><stop offset="1" stop-color="#7e8a8f"/></linearGradient><linearGradient x1="240" y1="147.75" x2="240" y2="161.25" gradientUnits="userSpaceOnUse" id="color-4"><stop offset="0" stop-color="#707a7f"/><stop offset="1" stop-color="#737e82"/></linearGradient><linearGradient x1="240.01295" y1="134.45898" x2="240.01295" y2="147.95898" gradientUnits="userSpaceOnUse" id="color-5"><stop offset="0" stop-color="#778287"/><stop offset="1" stop-color="#7e8a8f"/></linearGradient><linearGradient x1="240" y1="122.25" x2="240" y2="135.75" gradientUnits="userSpaceOnUse" id="color-6"><stop offset="0" stop-color="#707a7f"/><stop offset="1" stop-color="#737e82"/></linearGradient><linearGradient x1="240.01295" y1="109.45898" x2="240.01295" y2="122.95898" gradientUnits="userSpaceOnUse" id="color-7"><stop offset="0" stop-color="#778287"/><stop offset="1" stop-color="#7e8a8f"/></linearGradient><linearGradient x1="240" y1="97.25" x2="240" y2="110.75" gradientUnits="userSpaceOnUse" id="color-8"><stop offset="0" stop-color="#707a7f"/><stop offset="1" stop-color="#737e82"/></linearGradient><linearGradient x1="240.01295" y1="84.45898" x2="240.01295" y2="97.95898" gradientUnits="userSpaceOnUse" id="color-9"><stop offset="0" stop-color="#778287"/><stop offset="1" stop-color="#7e8a8f"/></linearGradient><linearGradient x1="240" y1="72.25" x2="240" y2="85.75" gradientUnits="userSpaceOnUse" id="color-10"><stop offset="0" stop-color="#707a7f"/><stop offset="1" stop-color="#737e82"/></linearGradient><linearGradient x1="240.01295" y1="59.45898" x2="240.01295" y2="72.95898" gradientUnits="userSpaceOnUse" id="color-11"><stop offset="0" stop-color="#778287"/><stop offset="1" stop-color="#7e8a8f"/></linearGradient><linearGradient x1="240" y1="47.25" x2="240" y2="60.75" gradientUnits="userSpaceOnUse" id="color-12"><stop offset="0" stop-color="#707a7f"/><stop offset="1" stop-color="#737e82"/></linearGradient><linearGradient x1="240.01295" y1="33.95898" x2="240.01295" y2="47.45898" gradientUnits="userSpaceOnUse" id="color-13"><stop offset="0" stop-color="#778287"/><stop offset="1" stop-color="#7e8a8f"/></linearGradient><linearGradient x1="240" y1="21.75" x2="240" y2="35.25" gradientUnits="userSpaceOnUse" id="color-14"><stop offset="0" stop-color="#707a7f"/><stop offset="1" stop-color="#737e82"/></linearGradient><linearGradient x1="240.01295" y1="8.95897" x2="240.01295" y2="22.45897" gradientUnits="userSpaceOnUse" id="color-15"><stop offset="0" stop-color="#778287"/><stop offset="1" stop-color="#7e8a8f"/></linearGradient><linearGradient x1="240" y1="-3.25" x2="240" y2="10.25" gradientUnits="userSpaceOnUse" id="color-16"><stop offset="0" stop-color="#707a7f"/><stop offset="1" stop-color="#737e82"/></linearGradient><linearGradient x1="96.5" y1="97.08333" x2="113.5" y2="97.08333" gradientUnits="userSpaceOnUse" id="color-17"><stop offset="0" stop-color="#5b6367"/><stop offset="1" stop-color="#5b6367" stop-opacity="0"/></linearGradient><linearGradient x1="384.5" y1="97.08333" x2="367.5" y2="97.08333" gradientUnits="userSpaceOnUse" id="color-18"><stop offset="0" stop-color="#5b6367"/><stop offset="1" stop-color="#5b6367" stop-opacity="0"/></linearGradient></defs><g transform="translate(-95,51.98198)"><g data-paper-data="{&quot;isPaintingLayer&quot;:true}" fill-rule="nonzero" stroke="none" stroke-linecap="butt" stroke-linejoin="miter" stroke-miterlimit="10" stroke-dasharray="" stroke-dashoffset="0" style="mix-blend-mode: normal"><g stroke-width="0"><g><path d="M95.01295,198.45898v-13.5h290v13.5z" fill="url(#color-1)"/><path d="M95,186.25v-13.5h290v13.5z" fill="url(#color-2)"/><path d="M95.01295,173.45898v-13.5h290v13.5z" fill="url(#color-3)"/><path d="M95,161.25v-13.5h290v13.5z" fill="url(#color-4)"/></g><g><path d="M95.01295,147.95898v-13.5h290v13.5z" fill="url(#color-5)"/><path d="M95,135.75v-13.5h290v13.5z" fill="url(#color-6)"/><path d="M95.01295,122.95898v-13.5h290v13.5z" fill="url(#color-7)"/><path d="M95,110.75v-13.5h290v13.5z" fill="url(#color-8)"/></g></g><g stroke-width="0"><g><path d="M95.01295,97.95898v-13.5h290v13.5z" fill="url(#color-9)"/><path d="M95,85.75v-13.5h290v13.5z" fill="url(#color-10)"/><path d="M95.01295,72.95898v-13.5h290v13.5z" fill="url(#color-11)"/><path d="M95,60.75v-13.5h290v13.5z" fill="url(#color-12)"/></g><g><path d="M95.01295,47.45898v-13.5h290v13.5z" fill="url(#color-13)"/><path d="M95,35.25v-13.5h290v13.5z" fill="url(#color-14)"/><path d="M95.01295,22.45897v-13.5h290v13.5z" fill="url(#color-15)"/><path d="M95,10.25v-13.5h290v13.5z" fill="url(#color-16)"/></g></g><path d="M96.5,196.58333v-199h17v199z" fill="url(#color-17)" stroke-width="0"/><path d="M367.5,196.58333v-199h17v199z" data-paper-data="{&quot;index&quot;:null}" fill="url(#color-18)" stroke-width="0"/><path d="M211.47147,411.98198v-463.96396h57.05706v463.96396z" fill="none" stroke-width="none"/></g></g></svg>