<svg version="1.1" xmlns="http://www.w3.org/2000/svg" xmlns:xlink="http://www.w3.org/1999/xlink" width="56.32476" height="75.0648" viewBox="0,0,56.32476,75.0648"><defs><linearGradient x1="238.83508" y1="155.72478" x2="238.83508" y2="199.68326" gradientUnits="userSpaceOnUse" id="color-1"><stop offset="0" stop-color="#00de98"/><stop offset="1" stop-color="#00386f"/></linearGradient><linearGradient x1="238.83508" y1="155.72478" x2="238.83508" y2="199.68326" gradientUnits="userSpaceOnUse" id="color-2"><stop offset="0" stop-color="#00de98"/><stop offset="1" stop-color="#00386f"/></linearGradient><radialGradient cx="239.60026" cy="207.64308" r="6.1016" gradientUnits="userSpaceOnUse" id="color-3"><stop offset="0" stop-color="#fff156"/><stop offset="1" stop-color="#fff156" stop-opacity="0"/></radialGradient><linearGradient x1="239.92501" y1="206.57576" x2="239.92501" y2="212.84849" gradientUnits="userSpaceOnUse" id="color-4"><stop offset="0" stop-color="#ff8600"/><stop offset="1" stop-color="#ff8600" stop-opacity="0"/></linearGradient><radialGradient cx="239.60434" cy="208.21142" r="8.58743" gradientUnits="userSpaceOnUse" id="color-5"><stop offset="0" stop-color="#fff696"/><stop offset="1" stop-color="#fff696" stop-opacity="0"/></radialGradient><radialGradient cx="239.88116" cy="205.42799" r="11.9232" gradientUnits="userSpaceOnUse" id="color-6"><stop offset="0" stop-color="#fcd81d"/><stop offset="1" stop-color="#fcd81d" stop-opacity="0"/></radialGradient><linearGradient x1="239.82629" y1="204.32197" x2="239.82629" y2="221.1856" gradientUnits="userSpaceOnUse" id="color-7"><stop offset="0" stop-color="#ffffff"/><stop offset="1" stop-color="#ffffff" stop-opacity="0"/></linearGradient><radialGradient cx="239.75931" cy="208.4453" r="6.1016" gradientUnits="userSpaceOnUse" id="color-8"><stop offset="0" stop-color="#ffee35"/><stop offset="1" stop-color="#ffee35" stop-opacity="0"/></radialGradient><linearGradient x1="244.26819" y1="206.02091" x2="235.54955" y2="206.02091" gradientUnits="userSpaceOnUse" id="color-9"><stop offset="0" stop-color="#5f5f5f"/><stop offset="1" stop-color="#4c4c4c"/></linearGradient><linearGradient x1="244.26819" y1="206.02091" x2="235.54955" y2="206.02091" gradientUnits="userSpaceOnUse" id="color-10"><stop offset="0" stop-color="#949494"/><stop offset="1" stop-color="#757575"/></linearGradient><linearGradient x1="243.99935" y1="204.21927" x2="241.17065" y2="204.21927" gradientUnits="userSpaceOnUse" id="color-11"><stop offset="0" stop-color="#4c4c4c"/><stop offset="1" stop-color="#4c4c4c" stop-opacity="0"/></linearGradient><linearGradient x1="235.81901" y1="204.21926" x2="238.64771" y2="204.21926" gradientUnits="userSpaceOnUse" id="color-12"><stop offset="0" stop-color="#5f5f5f"/><stop offset="1" stop-color="#5f5f5f" stop-opacity="0"/></linearGradient><linearGradient x1="242.84583" y1="167.87076" x2="237.2698" y2="167.87076" gradientUnits="userSpaceOnUse" id="color-13"><stop offset="0" stop-color="#5f5f5f"/><stop offset="1" stop-color="#a8a8a8"/></linearGradient><linearGradient x1="240.0152" y1="161.54812" x2="240.0152" y2="162.48361" gradientUnits="userSpaceOnUse" id="color-14"><stop offset="0" stop-color="#7a7a7a"/><stop offset="1" stop-color="#646464"/></linearGradient><linearGradient x1="252.94922" y1="178.86466" x2="252.94922" y2="200.90383" gradientUnits="userSpaceOnUse" id="color-15"><stop offset="0" stop-color="#00a29c"/><stop offset="1" stop-color="#00478c"/></linearGradient><linearGradient x1="227.17551" y1="178.86466" x2="227.17551" y2="200.90383" gradientUnits="userSpaceOnUse" id="color-16"><stop offset="0" stop-color="#00a29c"/><stop offset="1" stop-color="#00478c"/></linearGradient><linearGradient x1="240.97003" y1="165.17487" x2="240.77703" y2="165.17487" gradientUnits="userSpaceOnUse" id="color-17"><stop offset="0" stop-color="#00eeec"/><stop offset="1" stop-color="#1cfff4"/></linearGradient><linearGradient x1="246.8134" y1="156.23006" x2="246.8134" y2="200.78562" gradientUnits="userSpaceOnUse" id="color-18"><stop offset="0" stop-color="#00ffad"/><stop offset="1" stop-color="#00478c"/></linearGradient><linearGradient x1="246.8134" y1="156.23006" x2="246.8134" y2="200.78562" gradientUnits="userSpaceOnUse" id="color-19"><stop offset="0" stop-color="#00ffad"/><stop offset="1" stop-color="#00478c"/></linearGradient><linearGradient x1="233.51667" y1="156.22213" x2="233.51667" y2="200.77768" gradientUnits="userSpaceOnUse" id="color-20"><stop offset="0" stop-color="#00ffad"/><stop offset="1" stop-color="#00478c"/></linearGradient><linearGradient x1="233.51667" y1="156.22213" x2="233.51667" y2="200.77768" gradientUnits="userSpaceOnUse" id="color-21"><stop offset="0" stop-color="#00ffad"/><stop offset="1" stop-color="#00478c"/></linearGradient><linearGradient x1="263.00664" y1="178.60526" x2="263.00664" y2="188.09108" gradientUnits="userSpaceOnUse" id="color-22"><stop offset="0" stop-color="#00a29c"/><stop offset="1" stop-color="#007995"/></linearGradient><linearGradient x1="229.76358" y1="193.40467" x2="226.97556" y2="193.40467" gradientUnits="userSpaceOnUse" id="color-23"><stop offset="0" stop-color="#002f5e"/><stop offset="1" stop-color="#002f5e" stop-opacity="0"/></linearGradient><linearGradient x1="244.47292" y1="203.97261" x2="235.34847" y2="203.97261" gradientUnits="userSpaceOnUse" id="color-24"><stop offset="0" stop-color="#888888"/><stop offset="1" stop-color="#696969"/></linearGradient><linearGradient x1="229.90528" y1="186.04025" x2="227.01003" y2="186.04025" gradientUnits="userSpaceOnUse" id="color-25"><stop offset="0" stop-color="#dbdbdb"/><stop offset="1" stop-color="#dbdbdb" stop-opacity="0"/></linearGradient><linearGradient x1="242.36782" y1="197.61641" x2="237.97134" y2="197.61641" gradientUnits="userSpaceOnUse" id="color-26"><stop offset="0" stop-color="#8b8b8b"/><stop offset="1" stop-color="#7f7f7f"/></linearGradient><linearGradient x1="241.9818" y1="192.7664" x2="238.35737" y2="192.7664" gradientUnits="userSpaceOnUse" id="color-27"><stop offset="0" stop-color="#8b8b8b"/><stop offset="1" stop-color="#7f7f7f"/></linearGradient><linearGradient x1="217.2189" y1="178.60526" x2="217.2189" y2="188.09109" gradientUnits="userSpaceOnUse" id="color-28"><stop offset="0" stop-color="#00a29c"/><stop offset="1" stop-color="#007995"/></linearGradient><linearGradient x1="263.83432" y1="179.88451" x2="263.83432" y2="192.11528" gradientUnits="userSpaceOnUse" id="color-29"><stop offset="0" stop-color="#009a95"/><stop offset="1" stop-color="#005da9"/></linearGradient><linearGradient x1="216.29045" y1="179.88451" x2="216.29045" y2="192.11528" gradientUnits="userSpaceOnUse" id="color-30"><stop offset="0" stop-color="#009a95"/><stop offset="1" stop-color="#005da9"/></linearGradient><linearGradient x1="265.02209" y1="178.94646" x2="265.02209" y2="192.5362" gradientUnits="userSpaceOnUse" id="color-31"><stop offset="0" stop-color="#007c78"/><stop offset="1" stop-color="#00376d"/></linearGradient><linearGradient x1="215.10259" y1="178.94646" x2="215.10259" y2="192.5362" gradientUnits="userSpaceOnUse" id="color-32"><stop offset="0" stop-color="#007c78"/><stop offset="1" stop-color="#00376d"/></linearGradient><linearGradient x1="250.47265" y1="179.10309" x2="246.82677" y2="179.10309" gradientUnits="userSpaceOnUse" id="color-33"><stop offset="0" stop-color="#00b67c"/><stop offset="1" stop-color="#00b67c" stop-opacity="0"/></linearGradient><linearGradient x1="250.47265" y1="179.10309" x2="246.82677" y2="179.10309" gradientUnits="userSpaceOnUse" id="color-34"><stop offset="0" stop-color="#00847e"/><stop offset="1" stop-color="#00847e" stop-opacity="0"/></linearGradient><linearGradient x1="250.47265" y1="179.10309" x2="246.82677" y2="179.10309" gradientUnits="userSpaceOnUse" id="color-35"><stop offset="0" stop-color="#004183"/><stop offset="1" stop-color="#004183" stop-opacity="0"/></linearGradient><linearGradient x1="250.43698" y1="172.98333" x2="246.8662" y2="172.98333" gradientUnits="userSpaceOnUse" id="color-36"><stop offset="0" stop-color="#009c84"/><stop offset="1" stop-color="#009c84" stop-opacity="0"/></linearGradient><linearGradient x1="250.43698" y1="188.08333" x2="246.8662" y2="188.08333" gradientUnits="userSpaceOnUse" id="color-37"><stop offset="0" stop-color="#00779c"/><stop offset="1" stop-color="#00779c" stop-opacity="0"/></linearGradient><linearGradient x1="240.67185" y1="126.50033" x2="240.67185" y2="220.52638" gradientUnits="userSpaceOnUse" id="color-38"><stop offset="0" stop-color="#a300f2"/><stop offset="1" stop-color="#a300f2" stop-opacity="0"/></linearGradient><linearGradient x1="240.94473" y1="98.48157" x2="240.94473" y2="226.50218" gradientUnits="userSpaceOnUse" id="color-39"><stop offset="0" stop-color="#f1f1f1"/><stop offset="1" stop-color="#f1f1f1" stop-opacity="0"/></linearGradient><linearGradient x1="239.78731" y1="206.11822" x2="239.78731" y2="214.02598" gradientUnits="userSpaceOnUse" id="color-40"><stop offset="0" stop-color="#ff4f00"/><stop offset="1" stop-color="#ff4f00" stop-opacity="0"/></linearGradient><linearGradient x1="239.86535" y1="206.36496" x2="239.86535" y2="211.71079" gradientUnits="userSpaceOnUse" id="color-41"><stop offset="0" stop-color="#ffd400"/><stop offset="1" stop-color="#ffd400" stop-opacity="0"/></linearGradient><linearGradient x1="239.86799" y1="206.0069" x2="239.86799" y2="214.88922" gradientUnits="userSpaceOnUse" id="color-42"><stop offset="0" stop-color="#ffee00"/><stop offset="1" stop-color="#ffee00" stop-opacity="0"/></linearGradient><linearGradient x1="239.95123" y1="205.93395" x2="239.95123" y2="209.82133" gradientUnits="userSpaceOnUse" id="color-43"><stop offset="0" stop-color="#ffee00"/><stop offset="1" stop-color="#ffee00" stop-opacity="0"/></linearGradient><linearGradient x1="237.60631" y1="206.0069" x2="237.60631" y2="209.89428" gradientUnits="userSpaceOnUse" id="color-44"><stop offset="0" stop-color="#ffee00"/><stop offset="1" stop-color="#ffee00" stop-opacity="0"/></linearGradient><linearGradient x1="242.29614" y1="206.0069" x2="242.29614" y2="209.89428" gradientUnits="userSpaceOnUse" id="color-45"><stop offset="0" stop-color="#ffee00"/><stop offset="1" stop-color="#ffee00" stop-opacity="0"/></linearGradient><linearGradient x1="256.93469" y1="181.97988" x2="252.17274" y2="181.97988" gradientUnits="userSpaceOnUse" id="color-46"><stop offset="0" stop-color="#01878f"/><stop offset="1" stop-color="#018097"/></linearGradient><linearGradient x1="256.93469" y1="181.97988" x2="252.17273" y2="181.97988" gradientUnits="userSpaceOnUse" id="color-47"><stop offset="0" stop-color="#01878f"/><stop offset="1" stop-color="#018097"/></linearGradient><linearGradient x1="256.87609" y1="185.90966" x2="252.12326" y2="185.90966" gradientUnits="userSpaceOnUse" id="color-48"><stop offset="0" stop-color="#01878f"/><stop offset="1" stop-color="#018097"/></linearGradient><linearGradient x1="256.87609" y1="185.90966" x2="252.12326" y2="185.90966" gradientUnits="userSpaceOnUse" id="color-49"><stop offset="0" stop-color="#01878f"/><stop offset="1" stop-color="#018097"/></linearGradient><linearGradient x1="223.65331" y1="181.97988" x2="228.41525" y2="181.97988" gradientUnits="userSpaceOnUse" id="color-50"><stop offset="0" stop-color="#01878f"/><stop offset="1" stop-color="#018097"/></linearGradient><linearGradient x1="223.65334" y1="181.97988" x2="228.41526" y2="181.97988" gradientUnits="userSpaceOnUse" id="color-51"><stop offset="0" stop-color="#01878f"/><stop offset="1" stop-color="#018097"/></linearGradient><linearGradient x1="223.71192" y1="185.90966" x2="228.46475" y2="185.90966" gradientUnits="userSpaceOnUse" id="color-52"><stop offset="0" stop-color="#01878f"/><stop offset="1" stop-color="#018097"/></linearGradient><linearGradient x1="223.71192" y1="185.90966" x2="228.46475" y2="185.90966" gradientUnits="userSpaceOnUse" id="color-53"><stop offset="0" stop-color="#01878f"/><stop offset="1" stop-color="#018097"/></linearGradient></defs><g transform="translate(-211.90014,-152.83594)"><g data-paper-data="{&quot;isPaintingLayer&quot;:true}" fill-rule="nonzero" stroke-linejoin="miter" stroke-miterlimit="10" stroke-dasharray="" stroke-dashoffset="0" style="mix-blend-mode: normal"><path d="M237.25101,155.54167v-2.375h1.375v2.375z" data-paper-data="{&quot;index&quot;:null}" fill="#00cd94" stroke="none" stroke-width="0" stroke-linecap="butt"/><g data-paper-data="{&quot;index&quot;:null}" fill="none" stroke="#00386f" stroke-width="1" stroke-linecap="round"><g><path d="M265.30743,194.65132l-16.28577,8.375h-8.74606"/><path d="M265.24711,193.77632l-16.28577,8.375h-8.74606"/><path d="M265.42807,192.83882l-16.28577,8.375h-8.74606"/></g><g><path d="M239.84909,203.02632h-8.74606l-16.28577,-8.375"/><path d="M239.90941,202.15132h-8.74606l-16.28577,-8.375"/><path d="M239.72846,201.21382h-8.74606l-16.28577,-8.375"/></g></g><path d="M243.87156,199.68326l-11.16459,-0.0566l-2.84249,-0.71141l-0.20781,-37.7619l6.31763,-5.42857v15.95287c0,0 0.76409,1.79051 2.82816,1.79051c2.10079,0 2.87313,-1.92095 2.87313,-1.92095v-15.66277l6.16355,5.42857l0.17436,37.58147z" data-paper-data="{&quot;index&quot;:null}" fill="url(#color-1)" stroke="url(#color-2)" stroke-width="2.5" stroke-linecap="round"/><path d="M239.60027,202.04807c2.95599,0 5.35228,2.50497 5.35228,5.59501c0,3.09004 -2.39629,5.59501 -5.35228,5.59501c-2.95599,0 -5.35228,-2.50497 -5.35228,-5.59501c0,-3.09003 2.39629,-5.59501 5.35228,-5.59501z" data-paper-data="{&quot;index&quot;:null}" fill="url(#color-3)" stroke="none" stroke-width="0" stroke-linecap="butt"/><path d="M236.59104,212.84849v-6.27273c0,0 1.46377,-0.45454 3.33393,-0.45454c1.75313,0 3.33392,0.45454 3.33392,0.45454v6.27273z" data-paper-data="{&quot;index&quot;:null}" fill="url(#color-4)" stroke="none" stroke-width="0" stroke-linecap="butt"/><path d="M244.69797,173.2291l-8.15934,-1.36364l1.31603,-16.90909c0,0 0.39222,0.18974 0.78961,0.09091c0.39738,-0.09882 0.76141,-0.18471 1.40375,-0.63636c0.64235,-0.45165 1.4915,-1.36364 1.4915,-1.36364z" data-paper-data="{&quot;index&quot;:null}" fill="#676767" stroke="#ff0000" stroke-width="0" stroke-linecap="round"/><g data-paper-data="{&quot;index&quot;:null}" fill="none" stroke-linecap="round"><g stroke="#b6b6b6" stroke-width="2.5"><path d="M257.98542,179.46936v-4.09091"/></g><path d="M257.5906,179.71936l-0.04386,-4.18182" stroke="#c2c2c2" stroke-width="1.5"/></g><g data-paper-data="{&quot;index&quot;:null}" fill="none" stroke-linecap="round"><g stroke="#b6b6b6" stroke-width="2.5"><path d="M221.21142,175.37845v4.09091"/></g><path d="M221.65009,175.53754l-0.04386,4.18182" stroke="#c2c2c2" stroke-width="1.5"/></g><path d="M239.60436,200.33696c4.16027,0 7.53284,3.52552 7.53284,7.87446c0,4.34894 -3.37256,7.87446 -7.53284,7.87446c-4.16028,0 -7.53284,-3.52552 -7.53284,-7.87446c0,-4.34894 3.37256,-7.87446 7.53284,-7.87446z" data-paper-data="{&quot;index&quot;:null}" fill="url(#color-5)" stroke="none" stroke-width="0" stroke-linecap="butt"/><path d="M239.88115,193.0734c6.49721,0 11.76423,5.53134 11.76423,12.35459c0,6.82325 -5.26703,12.35459 -11.76423,12.35459c-6.49721,0 -11.76422,-5.53134 -11.76422,-12.35459c0,-6.82325 5.26702,-12.35459 11.76422,-12.35459z" data-paper-data="{&quot;index&quot;:null}" fill="url(#color-6)" stroke="none" stroke-width="0" stroke-linecap="butt"/><path d="M242.239,204.32197l-2.41271,16.86364l-2.41271,-16.86364z" data-paper-data="{&quot;index&quot;:null}" fill="url(#color-7)" stroke="#000000" stroke-width="0" stroke-linecap="round"/><path d="M239.75931,202.85029c2.95599,0 5.35228,2.50497 5.35228,5.59501c0,3.09004 -2.3963,5.59501 -5.35228,5.59501c-2.95599,0 -5.35228,-2.50497 -5.35228,-5.59501c0,-3.09004 2.3963,-5.59501 5.35228,-5.59501z" data-paper-data="{&quot;index&quot;:null}" fill="url(#color-8)" stroke="none" stroke-width="0" stroke-linecap="butt"/><path d="M239.90888,205.18c2.4076,0 4.35933,0.37649 4.35933,0.84091c0,0.46442 -1.95174,0.84091 -4.35933,0.84091c-2.4076,0 -4.35933,-0.37649 -4.35933,-0.84091c0,-0.46442 1.95174,-0.84091 4.35933,-0.84091z" data-paper-data="{&quot;index&quot;:null}" fill="url(#color-9)" stroke="url(#color-10)" stroke-width="0.5" stroke-linecap="butt"/><path d="M242.74716,206.4361c-0.49872,0.08412 -1.60978,0.12799 -1.60978,0.12799l0.03328,-4.2069h2.82869v3.72414c0,0 -0.80185,0.27881 -1.25219,0.35477z" data-paper-data="{&quot;index&quot;:null}" fill="url(#color-11)" stroke="none" stroke-width="0" stroke-linecap="butt"/><path d="M229.79112,203.47619v-3.42857h20.81821v3.42857z" data-paper-data="{&quot;index&quot;:null}" fill="#00386f" stroke="none" stroke-width="0" stroke-linecap="butt"/><path d="M237.07122,206.4361c-0.45033,-0.07597 -1.25219,-0.35477 -1.25219,-0.35477v-3.72414h2.8287l0.03328,4.2069c0,0 -1.11107,-0.04386 -1.60978,-0.12799z" data-paper-data="{&quot;index&quot;:null}" fill="url(#color-12)" stroke="none" stroke-width="0" stroke-linecap="butt"/><path d="M237.2698,173.76975v-11.79798h5.57603v11.79798z" data-paper-data="{&quot;index&quot;:null}" fill="url(#color-13)" stroke="none" stroke-width="0" stroke-linecap="butt"/><path d="M240.01517,161.54812c1.14806,0 2.07875,0.20942 2.07875,0.46775c0,0.25833 -0.93069,0.46774 -2.07875,0.46774c-1.14805,0 -2.07874,-0.20941 -2.07874,-0.46774c0,-0.25833 0.93068,-0.46775 2.07874,-0.46775z" data-paper-data="{&quot;index&quot;:null}" fill="url(#color-14)" stroke="#7e7e7e" stroke-width="0.5" stroke-linecap="butt"/><path d="M264.82489,194.71382v-1.9375h1.0254v1.9375z" data-paper-data="{&quot;index&quot;:null}" fill="#00386f" stroke="none" stroke-width="0" stroke-linecap="butt"/><path d="M265.88048,192.23966l-17.03639,8.625l-8.78052,0.03917l-0.04559,-21.91417l25.45127,-0.125z" data-paper-data="{&quot;index&quot;:null}" fill="url(#color-15)" stroke="#b6b6b6" stroke-width="0" stroke-linecap="round"/><path d="M262.85597,180.24805v-1.35714h1.86123v1.35714z" data-paper-data="{&quot;index&quot;:null}" fill="#00bcfb" stroke="none" stroke-width="0" stroke-linecap="butt"/><path d="M241.27947,199.6052v-19.28572" data-paper-data="{&quot;index&quot;:null}" fill="none" stroke="#3195b6" stroke-width="2.5" stroke-linecap="round"/><path d="M240.03864,183.74805v-4.71428h2.41271v4.71428z" data-paper-data="{&quot;index&quot;:null}" fill="#f00000" stroke="none" stroke-width="0" stroke-linecap="butt"/><path d="M240.03864,200.81948v-6h2.41271v6z" data-paper-data="{&quot;index&quot;:null}" fill="#0098ca" stroke="none" stroke-width="0" stroke-linecap="butt"/><path d="M250.95183,191.90132v-7.1875" data-paper-data="{&quot;index&quot;:null}" fill="none" stroke="#00bcfb" stroke-width="1" stroke-linecap="round"/><path d="M249.08199,183.77632l0.12064,8.6875" data-paper-data="{&quot;index&quot;:null}" fill="none" stroke="#f50000" stroke-width="1" stroke-linecap="round"/><path d="M260.12012,181.15132v7.9375" data-paper-data="{&quot;index&quot;:null}" fill="none" stroke="#006c8a" stroke-width="1" stroke-linecap="round"/><path d="M254.32962,193.96382v-11.875" data-paper-data="{&quot;index&quot;:null}" fill="none" stroke="#005b82" stroke-width="1" stroke-linecap="round"/><path d="M246.18673,195.46382l-0.06032,-11.1875" data-paper-data="{&quot;index&quot;:null}" fill="none" stroke="#fa0000" stroke-width="1" stroke-linecap="round"/><path d="M256.80263,189.21382l0.12064,5.125" data-paper-data="{&quot;index&quot;:null}" fill="none" stroke="#005b82" stroke-width="1" stroke-linecap="round"/><path d="M243.83434,181.40132l-0.06032,11" data-paper-data="{&quot;index&quot;:null}" fill="none" stroke="#fa0000" stroke-width="1" stroke-linecap="round"/><path d="M214.27441,194.71382v-1.9375h1.0254v1.9375z" data-paper-data="{&quot;index&quot;:null}" fill="#00386f" stroke="none" stroke-width="0" stroke-linecap="butt"/><path d="M214.65548,178.86466l25.45127,0.125l-0.04559,21.91417l-8.78052,-0.03917l-17.03639,-8.625z" data-paper-data="{&quot;index&quot;:null}" fill="url(#color-16)" stroke="#b6b6b6" stroke-width="0" stroke-linecap="round"/><path d="M215.40751,180.24805v-1.35714h1.86123v1.35714z" data-paper-data="{&quot;index&quot;:null}" fill="#00b1ec" stroke="none" stroke-width="0" stroke-linecap="butt"/><path d="M238.84523,180.31948v19.28572" data-paper-data="{&quot;index&quot;:null}" fill="none" stroke="#3195b6" stroke-width="2.5" stroke-linecap="round"/><path d="M237.67335,183.74805v-4.71428h2.41271v4.71428z" data-paper-data="{&quot;index&quot;:null}" fill="#f00000" stroke="none" stroke-width="0" stroke-linecap="butt"/><path d="M237.67335,200.81948v-6h2.41271v6z" data-paper-data="{&quot;index&quot;:null}" fill="#0098ca" stroke="none" stroke-width="0" stroke-linecap="butt"/><path d="M229.17283,191.90132v-7.1875" data-paper-data="{&quot;index&quot;:null}" fill="none" stroke="#00bcfb" stroke-width="1" stroke-linecap="round"/><path d="M231.04268,183.77632l-0.12064,8.6875" data-paper-data="{&quot;index&quot;:null}" fill="none" stroke="#f50000" stroke-width="1" stroke-linecap="round"/><path d="M220.00458,189.08882v-7.9375" data-paper-data="{&quot;index&quot;:null}" fill="none" stroke="#006c8a" stroke-width="1" stroke-linecap="round"/><path d="M225.79504,182.08882v11.875" data-paper-data="{&quot;index&quot;:null}" fill="none" stroke="#005b82" stroke-width="1" stroke-linecap="round"/><path d="M233.93793,195.46382l0.06032,-11.1875" data-paper-data="{&quot;index&quot;:null}" fill="none" stroke="#fa0000" stroke-width="1" stroke-linecap="round"/><path d="M223.20142,194.33882l0.12064,-5.125" data-paper-data="{&quot;index&quot;:null}" fill="none" stroke="#005b82" stroke-width="1" stroke-linecap="round"/><path d="M236.29031,181.40132l0.06032,11" data-paper-data="{&quot;index&quot;:null}" fill="none" stroke="#fa0000" stroke-width="1" stroke-linecap="round"/><path d="M239.00624,167.61264v-4.77419h0.24905v4.77419z" data-paper-data="{&quot;index&quot;:null}" fill="#1dfffb" stroke="none" stroke-width="0" stroke-linecap="butt"/><path d="M241.53958,153.41091l-0.08774,17.45455c0,0 -0.24692,0.86024 -1.31602,0.90909c-1.09414,0.04999 -1.4915,-0.90909 -1.4915,-0.90909v-17.45455" data-paper-data="{&quot;index&quot;:null}" fill="none" stroke="#b1b1b1" stroke-width="1" stroke-linecap="round"/><path d="M245.2049,199.51659l-11.16459,-0.0566l-2.84249,-0.71141l-0.20781,-37.7619l6.31763,-5.42857v15.95287c0,0 0.76409,1.79051 2.82816,1.79051c2.10079,0 2.87313,-1.92095 2.87313,-1.92095v-15.66277l6.16355,5.42857l0.17436,37.58147z" data-paper-data="{&quot;index&quot;:null}" fill="#ffffff" stroke="#ffffff" stroke-width="2.5" stroke-linecap="round"/><path d="M244.77598,177.2142l-0.10723,18.33333" data-paper-data="{&quot;index&quot;:null}" fill="none" stroke="#eeeeee" stroke-width="1" stroke-linecap="round"/><path d="M233.5167,177.2142l-0.10723,11.77777" data-paper-data="{&quot;index&quot;:null}" fill="none" stroke="#eeeeee" stroke-width="1" stroke-linecap="round"/><path d="M235.98299,195.43641l0.21446,-10.66666" data-paper-data="{&quot;index&quot;:null}" fill="none" stroke="#eeeeee" stroke-width="1" stroke-linecap="round"/><path d="M242.7386,199.54753v-13.33333" data-paper-data="{&quot;index&quot;:null}" fill="none" stroke="#eeeeee" stroke-width="1" stroke-linecap="round"/><path d="M237.59148,180.65864l-0.10723,-7" data-paper-data="{&quot;index&quot;:null}" fill="none" stroke="#eeeeee" stroke-width="1" stroke-linecap="round"/><path d="M245.74106,173.10307l-0.21447,-13.77777" data-paper-data="{&quot;index&quot;:null}" fill="none" stroke="#eeeeee" stroke-width="1" stroke-linecap="round"/><path d="M232.12266,160.3253l0.21446,12.11111" data-paper-data="{&quot;index&quot;:null}" fill="none" stroke="#fa0000" stroke-width="1" stroke-linecap="round"/><path d="M234.69623,160.99197l0.32169,13" data-paper-data="{&quot;index&quot;:null}" fill="none" stroke="#eeeeee" stroke-width="1" stroke-linecap="round"/><path d="M240.77701,167.52488v-4.7h0.19302v4.7z" data-paper-data="{&quot;index&quot;:null}" fill="url(#color-17)" stroke="none" stroke-width="0" stroke-linecap="butt"/><path d="M239.90903,167.70941v-4.80645h0.21793v4.80645z" data-paper-data="{&quot;index&quot;:null}" fill="#1dfffb" stroke="none" stroke-width="0" stroke-linecap="butt"/><path d="M241.66566,183.26327l-1.40938,0.6931l-1.40938,-0.54738v-7.72276l1.45343,-0.91167l1.36533,1.05738z" data-paper-data="{&quot;index&quot;:null}" fill="#8cffff" stroke="#7e7e7e" stroke-width="0.5" stroke-linecap="round"/><path d="M241.60259,175.94406l-1.26667,0.875l-1.38731,-1.125" data-paper-data="{&quot;index&quot;:null}" fill="none" stroke="#55eded" stroke-width="0.5" stroke-linecap="round"/><path d="M239.18989,183.31906l1.20635,-0.8125l0.96508,0.6875" data-paper-data="{&quot;index&quot;:null}" fill="none" stroke="#55eded" stroke-width="0.5" stroke-linecap="round"/><path d="M240.2756,175.00656l0.06032,1.5l-0.06032,6.5625l-0.18095,0.5625" data-paper-data="{&quot;index&quot;:null}" fill="none" stroke="#4fdada" stroke-width="0.5" stroke-linecap="round"/><path d="M241.66566,183.26327l-1.40938,0.6931l-1.40938,-0.54738v-7.72276l1.45343,-0.91167l1.36533,1.05738z" data-paper-data="{&quot;index&quot;:null}" fill="none" stroke="#7e7e7e" stroke-width="0.5" stroke-linecap="round"/><path d="M240.05013,182.33047l-0.94211,0.78572l0.02298,-6.9881l0.89615,0.82143z" data-paper-data="{&quot;index&quot;:null}" fill="#5cffff" stroke="none" stroke-width="0" stroke-linecap="round"/><path d="M239.8723,183.49803l-0.49811,-0.13243l0.66851,-0.37012z" data-paper-data="{&quot;index&quot;:null}" fill="#57f3f3" stroke="#56eeee" stroke-width="0" stroke-linecap="round"/><path d="M240.53028,176.96645l0.94211,-0.78572l-0.02298,6.80388l-0.89616,-0.66353z" data-paper-data="{&quot;index&quot;:null}" fill="#87ffff" stroke="none" stroke-width="0" stroke-linecap="round"/><path d="M240.11061,200.90476v-10.7h3.66731v10.7z" data-paper-data="{&quot;index&quot;:null}" fill="#2d2d2d" stroke="none" stroke-width="0" stroke-linecap="butt"/><path d="M236.5398,200.90476v-10.7h3.66731v10.7z" data-paper-data="{&quot;index&quot;:null}" fill="#2d2d2d" stroke="none" stroke-width="0" stroke-linecap="butt"/><path d="M240.51704,182.91653l0.59232,0.37011l-0.72668,0.34296z" data-paper-data="{&quot;index&quot;:null}" fill="#5afbfb" stroke="#56eeee" stroke-width="0" stroke-linecap="round"/><path d="M250.35202,160.78562l-0.10723,39.33333l-1.50124,0.66667h-5.4688v-13.66667l3.86033,-3.77778v-11.77778l-1.93016,-1.88889l-0.10723,-13.44444z" data-paper-data="{&quot;index&quot;:null}" fill="url(#color-18)" stroke="url(#color-19)" stroke-width="0.5" stroke-linecap="round"/><path d="M235.23236,156.22212l-0.10723,13.44444l-1.93016,1.88889v11.77778l3.86033,3.77777v13.66667h-5.46879l-1.50124,-0.66667l-0.10723,-39.33333z" data-paper-data="{&quot;index&quot;:null}" fill="url(#color-20)" stroke="url(#color-21)" stroke-width="0.5" stroke-linecap="round"/><path d="M250.57185,178.9716l14.57274,-0.07778l-0.09651,6.44445l-14.47624,7.6z" data-paper-data="{&quot;index&quot;:null}" fill="#ffffff" stroke="#ffffff" stroke-width="0.5" stroke-linecap="round"/><path d="M260.68166,178.63062l4.75244,-0.02536l-0.1047,6.99198l-4.75019,2.49384z" data-paper-data="{&quot;index&quot;:null}" fill="url(#color-22)" stroke="#ff9b00" stroke-width="0" stroke-linecap="round"/><path d="M226.97556,198.59855v-11.74943h2.78802v13.11111z" data-paper-data="{&quot;index&quot;:null}" fill="url(#color-23)" stroke="none" stroke-width="0" stroke-linecap="butt"/><path d="M229.54377,192.93827l-14.47624,-7.6l-0.09651,-6.44445l14.57274,0.07778z" data-paper-data="{&quot;index&quot;:null}" fill="#ffffff" stroke="#ffffff" stroke-width="0" stroke-linecap="round"/><path d="M239.95458,205.47261c-2.07526,0 -4.60608,0.63636 -4.60608,0.63636v-4.27273c0,0 2.45023,-0.48772 4.56221,-0.5c2.11274,-0.01228 4.56221,0.5 4.56221,0.5v4.27273c0,0 -2.41382,-0.63636 -4.51834,-0.63636z" data-paper-data="{&quot;index&quot;:null}" fill="url(#color-24)" stroke="none" stroke-width="0" stroke-linecap="butt"/><path d="M236.0793,201.86807v3.68" data-paper-data="{&quot;index&quot;:null}" fill="none" stroke="#656565" stroke-width="0.5" stroke-linecap="round"/><path d="M237.19878,201.66807v3.64" data-paper-data="{&quot;index&quot;:null}" fill="none" stroke="#6a6a6a" stroke-width="0.5" stroke-linecap="round"/><path d="M238.24111,201.54807l0.0386,3.64" data-paper-data="{&quot;index&quot;:null}" fill="none" stroke="#6f6f6f" stroke-width="0.5" stroke-linecap="round"/><path d="M239.32198,201.46807l0.07721,3.68" data-paper-data="{&quot;index&quot;:null}" fill="none" stroke="#747474" stroke-width="0.5" stroke-linecap="round"/><path d="M240.48008,205.18807l-0.0386,-3.76" data-paper-data="{&quot;index&quot;:null}" fill="none" stroke="#787878" stroke-width="0.5" stroke-linecap="round"/><path d="M241.52238,205.26807v-3.76" data-paper-data="{&quot;index&quot;:null}" fill="none" stroke="#7b7b7b" stroke-width="0.5" stroke-linecap="round"/><path d="M237.69789,184.73334v-12.5h4.6324v12.5z" data-paper-data="{&quot;index&quot;:null}" fill="#ffffff" stroke="none" stroke-width="0" stroke-linecap="butt"/><g data-paper-data="{&quot;index&quot;:null}" stroke="#8abcd0" stroke-width="0.5" stroke-linecap="round"><path d="M238.79183,175.62267c0,0 0.53862,-1.7675 1.20206,-1.7675c0.66343,0 1.20205,1.7675 1.20205,1.7675l0.0172,4.93504c0,0 -0.53862,1.7675 -1.20205,1.7675c-0.66343,0 -1.20205,-1.7675 -1.20205,-1.7675z" fill="#97cee4"/><path d="M239.00407,176.19632h2.07631" fill="none"/><path d="M239.09844,177.58406h1.98193" fill="none"/><path d="M241.17476,179.80443h-2.17068" fill="none"/><path d="M239.08629,178.39882h2.17068" fill="none"/></g><path d="M227.01003,191.91525v-13.17857h2.89525v14.60714z" data-paper-data="{&quot;index&quot;:null}" fill="url(#color-25)" stroke="none" stroke-width="0" stroke-linecap="butt"/><path d="M237.97134,200.28307v-5.33334h4.39648v5.33334z" data-paper-data="{&quot;index&quot;:null}" fill="url(#color-26)" stroke="none" stroke-width="0" stroke-linecap="butt"/><path d="M238.35738,194.18307v-2.83333h3.62442v2.83333z" data-paper-data="{&quot;index&quot;:null}" fill="url(#color-27)" stroke="none" stroke-width="0" stroke-linecap="butt"/><path d="M240.74595,191.52778v2.41667" data-paper-data="{&quot;index&quot;:null}" fill="none" stroke="#9e9e9e" stroke-width="0.5" stroke-linecap="round"/><path d="M239.5396,191.52778v2.41667" data-paper-data="{&quot;index&quot;:null}" fill="none" stroke="#9e9e9e" stroke-width="0.5" stroke-linecap="round"/><path d="M219.64634,188.09109l-4.75019,-2.49384l-0.10471,-6.99199l4.75245,0.02536z" data-paper-data="{&quot;index&quot;:null}" fill="url(#color-28)" stroke="#ff9b00" stroke-width="0" stroke-linecap="round"/><path d="M263.7972,179.88451l0.07423,12.23077" data-paper-data="{&quot;index&quot;:null}" fill="none" stroke="url(#color-29)" stroke-width="2" stroke-linecap="round"/><path d="M216.2533,192.11528l0.07423,-12.23077" data-paper-data="{&quot;index&quot;:null}" fill="none" stroke="url(#color-30)" stroke-width="2" stroke-linecap="round"/><path d="M265.01592,178.94646l0.01237,13.58974" data-paper-data="{&quot;index&quot;:null}" fill="none" stroke="url(#color-31)" stroke-width="0.5" stroke-linecap="round"/><path d="M215.09644,192.5362l0.01237,-13.58974" data-paper-data="{&quot;index&quot;:null}" fill="none" stroke="url(#color-32)" stroke-width="0.5" stroke-linecap="round"/><path d="M246.82679,173.08928v-15.76398l3.64586,3.33333v12.34732z" data-paper-data="{&quot;index&quot;:null}" fill="url(#color-33)" stroke="none" stroke-width="0" stroke-linecap="butt"/><path d="M246.82679,187.83928v-14.83333h3.64586v14.83333z" data-paper-data="{&quot;index&quot;:null}" fill="url(#color-34)" stroke="none" stroke-width="0" stroke-linecap="butt"/><path d="M249.07865,200.88086h-2.25187v-13.03889l3.64586,-0.05834l0.08042,12.23611z" data-paper-data="{&quot;index&quot;:null}" fill="url(#color-35)" stroke="none" stroke-width="0" stroke-linecap="butt"/><path d="M246.86617,175.23333v-4.5h3.57081v4.5z" data-paper-data="{&quot;index&quot;:null}" fill="url(#color-36)" stroke="none" stroke-width="0" stroke-linecap="butt"/><path d="M246.86617,190.33333v-4.5h3.57081v4.5z" data-paper-data="{&quot;index&quot;:null}" fill="url(#color-37)" stroke="none" stroke-width="0" stroke-linecap="butt"/><g data-paper-data="{&quot;index&quot;:null}" fill="none" stroke-linecap="round"><path d="M266.54394,177.36466v6.8125" stroke="#b6b6b6" stroke-width="2.5"/><g><path d="M266.7249,185.05216v6.8125" stroke="#b6b6b6" stroke-width="3"/><path d="M266.24701,185.19701v6.6875" stroke="#c2c2c2" stroke-width="2"/></g><path d="M266.06606,177.50951v6.6875" stroke="#c2c2c2" stroke-width="1.5"/></g><g data-paper-data="{&quot;index&quot;:null}" fill="none" stroke-linecap="round"><path d="M213.58109,184.17716v-6.8125" stroke="#b6b6b6" stroke-width="2.5"/><g><path d="M213.40014,185.05216v6.8125" stroke="#b6b6b6" stroke-width="3"/><path d="M213.87801,191.88451v-6.6875" stroke="#c2c2c2" stroke-width="2"/></g><path d="M214.05898,184.19701v-6.6875" stroke="#c2c2c2" stroke-width="1.5"/></g><g data-paper-data="{&quot;index&quot;:null}" stroke="#000000" stroke-width="0" stroke-linecap="round"><path d="M242.46512,206.62111l-2.69946,14.93246l-2.29298,-14.93246z" fill="url(#color-38)"/><path d="M243.38631,207.56953l-3.67542,20.33121l-3.12199,-20.33121z" fill="url(#color-39)"/><path d="M241.13215,206.11822c0,0 2.13307,0.46537 2.10125,2.41626c-0.07475,4.58168 -3.10986,5.49149 -3.10986,5.49149c0,0 -3.59752,-1.02334 -3.78226,-5.49149c-0.0773,-1.86924 2.18529,-2.41626 2.18529,-2.41626z" fill="url(#color-40)"/><path d="M240.77448,206.36496c0,0 1.44201,0.3146 1.4205,1.63345c-0.05054,3.09733 -2.10235,3.71239 -2.10235,3.71239c0,0 -2.43202,-0.69182 -2.5569,-3.71239c-0.05224,-1.26365 1.47732,-1.63345 1.47732,-1.63345z" fill="url(#color-41)"/><path d="M241.37852,206.0069c0,0 2.39597,0.52272 2.36022,2.71404c-0.08398,5.14633 -3.49313,6.16828 -3.49313,6.16828c0,0 -4.0409,-1.14947 -4.24838,-6.16828c-0.0868,-2.0996 2.45462,-2.71404 2.45462,-2.71404z" fill="url(#color-42)"/><path d="M240.61234,205.93395c0,0 1.0486,0.22877 1.03295,1.18781c-0.03674,2.25231 -1.52878,2.69957 -1.52878,2.69957c0,0 -1.76851,-0.50307 -1.85932,-2.69957c-0.03799,-0.9189 1.07427,-1.18781 1.07427,-1.18781z" fill="url(#color-43)"/><path d="M238.26741,206.0069c0,0 1.04861,0.22877 1.03297,1.18781c-0.03674,2.25231 -1.52878,2.69957 -1.52878,2.69957c0,0 -1.76853,-0.50307 -1.85934,-2.69957c-0.038,-0.91889 1.07427,-1.18781 1.07427,-1.18781z" fill="url(#color-44)"/><path d="M242.95725,206.0069c0,0 1.04861,0.22877 1.03297,1.18781c-0.03674,2.25231 -1.52878,2.69957 -1.52878,2.69957c0,0 -1.76853,-0.50307 -1.85934,-2.69957c-0.038,-0.91889 1.07427,-1.18781 1.07427,-1.18781z" fill="url(#color-45)"/></g><g data-paper-data="{&quot;index&quot;:null}" fill="#01878f" stroke="#d5d5d5" stroke-width="1" stroke-linecap="square"><g><path d="M252.17273,180.31501h0.73495v2.37914l-0.19514,-0.07353l1.25701,-1.47055c0.15544,-0.18382 0.29651,-0.33787 0.42323,-0.46217c0.1284,-0.12429 0.26779,-0.21708 0.41816,-0.27835c0.15205,-0.06303 0.33959,-0.09454 0.56261,-0.09454c0.30412,0 0.5736,0.0709 0.80844,0.2127c0.23484,0.14005 0.419,0.3335 0.55247,0.58034c0.13347,0.2451 0.20021,0.52257 0.20021,0.83244c0,0.33437 -0.0642,0.62849 -0.1926,0.88233c-0.12671,0.25384 -0.3058,0.45342 -0.53727,0.59872c-0.23146,0.14355 -0.50348,0.21533 -0.81604,0.21533v-0.83244c0.14361,0.00525 0.27708,-0.02801 0.40042,-0.09979c0.12334,-0.07178 0.22217,-0.17244 0.29651,-0.30199c0.07434,-0.12955 0.11151,-0.27836 0.11151,-0.44642c0,-0.15756 -0.03548,-0.29761 -0.10644,-0.42016c-0.07097,-0.12254 -0.16811,-0.21795 -0.29145,-0.28623c-0.12165,-0.07003 -0.26018,-0.10504 -0.41562,-0.10504c-0.11488,0 -0.23399,0.03152 -0.35733,0.09454c-0.12334,0.06128 -0.25428,0.17332 -0.39282,0.33613l-1.78161,2.06928h-0.67919z"/><path d="M252.32873,185.02473c0.13862,-0.2548 0.33171,-0.45401 0.57925,-0.59765c0.24754,-0.14535 0.53304,-0.21803 0.8565,-0.21803h1.47041c0.32181,0 0.60649,0.07268 0.85403,0.21803c0.24754,0.14364 0.44063,0.34286 0.57925,0.59765c0.13863,0.2548 0.20794,0.54977 0.20794,0.88493c0,0.33516 -0.06932,0.63099 -0.20794,0.88749c-0.13862,0.2548 -0.33171,0.45401 -0.57925,0.59765c-0.24754,0.14364 -0.53222,0.21546 -0.85403,0.21546h-1.47041c-0.32346,0 -0.60896,-0.07182 -0.8565,-0.21546c-0.24754,-0.14364 -0.44063,-0.34286 -0.57925,-0.59765c-0.13699,-0.2565 -0.20547,-0.55233 -0.20547,-0.88749c0,-0.33516 0.0685,-0.63014 0.20547,-0.88493zM252.96243,186.36367c0.07756,0.13509 0.18153,0.24197 0.3119,0.32063c0.13038,0.07866 0.2756,0.11799 0.43568,0.11799h1.58181c0.16174,0 0.30779,-0.03933 0.43816,-0.11799c0.13037,-0.07866 0.23352,-0.18554 0.30943,-0.32063c0.07757,-0.13681 0.11635,-0.28814 0.11635,-0.45401c0,-0.16759 -0.03879,-0.31892 -0.11635,-0.45401c-0.07591,-0.13509 -0.17906,-0.24197 -0.30943,-0.32063c-0.13038,-0.07866 -0.27643,-0.11799 -0.43816,-0.11799h-1.58181c-0.16008,0 -0.30531,0.03933 -0.43568,0.11799c-0.13037,0.07866 -0.23434,0.18554 -0.3119,0.32063c-0.07591,0.13509 -0.11387,0.28643 -0.11387,0.45401c0,0.16587 0.03796,0.31721 0.11387,0.45401z"/></g><g data-paper-data="{&quot;index&quot;:null}"><path d="M228.41525,183.64475h-0.67919l-1.78161,-2.06928c-0.13854,-0.16281 -0.26948,-0.27485 -0.39282,-0.33613c-0.12334,-0.06302 -0.24245,-0.09454 -0.35733,-0.09454c-0.15543,0 -0.29397,0.03501 -0.41562,0.10504c-0.12334,0.06828 -0.22049,0.16369 -0.29145,0.28623c-0.07096,0.12255 -0.10644,0.2626 -0.10644,0.42016c0,0.16806 0.03717,0.31687 0.11151,0.44642c0.07434,0.12955 0.17317,0.23021 0.29651,0.30199c0.12334,0.07178 0.25681,0.10504 0.40042,0.09979v0.83244c-0.31256,0 -0.58457,-0.07178 -0.81604,-0.21533c-0.23146,-0.1453 -0.41055,-0.34488 -0.53727,-0.59872c-0.1284,-0.25384 -0.1926,-0.54796 -0.1926,-0.88233c0,-0.30987 0.06674,-0.58734 0.20021,-0.83244c0.13347,-0.24684 0.31763,-0.44029 0.55247,-0.58034c0.23484,-0.1418 0.50432,-0.2127 0.80844,-0.2127c0.22302,0 0.41055,0.03151 0.56261,0.09454c0.15037,0.06127 0.28976,0.15406 0.41816,0.27835c0.12672,0.1243 0.26779,0.27835 0.42323,0.46217l1.25701,1.47055l-0.19514,0.07353v-2.37914h0.73495z"/><path d="M228.46476,185.90966c0,0.33516 -0.0685,0.63099 -0.20547,0.88749c-0.13862,0.2548 -0.33171,0.45401 -0.57925,0.59765c-0.24754,0.14364 -0.53304,0.21546 -0.8565,0.21546h-1.47041c-0.32181,0 -0.60649,-0.07182 -0.85403,-0.21546c-0.24754,-0.14364 -0.44063,-0.34286 -0.57925,-0.59765c-0.13863,-0.2565 -0.20794,-0.55233 -0.20794,-0.88749c0,-0.33516 0.06932,-0.63014 0.20794,-0.88493c0.13862,-0.2548 0.33171,-0.45401 0.57925,-0.59765c0.24754,-0.14535 0.53222,-0.21803 0.85403,-0.21803h1.47041c0.32346,0 0.60896,0.07268 0.8565,0.21803c0.24754,0.14364 0.44063,0.34286 0.57925,0.59765c0.13699,0.2548 0.20547,0.54977 0.20547,0.88493zM227.73944,185.90965c0,-0.16759 -0.03796,-0.31892 -0.11387,-0.45401c-0.07756,-0.13509 -0.18153,-0.24197 -0.3119,-0.32063c-0.13038,-0.07866 -0.2756,-0.11799 -0.43568,-0.11799h-1.58181c-0.16174,0 -0.30779,0.03933 -0.43816,0.11799c-0.13037,0.07866 -0.23352,0.18554 -0.30943,0.32063c-0.07757,0.13509 -0.11635,0.28643 -0.11635,0.45401c0,0.16587 0.03879,0.31721 0.11635,0.45401c0.07591,0.13509 0.17906,0.24197 0.30943,0.32063c0.13038,0.07866 0.27643,0.11799 0.43816,0.11799h1.58181c0.16008,0 0.30531,-0.03933 0.43568,-0.11799c0.13037,-0.07866 0.23434,-0.18554 0.3119,-0.32063c0.07591,-0.13681 0.11387,-0.28814 0.11387,-0.45401z"/></g></g><g data-paper-data="{&quot;index&quot;:null}" stroke-width="0.25" stroke-linecap="square"><g><path d="M252.17273,180.31501h0.73495v2.37914l-0.19514,-0.07353l1.25701,-1.47055c0.15544,-0.18382 0.29651,-0.33787 0.42323,-0.46217c0.1284,-0.12429 0.26779,-0.21708 0.41816,-0.27835c0.15205,-0.06303 0.33959,-0.09454 0.56261,-0.09454c0.30412,0 0.5736,0.0709 0.80844,0.2127c0.23484,0.14005 0.419,0.3335 0.55247,0.58034c0.13347,0.2451 0.20021,0.52257 0.20021,0.83244c0,0.33437 -0.0642,0.62849 -0.1926,0.88233c-0.12671,0.25384 -0.3058,0.45342 -0.53727,0.59872c-0.23146,0.14355 -0.50348,0.21533 -0.81604,0.21533v-0.83244c0.14361,0.00525 0.27708,-0.02801 0.40042,-0.09979c0.12334,-0.07178 0.22217,-0.17244 0.29651,-0.30199c0.07434,-0.12955 0.11151,-0.27836 0.11151,-0.44642c0,-0.15756 -0.03548,-0.29761 -0.10644,-0.42016c-0.07097,-0.12254 -0.16811,-0.21795 -0.29145,-0.28623c-0.12165,-0.07003 -0.26018,-0.10504 -0.41562,-0.10504c-0.11488,0 -0.23399,0.03152 -0.35733,0.09454c-0.12334,0.06128 -0.25428,0.17332 -0.39282,0.33613l-1.78161,2.06928h-0.67919z" fill="url(#color-46)" stroke="url(#color-47)"/><path d="M252.32873,185.02473c0.13862,-0.2548 0.33171,-0.45401 0.57925,-0.59765c0.24754,-0.14535 0.53304,-0.21803 0.8565,-0.21803h1.47041c0.32181,0 0.60649,0.07268 0.85403,0.21803c0.24754,0.14364 0.44063,0.34286 0.57925,0.59765c0.13863,0.2548 0.20794,0.54977 0.20794,0.88493c0,0.33516 -0.06932,0.63099 -0.20794,0.88749c-0.13862,0.2548 -0.33171,0.45401 -0.57925,0.59765c-0.24754,0.14364 -0.53222,0.21546 -0.85403,0.21546h-1.47041c-0.32346,0 -0.60896,-0.07182 -0.8565,-0.21546c-0.24754,-0.14364 -0.44063,-0.34286 -0.57925,-0.59765c-0.13699,-0.2565 -0.20547,-0.55233 -0.20547,-0.88749c0,-0.33516 0.0685,-0.63014 0.20547,-0.88493zM252.96243,186.36367c0.07756,0.13509 0.18153,0.24197 0.3119,0.32063c0.13038,0.07866 0.2756,0.11799 0.43568,0.11799h1.58181c0.16174,0 0.30779,-0.03933 0.43816,-0.11799c0.13037,-0.07866 0.23352,-0.18554 0.30943,-0.32063c0.07757,-0.13681 0.11635,-0.28814 0.11635,-0.45401c0,-0.16759 -0.03879,-0.31892 -0.11635,-0.45401c-0.07591,-0.13509 -0.17906,-0.24197 -0.30943,-0.32063c-0.13038,-0.07866 -0.27643,-0.11799 -0.43816,-0.11799h-1.58181c-0.16008,0 -0.30531,0.03933 -0.43568,0.11799c-0.13037,0.07866 -0.23434,0.18554 -0.3119,0.32063c-0.07591,0.13509 -0.11387,0.28643 -0.11387,0.45401c0,0.16587 0.03796,0.31721 0.11387,0.45401z" fill="url(#color-48)" stroke="url(#color-49)"/></g><g data-paper-data="{&quot;index&quot;:null}"><path d="M228.41525,183.64475h-0.67919l-1.78161,-2.06928c-0.13854,-0.16281 -0.26948,-0.27485 -0.39282,-0.33613c-0.12334,-0.06302 -0.24245,-0.09454 -0.35733,-0.09454c-0.15543,0 -0.29397,0.03501 -0.41562,0.10504c-0.12334,0.06828 -0.22049,0.16369 -0.29145,0.28623c-0.07096,0.12255 -0.10644,0.2626 -0.10644,0.42016c0,0.16806 0.03717,0.31687 0.11151,0.44642c0.07434,0.12955 0.17317,0.23021 0.29651,0.30199c0.12334,0.07178 0.25681,0.10504 0.40042,0.09979v0.83244c-0.31256,0 -0.58457,-0.07178 -0.81604,-0.21533c-0.23146,-0.1453 -0.41055,-0.34488 -0.53727,-0.59872c-0.1284,-0.25384 -0.1926,-0.54796 -0.1926,-0.88233c0,-0.30987 0.06674,-0.58734 0.20021,-0.83244c0.13347,-0.24684 0.31763,-0.44029 0.55247,-0.58034c0.23484,-0.1418 0.50432,-0.2127 0.80844,-0.2127c0.22302,0 0.41055,0.03151 0.56261,0.09454c0.15037,0.06127 0.28976,0.15406 0.41816,0.27835c0.12672,0.1243 0.26779,0.27835 0.42323,0.46217l1.25701,1.47055l-0.19514,0.07353v-2.37914h0.73495z" fill="url(#color-50)" stroke="url(#color-51)"/><path d="M228.46476,185.90966c0,0.33516 -0.0685,0.63099 -0.20547,0.88749c-0.13862,0.2548 -0.33171,0.45401 -0.57925,0.59765c-0.24754,0.14364 -0.53304,0.21546 -0.8565,0.21546h-1.47041c-0.32181,0 -0.60649,-0.07182 -0.85403,-0.21546c-0.24754,-0.14364 -0.44063,-0.34286 -0.57925,-0.59765c-0.13863,-0.2565 -0.20794,-0.55233 -0.20794,-0.88749c0,-0.33516 0.06932,-0.63014 0.20794,-0.88493c0.13862,-0.2548 0.33171,-0.45401 0.57925,-0.59765c0.24754,-0.14535 0.53222,-0.21803 0.85403,-0.21803h1.47041c0.32346,0 0.60896,0.07268 0.8565,0.21803c0.24754,0.14364 0.44063,0.34286 0.57925,0.59765c0.13699,0.2548 0.20547,0.54977 0.20547,0.88493zM227.73944,185.90965c0,-0.16759 -0.03796,-0.31892 -0.11387,-0.45401c-0.07756,-0.13509 -0.18153,-0.24197 -0.3119,-0.32063c-0.13038,-0.07866 -0.2756,-0.11799 -0.43568,-0.11799h-1.58181c-0.16174,0 -0.30779,0.03933 -0.43816,0.11799c-0.13037,0.07866 -0.23352,0.18554 -0.30943,0.32063c-0.07757,0.13509 -0.11635,0.28643 -0.11635,0.45401c0,0.16587 0.03879,0.31721 0.11635,0.45401c0.07591,0.13509 0.17906,0.24197 0.30943,0.32063c0.13038,0.07866 0.27643,0.11799 0.43816,0.11799h1.58181c0.16008,0 0.30531,-0.03933 0.43568,-0.11799c0.13037,-0.07866 0.23434,-0.18554 0.3119,-0.32063c0.07591,-0.13681 0.11387,-0.28814 0.11387,-0.45401z" fill="url(#color-52)" stroke="url(#color-53)"/></g></g><path d="M265.25793,178.73809v-0.92857h2.41271v0.92857z" data-paper-data="{&quot;index&quot;:null}" fill="#ff0000" stroke="none" stroke-width="0" stroke-linecap="butt"/><path d="M212.39287,178.73809v-0.92857h2.41271v0.92857z" data-paper-data="{&quot;index&quot;:null}" fill="#ff0000" stroke="none" stroke-width="0" stroke-linecap="butt"/></g></g></svg>