<svg version="1.1" xmlns="http://www.w3.org/2000/svg" xmlns:xlink="http://www.w3.org/1999/xlink" width="273.81822" height="273.81822" viewBox="0,0,273.81822,273.81822"><defs><linearGradient x1="182.45987" y1="180.10595" x2="252.15579" y2="180.10595" gradientUnits="userSpaceOnUse" id="color-1"><stop offset="0" stop-color="#ff4fb5" stop-opacity="0"/><stop offset="1" stop-color="#ff4fb5"/></linearGradient><linearGradient x1="220.76939" y1="180.27261" x2="252.41103" y2="180.27261" gradientUnits="userSpaceOnUse" id="color-2"><stop offset="0" stop-color="#4f99ff" stop-opacity="0"/><stop offset="1" stop-color="#4f99ff"/></linearGradient><linearGradient x1="242.65" y1="180.28333" x2="247.65" y2="180.28333" gradientUnits="userSpaceOnUse" id="color-3"><stop offset="0" stop-color="#9f9ae8"/><stop offset="1" stop-color="#83a9ff"/></linearGradient></defs><g transform="translate(-103.09089,-43.09089)"><g data-paper-data="{&quot;isPaintingLayer&quot;:true}" fill-rule="nonzero" stroke-linejoin="miter" stroke-miterlimit="10" stroke-dasharray="" stroke-dashoffset="0" style="mix-blend-mode: normal"><path d="M213.55782,184.1492c-9.37043,-0.42083 -13.08257,-0.71485 -20.61197,-1.47472c-7.77942,-0.78507 -10.55555,-2.0418 -10.48467,-2.82611c0.06913,-0.7657 3.10127,-2.13943 10.50583,-2.83724c7.89452,-0.74397 11.81574,-0.79788 21.84419,-1.13823c9.87243,-0.33504 23.19401,-0.04702 26.49541,-0.02976c9.80049,0.05124 11.04305,2.02678 10.82758,4.41251c-0.21549,2.38573 -0.8075,4.27822 -10.60805,4.22698c0,0 -17.57072,0.13354 -27.96832,-0.33343z" fill="url(#color-1)" stroke="none" stroke-width="0" stroke-linecap="butt"/><path d="M234.06205,184.31587c-4.00534,-0.42083 -5.59207,-0.71485 -8.81048,-1.47472c-3.32527,-0.78507 -4.51192,-2.0418 -4.48162,-2.82611c0.02955,-0.7657 1.32562,-2.13943 4.49066,-2.83724c3.37447,-0.74397 5.05058,-0.79788 9.33719,-1.13823c4.21992,-0.33504 9.91416,-0.04702 11.32532,-0.02976c4.18917,0.05124 6.57744,2.02678 6.48533,4.41251c-0.09211,2.38573 -2.2023,4.27822 -6.3915,4.22698c0,0 -7.51051,0.13354 -11.95491,-0.33343z" fill="url(#color-2)" stroke="none" stroke-width="0" stroke-linecap="butt"/><path d="M242.65,180.28333h5" fill="none" stroke="url(#color-3)" stroke-width="3" stroke-linecap="round"/><path d="M103.09089,316.90911v-273.81822h273.81822v273.81822z" fill="none" stroke="none" stroke-width="0" stroke-linecap="butt"/></g></g></svg>