<svg version="1.1" xmlns="http://www.w3.org/2000/svg" xmlns:xlink="http://www.w3.org/1999/xlink" width="79.74705" height="79.99129" viewBox="0,0,79.74705,79.99129"><defs><linearGradient x1="840.99171" y1="819.04471" x2="-2767.90049" y2="-2564.27495" gradientUnits="userSpaceOnUse" id="color-1"><stop offset="0" stop-color="#858585" stop-opacity="0"/><stop offset="1" stop-color="#858585"/></linearGradient><linearGradient x1="640.77185" y1="606.07343" x2="-1766.05566" y2="-1650.31608" gradientUnits="userSpaceOnUse" id="color-2"><stop offset="0" stop-color="#848484" stop-opacity="0"/><stop offset="1" stop-color="#848484"/></linearGradient><linearGradient x1="314.01288" y1="225.03302" x2="232.39409" y2="141.14911" gradientUnits="userSpaceOnUse" id="color-3"><stop offset="0" stop-color="#868686"/><stop offset="1" stop-color="#868686" stop-opacity="0"/></linearGradient><linearGradient x1="285.11863" y1="104.53369" x2="201.49095" y2="187.28573" gradientUnits="userSpaceOnUse" id="color-4"><stop offset="0" stop-color="#818181"/><stop offset="1" stop-color="#818181" stop-opacity="0"/></linearGradient><linearGradient x1="194.23419" y1="253.52945" x2="278.53749" y2="172.34392" gradientUnits="userSpaceOnUse" id="color-5"><stop offset="0" stop-color="#858585"/><stop offset="1" stop-color="#858585" stop-opacity="0"/></linearGradient><linearGradient x1="166.22" y1="135.07999" x2="247.79928" y2="219.00225" gradientUnits="userSpaceOnUse" id="color-6"><stop offset="0" stop-color="#868686"/><stop offset="1" stop-color="#868686" stop-opacity="0"/></linearGradient></defs><g transform="translate(-200.12648,-140.00436)"><g data-paper-data="{&quot;isPaintingLayer&quot;:true}" fill-rule="nonzero" stroke="none" stroke-width="0" stroke-linecap="butt" stroke-linejoin="miter" stroke-miterlimit="10" stroke-dasharray="" stroke-dashoffset="0" style="mix-blend-mode: normal"><g><path d="M200.16238,180.9646c-0.91309,-22.7945 15.69253,-40.35598 38.35737,-40.94484c22.66484,-0.58886 40.40056,15.76654 41.31912,38.6975c0.91855,22.93096 -16.54168,40.36301 -38.12637,40.92383c-21.58466,0.56082 -40.63698,-15.88201 -41.55012,-38.67647z" fill="url(#color-1)"/><path d="M238.91352,153.4866c15.11553,-0.39279 26.76735,10.30737 27.37994,25.60038c0.61263,15.29308 -10.88256,26.50571 -25.27765,26.87972c-14.39518,0.37401 -26.71315,-10.31105 -27.3221,-25.51305c-0.60895,-15.20196 10.10434,-26.57432 25.21983,-26.96707z" fill="url(#color-2)"/></g><g><path d="M232.21591,140.89934c7.15744,-1.25931 8.87899,-0.91057 18.54502,0.93177c10.61031,2.3958 17.0395,10.09786 17.0395,10.09786l-27.72016,27.78766l-28.01947,-27.7072c0,0 5.77007,-8.5791 20.15512,-11.11008z" data-paper-data="{&quot;index&quot;:null}" fill="url(#color-3)"/><path d="M212.45168,208.06215c0,0 -8.61395,-5.92368 -11.21006,-20.59611c-1.29174,-7.30044 -0.95003,-9.05308 0.85264,-18.89429c2.35264,-10.80075 10.03579,-17.31363 10.03579,-17.31363l27.98321,28.56738z" data-paper-data="{&quot;index&quot;:null}" fill="url(#color-4)"/><path d="M267.78211,151.95497c0,0 8.54927,5.81419 11.00609,20.2121c1.22244,7.16381 1.57437,8.70921 -0.31775,18.36562c-2.45043,10.59786 -10.36595,17.78399 -10.36595,17.78399l-28.17359,-28.48537l27.8512,-27.87636z" data-paper-data="{&quot;index&quot;:null}" fill="url(#color-5)"/><path d="M247.97737,219.25216c-7.15803,1.25597 -8.87942,0.90638 -18.54459,-0.94048c-10.60924,-2.40079 -17.03478,-10.10585 -17.03478,-10.10585l27.73327,-27.77462l28.00647,27.72039c0,0 -5.77414,8.57637 -20.16038,11.10058z" data-paper-data="{&quot;index&quot;:null}" fill="url(#color-6)"/></g></g></g></svg>