<svg version="1.1" xmlns="http://www.w3.org/2000/svg" xmlns:xlink="http://www.w3.org/1999/xlink" width="207.56911" height="200.80003" viewBox="0,0,207.56911,200.80003"><defs><radialGradient cx="238.85467" cy="176.37648" r="4.66228" gradientUnits="userSpaceOnUse" id="color-1"><stop offset="0" stop-color="#a100ff"/><stop offset="1" stop-color="#a100ff" stop-opacity="0"/></radialGradient><radialGradient cx="243.32854" cy="176.45958" r="6.19551" gradientUnits="userSpaceOnUse" id="color-2"><stop offset="0" stop-color="#a100ff"/><stop offset="1" stop-color="#a100ff" stop-opacity="0"/></radialGradient><linearGradient x1="247.87071" y1="176.64063" x2="232.12852" y2="176.32307" gradientUnits="userSpaceOnUse" id="color-3"><stop offset="0" stop-color="#ca00ff"/><stop offset="1" stop-color="#ca00ff" stop-opacity="0"/></linearGradient><linearGradient x1="244.61058" y1="176.53917" x2="240.43185" y2="176.43232" gradientUnits="userSpaceOnUse" id="color-4"><stop offset="0" stop-color="#e800ff"/><stop offset="1" stop-color="#b500ff"/></linearGradient><linearGradient x1="245.52562" y1="176.59862" x2="241.34689" y2="176.49177" gradientUnits="userSpaceOnUse" id="color-5"><stop offset="0" stop-color="#e800ff"/><stop offset="1" stop-color="#e800ff"/></linearGradient><linearGradient x1="246.52914" y1="176.60758" x2="242.34985" y2="176.52328" gradientUnits="userSpaceOnUse" id="color-6"><stop offset="0" stop-color="#e800ff"/><stop offset="1" stop-color="#b500ff"/></linearGradient></defs><g transform="translate(-136.21545,-79.59999)"><g data-paper-data="{&quot;isPaintingLayer&quot;:true}" fill-rule="nonzero" stroke-linejoin="miter" stroke-miterlimit="10" stroke-dasharray="" stroke-dashoffset="0" style="mix-blend-mode: normal"><path d="M238.73549,181.03724c-2.57407,-0.06582 -4.6074,-2.20587 -4.54158,-4.77994c0.06582,-2.57407 2.20587,-4.6074 4.77994,-4.54158c2.57407,0.06582 4.6074,2.20587 4.54158,4.77994c-0.06582,2.57407 -2.20587,4.6074 -4.77994,4.54158z" fill="url(#color-1)" stroke="none" stroke-width="NaN" stroke-linecap="butt"/><path d="M243.17017,182.65307c-3.42057,-0.08747 -6.12258,-2.9313 -6.03511,-6.35186c0.08747,-3.42057 2.9313,-6.12258 6.35186,-6.03511c3.42057,0.08747 6.12258,2.9313 6.03511,6.35186c-0.08747,3.42057 -2.9313,6.12258 -6.35186,6.03511z" fill="url(#color-2)" stroke="none" stroke-width="NaN" stroke-linecap="butt"/><path d="M215.25172,150.49621l49.49658,51.94432" fill="none" stroke="#000000" stroke-width="0" stroke-linecap="round"/><path d="M244.44185,179.72856c-0.6542,-0.0132 -2.83039,0.09742 -4.79618,-0.24324c-1.77159,-0.307 -4.11195,-0.5215 -5.53547,-1.07584c-1.47079,-0.57272 -1.99565,-1.48954 -1.98225,-2.06171c0.01307,-0.5586 0.58633,-1.56076 1.98625,-2.06983c1.49255,-0.54274 3.87244,-0.58207 5.76844,-0.83036c1.8665,-0.24442 4.0826,-0.0343 4.70677,-0.02171c1.8529,0.03738 3.32194,1.47858 3.2812,3.21902c-0.04074,1.74044 -1.57585,3.12105 -3.42876,3.08367z" fill="url(#color-3)" stroke="none" stroke-width="0" stroke-linecap="butt"/><path d="M240.43156,176.44358c0.02538,-1.08404 0.98152,-1.94393 2.1356,-1.92066c1.15407,0.02328 2.06907,0.92094 2.0437,2.00497c-0.02538,1.08404 -0.98152,1.94393 -2.13559,1.92066c-1.15407,-0.02328 -2.06907,-0.92093 -2.0437,-2.00497z" data-paper-data="{&quot;index&quot;:null}" fill="url(#color-4)" stroke="none" stroke-width="0" stroke-linecap="butt"/><path d="M241.34659,176.50304c0.02538,-1.08404 0.98152,-1.94393 2.13559,-1.92066c1.15407,0.02328 2.06907,0.92094 2.0437,2.00497c-0.02538,1.08404 -0.98151,1.94394 -2.13559,1.92066c-1.15407,-0.02328 -2.06908,-0.92094 -2.04371,-2.00497z" data-paper-data="{&quot;index&quot;:null}" fill="url(#color-5)" stroke="none" stroke-width="0" stroke-linecap="butt"/><path d="M244.39353,178.52823c-1.15407,-0.02328 -2.06907,-0.92093 -2.0437,-2.00497c0.02538,-1.08404 0.98151,-1.94394 2.13559,-1.92066c1.15407,0.02328 2.06908,0.92094 2.04371,2.00497c-0.02538,1.08404 -0.98152,1.94392 -2.13559,1.92066z" fill="url(#color-6)" stroke="none" stroke-width="0" stroke-linecap="butt"/><path d="M343.78457,79.59999l-207.56911,200.80003" fill="none" stroke="#000000" stroke-width="0" stroke-linecap="round"/></g></g></svg>