<svg version="1.1" xmlns="http://www.w3.org/2000/svg" xmlns:xlink="http://www.w3.org/1999/xlink" width="47.33334" height="21.00001" viewBox="0,0,47.33334,21.00001"><g transform="translate(-216.16667,-117.44444)"><g data-paper-data="{&quot;isPaintingLayer&quot;:true}" fill-rule="nonzero" stroke-linecap="butt" stroke-linejoin="miter" stroke-miterlimit="10" stroke-dasharray="" stroke-dashoffset="0" style="mix-blend-mode: normal"><path d="M216.16667,138.44445l4.33333,-21h39.66667l3.33334,21z" data-paper-data="{&quot;index&quot;:null}" fill="#364b4a" stroke="none" stroke-width="0"/><path d="M229.9768,138.44445c0,0 -1.47679,-5.42068 -1.47679,-9c0,-2.0361 1.7071,-5.24742 2.13119,-8.04473c0.28673,-1.8913 -0.6544,-3.95526 -0.6544,-3.95526h20.08439c0,0 1.77215,1.99231 1.77215,3.66667c0,1.62475 -1.53443,5.91854 -1.92533,9.43704c-0.48496,4.36506 0.15318,7.89629 0.15318,7.89629z" data-paper-data="{&quot;index&quot;:null}" fill="#304040" stroke="none" stroke-width="0"/><path d="M247.12661,131.41774l0.69581,-1.04184c0.28171,-0.38736 2.44404,-3.36197 2.61848,-3.59537c0.24226,-0.32414 0.84592,-0.56214 0.74938,-0.95513c-0.27326,-1.11232 -3.78811,-3.71102 -4.57415,-4.49706c0,0 -0.88388,-0.88388 0,-1.76776c0.88388,-0.88388 1.76776,0 1.76776,0c1.30765,1.30764 5.00175,4.1309 5.29343,6.0107c0.28035,1.80683 -2.84549,4.91714 -3.83307,6.27506l-0.63752,0.95816c0,0 -0.69337,1.04006 -1.73344,0.34669c-1.04006,-0.69338 -0.34669,-1.73344 -0.34669,-1.73344z" data-paper-data="{&quot;index&quot;:null}" fill="#2b3a3a" stroke="none" stroke-width="0.5"/><path d="M228.91667,131.11112l0.11204,-0.14941c-0.36781,-0.80917 -1.76355,-3.83851 -1.77838,-4.1551c-0.08871,-1.89359 2.04965,-5.39449 2.75574,-7.15972c0,0 0.46424,-1.1606 1.62483,-0.69636c1.1606,0.46424 0.69636,1.62483 0.69636,1.62483c-0.55056,1.3764 -2.66614,4.71992 -2.5776,6.1736c0.07171,1.17723 1.06691,2.10454 1.55496,3.17823l0.11204,1.18392c0,0 0,1.25 -1.25,1.25c-1.25,0 -1.25,-1.25 -1.25,-1.25z" data-paper-data="{&quot;index&quot;:null}" fill="#2b3a3a" stroke="none" stroke-width="0.5"/><path d="M256.78936,133.75698l0.57691,-0.8404c1.36219,-3.08137 2.16327,-9.31063 0.3952,-12.16234c0,0 -0.64311,-1.07186 0.42875,-1.71498c1.07187,-0.64312 1.71499,0.42874 1.71499,0.42874c2.11694,3.62025 1.38201,10.54701 -0.24107,14.43338l-0.78682,1.23054c0,0 -0.68747,1.04397 -1.73145,0.3565c-1.04397,-0.68747 -0.35651,-1.73144 -0.35651,-1.73144z" data-paper-data="{&quot;index&quot;:null}" fill="#354646" stroke="none" stroke-width="0.5"/><path d="M221.4733,134.15118l-1.30662,-0.95673c-3.34105,-4.4676 -1.21171,-8.59632 0.85773,-13.25767c0,0 0.50767,-1.14226 1.64994,-0.63459c1.14227,0.50767 0.63459,1.64993 0.63459,1.64993c-1.67087,3.75519 -3.82357,7.17855 -1.14226,10.74233l0.69338,0.3766c0,0 1.04006,0.69338 0.34669,1.73344c-0.69338,1.04006 -1.73344,0.34669 -1.73344,0.34669z" data-paper-data="{&quot;index&quot;:null}" fill="#354646" stroke="none" stroke-width="0.5"/><path d="M244.86594,124.78887c1.19344,1.44067 3.40862,1.28439 3.40577,3.29307c-0.00654,4.60236 -3.78012,8.32796 -8.42851,8.32135c-2.17266,-0.00309 -2.65188,-1.82097 -4.14318,-3.16125c-1.69933,-1.52724 -4.26512,-2.7328 -4.26164,-5.18403c0.00272,-1.91494 -0.8424,-2.6781 0.25629,-4.08379c1.54191,-1.97274 5.45792,-4.24143 8.17222,-4.23757c2.61962,0.00373 3.45804,3.19198 4.99905,5.05222z" data-paper-data="{&quot;index&quot;:null}" fill="#2f2f2f" stroke="#2f2f2f" stroke-width="1.5"/></g></g></svg>