<svg version="1.1" xmlns="http://www.w3.org/2000/svg" xmlns:xlink="http://www.w3.org/1999/xlink" width="52.85196" height="75.18934" viewBox="0,0,52.85196,75.18934"><defs><radialGradient cx="240.45458" cy="208.21143" r="8.74976" gradientUnits="userSpaceOnUse" id="color-1"><stop offset="0" stop-color="#fff696"/><stop offset="1" stop-color="#fff696" stop-opacity="0"/></radialGradient><radialGradient cx="240.17254" cy="205.428" r="12.14859" gradientUnits="userSpaceOnUse" id="color-2"><stop offset="0" stop-color="#fcd81d"/><stop offset="1" stop-color="#fcd81d" stop-opacity="0"/></radialGradient><radialGradient cx="240.47222" cy="207.64309" r="6.41322" gradientUnits="userSpaceOnUse" id="color-3"><stop offset="0" stop-color="#fff156"/><stop offset="1" stop-color="#fff156" stop-opacity="0"/></radialGradient><linearGradient x1="240.1309" y1="206.57577" x2="240.1309" y2="212.8485" gradientUnits="userSpaceOnUse" id="color-4"><stop offset="0" stop-color="#ff8600"/><stop offset="1" stop-color="#ff8600" stop-opacity="0"/></linearGradient><linearGradient x1="240.23465" y1="204.32198" x2="240.23465" y2="221.18561" gradientUnits="userSpaceOnUse" id="color-5"><stop offset="0" stop-color="#ffffff"/><stop offset="1" stop-color="#ffffff" stop-opacity="0"/></linearGradient><radialGradient cx="240.30505" cy="208.44531" r="6.41322" gradientUnits="userSpaceOnUse" id="color-6"><stop offset="0" stop-color="#ffee35"/><stop offset="1" stop-color="#ffee35" stop-opacity="0"/></radialGradient><linearGradient x1="235.56589" y1="206.02092" x2="244.72981" y2="206.02092" gradientUnits="userSpaceOnUse" id="color-7"><stop offset="0" stop-color="#5f5f5f"/><stop offset="1" stop-color="#4c4c4c"/></linearGradient><linearGradient x1="235.56589" y1="206.02092" x2="244.72981" y2="206.02092" gradientUnits="userSpaceOnUse" id="color-8"><stop offset="0" stop-color="#949494"/><stop offset="1" stop-color="#757575"/></linearGradient><linearGradient x1="235.84847" y1="204.21928" x2="238.82163" y2="204.21928" gradientUnits="userSpaceOnUse" id="color-9"><stop offset="0" stop-color="#4c4c4c"/><stop offset="1" stop-color="#4c4c4c" stop-opacity="0"/></linearGradient><linearGradient x1="244.44659" y1="204.21927" x2="241.47344" y2="204.21927" gradientUnits="userSpaceOnUse" id="color-10"><stop offset="0" stop-color="#5f5f5f"/><stop offset="1" stop-color="#5f5f5f" stop-opacity="0"/></linearGradient><linearGradient x1="235.35072" y1="203.97262" x2="244.94117" y2="203.97262" gradientUnits="userSpaceOnUse" id="color-11"><stop offset="0" stop-color="#888888"/><stop offset="1" stop-color="#696969"/></linearGradient><linearGradient x1="239.3459" y1="126.50034" x2="239.3459" y2="220.52639" gradientUnits="userSpaceOnUse" id="color-12"><stop offset="0" stop-color="#a300f2"/><stop offset="1" stop-color="#a300f2" stop-opacity="0"/></linearGradient><linearGradient x1="239.05909" y1="98.48158" x2="239.05909" y2="226.50219" gradientUnits="userSpaceOnUse" id="color-13"><stop offset="0" stop-color="#f1f1f1"/><stop offset="1" stop-color="#f1f1f1" stop-opacity="0"/></linearGradient><linearGradient x1="240.27561" y1="206.11823" x2="240.27561" y2="214.02599" gradientUnits="userSpaceOnUse" id="color-14"><stop offset="0" stop-color="#ff4f00"/><stop offset="1" stop-color="#ff4f00" stop-opacity="0"/></linearGradient><linearGradient x1="240.19359" y1="206.36497" x2="240.19359" y2="211.7108" gradientUnits="userSpaceOnUse" id="color-15"><stop offset="0" stop-color="#ffd400"/><stop offset="1" stop-color="#ffd400" stop-opacity="0"/></linearGradient><linearGradient x1="240.19083" y1="206.00691" x2="240.19083" y2="214.88923" gradientUnits="userSpaceOnUse" id="color-16"><stop offset="0" stop-color="#ffee00"/><stop offset="1" stop-color="#ffee00" stop-opacity="0"/></linearGradient><linearGradient x1="240.10333" y1="205.93396" x2="240.10333" y2="209.82134" gradientUnits="userSpaceOnUse" id="color-17"><stop offset="0" stop-color="#ffee00"/><stop offset="1" stop-color="#ffee00" stop-opacity="0"/></linearGradient><linearGradient x1="242.56801" y1="206.00691" x2="242.56801" y2="209.89429" gradientUnits="userSpaceOnUse" id="color-18"><stop offset="0" stop-color="#ffee00"/><stop offset="1" stop-color="#ffee00" stop-opacity="0"/></linearGradient><linearGradient x1="237.63866" y1="206.00691" x2="237.63866" y2="209.89429" gradientUnits="userSpaceOnUse" id="color-19"><stop offset="0" stop-color="#ffee00"/><stop offset="1" stop-color="#ffee00" stop-opacity="0"/></linearGradient><linearGradient x1="242.40955" y1="155.72479" x2="242.40955" y2="199.68327" gradientUnits="userSpaceOnUse" id="color-20"><stop offset="0" stop-color="#00de98"/><stop offset="1" stop-color="#00386f"/></linearGradient><linearGradient x1="242.40955" y1="155.72479" x2="242.40955" y2="199.68327" gradientUnits="userSpaceOnUse" id="color-21"><stop offset="0" stop-color="#00de98"/><stop offset="1" stop-color="#00386f"/></linearGradient><linearGradient x1="237.40094" y1="167.87077" x2="242.61384" y2="167.87077" gradientUnits="userSpaceOnUse" id="color-22"><stop offset="0" stop-color="#5f5f5f"/><stop offset="1" stop-color="#a8a8a8"/></linearGradient><linearGradient x1="240.04723" y1="161.54813" x2="240.04723" y2="162.48361" gradientUnits="userSpaceOnUse" id="color-23"><stop offset="0" stop-color="#7a7a7a"/><stop offset="1" stop-color="#646464"/></linearGradient><linearGradient x1="227.95554" y1="178.86467" x2="227.95554" y2="200.90384" gradientUnits="userSpaceOnUse" id="color-24"><stop offset="0" stop-color="#00a29c"/><stop offset="1" stop-color="#00478c"/></linearGradient><linearGradient x1="252.05072" y1="178.86467" x2="252.05072" y2="200.90384" gradientUnits="userSpaceOnUse" id="color-25"><stop offset="0" stop-color="#00a29c"/><stop offset="1" stop-color="#00478c"/></linearGradient><linearGradient x1="239.15458" y1="165.17487" x2="239.33501" y2="165.17487" gradientUnits="userSpaceOnUse" id="color-26"><stop offset="0" stop-color="#00eeec"/><stop offset="1" stop-color="#1cfff4"/></linearGradient><linearGradient x1="233.69176" y1="156.23007" x2="233.69176" y2="200.78563" gradientUnits="userSpaceOnUse" id="color-27"><stop offset="0" stop-color="#00ffad"/><stop offset="1" stop-color="#00478c"/></linearGradient><linearGradient x1="233.69176" y1="156.23007" x2="233.69176" y2="200.78563" gradientUnits="userSpaceOnUse" id="color-28"><stop offset="0" stop-color="#00ffad"/><stop offset="1" stop-color="#00478c"/></linearGradient><linearGradient x1="246.12253" y1="156.22214" x2="246.12253" y2="200.77769" gradientUnits="userSpaceOnUse" id="color-29"><stop offset="0" stop-color="#00ffad"/><stop offset="1" stop-color="#00478c"/></linearGradient><linearGradient x1="246.12253" y1="156.22214" x2="246.12253" y2="200.77769" gradientUnits="userSpaceOnUse" id="color-30"><stop offset="0" stop-color="#00ffad"/><stop offset="1" stop-color="#00478c"/></linearGradient><linearGradient x1="218.55311" y1="178.60527" x2="218.55311" y2="188.09109" gradientUnits="userSpaceOnUse" id="color-31"><stop offset="0" stop-color="#00a29c"/><stop offset="1" stop-color="#007995"/></linearGradient><linearGradient x1="249.63121" y1="193.40468" x2="252.23764" y2="193.40468" gradientUnits="userSpaceOnUse" id="color-32"><stop offset="0" stop-color="#002f5e"/><stop offset="1" stop-color="#002f5e" stop-opacity="0"/></linearGradient><linearGradient x1="249.49872" y1="186.04026" x2="252.20542" y2="186.04026" gradientUnits="userSpaceOnUse" id="color-33"><stop offset="0" stop-color="#dbdbdb"/><stop offset="1" stop-color="#dbdbdb" stop-opacity="0"/></linearGradient><linearGradient x1="237.84782" y1="197.61642" x2="241.95797" y2="197.61642" gradientUnits="userSpaceOnUse" id="color-34"><stop offset="0" stop-color="#8b8b8b"/><stop offset="1" stop-color="#7f7f7f"/></linearGradient><linearGradient x1="238.2087" y1="192.76641" x2="241.59709" y2="192.76641" gradientUnits="userSpaceOnUse" id="color-35"><stop offset="0" stop-color="#8b8b8b"/><stop offset="1" stop-color="#7f7f7f"/></linearGradient><linearGradient x1="261.35892" y1="178.60527" x2="261.35892" y2="188.0911" gradientUnits="userSpaceOnUse" id="color-36"><stop offset="0" stop-color="#00a29c"/><stop offset="1" stop-color="#007995"/></linearGradient><linearGradient x1="217.77935" y1="179.88452" x2="217.77935" y2="192.11529" gradientUnits="userSpaceOnUse" id="color-37"><stop offset="0" stop-color="#009a95"/><stop offset="1" stop-color="#005da9"/></linearGradient><linearGradient x1="262.22689" y1="179.88452" x2="262.22689" y2="192.11529" gradientUnits="userSpaceOnUse" id="color-38"><stop offset="0" stop-color="#009a95"/><stop offset="1" stop-color="#005da9"/></linearGradient><linearGradient x1="216.66892" y1="178.94647" x2="216.66892" y2="192.53621" gradientUnits="userSpaceOnUse" id="color-39"><stop offset="0" stop-color="#007c78"/><stop offset="1" stop-color="#00376d"/></linearGradient><linearGradient x1="263.33739" y1="178.94647" x2="263.33739" y2="192.53621" gradientUnits="userSpaceOnUse" id="color-40"><stop offset="0" stop-color="#007c78"/><stop offset="1" stop-color="#00376d"/></linearGradient><linearGradient x1="230.27083" y1="179.1031" x2="233.67927" y2="179.1031" gradientUnits="userSpaceOnUse" id="color-41"><stop offset="0" stop-color="#00b67c"/><stop offset="1" stop-color="#00b67c" stop-opacity="0"/></linearGradient><linearGradient x1="230.27083" y1="179.1031" x2="233.67927" y2="179.1031" gradientUnits="userSpaceOnUse" id="color-42"><stop offset="0" stop-color="#00847e"/><stop offset="1" stop-color="#00847e" stop-opacity="0"/></linearGradient><linearGradient x1="230.27083" y1="179.1031" x2="233.67927" y2="179.1031" gradientUnits="userSpaceOnUse" id="color-43"><stop offset="0" stop-color="#004183"/><stop offset="1" stop-color="#004183" stop-opacity="0"/></linearGradient><linearGradient x1="230.30418" y1="172.98334" x2="233.6424" y2="172.98334" gradientUnits="userSpaceOnUse" id="color-44"><stop offset="0" stop-color="#009c84"/><stop offset="1" stop-color="#009c84" stop-opacity="0"/></linearGradient><linearGradient x1="230.30418" y1="188.08334" x2="233.6424" y2="188.08334" gradientUnits="userSpaceOnUse" id="color-45"><stop offset="0" stop-color="#00779c"/><stop offset="1" stop-color="#00779c" stop-opacity="0"/></linearGradient><linearGradient x1="224.22964" y1="181.97989" x2="228.68145" y2="181.97989" gradientUnits="userSpaceOnUse" id="color-46"><stop offset="0" stop-color="#01878f"/><stop offset="1" stop-color="#018097"/></linearGradient><linearGradient x1="224.22964" y1="181.97989" x2="228.68146" y2="181.97989" gradientUnits="userSpaceOnUse" id="color-47"><stop offset="0" stop-color="#01878f"/><stop offset="1" stop-color="#018097"/></linearGradient><linearGradient x1="224.28441" y1="185.90967" x2="228.72772" y2="185.90967" gradientUnits="userSpaceOnUse" id="color-48"><stop offset="0" stop-color="#01878f"/><stop offset="1" stop-color="#018097"/></linearGradient><linearGradient x1="224.28441" y1="185.90967" x2="228.72772" y2="185.90967" gradientUnits="userSpaceOnUse" id="color-49"><stop offset="0" stop-color="#01878f"/><stop offset="1" stop-color="#018097"/></linearGradient><linearGradient x1="255.34354" y1="181.97989" x2="250.89173" y2="181.97989" gradientUnits="userSpaceOnUse" id="color-50"><stop offset="0" stop-color="#01878f"/><stop offset="1" stop-color="#018097"/></linearGradient><linearGradient x1="255.34351" y1="181.97989" x2="250.89172" y2="181.97989" gradientUnits="userSpaceOnUse" id="color-51"><stop offset="0" stop-color="#01878f"/><stop offset="1" stop-color="#018097"/></linearGradient><linearGradient x1="255.28875" y1="185.90967" x2="250.84545" y2="185.90967" gradientUnits="userSpaceOnUse" id="color-52"><stop offset="0" stop-color="#01878f"/><stop offset="1" stop-color="#018097"/></linearGradient><linearGradient x1="255.28875" y1="185.90967" x2="250.84545" y2="185.90967" gradientUnits="userSpaceOnUse" id="color-53"><stop offset="0" stop-color="#01878f"/><stop offset="1" stop-color="#018097"/></linearGradient></defs><g transform="translate(-213.57702,-152.71141)"><g data-paper-data="{&quot;isPaintingLayer&quot;:true}" fill-rule="nonzero" stroke-linejoin="miter" stroke-miterlimit="10" stroke-dasharray="" stroke-dashoffset="0" style="mix-blend-mode: normal"><path d="M248.1298,208.21143c0,4.34894 -3.43631,7.87446 -7.67522,7.87446c-4.23892,0 -7.67522,-3.52552 -7.67522,-7.87446c0,-4.34894 3.43632,-7.87446 7.67522,-7.87446c4.23892,0 7.67522,3.52552 7.67522,7.87446z" fill="url(#color-1)" stroke="none" stroke-width="0" stroke-linecap="butt"/><path d="M252.15914,205.428c0,6.82325 -5.36656,12.35459 -11.98659,12.35459c-6.62002,0 -11.9866,-5.53134 -11.9866,-12.35459c0,-6.82325 5.36657,-12.35459 11.9866,-12.35459c6.62002,0 11.98659,5.53134 11.98659,12.35459z" fill="url(#color-2)" stroke="none" stroke-width="0" stroke-linecap="butt"/><g><g fill="none" stroke="#00386f" stroke-width="1" stroke-linecap="round"><g><path d="M240.68045,203.02633h-8.17647l-15.22514,-8.375"/><path d="M240.73684,202.15133h-8.17647l-15.22514,-8.375"/><path d="M240.56766,201.21383h-8.17647l-15.22514,-8.375"/></g><g><path d="M264.4808,194.65133l-15.22514,8.375h-8.17647"/><path d="M264.4244,193.77633l-15.22514,8.375h-8.17647"/><path d="M264.59358,192.83883l-15.22514,8.375h-8.17647"/></g></g><path d="M230.52545,203.4762v-3.42857h19.46241v3.42857z" fill="#00386f" stroke="none" stroke-width="0" stroke-linecap="butt"/></g><path d="M241.08283,156.79167v-3.875h2.80427v3.875z" fill="#00cd94" stroke="none" stroke-width="0" stroke-linecap="butt"/><path d="M246.09784,207.64309c0,3.09004 -2.51867,5.59501 -5.62563,5.59501c-3.10695,0 -5.62563,-2.50497 -5.62563,-5.59501c0,-3.09004 2.51867,-5.59501 5.62563,-5.59501c3.10695,0 5.62563,2.50498 5.62563,5.59501z" fill="url(#color-3)" stroke="none" stroke-width="0" stroke-linecap="butt"/><path d="M236.62675,212.8485v-6.27273c0,0 1.66153,-0.45454 3.50419,-0.45454c1.96567,0 3.5042,0.45454 3.5042,0.45454v6.27273z" fill="url(#color-4)" stroke="none" stroke-width="0" stroke-linecap="butt"/><path d="M242.77058,204.32198l-2.53593,16.86364l-2.53593,-16.86364z" fill="url(#color-5)" stroke="#000000" stroke-width="0" stroke-linecap="round"/><path d="M245.93068,208.44531c0,3.09004 -2.51867,5.59501 -5.62563,5.59501c-3.10694,0 -5.62563,-2.50497 -5.62563,-5.59501c0,-3.09004 2.51867,-5.59501 5.62563,-5.59501c3.10694,0 5.62563,2.50497 5.62563,5.59501z" fill="url(#color-6)" stroke="none" stroke-width="0" stroke-linecap="butt"/><path d="M244.72981,206.02092c0,0.46442 -2.0514,0.84091 -4.58198,0.84091c-2.53055,0 -4.58198,-0.37649 -4.58198,-0.84091c0,-0.46442 2.0514,-0.84091 4.58198,-0.84091c2.53055,0 4.58198,0.37649 4.58198,0.84091z" fill="url(#color-7)" stroke="url(#color-8)" stroke-width="0.5" stroke-linecap="butt"/><path d="M235.84847,206.08134v-3.72414h2.97317l0.03498,4.2069c0,0 -1.1678,-0.04387 -1.692,-0.12799c-0.47334,-0.07596 -1.31614,-0.35477 -1.31614,-0.35477z" fill="url(#color-9)" stroke="none" stroke-width="0" stroke-linecap="butt"/><path d="M243.13042,206.43611c-0.52419,0.08413 -1.692,0.12799 -1.692,0.12799l0.03498,-4.2069h2.97318v3.72414c0,0 -0.84282,0.2788 -1.31614,0.35477z" data-paper-data="{&quot;index&quot;:null}" fill="url(#color-10)" stroke="none" stroke-width="0" stroke-linecap="butt"/><path d="M235.35072,206.10898v-4.27273c0,0 2.57457,-0.51228 4.79521,-0.5c2.21984,0.01228 4.79521,0.5 4.79521,0.5v4.27273c0,0 -2.66007,-0.63636 -4.84133,-0.63636c-2.21201,0 -4.7491,0.63636 -4.7491,0.63636z" fill="url(#color-11)" stroke="none" stroke-width="0" stroke-linecap="butt"/><path d="M244.17302,205.54808v-3.68" fill="none" stroke="#656565" stroke-width="0.5" stroke-linecap="round"/><path d="M242.99636,201.66808v3.64" fill="none" stroke="#6a6a6a" stroke-width="0.5" stroke-linecap="round"/><path d="M241.86022,205.18808l0.04057,-3.64" fill="none" stroke="#6f6f6f" stroke-width="0.5" stroke-linecap="round"/><path d="M240.76472,201.46808l-0.08116,3.68" fill="none" stroke="#747474" stroke-width="0.5" stroke-linecap="round"/><path d="M239.58805,201.42808l-0.04057,3.76" fill="none" stroke="#787878" stroke-width="0.5" stroke-linecap="round"/><path d="M238.45193,205.26808v-3.76" fill="none" stroke="#7b7b7b" stroke-width="0.5" stroke-linecap="round"/><g stroke="#000000" stroke-width="0" stroke-linecap="round"><path d="M242.70847,206.62112l-2.41008,14.93246l-2.83733,-14.93246z" fill="url(#color-12)"/><path d="M243.63738,207.56954l-3.28143,20.33121l-3.86313,-20.33121z" fill="url(#color-13)"/><path d="M241.60076,206.11823c0,0 2.37815,0.54702 2.29688,2.41626c-0.19417,4.46815 -3.97541,5.49149 -3.97541,5.49149c0,0 -3.19012,-0.90981 -3.26868,-5.49149c-0.03344,-1.95089 2.20855,-2.41626 2.20855,-2.41626z" fill="url(#color-14)"/><path d="M241.08944,206.36497c0,0 1.60768,0.3698 1.55276,1.63345c-0.13126,3.02057 -2.68749,3.71239 -2.68749,3.71239c0,0 -2.15659,-0.61506 -2.20972,-3.71239c-0.0226,-1.31885 1.49305,-1.63345 1.49305,-1.63345z" fill="url(#color-15)"/><path d="M241.67928,206.00691c0,0 2.67121,0.61444 2.57999,2.71404c-0.21807,5.01881 -4.46535,6.16828 -4.46535,6.16828c0,0 -3.58326,-1.02195 -3.67153,-6.16828c-0.03757,-2.19132 2.48077,-2.71404 2.48077,-2.71404z" fill="url(#color-16)"/><path d="M240.75476,205.93396c0,0 1.16906,0.26891 1.12913,1.18781c-0.09544,2.1965 -1.95427,2.69957 -1.95427,2.69957c0,0 -1.56824,-0.44726 -1.60687,-2.69957c-0.01645,-0.95904 1.08571,-1.18781 1.08571,-1.18781z" fill="url(#color-17)"/><path d="M243.21945,206.00691c0,0 1.16909,0.26892 1.12913,1.18781c-0.09544,2.1965 -1.95429,2.69957 -1.95429,2.69957c0,0 -1.56824,-0.44726 -1.60687,-2.69957c-0.01644,-0.95904 1.08573,-1.18781 1.08573,-1.18781z" fill="url(#color-18)"/><path d="M238.29009,206.00691c0,0 1.16909,0.26892 1.12913,1.18781c-0.09544,2.1965 -1.95429,2.69957 -1.95429,2.69957c0,0 -1.56824,-0.44726 -1.60687,-2.69957c-0.01644,-0.95904 1.08573,-1.18781 1.08573,-1.18781z" fill="url(#color-19)"/></g><path d="M262.75268,192.55921l-14.21649,7.77778" fill="none" stroke="#00386f" stroke-width="2.5" stroke-linecap="round"/><path d="M233.82888,198.89449l0.16301,-37.58147l5.76215,-5.42857v15.66277c0,0 0.72204,1.92095 2.68601,1.92095c1.92965,0 2.64398,-1.79051 2.64398,-1.79051v-15.95287l5.90619,5.42857l-0.19428,37.7619l-2.65737,0.71141l-10.43748,0.0566z" fill="url(#color-20)" stroke="url(#color-21)" stroke-width="2.5" stroke-linecap="round"/><path d="M238.62217,153.04728c0,0 0.79385,0.91199 1.39437,1.36364c0.60051,0.45165 0.94082,0.53754 1.31234,0.63636c0.37151,0.09883 0.73819,-0.09091 0.73819,-0.09091l1.23031,16.90909l-7.62795,1.36364z" fill="#676767" stroke="#ff0000" stroke-width="0" stroke-linecap="round"/><g fill="none" stroke-linecap="round"><g stroke="#b6b6b6" stroke-width="2.5"><path d="M223.24733,179.46937v-4.09091"/></g><path d="M223.65744,175.53755l-0.04101,4.18182" stroke="#c2c2c2" stroke-width="1.5"/></g><g data-paper-data="{&quot;index&quot;:null}" fill="none" stroke-linecap="round"><g stroke="#b6b6b6" stroke-width="2.5"><path d="M257.6264,179.46937v-4.09091"/></g><path d="M257.2163,175.53755l0.04101,4.18182" stroke="#c2c2c2" stroke-width="1.5"/></g><path d="M237.40094,173.76976v-11.79798h5.21289v11.79798z" fill="url(#color-22)" stroke="none" stroke-width="0" stroke-linecap="butt"/><path d="M241.99061,162.01588c0,0.25833 -0.87007,0.46774 -1.94335,0.46774c-1.07329,0 -1.94336,-0.20941 -1.94336,-0.46774c0,-0.25833 0.87007,-0.46775 1.94336,-0.46775c1.07329,0 1.94335,0.20942 1.94335,0.46775z" fill="url(#color-23)" stroke="#7e7e7e" stroke-width="0.5" stroke-linecap="butt"/><path d="M216.27706,194.71383v-1.9375h0.95862v1.9375z" fill="#00386f" stroke="none" stroke-width="0" stroke-linecap="butt"/><path d="M216.25089,178.86467l23.79374,0.125l-0.04263,21.91417l-8.20869,-0.03917l-15.92688,-8.625z" fill="url(#color-24)" stroke="#b6b6b6" stroke-width="0" stroke-linecap="round"/><path d="M216.95395,180.24806v-1.35714h1.74002v1.35714z" fill="#00bcfb" stroke="none" stroke-width="0" stroke-linecap="butt"/><path d="M238.86529,199.60521v-19.28572" fill="none" stroke="#3195b6" stroke-width="2.5" stroke-linecap="round"/><path d="M237.76973,183.74806v-4.71428h2.25557v4.71428z" fill="#f00000" stroke="none" stroke-width="0" stroke-linecap="butt"/><path d="M237.76973,200.81949v-6h2.25557v6z" fill="#0098ca" stroke="none" stroke-width="0" stroke-linecap="butt"/><path d="M229.82285,184.71383v7.1875" fill="none" stroke="#00bcfb" stroke-width="1" stroke-linecap="round"/><path d="M231.57093,183.77633l-0.1128,8.6875" fill="none" stroke="#f50000" stroke-width="1" stroke-linecap="round"/><path d="M221.25165,181.15133v7.9375" fill="none" stroke="#006c8a" stroke-width="1" stroke-linecap="round"/><path d="M226.66505,182.08883v11.875" fill="none" stroke="#005b82" stroke-width="1" stroke-linecap="round"/><path d="M234.33402,184.27633l-0.05639,11.1875" fill="none" stroke="#fa0000" stroke-width="1" stroke-linecap="round"/><path d="M224.24031,194.33883l0.1128,-5.125" fill="none" stroke="#005b82" stroke-width="1" stroke-linecap="round"/><path d="M236.47682,181.40133l0.05639,11" fill="none" stroke="#fa0000" stroke-width="1" stroke-linecap="round"/><path d="M263.15302,194.71383v-1.9375h0.95862v1.9375z" fill="#00386f" stroke="none" stroke-width="0" stroke-linecap="butt"/><path d="M264.13984,192.23967l-15.92688,8.625l-8.20869,0.03917l-0.04263,-21.91417l23.79374,-0.125z" fill="url(#color-25)" stroke="#b6b6b6" stroke-width="0" stroke-linecap="round"/><path d="M261.3123,180.24806v-1.35714h1.74002v1.35714z" fill="#00b1ec" stroke="none" stroke-width="0" stroke-linecap="butt"/><path d="M241.14102,199.60521v-19.28572" fill="none" stroke="#3195b6" stroke-width="2.5" stroke-linecap="round"/><path d="M239.98098,183.74806v-4.71428h2.25557v4.71428z" fill="#f00000" stroke="none" stroke-width="0" stroke-linecap="butt"/><path d="M239.98098,200.81949v-6h2.25557v6z" fill="#0098ca" stroke="none" stroke-width="0" stroke-linecap="butt"/><path d="M250.18347,184.71383v7.1875" fill="none" stroke="#00bcfb" stroke-width="1" stroke-linecap="round"/><path d="M248.54819,192.46383l-0.1128,-8.6875" fill="none" stroke="#f50000" stroke-width="1" stroke-linecap="round"/><path d="M258.75464,189.08883v-7.9375" fill="none" stroke="#006c8a" stroke-width="1" stroke-linecap="round"/><path d="M253.34129,193.96383v-11.875" fill="none" stroke="#005b82" stroke-width="1" stroke-linecap="round"/><path d="M245.72872,195.46383l-0.05639,-11.1875" fill="none" stroke="#fa0000" stroke-width="1" stroke-linecap="round"/><path d="M255.76602,194.33883l-0.1128,-5.125" fill="none" stroke="#005b82" stroke-width="1" stroke-linecap="round"/><path d="M243.52952,181.40133l-0.05639,11" fill="none" stroke="#fa0000" stroke-width="1" stroke-linecap="round"/><path d="M240.75765,167.61264v-4.77419h0.23282v4.77419z" fill="#1dfffb" stroke="none" stroke-width="0" stroke-linecap="butt"/><path d="M241.32883,153.41091v17.45455c0,0 -0.37148,0.95908 -1.39437,0.90909c-0.99948,-0.04885 -1.23031,-0.90909 -1.23031,-0.90909l-0.08202,-17.45455" fill="none" stroke="#b1b1b1" stroke-width="1" stroke-linecap="round"/><path d="M231.32332,198.72782l0.16301,-37.58147l5.76215,-5.42857v15.66277c0,0 0.72204,1.92095 2.68601,1.92095c1.92965,0 2.64398,-1.79051 2.64398,-1.79051v-15.95287l5.90619,5.42857l-0.19428,37.7619l-2.65737,0.71141l-10.43748,0.0566z" fill="#ffffff" stroke="#ffffff" stroke-width="2.5" stroke-linecap="round"/><path d="M235.5965,177.21421l0.10025,18.33333" fill="none" stroke="#eeeeee" stroke-width="1" stroke-linecap="round"/><path d="M246.1225,177.21421l0.10025,11.77777" fill="none" stroke="#eeeeee" stroke-width="1" stroke-linecap="round"/><path d="M243.81683,195.43642l-0.20049,-10.66666" fill="none" stroke="#eeeeee" stroke-width="1" stroke-linecap="round"/><path d="M237.5012,199.54754v-13.33333" fill="none" stroke="#eeeeee" stroke-width="1" stroke-linecap="round"/><path d="M242.41335,173.65865l-0.10025,7" fill="none" stroke="#eeeeee" stroke-width="1" stroke-linecap="round"/><path d="M234.69427,173.10307l0.2005,-13.77777" fill="none" stroke="#eeeeee" stroke-width="1" stroke-linecap="round"/><path d="M247.42575,160.3253l-0.20049,12.11111" fill="none" stroke="#fa0000" stroke-width="1" stroke-linecap="round"/><path d="M245.0198,160.99198l-0.30074,13" fill="none" stroke="#eeeeee" stroke-width="1" stroke-linecap="round"/><path d="M239.15458,167.52489v-4.7h0.18045v4.7z" fill="url(#color-26)" stroke="none" stroke-width="0" stroke-linecap="butt"/><path d="M239.94275,167.70942v-4.80645h0.20375v4.80645z" fill="#1dfffb" stroke="none" stroke-width="0" stroke-linecap="butt"/><path d="M238.50425,175.83195l1.27641,-1.05738l1.35878,0.91167v7.72276l-1.31759,0.54738l-1.31759,-0.6931z" fill="#8cffff" stroke="#7e7e7e" stroke-width="0.5" stroke-linecap="round"/><path d="M241.04435,175.69407l-1.29695,1.125l-1.18419,-0.875" fill="none" stroke="#55eded" stroke-width="0.5" stroke-linecap="round"/><path d="M238.78877,183.19407l0.90223,-0.6875l1.12779,0.8125" fill="none" stroke="#55eded" stroke-width="0.5" stroke-linecap="round"/><path d="M239.97295,183.63157l-0.16917,-0.5625l-0.05639,-6.5625l0.05639,-1.5" fill="none" stroke="#4fdada" stroke-width="0.5" stroke-linecap="round"/><path d="M238.50425,175.83195l1.27641,-1.05738l1.35878,0.91167v7.72276l-1.31759,0.54738l-1.31759,-0.6931z" fill="none" stroke="#7e7e7e" stroke-width="0.5" stroke-linecap="round"/><path d="M240.03605,176.94953l0.83779,-0.82143l0.02147,6.9881l-0.88076,-0.78572z" fill="#5cffff" stroke="none" stroke-width="0" stroke-linecap="round"/><path d="M240.02152,182.99549l0.62498,0.37012l-0.46567,0.13243z" fill="#57f3f3" stroke="#56eeee" stroke-width="0" stroke-linecap="round"/><path d="M239.54421,182.32109l-0.8378,0.66353l-0.02147,-6.80388l0.88076,0.78572z" data-paper-data="{&quot;index&quot;:null}" fill="#87ffff" stroke="none" stroke-width="0" stroke-linecap="round"/><path d="M236.52956,200.90477v-10.7h3.42848v10.7z" fill="#2d2d2d" stroke="none" stroke-width="0" stroke-linecap="butt"/><path d="M239.86782,200.90477v-10.7h3.42848v10.7z" data-paper-data="{&quot;index&quot;:null}" fill="#2d2d2d" stroke="none" stroke-width="0" stroke-linecap="butt"/><path d="M239.70369,183.62961l-0.67935,-0.34296l0.55374,-0.37011z" data-paper-data="{&quot;index&quot;:null}" fill="#5afbfb" stroke="#56eeee" stroke-width="0" stroke-linecap="round"/><path d="M235.29574,156.23007l-0.10025,13.44444l-1.80445,1.88889v11.77778l3.60892,3.77778v13.66667h-5.11265l-1.40347,-0.66667l-0.10025,-39.33333z" fill="url(#color-27)" stroke="url(#color-28)" stroke-width="0.5" stroke-linecap="round"/><path d="M249.43071,160.77767l-0.10025,39.33333l-1.40347,0.66667h-5.11264v-13.66667l3.60892,-3.77777v-11.77778l-1.80445,-1.88889l-0.10025,-13.44444z" data-paper-data="{&quot;index&quot;:null}" fill="url(#color-29)" stroke="url(#color-30)" stroke-width="0.5" stroke-linecap="round"/><path d="M230.1781,192.93828l-13.53347,-7.6l-0.09022,-6.44445l13.62369,0.07778z" fill="#ffffff" stroke="#ffffff" stroke-width="0.5" stroke-linecap="round"/><path d="M220.82247,188.09109l-4.44084,-2.49384l-0.09789,-6.99198l4.44294,0.02536z" fill="url(#color-31)" stroke="#ff9b00" stroke-width="0" stroke-linecap="round"/><path d="M249.63121,199.96024v-13.11111h2.60644v11.74943z" fill="url(#color-32)" stroke="none" stroke-width="0" stroke-linecap="butt"/><path d="M249.83671,178.97161l13.62369,-0.07778l-0.09022,6.44445l-13.53347,7.6z" data-paper-data="{&quot;index&quot;:null}" fill="#ffffff" stroke="#ffffff" stroke-width="0" stroke-linecap="round"/><path d="M237.88291,184.73335v-12.5h4.33072v12.5z" fill="#ffffff" stroke="none" stroke-width="0" stroke-linecap="butt"/><g stroke="#8abcd0" stroke-width="0.5" stroke-linecap="round"><path d="M241.17483,180.55772c0,0 -0.50355,1.7675 -1.12376,1.7675c-0.62023,0 -1.12376,-1.7675 -1.12376,-1.7675l0.01608,-4.93504c0,0 0.50355,-1.7675 1.12376,-1.7675c0.62024,0 1.12377,1.7675 1.12377,1.7675z" fill="#97cee4"/><path d="M239.05143,176.19633h1.94109" fill="none"/><path d="M239.05143,177.58407h1.85286" fill="none"/><path d="M238.96317,179.80444h2.02931" fill="none"/><path d="M240.91562,178.39883h-2.02931" fill="none"/></g><path d="M249.49872,193.34383v-14.60714h2.70669v13.17857z" fill="url(#color-33)" stroke="none" stroke-width="0" stroke-linecap="butt"/><path d="M237.84782,200.28308v-5.33334h4.11016v5.33334z" fill="url(#color-34)" stroke="none" stroke-width="0" stroke-linecap="butt"/><path d="M238.2087,194.18308v-2.83333h3.38837v2.83333z" fill="url(#color-35)" stroke="none" stroke-width="0" stroke-linecap="butt"/><path d="M239.36407,193.94446v-2.41667" fill="none" stroke="#9e9e9e" stroke-width="0.5" stroke-linecap="round"/><path d="M240.49185,191.52779v2.41667" fill="none" stroke="#9e9e9e" stroke-width="0.5" stroke-linecap="round"/><path d="M259.18534,178.63063l4.44295,-0.02536l-0.0979,6.99199l-4.44084,2.49384z" data-paper-data="{&quot;index&quot;:null}" fill="url(#color-36)" stroke="#ff9b00" stroke-width="0" stroke-linecap="round"/><path d="M217.74464,192.11529l0.0694,-12.23077" fill="none" stroke="url(#color-37)" stroke-width="2" stroke-linecap="round"/><path d="M262.26163,192.11529l-0.0694,-12.23077" fill="none" stroke="url(#color-38)" stroke-width="2" stroke-linecap="round"/><path d="M216.66314,192.53621l0.01157,-13.58974" fill="none" stroke="url(#color-39)" stroke-width="0.5" stroke-linecap="round"/><path d="M263.34316,192.53621l-0.01157,-13.58974" fill="none" stroke="url(#color-40)" stroke-width="0.5" stroke-linecap="round"/><path d="M230.27083,173.00596v-12.34732l3.40841,-3.33333v15.76398z" fill="url(#color-41)" stroke="none" stroke-width="0" stroke-linecap="butt"/><path d="M230.27083,187.83929v-14.83333h3.40841v14.83333z" fill="url(#color-42)" stroke="none" stroke-width="0" stroke-linecap="butt"/><path d="M230.19567,200.01975l0.07519,-12.23611l3.40841,0.05834v13.03889h-2.10521z" fill="url(#color-43)" stroke="none" stroke-width="0" stroke-linecap="butt"/><path d="M230.30418,175.23334v-4.5h3.33824v4.5z" fill="url(#color-44)" stroke="none" stroke-width="0" stroke-linecap="butt"/><path d="M230.30418,190.33334v-4.5h3.33824v4.5z" fill="url(#color-45)" stroke="none" stroke-width="0" stroke-linecap="butt"/><g fill="none" stroke-linecap="round"><path d="M215.24618,184.17717v-6.8125" stroke="#b6b6b6" stroke-width="2.5"/><g><path d="M215.07702,185.05217v6.8125" stroke="#b6b6b6" stroke-width="3"/><path d="M215.52378,191.88452v-6.6875" stroke="#c2c2c2" stroke-width="2"/></g><path d="M215.69296,184.19702v-6.6875" stroke="#c2c2c2" stroke-width="1.5"/></g><g data-paper-data="{&quot;index&quot;:null}" fill="none" stroke-linecap="round"><path d="M264.7598,184.17717v-6.8125" stroke="#b6b6b6" stroke-width="2.5"/><g><path d="M264.92898,191.86467v-6.8125" stroke="#b6b6b6" stroke-width="3"/><path d="M264.48221,185.19702v6.6875" stroke="#c2c2c2" stroke-width="2"/></g><path d="M264.31303,177.50952v6.6875" stroke="#c2c2c2" stroke-width="1.5"/></g><g fill="#01878f" stroke="#d5d5d5" stroke-width="1" stroke-linecap="square"><g><path d="M228.68145,183.64476h-0.63495l-1.66558,-2.06928c-0.12951,-0.16281 -0.25193,-0.27485 -0.36723,-0.33613c-0.11531,-0.06302 -0.22665,-0.09454 -0.33407,-0.09454c-0.14532,0 -0.27482,0.03501 -0.38855,0.10504c-0.11531,0.06828 -0.20612,0.16369 -0.27248,0.28623c-0.06635,0.12255 -0.0995,0.2626 -0.0995,0.42016c0,0.16806 0.03475,0.31687 0.10424,0.44642c0.06951,0.12955 0.1619,0.23021 0.27721,0.30199c0.11531,0.07178 0.24008,0.10504 0.37435,0.09979v0.83244c-0.29221,0 -0.5465,-0.07178 -0.76289,-0.21533c-0.21639,-0.1453 -0.38382,-0.34488 -0.50228,-0.59872c-0.12004,-0.25384 -0.18007,-0.54796 -0.18007,-0.88233c0,-0.30987 0.06239,-0.58734 0.18717,-0.83244c0.12479,-0.24684 0.29694,-0.44029 0.5165,-0.58034c0.21954,-0.1418 0.47148,-0.2127 0.75579,-0.2127c0.2085,0 0.38382,0.03151 0.52597,0.09454c0.14058,0.06127 0.27089,0.15406 0.39094,0.27835c0.11848,0.1243 0.25036,0.27835 0.39566,0.46217l1.17515,1.47055l-0.18243,0.07353v-2.37914h0.68708z"/><path d="M228.72772,185.90967c0,0.33516 -0.06402,0.63099 -0.19208,0.88749c-0.12959,0.25479 -0.31011,0.45401 -0.54152,0.59765c-0.23142,0.14364 -0.49833,0.21546 -0.80073,0.21546h-1.37465c-0.30086,0 -0.567,-0.07182 -0.79841,-0.21546c-0.23142,-0.14364 -0.41194,-0.34285 -0.54152,-0.59765c-0.12959,-0.2565 -0.1944,-0.55233 -0.1944,-0.88749c0,-0.33516 0.0648,-0.63013 0.1944,-0.88493c0.12959,-0.25479 0.31011,-0.45401 0.54152,-0.59765c0.23142,-0.14535 0.49756,-0.21803 0.79841,-0.21803h1.37465c0.3024,0 0.56929,0.07268 0.80073,0.21803c0.23142,0.14364 0.41194,0.34285 0.54152,0.59765c0.12805,0.25479 0.19208,0.54977 0.19208,0.88493zM228.04966,185.90967c0,-0.16758 -0.03548,-0.31892 -0.10645,-0.45401c-0.07252,-0.13509 -0.16972,-0.24197 -0.2916,-0.32063c-0.12188,-0.07866 -0.25764,-0.11799 -0.40731,-0.11799h-1.47879c-0.15119,0 -0.28773,0.03933 -0.40962,0.11799c-0.12188,0.07866 -0.21832,0.18554 -0.28927,0.32063c-0.07252,0.13509 -0.10878,0.28642 -0.10878,0.45401c0,0.16587 0.03626,0.3172 0.10878,0.45401c0.07097,0.13509 0.1674,0.24197 0.28927,0.32063c0.12188,0.07866 0.25842,0.11799 0.40962,0.11799h1.47879c0.14965,0 0.28542,-0.03933 0.40731,-0.11799c0.12188,-0.07866 0.21908,-0.18554 0.2916,-0.32063c0.07097,-0.1368 0.10645,-0.28814 0.10645,-0.45401z"/></g><g data-paper-data="{&quot;index&quot;:null}"><path d="M250.89172,180.31502h0.68708v2.37914l-0.18243,-0.07353l1.17515,-1.47055c0.14532,-0.18382 0.27721,-0.33787 0.39566,-0.46217c0.12004,-0.12429 0.25036,-0.21708 0.39094,-0.27835c0.14216,-0.06303 0.31748,-0.09454 0.52597,-0.09454c0.28432,0 0.53624,0.0709 0.75579,0.2127c0.21954,0.14005 0.39171,0.3335 0.5165,0.58034c0.12479,0.2451 0.18717,0.52257 0.18717,0.83244c0,0.33437 -0.06002,0.62849 -0.18007,0.88233c-0.11848,0.25384 -0.2859,0.45342 -0.50228,0.59872c-0.21639,0.14355 -0.47069,0.21533 -0.76289,0.21533v-0.83244c0.13425,0.00525 0.25903,-0.02801 0.37435,-0.09979c0.11531,-0.07178 0.2077,-0.17244 0.27721,-0.30199c0.06951,-0.12955 0.10424,-0.27836 0.10424,-0.44642c0,-0.15756 -0.03317,-0.29761 -0.0995,-0.42016c-0.06635,-0.12254 -0.15716,-0.21795 -0.27248,-0.28623c-0.11373,-0.07003 -0.24324,-0.10504 -0.38855,-0.10504c-0.10739,0 -0.21876,0.03152 -0.33407,0.09454c-0.11531,0.06128 -0.23772,0.17332 -0.36723,0.33613l-1.66558,2.06928h-0.63495z"/><path d="M251.03753,185.02474c0.12959,-0.25479 0.31011,-0.45401 0.54152,-0.59765c0.23142,-0.14535 0.49833,-0.21803 0.80073,-0.21803h1.37465c0.30086,0 0.567,0.07268 0.79841,0.21803c0.23142,0.14364 0.41194,0.34285 0.54152,0.59765c0.12959,0.25479 0.1944,0.54977 0.1944,0.88493c0,0.33516 -0.0648,0.63099 -0.1944,0.88749c-0.12959,0.25479 -0.31011,0.45401 -0.54152,0.59765c-0.23142,0.14364 -0.49756,0.21546 -0.79841,0.21546h-1.37465c-0.3024,0 -0.56929,-0.07182 -0.80073,-0.21546c-0.23142,-0.14364 -0.41194,-0.34285 -0.54152,-0.59765c-0.12805,-0.2565 -0.19208,-0.55233 -0.19208,-0.88749c0,-0.33516 0.06402,-0.63013 0.19208,-0.88493zM251.62997,186.36367c0.07252,0.13509 0.16972,0.24197 0.2916,0.32063c0.12188,0.07866 0.25764,0.11799 0.40731,0.11799h1.47879c0.15119,0 0.28773,-0.03933 0.40962,-0.11799c0.12188,-0.07866 0.21832,-0.18554 0.28927,-0.32063c0.07252,-0.1368 0.10878,-0.28814 0.10878,-0.45401c0,-0.16758 -0.03626,-0.31892 -0.10878,-0.45401c-0.07097,-0.13509 -0.1674,-0.24197 -0.28927,-0.32063c-0.12188,-0.07866 -0.25842,-0.11799 -0.40962,-0.11799h-1.47879c-0.14965,0 -0.28542,0.03933 -0.40731,0.11799c-0.12188,0.07866 -0.21908,0.18554 -0.2916,0.32063c-0.07097,0.13509 -0.10645,0.28642 -0.10645,0.45401c0,0.16587 0.03548,0.3172 0.10645,0.45401z"/></g></g><g stroke-width="0.25" stroke-linecap="square"><g><path d="M228.68145,183.64476h-0.63495l-1.66558,-2.06928c-0.12951,-0.16281 -0.25193,-0.27485 -0.36723,-0.33613c-0.11531,-0.06302 -0.22665,-0.09454 -0.33407,-0.09454c-0.14532,0 -0.27482,0.03501 -0.38855,0.10504c-0.11531,0.06828 -0.20612,0.16369 -0.27248,0.28623c-0.06635,0.12255 -0.0995,0.2626 -0.0995,0.42016c0,0.16806 0.03475,0.31687 0.10424,0.44642c0.06951,0.12955 0.1619,0.23021 0.27721,0.30199c0.11531,0.07178 0.24008,0.10504 0.37435,0.09979v0.83244c-0.29221,0 -0.5465,-0.07178 -0.76289,-0.21533c-0.21639,-0.1453 -0.38382,-0.34488 -0.50228,-0.59872c-0.12004,-0.25384 -0.18007,-0.54796 -0.18007,-0.88233c0,-0.30987 0.06239,-0.58734 0.18717,-0.83244c0.12479,-0.24684 0.29694,-0.44029 0.5165,-0.58034c0.21954,-0.1418 0.47148,-0.2127 0.75579,-0.2127c0.2085,0 0.38382,0.03151 0.52597,0.09454c0.14058,0.06127 0.27089,0.15406 0.39094,0.27835c0.11848,0.1243 0.25036,0.27835 0.39566,0.46217l1.17515,1.47055l-0.18243,0.07353v-2.37914h0.68708z" fill="url(#color-46)" stroke="url(#color-47)"/><path d="M228.72772,185.90967c0,0.33516 -0.06402,0.63099 -0.19208,0.88749c-0.12959,0.25479 -0.31011,0.45401 -0.54152,0.59765c-0.23142,0.14364 -0.49833,0.21546 -0.80073,0.21546h-1.37465c-0.30086,0 -0.567,-0.07182 -0.79841,-0.21546c-0.23142,-0.14364 -0.41194,-0.34285 -0.54152,-0.59765c-0.12959,-0.2565 -0.1944,-0.55233 -0.1944,-0.88749c0,-0.33516 0.0648,-0.63013 0.1944,-0.88493c0.12959,-0.25479 0.31011,-0.45401 0.54152,-0.59765c0.23142,-0.14535 0.49756,-0.21803 0.79841,-0.21803h1.37465c0.3024,0 0.56929,0.07268 0.80073,0.21803c0.23142,0.14364 0.41194,0.34285 0.54152,0.59765c0.12805,0.25479 0.19208,0.54977 0.19208,0.88493zM228.04966,185.90967c0,-0.16758 -0.03548,-0.31892 -0.10645,-0.45401c-0.07252,-0.13509 -0.16972,-0.24197 -0.2916,-0.32063c-0.12188,-0.07866 -0.25764,-0.11799 -0.40731,-0.11799h-1.47879c-0.15119,0 -0.28773,0.03933 -0.40962,0.11799c-0.12188,0.07866 -0.21832,0.18554 -0.28927,0.32063c-0.07252,0.13509 -0.10878,0.28642 -0.10878,0.45401c0,0.16587 0.03626,0.3172 0.10878,0.45401c0.07097,0.13509 0.1674,0.24197 0.28927,0.32063c0.12188,0.07866 0.25842,0.11799 0.40962,0.11799h1.47879c0.14965,0 0.28542,-0.03933 0.40731,-0.11799c0.12188,-0.07866 0.21908,-0.18554 0.2916,-0.32063c0.07097,-0.1368 0.10645,-0.28814 0.10645,-0.45401z" fill="url(#color-48)" stroke="url(#color-49)"/></g><g data-paper-data="{&quot;index&quot;:null}"><path d="M250.89172,180.31502h0.68708v2.37914l-0.18243,-0.07353l1.17515,-1.47055c0.14532,-0.18382 0.27721,-0.33787 0.39566,-0.46217c0.12004,-0.12429 0.25036,-0.21708 0.39094,-0.27835c0.14216,-0.06303 0.31748,-0.09454 0.52597,-0.09454c0.28432,0 0.53624,0.0709 0.75579,0.2127c0.21954,0.14005 0.39171,0.3335 0.5165,0.58034c0.12479,0.2451 0.18717,0.52257 0.18717,0.83244c0,0.33437 -0.06002,0.62849 -0.18007,0.88233c-0.11848,0.25384 -0.2859,0.45342 -0.50228,0.59872c-0.21639,0.14355 -0.47069,0.21533 -0.76289,0.21533v-0.83244c0.13425,0.00525 0.25903,-0.02801 0.37435,-0.09979c0.11531,-0.07178 0.2077,-0.17244 0.27721,-0.30199c0.06951,-0.12955 0.10424,-0.27836 0.10424,-0.44642c0,-0.15756 -0.03317,-0.29761 -0.0995,-0.42016c-0.06635,-0.12254 -0.15716,-0.21795 -0.27248,-0.28623c-0.11373,-0.07003 -0.24324,-0.10504 -0.38855,-0.10504c-0.10739,0 -0.21876,0.03152 -0.33407,0.09454c-0.11531,0.06128 -0.23772,0.17332 -0.36723,0.33613l-1.66558,2.06928h-0.63495z" fill="url(#color-50)" stroke="url(#color-51)"/><path d="M251.03753,185.02474c0.12959,-0.25479 0.31011,-0.45401 0.54152,-0.59765c0.23142,-0.14535 0.49833,-0.21803 0.80073,-0.21803h1.37465c0.30086,0 0.567,0.07268 0.79841,0.21803c0.23142,0.14364 0.41194,0.34285 0.54152,0.59765c0.12959,0.25479 0.1944,0.54977 0.1944,0.88493c0,0.33516 -0.0648,0.63099 -0.1944,0.88749c-0.12959,0.25479 -0.31011,0.45401 -0.54152,0.59765c-0.23142,0.14364 -0.49756,0.21546 -0.79841,0.21546h-1.37465c-0.3024,0 -0.56929,-0.07182 -0.80073,-0.21546c-0.23142,-0.14364 -0.41194,-0.34285 -0.54152,-0.59765c-0.12805,-0.2565 -0.19208,-0.55233 -0.19208,-0.88749c0,-0.33516 0.06402,-0.63013 0.19208,-0.88493zM251.62997,186.36367c0.07252,0.13509 0.16972,0.24197 0.2916,0.32063c0.12188,0.07866 0.25764,0.11799 0.40731,0.11799h1.47879c0.15119,0 0.28773,-0.03933 0.40962,-0.11799c0.12188,-0.07866 0.21832,-0.18554 0.28927,-0.32063c0.07252,-0.1368 0.10878,-0.28814 0.10878,-0.45401c0,-0.16758 -0.03626,-0.31892 -0.10878,-0.45401c-0.07097,-0.13509 -0.1674,-0.24197 -0.28927,-0.32063c-0.12188,-0.07866 -0.25842,-0.11799 -0.40962,-0.11799h-1.47879c-0.14965,0 -0.28542,0.03933 -0.40731,0.11799c-0.12188,0.07866 -0.21908,0.18554 -0.2916,0.32063c-0.07097,0.13509 -0.10645,0.28642 -0.10645,0.45401c0,0.16587 0.03548,0.3172 0.10645,0.45401z" fill="url(#color-52)" stroke="url(#color-53)"/></g></g><path d="M214.19287,178.7381v-0.92857h2.25557v0.92857z" fill="#ff0000" stroke="none" stroke-width="0" stroke-linecap="butt"/><path d="M263.61506,178.7381v-0.92857h2.25557v0.92857z" fill="#ff0000" stroke="none" stroke-width="0" stroke-linecap="butt"/></g></g></svg>