<svg version="1.1" xmlns="http://www.w3.org/2000/svg" xmlns:xlink="http://www.w3.org/1999/xlink" width="29.56767" height="16.52048" viewBox="0,0,29.56767,16.52048"><defs><linearGradient x1="273.67571" y1="179.36984" x2="229.33487" y2="179.90908" gradientUnits="userSpaceOnUse" id="color-1"><stop offset="0" stop-color="#a300f2"/><stop offset="1" stop-color="#a300f2" stop-opacity="0"/></linearGradient><linearGradient x1="286.88746" y1="179.09699" x2="226.51541" y2="179.83132" gradientUnits="userSpaceOnUse" id="color-2"><stop offset="0" stop-color="#f1f1f1"/><stop offset="1" stop-color="#f1f1f1" stop-opacity="0"/></linearGradient><linearGradient x1="236.1339" y1="180.18983" x2="232.40475" y2="180.23518" gradientUnits="userSpaceOnUse" id="color-3"><stop offset="0" stop-color="#ff4f00"/><stop offset="1" stop-color="#ff4f00" stop-opacity="0"/></linearGradient><linearGradient x1="236.01715" y1="180.15918" x2="233.49614" y2="180.18991" gradientUnits="userSpaceOnUse" id="color-4"><stop offset="0" stop-color="#ffd400"/><stop offset="1" stop-color="#ffd400" stop-opacity="0"/></linearGradient><linearGradient x1="236.18599" y1="180.15612" x2="231.99726" y2="180.20707" gradientUnits="userSpaceOnUse" id="color-5"><stop offset="0" stop-color="#ffee00"/><stop offset="1" stop-color="#ffee00" stop-opacity="0"/></linearGradient><linearGradient x1="236.21998" y1="180.12145" x2="234.38674" y2="180.14376" gradientUnits="userSpaceOnUse" id="color-6"><stop offset="0" stop-color="#ffee00"/><stop offset="1" stop-color="#ffee00" stop-opacity="0"/></linearGradient><linearGradient x1="236.19728" y1="181.08522" x2="234.36407" y2="181.10753" gradientUnits="userSpaceOnUse" id="color-7"><stop offset="0" stop-color="#ffee00"/><stop offset="1" stop-color="#ffee00" stop-opacity="0"/></linearGradient><linearGradient x1="236.17385" y1="179.15856" x2="234.34065" y2="179.18087" gradientUnits="userSpaceOnUse" id="color-8"><stop offset="0" stop-color="#ffee00"/><stop offset="1" stop-color="#ffee00" stop-opacity="0"/></linearGradient><radialGradient cx="235.92844" cy="180.33803" r="8.18778" gradientUnits="userSpaceOnUse" id="color-9"><stop offset="0" stop-color="#90d6ff"/><stop offset="1" stop-color="#90d6ff" stop-opacity="0"/></radialGradient><linearGradient x1="246.976" y1="177.76447" x2="246.976" y2="182.92636" gradientUnits="userSpaceOnUse" id="color-10"><stop offset="0" stop-color="#9e9e9e"/><stop offset="1" stop-color="#b5b5b5"/></linearGradient><linearGradient x1="246.97601" y1="177.76449" x2="246.97601" y2="182.92632" gradientUnits="userSpaceOnUse" id="color-11"><stop offset="0" stop-color="#b5b5b5"/><stop offset="1" stop-color="#9e9e9e"/></linearGradient></defs><g transform="translate(-225.86205,-172.07779)"><g data-paper-data="{&quot;isPaintingLayer&quot;:true}" fill-rule="nonzero" stroke-linejoin="miter" stroke-miterlimit="10" stroke-dasharray="" stroke-dashoffset="0" style="mix-blend-mode: normal"><g><g stroke="#000000" stroke-width="0" stroke-linecap="round"><path d="M235.9083,181.14361l-7.05332,-0.85635l7.02837,-1.19461z" fill="url(#color-1)"/><path d="M235.46545,181.51215l-9.6034,-1.16596l9.56944,-1.62652z" fill="url(#color-2)"/><path d="M236.14018,180.70783c0,0 -0.24666,0.93265 -1.12853,0.91162c-2.10801,-0.05027 -2.60858,-1.52232 -2.60858,-1.52232c0,0 0.41389,-1.25209 2.57414,-1.30908c0.91984,-0.02427 1.14996,0.84937 1.14996,0.84937z" fill="url(#color-3)"/><path d="M236.02141,180.50934c0,0 -0.16676,0.63049 -0.76293,0.61627c-1.42507,-0.03398 -1.76347,-1.02912 -1.76347,-1.02912c0,0 0.2798,-0.84645 1.74019,-0.88497c0.62184,-0.0164 0.7774,0.5742 0.7774,0.5742z" fill="url(#color-4)"/><path d="M236.19306,180.73781c0,0 -0.27707,1.04757 -1.26763,1.02395c-2.3678,-0.05645 -2.93007,-1.70991 -2.93007,-1.70991c0,0 0.4649,-1.40639 2.89139,-1.47042c1.03321,-0.02725 1.29168,0.95405 1.29168,0.95405z" fill="url(#color-5)"/><path d="M236.22307,180.37605c0,0 -0.12125,0.45846 -0.55478,0.44813c-1.03627,-0.0247 -1.28236,-0.74835 -1.28236,-0.74835c0,0 0.20347,-0.61552 1.26542,-0.64353c0.45219,-0.01194 0.5653,0.41753 0.5653,0.41753z" fill="url(#color-6)"/><path d="M236.20039,181.33981c0,0 -0.12125,0.45848 -0.55478,0.44815c-1.03627,-0.0247 -1.28236,-0.74836 -1.28236,-0.74836c0,0 0.20346,-0.61552 1.26541,-0.64353c0.45219,-0.01192 0.56531,0.41755 0.56531,0.41755z" fill="url(#color-7)"/><path d="M236.17693,179.41315c0,0 -0.12127,0.45848 -0.55478,0.44813c-1.03627,-0.0247 -1.28234,-0.74835 -1.28234,-0.74835c0,0 0.20346,-0.61552 1.26541,-0.64353c0.45219,-0.01192 0.5653,0.41753 0.5653,0.41753z" fill="url(#color-8)"/></g><path d="M244.11621,180.33803c0,4.56201 -3.66579,8.26024 -8.18778,8.26024c-4.52199,0 -8.18779,-3.69823 -8.18779,-8.26024c0,-4.56201 3.6658,-8.26024 8.18779,-8.26024c4.52199,0 8.18778,3.69823 8.18778,8.26024z" fill="url(#color-9)" stroke="none" stroke-width="0" stroke-linecap="butt"/><path d="M239.07239,178.94236l10.8384,-1.17788l4.96884,2.76156l-5.15688,2.40027l-10.63054,-1.59359z" fill="url(#color-10)" stroke="url(#color-11)" stroke-width="0.5" stroke-linecap="round"/><path d="M240.58639,178.15193l-3.60639,-0.04536l-0.14657,-2.60141l4.77015,0.84969l1.57724,1.52667z" fill="#ff0000" stroke="#ef0000" stroke-width="0.5" stroke-linecap="round"/><path d="M243.19346,182.24124l-1.59458,1.50855l-4.77954,0.79517l0.17625,-2.59957l3.60667,-0.00418z" data-paper-data="{&quot;index&quot;:null}" fill="#ff0000" stroke="#ef0000" stroke-width="0.5" stroke-linecap="round"/><path d="M243.73281,180.04327h-7.32034" fill="none" stroke="#ef0000" stroke-width="0.5" stroke-linecap="round"/></g></g></g></svg>