<svg version="1.1" xmlns="http://www.w3.org/2000/svg" xmlns:xlink="http://www.w3.org/1999/xlink" width="83.99238" height="37.63289" viewBox="0,0,83.99238,37.63289"><defs><linearGradient x1="166.91968" y1="235.37696" x2="166.92101" y2="257.75795" gradientUnits="userSpaceOnUse" id="color-1"><stop offset="0" stop-color="#000000"/><stop offset="1" stop-color="#000000" stop-opacity="0"/></linearGradient><linearGradient x1="230.4063" y1="241.7573" x2="173.4063" y2="241.7573" gradientUnits="userSpaceOnUse" id="color-2"><stop offset="0" stop-color="#6f7171"/><stop offset="1" stop-color="#6f7171" stop-opacity="0"/></linearGradient></defs><g transform="translate(-146.41391,-227.0659)"><g data-paper-data="{&quot;isPaintingLayer&quot;:true}" fill-rule="nonzero" stroke-linejoin="miter" stroke-miterlimit="10" stroke-dasharray="" stroke-dashoffset="0" style="mix-blend-mode: normal"><path d="M173.26659,261.94798l-0.0012,-19.28572" fill="none" stroke="#f7fbfb" stroke-width="5.5" stroke-linecap="round"/><path d="M166.76655,261.94839l-0.00119,-19.28572" fill="none" stroke="#f7fbfb" stroke-width="5.5" stroke-linecap="round"/><path d="M160.26658,261.94879l-0.00119,-19.28572" fill="none" stroke="#f7fbfb" stroke-width="5.5" stroke-linecap="round"/><path d="M158.76217,243.58854l2.7273,-0.00017l0.0007,11.25l-2.7273,0.00017z" fill="#00ddff" stroke="none" stroke-width="0" stroke-linecap="butt"/><path d="M172.39854,243.58768l2.72722,-0.00017l0.0007,11.25l-2.72722,0.00017z" fill="#00ddff" stroke="none" stroke-width="0" stroke-linecap="butt"/><path d="M173.46802,264.37552c-1.39328,0.00009 -2.52274,-0.66419 -2.52279,-1.48379c-0.00005,-0.81952 1.12934,-1.48409 2.52261,-1.48417c1.39328,-0.00009 2.52281,0.66426 2.52286,1.48386c0.00005,0.81952 -1.12941,1.48402 -2.52268,1.4841z" fill="#797c7c" stroke="none" stroke-width="0" stroke-linecap="butt"/><path d="M166.96795,264.37592c-1.39328,0.00009 -2.52283,-0.66419 -2.52287,-1.48379c-0.00005,-0.81952 1.12941,-1.48409 2.52269,-1.48417c1.39328,-0.00009 2.52281,0.66426 2.52285,1.48386c0.00005,0.81952 -1.12941,1.48402 -2.52267,1.4841z" fill="#797c7c" stroke="none" stroke-width="0" stroke-linecap="butt"/><path d="M160.21795,264.37634c-1.39328,0.00009 -2.52283,-0.6642 -2.52287,-1.4838c-0.00005,-0.81952 1.12941,-1.48409 2.52269,-1.48417c1.39328,-0.00009 2.52281,0.66426 2.52285,1.48387c0.00005,0.81952 -1.12941,1.48402 -2.52267,1.4841z" fill="#797c7c" stroke="none" stroke-width="0" stroke-linecap="butt"/><path d="M156.74112,247.87759l20.3571,-0.00126l0.00138,9.88095l-20.3571,0.00126z" fill="url(#color-1)" stroke="none" stroke-width="NaN" stroke-linecap="butt"/><g stroke-width="0"><path d="M219.67843,257.64358l-49.54169,-1.02014l-22.79513,-13.58532l-0.92769,-15.3488l59.8915,-0.62342z" fill="#f7fbfb" stroke="#8f8f8f" stroke-linecap="round"/><path d="M199.9063,246.3823h-29.75l-15,-10.25h65z" data-paper-data="{&quot;index&quot;:null}" fill="#e5e9e9" stroke="none" stroke-linecap="butt"/><path d="M173.4063,256.42393v-29.33333h57v29.33333z" data-paper-data="{&quot;index&quot;:null}" fill="url(#color-2)" stroke="none" stroke-linecap="butt"/></g></g></g></svg>