<svg version="1.1" xmlns="http://www.w3.org/2000/svg" xmlns:xlink="http://www.w3.org/1999/xlink" width="56.32476" height="75.0648" viewBox="0,0,56.32476,75.0648"><defs><linearGradient x1="241.22843" y1="155.72478" x2="241.22843" y2="199.68326" gradientUnits="userSpaceOnUse" id="color-1"><stop offset="0" stop-color="#00de98"/><stop offset="1" stop-color="#00386f"/></linearGradient><linearGradient x1="241.22843" y1="155.72478" x2="241.22843" y2="199.68326" gradientUnits="userSpaceOnUse" id="color-2"><stop offset="0" stop-color="#00de98"/><stop offset="1" stop-color="#00386f"/></linearGradient><radialGradient cx="240.46325" cy="207.64308" r="6.1016" gradientUnits="userSpaceOnUse" id="color-3"><stop offset="0" stop-color="#fff156"/><stop offset="1" stop-color="#fff156" stop-opacity="0"/></radialGradient><linearGradient x1="240.1385" y1="206.57576" x2="240.1385" y2="212.84849" gradientUnits="userSpaceOnUse" id="color-4"><stop offset="0" stop-color="#ff8600"/><stop offset="1" stop-color="#ff8600" stop-opacity="0"/></linearGradient><radialGradient cx="240.45917" cy="208.21142" r="8.58743" gradientUnits="userSpaceOnUse" id="color-5"><stop offset="0" stop-color="#fff696"/><stop offset="1" stop-color="#fff696" stop-opacity="0"/></radialGradient><radialGradient cx="240.18235" cy="205.42799" r="11.9232" gradientUnits="userSpaceOnUse" id="color-6"><stop offset="0" stop-color="#fcd81d"/><stop offset="1" stop-color="#fcd81d" stop-opacity="0"/></radialGradient><linearGradient x1="240.23722" y1="204.32197" x2="240.23722" y2="221.1856" gradientUnits="userSpaceOnUse" id="color-7"><stop offset="0" stop-color="#ffffff"/><stop offset="1" stop-color="#ffffff" stop-opacity="0"/></linearGradient><radialGradient cx="240.3042" cy="208.4453" r="6.1016" gradientUnits="userSpaceOnUse" id="color-8"><stop offset="0" stop-color="#ffee35"/><stop offset="1" stop-color="#ffee35" stop-opacity="0"/></radialGradient><linearGradient x1="235.79532" y1="206.02091" x2="244.51396" y2="206.02091" gradientUnits="userSpaceOnUse" id="color-9"><stop offset="0" stop-color="#5f5f5f"/><stop offset="1" stop-color="#4c4c4c"/></linearGradient><linearGradient x1="235.79532" y1="206.02091" x2="244.51396" y2="206.02091" gradientUnits="userSpaceOnUse" id="color-10"><stop offset="0" stop-color="#949494"/><stop offset="1" stop-color="#757575"/></linearGradient><linearGradient x1="236.06416" y1="204.21927" x2="238.89286" y2="204.21927" gradientUnits="userSpaceOnUse" id="color-11"><stop offset="0" stop-color="#4c4c4c"/><stop offset="1" stop-color="#4c4c4c" stop-opacity="0"/></linearGradient><linearGradient x1="244.2445" y1="204.21926" x2="241.4158" y2="204.21926" gradientUnits="userSpaceOnUse" id="color-12"><stop offset="0" stop-color="#5f5f5f"/><stop offset="1" stop-color="#5f5f5f" stop-opacity="0"/></linearGradient><linearGradient x1="237.21768" y1="167.87076" x2="242.79371" y2="167.87076" gradientUnits="userSpaceOnUse" id="color-13"><stop offset="0" stop-color="#5f5f5f"/><stop offset="1" stop-color="#a8a8a8"/></linearGradient><linearGradient x1="240.04831" y1="161.54812" x2="240.04831" y2="162.48361" gradientUnits="userSpaceOnUse" id="color-14"><stop offset="0" stop-color="#7a7a7a"/><stop offset="1" stop-color="#646464"/></linearGradient><linearGradient x1="227.11429" y1="178.86466" x2="227.11429" y2="200.90383" gradientUnits="userSpaceOnUse" id="color-15"><stop offset="0" stop-color="#00a29c"/><stop offset="1" stop-color="#00478c"/></linearGradient><linearGradient x1="252.888" y1="178.86466" x2="252.888" y2="200.90383" gradientUnits="userSpaceOnUse" id="color-16"><stop offset="0" stop-color="#00a29c"/><stop offset="1" stop-color="#00478c"/></linearGradient><linearGradient x1="239.09348" y1="165.17487" x2="239.28648" y2="165.17487" gradientUnits="userSpaceOnUse" id="color-17"><stop offset="0" stop-color="#00eeec"/><stop offset="1" stop-color="#1cfff4"/></linearGradient><linearGradient x1="233.25011" y1="156.23006" x2="233.25011" y2="200.78562" gradientUnits="userSpaceOnUse" id="color-18"><stop offset="0" stop-color="#00ffad"/><stop offset="1" stop-color="#00478c"/></linearGradient><linearGradient x1="233.25011" y1="156.23006" x2="233.25011" y2="200.78562" gradientUnits="userSpaceOnUse" id="color-19"><stop offset="0" stop-color="#00ffad"/><stop offset="1" stop-color="#00478c"/></linearGradient><linearGradient x1="246.54684" y1="156.22213" x2="246.54684" y2="200.77768" gradientUnits="userSpaceOnUse" id="color-20"><stop offset="0" stop-color="#00ffad"/><stop offset="1" stop-color="#00478c"/></linearGradient><linearGradient x1="246.54684" y1="156.22213" x2="246.54684" y2="200.77768" gradientUnits="userSpaceOnUse" id="color-21"><stop offset="0" stop-color="#00ffad"/><stop offset="1" stop-color="#00478c"/></linearGradient><linearGradient x1="217.05687" y1="178.60526" x2="217.05687" y2="188.09108" gradientUnits="userSpaceOnUse" id="color-22"><stop offset="0" stop-color="#00a29c"/><stop offset="1" stop-color="#007995"/></linearGradient><linearGradient x1="250.29993" y1="193.40467" x2="253.08795" y2="193.40467" gradientUnits="userSpaceOnUse" id="color-23"><stop offset="0" stop-color="#002f5e"/><stop offset="1" stop-color="#002f5e" stop-opacity="0"/></linearGradient><linearGradient x1="235.59059" y1="203.97261" x2="244.71504" y2="203.97261" gradientUnits="userSpaceOnUse" id="color-24"><stop offset="0" stop-color="#888888"/><stop offset="1" stop-color="#696969"/></linearGradient><linearGradient x1="250.15823" y1="186.04025" x2="253.05348" y2="186.04025" gradientUnits="userSpaceOnUse" id="color-25"><stop offset="0" stop-color="#dbdbdb"/><stop offset="1" stop-color="#dbdbdb" stop-opacity="0"/></linearGradient><linearGradient x1="237.69569" y1="197.61641" x2="242.09217" y2="197.61641" gradientUnits="userSpaceOnUse" id="color-26"><stop offset="0" stop-color="#8b8b8b"/><stop offset="1" stop-color="#7f7f7f"/></linearGradient><linearGradient x1="238.08171" y1="192.7664" x2="241.70614" y2="192.7664" gradientUnits="userSpaceOnUse" id="color-27"><stop offset="0" stop-color="#8b8b8b"/><stop offset="1" stop-color="#7f7f7f"/></linearGradient><linearGradient x1="262.84461" y1="178.60526" x2="262.84461" y2="188.09109" gradientUnits="userSpaceOnUse" id="color-28"><stop offset="0" stop-color="#00a29c"/><stop offset="1" stop-color="#007995"/></linearGradient><linearGradient x1="216.22919" y1="179.88451" x2="216.22919" y2="192.11528" gradientUnits="userSpaceOnUse" id="color-29"><stop offset="0" stop-color="#009a95"/><stop offset="1" stop-color="#005da9"/></linearGradient><linearGradient x1="263.77306" y1="179.88451" x2="263.77306" y2="192.11528" gradientUnits="userSpaceOnUse" id="color-30"><stop offset="0" stop-color="#009a95"/><stop offset="1" stop-color="#005da9"/></linearGradient><linearGradient x1="215.04142" y1="178.94646" x2="215.04142" y2="192.5362" gradientUnits="userSpaceOnUse" id="color-31"><stop offset="0" stop-color="#007c78"/><stop offset="1" stop-color="#00376d"/></linearGradient><linearGradient x1="264.96092" y1="178.94646" x2="264.96092" y2="192.5362" gradientUnits="userSpaceOnUse" id="color-32"><stop offset="0" stop-color="#007c78"/><stop offset="1" stop-color="#00376d"/></linearGradient><linearGradient x1="229.59086" y1="179.10309" x2="233.23674" y2="179.10309" gradientUnits="userSpaceOnUse" id="color-33"><stop offset="0" stop-color="#00b67c"/><stop offset="1" stop-color="#00b67c" stop-opacity="0"/></linearGradient><linearGradient x1="229.59086" y1="179.10309" x2="233.23674" y2="179.10309" gradientUnits="userSpaceOnUse" id="color-34"><stop offset="0" stop-color="#00847e"/><stop offset="1" stop-color="#00847e" stop-opacity="0"/></linearGradient><linearGradient x1="229.59086" y1="179.10309" x2="233.23674" y2="179.10309" gradientUnits="userSpaceOnUse" id="color-35"><stop offset="0" stop-color="#004183"/><stop offset="1" stop-color="#004183" stop-opacity="0"/></linearGradient><linearGradient x1="229.62653" y1="172.98333" x2="233.19731" y2="172.98333" gradientUnits="userSpaceOnUse" id="color-36"><stop offset="0" stop-color="#009c84"/><stop offset="1" stop-color="#009c84" stop-opacity="0"/></linearGradient><linearGradient x1="229.62653" y1="188.08333" x2="233.19731" y2="188.08333" gradientUnits="userSpaceOnUse" id="color-37"><stop offset="0" stop-color="#00779c"/><stop offset="1" stop-color="#00779c" stop-opacity="0"/></linearGradient><linearGradient x1="239.39166" y1="126.50033" x2="239.39166" y2="220.52638" gradientUnits="userSpaceOnUse" id="color-38"><stop offset="0" stop-color="#a300f2"/><stop offset="1" stop-color="#a300f2" stop-opacity="0"/></linearGradient><linearGradient x1="239.11878" y1="98.48157" x2="239.11878" y2="226.50218" gradientUnits="userSpaceOnUse" id="color-39"><stop offset="0" stop-color="#f1f1f1"/><stop offset="1" stop-color="#f1f1f1" stop-opacity="0"/></linearGradient><linearGradient x1="240.2762" y1="206.11822" x2="240.2762" y2="214.02598" gradientUnits="userSpaceOnUse" id="color-40"><stop offset="0" stop-color="#ff4f00"/><stop offset="1" stop-color="#ff4f00" stop-opacity="0"/></linearGradient><linearGradient x1="240.19816" y1="206.36496" x2="240.19816" y2="211.71079" gradientUnits="userSpaceOnUse" id="color-41"><stop offset="0" stop-color="#ffd400"/><stop offset="1" stop-color="#ffd400" stop-opacity="0"/></linearGradient><linearGradient x1="240.19552" y1="206.0069" x2="240.19552" y2="214.88922" gradientUnits="userSpaceOnUse" id="color-42"><stop offset="0" stop-color="#ffee00"/><stop offset="1" stop-color="#ffee00" stop-opacity="0"/></linearGradient><linearGradient x1="240.11228" y1="205.93395" x2="240.11228" y2="209.82133" gradientUnits="userSpaceOnUse" id="color-43"><stop offset="0" stop-color="#ffee00"/><stop offset="1" stop-color="#ffee00" stop-opacity="0"/></linearGradient><linearGradient x1="242.4572" y1="206.0069" x2="242.4572" y2="209.89428" gradientUnits="userSpaceOnUse" id="color-44"><stop offset="0" stop-color="#ffee00"/><stop offset="1" stop-color="#ffee00" stop-opacity="0"/></linearGradient><linearGradient x1="237.76737" y1="206.0069" x2="237.76737" y2="209.89428" gradientUnits="userSpaceOnUse" id="color-45"><stop offset="0" stop-color="#ffee00"/><stop offset="1" stop-color="#ffee00" stop-opacity="0"/></linearGradient><linearGradient x1="223.12882" y1="181.97988" x2="227.89077" y2="181.97988" gradientUnits="userSpaceOnUse" id="color-46"><stop offset="0" stop-color="#01878f"/><stop offset="1" stop-color="#018097"/></linearGradient><linearGradient x1="223.12882" y1="181.97988" x2="227.89078" y2="181.97988" gradientUnits="userSpaceOnUse" id="color-47"><stop offset="0" stop-color="#01878f"/><stop offset="1" stop-color="#018097"/></linearGradient><linearGradient x1="223.18742" y1="185.90966" x2="227.94025" y2="185.90966" gradientUnits="userSpaceOnUse" id="color-48"><stop offset="0" stop-color="#01878f"/><stop offset="1" stop-color="#018097"/></linearGradient><linearGradient x1="223.18742" y1="185.90966" x2="227.94025" y2="185.90966" gradientUnits="userSpaceOnUse" id="color-49"><stop offset="0" stop-color="#01878f"/><stop offset="1" stop-color="#018097"/></linearGradient><linearGradient x1="256.4102" y1="181.97988" x2="251.64826" y2="181.97988" gradientUnits="userSpaceOnUse" id="color-50"><stop offset="0" stop-color="#01878f"/><stop offset="1" stop-color="#018097"/></linearGradient><linearGradient x1="256.41017" y1="181.97988" x2="251.64825" y2="181.97988" gradientUnits="userSpaceOnUse" id="color-51"><stop offset="0" stop-color="#01878f"/><stop offset="1" stop-color="#018097"/></linearGradient><linearGradient x1="256.35159" y1="185.90966" x2="251.59876" y2="185.90966" gradientUnits="userSpaceOnUse" id="color-52"><stop offset="0" stop-color="#01878f"/><stop offset="1" stop-color="#018097"/></linearGradient><linearGradient x1="256.35159" y1="185.90966" x2="251.59876" y2="185.90966" gradientUnits="userSpaceOnUse" id="color-53"><stop offset="0" stop-color="#01878f"/><stop offset="1" stop-color="#018097"/></linearGradient></defs><g transform="translate(-211.83861,-152.83594)"><g data-paper-data="{&quot;isPaintingLayer&quot;:true}" fill-rule="nonzero" stroke-linejoin="miter" stroke-miterlimit="10" stroke-dasharray="" stroke-dashoffset="0" style="mix-blend-mode: normal"><path d="M241.4375,155.54167v-2.375h1.375v2.375z" fill="#00cd94" stroke="none" stroke-width="0" stroke-linecap="butt"/><g fill="none" stroke="#00386f" stroke-width="1" stroke-linecap="round"><g><path d="M239.78791,203.02632h-8.74606l-16.28577,-8.375"/><path d="M239.84823,202.15132h-8.74606l-16.28577,-8.375"/><path d="M239.66727,201.21382h-8.74606l-16.28577,-8.375"/></g><g><path d="M265.24625,194.65132l-16.28577,8.375h-8.74606"/><path d="M265.18593,193.77632l-16.28577,8.375h-8.74606"/><path d="M265.36688,192.83882l-16.28577,8.375h-8.74606"/></g></g><path d="M232.05001,198.89448l0.17436,-37.58147l6.16355,-5.42857v15.66277c0,0 0.77234,1.92095 2.87313,1.92095c2.06407,0 2.82816,-1.79051 2.82816,-1.79051v-15.95287l6.31763,5.42857l-0.20781,37.7619l-2.84249,0.71141l-11.16459,0.0566z" fill="url(#color-1)" stroke="url(#color-2)" stroke-width="2.5" stroke-linecap="round"/><path d="M245.81552,207.64308c0,3.09004 -2.39629,5.59501 -5.35228,5.59501c-2.95599,0 -5.35228,-2.50497 -5.35228,-5.59501c0,-3.09004 2.39629,-5.59501 5.35228,-5.59501c2.95599,0 5.35228,2.50498 5.35228,5.59501z" fill="url(#color-3)" stroke="none" stroke-width="0" stroke-linecap="butt"/><path d="M236.80462,212.84849v-6.27273c0,0 1.58079,-0.45454 3.33392,-0.45454c1.87016,0 3.33393,0.45454 3.33393,0.45454v6.27273z" fill="url(#color-4)" stroke="none" stroke-width="0" stroke-linecap="butt"/><path d="M238.52399,153.04728c0,0 0.84915,0.91199 1.4915,1.36364c0.64234,0.45165 1.00637,0.53754 1.40375,0.63636c0.39739,0.09883 0.78961,-0.09091 0.78961,-0.09091l1.31603,16.90909l-8.15934,1.36364z" fill="#676767" stroke="#ff0000" stroke-width="0" stroke-linecap="round"/><g fill="none" stroke-linecap="round"><g stroke="#b6b6b6" stroke-width="2.5"><path d="M222.07809,179.46936v-4.09091"/></g><path d="M222.51677,175.53754l-0.04386,4.18182" stroke="#c2c2c2" stroke-width="1.5"/></g><g data-paper-data="{&quot;index&quot;:null}" fill="none" stroke-linecap="round"><g stroke="#b6b6b6" stroke-width="2.5"><path d="M258.85209,179.46936v-4.09091"/></g><path d="M258.41342,175.53754l0.04386,4.18182" stroke="#c2c2c2" stroke-width="1.5"/></g><path d="M247.99199,208.21142c0,4.34894 -3.37256,7.87446 -7.53284,7.87446c-4.16028,0 -7.53284,-3.52552 -7.53284,-7.87446c0,-4.34894 3.37257,-7.87446 7.53284,-7.87446c4.16028,0 7.53284,3.52552 7.53284,7.87446z" fill="url(#color-5)" stroke="none" stroke-width="0" stroke-linecap="butt"/><path d="M251.94658,205.42799c0,6.82325 -5.26701,12.35459 -11.76422,12.35459c-6.4972,0 -11.76423,-5.53134 -11.76423,-12.35459c0,-6.82325 5.26702,-12.35459 11.76423,-12.35459c6.4972,0 11.76422,5.53134 11.76422,12.35459z" fill="url(#color-6)" stroke="none" stroke-width="0" stroke-linecap="butt"/><path d="M242.64993,204.32197l-2.41271,16.86364l-2.41271,-16.86364z" fill="url(#color-7)" stroke="#000000" stroke-width="0" stroke-linecap="round"/><path d="M245.65648,208.4453c0,3.09004 -2.39629,5.59501 -5.35228,5.59501c-2.95598,0 -5.35228,-2.50497 -5.35228,-5.59501c0,-3.09004 2.39629,-5.59501 5.35228,-5.59501c2.95598,0 5.35228,2.50497 5.35228,5.59501z" fill="url(#color-8)" stroke="none" stroke-width="0" stroke-linecap="butt"/><path d="M244.51396,206.02091c0,0.46442 -1.95173,0.84091 -4.35933,0.84091c-2.40759,0 -4.35933,-0.37649 -4.35933,-0.84091c0,-0.46442 1.95173,-0.84091 4.35933,-0.84091c2.40759,0 4.35933,0.37649 4.35933,0.84091z" fill="url(#color-9)" stroke="url(#color-10)" stroke-width="0.5" stroke-linecap="butt"/><path d="M236.06416,206.08133v-3.72414h2.82869l0.03328,4.2069c0,0 -1.11106,-0.04387 -1.60978,-0.12799c-0.45034,-0.07596 -1.25219,-0.35477 -1.25219,-0.35477z" fill="url(#color-11)" stroke="none" stroke-width="0" stroke-linecap="butt"/><path d="M229.45418,203.47619v-3.42857h20.81821v3.42857z" fill="#00386f" stroke="none" stroke-width="0" stroke-linecap="butt"/><path d="M242.99228,206.4361c-0.49871,0.08413 -1.60978,0.12799 -1.60978,0.12799l0.03328,-4.2069h2.8287v3.72414c0,0 -0.80186,0.2788 -1.25219,0.35477z" data-paper-data="{&quot;index&quot;:null}" fill="url(#color-12)" stroke="none" stroke-width="0" stroke-linecap="butt"/><path d="M237.21768,173.76975v-11.79798h5.57603v11.79798z" fill="url(#color-13)" stroke="none" stroke-width="0" stroke-linecap="butt"/><path d="M242.12708,162.01587c0,0.25833 -0.93069,0.46774 -2.07874,0.46774c-1.14806,0 -2.07875,-0.20941 -2.07875,-0.46774c0,-0.25833 0.93069,-0.46775 2.07875,-0.46775c1.14806,0 2.07874,0.20942 2.07874,0.46775z" fill="url(#color-14)" stroke="#7e7e7e" stroke-width="0.5" stroke-linecap="butt"/><path d="M214.21322,194.71382v-1.9375h1.0254v1.9375z" fill="#00386f" stroke="none" stroke-width="0" stroke-linecap="butt"/><path d="M214.59426,178.86466l25.45127,0.125l-0.04559,21.91417l-8.78052,-0.03917l-17.03639,-8.625z" fill="url(#color-15)" stroke="#b6b6b6" stroke-width="0" stroke-linecap="round"/><path d="M215.34631,180.24805v-1.35714h1.86123v1.35714z" fill="#00bcfb" stroke="none" stroke-width="0" stroke-linecap="butt"/><path d="M238.78404,180.31948v19.28572" fill="none" stroke="#3195b6" stroke-width="2.5" stroke-linecap="round"/><path d="M237.61216,183.74805v-4.71428h2.41271v4.71428z" fill="#f00000" stroke="none" stroke-width="0" stroke-linecap="butt"/><path d="M237.61216,200.81948v-6h2.41271v6z" fill="#0098ca" stroke="none" stroke-width="0" stroke-linecap="butt"/><path d="M229.11168,191.90132v-7.1875" fill="none" stroke="#00bcfb" stroke-width="1" stroke-linecap="round"/><path d="M230.98152,183.77632l-0.12064,8.6875" fill="none" stroke="#f50000" stroke-width="1" stroke-linecap="round"/><path d="M219.94339,181.15132v7.9375" fill="none" stroke="#006c8a" stroke-width="1" stroke-linecap="round"/><path d="M225.73389,193.96382v-11.875" fill="none" stroke="#005b82" stroke-width="1" stroke-linecap="round"/><path d="M233.9371,184.27632l-0.06032,11.1875" fill="none" stroke="#fa0000" stroke-width="1" stroke-linecap="round"/><path d="M223.14024,194.33882l0.12064,-5.125" fill="none" stroke="#005b82" stroke-width="1" stroke-linecap="round"/><path d="M236.22917,181.40132l0.06032,11" fill="none" stroke="#fa0000" stroke-width="1" stroke-linecap="round"/><path d="M264.7637,194.71382v-1.9375h1.0254v1.9375z" fill="#00386f" stroke="none" stroke-width="0" stroke-linecap="butt"/><path d="M265.81926,192.23966l-17.03639,8.625l-8.78052,0.03917l-0.04559,-21.91417l25.45127,-0.125z" fill="url(#color-16)" stroke="#b6b6b6" stroke-width="0" stroke-linecap="round"/><path d="M262.79477,180.24805v-1.35714h1.86123v1.35714z" fill="#00b1ec" stroke="none" stroke-width="0" stroke-linecap="butt"/><path d="M241.21828,180.31948v19.28572" fill="none" stroke="#3195b6" stroke-width="2.5" stroke-linecap="round"/><path d="M239.97745,183.74805v-4.71428h2.41271v4.71428z" fill="#f00000" stroke="none" stroke-width="0" stroke-linecap="butt"/><path d="M239.97745,200.81948v-6h2.41271v6z" fill="#0098ca" stroke="none" stroke-width="0" stroke-linecap="butt"/><path d="M250.89068,191.90132v-7.1875" fill="none" stroke="#00bcfb" stroke-width="1" stroke-linecap="round"/><path d="M249.14147,192.46382l-0.12064,-8.6875" fill="none" stroke="#f50000" stroke-width="1" stroke-linecap="round"/><path d="M260.05893,181.15132v7.9375" fill="none" stroke="#006c8a" stroke-width="1" stroke-linecap="round"/><path d="M254.26847,182.08882v11.875" fill="none" stroke="#005b82" stroke-width="1" stroke-linecap="round"/><path d="M246.12558,195.46382l-0.06032,-11.1875" fill="none" stroke="#fa0000" stroke-width="1" stroke-linecap="round"/><path d="M256.74145,189.21382l0.12064,5.125" fill="none" stroke="#005b82" stroke-width="1" stroke-linecap="round"/><path d="M243.7732,181.40132l-0.06032,11" fill="none" stroke="#fa0000" stroke-width="1" stroke-linecap="round"/><path d="M240.80822,167.61264v-4.77419h0.24905v4.77419z" fill="#1dfffb" stroke="none" stroke-width="0" stroke-linecap="butt"/><path d="M241.41919,153.41091v17.45455c0,0 -0.39736,0.95908 -1.4915,0.90909c-1.0691,-0.04885 -1.31602,-0.90909 -1.31602,-0.90909l-0.08774,-17.45455" fill="none" stroke="#b1b1b1" stroke-width="1" stroke-linecap="round"/><path d="M230.71667,198.72781l0.17436,-37.58147l6.16355,-5.42857v15.66277c0,0 0.77234,1.92095 2.87313,1.92095c2.06407,0 2.82816,-1.79051 2.82816,-1.79051v-15.95287l6.31763,5.42857l-0.20781,37.7619l-2.84249,0.71141l-11.16459,0.0566z" fill="#ffffff" stroke="#ffffff" stroke-width="2.5" stroke-linecap="round"/><path d="M235.28753,177.2142l0.10723,18.33333" fill="none" stroke="#eeeeee" stroke-width="1" stroke-linecap="round"/><path d="M246.54681,177.2142l0.10723,11.77777" fill="none" stroke="#eeeeee" stroke-width="1" stroke-linecap="round"/><path d="M244.08052,195.43641l-0.21446,-10.66666" fill="none" stroke="#eeeeee" stroke-width="1" stroke-linecap="round"/><path d="M237.32491,186.2142v13.33333" fill="none" stroke="#eeeeee" stroke-width="1" stroke-linecap="round"/><path d="M242.47203,180.65864l0.10723,-7" fill="none" stroke="#eeeeee" stroke-width="1" stroke-linecap="round"/><path d="M234.32245,173.10307l0.21447,-13.77777" fill="none" stroke="#eeeeee" stroke-width="1" stroke-linecap="round"/><path d="M247.94085,160.3253l-0.21446,12.11111" fill="none" stroke="#fa0000" stroke-width="1" stroke-linecap="round"/><path d="M245.36728,160.99197l-0.32169,13" fill="none" stroke="#eeeeee" stroke-width="1" stroke-linecap="round"/><path d="M239.09348,167.52488v-4.7h0.19302v4.7z" fill="url(#color-17)" stroke="none" stroke-width="0" stroke-linecap="butt"/><path d="M239.93655,167.70941v-4.80645h0.21793v4.80645z" fill="#1dfffb" stroke="none" stroke-width="0" stroke-linecap="butt"/><path d="M238.39785,175.83194l1.36533,-1.05738l1.45343,0.91167v7.72276l-1.40938,0.54738l-1.40938,-0.6931z" fill="#8cffff" stroke="#7e7e7e" stroke-width="0.5" stroke-linecap="round"/><path d="M241.1149,175.69406l-1.38731,1.125l-1.26667,-0.875" fill="none" stroke="#55eded" stroke-width="0.5" stroke-linecap="round"/><path d="M238.70219,183.19406l0.96508,-0.6875l1.20635,0.8125" fill="none" stroke="#55eded" stroke-width="0.5" stroke-linecap="round"/><path d="M239.96886,183.63156l-0.18095,-0.5625l-0.06032,-6.5625l0.06032,-1.5" fill="none" stroke="#4fdada" stroke-width="0.5" stroke-linecap="round"/><path d="M238.39785,175.83194l1.36533,-1.05738l1.45343,0.91167v7.72276l-1.40938,0.54738l-1.40938,-0.6931z" fill="none" stroke="#7e7e7e" stroke-width="0.5" stroke-linecap="round"/><path d="M240.03636,176.94952l0.89615,-0.82143l0.02298,6.9881l-0.94211,-0.78572z" fill="#5cffff" stroke="none" stroke-width="0" stroke-linecap="round"/><path d="M240.02081,182.99548l0.66851,0.37012l-0.49811,0.13243z" fill="#57f3f3" stroke="#56eeee" stroke-width="0" stroke-linecap="round"/><path d="M239.51026,182.32108l-0.89616,0.66353l-0.02298,-6.80388l0.94211,0.78572z" data-paper-data="{&quot;index&quot;:null}" fill="#87ffff" stroke="none" stroke-width="0" stroke-linecap="round"/><path d="M236.28559,200.90476v-10.7h3.66731v10.7z" fill="#2d2d2d" stroke="none" stroke-width="0" stroke-linecap="butt"/><path d="M239.8564,200.90476v-10.7h3.66731v10.7z" data-paper-data="{&quot;index&quot;:null}" fill="#2d2d2d" stroke="none" stroke-width="0" stroke-linecap="butt"/><path d="M239.68083,183.6296l-0.72668,-0.34296l0.59232,-0.37011z" data-paper-data="{&quot;index&quot;:null}" fill="#5afbfb" stroke="#56eeee" stroke-width="0" stroke-linecap="round"/><path d="M234.96582,156.23006l-0.10723,13.44444l-1.93016,1.88889v11.77778l3.86033,3.77778v13.66667h-5.4688l-1.50124,-0.66667l-0.10723,-39.33333z" fill="url(#color-18)" stroke="url(#color-19)" stroke-width="0.5" stroke-linecap="round"/><path d="M250.08547,160.77767l-0.10723,39.33333l-1.50124,0.66667h-5.46879v-13.66667l3.86033,-3.77777v-11.77778l-1.93016,-1.88889l-0.10723,-13.44444z" data-paper-data="{&quot;index&quot;:null}" fill="url(#color-20)" stroke="url(#color-21)" stroke-width="0.5" stroke-linecap="round"/><path d="M229.49167,192.93827l-14.47624,-7.6l-0.09651,-6.44445l14.57274,0.07778z" fill="#ffffff" stroke="#ffffff" stroke-width="0.5" stroke-linecap="round"/><path d="M219.4843,188.09108l-4.75019,-2.49384l-0.1047,-6.99198l4.75244,0.02536z" fill="url(#color-22)" stroke="#ff9b00" stroke-width="0" stroke-linecap="round"/><path d="M250.29993,199.96023v-13.11111h2.78802v11.74943z" fill="url(#color-23)" stroke="none" stroke-width="0" stroke-linecap="butt"/><path d="M250.51975,178.9716l14.57274,-0.07778l-0.09651,6.44445l-14.47624,7.6z" data-paper-data="{&quot;index&quot;:null}" fill="#ffffff" stroke="#ffffff" stroke-width="0" stroke-linecap="round"/><path d="M235.59059,206.10897v-4.27273c0,0 2.44947,-0.51228 4.56221,-0.5c2.11198,0.01228 4.56221,0.5 4.56221,0.5v4.27273c0,0 -2.53082,-0.63636 -4.60608,-0.63636c-2.10452,0 -4.51834,0.63636 -4.51834,0.63636z" fill="url(#color-24)" stroke="none" stroke-width="0" stroke-linecap="butt"/><path d="M243.98421,201.86807v3.68" fill="none" stroke="#656565" stroke-width="0.5" stroke-linecap="round"/><path d="M242.86473,201.66807v3.64" fill="none" stroke="#6a6a6a" stroke-width="0.5" stroke-linecap="round"/><path d="M241.8224,201.54807l-0.0386,3.64" fill="none" stroke="#6f6f6f" stroke-width="0.5" stroke-linecap="round"/><path d="M240.74153,201.46807l-0.07721,3.68" fill="none" stroke="#747474" stroke-width="0.5" stroke-linecap="round"/><path d="M239.58343,205.18807l0.0386,-3.76" fill="none" stroke="#787878" stroke-width="0.5" stroke-linecap="round"/><path d="M238.54113,201.50807v3.76" fill="none" stroke="#7b7b7b" stroke-width="0.5" stroke-linecap="round"/><path d="M237.73322,184.73334v-12.5h4.6324v12.5z" fill="#ffffff" stroke="none" stroke-width="0" stroke-linecap="butt"/><g stroke="#8abcd0" stroke-width="0.5" stroke-linecap="round"><path d="M241.25447,180.55771c0,0 -0.53862,1.7675 -1.20205,1.7675c-0.66343,0 -1.20205,-1.7675 -1.20205,-1.7675l0.0172,-4.93504c0,0 0.53862,-1.7675 1.20205,-1.7675c0.66344,0 1.20206,1.7675 1.20206,1.7675z" fill="#97cee4"/><path d="M238.98313,176.19632h2.07631" fill="none"/><path d="M240.96507,177.58406h-1.98193" fill="none"/><path d="M238.88875,179.80443h2.17068" fill="none"/><path d="M238.80654,178.39882h2.17068" fill="none"/></g><path d="M250.15823,193.34382v-14.60714h2.89525v13.17857z" fill="url(#color-25)" stroke="none" stroke-width="0" stroke-linecap="butt"/><path d="M237.69569,200.28307v-5.33334h4.39648v5.33334z" fill="url(#color-26)" stroke="none" stroke-width="0" stroke-linecap="butt"/><path d="M238.08171,194.18307v-2.83333h3.62442v2.83333z" fill="url(#color-27)" stroke="none" stroke-width="0" stroke-linecap="butt"/><path d="M239.31756,193.94445v-2.41667" fill="none" stroke="#9e9e9e" stroke-width="0.5" stroke-linecap="round"/><path d="M240.52391,193.94445v-2.41667" fill="none" stroke="#9e9e9e" stroke-width="0.5" stroke-linecap="round"/><path d="M260.51962,178.63062l4.75245,-0.02536l-0.10471,6.99199l-4.75019,2.49384z" data-paper-data="{&quot;index&quot;:null}" fill="url(#color-28)" stroke="#ff9b00" stroke-width="0" stroke-linecap="round"/><path d="M216.19208,192.11528l0.07423,-12.23077" fill="none" stroke="url(#color-29)" stroke-width="2" stroke-linecap="round"/><path d="M263.73598,179.88451l0.07423,12.23077" fill="none" stroke="url(#color-30)" stroke-width="2" stroke-linecap="round"/><path d="M215.04759,178.94646l-0.01237,13.58974" fill="none" stroke="url(#color-31)" stroke-width="0.5" stroke-linecap="round"/><path d="M264.95471,178.94646l0.01237,13.58974" fill="none" stroke="url(#color-32)" stroke-width="0.5" stroke-linecap="round"/><path d="M229.59086,173.00595v-12.34732l3.64586,-3.33333v15.76398z" fill="url(#color-33)" stroke="none" stroke-width="0" stroke-linecap="butt"/><path d="M229.59086,187.83928v-14.83333h3.64586v14.83333z" fill="url(#color-34)" stroke="none" stroke-width="0" stroke-linecap="butt"/><path d="M229.51045,200.01974l0.08042,-12.23611l3.64586,0.05834v13.03889h-2.25187z" fill="url(#color-35)" stroke="none" stroke-width="0" stroke-linecap="butt"/><path d="M229.62653,175.23333v-4.5h3.57081v4.5z" fill="url(#color-36)" stroke="none" stroke-width="0" stroke-linecap="butt"/><path d="M229.62653,190.33333v-4.5h3.57081v4.5z" fill="url(#color-37)" stroke="none" stroke-width="0" stroke-linecap="butt"/><g fill="none" stroke-linecap="round"><path d="M213.51957,177.36466v6.8125" stroke="#b6b6b6" stroke-width="2.5"/><g><path d="M213.33861,185.05216v6.8125" stroke="#b6b6b6" stroke-width="3"/><path d="M213.8165,191.88451v-6.6875" stroke="#c2c2c2" stroke-width="2"/></g><path d="M213.99745,184.19701v-6.6875" stroke="#c2c2c2" stroke-width="1.5"/></g><g data-paper-data="{&quot;index&quot;:null}" fill="none" stroke-linecap="round"><path d="M266.48242,177.36466v6.8125" stroke="#b6b6b6" stroke-width="2.5"/><g><path d="M266.66337,191.86466v-6.8125" stroke="#b6b6b6" stroke-width="3"/><path d="M266.1855,185.19701v6.6875" stroke="#c2c2c2" stroke-width="2"/></g><path d="M266.00453,184.19701v-6.6875" stroke="#c2c2c2" stroke-width="1.5"/></g><g stroke="#000000" stroke-width="0" stroke-linecap="round"><path d="M242.59083,206.62111l-2.29298,14.93246l-2.69946,-14.93246z" fill="url(#color-38)"/><path d="M243.47461,207.56953l-3.12199,20.33121l-3.67542,-20.33121z" fill="url(#color-39)"/><path d="M241.53694,206.11822c0,0 2.26259,0.54702 2.18529,2.41626c-0.18474,4.46815 -3.78226,5.49149 -3.78226,5.49149c0,0 -3.03511,-0.90981 -3.10986,-5.49149c-0.03182,-1.95089 2.10125,-2.41626 2.10125,-2.41626z" fill="url(#color-40)"/><path d="M241.05046,206.36496c0,0 1.52956,0.3698 1.47732,1.63345c-0.12488,3.02057 -2.5569,3.71239 -2.5569,3.71239c0,0 -2.05181,-0.61506 -2.10235,-3.71239c-0.02151,-1.31885 1.4205,-1.63345 1.4205,-1.63345z" fill="url(#color-41)"/><path d="M241.61166,206.0069c0,0 2.54142,0.61444 2.45462,2.71404c-0.20748,5.01881 -4.24838,6.16828 -4.24838,6.16828c0,0 -3.40915,-1.02195 -3.49313,-6.16828c-0.03575,-2.19132 2.36022,-2.71404 2.36022,-2.71404z" fill="url(#color-42)"/><path d="M240.73205,205.93395c0,0 1.11226,0.26891 1.07427,1.18781c-0.09081,2.1965 -1.85932,2.69957 -1.85932,2.69957c0,0 -1.49204,-0.44726 -1.52878,-2.69957c-0.01565,-0.95904 1.03295,-1.18781 1.03295,-1.18781z" fill="url(#color-43)"/><path d="M243.07698,206.0069c0,0 1.11227,0.26892 1.07427,1.18781c-0.09081,2.1965 -1.85934,2.69957 -1.85934,2.69957c0,0 -1.49204,-0.44726 -1.52878,-2.69957c-0.01564,-0.95904 1.03297,-1.18781 1.03297,-1.18781z" fill="url(#color-44)"/><path d="M238.38714,206.0069c0,0 1.11227,0.26892 1.07427,1.18781c-0.09081,2.1965 -1.85934,2.69957 -1.85934,2.69957c0,0 -1.49204,-0.44726 -1.52878,-2.69957c-0.01564,-0.95904 1.03297,-1.18781 1.03297,-1.18781z" fill="url(#color-45)"/></g><g fill="#01878f" stroke="#d5d5d5" stroke-width="1" stroke-linecap="square"><g><path d="M227.89077,183.64475h-0.67919l-1.78161,-2.06928c-0.13854,-0.16281 -0.26948,-0.27485 -0.39282,-0.33613c-0.12334,-0.06302 -0.24245,-0.09454 -0.35733,-0.09454c-0.15544,0 -0.29397,0.03501 -0.41562,0.10504c-0.12334,0.06828 -0.22048,0.16369 -0.29145,0.28623c-0.07096,0.12255 -0.10644,0.2626 -0.10644,0.42016c0,0.16806 0.03717,0.31687 0.11151,0.44642c0.07434,0.12955 0.17317,0.23021 0.29651,0.30199c0.12334,0.07178 0.25681,0.10504 0.40042,0.09979v0.83244c-0.31256,0 -0.58458,-0.07178 -0.81604,-0.21533c-0.23147,-0.1453 -0.41056,-0.34488 -0.53727,-0.59872c-0.1284,-0.25384 -0.1926,-0.54796 -0.1926,-0.88233c0,-0.30987 0.06674,-0.58734 0.20021,-0.83244c0.13347,-0.24684 0.31763,-0.44029 0.55247,-0.58034c0.23484,-0.1418 0.50432,-0.2127 0.80844,-0.2127c0.22302,0 0.41056,0.03151 0.56261,0.09454c0.15037,0.06127 0.28976,0.15406 0.41816,0.27835c0.12672,0.1243 0.26779,0.27835 0.42323,0.46217l1.25701,1.47055l-0.19514,0.07353v-2.37914h0.73495z"/><path d="M227.94025,185.90966c0,0.33516 -0.06848,0.63099 -0.20547,0.88749c-0.13862,0.25479 -0.33171,0.45401 -0.57925,0.59765c-0.24754,0.14364 -0.53304,0.21546 -0.8565,0.21546h-1.47041c-0.32181,0 -0.60649,-0.07182 -0.85403,-0.21546c-0.24754,-0.14364 -0.44063,-0.34285 -0.57925,-0.59765c-0.13862,-0.2565 -0.20794,-0.55233 -0.20794,-0.88749c0,-0.33516 0.06931,-0.63013 0.20794,-0.88493c0.13862,-0.25479 0.33171,-0.45401 0.57925,-0.59765c0.24754,-0.14535 0.53222,-0.21803 0.85403,-0.21803h1.47041c0.32346,0 0.60896,0.07268 0.8565,0.21803c0.24754,0.14364 0.44063,0.34285 0.57925,0.59765c0.13697,0.25479 0.20547,0.54977 0.20547,0.88493zM227.21495,185.90966c0,-0.16758 -0.03796,-0.31892 -0.11387,-0.45401c-0.07756,-0.13509 -0.18153,-0.24197 -0.3119,-0.32063c-0.13037,-0.07866 -0.2756,-0.11799 -0.43568,-0.11799h-1.58181c-0.16173,0 -0.30778,0.03933 -0.43816,0.11799c-0.13037,0.07866 -0.23352,0.18554 -0.30943,0.32063c-0.07756,0.13509 -0.11635,0.28642 -0.11635,0.45401c0,0.16587 0.03878,0.3172 0.11635,0.45401c0.07591,0.13509 0.17906,0.24197 0.30943,0.32063c0.13037,0.07866 0.27642,0.11799 0.43816,0.11799h1.58181c0.16008,0 0.3053,-0.03933 0.43568,-0.11799c0.13037,-0.07866 0.23434,-0.18554 0.3119,-0.32063c0.07591,-0.1368 0.11387,-0.28814 0.11387,-0.45401z"/></g><g data-paper-data="{&quot;index&quot;:null}"><path d="M251.64825,180.31501h0.73495v2.37914l-0.19514,-0.07353l1.25701,-1.47055c0.15544,-0.18382 0.29651,-0.33787 0.42323,-0.46217c0.1284,-0.12429 0.26779,-0.21708 0.41816,-0.27835c0.15206,-0.06303 0.33959,-0.09454 0.56261,-0.09454c0.30412,0 0.5736,0.0709 0.80844,0.2127c0.23484,0.14005 0.419,0.3335 0.55247,0.58034c0.13347,0.2451 0.20021,0.52257 0.20021,0.83244c0,0.33437 -0.0642,0.62849 -0.1926,0.88233c-0.12672,0.25384 -0.30581,0.45342 -0.53727,0.59872c-0.23147,0.14355 -0.50348,0.21533 -0.81604,0.21533v-0.83244c0.14361,0.00525 0.27708,-0.02801 0.40042,-0.09979c0.12334,-0.07178 0.22217,-0.17244 0.29651,-0.30199c0.07434,-0.12955 0.11151,-0.27836 0.11151,-0.44642c0,-0.15756 -0.03548,-0.29761 -0.10644,-0.42016c-0.07096,-0.12254 -0.16811,-0.21795 -0.29145,-0.28623c-0.12165,-0.07003 -0.26019,-0.10504 -0.41562,-0.10504c-0.11488,0 -0.23399,0.03152 -0.35733,0.09454c-0.12334,0.06128 -0.25428,0.17332 -0.39282,0.33613l-1.78161,2.06928h-0.67919z"/><path d="M251.80422,185.02473c0.13862,-0.25479 0.33171,-0.45401 0.57925,-0.59765c0.24754,-0.14535 0.53304,-0.21803 0.8565,-0.21803h1.47041c0.32181,0 0.60649,0.07268 0.85403,0.21803c0.24754,0.14364 0.44063,0.34285 0.57925,0.59765c0.13862,0.25479 0.20794,0.54977 0.20794,0.88493c0,0.33516 -0.06931,0.63099 -0.20794,0.88749c-0.13862,0.25479 -0.33171,0.45401 -0.57925,0.59765c-0.24754,0.14364 -0.53222,0.21546 -0.85403,0.21546h-1.47041c-0.32346,0 -0.60896,-0.07182 -0.8565,-0.21546c-0.24754,-0.14364 -0.44063,-0.34285 -0.57925,-0.59765c-0.13697,-0.2565 -0.20547,-0.55233 -0.20547,-0.88749c0,-0.33516 0.06848,-0.63013 0.20547,-0.88493zM252.43794,186.36366c0.07756,0.13509 0.18153,0.24197 0.3119,0.32063c0.13037,0.07866 0.2756,0.11799 0.43568,0.11799h1.58181c0.16173,0 0.30778,-0.03933 0.43816,-0.11799c0.13037,-0.07866 0.23352,-0.18554 0.30943,-0.32063c0.07756,-0.1368 0.11635,-0.28814 0.11635,-0.45401c0,-0.16758 -0.03878,-0.31892 -0.11635,-0.45401c-0.07591,-0.13509 -0.17906,-0.24197 -0.30943,-0.32063c-0.13037,-0.07866 -0.27642,-0.11799 -0.43816,-0.11799h-1.58181c-0.16008,0 -0.3053,0.03933 -0.43568,0.11799c-0.13037,0.07866 -0.23434,0.18554 -0.3119,0.32063c-0.07591,0.13509 -0.11387,0.28642 -0.11387,0.45401c0,0.16587 0.03796,0.3172 0.11387,0.45401z"/></g></g><g stroke-width="0.25" stroke-linecap="square"><g><path d="M227.89077,183.64475h-0.67919l-1.78161,-2.06928c-0.13854,-0.16281 -0.26948,-0.27485 -0.39282,-0.33613c-0.12334,-0.06302 -0.24245,-0.09454 -0.35733,-0.09454c-0.15544,0 -0.29397,0.03501 -0.41562,0.10504c-0.12334,0.06828 -0.22048,0.16369 -0.29145,0.28623c-0.07096,0.12255 -0.10644,0.2626 -0.10644,0.42016c0,0.16806 0.03717,0.31687 0.11151,0.44642c0.07434,0.12955 0.17317,0.23021 0.29651,0.30199c0.12334,0.07178 0.25681,0.10504 0.40042,0.09979v0.83244c-0.31256,0 -0.58458,-0.07178 -0.81604,-0.21533c-0.23147,-0.1453 -0.41056,-0.34488 -0.53727,-0.59872c-0.1284,-0.25384 -0.1926,-0.54796 -0.1926,-0.88233c0,-0.30987 0.06674,-0.58734 0.20021,-0.83244c0.13347,-0.24684 0.31763,-0.44029 0.55247,-0.58034c0.23484,-0.1418 0.50432,-0.2127 0.80844,-0.2127c0.22302,0 0.41056,0.03151 0.56261,0.09454c0.15037,0.06127 0.28976,0.15406 0.41816,0.27835c0.12672,0.1243 0.26779,0.27835 0.42323,0.46217l1.25701,1.47055l-0.19514,0.07353v-2.37914h0.73495z" fill="url(#color-46)" stroke="url(#color-47)"/><path d="M227.94025,185.90966c0,0.33516 -0.06848,0.63099 -0.20547,0.88749c-0.13862,0.25479 -0.33171,0.45401 -0.57925,0.59765c-0.24754,0.14364 -0.53304,0.21546 -0.8565,0.21546h-1.47041c-0.32181,0 -0.60649,-0.07182 -0.85403,-0.21546c-0.24754,-0.14364 -0.44063,-0.34285 -0.57925,-0.59765c-0.13862,-0.2565 -0.20794,-0.55233 -0.20794,-0.88749c0,-0.33516 0.06931,-0.63013 0.20794,-0.88493c0.13862,-0.25479 0.33171,-0.45401 0.57925,-0.59765c0.24754,-0.14535 0.53222,-0.21803 0.85403,-0.21803h1.47041c0.32346,0 0.60896,0.07268 0.8565,0.21803c0.24754,0.14364 0.44063,0.34285 0.57925,0.59765c0.13697,0.25479 0.20547,0.54977 0.20547,0.88493zM227.21495,185.90966c0,-0.16758 -0.03796,-0.31892 -0.11387,-0.45401c-0.07756,-0.13509 -0.18153,-0.24197 -0.3119,-0.32063c-0.13037,-0.07866 -0.2756,-0.11799 -0.43568,-0.11799h-1.58181c-0.16173,0 -0.30778,0.03933 -0.43816,0.11799c-0.13037,0.07866 -0.23352,0.18554 -0.30943,0.32063c-0.07756,0.13509 -0.11635,0.28642 -0.11635,0.45401c0,0.16587 0.03878,0.3172 0.11635,0.45401c0.07591,0.13509 0.17906,0.24197 0.30943,0.32063c0.13037,0.07866 0.27642,0.11799 0.43816,0.11799h1.58181c0.16008,0 0.3053,-0.03933 0.43568,-0.11799c0.13037,-0.07866 0.23434,-0.18554 0.3119,-0.32063c0.07591,-0.1368 0.11387,-0.28814 0.11387,-0.45401z" fill="url(#color-48)" stroke="url(#color-49)"/></g><g data-paper-data="{&quot;index&quot;:null}"><path d="M251.64825,180.31501h0.73495v2.37914l-0.19514,-0.07353l1.25701,-1.47055c0.15544,-0.18382 0.29651,-0.33787 0.42323,-0.46217c0.1284,-0.12429 0.26779,-0.21708 0.41816,-0.27835c0.15206,-0.06303 0.33959,-0.09454 0.56261,-0.09454c0.30412,0 0.5736,0.0709 0.80844,0.2127c0.23484,0.14005 0.419,0.3335 0.55247,0.58034c0.13347,0.2451 0.20021,0.52257 0.20021,0.83244c0,0.33437 -0.0642,0.62849 -0.1926,0.88233c-0.12672,0.25384 -0.30581,0.45342 -0.53727,0.59872c-0.23147,0.14355 -0.50348,0.21533 -0.81604,0.21533v-0.83244c0.14361,0.00525 0.27708,-0.02801 0.40042,-0.09979c0.12334,-0.07178 0.22217,-0.17244 0.29651,-0.30199c0.07434,-0.12955 0.11151,-0.27836 0.11151,-0.44642c0,-0.15756 -0.03548,-0.29761 -0.10644,-0.42016c-0.07096,-0.12254 -0.16811,-0.21795 -0.29145,-0.28623c-0.12165,-0.07003 -0.26019,-0.10504 -0.41562,-0.10504c-0.11488,0 -0.23399,0.03152 -0.35733,0.09454c-0.12334,0.06128 -0.25428,0.17332 -0.39282,0.33613l-1.78161,2.06928h-0.67919z" fill="url(#color-50)" stroke="url(#color-51)"/><path d="M251.80422,185.02473c0.13862,-0.25479 0.33171,-0.45401 0.57925,-0.59765c0.24754,-0.14535 0.53304,-0.21803 0.8565,-0.21803h1.47041c0.32181,0 0.60649,0.07268 0.85403,0.21803c0.24754,0.14364 0.44063,0.34285 0.57925,0.59765c0.13862,0.25479 0.20794,0.54977 0.20794,0.88493c0,0.33516 -0.06931,0.63099 -0.20794,0.88749c-0.13862,0.25479 -0.33171,0.45401 -0.57925,0.59765c-0.24754,0.14364 -0.53222,0.21546 -0.85403,0.21546h-1.47041c-0.32346,0 -0.60896,-0.07182 -0.8565,-0.21546c-0.24754,-0.14364 -0.44063,-0.34285 -0.57925,-0.59765c-0.13697,-0.2565 -0.20547,-0.55233 -0.20547,-0.88749c0,-0.33516 0.06848,-0.63013 0.20547,-0.88493zM252.43794,186.36366c0.07756,0.13509 0.18153,0.24197 0.3119,0.32063c0.13037,0.07866 0.2756,0.11799 0.43568,0.11799h1.58181c0.16173,0 0.30778,-0.03933 0.43816,-0.11799c0.13037,-0.07866 0.23352,-0.18554 0.30943,-0.32063c0.07756,-0.1368 0.11635,-0.28814 0.11635,-0.45401c0,-0.16758 -0.03878,-0.31892 -0.11635,-0.45401c-0.07591,-0.13509 -0.17906,-0.24197 -0.30943,-0.32063c-0.13037,-0.07866 -0.27642,-0.11799 -0.43816,-0.11799h-1.58181c-0.16008,0 -0.3053,0.03933 -0.43568,0.11799c-0.13037,0.07866 -0.23434,0.18554 -0.3119,0.32063c-0.07591,0.13509 -0.11387,0.28642 -0.11387,0.45401c0,0.16587 0.03796,0.3172 0.11387,0.45401z" fill="url(#color-52)" stroke="url(#color-53)"/></g></g><path d="M212.39287,178.73809v-0.92857h2.41271v0.92857z" fill="#ff0000" stroke="none" stroke-width="0" stroke-linecap="butt"/><path d="M265.25793,178.73809v-0.92857h2.41271v0.92857z" fill="#ff0000" stroke="none" stroke-width="0" stroke-linecap="butt"/></g></g></svg>