<svg version="1.1" xmlns="http://www.w3.org/2000/svg" xmlns:xlink="http://www.w3.org/1999/xlink" width="268.86494" height="346.56624" viewBox="0,0,268.86494,346.56624"><defs><linearGradient x1="238.49536" y1="334.52949" x2="238.56962" y2="351.56497" gradientUnits="userSpaceOnUse" id="color-1"><stop offset="0" stop-color="#5f5f5f"/><stop offset="1" stop-color="#757575"/></linearGradient><linearGradient x1="310.61969" y1="233.77696" x2="310.62103" y2="256.15795" gradientUnits="userSpaceOnUse" id="color-2"><stop offset="0" stop-color="#000000"/><stop offset="1" stop-color="#000000" stop-opacity="0"/></linearGradient><linearGradient x1="174.26642" y1="234.1471" x2="169.76903" y2="256.07157" gradientUnits="userSpaceOnUse" id="color-3"><stop offset="0" stop-color="#000000"/><stop offset="1" stop-color="#000000" stop-opacity="0"/></linearGradient><linearGradient x1="330.90067" y1="220.74249" x2="183.93027" y2="319.94748" gradientUnits="userSpaceOnUse" id="color-4"><stop offset="0" stop-color="#42e6ff"/><stop offset="1" stop-color="#42e6ff" stop-opacity="0"/></linearGradient><linearGradient x1="180.48636" y1="244.19997" x2="289.64671" y2="317.88323" gradientUnits="userSpaceOnUse" id="color-5"><stop offset="0" stop-color="#42e6ff"/><stop offset="1" stop-color="#42e6ff" stop-opacity="0"/></linearGradient><linearGradient x1="284.4063" y1="141.09059" x2="227.40636" y2="141.09059" gradientUnits="userSpaceOnUse" id="color-6"><stop offset="0" stop-color="#6f7171"/><stop offset="1" stop-color="#6f7171" stop-opacity="0"/></linearGradient><linearGradient x1="196.08065" y1="141.09059" x2="253.08066" y2="141.09059" gradientUnits="userSpaceOnUse" id="color-7"><stop offset="0" stop-color="#6f7171"/><stop offset="1" stop-color="#6f7171" stop-opacity="0"/></linearGradient><linearGradient x1="248.15633" y1="99.35185" x2="248.15633" y2="111.59066" gradientUnits="userSpaceOnUse" id="color-8"><stop offset="0" stop-color="#b7baba" stop-opacity="0"/><stop offset="1" stop-color="#b7baba"/></linearGradient><linearGradient x1="233.32299" y1="99.35185" x2="233.32299" y2="111.59066" gradientUnits="userSpaceOnUse" id="color-9"><stop offset="0" stop-color="#b7baba" stop-opacity="0"/><stop offset="1" stop-color="#b7baba"/></linearGradient><linearGradient x1="267.9063" y1="101.25732" x2="210.90636" y2="101.25732" gradientUnits="userSpaceOnUse" id="color-10"><stop offset="0" stop-color="#4c4d4d"/><stop offset="1" stop-color="#4c4d4d" stop-opacity="0"/></linearGradient><linearGradient x1="212.90636" y1="101.25732" x2="269.9063" y2="101.25732" gradientUnits="userSpaceOnUse" id="color-11"><stop offset="0" stop-color="#4c4d4d"/><stop offset="1" stop-color="#4c4d4d" stop-opacity="0"/></linearGradient><linearGradient x1="243.98968" y1="57.37054" x2="261.6563" y2="57.37054" gradientUnits="userSpaceOnUse" id="color-12"><stop offset="0" stop-color="#788382"/><stop offset="1" stop-color="#788382" stop-opacity="0"/></linearGradient><linearGradient x1="237.98968" y1="57.37054" x2="220.32301" y2="57.37054" gradientUnits="userSpaceOnUse" id="color-13"><stop offset="0" stop-color="#788382"/><stop offset="1" stop-color="#788382" stop-opacity="0"/></linearGradient><linearGradient x1="242.90633" y1="39.00941" x2="258.9063" y2="39.00941" gradientUnits="userSpaceOnUse" id="color-14"><stop offset="0" stop-color="#d6dbdb"/><stop offset="1" stop-color="#d6dbdb" stop-opacity="0"/></linearGradient><linearGradient x1="238.73968" y1="39.00941" x2="222.73967" y2="39.00941" gradientUnits="userSpaceOnUse" id="color-15"><stop offset="0" stop-color="#d6dbdb"/><stop offset="1" stop-color="#d6dbdb" stop-opacity="0"/></linearGradient><linearGradient x1="247.40633" y1="241.7573" x2="304.4063" y2="241.7573" gradientUnits="userSpaceOnUse" id="color-16"><stop offset="0" stop-color="#6f7171"/><stop offset="1" stop-color="#6f7171" stop-opacity="0"/></linearGradient><linearGradient x1="230.40636" y1="241.7573" x2="173.40636" y2="241.7573" gradientUnits="userSpaceOnUse" id="color-17"><stop offset="0" stop-color="#6f7171"/><stop offset="1" stop-color="#6f7171" stop-opacity="0"/></linearGradient><linearGradient x1="240.53392" y1="45.80128" x2="240.51852" y2="60.19906" gradientUnits="userSpaceOnUse" id="color-18"><stop offset="0" stop-color="#939f9f"/><stop offset="1" stop-color="#939f9f" stop-opacity="0"/></linearGradient><radialGradient cx="284.10456" cy="285.63944" r="8.11129" gradientUnits="userSpaceOnUse" id="color-19"><stop offset="0" stop-color="#a1f2ff"/><stop offset="1" stop-color="#a1f2ff" stop-opacity="0"/></radialGradient><radialGradient cx="280.84317" cy="290.11454" r="8.1113" gradientUnits="userSpaceOnUse" id="color-20"><stop offset="0" stop-color="#a1f2ff"/><stop offset="1" stop-color="#a1f2ff" stop-opacity="0"/></radialGradient><radialGradient cx="269.74406" cy="304.9619" r="8.11129" gradientUnits="userSpaceOnUse" id="color-21"><stop offset="0" stop-color="#a1f2ff"/><stop offset="1" stop-color="#a1f2ff" stop-opacity="0"/></radialGradient><radialGradient cx="277.35096" cy="294.69667" r="8.1113" gradientUnits="userSpaceOnUse" id="color-22"><stop offset="0" stop-color="#a1f2ff"/><stop offset="1" stop-color="#a1f2ff" stop-opacity="0"/></radialGradient><radialGradient cx="266.76206" cy="308.92519" r="8.11129" gradientUnits="userSpaceOnUse" id="color-23"><stop offset="0" stop-color="#a1f2ff"/><stop offset="1" stop-color="#a1f2ff" stop-opacity="0"/></radialGradient><radialGradient cx="273.77075" cy="299.55857" r="8.1113" gradientUnits="userSpaceOnUse" id="color-24"><stop offset="0" stop-color="#a1f2ff"/><stop offset="1" stop-color="#a1f2ff" stop-opacity="0"/></radialGradient><radialGradient cx="260.71658" cy="317.98901" r="8.11129" gradientUnits="userSpaceOnUse" id="color-25"><stop offset="0" stop-color="#a1f2ff"/><stop offset="1" stop-color="#a1f2ff" stop-opacity="0"/></radialGradient><radialGradient cx="264.30557" cy="312.59711" r="8.11129" gradientUnits="userSpaceOnUse" id="color-26"><stop offset="0" stop-color="#a1f2ff"/><stop offset="1" stop-color="#a1f2ff" stop-opacity="0"/></radialGradient><radialGradient cx="193.358" cy="286.8839" r="8.11129" gradientUnits="userSpaceOnUse" id="color-27"><stop offset="0" stop-color="#a1f2ff"/><stop offset="1" stop-color="#a1f2ff" stop-opacity="0"/></radialGradient><radialGradient cx="196.60652" cy="291.36422" r="8.1113" gradientUnits="userSpaceOnUse" id="color-28"><stop offset="0" stop-color="#a1f2ff"/><stop offset="1" stop-color="#a1f2ff" stop-opacity="0"/></radialGradient><radialGradient cx="207.66318" cy="306.22936" r="8.11128" gradientUnits="userSpaceOnUse" id="color-29"><stop offset="0" stop-color="#a1f2ff"/><stop offset="1" stop-color="#a1f2ff" stop-opacity="0"/></radialGradient><radialGradient cx="200.08567" cy="295.95186" r="8.1113" gradientUnits="userSpaceOnUse" id="color-30"><stop offset="0" stop-color="#a1f2ff"/><stop offset="1" stop-color="#a1f2ff" stop-opacity="0"/></radialGradient><radialGradient cx="210.63389" cy="310.19739" r="8.11129" gradientUnits="userSpaceOnUse" id="color-31"><stop offset="0" stop-color="#a1f2ff"/><stop offset="1" stop-color="#a1f2ff" stop-opacity="0"/></radialGradient><radialGradient cx="203.65197" cy="300.81951" r="8.1113" gradientUnits="userSpaceOnUse" id="color-32"><stop offset="0" stop-color="#a1f2ff"/><stop offset="1" stop-color="#a1f2ff" stop-opacity="0"/></radialGradient><radialGradient cx="216.65348" cy="319.27088" r="8.1113" gradientUnits="userSpaceOnUse" id="color-33"><stop offset="0" stop-color="#a1f2ff"/><stop offset="1" stop-color="#a1f2ff" stop-opacity="0"/></radialGradient><radialGradient cx="213.07984" cy="313.87323" r="8.11129" gradientUnits="userSpaceOnUse" id="color-34"><stop offset="0" stop-color="#a1f2ff"/><stop offset="1" stop-color="#a1f2ff" stop-opacity="0"/></radialGradient><linearGradient x1="240.90633" y1="32.19277" x2="240.90633" y2="64.99279" gradientUnits="userSpaceOnUse" id="color-35"><stop offset="0" stop-color="#7c8685"/><stop offset="1" stop-color="#7c8685" stop-opacity="0"/></linearGradient><linearGradient x1="239.40633" y1="246.0073" x2="239.40633" y2="295.67393" gradientUnits="userSpaceOnUse" id="color-36"><stop offset="0" stop-color="#d6dfdf"/><stop offset="1" stop-color="#f7fbfb"/></linearGradient><radialGradient cx="239.40633" cy="237.09064" r="37.49999" gradientUnits="userSpaceOnUse" id="color-37"><stop offset="0" stop-color="#5b5d5d"/><stop offset="1" stop-color="#5b5d5d" stop-opacity="0"/></radialGradient><radialGradient cx="239.40633" cy="213.09064" r="37.49999" gradientUnits="userSpaceOnUse" id="color-38"><stop offset="0" stop-color="#5b5d5d"/><stop offset="1" stop-color="#5b5d5d" stop-opacity="0"/></radialGradient><linearGradient x1="241.73968" y1="223.83573" x2="241.73968" y2="147.09059" gradientUnits="userSpaceOnUse" id="color-39"><stop offset="0" stop-color="#000000"/><stop offset="1" stop-color="#000000" stop-opacity="0"/></linearGradient><radialGradient cx="243.09771" cy="271.82356" r="7.96473" gradientUnits="userSpaceOnUse" id="color-40"><stop offset="0" stop-color="#87e2ff"/><stop offset="1" stop-color="#00c1ff"/></radialGradient><radialGradient cx="217.9817" cy="271.82356" r="7.96473" gradientUnits="userSpaceOnUse" id="color-41"><stop offset="0" stop-color="#87e2ff"/><stop offset="1" stop-color="#00c1ff"/></radialGradient><linearGradient x1="230.53972" y1="262.49341" x2="230.53972" y2="288.56005" gradientUnits="userSpaceOnUse" id="color-42"><stop offset="0" stop-color="#f7fbfb"/><stop offset="1" stop-color="#cce5e8"/></linearGradient><radialGradient cx="230.53967" cy="274.32677" r="11.83336" gradientUnits="userSpaceOnUse" id="color-43"><stop offset="0" stop-color="#000000" stop-opacity="0"/><stop offset="1" stop-color="#000000" stop-opacity="0"/></radialGradient><radialGradient cx="260.2976" cy="271.82356" r="7.96473" gradientUnits="userSpaceOnUse" id="color-44"><stop offset="0" stop-color="#87e2ff"/><stop offset="1" stop-color="#00c1ff"/></radialGradient><radialGradient cx="235.18171" cy="271.82356" r="7.96473" gradientUnits="userSpaceOnUse" id="color-45"><stop offset="0" stop-color="#87e2ff"/><stop offset="1" stop-color="#00c1ff"/></radialGradient><linearGradient x1="247.7397" y1="262.49341" x2="247.7397" y2="288.56005" gradientUnits="userSpaceOnUse" id="color-46"><stop offset="0" stop-color="#f7fbfb"/><stop offset="1" stop-color="#cce5e8"/></linearGradient><radialGradient cx="247.73966" cy="274.32677" r="11.83336" gradientUnits="userSpaceOnUse" id="color-47"><stop offset="0" stop-color="#000000" stop-opacity="0"/><stop offset="1" stop-color="#000000" stop-opacity="0"/></radialGradient><linearGradient x1="238.78136" y1="262.54204" x2="238.78136" y2="288.74203" gradientUnits="userSpaceOnUse" id="color-48"><stop offset="0" stop-color="#f7fbfb"/><stop offset="1" stop-color="#cce5e8"/></linearGradient><linearGradient x1="183.73426" y1="101.53723" x2="192.06757" y2="101.53723" gradientUnits="userSpaceOnUse" id="color-49"><stop offset="0" stop-color="#97a4a3"/><stop offset="1" stop-color="#97a4a3" stop-opacity="0"/></linearGradient><linearGradient x1="297.40085" y1="101.53723" x2="289.06758" y2="101.53723" gradientUnits="userSpaceOnUse" id="color-50"><stop offset="0" stop-color="#97a4a3"/><stop offset="1" stop-color="#97a4a3" stop-opacity="0"/></linearGradient></defs><g transform="translate(-107.06758,-3.09277)"><g data-paper-data="{&quot;isPaintingLayer&quot;:true}" fill-rule="nonzero" stroke-linejoin="miter" stroke-miterlimit="10" stroke-dasharray="" stroke-dashoffset="0" style="mix-blend-mode: normal"><g><g><g><g><g stroke="none" stroke-width="0" stroke-linecap="butt"><path d="M217.87075,310.61445l41.03999,-0.17886c0,0 0.42847,13.88282 0.3332,21.93765c-0.01689,1.42803 -0.8251,2.86659 -0.82102,3.80361c0.01543,3.53961 0.6363,8.32968 0.6363,8.32968l-41.03996,0.17886c0,0 -1.61734,-3.97891 -1.631,-7.111c-0.00817,-1.87543 1.52887,-4.74696 1.7226,-8.37857c0.43624,-8.17774 -0.24012,-18.58137 -0.24012,-18.58137z" fill="#818181"/><path d="M238.53981,349.5652c-1.80305,0.00786 -4.74929,-1.03411 -6.40832,-1.13091c-8.37512,-0.48865 -13.32757,-1.37457 -13.34469,-5.30098c-0.02051,-4.70421 8.84797,-5.5566 19.75319,-5.60414c10.90522,-0.04753 19.71761,0.72781 19.73812,5.43202c0.01146,2.62845 -0.94753,5.16654 -5.28687,6.19694c-3.4269,0.81374 -9.63943,0.38611 -14.45142,0.40708z" fill="url(#color-1)"/><path d="M238.42784,319.04273c-10.90522,0.04753 -19.76228,-3.72747 -19.7828,-8.43168c-0.02051,-4.70421 8.80331,-8.55626 19.70853,-8.60379c10.90522,-0.04753 19.76227,3.72747 19.78278,8.43168c0.02051,4.70421 -8.8033,8.55626 -19.70852,8.60379z" fill="#818181"/></g><path d="M222.94489,334.79087l-0.10462,-24.00451" fill="none" stroke="#727272" stroke-width="3" stroke-linecap="round"/><path d="M230.1813,307.26978l0.10463,24.00451" fill="none" stroke="#727272" stroke-width="4" stroke-linecap="round"/><path d="M239.08114,306.06947l0.10463,24.00452" fill="none" stroke="#727272" stroke-width="4" stroke-linecap="round"/><path d="M254.30565,334.65419l-0.10464,-24.00452" fill="none" stroke="#727272" stroke-width="3" stroke-linecap="round"/><path d="M246.83295,307.97157l0.10462,24.00452" fill="none" stroke="#727272" stroke-width="4" stroke-linecap="round"/></g><path d="M245.05431,344.90971c-0.2117,2.49102 -2.70273,2.27932 -2.70273,2.27932l-2.50344,-0.21275c-2.59534,-0.22353 -5.02343,-0.51352 -7.6153,-0.62646c-1.23669,-0.05388 -2.63535,0.30881 -3.69946,-0.32362c-0.17245,-0.10249 -0.33891,-0.21259 -0.50026,-0.32923l-0.04761,0.07734l-2.7399,-1.6868c-0.72234,-0.42904 -1.2115,-1.2121 -1.22493,-2.11375c-0.01851,-1.24292 0.87328,-2.28746 2.05872,-2.49839l2.69949,-0.53246c0,0 2.45274,-0.48377 2.93652,1.96898c0.01516,0.07687 0.02745,0.1518 0.037,0.22485c2.70066,-0.35089 6.18085,0.66174 8.51915,0.85752l2.50344,0.21276c0,0 2.49102,0.2117 2.27932,2.70272z" fill="#5f5f5f" stroke="none" stroke-width="0.5" stroke-linecap="butt"/><path d="M256.41172,343.03223c-0.75518,2.38322 -3.13839,1.62804 -3.13839,1.62804l-1.26105,-0.61163c-0.99865,0.09821 -1.9973,0.19642 -2.99595,0.29463c0,0 -2.488,0.24468 -2.73268,-2.24331c-0.24469,-2.488 2.24331,-2.73268 2.24331,-2.73268c0.99865,-0.09821 1.9973,-0.19642 2.99595,-0.29463l3.26078,0.82121c0,0 2.38322,0.75516 1.62804,3.13838z" fill="#5f5f5f" stroke="none" stroke-width="0.5" stroke-linecap="butt"/></g><path d="M249.82665,345.7739c0,0.75 -0.75,0.75 -0.75,0.75l0.06621,-0.04884c-1.12368,0.42629 -2.20919,0.91184 -3.2939,1.42877c-1.65057,0.02413 -3.06934,0.16385 -4.54776,-0.68067c-1.24705,-0.71235 -2.54558,-2.2419 -3.96639,-2.5128c-1.44716,-0.27592 -2.37704,1.13154 -4,0.8c-2.13424,-0.43599 -4.75342,-1.63749 -6.85817,-1.58647c0,0 -0.75,0 -0.75,-0.75c0,-0.75 0.75,-0.75 0.75,-0.75c2.24569,0.03843 4.91311,1.0638 7.14183,1.61353c1.49437,0.3686 2.29455,-1.05979 4,-0.8c1.63258,0.24869 3.04435,1.87325 4.43361,2.6872c1.10767,0.64897 2.20963,0.49507 3.45224,0.51933c1.00502,-0.53674 2.04213,-0.96695 3.1061,-1.37123l0.46621,-0.04884c0,0 0.75,0 0.75,0.75z" fill="#4a4a4a" stroke="none" stroke-width="0.5" stroke-linecap="butt"/><path d="M253.60698,345.70423c-0.53033,0.53033 -1.06066,0 -1.06066,0l0.14843,-0.00272c-2.86245,-0.82433 -4.30367,-4.50956 -7.57591,-4.93086c-1.26651,-0.16306 -2.6802,0.5351 -3.91889,0.74305c0,0 -0.7398,0.1233 -0.86309,-0.6165c-0.1233,-0.7398 0.6165,-0.86309 0.6165,-0.86309c2.41076,-0.39863 4.53597,-1.29239 6.87613,0.07797c1.66327,0.97399 3.49594,3.81612 5.22907,4.13422l0.54843,0.39728c0,0 0.53033,0.53033 0,1.06066z" fill="#4a4a4a" stroke="none" stroke-width="0.5" stroke-linecap="butt"/><path d="M242.89427,335.20024c-0.1819,0.72761 -0.90951,0.54571 -0.90951,0.54571l-0.52333,-0.13327l-0.25858,0.05831c-1.88056,1.99233 -4.72341,3.33073 -7.51135,2.75048c-0.8787,-0.18288 -1.6187,-0.8301 -2.5,-1c-2.6719,-0.51511 -5.92963,0.14268 -8.54442,0.66563c0,0 -0.73544,0.14709 -0.88252,-0.58835c-0.14709,-0.73544 0.58835,-0.88252 0.58835,-0.88252c2.8043,-0.56086 6.25504,-1.21939 9.12225,-0.6677c0.88136,0.16959 1.62214,0.81314 2.5,1c2.00981,0.42781 3.81197,-0.39153 5.35272,-1.5939c-1.71774,-0.18789 -3.30692,-0.70641 -5.06505,-1.29145c0,0 -0.71151,-0.23717 -0.47434,-0.94868c0.23717,-0.71151 0.94868,-0.47434 0.94868,-0.47434c2.17842,0.72745 3.98324,1.29177 6.1878,1.30047l0.5857,0.14404l0.4741,-0.12727c0,0 0.72761,-0.1819 0.90951,0.54571c0.03348,0.13392 0.03615,0.24935 0.01822,0.34857c0.01793,0.09922 0.01526,0.21465 -0.01822,0.34857z" fill="#787878" stroke="none" stroke-width="0.5" stroke-linecap="butt"/></g><path d="M250.17082,336.35375c-0.33541,0.67082 -1.00623,0.33541 -1.00623,0.33541l-0.55431,-0.28809c-1.18476,-0.37015 -2.01335,-0.77462 -3.20644,-0.33788c0,0 -0.71151,0.23717 -0.94868,-0.47434c-0.23717,-0.71151 0.47434,-0.94868 0.47434,-0.94868c1.55445,-0.48357 2.59957,-0.14565 4.12689,0.32878l0.77902,0.37858c0,0 0.67082,0.33541 0.33541,1.00623z" fill="#787878" stroke="none" stroke-width="0.5" stroke-linecap="butt"/></g><g><g><path d="M316.9666,259.74798c0,0 -0.80024,-3.8783 -0.80039,-6.37411c-0.00022,-3.55215 0.79919,-12.3116 0.79919,-12.3116" fill="none" stroke="#f7fbfb" stroke-width="5.5" stroke-linecap="round"/><path d="M310.46538,241.06267c0,0 1.00064,9.7563 1.00086,13.31119c0.00013,2.20961 -0.99967,4.37453 -0.99967,4.37453" fill="none" stroke="#f7fbfb" stroke-width="5.5" stroke-linecap="round"/><path d="M303.9666,260.34879c0,0 -0.8002,-3.16519 -0.80033,-5.3749c-0.00022,-3.5549 0.79914,-13.91082 0.79914,-13.91082" fill="none" stroke="#f7fbfb" stroke-width="5.5" stroke-linecap="round"/><path d="M302.46218,241.98854l2.7273,-0.00017l0.0007,11.25l-2.7273,0.00017z" fill="#00ddff" stroke="none" stroke-width="0" stroke-linecap="butt"/><path d="M316.09856,241.98768l2.72722,-0.00017l0.0007,11.25l-2.72722,0.00017z" fill="#00ddff" stroke="none" stroke-width="0" stroke-linecap="butt"/><path d="M317.86803,262.07552c-1.39328,0.00009 -2.52274,-0.66419 -2.52279,-1.48379c-0.00005,-0.81952 1.12934,-1.48409 2.52261,-1.48417c1.39328,-0.00009 2.52281,0.66426 2.52286,1.48386c0.00005,0.81952 -1.12941,1.48402 -2.52268,1.4841z" fill="#797c7c" stroke="none" stroke-width="0" stroke-linecap="butt"/><path d="M310.66796,261.37592c-1.39328,0.00009 -2.52283,-0.66419 -2.52287,-1.48379c-0.00005,-0.81952 1.12941,-1.48409 2.52269,-1.48417c1.39328,-0.00009 2.52281,0.66426 2.52285,1.48386c0.00005,0.81952 -1.12941,1.48402 -2.52267,1.4841z" fill="#797c7c" stroke="none" stroke-width="0" stroke-linecap="butt"/><path d="M303.91796,262.77634c-1.39328,0.00009 -2.52283,-0.6642 -2.52287,-1.4838c-0.00005,-0.81952 1.12941,-1.48409 2.52269,-1.48417c1.39328,-0.00009 2.52281,0.66426 2.52285,1.48387c0.00005,0.81952 -1.12941,1.48402 -2.52267,1.4841z" fill="#797c7c" stroke="none" stroke-width="0" stroke-linecap="butt"/><path d="M300.44114,246.27759l20.3571,-0.00126l0.00138,9.88095l-20.3571,0.00126z" fill="url(#color-2)" stroke="none" stroke-width="NaN" stroke-linecap="butt"/></g><path d="M305.07169,257.77933c0.26289,0.15736 0.43201,0.24931 0.1924,-0.03127zM304.41139,257.43018c-0.00734,-0.03719 -0.01137,-0.07806 -0.01137,-0.12295c0,-0.5 0.5,-0.5 0.5,-0.5l0.83593,0.05916c1.79681,2.81625 -2.16097,1.33797 -3.87782,1.91518c0,0 -0.47434,0.15811 -0.63246,-0.31623c-0.15811,-0.47434 0.31623,-0.63246 0.31623,-0.63246c0.89217,-0.29513 1.86246,-0.52145 2.81293,-0.41462c0.01701,0.00191 0.03596,0.00598 0.05656,0.01191z" fill="#dee3e3" stroke="none" stroke-width="0.5" stroke-linecap="butt"/><path d="M312.94723,255.88362c0.22361,0.44721 -0.22361,0.67082 -0.22361,0.67082l-0.50234,0.23786c-0.75841,0.1862 -1.44765,0.20799 -2.2,0.4c0,0 -0.48507,0.12127 -0.60634,-0.3638c-0.12127,-0.48507 0.3638,-0.60634 0.3638,-0.60634c0.75841,-0.1862 1.44765,-0.20799 2.2,-0.4l0.29766,-0.16214c0,0 0.44721,-0.22361 0.67082,0.22361z" fill="#dee3e3" stroke="none" stroke-width="0.5" stroke-linecap="butt"/><path d="M318.10002,258.40723c-0.3109,0 -0.42848,-0.19331 -0.47295,-0.33954c-1.47036,-0.57922 -1.62613,-1.39541 -1.21212,-3.08173c0,0 0.12127,-0.48507 0.60634,-0.3638c0.48507,0.12127 0.3638,0.60634 0.3638,0.60634c-0.35193,1.37894 -0.37021,1.58997 0.87304,2.00439l0.34189,0.67434c0,0 0,0.5 -0.5,0.5z" fill="#dee3e3" stroke="none" stroke-width="0.5" stroke-linecap="butt"/></g><g><g><path d="M175.26349,260.86382c0,0 -0.00435,-3.96 0.49717,-6.4049c0.71378,-3.4797 3.25757,-11.89969 3.25757,-11.89969" fill="none" stroke="#f7fbfb" stroke-width="5.5" stroke-linecap="round"/><path d="M172.6508,241.25309c0,0 -0.98085,9.75831 -1.69518,13.24069c-0.44401,2.16454 -1.85857,4.08431 -1.85857,4.08431" fill="none" stroke="#f7fbfb" stroke-width="5.5" stroke-linecap="round"/><path d="M162.40803,258.83931c0,0 -0.14765,-3.26143 0.29638,-5.42607c0.71434,-3.48239 3.57897,-13.46627 3.57897,-13.46627" fill="none" stroke="#f7fbfb" stroke-width="5.5" stroke-linecap="round"/><path d="M164.62482,240.55139l2.67167,0.54803l-2.26061,11.02053l-2.67167,-0.54803z" fill="#00ddff" stroke="none" stroke-width="0" stroke-linecap="butt"/><path d="M177.98305,243.29152l2.67159,0.54802l-2.26061,11.02053l-2.67159,-0.54802z" fill="#00ddff" stroke="none" stroke-width="0" stroke-linecap="butt"/><path d="M175.67869,263.32505c-1.36486,-0.27997 -2.33775,-1.15772 -2.17305,-1.9606c0.16468,-0.8028 1.4046,-1.2268 2.76945,-0.94682c1.36486,0.27997 2.3378,1.1578 2.17311,1.96068c-0.16468,0.8028 -1.40465,1.22672 -2.7695,0.94674z" fill="#797c7c" stroke="none" stroke-width="0" stroke-linecap="butt"/><path d="M168.76617,261.19248c-1.36486,-0.27997 -2.33783,-1.15773 -2.17313,-1.96061c0.16468,-0.8028 1.40467,-1.22678 2.76953,-0.94681c1.36486,0.27997 2.3378,1.1578 2.1731,1.96068c-0.16468,0.8028 -1.40465,1.22672 -2.76949,0.94674z" fill="#797c7c" stroke="none" stroke-width="0" stroke-linecap="butt"/><path d="M161.87246,261.20754c-1.36486,-0.27997 -2.33783,-1.15774 -2.17313,-1.96062c0.16468,-0.8028 1.40467,-1.22678 2.76953,-0.94681c1.36486,0.27997 2.3378,1.1578 2.17309,1.96069c-0.16468,0.8028 -1.40465,1.22672 -2.76949,0.94674z" fill="#797c7c" stroke="none" stroke-width="0" stroke-linecap="butt"/><path d="M161.78287,244.34666l19.94187,4.09063l-1.98476,9.67956l-19.94187,-4.09063z" fill="url(#color-3)" stroke="none" stroke-width="NaN" stroke-linecap="butt"/></g><path d="M164.00705,256.54442c0.2259,0.20699 0.37308,0.33105 0.19476,0.00805zM163.43041,256.06968c0.00029,-0.03791 0.00455,-0.07875 0.01358,-0.12273c0.1005,-0.4898 0.5903,-0.38929 0.5903,-0.38929l0.80698,0.22598c1.19406,3.11994 -2.3858,0.8763 -4.18363,1.09663c0,0 -0.49644,0.05954 -0.55598,-0.4369c-0.05954,-0.49644 0.4369,-0.55598 0.4369,-0.55598c0.93328,-0.10978 1.92927,-0.13645 2.83886,0.15926c0.01628,0.00529 0.03403,0.01309 0.05301,0.02304z" fill="#dee3e3" stroke="none" stroke-width="0.5" stroke-linecap="butt"/><path d="M172.10293,256.27042c0.12915,0.48303 -0.35388,0.61218 -0.35388,0.61218l-0.5399,0.13203c-0.78036,0.02995 -1.45991,-0.08724 -2.2355,-0.05037c0,0 -0.49955,0.02129 -0.52084,-0.47826c-0.02129,-0.49955 0.47826,-0.52084 0.47826,-0.52084c0.78036,-0.02995 1.45991,0.08724 2.2355,0.05037l0.32418,-0.099c0,0 0.48303,-0.12915 0.61218,0.35388z" fill="#dee3e3" stroke="none" stroke-width="0.5" stroke-linecap="butt"/><path d="M176.64328,259.77826c-0.30455,-0.06249 -0.38088,-0.27549 -0.39505,-0.42767c-1.32392,-0.86295 -1.31246,-1.69379 -0.56794,-3.26248c0,0 0.21629,-0.4508 0.66709,-0.2345c0.4508,0.21629 0.2345,0.66709 0.2345,0.66709c-0.62192,1.28006 -0.68224,1.48311 0.45233,2.13897l0.19936,0.7293c0,0 -0.1005,0.4898 -0.5903,0.38929z" fill="#dee3e3" stroke="none" stroke-width="0.5" stroke-linecap="butt"/></g><path d="M194.66154,193.36372c0,0 -5.77124,-0.3696 -10.23231,-2.26016c-6.57427,-2.78612 -25.39413,-12.83803 -25.39413,-12.83803" data-paper-data="{&quot;index&quot;:null}" fill="none" stroke="#6c6c6c" stroke-width="7.5" stroke-linecap="round"/><path d="M284.53507,193.36371c0,0 7.819,-4.44931 13.13635,-6.70276c6.36775,-2.6986 22.49009,-8.39543 22.49009,-8.39543" fill="none" stroke="#6c6c6c" stroke-width="7.5" stroke-linecap="round"/><path d="M165.73237,292.98775l23.77462,-16.04787l36.39565,53.91948l-23.77462,16.04787z" fill="url(#color-4)" stroke="none" stroke-width="0" stroke-linecap="butt"/><path d="M276.13053,337.90723l-17.6583,-11.91935l27.0324,-40.048l17.6583,11.91935z" fill="url(#color-5)" stroke="none" stroke-width="0" stroke-linecap="butt"/><path d="M188.15931,140.03999l30.02329,36.55012h-13.70629c0,0 -5.18354,-19.08663 -6.45133,-23.69674c-0.61866,-2.24965 -9.86567,-12.85337 -9.86567,-12.85337z" fill="#878787" stroke="#878787" stroke-width="3" stroke-linecap="round"/><path d="M154.39736,168.68355c4.12727,-0.10726 7.30884,2.81433 7.47607,6.99011c0.16734,4.17576 -2.97138,7.23729 -6.90199,7.33946c-2.36309,0.06143 -4.02116,-1.46861 -5.40274,-3.20192c-0.91644,-1.14976 -1.99122,-2.10897 -2.05754,-3.76433c-0.16631,-4.15089 2.75894,-7.25606 6.88621,-7.36331z" fill="#878787" stroke="none" stroke-width="0" stroke-linecap="butt"/><path d="M154.64742,223.06327c-5.19368,0 -12.14086,-2.84548 -16.74212,-4.40632c-10.09144,-3.42322 -16.51895,-8.28736 -22.23375,-17.21964c-4.65529,-7.27626 -4.85396,-17.42489 -4.85396,-26.70383c0,-16.73332 7.27643,-29.4168 20.47726,-37.69842c7.20267,-4.51864 14.2225,-7.63142 23.35258,-7.63142c8.05832,0 14.64126,6.03537 21.26277,9.62006c7.10228,3.84497 13.74495,8.59024 17.67142,15.52162c4.16189,7.34695 7.89561,12.52651 7.89561,21.68815c0,25.86339 -20.96641,46.8298 -46.8298,46.8298z" fill="none" stroke="#878787" stroke-width="7.5" stroke-linecap="butt"/><path d="M281.97515,152.89333c-1.26779,4.61011 -6.45133,23.69674 -6.45133,23.69674h-13.70629l30.0233,-36.55012c0,0 -9.24701,10.60372 -9.86567,12.85337z" fill="#878787" stroke="#878787" stroke-width="3" stroke-linecap="round"/><path d="M325.60276,168.68355c2.61707,0.06802 3.25085,1.3414 4.41958,3.32246c0.67442,1.14318 2.52749,2.52202 2.46663,4.04086c-0.16629,4.15089 -3.52967,7.06843 -7.46028,6.96626c-3.93061,-0.10217 -7.06934,-3.1637 -6.90199,-7.33946c0.16724,-4.17578 3.3488,-7.09737 7.47607,-6.99011z" fill="#878787" stroke="none" stroke-width="0" stroke-linecap="butt"/><path d="M278.52288,176.23347c0,-13.93077 5.352,-28.18444 15.44323,-36.61707c4.00072,-3.34316 10.01058,-4.08575 14.80444,-6.09416c5.56354,-2.33086 10.17245,-4.1186 16.58213,-4.1186c9.38046,0 21.11674,1.25805 28.44217,6.00745c7.60804,4.93264 9.64622,12.53729 12.49454,21.33559c1.97071,6.0874 5.89313,12.74621 5.89313,19.48679c0,13.97864 -8.62468,25.02678 -18.33693,33.60732c-4.00724,3.5403 -10.03646,3.75843 -14.48088,6.13332c-4.71387,2.51887 -7.89481,7.08916 -14.01202,7.08916c-25.8634,0 -46.8298,-20.96641 -46.8298,-46.8298z" fill="none" stroke="#878787" stroke-width="7.5" stroke-linecap="butt"/><g stroke-width="0"><path d="M239.01181,156.97687l-14.87502,-1.02014c0,0 -5.40592,-5.06777 -8.92989,-7.16796c-4.01114,-2.39054 -13.86524,-6.41736 -13.86524,-6.41736c0,0 -1.78328,-4.68681 -1.93228,-7.15205c-0.15951,-2.63916 1.00459,-8.19675 1.00459,-8.19675c0,0 10.24233,0.63375 16.21305,0.55657c8.90204,-0.11508 32.01176,-1.17999 32.01176,-1.17999z" fill="#f7fbfb" stroke="#8f8f8f" stroke-linecap="round"/><path d="M242.23968,145.71559h-18.08333l-15,-10.25h30.33333z" data-paper-data="{&quot;index&quot;:null}" fill="#e5e9e9" stroke="none" stroke-linecap="butt"/><path d="M227.40636,155.75728v-29.33333h22.33333v29.33333z" data-paper-data="{&quot;index&quot;:null}" fill="url(#color-6)" stroke="none" stroke-linecap="butt"/></g><g data-paper-data="{&quot;index&quot;:null}" stroke-width="0"><path d="M231.84819,126.39924c0,0 27.40269,2.08808 36.28429,2.2029c5.44973,0.07045 11.94053,-1.57948 11.94053,-1.57948c0,0 0.66414,5.55687 0.50464,8.19591c-0.14901,2.46541 -1.43232,7.1529 -1.43232,7.1529c0,0 -6.33707,2.03177 -9.46564,3.89631c-4.16769,2.48384 -13.32949,9.68901 -13.32949,9.68901l-14.87502,1.02014z" fill="#f7fbfb" stroke="#8f8f8f" stroke-linecap="round"/><path d="M240.99731,135.46559h30.33333l-15,10.25h-18.08333z" data-paper-data="{&quot;index&quot;:null}" fill="#e5e9e9" stroke="none" stroke-linecap="butt"/><path d="M230.74732,155.75728v-29.33333h22.33333v29.33333z" data-paper-data="{&quot;index&quot;:null}" fill="url(#color-7)" stroke="none" stroke-linecap="butt"/></g><g stroke="none" stroke-width="0" stroke-linecap="butt"><path d="M199.57301,111.59066v-20.5c0,0 25.34252,-1.33865 47.9281,-0.94751c9.48342,0.16424 20.40273,2.28084 25.66562,2.28084c10.58157,0 23.30963,-1.33334 23.30963,-1.33334l-1.54847,20.5c0,0 -3.8628,-1 -9.42782,-1c-4.40575,0 -10.90391,1.41868 -21.67124,1.5395c-13.88551,0.15581 -27.85807,-1.34038 -41.01054,-1.52683c-11.56034,-0.16388 -23.24527,0.98733 -23.24527,0.98733z" fill="#d7dbdb"/><path d="M199.57301,111.59066v-12.2388h97.16667l-1.54847,12.2388z" fill="url(#color-8)"/></g><g stroke="none" stroke-width="0" stroke-linecap="butt"><path d="M186.55149,111.59066l-1.54847,-20.5c0,0 21.94148,1.33334 31.83038,1.33334c9.56831,0 26.57297,-1.33334 26.57297,-1.33334v20.5c0,0 -21.30923,-2 -31.57297,-2c-8.23973,0 -25.28191,2 -25.28191,2z" fill="#d7dbdb"/><path d="M186.28816,111.59066l-1.54847,-12.2388h65.66666v12.2388c0,0 -27.06795,-1 -38.90628,-1c-7.74323,0 -25.2119,1 -25.2119,1z" fill="url(#color-9)"/></g><path d="M210.90636,111.42398v-20.33333h42v20.33333z" data-paper-data="{&quot;index&quot;:null}" fill="url(#color-10)" stroke="none" stroke-width="0" stroke-linecap="butt"/><path d="M230.90636,111.42398v-20.33333h38.99999v20.33333z" data-paper-data="{&quot;index&quot;:null}" fill="url(#color-11)" stroke="none" stroke-width="0" stroke-linecap="butt"/><path d="M245.44269,31.59775c0,0 19.64594,-1.08427 28.72029,-1.13021c10.20054,-0.05164 29.50056,0.83547 29.50056,0.83547l-0.4149,6.58782c0,0 -5.83418,1.57485 -14.31217,2.38799c-7.04917,0.6761 -16.44055,0.51693 -21.09077,1.32904c-9.05942,1.58213 -22.94135,6.47217 -22.94135,6.47217z" data-paper-data="{&quot;index&quot;:null}" fill="#f7fbfb" stroke="#8f8f8f" stroke-width="0" stroke-linecap="round"/><path d="M241.35986,48.28718c0,0 -11.19046,0.20968 -23.41824,-2.33498c-10.38863,-2.16192 -21.52603,-7.05381 -27.18584,-7.88933c-7.47769,-1.10388 -16.35691,0.3393 -16.35691,0.3393l-0.66212,-6.5802c0,0 14.10476,0.22718 26.79516,-0.12005c7.78876,-0.21311 14.21366,-1.05813 18.96995,-1.0788c8.68658,-0.03774 22.08046,0.90406 22.08046,0.90406z" fill="#f7fbfb" stroke="#8f8f8f" stroke-width="0" stroke-linecap="round"/><g fill="#d3d7d7" stroke="none" stroke-width="0" stroke-linecap="butt"><path d="M273.61771,31.50795h12.87586v3.25c0,0 -5.57469,-0.05963 -7.63721,0.26075c-2.21811,0.34454 -5.23865,1.73927 -5.23865,1.73927z"/><path d="M261.70762,31.50795h7.08175v5.74999l-7.08175,0.99999c0,0 1,-2.54416 1,-3.72071c0,-1.06161 -1,-3.02927 -1,-3.02927z"/></g><path d="M203.29399,36.758l-12.87585,-2.00002v-3.25h12.87586c0,0 -1.33334,1.27505 -1.33334,2.02924c0,0.95015 1.33333,3.22078 1.33333,3.22078z" fill="#d3d7d7" stroke="none" stroke-width="0" stroke-linecap="butt"/><path d="M215.20412,38.25793c0,0 -2.68004,-1.04511 -3.91604,-1.21964c-1.11129,-0.15692 -3.16568,0.21965 -3.16568,0.21965v-5.75h7.08172z" fill="#d3d7d7" stroke="none" stroke-width="0" stroke-linecap="butt"/><path d="M236.00636,48.19277v-16.4h9.6v16.4z" fill="#f7fbfb" stroke="none" stroke-width="0" stroke-linecap="butt"/><g fill="#97a4a3" stroke="#8f8f8f" stroke-width="0" stroke-linecap="round"><path d="M239.39854,64.54957c0,0 -10.61638,-1.90588 -14.89887,-1.99406c-2.90333,-0.05978 -8.30751,1.51619 -8.30751,1.51619c0,0 -3.96652,-1.90264 -5.51277,-2.82416c-1.92806,-1.14907 -5.16497,-3.53948 -5.16497,-3.53948l-0.43453,-7.18968c0,0 11.29781,0.89627 16.08849,0.8464c4.5482,-0.04734 11.96597,-1.13844 11.96597,-1.13844z"/><path d="M248.82253,50.11359c0,0 10.13452,0.55771 15.00827,0.50697c4.43659,-0.04618 13.04618,-0.799 13.04618,-0.799l-0.28478,7.19718c0,0 -5.46707,0.83201 -7.21466,1.92346c-1.76653,1.10327 -3.3283,4.6611 -3.3283,4.6611l-23.19137,0.96085z" data-paper-data="{&quot;index&quot;:null}"/></g><path d="M243.98968,64.03721v-13.33333h17.66666v13.33333z" fill="url(#color-12)" stroke="none" stroke-width="0" stroke-linecap="butt"/><path d="M220.32301,64.03721v-13.33333h17.66667v13.33333z" data-paper-data="{&quot;index&quot;:null}" fill="url(#color-13)" stroke="none" stroke-width="0" stroke-linecap="butt"/><path d="M242.90633,48.59276v-17.33333h15.99999v14.66667z" fill="url(#color-14)" stroke="none" stroke-width="0" stroke-linecap="butt"/><path d="M222.73967,45.9261v-14.66667h16v17.33333z" data-paper-data="{&quot;index&quot;:null}" fill="url(#color-15)" stroke="none" stroke-width="0" stroke-linecap="butt"/><path d="M270.82966,227.30474c0,0 29.2707,1.34812 40.32855,1.23303c7.31459,-0.07613 19.56295,-1.85641 19.56295,-1.85641l-0.60798,15.36478c0,0 -8.40917,2.91978 -11.72628,4.99147c-4.04139,2.52403 -10.78114,9.06541 -10.78114,9.06541l-49.50966,2.05122z" data-paper-data="{&quot;index&quot;:null}" fill="#f7fbfb" stroke="#8f8f8f" stroke-width="0" stroke-linecap="round"/><path d="M219.67849,257.64358l-49.54169,-1.02014c0,0 -3.72276,-4.02001 -6.17752,-5.48299c-4.18065,-2.49156 -16.61761,-8.10233 -16.61761,-8.10233l-0.92769,-15.3488c0,0 5.49308,1.2935 9.0888,1.25608c3.50559,-0.03649 16.60427,-2.29893 25.03412,-2.6167c14.55983,-0.54885 25.76858,0.73721 25.76858,0.73721z" fill="#f7fbfb" stroke="#8f8f8f" stroke-width="0" stroke-linecap="round"/><path d="M199.90636,246.3823c0,0 -13.92117,-1 -19.40629,-1c-3.42449,0 -10.3437,1 -10.3437,1l-15,-10.25h65z" data-paper-data="{&quot;index&quot;:null}" fill="#e5e9e9" stroke="none" stroke-width="0" stroke-linecap="butt"/><path d="M257.48959,236.1323c0,0 39.98901,1 51.67712,1c6.12092,0 13.32288,-1 13.32288,-1l-15,10.25h-29.75z" data-paper-data="{&quot;index&quot;:null}" fill="#e5e9e9" stroke="none" stroke-width="0" stroke-linecap="butt"/><path d="M247.40633,256.42393v-29.33333h56.99999v29.33333z" fill="url(#color-16)" stroke="none" stroke-width="0" stroke-linecap="butt"/><path d="M173.40636,256.42393v-29.33333h57v29.33333z" data-paper-data="{&quot;index&quot;:null}" fill="url(#color-17)" stroke="none" stroke-width="0" stroke-linecap="butt"/><path d="M248.07841,32.1112c0,0 -1.65505,6.66331 -0.97633,13.3308c0.63612,6.24908 3.6278,20.30862 5.60853,36.69614c4.36732,36.13291 8.96858,83.58358 8.96858,83.58358l24.96119,30.82939c0,0 4.88471,17.96624 6.01562,25.62042c0.74669,5.0537 0.10954,15.83564 0.10954,15.83564l-4.09441,46.65809l-28.88261,42.76624c0,0 -7.29164,3.24343 -10.93253,4.86295c-3.63429,1.61658 -5.79906,-6.38902 -10.88124,-6.15462c-5.08218,0.2344 -6.6288,8.45397 -10.09079,7.12191c-3.67945,-1.41573 -10.71838,-4.38059 -10.71838,-4.38059l-27.51113,-41.23801c0,0 -1.7066,-32.43305 -2.55925,-41.7143c-0.43099,-4.69138 -2.22326,-10.3441 -2.22326,-10.3441c0,0 2.42629,-8.12919 3.52465,-13.45575c1.60555,-7.78615 5.17873,-28.75145 5.17873,-28.75145l26.16068,-29.03572c0,0 4.35098,-46.0096 8.4621,-80.68232c1.6774,-14.14705 4.42624,-26.68459 5.08688,-33.00541c0.92122,-8.8141 0.27355,-18.56366 0.27355,-18.56366" fill="#97a4a3" stroke="#97a4a3" stroke-width="0.5" stroke-linecap="round"/><path d="M231.93824,45.79209l17.40625,0.01863l1.70371,14.3996l-21.05941,-0.02252z" fill="url(#color-18)" stroke="none" stroke-width="0" stroke-linecap="butt"/><path d="M197.81761,273.98643l17,6.4074l18.33334,34.9495h10.66666l19.33333,-35.53199l17.33333,-6.69864l0.66667,5.53366l-26,51.84175l-32.66667,0.29125l-29.66666,-48.3468z" fill="#a2b1af" stroke="#000000" stroke-width="0" stroke-linecap="round"/><path d="M267.13661,270.42366l6.25,5.5791l-24.25,47.08757h-21.25l-23,-45.74859l7.75,-6.91808h52.25z" fill="#9aa7a6" stroke="#000000" stroke-width="0" stroke-linecap="round"/><path d="M289.84533,284.16187l-29.62282,44.31565l-9.82653,3.79638l30.06847,-52.6668c0,0 1.49462,-7.25797 1.88639,-11.20819c0.41956,-4.23041 0.55332,-13.39131 0.55332,-13.39131l9.221,-8.42843z" fill="#f7fbfb" stroke="#f7fbfb" stroke-width="0.5" stroke-linecap="round"/><path d="M185.85992,250.13783c0,0 3.64619,4.0171 5.24253,5.44747c1.34214,1.2026 3.70586,2.57057 3.70586,2.57057c0,0 1.45811,5.80516 1.87617,9.23249c0.5253,4.30645 1.02802,14.57629 1.02802,14.57629l28.78369,49.66682l-9.0783,-2.62323l-28.4939,-42.4717z" data-paper-data="{&quot;index&quot;:null}" fill="#f7fbfb" stroke="#f7fbfb" stroke-width="0.5" stroke-linecap="round"/><g data-paper-data="{&quot;index&quot;:null}"><path d="M278.10992,282.87099c2.00766,-2.43517 6.3191,-3.16981 9.62984,-1.64083c3.31075,1.52898 4.36712,4.74255 2.35947,7.17773c-2.00766,2.43519 -6.31909,3.1698 -9.62984,1.64083c-3.31075,-1.52896 -4.36714,-4.74256 -2.35946,-7.17774z" fill="url(#color-19)" stroke="none" stroke-width="NaN" stroke-linecap="butt"/><path d="M274.84856,287.34612c2.00766,-2.43519 6.3191,-3.1698 9.62984,-1.64083c3.31075,1.52896 4.36712,4.74256 2.35946,7.17773c-2.00766,2.43519 -6.3191,3.16979 -9.62985,1.64081c-3.31075,-1.52896 -4.36712,-4.74253 -2.35946,-7.17773z" fill="url(#color-20)" stroke="none" stroke-width="NaN" stroke-linecap="butt"/><path d="M263.74942,302.19348c2.00766,-2.43519 6.31909,-3.16981 9.62984,-1.64083c3.31075,1.52896 4.36713,4.74255 2.35947,7.17774c-2.00766,2.43519 -6.3191,3.1698 -9.62984,1.64083c-3.31075,-1.52896 -4.36712,-4.74255 -2.35944,-7.17773z" fill="url(#color-21)" stroke="none" stroke-width="NaN" stroke-linecap="butt"/><path d="M271.35635,291.92821c2.00766,-2.43519 6.3191,-3.1698 9.62984,-1.64083c3.31075,1.52896 4.36712,4.74255 2.35944,7.17774c-2.00765,2.43517 -6.3191,3.16979 -9.62984,1.64082c-3.31075,-1.52896 -4.36712,-4.74253 -2.35946,-7.17773z" fill="url(#color-22)" stroke="none" stroke-width="NaN" stroke-linecap="butt"/><path d="M260.76743,306.15673c2.00766,-2.43519 6.3191,-3.1698 9.62984,-1.64083c3.31075,1.52896 4.36712,4.74256 2.35944,7.17774c-2.00766,2.43519 -6.31908,3.16979 -9.62982,1.64082c-3.31075,-1.52896 -4.36712,-4.74254 -2.35946,-7.17774z" fill="url(#color-23)" stroke="none" stroke-width="NaN" stroke-linecap="butt"/><path d="M267.77612,296.79007c2.00766,-2.43519 6.31909,-3.1698 9.62984,-1.64083c3.31075,1.52896 4.36712,4.74255 2.35944,7.17774c-2.00766,2.43519 -6.3191,3.1698 -9.62984,1.64083c-3.31075,-1.52896 -4.36712,-4.74256 -2.35946,-7.17774z" fill="url(#color-24)" stroke="none" stroke-width="NaN" stroke-linecap="butt"/><path d="M254.7219,315.22054c2.00766,-2.43519 6.31909,-3.16979 9.62984,-1.64082c3.31075,1.52896 4.36712,4.74255 2.35944,7.17774c-2.00766,2.43519 -6.3191,3.16979 -9.62984,1.64082c-3.31075,-1.52896 -4.36712,-4.74254 -2.35946,-7.17774z" fill="url(#color-25)" stroke="none" stroke-width="NaN" stroke-linecap="butt"/><path d="M258.31093,309.82866c2.00766,-2.43519 6.31909,-3.16979 9.62984,-1.64083c3.31075,1.52896 4.36713,4.74255 2.35947,7.17774c-2.00766,2.43519 -6.3191,3.16979 -9.62984,1.64082c-3.31075,-1.52896 -4.36712,-4.74256 -2.35946,-7.17773z" fill="url(#color-26)" stroke="none" stroke-width="NaN" stroke-linecap="butt"/><g fill="none" stroke-linecap="round"><path d="M283.98217,285.90333l-23.73107,32.93879" stroke="#a1f2ff" stroke-width="7.5"/><path d="M283.98217,285.90333l-23.73107,32.93879" stroke="#00ddff" stroke-width="2.5"/></g></g><g><path d="M196.98055,291.29902c-3.31512,1.52368 -7.62443,0.78215 -9.62512,-1.65625c-2.0007,-2.4384 -0.93515,-5.65025 2.37997,-7.17392c3.31512,-1.52368 7.62444,-0.78215 9.62513,1.65625c2.0007,2.43838 0.93515,5.65027 -2.37998,7.17393z" fill="url(#color-27)" stroke="none" stroke-width="NaN" stroke-linecap="butt"/><path d="M200.22911,295.77931c-3.31512,1.52368 -7.62444,0.78215 -9.62513,-1.65624c-2.0007,-2.4384 -0.93515,-5.65026 2.37998,-7.17394c3.31512,-1.52368 7.62445,-0.78215 9.62514,1.65625c2.0007,2.4384 0.93515,5.65025 -2.37998,7.17393z" fill="url(#color-28)" stroke="none" stroke-width="NaN" stroke-linecap="butt"/><path d="M211.28576,310.64444c-3.31512,1.52368 -7.62444,0.78215 -9.62513,-1.65625c-2.0007,-2.4384 -0.93515,-5.65027 2.37998,-7.17394c3.31512,-1.52368 7.62443,-0.78214 9.62511,1.65625c2.0007,2.4384 0.93514,5.65024 -2.37996,7.17392z" fill="url(#color-29)" stroke="none" stroke-width="NaN" stroke-linecap="butt"/><path d="M203.70824,300.36698c-3.31512,1.52368 -7.62443,0.78215 -9.62512,-1.65625c-2.0007,-2.4384 -0.93514,-5.65026 2.37998,-7.17393c3.31512,-1.52368 7.62443,-0.78213 9.62512,1.65625c2.0007,2.4384 0.93514,5.65026 -2.37998,7.17393z" fill="url(#color-30)" stroke="none" stroke-width="NaN" stroke-linecap="butt"/><path d="M214.25648,314.61247c-3.31512,1.52368 -7.62445,0.78215 -9.62513,-1.65625c-2.0007,-2.4384 -0.93514,-5.65026 2.37998,-7.17394c3.31512,-1.52368 7.62445,-0.78213 9.62514,1.65625c2.0007,2.4384 0.93515,5.65026 -2.37998,7.17394z" fill="url(#color-31)" stroke="none" stroke-width="NaN" stroke-linecap="butt"/><path d="M207.27459,305.23463c-3.31512,1.52368 -7.62443,0.78215 -9.62512,-1.65625c-2.0007,-2.4384 -0.93516,-5.65025 2.37996,-7.17393c3.31512,-1.52368 7.62445,-0.78215 9.62512,1.65624c2.0007,2.4384 0.93514,5.65027 -2.37998,7.17394z" fill="url(#color-32)" stroke="none" stroke-width="NaN" stroke-linecap="butt"/><path d="M220.27603,323.68592c-3.31512,1.52368 -7.62443,0.78214 -9.62511,-1.65625c-2.0007,-2.4384 -0.93514,-5.65026 2.37997,-7.17393c3.31512,-1.52368 7.62443,-0.78215 9.62512,1.65625c2.0007,2.4384 0.93514,5.65026 -2.37998,7.17393z" fill="url(#color-33)" stroke="none" stroke-width="NaN" stroke-linecap="butt"/><path d="M216.70243,318.28835c-3.31512,1.52368 -7.62444,0.78214 -9.62512,-1.65625c-2.0007,-2.4384 -0.93515,-5.65027 2.37998,-7.17394c3.31512,-1.52368 7.62444,-0.78213 9.62512,1.65625c2.0007,2.4384 0.93514,5.65026 -2.37998,7.17392z" fill="url(#color-34)" stroke="none" stroke-width="NaN" stroke-linecap="butt"/><g fill="none" stroke-linecap="round"><path d="M217.11654,320.12468l-23.63687,-32.97672" stroke="#a1f2ff" stroke-width="7.5"/><path d="M217.11654,320.12468l-23.63687,-32.97672" stroke="#00ddff" stroke-width="2.5"/></g></g><path d="M229.85634,64.99279c0,0 2.35514,-8.06495 2.75999,-12.80744c0.50582,-5.92529 0.04002,-19.99256 0.04002,-19.99256h16.5c0,0 -0.95577,7.74012 -0.72941,12.38051c0.29071,5.95947 2.32941,20.41949 2.32941,20.41949z" fill="url(#color-35)" stroke="none" stroke-width="0" stroke-linecap="butt"/><path d="M235.00635,5.59277h11.4" fill="none" stroke="#697271" stroke-width="5" stroke-linecap="round"/><path d="M248.60635,32.59275h-15.6c0,0 2.30388,-9.8977 3.06756,-14.5145c0.69685,-4.21282 1.33244,-12.0855 1.33244,-12.0855h6.2c0,0 1.11603,13.03058 2.03762,17.93345c0.64067,3.40833 2.96238,8.66655 2.96238,8.66655z" fill="#97a4a3" stroke="#000000" stroke-width="0" stroke-linecap="round"/><path d="M228.40636,295.67393l-7,-7.33333v-35.33334l6.66666,-7h22.66667l6.66666,7.66667v34.33333l-6.33333,7.66667z" fill="url(#color-36)" stroke="none" stroke-width="0" stroke-linecap="butt"/><path d="M201.90636,237.09064c0,-20.71068 16.78932,-37.5 37.5,-37.5c20.71068,0 37.49999,16.78932 37.49999,37.5c0,20.71068 -16.78932,37.5 -37.5,37.5c-20.71068,0 -37.5,-16.78932 -37.5,-37.5z" fill="url(#color-37)" stroke="none" stroke-width="0" stroke-linecap="butt"/><path d="M215.65636,265.86841v-14.33333h46.99999v14.33333z" fill="#f7fbfb" stroke="none" stroke-width="0" stroke-linecap="butt"/><path d="M201.90636,213.09064c0,-20.71068 16.78932,-37.5 37.5,-37.5c20.71068,0 37.49999,16.78932 37.49999,37.5c0,20.71068 -16.78932,37.5 -37.5,37.5c-20.71068,0 -37.5,-16.78932 -37.5,-37.5z" fill="url(#color-38)" stroke="none" stroke-width="0" stroke-linecap="butt"/><path d="M222.90636,263.09063l-10.5,-11c0,0 -1.5,-8.35468 -1.5,-14.16453c0,-2.98087 1.64057,-7.77616 1.83565,-12.99562c0.24601,-6.58233 -1.38564,-13.58927 -1.55086,-18.7324c-0.13173,-4.10056 1.21521,-7.10744 1.21521,-7.10744l10,-10.5h33.99999l10,11.5c0,0 0.51084,4.00015 0.08077,9.32433c-0.44829,5.54971 -1.83238,12.55963 -1.53136,19.06525c0.26168,5.65547 3.45059,10.94169 3.45059,13.69589c0,4.16967 -2,9.41453 -2,9.41453l-9.5,11.5z" fill="#f7fbfb" stroke="none" stroke-width="0" stroke-linecap="butt"/><path d="M226.41165,325.42921l-24.5,-48.56667l2.9,0.11724l23.26667,45.81153z" fill="#929f9e" stroke="#000000" stroke-width="0" stroke-linecap="round"/><path d="M248.71167,322.36089l23.26666,-45.18268l2.89999,-0.11563l-24.5,47.90001z" data-paper-data="{&quot;index&quot;:null}" fill="#929f9e" stroke="#000000" stroke-width="0" stroke-linecap="round"/><path d="M229.48967,157.4261h-7.33333l9.5,-92h5.33333z" fill="#b1c0bf" stroke="#000000" stroke-width="0" stroke-linecap="round"/><path d="M244.98968,65.42609h5.33333l9,92h-7.33333z" data-paper-data="{&quot;index&quot;:null}" fill="#b1c0bf" stroke="#000000" stroke-width="0" stroke-linecap="round"/><path d="M261.57295,159.7573h-41.66666l1.66666,-12.66666h38.33333z" data-paper-data="{&quot;index&quot;:null}" fill="url(#color-39)" stroke="none" stroke-width="0" stroke-linecap="butt"/><path d="M253.6926,175.66825c0,0 -1.42872,-1.75 -3.31755,-1.75c-2.02556,0 -10.99992,2.13195 -15.72579,2.53896c-5.38995,0.46421 -6.45666,-0.78896 -6.45666,-0.78896l-8.5,-16h42z" fill="#8b9796" stroke="#000000" stroke-width="0" stroke-linecap="round"/><path d="M228.19261,175.16825c0,0 -4.47046,2.8377 -6.59274,5.40097c-1.59484,1.92623 -2.82328,5.99201 -5.33948,9.60275c-3.0665,4.40041 -7.31778,8.24628 -7.31778,8.24628l-15.5,-6l26.5,-32.75z" fill="#909d9c" stroke="#000000" stroke-width="0" stroke-linecap="round"/><path d="M261.94258,159.66823l25.5,36.25l-15.75,2.5c0,0 -3.64019,-2.37649 -5.71012,-5.57647c-2.2258,-3.44097 -2.9485,-7.79507 -4.66305,-10.00969c-2.37703,-3.07032 -7.62684,-7.66384 -7.62684,-7.66384z" data-paper-data="{&quot;index&quot;:null}" fill="#909d9c" stroke="#000000" stroke-width="0" stroke-linecap="round"/><path d="M250.16165,325.44032h-23.8l1.71533,-3.2h20.7982z" fill="#95a2a1" stroke="#000000" stroke-width="0" stroke-linecap="round"/><g><g><path d="M243.09771,263.85882v15.92946" fill="none" stroke="url(#color-40)" stroke-width="5" stroke-linecap="round"/><path d="M217.9817,263.85882v15.92946" fill="none" stroke="url(#color-41)" stroke-width="5" stroke-linecap="round"/><path d="M219.91373,262.49341h21.25193v23.66666c0,0 -3.57261,2.4 -10.96931,2.4c-7.63715,0 -10.28262,-2.4 -10.28262,-2.4z" fill="url(#color-42)" stroke="url(#color-43)" stroke-width="0" stroke-linecap="butt"/><path d="M252.75766,271.59603v9.10259l-6.76195,3.18588" fill="none" stroke="#97a4a3" stroke-width="4" stroke-linecap="round"/><path d="M215.08373,283.88449l-2.76195,-3.18588v-9.10259" data-paper-data="{&quot;index&quot;:null}" fill="none" stroke="#8d9998" stroke-width="4" stroke-linecap="round"/></g><g><path d="M260.2976,279.78827v-15.92946" fill="none" stroke="url(#color-44)" stroke-width="5" stroke-linecap="round"/><path d="M235.18171,263.85882v15.92946" fill="none" stroke="url(#color-45)" stroke-width="5" stroke-linecap="round"/><path d="M237.11371,262.49341h21.25194v23.66666c0,0 -3.57261,2.4 -10.96931,2.4c-7.63715,0 -10.28263,-2.4 -10.28263,-2.4z" fill="url(#color-46)" stroke="url(#color-47)" stroke-width="0" stroke-linecap="butt"/><path d="M265.62424,271.59603v9.10259l-2.42862,3.18588" fill="none" stroke="#8d9998" stroke-width="4" stroke-linecap="round"/></g><path d="M228.98138,288.74203v-26.2h19.6v26.2z" fill="url(#color-48)" stroke="none" stroke-width="0" stroke-linecap="butt"/></g><g stroke="none" stroke-width="0" stroke-linecap="butt"><path d="M230.73426,157.25999c0,0 -2.35431,-1.6807 -3.29018,-2.66114c-1.15612,-1.21117 -3.12649,-4.06108 -3.12649,-4.06108v-17.72222l6.11111,-6.41667h20.77778l6.11111,7.02778v16.80556l-5.80556,7.02778c0,0 -7.10675,-0.75 -10.38698,-0.75c-3.61342,0 -10.39079,0.74999 -10.39079,0.74999z" fill="#dbdfdf"/><path d="M230.48426,153.25999l-6.41667,-6.72222c0,0 -1.25,-4.00039 -1.25,-6.36167c0,-3.25457 1.25,-11.36055 1.25,-11.36055l6.11111,-6.41667c0,0 6.98177,0.5 9.94636,0.5c3.76719,0 10.83142,-0.5 10.83142,-0.5l6.11111,7.02778c0,0 0.75,5.06571 0.75,7.74944c0,2.90117 -0.75,9.05612 -0.75,9.05612l-5.80556,7.02778c0,0 -6.26349,-0.25 -9.38698,-0.25c-3.70325,0 -11.39079,0.24999 -11.39079,0.24999z" fill="#f7fbfb"/></g><g stroke="none" stroke-width="0" stroke-linecap="butt"><path d="M229.73426,228.50999c0,0 -3.89575,-2.50983 -5.01072,-3.67789c-1.0144,-1.0627 -1.40595,-3.04433 -1.40595,-3.04433v-17.72222l6.11111,-6.41667h20.77778l6.11111,7.02778v16.80556l-5.80556,7.02778c0,0 -5.42433,-0.75 -8.88698,-0.75c-3.46328,0 -11.89079,0.74999 -11.89079,0.74999z" fill="#cfd3d3"/><path d="M229.73426,224.75999l-6.41667,-6.72222c0,0 -1,-8.1199 -1,-11.36167c0,-2.42554 1,-6.36055 1,-6.36055l6.11111,-6.41667c0,0 4.17139,0.75 6.44636,0.75c3.81693,0 14.33142,-0.75 14.33142,-0.75l6.11111,7.02778v16.80556l-5.80556,7.02778c0,0 -1.62606,-2 -4.38698,-2c-3.81696,0 -16.39079,1.99999 -16.39079,1.99999z" fill="#edf2f2"/></g><path d="M178.82768,108.24557v-15.89458l8.28595,-4.79618v26.33334z" fill="#97a4a3" stroke="none" stroke-width="0" stroke-linecap="butt"/><path d="M293.82768,113.88814v-26.33334l8.28596,4.79618v15.89458z" data-paper-data="{&quot;index&quot;:null}" fill="#97a4a3" stroke="none" stroke-width="0" stroke-linecap="butt"/><path d="M183.73426,111.87056v-20.66666h8.33334v20.66666z" fill="url(#color-49)" stroke="none" stroke-width="0" stroke-linecap="butt"/><path d="M289.06758,111.87056v-20.66666h8.33333v20.66666z" data-paper-data="{&quot;index&quot;:null}" fill="url(#color-50)" stroke="none" stroke-width="0" stroke-linecap="butt"/><path d="M194.25005,239.07389c-2.5,0 -2.5,-2.5 -2.5,-2.5v-3c0.14702,-8.23705 -5.10225,-15.11253 0.04315,-23.16679c0.91567,-1.43332 5.2712,-5.68262 6.68909,-7.10097c0,0 1.76777,-1.76777 3.53553,0c1.76777,1.76777 0,3.53553 0,3.53553c-0.96953,0.9692 -5.33707,5.25461 -6.03764,6.29843c-4.10226,6.1122 0.68462,13.87015 0.76987,20.43381v3c0,0 0,2.5 -2.5,2.5z" fill="#949f9e" stroke="none" stroke-width="0.5" stroke-linecap="butt"/><path d="M276.6785,206.2527c2.32119,0.92848 1.39272,3.24967 1.39272,3.24967l-1.08157,2.68243c-3.6842,6.10648 -2.19062,13.80245 2.60313,19.19963c1.44975,1.63224 3.96953,2.55796 5.77529,3.45339c0,0 2.23607,1.11803 1.11803,3.3541c-1.11803,2.23607 -3.3541,1.11803 -3.3541,1.11803c-2.81488,-1.41779 -5.08141,-2.1871 -7.22471,-4.54661c-6.13398,-6.75274 -8.05738,-16.99181 -3.39687,-24.80037l0.91843,-2.31757c0,0 0.92848,-2.32119 3.24967,-1.39272z" fill="#949f9e" stroke="none" stroke-width="0.5" stroke-linecap="butt"/><path d="M236.25005,315.07389c0,-1.53668 0.94455,-2.1288 1.67248,-2.35697c1.00813,-1.30737 1.95528,-2.64691 2.90459,-3.98759c-3.65257,0.35723 -7.72248,-0.15544 -11.07707,-0.15544c0,0 -2.5,0 -2.5,-2.5c0,-2.5 2.5,-2.5 2.5,-2.5c3.94074,0 9.37172,0.98992 13.13622,-0.34604c1.59993,-0.56779 2.83044,-2.13146 3.94262,-3.25908l1.4037,-1.87161c0.45492,-0.62044 1.18914,-1.02328 2.01746,-1.02328c1.38071,0 2.5,1.11929 2.5,2.5c0,0.41989 -0.10352,0.81561 -0.28642,1.16302l-1.47751,2.95502l-0.04404,-0.02202c-0.02933,0.08809 -0.0605,0.17574 -0.09363,0.26292c-0.61577,1.62025 -2.22686,2.6582 -3.28179,4.03351c-2.19584,2.86273 -4.11329,5.85214 -6.36444,8.66929l-2.45217,0.93826c0,0 -2.5,0 -2.5,-2.5z" fill="#949f9e" stroke="none" stroke-width="0.5" stroke-linecap="butt"/><path d="M223.25005,297.57389c-1.5,2 -3.5,0.5 -3.5,0.5l-2,-1.5c0,0 -2,-1.5 -0.5,-3.5c1.5,-2 3.5,-0.5 3.5,-0.5l2,1.5c0,0 2,1.5 0.5,3.5z" fill="#949f9e" stroke="none" stroke-width="0.5" stroke-linecap="butt"/><path d="M278.54061,249.70219c2.37171,0.79057 1.58114,3.16228 1.58114,3.16228l-0.72798,1.99567c-1.74396,2.9066 -5.83395,6.13662 -3.14373,9.21376c0,0 1.5,2 -0.5,3.5c-2,1.5 -3.5,-0.5 -3.5,-0.5c-0.6239,-0.90314 -1.56952,-1.65416 -1.87171,-2.70943c-1.32872,-4.63995 2.54162,-8.43288 4.72798,-12.07681l0.27202,-1.00433c0,0 0.79057,-2.37171 3.16228,-1.58114z" fill="#949f9e" stroke="none" stroke-width="0.5" stroke-linecap="butt"/><path d="M252.33018,176.18714c1.38675,2.08013 -0.69338,3.46688 -0.69338,3.46688l-2.00894,1.2607c-1.47725,0.53969 -2.88005,1.36261 -4.43175,1.61906c-4.49893,0.74354 -9.40465,-0.46438 -13.94606,-0.45988c0,0 -2.5,0 -2.5,-2.5c0,-2.5 2.5,-2.5 2.5,-2.5c5.87709,0.00543 11.02855,1.32396 16.62219,-0.84082l0.99106,-0.7393c0,0 2.08013,-1.38675 3.46688,0.69338z" fill="#949f9e" stroke="none" stroke-width="0.5" stroke-linecap="butt"/><path d="M242.35637,112.49925c-2.42536,0.60634 -3.0317,-1.81902 -3.0317,-1.81902l-0.54063,-2.19534c-1.14918,-7.00836 0.48164,-13.88301 0.46598,-20.911c0,0 0,-2.5 2.5,-2.5c2.5,0 2.5,2.5 2.5,2.5c-0.01328,6.70947 -1.66551,13.4236 -0.53402,20.089l0.45937,1.80466c0,0 0.60634,2.42536 -1.81902,3.0317z" fill="#949f9e" stroke="none" stroke-width="0.5" stroke-linecap="butt"/><path d="M247.75005,59.75943c0,2.5 -2.5,2.5 -2.5,2.5c-2.33333,0 -5.66667,0 -8,0c0,0 -2.5,0 -2.5,-2.5c0,-2.5 2.5,-2.5 2.5,-2.5c2.33333,0 4.66667,0 7,0h1c0,0 2.5,0 2.5,2.5z" fill="#949f9e" stroke="none" stroke-width="0.5" stroke-linecap="butt"/><path d="M264.04873,52.43046c0.3371,-0.29629 1.90308,-1.50477 3.46907,0.06121c1.76777,1.76777 0,3.53553 0,3.53553l-1.85677,1.19822c-3.31153,0.54962 -6.43679,1.34239 -9.62043,2.40572c0,0 -2.37171,0.79057 -3.16228,-1.58114c-0.79057,-2.37171 1.58114,-3.16228 1.58114,-3.16228c3.17727,-1.05709 6.31079,-1.86897 9.58927,-2.45727z" fill="#949f9e" stroke="none" stroke-width="0.5" stroke-linecap="butt"/><path d="M223.75005,58.25943c0,2.5 -2.5,2.5 -2.5,2.5c-1.33333,0 -3.16667,0 -4.5,0c0,0 -2.5,0 -2.5,-2.5c0,-2.5 2.5,-2.5 2.5,-2.5c1.33333,0 2.66667,0 4,0h0.5c0,0 2.5,0 2.5,2.5z" fill="#949f9e" stroke="none" stroke-width="0.5" stroke-linecap="butt"/><path d="M259.04854,229.30288c1.12322,0.54852 0.5747,1.67174 0.5747,1.67174l-0.90946,1.79581c-0.03729,4.18505 -0.04296,12.74019 -4.73541,14.81051c-0.63102,0.27841 -1.56767,0.37146 -2.60232,0.37557c-4.82924,2.70008 -11.58166,2.01989 -16.63129,2.29268c-2.66644,0.14405 -5.3244,0.50735 -7.99472,0.51022l-2.29057,-0.62829c0,0 -2.37171,-0.79057 -1.58114,-3.16228l-0.00001,0.00001c0.79057,-2.37171 3.16228,-1.58114 3.16228,-1.58114l0.70943,0.37171c0.94379,0.00111 1.88589,-0.04741 2.82735,-0.11615c-0.41131,-0.23336 -0.69971,-0.39767 -0.73895,-0.41989c-1.09386,-0.63118 -2.13969,-1.42872 -3.14117,-2.33723c-3.88099,-1.68547 -6.11793,-4.92482 -8.18329,-9.0087c0,0 -0.32507,-0.65013 -0.27408,-1.42456c-0.12202,-0.16958 -0.2432,-0.33737 -0.36354,-0.50313c-1.29572,-1.78478 -2.16693,-2.59835 -2.56846,-4.89363c-1.20625,-6.89532 3.08156,-16.20402 6.07408,-22.18906c0,0 0.55902,-1.11803 1.67705,-0.55902c1.11803,0.55902 0.55902,1.67705 0.55902,1.67705c-2.78907,5.57814 -6.85005,14.22272 -5.84421,20.6597c0.20476,1.3104 0.9026,2.62961 1.80852,3.90384c0.01637,-0.00849 0.03292,-0.01693 0.04966,-0.0253c2.23607,-1.11803 3.3541,1.11803 3.3541,1.11803c1.63852,3.32207 3.38818,6.53782 7.25422,7.16658l-0.60832,-0.28462c0,0 2.23607,-1.11803 3.3541,1.11803v0.00002c1.11803,2.23607 -1.11803,3.3541 -1.11803,3.3541l-0.60444,0.16578c1.17606,0.71179 2.22323,1.73807 3.5548,2.05606c0.09022,0.02154 0.18134,0.04197 0.27331,0.06131c0.12713,-0.00786 0.25427,-0.01524 0.38144,-0.02206c4.86226,-0.26069 13.01325,1.28649 16.51748,-3.56734c0.3498,-0.48452 -0.13379,-1.19735 -0.32796,-1.76252c-0.49602,-1.44375 -1.15592,-2.82588 -1.73387,-4.23883c0,0 -0.92848,-2.32119 1.39272,-3.24967c2.32119,-0.92848 3.24967,1.39272 3.24967,1.39272c0.50131,1.27755 1.53665,3.34563 2.0836,5.41916c0.46633,-2.30607 0.55227,-4.63811 0.6293,-7.06857l1.09267,-2.30397c0,0 0.54852,-1.12322 1.67174,-0.5747z" fill="#eff4f4" stroke="none" stroke-width="0.5" stroke-linecap="butt"/><path d="M168.74889,246.4793c-0.05321,1.24887 -1.30207,1.19566 -1.30207,1.19566l-0.85988,-0.03663c-0.79182,-0.03895 -1.80602,-0.12261 -2.86176,-0.29155c-1.05286,0.77415 -2.40363,0.23385 -2.40363,0.23385l-2.43142,-0.97373c-3.16359,-1.08606 -5.00583,-2.37175 -7.64011,-4.34746c0,0 -2,-1.5 -0.5,-3.5c1.5,-2 3.5,-0.5 3.5,-0.5c1.10372,0.82779 1.97908,1.49991 2.89891,2.07343c0.11032,-2.13678 0.78044,-4.35662 1.37467,-5.93035c0.38146,-1.01021 0.40701,-2.3101 1.24554,-2.99048c0.36152,-0.29333 4.03062,-0.23595 4.73089,-0.23595c0,0 1.25,0 1.25,1.25c0,1.25 -1.25,1.25 -1.25,1.25c-1.09254,0 -2.47518,-0.98648 -3.26911,-0.23595c-0.43233,0.40869 -0.17902,1.17899 -0.3356,1.75294c-0.36979,1.3554 -1.48418,4.21403 -1.34078,6.3456c0.32884,0.12828 0.67857,0.25228 1.05539,0.37329l2.56858,1.02627c0,0 1.51272,0.60509 1.60731,2.05951c0.71215,0.08367 1.37985,0.12446 1.90755,0.14284l0.85988,0.03663c0,0 1.24887,0.05321 1.19566,1.30207z" fill="#eff4f4" stroke="none" stroke-width="0.5" stroke-linecap="butt"/><path d="M284.49794,279.6761c-1.25,-0.00208 -1.24792,-1.25208 -1.24792,-1.25208l0.0035,-2.09807c0.0084,-2.63804 0.18254,-5.02793 0.55672,-7.50976c-0.10904,-0.08361 -0.21851,-0.17952 -0.32797,-0.28898c-1.76777,-1.76777 0,-3.53553 0,-3.53553l0.29289,0.41421c0.31286,-2.18929 0.64544,-4.37598 1.00889,-6.55744c0,0 0.411,-2.46598 2.87698,-2.05499c2.46598,0.411 2.05499,2.87698 2.05499,2.87698c-0.35732,2.1432 -0.68394,4.2916 -0.99111,6.44256l-1.70711,2.41421c0,0 -0.27257,0.27257 -0.71068,0.49662c-0.37382,2.4201 -0.54538,4.72699 -0.5536,7.30819l-0.00349,2.09617c0,0 -0.00208,1.25 -1.25208,1.24792z" fill="#eff4f4" stroke="none" stroke-width="0.5" stroke-linecap="butt"/><path d="M224.25005,327.25943c0,2.5 -2.5,2.5 -2.5,2.5h-2.5c0,0 -2.5,0 -2.5,-2.5c0,-2.5 2.5,-2.5 2.5,-2.5h2.5c0,0 2.5,0 2.5,2.5z" fill="#eff4f4" stroke="none" stroke-width="0.5" stroke-linecap="butt"/><path d="M310.31416,243.82138c-0.39528,-1.18585 0.79057,-1.58114 0.79057,-1.58114l0.62829,-0.20943c1.35477,-0.44136 2.53596,-1.30039 3.81773,-1.92272c1.37798,-0.66904 3.09561,-0.2791 4.51534,-0.85427c0.6277,-0.2543 0.93912,-0.98745 1.49034,-1.38093c0.44301,-0.31624 1.35012,-0.19412 1.46226,-0.72675c0.00032,-0.00153 0.00064,-0.00305 0.00095,-0.00458c-0.23933,-0.07192 -0.38764,-0.14608 -0.38764,-0.14608l-1.38197,-0.73607c-0.04251,-0.03405 -0.085,-0.06737 -0.12748,-0.09998c-0.36162,-0.04841 -0.70954,-0.09856 -0.97608,-0.18264c-1.2536,-0.39543 -2.53759,-0.8394 -3.84036,-1.27041c-0.95673,-0.0083 -1.96462,0.05302 -3.05609,0.05302c0,0 -1.85043,0 -2.36732,-1.59199c-1.46252,-0.30784 -2.92853,-0.49872 -4.38269,-0.49135c0,0 -1.25,0 -1.25,-1.25c0,-1.25 1.25,-1.25 1.25,-1.25c1.56597,0.00681 3.14546,0.20709 4.72057,0.5264c0.72425,-0.94306 2.02944,-0.94306 2.02944,-0.94306c4.32859,0 7.35833,-0.11755 11,2.5l0.61803,0.26393c0,0 2.23607,1.11803 1.11803,3.3541l0.00001,0.00001c-0.15902,0.31804 -0.34066,0.56823 -0.53526,0.76343c0.04188,0.18718 0.06479,0.38703 0.06603,0.60068c0.00664,1.14677 -1.50152,1.73865 -2.33267,2.52879c-2.56738,2.44069 -3.67943,1.10646 -6.47834,2.55487c-1.38244,0.7154 -2.70846,1.57648 -4.18227,2.07728l-0.62829,0.20943c0,0 -1.18585,0.39528 -1.58114,-0.79057z" fill="#eff4f4" stroke="none" stroke-width="0.5" stroke-linecap="butt"/><path d="M242.75005,145.75943c0,2.5 -2.5,2.5 -2.5,2.5l-3.5,-0.5c-0.96459,-0.72404 -5.65161,-4.23557 -5.70419,-4.32036c-0.3893,-0.62779 -0.29581,-6.44524 -0.29581,-7.17964c0,0 0,-2.5 2.5,-2.5c2.5,0 2.5,2.5 2.5,2.5c0,1.16667 0.07146,2.33552 0,3.5c-0.02763,0.45018 -0.57551,0.96653 -0.29581,1.32036c1.04659,1.32398 2.94529,1.66754 4.29581,2.67964l0.5,-0.5c0,0 2.5,0 2.5,2.5z" fill="#eff4f4" stroke="none" stroke-width="0.5" stroke-linecap="butt"/><path d="M251.75005,140.75943c-2.5,0 -2.5,-2.5 -2.5,-2.5l0.03402,-1.089c-0.50605,-3.34529 -1.88582,-5.23729 -3.98619,-7.84926c0,0 -1.56174,-1.95217 0.39043,-3.51391c1.95217,-1.56174 3.51391,0.39043 3.51391,0.39043c2.62971,3.30219 4.26832,5.96771 5.01381,10.15074l0.03402,1.911c0,0 0,2.5 -2.5,2.5z" fill="#eff4f4" stroke="none" stroke-width="0.5" stroke-linecap="butt"/><path d="M216.75005,131.25943c0,2.5 -2.5,2.5 -2.5,2.5l-0.00971,-0.04855c-2.77964,0.5429 -4.82649,1.50962 -7.37226,2.78462c0,0 -2.23607,1.11803 -3.3541,-1.11803c-1.11803,-2.23607 1.11803,-3.3541 1.11803,-3.3541c2.92352,-1.45948 5.42887,-2.56306 8.62774,-3.21538l0.99029,-0.04855c0,0 2.5,0 2.5,2.5z" fill="#eff4f4" stroke="none" stroke-width="0.5" stroke-linecap="butt"/><path d="M264.87829,144.05c-0.79057,-2.37171 1.58114,-3.16228 1.58114,-3.16228l2.83386,-0.93799c1.68206,-0.84103 3.55654,-1.24169 5.26393,-2.03001c0.36527,-0.16865 0.87538,-0.4935 0.81404,-0.89112c-0.04786,-0.31024 -0.62386,0.11565 -0.93702,0.09399c-1.23283,-0.08528 -2.47168,-0.17492 -3.68417,-0.41366c-2.15217,-0.42376 -4.24693,-1.1259 -6.41107,-1.48352c0,0 -2.46598,-0.411 -2.05499,-2.87698c0.411,-2.46598 2.87698,-2.05499 2.87698,-2.05499c5.92219,0.99468 20.23322,1.7695 12.78178,11.30569c-0.824,1.05453 -2.51152,0.93008 -3.73607,1.46999c-1.02301,0.45105 -2,1 -3,1.5l-3.16614,1.06201c0,0 -2.37171,0.79057 -3.16228,-1.58114z" fill="#eff4f4" stroke="none" stroke-width="0.5" stroke-linecap="butt"/><g stroke="none" stroke-width="0.5" stroke-linecap="butt"><path d="M248.14069,128.8981c0.29199,0.03698 0.48325,0.10074 0.48325,0.10074l3.12998,1.43791c3.1727,4.16016 3.45801,7.56224 -1.73048,10.4657c-0.83371,0.46654 -2.24435,1.82635 -2.43667,2.42853c-0.91243,2.85685 -3.16195,6.08716 -6.50403,6.5271c-4.04499,0.53246 -7.71296,-4.48472 -10.19646,-6.91147c-1.10078,-1.07562 -2.87034,-1.8549 -3.15991,-3.36647c-0.83858,-4.37744 1.67474,-8.01894 4.17495,-9.64791c0.9495,-0.61863 6.30613,-2.35026 7.54038,-2.6446c1.99854,-0.47661 5.63259,1.01381 7.70176,1.26889c0,0 0.4837,0.06046 0.99723,0.34158z" fill="#adb1b1"/><path d="M238.36819,141.71716l-0.05782,-0.00459c-1.40135,-0.60193 -3.51052,-0.44744 -4.20406,-1.80578c-1.533,-3.00248 1.32267,-6.94098 3.71202,-8.19869c1.51167,-0.79571 2.81501,-0.83467 4.06888,-0.51825l0.00625,-0.04999l2.63376,0.32922c1.25027,0.13791 2.22282,1.19778 2.22282,2.48481c0,0.77872 -0.35604,1.47428 -0.91421,1.93278l-1.98533,1.65444l-0.11877,-0.14252l-0.2983,0.42415c-0.66914,0.04493 -1.34,0.06974 -2.00831,0.12446c0.02451,0.04202 0.04795,0.08556 0.0702,0.13068c0.66175,0.3666 1.28,0.80783 1.92138,1.20936c0,0 2,1.5 0.5,3.5c-1.5,2 -3.5,0.5 -3.5,0.5c-0.64075,-0.52839 -1.36996,-1.03206 -2.04852,-1.57005z" fill="#969999"/></g><g stroke="none" stroke-width="0.5" stroke-linecap="butt"><path d="M228.80485,210.17058c-0.17147,-0.23922 -0.25481,-0.42279 -0.25481,-0.42279l-1.07457,-3.27256c0.8921,-5.1553 3.19215,-7.67824 8.84945,-5.84916c0.90905,0.29391 1.12298,-0.36502 2.07762,-0.32761c0.63167,0.02475 3.5377,-0.76914 4.10997,-1.03769c2.71494,-1.27405 3.86304,-0.32185 6.45853,1.82907c3.14138,2.60331 1.95783,8.70457 1.86779,12.1757c-0.03991,1.53854 0.59228,3.36582 -0.31893,4.60613c-2.63883,3.59189 -7.08181,1.21624 -9.97643,0.49118c-0.70138,-0.17568 -1.58818,0.36604 -3.31729,-0.12572c-0.98099,-0.279 -4.83076,-1.31878 -5.21272,-1.57385c-1.70863,-1.14101 -1.56056,-3.83889 -2.78081,-5.5293c0,0 -0.28464,-0.39573 -0.42781,-0.96339z" fill="#adb1b1"/><path d="M245.15895,207.90635l0.03596,0.04551c0.51179,1.43673 2.0595,2.87791 1.53537,4.31018c-1.15855,3.16586 -5.98808,3.75095 -8.53514,2.85466c-1.61144,-0.56705 -2.52641,-1.49605 -3.14721,-2.63048l-0.0409,0.02942l-1.54988,-2.15475c-0.74922,-1.01039 -0.63364,-2.4442 0.30989,-3.31951c0.57089,-0.52961 1.32295,-0.74165 2.0387,-0.64428l2.56314,0.33028l-0.02371,0.184l0.51383,-0.06977c0.48803,0.46 0.96247,0.93494 1.4571,1.38767c0.01413,-0.04655 0.03011,-0.09334 0.04806,-0.14034c-0.1813,-0.73446 -0.2783,-1.48779 -0.42015,-2.23108c0,0 -0.26054,-2.48639 2.22584,-2.74693c2.48639,-0.26054 2.74693,2.22584 2.74693,2.22584c0.04841,0.8291 0.1751,1.70625 0.24218,2.5696z" fill="#969999"/></g><path d="M246.55359,306.11878c0.64005,0.26388 1.29243,0.51556 1.62557,1.08296c3.51167,5.98116 -1.06084,11.36083 -6.54766,13.18578c-1.91476,0.63686 -5.24298,1.41306 -7.19184,0.56146c-1.11223,-0.48602 -1.68931,-1.74385 -2.50741,-2.64049c-1.49317,-1.63651 -3.32469,-3.0122 -4.50237,-4.88857c-2.66578,-4.24734 -1.16163,-10.78602 3.38533,-13.01818c5.09893,-2.50313 10.4051,-0.32735 14.88196,2.08853c0,0 2.19474,1.19713 0.99761,3.39187c-0.04567,0.08373 -0.0928,0.16253 -0.1412,0.23664z" fill="#8b8e8e" stroke="none" stroke-width="0.5" stroke-linecap="butt"/><path d="M245.20509,309.14224c-0.79057,2.37171 -3.16228,1.58114 -3.16228,1.58114l-0.22463,-0.74051c-0.47161,0.10769 -1.0916,-0.03686 -1.41482,0.32306c-0.25242,0.28108 -0.23363,0.68671 -0.17598,1.10921c0.18862,0.11847 0.37482,0.23962 0.55351,0.36899l0.06523,0.70494l0.28512,-0.1222l0.97823,2.28254c0.1438,0.31554 0.22391,0.66621 0.22391,1.0356c0,1.38071 -1.11929,2.5 -2.5,2.5c-0.61475,0 -1.17768,-0.22189 -1.61307,-0.58995l-1.98739,-1.65616l0.14053,-0.16864c-0.2927,-0.19679 -0.56326,-0.42383 -0.80404,-0.69153c-0.28356,-0.31527 -0.40993,-0.91101 -0.42788,-1.64285c-1.9471,-1.91377 -4.01186,-4.81315 -3.44861,-7.11192c1.52649,-6.23 7.06586,-4.44137 10.40759,-1.89285c0,0 0.69076,0.57563 0.89853,1.45072l0.62491,0.09813c0,0 2.37171,0.79057 1.58114,3.16228z" fill="#7a7c7c" stroke="none" stroke-width="0.5" stroke-linecap="butt"/><path d="M261.38391,182.30998c-0.88388,0.88388 -1.76777,0 -1.76777,0l-0.93767,-0.94178c-1.87946,-1.64326 -3.78736,-2.41147 -5.82732,-3.74722c-2.02317,-1.32476 -3.81138,-3.24842 -5.90623,-4.48887c-3.37056,-1.99585 -7.62287,-2.46179 -11.4449,-2.45601c0,0 -1.25,0 -1.25,-1.25c0,-0.33101 0.08765,-0.57436 0.21653,-0.75327c-0.28061,0.00364 -0.55905,0.00552 -0.83508,0.00526c-1.63674,-0.00153 -5.20224,-0.71554 -6.6531,-0.09714c-0.65514,0.27924 -0.90429,1.11044 -1.44574,1.57307c-3.7646,3.21661 -5.64163,6.30121 -7.86765,10.72524c-1.56319,5.51814 -2.95045,11.37608 -5.78751,16.36599c-2.35317,4.13883 -6.26112,7.24653 -8.23716,11.69293c-1.30152,2.92863 -2.7108,6.08348 -3.66038,9.1432c-1.03546,3.33643 -0.89285,6.61151 -2.31271,9.79775l-0.02963,0.06506c0,0 -0.51809,1.13758 -1.65566,0.61949c-1.13758,-0.51809 -0.61949,-1.65566 -0.61949,-1.65566l0.02963,-0.06506c1.4008,-2.99723 1.20787,-6.30507 2.20021,-9.50259c0.97765,-3.15017 2.41844,-6.41526 3.76744,-9.42633c2.02873,-4.52832 5.94522,-7.69835 8.34527,-11.90584c2.78056,-4.87456 4.07756,-10.64337 5.63006,-16.03524c2.36816,-4.76346 4.44387,-8.34874 8.59682,-11.73923c0.74024,-0.60433 1.20439,-1.603 2.0898,-1.96247c1.82747,-0.74193 5.5915,-0.09505 7.61214,-0.09316c6.51881,0.00608 14.03715,-0.98442 20.2615,1.06216c0,0 1.18585,0.39528 0.79057,1.58114c-0.39528,1.18585 -1.58114,0.79057 -1.58114,0.79057c-3.86037,-1.30681 -8.36849,-1.29923 -12.75879,-1.14051c2.76147,0.36223 5.48454,1.10835 7.86815,2.50679c2.13497,1.25257 3.95359,3.20556 6.00705,4.55155c2.10527,1.37996 4.14838,2.25607 6.10042,3.95422l1.06233,1.05822c0,0 0.88388,0.88388 0,1.76777z" fill="#8a9695" stroke="none" stroke-width="0.5" stroke-linecap="butt"/><path d="M283.50001,250.6761c-1.25,0 -1.25,-1.25 -1.25,-1.25l0.13219,-0.44053c-1.40968,-2.81676 -2.84931,-5.58801 -5.03061,-7.91136c-0.5688,-0.60584 -3.73465,-3.06914 -3.98987,-3.63159c-0.14255,-0.31414 -0.11171,-4.93813 -0.11171,-5.51652c0,-0.06163 -0.01252,-4.60205 0.03442,-4.79134c0.77104,-3.10897 3.34624,-5.99938 5.20391,-8.5037c0.81824,-1.95504 2.41126,-4.43098 2.77614,-6.50618c1.51876,-8.63769 -4.52026,-14.65155 -8.51889,-21.3896c-2.08598,-3.51506 -3.19161,-7.52606 -6.12947,-10.4253c0,0 -0.88388,-0.88388 0,-1.76777c0.88388,-0.88388 1.76777,0 1.76777,0c3.09796,3.13322 4.29164,7.17634 6.51163,10.91721c4.34695,7.32498 10.47702,13.73807 8.8312,23.09838c-0.40956,2.32932 -2.13559,5.13009 -3.06548,7.30959c-1.67217,2.28703 -4.23646,5.02252 -4.94566,7.85003c-0.34131,1.36078 0.03442,2.80573 0.03442,4.20866c0,1.49496 -0.72945,3.12212 -0.11171,4.48348c0.63458,1.39846 2.48475,1.83387 3.53589,2.95346c2.34856,2.50149 3.92489,5.46947 5.44362,8.50359l0.13219,1.55947c0,0 0,1.25 -1.25,1.25z" fill="#8a9695" stroke="none" stroke-width="0.5" stroke-linecap="butt"/><path d="M210.54366,278.67534c-1.24924,0.04364 -1.29288,-1.2056 -1.29288,-1.2056l-0.01698,-0.48594c-0.20399,-5.84263 -1.04405,-10.5192 -3.77368,-15.77587c-1.23034,-2.36936 -1.90381,-5.72294 -4.96011,-5.53183c0,0 -1.25,0 -1.25,-1.25c0,-1.25 1.25,-1.25 1.25,-1.25c4.43705,0.17035 5.34026,3.3305 7.17939,6.88084c2.88526,5.56984 3.83625,10.64182 4.05287,16.83958l0.01698,0.48594c0,0 0.04364,1.24924 -1.2056,1.29288z" fill="#8a9695" stroke="none" stroke-width="0.5" stroke-linecap="butt"/><path d="M234.50004,120.6761c-1.25,0 -1.25,-1.25 -1.25,-1.25l0.01256,-1.17678c0.09763,-0.68342 0.19526,-1.36684 0.29289,-2.05025c0.82597,-5.78182 2.89317,-10.96485 4.21579,-16.49695c0.565,-2.36322 2.07372,-4.6175 2.49771,-6.9929c1.0606,-5.94201 -1.83981,-13.26358 -2.99468,-19.03798c0,0 -0.24515,-1.22573 0.98058,-1.47087c1.22573,-0.24515 1.47087,0.98058 1.47087,0.98058c1.23074,6.15372 4.10881,13.63013 3.00532,19.96202c-0.42565,2.44243 -1.95193,4.71941 -2.52804,7.13931c-1.30313,5.47364 -3.35714,10.56161 -4.17267,16.27034c-0.09763,0.68342 -0.19526,1.36684 -0.29289,2.05025l0.01256,0.82322c0,0 0,1.25 -1.25,1.25z" fill="#8a9695" stroke="none" stroke-width="0.5" stroke-linecap="butt"/><path d="M245.73282,55.63286c-0.20676,1.23278 -1.43954,1.02602 -1.43954,1.02602l-2.4099,-0.40642c-3.24441,-0.95995 -4.70165,-0.51661 -7.26723,-2.94247c0,0 -0.88388,-0.88388 0,-1.76777c0.88388,-0.88388 1.76777,0 1.76777,0c1.86417,2.02018 3.41951,1.50663 6.05886,2.27363l2.26401,0.37747c0,0 1.23278,0.20676 1.02602,1.43954z" fill="#8a9695" stroke="none" stroke-width="0.5" stroke-linecap="butt"/><path d="M203.50004,177.6761c-1.25,0 -1.25,-1.25 -1.25,-1.25v-1c0,-4.83914 -1,-9.05171 -1,-14c0,0 0,-1.25 1.25,-1.25c1.25,0 1.25,1.25 1.25,1.25c0,4.95494 1,9.11609 1,14v1c0,0 0,1.25 -1.25,1.25z" fill="#8a9695" stroke="none" stroke-width="0.5" stroke-linecap="butt"/><path d="M275.50001,184.6761c-1.25,0 -1.25,-1.25 -1.25,-1.25l0.00019,-0.97808c-0.09998,-5.69951 -0.99547,-11.34706 -1.00019,-17.02192c0,0 0,-1.25 1.25,-1.25c1.25,0 1.25,1.25 1.25,1.25c-0.00499,5.65587 0.90013,11.2955 0.99981,16.97808l0.00019,1.02192c0,0 0,1.25 -1.25,1.25z" fill="#8a9695" stroke="none" stroke-width="0.5" stroke-linecap="butt"/><path d="M182.38392,231.54221c0.88388,0.88388 0,1.76777 0,1.76777l-0.23223,0.23223c-1.46975,1.45228 -2.21939,2.59361 -4.36446,3.10044c-0.91164,0.2154 -5.60031,-0.80203 -6.19231,0.58487c-0.24266,0.56849 0.15853,1.22698 0.19592,1.84396c0.15731,2.59606 2.58722,4.90787 4.8291,7.07778l0.2088,-0.261l1.94315,1.55452c0.29115,0.22886 0.47815,0.58424 0.47815,0.9833c0,0.69036 -0.55964,1.25 -1.25,1.25h-2.5c-0.35435,0 -5.09548,0.01002 -5.2875,-0.03351c-4.79593,-1.08718 -8.76109,-6.55457 -10.83053,-10.65747c0,0 -0.55902,-1.11803 0.55902,-1.67705c1.11803,-0.55902 1.67705,0.55902 1.67705,0.55902c1.67839,3.39049 5.16986,8.46279 9.16947,9.34253c1.2295,0.27044 2.50604,0.0859 3.77309,0.00193c-2.83309,-1.61064 -5.20179,-5.21885 -5.26801,-8.04557c-0.02465,-1.05227 -0.41053,-2.2455 0.11851,-3.15544c1.8145,-3.12093 5.21396,-1.27642 7.80171,-1.80099c1.38412,-0.28058 2.27073,-1.52202 3.17107,-2.43509l0.23223,-0.23223c0,0 0.88388,-0.88388 1.76777,0z" fill="#d9dcdc" stroke="none" stroke-width="0.5" stroke-linecap="butt"/><path d="M315.38391,244.54221c0.88388,0.88388 0,1.76777 0,1.76777l-1.50354,1.30685c-1.42894,0.44609 -2.60115,1.52286 -4.01811,2.00564c-0.65475,0.22308 -1.40266,-0.14221 -2.07504,0.0202c-0.81322,0.19642 -1.45075,1.05044 -2.28719,1.03344c-1.26574,-0.02573 -3.0468,-1.65425 -4.28719,-2.03344c-0.87349,-0.26703 -2.30544,0.36958 -2.70249,-0.453c-0.56694,-1.17454 -0.05202,-2.74503 0.61902,-3.86337c0.51506,-0.85839 1.72579,-1.01532 2.60048,-1.50219c1.64142,-0.91365 3.48608,-2.22885 5.40465,-3.148c-1.54482,0 -3.08964,0 -4.63447,0c0,0 -1.25,0 -1.25,-1.25c0,-1.25 1.25,-1.25 1.25,-1.25c3,0 6,0 9,0h2c0.69036,0 1.25,0.55964 1.25,1.25c0,0.499 -0.2924,0.92971 -0.7152,1.13014l-2.21185,1.10592l-0.16677,-0.33354c-2.0812,1.24321 -4.22422,2.15419 -6.49488,3.50029c-0.73336,0.43475 -1.49582,0.81916 -2.2574,1.20233c-0.59596,0.29984 -1.26104,0.47248 -1.81382,0.84599c-0.27302,0.18448 -0.89784,0.64351 -0.6004,0.7853c0.41352,0.19712 0.84671,-0.53453 1.29751,-0.453c1.37813,0.24924 2.313,2.01029 3.71281,1.96656c0.65525,-0.02047 1.07836,-0.80151 1.71281,-0.96656c0.62102,-0.16156 1.31723,0.22618 1.92496,0.0202c1.40591,-0.47652 2.57033,-1.53485 3.98189,-1.99436l0.49646,-0.69315c0,0 0.88388,-0.88388 1.76777,0z" fill="#d9dcdc" stroke="none" stroke-width="0.5" stroke-linecap="butt"/><path d="M227.71272,229.12293c0.30317,1.21268 -0.90951,1.51585 -0.90951,1.51585l-1.45274,0.36319c2.29618,1.7466 4.73811,4.4198 7.27492,5.69565c3.26939,1.64428 7.66353,-0.19941 11.11246,0.50132c5.14612,1.04556 9.48937,4.47426 12.73794,8.44588c0.36962,0.45188 2.67779,4.31204 2.69694,4.45494c0.30759,2.29608 -1.84976,5.90207 -3.00638,7.72402c-2.39057,3.59527 -7.92959,6.52251 -12.42719,4.49863c-0.87057,-0.39175 -1.35965,-1.34217 -2.07912,-1.96965c-1.84546,-1.60952 -3.86783,-3.10589 -5.8108,-4.59662c-5.96124,-4.57371 -12.26597,-8.66267 -18.13006,-13.35395c0,0 -0.97609,-0.78087 -0.19522,-1.75695c0.78087,-0.97609 1.75695,-0.19522 1.75695,-0.19522c5.8505,4.6804 12.14245,8.75936 18.09012,13.32265c1.97726,1.51703 4.10865,3.03538 5.951,4.71253c0.52711,0.47984 0.81284,1.2613 1.45807,1.56423c3.22605,1.5146 7.70038,-0.98267 9.2814,-3.5746c0.82686,-1.27632 2.8525,-4.40725 2.63336,-6.04314c-0.1902,-1.41981 -2.9279,-3.97376 -3.84647,-4.88947c-2.75871,-2.75011 -5.59867,-5.06906 -9.58616,-5.88895c-3.80898,-0.78318 -8.03086,1.07413 -11.73825,-0.71136c-2.71653,-1.30829 -5.34155,-4.19166 -7.77394,-6.01581l-1.98836,-1.49127c-0.31022,-0.22746 -0.51164,-0.59457 -0.51164,-1.00873c0,-0.59488 0.41555,-1.0927 0.9722,-1.21902l3.97463,-0.99366c0,0 1.21268,-0.30317 1.51585,0.90951z" fill="#d9dcdc" stroke="none" stroke-width="0.5" stroke-linecap="butt"/><path d="M257.52611,205.17637c1.24973,0.02608 1.22365,1.27581 1.22365,1.27581l-0.01321,0.63299c-0.10488,5.00579 -1.50285,9.51813 -1.9926,14.4641c-0.38241,3.86198 0.00608,7.99327 0.00608,11.87683c0,0 0,1.25 -1.25,1.25c-1.25,0 -1.25,-1.25 -1.25,-1.25c0,-3.96726 -0.38462,-8.17749 0.00608,-12.12317c0.48292,-4.87697 1.8786,-9.34379 1.98098,-14.26992l0.01321,-0.63299c0,0 0.02608,-1.24973 1.27581,-1.22365z" fill="#d9dcdc" stroke="none" stroke-width="0.5" stroke-linecap="butt"/><path d="M235.38391,150.30998c-0.88388,0.88388 -1.76777,0 -1.76777,0l-0.23223,-0.23223c-1.73112,-1.75559 -3.25326,-2.4388 -5.4429,-3.53362c0,0 -1.11803,-0.55902 -0.55902,-1.67705c0.55902,-1.11803 1.67705,-0.55902 1.67705,-0.55902c2.42403,1.21202 4.1436,2.07605 6.09263,4.00192l0.23223,0.23223c0,0 0.88388,0.88388 0,1.76777z" fill="#d9dcdc" stroke="none" stroke-width="0.5" stroke-linecap="butt"/><path d="M252.75004,149.4261c0,1.25 -1.25,1.25 -1.25,1.25c-0.83333,0 -3.16667,0 -4,0c0,0 -1.25,0 -1.25,-1.25c0,-1.25 1.25,-1.25 1.25,-1.25c0.83333,0 1.66667,0 2.5,0h1.5c0,0 1.25,0 1.25,1.25z" fill="#d9dcdc" stroke="none" stroke-width="0.5" stroke-linecap="butt"/><path d="M222.74541,102.3189c0.1072,1.2454 -1.1382,1.35259 -1.1382,1.35259l-2.01876,0.17278c-2.38173,0.39794 -4.63275,0.82694 -7.05057,0.83125c-2.66479,0.14233 -4.25481,1.48379 -6.80148,1.97802c-1.52698,0.29634 -3.04933,-0.62386 -4.55391,-1.01845c-1.57305,-0.41254 -3.30397,-0.44258 -4.71613,-1.24911c-1.03142,-0.58908 -2.80025,-0.79974 -2.96528,-1.97601c-0.30667,-2.18579 3.11183,-3.36009 4.41469,-4.09071c3.6177,-2.02872 6.03555,-1.9343 10.05667,-2.20998c3.20374,-0.21964 6.30397,-0.92944 9.52758,-0.93319c0,0 1.25,0 1.25,1.25c0,1.25 -1.25,1.25 -1.25,1.25c-3.16292,-0.00397 -6.21131,0.7117 -9.35659,0.92733c-2.35655,0.16156 -4.7496,-0.36614 -6.98783,0.64084c-1.36688,0.61496 -2.5652,1.56315 -3.92414,2.19547c-0.41629,0.1937 -1.45027,0.11657 -1.26804,0.53801c0.20765,0.48023 1.06354,-0.01178 1.56298,0.14409c0.71888,0.22436 1.30635,0.79289 2.03603,0.97913c0.72932,0.18615 1.52705,-0.07491 2.25511,0.11612c1.15527,0.30314 2.28586,1.26513 3.44609,0.98155c2.64564,-0.64664 4.37404,-1.83382 7.19852,-2.02198c2.33824,0.00445 4.50809,-0.42944 6.81337,-0.81274l2.1173,-0.18323c0,0 1.2454,-0.1072 1.35259,1.1382z" fill="#b9bbbb" stroke="none" stroke-width="0.5" stroke-linecap="butt"/><path d="M263.25001,105.42626c-0.00016,-1.25 1.24984,-1.25016 1.24984,-1.25016l1.91014,-0.00025c4.13643,-0.00112 8.27302,-0.00372 12.40919,-0.05137c3.2389,-0.41953 5.91173,-1.97943 8.91547,-3.21276c0.56101,-0.23035 1.33643,-0.15893 1.70205,-0.64279c0.43766,-0.57921 -0.49222,-2.5199 -0.9957,-2.7248c-1.47191,-0.59903 -5.31131,0.13197 -6.94098,0.13197c-6.66667,0 -13.33333,0 -20,0c0,0 -1.25,0 -1.25,-1.25c0,-1.25 1.25,-1.25 1.25,-1.25c6.66667,0 13.33333,0 20,0c1.81527,0 6.51186,-0.71972 8.05902,0.13197c1.9088,1.05076 3.14127,4.25263 2.0043,6.2752c-0.52198,0.92855 -1.82179,1.10811 -2.77009,1.59328c-3.1082,1.59021 -6.34624,2.96733 -9.79222,3.44132c-4.19651,0.05594 -8.39349,0.05685 -12.59035,0.05799l-1.9105,0.00025c0,0 -1.25,0.00016 -1.25016,-1.24984z" fill="#b9bbbb" stroke="none" stroke-width="0.5" stroke-linecap="butt"/><path d="M246.75003,126.4261c0,1.25 -1.25,1.25 -1.25,1.25h-1c-4.60146,0 -8.36047,-0.12701 -12.26443,2.76067c-1.17994,0.87277 -4.06994,3.4945 -4.55603,4.90309c-0.49875,1.44529 0.20592,3.06333 0.07046,4.58624c-0.04894,0.55018 -0.75669,1.22554 -0.36612,1.61612c0.39057,0.39057 1.06593,-0.31718 1.61612,-0.36612c0.83006,-0.07383 1.66667,0 2.5,0c0,0 1.25,0 1.25,1.25c0,1.25 -1.25,1.25 -1.25,1.25c-0.87527,0 -5.42813,0.08964 -5.88388,-0.36612c-0.80224,-0.80224 -0.29566,-2.25153 -0.36612,-3.38388c-0.20431,-3.28347 -0.3203,-5.18993 1.87123,-7.77554c2.51666,-2.96921 6.19222,-5.97284 10.09158,-6.94102c2.11733,-0.52571 5.11008,-0.03344 7.28719,-0.03344h1c0,0 1.25,0 1.25,1.25z" fill="#b9bbbb" stroke="none" stroke-width="0.5" stroke-linecap="butt"/><path d="M255.50003,146.6761c-1.25,0 -1.25,-1.25 -1.25,-1.25c0,-2.33333 0,-6.66667 0,-9c0,0 0,-1.25 1.25,-1.25c1.25,0 1.25,1.25 1.25,1.25c0,2.33333 0,4.66667 0,7v2c0,0 0,1.25 -1.25,1.25z" fill="#b9bbbb" stroke="none" stroke-width="0.5" stroke-linecap="butt"/><path d="M187.75003,231.4261c0,1.25 -1.25,1.25 -1.25,1.25l-0.44098,-0.13197c-0.73064,0.35895 -1.41128,0.84604 -2.19193,1.07685c-0.55442,0.16392 -1.27373,-0.26849 -1.73243,0.08343c-1.09845,0.84276 -1.13132,5.10455 -1.38971,6.33394c-0.10536,0.50131 -0.68858,1.08557 -0.37471,1.49042c0.2608,0.3364 0.78629,-0.35236 1.20704,-0.41683c1.51914,-0.23276 3.07172,-0.37892 4.52744,-0.87171c0,0 1.18585,-0.39528 1.58114,0.79057c0.39528,1.18585 -0.79057,1.58114 -0.79057,1.58114c-1.46955,0.48319 -6.90877,2.21174 -8.26552,0.71147c-0.78913,-0.87261 -0.39166,-2.33319 -0.37471,-3.50958c0.02897,-2.0109 0.77859,-6.72131 2.36811,-8.10075c1.14312,-0.99204 2.9698,-0.71676 4.31782,-1.40502l1.55902,-0.13197c0,0 1.25,0 1.25,1.25z" fill="#b9bbbb" stroke="none" stroke-width="0.5" stroke-linecap="butt"/><path d="M307.54008,243.11947c-0.69338,1.04006 -1.73344,0.34669 -1.73344,0.34669l-1.83975,-1.2265c-1.95623,-1.30415 -3.09397,-2.64127 -5.46688,-2.56356c0,0 -1.25,0 -1.25,-1.25c0,-1.25 1.25,-1.25 1.25,-1.25c3.01858,0.06854 4.38815,1.33979 6.85363,2.98344l1.83975,1.2265c0,0 1.04006,0.69338 0.34669,1.73344z" fill="#b9bbbb" stroke="none" stroke-width="0.5" stroke-linecap="butt"/><path d="M258.77275,196.64598c-1.21989,0.27273 -1.49261,-0.94716 -1.49261,-0.94716l0.04713,-0.67822c-1.83939,-1.84287 -3.0376,-3.3272 -5.38627,-4.47647c0,0 -1.11803,-0.55902 -0.55902,-1.67705c0.55902,-1.11803 1.67705,-0.55902 1.67705,-0.55902c2.59398,1.32037 4.00088,2.9063 6.03756,4.94634l0.62331,1.89897c0,0 0.27273,1.21989 -0.94716,1.49261z" fill="#eff4f4" stroke="none" stroke-width="0.5" stroke-linecap="butt"/><path d="M193.50002,267.6761c-1.25,0 -1.25,-1.25 -1.25,-1.25l0.30093,-0.18651c-2.18267,-2.54645 -3.20875,-3.33078 -3.30093,-6.81349c0,0 0,-1.25 1.25,-1.25c1.25,0 1.25,1.25 1.25,1.25c-0.10278,2.7352 0.97247,3.17215 2.69907,5.18651l0.30093,1.81349c0,0 0,1.25 -1.25,1.25z" fill="#eff4f4" stroke="none" stroke-width="0.5" stroke-linecap="butt"/><path d="M231.70941,42.74213c-0.31603,1.20939 -1.52542,0.89336 -1.52542,0.89336l-2.20951,-0.57737c-4.39673,-1.15018 -8.89362,-3.40524 -13.47446,-3.38202c0,0 -1.25,0 -1.25,-1.25c0,-1.25 1.25,-1.25 1.25,-1.25c4.85506,0.02112 9.4505,2.24794 14.10652,3.46324l2.20951,0.57737c0,0 1.20939,0.31603 0.89336,1.52542z" fill="#eff4f4" stroke="none" stroke-width="0.5" stroke-linecap="butt"/><path d="M257.52603,47.2096c-0.78351,-0.97397 0.19047,-1.75748 0.19047,-1.75748l1.72499,-1.37734c4.53878,-2.21242 9.00165,-4.58905 13.5219,-6.77765c3.69075,-1.78697 7.32586,-2.80233 10.8935,-4.94291c0,0 1.07187,-0.64312 1.71499,0.42875c0.64312,1.07187 -0.42875,1.71499 -0.42875,1.71499c-3.63414,2.18048 -7.35437,3.23672 -11.1065,5.05709c-4.43277,2.15059 -8.79044,4.49007 -13.25876,6.63257l-1.49436,1.21244c0,0 -0.97397,0.78351 -1.75748,-0.19047z" fill="#eff4f4" stroke="none" stroke-width="0.5" stroke-linecap="butt"/><g stroke="none" stroke-width="0.5" stroke-linecap="butt"><g><path d="M219.86857,93.44781c0.21482,0.0272 0.35554,0.07411 0.35554,0.07411l2.30279,1.0579c2.33422,3.0607 2.54412,5.56369 -1.27315,7.69982c-0.61337,0.34324 -1.65121,1.34368 -1.7927,1.78672c-0.67129,2.10184 -2.32631,4.47843 -4.78514,4.8021c-2.97598,0.39174 -5.67457,-3.29949 -7.50173,-5.0849c-0.80987,-0.79135 -2.11176,-1.36468 -2.3248,-2.47677c-0.61696,-3.22056 1.23214,-5.89969 3.07159,-7.09815c0.69857,-0.45514 4.63954,-1.72913 5.5476,-1.94568c1.47036,-0.35065 4.144,0.74588 5.66633,0.93354c0,0 0.35586,0.04449 0.73368,0.25131z" fill="#adb1b1"/><path d="M212.67877,102.87903l-0.04254,-0.00338c-1.031,-0.44285 -2.58275,-0.32919 -3.09301,-1.32855c-1.12786,-2.20898 0.97311,-5.10661 2.731,-6.03193c1.11217,-0.58542 2.07106,-0.61408 2.99355,-0.38129l0.00459,-0.03677l1.9377,0.24221c0.91985,0.10147 1.63537,0.88123 1.63537,1.82812c0,0.57292 -0.26195,1.08466 -0.6726,1.42198l-1.46064,1.2172l-0.08738,-0.10486l-0.21946,0.31206c-0.4923,0.03306 -0.98586,0.05131 -1.47755,0.09157c0.01803,0.03091 0.03528,0.06295 0.05165,0.09614c0.48686,0.26972 0.94172,0.59433 1.41359,0.88975c0,0 1.47144,1.10358 0.36786,2.57502c-1.10358,1.47143 -2.57502,0.36786 -2.57502,0.36786c-0.47141,-0.38875 -1.0079,-0.7593 -1.50714,-1.15511z" fill="#969999"/></g><g><path d="M272.86857,93.44781c0.21482,0.0272 0.35554,0.07411 0.35554,0.07411l2.30279,1.0579c2.33421,3.0607 2.54412,5.56369 -1.27315,7.69982c-0.61338,0.34324 -1.65121,1.34368 -1.7927,1.78672c-0.67129,2.10184 -2.32631,4.47843 -4.78514,4.8021c-2.97598,0.39174 -5.67457,-3.29949 -7.50172,-5.0849c-0.80987,-0.79135 -2.11177,-1.36468 -2.32481,-2.47677c-0.61696,-3.22056 1.23214,-5.89969 3.07159,-7.09815c0.69856,-0.45514 4.63954,-1.72913 5.5476,-1.94568c1.47037,-0.35065 4.144,0.74588 5.66633,0.93354c0,0 0.35586,0.04449 0.73368,0.25131z" fill="#adb1b1"/><path d="M265.67877,102.87903l-0.04254,-0.00338c-1.031,-0.44285 -2.58276,-0.32919 -3.09301,-1.32855c-1.12786,-2.20898 0.97311,-5.10661 2.731,-6.03193c1.11217,-0.58542 2.07106,-0.61408 2.99356,-0.38129l0.00459,-0.03677l1.9377,0.24221c0.91985,0.10147 1.63537,0.88123 1.63537,1.82812c0,0.57292 -0.26194,1.08466 -0.6726,1.42198l-1.46064,1.2172l-0.08738,-0.10486l-0.21947,0.31206c-0.4923,0.03306 -0.98586,0.05131 -1.47755,0.09157c0.01803,0.03091 0.03528,0.06295 0.05165,0.09614c0.48686,0.26972 0.94172,0.59433 1.41359,0.88975c0,0 1.47144,1.10358 0.36786,2.57502c-1.10358,1.47143 -2.57502,0.36786 -2.57502,0.36786c-0.47141,-0.38875 -1.0079,-0.7593 -1.50714,-1.15511z" fill="#969999"/></g></g></g></g></svg>