<svg version="1.1" xmlns="http://www.w3.org/2000/svg" xmlns:xlink="http://www.w3.org/1999/xlink" width="48.28583" height="42.74882" viewBox="0,0,48.28583,42.74882"><defs><linearGradient x1="265.5464" y1="170.32547" x2="254.43806" y2="170.32547" gradientUnits="userSpaceOnUse" id="color-1"><stop offset="0" stop-color="#404040"/><stop offset="1" stop-color="#555555"/></linearGradient><linearGradient x1="254.43806" y1="170.32547" x2="265.5464" y2="170.32547" gradientUnits="userSpaceOnUse" id="color-2"><stop offset="0" stop-color="#404040"/><stop offset="1" stop-color="#232323"/></linearGradient><linearGradient x1="223.21131" y1="170.30416" x2="234.31966" y2="170.30416" gradientUnits="userSpaceOnUse" id="color-3"><stop offset="0" stop-color="#404040"/><stop offset="1" stop-color="#555555"/></linearGradient><linearGradient x1="223.21131" y1="170.30416" x2="234.31966" y2="170.30416" gradientUnits="userSpaceOnUse" id="color-4"><stop offset="0" stop-color="#232323"/><stop offset="1" stop-color="#404040"/></linearGradient><linearGradient x1="265.5464" y1="168.76991" x2="254.43806" y2="168.76991" gradientUnits="userSpaceOnUse" id="color-5"><stop offset="0" stop-color="#404040"/><stop offset="1" stop-color="#555555"/></linearGradient><linearGradient x1="254.43806" y1="168.76991" x2="265.5464" y2="168.76991" gradientUnits="userSpaceOnUse" id="color-6"><stop offset="0" stop-color="#404040"/><stop offset="1" stop-color="#232323"/></linearGradient><linearGradient x1="223.21131" y1="168.7486" x2="234.31966" y2="168.7486" gradientUnits="userSpaceOnUse" id="color-7"><stop offset="0" stop-color="#404040"/><stop offset="1" stop-color="#555555"/></linearGradient><linearGradient x1="223.21131" y1="168.7486" x2="234.31966" y2="168.7486" gradientUnits="userSpaceOnUse" id="color-8"><stop offset="0" stop-color="#232323"/><stop offset="1" stop-color="#404040"/></linearGradient><linearGradient x1="265.61813" y1="169.60474" x2="254.50979" y2="169.60474" gradientUnits="userSpaceOnUse" id="color-9"><stop offset="0" stop-color="#404040"/><stop offset="1" stop-color="#555555"/></linearGradient><linearGradient x1="254.50979" y1="169.60474" x2="265.61813" y2="169.60474" gradientUnits="userSpaceOnUse" id="color-10"><stop offset="0" stop-color="#404040"/><stop offset="1" stop-color="#232323"/></linearGradient><linearGradient x1="223.28304" y1="169.58343" x2="234.39139" y2="169.58343" gradientUnits="userSpaceOnUse" id="color-11"><stop offset="0" stop-color="#404040"/><stop offset="1" stop-color="#555555"/></linearGradient><linearGradient x1="223.28304" y1="169.58343" x2="234.39139" y2="169.58343" gradientUnits="userSpaceOnUse" id="color-12"><stop offset="0" stop-color="#232323"/><stop offset="1" stop-color="#404040"/></linearGradient><linearGradient x1="265.61813" y1="168.04918" x2="254.50979" y2="168.04918" gradientUnits="userSpaceOnUse" id="color-13"><stop offset="0" stop-color="#404040"/><stop offset="1" stop-color="#555555"/></linearGradient><linearGradient x1="254.50979" y1="168.04918" x2="265.61813" y2="168.04918" gradientUnits="userSpaceOnUse" id="color-14"><stop offset="0" stop-color="#404040"/><stop offset="1" stop-color="#232323"/></linearGradient><linearGradient x1="223.28304" y1="168.02787" x2="234.39139" y2="168.02787" gradientUnits="userSpaceOnUse" id="color-15"><stop offset="0" stop-color="#404040"/><stop offset="1" stop-color="#555555"/></linearGradient><linearGradient x1="223.28304" y1="168.02787" x2="234.39139" y2="168.02787" gradientUnits="userSpaceOnUse" id="color-16"><stop offset="0" stop-color="#232323"/><stop offset="1" stop-color="#404040"/></linearGradient><linearGradient x1="265.77662" y1="194.17094" x2="254.66828" y2="194.17094" gradientUnits="userSpaceOnUse" id="color-17"><stop offset="0" stop-color="#404040"/><stop offset="1" stop-color="#555555"/></linearGradient><linearGradient x1="254.66828" y1="194.17094" x2="265.77662" y2="194.17094" gradientUnits="userSpaceOnUse" id="color-18"><stop offset="0" stop-color="#404040"/><stop offset="1" stop-color="#232323"/></linearGradient><linearGradient x1="223.44153" y1="194.14963" x2="234.54988" y2="194.14963" gradientUnits="userSpaceOnUse" id="color-19"><stop offset="0" stop-color="#404040"/><stop offset="1" stop-color="#555555"/></linearGradient><linearGradient x1="223.44153" y1="194.14963" x2="234.54988" y2="194.14963" gradientUnits="userSpaceOnUse" id="color-20"><stop offset="0" stop-color="#232323"/><stop offset="1" stop-color="#404040"/></linearGradient><linearGradient x1="265.77662" y1="192.61538" x2="254.66828" y2="192.61538" gradientUnits="userSpaceOnUse" id="color-21"><stop offset="0" stop-color="#404040"/><stop offset="1" stop-color="#555555"/></linearGradient><linearGradient x1="254.66828" y1="192.61538" x2="265.77662" y2="192.61538" gradientUnits="userSpaceOnUse" id="color-22"><stop offset="0" stop-color="#404040"/><stop offset="1" stop-color="#232323"/></linearGradient><linearGradient x1="223.44153" y1="192.59407" x2="234.54988" y2="192.59407" gradientUnits="userSpaceOnUse" id="color-23"><stop offset="0" stop-color="#404040"/><stop offset="1" stop-color="#555555"/></linearGradient><linearGradient x1="223.44153" y1="192.59407" x2="234.54988" y2="192.59407" gradientUnits="userSpaceOnUse" id="color-24"><stop offset="0" stop-color="#232323"/><stop offset="1" stop-color="#404040"/></linearGradient><linearGradient x1="265.84835" y1="193.45021" x2="254.74001" y2="193.45021" gradientUnits="userSpaceOnUse" id="color-25"><stop offset="0" stop-color="#404040"/><stop offset="1" stop-color="#555555"/></linearGradient><linearGradient x1="254.74001" y1="193.45021" x2="265.84835" y2="193.45021" gradientUnits="userSpaceOnUse" id="color-26"><stop offset="0" stop-color="#404040"/><stop offset="1" stop-color="#232323"/></linearGradient><linearGradient x1="223.51326" y1="193.4289" x2="234.62161" y2="193.4289" gradientUnits="userSpaceOnUse" id="color-27"><stop offset="0" stop-color="#404040"/><stop offset="1" stop-color="#555555"/></linearGradient><linearGradient x1="223.51326" y1="193.4289" x2="234.62161" y2="193.4289" gradientUnits="userSpaceOnUse" id="color-28"><stop offset="0" stop-color="#232323"/><stop offset="1" stop-color="#404040"/></linearGradient><linearGradient x1="265.84835" y1="191.89465" x2="254.74001" y2="191.89465" gradientUnits="userSpaceOnUse" id="color-29"><stop offset="0" stop-color="#404040"/><stop offset="1" stop-color="#555555"/></linearGradient><linearGradient x1="254.74001" y1="191.89465" x2="265.84835" y2="191.89465" gradientUnits="userSpaceOnUse" id="color-30"><stop offset="0" stop-color="#404040"/><stop offset="1" stop-color="#232323"/></linearGradient><linearGradient x1="223.51326" y1="191.87334" x2="234.62161" y2="191.87334" gradientUnits="userSpaceOnUse" id="color-31"><stop offset="0" stop-color="#404040"/><stop offset="1" stop-color="#555555"/></linearGradient><linearGradient x1="223.51326" y1="191.87334" x2="234.62161" y2="191.87334" gradientUnits="userSpaceOnUse" id="color-32"><stop offset="0" stop-color="#232323"/><stop offset="1" stop-color="#404040"/></linearGradient><linearGradient x1="261.27959" y1="194.15665" x2="250.17125" y2="194.15665" gradientUnits="userSpaceOnUse" id="color-33"><stop offset="0" stop-color="#404040"/><stop offset="1" stop-color="#555555"/></linearGradient><linearGradient x1="250.17125" y1="194.15665" x2="261.27959" y2="194.15665" gradientUnits="userSpaceOnUse" id="color-34"><stop offset="0" stop-color="#404040"/><stop offset="1" stop-color="#232323"/></linearGradient><linearGradient x1="218.9445" y1="194.13534" x2="230.05285" y2="194.13534" gradientUnits="userSpaceOnUse" id="color-35"><stop offset="0" stop-color="#404040"/><stop offset="1" stop-color="#555555"/></linearGradient><linearGradient x1="218.9445" y1="194.13534" x2="230.05285" y2="194.13534" gradientUnits="userSpaceOnUse" id="color-36"><stop offset="0" stop-color="#232323"/><stop offset="1" stop-color="#404040"/></linearGradient><linearGradient x1="261.27959" y1="192.60109" x2="250.17125" y2="192.60109" gradientUnits="userSpaceOnUse" id="color-37"><stop offset="0" stop-color="#404040"/><stop offset="1" stop-color="#555555"/></linearGradient><linearGradient x1="250.17125" y1="192.60109" x2="261.27959" y2="192.60109" gradientUnits="userSpaceOnUse" id="color-38"><stop offset="0" stop-color="#404040"/><stop offset="1" stop-color="#232323"/></linearGradient><linearGradient x1="218.9445" y1="192.57978" x2="230.05285" y2="192.57978" gradientUnits="userSpaceOnUse" id="color-39"><stop offset="0" stop-color="#404040"/><stop offset="1" stop-color="#555555"/></linearGradient><linearGradient x1="218.9445" y1="192.57978" x2="230.05285" y2="192.57978" gradientUnits="userSpaceOnUse" id="color-40"><stop offset="0" stop-color="#232323"/><stop offset="1" stop-color="#404040"/></linearGradient><linearGradient x1="261.05737" y1="170.37887" x2="249.94902" y2="170.37887" gradientUnits="userSpaceOnUse" id="color-41"><stop offset="0" stop-color="#404040"/><stop offset="1" stop-color="#555555"/></linearGradient><linearGradient x1="249.94902" y1="170.37887" x2="261.05737" y2="170.37887" gradientUnits="userSpaceOnUse" id="color-42"><stop offset="0" stop-color="#404040"/><stop offset="1" stop-color="#232323"/></linearGradient><linearGradient x1="218.72228" y1="170.35756" x2="229.83063" y2="170.35756" gradientUnits="userSpaceOnUse" id="color-43"><stop offset="0" stop-color="#404040"/><stop offset="1" stop-color="#555555"/></linearGradient><linearGradient x1="218.72228" y1="170.35756" x2="229.83063" y2="170.35756" gradientUnits="userSpaceOnUse" id="color-44"><stop offset="0" stop-color="#232323"/><stop offset="1" stop-color="#404040"/></linearGradient><linearGradient x1="261.05737" y1="168.62129" x2="249.94902" y2="168.62129" gradientUnits="userSpaceOnUse" id="color-45"><stop offset="0" stop-color="#404040"/><stop offset="1" stop-color="#555555"/></linearGradient><linearGradient x1="249.94902" y1="168.62129" x2="261.05737" y2="168.62129" gradientUnits="userSpaceOnUse" id="color-46"><stop offset="0" stop-color="#404040"/><stop offset="1" stop-color="#232323"/></linearGradient><linearGradient x1="218.72228" y1="168.59999" x2="229.83063" y2="168.59999" gradientUnits="userSpaceOnUse" id="color-47"><stop offset="0" stop-color="#404040"/><stop offset="1" stop-color="#555555"/></linearGradient><linearGradient x1="218.72228" y1="168.59999" x2="229.83063" y2="168.59999" gradientUnits="userSpaceOnUse" id="color-48"><stop offset="0" stop-color="#232323"/><stop offset="1" stop-color="#404040"/></linearGradient><linearGradient x1="261.15459" y1="167.53165" x2="250.04625" y2="167.53165" gradientUnits="userSpaceOnUse" id="color-49"><stop offset="0" stop-color="#404040"/><stop offset="1" stop-color="#555555"/></linearGradient><linearGradient x1="250.04625" y1="167.53165" x2="261.15459" y2="167.53165" gradientUnits="userSpaceOnUse" id="color-50"><stop offset="0" stop-color="#404040"/><stop offset="1" stop-color="#232323"/></linearGradient><linearGradient x1="218.8195" y1="167.51034" x2="229.92785" y2="167.51034" gradientUnits="userSpaceOnUse" id="color-51"><stop offset="0" stop-color="#404040"/><stop offset="1" stop-color="#555555"/></linearGradient><linearGradient x1="218.8195" y1="167.51034" x2="229.92785" y2="167.51034" gradientUnits="userSpaceOnUse" id="color-52"><stop offset="0" stop-color="#232323"/><stop offset="1" stop-color="#404040"/></linearGradient><linearGradient x1="261.27959" y1="191.15665" x2="250.17125" y2="191.15665" gradientUnits="userSpaceOnUse" id="color-53"><stop offset="0" stop-color="#404040"/><stop offset="1" stop-color="#555555"/></linearGradient><linearGradient x1="250.17125" y1="191.15665" x2="261.27959" y2="191.15665" gradientUnits="userSpaceOnUse" id="color-54"><stop offset="0" stop-color="#404040"/><stop offset="1" stop-color="#232323"/></linearGradient><linearGradient x1="218.9445" y1="191.13534" x2="230.05285" y2="191.13534" gradientUnits="userSpaceOnUse" id="color-55"><stop offset="0" stop-color="#404040"/><stop offset="1" stop-color="#555555"/></linearGradient><linearGradient x1="218.9445" y1="191.13534" x2="230.05285" y2="191.13534" gradientUnits="userSpaceOnUse" id="color-56"><stop offset="0" stop-color="#232323"/><stop offset="1" stop-color="#404040"/></linearGradient><linearGradient x1="223.33613" y1="175.61061" x2="225.28229" y2="175.61061" gradientUnits="userSpaceOnUse" id="color-57"><stop offset="0" stop-color="#858585"/><stop offset="1" stop-color="#747474"/></linearGradient><linearGradient x1="223.35518" y1="174.81023" x2="225.30134" y2="174.81023" gradientUnits="userSpaceOnUse" id="color-58"><stop offset="0" stop-color="#aaaaaa"/><stop offset="1" stop-color="#8c8c8c"/></linearGradient><linearGradient x1="246.33325" y1="170.65229" x2="252.04416" y2="170.65229" gradientUnits="userSpaceOnUse" id="color-59"><stop offset="0" stop-color="#0070ff"/><stop offset="1" stop-color="#0085ff"/></linearGradient><linearGradient x1="246.88462" y1="178.52564" x2="252.03846" y2="178.52564" gradientUnits="userSpaceOnUse" id="color-60"><stop offset="0" stop-color="#0070ff"/><stop offset="1" stop-color="#0085ff"/></linearGradient><linearGradient x1="230.25" y1="174.93333" x2="233.95" y2="174.93333" gradientUnits="userSpaceOnUse" id="color-61"><stop offset="0" stop-color="#0185ff" stop-opacity="0"/><stop offset="1" stop-color="#0185ff"/></linearGradient><linearGradient x1="233.52218" y1="179.51795" x2="233.52218" y2="182.59306" gradientUnits="userSpaceOnUse" id="color-62"><stop offset="0" stop-color="#0070ff"/><stop offset="1" stop-color="#0085ff"/></linearGradient></defs><g transform="translate(-218.12198,-156.91465)"><g data-paper-data="{&quot;isPaintingLayer&quot;:true}" fill-rule="nonzero" stroke-linejoin="miter" stroke-miterlimit="10" stroke-dasharray="" stroke-dashoffset="0" style="mix-blend-mode: normal"><g stroke-linecap="butt"><g><g><g><path d="M224.33514,174.818v-8.94984h37.89359v8.94984z" fill="#555555" stroke="#3e3e3e" stroke-width="2"/><path d="M254.43806,174.79152v-8.9321c0,0 9.036,0 10.6678,0c0.52402,0 0.44054,0 0.44054,0v8.9321c0,0 0.11519,0 -0.56012,0c-1.78037,0 -10.54823,0 -10.54823,0z" data-paper-data="{&quot;index&quot;:null}" fill="url(#color-1)" stroke="url(#color-2)" stroke-width="2"/><path d="M223.21131,174.77021v-8.93209c0,0 -0.1064,0 0.3997,0c1.61119,0 10.70865,0 10.70865,0v8.93209c0,0 -9.16332,0 -10.70865,0c-0.45272,0 -0.3997,0 -0.3997,0z" fill="url(#color-3)" stroke="url(#color-4)" stroke-width="2"/><path d="M233.20365,173.82525v-7.03575h22.62404v7.03575z" fill="#555555" stroke="none" stroke-width="0"/><path d="M225.99837,173.73431v-6.92857h1.7681v6.92857z" fill="#3f3f3f" stroke="none" stroke-width="0"/><path d="M229.61145,173.80574v-6.92857h1.76809v6.92857z" fill="#494949" stroke="none" stroke-width="0"/><path d="M233.45515,173.80574v-6.92857h1.7681v6.92857z" fill="#505050" stroke="none" stroke-width="0"/><path d="M237.29885,173.80574v-6.92857h1.7681v6.92857z" fill="#505050" stroke="none" stroke-width="0"/><path d="M241.14255,173.80574v-6.92857h1.7681v6.92857z" fill="#505050" stroke="none" stroke-width="0"/><path d="M244.98625,173.73431v-6.92857h1.7681v6.92857z" fill="#505050" stroke="none" stroke-width="0"/><path d="M248.98369,173.80574v-6.92857h1.7681v6.92857z" fill="#505050" stroke="none" stroke-width="0"/><path d="M252.82739,173.80574v-6.92857h1.7681v6.92857z" fill="#505050" stroke="none" stroke-width="0"/><path d="M256.82483,173.80574v-6.92857h1.7681v6.92857z" fill="#494949" stroke="none" stroke-width="0"/><path d="M260.51478,173.73431v-6.92857h1.7681v6.92857z" fill="#3f3f3f" stroke="none" stroke-width="0"/></g><g><path d="M224.33514,173.26244v-8.94984h37.89359v8.94984z" fill="#555555" stroke="#3e3e3e" stroke-width="2"/><path d="M254.43806,173.23596v-8.9321c0,0 9.036,0 10.6678,0c0.52402,0 0.44054,0 0.44054,0v8.9321c0,0 0.11519,0 -0.56012,0c-1.78037,0 -10.54823,0 -10.54823,0z" data-paper-data="{&quot;index&quot;:null}" fill="url(#color-5)" stroke="url(#color-6)" stroke-width="2"/><path d="M223.21131,173.21465v-8.93209c0,0 -0.1064,0 0.3997,0c1.61119,0 10.70865,0 10.70865,0v8.93209c0,0 -9.16332,0 -10.70865,0c-0.45272,0 -0.3997,0 -0.3997,0z" fill="url(#color-7)" stroke="url(#color-8)" stroke-width="2"/><path d="M233.20365,172.26969v-7.03575h22.62404v7.03575z" fill="#555555" stroke="none" stroke-width="0"/><path d="M225.99837,172.17875v-6.92857h1.7681v6.92857z" fill="#3f3f3f" stroke="none" stroke-width="0"/><path d="M229.61145,172.25018v-6.92857h1.76809v6.92857z" fill="#494949" stroke="none" stroke-width="0"/><path d="M233.45515,172.25018v-6.92857h1.7681v6.92857z" fill="#505050" stroke="none" stroke-width="0"/><path d="M237.29885,172.25018v-6.92857h1.7681v6.92857z" fill="#505050" stroke="none" stroke-width="0"/><path d="M241.14255,172.25018v-6.92857h1.7681v6.92857z" fill="#505050" stroke="none" stroke-width="0"/><path d="M244.98625,172.17875v-6.92857h1.7681v6.92857z" fill="#505050" stroke="none" stroke-width="0"/><path d="M248.98369,172.25018v-6.92857h1.7681v6.92857z" fill="#505050" stroke="none" stroke-width="0"/><path d="M252.82739,172.25018v-6.92857h1.7681v6.92857z" fill="#505050" stroke="none" stroke-width="0"/><path d="M256.82484,172.25018v-6.92857h1.7681v6.92857z" fill="#494949" stroke="none" stroke-width="0"/><path d="M260.51478,172.17875v-6.92857h1.7681v6.92857z" fill="#3f3f3f" stroke="none" stroke-width="0"/></g></g><g><g><path d="M224.40687,174.09727v-8.94984h37.89359v8.94984z" fill="#555555" stroke="#3e3e3e" stroke-width="2"/><path d="M254.50979,174.07079v-8.9321c0,0 9.036,0 10.6678,0c0.52402,0 0.44054,0 0.44054,0v8.9321c0,0 0.11519,0 -0.56012,0c-1.78037,0 -10.54823,0 -10.54823,0z" data-paper-data="{&quot;index&quot;:null}" fill="url(#color-9)" stroke="url(#color-10)" stroke-width="2"/><path d="M223.28304,174.04948v-8.93209c0,0 -0.1064,0 0.3997,0c1.61119,0 10.70865,0 10.70865,0v8.93209c0,0 -9.16332,0 -10.70865,0c-0.45272,0 -0.3997,0 -0.3997,0z" fill="url(#color-11)" stroke="url(#color-12)" stroke-width="2"/><path d="M233.27538,173.10452v-7.03575h22.62404v7.03575z" fill="#555555" stroke="none" stroke-width="0"/><path d="M226.0701,173.01358v-6.92857h1.7681v6.92857z" fill="#3f3f3f" stroke="none" stroke-width="0"/><path d="M229.68318,173.08501v-6.92857h1.76809v6.92857z" fill="#494949" stroke="none" stroke-width="0"/><path d="M233.52688,173.08501v-6.92857h1.7681v6.92857z" fill="#505050" stroke="none" stroke-width="0"/><path d="M237.37058,173.08501v-6.92857h1.7681v6.92857z" fill="#505050" stroke="none" stroke-width="0"/><path d="M241.21428,173.08501v-6.92857h1.7681v6.92857z" fill="#505050" stroke="none" stroke-width="0"/><path d="M245.05798,173.01358v-6.92857h1.7681v6.92857z" fill="#505050" stroke="none" stroke-width="0"/><path d="M249.05542,173.08501v-6.92857h1.7681v6.92857z" fill="#505050" stroke="none" stroke-width="0"/><path d="M252.89912,173.08501v-6.92857h1.7681v6.92857z" fill="#505050" stroke="none" stroke-width="0"/><path d="M256.89656,173.08501v-6.92857h1.7681v6.92857z" fill="#494949" stroke="none" stroke-width="0"/><path d="M260.58651,173.01358v-6.92857h1.7681v6.92857z" fill="#3f3f3f" stroke="none" stroke-width="0"/></g><g><path d="M224.40687,172.54171v-8.94984h37.89359v8.94984z" fill="#555555" stroke="#3e3e3e" stroke-width="2"/><path d="M254.50979,172.51523v-8.9321c0,0 9.036,0 10.6678,0c0.52402,0 0.44054,0 0.44054,0v8.9321c0,0 0.11519,0 -0.56012,0c-1.78037,0 -10.54823,0 -10.54823,0z" data-paper-data="{&quot;index&quot;:null}" fill="url(#color-13)" stroke="url(#color-14)" stroke-width="2"/><path d="M223.28304,172.49392v-8.93209c0,0 -0.1064,0 0.3997,0c1.61119,0 10.70865,0 10.70865,0v8.93209c0,0 -9.16332,0 -10.70865,0c-0.45272,0 -0.3997,0 -0.3997,0z" fill="url(#color-15)" stroke="url(#color-16)" stroke-width="2"/><path d="M233.27538,171.54896v-7.03575h22.62404v7.03575z" fill="#555555" stroke="none" stroke-width="0"/><path d="M226.0701,171.45802v-6.92857h1.7681v6.92857z" fill="#3f3f3f" stroke="none" stroke-width="0"/><path d="M229.68318,171.52945v-6.92857h1.76809v6.92857z" fill="#494949" stroke="none" stroke-width="0"/><path d="M233.52688,171.52945v-6.92857h1.7681v6.92857z" fill="#505050" stroke="none" stroke-width="0"/><path d="M237.37058,171.52945v-6.92857h1.7681v6.92857z" fill="#505050" stroke="none" stroke-width="0"/><path d="M241.21428,171.52945v-6.92857h1.7681v6.92857z" fill="#505050" stroke="none" stroke-width="0"/><path d="M245.05798,171.45802v-6.92857h1.7681v6.92857z" fill="#505050" stroke="none" stroke-width="0"/><path d="M249.05542,171.52945v-6.92857h1.7681v6.92857z" fill="#505050" stroke="none" stroke-width="0"/><path d="M252.89912,171.52945v-6.92857h1.7681v6.92857z" fill="#505050" stroke="none" stroke-width="0"/><path d="M256.89657,171.52945v-6.92857h1.7681v6.92857z" fill="#494949" stroke="none" stroke-width="0"/><path d="M260.58651,171.45802v-6.92857h1.7681v6.92857z" fill="#3f3f3f" stroke="none" stroke-width="0"/></g></g></g><g><g><g><path d="M224.56536,198.66347v-8.94984h37.89359v8.94984z" fill="#555555" stroke="#3e3e3e" stroke-width="2"/><path d="M254.66828,198.63699v-8.9321c0,0 9.036,0 10.6678,0c0.52402,0 0.44054,0 0.44054,0v8.9321c0,0 0.11519,0 -0.56012,0c-1.78037,0 -10.54823,0 -10.54823,0z" data-paper-data="{&quot;index&quot;:null}" fill="url(#color-17)" stroke="url(#color-18)" stroke-width="2"/><path d="M223.44153,198.61568v-8.93209c0,0 -0.1064,0 0.3997,0c1.61119,0 10.70865,0 10.70865,0v8.93209c0,0 -9.16332,0 -10.70865,0c-0.45272,0 -0.3997,0 -0.3997,0z" fill="url(#color-19)" stroke="url(#color-20)" stroke-width="2"/><path d="M233.43387,197.67072v-7.03575h22.62404v7.03575z" fill="#555555" stroke="none" stroke-width="0"/><path d="M226.22859,197.57978v-6.92857h1.7681v6.92857z" fill="#3f3f3f" stroke="none" stroke-width="0"/><path d="M229.84167,197.65121v-6.92857h1.76809v6.92857z" fill="#494949" stroke="none" stroke-width="0"/><path d="M233.68537,197.65121v-6.92857h1.7681v6.92857z" fill="#505050" stroke="none" stroke-width="0"/><path d="M237.52907,197.65121v-6.92857h1.7681v6.92857z" fill="#505050" stroke="none" stroke-width="0"/><path d="M241.37277,197.65121v-6.92857h1.7681v6.92857z" fill="#505050" stroke="none" stroke-width="0"/><path d="M245.21647,197.57978v-6.92857h1.7681v6.92857z" fill="#505050" stroke="none" stroke-width="0"/><path d="M249.21391,197.65121v-6.92857h1.7681v6.92857z" fill="#505050" stroke="none" stroke-width="0"/><path d="M253.05761,197.65121v-6.92857h1.7681v6.92857z" fill="#505050" stroke="none" stroke-width="0"/><path d="M257.05505,197.65121v-6.92857h1.7681v6.92857z" fill="#494949" stroke="none" stroke-width="0"/><path d="M260.745,197.57978v-6.92857h1.7681v6.92857z" fill="#3f3f3f" stroke="none" stroke-width="0"/></g><g><path d="M224.56536,197.10791v-8.94984h37.89359v8.94984z" fill="#555555" stroke="#3e3e3e" stroke-width="2"/><path d="M254.66828,197.08143v-8.9321c0,0 9.036,0 10.6678,0c0.52402,0 0.44054,0 0.44054,0v8.9321c0,0 0.11519,0 -0.56012,0c-1.78037,0 -10.54823,0 -10.54823,0z" data-paper-data="{&quot;index&quot;:null}" fill="url(#color-21)" stroke="url(#color-22)" stroke-width="2"/><path d="M223.44153,197.06012v-8.93209c0,0 -0.1064,0 0.3997,0c1.61119,0 10.70865,0 10.70865,0v8.93209c0,0 -9.16332,0 -10.70865,0c-0.45272,0 -0.3997,0 -0.3997,0z" fill="url(#color-23)" stroke="url(#color-24)" stroke-width="2"/><path d="M233.43387,196.11516v-7.03575h22.62404v7.03575z" fill="#555555" stroke="none" stroke-width="0"/><path d="M226.22859,196.02422v-6.92857h1.7681v6.92857z" fill="#3f3f3f" stroke="none" stroke-width="0"/><path d="M229.84167,196.09565v-6.92857h1.76809v6.92857z" fill="#494949" stroke="none" stroke-width="0"/><path d="M233.68537,196.09565v-6.92857h1.7681v6.92857z" fill="#505050" stroke="none" stroke-width="0"/><path d="M237.52907,196.09565v-6.92857h1.7681v6.92857z" fill="#505050" stroke="none" stroke-width="0"/><path d="M241.37277,196.09565v-6.92857h1.7681v6.92857z" fill="#505050" stroke="none" stroke-width="0"/><path d="M245.21647,196.02422v-6.92857h1.7681v6.92857z" fill="#505050" stroke="none" stroke-width="0"/><path d="M249.21391,196.09565v-6.92857h1.7681v6.92857z" fill="#505050" stroke="none" stroke-width="0"/><path d="M253.05761,196.09565v-6.92857h1.7681v6.92857z" fill="#505050" stroke="none" stroke-width="0"/><path d="M257.05506,196.09565v-6.92857h1.7681v6.92857z" fill="#494949" stroke="none" stroke-width="0"/><path d="M260.745,196.02422v-6.92857h1.7681v6.92857z" fill="#3f3f3f" stroke="none" stroke-width="0"/></g></g><g><g><path d="M224.63709,197.94274v-8.94984h37.89359v8.94984z" fill="#555555" stroke="#3e3e3e" stroke-width="2"/><path d="M254.74001,197.91626v-8.9321c0,0 9.036,0 10.6678,0c0.52402,0 0.44054,0 0.44054,0v8.9321c0,0 0.11519,0 -0.56012,0c-1.78037,0 -10.54823,0 -10.54823,0z" data-paper-data="{&quot;index&quot;:null}" fill="url(#color-25)" stroke="url(#color-26)" stroke-width="2"/><path d="M223.51326,197.89495v-8.93209c0,0 -0.1064,0 0.3997,0c1.61119,0 10.70865,0 10.70865,0v8.93209c0,0 -9.16332,0 -10.70865,0c-0.45272,0 -0.3997,0 -0.3997,0z" fill="url(#color-27)" stroke="url(#color-28)" stroke-width="2"/><path d="M233.5056,196.94999v-7.03575h22.62404v7.03575z" fill="#555555" stroke="none" stroke-width="0"/><path d="M226.30032,196.85905v-6.92857h1.7681v6.92857z" fill="#3f3f3f" stroke="none" stroke-width="0"/><path d="M229.9134,196.93048v-6.92857h1.76809v6.92857z" fill="#494949" stroke="none" stroke-width="0"/><path d="M233.7571,196.93048v-6.92857h1.7681v6.92857z" fill="#505050" stroke="none" stroke-width="0"/><path d="M237.6008,196.93048v-6.92857h1.7681v6.92857z" fill="#505050" stroke="none" stroke-width="0"/><path d="M241.4445,196.93048v-6.92857h1.7681v6.92857z" fill="#505050" stroke="none" stroke-width="0"/><path d="M245.2882,196.85905v-6.92857h1.7681v6.92857z" fill="#505050" stroke="none" stroke-width="0"/><path d="M249.28564,196.93048v-6.92857h1.7681v6.92857z" fill="#505050" stroke="none" stroke-width="0"/><path d="M253.12934,196.93048v-6.92857h1.7681v6.92857z" fill="#505050" stroke="none" stroke-width="0"/><path d="M257.12678,196.93048v-6.92857h1.7681v6.92857z" fill="#494949" stroke="none" stroke-width="0"/><path d="M260.81673,196.85905v-6.92857h1.7681v6.92857z" fill="#3f3f3f" stroke="none" stroke-width="0"/></g><g><path d="M224.63709,196.38718v-8.94984h37.89359v8.94984z" fill="#555555" stroke="#3e3e3e" stroke-width="2"/><path d="M254.74001,196.3607v-8.9321c0,0 9.036,0 10.6678,0c0.52402,0 0.44054,0 0.44054,0v8.9321c0,0 0.11519,0 -0.56012,0c-1.78037,0 -10.54823,0 -10.54823,0z" data-paper-data="{&quot;index&quot;:null}" fill="url(#color-29)" stroke="url(#color-30)" stroke-width="2"/><path d="M223.51326,196.33939v-8.93209c0,0 -0.1064,0 0.3997,0c1.61119,0 10.70865,0 10.70865,0v8.93209c0,0 -9.16332,0 -10.70865,0c-0.45272,0 -0.3997,0 -0.3997,0z" fill="url(#color-31)" stroke="url(#color-32)" stroke-width="2"/><path d="M233.5056,195.39443v-7.03575h22.62404v7.03575z" fill="#555555" stroke="none" stroke-width="0"/><path d="M226.30032,195.30349v-6.92857h1.7681v6.92857z" fill="#3f3f3f" stroke="none" stroke-width="0"/><path d="M229.9134,195.37492v-6.92857h1.76809v6.92857z" fill="#494949" stroke="none" stroke-width="0"/><path d="M233.7571,195.37492v-6.92857h1.7681v6.92857z" fill="#505050" stroke="none" stroke-width="0"/><path d="M237.6008,195.37492v-6.92857h1.7681v6.92857z" fill="#505050" stroke="none" stroke-width="0"/><path d="M241.4445,195.37492v-6.92857h1.7681v6.92857z" fill="#505050" stroke="none" stroke-width="0"/><path d="M245.2882,195.30349v-6.92857h1.7681v6.92857z" fill="#505050" stroke="none" stroke-width="0"/><path d="M249.28564,195.37492v-6.92857h1.7681v6.92857z" fill="#505050" stroke="none" stroke-width="0"/><path d="M253.12934,195.37492v-6.92857h1.7681v6.92857z" fill="#505050" stroke="none" stroke-width="0"/><path d="M257.12679,195.37492v-6.92857h1.7681v6.92857z" fill="#494949" stroke="none" stroke-width="0"/><path d="M260.81673,195.30349v-6.92857h1.7681v6.92857z" fill="#3f3f3f" stroke="none" stroke-width="0"/></g></g></g></g><g stroke-linecap="butt"><g><path d="M220.06833,198.64918v-8.94984h37.89359v8.94984z" fill="#555555" stroke="#3e3e3e" stroke-width="2"/><path d="M250.17125,198.6227v-8.9321c0,0 9.036,0 10.6678,0c0.52402,0 0.44054,0 0.44054,0v8.9321c0,0 0.11519,0 -0.56012,0c-1.78037,0 -10.54823,0 -10.54823,0z" data-paper-data="{&quot;index&quot;:null}" fill="url(#color-33)" stroke="url(#color-34)" stroke-width="2"/><path d="M218.9445,198.60139v-8.93209c0,0 -0.1064,0 0.3997,0c1.61119,0 10.70865,0 10.70865,0v8.93209c0,0 -9.16332,0 -10.70865,0c-0.45272,0 -0.3997,0 -0.3997,0z" fill="url(#color-35)" stroke="url(#color-36)" stroke-width="2"/><path d="M228.93684,197.65643v-7.03575h22.62404v7.03575z" fill="#555555" stroke="none" stroke-width="0"/><path d="M221.73156,197.56549v-6.92857h1.7681v6.92857z" fill="#3f3f3f" stroke="none" stroke-width="0"/><path d="M225.34464,197.63692v-6.92857h1.76809v6.92857z" fill="#494949" stroke="none" stroke-width="0"/><path d="M229.18834,197.63692v-6.92857h1.7681v6.92857z" fill="#505050" stroke="none" stroke-width="0"/><path d="M233.03204,197.63692v-6.92857h1.7681v6.92857z" fill="#505050" stroke="none" stroke-width="0"/><path d="M236.87574,197.63692v-6.92857h1.7681v6.92857z" fill="#505050" stroke="none" stroke-width="0"/><path d="M240.71944,197.56549v-6.92857h1.7681v6.92857z" fill="#505050" stroke="none" stroke-width="0"/><path d="M244.71688,197.63692v-6.92857h1.7681v6.92857z" fill="#505050" stroke="none" stroke-width="0"/><path d="M248.56058,197.63692v-6.92857h1.7681v6.92857z" fill="#505050" stroke="none" stroke-width="0"/><path d="M252.55802,197.63692v-6.92857h1.7681v6.92857z" fill="#494949" stroke="none" stroke-width="0"/><path d="M256.24797,197.56549v-6.92857h1.7681v6.92857z" fill="#3f3f3f" stroke="none" stroke-width="0"/></g><g><path d="M220.06833,197.09362v-8.94984h37.89359v8.94984z" fill="#555555" stroke="#3e3e3e" stroke-width="2"/><path d="M250.17125,197.06714v-8.9321c0,0 9.036,0 10.6678,0c0.52402,0 0.44054,0 0.44054,0v8.9321c0,0 0.11519,0 -0.56012,0c-1.78037,0 -10.54823,0 -10.54823,0z" data-paper-data="{&quot;index&quot;:null}" fill="url(#color-37)" stroke="url(#color-38)" stroke-width="2"/><path d="M218.9445,197.04583v-8.93209c0,0 -0.1064,0 0.3997,0c1.61119,0 10.70865,0 10.70865,0v8.93209c0,0 -9.16332,0 -10.70865,0c-0.45272,0 -0.3997,0 -0.3997,0z" fill="url(#color-39)" stroke="url(#color-40)" stroke-width="2"/><path d="M228.93684,196.10087v-7.03575h22.62404v7.03575z" fill="#555555" stroke="none" stroke-width="0"/><path d="M221.73156,196.00993v-6.92857h1.7681v6.92857z" fill="#3f3f3f" stroke="none" stroke-width="0"/><path d="M225.34464,196.08136v-6.92857h1.76809v6.92857z" fill="#494949" stroke="none" stroke-width="0"/><path d="M229.18834,196.08136v-6.92857h1.7681v6.92857z" fill="#505050" stroke="none" stroke-width="0"/><path d="M233.03204,196.08136v-6.92857h1.7681v6.92857z" fill="#505050" stroke="none" stroke-width="0"/><path d="M236.87574,196.08136v-6.92857h1.7681v6.92857z" fill="#505050" stroke="none" stroke-width="0"/><path d="M240.71944,196.00993v-6.92857h1.7681v6.92857z" fill="#505050" stroke="none" stroke-width="0"/><path d="M244.71688,196.08136v-6.92857h1.7681v6.92857z" fill="#505050" stroke="none" stroke-width="0"/><path d="M248.56058,196.08136v-6.92857h1.7681v6.92857z" fill="#505050" stroke="none" stroke-width="0"/><path d="M252.55803,196.08136v-6.92857h1.7681v6.92857z" fill="#494949" stroke="none" stroke-width="0"/><path d="M256.24797,196.00993v-6.92857h1.7681v6.92857z" fill="#3f3f3f" stroke="none" stroke-width="0"/></g></g><g stroke-linecap="butt"><path d="M219.84611,174.8714v-8.94984h37.89358v8.94984z" fill="#555555" stroke="#3e3e3e" stroke-width="2"/><path d="M249.94902,174.84492v-8.9321c0,0 9.036,0 10.66781,0c0.52402,0 0.44054,0 0.44054,0v8.9321c0,0 0.11519,0 -0.56012,0c-1.78037,0 -10.54823,0 -10.54823,0z" data-paper-data="{&quot;index&quot;:null}" fill="url(#color-41)" stroke="url(#color-42)" stroke-width="2"/><path d="M218.72228,174.82361v-8.93209c0,0 -0.1064,0 0.3997,0c1.61119,0 10.70865,0 10.70865,0v8.93209c0,0 -9.16332,0 -10.70865,0c-0.45272,0 -0.3997,0 -0.3997,0z" fill="url(#color-43)" stroke="url(#color-44)" stroke-width="2"/><path d="M228.71462,173.87865v-7.03575h22.62404v7.03575z" fill="#555555" stroke="none" stroke-width="0"/><path d="M221.50935,173.78771v-6.92857h1.7681v6.92857z" fill="#3f3f3f" stroke="none" stroke-width="0"/><path d="M225.12243,173.85914v-6.92857h1.76809v6.92857z" fill="#494949" stroke="none" stroke-width="0"/><path d="M228.96613,173.85914v-6.92857h1.7681v6.92857z" fill="#505050" stroke="none" stroke-width="0"/><path d="M232.80982,173.85914v-6.92857h1.7681v6.92857z" fill="#505050" stroke="none" stroke-width="0"/><path d="M236.65352,173.85914v-6.92857h1.7681v6.92857z" fill="#505050" stroke="none" stroke-width="0"/><path d="M240.49722,173.78771v-6.92857h1.7681v6.92857z" fill="#505050" stroke="none" stroke-width="0"/><path d="M244.49467,173.85914v-6.92857h1.7681v6.92857z" fill="#505050" stroke="none" stroke-width="0"/><path d="M248.33836,173.85914v-6.92857h1.7681v6.92857z" fill="#505050" stroke="none" stroke-width="0"/><path d="M252.33581,173.85914v-6.92857h1.7681v6.92857z" fill="#494949" stroke="none" stroke-width="0"/><path d="M256.02575,173.78771v-6.92857h1.7681v6.92857z" fill="#3f3f3f" stroke="none" stroke-width="0"/></g><g stroke-linecap="butt"><path d="M219.84611,173.11382v-8.94984h37.89359v8.94984z" fill="#555555" stroke="#3e3e3e" stroke-width="2"/><path d="M249.94902,173.08734v-8.9321c0,0 9.036,0 10.66781,0c0.52402,0 0.44054,0 0.44054,0v8.9321c0,0 0.11519,0 -0.56012,0c-1.78037,0 -10.54823,0 -10.54823,0z" data-paper-data="{&quot;index&quot;:null}" fill="url(#color-45)" stroke="url(#color-46)" stroke-width="2"/><path d="M218.72228,173.06603v-8.93209c0,0 -0.1064,0 0.3997,0c1.61119,0 10.70865,0 10.70865,0v8.93209c0,0 -9.16332,0 -10.70865,0c-0.45272,0 -0.3997,0 -0.3997,0z" fill="url(#color-47)" stroke="url(#color-48)" stroke-width="2"/><path d="M228.71462,172.12107v-7.03575h22.62404v7.03575z" fill="#555555" stroke="none" stroke-width="0"/><path d="M221.50934,172.03013v-6.92857h1.7681v6.92857z" fill="#3f3f3f" stroke="none" stroke-width="0"/><path d="M225.12242,172.10156v-6.92857h1.76809v6.92857z" fill="#494949" stroke="none" stroke-width="0"/><path d="M228.96612,172.10156v-6.92857h1.7681v6.92857z" fill="#505050" stroke="none" stroke-width="0"/><path d="M232.80982,172.10156v-6.92857h1.7681v6.92857z" fill="#505050" stroke="none" stroke-width="0"/><path d="M236.65352,172.10156v-6.92857h1.7681v6.92857z" fill="#505050" stroke="none" stroke-width="0"/><path d="M240.49722,172.03013v-6.92857h1.7681v6.92857z" fill="#505050" stroke="none" stroke-width="0"/><path d="M244.49466,172.10156v-6.92857h1.7681v6.92857z" fill="#505050" stroke="none" stroke-width="0"/><path d="M248.33836,172.10156v-6.92857h1.7681v6.92857z" fill="#505050" stroke="none" stroke-width="0"/><path d="M252.3358,172.10156v-6.92857h1.7681v6.92857z" fill="#494949" stroke="none" stroke-width="0"/><path d="M256.02575,172.03013v-6.92857h1.7681v6.92857z" fill="#3f3f3f" stroke="none" stroke-width="0"/></g><g stroke-linecap="butt"><path d="M219.94333,172.02418v-8.94984h37.89359v8.94984z" fill="#555555" stroke="#3e3e3e" stroke-width="2"/><path d="M250.04625,171.9977v-8.9321c0,0 9.036,0 10.6678,0c0.52402,0 0.44054,0 0.44054,0v8.9321c0,0 0.11519,0 -0.56012,0c-1.78037,0 -10.54823,0 -10.54823,0z" data-paper-data="{&quot;index&quot;:null}" fill="url(#color-49)" stroke="url(#color-50)" stroke-width="2"/><path d="M218.8195,171.97639v-8.93209c0,0 -0.1064,0 0.3997,0c1.61119,0 10.70865,0 10.70865,0v8.93209c0,0 -9.16332,0 -10.70865,0c-0.45272,0 -0.3997,0 -0.3997,0z" fill="url(#color-51)" stroke="url(#color-52)" stroke-width="2"/><path d="M228.81184,171.03143v-7.03575h22.62404v7.03575z" fill="#555555" stroke="none" stroke-width="0"/><path d="M221.60657,170.94049v-6.92857h1.7681v6.92857z" fill="#3f3f3f" stroke="none" stroke-width="0"/><path d="M225.21965,171.01192v-6.92857h1.76809v6.92857z" fill="#494949" stroke="none" stroke-width="0"/><path d="M229.06335,171.01192v-6.92857h1.7681v6.92857z" fill="#505050" stroke="none" stroke-width="0"/><path d="M232.90704,171.01192v-6.92857h1.7681v6.92857z" fill="#505050" stroke="none" stroke-width="0"/><path d="M236.75074,171.01192v-6.92857h1.7681v6.92857z" fill="#505050" stroke="none" stroke-width="0"/><path d="M240.59444,170.94049v-6.92857h1.7681v6.92857z" fill="#505050" stroke="none" stroke-width="0"/><path d="M244.59189,171.01192v-6.92857h1.7681v6.92857z" fill="#505050" stroke="none" stroke-width="0"/><path d="M248.43559,171.01192v-6.92857h1.76809v6.92857z" fill="#505050" stroke="none" stroke-width="0"/><path d="M252.43303,171.01192v-6.92857h1.7681v6.92857z" fill="#494949" stroke="none" stroke-width="0"/><path d="M256.12297,170.94049v-6.92857h1.7681v6.92857z" fill="#3f3f3f" stroke="none" stroke-width="0"/></g><g stroke-linecap="butt"><path d="M220.06833,195.64918v-8.94984h37.89359v8.94984z" fill="#555555" stroke="#3e3e3e" stroke-width="2"/><path d="M250.17125,195.6227v-8.9321c0,0 9.036,0 10.6678,0c0.52402,0 0.44054,0 0.44054,0v8.9321c0,0 0.11519,0 -0.56012,0c-1.78037,0 -10.54823,0 -10.54823,0z" data-paper-data="{&quot;index&quot;:null}" fill="url(#color-53)" stroke="url(#color-54)" stroke-width="2"/><path d="M218.9445,195.60139v-8.93209c0,0 -0.1064,0 0.3997,0c1.61119,0 10.70865,0 10.70865,0v8.93209c0,0 -9.16332,0 -10.70865,0c-0.45272,0 -0.3997,0 -0.3997,0z" fill="url(#color-55)" stroke="url(#color-56)" stroke-width="2"/><path d="M228.93684,194.65643v-7.03575h22.62404v7.03575z" fill="#555555" stroke="none" stroke-width="0"/><path d="M221.73157,194.56549v-6.92857h1.7681v6.92857z" fill="#3f3f3f" stroke="none" stroke-width="0"/><path d="M225.34465,194.63692v-6.92857h1.76809v6.92857z" fill="#494949" stroke="none" stroke-width="0"/><path d="M229.18835,194.63692v-6.92857h1.7681v6.92857z" fill="#505050" stroke="none" stroke-width="0"/><path d="M233.03204,194.63692v-6.92857h1.7681v6.92857z" fill="#505050" stroke="none" stroke-width="0"/><path d="M236.87574,194.63692v-6.92857h1.7681v6.92857z" fill="#505050" stroke="none" stroke-width="0"/><path d="M240.71944,194.56549v-6.92857h1.7681v6.92857z" fill="#505050" stroke="none" stroke-width="0"/><path d="M244.71689,194.63692v-6.92857h1.7681v6.92857z" fill="#505050" stroke="none" stroke-width="0"/><path d="M248.56059,194.63692v-6.92857h1.76809v6.92857z" fill="#505050" stroke="none" stroke-width="0"/><path d="M252.55803,194.63692v-6.92857h1.7681v6.92857z" fill="#494949" stroke="none" stroke-width="0"/><path d="M256.24797,194.56549v-6.92857h1.7681v6.92857z" fill="#3f3f3f" stroke="none" stroke-width="0"/></g><path d="M221.66339,165.57304h35.54856l0.91446,3.52722l1.82893,1.30638v17.76673l-2.22084,1.25661l-1.0451,3.52722h-35.01091l-1.0451,-1.0451v-7.57699l1.82893,-1.56765l0.13064,-6.66252l-1.82893,-1.69829v-7.70763z" fill="#0070ff" stroke="#1de200" stroke-width="0" stroke-linecap="round"/><path d="M221.66339,161.27761h35.54856l0.91446,3.52722l1.82893,1.30638v17.76673l-2.22084,1.25661l-1.0451,3.52722h-35.01091l-1.0451,-1.0451v-7.57699l1.82893,-1.56765l0.13064,-6.66252l-1.82893,-1.69829v-7.70763z" fill="#00a0ff" stroke="#1de200" stroke-width="0" stroke-linecap="round"/><path d="M255.75968,183.79696l-0.88889,2.77778h-31.55556l-0.66667,-0.77778v-3.22222h11.11111l2.55556,-2l20.22222,0.11111l1.66667,1.88889z" fill="#ffffff" stroke="#000000" stroke-width="0" stroke-linecap="round"/><path d="M258.20412,167.35252l-1.66667,1.88889l-20.22222,0.11111l-2.55555,-2h-11.11112v-3.22222l0.66667,-0.77778h31.55555l0.88889,2.77778z" data-paper-data="{&quot;index&quot;:null}" fill="#ffffff" stroke="#000000" stroke-width="0" stroke-linecap="round"/><path d="M223.33613,181.39789v-11.57455h1.94617v11.57455z" fill="url(#color-57)" stroke="none" stroke-width="0" stroke-linecap="butt"/><path d="M223.35518,180.59751v-11.57455h1.94616v11.57455z" fill="url(#color-58)" stroke="none" stroke-width="0" stroke-linecap="butt"/><path d="M246.33325,174.02026l2.78224,-9.5914l2.92867,2.85546v9.5914z" fill="url(#color-59)" stroke="#000000" stroke-width="0" stroke-linecap="round"/><path d="M246.88462,182.5641v-8.07692h5.15384v8.07692z" fill="url(#color-60)" stroke="none" stroke-width="0" stroke-linecap="butt"/><path d="M230.25,182.48333v-15.1h3.7v15.1z" fill="url(#color-61)" stroke="none" stroke-width="NaN" stroke-linecap="butt"/><path d="M232.1292,179.88404v-15.2244h16.91307v15.2244z" fill="#00a0ff" stroke="none" stroke-width="0" stroke-linecap="butt"/><path d="M237.8401,180.46978l-3.44118,-0.51252l1.68399,-1.61077z" fill="#f9f9f9" stroke="#000000" stroke-width="0" stroke-linecap="round"/><path d="M236.07136,179.87936v-1.59868h13.58043v1.59868z" fill="#f9f9f9" stroke="none" stroke-width="0" stroke-linecap="butt"/><path d="M232.17677,182.58986v-3.00336h17.42095l2.48104,3.00336z" fill="#c1c1c1" stroke="none" stroke-width="0" stroke-linecap="butt"/><path d="M249.70122,178.27327l2.56258,2.48937v2.12328l-3.5144,-3.44118z" fill="#d2d2d2" stroke="#000000" stroke-width="0" stroke-linecap="round"/><path d="M232.13291,182.59306v-3.07511h2.77853v3.07511z" fill="url(#color-62)" stroke="none" stroke-width="0" stroke-linecap="butt"/><path d="M249.11334,164.61145v1.49868h-13.34967v-1.49868z" data-paper-data="{&quot;index&quot;:null}" fill="#eeeeee" stroke="none" stroke-width="0" stroke-linecap="butt"/><path d="M235.75769,166.13091l-1.81923,-1.53199h3.63846z" fill="#eeeeee" stroke="#3e3e3e" stroke-width="0" stroke-linecap="round"/><path d="M249.14609,164.44378l2.96387,2.7804v2.12329l-3.51441,-3.44118z" fill="#d2d2d2" stroke="#000000" stroke-width="0" stroke-linecap="round"/><g stroke="none" stroke-width="0" stroke-linecap="butt"><path d="M222.59091,167.39394v-3.72727h4.09091v3.72727z" fill="#1b1b1b"/><path d="M222.59091,166.12121v-3.72727h4.09091v3.72727z" fill="#373737"/></g><g stroke="none" stroke-linecap="butt"><path d="M224.26282,164.54927v-7h0.46667v7z" fill="#989898" stroke-width="0"/><path d="M223.93846,157.47234c0,-0.308 0.24969,-0.55769 0.55769,-0.55769c0.308,0 0.55769,0.24969 0.55769,0.55769c0,0.308 -0.24969,0.55769 -0.55769,0.55769c-0.308,0 -0.55769,-0.24969 -0.55769,-0.55769z" fill="#ff0000" stroke-width="0.5"/></g><path d="M260.21429,194.61905v-6.71428l2.28571,0.57143v6.85715z" fill="#3d3d3d" stroke="none" stroke-width="0" stroke-linecap="butt"/><path d="M259.92857,170.7619v-6.71428l2.28571,0.57143v6.85715z" fill="#3d3d3d" stroke="none" stroke-width="0" stroke-linecap="butt"/><path d="M233.92857,172.33334c0,-2.76143 2.23857,-5 5,-5c2.76143,0 5,2.23857 5,5c0,2.76143 -2.23857,5 -5,5c-2.76143,0 -5,-2.23857 -5,-5z" fill="#0070ff" stroke="none" stroke-width="0.5" stroke-linecap="butt"/><path d="M227.39434,171.74819c0.09771,-0.02159 0.16816,-0.02159 0.16816,-0.02159l0.54103,0.12596c1.65732,1.28249 1.28911,3.99651 0.16394,5.704l0.32537,0.32537l-0.625,0.625c-0.13572,0.13572 -0.32322,0.21967 -0.53033,0.21967c-0.38611,0 -0.70407,-0.29176 -0.74544,-0.66685l-0.11843,-0.94745c-0.64019,-2.26746 -1.42225,-2.78953 -0.02212,-5.0332c0,0 0.31906,-0.5105 0.84284,-0.33091z" fill="#38b6ff" stroke="none" stroke-width="0.5" stroke-linecap="butt"/><path d="M229.91511,180.90851c-0.1819,0.72761 -0.90951,0.54571 -0.90951,0.54571l-0.52414,-0.13146c-0.29167,-0.08333 -0.58333,-0.16667 -0.875,-0.25c0,0 -0.72114,-0.20604 -0.5151,-0.92718c0.20604,-0.72114 0.92718,-0.5151 0.92718,-0.5151c0.29167,0.08333 0.58333,0.16667 0.875,0.25l0.47586,0.11854c0,0 0.72761,0.1819 0.54571,0.90951z" fill="#38b6ff" stroke="none" stroke-width="0.5" stroke-linecap="butt"/><path d="M227.1875,169.7266c0,-0.18081 0.04359,-0.31803 0.10975,-0.42217c0.02646,-0.32227 0.29672,-0.53848 0.29672,-0.53848c1.7486,-1.06233 3.25218,0.11077 1.13896,1.65001l-0.79544,0.06064c0,0 -0.75,0 -0.75,-0.75z" fill="#38b6ff" stroke="none" stroke-width="0.5" stroke-linecap="butt"/><path d="M232.8125,162.1016c0,0.75 -0.75,0.75 -0.75,0.75c-0.83333,0 -2.29167,0 -3.125,0c0,0 -0.75,0 -0.75,-0.75c0,-0.75 0.75,-0.75 0.75,-0.75c0.83333,0 1.66667,0 2.5,0h0.625c0,0 0.75,0 0.75,0.75z" fill="#38b6ff" stroke="none" stroke-width="0.5" stroke-linecap="butt"/><path d="M256.81537,170.77097c0.05979,-0.02175 0.10005,-0.0298 0.10005,-0.0298l0.53492,-0.10108c3.53512,-0.75966 3.09449,6.34614 0.45839,6.58596c-0.45875,0.04174 -1.41379,-1.15641 -1.70163,-1.55676c-1.25285,-1.74254 -3.13578,-4.81128 0.35541,-4.94269c0,0 0.11387,0 0.25287,0.04437z" fill="#38b6ff" stroke="none" stroke-width="0.5" stroke-linecap="butt"/><path d="M257.84104,180.67296c-0.69636,0.27854 -0.9749,-0.41781 -0.9749,-0.41781l-0.16394,-0.46761c-0.66502,-1.19678 -2.15049,-0.47974 -3.25,-1.875c0,0 -0.43593,-0.6103 0.17437,-1.04623c0.6103,-0.43593 1.04623,0.17437 1.04623,0.17437c0.76812,1.29381 2.10413,0.45447 3.25,1.875l0.33606,0.78239c0,0 0.27854,0.69636 -0.41781,0.9749z" fill="#38b6ff" stroke="none" stroke-width="0.5" stroke-linecap="butt"/><path d="M238.60832,188.18702c-0.33541,0.67082 -1.00623,0.33541 -1.00623,0.33541l-0.03789,-0.05602c-0.49489,-0.08434 -0.99968,-0.11637 -1.5017,-0.1148c0,0 -0.75,0 -0.75,-0.75c0,-0.75 0.75,-0.75 0.75,-0.75c0.5845,0.00159 1.17145,0.0409 1.7483,0.1352l0.46211,0.19398c0,0 0.67082,0.33541 0.33541,1.00623z" fill="#38b6ff" stroke="none" stroke-width="0.5" stroke-linecap="butt"/><path d="M256.8125,164.7266c-0.75,0 -0.75,-0.75 -0.75,-0.75l0.16435,-0.15648c-0.25714,-0.34006 -0.61365,-0.61692 -0.99976,-0.7977c0,0 -0.67082,-0.33541 -0.33541,-1.00623c0.33541,-0.67082 1.00623,-0.33541 1.00623,-0.33541c0.5681,0.29657 1.09088,0.70923 1.50024,1.2023l0.16435,1.09352c0,0 0,0.75 -0.75,0.75z" fill="#38b6ff" stroke="none" stroke-width="0.5" stroke-linecap="butt"/><path d="M243.96095,167.75022c0.21862,-0.27362 0.60155,-0.27362 0.60155,-0.27362h0.5c0.72321,0 2.12794,-0.19618 2.74046,0.22007c2.70251,1.83653 -1.14323,5.56282 -3.27079,3.43526c-0.87487,-0.87487 -0.23187,-1.43882 -0.93032,-2.18681c0,0 -0.46852,-0.58565 0.11713,-1.05417c0.08337,-0.0667 0.16437,-0.11203 0.24197,-0.14073z" fill="#38b6ff" stroke="none" stroke-width="0.5" stroke-linecap="butt"/><path d="M245.31311,173.93996c0.02403,-0.71335 0.74939,-0.71335 0.74939,-0.71335h0.375c5.69083,0.2142 -1.61955,7.30765 -1.61938,1.78336c0.00001,-0.36344 0.29904,-0.66252 0.44856,-0.99377c0,0 0.01548,-0.03095 0.04643,-0.07624z" fill="#38b6ff" stroke="none" stroke-width="0.5" stroke-linecap="butt"/><path d="M234.46783,177.75694c-0.53033,0.53033 -1.06066,0 -1.06066,0l-0.18032,-0.18681c-0.16667,-0.20833 -0.33333,-0.41667 -0.5,-0.625c0,0 -0.46852,-0.58565 0.11713,-1.05417c0.58565,-0.46852 1.05417,0.11713 1.05417,0.11713c0.16667,0.20833 0.33333,0.41667 0.5,0.625l0.06968,0.06319c0,0 0.53033,0.53033 0,1.06066z" fill="#38b6ff" stroke="none" stroke-width="0.5" stroke-linecap="butt"/></g></g></svg>