<svg version="1.1" xmlns="http://www.w3.org/2000/svg" xmlns:xlink="http://www.w3.org/1999/xlink" width="207.34537" height="230.30927" viewBox="0,0,207.34537,230.30927"><defs><linearGradient x1="137.82367" y1="257.15437" x2="169.82366" y2="257.10628" gradientUnits="userSpaceOnUse" id="color-1"><stop offset="0" stop-color="#191919"/><stop offset="1" stop-color="#282828"/></linearGradient><linearGradient x1="200.82363" y1="257.0597" x2="168.82366" y2="257.10779" gradientUnits="userSpaceOnUse" id="color-2"><stop offset="0" stop-color="#191919"/><stop offset="1" stop-color="#282828"/></linearGradient><linearGradient x1="199.82363" y1="257.06121" x2="231.8236" y2="257.01312" gradientUnits="userSpaceOnUse" id="color-3"><stop offset="0" stop-color="#191919"/><stop offset="1" stop-color="#282828"/></linearGradient><linearGradient x1="262.82356" y1="256.96654" x2="230.8236" y2="257.01463" gradientUnits="userSpaceOnUse" id="color-4"><stop offset="0" stop-color="#191919"/><stop offset="1" stop-color="#282828"/></linearGradient><linearGradient x1="239.40737" y1="257.2986" x2="262.40735" y2="257.26404" gradientUnits="userSpaceOnUse" id="color-5"><stop offset="0" stop-color="#111111" stop-opacity="0"/><stop offset="1" stop-color="#111111"/></linearGradient><linearGradient x1="218.82361" y1="257.03266" x2="250.82357" y2="256.98457" gradientUnits="userSpaceOnUse" id="color-6"><stop offset="0" stop-color="#191919"/><stop offset="1" stop-color="#282828"/></linearGradient><linearGradient x1="281.82354" y1="256.93799" x2="249.82358" y2="256.98608" gradientUnits="userSpaceOnUse" id="color-7"><stop offset="0" stop-color="#191919"/><stop offset="1" stop-color="#282828"/></linearGradient><linearGradient x1="280.82354" y1="256.9395" x2="312.8235" y2="256.89141" gradientUnits="userSpaceOnUse" id="color-8"><stop offset="0" stop-color="#191919"/><stop offset="1" stop-color="#282828"/></linearGradient><linearGradient x1="343.82346" y1="256.84483" x2="311.82351" y2="256.89292" gradientUnits="userSpaceOnUse" id="color-9"><stop offset="0" stop-color="#191919"/><stop offset="1" stop-color="#282828"/></linearGradient><linearGradient x1="217.59221" y1="103.03433" x2="249.59218" y2="102.98625" gradientUnits="userSpaceOnUse" id="color-10"><stop offset="0" stop-color="#191919"/><stop offset="1" stop-color="#282828"/></linearGradient><linearGradient x1="280.59214" y1="102.93967" x2="248.59218" y2="102.98775" gradientUnits="userSpaceOnUse" id="color-11"><stop offset="0" stop-color="#191919"/><stop offset="1" stop-color="#282828"/></linearGradient><linearGradient x1="217.17597" y1="103.33183" x2="246.67597" y2="103.2875" gradientUnits="userSpaceOnUse" id="color-12"><stop offset="0" stop-color="#0f0f0f"/><stop offset="1" stop-color="#0f0f0f" stop-opacity="0"/></linearGradient><linearGradient x1="280.09303" y1="102.93967" x2="312.59121" y2="102.89159" gradientUnits="userSpaceOnUse" id="color-13"><stop offset="0" stop-color="#191919"/><stop offset="1" stop-color="#282828"/></linearGradient><linearGradient x1="343.59206" y1="102.84501" x2="311.59211" y2="102.89309" gradientUnits="userSpaceOnUse" id="color-14"><stop offset="0" stop-color="#191919"/><stop offset="1" stop-color="#282828"/></linearGradient><linearGradient x1="136.59227" y1="103.15604" x2="168.59226" y2="103.10796" gradientUnits="userSpaceOnUse" id="color-15"><stop offset="0" stop-color="#191919"/><stop offset="1" stop-color="#282828"/></linearGradient><linearGradient x1="199.59223" y1="103.06138" x2="167.59226" y2="103.10946" gradientUnits="userSpaceOnUse" id="color-16"><stop offset="0" stop-color="#191919"/><stop offset="1" stop-color="#282828"/></linearGradient><linearGradient x1="198.59223" y1="103.06288" x2="230.5922" y2="103.0148" gradientUnits="userSpaceOnUse" id="color-17"><stop offset="0" stop-color="#191919"/><stop offset="1" stop-color="#282828"/></linearGradient><linearGradient x1="261.59216" y1="102.96822" x2="229.5922" y2="103.0163" gradientUnits="userSpaceOnUse" id="color-18"><stop offset="0" stop-color="#191919"/><stop offset="1" stop-color="#282828"/></linearGradient></defs><g transform="translate(-136.5352,-64.84505)"><g data-paper-data="{&quot;isPaintingLayer&quot;:true}" fill-rule="nonzero" stroke="none" stroke-width="0" stroke-linecap="butt" stroke-linejoin="miter" stroke-miterlimit="10" stroke-dasharray="" stroke-dashoffset="0" style="mix-blend-mode: normal"><path d="M169.88075,295.10624l-31.99996,0.04808l-0.1142,-75.99991l31.99996,-0.04808z" fill="url(#color-1)"/><path d="M168.76656,219.10783l31.99996,-0.04808l0.1142,75.99991l-31.99996,0.04808z" data-paper-data="{&quot;index&quot;:null}" fill="url(#color-2)"/><path d="M165.96409,295.0986l-8.99999,0.01352l-0.1133,-75.40616l8.99999,-0.01352z" fill="#1a1a1a"/><path d="M147.46411,295.1249l-9.02038,0.01653l-0.09291,-75.40616l9.02038,-0.01653z" fill="#1a1a1a"/><path d="M183.46405,295.07231l-9.99999,0.01503l-0.1142,-75.99991l9.99999,-0.01503z" fill="#1a1a1a"/><path d="M231.88069,295.01308l-31.99996,0.04808l-0.1142,-75.99991l31.99996,-0.04808z" fill="url(#color-3)"/><path d="M230.7665,219.01467l31.99996,-0.04808l0.1142,75.99991l-31.99996,0.04808z" data-paper-data="{&quot;index&quot;:null}" fill="url(#color-4)"/><path d="M236.96403,295.00544l-8.99999,0.01352l-0.1133,-75.40616l8.99999,-0.01352z" fill="#1a1a1a"/><path d="M210.46402,295.03174l-10.99999,0.01653l-0.1133,-75.40616l10.99999,-0.01653z" fill="#1a1a1a"/><path d="M254.46401,294.97915l-9.99999,0.01503l-0.1142,-75.99991l9.99999,-0.01503z" fill="#131313"/><path d="M262.464,294.96713l-22.99997,0.03456l-0.1133,-75.40616l22.99997,-0.03456z" fill="url(#color-5)"/><path d="M250.88067,294.98453l-31.99996,0.04808l-0.1142,-75.99991l31.99996,-0.04808z" fill="url(#color-6)"/><path d="M249.76648,218.98612l31.99996,-0.04808l0.1142,75.99991l-31.99996,0.04808z" data-paper-data="{&quot;index&quot;:null}" fill="url(#color-7)"/><path d="M246.96401,294.97689l-8.99999,0.01352l-0.1133,-75.40616l8.99999,-0.01352z" fill="#1a1a1a"/><path d="M228.96403,295.00319l-10.99999,0.01653l-0.1133,-75.40616l10.99999,-0.01653z" fill="#1a1a1a"/><path d="M264.46399,294.9506l-9.99999,0.01503l-0.1142,-75.99991l9.99999,-0.01503z" fill="#1a1a1a"/><path d="M312.8806,294.89137l-31.99996,0.04808l-0.1142,-75.99991l31.99996,-0.04808z" fill="url(#color-8)"/><path d="M311.76641,218.89296l31.99996,-0.04808l0.1142,75.99991l-31.99996,0.04808z" data-paper-data="{&quot;index&quot;:null}" fill="url(#color-9)"/><path d="M308.96393,294.88373l-8.99999,0.01352l-0.1133,-75.40616l8.99999,-0.01352z" fill="#1a1a1a"/><path d="M291.46396,294.91003l-10.99999,0.01653l-0.1133,-75.40616l10.99999,-0.01653z" fill="#1a1a1a"/><path d="M326.46391,294.85744l-9.99999,0.01503l-0.1142,-75.99991l9.99999,-0.01503z" fill="#1a1a1a"/><path d="M249.64927,140.98621l-31.99996,0.04808l-0.1142,-75.99991l31.99996,-0.04808z" fill="url(#color-10)"/><path d="M248.53508,64.9878l31.99996,-0.04808l0.1142,75.99991l-31.99996,0.04808z" data-paper-data="{&quot;index&quot;:null}" fill="url(#color-11)"/><path d="M254.73261,140.97857l-8.99999,0.01352l-0.1133,-75.40616l8.99999,-0.01352z" fill="#1a1a1a"/><path d="M237.23263,141.00486l-10.99999,0.01653l-0.1133,-75.40616l10.99999,-0.01653z" fill="#131313"/><path d="M246.73262,140.99059l-29.49997,0.04433l-0.1133,-75.40616l29.49997,-0.04433z" fill="url(#color-12)"/><path d="M312.6492,140.89154l-32.49818,0.04808l-0.11598,-75.99991l32.49818,-0.04808z" fill="url(#color-13)"/><path d="M311.53501,64.89313l31.99996,-0.04808l0.1142,75.99991l-31.99996,0.04808z" data-paper-data="{&quot;index&quot;:null}" fill="url(#color-14)"/><path d="M307.23253,140.88391l-8.99999,0.01352l-0.1133,-75.40616l8.99999,-0.01352z" fill="#1a1a1a"/><path d="M289.73256,140.9102l-10.99999,0.01653l-0.1133,-75.40616l10.99999,-0.01653z" fill="#1a1a1a"/><path d="M324.73251,140.85761l-9.99999,0.01503l-0.1142,-75.99991l9.99999,-0.01503z" fill="#1a1a1a"/><path d="M168.64936,141.10792l-31.99996,0.04808l-0.1142,-75.99991l31.99996,-0.04808z" fill="url(#color-15)"/><path d="M167.53516,65.10951l31.99996,-0.04808l0.1142,75.99991l-31.99996,0.04808z" data-paper-data="{&quot;index&quot;:null}" fill="url(#color-16)"/><path d="M163.23269,141.10028l-8.99999,0.01352l-0.1133,-75.40616l8.99999,-0.01352z" fill="#1a1a1a"/><path d="M144.23271,140.62657l-7.53568,0.01653l-0.07762,-75.40616l7.53568,-0.01653z" fill="#1a1a1a"/><path d="M181.23265,141.07398l-9.99999,0.01503l-0.1142,-75.99991l9.99999,-0.01503z" fill="#1a1a1a"/><path d="M230.6493,141.01476l-31.99996,0.04808l-0.1142,-75.99991l31.99996,-0.04808z" fill="url(#color-17)"/><path d="M229.5351,65.01634l31.99996,-0.04808l0.1142,75.99991l-31.99996,0.04808z" data-paper-data="{&quot;index&quot;:null}" fill="url(#color-18)"/><path d="M225.23263,141.00712l-8.99999,0.01352l-0.1133,-75.40616l8.99999,-0.01352z" fill="#1a1a1a"/><path d="M207.73262,141.03341l-10.99999,0.01653l-0.1133,-75.40616l10.99999,-0.01653z" fill="#1a1a1a"/><path d="M242.73261,140.98082l-9.99999,0.01503l-0.1142,-75.99991l9.99999,-0.01503z" fill="#1a1a1a"/><path d="M343.11702,140.85744l-6.84228,0.01503l-0.07815,-75.99991l6.84228,-0.01503z" fill="#1a1a1a"/><path d="M343.51583,294.85744l-8.12522,0.01503l-0.0928,-75.99991l8.12521,-0.01503z" fill="#1a1a1a"/><path d="M261.73259,140.95227l-9.99999,0.01503l-0.1142,-75.99991l9.99999,-0.01503z" fill="#1a1a1a"/></g></g></svg>