<svg version="1.1" xmlns="http://www.w3.org/2000/svg" xmlns:xlink="http://www.w3.org/1999/xlink" width="296.78796" height="296.78796" viewBox="0,0,296.78796,296.78796"><g transform="translate(-91.60602,-31.60602)"><g data-paper-data="{&quot;isPaintingLayer&quot;:true}" fill="none" fill-rule="nonzero" stroke-linejoin="miter" stroke-miterlimit="10" stroke-dasharray="" stroke-dashoffset="0" style="mix-blend-mode: normal"><path d="M231.13845,142.2585c3.32024,-0.92861 6.82089,-1.42515 10.43752,-1.42515c21.35501,0 38.66666,17.31165 38.66666,38.66666c0,6.56147 -1.63433,12.74122 -4.51813,18.15437" stroke="#7de6ff" stroke-width="1.5" stroke-linecap="round"/><path d="M231.13845,142.42515c3.32024,-0.92861 6.82089,-1.42515 10.43752,-1.42515c21.35501,0 38.66666,17.31165 38.66666,38.66666" stroke="#7de6ff" stroke-width="3" stroke-linecap="round"/><path d="M231.13845,141.92515c3.32024,-0.92861 6.82089,-1.42515 10.43752,-1.42515c11.2914,0 20.95239,4.83988 28.02159,12.55828" stroke="#7de6ff" stroke-width="4" stroke-linecap="round"/><path d="M230.93845,141.72516c3.32024,-0.92861 6.82089,-1.42515 10.43752,-1.42515" stroke="#7de6ff" stroke-width="6" stroke-linecap="round"/><path d="M91.60602,328.39398v-296.78796h296.78796v296.78796z" stroke="none" stroke-width="0" stroke-linecap="butt"/></g></g></svg>