<svg version="1.1" xmlns="http://www.w3.org/2000/svg" xmlns:xlink="http://www.w3.org/1999/xlink" width="82.6" height="10.8" viewBox="0,0,82.6,10.8"><defs><linearGradient x1="-2914.72718" y1="179.9" x2="1300.32316" y2="179.9" gradientUnits="userSpaceOnUse" id="color-1"><stop offset="0" stop-color="#000000"/><stop offset="1" stop-color="#000000" stop-opacity="0"/></linearGradient><linearGradient x1="-305.68833" y1="179.88087" x2="423.40919" y2="179.88087" gradientUnits="userSpaceOnUse" id="color-2"><stop offset="0" stop-color="#000000"/><stop offset="1" stop-color="#000000" stop-opacity="0"/></linearGradient><linearGradient x1="-273.68833" y1="179.88087" x2="455.40919" y2="179.88087" gradientUnits="userSpaceOnUse" id="color-3"><stop offset="0" stop-color="#000000"/><stop offset="1" stop-color="#000000" stop-opacity="0"/></linearGradient><linearGradient x1="-289.68833" y1="179.88087" x2="439.40919" y2="179.88087" gradientUnits="userSpaceOnUse" id="color-4"><stop offset="0" stop-color="#000000"/><stop offset="1" stop-color="#000000" stop-opacity="0"/></linearGradient><linearGradient x1="-337.68833" y1="179.88087" x2="391.40919" y2="179.88087" gradientUnits="userSpaceOnUse" id="color-5"><stop offset="0" stop-color="#000000"/><stop offset="1" stop-color="#000000" stop-opacity="0"/></linearGradient><linearGradient x1="-321.68833" y1="179.88087" x2="407.40919" y2="179.88087" gradientUnits="userSpaceOnUse" id="color-6"><stop offset="0" stop-color="#000000"/><stop offset="1" stop-color="#000000" stop-opacity="0"/></linearGradient></defs><g transform="translate(-198.7,-174.6)"><g data-paper-data="{&quot;isPaintingLayer&quot;:true}" fill-rule="nonzero" stroke="none" stroke-width="0" stroke-linecap="butt" stroke-linejoin="miter" stroke-miterlimit="10" stroke-dasharray="" stroke-dashoffset="0" style="mix-blend-mode: normal"><path d="M198.7,185.4v-10.6l82.6,-0.2v10.6z" fill="url(#color-1)"/><path d="M232.85614,183.37778v-6.73951l14.28772,-0.01605v6.73951z" fill="url(#color-2)"/><path d="M264.85614,183.37778v-6.73951l14.28772,-0.01605v6.73951z" fill="url(#color-3)"/><path d="M248.85614,183.37778v-6.73951l14.28772,-0.01605v6.73951z" fill="url(#color-4)"/><path d="M200.85614,183.37778v-6.73951l14.28772,-0.01605v6.73951z" fill="url(#color-5)"/><path d="M216.85614,183.37778v-6.73951l14.28772,-0.01605v6.73951z" fill="url(#color-6)"/></g></g></svg>