<svg version="1.1" xmlns="http://www.w3.org/2000/svg" xmlns:xlink="http://www.w3.org/1999/xlink" width="285.21835" height="197.25448" viewBox="0,0,285.21835,197.25448"><defs><linearGradient x1="347.42004" y1="163.32824" x2="347.42004" y2="192.96133" gradientUnits="userSpaceOnUse" id="color-1"><stop offset="0" stop-color="#191919"/><stop offset="1" stop-color="#282828"/></linearGradient><linearGradient x1="347.42004" y1="221.66835" x2="347.42004" y2="192.03526" gradientUnits="userSpaceOnUse" id="color-2"><stop offset="0" stop-color="#191919"/><stop offset="1" stop-color="#282828"/></linearGradient><linearGradient x1="347.14513" y1="162.94241" x2="347.14513" y2="190.26036" gradientUnits="userSpaceOnUse" id="color-3"><stop offset="0" stop-color="#0f0f0f"/><stop offset="1" stop-color="#0f0f0f" stop-opacity="0"/></linearGradient><linearGradient x1="347.14513" y1="201.98375" x2="347.14513" y2="223.2825" gradientUnits="userSpaceOnUse" id="color-4"><stop offset="0" stop-color="#111111" stop-opacity="0"/><stop offset="1" stop-color="#111111"/></linearGradient><linearGradient x1="347.42004" y1="220.66835" x2="347.42004" y2="250.30141" gradientUnits="userSpaceOnUse" id="color-5"><stop offset="0" stop-color="#191919"/><stop offset="1" stop-color="#282828"/></linearGradient><linearGradient x1="347.42004" y1="279.00847" x2="347.42004" y2="249.37541" gradientUnits="userSpaceOnUse" id="color-6"><stop offset="0" stop-color="#191919"/><stop offset="1" stop-color="#282828"/></linearGradient><linearGradient x1="260.3728" y1="94.73719" x2="260.3728" y2="124.37026" gradientUnits="userSpaceOnUse" id="color-7"><stop offset="0" stop-color="#191919"/><stop offset="1" stop-color="#282828"/></linearGradient><linearGradient x1="260.3728" y1="153.07725" x2="260.3728" y2="123.44424" gradientUnits="userSpaceOnUse" id="color-8"><stop offset="0" stop-color="#191919"/><stop offset="1" stop-color="#282828"/></linearGradient><linearGradient x1="260.3728" y1="152.15121" x2="260.3728" y2="181.78434" gradientUnits="userSpaceOnUse" id="color-9"><stop offset="0" stop-color="#191919"/><stop offset="1" stop-color="#282828"/></linearGradient><linearGradient x1="260.3728" y1="210.49136" x2="260.3728" y2="180.8583" gradientUnits="userSpaceOnUse" id="color-10"><stop offset="0" stop-color="#191919"/><stop offset="1" stop-color="#282828"/></linearGradient><linearGradient x1="260.24978" y1="188.80674" x2="260.24978" y2="210.10553" gradientUnits="userSpaceOnUse" id="color-11"><stop offset="0" stop-color="#111111" stop-opacity="0"/><stop offset="1" stop-color="#111111"/></linearGradient><linearGradient x1="260.3728" y1="169.74586" x2="260.3728" y2="199.37897" gradientUnits="userSpaceOnUse" id="color-12"><stop offset="0" stop-color="#191919"/><stop offset="1" stop-color="#282828"/></linearGradient><linearGradient x1="260.3728" y1="228.08599" x2="260.3728" y2="198.45293" gradientUnits="userSpaceOnUse" id="color-13"><stop offset="0" stop-color="#191919"/><stop offset="1" stop-color="#282828"/></linearGradient><linearGradient x1="260.3728" y1="227.15997" x2="260.3728" y2="256.79301" gradientUnits="userSpaceOnUse" id="color-14"><stop offset="0" stop-color="#191919"/><stop offset="1" stop-color="#282828"/></linearGradient><linearGradient x1="260.3728" y1="285.50005" x2="260.3728" y2="255.86701" gradientUnits="userSpaceOnUse" id="color-15"><stop offset="0" stop-color="#191919"/><stop offset="1" stop-color="#282828"/></linearGradient><linearGradient x1="218.70135" y1="94.72783" x2="218.70135" y2="124.3609" gradientUnits="userSpaceOnUse" id="color-16"><stop offset="0" stop-color="#191919"/><stop offset="1" stop-color="#282828"/></linearGradient><linearGradient x1="218.70135" y1="153.06788" x2="218.70135" y2="123.43486" gradientUnits="userSpaceOnUse" id="color-17"><stop offset="0" stop-color="#191919"/><stop offset="1" stop-color="#282828"/></linearGradient><linearGradient x1="218.70135" y1="152.14184" x2="218.70135" y2="181.77495" gradientUnits="userSpaceOnUse" id="color-18"><stop offset="0" stop-color="#191919"/><stop offset="1" stop-color="#282828"/></linearGradient><linearGradient x1="218.70135" y1="210.48197" x2="218.70135" y2="180.84891" gradientUnits="userSpaceOnUse" id="color-19"><stop offset="0" stop-color="#191919"/><stop offset="1" stop-color="#282828"/></linearGradient><linearGradient x1="218.5784" y1="188.79738" x2="218.5784" y2="210.09614" gradientUnits="userSpaceOnUse" id="color-20"><stop offset="0" stop-color="#111111" stop-opacity="0"/><stop offset="1" stop-color="#111111"/></linearGradient><linearGradient x1="218.70135" y1="169.73653" x2="218.70135" y2="199.3696" gradientUnits="userSpaceOnUse" id="color-21"><stop offset="0" stop-color="#191919"/><stop offset="1" stop-color="#282828"/></linearGradient><linearGradient x1="218.70135" y1="228.07665" x2="218.70135" y2="198.44356" gradientUnits="userSpaceOnUse" id="color-22"><stop offset="0" stop-color="#191919"/><stop offset="1" stop-color="#282828"/></linearGradient><linearGradient x1="218.70135" y1="227.15061" x2="218.70135" y2="256.78364" gradientUnits="userSpaceOnUse" id="color-23"><stop offset="0" stop-color="#191919"/><stop offset="1" stop-color="#282828"/></linearGradient><linearGradient x1="218.70135" y1="285.49064" x2="218.70135" y2="255.85763" gradientUnits="userSpaceOnUse" id="color-24"><stop offset="0" stop-color="#191919"/><stop offset="1" stop-color="#282828"/></linearGradient><linearGradient x1="132.58015" y1="88.2456" x2="132.58015" y2="117.87866" gradientUnits="userSpaceOnUse" id="color-25"><stop offset="0" stop-color="#191919"/><stop offset="1" stop-color="#282828"/></linearGradient><linearGradient x1="132.58015" y1="146.58567" x2="132.58015" y2="116.95263" gradientUnits="userSpaceOnUse" id="color-26"><stop offset="0" stop-color="#191919"/><stop offset="1" stop-color="#282828"/></linearGradient><linearGradient x1="132.58015" y1="145.65963" x2="132.58015" y2="175.29269" gradientUnits="userSpaceOnUse" id="color-27"><stop offset="0" stop-color="#191919"/><stop offset="1" stop-color="#282828"/></linearGradient><linearGradient x1="132.58015" y1="203.99971" x2="132.58015" y2="174.36665" gradientUnits="userSpaceOnUse" id="color-28"><stop offset="0" stop-color="#191919"/><stop offset="1" stop-color="#282828"/></linearGradient><linearGradient x1="132.30525" y1="182.31516" x2="132.30525" y2="203.61391" gradientUnits="userSpaceOnUse" id="color-29"><stop offset="0" stop-color="#111111" stop-opacity="0"/><stop offset="1" stop-color="#111111"/></linearGradient><linearGradient x1="132.58015" y1="163.25428" x2="132.58015" y2="192.88737" gradientUnits="userSpaceOnUse" id="color-30"><stop offset="0" stop-color="#191919"/><stop offset="1" stop-color="#282828"/></linearGradient><linearGradient x1="132.58015" y1="221.59439" x2="132.58015" y2="191.96133" gradientUnits="userSpaceOnUse" id="color-31"><stop offset="0" stop-color="#191919"/><stop offset="1" stop-color="#282828"/></linearGradient><linearGradient x1="132.30525" y1="201.90977" x2="132.30525" y2="223.20854" gradientUnits="userSpaceOnUse" id="color-32"><stop offset="0" stop-color="#111111" stop-opacity="0"/><stop offset="1" stop-color="#111111"/></linearGradient><linearGradient x1="132.58015" y1="220.66835" x2="132.58015" y2="250.30141" gradientUnits="userSpaceOnUse" id="color-33"><stop offset="0" stop-color="#191919"/><stop offset="1" stop-color="#282828"/></linearGradient><linearGradient x1="132.58015" y1="279.00847" x2="132.58015" y2="249.37541" gradientUnits="userSpaceOnUse" id="color-34"><stop offset="0" stop-color="#191919"/><stop offset="1" stop-color="#282828"/></linearGradient><linearGradient x1="347.42004" y1="88.31956" x2="347.42004" y2="117.95263" gradientUnits="userSpaceOnUse" id="color-35"><stop offset="0" stop-color="#191919"/><stop offset="1" stop-color="#282828"/></linearGradient><linearGradient x1="347.42004" y1="146.65963" x2="347.42004" y2="117.0266" gradientUnits="userSpaceOnUse" id="color-36"><stop offset="0" stop-color="#191919"/><stop offset="1" stop-color="#282828"/></linearGradient><linearGradient x1="347.42004" y1="145.73359" x2="347.42004" y2="175.36665" gradientUnits="userSpaceOnUse" id="color-37"><stop offset="0" stop-color="#191919"/><stop offset="1" stop-color="#282828"/></linearGradient><linearGradient x1="347.42004" y1="204.07372" x2="347.42004" y2="174.44061" gradientUnits="userSpaceOnUse" id="color-38"><stop offset="0" stop-color="#191919"/><stop offset="1" stop-color="#282828"/></linearGradient><linearGradient x1="133" y1="88.33335" x2="133" y2="146.33333" gradientUnits="userSpaceOnUse" id="color-39"><stop offset="0" stop-color="#0e0e0e"/><stop offset="1" stop-color="#0e0e0e" stop-opacity="0"/></linearGradient><linearGradient x1="348.00001" y1="88.33335" x2="348.00001" y2="146.33334" gradientUnits="userSpaceOnUse" id="color-40"><stop offset="0" stop-color="#0e0e0e"/><stop offset="1" stop-color="#0e0e0e" stop-opacity="0"/></linearGradient><linearGradient x1="133" y1="278.33333" x2="133" y2="220.33334" gradientUnits="userSpaceOnUse" id="color-41"><stop offset="0" stop-color="#0e0e0e"/><stop offset="1" stop-color="#0e0e0e" stop-opacity="0"/></linearGradient><linearGradient x1="347.00005" y1="279.33333" x2="347.00005" y2="221.33336" gradientUnits="userSpaceOnUse" id="color-42"><stop offset="0" stop-color="#0e0e0e"/><stop offset="1" stop-color="#0e0e0e" stop-opacity="0"/></linearGradient></defs><g transform="translate(-97.3909,-88.24559)"><g data-paper-data="{&quot;isPaintingLayer&quot;:true}" fill-rule="nonzero" stroke="none" stroke-width="0" stroke-linecap="butt" stroke-linejoin="miter" stroke-miterlimit="10" stroke-dasharray="" stroke-dashoffset="0" style="mix-blend-mode: normal"><path d="M312.23064,192.96133v-29.63307h70.37854v29.63307z" fill="url(#color-1)"/><path d="M382.60925,192.03526v29.63307h-70.37853v-29.63307z" data-paper-data="{&quot;index&quot;:null}" fill="url(#color-2)"/><path d="M312.23064,197.66866v-8.3343h69.82871v8.3343z" fill="#1a1a1a"/><path d="M312.23064,181.46308v-10.18637h69.82871v10.18637z" fill="#131313"/><path d="M312.23064,213.87424v-9.26033h70.37854v9.26033z" fill="#131313"/><path d="M312.23064,190.26036v-27.31798h69.82871v27.31798z" fill="url(#color-3)"/><path d="M312.23064,223.2825v-21.29877h69.82871v21.29877z" fill="url(#color-4)"/><path d="M312.23064,250.30141v-29.63307h70.37854v29.63307z" fill="url(#color-5)"/><path d="M382.60925,249.37541v29.63307h-70.37853v-29.63307z" data-paper-data="{&quot;index&quot;:null}" fill="url(#color-6)"/><path d="M312.23064,257.00874v-8.3343h69.82871v8.3343z" fill="#1a1a1a"/><path d="M312.23064,240.80319v-10.18637h69.82871v10.18637z" fill="#131313"/><path d="M312.23064,273.21434v-9.26033h70.37854v9.26033z" fill="#131313"/><path d="M244.63026,124.37026v-29.63306h31.48513v29.63307z" fill="url(#color-7)"/><path d="M276.11537,123.44424v29.63306h-31.48513v-29.63306z" data-paper-data="{&quot;index&quot;:null}" fill="url(#color-8)"/><path d="M244.63026,131.07759v-8.3343h31.23916v8.3343z" fill="#131313"/><path d="M244.63026,114.87203v-10.18636h31.23916v10.18636z" fill="#131313"/><path d="M244.63026,147.28314v-9.26033h31.48513v9.26033z" fill="#131313"/><path d="M244.63026,181.78434v-29.63307h31.48513v29.63307z" fill="url(#color-9)"/><path d="M276.11537,180.8583v29.63307h-31.48513v-29.63307z" data-paper-data="{&quot;index&quot;:null}" fill="url(#color-10)"/><path d="M244.63026,186.49165v-8.3343h31.23916v8.3343z" fill="#1a1a1a"/><path d="M244.63026,172.2861v-10.18637h31.23916v10.18637z" fill="#131313"/><path d="M244.63026,202.69723v-9.26034h31.48513v9.26034z" fill="#131313"/><path d="M244.63026,210.10553v-21.29877h31.23916v21.29877z" fill="url(#color-11)"/><path d="M244.63026,199.37897v-29.63307h31.48513v29.63307z" fill="url(#color-12)"/><path d="M276.11537,198.45293v29.63306h-31.48513v-29.63306z" data-paper-data="{&quot;index&quot;:null}" fill="url(#color-13)"/><path d="M244.63026,206.08628v-8.3343h31.23916v8.3343z" fill="#131313"/><path d="M244.63026,189.8807v-10.18636h31.23916v10.18636z" fill="#131313"/><path d="M244.63026,222.29188v-9.26033h31.48513v9.26033z" fill="#131313"/><path d="M244.63026,256.79301v-29.63307h31.48513v29.63307z" fill="url(#color-14)"/><path d="M276.11537,255.86701v29.63306h-31.48513v-29.63306z" data-paper-data="{&quot;index&quot;:null}" fill="url(#color-15)"/><path d="M244.63026,263.50032v-8.3343h31.23916v8.3343z" fill="#131313"/><path d="M244.63026,247.29479v-10.18636h31.23916v10.18636z" fill="#131313"/><path d="M244.63026,279.70592v-9.26033h31.48513v9.26033z" fill="#131313"/><path d="M202.95878,124.3609v-29.63307h31.48514v29.63307z" fill="url(#color-16)"/><path d="M234.44391,123.43486v29.63307h-31.48514v-29.63306z" data-paper-data="{&quot;index&quot;:null}" fill="url(#color-17)"/><path d="M202.95878,131.0682v-8.3343h31.23916v8.3343z" fill="#131313"/><path d="M202.95878,114.86265v-10.18636h31.23916v10.18636z" fill="#131313"/><path d="M202.95878,147.2738v-9.26033h31.48514v9.26033z" fill="#131313"/><path d="M202.95878,181.77495v-29.63306h31.48514v29.63306z" fill="url(#color-18)"/><path d="M234.44391,180.84891v29.63306h-31.48514v-29.63306z" data-paper-data="{&quot;index&quot;:null}" fill="url(#color-19)"/><path d="M202.95878,186.48229v-8.3343h31.23916v8.3343z" fill="#1a1a1a"/><path d="M202.95878,172.27671v-10.18636h31.23916v10.18636z" fill="#131313"/><path d="M202.95878,202.68787v-9.26033h31.48514v9.26033z" fill="#131313"/><path d="M202.95878,210.09614v-21.29877h31.23916v21.29877z" fill="url(#color-20)"/><path d="M202.95878,199.3696v-29.63307h31.48514v29.63307z" fill="url(#color-21)"/><path d="M234.44391,198.44356v29.63307h-31.48514v-29.63307z" data-paper-data="{&quot;index&quot;:null}" fill="url(#color-22)"/><path d="M202.95878,206.07689v-8.3343h31.23916v8.3343z" fill="#131313"/><path d="M202.95878,189.87134v-10.18637h31.23916v10.18637z" fill="#131313"/><path d="M202.95878,222.2825v-9.26033h31.48514v9.26033z" fill="#131313"/><path d="M202.95878,256.78364v-29.63307h31.48514v29.63307z" fill="url(#color-23)"/><path d="M234.44391,255.85763v29.63307h-31.48514v-29.63307z" data-paper-data="{&quot;index&quot;:null}" fill="url(#color-24)"/><path d="M202.95878,263.491v-8.3343h31.23916v8.3343z" fill="#131313"/><path d="M202.95878,247.28542v-10.18636h31.23916v10.18636z" fill="#131313"/><path d="M202.95878,279.6966v-9.26033h31.48514v9.26033z" fill="#131313"/><path d="M97.39101,117.87866v-29.63307h70.37853v29.63307z" fill="url(#color-25)"/><path d="M167.76943,116.95263v29.63307h-70.37853v-29.63307z" data-paper-data="{&quot;index&quot;:null}" fill="url(#color-26)"/><path d="M97.39101,124.586v-8.3343h69.8287v8.3343z" fill="#1a1a1a"/><path d="M97.39101,108.38042v-10.18637h69.8287v10.18637z" fill="#131313"/><path d="M97.39101,140.79154v-9.26033h70.37853v9.26033z" fill="#131313"/><path d="M97.39101,175.29269v-29.63307h70.37853v29.63307z" fill="url(#color-27)"/><path d="M167.76943,174.36665v29.63306h-70.37853v-29.63306z" data-paper-data="{&quot;index&quot;:null}" fill="url(#color-28)"/><path d="M97.39101,180.00005v-8.3343h69.8287v8.3343z" fill="#1a1a1a"/><path d="M97.39101,165.79442v-10.18636h69.8287v10.18636z" fill="#131313"/><path d="M97.39101,196.20565v-9.26034h70.37853v9.26034z" fill="#131313"/><path d="M97.39101,203.61391v-21.29877h69.8287v21.29877z" fill="url(#color-29)"/><path d="M97.39101,192.88737v-29.63307h70.37853v29.63307z" fill="url(#color-30)"/><path d="M167.76943,191.96133v29.63306h-70.37853v-29.63306z" data-paper-data="{&quot;index&quot;:null}" fill="url(#color-31)"/><path d="M97.39101,199.5947v-8.3343h69.8287v8.3343z" fill="#131313"/><path d="M97.39101,183.38912v-10.18636h69.8287v10.18636z" fill="#131313"/><path d="M97.39101,213.80028v-9.26033h70.37853v9.26033z" fill="#131313"/><path d="M97.39101,223.20854v-21.29877h69.8287v21.29877z" fill="url(#color-32)"/><path d="M97.39101,250.30141v-29.63307h70.37853v29.63307z" fill="url(#color-33)"/><path d="M167.76943,249.37541v29.63307h-70.37853v-29.63307z" data-paper-data="{&quot;index&quot;:null}" fill="url(#color-34)"/><path d="M97.39101,257.00874v-8.3343h69.8287v8.3343z" fill="#1a1a1a"/><path d="M97.39101,240.80319v-10.18637h69.8287v10.18637z" fill="#131313"/><path d="M97.39101,273.21434v-9.26033h70.37853v9.26033z" fill="#131313"/><path d="M312.23064,117.95263v-29.63306h70.37854v29.63307z" fill="url(#color-35)"/><path d="M382.60925,117.0266v29.63307h-70.37853v-29.63306z" data-paper-data="{&quot;index&quot;:null}" fill="url(#color-36)"/><path d="M312.23064,124.65997v-8.3343h69.82871v8.3343z" fill="#1a1a1a"/><path d="M312.23064,108.4544v-10.18636h69.82871v10.18636z" fill="#131313"/><path d="M312.23064,140.8655v-9.26033h70.37854v9.26033z" fill="#131313"/><path d="M312.23064,175.36665v-29.63307h70.37854v29.63307z" fill="url(#color-37)"/><path d="M382.60925,174.44061v29.63307h-70.37853v-29.63307z" data-paper-data="{&quot;index&quot;:null}" fill="url(#color-38)"/><path d="M312.23064,182.07403v-8.3343h69.82871v8.3343z" fill="#131313"/><path d="M312.23064,165.86838v-10.18637h69.82871v10.18637z" fill="#131313"/><path d="M312.23064,198.27961v-9.26033h70.37854v9.26033z" fill="#131313"/><path d="M98.50006,146.33333v-58h69v58z" fill="url(#color-39)"/><path d="M313.50001,146.33334v-58h69v58z" fill="url(#color-40)"/><path d="M167.50005,220.33334v58h-69v-58z" data-paper-data="{&quot;index&quot;:null}" fill="url(#color-41)"/><path d="M381.50006,221.33336v58h-69v-58z" data-paper-data="{&quot;index&quot;:null}" fill="url(#color-42)"/></g></g></svg>