<svg version="1.1" xmlns="http://www.w3.org/2000/svg" xmlns:xlink="http://www.w3.org/1999/xlink" width="25.23023" height="19.66329" viewBox="0,0,25.23023,19.66329"><defs><radialGradient cx="236.58335" cy="180.10161" r="8.5" gradientUnits="userSpaceOnUse" id="color-1"><stop offset="0" stop-color="#000000"/><stop offset="1" stop-color="#ef0000"/></radialGradient><linearGradient x1="232.97841" y1="180.07633" x2="234.06555" y2="180.07633" gradientUnits="userSpaceOnUse" id="color-2"><stop offset="0" stop-color="#b90000" stop-opacity="0"/><stop offset="1" stop-color="#b90000"/></linearGradient><linearGradient x1="249.83136" y1="186.40519" x2="251.90279" y2="186.40519" gradientUnits="userSpaceOnUse" id="color-3"><stop offset="0" stop-color="#4e4e4e"/><stop offset="1" stop-color="#797979"/></linearGradient><linearGradient x1="253.09326" y1="186.40519" x2="255.16469" y2="186.40519" gradientUnits="userSpaceOnUse" id="color-4"><stop offset="0" stop-color="#4e4e4e"/><stop offset="1" stop-color="#797979"/></linearGradient><linearGradient x1="249.87104" y1="173.90519" x2="251.94247" y2="173.90519" gradientUnits="userSpaceOnUse" id="color-5"><stop offset="0" stop-color="#4e4e4e"/><stop offset="1" stop-color="#797979"/></linearGradient><linearGradient x1="253.02183" y1="173.91411" x2="255.09326" y2="173.91411" gradientUnits="userSpaceOnUse" id="color-6"><stop offset="0" stop-color="#4e4e4e"/><stop offset="1" stop-color="#797979"/></linearGradient><linearGradient x1="249.86211" y1="180.16411" x2="251.93354" y2="180.16411" gradientUnits="userSpaceOnUse" id="color-7"><stop offset="0" stop-color="#4e4e4e"/><stop offset="1" stop-color="#797979"/></linearGradient><linearGradient x1="253.02183" y1="180.16411" x2="255.09326" y2="180.16411" gradientUnits="userSpaceOnUse" id="color-8"><stop offset="0" stop-color="#4e4e4e"/><stop offset="1" stop-color="#797979"/></linearGradient><linearGradient x1="245.80556" y1="185.29142" x2="245.80556" y2="189.95809" gradientUnits="userSpaceOnUse" id="color-9"><stop offset="0" stop-color="#bebebe" stop-opacity="0"/><stop offset="1" stop-color="#bebebe"/></linearGradient><linearGradient x1="238.6389" y1="181.51364" x2="238.6389" y2="186.18031" gradientUnits="userSpaceOnUse" id="color-10"><stop offset="0" stop-color="#ff1919" stop-opacity="0"/><stop offset="1" stop-color="#ff1919"/></linearGradient></defs><g transform="translate(-231.59175,-170.2948)"><g data-paper-data="{&quot;isPaintingLayer&quot;:true}" fill-rule="nonzero" stroke-linejoin="miter" stroke-miterlimit="10" stroke-dasharray="" stroke-dashoffset="0" style="mix-blend-mode: normal"><g><path d="M243.26383,188.10578l-4.07946,0.00001" data-paper-data="{&quot;index&quot;:null}" fill="none" stroke="#940000" stroke-width="1" stroke-linecap="round"/><path d="M239.00488,172.10257h4.07947" fill="none" stroke="#940000" stroke-width="1" stroke-linecap="round"/><path d="M234.02085,188.60161v-17h5.125v17z" fill="url(#color-1)" stroke="none" stroke-width="0" stroke-linecap="butt"/><g><path d="M234.69483,183.73388l-0.81517,-0.61138l-2.03791,-1.42654v-3.36256l2.54741,-1.63034z" fill="#ec0000" stroke="#ff0000" stroke-width="0.5" stroke-linecap="round"/><path d="M234.06555,183.51734l-1.08714,-0.71761v-5.46314l1.0838,-0.70128z" fill="url(#color-2)" stroke="none" stroke-width="0" stroke-linecap="butt"/></g><path d="M234.02496,186.21828v-12.3h12.3v12.3z" fill="#fb0000" stroke="none" stroke-width="0" stroke-linecap="butt"/><path d="M243.18562,189.93116v-19.63636h6.81818v19.63636z" fill="#999999" stroke="none" stroke-width="0" stroke-linecap="butt"/><path d="M243.80835,189.33216v-18.4h5.76667v18.4z" fill="#a1a1a1" stroke="none" stroke-width="NaN" stroke-linecap="butt"/><path d="M248.34723,189.93116v-19.63636h8.47475v19.63636z" fill="#717171" stroke="none" stroke-width="0" stroke-linecap="butt"/><path d="M248.3639,189.33216v-18.4h7.76667v18.4z" fill="#7e7e7e" stroke="none" stroke-width="NaN" stroke-linecap="butt"/><path d="M249.83136,186.40519c0,-1.20319 0.4637,-2.17857 1.03571,-2.17857c0.57201,0 1.03572,0.97538 1.03572,2.17857c0,1.20319 -0.46371,2.17857 -1.03572,2.17857c-0.57201,0 -1.03571,-0.97538 -1.03571,-2.17857z" fill="url(#color-3)" stroke="#717171" stroke-width="0.5" stroke-linecap="butt"/><path d="M253.09326,186.40519c0,-1.20319 0.4637,-2.17857 1.03571,-2.17857c0.57201,0 1.03572,0.97538 1.03572,2.17857c0,1.20319 -0.46371,2.17857 -1.03572,2.17857c-0.57201,0 -1.03571,-0.97538 -1.03571,-2.17857z" fill="url(#color-4)" stroke="#717171" stroke-width="0.5" stroke-linecap="butt"/><path d="M249.87104,173.90519c0,-1.20319 0.46371,-2.17857 1.03572,-2.17857c0.57201,0 1.03572,0.97538 1.03572,2.17857c0,1.20319 -0.46371,2.17857 -1.03572,2.17857c-0.57201,0 -1.03572,-0.97538 -1.03572,-2.17857z" fill="url(#color-5)" stroke="#717171" stroke-width="0.5" stroke-linecap="butt"/><path d="M253.02183,173.91411c0,-1.20319 0.46371,-2.17857 1.03572,-2.17857c0.57201,0 1.03572,0.97538 1.03572,2.17857c0,1.20319 -0.46371,2.17857 -1.03572,2.17857c-0.57201,0 -1.03572,-0.97538 -1.03572,-2.17857z" fill="url(#color-6)" stroke="#717171" stroke-width="0.5" stroke-linecap="butt"/><path d="M249.86211,180.16411c0,-1.20319 0.46371,-2.17857 1.03571,-2.17857c0.57201,0 1.03571,0.97538 1.03571,2.17857c0,1.20319 -0.4637,2.17857 -1.03571,2.17857c-0.57201,0 -1.03571,-0.97538 -1.03571,-2.17857z" fill="url(#color-7)" stroke="#717171" stroke-width="0.5" stroke-linecap="butt"/><path d="M253.02183,180.16411c0,-1.20319 0.46371,-2.17857 1.03572,-2.17857c0.57201,0 1.03571,0.97538 1.03571,2.17857c0,1.20319 -0.4637,2.17857 -1.03571,2.17857c-0.57201,0 -1.03572,-0.97538 -1.03572,-2.17857z" fill="url(#color-8)" stroke="#717171" stroke-width="0.5" stroke-linecap="butt"/><path d="M243.25001,189.95809v-4.66667h5.11111v4.66667z" fill="url(#color-9)" stroke="none" stroke-width="0" stroke-linecap="butt"/><path d="M234.02778,186.18031v-4.66667h9.22222v4.66667z" fill="url(#color-10)" stroke="none" stroke-width="0" stroke-linecap="butt"/></g></g></g></svg>