<svg version="1.1" xmlns="http://www.w3.org/2000/svg" xmlns:xlink="http://www.w3.org/1999/xlink" width="16" height="378.25" viewBox="0,0,16,378.25"><defs><radialGradient cx="239.5" cy="179" r="8" gradientUnits="userSpaceOnUse" id="color-1"><stop offset="0" stop-color="#e6fffe"/><stop offset="1" stop-color="#e6fffe" stop-opacity="0"/></radialGradient><radialGradient cx="239.5" cy="179" r="6.02597" gradientUnits="userSpaceOnUse" id="color-2"><stop offset="0" stop-color="#e6fffe"/><stop offset="1" stop-color="#e6fffe" stop-opacity="0"/></radialGradient><radialGradient cx="239.5" cy="179" r="7.27272" gradientUnits="userSpaceOnUse" id="color-3"><stop offset="0" stop-color="#e6fffe"/><stop offset="1" stop-color="#e6fffe" stop-opacity="0"/></radialGradient><linearGradient x1="239.03247" y1="308.73137" x2="234.35715" y2="308.73137" gradientUnits="userSpaceOnUse" id="color-4"><stop offset="0" stop-color="#e6fffe"/><stop offset="1" stop-color="#e6fffe" stop-opacity="0"/></linearGradient><linearGradient x1="240.59091" y1="309.39803" x2="245.26624" y2="309.39803" gradientUnits="userSpaceOnUse" id="color-5"><stop offset="0" stop-color="#e6fffe"/><stop offset="1" stop-color="#e6fffe" stop-opacity="0"/></linearGradient></defs><g transform="translate(-231.5,-140.5)"><g data-paper-data="{&quot;isPaintingLayer&quot;:true}" fill-rule="nonzero" stroke-linejoin="miter" stroke-miterlimit="10" stroke-dasharray="" stroke-dashoffset="0" style="mix-blend-mode: normal"><path d="M231.5,179c0,-21.26296 3.58172,-38.5 8,-38.5c4.41828,0 8,17.23704 8,38.5c0,21.26296 -3.58172,38.5 -8,38.5c-4.41828,0 -8,-17.23704 -8,-38.5z" fill="url(#color-1)" stroke="none" stroke-width="0" stroke-linecap="butt"/><path d="M233.47403,179c0,-16.01626 2.69792,-29 6.02597,-29c3.32805,0 6.02597,12.98374 6.02597,29c0,16.01626 -2.69792,29 -6.02597,29c-3.32805,0 -6.02597,-12.98374 -6.02597,-29z" fill="url(#color-2)" stroke="none" stroke-width="0" stroke-linecap="butt"/><path d="M232.22728,179c0,-19.32997 3.25611,-35 7.27272,-35c4.01661,0 7.27272,15.67003 7.27272,35c0,19.32997 -3.25611,35 -7.27272,35c-4.01661,0 -7.27272,-15.67003 -7.27272,-35z" fill="url(#color-3)" stroke="none" stroke-width="0" stroke-linecap="butt"/><path d="M234.35715,509.12939v-340.79606h4.67533v340.79606z" data-paper-data="{&quot;index&quot;:null}" fill="url(#color-4)" stroke="none" stroke-width="0" stroke-linecap="butt"/><path d="M238.35715,516v-348h3.32468v348z" fill="#e6fffe" stroke="none" stroke-width="0" stroke-linecap="butt"/><path d="M240.59091,511.79606v-343.67106h4.67533v343.67106z" fill="url(#color-5)" stroke="none" stroke-width="0" stroke-linecap="butt"/><path d="M240.76016,516.25c0,0 0.67363,-25.95864 -0.03404,-53.21686c-0.58627,-22.58204 -2.57677,-46.05601 -2.57677,-56.40109c0,-12.20591 1.81168,-32.73541 2.04011,-56.89232c0.1766,-18.6765 -2.07247,-39.52123 -1.98532,-60.36394c0.08485,-20.29232 2.5518,-40.58273 2.96563,-58.86842c0.90301,-39.90155 -0.40961,-59.88237 -0.40961,-59.88237" data-paper-data="{&quot;index&quot;:null}" fill="none" stroke="#e6fffe" stroke-width="5" stroke-linecap="round"/></g></g></svg>