<svg version="1.1" xmlns="http://www.w3.org/2000/svg" xmlns:xlink="http://www.w3.org/1999/xlink" width="52.74936" height="73.81936" viewBox="0,0,52.74936,73.81936"><defs><radialGradient cx="243.28599" cy="208.21143" r="8.89813" gradientUnits="userSpaceOnUse" id="color-1"><stop offset="0" stop-color="#fff696"/><stop offset="1" stop-color="#fff696" stop-opacity="0"/></radialGradient><radialGradient cx="242.88203" cy="205.428" r="12.35459" gradientUnits="userSpaceOnUse" id="color-2"><stop offset="0" stop-color="#fcd81d"/><stop offset="1" stop-color="#fcd81d" stop-opacity="0"/></radialGradient><linearGradient x1="243.51597" y1="204.32198" x2="243.51597" y2="221.18561" gradientUnits="userSpaceOnUse" id="color-3"><stop offset="0" stop-color="#ffffff"/><stop offset="1" stop-color="#ffffff" stop-opacity="0"/></linearGradient><radialGradient cx="243.44657" cy="208.44531" r="6.32236" gradientUnits="userSpaceOnUse" id="color-4"><stop offset="0" stop-color="#ffee35"/><stop offset="1" stop-color="#ffee35" stop-opacity="0"/></radialGradient><linearGradient x1="244.10646" y1="125.00034" x2="244.10646" y2="219.02639" gradientUnits="userSpaceOnUse" id="color-5"><stop offset="0" stop-color="#a300f2"/><stop offset="1" stop-color="#a300f2" stop-opacity="0"/></linearGradient><linearGradient x1="244.34417" y1="96.98158" x2="244.34417" y2="225.00219" gradientUnits="userSpaceOnUse" id="color-6"><stop offset="0" stop-color="#f1f1f1"/><stop offset="1" stop-color="#f1f1f1" stop-opacity="0"/></linearGradient><linearGradient x1="243.3359" y1="204.61823" x2="243.3359" y2="212.52599" gradientUnits="userSpaceOnUse" id="color-7"><stop offset="0" stop-color="#ff4f00"/><stop offset="1" stop-color="#ff4f00" stop-opacity="0"/></linearGradient><linearGradient x1="243.40388" y1="204.86497" x2="243.40388" y2="210.2108" gradientUnits="userSpaceOnUse" id="color-8"><stop offset="0" stop-color="#ffd400"/><stop offset="1" stop-color="#ffd400" stop-opacity="0"/></linearGradient><linearGradient x1="243.40617" y1="204.50691" x2="243.40617" y2="213.38923" gradientUnits="userSpaceOnUse" id="color-9"><stop offset="0" stop-color="#ffee00"/><stop offset="1" stop-color="#ffee00" stop-opacity="0"/></linearGradient><linearGradient x1="243.47869" y1="204.43396" x2="243.47869" y2="208.32134" gradientUnits="userSpaceOnUse" id="color-10"><stop offset="0" stop-color="#ffee00"/><stop offset="1" stop-color="#ffee00" stop-opacity="0"/></linearGradient><linearGradient x1="241.43594" y1="204.50691" x2="241.43594" y2="208.39429" gradientUnits="userSpaceOnUse" id="color-11"><stop offset="0" stop-color="#ffee00"/><stop offset="1" stop-color="#ffee00" stop-opacity="0"/></linearGradient><linearGradient x1="245.52145" y1="204.50691" x2="245.52145" y2="208.39429" gradientUnits="userSpaceOnUse" id="color-12"><stop offset="0" stop-color="#ffee00"/><stop offset="1" stop-color="#ffee00" stop-opacity="0"/></linearGradient><radialGradient cx="243.28175" cy="207.64309" r="6.32236" gradientUnits="userSpaceOnUse" id="color-13"><stop offset="0" stop-color="#feea00"/><stop offset="1" stop-color="#feea00" stop-opacity="0"/></radialGradient><linearGradient x1="248.11858" y1="206.02092" x2="239.08449" y2="206.02092" gradientUnits="userSpaceOnUse" id="color-14"><stop offset="0" stop-color="#5f5f5f"/><stop offset="1" stop-color="#4c4c4c"/></linearGradient><linearGradient x1="248.11858" y1="206.02092" x2="239.08449" y2="206.02092" gradientUnits="userSpaceOnUse" id="color-15"><stop offset="0" stop-color="#949494"/><stop offset="1" stop-color="#757575"/></linearGradient><linearGradient x1="247.84002" y1="204.21928" x2="244.90897" y2="204.21928" gradientUnits="userSpaceOnUse" id="color-16"><stop offset="0" stop-color="#4c4c4c"/><stop offset="1" stop-color="#4c4c4c" stop-opacity="0"/></linearGradient><linearGradient x1="239.36368" y1="204.21927" x2="242.29473" y2="204.21927" gradientUnits="userSpaceOnUse" id="color-17"><stop offset="0" stop-color="#5f5f5f"/><stop offset="1" stop-color="#5f5f5f" stop-opacity="0"/></linearGradient><linearGradient x1="244.2849" y1="206.57577" x2="244.2849" y2="212.8485" gradientUnits="userSpaceOnUse" id="color-18"><stop offset="0" stop-color="#fccf00"/><stop offset="1" stop-color="#fccf00" stop-opacity="0"/></linearGradient><linearGradient x1="260.74181" y1="175.04168" x2="260.74181" y2="181.16668" gradientUnits="userSpaceOnUse" id="color-19"><stop offset="0" stop-color="#ff8800"/><stop offset="1" stop-color="#ffc500"/></linearGradient><linearGradient x1="227.13069" y1="175.04168" x2="227.13069" y2="181.16668" gradientUnits="userSpaceOnUse" id="color-20"><stop offset="0" stop-color="#ff8800"/><stop offset="1" stop-color="#ffc500"/></linearGradient><linearGradient x1="254.9512" y1="171.04763" x2="254.9512" y2="180.4979" gradientUnits="userSpaceOnUse" id="color-21"><stop offset="0" stop-color="#ff8800"/><stop offset="1" stop-color="#ffc500"/></linearGradient><linearGradient x1="257.91067" y1="173.47077" x2="257.91067" y2="180.61906" gradientUnits="userSpaceOnUse" id="color-22"><stop offset="0" stop-color="#ff8800"/><stop offset="1" stop-color="#ffc500"/></linearGradient><linearGradient x1="232.96655" y1="171.04763" x2="232.96655" y2="180.4979" gradientUnits="userSpaceOnUse" id="color-23"><stop offset="0" stop-color="#ff8800"/><stop offset="1" stop-color="#ffc500"/></linearGradient><linearGradient x1="230.00711" y1="173.47077" x2="230.00711" y2="180.61906" gradientUnits="userSpaceOnUse" id="color-24"><stop offset="0" stop-color="#ff8800"/><stop offset="1" stop-color="#ffc500"/></linearGradient><linearGradient x1="246.32213" y1="167.87077" x2="241.43666" y2="167.87077" gradientUnits="userSpaceOnUse" id="color-25"><stop offset="0" stop-color="#5f5f5f"/><stop offset="1" stop-color="#a8a8a8"/></linearGradient><linearGradient x1="243.84206" y1="161.54813" x2="243.84206" y2="162.48361" gradientUnits="userSpaceOnUse" id="color-26"><stop offset="0" stop-color="#7a7a7a"/><stop offset="1" stop-color="#646464"/></linearGradient><linearGradient x1="244.67865" y1="165.17487" x2="244.50955" y2="165.17487" gradientUnits="userSpaceOnUse" id="color-27"><stop offset="0" stop-color="#00eeec"/><stop offset="1" stop-color="#1cfff4"/></linearGradient><linearGradient x1="247.13881" y1="195.55477" x2="243.92566" y2="195.55477" gradientUnits="userSpaceOnUse" id="color-28"><stop offset="0" stop-color="#0e4d62"/><stop offset="1" stop-color="#126884"/></linearGradient><linearGradient x1="240.79709" y1="195.55477" x2="244.01024" y2="195.55477" gradientUnits="userSpaceOnUse" id="color-29"><stop offset="0" stop-color="#0e4d62"/><stop offset="1" stop-color="#126884"/></linearGradient><linearGradient x1="252.89872" y1="179.1031" x2="249.70437" y2="179.1031" gradientUnits="userSpaceOnUse" id="color-30"><stop offset="0" stop-color="#105972"/><stop offset="1" stop-color="#105972" stop-opacity="0"/></linearGradient><linearGradient x1="266.113" y1="183.34818" x2="261.85934" y2="183.34818" gradientUnits="userSpaceOnUse" id="color-31"><stop offset="0" stop-color="#ff9b00"/><stop offset="1" stop-color="#e68100"/></linearGradient><linearGradient x1="234.86005" y1="193.40468" x2="232.41731" y2="193.40468" gradientUnits="userSpaceOnUse" id="color-32"><stop offset="0" stop-color="#009dd2"/><stop offset="1" stop-color="#009dd2" stop-opacity="0"/></linearGradient><linearGradient x1="244.89163" y1="178.0902" x2="242.77021" y2="178.0902" gradientUnits="userSpaceOnUse" id="color-33"><stop offset="0" stop-color="#c7ffff"/><stop offset="1" stop-color="#91f5f5"/></linearGradient><linearGradient x1="234.9842" y1="189.16526" x2="232.44749" y2="189.16526" gradientUnits="userSpaceOnUse" id="color-34"><stop offset="0" stop-color="#105972"/><stop offset="1" stop-color="#105972" stop-opacity="0"/></linearGradient><linearGradient x1="245.56513" y1="192.76641" x2="242.38956" y2="192.76641" gradientUnits="userSpaceOnUse" id="color-35"><stop offset="0" stop-color="#8b8b8b"/><stop offset="1" stop-color="#7f7f7f"/></linearGradient><linearGradient x1="221.74209" y1="183.34818" x2="225.99575" y2="183.34818" gradientUnits="userSpaceOnUse" id="color-36"><stop offset="0" stop-color="#ff9b00"/><stop offset="1" stop-color="#e68100"/></linearGradient><linearGradient x1="250.68755" y1="156.16668" x2="250.68755" y2="180.97918" gradientUnits="userSpaceOnUse" id="color-37"><stop offset="0" stop-color="#e68100"/><stop offset="1" stop-color="#ff9b00"/></linearGradient><linearGradient x1="250.68755" y1="156.16668" x2="250.68755" y2="180.97918" gradientUnits="userSpaceOnUse" id="color-38"><stop offset="0" stop-color="#e68100"/><stop offset="1" stop-color="#ff9b00"/></linearGradient><linearGradient x1="237.26421" y1="156.04168" x2="237.26421" y2="180.85418" gradientUnits="userSpaceOnUse" id="color-39"><stop offset="0" stop-color="#e68100"/><stop offset="1" stop-color="#ff9b00"/></linearGradient><linearGradient x1="237.26421" y1="156.04168" x2="237.26421" y2="180.85418" gradientUnits="userSpaceOnUse" id="color-40"><stop offset="0" stop-color="#e68100"/><stop offset="1" stop-color="#ff9b00"/></linearGradient><linearGradient x1="248.91449" y1="187.03335" x2="246.46235" y2="187.03335" gradientUnits="userSpaceOnUse" id="color-41"><stop offset="0" stop-color="#ececec"/><stop offset="1" stop-color="#dbdbdb"/></linearGradient><linearGradient x1="247.68844" y1="183.33335" x2="247.68844" y2="187.03335" gradientUnits="userSpaceOnUse" id="color-42"><stop offset="0" stop-color="#000000" stop-opacity="0"/><stop offset="1" stop-color="#000000" stop-opacity="0"/></linearGradient><linearGradient x1="241.47354" y1="186.83335" x2="239.0214" y2="186.83335" gradientUnits="userSpaceOnUse" id="color-43"><stop offset="0" stop-color="#dbdbdb"/><stop offset="1" stop-color="#ececec"/></linearGradient><linearGradient x1="240.24747" y1="183.13335" x2="240.24747" y2="186.83335" gradientUnits="userSpaceOnUse" id="color-44"><stop offset="0" stop-color="#000000" stop-opacity="0"/><stop offset="1" stop-color="#000000" stop-opacity="0"/></linearGradient><linearGradient x1="253.02603" y1="159.66668" x2="248.26975" y2="159.66668" gradientUnits="userSpaceOnUse" id="color-45"><stop offset="0" stop-color="#ececec"/><stop offset="1" stop-color="#dbdbdb"/></linearGradient><linearGradient x1="253.02603" y1="159.66668" x2="248.26975" y2="159.66668" gradientUnits="userSpaceOnUse" id="color-46"><stop offset="0" stop-color="#ececec"/><stop offset="1" stop-color="#dbdbdb"/></linearGradient><linearGradient x1="239.70841" y1="159.54168" x2="234.95215" y2="159.54168" gradientUnits="userSpaceOnUse" id="color-47"><stop offset="0" stop-color="#dbdbdb"/><stop offset="1" stop-color="#ececec"/></linearGradient><linearGradient x1="239.70841" y1="159.54168" x2="234.95215" y2="159.54168" gradientUnits="userSpaceOnUse" id="color-48"><stop offset="0" stop-color="#dbdbdb"/><stop offset="1" stop-color="#ececec"/></linearGradient><linearGradient x1="245.90334" y1="197.61642" x2="242.05133" y2="197.61642" gradientUnits="userSpaceOnUse" id="color-49"><stop offset="0" stop-color="#8b8b8b"/><stop offset="1" stop-color="#7f7f7f"/></linearGradient><linearGradient x1="248.33071" y1="203.97262" x2="238.87612" y2="203.97262" gradientUnits="userSpaceOnUse" id="color-50"><stop offset="0" stop-color="#888888"/><stop offset="1" stop-color="#696969"/></linearGradient></defs><g transform="translate(-215.99456,-152.58139)"><g data-paper-data="{&quot;isPaintingLayer&quot;:true}" fill-rule="nonzero" stroke-linejoin="miter" stroke-miterlimit="10" stroke-dasharray="" stroke-dashoffset="0" style="mix-blend-mode: normal"><path d="M230.21675,200.38889v-2.66667h4.83333v2.66667z" data-paper-data="{&quot;index&quot;:null}" fill="#3195b6" stroke="none" stroke-width="NaN" stroke-linecap="butt"/><path d="M243.3239,202.60953c-7.98272,0 -24.8,-7.8 -24.8,-7.8v-4.6h48.2v4.6c0,0 -15.31729,7.8 -23.4,7.8z" data-paper-data="{&quot;index&quot;:null}" fill="#3195b6" stroke="none" stroke-width="NaN" stroke-linecap="butt"/><path d="M232.07388,164.05555v-4.33333l8.63497,-6.78197l1.86503,-0.21803v11.33333z" data-paper-data="{&quot;index&quot;:null}" fill="#d2d2d2" stroke="none" stroke-width="0" stroke-linecap="butt"/><path d="M232.00604,179.22222v-16.66666h9.22619v16.66666z" data-paper-data="{&quot;index&quot;:null}" fill="#e48500" stroke="none" stroke-width="0" stroke-linecap="butt"/><path d="M218.71675,195.55556c-1.46936,0 -2.72219,-1 -2.72219,-1v-15.5h51.97768v15.5c0,0 -43.00525,1 -49.25549,1z" data-paper-data="{&quot;index&quot;:null}" fill="#3195b6" stroke="none" stroke-width="NaN" stroke-linecap="butt"/><path d="M243.28601,200.33697c4.31079,0 7.80538,3.52552 7.80538,7.87446c0,4.34894 -3.49458,7.87446 -7.80538,7.87446c-4.3108,0 -7.80538,-3.52552 -7.80538,-7.87446c0,-4.34894 3.49458,-7.87446 7.80538,-7.87446z" data-paper-data="{&quot;index&quot;:null}" fill="url(#color-1)" stroke="none" stroke-width="0" stroke-linecap="butt"/><path d="M242.88203,193.07341c6.73228,0 12.18987,5.53134 12.18987,12.35459c0,6.82325 -5.4576,12.35459 -12.18987,12.35459c-6.73228,0 -12.18986,-5.53134 -12.18986,-12.35459c0,-6.82325 5.45759,-12.35459 12.18986,-12.35459z" data-paper-data="{&quot;index&quot;:null}" fill="url(#color-2)" stroke="none" stroke-width="0" stroke-linecap="butt"/><path d="M246.01597,204.32198l-2.5,16.86364l-2.5,-16.86364z" data-paper-data="{&quot;index&quot;:null}" fill="url(#color-3)" stroke="#000000" stroke-width="0" stroke-linecap="round"/><path d="M243.44657,202.8503c3.06294,0 5.54593,2.50497 5.54593,5.59501c0,3.09004 -2.483,5.59501 -5.54593,5.59501c-3.06294,0 -5.54593,-2.50497 -5.54593,-5.59501c0,-3.09004 2.483,-5.59501 5.54593,-5.59501z" data-paper-data="{&quot;index&quot;:null}" fill="url(#color-4)" stroke="none" stroke-width="0" stroke-linecap="butt"/><g data-paper-data="{&quot;index&quot;:null}" stroke="#000000" stroke-width="0" stroke-linecap="round"><path d="M245.66866,205.12112l-2.35162,14.93246l-1.99752,-14.93246z" fill="url(#color-5)"/><path d="M246.47116,206.06954l-3.20183,20.33121l-2.71971,-20.33121z" fill="url(#color-6)"/><path d="M244.50744,204.61823c0,0 1.85822,0.46537 1.8305,2.41626c-0.06512,4.58168 -2.70914,5.49149 -2.70914,5.49149c0,0 -3.13397,-1.02334 -3.2949,-5.49149c-0.06733,-1.86924 1.90371,-2.41626 1.90371,-2.41626z" fill="url(#color-7)"/><path d="M244.19587,204.86497c0,0 1.2562,0.3146 1.23746,1.63345c-0.04402,3.09733 -1.83145,3.71239 -1.83145,3.71239c0,0 -2.11864,-0.69182 -2.22743,-3.71239c-0.04551,-1.26365 1.28696,-1.63345 1.28696,-1.63345z" fill="url(#color-8)"/><path d="M244.72208,204.50691c0,0 2.08723,0.52272 2.05609,2.71404c-0.07315,5.14633 -3.04302,6.16828 -3.04302,6.16828c0,0 -3.52021,-1.14947 -3.70096,-6.16828c-0.07562,-2.0996 2.13833,-2.71404 2.13833,-2.71404z" fill="url(#color-9)"/><path d="M244.0546,204.43396c0,0 0.91349,0.22877 0.89985,1.18781c-0.03201,2.25231 -1.33179,2.69957 -1.33179,2.69957c0,0 -1.54063,-0.50307 -1.61974,-2.69957c-0.03309,-0.9189 0.93585,-1.18781 0.93585,-1.18781z" fill="url(#color-10)"/><path d="M242.01184,204.50691c0,0 0.91349,0.22877 0.89986,1.18781c-0.03201,2.25231 -1.33179,2.69957 -1.33179,2.69957c0,0 -1.54064,-0.50307 -1.61975,-2.69957c-0.0331,-0.91889 0.93585,-1.18781 0.93585,-1.18781z" fill="url(#color-11)"/><path d="M246.09737,204.50691c0,0 0.91349,0.22877 0.89986,1.18781c-0.03201,2.25231 -1.33179,2.69957 -1.33179,2.69957c0,0 -1.54064,-0.50307 -1.61975,-2.69957c-0.0331,-0.91889 0.93585,-1.18781 0.93585,-1.18781z" fill="url(#color-12)"/></g><path d="M243.28175,202.04808c3.06294,0 5.54593,2.50497 5.54593,5.59501c0,3.09004 -2.48299,5.59501 -5.54593,5.59501c-3.06294,0 -5.54593,-2.50497 -5.54593,-5.59501c0,-3.09003 2.48299,-5.59501 5.54593,-5.59501z" data-paper-data="{&quot;index&quot;:null}" fill="url(#color-13)" stroke="none" stroke-width="0" stroke-linecap="butt"/><path d="M243.60154,205.18001c2.4947,0 4.51705,0.37649 4.51705,0.84091c0,0.46442 -2.02235,0.84091 -4.51705,0.84091c-2.4947,0 -4.51705,-0.37649 -4.51705,-0.84091c0,-0.46442 2.02235,-0.84091 4.51705,-0.84091z" data-paper-data="{&quot;index&quot;:null}" fill="url(#color-14)" stroke="url(#color-15)" stroke-width="0.5" stroke-linecap="butt"/><path d="M247.84003,206.08134c0,0 -0.83087,0.27881 -1.2975,0.35477c-0.51676,0.08412 -1.66802,0.12799 -1.66802,0.12799l0.03448,-4.2069h2.93103v3.72414z" data-paper-data="{&quot;index&quot;:null}" fill="url(#color-16)" stroke="none" stroke-width="0" stroke-linecap="butt"/><path d="M239.36372,206.08134v-3.72414h2.93104l0.03448,4.2069c0,0 -1.15127,-0.04386 -1.66802,-0.12799c-0.46663,-0.07597 -1.2975,-0.35477 -1.2975,-0.35477z" data-paper-data="{&quot;index&quot;:null}" fill="url(#color-17)" stroke="none" stroke-width="0" stroke-linecap="butt"/><path d="M243.94215,200.81949v-6h2.5v6z" data-paper-data="{&quot;index&quot;:null}" fill="#0098ca" stroke="none" stroke-width="0" stroke-linecap="butt"/><path d="M241.49127,200.81949v-6h2.5v6z" data-paper-data="{&quot;index&quot;:null}" fill="#0098ca" stroke="none" stroke-width="0" stroke-linecap="butt"/><path d="M240.83034,212.8485v-6.27273c0,0 1.51673,-0.45454 3.45455,-0.45454c1.81656,0 3.45454,0.45454 3.45454,0.45454v6.27273z" data-paper-data="{&quot;index&quot;:null}" fill="url(#color-18)" stroke="none" stroke-width="0" stroke-linecap="butt"/><g data-paper-data="{&quot;index&quot;:null}"><g fill="none" stroke="#3195b6" stroke-width="1" stroke-linecap="round"><path d="M267.04994,194.65133l-16.10455,8.375h-8.64874"/><path d="M266.9903,193.77633l-16.10456,8.375h-8.64874"/><path d="M267.16925,192.83883l-16.10456,8.375h-8.64874"/></g><g fill="none" stroke="#3195b6" stroke-width="1" stroke-linecap="round"><path d="M241.87488,203.02633h-8.64874l-16.10455,-8.375"/><path d="M241.93452,202.15133h-8.64874l-16.10456,-8.375"/><path d="M241.75559,201.21383h-8.64874l-16.10456,-8.375"/></g><path d="M231.92884,203.4762v-3.42857h20.58656v3.42857z" fill="#0f566e" stroke="none" stroke-width="0" stroke-linecap="butt"/></g><g data-paper-data="{&quot;index&quot;:null}"><g><path d="M248.25242,173.32002l-7.14886,-1.36364l1.15303,-16.90909c0,0 0.34363,0.18974 0.69182,0.09091c0.34817,-0.09882 0.66711,-0.18471 1.22991,-0.63636c0.56281,-0.45165 1.30679,-1.36364 1.30679,-1.36364z" fill="#001820" stroke="#ff0000" stroke-width="0" stroke-linecap="round"/><path d="M260.74181,181.16668v-6.125" fill="none" stroke="url(#color-19)" stroke-width="2" stroke-linecap="round"/><path d="M227.13069,181.16668v-6.125" fill="none" stroke="url(#color-20)" stroke-width="2" stroke-linecap="round"/><g><g><path d="M263.6455,177.94989v4.09091" fill="none" stroke="#b6b6b6" stroke-width="2.5" stroke-linecap="round"/><path d="M262.39637,179.10898v3.91667" fill="none" stroke="#115e78" stroke-width="0.5" stroke-linecap="round"/><path d="M260.8782,183.24535v-4.31818h1.34521v4.31818z" fill="#136985" stroke="none" stroke-width="0" stroke-linecap="butt"/></g><path d="M263.26115,178.10898l0.03842,4.18182" fill="none" stroke="#c2c2c2" stroke-width="1.5" stroke-linecap="round"/></g><g data-paper-data="{&quot;index&quot;:null}"><g><path d="M224.15388,182.0408v-4.09091" fill="none" stroke="#b6b6b6" stroke-width="2.5" stroke-linecap="round"/><path d="M225.40299,183.02564v-3.91666" fill="none" stroke="#115e78" stroke-width="0.5" stroke-linecap="round"/><path d="M225.57596,183.24536v-4.31819h1.34522v4.31818z" fill="#136985" stroke="none" stroke-width="0" stroke-linecap="butt"/></g><path d="M224.53819,178.10898l-0.03842,4.18182" fill="none" stroke="#c2c2c2" stroke-width="1.5" stroke-linecap="round"/></g><g fill="none" stroke-width="2" stroke-linecap="round"><path d="M254.9512,171.04763v9.45026" stroke="url(#color-21)"/><path d="M257.91067,173.47077v7.14828" stroke="url(#color-22)"/></g><g data-paper-data="{&quot;index&quot;:null}" fill="none" stroke-width="2" stroke-linecap="round"><path d="M232.96655,171.04763v9.45026" stroke="url(#color-23)"/><path d="M230.00711,173.47078v7.14828" stroke="url(#color-24)"/></g><path d="M241.43665,173.76976v-11.79798h4.88548v11.79798z" fill="url(#color-25)" stroke="none" stroke-width="0" stroke-linecap="butt"/><path d="M243.84202,161.54813c1.00588,0 1.82131,0.20942 1.82131,0.46775c0,0.25833 -0.81542,0.46774 -1.82131,0.46774c-1.00587,0 -1.82129,-0.20941 -1.82129,-0.46774c0,-0.25833 0.8154,-0.46775 1.82129,-0.46775z" fill="url(#color-26)" stroke="#7e7e7e" stroke-width="0.5" stroke-linecap="butt"/><path d="M266.5041,192.23967l-14.92654,8.625l-7.69311,0.03917l-0.03994,-21.91417l22.29929,-0.125z" fill="#3dbce6" stroke="#b6b6b6" stroke-width="0" stroke-linecap="round"/><path d="M265.74661,178.94647l0.01085,13.58974" fill="none" stroke="#0098ca" stroke-width="0.5" stroke-linecap="round"/><path d="M264.67882,179.88452l0.06504,12.23077" fill="none" stroke="#2fb2de" stroke-width="2" stroke-linecap="round"/><path d="M263.85416,180.24806v-1.35714h1.63072v1.35714z" fill="#00bcfb" stroke="none" stroke-width="0" stroke-linecap="butt"/><path d="M244.94978,180.31949v19.28572" fill="none" stroke="#3195b6" stroke-width="2.5" stroke-linecap="round"/><path d="M243.86259,183.74806v-4.71428h2.11391v4.71428z" fill="#f00000" stroke="none" stroke-width="0" stroke-linecap="butt"/><path d="M253.42428,191.90133v-7.1875" fill="none" stroke="#00bcfb" stroke-width="1" stroke-linecap="round"/><path d="M251.89167,192.46383l-0.10569,-8.6875" fill="none" stroke="#f50000" stroke-width="1" stroke-linecap="round"/><path d="M261.45712,189.08883v-7.9375" fill="none" stroke="#2fb2de" stroke-width="1" stroke-linecap="round"/><path d="M256.38372,182.08883v11.875" fill="none" stroke="#2fb2de" stroke-width="1" stroke-linecap="round"/><path d="M249.2493,195.46383l-0.05284,-11.1875" fill="none" stroke="#fa0000" stroke-width="1" stroke-linecap="round"/><path d="M258.55051,189.21383l0.10569,5.125" fill="none" stroke="#2fb2de" stroke-width="1" stroke-linecap="round"/><path d="M247.18824,181.40133l-0.05285,11" fill="none" stroke="#fa0000" stroke-width="1" stroke-linecap="round"/><path d="M221.62301,178.86467l22.29929,0.125l-0.03995,21.91417l-7.6931,-0.03917l-14.92654,-8.625z" fill="#3dbce6" stroke="#b6b6b6" stroke-width="0" stroke-linecap="round"/><path d="M220.52285,191.86467v-13.125" fill="none" stroke="#b6b6b6" stroke-width="3" stroke-linecap="round"/><path d="M222.02017,178.94647l-0.01084,13.58974" fill="none" stroke="#0098ca" stroke-width="0.5" stroke-linecap="round"/><path d="M220.94154,178.88452v13" fill="none" stroke="#c2c2c2" stroke-width="2" stroke-linecap="round"/><path d="M223.08798,179.88452l-0.06504,12.23077" fill="none" stroke="#2fb2de" stroke-width="2" stroke-linecap="round"/><path d="M222.28189,180.24806v-1.35714h1.63073v1.35714z" fill="#00b1ec" stroke="none" stroke-width="0" stroke-linecap="butt"/><path d="M242.81699,180.31949v19.28572" fill="none" stroke="#3195b6" stroke-width="2.5" stroke-linecap="round"/><path d="M241.79025,183.74806v-4.71428h2.11391v4.71428z" fill="#f00000" stroke="none" stroke-width="0" stroke-linecap="butt"/><path d="M234.34246,191.90133v-7.1875" fill="none" stroke="#00bcfb" stroke-width="1" stroke-linecap="round"/><path d="M235.87506,192.46383l0.10569,-8.6875" fill="none" stroke="#f50000" stroke-width="1" stroke-linecap="round"/><path d="M226.30965,181.15133v7.9375" fill="none" stroke="#2fb2de" stroke-width="1" stroke-linecap="round"/><path d="M231.383,193.96383v-11.875" fill="none" stroke="#2fb2de" stroke-width="1" stroke-linecap="round"/><path d="M238.51744,195.46383l0.05284,-11.1875" fill="none" stroke="#fa0000" stroke-width="1" stroke-linecap="round"/><path d="M229.11055,194.33883l0.1057,-5.125" fill="none" stroke="#2fb2de" stroke-width="1" stroke-linecap="round"/><path d="M240.63136,192.40133l-0.05285,-11" fill="none" stroke="#fa0000" stroke-width="1" stroke-linecap="round"/><path d="M242.95805,167.61264v-4.77419h0.21821v4.77419z" fill="#1dfffb" stroke="none" stroke-width="0" stroke-linecap="butt"/><path d="M245.17767,153.41091l-0.07687,17.45455c0,0 -0.21634,0.86024 -1.15304,0.90909c-0.95863,0.04999 -1.30679,-0.90909 -1.30679,-0.90909v-17.45455" fill="none" stroke="#0c4152" stroke-width="1" stroke-linecap="round"/><path d="M248.38903,199.5166l-9.78192,-0.0566l-2.49046,-0.71141l-0.18209,-37.7619l5.53524,-5.42857v15.95287c0,0 0.66947,1.79051 2.47792,1.79051c1.84063,0 2.51732,-1.92095 2.51732,-1.92095v-15.66277l5.40023,5.42857l0.15277,37.58147z" fill="#0f546c" stroke="#0f546c" stroke-width="2.5" stroke-linecap="round"/><path d="M248.01325,177.21421l-0.09394,18.33333" fill="none" stroke="#10576f" stroke-width="1" stroke-linecap="round"/><path d="M238.14837,177.21421l-0.09394,11.77777" fill="none" stroke="#10576f" stroke-width="1" stroke-linecap="round"/><path d="M240.49714,184.76976l-0.18791,10.66666" fill="none" stroke="#10576f" stroke-width="1" stroke-linecap="round"/><path d="M246.22818,186.21421v13.33333" fill="none" stroke="#10576f" stroke-width="1" stroke-linecap="round"/><path d="M241.62457,173.65865l0.09394,7" fill="none" stroke="#10576f" stroke-width="1" stroke-linecap="round"/><path d="M248.85882,173.10307l-0.18791,-13.77777" fill="none" stroke="#10576f" stroke-width="1" stroke-linecap="round"/><path d="M237.11489,172.43642l-0.18791,-12.11111" fill="none" stroke="#fa0000" stroke-width="1" stroke-linecap="round"/><path d="M239.46367,173.99198l-0.28185,-13" fill="none" stroke="#10576f" stroke-width="1" stroke-linecap="round"/><path d="M244.50953,167.52489v-4.7h0.16912v4.7z" fill="url(#color-27)" stroke="none" stroke-width="0" stroke-linecap="butt"/><path d="M243.74906,167.70942v-4.80645h0.19093v4.80645z" fill="#1dfffb" stroke="none" stroke-width="0" stroke-linecap="butt"/><path d="M245.28812,183.26328l-1.23484,0.6931l-1.23484,-0.54738v-7.72276l1.27343,-0.91167l1.19624,1.05738z" fill="#8cffff" stroke="#7e7e7e" stroke-width="0.5" stroke-linecap="round"/><path d="M245.23291,175.94407l-1.10981,0.875l-1.2155,-1.125" fill="none" stroke="#55eded" stroke-width="0.5" stroke-linecap="round"/><path d="M243.11901,183.31907l1.05694,-0.8125l0.84556,0.6875" fill="none" stroke="#55eded" stroke-width="0.5" stroke-linecap="round"/><path d="M244.07023,175.00657l0.05285,1.5l-0.05285,6.5625l-0.15854,0.5625" fill="none" stroke="#4fdada" stroke-width="0.5" stroke-linecap="round"/><path d="M245.28812,183.26328l-1.23484,0.6931l-1.23484,-0.54738v-7.72276l1.27343,-0.91167l1.19624,1.05738z" fill="none" stroke="#7e7e7e" stroke-width="0.5" stroke-linecap="round"/><path d="M243.87269,182.33048l-0.82544,0.78572l0.02013,-6.9881l0.78517,0.82143z" fill="#5cffff" stroke="none" stroke-width="0" stroke-linecap="round"/><path d="M243.71683,183.49804l-0.43642,-0.13243l0.58573,-0.37012z" fill="#57f3f3" stroke="#56eeee" stroke-width="0" stroke-linecap="round"/><path d="M244.29334,176.96646l0.82543,-0.78572l-0.02013,6.80388l-0.78517,-0.66353z" data-paper-data="{&quot;index&quot;:null}" fill="#87ffff" stroke="none" stroke-width="0" stroke-linecap="round"/><path d="M243.92566,200.90477v-10.7h3.21314v10.7z" fill="url(#color-28)" stroke="none" stroke-width="0" stroke-linecap="butt"/><path d="M240.7971,200.90477v-10.7h3.21314v10.7z" data-paper-data="{&quot;index&quot;:null}" fill="url(#color-29)" stroke="none" stroke-width="0" stroke-linecap="butt"/><path d="M244.28175,182.91654l0.51896,0.37011l-0.63669,0.34296z" data-paper-data="{&quot;index&quot;:null}" fill="#5afbfb" stroke="#56eeee" stroke-width="0" stroke-linecap="round"/><path d="M252.89876,160.78563l-0.09395,39.33333l-1.31532,0.66667h-4.79153v-13.66667l3.38226,-3.77778v-11.77778l-1.69113,-1.88889l-0.09395,-13.44444z" fill="#146e8c" stroke="#146e8c" stroke-width="0.5" stroke-linecap="round"/><path d="M251.67735,200.88088h-1.97299v-43.55556l3.19435,3.33333v39.44444z" fill="url(#color-30)" stroke="none" stroke-width="0" stroke-linecap="butt"/><path d="M239.65156,156.22214l-0.09395,13.44444l-1.69113,1.88889v11.77778l3.38225,3.77777v13.66667h-4.79152l-1.31532,-0.66667l-0.09395,-39.33333z" data-paper-data="{&quot;index&quot;:null}" fill="#146e8c" stroke="#146e8c" stroke-width="0.5" stroke-linecap="round"/><path d="M253.09135,178.97161l12.768,-0.07778l-0.08456,6.44445l-12.68344,7.6z" fill="#146e8c" stroke="#146e8c" stroke-width="0.5" stroke-linecap="round"/><path d="M261.94908,178.63063l4.16388,-0.02536l-0.09172,6.99198l-4.16191,2.49384z" fill="url(#color-31)" stroke="#ff9b00" stroke-width="0" stroke-linecap="round"/><path d="M232.41731,198.59856v-11.74943h2.44273v13.11111z" fill="url(#color-32)" stroke="none" stroke-width="0" stroke-linecap="butt"/><path d="M234.85536,192.93828l-12.68344,-7.6l-0.08457,-6.44445l12.76801,0.07778z" data-paper-data="{&quot;index&quot;:null}" fill="#146e8c" stroke="#146e8c" stroke-width="0.5" stroke-linecap="round"/><g fill="none" stroke-linecap="round"><path d="M267.24393,178.73967v13.125" stroke="#b6b6b6" stroke-width="3"/><path d="M266.82522,178.88452v13" stroke="#c2c2c2" stroke-width="2"/></g><path d="M241.81178,184.73335v-12.5h4.0587v12.5z" fill="#0f546c" stroke="none" stroke-width="0" stroke-linecap="butt"/><g stroke="#a6caca" stroke-width="0.5" stroke-linecap="round"><path d="M242.77021,175.62268c0,0 0.47192,-1.7675 1.0532,-1.7675c0.58127,0 1.05319,1.7675 1.05319,1.7675l0.01506,4.93504c0,0 -0.47192,1.7675 -1.05319,1.7675c-0.58127,0 -1.05319,-1.7675 -1.05319,-1.7675z" fill="url(#color-33)"/><path d="M244.77535,176.19633h-1.81917" fill="none"/><path d="M244.77532,177.58407h-1.73649" fill="none"/><path d="M242.95617,179.80444h1.90185" fill="none"/><path d="M243.02821,178.39883h1.90185" fill="none"/></g><path d="M232.44752,191.91526v-13.17857h2.53668v14.60714z" fill="url(#color-34)" stroke="none" stroke-width="0" stroke-linecap="butt"/><path d="M242.38957,194.18308v-2.83333h3.17555v2.83333z" fill="url(#color-35)" stroke="none" stroke-width="0" stroke-linecap="butt"/><path d="M244.48233,191.52779v2.41667" fill="none" stroke="#9e9e9e" stroke-width="0.5" stroke-linecap="round"/><path d="M243.42537,191.52779v2.41667" fill="none" stroke="#9e9e9e" stroke-width="0.5" stroke-linecap="round"/><path d="M225.99575,188.0911l-4.16191,-2.49384l-0.09174,-6.99199l4.16389,0.02536z" data-paper-data="{&quot;index&quot;:null}" fill="url(#color-36)" stroke="#ff9b00" stroke-width="0" stroke-linecap="round"/><path d="M252.92033,160.66668v17l-2.80093,3.3125v-9.4375l-1.66469,-1.96875l-0.21139,-13.53125z" fill="url(#color-37)" stroke="url(#color-38)" stroke-width="0.5" stroke-linecap="round"/><path d="M239.70842,155.91668l-0.21139,13.53125l-1.6647,1.96875v9.4375l-2.80093,-3.3125v-17z" data-paper-data="{&quot;index&quot;:null}" fill="url(#color-39)" stroke="url(#color-40)" stroke-width="0.5" stroke-linecap="round"/><path d="M246.46235,189.93335v-2.9l2.45214,-2.9v2.9z" fill="url(#color-41)" stroke="url(#color-42)" stroke-width="0" stroke-linecap="butt"/><path d="M239.0214,186.83335v-2.9l2.45214,2.9v2.9z" data-paper-data="{&quot;index&quot;:null}" fill="url(#color-43)" stroke="url(#color-44)" stroke-width="0" stroke-linecap="butt"/><path d="M253.02605,160.54168v1.375l-4.7563,1.625v-7.75z" fill="url(#color-45)" stroke="url(#color-46)" stroke-width="0.5" stroke-linecap="round"/><path d="M239.70846,155.66668v7.75l-4.7563,-1.45834v-1.54166z" data-paper-data="{&quot;index&quot;:null}" fill="url(#color-47)" stroke="url(#color-48)" stroke-width="0.5" stroke-linecap="round"/></g><path d="M242.05134,200.28308v-5.33334h3.85201v5.33334z" fill="url(#color-49)" stroke="none" stroke-width="0" stroke-linecap="butt"/></g><g data-paper-data="{&quot;index&quot;:null}"><path d="M248.33072,206.10898c0,0 -2.50116,-0.63636 -4.68182,-0.63636c-2.15034,0 -4.77273,0.63636 -4.77273,0.63636v-4.27273c0,0 2.53888,-0.48772 4.72727,-0.5c2.18918,-0.01228 4.72727,0.5 4.72727,0.5v4.27273z" fill="url(#color-50)" stroke="none" stroke-width="0" stroke-linecap="butt"/><path d="M239.63339,201.86808v3.68" fill="none" stroke="#656565" stroke-width="0.5" stroke-linecap="round"/><path d="M240.79339,205.30808v-3.64" fill="none" stroke="#6a6a6a" stroke-width="0.5" stroke-linecap="round"/><path d="M241.91343,205.18808l-0.04,-3.64" fill="none" stroke="#6f6f6f" stroke-width="0.5" stroke-linecap="round"/><path d="M243.07342,205.14808l-0.08,-3.68" fill="none" stroke="#747474" stroke-width="0.5" stroke-linecap="round"/><path d="M244.19341,205.18808l-0.04,-3.76" fill="none" stroke="#787878" stroke-width="0.5" stroke-linecap="round"/><path d="M245.27342,201.50808v3.76" fill="none" stroke="#7b7b7b" stroke-width="0.5" stroke-linecap="round"/></g></g></g></svg>