<svg version="1.1" xmlns="http://www.w3.org/2000/svg" xmlns:xlink="http://www.w3.org/1999/xlink" width="90" height="87" viewBox="0,0,90,87"><g transform="translate(-195,-136.5)"><g data-paper-data="{&quot;isPaintingLayer&quot;:true}" fill-rule="nonzero" stroke="none" stroke-linejoin="miter" stroke-miterlimit="10" stroke-dasharray="" stroke-dashoffset="0" style="mix-blend-mode: normal"><path d="M243.9785,184.4491c-1.39004,1.3479 -3.01177,2.02188 -4.86514,2.02188c-2.37993,0 -4.28595,-0.81085 -5.7181,-2.43255c-1.41109,-1.62173 -2.11664,-3.81209 -2.11664,-6.5711c0,-1.76914 0.3791,-3.38031 1.1373,-4.83353c0.77925,-1.47429 1.85337,-2.62212 3.22237,-3.4435c1.39004,-0.82139 2.93805,-1.23207 4.644,-1.23207c1.76914,0 3.3382,0.44228 4.70719,1.32685c1.39004,0.88457 2.46416,2.15878 3.22237,3.82262c0.7582,1.66382 1.14784,3.55933 1.16891,5.68652v1.9903c0,4.46497 -1.11626,7.97168 -3.34873,10.52008c-2.21143,2.5484 -5.36007,3.91739 -9.44594,4.10694h-1.29525v-4.42285l1.16891,-0.03158c4.63345,-0.21062 7.13975,-2.37993 7.51885,-6.50791zM240.40862,182.42723c0.86352,0 1.60064,-0.22113 2.21143,-0.66342c0.63184,-0.44229 1.10572,-0.97933 1.42165,-1.61118v-2.21142c0,-1.79021 -0.3475,-3.18025 -1.04252,-4.17012c-0.67397,-1.01094 -1.59013,-1.51641 -2.74848,-1.51641c-1.07413,0 -1.95869,0.49493 -2.65371,1.48482c-0.67398,0.9688 -1.01093,2.19036 -1.01093,3.66465c0,1.45322 0.33697,2.65371 1.01093,3.60147c0.67398,0.94775 1.6112,1.42164 2.81169,1.42164z" fill="#bbbbbb" stroke-width="1" stroke-linecap="square"/><path d="M243.98579,181.07933c-1.39004,1.34792 -3.01174,2.02188 -4.86513,2.02188c-2.37992,0 -4.28596,-0.81085 -5.71811,-2.43255c-1.4111,-1.62171 -2.11664,-3.81209 -2.11664,-6.5711c0,-1.76914 0.37911,-3.38031 1.1373,-4.83353c0.77928,-1.47429 1.85339,-2.62212 3.22236,-3.4435c1.39004,-0.82138 2.93805,-1.23207 4.64401,-1.23207c1.76914,0 3.3382,0.44228 4.70719,1.32685c1.39004,0.88457 2.46416,2.15878 3.22237,3.82262c0.7582,1.66384 1.14784,3.55935 1.16891,5.68652v1.9903c0,4.46497 -1.11623,7.97168 -3.34873,10.52008c-2.21143,2.54841 -5.36008,3.91739 -9.44594,4.10694h-1.29525v-4.42285l1.16891,-0.03159c4.63348,-0.21062 7.13975,-2.37991 7.51886,-6.5079zM240.41592,179.05744c0.8635,0 1.60066,-0.22113 2.21143,-0.66342c0.63184,-0.44229 1.10572,-0.97933 1.42164,-1.61118v-2.21143c0,-1.79021 -0.34749,-3.18025 -1.04251,-4.17011c-0.67395,-1.01094 -1.59013,-1.51641 -2.74848,-1.51641c-1.07413,0 -1.95869,0.49493 -2.65371,1.48483c-0.67395,0.96882 -1.01094,2.19036 -1.01094,3.66465c0,1.45322 0.33699,2.65371 1.01094,3.60147c0.67395,0.94775 1.61119,1.42164 2.81168,1.42164z" fill="#f3f3f3" stroke-width="1" stroke-linecap="square"/><path d="M195,223.5v-87h90v87z" fill="none" stroke-width="0" stroke-linecap="butt"/></g></g></svg>