<svg version="1.1" xmlns="http://www.w3.org/2000/svg" xmlns:xlink="http://www.w3.org/1999/xlink" width="285.21842" height="197.25448" viewBox="0,0,285.21842,197.25448"><defs><linearGradient x1="347.42004" y1="88.31961" x2="347.42004" y2="117.95268" gradientUnits="userSpaceOnUse" id="color-1"><stop offset="0" stop-color="#191919"/><stop offset="1" stop-color="#282828"/></linearGradient><linearGradient x1="347.42004" y1="163.32826" x2="347.42004" y2="192.96137" gradientUnits="userSpaceOnUse" id="color-2"><stop offset="0" stop-color="#191919"/><stop offset="1" stop-color="#282828"/></linearGradient><linearGradient x1="347.42004" y1="221.66839" x2="347.42004" y2="192.03533" gradientUnits="userSpaceOnUse" id="color-3"><stop offset="0" stop-color="#191919"/><stop offset="1" stop-color="#282828"/></linearGradient><linearGradient x1="347.14517" y1="162.94243" x2="347.14517" y2="190.26044" gradientUnits="userSpaceOnUse" id="color-4"><stop offset="0" stop-color="#0f0f0f"/><stop offset="1" stop-color="#0f0f0f" stop-opacity="0"/></linearGradient><linearGradient x1="347.42004" y1="220.66839" x2="347.42004" y2="250.30145" gradientUnits="userSpaceOnUse" id="color-5"><stop offset="0" stop-color="#191919"/><stop offset="1" stop-color="#282828"/></linearGradient><linearGradient x1="347.42004" y1="279.00847" x2="347.42004" y2="249.37546" gradientUnits="userSpaceOnUse" id="color-6"><stop offset="0" stop-color="#191919"/><stop offset="1" stop-color="#282828"/></linearGradient><linearGradient x1="260.37289" y1="94.73724" x2="260.37289" y2="124.37033" gradientUnits="userSpaceOnUse" id="color-7"><stop offset="0" stop-color="#191919"/><stop offset="1" stop-color="#282828"/></linearGradient><linearGradient x1="260.37289" y1="153.07727" x2="260.37289" y2="123.44429" gradientUnits="userSpaceOnUse" id="color-8"><stop offset="0" stop-color="#191919"/><stop offset="1" stop-color="#282828"/></linearGradient><linearGradient x1="260.37289" y1="152.15129" x2="260.37289" y2="181.78436" gradientUnits="userSpaceOnUse" id="color-9"><stop offset="0" stop-color="#191919"/><stop offset="1" stop-color="#282828"/></linearGradient><linearGradient x1="260.37289" y1="210.49138" x2="260.37289" y2="180.85832" gradientUnits="userSpaceOnUse" id="color-10"><stop offset="0" stop-color="#191919"/><stop offset="1" stop-color="#282828"/></linearGradient><linearGradient x1="260.24978" y1="188.80682" x2="260.24978" y2="210.10555" gradientUnits="userSpaceOnUse" id="color-11"><stop offset="0" stop-color="#111111" stop-opacity="0"/><stop offset="1" stop-color="#111111"/></linearGradient><linearGradient x1="260.37289" y1="169.74593" x2="260.37289" y2="199.37899" gradientUnits="userSpaceOnUse" id="color-12"><stop offset="0" stop-color="#191919"/><stop offset="1" stop-color="#282828"/></linearGradient><linearGradient x1="260.37289" y1="228.08601" x2="260.37289" y2="198.45295" gradientUnits="userSpaceOnUse" id="color-13"><stop offset="0" stop-color="#191919"/><stop offset="1" stop-color="#282828"/></linearGradient><linearGradient x1="260.37289" y1="227.15999" x2="260.37289" y2="256.79303" gradientUnits="userSpaceOnUse" id="color-14"><stop offset="0" stop-color="#191919"/><stop offset="1" stop-color="#282828"/></linearGradient><linearGradient x1="260.37289" y1="285.50005" x2="260.37289" y2="255.86706" gradientUnits="userSpaceOnUse" id="color-15"><stop offset="0" stop-color="#191919"/><stop offset="1" stop-color="#282828"/></linearGradient><linearGradient x1="218.70135" y1="94.72788" x2="218.70135" y2="124.36095" gradientUnits="userSpaceOnUse" id="color-16"><stop offset="0" stop-color="#191919"/><stop offset="1" stop-color="#282828"/></linearGradient><linearGradient x1="218.70135" y1="153.06788" x2="218.70135" y2="123.43491" gradientUnits="userSpaceOnUse" id="color-17"><stop offset="0" stop-color="#191919"/><stop offset="1" stop-color="#282828"/></linearGradient><linearGradient x1="218.70135" y1="152.14184" x2="218.70135" y2="181.77503" gradientUnits="userSpaceOnUse" id="color-18"><stop offset="0" stop-color="#191919"/><stop offset="1" stop-color="#282828"/></linearGradient><linearGradient x1="218.70135" y1="210.48205" x2="218.70135" y2="180.84899" gradientUnits="userSpaceOnUse" id="color-19"><stop offset="0" stop-color="#191919"/><stop offset="1" stop-color="#282828"/></linearGradient><linearGradient x1="218.5784" y1="188.79742" x2="218.5784" y2="210.09622" gradientUnits="userSpaceOnUse" id="color-20"><stop offset="0" stop-color="#111111" stop-opacity="0"/><stop offset="1" stop-color="#111111"/></linearGradient><linearGradient x1="218.70135" y1="169.73662" x2="218.70135" y2="199.36968" gradientUnits="userSpaceOnUse" id="color-21"><stop offset="0" stop-color="#191919"/><stop offset="1" stop-color="#282828"/></linearGradient><linearGradient x1="218.70135" y1="228.07669" x2="218.70135" y2="198.44364" gradientUnits="userSpaceOnUse" id="color-22"><stop offset="0" stop-color="#191919"/><stop offset="1" stop-color="#282828"/></linearGradient><linearGradient x1="218.70135" y1="227.15065" x2="218.70135" y2="256.78362" gradientUnits="userSpaceOnUse" id="color-23"><stop offset="0" stop-color="#191919"/><stop offset="1" stop-color="#282828"/></linearGradient><linearGradient x1="218.70135" y1="285.49064" x2="218.70135" y2="255.85767" gradientUnits="userSpaceOnUse" id="color-24"><stop offset="0" stop-color="#191919"/><stop offset="1" stop-color="#282828"/></linearGradient><linearGradient x1="132.58015" y1="88.24564" x2="132.58015" y2="117.87871" gradientUnits="userSpaceOnUse" id="color-25"><stop offset="0" stop-color="#191919"/><stop offset="1" stop-color="#282828"/></linearGradient><linearGradient x1="132.58015" y1="146.58569" x2="132.58015" y2="116.95268" gradientUnits="userSpaceOnUse" id="color-26"><stop offset="0" stop-color="#191919"/><stop offset="1" stop-color="#282828"/></linearGradient><linearGradient x1="132.58015" y1="145.65965" x2="132.58015" y2="175.29276" gradientUnits="userSpaceOnUse" id="color-27"><stop offset="0" stop-color="#191919"/><stop offset="1" stop-color="#282828"/></linearGradient><linearGradient x1="132.58015" y1="203.99978" x2="132.58015" y2="174.36672" gradientUnits="userSpaceOnUse" id="color-28"><stop offset="0" stop-color="#191919"/><stop offset="1" stop-color="#282828"/></linearGradient><linearGradient x1="132.30525" y1="182.31524" x2="132.30525" y2="203.61395" gradientUnits="userSpaceOnUse" id="color-29"><stop offset="0" stop-color="#111111" stop-opacity="0"/><stop offset="1" stop-color="#111111"/></linearGradient><linearGradient x1="132.58015" y1="169.75435" x2="132.58015" y2="192.88741" gradientUnits="userSpaceOnUse" id="color-30"><stop offset="0" stop-color="#191919"/><stop offset="1" stop-color="#282828"/></linearGradient><linearGradient x1="132.58015" y1="221.59443" x2="132.58015" y2="191.96137" gradientUnits="userSpaceOnUse" id="color-31"><stop offset="0" stop-color="#191919"/><stop offset="1" stop-color="#282828"/></linearGradient><linearGradient x1="132.58015" y1="220.66839" x2="132.58015" y2="250.30145" gradientUnits="userSpaceOnUse" id="color-32"><stop offset="0" stop-color="#191919"/><stop offset="1" stop-color="#282828"/></linearGradient><linearGradient x1="132.58015" y1="279.00847" x2="132.58015" y2="249.37546" gradientUnits="userSpaceOnUse" id="color-33"><stop offset="0" stop-color="#191919"/><stop offset="1" stop-color="#282828"/></linearGradient><linearGradient x1="347.42004" y1="146.65965" x2="347.42004" y2="117.02667" gradientUnits="userSpaceOnUse" id="color-34"><stop offset="0" stop-color="#191919"/><stop offset="1" stop-color="#282828"/></linearGradient><linearGradient x1="347.42004" y1="145.73361" x2="347.42004" y2="175.36672" gradientUnits="userSpaceOnUse" id="color-35"><stop offset="0" stop-color="#191919"/><stop offset="1" stop-color="#282828"/></linearGradient><linearGradient x1="347.42004" y1="204.07374" x2="347.42004" y2="174.44068" gradientUnits="userSpaceOnUse" id="color-36"><stop offset="0" stop-color="#191919"/><stop offset="1" stop-color="#282828"/></linearGradient><linearGradient x1="132.30525" y1="211.90979" x2="132.30525" y2="233.20858" gradientUnits="userSpaceOnUse" id="color-37"><stop offset="0" stop-color="#111111" stop-opacity="0"/><stop offset="1" stop-color="#111111"/></linearGradient><linearGradient x1="347.14517" y1="211.98384" x2="347.14517" y2="233.28254" gradientUnits="userSpaceOnUse" id="color-38"><stop offset="0" stop-color="#111111" stop-opacity="0"/><stop offset="1" stop-color="#111111"/></linearGradient><linearGradient x1="133" y1="88.33335" x2="133" y2="146.33333" gradientUnits="userSpaceOnUse" id="color-39"><stop offset="0" stop-color="#0e0e0e"/><stop offset="1" stop-color="#0e0e0e" stop-opacity="0"/></linearGradient><linearGradient x1="348.00001" y1="88.33335" x2="348.00001" y2="146.33334" gradientUnits="userSpaceOnUse" id="color-40"><stop offset="0" stop-color="#0e0e0e"/><stop offset="1" stop-color="#0e0e0e" stop-opacity="0"/></linearGradient><linearGradient x1="133" y1="278.33333" x2="133" y2="220.33334" gradientUnits="userSpaceOnUse" id="color-41"><stop offset="0" stop-color="#0e0e0e"/><stop offset="1" stop-color="#0e0e0e" stop-opacity="0"/></linearGradient><linearGradient x1="347.00001" y1="279.33333" x2="347.00001" y2="221.33334" gradientUnits="userSpaceOnUse" id="color-42"><stop offset="0" stop-color="#0e0e0e"/><stop offset="1" stop-color="#0e0e0e" stop-opacity="0"/></linearGradient></defs><g transform="translate(-97.3909,-88.24564)"><g data-paper-data="{&quot;isPaintingLayer&quot;:true}" fill-rule="nonzero" stroke="none" stroke-width="0" stroke-linecap="butt" stroke-linejoin="miter" stroke-miterlimit="10" stroke-dasharray="" stroke-dashoffset="0" style="mix-blend-mode: normal"><path d="M312.23064,98.21439v-9.26033h70.37854v9.26033z" fill="#131313"/><path d="M312.23064,117.95268v-29.63306h70.37854v29.63307z" fill="url(#color-1)"/><path d="M312.23064,192.96137v-29.63307h70.37854v29.63307z" fill="url(#color-2)"/><path d="M382.60933,192.03533v29.63307h-70.37853v-29.63307z" data-paper-data="{&quot;index&quot;:null}" fill="url(#color-3)"/><path d="M312.23064,197.66875v-8.3343h69.82871v8.3343z" fill="#1a1a1a"/><path d="M312.23064,181.46316v-10.18637h69.82871v10.18637z" fill="#131313"/><path d="M312.23064,213.87433v-9.26033h70.37854v9.26033z" fill="#131313"/><path d="M312.23064,190.26044v-27.31798h69.82871v27.31798z" fill="url(#color-4)"/><path d="M312.23064,250.30145v-29.63307h70.37854v29.63307z" fill="url(#color-5)"/><path d="M382.60933,249.37546v29.63307h-70.37853v-29.63307z" data-paper-data="{&quot;index&quot;:null}" fill="url(#color-6)"/><path d="M244.63033,124.37033v-29.63306h31.48513v29.63307z" fill="url(#color-7)"/><path d="M276.11537,123.44429v29.63306h-31.48513v-29.63306z" data-paper-data="{&quot;index&quot;:null}" fill="url(#color-8)"/><path d="M244.63033,181.78436v-29.63307h31.48513v29.63307z" fill="url(#color-9)"/><path d="M276.11537,180.85832v29.63307h-31.48513v-29.63307z" data-paper-data="{&quot;index&quot;:null}" fill="url(#color-10)"/><path d="M244.63033,186.49172v-8.3343h31.23916v8.3343z" fill="#1a1a1a"/><path d="M244.63033,202.69731v-9.26034h31.48513v9.26034z" fill="#131313"/><path d="M244.63033,210.10555v-21.29877h31.23916v21.29877z" fill="url(#color-11)"/><path d="M244.63033,199.37899v-29.63307h31.48513v29.63307z" fill="url(#color-12)"/><path d="M276.11537,198.45295v29.63306h-31.48513v-29.63306z" data-paper-data="{&quot;index&quot;:null}" fill="url(#color-13)"/><path d="M244.63033,256.79303v-29.63307h31.48513v29.63307z" fill="url(#color-14)"/><path d="M276.11537,255.86706v29.63306h-31.48513v-29.63306z" data-paper-data="{&quot;index&quot;:null}" fill="url(#color-15)"/><path d="M244.63033,107.70597v-9.26033h31.48513v9.26033z" fill="#131313"/><path d="M202.95878,124.36095v-29.63307h31.48514v29.63307z" fill="url(#color-16)"/><path d="M234.44399,123.43491v29.63307h-31.48514v-29.63306z" data-paper-data="{&quot;index&quot;:null}" fill="url(#color-17)"/><path d="M202.95878,181.77503v-29.63306h31.48514v29.63306z" fill="url(#color-18)"/><path d="M234.44399,180.84899v29.63306h-31.48514v-29.63306z" data-paper-data="{&quot;index&quot;:null}" fill="url(#color-19)"/><path d="M202.95878,186.48232v-8.3343h31.23916v8.3343z" fill="#1a1a1a"/><path d="M202.95878,202.68791v-9.26033h31.48514v9.26033z" fill="#131313"/><path d="M202.95878,210.09622v-21.29877h31.23916v21.29877z" fill="url(#color-20)"/><path d="M202.95878,199.36968v-29.63307h31.48514v29.63307z" fill="url(#color-21)"/><path d="M234.44399,198.44364v29.63307h-31.48514v-29.63307z" data-paper-data="{&quot;index&quot;:null}" fill="url(#color-22)"/><path d="M202.95878,256.78362v-29.63307h31.48514v29.63307z" fill="url(#color-23)"/><path d="M234.44399,255.85767v29.63307h-31.48514v-29.63307z" data-paper-data="{&quot;index&quot;:null}" fill="url(#color-24)"/><path d="M202.95878,106.69664v-9.26033h31.48514v9.26033z" fill="#131313"/><path d="M97.39105,117.87871v-29.63307h70.37853v29.63307z" fill="url(#color-25)"/><path d="M167.76943,116.95268v29.63307h-70.37853v-29.63307z" data-paper-data="{&quot;index&quot;:null}" fill="url(#color-26)"/><path d="M97.39105,175.29276v-29.63307h70.37853v29.63307z" fill="url(#color-27)"/><path d="M167.76943,174.36672v29.63306h-70.37853v-29.63306z" data-paper-data="{&quot;index&quot;:null}" fill="url(#color-28)"/><path d="M97.39105,180.00014v-8.3343h69.8287v8.3343z" fill="#1a1a1a"/><path d="M97.39105,196.20573v-9.26034h70.37853v9.26034z" fill="#131313"/><path d="M97.39105,203.61395v-21.29877h69.8287v21.29877z" fill="url(#color-29)"/><path d="M97.39105,192.88741v-23.13307h70.37853v23.13307z" fill="url(#color-30)"/><path d="M167.76943,191.96137v29.63306h-70.37853v-29.63306z" data-paper-data="{&quot;index&quot;:null}" fill="url(#color-31)"/><path d="M97.39105,213.80037v-9.26033h70.37853v9.26033z" fill="#131313"/><path d="M97.39105,250.30145v-29.63307h70.37853v29.63307z" fill="url(#color-32)"/><path d="M167.76943,249.37546v29.63307h-70.37853v-29.63307z" data-paper-data="{&quot;index&quot;:null}" fill="url(#color-33)"/><path d="M97.39105,100.21439v-9.26033h70.37853v9.26033z" fill="#131313"/><path d="M382.60933,117.02667v29.63307h-70.37853v-29.63306z" data-paper-data="{&quot;index&quot;:null}" fill="url(#color-34)"/><path d="M312.23064,175.36672v-29.63307h70.37854v29.63307z" fill="url(#color-35)"/><path d="M382.60933,174.44068v29.63307h-70.37853v-29.63307z" data-paper-data="{&quot;index&quot;:null}" fill="url(#color-36)"/><path d="M312.23064,100.45445v-10.18636h69.82871v10.18636z" fill="#131313"/><g><path d="M97.39105,134.58603v-8.3343h69.8287v8.3343z" fill="#1a1a1a"/><path d="M97.39105,118.38047v-10.18637h69.8287v10.18637z" fill="#131313"/><path d="M97.39105,150.7916v-9.26033h70.37853v9.26033z" fill="#131313"/><path d="M97.39105,175.79447v-10.18636h69.8287v10.18636z" fill="#131313"/><path d="M97.39105,209.59478v-8.3343h69.8287v8.3343z" fill="#131313"/><path d="M97.39105,193.3892v-10.18636h69.8287v10.18636z" fill="#131313"/><path d="M97.39105,233.20858v-21.29877h69.8287v21.29877z" fill="url(#color-37)"/><path d="M97.39105,267.00874v-8.3343h69.8287v8.3343z" fill="#1a1a1a"/><path d="M97.39105,250.80323v-10.18637h69.8287v10.18637z" fill="#131313"/></g><g><path d="M312.23064,233.28254v-21.29877h69.82871v21.29877z" fill="url(#color-38)"/><path d="M312.23064,267.00874v-8.3343h69.82871v8.3343z" fill="#1a1a1a"/><path d="M312.23064,251.63653v-10.18637h69.82871v10.18637z" fill="#131313"/><path d="M312.23064,134.65999v-8.3343h69.82871v8.3343z" fill="#1a1a1a"/><path d="M312.23064,118.45445v-10.18636h69.82871v10.18636z" fill="#131313"/><path d="M312.23064,150.86556v-9.26033h70.37854v9.26033z" fill="#131313"/><path d="M312.23064,192.0741v-8.3343h69.82871v8.3343z" fill="#131313"/><path d="M312.23064,175.86843v-10.18637h69.82871v10.18637z" fill="#131313"/><path d="M312.23064,208.27969v-9.26033h70.37854v9.26033z" fill="#131313"/></g><g><path d="M202.95878,142.06824v-8.3343h31.23916v8.3343z" fill="#131313"/><path d="M202.95878,125.86272v-10.18636h31.23916v10.18636z" fill="#131313"/><path d="M202.95878,158.27382v-9.26033h31.48514v9.26033z" fill="#131313"/><path d="M202.95878,217.07696v-8.3343h31.23916v8.3343z" fill="#131313"/><path d="M202.95878,200.87138v-10.18637h31.23916v10.18637z" fill="#131313"/><path d="M202.95878,233.28254v-9.26033h31.48514v9.26033z" fill="#131313"/><path d="M202.95878,274.491v-8.3343h31.23916v8.3343z" fill="#1a1a1a"/><path d="M202.95878,258.28547v-10.18636h31.23916v10.18636z" fill="#131313"/><path d="M202.95878,183.27673v-10.18636h31.23916v10.18636z" fill="#131313"/></g><g><path d="M244.63033,142.07763v-8.3343h31.23916v8.3343z" fill="#131313"/><path d="M244.63033,125.87207v-10.18636h31.23916v10.18636z" fill="#131313"/><path d="M244.63033,158.28314v-9.26033h31.48513v9.26033z" fill="#131313"/><path d="M244.63033,217.08635v-8.3343h31.23916v8.3343z" fill="#131313"/><path d="M244.63033,200.88078v-10.18636h31.23916v10.18636z" fill="#131313"/><path d="M244.63033,233.29193v-9.26033h31.48513v9.26033z" fill="#131313"/><path d="M244.63033,274.50032v-8.3343h31.23916v8.3343z" fill="#1a1a1a"/><path d="M244.63033,258.29481v-10.18636h31.23916v10.18636z" fill="#131313"/><path d="M244.63033,183.28614v-10.18637h31.23916v10.18637z" fill="#131313"/></g><path d="M98.50005,146.33333v-58h69v58z" fill="url(#color-39)"/><path d="M313.50001,146.33334v-58h69v58z" fill="url(#color-40)"/><path d="M167.50004,220.33334v58h-69v-58z" data-paper-data="{&quot;index&quot;:null}" fill="url(#color-41)"/><path d="M381.50004,221.33334v58h-69v-58z" data-paper-data="{&quot;index&quot;:null}" fill="url(#color-42)"/></g></g></svg>