<svg version="1.1" xmlns="http://www.w3.org/2000/svg" xmlns:xlink="http://www.w3.org/1999/xlink" width="34.77809" height="180.58748" viewBox="0,0,34.77809,180.58748"><defs><linearGradient x1="280.9944" y1="173.17134" x2="348.70605" y2="173.17134" gradientUnits="userSpaceOnUse" id="color-1"><stop offset="0" stop-color="#b80000"/><stop offset="1" stop-color="#da0000"/></linearGradient><linearGradient x1="152.5903" y1="175.47916" x2="161.25697" y2="175.47916" gradientUnits="userSpaceOnUse" id="color-2"><stop offset="0" stop-color="#e1e1e1"/><stop offset="1" stop-color="#ffffff"/></linearGradient><linearGradient x1="318.42364" y1="175.47917" x2="327.09031" y2="175.47917" gradientUnits="userSpaceOnUse" id="color-3"><stop offset="0" stop-color="#e1e1e1"/><stop offset="1" stop-color="#ffffff"/></linearGradient></defs><g transform="translate(-315.99439,-85.42601)"><g data-paper-data="{&quot;isPaintingLayer&quot;:true}" fill-rule="nonzero" stroke-linejoin="miter" stroke-miterlimit="10" stroke-dasharray="" stroke-dashoffset="0" style="mix-blend-mode: normal"><path d="M324.85537,265.91664l-8.86098,-10.51791v-164.97275l18.44482,0.144l13.98509,11.9588c0,0 -4.83742,88.68755 -4.78606,116.38791c0.0289,15.58784 5.06775,35.53937 5.06775,35.53937l-10.65552,11.46057z" data-paper-data="{&quot;index&quot;:null}" fill="#ba0000" stroke="none" stroke-width="0" stroke-linecap="butt"/><path d="M324.85542,260.91667l-8.86098,-0.51791v-174.97275l18.44482,0.144l13.98509,11.9588c0,0 2.70288,14.3284 2.30891,19.95558c-0.76115,10.87182 -4.8838,19.32429 -4.92365,39.93225c-0.01826,9.4395 3.37183,20.03034 3.11656,29.00392c-0.33855,11.9017 -2.49893,22.71762 -3.60939,30.65456c-0.39785,2.84359 -0.66093,5.31763 -0.65718,7.33968c0.00257,1.38634 1.06273,2.80034 1.16663,4.21543c0.17712,2.41246 -0.51862,4.82808 -0.15589,7.11517c1.19855,7.55698 3.03569,13.71069 3.03569,13.71069l-10.65552,11.46057z" data-paper-data="{&quot;index&quot;:null}" fill="url(#color-1)" stroke="none" stroke-width="0" stroke-linecap="butt"/><path d="M337.50003,116.33333c-2.5,0 -2.5,-2.5 -2.5,-2.5v-1c0.00589,-3.84618 0.5412,-7.48524 1.0193,-11.31009c0,0 0.31009,-2.48069 2.79078,-2.1706c2.4807,0.31009 2.17061,2.79078 2.17061,2.79078c-0.45222,3.61781 -0.98687,7.05544 -0.9807,10.68992v1c0,0 0,2.5 -2.5,2.5z" fill="#797979" stroke="none" stroke-width="0.5" stroke-linecap="butt"/><path d="M331.70946,199.46162c2.37171,-0.79057 -9.98269,28.51825 -5.82268,31.29159c0,0 2.08013,1.38675 0.69338,3.46687c-1.38675,2.08013 -3.46688,0.69338 -3.46688,0.69338c-4.16006,-2.77337 9.23676,-23.91744 7.97692,-29.41477l-0.96188,-2.87479c0,0 -0.79057,-2.37171 1.58114,-3.16228z" fill="#be0000" stroke="none" stroke-width="0.5" stroke-linecap="butt"/><path d="M321.38194,199.0694c-2.23607,-1.11803 -1.11803,-3.3541 -1.11803,-3.3541l0.9027,-1.77942c1.88406,-4.89856 5.10185,-10.42509 5.87759,-15.62069c0.9155,-6.13166 0.86644,-13.03142 -0.01909,-19.12831c0,0 -0.35355,-2.47487 2.12132,-2.82843c2.47487,-0.35356 2.82843,2.12132 2.82843,2.12132c0.93003,6.61064 1.0308,14.09485 -0.01282,20.73813c-0.87102,5.5446 -4.11928,11.28839 -6.12869,16.51287l-1.0973,2.22058c0,0 -1.11804,2.23607 -3.35411,1.11803z" fill="#be0000" stroke="none" stroke-width="0.5" stroke-linecap="butt"/><path d="" fill="#be0000" stroke="none" stroke-width="0.5" stroke-linecap="butt"/><path d="M331.00003,250.83334c0,2.5 -8.4461,6.49999 -7.5,6.49999c0,0 2.5,0 2.5,-2.5c0,-2.5 -2.5,-2.5 -2.5,-2.5c-2.88443,0 7.5,-4 7.5,-1.5z" fill="#be0000" stroke="none" stroke-width="0.5" stroke-linecap="butt"/><g stroke="none" stroke-width="0" stroke-linecap="butt"><g><path d="" fill="url(#color-2)"/><path d="" fill="#bfbfbf"/></g><g><path d="M327.09031,263.47918h-8.66667v-176h8.66667z" fill="url(#color-3)"/><path d="M327.22918,266.01349h-9v-2.57598h9z" fill="#bfbfbf"/></g></g><g><path d="M331.79965,110.31982v26.66666" fill="none" stroke="#6d6d6d" stroke-width="25" stroke-linecap="round"/><path d="M331.79965,134.31982v-26.66667" fill="none" stroke="#808080" stroke-width="25" stroke-linecap="round"/><path d="M327.50003,135.33333c-2.5,0 -2.5,-2.5 -2.5,-2.5l0.00651,-1.18032c0.17723,-2.4384 0.45202,-7.95059 1.25742,-9.93771c0.45342,-1.1187 1.64554,-1.76649 2.4683,-2.64973c0,0 1.76776,-1.76776 3.53553,0c1.76776,1.76776 0,3.53553 0,3.53553c-2.69491,2.37569 -2.02896,6.00212 -2.27427,9.41255l0.00651,0.81968c0,0 0,2.5 -2.5,2.5z" fill="#797979" stroke="none" stroke-width="0.5" stroke-linecap="butt"/><path d="M337.88937,114.07993c-0.18518,0.51352 -0.46879,0.85386 -0.46879,0.85386l-1.79908,2.15889c-0.7569,0.83957 -1.35126,1.91114 -2.05573,2.82555c1.36495,0.43922 2.96456,0.44625 3.97755,0.10539c3.14324,-1.05766 1.98155,-4.23692 0.34605,-5.9437zM327.79231,122.20929c-3.86189,-0.70398 -3.63438,-6.74363 -1.45979,-11.02607c0.14912,-0.79428 0.44232,-1.62342 0.81111,-2.43898l-0.06899,-0.01725l0.98732,-3.94927c0.25265,-1.1133 1.24829,-1.9444 2.43804,-1.9444c1.38071,0 2.5,1.11929 2.5,2.5v1.2242c1.77507,-0.16635 3.5896,0.08039 4.54749,1.3413c0.05405,0.07115 0.10402,0.14492 0.15003,0.22109c0.75045,0.27077 1.47304,0.6721 2.11681,1.08678c5.76887,3.71599 6.57475,12.17419 -0.35762,15.43633c-1.58796,0.74724 -3.52165,0.39649 -5.26217,0.17157c-3.11308,-0.40229 -5.0917,-0.93574 -6.40223,-2.60531z" fill="#7a7a7a" stroke="none" stroke-width="0.5" stroke-linecap="butt"/><path d="M331.82678,119.79015c-3.54366,0.31924 -5.45148,-0.61285 -6.23389,-2.12648c-0.93225,-0.36316 -1.59287,-1.2696 -1.59287,-2.33034c0,-0.22872 0.03071,-0.45026 0.08824,-0.66073l0.50001,-2.00006l-1.10212,-0.55106c-0.84561,-0.40086 -1.43041,-1.26228 -1.43041,-2.26029c0,-1.24503 0.91011,-2.27749 2.10133,-2.46839l2.90176,-0.52024l0.04474,0.24953c0.3519,-0.09173 0.7106,-0.1523 1.07842,-0.17119c0.13723,-0.12382 0.27825,-0.24212 0.42402,-0.35352c-2.0038,-4.44986 -0.46348,-0.38074 -0.03386,0.01951c0.38723,0.36076 -0.50307,-3.30961 0.84957,-0.53449c0.04014,-0.02015 0.08066,-0.03975 0.12157,-0.05878c1.49918,-0.69739 3.30447,-0.12687 4.95671,-0.1903c0,0 1.3867,0 2.09456,1.03277c1.20952,0.77221 2.1715,1.90959 2.3879,3.17159c0.0642,0.37443 0.08758,0.72772 0.0743,1.0602l0.81495,2.44486l-0.19723,0.06574c0.16439,0.49416 0.24287,1.00354 0.1902,1.53617c-0.16887,1.7079 -2.65196,2.17919 -3.97793,3.26878l-0.86284,0.43963c1.36612,3.22892 0.33814,2.43557 -0.64722,0.32977l-0.75866,0.38655c0,0 -0.86704,0.43352 -1.79127,0.22075z" fill="#6c6c6c" stroke="none" stroke-width="0.5" stroke-linecap="butt"/><path d="M331.50003,114.83333c-1.08233,0 -1.69608,-0.46857 -2.04412,-1h-0.95588v-0.12246l-0.40046,0.09018c-1.13004,-0.36534 -2.26008,-0.73067 -3.39011,-1.09601c0,0 -2.37171,-0.79057 -1.58114,-3.16228c0.40192,-1.20575 1.21249,-1.59418 1.91234,-1.68469c-0.02637,-0.16137 -0.04063,-0.33593 -0.04063,-0.52474c0,-0.41488 0.06885,-0.76092 0.1837,-1.04952c-0.31472,-0.68041 -0.47039,-1.69933 0.54853,-2.71824c1.76777,-1.76777 3.53553,0 3.53553,0l1.20474,1.26777c0.3425,0 0.685,0 1.02749,0h3c1.38071,0 2.5,1.11929 2.5,2.5c0,0.69036 -0.27982,1.31536 -0.73223,1.76777l-1.40713,1.40713c0.09028,0.25832 0.13936,0.53598 0.13936,0.8251c0,0.93768 -0.51623,1.75479 -1.27999,2.18262c-0.30088,0.64663 -0.92507,1.31738 -2.22001,1.31738z" fill="#5b5b5b" stroke="none" stroke-width="0.5" stroke-linecap="butt"/><path d="M325.00003,104.33333c0,-2.5 2.5,-2.5 2.5,-2.5h2c2.18575,0 8.81985,-0.8227 10.46178,0.47189c1.32022,1.04094 1.67108,2.9801 2.00594,4.62765c0.83029,4.08505 0.94182,10.5517 -3.51101,12.71015c-1.18819,0.57596 -2.63634,0.17767 -3.95671,0.1903c-1.57515,0.01507 -3.21098,0.32942 -4.72446,-0.10727c-0.43555,-0.12567 -5.99296,-3.86638 -6.66229,-4.3126c0,0 -2.08013,-1.38675 -0.69338,-3.46688c1.38675,-2.08013 3.46688,-0.69338 3.46688,-0.69338c3.61548,2.41032 6.05361,4.55183 10.65654,3.77043c1.22522,-0.20799 0.46331,-2.41272 0.45671,-2.6903c-0.03646,-1.53279 0.02247,-3.06636 0.03228,-4.59954c0.00293,-0.45744 0.40034,-1.14058 0.00594,-1.37235c-0.4624,-0.27173 -1.00477,0.41643 -1.53822,0.47189c-1.98927,0.20685 -4,0 -6,0h-2c0,0 -2.5,0 -2.5,-2.5z" fill="#6a6a6a" stroke="none" stroke-width="0.5" stroke-linecap="butt"/></g></g></g></svg>