<svg version="1.1" xmlns="http://www.w3.org/2000/svg" xmlns:xlink="http://www.w3.org/1999/xlink" width="46" height="403.25" viewBox="0,0,46,403.25"><defs><linearGradient x1="238.15584" y1="308.73137" x2="224.7143" y2="308.73137" gradientUnits="userSpaceOnUse" id="color-1"><stop offset="0" stop-color="#e6fffe"/><stop offset="1" stop-color="#e6fffe" stop-opacity="0"/></linearGradient><linearGradient x1="242.63636" y1="309.39803" x2="256.07794" y2="309.39803" gradientUnits="userSpaceOnUse" id="color-2"><stop offset="0" stop-color="#e6fffe"/><stop offset="1" stop-color="#e6fffe" stop-opacity="0"/></linearGradient><radialGradient cx="239.5" cy="179" r="23" gradientUnits="userSpaceOnUse" id="color-3"><stop offset="0" stop-color="#e6fffe"/><stop offset="1" stop-color="#e6fffe" stop-opacity="0"/></radialGradient><radialGradient cx="239.5" cy="179" r="17.32467" gradientUnits="userSpaceOnUse" id="color-4"><stop offset="0" stop-color="#e6fffe"/><stop offset="1" stop-color="#e6fffe" stop-opacity="0"/></radialGradient><radialGradient cx="239.5" cy="179" r="20.90907" gradientUnits="userSpaceOnUse" id="color-5"><stop offset="0" stop-color="#e6fffe"/><stop offset="1" stop-color="#e6fffe" stop-opacity="0"/></radialGradient></defs><g transform="translate(-216.5,-140.5)"><g data-paper-data="{&quot;isPaintingLayer&quot;:true}" fill-rule="nonzero" stroke-linejoin="miter" stroke-miterlimit="10" stroke-dasharray="" stroke-dashoffset="0" style="mix-blend-mode: normal"><path d="M224.7143,509.12939v-340.79606h13.44158v340.79606z" data-paper-data="{&quot;index&quot;:null}" fill="url(#color-1)" stroke="none" stroke-width="0" stroke-linecap="butt"/><path d="M236.2143,516v-348h9.55846v348z" fill="#e6fffe" stroke="none" stroke-width="0" stroke-linecap="butt"/><path d="M242.63636,511.79606v-344.79606h13.44158v344.79606z" fill="url(#color-2)" stroke="none" stroke-width="0" stroke-linecap="butt"/><path d="M245.12296,541.25c0,0 1.93668,-25.95864 -0.09787,-53.21686c-1.68552,-22.58204 -7.40822,-46.05601 -7.40822,-56.40109c0,-12.20591 5.20858,-32.73541 5.86531,-56.89232c0.50773,-18.6765 -5.95834,-39.52123 -5.70779,-60.36394c0.24395,-20.29232 7.33642,-40.58273 8.52618,-58.86842c2.59616,-39.90155 -1.17764,-70.25737 -1.17764,-70.25737" data-paper-data="{&quot;index&quot;:null}" fill="none" stroke="#e6fffe" stroke-width="5" stroke-linecap="round"/><path d="M216.5,179c0,-21.26296 10.29744,-38.5 23,-38.5c12.70255,0 23,17.23704 23,38.5c0,21.26296 -10.29745,38.5 -23,38.5c-12.70256,0 -23,-17.23704 -23,-38.5z" fill="url(#color-3)" stroke="none" stroke-width="0" stroke-linecap="butt"/><path d="M222.17533,179c0,-16.01626 7.75652,-29 17.32467,-29c9.56815,0 17.32467,12.98374 17.32467,29c0,16.01626 -7.75652,29 -17.32467,29c-9.56815,0 -17.32467,-12.98374 -17.32467,-29z" fill="url(#color-4)" stroke="none" stroke-width="0" stroke-linecap="butt"/><path d="M218.59093,179c0,-19.32997 9.36131,-35 20.90907,-35c11.54776,0 20.90907,15.67003 20.90907,35c0,19.32997 -9.36131,35 -20.90907,35c-11.54776,0 -20.90907,-15.67003 -20.90907,-35z" fill="url(#color-5)" stroke="none" stroke-width="0" stroke-linecap="butt"/></g></g></svg>