<svg version="1.1" xmlns="http://www.w3.org/2000/svg" xmlns:xlink="http://www.w3.org/1999/xlink" width="22.37878" height="16.55426" viewBox="0,0,22.37878,16.55426"><g transform="translate(-228.81061,-171.72287)"><g data-paper-data="{&quot;isPaintingLayer&quot;:true}" fill-rule="nonzero" stroke-linecap="butt" stroke-linejoin="miter" stroke-miterlimit="10" stroke-dasharray="" stroke-dashoffset="0" style="mix-blend-mode: normal"><path d="M230.09517,181.72152l-1.28455,-5.07463l19.45278,-4.92402l1.28452,5.07464z" fill="#8d8d8d" stroke="none" stroke-width="0"/><path d="M231.45468,188.27713l-1.89826,-7.49921l19.73472,-4.99541l1.89826,7.49921z" fill="#b7b7b7" stroke="#000000" stroke-width="0"/><path d="M247.53517,181.88183c-0.81745,0.20693 -1.64784,-0.28799 -1.85478,-1.10546c-0.20693,-0.81745 0.28799,-1.64784 1.10546,-1.85478c0.81745,-0.20693 1.64784,0.28799 1.85477,1.10543c0.20693,0.81745 -0.28799,1.64784 -1.10546,1.85478z" fill="#8d8d8d" stroke="none" stroke-width="0.5"/><path d="M240.84027,183.87645c-0.81745,0.20693 -1.64784,-0.28799 -1.85478,-1.10546c-0.20693,-0.81745 0.28799,-1.64784 1.10546,-1.85478c0.81745,-0.20693 1.64784,0.28799 1.85478,1.10546c0.20693,0.81745 -0.28802,1.64785 -1.10546,1.85478z" fill="#8d8d8d" stroke="none" stroke-width="0.5"/><path d="M235.20183,185.30369c-0.81745,0.20693 -1.64784,-0.28799 -1.85477,-1.10543c-0.20693,-0.81745 0.28799,-1.64784 1.10546,-1.85478c0.81745,-0.20693 1.64784,0.28799 1.85478,1.10546c0.20693,0.81745 -0.28799,1.64784 -1.10546,1.85478z" fill="#8d8d8d" stroke="none" stroke-width="0.5"/></g></g></svg>