<svg version="1.1" xmlns="http://www.w3.org/2000/svg" xmlns:xlink="http://www.w3.org/1999/xlink" width="56.73644" height="56.64436" viewBox="0,0,56.73644,56.64436"><defs><radialGradient cx="240.03756" cy="179.99673" r="29.25507" gradientUnits="userSpaceOnUse" id="color-1"><stop offset="0" stop-color="#d1b7a0"/><stop offset="1" stop-color="#d1b7a0" stop-opacity="0"/></radialGradient><radialGradient cx="239.9743" cy="180.00223" r="20.01393" gradientUnits="userSpaceOnUse" id="color-2"><stop offset="0" stop-color="#ff7800"/><stop offset="1" stop-color="#ff7800" stop-opacity="0"/></radialGradient><radialGradient cx="240.02506" cy="179.99782" r="19.51966" gradientUnits="userSpaceOnUse" id="color-3"><stop offset="0" stop-color="#dd8b44"/><stop offset="1" stop-color="#dd8b44" stop-opacity="0"/></radialGradient><radialGradient cx="240.01802" cy="180.00156" r="14.03156" gradientUnits="userSpaceOnUse" id="color-4"><stop offset="0" stop-color="#ff7800" stop-opacity="0"/><stop offset="1" stop-color="#ff7800"/></radialGradient><radialGradient cx="239.98845" cy="179.999" r="8.99774" gradientUnits="userSpaceOnUse" id="color-5"><stop offset="0" stop-color="#ffb500" stop-opacity="0"/><stop offset="1" stop-color="#ffb500"/></radialGradient><radialGradient cx="239.99116" cy="180.00077" r="6.8854" gradientUnits="userSpaceOnUse" id="color-6"><stop offset="0" stop-color="#ffca00" stop-opacity="0"/><stop offset="1" stop-color="#ffca00"/></radialGradient></defs><g transform="translate(-211.63178,-151.67782)"><g data-paper-data="{&quot;isPaintingLayer&quot;:true}" fill-rule="nonzero" stroke="none" stroke-width="0" stroke-linecap="butt" stroke-linejoin="miter" stroke-miterlimit="10" stroke-dasharray="" stroke-dashoffset="0" style="mix-blend-mode: normal"><g><path d="M265.98594,193.32836c-3.20946,4.47412 -9.90947,8.23945 -15.64751,10.4811c-3.19246,1.24719 -6.66672,4.50618 -10.30087,4.50618c-5.53166,0 -11.60549,0.27453 -15.43373,-2.73388c-4.52454,-3.55558 -6.4696,-10.86102 -8.67784,-16.62184c-1.20607,-3.14636 -4.20733,-5.3925 -4.20733,-8.9632c0,-3.82312 -0.60126,-8.00027 1.35982,-11.13162c2.62536,-4.19203 8.3597,-7.06601 12.06432,-10.03682c4.8488,-3.88834 8.19591,-7.15046 14.89476,-7.15046c2.76877,0 5.51945,3.25369 8.08555,4.10033c3.57564,1.17972 6.79291,0.33039 9.20141,2.95056c3.56785,3.88142 5.06106,9.33334 6.85717,14.43417c1.03652,2.94366 4.17479,3.53569 4.17479,6.83385c0,5.47406 0.31916,9.58209 -2.37053,13.33164z" data-paper-data="{&quot;index&quot;:null}" fill="url(#color-1)"/><path d="M222.22254,170.88182c2.19565,-3.06083 6.77925,-5.63675 10.70475,-7.17031c2.18402,-0.85322 4.56083,-3.08276 7.04702,-3.08276c3.78431,0 7.93953,-0.18781 10.5585,1.87029c3.09532,2.43244 4.42597,7.43022 5.93667,11.3713c0.8251,2.15248 2.87831,3.68911 2.87831,6.13189c0,2.61547 0.41133,5.47313 -0.93028,7.61535c-1.79606,2.86784 -5.71903,4.83398 -8.25342,6.86637c-3.31715,2.66009 -5.60697,4.89176 -10.18978,4.89176c-1.89417,0 -3.77596,-2.22591 -5.53147,-2.80511c-2.44616,-0.80707 -4.64716,-0.22602 -6.29485,-2.01853c-2.44083,-2.65535 -3.46236,-6.38511 -4.69111,-9.87468c-0.7091,-2.01381 -2.85605,-2.41883 -2.85605,-4.67516c0,-3.74491 -0.21834,-6.55528 1.62172,-9.12042z" data-paper-data="{&quot;index&quot;:null}" fill="url(#color-2)"/><path d="M257.33842,188.89299c-2.14143,2.98524 -6.61183,5.49755 -10.44038,6.99323c-2.13008,0.83215 -4.44819,3.00663 -6.87298,3.00663c-3.69085,0 -7.74345,0.18317 -10.29774,-1.82411c-3.01887,-2.37237 -4.31666,-7.24673 -5.79006,-11.09047c-0.80472,-2.09933 -2.80722,-3.598 -2.80722,-5.98046c0,-2.55088 -0.40118,-5.33796 0.90731,-7.42727c1.75169,-2.79702 5.57779,-4.71461 8.0496,-6.6968c3.23523,-2.59439 5.4685,-4.77095 9.93812,-4.77095c1.84739,0 3.68271,2.17093 5.39487,2.73583c2.38575,0.78713 4.53239,0.22044 6.13939,1.96868c2.38055,2.58978 3.37685,6.22742 4.57526,9.63082c0.69159,1.96407 2.78552,2.35909 2.78552,4.5597c0,3.65242 0.21295,6.39339 -1.58168,8.89517z" data-paper-data="{&quot;index&quot;:null}" fill="url(#color-3)"/><path d="M253.60056,180.00156c0,1.58189 -1.50521,1.86585 -2.00235,3.2777c-0.86146,2.44651 -1.57765,5.0614 -3.28889,6.92304c-1.15519,1.25671 -2.69828,0.84934 -4.41325,1.41517c-1.23078,0.40607 -2.55008,1.96663 -3.87806,1.96663c-3.21295,0 -4.81832,-1.5646 -7.14395,-3.42956c-1.77684,-1.42489 -4.52719,-2.80333 -5.78639,-4.81394c-0.94059,-1.50189 -0.65221,-3.50536 -0.65221,-5.33904c0,-1.71261 1.43948,-2.78992 2.01795,-4.299c1.05914,-2.76305 1.99205,-6.26694 4.16214,-7.9723c1.83614,-1.44291 4.74932,-1.31125 7.40246,-1.31125c1.74304,0 3.40939,1.56311 4.94059,2.16129c2.75212,1.07516 5.96563,2.88111 7.50498,5.02703c1.29006,1.79839 1.13698,3.76872 1.13698,6.39423z" fill="url(#color-4)"/><path d="M231.27863,179.999c0,-1.01439 0.96521,-1.19648 1.284,-2.10183c0.55242,-1.56882 1.01167,-3.24562 2.109,-4.4394c0.74076,-0.80587 1.73028,-0.54464 2.83,-0.90748c0.78924,-0.26039 1.63523,-1.2611 2.4868,-1.2611c2.06031,0 3.08975,1.0033 4.58106,2.19921c1.1394,0.91371 2.90306,1.79763 3.71053,3.08694c0.60315,0.96308 0.41823,2.24782 0.41823,3.42367c0,1.0982 -0.92308,1.78903 -1.29401,2.75673c-0.67917,1.77181 -1.27739,4.01868 -2.66896,5.11224c-1.17743,0.92527 -3.04551,0.84083 -4.74683,0.84083c-1.11772,0 -2.18627,-1.00234 -3.16815,-1.38592c-1.7648,-0.68945 -3.82546,-1.84751 -4.81258,-3.22358c-0.82725,-1.15321 -0.72908,-2.41669 -0.72908,-4.1003z" data-paper-data="{&quot;index&quot;:null}" fill="url(#color-5)"/><path d="M233.88401,176.86307c0.75537,-1.05302 2.33227,-1.93922 3.68276,-2.4668c0.75137,-0.29354 1.56907,-1.06056 2.42438,-1.06056c1.30192,0 2.73144,-0.06461 3.63244,0.64344c1.06489,0.83683 1.52266,2.55622 2.04239,3.91207c0.28386,0.74051 0.99022,1.26916 0.99022,2.10956c0,0.89981 0.14151,1.88292 -0.32005,2.61991c-0.61789,0.98663 -1.96752,1.66304 -2.83943,2.36224c-1.1412,0.91515 -1.92896,1.68291 -3.50559,1.68291c-0.65165,0 -1.29905,-0.76578 -1.903,-0.96505c-0.84155,-0.27766 -1.59876,-0.07776 -2.16562,-0.69444c-0.83971,-0.91352 -1.19116,-2.19666 -1.61389,-3.39718c-0.24396,-0.69281 -0.98257,-0.83215 -0.98257,-1.6084c0,-1.28836 -0.07512,-2.25522 0.55792,-3.1377z" data-paper-data="{&quot;index&quot;:null}" fill="url(#color-6)"/></g></g></g></svg>