<svg version="1.1" xmlns="http://www.w3.org/2000/svg" xmlns:xlink="http://www.w3.org/1999/xlink" width="41.55556" height="41.70085" viewBox="0,0,41.55556,41.70085"><defs><radialGradient cx="242.2" cy="181.95" r="10.98571" gradientUnits="userSpaceOnUse" id="color-1"><stop offset="0" stop-color="#7f7f7f"/><stop offset="1" stop-color="#7f7f7f" stop-opacity="0"/></radialGradient><radialGradient cx="240" cy="180" r="10.98571" gradientUnits="userSpaceOnUse" id="color-2"><stop offset="0" stop-color="#6b6b6b"/><stop offset="1" stop-color="#6b6b6b" stop-opacity="0"/></radialGradient><radialGradient cx="240.71429" cy="181.57143" r="7.28571" gradientUnits="userSpaceOnUse" id="color-3"><stop offset="0" stop-color="#7f7f7f"/><stop offset="1" stop-color="#7f7f7f" stop-opacity="0"/></radialGradient><radialGradient cx="244.85714" cy="181.14286" r="7.28571" gradientUnits="userSpaceOnUse" id="color-4"><stop offset="0" stop-color="#909090"/><stop offset="1" stop-color="#909090" stop-opacity="0"/></radialGradient><radialGradient cx="239.71429" cy="178.57143" r="7.28571" gradientUnits="userSpaceOnUse" id="color-5"><stop offset="0" stop-color="#929292"/><stop offset="1" stop-color="#929292" stop-opacity="0"/></radialGradient><radialGradient cx="238.71429" cy="184.42857" r="7.28571" gradientUnits="userSpaceOnUse" id="color-6"><stop offset="0" stop-color="#7f7f7f"/><stop offset="1" stop-color="#7f7f7f" stop-opacity="0"/></radialGradient></defs><g transform="translate(-219.22222,-159.14962)"><g data-paper-data="{&quot;isPaintingLayer&quot;:true}" fill-rule="nonzero" stroke="none" stroke-width="0" stroke-linecap="butt" stroke-linejoin="miter" stroke-miterlimit="10" stroke-dasharray="" stroke-dashoffset="0" style="mix-blend-mode: normal"><path d="M219.22222,200.85047v-41.70085h41.55556v41.70085z" fill="none"/><g><path d="M231.21429,181.95c0,-6.06724 4.91847,-10.98571 10.98571,-10.98571c6.06724,0 10.98571,4.91847 10.98571,10.98571c0,6.06724 -4.91847,10.98571 -10.98571,10.98571c-6.06724,0 -10.98571,-4.91847 -10.98571,-10.98571z" fill="url(#color-1)"/><path d="M229.01429,180c0,-6.06724 4.91847,-10.98571 10.98571,-10.98571c6.06724,0 10.98571,4.91847 10.98571,10.98571c0,6.06724 -4.91847,10.98571 -10.98571,10.98571c-6.06724,0 -10.98571,-4.91847 -10.98571,-10.98571z" fill="url(#color-2)"/><path d="M233.44689,182.0878c-0.28518,-4.01367 2.73736,-7.49858 6.75103,-7.78376c4.01367,-0.28518 7.49858,2.73736 7.78376,6.75103c0.28518,4.01367 -2.73736,7.49858 -6.75103,7.78376c-4.01367,0.28518 -7.49858,-2.73736 -7.78376,-6.75103z" fill="url(#color-3)"/><path d="M237.57143,181.14286c0,-4.02379 3.26193,-7.28571 7.28571,-7.28571c4.02379,0 7.28571,3.26193 7.28571,7.28571c0,4.02379 -3.26193,7.28571 -7.28571,7.28571c-4.02379,0 -7.28571,-3.26193 -7.28571,-7.28571z" fill="url(#color-4)"/><path d="M232.44689,179.0878c-0.28518,-4.01367 2.73736,-7.49858 6.75103,-7.78376c4.01367,-0.28518 7.49858,2.73736 7.78376,6.75103c0.28518,4.01367 -2.73736,7.49858 -6.75103,7.78376c-4.01367,0.28518 -7.49858,-2.73736 -7.78376,-6.75103z" fill="url(#color-5)"/><path d="M231.42857,184.42857c0,-4.02379 3.26193,-7.28571 7.28571,-7.28571c4.02379,0 7.28571,3.26193 7.28571,7.28571c0,4.02379 -3.26193,7.28571 -7.28571,7.28571c-4.02379,0 -7.28571,-3.26193 -7.28571,-7.28571z" fill="url(#color-6)"/></g></g></g></svg>