<svg version="1.1" xmlns="http://www.w3.org/2000/svg" xmlns:xlink="http://www.w3.org/1999/xlink" width="72.8919" height="669.84635" viewBox="0,0,72.8919,669.84635"><defs><linearGradient x1="236.117" y1="363.31288" x2="219.63269" y2="363.39635" gradientUnits="userSpaceOnUse" id="color-1"><stop offset="0" stop-color="#ff0000"/><stop offset="1" stop-color="#ff0000" stop-opacity="0"/></linearGradient><linearGradient x1="247.28377" y1="363.25634" x2="263.76809" y2="363.17288" gradientUnits="userSpaceOnUse" id="color-2"><stop offset="0" stop-color="#ff0000"/><stop offset="1" stop-color="#ff0000" stop-opacity="0"/></linearGradient><linearGradient x1="253.66481" y1="363.22404" x2="270.1491" y2="363.14057" gradientUnits="userSpaceOnUse" id="color-3"><stop offset="0" stop-color="#ff0000"/><stop offset="1" stop-color="#ff0000" stop-opacity="0"/></linearGradient><linearGradient x1="229.20422" y1="363.34788" x2="212.7199" y2="363.43135" gradientUnits="userSpaceOnUse" id="color-4"><stop offset="0" stop-color="#ff0000"/><stop offset="1" stop-color="#ff0000" stop-opacity="0"/></linearGradient><radialGradient cx="241.50151" cy="66.23448" r="26.11482" gradientUnits="userSpaceOnUse" id="color-5"><stop offset="0" stop-color="#ff0000"/><stop offset="1" stop-color="#ff0000" stop-opacity="0"/></radialGradient><radialGradient cx="241.50151" cy="66.23448" r="36.44595" gradientUnits="userSpaceOnUse" id="color-6"><stop offset="0" stop-color="#ff0000"/><stop offset="1" stop-color="#ff0000" stop-opacity="0"/></radialGradient><radialGradient cx="234.75187" cy="65.09948" r="14.44052" gradientUnits="userSpaceOnUse" id="color-7"><stop offset="0" stop-color="#ffb7b7"/><stop offset="1" stop-color="#ffb7b7" stop-opacity="0"/></radialGradient><radialGradient cx="247.48229" cy="65.03976" r="14.44052" gradientUnits="userSpaceOnUse" id="color-8"><stop offset="0" stop-color="#ffb7b7"/><stop offset="1" stop-color="#ffb7b7" stop-opacity="0"/></radialGradient><radialGradient cx="241.02207" cy="65.07006" r="14.44052" gradientUnits="userSpaceOnUse" id="color-9"><stop offset="0" stop-color="#ffb7b7"/><stop offset="1" stop-color="#ffb7b7" stop-opacity="0"/></radialGradient><radialGradient cx="241.65592" cy="65.39814" r="7.22028" gradientUnits="userSpaceOnUse" id="color-10"><stop offset="0" stop-color="#ffb7b7"/><stop offset="1" stop-color="#ffb7b7" stop-opacity="0"/></radialGradient><radialGradient cx="238.61649" cy="65.8538" r="7.22028" gradientUnits="userSpaceOnUse" id="color-11"><stop offset="0" stop-color="#ffb7b7"/><stop offset="1" stop-color="#ffb7b7" stop-opacity="0"/></radialGradient><radialGradient cx="235.25956" cy="65.7592" r="5.00353" gradientUnits="userSpaceOnUse" id="color-12"><stop offset="0" stop-color="#ffb7b7"/><stop offset="1" stop-color="#ffb7b7" stop-opacity="0"/></radialGradient><radialGradient cx="248.43334" cy="65.6974" r="5.85855" gradientUnits="userSpaceOnUse" id="color-13"><stop offset="0" stop-color="#ffb7b7"/><stop offset="1" stop-color="#ffb7b7" stop-opacity="0"/></radialGradient><radialGradient cx="247.67332" cy="65.70097" r="5.00353" gradientUnits="userSpaceOnUse" id="color-14"><stop offset="0" stop-color="#ffb7b7"/><stop offset="1" stop-color="#ffb7b7" stop-opacity="0"/></radialGradient><radialGradient cx="251.60044" cy="65.90325" r="3.61012" gradientUnits="userSpaceOnUse" id="color-15"><stop offset="0" stop-color="#ffb7b7"/><stop offset="1" stop-color="#ffb7b7" stop-opacity="0"/></radialGradient><radialGradient cx="244.18933" cy="65.38626" r="7.22028" gradientUnits="userSpaceOnUse" id="color-16"><stop offset="0" stop-color="#ffb7b7"/><stop offset="1" stop-color="#ffb7b7" stop-opacity="0"/></radialGradient><radialGradient cx="233.73901" cy="65.43528" r="5.7002" gradientUnits="userSpaceOnUse" id="color-17"><stop offset="0" stop-color="#ffb7b7"/><stop offset="1" stop-color="#ffb7b7" stop-opacity="0"/></radialGradient><linearGradient x1="225.34745" y1="362.27717" x2="235.45075" y2="362.22601" gradientUnits="userSpaceOnUse" id="color-18"><stop offset="0" stop-color="#ff0000"/><stop offset="1" stop-color="#ffffff"/></linearGradient><linearGradient x1="246.8834" y1="362.16812" x2="256.9867" y2="362.11698" gradientUnits="userSpaceOnUse" id="color-19"><stop offset="0" stop-color="#ffffff"/><stop offset="1" stop-color="#ff0000"/></linearGradient><radialGradient cx="230.62778" cy="55.61879" r="21.81016" gradientUnits="userSpaceOnUse" id="color-20"><stop offset="0" stop-color="#ffffff"/><stop offset="1" stop-color="#ffffff" stop-opacity="0"/></radialGradient><radialGradient cx="249.85511" cy="55.5286" r="21.81016" gradientUnits="userSpaceOnUse" id="color-21"><stop offset="0" stop-color="#ffffff"/><stop offset="1" stop-color="#ffffff" stop-opacity="0"/></radialGradient><radialGradient cx="240.09799" cy="55.57437" r="21.81016" gradientUnits="userSpaceOnUse" id="color-22"><stop offset="0" stop-color="#ffffff"/><stop offset="1" stop-color="#ffffff" stop-opacity="0"/></radialGradient><radialGradient cx="241.05533" cy="56.06988" r="10.9051" gradientUnits="userSpaceOnUse" id="color-23"><stop offset="0" stop-color="#ffffff"/><stop offset="1" stop-color="#ffffff" stop-opacity="0"/></radialGradient><radialGradient cx="236.46476" cy="56.75807" r="10.9051" gradientUnits="userSpaceOnUse" id="color-24"><stop offset="0" stop-color="#ffffff"/><stop offset="1" stop-color="#ffffff" stop-opacity="0"/></radialGradient><radialGradient cx="231.39459" cy="56.6152" r="7.55704" gradientUnits="userSpaceOnUse" id="color-25"><stop offset="0" stop-color="#ffffff"/><stop offset="1" stop-color="#ffffff" stop-opacity="0"/></radialGradient><radialGradient cx="251.29154" cy="56.52186" r="8.84843" gradientUnits="userSpaceOnUse" id="color-26"><stop offset="0" stop-color="#ffffff"/><stop offset="1" stop-color="#ffffff" stop-opacity="0"/></radialGradient><radialGradient cx="250.14364" cy="56.52724" r="7.55704" gradientUnits="userSpaceOnUse" id="color-27"><stop offset="0" stop-color="#ffffff"/><stop offset="1" stop-color="#ffffff" stop-opacity="0"/></radialGradient><radialGradient cx="256.07495" cy="56.83275" r="5.45253" gradientUnits="userSpaceOnUse" id="color-28"><stop offset="0" stop-color="#ffffff"/><stop offset="1" stop-color="#ffffff" stop-opacity="0"/></radialGradient><radialGradient cx="244.88167" cy="56.05192" r="10.9051" gradientUnits="userSpaceOnUse" id="color-29"><stop offset="0" stop-color="#ffffff"/><stop offset="1" stop-color="#ffffff" stop-opacity="0"/></radialGradient><radialGradient cx="229.09805" cy="56.12597" r="8.60929" gradientUnits="userSpaceOnUse" id="color-30"><stop offset="0" stop-color="#ffffff"/><stop offset="1" stop-color="#ffffff" stop-opacity="0"/></radialGradient></defs><g transform="translate(-205.05555,-2.73449)"><g data-paper-data="{&quot;isPaintingLayer&quot;:true}" fill-rule="nonzero" stroke-linejoin="miter" stroke-miterlimit="10" stroke-dasharray="" stroke-dashoffset="0" style="mix-blend-mode: normal"><g stroke="none" stroke-width="0" stroke-linecap="butt"><path d="M220.07438,671.9321l-0.88344,-617.0715l16.48431,-0.08346l0.88344,617.0715z" data-paper-data="{&quot;index&quot;:null}" fill="url(#color-1)"/><path d="M247.72549,671.79209l-0.88344,-617.0715l16.48431,-0.08346l0.88344,617.0715z" fill="url(#color-2)"/></g><path d="M254.10653,671.75979l-0.88344,-617.0715l16.48431,-0.08346l0.88344,617.0715z" fill="url(#color-3)" stroke="none" stroke-width="0" stroke-linecap="butt"/><path d="M213.16165,671.9671l-0.88344,-617.0715l16.48431,-0.08346l0.88344,617.0715z" data-paper-data="{&quot;index&quot;:null}" fill="url(#color-4)" stroke="none" stroke-width="0" stroke-linecap="butt"/><g fill="none" stroke="#ff0000" stroke-width="4" stroke-linecap="round"><g><path d="M242.77522,345.05926c0,0 -24.53708,-18.59777 -19.55432,-44.61744c3.59465,-18.77095 37.79139,-41.48168 35.47166,-63.49364c-3.4682,-32.90996 -34.91509,-64.52957 -34.93836,-80.7933c-0.03046,-21.27719 18.68173,-48.09476 18.68173,-48.09476"/><path d="M241.50649,344.06567c0,0 18.78868,26.62769 18.81918,47.90489c0.02327,16.26372 -31.3326,48.20132 -34.70654,81.14592c-2.25667,22.03513 32.00462,44.39925 35.65295,63.13353c5.05719,25.96885 -19.42627,44.81482 -19.42627,44.81482" data-paper-data="{&quot;index&quot;:null}"/></g><g data-paper-data="{&quot;index&quot;:null}"><path d="M241.46785,317.06577c0,0 24.53708,18.59777 19.55432,44.61744c-3.59465,18.77094 -37.79139,41.48167 -35.47166,63.49364c3.4682,32.90995 34.91509,64.52957 34.93836,80.7933c0.03046,21.27719 -18.68173,48.09476 -18.68173,48.09476"/><path d="M242.73654,318.05935c0,0 -18.78868,-26.62769 -18.81918,-47.90489c-0.02327,-16.26372 31.3326,-48.20132 34.70654,-81.14592c2.25667,-22.03513 -32.00462,-44.39925 -35.65295,-63.13353c-5.05719,-25.96885 19.42627,-44.81482 19.42627,-44.81482" data-paper-data="{&quot;index&quot;:null}"/></g></g><path d="M215.38676,66.35698c-0.03882,-25.12887 11.62164,-45.55468 26.04441,-45.62233c14.42277,-0.06765 26.14619,20.24846 26.18505,45.37733c0.03882,25.12887 -11.62164,45.55468 -26.04441,45.62233c-14.42277,0.06765 -26.14619,-20.24846 -26.18505,-45.37733z" fill="url(#color-5)" stroke="none" stroke-width="0" stroke-linecap="butt"/><path d="M205.05568,66.40545c-0.05421,-35.06995 16.21923,-63.57632 36.34768,-63.67073c20.12845,-0.09442 36.48974,28.25885 36.54395,63.32881c0.05421,35.06995 -16.21923,63.57632 -36.34768,63.67073c-20.12845,0.09442 -36.48974,-28.25885 -36.54395,-63.32881z" fill="url(#color-6)" stroke="none" stroke-width="0" stroke-linecap="butt"/><g stroke="none" stroke-width="0" stroke-linecap="butt"><path d="M220.31139,65.16722c-0.02145,-13.89533 6.42634,-25.19006 14.40159,-25.22747c7.97525,-0.03741 14.45788,11.19666 14.47937,25.09199c0.02145,13.89533 -6.42634,25.19006 -14.40159,25.22747c-7.97525,0.03741 -14.45788,-11.19666 -14.47937,-25.09199z" fill="url(#color-7)"/><path d="M233.04181,65.1075c-0.02145,-13.89533 6.42634,-25.19006 14.40159,-25.22747c7.97525,-0.03741 14.45788,11.19666 14.47937,25.09199c0.02145,13.89533 -6.42634,25.19006 -14.40159,25.22747c-7.97525,0.03741 -14.45788,-11.19666 -14.47937,-25.09199z" fill="url(#color-8)"/><path d="M226.58159,65.1378c-0.02145,-13.89533 6.42634,-25.19006 14.40159,-25.22747c7.97525,-0.03741 14.45788,11.19666 14.47937,25.09199c0.02145,13.89533 -6.42634,25.19006 -14.40159,25.22747c-7.97525,0.03741 -14.45788,-11.19666 -14.47937,-25.09199z" fill="url(#color-9)"/><path d="M234.43568,65.43201c-0.01073,-6.94767 3.21317,-12.59503 7.20079,-12.61373c3.98762,-0.0187 7.22896,5.59833 7.23969,12.54599c0.01073,6.94767 -3.21317,12.59503 -7.20079,12.61373c-3.98762,0.0187 -7.22896,-5.59833 -7.23969,-12.54599z" fill="url(#color-10)"/><path d="M231.39629,65.88767c-0.01073,-6.94767 3.21317,-12.59503 7.20079,-12.61373c3.98762,-0.0187 7.22896,5.59833 7.23969,12.54599c0.01073,6.94767 -3.21317,12.59503 -7.20079,12.61373c-3.98762,0.0187 -7.22896,-5.59833 -7.23969,-12.54599z" fill="url(#color-11)"/><path d="M230.25607,65.78267c-0.00745,-4.81462 2.22666,-8.72812 4.99003,-8.74109c2.76336,-0.01296 5.00955,3.87955 5.01696,8.69414c0.00745,4.81462 -2.22666,8.72812 -4.99003,8.74109c-2.76336,0.01296 -5.00951,-3.87954 -5.01696,-8.69415z" fill="url(#color-12)"/><path d="M242.57479,65.72488c-0.00872,-5.63736 2.60718,-10.21965 5.84277,-10.23483c3.23559,-0.01518 5.86561,4.54251 5.87429,10.17986c0.00872,5.63736 -2.60718,10.21965 -5.84277,10.23483c-3.23559,0.01518 -5.86561,-4.54251 -5.87429,-10.17986z" fill="url(#color-13)"/><path d="M242.66982,65.72443c-0.00745,-4.81462 2.22666,-8.72812 4.99003,-8.74109c2.76336,-0.01296 5.00951,3.87954 5.01696,8.69415c0.00745,4.81462 -2.22666,8.72812 -4.99003,8.74109c-2.76336,0.01296 -5.00955,-3.87955 -5.01696,-8.69414z" fill="url(#color-14)"/><path d="M247.99032,65.92018c-0.00536,-3.47384 1.60659,-6.29751 3.6004,-6.30686c1.99381,-0.00935 3.61448,2.79917 3.61984,6.27299c0.00536,3.47384 -1.60659,6.29751 -3.6004,6.30686c-1.99381,0.00935 -3.61448,-2.79917 -3.61984,-6.27299z" fill="url(#color-15)"/><path d="M236.96909,65.42013c-0.01073,-6.94767 3.21317,-12.59503 7.20079,-12.61373c3.98762,-0.0187 7.22896,5.59833 7.23969,12.54599c0.01073,6.94767 -3.21317,12.59503 -7.20079,12.61373c-3.98762,0.0187 -7.22896,-5.59833 -7.23969,-12.54599z" fill="url(#color-16)"/><path d="M228.03882,65.46202c-0.00849,-5.485 2.53672,-9.94344 5.68484,-9.95821c3.14812,-0.01476 5.70707,4.41973 5.71552,9.90473c0.00849,5.485 -2.53672,9.94344 -5.68484,9.95821c-3.14812,0.01476 -5.70707,-4.41973 -5.71552,-9.90473z" fill="url(#color-17)"/></g><g stroke="none" stroke-linecap="butt"><path d="M225.79076,671.90316l-0.88656,-619.25198l10.1033,-0.05116l0.88656,619.25198z" data-paper-data="{&quot;index&quot;:null}" fill="url(#color-18)" stroke-width="NaN"/><path d="M235.49626,672.58083l-0.8876,-619.97878l12.76204,-0.06461l0.8876,619.97878z" fill="#ffffff" stroke-width="0"/><path d="M247.3267,671.79411l-0.88656,-619.25198l10.1033,-0.05116l0.88656,619.25198z" fill="url(#color-19)" stroke-width="NaN"/></g><g stroke="none" stroke-width="0" stroke-linecap="butt"><path d="M208.8177,55.7211c-0.03245,-20.98674 9.70599,-38.04567 21.75136,-38.10217c12.0454,-0.05651 21.83639,16.91081 21.8688,37.89755c0.03245,20.98674 -9.70599,38.04567 -21.75136,38.10217c-12.0454,0.05651 -21.83639,-16.91081 -21.8688,-37.89755z" fill="url(#color-20)"/><path d="M228.04503,55.63091c-0.03245,-20.98674 9.70599,-38.04567 21.75136,-38.10217c12.0454,-0.05651 21.83639,16.91081 21.8688,37.89755c0.03245,20.98674 -9.70599,38.04567 -21.75136,38.10217c-12.0454,0.05651 -21.83639,-16.91081 -21.8688,-37.89755z" fill="url(#color-21)"/><path d="M218.28787,55.67668c-0.03245,-20.98674 9.70599,-38.04567 21.75136,-38.10217c12.0454,-0.05651 21.83639,16.91081 21.8688,37.89755c0.03245,20.98674 -9.70599,38.04567 -21.75136,38.10217c-12.0454,0.05651 -21.83639,-16.91081 -21.8688,-37.89755z" fill="url(#color-22)"/><path d="M230.15027,56.12103c-0.01621,-10.49337 4.85298,-19.02284 10.8757,-19.05109c6.02268,-0.02825 10.91818,8.4554 10.93442,18.94878c0.01621,10.49337 -4.85298,19.02284 -10.8757,19.05109c-6.02268,0.02825 -10.91818,-8.4554 -10.93442,-18.94878z" fill="url(#color-23)"/><path d="M225.5597,56.80923c-0.01621,-10.49337 4.85298,-19.02284 10.8757,-19.05109c6.02268,-0.02825 10.91818,8.4554 10.93442,18.94878c0.01621,10.49337 -4.85298,19.02284 -10.8757,19.05109c-6.02268,0.02825 -10.91818,-8.4554 -10.93442,-18.94878z" fill="url(#color-24)"/><path d="M223.83759,56.65064c-0.01123,-7.27173 3.36303,-13.18248 7.53667,-13.20206c4.17364,-0.01958 7.56611,5.85945 7.57737,13.13116c0.01123,7.27173 -3.36303,13.18249 -7.53667,13.20207c-4.17364,0.01958 -7.56611,-5.85943 -7.57733,-13.13118z" fill="url(#color-25)"/><path d="M242.44315,56.56337c-0.01316,-8.51436 3.93773,-15.43519 8.82455,-15.45811c4.88682,-0.02293 8.85908,6.86075 8.8722,15.3751c0.01316,8.51436 -3.93773,15.4352 -8.82459,15.45812c-4.88682,0.02293 -8.85908,-6.86075 -8.8722,-15.37511z" fill="url(#color-26)"/><path d="M242.58664,56.56269c-0.01123,-7.27173 3.36303,-13.18248 7.53667,-13.20206c4.17364,-0.01958 7.56611,5.85945 7.57737,13.13116c0.01123,7.27173 -3.36303,13.18249 -7.53667,13.20207c-4.17364,0.01958 -7.56611,-5.85944 -7.57737,-13.13117z" fill="url(#color-27)"/><path d="M250.62246,56.85833c-0.0081,-5.24669 2.42649,-9.51141 5.43783,-9.52554c3.01134,-0.01413 5.45909,4.2277 5.46719,9.47439c0.0081,5.24669 -2.42649,9.51142 -5.43783,9.52554c-3.01134,0.01412 -5.45909,-4.2277 -5.46719,-9.47439z" fill="url(#color-28)"/><path d="M233.97661,56.10308c-0.01621,-10.49337 4.85298,-19.02284 10.8757,-19.05109c6.02268,-0.02825 10.91818,8.4554 10.93442,18.94878c0.01621,10.49337 -4.85298,19.02284 -10.8757,19.05109c-6.02268,0.02825 -10.91818,-8.4554 -10.93442,-18.94878z" fill="url(#color-29)"/><path d="M220.4888,56.16635c-0.01281,-8.28424 3.83132,-15.01803 8.58606,-15.04033c4.75474,-0.0223 8.61963,6.67532 8.63244,14.95956c0.01281,8.28424 -3.83132,15.01803 -8.58606,15.04033c-4.75474,0.0223 -8.61963,-6.67532 -8.63244,-14.95956z" fill="url(#color-30)"/></g></g></g></svg>