<svg version="1.1" xmlns="http://www.w3.org/2000/svg" xmlns:xlink="http://www.w3.org/1999/xlink" width="57.49999" height="77.27777" viewBox="0,0,57.49999,77.27777"><g transform="translate(-210.90632,-188.59064)"><g data-paper-data="{&quot;isPaintingLayer&quot;:true}" fill-rule="nonzero" stroke="none" stroke-linecap="butt" stroke-linejoin="miter" stroke-miterlimit="10" stroke-dasharray="" stroke-dashoffset="0" style="mix-blend-mode: normal"><path d="M215.65632,265.86841v-14.33333h46.99999v14.33333z" fill="#f7fbfb" stroke-width="0"/><path d="M222.90632,263.09063l-10.5,-11c0,0 -1.5,-8.35468 -1.5,-14.16453c0,-2.98087 1.64057,-7.77616 1.83565,-12.99562c0.24601,-6.58233 -1.38564,-13.58927 -1.55086,-18.7324c-0.13173,-4.10056 1.21521,-7.10744 1.21521,-7.10744l10,-10.5h33.99999l10,11.5c0,0 0.51084,4.00015 0.08077,9.32433c-0.44829,5.54971 -1.83238,12.55963 -1.53136,19.06525c0.26168,5.65547 3.45059,10.94169 3.45059,13.69589c0,4.16967 -2,9.41453 -2,9.41453l-9.5,11.5z" fill="#f7fbfb" stroke-width="0"/><g stroke-width="0"><path d="M229.73422,228.50999c0,0 -3.89575,-2.50983 -5.01072,-3.67789c-1.0144,-1.0627 -1.40595,-3.04433 -1.40595,-3.04433v-17.72222l6.11111,-6.41667h20.77778l6.11111,7.02778v16.80556l-5.80556,7.02778c0,0 -5.42433,-0.75 -8.88698,-0.75c-3.46328,0 -11.89079,0.74999 -11.89079,0.74999z" fill="#cfd3d3"/><path d="M229.73422,224.75999l-6.41667,-6.72222c0,0 -1,-8.1199 -1,-11.36167c0,-2.42554 1,-6.36055 1,-6.36055l6.11111,-6.41667c0,0 4.17139,0.75 6.44636,0.75c3.81693,0 14.33142,-0.75 14.33142,-0.75l6.11111,7.02778v16.80556l-5.80556,7.02778c0,0 -1.62606,-2 -4.38698,-2c-3.81696,0 -16.39079,1.99999 -16.39079,1.99999z" fill="#edf2f2"/></g><path d="M231.98608,239.6414c1.11803,2.23607 -1.11803,3.3541 -1.11803,3.3541l-2.60832,0.71538c-5.53367,-1.23719 -8.26363,-4.92541 -10.74578,-9.83342c0,0 -1.11803,-2.23607 1.11803,-3.3541c2.23607,-1.11803 3.3541,1.11803 3.3541,1.11803c1.63852,3.32207 3.38818,6.53782 7.25422,7.16658l-0.60832,-0.28462c0,0 2.23607,-1.11803 3.3541,1.11803z" fill="#eff4f4" stroke-width="0.5"/><path d="M222.87829,246.96886c0.79057,-2.37171 3.16228,-1.58114 3.16228,-1.58114l0.70943,0.37171c2.57983,0.00303 5.14702,-0.36472 7.72316,-0.50284c4.86226,-0.26069 13.01325,1.28649 16.51748,-3.56734c0.3498,-0.48452 -0.13379,-1.19735 -0.32796,-1.76252c-0.49602,-1.44375 -1.15592,-2.82588 -1.73387,-4.23883c0,0 -0.92848,-2.32119 1.39272,-3.24967c2.32119,-0.92848 3.24967,1.39272 3.24967,1.39272c0.90178,2.2981 3.53158,7.15424 1.93817,9.99866c-4.14729,7.40336 -13.9889,6.05355 -20.76464,6.41959c-2.66644,0.14405 -5.3244,0.50735 -7.99472,0.51022l-2.29057,-0.62829c0,0 -2.37171,-0.79057 -1.58114,-3.16228z" fill="#eff4f4" stroke-width="0.5"/><g stroke-width="0.5"><path d="M228.80482,210.17058c-0.17147,-0.23922 -0.25481,-0.42279 -0.25481,-0.42279l-1.07457,-3.27256c0.8921,-5.1553 3.19215,-7.67824 8.84945,-5.84916c0.90905,0.29391 1.12298,-0.36502 2.07762,-0.32761c0.63167,0.02475 3.5377,-0.76914 4.10997,-1.03769c2.71494,-1.27405 3.86304,-0.32185 6.45853,1.82907c3.14138,2.60331 1.95783,8.70457 1.86779,12.1757c-0.03991,1.53854 0.59228,3.36582 -0.31893,4.60613c-2.63883,3.59189 -7.08181,1.21624 -9.97643,0.49118c-0.70138,-0.17568 -1.58818,0.36604 -3.31729,-0.12572c-0.98099,-0.279 -4.83076,-1.31878 -5.21272,-1.57385c-1.70863,-1.14101 -1.56056,-3.83889 -2.78081,-5.5293c0,0 -0.28464,-0.39573 -0.42781,-0.96339z" fill="#adb1b1"/><path d="M245.15891,207.90635l0.03596,0.04551c0.51179,1.43673 2.0595,2.87791 1.53537,4.31018c-1.15855,3.16586 -5.98808,3.75095 -8.53514,2.85466c-1.61144,-0.56705 -2.52641,-1.49605 -3.14721,-2.63048l-0.0409,0.02942l-1.54988,-2.15475c-0.74922,-1.01039 -0.63364,-2.4442 0.30989,-3.31951c0.57089,-0.52961 1.32295,-0.74165 2.0387,-0.64428l2.56314,0.33028l-0.02371,0.184l0.51383,-0.06977c0.48803,0.46 0.96247,0.93494 1.4571,1.38767c0.01413,-0.04655 0.03011,-0.09334 0.04806,-0.14034c-0.1813,-0.73446 -0.2783,-1.48779 -0.42015,-2.23108c0,0 -0.26054,-2.48639 2.22584,-2.74693c2.48639,-0.26054 2.74693,2.22584 2.74693,2.22584c0.04841,0.8291 0.1751,1.70625 0.24218,2.5696z" fill="#969999"/></g></g></g></svg>