<svg version="1.1" xmlns="http://www.w3.org/2000/svg" xmlns:xlink="http://www.w3.org/1999/xlink" width="980.24324" height="427.92793" viewBox="0,0,980.24324,427.92793"><defs><linearGradient x1="647" y1="171.58337" x2="647" y2="172.91669" gradientUnits="userSpaceOnUse" id="color-1"><stop offset="0" stop-color="#ff5050"/><stop offset="1" stop-color="#ff5050" stop-opacity="0"/></linearGradient><linearGradient x1="647" y1="170.3334" x2="647" y2="171.66673" gradientUnits="userSpaceOnUse" id="color-2"><stop offset="0" stop-color="#ff5050" stop-opacity="0"/><stop offset="1" stop-color="#ff5050"/></linearGradient><radialGradient cx="284.88257" cy="171.28336" r="6.08333" gradientUnits="userSpaceOnUse" id="color-3"><stop offset="0" stop-color="#ffa1a1"/><stop offset="1" stop-color="#ffa1a1" stop-opacity="0"/></radialGradient><linearGradient x1="647" y1="186.33337" x2="647" y2="187.66669" gradientUnits="userSpaceOnUse" id="color-4"><stop offset="0" stop-color="#ff5050"/><stop offset="1" stop-color="#ff5050" stop-opacity="0"/></linearGradient><linearGradient x1="647" y1="185.0834" x2="647" y2="186.41673" gradientUnits="userSpaceOnUse" id="color-5"><stop offset="0" stop-color="#ff5050" stop-opacity="0"/><stop offset="1" stop-color="#ff5050"/></linearGradient><radialGradient cx="284.88257" cy="186.03336" r="6.08333" gradientUnits="userSpaceOnUse" id="color-6"><stop offset="0" stop-color="#ffa1a1"/><stop offset="1" stop-color="#ffa1a1" stop-opacity="0"/></radialGradient></defs><g transform="translate(-26.03604,33.96392)"><g data-paper-data="{&quot;isPaintingLayer&quot;:true}" fill-rule="nonzero" stroke="none" stroke-linecap="butt" stroke-linejoin="miter" stroke-miterlimit="10" stroke-dasharray="" stroke-dashoffset="0" style="mix-blend-mode: normal"><path d="M26.03604,393.96401v-427.92793h427.92793v427.92793z" fill="none" stroke-width="0"/><g><path d="M1006.27928,171.00005v0.5h-718.55856v-0.5z" data-paper-data="{&quot;index&quot;:null}" fill="#ff0000" stroke-width="NaN"/><path d="M1006.27928,171.58337v1.33333h-718.55856v-1.33333z" data-paper-data="{&quot;index&quot;:null}" fill="url(#color-1)" stroke-width="NaN"/><path d="M287.72072,171.66673v-1.33333h718.55856v1.33333z" data-paper-data="{&quot;index&quot;:null}" fill="url(#color-2)" stroke-width="NaN"/></g><path d="M278.79924,171.28336c0,-3.35973 2.7236,-6.08333 6.08333,-6.08333c3.35973,0 6.08333,2.7236 6.08333,6.08333c0,3.35973 -2.7236,6.08333 -6.08333,6.08333c-3.35973,0 -6.08333,-2.7236 -6.08333,-6.08333z" fill="url(#color-3)" stroke-width="0"/><g><path d="M1006.27928,185.75005v0.5h-718.55856v-0.5z" data-paper-data="{&quot;index&quot;:null}" fill="#ff0000" stroke-width="NaN"/><path d="M1006.27928,186.33337v1.33333h-718.55856v-1.33333z" data-paper-data="{&quot;index&quot;:null}" fill="url(#color-4)" stroke-width="NaN"/><path d="M287.72072,186.41673v-1.33333h718.55856v1.33333z" data-paper-data="{&quot;index&quot;:null}" fill="url(#color-5)" stroke-width="NaN"/></g><path d="M278.79924,186.03336c0,-3.35973 2.7236,-6.08333 6.08333,-6.08333c3.35973,0 6.08333,2.7236 6.08333,6.08333c0,3.35973 -2.7236,6.08333 -6.08333,6.08333c-3.35973,0 -6.08333,-2.7236 -6.08333,-6.08333z" fill="url(#color-6)" stroke-width="0"/></g></g></svg>