<svg version="1.1" xmlns="http://www.w3.org/2000/svg" xmlns:xlink="http://www.w3.org/1999/xlink" width="272" height="289" viewBox="0,0,272,289"><g transform="translate(-104,-35.5)"><g data-paper-data="{&quot;isPaintingLayer&quot;:true}" fill-rule="nonzero" stroke-linejoin="miter" stroke-miterlimit="10" stroke-dasharray="" stroke-dashoffset="0" style="mix-blend-mode: normal"><path d="M104,324.5v-289h272v289z" fill="none" stroke="none" stroke-width="0" stroke-linecap="butt"/><path d="M199.7175,184.06252v-9.66686h-3.71372v-1.79154h9.34027v1.79154h-3.71372v9.66686zM212.56328,184.06252v-4.14294c0,-0.26749 -0.01866,-0.56608 -0.05599,-0.89577c-0.03733,-0.3297 -0.12441,-0.64695 -0.26126,-0.95175c-0.13686,-0.30481 -0.33902,-0.55363 -0.60651,-0.74648c-0.26749,-0.19906 -0.62828,-0.29859 -1.08239,-0.29859c-0.24883,0 -0.49143,0.04043 -0.72782,0.1213c-0.23638,0.08087 -0.45411,0.21772 -0.65317,0.41057c-0.19284,0.19284 -0.34836,0.45722 -0.46655,0.79313c-0.11197,0.33591 -0.16796,0.76825 -0.16796,1.297l-1.13837,-0.48521c0,-0.73403 0.13997,-1.39653 0.41989,-1.9875c0.28615,-0.59718 0.70605,-1.07306 1.25968,-1.42764c0.55363,-0.35458 1.23169,-0.53186 2.03415,-0.53186c0.64072,0 1.16637,0.10886 1.57693,0.32659c0.41678,0.2115 0.74648,0.4821 0.98908,0.8118c0.24261,0.32347 0.423,0.67183 0.5412,1.04507c0.1182,0.37324 0.19284,0.7247 0.22395,1.05439c0.03733,0.3297 0.05599,0.6003 0.05599,0.8118v4.7961zM206.60081,184.06252v-11.4584h1.70756v6.02779h0.23327v5.43061zM220.47687,184.30514c-0.87088,0 -1.63603,-0.18973 -2.29541,-0.56919c-0.65317,-0.37946 -1.16637,-0.90199 -1.5396,-1.5676c-0.36701,-0.66561 -0.55052,-1.43385 -0.55052,-2.30475c0,-0.93932 0.1804,-1.75421 0.5412,-2.4447c0.36079,-0.69671 0.86156,-1.2348 1.50228,-1.61426c0.64695,-0.38568 1.39031,-0.57852 2.23009,-0.57852c0.89577,0 1.65469,0.20839 2.27675,0.62518c0.62207,0.41678 1.08239,1.00463 1.38098,1.76355c0.30481,0.75892 0.41989,1.65469 0.34524,2.68731h-1.90352v-0.70915c0,-0.93309 -0.16174,-1.61426 -0.48521,-2.04347c-0.32347,-0.42922 -0.83357,-0.64384 -1.53028,-0.64384c-0.7838,0 -1.36854,0.24261 -1.75421,0.72782c-0.37946,0.48521 -0.56919,1.19436 -0.56919,2.12745c0,0.87088 0.18973,1.54583 0.56919,2.02481c0.38568,0.47899 0.94243,0.71848 1.67023,0.71848c0.47277,0 0.88022,-0.10575 1.22235,-0.31725c0.34213,-0.2115 0.60651,-0.51632 0.79313,-0.91443l1.89418,0.57852c-0.3297,0.77136 -0.83979,1.37475 -1.53028,1.8102c-0.68427,0.42922 -1.44008,0.64384 -2.26742,0.64384zM217.51893,180.30216v-1.45562h5.91581v1.45562zM234.18592,184.30514c-1.14459,0 -2.12745,-0.25194 -2.94858,-0.75581c-0.8149,-0.50387 -1.44319,-1.20369 -1.88485,-2.09946c-0.43545,-0.89577 -0.65317,-1.93462 -0.65317,-3.11653c0,-1.18192 0.21772,-2.22077 0.65317,-3.11653c0.44166,-0.90199 1.06995,-1.60181 1.88485,-2.09946c0.82112,-0.50387 1.80398,-0.75581 2.94858,-0.75581c1.31878,0 2.41671,0.3297 3.29383,0.98908c0.88333,0.65938 1.5054,1.54894 1.86619,2.66865l-1.94083,0.5412c-0.21772,-0.7527 -0.59718,-1.33744 -1.13837,-1.75421c-0.53497,-0.423 -1.22857,-0.6345 -2.0808,-0.6345c-0.77136,0 -1.41208,0.17417 -1.92217,0.52253c-0.51009,0.34213 -0.89577,0.82423 -1.15704,1.4463c-0.25504,0.62207 -0.38568,1.35298 -0.3919,2.19277c0,0.83979 0.12752,1.57071 0.38257,2.19277c0.26126,0.62207 0.64695,1.10728 1.15704,1.45562c0.51632,0.34213 1.16015,0.5132 1.93151,0.5132c0.85223,0 1.54583,-0.2115 2.0808,-0.6345c0.5412,-0.42922 0.92066,-1.01396 1.13837,-1.75421l1.94083,0.53186c-0.36079,1.11971 -0.98286,2.01238 -1.86619,2.67798c-0.87711,0.65938 -1.97505,0.98908 -3.29383,0.98908zM241.24834,184.06252v-11.70101h1.92217v11.70101zM247.9622,184.30514c-0.62207,0 -1.14771,-0.1182 -1.57693,-0.35458c-0.42922,-0.23638 -0.75581,-0.55052 -0.97975,-0.94243c-0.21772,-0.39812 -0.32659,-0.83046 -0.32659,-1.297c0,-0.41678 0.06842,-0.79002 0.20528,-1.11971c0.14308,-0.33591 0.35769,-0.62207 0.64384,-0.85845c0.28615,-0.24261 0.65627,-0.44166 1.11038,-0.59718c0.34836,-0.11197 0.7527,-0.2115 1.21303,-0.29859c0.46655,-0.09331 0.97042,-0.17728 1.51161,-0.25194c0.54741,-0.08087 1.1166,-0.16485 1.70756,-0.25194l-0.68115,0.3919c0.00622,-0.59718 -0.12752,-1.03573 -0.40123,-1.31567c-0.26749,-0.27993 -0.7247,-0.41989 -1.37165,-0.41989c-0.38568,0 -0.75892,0.0902 -1.11971,0.2706c-0.36079,0.1804 -0.61273,0.48832 -0.75581,0.92376l-1.74489,-0.5412c0.2115,-0.72782 0.61584,-1.31255 1.21303,-1.75421c0.59718,-0.44166 1.39965,-0.6625 2.40739,-0.6625c0.76513,0 1.43696,0.12441 2.01548,0.37324c0.58474,0.24883 1.01707,0.65938 1.297,1.23169c0.15551,0.29859 0.24883,0.60651 0.27993,0.92376c0.0311,0.31725 0.04665,0.65938 0.04665,1.02641v5.28131h-1.67957v-1.86619l0.27993,0.30792c-0.38568,0.62207 -0.83668,1.07928 -1.35298,1.37165c-0.51632,0.28615 -1.16325,0.42922 -1.94083,0.42922zM248.34481,182.77486c0.43545,0 0.80557,-0.07776 1.11038,-0.23327c0.31103,-0.15551 0.55674,-0.34213 0.73714,-0.55986c0.18662,-0.22395 0.31103,-0.43545 0.37324,-0.6345c0.09953,-0.24261 0.15551,-0.52253 0.16796,-0.83979c0.01245,-0.31725 0.01866,-0.5723 0.01866,-0.76513l0.59718,0.17728c-0.57852,0.08709 -1.07617,0.16485 -1.49295,0.23327c-0.41057,0.06842 -0.76513,0.13374 -1.06373,0.19595c-0.29859,0.06221 -0.56297,0.13063 -0.79313,0.20528c-0.22395,0.08087 -0.41367,0.17417 -0.56919,0.27993c-0.14929,0.10575 -0.26438,0.22705 -0.34524,0.3639c-0.08087,0.13686 -0.1213,0.29859 -0.1213,0.48521c0,0.2115 0.05288,0.39812 0.15863,0.55986c0.10575,0.16174 0.25815,0.29237 0.45722,0.3919c0.20528,0.09331 0.46033,0.13997 0.76513,0.13997zM258.04573,184.30514c-1.0575,0 -1.91906,-0.23949 -2.58467,-0.71848c-0.66561,-0.47899 -1.06995,-1.15082 -1.21303,-2.01548l1.9595,-0.29859c0.09953,0.423 0.32036,0.75581 0.6625,0.99841c0.34836,0.24261 0.78691,0.3639 1.31567,0.3639c0.46033,0 0.8149,-0.0902 1.06373,-0.2706c0.25504,-0.18662 0.38257,-0.43856 0.38257,-0.75581c0,-0.19284 -0.04665,-0.34836 -0.13997,-0.46655c-0.09331,-0.12441 -0.29859,-0.23949 -0.61584,-0.34524c-0.31103,-0.11197 -0.79002,-0.25504 -1.43696,-0.42922c-0.72159,-0.18662 -1.2939,-0.38879 -1.7169,-0.60651c-0.423,-0.22395 -0.72782,-0.48832 -0.91443,-0.79313c-0.18662,-0.30481 -0.27993,-0.67183 -0.27993,-1.10105c0,-0.53497 0.13997,-1.00152 0.41989,-1.39965c0.28615,-0.39812 0.68115,-0.70293 1.18503,-0.91443c0.50387,-0.21772 1.09794,-0.32659 1.78221,-0.32659c0.66561,0 1.25657,0.10575 1.77288,0.31725c0.51632,0.20528 0.93309,0.50076 1.25034,0.88644c0.32347,0.37946 0.52253,0.82423 0.59718,1.33432l-1.9595,0.35458c-0.04976,-0.36701 -0.21772,-0.65627 -0.50387,-0.86777c-0.27993,-0.2115 -0.65627,-0.33281 -1.12905,-0.3639c-0.44788,-0.02488 -0.8118,0.04354 -1.09172,0.20528c-0.27371,0.16174 -0.41057,0.38879 -0.41057,0.68115c0,0.16796 0.05599,0.31103 0.16796,0.42922c0.11197,0.11197 0.33591,0.22705 0.67183,0.34524c0.33591,0.1182 0.83668,0.26126 1.50228,0.42922c0.68427,0.17417 1.23169,0.37635 1.64224,0.60651c0.41678,0.22395 0.71537,0.49143 0.89577,0.80246c0.18662,0.31103 0.27993,0.69049 0.27993,1.13837c0,0.86467 -0.31725,1.54583 -0.95175,2.04347c-0.62828,0.49143 -1.49606,0.73714 -2.60333,0.73714zM266.6656,184.30514c-1.0575,0 -1.91906,-0.23949 -2.58467,-0.71848c-0.66561,-0.47899 -1.06995,-1.15082 -1.21303,-2.01548l1.9595,-0.29859c0.09953,0.423 0.32036,0.75581 0.6625,0.99841c0.34836,0.24261 0.78691,0.3639 1.31567,0.3639c0.46033,0 0.8149,-0.0902 1.06373,-0.2706c0.25504,-0.18662 0.38257,-0.43856 0.38257,-0.75581c0,-0.19284 -0.04665,-0.34836 -0.13997,-0.46655c-0.09331,-0.12441 -0.29859,-0.23949 -0.61584,-0.34524c-0.31103,-0.11197 -0.79002,-0.25504 -1.43696,-0.42922c-0.72159,-0.18662 -1.2939,-0.38879 -1.7169,-0.60651c-0.423,-0.22395 -0.72782,-0.48832 -0.91443,-0.79313c-0.18662,-0.30481 -0.27993,-0.67183 -0.27993,-1.10105c0,-0.53497 0.13997,-1.00152 0.41989,-1.39965c0.28615,-0.39812 0.68115,-0.70293 1.18503,-0.91443c0.50387,-0.21772 1.09794,-0.32659 1.78221,-0.32659c0.66561,0 1.25657,0.10575 1.77288,0.31725c0.51632,0.20528 0.93309,0.50076 1.25034,0.88644c0.32347,0.37946 0.52253,0.82423 0.59718,1.33432l-1.9595,0.35458c-0.04976,-0.36701 -0.21772,-0.65627 -0.50387,-0.86777c-0.27993,-0.2115 -0.65627,-0.33281 -1.12905,-0.3639c-0.44788,-0.02488 -0.8118,0.04354 -1.09172,0.20528c-0.27371,0.16174 -0.41057,0.38879 -0.41057,0.68115c0,0.16796 0.05599,0.31103 0.16796,0.42922c0.11197,0.11197 0.33591,0.22705 0.67183,0.34524c0.33591,0.1182 0.83668,0.26126 1.50228,0.42922c0.68427,0.17417 1.23169,0.37635 1.64224,0.60651c0.41678,0.22395 0.71537,0.49143 0.89577,0.80246c0.18662,0.31103 0.27993,0.69049 0.27993,1.13837c0,0.86467 -0.31725,1.54583 -0.95175,2.04347c-0.62828,0.49143 -1.49606,0.73714 -2.60333,0.73714zM272.12231,174.16238v-1.76355h1.92217v1.76355zM272.12231,184.06252v-8.5938h1.92217v8.5938zM280.1612,184.30514c-0.88333,0 -1.63914,-0.19906 -2.26742,-0.59718c-0.62207,-0.39812 -1.10105,-0.93932 -1.43696,-1.62358c-0.3297,-0.68427 -0.49765,-1.45873 -0.50387,-2.32341c0.00622,-0.87711 0.1804,-1.65469 0.52253,-2.33274c0.34213,-0.68427 0.82734,-1.22235 1.45562,-1.61426c0.6345,-0.3919 1.3872,-0.58785 2.25808,-0.58785c0.97663,0 1.80088,0.24572 2.4727,0.73714c0.67805,0.49143 1.12282,1.16015 1.33432,2.00615l-1.91284,0.52253c-0.14929,-0.46033 -0.39812,-0.81801 -0.74648,-1.07306c-0.34213,-0.26126 -0.73403,-0.3919 -1.1757,-0.3919c-0.49765,0 -0.90821,0.1182 -1.23169,0.35458c-0.32347,0.23638 -0.56297,0.56297 -0.71848,0.97975c-0.14929,0.41057 -0.22395,0.87711 -0.22395,1.39965c0,0.82112 0.1804,1.48362 0.5412,1.9875c0.36701,0.50387 0.91132,0.75581 1.63292,0.75581c0.51009,0 0.91132,-0.11508 1.20369,-0.34524c0.29859,-0.23638 0.52253,-0.5754 0.67183,-1.01707l1.9595,0.43856c-0.26749,0.87711 -0.73403,1.55205 -1.39965,2.02481c-0.65938,0.46655 -1.47118,0.69982 -2.43538,0.69982z" fill="#ffffff" stroke="#ffffff" stroke-width="0.25" stroke-linecap="square"/></g></g></svg>