<svg version="1.1" xmlns="http://www.w3.org/2000/svg" xmlns:xlink="http://www.w3.org/1999/xlink" width="264.71317" height="175.62588" viewBox="0,0,264.71317,175.62588"><defs><linearGradient x1="167.27078" y1="197.29782" x2="177.57475" y2="196.51947" gradientUnits="userSpaceOnUse" id="color-1"><stop offset="0" stop-color="#000000" stop-opacity="0"/><stop offset="1" stop-color="#000000"/></linearGradient><linearGradient x1="172.37734" y1="174.18083" x2="176.76202" y2="173.84962" gradientUnits="userSpaceOnUse" id="color-2"><stop offset="0" stop-color="#000000" stop-opacity="0"/><stop offset="1" stop-color="#000000"/></linearGradient><linearGradient x1="230.87502" y1="142.76834" x2="253.82934" y2="142.76834" gradientUnits="userSpaceOnUse" id="color-3"><stop offset="0" stop-color="#830000"/><stop offset="1" stop-color="#620000"/></linearGradient><linearGradient x1="234.20173" y1="156.44376" x2="250.28085" y2="156.44376" gradientUnits="userSpaceOnUse" id="color-4"><stop offset="0" stop-color="#830000"/><stop offset="1" stop-color="#620000"/></linearGradient><linearGradient x1="242.21355" y1="154.60781" x2="242.21355" y2="156.94968" gradientUnits="userSpaceOnUse" id="color-5"><stop offset="0" stop-color="#620000"/><stop offset="1" stop-color="#620000" stop-opacity="0"/></linearGradient><linearGradient x1="234.36805" y1="128.9918" x2="250.44719" y2="128.9918" gradientUnits="userSpaceOnUse" id="color-6"><stop offset="0" stop-color="#830000"/><stop offset="1" stop-color="#620000"/></linearGradient><linearGradient x1="242.37989" y1="130.82771" x2="242.37989" y2="128.48584" gradientUnits="userSpaceOnUse" id="color-7"><stop offset="0" stop-color="#620000"/><stop offset="1" stop-color="#620000" stop-opacity="0"/></linearGradient><radialGradient cx="239.54942" cy="217.87225" r="65.74662" gradientUnits="userSpaceOnUse" id="color-8"><stop offset="0" stop-color="#000000"/><stop offset="1" stop-color="#111111"/></radialGradient><linearGradient x1="186.43601" y1="258.03667" x2="186.19923" y2="263.8652" gradientUnits="userSpaceOnUse" id="color-9"><stop offset="0" stop-color="#737373"/><stop offset="1" stop-color="#8d8d8d"/></linearGradient><linearGradient x1="186.47242" y1="257.82502" x2="186.28749" y2="262.37684" gradientUnits="userSpaceOnUse" id="color-10"><stop offset="0" stop-color="#737373"/><stop offset="1" stop-color="#8d8d8d"/></linearGradient><linearGradient x1="178.63283" y1="243.79152" x2="195.86861" y2="244.49174" gradientUnits="userSpaceOnUse" id="color-11"><stop offset="0" stop-color="#830000"/><stop offset="1" stop-color="#620000"/></linearGradient><linearGradient x1="180.59743" y1="257.02106" x2="192.6708" y2="257.51155" gradientUnits="userSpaceOnUse" id="color-12"><stop offset="0" stop-color="#830000"/><stop offset="1" stop-color="#620000"/></linearGradient><linearGradient x1="186.68489" y1="255.50303" x2="186.59356" y2="257.75117" gradientUnits="userSpaceOnUse" id="color-13"><stop offset="0" stop-color="#620000"/><stop offset="1" stop-color="#620000" stop-opacity="0"/></linearGradient><linearGradient x1="196.76198" y1="269.93527" x2="175.77839" y2="262.15113" gradientUnits="userSpaceOnUse" id="color-14"><stop offset="0" stop-color="#c7c7c7"/><stop offset="1" stop-color="#c7c7c7" stop-opacity="0"/></linearGradient><linearGradient x1="323.82285" y1="202.35569" x2="313.56024" y2="203.56269" gradientUnits="userSpaceOnUse" id="color-15"><stop offset="0" stop-color="#000000" stop-opacity="0"/><stop offset="1" stop-color="#000000"/></linearGradient><linearGradient x1="314.88526" y1="180.58395" x2="310.5182" y2="181.09757" gradientUnits="userSpaceOnUse" id="color-16"><stop offset="0" stop-color="#000000" stop-opacity="0"/><stop offset="1" stop-color="#000000"/></linearGradient><linearGradient x1="240.32343" y1="117.2411" x2="238.92619" y2="139.86465" gradientUnits="userSpaceOnUse" id="color-17"><stop offset="0" stop-color="#0d0d0d"/><stop offset="1" stop-color="#060606"/></linearGradient><linearGradient x1="298.96229" y1="254.48105" x2="301.08242" y2="259.91548" gradientUnits="userSpaceOnUse" id="color-18"><stop offset="0" stop-color="#737373"/><stop offset="1" stop-color="#8d8d8d"/></linearGradient><linearGradient x1="298.91076" y1="254.27256" x2="300.56648" y2="258.51659" gradientUnits="userSpaceOnUse" id="color-19"><stop offset="0" stop-color="#737373"/><stop offset="1" stop-color="#8d8d8d"/></linearGradient><linearGradient x1="289.47502" y1="244.36085" x2="306.70967" y2="243.63305" gradientUnits="userSpaceOnUse" id="color-20"><stop offset="0" stop-color="#830000"/><stop offset="1" stop-color="#620000"/></linearGradient><linearGradient x1="293.20638" y1="255.89173" x2="304.46337" y2="251.50004" gradientUnits="userSpaceOnUse" id="color-21"><stop offset="0" stop-color="#830000"/><stop offset="1" stop-color="#620000"/></linearGradient><linearGradient x1="298.17438" y1="252.06022" x2="298.99215" y2="254.15635" gradientUnits="userSpaceOnUse" id="color-22"><stop offset="0" stop-color="#620000"/><stop offset="1" stop-color="#620000" stop-opacity="0"/></linearGradient><linearGradient x1="292.75002" y1="226.18411" x2="304.83335" y2="226.18411" gradientUnits="userSpaceOnUse" id="color-23"><stop offset="0" stop-color="#830000"/><stop offset="1" stop-color="#620000"/></linearGradient><linearGradient x1="298.77085" y1="227.94802" x2="298.77085" y2="225.69802" gradientUnits="userSpaceOnUse" id="color-24"><stop offset="0" stop-color="#620000"/><stop offset="1" stop-color="#620000" stop-opacity="0"/></linearGradient><linearGradient x1="175.08335" y1="226.85078" x2="187.16668" y2="226.85078" gradientUnits="userSpaceOnUse" id="color-25"><stop offset="0" stop-color="#830000"/><stop offset="1" stop-color="#620000"/></linearGradient><linearGradient x1="181.10418" y1="228.61467" x2="181.10418" y2="226.36467" gradientUnits="userSpaceOnUse" id="color-26"><stop offset="0" stop-color="#620000"/><stop offset="1" stop-color="#620000" stop-opacity="0"/></linearGradient><radialGradient cx="240.83335" cy="202.00355" r="49.66667" gradientUnits="userSpaceOnUse" id="color-27"><stop offset="0" stop-color="#000000"/><stop offset="1" stop-color="#0a0a0a"/></radialGradient><linearGradient x1="239.25002" y1="163.45989" x2="239.25002" y2="225.45989" gradientUnits="userSpaceOnUse" id="color-28"><stop offset="0" stop-color="#ff0000"/><stop offset="1" stop-color="#db0000"/></linearGradient><linearGradient x1="240.25002" y1="163.45989" x2="240.25002" y2="225.45989" gradientUnits="userSpaceOnUse" id="color-29"><stop offset="0" stop-color="#ff0000"/><stop offset="1" stop-color="#db0000"/></linearGradient><radialGradient cx="239.58335" cy="229.69802" r="66.25" gradientUnits="userSpaceOnUse" id="color-30"><stop offset="0" stop-color="#000000"/><stop offset="1" stop-color="#121212"/></radialGradient><linearGradient x1="236.15523" y1="249.01052" x2="254.65523" y2="249.01052" gradientUnits="userSpaceOnUse" id="color-31"><stop offset="0" stop-color="#000000" stop-opacity="0"/><stop offset="1" stop-color="#000000"/></linearGradient><linearGradient x1="242.90523" y1="212.90633" x2="265.78023" y2="212.90633" gradientUnits="userSpaceOnUse" id="color-32"><stop offset="0" stop-color="#000000" stop-opacity="0"/><stop offset="1" stop-color="#000000"/></linearGradient><linearGradient x1="240.03023" y1="232.40633" x2="240.03023" y2="244.78133" gradientUnits="userSpaceOnUse" id="color-33"><stop offset="0" stop-color="#000000"/><stop offset="1" stop-color="#000000" stop-opacity="0"/></linearGradient><linearGradient x1="231.95835" y1="178.58689" x2="249.20835" y2="178.58689" gradientUnits="userSpaceOnUse" id="color-34"><stop offset="0" stop-color="#830000"/><stop offset="1" stop-color="#620000"/></linearGradient><linearGradient x1="234.45835" y1="191.72578" x2="246.54168" y2="191.72578" gradientUnits="userSpaceOnUse" id="color-35"><stop offset="0" stop-color="#830000"/><stop offset="1" stop-color="#620000"/></linearGradient><linearGradient x1="240.47918" y1="189.96189" x2="240.47918" y2="192.21189" gradientUnits="userSpaceOnUse" id="color-36"><stop offset="0" stop-color="#620000"/><stop offset="1" stop-color="#620000" stop-opacity="0"/></linearGradient><linearGradient x1="234.58335" y1="165.35078" x2="246.66668" y2="165.35078" gradientUnits="userSpaceOnUse" id="color-37"><stop offset="0" stop-color="#830000"/><stop offset="1" stop-color="#620000"/></linearGradient><linearGradient x1="240.60418" y1="167.11466" x2="240.60418" y2="164.86466" gradientUnits="userSpaceOnUse" id="color-38"><stop offset="0" stop-color="#620000"/><stop offset="1" stop-color="#620000" stop-opacity="0"/></linearGradient><linearGradient x1="173.00002" y1="201.75355" x2="197.16669" y2="201.75355" gradientUnits="userSpaceOnUse" id="color-39"><stop offset="0" stop-color="#db0000"/><stop offset="1" stop-color="#ff0000"/></linearGradient><linearGradient x1="285.16668" y1="202.08689" x2="309.33335" y2="202.08689" gradientUnits="userSpaceOnUse" id="color-40"><stop offset="0" stop-color="#ff0000"/><stop offset="1" stop-color="#db0000"/></linearGradient><linearGradient x1="304.33335" y1="177.448" x2="313.33335" y2="177.448" gradientUnits="userSpaceOnUse" id="color-41"><stop offset="0" stop-color="#6d0000"/><stop offset="1" stop-color="#4a0000"/></linearGradient><linearGradient x1="175.83335" y1="178.948" x2="166.83335" y2="178.948" gradientUnits="userSpaceOnUse" id="color-42"><stop offset="0" stop-color="#6d0000"/><stop offset="1" stop-color="#4a0000"/></linearGradient><linearGradient x1="173.42294" y1="171.6929" x2="164.44006" y2="171.13811" gradientUnits="userSpaceOnUse" id="color-43"><stop offset="0" stop-color="#6d0000"/><stop offset="1" stop-color="#4a0000"/></linearGradient><linearGradient x1="311.67859" y1="94.18582" x2="307.9837" y2="140.32815" gradientUnits="userSpaceOnUse" id="color-44"><stop offset="0" stop-color="#ef0000"/><stop offset="1" stop-color="#830000"/></linearGradient><linearGradient x1="171.28442" y1="86.63714" x2="172.12792" y2="132.91949" gradientUnits="userSpaceOnUse" id="color-45"><stop offset="0" stop-color="#ef0000"/><stop offset="1" stop-color="#830000"/></linearGradient><linearGradient x1="250.48596" y1="149.39048" x2="259.09057" y2="149.92191" gradientUnits="userSpaceOnUse" id="color-46"><stop offset="0" stop-color="#830000"/><stop offset="1" stop-color="#620000"/></linearGradient><linearGradient x1="251.16188" y1="156.01116" x2="257.18927" y2="156.38341" gradientUnits="userSpaceOnUse" id="color-47"><stop offset="0" stop-color="#830000"/><stop offset="1" stop-color="#620000"/></linearGradient><linearGradient x1="254.21952" y1="155.31677" x2="254.1502" y2="156.43911" gradientUnits="userSpaceOnUse" id="color-48"><stop offset="0" stop-color="#620000"/><stop offset="1" stop-color="#620000" stop-opacity="0"/></linearGradient><linearGradient x1="252.03678" y1="142.85867" x2="258.06416" y2="143.23092" gradientUnits="userSpaceOnUse" id="color-49"><stop offset="0" stop-color="#830000"/><stop offset="1" stop-color="#620000"/></linearGradient><linearGradient x1="254.98574" y1="143.92402" x2="255.05506" y2="142.80168" gradientUnits="userSpaceOnUse" id="color-50"><stop offset="0" stop-color="#620000"/><stop offset="1" stop-color="#620000" stop-opacity="0"/></linearGradient><linearGradient x1="223.73754" y1="147.86372" x2="232.34216" y2="148.39514" gradientUnits="userSpaceOnUse" id="color-51"><stop offset="0" stop-color="#830000"/><stop offset="1" stop-color="#620000"/></linearGradient><linearGradient x1="224.57981" y1="154.49467" x2="230.60719" y2="154.86692" gradientUnits="userSpaceOnUse" id="color-52"><stop offset="0" stop-color="#830000"/><stop offset="1" stop-color="#620000"/></linearGradient><linearGradient x1="227.63745" y1="153.80028" x2="227.56813" y2="154.92262" gradientUnits="userSpaceOnUse" id="color-53"><stop offset="0" stop-color="#620000"/><stop offset="1" stop-color="#620000" stop-opacity="0"/></linearGradient><linearGradient x1="225.45471" y1="141.34218" x2="231.48209" y2="141.71443" gradientUnits="userSpaceOnUse" id="color-54"><stop offset="0" stop-color="#830000"/><stop offset="1" stop-color="#620000"/></linearGradient><linearGradient x1="228.40367" y1="142.40753" x2="228.47299" y2="141.28518" gradientUnits="userSpaceOnUse" id="color-55"><stop offset="0" stop-color="#620000"/><stop offset="1" stop-color="#620000" stop-opacity="0"/></linearGradient><linearGradient x1="189.50394" y1="125.89446" x2="190.63042" y2="146.34551" gradientUnits="userSpaceOnUse" id="color-56"><stop offset="0" stop-color="#4d4d4d"/><stop offset="1" stop-color="#545454"/></linearGradient><linearGradient x1="188.74475" y1="109.89403" x2="189.87122" y2="130.34505" gradientUnits="userSpaceOnUse" id="color-57"><stop offset="0" stop-color="#4d4d4d"/><stop offset="1" stop-color="#555555"/></linearGradient><linearGradient x1="237.00166" y1="116.27513" x2="248.93326" y2="117.01203" gradientUnits="userSpaceOnUse" id="color-58"><stop offset="0" stop-color="#830000"/><stop offset="1" stop-color="#620000"/></linearGradient><linearGradient x1="238.16959" y1="125.46996" x2="246.52748" y2="125.98615" gradientUnits="userSpaceOnUse" id="color-59"><stop offset="0" stop-color="#830000"/><stop offset="1" stop-color="#620000"/></linearGradient><linearGradient x1="242.40947" y1="124.50708" x2="242.31335" y2="126.06338" gradientUnits="userSpaceOnUse" id="color-60"><stop offset="0" stop-color="#620000"/><stop offset="1" stop-color="#620000" stop-opacity="0"/></linearGradient><linearGradient x1="239.38277" y1="107.23203" x2="247.74066" y2="107.74822" gradientUnits="userSpaceOnUse" id="color-61"><stop offset="0" stop-color="#830000"/><stop offset="1" stop-color="#620000"/></linearGradient><linearGradient x1="243.47195" y1="108.70929" x2="243.56807" y2="107.15299" gradientUnits="userSpaceOnUse" id="color-62"><stop offset="0" stop-color="#620000"/><stop offset="1" stop-color="#620000" stop-opacity="0"/></linearGradient><linearGradient x1="240.29168" y1="240.49132" x2="240.29168" y2="254.40829" gradientUnits="userSpaceOnUse" id="color-63"><stop offset="0" stop-color="#79b0ff"/><stop offset="1" stop-color="#98c3ff"/></linearGradient><linearGradient x1="240.29168" y1="240.49132" x2="240.29168" y2="254.40829" gradientUnits="userSpaceOnUse" id="color-64"><stop offset="0" stop-color="#6ea2ea"/><stop offset="1" stop-color="#8fb6ee"/></linearGradient><linearGradient x1="236.33334" y1="242.3355" x2="236.33334" y2="251.0855" gradientUnits="userSpaceOnUse" id="color-65"><stop offset="0" stop-color="#6ea2ea"/><stop offset="1" stop-color="#8fb6ee"/></linearGradient><linearGradient x1="244.45834" y1="242.3355" x2="244.45834" y2="251.0855" gradientUnits="userSpaceOnUse" id="color-66"><stop offset="0" stop-color="#6ea2ea"/><stop offset="1" stop-color="#8fb6ee"/></linearGradient><linearGradient x1="288.00694" y1="135.5974" x2="286.1061" y2="155.99104" gradientUnits="userSpaceOnUse" id="color-67"><stop offset="0" stop-color="#4d4d4d"/><stop offset="1" stop-color="#545454"/></linearGradient><linearGradient x1="289.61492" y1="119.65988" x2="287.71408" y2="140.0535" gradientUnits="userSpaceOnUse" id="color-68"><stop offset="0" stop-color="#4d4d4d"/><stop offset="1" stop-color="#555555"/></linearGradient><linearGradient x1="180.52051" y1="239.12705" x2="192.31284" y2="236.49118" gradientUnits="userSpaceOnUse" id="color-69"><stop offset="0" stop-color="#830000"/><stop offset="1" stop-color="#620000"/></linearGradient><linearGradient x1="186.01157" y1="236.09227" x2="186.50239" y2="238.28808" gradientUnits="userSpaceOnUse" id="color-70"><stop offset="0" stop-color="#620000"/><stop offset="1" stop-color="#620000" stop-opacity="0"/></linearGradient><linearGradient x1="13.28752" y1="213.6058" x2="923.59214" y2="504.27924" gradientUnits="userSpaceOnUse" id="color-71"><stop offset="0" stop-color="#cacaca" stop-opacity="0"/><stop offset="1" stop-color="#cacaca"/></linearGradient><linearGradient x1="71.38468" y1="229.89313" x2="678.4813" y2="423.74785" gradientUnits="userSpaceOnUse" id="color-72"><stop offset="0" stop-color="#cacaca" stop-opacity="0"/><stop offset="1" stop-color="#cacaca"/></linearGradient><linearGradient x1="162.9377" y1="265.39279" x2="190.63813" y2="260.04573" gradientUnits="userSpaceOnUse" id="color-73"><stop offset="0" stop-color="#c7c7c7"/><stop offset="1" stop-color="#c7c7c7" stop-opacity="0"/></linearGradient><linearGradient x1="175.68881" y1="256.77207" x2="196.97107" y2="263.69802" gradientUnits="userSpaceOnUse" id="color-74"><stop offset="0" stop-color="#c7c7c7"/><stop offset="1" stop-color="#c7c7c7" stop-opacity="0"/></linearGradient><linearGradient x1="119.76152" y1="247.15889" x2="1069.75354" y2="350.40963" gradientUnits="userSpaceOnUse" id="color-75"><stop offset="0" stop-color="#cacaca" stop-opacity="0"/><stop offset="1" stop-color="#cacaca"/></linearGradient><linearGradient x1="179.94001" y1="251.53009" x2="813.50478" y2="320.38963" gradientUnits="userSpaceOnUse" id="color-76"><stop offset="0" stop-color="#cacaca" stop-opacity="0"/><stop offset="1" stop-color="#cacaca"/></linearGradient><linearGradient x1="276.73434" y1="268.05398" x2="302.81149" y2="257.28889" gradientUnits="userSpaceOnUse" id="color-77"><stop offset="0" stop-color="#c7c7c7"/><stop offset="1" stop-color="#c7c7c7" stop-opacity="0"/></linearGradient><linearGradient x1="287.50959" y1="257.063" x2="309.74569" y2="259.60453" gradientUnits="userSpaceOnUse" id="color-78"><stop offset="0" stop-color="#c7c7c7"/><stop offset="1" stop-color="#c7c7c7" stop-opacity="0"/></linearGradient></defs><g transform="translate(-107.33453,-90.73879)"><g data-paper-data="{&quot;isPaintingLayer&quot;:true}" fill-rule="nonzero" stroke-linejoin="miter" stroke-miterlimit="10" stroke-dasharray="" stroke-dashoffset="0" style="mix-blend-mode: normal"><path d="M182.15148,180.77059l-4.61761,0.34881l-24.54897,-5.88553l-0.48169,-6.3767l27.06264,-1.82315z" fill="#0d0d0d" stroke="#4d4d4d" stroke-width="0" stroke-linecap="round"/><path d="M174.56025,219.67343l-10.47017,0.79091c0,0 -12.51889,-4.24994 -18.38288,-5.65581c-10.18348,-2.44146 -37.28047,-7.68929 -37.28047,-7.68929l-1.0922,-14.45881c0,0 14.83377,0.68466 24.08289,0.06156c4.52343,-0.30473 8.24276,-2.48722 15.09075,-3.28687c9.69113,-1.13166 22.1893,-0.90857 22.1893,-0.90857z" fill="#0d0d0d" stroke="#4d4d4d" stroke-width="0" stroke-linecap="round"/><path d="M159.01887,204.92715l-0.98863,-13.08771l5.67306,-6.06956l8.69805,-0.65704l1.33105,18.70287z" data-paper-data="{&quot;index&quot;:null}" fill="#0a0a0a" stroke="#000000" stroke-width="0" stroke-linecap="round"/><path d="M131.23608,192.77765l0.44456,5.88515l-2.551,2.72931l-3.91126,0.29545l-0.59853,-8.41013z" data-paper-data="{&quot;index&quot;:null}" fill="#0a0a0a" stroke="#000000" stroke-width="0" stroke-linecap="round"/><path d="M168.31813,177.16249l-0.56542,-7.07549l3.29273,-0.24873l2.46838,1.949l0.37426,4.95447z" data-paper-data="{&quot;index&quot;:null}" fill="#0a0a0a" stroke="#000000" stroke-width="0" stroke-linecap="round"/><path d="M176.39468,180.89731c0,0 3.82463,10.80349 4.23878,16.2861c0.36681,4.8559 -1.87862,14.95821 -1.87862,14.95821l-5.31818,0.40173l-5.08623,-0.95292l-2.25973,-29.91477z" fill="url(#color-1)" stroke="none" stroke-width="0" stroke-linecap="butt"/><path d="M176.25984,167.20188l1.00433,13.29545l-2.26305,0.17095l-2.16435,-0.4055l-0.96159,-12.72969z" fill="url(#color-2)" stroke="none" stroke-width="0" stroke-linecap="butt"/><path d="M151.91668,203.45314c-3.45178,0 -6.25,-2.8262 -6.25,-6.3125c0,-2.1751 2.42253,-3.42658 4.0801,-4.56175c0.99923,-0.68431 0.87168,-1.75075 2.1699,-1.75075c3.45177,0 6.25,2.8262 6.25,6.3125c0,3.4863 -2.79823,6.3125 -6.25,6.3125z" data-paper-data="{&quot;index&quot;:null}" fill="#3d3d3d" stroke="#3e3e3e" stroke-width="1.5" stroke-linecap="butt"/><path d="M156.47206,201.65199c-1.11775,1.71262 -2.20589,2.84282 -4.38871,2.84282c-3.45178,0 -6.25,-2.82621 -6.25,-6.3125c0,-3.08788 2.36186,-4.82458 5.26205,-5.37167c0.3742,-0.07059 0.59347,-0.94083 0.98795,-0.94083c3.45178,0 6.25,2.82621 6.25,6.3125c0,1.28164 -1.2115,2.47408 -1.86129,3.46968z" data-paper-data="{&quot;index&quot;:null}" fill="#5a5a5a" stroke="#4d4d4d" stroke-width="1.5" stroke-linecap="butt"/><path d="M140.94683,202.79438l-1.69683,-0.46268c-4.59473,1.22036 -9.475,0.7818 -14.19683,1.96268c0,0 -1.21268,0.30317 -1.51585,-0.90951c-0.30317,-1.21268 0.90951,-1.51585 0.90951,-1.51585c4.95681,-1.23875 9.93273,-0.88491 14.80317,-2.03732l2.30317,0.53732c0,0 1.21268,0.30317 0.90951,1.51585c-0.30317,1.21268 -1.51585,0.90951 -1.51585,0.90951z" data-paper-data="{&quot;index&quot;:null}" fill="#000000" stroke="none" stroke-width="0.5" stroke-linecap="butt"/><path d="M160.25,210.8317h-1c-3.5,0 -7,0 -10.5,0c0,0 -1.25,0 -1.25,-1.25c0,-1.25 1.25,-1.25 1.25,-1.25c3.5,0 8,0 11.5,0c0,0 1.25,0 1.25,1.25c0,1.25 -1.25,1.25 -1.25,1.25z" data-paper-data="{&quot;index&quot;:null}" fill="#000000" stroke="none" stroke-width="0.5" stroke-linecap="butt"/><path d="M159.50001,188.58169c0,1.25 -1.25,1.25 -1.25,1.25l0.06406,-0.1345c-2.64625,1.30981 -5.757,1.22603 -8.44815,2.47223c-1.42452,0.65966 -3.58338,2.63418 -5.27494,4.53325c0.94772,-0.39706 1.86102,-0.9392 3.12424,-1.49964c3.75647,-1.66658 8.2216,-3.66037 12.40236,-3.35571c5.31271,0.38715 6.57749,3.4455 5.62282,8.23418c-0.26935,1.35107 -0.18619,2.84221 -0.86378,4.04172c-1.66469,2.94694 -4.62048,5.88675 -7.48397,7.54208c-2.46926,1.4032 -5.50848,3.31815 -8.52919,2.10512c-4.82813,-1.93883 -11.60607,-9.34909 -8.85376,-15.0046c-0.00634,-0.05815 -0.00969,-0.11947 -0.00969,-0.18413c0,-0.7655 0.46879,-1.06221 0.8322,-1.17721c1.83905,-2.64894 5.47606,-6.27346 7.80188,-7.41051c2.696,-1.31802 5.93711,-1.16886 8.55185,-2.52777l1.06406,-0.1345c0,0 1.25,0 1.25,1.25zM149.63655,211.39297c2.22253,0.98208 4.75309,-0.89663 6.52092,-1.90123c3.9159,-2.17974 6.24399,-5.66407 7.13345,-9.91033c0.69312,-3.30893 0.46532,-5.02012 -3.33865,-5.23956c-6.43759,-0.37136 -11.59304,4.80419 -17.65718,5.42921c-2.15432,4.2328 3.97456,10.13415 7.34146,11.62191z" data-paper-data="{&quot;index&quot;:null}" fill="#141414" stroke="none" stroke-width="0.5" stroke-linecap="butt"/><path d="M158.77112,200.8315c-1.24982,0.02112 -1.27094,-1.2287 -1.27094,-1.2287l-0.01068,-0.64586c-0.06005,0.81888 -0.26747,1.63602 -0.71056,2.29985c-0.55733,0.83498 -1.68219,1.09647 -2.5364,1.62384c-3.03652,1.87467 -7.53864,4.893 -11.34452,3.40048c-2.85237,-1.11859 -3.0643,-4.24364 -1.79116,-6.70511c0.43805,-0.84692 1.21403,-1.47063 1.82105,-2.20594c3.26276,-3.75316 13.95064,-10.24552 16.77394,-2.56041c0.32558,0.88624 0.17646,1.88003 0.26469,2.82005l0.03328,1.93088c0,0 0.02112,1.24982 -1.2287,1.27094zM156.48775,194.09821c-2.91916,-1.90722 -8.30599,1.63771 -10.81675,4.01702c2.49318,-2.00824 4.26248,-2.99637 8.079,-2.78353c2.21779,0.12368 3.43717,-0.36986 3.70806,2.16397c-0.03034,-1.01778 0.03905,-2.738 -0.97031,-3.39746zM143.97218,200.04983c-0.7196,1.00995 -1.2698,2.21259 -1.08556,3.51167c0.09528,0.67179 1.3429,0.26011 2.02117,0.24164c0.7578,-0.02063 1.5303,0.12784 2.27415,-0.01834c2.0309,-0.39911 4.03493,-2.07732 5.78949,-3.05689c0.58013,-0.32389 1.35696,-0.39724 1.76906,-0.91841c0.4613,-0.5834 0.99815,-2.0255 0.27863,-2.21375c-3.66983,-0.96015 -6.37164,1.28185 -8.96888,3.44622c0,0 -0.96028,0.80023 -1.76051,-0.16005c-0.2495,-0.29939 -0.32786,-0.58322 -0.31755,-0.8321z" data-paper-data="{&quot;index&quot;:null}" fill="#282828" stroke="none" stroke-width="0.5" stroke-linecap="butt"/><g data-paper-data="{&quot;index&quot;:null}" stroke="none" stroke-width="0" stroke-linecap="butt"><path d="M230.87502,154.73791v-23.93912h22.95434v23.93912z" fill="url(#color-3)"/><g><path d="M234.20173,158.32303v-3.75856h16.07912v3.75856z" fill="url(#color-4)"/><path d="M234.22943,156.94968v-2.34187h15.96823v2.34187z" fill="url(#color-5)"/></g><g data-paper-data="{&quot;index&quot;:null}"><path d="M250.44719,127.11254v3.75856h-16.07912v-3.75856z" fill="url(#color-6)"/><path d="M250.36401,128.48584v2.34187h-15.96825v-2.34187z" fill="url(#color-7)"/></g></g><path d="M173.8028,227.08245v-18.42039h131.49324v18.42039z" data-paper-data="{&quot;index&quot;:null}" fill="url(#color-8)" stroke="none" stroke-width="0" stroke-linecap="butt"/><path d="M185.5331,263.83814l0.23679,-5.82853l1.33225,0.05412l-0.23679,5.82853z" fill="url(#color-9)" stroke="none" stroke-width="0" stroke-linecap="butt"/><path d="M185.12179,262.32948l0.18492,-4.55181l2.33142,0.09471l-0.18492,4.55181z" fill="url(#color-10)" stroke="none" stroke-width="0" stroke-linecap="butt"/><path d="M178.16602,255.28204l0.93362,-22.98104l17.23578,0.70022l-0.93362,22.98104z" fill="url(#color-11)" stroke="none" stroke-width="0" stroke-linecap="butt"/><g stroke="none" stroke-width="0" stroke-linecap="butt"><path d="M180.52414,258.82512l0.14658,-3.60813l12.07337,0.49049l-0.14658,3.60813z" fill="url(#color-12)"/><path d="M180.59851,257.50761l0.09133,-2.24815l11.99011,0.48711l-0.09133,2.24815z" fill="url(#color-13)"/></g><path d="M180.46894,261.45863l5.80677,2.15411l-9.38108,1.38502l-5.01625,-2.25006z" data-paper-data="{&quot;index&quot;:null}" fill="url(#color-14)" stroke="none" stroke-width="0" stroke-linecap="butt"/><path d="M270.28125,162.86914l3,2.83333l-0.16667,3.5" data-paper-data="{&quot;index&quot;:null}" fill="none" stroke="#bc0000" stroke-width="4" stroke-linecap="round"/><g data-paper-data="{&quot;index&quot;:null}" stroke-width="0"><path d="M306.46242,174.94412l26.91166,-3.38713l0.74696,6.35111l-22.96986,10.47264l-4.59907,0.5409z" fill="#0d0d0d" stroke="#4d4d4d" stroke-linecap="round"/><path d="M309.3334,188.31313c0,0 13.12877,-2.94441 25.201,-3.82502c9.94008,-0.72508 18.59942,0.66391 23.52166,0.04439c5.55223,-0.69882 12.29796,-3.89951 12.29796,-3.89951l1.69368,14.40074c0,0 -15.43463,7.99712 -23.1175,11.49997c-4.18796,1.90942 -12.24724,3.43602 -17.86958,5.78672c-6.92867,2.89687 -11.09575,6.45943 -11.09575,6.45943l-10.42813,1.22646z" fill="#0d0d0d" stroke="#4d4d4d" stroke-linecap="round"/><path d="M319.22387,209.93082l-2.27107,-18.61213l8.66311,-1.01888l6.72931,4.87233l1.53308,13.03516z" data-paper-data="{&quot;index&quot;:null}" fill="#0a0a0a" stroke="#000000" stroke-linecap="round"/><path d="M367.21069,183.7297l1.02123,8.36931l-3.89555,0.45816l-3.02597,-2.19095l-0.68938,-5.86152z" data-paper-data="{&quot;index&quot;:null}" fill="#0a0a0a" stroke="#000000" stroke-linecap="round"/><path d="M313.89228,183.38656l-0.58036,-4.93458l2.04999,-2.38517l3.27951,-0.38571l0.79844,7.053z" data-paper-data="{&quot;index&quot;:null}" fill="#0a0a0a" stroke="#000000" stroke-linecap="round"/><path d="M321.99289,186.79628l3.50417,29.79464l-4.81003,1.90823l-5.29682,0.62296l-3.65992,-31.11885z" fill="url(#color-15)" stroke="none" stroke-linecap="butt"/><path d="M314.10655,173.9629l1.49114,12.67857l-2.04682,0.81202l-2.25396,0.26509l-1.55741,-13.24206z" fill="url(#color-16)" stroke="none" stroke-linecap="butt"/></g><path d="M254.07394,158.98557l1.17122,-18.96387" data-paper-data="{&quot;index&quot;:null}" fill="none" stroke="#000000" stroke-width="2.5" stroke-linecap="round"/><path d="M227.3594,157.58613l1.17122,-18.96387" data-paper-data="{&quot;index&quot;:null}" fill="none" stroke="#000000" stroke-width="2.5" stroke-linecap="round"/><path d="M171.0555,135.67291l1.39725,-22.62355l135.74136,8.38349l-1.39725,22.62355z" data-paper-data="{&quot;index&quot;:null}" fill="url(#color-17)" stroke="none" stroke-width="0" stroke-linecap="butt"/><g data-paper-data="{&quot;index&quot;:null}" stroke="none" stroke-width="0" stroke-linecap="butt"><path d="M300.46134,260.15778l-2.12013,-5.43441l1.24215,-0.4846l2.12013,5.43441z" fill="url(#color-18)"/><path d="M299.4796,258.94061l-1.65572,-4.24402l2.17376,-0.84805l1.65572,4.24402z" fill="url(#color-19)"/></g><path d="M289.96023,255.85061c0,0 0.60945,-5.31927 0.47884,-8.41213c-0.17797,-4.21441 -1.44924,-14.56739 -1.44924,-14.56739l17.23464,-0.72781c0,0 -0.71379,14.69907 -0.54672,18.65525c0.07531,1.78339 1.51713,4.32427 1.51713,4.32427z" data-paper-data="{&quot;index&quot;:null}" fill="url(#color-20)" stroke="none" stroke-width="0" stroke-linecap="butt"/><g data-paper-data="{&quot;index&quot;:null}" stroke="none" stroke-width="0" stroke-linecap="butt"><path d="M293.86261,257.57382l-1.31246,-3.36416l11.25699,-4.39169l1.31246,3.36416z" fill="url(#color-21)"/><path d="M293.40246,256.33705l-0.81776,-2.09613l11.17936,-4.3614l0.81776,2.09613z" fill="url(#color-22)"/></g><g data-paper-data="{&quot;index&quot;:null}" stroke="none" stroke-width="0" stroke-linecap="butt"><path d="M304.83335,224.37855v3.61111h-12.08333v-3.61111z" fill="url(#color-23)"/><path d="M304.77085,225.69802v2.25h-12v-2.25z" fill="url(#color-24)"/></g><g data-paper-data="{&quot;index&quot;:null}" stroke="none" stroke-width="0" stroke-linecap="butt"><path d="M187.16668,225.04524v3.61111h-12.08333v-3.61111z" fill="url(#color-25)"/><path d="M187.10418,226.36467v2.25h-12v-2.25z" fill="url(#color-26)"/></g><path d="M191.16669,203.67024v-3.33333h99.33333v3.33333z" data-paper-data="{&quot;index&quot;:null}" fill="url(#color-27)" stroke="none" stroke-width="0" stroke-linecap="butt"/><path d="M206.95835,205.86467v-8c0,0 3.29663,1.66667 6.48957,1.66667c9.9723,0 61.51043,-1.66667 61.51043,-1.66667v8c0,0 -1.41982,0.83333 -4.17709,0.83333c-9.44145,0 -63.82291,-0.83333 -63.82291,-0.83333z" data-paper-data="{&quot;index&quot;:null}" fill="#0a0a0a" stroke="none" stroke-width="0" stroke-linecap="butt"/><path d="M178.08335,225.45989c0,0 21.33778,-25.57538 29.51074,-36.67151c6.79234,-9.22172 16.15593,-25.32848 16.15593,-25.32848l20.16666,-7l26.16885,5.62975" data-paper-data="{&quot;index&quot;:null}" fill="none" stroke="url(#color-28)" stroke-width="5" stroke-linecap="round"/><path d="M301.41667,225.12656c0,0 -12.10887,-8.97784 -15.93742,-14.4684c-4.68342,-6.71653 -10.11888,-22.89916 -10.11888,-22.89916" data-paper-data="{&quot;index&quot;:null}" fill="none" stroke="url(#color-29)" stroke-width="5" stroke-linecap="round"/><path d="M173.33335,235.19802v-11c0,0 19.92487,1 34.44791,1c13.98593,0 44.43385,-1.49676 67.6693,-1.77764c17.20666,-0.208 30.38279,0.77764 30.38279,0.77764v11c0,0 -18.61818,-0.66667 -32.21876,-0.66667c-12.87243,0 -40.66252,0.85592 -63.66389,1.03276c-20.16892,0.15506 -36.61735,-0.36609 -36.61735,-0.36609z" data-paper-data="{&quot;index&quot;:null}" fill="url(#color-30)" stroke="none" stroke-width="0" stroke-linecap="butt"/><path d="M242.33335,255.03132l-1,-44.5" data-paper-data="{&quot;index&quot;:null}" fill="none" stroke="#000000" stroke-width="12.5" stroke-linecap="round"/><path d="M263.20835,229.61467l-11.75,0.2c0,0 0.57778,8.01931 0.61298,11.72471c0.0309,3.25188 -0.41298,9.32529 -0.41298,9.32529c0,0 -1.62905,4.50595 -2.83045,6.60235c-1.27729,2.22882 -4.61955,6.39765 -4.61955,6.39765h-7.25c0,0 -2.79136,-6.04374 -4.3093,-8.29765c-1.08039,-1.60422 -3.9407,-3.95235 -3.9407,-3.95235c0,0 -0.70433,-6.08975 -0.72625,-9.24693c-0.02701,-3.88911 0.57625,-12.35307 0.57625,-12.35307l-10.6,0.2l-0.2,-34.4l14,-0.2l8.4,-7.2l8.6,7.2h14.2z" data-paper-data="{&quot;index&quot;:null}" fill="#0d0d0d" stroke="#0d0d0d" stroke-width="5" stroke-linecap="round"/><path d="M234.65523,232.57302h20v18.75c0,0 -0.6031,2.53714 -1.44547,3.9655c-1.56085,2.64667 -7.17953,10.6595 -7.17953,10.6595l-9.875,0.125z" data-paper-data="{&quot;index&quot;:null}" fill="url(#color-31)" stroke="#0d0d0d" stroke-width="0" stroke-linecap="round"/><path d="M242.90523,232.28133v-38.75h22.875v38.75z" data-paper-data="{&quot;index&quot;:null}" fill="url(#color-32)" stroke="none" stroke-width="0" stroke-linecap="butt"/><path d="M234.92805,234.90633v6.2125l-2.89402,2.6625h-4.1288l0.03858,-8.875z" data-paper-data="{&quot;index&quot;:null}" fill="#0a0a0a" stroke="#000000" stroke-width="0" stroke-linecap="round"/><path d="M226.03023,244.78133v-12.375h28v12.375z" data-paper-data="{&quot;index&quot;:null}" fill="url(#color-33)" stroke="none" stroke-width="0" stroke-linecap="butt"/><path d="M217.40523,230.15633l-0.125,-28.75h13.375l9.375,8.625v20.125z" data-paper-data="{&quot;index&quot;:null}" fill="#0a0a0a" stroke="#000000" stroke-width="0" stroke-linecap="round"/><g data-paper-data="{&quot;index&quot;:null}" stroke-linecap="butt"><path d="M231.95835,190.08689v-23h17.25v23z" fill="url(#color-34)" stroke="none" stroke-width="0"/><g stroke="none" stroke-width="0"><path d="M234.45835,193.53133v-3.61111h12.08333v3.61111z" fill="url(#color-35)"/><path d="M234.47918,192.21189v-2.25h12v2.25z" fill="url(#color-36)"/></g><g data-paper-data="{&quot;index&quot;:null}" stroke="none" stroke-width="0"><path d="M246.66668,163.54522v3.61111h-12.08333v-3.61111z" fill="url(#color-37)"/><path d="M246.60418,164.86466v2.25h-12v-2.25z" fill="url(#color-38)"/></g><g fill="none" stroke="#ffffff"><path d="M245.56394,179.24625c0,2.73872 -2.23023,4.9589 -4.98137,4.9589c-2.75114,0 -4.98137,-2.22018 -4.98137,-4.9589c0,-2.73872 2.23023,-4.9589 4.98137,-4.9589c2.75114,0 4.98137,2.22018 4.98137,4.9589z" stroke-width="1"/><g stroke-width="0.5"><path d="M241.64044,180.92157l-2.68537,-2.9677l0.37453,-0.3389l2.68537,2.9677z"/><path d="M238.99439,180.74683l-0.28403,-0.31389l3.16744,-2.86612l0.28403,0.31389z"/><path d="M238.13779,177.05854l-0.36518,-0.40357l0.37667,-0.34084l0.36518,0.40357z"/><path d="M242.82981,182.24386l-0.36518,-0.40358l0.37667,-0.34084l0.36518,0.40358z"/></g></g></g><path d="M173.00002,203.92024v-4.33333h24.16667v4.33333z" data-paper-data="{&quot;index&quot;:null}" fill="url(#color-39)" stroke="none" stroke-width="0" stroke-linecap="butt"/><path d="M285.16668,204.25355v-4.33333h24.16667v4.33333z" data-paper-data="{&quot;index&quot;:null}" fill="url(#color-40)" stroke="none" stroke-width="0" stroke-linecap="butt"/><path d="M304.33335,242.698c0,0 1.66667,-56.26387 1.66667,-79.49552c0,-19.67443 -1.66667,-51.00448 -1.66667,-51.00448h9c0,0 0.57876,21.16076 0.20492,40.17947c-0.1231,6.26255 -1.53825,12.14425 -1.53825,17.15834c0,22.92392 1.33333,73.16219 1.33333,73.16219z" data-paper-data="{&quot;index&quot;:null}" fill="url(#color-41)" stroke="none" stroke-width="0" stroke-linecap="butt"/><path d="M166.83335,244.19802c0,0 7.5,-41.40617 7.5,-64.53136c0,-2.14861 -0.08758,-4.60319 -0.24381,-7.27252c0.3968,0.04788 0.80075,0.07252 1.21046,0.07252c0.80068,0 1.57938,-0.0941 2.32565,-0.27185c0.57852,0.52655 1.39477,1.0857 2.1925,1.57662c-0.26774,24.10234 -3.98481,70.42658 -3.98481,70.42658z" data-paper-data="{&quot;index&quot;:null}" fill="url(#color-42)" stroke="none" stroke-width="0" stroke-linecap="butt"/><path d="M168.46229,106.01222l8.98288,0.55479c0,0 0.8459,19.19423 0.89332,37.37481c-1.53327,0.09904 -2.98086,0.54714 -4.25813,1.26954c-0.88897,-0.01612 -1.75506,0.08528 -2.58267,0.29039c-1.02701,-19.40079 -3.0354,-39.48952 -3.0354,-39.48952z" data-paper-data="{&quot;index&quot;:null}" fill="url(#color-43)" stroke="none" stroke-width="0" stroke-linecap="butt"/><path d="M248.16668,215.58689c0,4.6484 -3.73096,8.41667 -8.33333,8.41667c-4.60237,0 -8.33333,-3.76827 -8.33333,-8.41667c0,-4.6484 3.73096,-8.41667 8.33333,-8.41667c4.60237,0 8.33333,3.76827 8.33333,8.41667z" data-paper-data="{&quot;index&quot;:null}" fill="#3d3d3d" stroke="#3e3e3e" stroke-width="1.5" stroke-linecap="butt"/><path d="M245.83335,214.42024c0,4.64839 -3.73096,8.41666 -8.33334,8.41666c-2.21755,0 -3.39946,-1.20816 -4.89253,-2.63476c-1.6057,-1.53421 -3.44081,-3.37323 -3.44081,-5.7819c0,-3.06552 0.95598,-6.0816 3.3811,-7.5532c1.25221,-0.75986 3.38503,-0.86347 4.95224,-0.86347c2.93006,0 4.84027,1.52733 6.32607,3.83673c0.84801,1.31807 2.00727,2.8909 2.00727,4.57994z" data-paper-data="{&quot;index&quot;:null}" fill="#5a5a5a" stroke="#4d4d4d" stroke-width="1.5" stroke-linecap="butt"/><path d="M306.97358,115.12128c0,0 -0.76798,-5.90387 -0.54438,-9.12152c0.26141,-3.76176 2.0172,-12.07277 2.0172,-12.07277l6.46438,0.51764c0,0 -1.10855,8.29224 -1.29195,11.94147c-0.14408,2.86689 0.28075,8.17873 0.28075,8.17873l-5.35862,25.80795c0,0 -0.47279,-12.82048 -0.76218,-17.4828c-0.18993,-3.05985 -0.8052,-7.7687 -0.8052,-7.7687z" data-paper-data="{&quot;index&quot;:null}" fill="url(#color-44)" stroke="#000000" stroke-width="0" stroke-linecap="round"/><path d="M171.56896,132.9297l-3.14351,-25.21635l-2.72855,-15.4845l5.90078,-1.49006l3.09225,17.08407z" data-paper-data="{&quot;index&quot;:null}" fill="url(#color-45)" stroke="#000000" stroke-width="0" stroke-linecap="round"/><g data-paper-data="{&quot;index&quot;:null}" stroke="none" stroke-width="0" stroke-linecap="butt"><path d="M250.13167,155.12689c0,0 0.89807,-3.7261 1.02391,-5.76361c0.10743,-1.73938 -0.31534,-5.7092 -0.31534,-5.7092l8.6046,0.53143c0,0 -1.40121,3.76154 -1.52479,5.76253c-0.11132,1.80251 0.81622,5.71029 0.81622,5.71029z" fill="url(#color-46)"/><g><path d="M251.10626,156.91178l0.11125,-1.80129l6.02739,0.37226l-0.11125,1.80129z" fill="url(#color-47)"/><path d="M251.1573,156.25427l0.06932,-1.12234l5.98581,0.36969l-0.06932,1.12234z" fill="url(#color-48)"/></g><g data-paper-data="{&quot;index&quot;:null}"><path d="M258.11979,142.33028l-0.11125,1.80129l-6.02739,-0.37226l0.11125,-1.80129z" fill="url(#color-49)"/><path d="M258.04797,142.98652l-0.06932,1.12234l-5.98581,-0.36969l0.06932,-1.12234z" fill="url(#color-50)"/></g></g><g data-paper-data="{&quot;index&quot;:null}" stroke="none" stroke-width="0" stroke-linecap="butt"><path d="M223.38326,153.60013c0,0 0.87389,-3.33468 0.99052,-5.22298c0.1195,-1.93483 -0.28195,-6.24983 -0.28195,-6.24983l8.6046,0.53143c0,0 0.96089,3.36787 0.85291,5.11621c-0.12555,2.03288 -1.56148,6.35661 -1.56148,6.35661z" fill="url(#color-51)"/><g><path d="M224.52419,155.39529l0.11125,-1.80129l6.02739,0.37226l-0.11125,1.80129z" fill="url(#color-52)"/><path d="M224.57522,154.73778l0.06932,-1.12234l5.98581,0.36969l-0.06932,1.12234z" fill="url(#color-53)"/></g><g data-paper-data="{&quot;index&quot;:null}"><path d="M231.53772,140.81379l-0.11125,1.80129l-6.02739,-0.37226l0.11125,-1.80129z" fill="url(#color-54)"/><path d="M231.4659,141.47003l-0.06932,1.12234l-5.98581,-0.36969l0.06932,-1.12234z" fill="url(#color-55)"/></g></g><g data-paper-data="{&quot;index&quot;:null}" stroke="#4d4d4d" stroke-width="1.5" stroke-linecap="butt"><path d="M186.94704,126.03533l5.11383,-0.28167l-2.98922,22.20064l-2.2899,-0.30824c-0.80483,-0.99803 -1.79916,-1.8406 -2.93252,-2.4706z" fill="url(#color-56)"/><path d="M186.21848,130.54624l-1.12646,-20.45101l7.30548,-0.40239l1.12646,20.45101z" fill="url(#color-57)"/></g><g data-paper-data="{&quot;index&quot;:null}" stroke-width="1.5" stroke-linecap="butt"><path d="M330.58335,201.18475c-1.85458,0 -3.0205,-1.14918 -4.16512,-2.44492c-0.98576,-1.11591 -2.08488,-2.25441 -2.08488,-3.86758c0,-0.87471 -0.82385,-2.04121 -0.50542,-2.7986c0.95071,-2.26131 4.16969,-3.5139 6.75542,-3.5139c3.45178,0 6.25,2.8262 6.25,6.3125c0,3.4863 -2.79822,6.3125 -6.25,6.3125z" fill="#3d3d3d" stroke="#3e3e3e"/><path d="M332.25002,202.72641c-1.94729,0 -3.01991,-1.06612 -4.16615,-2.47611c-0.8856,-1.08938 -2.08386,-2.31685 -2.08386,-3.83639c0,-3.4863 2.79823,-6.3125 6.25001,-6.3125c2.496,0 2.9836,2.14443 3.98524,4.28097c0.38355,0.81814 2.26476,1.0662 2.26476,2.03153c0,3.4863 -2.79822,6.3125 -6.25,6.3125z" fill="#5a5a5a" stroke="#4d4d4d"/></g><g data-paper-data="{&quot;index&quot;:null}" stroke="none" stroke-width="0" stroke-linecap="butt"><path d="M236.51039,124.22954l0.98254,-15.90881l11.93161,0.73691l-0.98254,15.90881z" fill="url(#color-58)"/><g><path d="M238.09246,126.71884l0.15426,-2.49776l8.35789,0.51619l-0.15426,2.49776z" fill="url(#color-59)"/><path d="M238.16323,125.80707l0.09612,-1.55629l8.30024,0.51263l-0.09612,1.55629z" fill="url(#color-60)"/></g><g data-paper-data="{&quot;index&quot;:null}"><path d="M247.81779,106.49935l-0.15426,2.49776l-8.35789,-0.51619l0.15426,-2.49776z" fill="url(#color-61)"/><path d="M247.71819,107.40931l-0.09612,1.55629l-8.30025,-0.51263l0.09612,-1.55629z" fill="url(#color-62)"/></g></g><path d="M238.76026,254.40829l-4.23542,-2.49844c0,0 0.25081,-3.25505 0.02376,-5.03228c-0.25578,-2.00209 -1.48256,-6.38625 -1.48256,-6.38625l7.37301,1.30591l7.07826,-1.21302l-1.16832,11.43219c0,0 -1.88085,0.19848 -2.62263,0.5737c-0.81721,0.41337 -2.07627,1.80317 -2.07627,1.80317z" data-paper-data="{&quot;index&quot;:null}" fill="url(#color-63)" stroke="url(#color-64)" stroke-width="1.5" stroke-linecap="round"/><path d="M235.52084,251.0855l1.625,-8.75" data-paper-data="{&quot;index&quot;:null}" fill="none" stroke="url(#color-65)" stroke-width="1" stroke-linecap="round"/><path d="M243.52084,242.3355l1.875,8.75" data-paper-data="{&quot;index&quot;:null}" fill="none" stroke="url(#color-66)" stroke-width="1" stroke-linecap="round"/><path d="M168.56009,104.42833l2.86708,-3.16261l1.20751,2.07839" data-paper-data="{&quot;index&quot;:null}" fill="none" stroke="#bd0000" stroke-width="0.5" stroke-linecap="round"/><path d="M310.7,105.4l-0.8,14l-2.4,1.6" data-paper-data="{&quot;index&quot;:null}" fill="none" stroke="#bd0000" stroke-width="0.5" stroke-linecap="round"/><path d="M218.78125,175.20247l-1.66667,0.83333l-3,2.66667l-3.5,0.66667" data-paper-data="{&quot;index&quot;:null}" fill="none" stroke="#bc0000" stroke-width="1" stroke-linecap="round"/><path d="M201.61458,191.86915l3,-0.66667l1.16667,0.83333" data-paper-data="{&quot;index&quot;:null}" fill="none" stroke="#bc0000" stroke-width="1" stroke-linecap="round"/><path d="M279.61458,197.53581l0.16667,-2.16667l3,-0.83333" data-paper-data="{&quot;index&quot;:null}" fill="none" stroke="#bc0000" stroke-width="1" stroke-linecap="round"/><g data-paper-data="{&quot;index&quot;:null}" stroke="#4d4d4d" stroke-width="1.5" stroke-linecap="butt"><path d="M278.94677,155.79498l6.51043,-20.43521l5.09948,0.47531l-6.22949,21.51736z" fill="url(#color-67)"/><path d="M284.07159,139.714l1.90085,-20.39362l7.28497,0.67901l-1.90085,20.39362z" fill="url(#color-68)"/></g><g data-paper-data="{&quot;index&quot;:null}" stroke="none" stroke-width="0" stroke-linecap="butt"><path d="M180.91438,240.88913l-0.78773,-3.52414l11.79233,-2.63587l0.78773,3.52414z" fill="url(#color-69)"/><path d="M180.64689,239.59693l-0.49082,-2.19581l11.71101,-2.61769l0.49082,2.19581z" fill="url(#color-70)"/></g><path d="M187.875,236.58333h-2.75l1.5,-1.5h-4.5l1.25,-1.75" data-paper-data="{&quot;index&quot;:null}" fill="none" stroke="#000000" stroke-width="1.5" stroke-linecap="round"/><path d="M211.5,220.41666c0,1.25 -1.25,1.25 -1.25,1.25h-1.5c-3.33043,-0.09182 -3.33767,2.82056 -6.07707,3.90748c-2.49473,0.98984 -5.81718,-0.4695 -7.98194,-1.53945c0,0 -1.11803,-0.55902 -0.55902,-1.67705c0.55902,-1.11803 1.67705,-0.55902 1.67705,-0.55902c1.40014,0.70945 4.25184,2.16821 5.92092,1.46018c1.22658,-0.52031 1.68482,-2.11984 2.79326,-2.85914c1.22099,-0.81437 2.7594,-1.20555 4.2268,-1.23301h1.5c0,0 1.25,0 1.25,1.25z" data-paper-data="{&quot;index&quot;:null}" fill="#000000" stroke="none" stroke-width="0.5" stroke-linecap="butt"/><path d="M222.5,228.41666c0,1.25 -1.25,1.25 -1.25,1.25h-2.5c-2.9364,0 -5.09249,-0.62988 -7.89528,-1.56415c0,0 -1.18585,-0.39528 -0.79057,-1.58114c0.39528,-1.18585 1.58114,-0.79057 1.58114,-0.79057c2.58014,0.86005 4.42175,1.43585 7.10472,1.43585h2.5c0,0 1.25,0 1.25,1.25z" data-paper-data="{&quot;index&quot;:null}" fill="#000000" stroke="none" stroke-width="0.5" stroke-linecap="butt"/><path d="M239.98065,230.13575c-0.21909,1.23065 -1.44974,1.01156 -1.44974,1.01156l-1.69273,-0.31678c-2.87504,-1.50639 -5.58191,-3.07404 -8.28156,-4.87381c0,0 -1.04006,-0.69338 -0.34669,-1.73344c0.69338,-1.04006 1.73344,-0.34669 1.73344,-0.34669c2.51733,1.67822 5.04787,3.15396 7.71017,4.59064l1.31554,0.21878c0,0 1.23065,0.21909 1.01156,1.44974z" data-paper-data="{&quot;index&quot;:null}" fill="#000000" stroke="none" stroke-width="0.5" stroke-linecap="butt"/><path d="M238.13388,200.80055c-0.88388,0.88388 -1.76777,0 -1.76777,0l-0.0114,-0.19803c-1.86759,-0.7851 -1.68041,0.20792 -3.56182,1.43604c-3.46254,2.26022 -8.16311,4.13249 -9.88742,8.3737c-0.5834,1.43496 -0.25755,3.08745 -0.41168,4.62879c0,0 -0.12438,1.2438 -1.36818,1.11942c-1.2438,-0.12438 -1.11942,-1.36818 -1.11942,-1.36818c0.04154,-0.41536 0.49563,-5.10581 0.58336,-5.32159c1.94091,-4.77398 6.91632,-6.95746 10.83514,-9.52452c2.48937,-1.63068 2.7337,-2.57289 5.72059,-1.71537l0.9886,0.80197c0,0 0.88388,0.88388 0,1.76777z" data-paper-data="{&quot;index&quot;:null}" fill="#000000" stroke="none" stroke-width="0.5" stroke-linecap="butt"/><path d="M257.22788,217.16647c-1.2498,-0.02212 -1.22768,-1.27193 -1.22768,-1.27193l0.0435,-1.32012c0.82627,-4.13135 1.71355,-13.29073 -3.63709,-14.45585c0,0 -1.2019,-0.3434 -0.8585,-1.54531c0.3434,-1.2019 1.54531,-0.8585 1.54531,-0.8585c0.9645,0.31893 2.13615,0.27975 2.8935,0.9568c0.75735,0.67705 0.86634,1.83805 1.27379,2.76863c2.16012,4.93345 2.28002,8.3967 1.23445,13.62453l0.00466,0.87407c0,0 -0.02212,1.2498 -1.27193,1.22768z" data-paper-data="{&quot;index&quot;:null}" fill="#000000" stroke="none" stroke-width="0.5" stroke-linecap="butt"/><path d="M278.5,224.41666c0,1.25 -1.25,1.25 -1.25,1.25l-2.61575,-0.00537c-4.2549,-0.78657 -8.58812,-0.80209 -11.76813,-3.86075c0,0 -0.88388,-0.88388 0,-1.76777c0.88388,-0.88388 1.76777,0 1.76777,0c2.47076,2.6037 6.7497,2.475 10.23187,3.13925l2.38425,-0.00537c0,0 1.25,0 1.25,1.25z" data-paper-data="{&quot;index&quot;:null}" fill="#000000" stroke="none" stroke-width="0.5" stroke-linecap="butt"/><path d="M292.9519,228.26007c-0.3434,1.2019 -1.54531,0.8585 -1.54531,0.8585c-1.60254,-0.45787 -5.39746,-1.54213 -7,-2c0,0 -1.2019,-0.3434 -0.8585,-1.54531c0.3434,-1.2019 1.54531,-0.8585 1.54531,-0.8585c1.60254,0.45787 3.20508,0.91574 4.80762,1.37361l2.19238,0.62639c0,0 1.2019,0.3434 0.8585,1.54531z" data-paper-data="{&quot;index&quot;:null}" fill="#000000" stroke="none" stroke-width="0.5" stroke-linecap="butt"/><path d="M286.36803,220.97568c-0.55902,1.11803 -1.67705,0.55902 -1.67705,0.55902l-1.76393,-0.88197c-3.64797,-1.83487 -5.93823,-4.01326 -9.98022,-5.02339c0,0 -1.21268,-0.30317 -0.90951,-1.51585c0.30317,-1.21268 1.51585,-0.90951 1.51585,-0.90951c0.8453,0.2114 4.09502,0.99439 4.66794,1.28563c2.09964,1.06734 3.66116,2.85275 5.82398,3.92705l1.76393,0.88197c0,0 1.11803,0.55902 0.55902,1.67705z" data-paper-data="{&quot;index&quot;:null}" fill="#000000" stroke="none" stroke-width="0.5" stroke-linecap="butt"/><path d="M299.25,213.66666c-1.25,0 -1.25,-1.25 -1.25,-1.25l0.01614,-1.70023c0.18267,-0.56502 0.36534,-1.13004 0.54801,-1.69506c0,0 0.39528,-1.18585 1.58114,-0.79057c1.18585,0.39528 0.79057,1.58114 0.79057,1.58114c-0.15066,0.43498 -0.30133,0.86996 -0.45199,1.30494l0.01614,1.29977c0,0 0,1.25 -1.25,1.25z" data-paper-data="{&quot;index&quot;:null}" fill="#000000" stroke="none" stroke-width="0.5" stroke-linecap="butt"/><path d="M320.17497,195.80584l1.2062,1.35653c1.31441,3.2193 2.52298,6.34325 3.10182,9.77876c0,0 0.2055,1.23299 -1.02749,1.43849c-1.23299,0.2055 -1.43849,-1.02749 -1.43849,-1.02749c-0.51091,-3.10237 -1.61479,-5.93919 -2.75513,-8.86363l-0.93685,-1.00108c0,0 -0.84079,-0.92497 0.08418,-1.76576c0.92497,-0.84079 1.76576,0.08418 1.76576,0.08418z" data-paper-data="{&quot;index&quot;:null}" fill="#000000" stroke="none" stroke-width="0.5" stroke-linecap="butt"/><path d="M366.96754,192.86362c0.283,1.21755 -0.93454,1.50055 -0.93454,1.50055l-0.09893,0.023c-2.79864,0.64979 -5.93229,0.90984 -8.50734,2.31043c-1.50786,0.82014 -3.08042,3.12049 -4.29285,4.33292c0,0 -0.88389,0.88388 -1.76777,0c-0.88388,-0.88389 0,-1.76777 0,-1.76777c1.38124,-1.38124 2.99495,-3.69517 4.70715,-4.66708c2.82258,-1.60221 6.20296,-1.92409 9.2948,-2.64358l0.09893,-0.023c0,0 1.21755,-0.283 1.50055,0.93454z" data-paper-data="{&quot;index&quot;:null}" fill="#000000" stroke="none" stroke-width="0.5" stroke-linecap="butt"/><path d="M236.49981,135.4387c-0.02204,1.24981 -1.27184,1.22777 -1.27184,1.22777l-2.40654,-0.04407c-6.38488,-0.76566 -10.83822,-3.27342 -16.23392,-6.64573c0,0 -1.06,-0.6625 -0.3975,-1.7225c0.6625,-1.06 1.7225,-0.3975 1.7225,-0.3975c5.03561,3.14726 9.13778,5.55107 15.08081,6.27165l2.27873,0.03855c0,0 1.24981,0.02204 1.22777,1.27184z" data-paper-data="{&quot;index&quot;:null}" fill="#000000" stroke="none" stroke-width="0.5" stroke-linecap="butt"/><path d="M276.47702,130.65525c-0.23859,1.22702 -1.46561,0.98843 -1.46561,0.98843c-5.72609,-1.11341 -12.27391,-2.38659 -18,-3.5c0,0 -1.22702,-0.23859 -0.98843,-1.46561c0.23859,-1.22702 1.46561,-0.98843 1.46561,-0.98843c5.72609,1.11341 11.45218,2.22681 17.17827,3.34022l0.82173,0.15978c0,0 1.22702,0.23859 0.98843,1.46561z" data-paper-data="{&quot;index&quot;:null}" fill="#000000" stroke="none" stroke-width="0.5" stroke-linecap="butt"/><path d="M275.92052,137.82929c0.0642,0.07172 0.13512,0.13968 0.21336,0.20349zM275.79182,137.66831c0.21736,0.01339 1.20818,0.13546 1.20818,1.24835c0,1.25 -1.25,1.25 -1.25,1.25l-1.38388,-0.36612c-1.83189,-2.02584 -1.36612,-3.72243 -1.36612,-6.38388c0,0 0,-1.25 1.25,-1.25c1.25,0 1.25,1.25 1.25,1.25c0,1.36767 -0.4861,3.15977 0.29182,4.25165z" data-paper-data="{&quot;index&quot;:null}" fill="#000000" stroke="none" stroke-width="0.5" stroke-linecap="butt"/><path d="M298.25,143.16666c-1.25,0 -1.25,-1.25 -1.25,-1.25l0.00188,-1.56852c0.44366,-4.06102 0.23339,-8.1843 1.02239,-12.17662c0,0 0.24515,-1.22573 1.47087,-0.98058c1.22573,0.24515 0.98058,1.47087 0.98058,1.47087c-0.78271,3.86302 -0.5403,7.88665 -0.97761,11.82338l0.00188,1.43148c0,0 0,1.25 -1.25,1.25z" data-paper-data="{&quot;index&quot;:null}" fill="#000000" stroke="none" stroke-width="0.5" stroke-linecap="butt"/><path d="M230,204.41666c-1,0.75 -1.75,-0.25 -1.75,-0.25l-1.73916,-2.91424c0.73565,-0.72747 3.43976,-3.61171 4.58081,-3.92412c2.70819,-0.74147 5.66891,1.39101 7.89475,2.56797c2.18746,1.15666 4.98435,2.35522 6.69686,4.19585c0.30726,0.33024 2.41894,3.83815 2.77406,4.31144c2.0337,2.7104 4.53902,4.83062 5.51436,8.2485c0.92508,3.24176 -1.13821,9.83609 -4.24332,11.41945c-1.38953,0.70855 -3.11886,0.08833 -4.67858,0.07901c-3.3143,-1.10477 -6.84744,0.12029 -10.22434,-0.57978c-3.18121,-0.6595 -5.54805,-3.18942 -7.8834,-5.2003c-0.92021,-0.79236 -3.34069,-2.08278 -3.82144,-2.91812c-0.41132,-0.71471 0.31658,-4.29759 0.41943,-4.85873c0.82183,-4.48389 1.61751,-7.09976 5.51661,-9.71699c0,0 1.04006,-0.69338 1.73344,0.34669c0.69338,1.04006 -0.34669,1.73344 -0.34669,1.73344c-3.34827,2.21471 -3.73726,4.25227 -4.44455,8.08882c-0.20502,1.11209 -1.289,2.42419 -0.61941,3.33546c0.74996,1.02065 2.21668,1.25789 3.17856,2.08188c1.9472,1.66807 4.07583,4.14183 6.75898,4.65665c3.35569,0.64385 6.82794,-0.53851 10.13328,0.56327c1.10743,-0.00777 2.32283,0.55783 3.32142,0.07901c1.95781,-0.93877 3.35236,-6.6787 2.75668,-8.58055c-0.93619,-2.98901 -3.26727,-4.87377 -5.07069,-7.27727c-0.97493,-1.29933 -1.51295,-2.91752 -2.61044,-4.11513c-1.47975,-1.61475 -4.13227,-2.67938 -6.02941,-3.68253c-1.33444,-0.70561 -4.33692,-2.92922 -6.02206,-2.37922c-1.06584,0.34788 -1.77319,1.41885 -2.80657,1.85379l1.26084,1.08576c0,0 0.75,1 -0.25,1.75z" data-paper-data="{&quot;index&quot;:null}" fill="#141414" stroke="none" stroke-width="0.5" stroke-linecap="butt"/><path d="M320.49854,194.5862l0.02556,0.52805c0.22498,4.70184 0.93709,7.82901 5.51911,9.85963c0.6132,0.27176 1.1402,0.87838 1.81093,0.87716c0.67072,-0.00122 1.19725,-0.60589 1.80773,-0.88373c2.03534,-0.92632 4.00098,-1.56257 5.80923,-2.89073c1.66694,-1.21232 3.40161,-2.31745 4.85948,-3.77829c1.06241,-1.06457 2.51488,-1.81286 3.26016,-3.11922c1.35574,-2.37639 -1.12825,-4.52104 -3.29251,-4.77623c-3.85502,-0.45454 -7.89678,1.35427 -11.36275,2.81344c-1.85478,0.78086 -5.65576,2.06517 -5.43548,4.43036c0,0 0,1.25 -1.25,1.25c-1.25,0 -1.25,-1.25 -1.25,-1.25c0.15405,-3.20306 1.97282,-4.12569 4.65521,-5.533c4.2654,-2.23783 10.02756,-4.92035 14.97757,-4.18832c3.67464,0.54343 7.244,4.24318 5.27648,8.18889c-0.17823,0.35743 -3.37299,3.51477 -3.81091,3.95185c-1.55724,1.55423 -3.38034,2.74037 -5.15682,4.03236c-2.01431,1.45256 -6.54649,4.248 -9.08285,4.25261c-0.99733,0.00181 -1.86934,-0.6969 -2.79192,-1.07573c-5.51774,-2.26568 -6.76934,-6.51575 -7.03974,-12.04017l-0.02556,-0.52805c0,0 -0.06044,-1.24854 1.1881,-1.30898c1.24854,-0.06044 1.30898,1.1881 1.30898,1.1881z" data-paper-data="{&quot;index&quot;:null}" fill="#141414" stroke="none" stroke-width="0.5" stroke-linecap="butt"/><path d="M239.1953,222.79486c0.62884,0.2592 1.29196,0.4646 1.99684,0.6044c2.23687,0.44363 7.44599,0.95641 9.25849,-0.94359c2.05544,-2.15468 3.75758,-5.66996 1.30983,-8.27526c-1.04925,-1.11679 -2.44263,-1.85116 -3.65091,-2.7936c-1.76581,-0.99747 -3.83067,-2.67511 -5.7631,-3.28708c-2.14751,-0.68009 -4.88283,-0.34511 -7.09811,-0.39912c-0.35363,-0.00862 -2.84586,-0.12728 -3.05837,0.08264c-0.92744,0.91612 0.04776,2.61223 0.21674,3.90485c0.18419,1.409 -0.10765,2.94604 0.49152,4.23452c1.09633,2.35759 4.10712,5.00203 6.06341,6.67196zM230.34447,215.24492c-0.18661,-1.38033 -0.40393,-3.13027 -0.41766,-3.24036c-0.199,-1.59536 -0.87284,-4.58001 0.48032,-5.97389c1.01283,-1.04332 3.48954,-0.85847 4.8973,-0.82943c2.50615,0.0517 5.42416,-0.23103 7.84912,0.53236c2.12775,0.66983 4.4103,2.4748 6.34337,3.57351c0.33238,0.25784 4.03849,3.11599 4.24261,3.34581c4.41363,4.96907 -0.20115,12.2879 -5.76447,13.49332c-2.0228,0.43829 -4.8152,0.28457 -7.39833,-0.28717c-0.78328,0.7412 -1.64023,0.00667 -1.64023,0.00667l-0.82486,-0.70702c-0.95611,-0.33955 -1.82284,-0.73943 -2.53312,-1.18771c-2.63063,-1.66027 -5.00742,-4.96546 -7.21241,-7.17045c0,0 -0.88388,-0.88388 0,-1.76777c0.88388,-0.88388 1.76777,0 1.76777,0c0.07039,0.07039 0.14058,0.14112 0.21059,0.21214z" data-paper-data="{&quot;index&quot;:null}" fill="#282828" stroke="none" stroke-width="0.5" stroke-linecap="butt"/><path d="M325.01824,205.13318c1.01343,-0.73175 1.74518,0.28168 1.74518,0.28168l0.75969,1.19974c2.30919,0.36112 4.37922,0.78801 6.72688,0.782c2.77207,0.13047 2.61349,-0.63125 4.61612,-2.63388c1.27712,-1.27712 3.38841,-2.68662 4.28813,-4.21763c1.32404,-2.25306 0.84259,-7.47097 -2.23791,-8.19384c-1.88717,-0.44284 -4.74527,0.21575 -6.60875,0.48606c-2.49799,0.36235 -5.57658,0.38355 -6.37172,3.20459c0,0 -0.39529,1.18585 -1.58114,0.79057c-1.18585,-0.39529 -0.79057,-1.58114 -0.79057,-1.58114c1.66623,-4.55275 6.65026,-4.8379 10.92029,-5.255c0.74012,-0.07229 4.62178,-0.19985 5.09923,-0.05435c4.57249,1.39344 5.96969,7.98002 3.76209,11.80616c-0.99515,1.72476 -3.282,3.3525 -4.71187,4.78237c-2.48033,2.48034 -2.73808,3.24965 -6.38388,3.36612c-2.87046,-0.00666 -5.28346,-0.53459 -8.07893,-1.17916l-1.43451,-1.83909c0,0 -0.73175,-1.01343 0.28168,-1.74518z" data-paper-data="{&quot;index&quot;:null}" fill="#282828" stroke="none" stroke-width="0.5" stroke-linecap="butt"/><g data-paper-data="{&quot;index&quot;:null}" stroke="none" stroke-width="0" stroke-linecap="butt"><path d="M175.82371,262.14502c0.76368,-1.59588 6.25877,-2.75803 13.07881,-2.53268c6.82003,0.22535 11.12696,1.63024 10.32507,3.30598c-0.80189,1.67575 -6.33609,2.74936 -13.11553,2.52535c-6.77944,-0.224 -11.05202,-1.70277 -10.28835,-3.29865z" fill="url(#color-71)"/><path d="M186.64411,264.46464c-4.52131,-0.14939 -7.37077,-1.13561 -6.86146,-2.19993c0.50931,-1.06432 4.17407,-1.83937 8.72247,-1.68909c4.54839,0.15028 7.42074,1.08724 6.88595,2.20481c-0.5348,1.11758 -4.22565,1.83359 -8.74696,1.6842z" fill="url(#color-72)"/><path d="M194.2347,261.19415l-7.66553,1.4797l-7.19313,-2.29687l8.18811,-1.28574z" fill="url(#color-73)"/><path d="M192.31252,264.58036l-5.88943,-1.91662l9.31711,-1.76468l5.10344,2.04458z" data-paper-data="{&quot;index&quot;:null}" fill="url(#color-74)"/></g><g data-paper-data="{&quot;index&quot;:null}" stroke="none" stroke-width="0" stroke-linecap="butt"><path d="M288.71354,262.30107c0.43,-1.71614 5.58284,-3.95106 12.31077,-5.09065c6.72792,-1.13959 11.22853,-0.62205 10.77702,1.17997c-0.45151,1.80203 -5.66033,3.95799 -12.34821,5.09079c-6.68788,1.13282 -11.16957,0.53603 -10.73958,-1.18011z" fill="url(#color-75)"/><path d="M299.77919,262.41569c-4.46025,0.75549 -7.44917,0.35748 -7.16239,-0.78704c0.28677,-1.14452 3.72328,-2.63502 8.21025,-3.39504c4.48696,-0.76002 7.48848,-0.41485 7.18737,0.78694c-0.30113,1.2018 -3.77498,2.63964 -8.23522,3.39513z" fill="url(#color-76)"/><path d="M306.56486,257.69681l-7.21632,2.97903l-7.50674,-0.81588l7.76709,-2.89321z" fill="url(#color-77)"/><path d="M305.35676,261.39839l-6.15339,-0.70332l8.77786,-3.58773l5.40872,0.98549z" data-paper-data="{&quot;index&quot;:null}" fill="url(#color-78)"/></g></g></g></svg>