<svg version="1.1" xmlns="http://www.w3.org/2000/svg" xmlns:xlink="http://www.w3.org/1999/xlink" width="814.92718" height="759.8183" viewBox="0,0,814.92718,759.8183"><g transform="translate(158.98199,199.90915)"><g data-paper-data="{&quot;isPaintingLayer&quot;:true}" fill="none" fill-rule="nonzero" stroke="#00383f" stroke-width="4" stroke-linecap="round" stroke-linejoin="miter" stroke-miterlimit="10" stroke-dasharray="" stroke-dashoffset="0" style="mix-blend-mode: normal"><g><g><g><g><g><g><path d="M92.9467,-17.44744v391.89189"/><path d="M116.97072,-17.44744v394.89489"/></g><g><path d="M142.49625,-17.44745v391.8919"/><path d="M166.52027,-17.44745v394.8949"/></g></g><g><g><path d="M189.79355,374.44445v-391.89189"/><path d="M213.81757,-17.44744v394.89489"/></g><g><path d="M239.34309,-17.44744v391.89189"/><path d="M263.36712,377.44745v-394.89489"/></g></g></g><g><g><g><path d="M-101.87312,374.44445v-391.89189"/><path d="M-77.8491,377.44745v-394.89489"/></g><g><path d="M-52.32357,-17.44744v391.89189"/><path d="M-28.29955,377.44745v-394.89489"/></g></g><g><g><path d="M-5.02627,-17.44744v391.89189"/><path d="M18.99775,-17.44744v394.89489"/></g><g><path d="M44.52327,-17.44744v391.89189"/><path d="M68.5473,-17.44744v394.89489"/></g></g></g></g><g><g><g><g><path d="M483.52478,-17.44744v391.89189"/><path d="M507.5488,-17.44744v394.89489"/></g><g><path d="M533.07432,-17.44744v391.89189"/><path d="M557.09835,-17.44744v394.89489"/></g></g><g><g><path d="M580.37162,374.44445v-391.89189"/><path d="M604.39564,-17.44744v394.89489"/></g><g><path d="M629.92117,-17.44744v391.89189"/><path d="M653.94519,-17.44744v394.89489"/></g></g></g><g><g><g><path d="M288.70496,-17.44744v391.89189"/><path d="M312.72898,377.44745v-394.89489"/></g><g><path d="M338.2545,-17.44744v391.89189"/><path d="M362.27853,-17.44744v394.89489"/></g></g><g><g><path d="M385.5518,-17.44744v391.89189"/><path d="M409.57582,-17.44744v394.89489"/></g><g><path d="M435.10135,374.44445v-391.89189"/><path d="M459.12537,-17.44744v394.89489"/></g></g></g></g></g><g><g><g><g><g><path d="M-156.98198,363.08934h787.92621"/><path d="M-156.98198,339.06532h793.96395"/></g><g><path d="M630.94424,313.53979h-787.92623"/><path d="M-156.98199,289.51577h793.96397"/></g></g><g><g><path d="M-156.98198,266.24249h787.92621"/><path d="M-156.98198,242.21847h793.96395"/></g><g><path d="M-156.98198,216.69295h787.92621"/><path d="M636.98197,192.66892h-793.96395"/></g></g></g><g><g><g><path d="M-156.98198,557.90915h787.92621"/><path d="M636.98197,533.88514h-793.96395"/></g><g><path d="M630.94423,508.35961h-787.92621"/><path d="M-156.98198,484.33559h793.96395"/></g></g><g><g><path d="M-156.98198,461.06231h787.92621"/><path d="M-156.98198,437.03829h793.96395"/></g><g><path d="M-156.98198,411.51277h787.92621"/><path d="M-156.98198,387.48874h793.96395"/></g></g></g></g><g><g><g><g><path d="M630.94423,-27.48874h-787.92621"/><path d="M636.98197,-51.51276h-793.96395"/></g><g><path d="M-156.98198,-77.03828h787.92621"/><path d="M-156.98198,-101.06231h793.96395"/></g></g><g><g><path d="M-156.98198,-124.33558h787.92621"/><path d="M-156.98198,-148.3596h793.96395"/></g><g><path d="M-156.98198,-173.88513h787.92621"/><path d="M-156.98198,-197.90915h793.96395"/></g></g></g><g><g><g><path d="M-156.98198,167.33108h787.92621"/><path d="M636.98197,143.30706h-793.96395"/></g><g><path d="M630.94423,117.78154h-787.92621"/><path d="M-156.98198,93.75751h793.96395"/></g></g><g><g><path d="M-156.98198,70.48424h787.92621"/><path d="M636.98197,46.46022h-793.96395"/></g><g><path d="M-156.98198,20.93469h787.92621"/><path d="M-156.98198,-3.08933h793.96395"/></g></g></g></g></g></g></g></g></svg>