<svg version="1.1" xmlns="http://www.w3.org/2000/svg" xmlns:xlink="http://www.w3.org/1999/xlink" width="73.4221" height="39.98335" viewBox="0,0,73.4221,39.98335"><defs><linearGradient x1="225.77699" y1="195.03102" x2="228.16707" y2="195.03102" gradientUnits="userSpaceOnUse" id="color-1"><stop offset="0" stop-color="#d4e0e4" stop-opacity="0"/><stop offset="1" stop-color="#d4e0e4"/></linearGradient><linearGradient x1="226.25318" y1="162.18004" x2="228.64326" y2="162.18004" gradientUnits="userSpaceOnUse" id="color-2"><stop offset="0" stop-color="#d4e0e4" stop-opacity="0"/><stop offset="1" stop-color="#d4e0e4"/></linearGradient><linearGradient x1="219.10231" y1="178.65507" x2="220.83211" y2="178.65507" gradientUnits="userSpaceOnUse" id="color-3"><stop offset="0" stop-color="#d4e0e4" stop-opacity="0"/><stop offset="1" stop-color="#d4e0e4"/></linearGradient><linearGradient x1="256.18753" y1="178.66667" x2="260.18753" y2="178.66667" gradientUnits="userSpaceOnUse" id="color-4"><stop offset="0" stop-color="#ccd8dc"/><stop offset="1" stop-color="#e3f0f5"/></linearGradient><radialGradient cx="223.72755" cy="171.4274" r="12.63635" gradientUnits="userSpaceOnUse" id="color-5"><stop offset="0" stop-color="#565656"/><stop offset="1" stop-color="#4d4d4d"/></radialGradient><radialGradient cx="223.72755" cy="186.4274" r="12.63635" gradientUnits="userSpaceOnUse" id="color-6"><stop offset="0" stop-color="#565656"/><stop offset="1" stop-color="#4d4d4d"/></radialGradient><linearGradient x1="256.48573" y1="186.73279" x2="259.79418" y2="186.73279" gradientUnits="userSpaceOnUse" id="color-7"><stop offset="0" stop-color="#898989"/><stop offset="1" stop-color="#a1a1a1"/></linearGradient><linearGradient x1="263.06253" y1="187.48611" x2="263.06253" y2="190.36111" gradientUnits="userSpaceOnUse" id="color-8"><stop offset="0" stop-color="#b7b7b7" stop-opacity="0"/><stop offset="1" stop-color="#b7b7b7"/></linearGradient><linearGradient x1="270.84103" y1="186.81997" x2="275.80368" y2="186.81997" gradientUnits="userSpaceOnUse" id="color-9"><stop offset="0" stop-color="#a1a1a1"/><stop offset="1" stop-color="#898989"/></linearGradient><linearGradient x1="280.04737" y1="187.68569" x2="280.04737" y2="190.1128" gradientUnits="userSpaceOnUse" id="color-10"><stop offset="0" stop-color="#b7b7b7" stop-opacity="0"/><stop offset="1" stop-color="#b7b7b7"/></linearGradient><linearGradient x1="256.48573" y1="170.84391" x2="259.79418" y2="170.84391" gradientUnits="userSpaceOnUse" id="color-11"><stop offset="0" stop-color="#898989"/><stop offset="1" stop-color="#a1a1a1"/></linearGradient><linearGradient x1="263.06253" y1="171.59723" x2="263.06253" y2="174.47223" gradientUnits="userSpaceOnUse" id="color-12"><stop offset="0" stop-color="#b7b7b7" stop-opacity="0"/><stop offset="1" stop-color="#b7b7b7"/></linearGradient><linearGradient x1="270.84103" y1="170.93109" x2="275.80368" y2="170.93109" gradientUnits="userSpaceOnUse" id="color-13"><stop offset="0" stop-color="#a1a1a1"/><stop offset="1" stop-color="#898989"/></linearGradient><linearGradient x1="280.04737" y1="171.79681" x2="280.04737" y2="174.22392" gradientUnits="userSpaceOnUse" id="color-14"><stop offset="0" stop-color="#b7b7b7" stop-opacity="0"/><stop offset="1" stop-color="#b7b7b7"/></linearGradient><linearGradient x1="239.76887" y1="168.14166" x2="239.76887" y2="169.71309" gradientUnits="userSpaceOnUse" id="color-15"><stop offset="0" stop-color="#000000" stop-opacity="0"/><stop offset="1" stop-color="#000000"/></linearGradient><linearGradient x1="242.61616" y1="172.57024" x2="242.61616" y2="174.14167" gradientUnits="userSpaceOnUse" id="color-16"><stop offset="0" stop-color="#000000"/><stop offset="1" stop-color="#000000" stop-opacity="0"/></linearGradient><linearGradient x1="239.17509" y1="183.14166" x2="239.17509" y2="184.71309" gradientUnits="userSpaceOnUse" id="color-17"><stop offset="0" stop-color="#000000" stop-opacity="0"/><stop offset="1" stop-color="#000000"/></linearGradient><linearGradient x1="239.68757" y1="187.57024" x2="239.68757" y2="189.14167" gradientUnits="userSpaceOnUse" id="color-18"><stop offset="0" stop-color="#000000"/><stop offset="1" stop-color="#000000" stop-opacity="0"/></linearGradient><radialGradient cx="223.72755" cy="171.2478" r="12.63635" gradientUnits="userSpaceOnUse" id="color-19"><stop offset="0" stop-color="#727272"/><stop offset="1" stop-color="#656565"/></radialGradient><linearGradient x1="282.40387" y1="171.63714" x2="282.40387" y2="174.25253" gradientUnits="userSpaceOnUse" id="color-20"><stop offset="0" stop-color="#e80000" stop-opacity="0"/><stop offset="1" stop-color="#e80000"/></linearGradient><linearGradient x1="282.40387" y1="187.52602" x2="282.40387" y2="190.14141" gradientUnits="userSpaceOnUse" id="color-21"><stop offset="0" stop-color="#e80000" stop-opacity="0"/><stop offset="1" stop-color="#e80000"/></linearGradient><linearGradient x1="257.60004" y1="167.03714" x2="257.60004" y2="174.73714" gradientUnits="userSpaceOnUse" id="color-22"><stop offset="0" stop-color="#232323"/><stop offset="1" stop-color="#404040"/></linearGradient><linearGradient x1="257.60004" y1="182.94269" x2="257.60004" y2="190.64269" gradientUnits="userSpaceOnUse" id="color-23"><stop offset="0" stop-color="#232323"/><stop offset="1" stop-color="#404040"/></linearGradient><radialGradient cx="223.72755" cy="186.2478" r="12.63635" gradientUnits="userSpaceOnUse" id="color-24"><stop offset="0" stop-color="#727272"/><stop offset="1" stop-color="#656565"/></radialGradient></defs><g transform="translate(-212.77023,-158.61386)"><g data-paper-data="{&quot;isPaintingLayer&quot;:true}" fill-rule="nonzero" stroke-linejoin="miter" stroke-miterlimit="10" stroke-dasharray="" stroke-dashoffset="0" style="mix-blend-mode: normal"><g><g data-paper-data="{&quot;index&quot;:null}"><path d="M228.41794,198.27616l-5.60041,-1.56841v-6.12374l4.48033,0.07208l1.79214,0.85629z" fill="#e3f0f5" stroke="#e3f0f5" stroke-width="0.5" stroke-linecap="round"/><path d="M228.15973,198.34134l-2.38272,-0.67465v-6.8112l2.39006,0.8652z" fill="url(#color-1)" stroke="none" stroke-width="0" stroke-linecap="butt"/></g><path d="M286.19234,186.72922c0,1.89355 -0.57563,3.42857 -1.28571,3.42857c-0.71008,0 -1.28572,-1.53502 -1.28572,-3.42857c0,-1.89355 0.57564,-3.42857 1.28572,-3.42857c0.71008,0 1.28571,1.53502 1.28571,3.42857z" fill="#1b1b1b" stroke="none" stroke-width="NaN" stroke-linecap="butt"/><path d="M286.19234,170.84034c0,1.89355 -0.57563,3.42857 -1.28571,3.42857c-0.71008,0 -1.28572,-1.53502 -1.28572,-3.42857c0,-1.89355 0.57564,-3.42857 1.28572,-3.42857c0.71008,0 1.28571,1.53502 1.28571,3.42857z" fill="#1b1b1b" stroke="none" stroke-width="NaN" stroke-linecap="butt"/><g><path d="M229.56619,165.69868l-1.79214,0.85629l-4.48033,0.07208v-6.12374l5.60041,-1.56841z" fill="#e3f0f5" stroke="#e3f0f5" stroke-width="0.5" stroke-linecap="round"/><path d="M228.64326,165.49037l-2.39006,0.8652v-6.8112l2.38272,-0.67465z" fill="url(#color-2)" stroke="none" stroke-width="0" stroke-linecap="butt"/></g><g><path d="M221.33796,190.38236l-4.05329,-2.49886v-4.34014l3.89116,-1.84128l0.32426,-5.39229l-1.29706,-0.78912l-3.24263,-1.84127v-4.34014l4.05329,-2.10431z" fill="#e3f0f5" stroke="#e3f0f5" stroke-width="0.5" stroke-linecap="round"/><path d="M219.10231,189.2575v-6.70326l1.71669,-0.97479l0.01312,-5.54914l-1.7298,-0.92625v-7.0514l1.72449,-0.90517v23.01517z" fill="url(#color-3)" stroke="none" stroke-width="0" stroke-linecap="butt"/></g><path d="M256.18753,190.66667v-24h4v24z" fill="url(#color-4)" stroke="none" stroke-width="0" stroke-linecap="butt"/><path d="M241.79297,171.40422c0,0 -9.6698,1.04562 -14.09621,1.0665c-3.94143,0.0186 -11.17652,-0.94727 -11.17652,-0.94727" data-paper-data="{&quot;index&quot;:null}" fill="none" stroke="url(#color-5)" stroke-width="7.5" stroke-linecap="round"/><path d="M241.79297,186.40422c0,0 -9.6698,1.04562 -14.09621,1.0665c-3.94143,0.0186 -11.17652,-0.94727 -11.17652,-0.94727" data-paper-data="{&quot;index&quot;:null}" fill="none" stroke="url(#color-6)" stroke-width="7.5" stroke-linecap="round"/><path d="M249.31857,189.95861v-6.45165h21.29807v6.45165z" fill="#a1a1a1" stroke="#a1a1a1" stroke-width="0.5" stroke-linecap="butt"/><path d="M256.48573,190.30735v-7.14913h3.30844v7.14913z" fill="url(#color-7)" stroke="none" stroke-width="0" stroke-linecap="butt"/><path d="M255.06255,190.36111v-2.875h16v2.875z" fill="url(#color-8)" stroke="none" stroke-width="0" stroke-linecap="butt"/><path d="M270.84103,189.78424v-5.92854h4.96267v5.92854z" fill="url(#color-9)" stroke="none" stroke-width="0" stroke-linecap="butt"/><path d="M275.90954,189.89707v-6.26194h8.27111v6.26194z" fill="#a1a1a1" stroke="#a1a1a1" stroke-width="0.5" stroke-linecap="butt"/><path d="M275.56748,190.1128v-2.42709h8.95974v2.42709z" fill="url(#color-10)" stroke="none" stroke-width="0" stroke-linecap="butt"/><path d="M249.31857,174.06973v-6.45165h21.29807v6.45165z" fill="#a1a1a1" stroke="#a1a1a1" stroke-width="0.5" stroke-linecap="butt"/><path d="M256.48573,174.41847v-7.14913h3.30844v7.14913z" fill="url(#color-11)" stroke="none" stroke-width="0" stroke-linecap="butt"/><path d="M255.06255,174.47223v-2.875h16v2.875z" fill="url(#color-12)" stroke="none" stroke-width="0" stroke-linecap="butt"/><path d="M270.84103,173.89536v-5.92854h4.96267v5.92854z" fill="url(#color-13)" stroke="none" stroke-width="0" stroke-linecap="butt"/><path d="M275.90954,174.00819v-6.26194h8.27111v6.26194z" fill="#a1a1a1" stroke="#a1a1a1" stroke-width="0.5" stroke-linecap="butt"/><path d="M275.56748,174.22392v-2.42709h8.95974v2.42709z" fill="url(#color-14)" stroke="none" stroke-width="0" stroke-linecap="butt"/><path d="M230.50006,163.04752h22.57143" fill="none" stroke="#232323" stroke-width="1.5" stroke-linecap="round"/><path d="M230.21434,194.11418h22.57143" fill="none" stroke="#232323" stroke-width="1.5" stroke-linecap="round"/><path d="M228.61676,159.54137h22.68986v21.42049h-22.68986z" fill="#ccd8dc" stroke="none" stroke-width="0" stroke-linecap="butt"/><path d="M228.77543,159.59737h22.37251v6.18814h-22.37251z" fill="#e3f0f5" stroke="none" stroke-width="0" stroke-linecap="butt"/><path d="M228.43497,176.51108h22.68986v21.42049h-22.68986z" fill="#ccd8dc" stroke="none" stroke-width="0" stroke-linecap="butt"/><path d="M228.59364,191.68744h22.37251v6.18814h-22.37251z" fill="#e3f0f5" stroke="none" stroke-width="0" stroke-linecap="butt"/><path d="M220.81769,165.81127h35.54323v25.54592h-35.54323z" fill="#e3f0f5" stroke="none" stroke-width="0" stroke-linecap="butt"/><path d="M220.85421,166.85973h29.28125v4.90625l-2.15625,2.15625h-9.0625l-1.9375,1.9375h-16.125z" data-paper-data="{&quot;index&quot;:null}" fill="#232323" stroke="#000000" stroke-width="0" stroke-linecap="round"/><path d="M229.35721,169.71309v-1.57143h20.82335v1.57143z" data-paper-data="{&quot;index&quot;:null}" fill="url(#color-15)" stroke="none" stroke-width="0" stroke-linecap="butt"/><path d="M249.36438,172.57024l-1.4,1.57143h-18.69643v-1.57143z" data-paper-data="{&quot;index&quot;:null}" fill="url(#color-16)" stroke="none" stroke-width="0" stroke-linecap="butt"/><path d="M220.85421,181.52639h16.125l1.9375,1.9375h9.0625l2.15625,2.15625v4.90625h-29.28125z" fill="#232323" stroke="#000000" stroke-width="0" stroke-linecap="round"/><path d="M229.32785,187.58815v-2.85744h26.6945v2.85744z" fill="#2c2c2c" stroke="none" stroke-width="0" stroke-linecap="butt"/><path d="M229.32785,172.58815v-2.85744h26.6945v2.85744z" fill="#2c2c2c" stroke="none" stroke-width="0" stroke-linecap="butt"/><path d="M229.21436,184.71309v-1.57143h18.52143l1.7,1.57143z" fill="url(#color-17)" stroke="none" stroke-width="0" stroke-linecap="butt"/><path d="M250.0358,187.57024v1.57143h-20.69643v-1.57143z" data-paper-data="{&quot;index&quot;:null}" fill="url(#color-18)" stroke="none" stroke-width="0" stroke-linecap="butt"/><path d="M239.87565,177.21751c0.00405,-0.34609 0.29876,-0.58186 0.29876,-0.58186c0.1687,-0.13459 1.62515,-1.30057 1.65021,-1.29995c1.93616,0.04755 2.68727,2.08841 4.16497,2.79196c1.87254,0.89154 4.36098,0.13082 5.8127,1.91371c3.05023,3.74608 -2.08724,3.63791 -4.34978,2.28039c-3.06269,-1.2361 -6.88434,0.07988 -7.69223,-4.40573l-0.01021,-0.26615c0,0 0,-0.22784 0.12557,-0.43236z" fill="#d8e4e8" stroke="none" stroke-width="0.5" stroke-linecap="butt"/><path d="M238.37837,167.65409c-0.14709,0.73544 -0.88252,0.58835 -0.88252,0.58835l-0.84574,-0.18194c-1.07849,-0.4393 -2.35632,-0.60492 -3.44291,-0.14286c0,0 -0.69636,0.27854 -0.9749,-0.41781c-0.27854,-0.69636 0.41781,-0.9749 0.41781,-0.9749c1.4927,-0.57152 3.0789,-0.43967 4.55709,0.14286l0.58283,0.10378c0,0 0.73544,0.14709 0.58835,0.88252z" fill="#1b1b1b" stroke="none" stroke-width="0.5" stroke-linecap="butt"/><path d="M249.10721,190.36415c0,0.75 -0.75,0.75 -0.75,0.75h-0.85714c-2.03603,-0.00365 -3.92948,-0.42857 -6,-0.42857c0,0 -0.75,0 -0.75,-0.75c0,-0.75 0.75,-0.75 0.75,-0.75c2.06216,0 3.9817,0.43259 6,0.42857h0.85714c0,0 0.75,0 0.75,0.75z" fill="#1b1b1b" stroke="none" stroke-width="0.5" stroke-linecap="butt"/><path d="M221.64293,188.18558c0.75,0 0.75,0.75 0.75,0.75l-0.10688,0.0427c0.4121,0.76804 0.63703,0.804 1.49974,0.77873c0,0 0.75,0 0.75,0.75c0,0.75 -0.75,0.75 -0.75,0.75c-1.40126,-0.02731 -2.02694,-0.32043 -2.78598,-1.50699l-0.10688,-0.81444c0,0 0,-0.75 0.75,-0.75z" fill="#1b1b1b" stroke="none" stroke-width="0.5" stroke-linecap="butt"/><path d="M221.92863,166.75701c0.75,0 0.75,0.75 0.75,0.75l-0.0102,0.26616c-0.08915,0.52465 -0.13436,1.05882 -0.13265,1.59099c0,0 0,0.75 -0.75,0.75c-0.75,0 -0.75,-0.75 -0.75,-0.75c0.00171,-0.61465 0.05368,-1.23102 0.15306,-1.83758l-0.0102,-0.01956c0,0 0,-0.75 0.75,-0.75z" fill="#1b1b1b" stroke="none" stroke-width="0.5" stroke-linecap="butt"/><path d="M248.1709,176.41384c-0.33541,0.67082 -1.00623,0.33541 -1.00623,0.33541l-0.88264,-0.44194c-0.24642,-0.14764 -0.49283,-0.29527 -0.73925,-0.44291c0,0 -0.64312,-0.38587 -0.25725,-1.02899c0.38587,-0.64312 1.02899,-0.25725 1.02899,-0.25725c0.22977,0.13808 0.45955,0.27616 0.68932,0.41424l0.83165,0.41521c0,0 0.67082,0.33541 0.33541,1.00623z" fill="#d8e4e8" stroke="none" stroke-width="0.5" stroke-linecap="butt"/><path d="M254.93287,178.77157c0.73544,0.14709 0.58835,0.88252 0.58835,0.88252l-0.18194,0.84574c-0.09524,0.2381 -0.19048,0.47619 -0.28571,0.71429c0,0 -0.27854,0.69636 -0.9749,0.41781c-0.69636,-0.27854 -0.41781,-0.9749 -0.41781,-0.9749c0.09524,-0.2381 0.19048,-0.47619 0.28571,-0.71429l0.10378,-0.58283c0,0 0.14709,-0.73544 0.88252,-0.58835z" fill="#d8e4e8" stroke="none" stroke-width="0.5" stroke-linecap="butt"/><path d="M251.21436,159.44752h-22.57143" fill="none" stroke="#ccd8dc" stroke-width="1.5" stroke-linecap="round"/><path d="M251.0715,197.78085h-22.57143" fill="none" stroke="#ccd8dc" stroke-width="1.5" stroke-linecap="round"/><path d="M216.52024,171.15176c0,0 7.23509,-0.96587 11.17652,-0.94727c4.42641,0.02088 14.09621,1.0665 14.09621,1.0665" fill="none" stroke="url(#color-19)" stroke-width="7.5" stroke-linecap="round"/><path d="M228.39586,194.17628v-3h22.70833v3z" fill="#323232" stroke="none" stroke-width="0" stroke-linecap="butt"/><path d="M228.62964,166.17628v-3h22.70833v3z" fill="#323232" stroke="none" stroke-width="0" stroke-linecap="butt"/><path d="M228.61461,163.76449v-1.44643h22.71726v1.44643z" fill="#232323" stroke="none" stroke-width="0" stroke-linecap="butt"/><path d="M228.44156,194.835v-1.44643h22.71726v1.44643z" fill="#232323" stroke="none" stroke-width="0" stroke-linecap="butt"/><path d="M220.78578,191.16844h35.71428" fill="none" stroke="#1b1b1b" stroke-width="1.5" stroke-linecap="round"/><path d="M220.64289,166.16843h35.71428" fill="none" stroke="#1b1b1b" stroke-width="1.5" stroke-linecap="round"/><path d="M284.25484,174.26985v-6.79762h0.875v6.79762z" fill="#1b1b1b" stroke="none" stroke-width="NaN" stroke-linecap="butt"/><path d="M284.35481,190.15873v-6.79762h0.875v6.79762z" fill="#1b1b1b" stroke="none" stroke-width="NaN" stroke-linecap="butt"/><path d="M280.4738,190.13908v-6.81818h3.90909v6.81819z" fill="#ff0000" stroke="none" stroke-width="0" stroke-linecap="butt"/><path d="M280.39687,174.2502v-6.81818h3.90909v6.81819z" fill="#ff0000" stroke="none" stroke-width="0" stroke-linecap="butt"/><path d="M220.58334,181.80555v-7h16.5v7z" fill="#323232" stroke="none" stroke-width="0" stroke-linecap="butt"/><path d="M280.40387,174.25253v-2.61539h4v2.61539z" fill="url(#color-20)" stroke="none" stroke-width="0" stroke-linecap="butt"/><path d="M280.40387,190.14141v-2.61539h4v2.61539z" fill="url(#color-21)" stroke="none" stroke-width="0" stroke-linecap="butt"/><path d="M256.35004,174.73714v-7.7h2.5v7.7z" fill="url(#color-22)" stroke="none" stroke-width="0" stroke-linecap="butt"/><path d="M256.35004,190.64269v-7.7h2.5v7.7z" fill="url(#color-23)" stroke="none" stroke-width="0" stroke-linecap="butt"/><g stroke-linecap="butt"><path d="M255.31966,180.22008c0,0 -0.31333,-0.53093 -0.36364,-1.23912c-0.05,-0.70394 0.36364,-1.20289 0.36364,-1.20289h2.68009v2.44201z" fill="#a1a1a1" stroke="#a1a1a1" stroke-width="0.5"/><path d="M258.02868,180.32212v-2.65092h0.34123v2.65092z" fill="#1b1b1b" stroke="none" stroke-width="NaN"/><path d="M258.78425,178.98469c0,0.79367 -0.22448,1.43706 -0.5014,1.43706c-0.27692,0 -0.5014,-0.64339 -0.5014,-1.43706c0,-0.79367 0.22448,-1.43706 0.5014,-1.43706c0.27692,0 0.5014,0.64339 0.5014,1.43706z" fill="#1b1b1b" stroke="none" stroke-width="NaN"/></g><path d="M216.52024,186.15176c0,0 7.23509,-0.96587 11.17652,-0.94727c4.42641,0.02088 14.09621,1.0665 14.09621,1.0665" fill="none" stroke="url(#color-24)" stroke-width="7.5" stroke-linecap="round"/><g fill="none" stroke="#5a5a5a" stroke-width="1.5" stroke-linecap="round"><path d="M221.91667,167.80555v5.66667"/><path d="M218.41667,168.13889v5.66667"/><path d="M215.25,168.47222v5.66666"/><path d="M229.08334,167.63888v5.66667"/><path d="M235.91667,167.97222v5.66666"/><path d="M232.41667,167.63888v5.66667"/><path d="M239.25,168.13889v5.66667"/><path d="M242.75,168.30555v5.66667"/><path d="M225.58334,167.63888v5.66667"/></g><g fill="none" stroke="#5a5a5a" stroke-width="1.5" stroke-linecap="round"><path d="M221.91667,182.80555v5.66667"/><path d="M218.41667,183.13889v5.66667"/><path d="M215.25,183.47222v5.66666"/><path d="M229.08334,182.63889v5.66667"/><path d="M235.91667,182.97222v5.66666"/><path d="M232.41667,182.63889v5.66667"/><path d="M239.25,183.13889v5.66667"/><path d="M242.75,183.30555v5.66667"/><path d="M225.58334,182.63889v5.66667"/></g></g></g></g></svg>