<svg version="1.1" xmlns="http://www.w3.org/2000/svg" xmlns:xlink="http://www.w3.org/1999/xlink" width="48.55171" height="56.87927" viewBox="0,0,48.55171,56.87927"><defs><linearGradient x1="240.02585" y1="154.06036" x2="240.02585" y2="198.77253" gradientUnits="userSpaceOnUse" id="color-1"><stop offset="0" stop-color="#828282"/><stop offset="1" stop-color="#747474"/></linearGradient><linearGradient x1="240.02585" y1="154.06036" x2="240.02585" y2="198.77253" gradientUnits="userSpaceOnUse" id="color-2"><stop offset="0" stop-color="#828282"/><stop offset="1" stop-color="#747474"/></linearGradient><linearGradient x1="240.10739" y1="162.00455" x2="240.10739" y2="187.14741" gradientUnits="userSpaceOnUse" id="color-3"><stop offset="0" stop-color="#828282"/><stop offset="1" stop-color="#747474"/></linearGradient></defs><g transform="translate(-215.55865,-151.56036)"><g data-paper-data="{&quot;isPaintingLayer&quot;:true}" fill-rule="nonzero" stroke-linejoin="miter" stroke-miterlimit="10" stroke-dasharray="" stroke-dashoffset="0" style="mix-blend-mode: normal"><path d="M217.62221,205.93963v-44.71217c0,0 -0.10819,0 0.43644,0c3.30926,0 36.32893,0 43.5,0c0.89824,0 0.77573,0 0.77573,0v44.71217c0,0 0.01575,0 -0.77573,0c-3.87606,0 -35.75289,0 -43.125,0c-0.99869,0 -0.81144,0 -0.81144,0z" fill="#696969" stroke="#696969" stroke-width="5" stroke-linecap="butt"/><path d="M217.67392,198.77253v-44.71217c0,0 -0.10819,0 0.43644,0c3.30926,0 36.32893,0 43.5,0c0.89824,0 0.77573,0 0.77573,0v44.71217c0,0 0.01575,0 -0.77573,0c-3.87606,0 -35.75289,0 -43.125,0c-0.99869,0 -0.81144,0 -0.81144,0z" fill="url(#color-1)" stroke="url(#color-2)" stroke-width="5" stroke-linecap="butt"/><path d="M261.52524,197.88789l-43.6,0.2" fill="none" stroke="#17ff00" stroke-width="2.5" stroke-linecap="round"/><path d="M262.06273,158.2575l-0.125,28.75h-3.5l-12.25,-13.5v-15.25z" data-paper-data="{&quot;index&quot;:null}" fill="#727272" stroke="#717171" stroke-width="0.5" stroke-linecap="round"/><path d="M218.32524,154.88786l43.6,-0.2" fill="none" stroke="#17ff00" stroke-width="2.5" stroke-linecap="round"/><path d="M218.06274,194.1325l0.125,-28.75h3.5l12.25,13.5v15.25z" fill="#727272" stroke="#717171" stroke-width="0.5" stroke-linecap="round"/><path d="M252.41095,176.20098c0,6.94301 -5.56446,12.57143 -12.42857,12.57143c-6.86411,0 -12.42857,-5.62842 -12.42857,-12.57143c0,-6.94301 5.56446,-12.57143 12.42857,-12.57143c6.86411,0 12.42857,5.62842 12.42857,12.57143z" fill="none" stroke="#17ff00" stroke-width="4" stroke-linecap="butt"/><path d="M252.41096,176.20098c0,6.94301 -5.56446,12.57143 -12.42857,12.57143c-6.86411,0 -12.42857,-5.62842 -12.42857,-12.57143c0,-6.94301 5.56446,-12.57143 12.42857,-12.57143c6.86411,0 12.42857,5.62842 12.42857,12.57143z" fill="#585858" stroke="#6a6a6a" stroke-width="0.5" stroke-linecap="butt"/><path d="M252.53596,174.57598c0,6.94301 -5.56446,12.57143 -12.42857,12.57143c-6.86411,0 -12.42857,-5.62842 -12.42857,-12.57143c0,-6.94301 5.56446,-12.57143 12.42857,-12.57143c6.86411,0 12.42857,5.62842 12.42857,12.57143z" fill="url(#color-3)" stroke="#7b7b7b" stroke-width="0.5" stroke-linecap="butt"/><g fill="none" stroke-width="1.5" stroke-linecap="round"><g><g><g stroke="#17ff00"><path d="M239.67604,168.68782h0.78174"/><path d="M241.99365,168.89045l0.75674,0.19607"/></g><g><path d="M244.10644,170.12434l0.49314,0.60656" stroke="#17ff00"/><path d="M245.73645,172.76133l-0.32524,-0.71086" stroke="#505050"/></g></g><g data-paper-data="{&quot;index&quot;:null}"><g stroke="#505050"><path d="M245.93384,175.28674l-0.02128,-0.78144"/><path d="M245.59768,177.58939l0.1754,-0.76181"/></g><g stroke="#17ff00"><path d="M244.00422,179.4826l0.59292,-0.50946"/><path d="M242.00549,180.67432l0.70175,-0.34447"/></g></g></g><g data-paper-data="{&quot;index&quot;:null}"><g><g><path d="M240.42158,180.97499h-0.78174" stroke="#17ff00"/><path d="M237.34725,180.5763l0.75675,0.19607" stroke="#505050"/></g><g><path d="M235.99118,179.53847l-0.49314,-0.60656" stroke="#505050"/><path d="M234.68641,177.61234l-0.32523,-0.71086" stroke="#17ff00"/></g></g><g data-paper-data="{&quot;index&quot;:null}"><g stroke="#17ff00"><path d="M234.18508,175.15754l-0.02128,-0.78144"/><path d="M234.32455,172.83527l0.1754,-0.76181"/></g><g stroke="#505050"><path d="M236.09341,170.18022l-0.59292,0.50946"/><path d="M238.09213,168.9885l-0.70175,0.34447"/></g></g></g></g><path d="M243.31274,174.80038c0,2.00203 -1.567,3.625 -3.5,3.625c-1.933,0 -3.5,-1.62297 -3.5,-3.625c0,-2.00203 1.567,-3.625 3.5,-3.625c1.933,0 3.5,1.62297 3.5,3.625z" fill="#b3c9b8" stroke="none" stroke-width="1.5" stroke-linecap="butt"/></g></g></svg>