<svg version="1.1" xmlns="http://www.w3.org/2000/svg" xmlns:xlink="http://www.w3.org/1999/xlink" width="90" height="87" viewBox="0,0,90,87"><g transform="translate(-195,-136.5)"><g data-paper-data="{&quot;isPaintingLayer&quot;:true}" fill-rule="nonzero" stroke="none" stroke-linejoin="miter" stroke-miterlimit="10" stroke-dasharray="" stroke-dashoffset="0" style="mix-blend-mode: normal"><path d="M246.15,186.01252v-5l3.4,0.9v4.1z" fill="#bbbbbb" stroke-width="0" stroke-linecap="butt"/><path d="M245.5265,167.94245v4.39126h-0.53705c-2.40098,0.04214 -4.33862,0.67398 -5.81289,1.89551c-1.45323,1.20049 -2.32726,2.8854 -2.62211,5.05469c1.43218,-1.45323 3.23289,-2.17982 5.40221,-2.17982c2.31675,0 4.15958,0.84243 5.52858,2.52734c1.39004,1.66382 2.08506,3.85421 2.08506,6.5711c0,1.74809 -0.3791,3.32768 -1.1373,4.73877c-0.7582,1.41109 -1.83233,2.51682 -3.22237,3.31715c-1.36899,0.77925 -2.9275,1.1689 -4.67559,1.1689c-2.82221,0 -5.10734,-0.97933 -6.85541,-2.93802c-1.727,-1.97974 -2.59053,-4.6124 -2.59053,-7.89795v-1.89551c0,-2.90644 0.54761,-5.47593 1.64278,-7.7084c1.11626,-2.23247 2.69584,-3.95952 4.73877,-5.18106c2.06402,-1.22154 4.45446,-1.84286 7.17136,-1.8639zM240.31385,181.36896c-0.84243,0 -1.62173,0.23168 -2.33779,0.69502c-0.69502,0.44228 -1.21102,1.03198 -1.54799,1.76914v1.61119c0,1.79019 0.34752,3.19079 1.04254,4.20172c0.71607,0.98989 1.70595,1.48483 2.96963,1.48483c1.13731,0 2.05347,-0.45282 2.74849,-1.35844c0.71607,-0.90562 1.07413,-2.07453 1.07413,-3.50668c0,-1.45323 -0.35806,-2.63267 -1.07413,-3.53829c-0.69502,-0.90562 -1.6533,-1.35844 -2.87484,-1.35844z" fill="#bbbbbb" stroke-width="1" stroke-linecap="square"/><path d="M245.53379,164.57265v4.39127h-0.53705c-2.40098,0.04211 -4.33861,0.67395 -5.81289,1.89551c-1.45323,1.20049 -2.32726,2.88537 -2.62211,5.05469c1.43216,-1.45323 3.2329,-2.17983 5.40221,-2.17983c2.31673,0 4.15959,0.84245 5.52856,2.52734c1.39004,1.66384 2.08506,3.85421 2.08506,6.5711c0,1.74808 -0.37911,3.32766 -1.13731,4.73878c-0.7582,1.4111 -1.83232,2.51681 -3.22237,3.31715c-1.36897,0.77928 -2.92752,1.16891 -4.67559,1.16891c-2.82219,0 -5.10733,-0.97934 -6.85541,-2.93803c-1.72702,-1.97976 -2.59053,-4.6124 -2.59053,-7.89795v-1.89551c0,-2.90644 0.54758,-5.47591 1.64278,-7.7084c1.11623,-2.23249 2.69583,-3.9595 4.73877,-5.18106c2.06399,-1.22156 4.45446,-1.84286 7.17135,-1.8639zM240.32115,177.99916c-0.84246,0 -1.62171,0.23167 -2.33779,0.69502c-0.69502,0.44228 -1.21102,1.032 -1.54799,1.76914v1.6112c0,1.79021 0.34752,3.19079 1.04254,4.20172c0.71608,0.98987 1.70596,1.48483 2.96964,1.48483c1.13731,0 2.05347,-0.45282 2.74849,-1.35844c0.71609,-0.90563 1.07412,-2.07453 1.07412,-3.50668c0,-1.45323 -0.35804,-2.63264 -1.07412,-3.53829c-0.69502,-0.90563 -1.6533,-1.35844 -2.87484,-1.35844z" fill="#f3f3f3" stroke-width="1" stroke-linecap="square"/><path d="M195,223.5v-87h90v87z" fill="none" stroke-width="0" stroke-linecap="butt"/></g></g></svg>