<svg version="1.1" xmlns="http://www.w3.org/2000/svg" xmlns:xlink="http://www.w3.org/1999/xlink" width="22.37878" height="16.55427" viewBox="0,0,22.37878,16.55427"><g transform="translate(-228.81061,-171.72286)"><g data-paper-data="{&quot;isPaintingLayer&quot;:true}" fill-rule="nonzero" stroke-linecap="butt" stroke-linejoin="miter" stroke-miterlimit="10" stroke-dasharray="" stroke-dashoffset="0" style="mix-blend-mode: normal"><path d="M230.45209,176.79751l1.28452,-5.07464l19.45278,4.92402l-1.28455,5.07463z" fill="#8d8d8d" stroke="none" stroke-width="0"/><path d="M228.81061,183.28173l1.89826,-7.49921l19.73472,4.99541l-1.89826,7.49921z" fill="#b7b7b7" stroke="#000000" stroke-width="0"/><path d="M232.46485,181.88181c-0.81747,-0.20694 -1.31239,-1.03733 -1.10546,-1.85478c0.20693,-0.81744 1.03732,-1.31236 1.85477,-1.10543c0.81747,0.20694 1.31239,1.03733 1.10546,1.85478c-0.20694,0.81747 -1.03733,1.31239 -1.85478,1.10546z" fill="#8d8d8d" stroke="none" stroke-width="0.5"/><path d="M238.05428,182.02168c0.20694,-0.81747 1.03733,-1.31239 1.85478,-1.10546c0.81747,0.20694 1.31239,1.03733 1.10546,1.85478c-0.20694,0.81747 -1.03733,1.31239 -1.85478,1.10546c-0.81744,-0.20693 -1.31239,-1.03733 -1.10546,-1.85478z" fill="#8d8d8d" stroke="none" stroke-width="0.5"/><path d="M244.79817,185.30373c-0.81747,-0.20694 -1.31239,-1.03733 -1.10546,-1.85478c0.20694,-0.81747 1.03733,-1.31239 1.85478,-1.10546c0.81747,0.20694 1.31239,1.03733 1.10546,1.85478c-0.20693,0.81744 -1.03732,1.31236 -1.85477,1.10543z" fill="#8d8d8d" stroke="none" stroke-width="0.5"/></g></g></svg>