<svg version="1.1" xmlns="http://www.w3.org/2000/svg" xmlns:xlink="http://www.w3.org/1999/xlink" width="54.99936" height="73.67853" viewBox="0,0,54.99936,73.67853"><defs><radialGradient cx="242.43092" cy="208.21143" r="8.89813" gradientUnits="userSpaceOnUse" id="color-1"><stop offset="0" stop-color="#fff696"/><stop offset="1" stop-color="#fff696" stop-opacity="0"/></radialGradient><radialGradient cx="242.02697" cy="205.428" r="12.35459" gradientUnits="userSpaceOnUse" id="color-2"><stop offset="0" stop-color="#fcd81d"/><stop offset="1" stop-color="#fcd81d" stop-opacity="0"/></radialGradient><linearGradient x1="242.66088" y1="204.32198" x2="242.66088" y2="221.18561" gradientUnits="userSpaceOnUse" id="color-3"><stop offset="0" stop-color="#ffffff"/><stop offset="1" stop-color="#ffffff" stop-opacity="0"/></linearGradient><radialGradient cx="242.59148" cy="208.44531" r="6.32236" gradientUnits="userSpaceOnUse" id="color-4"><stop offset="0" stop-color="#ffee35"/><stop offset="1" stop-color="#ffee35" stop-opacity="0"/></radialGradient><linearGradient x1="243.25139" y1="125.00034" x2="243.25139" y2="219.02639" gradientUnits="userSpaceOnUse" id="color-5"><stop offset="0" stop-color="#a300f2"/><stop offset="1" stop-color="#a300f2" stop-opacity="0"/></linearGradient><linearGradient x1="243.48912" y1="96.98158" x2="243.48912" y2="225.00219" gradientUnits="userSpaceOnUse" id="color-6"><stop offset="0" stop-color="#f1f1f1"/><stop offset="1" stop-color="#f1f1f1" stop-opacity="0"/></linearGradient><linearGradient x1="242.48081" y1="204.61823" x2="242.48081" y2="212.52599" gradientUnits="userSpaceOnUse" id="color-7"><stop offset="0" stop-color="#ff4f00"/><stop offset="1" stop-color="#ff4f00" stop-opacity="0"/></linearGradient><linearGradient x1="242.54882" y1="204.86497" x2="242.54882" y2="210.2108" gradientUnits="userSpaceOnUse" id="color-8"><stop offset="0" stop-color="#ffd400"/><stop offset="1" stop-color="#ffd400" stop-opacity="0"/></linearGradient><linearGradient x1="242.55109" y1="204.50691" x2="242.55109" y2="213.38923" gradientUnits="userSpaceOnUse" id="color-9"><stop offset="0" stop-color="#ffee00"/><stop offset="1" stop-color="#ffee00" stop-opacity="0"/></linearGradient><linearGradient x1="242.62362" y1="204.43396" x2="242.62362" y2="208.32134" gradientUnits="userSpaceOnUse" id="color-10"><stop offset="0" stop-color="#ffee00"/><stop offset="1" stop-color="#ffee00" stop-opacity="0"/></linearGradient><linearGradient x1="240.58087" y1="204.50691" x2="240.58087" y2="208.39429" gradientUnits="userSpaceOnUse" id="color-11"><stop offset="0" stop-color="#ffee00"/><stop offset="1" stop-color="#ffee00" stop-opacity="0"/></linearGradient><linearGradient x1="244.66639" y1="204.50691" x2="244.66639" y2="208.39429" gradientUnits="userSpaceOnUse" id="color-12"><stop offset="0" stop-color="#ffee00"/><stop offset="1" stop-color="#ffee00" stop-opacity="0"/></linearGradient><radialGradient cx="242.42669" cy="207.64309" r="6.32236" gradientUnits="userSpaceOnUse" id="color-13"><stop offset="0" stop-color="#feea00"/><stop offset="1" stop-color="#feea00" stop-opacity="0"/></radialGradient><linearGradient x1="247.26349" y1="206.02092" x2="238.22942" y2="206.02092" gradientUnits="userSpaceOnUse" id="color-14"><stop offset="0" stop-color="#5f5f5f"/><stop offset="1" stop-color="#4c4c4c"/></linearGradient><linearGradient x1="247.26349" y1="206.02092" x2="238.22942" y2="206.02092" gradientUnits="userSpaceOnUse" id="color-15"><stop offset="0" stop-color="#949494"/><stop offset="1" stop-color="#757575"/></linearGradient><linearGradient x1="246.98493" y1="204.21928" x2="244.05388" y2="204.21928" gradientUnits="userSpaceOnUse" id="color-16"><stop offset="0" stop-color="#4c4c4c"/><stop offset="1" stop-color="#4c4c4c" stop-opacity="0"/></linearGradient><linearGradient x1="238.50862" y1="204.21927" x2="241.43967" y2="204.21927" gradientUnits="userSpaceOnUse" id="color-17"><stop offset="0" stop-color="#5f5f5f"/><stop offset="1" stop-color="#5f5f5f" stop-opacity="0"/></linearGradient><linearGradient x1="242.76318" y1="206.57577" x2="242.76318" y2="212.8485" gradientUnits="userSpaceOnUse" id="color-18"><stop offset="0" stop-color="#fccf00"/><stop offset="1" stop-color="#fccf00" stop-opacity="0"/></linearGradient><linearGradient x1="260.8438" y1="175.04168" x2="260.8438" y2="181.16668" gradientUnits="userSpaceOnUse" id="color-19"><stop offset="0" stop-color="#ff8800"/><stop offset="1" stop-color="#ffc500"/></linearGradient><linearGradient x1="223.99539" y1="175.04168" x2="223.99539" y2="181.16668" gradientUnits="userSpaceOnUse" id="color-20"><stop offset="0" stop-color="#ff8800"/><stop offset="1" stop-color="#ffc500"/></linearGradient><linearGradient x1="254.49548" y1="171.04763" x2="254.49548" y2="180.4979" gradientUnits="userSpaceOnUse" id="color-21"><stop offset="0" stop-color="#ff8800"/><stop offset="1" stop-color="#ffc500"/></linearGradient><linearGradient x1="257.73998" y1="173.47077" x2="257.73998" y2="180.61906" gradientUnits="userSpaceOnUse" id="color-22"><stop offset="0" stop-color="#ff8800"/><stop offset="1" stop-color="#ffc500"/></linearGradient><linearGradient x1="230.39333" y1="171.04763" x2="230.39333" y2="180.4979" gradientUnits="userSpaceOnUse" id="color-23"><stop offset="0" stop-color="#ff8800"/><stop offset="1" stop-color="#ffc500"/></linearGradient><linearGradient x1="227.14887" y1="173.47077" x2="227.14887" y2="180.61906" gradientUnits="userSpaceOnUse" id="color-24"><stop offset="0" stop-color="#ff8800"/><stop offset="1" stop-color="#ffc500"/></linearGradient><linearGradient x1="245.03529" y1="167.87077" x2="239.67927" y2="167.87077" gradientUnits="userSpaceOnUse" id="color-25"><stop offset="0" stop-color="#5f5f5f"/><stop offset="1" stop-color="#a8a8a8"/></linearGradient><linearGradient x1="242.31632" y1="161.54813" x2="242.31632" y2="162.48361" gradientUnits="userSpaceOnUse" id="color-26"><stop offset="0" stop-color="#7a7a7a"/><stop offset="1" stop-color="#646464"/></linearGradient><linearGradient x1="243.23349" y1="165.17487" x2="243.04813" y2="165.17487" gradientUnits="userSpaceOnUse" id="color-27"><stop offset="0" stop-color="#00eeec"/><stop offset="1" stop-color="#1cfff4"/></linearGradient><linearGradient x1="245.93062" y1="195.55477" x2="242.408" y2="195.55477" gradientUnits="userSpaceOnUse" id="color-28"><stop offset="0" stop-color="#0e4d62"/><stop offset="1" stop-color="#126884"/></linearGradient><linearGradient x1="238.9781" y1="195.55477" x2="242.50072" y2="195.55477" gradientUnits="userSpaceOnUse" id="color-29"><stop offset="0" stop-color="#0e4d62"/><stop offset="1" stop-color="#126884"/></linearGradient><linearGradient x1="252.2453" y1="179.1031" x2="248.74329" y2="179.1031" gradientUnits="userSpaceOnUse" id="color-30"><stop offset="0" stop-color="#105972"/><stop offset="1" stop-color="#105972" stop-opacity="0"/></linearGradient><linearGradient x1="266.73231" y1="183.34818" x2="262.06899" y2="183.34818" gradientUnits="userSpaceOnUse" id="color-31"><stop offset="0" stop-color="#ff9b00"/><stop offset="1" stop-color="#e68100"/></linearGradient><linearGradient x1="232.46922" y1="193.40468" x2="229.7912" y2="193.40468" gradientUnits="userSpaceOnUse" id="color-32"><stop offset="0" stop-color="#009dd2"/><stop offset="1" stop-color="#009dd2" stop-opacity="0"/></linearGradient><linearGradient x1="243.46701" y1="178.0902" x2="241.14126" y2="178.0902" gradientUnits="userSpaceOnUse" id="color-33"><stop offset="0" stop-color="#c7ffff"/><stop offset="1" stop-color="#91f5f5"/></linearGradient><linearGradient x1="232.60534" y1="189.16526" x2="229.82428" y2="189.16526" gradientUnits="userSpaceOnUse" id="color-34"><stop offset="0" stop-color="#105972"/><stop offset="1" stop-color="#105972" stop-opacity="0"/></linearGradient><linearGradient x1="244.20537" y1="192.76641" x2="240.72395" y2="192.76641" gradientUnits="userSpaceOnUse" id="color-35"><stop offset="0" stop-color="#8b8b8b"/><stop offset="1" stop-color="#7f7f7f"/></linearGradient><linearGradient x1="218.0878" y1="183.34818" x2="222.75113" y2="183.34818" gradientUnits="userSpaceOnUse" id="color-36"><stop offset="0" stop-color="#ff9b00"/><stop offset="1" stop-color="#e68100"/></linearGradient><linearGradient x1="249.82115" y1="156.16668" x2="249.82115" y2="180.97918" gradientUnits="userSpaceOnUse" id="color-37"><stop offset="0" stop-color="#e68100"/><stop offset="1" stop-color="#ff9b00"/></linearGradient><linearGradient x1="249.82115" y1="156.16668" x2="249.82115" y2="180.97918" gradientUnits="userSpaceOnUse" id="color-38"><stop offset="0" stop-color="#e68100"/><stop offset="1" stop-color="#ff9b00"/></linearGradient><linearGradient x1="235.10495" y1="156.04168" x2="235.10495" y2="180.85418" gradientUnits="userSpaceOnUse" id="color-39"><stop offset="0" stop-color="#e68100"/><stop offset="1" stop-color="#ff9b00"/></linearGradient><linearGradient x1="235.10495" y1="156.04168" x2="235.10495" y2="180.85418" gradientUnits="userSpaceOnUse" id="color-40"><stop offset="0" stop-color="#e68100"/><stop offset="1" stop-color="#ff9b00"/></linearGradient><linearGradient x1="247.8773" y1="187.03335" x2="245.18899" y2="187.03335" gradientUnits="userSpaceOnUse" id="color-41"><stop offset="0" stop-color="#ececec"/><stop offset="1" stop-color="#dbdbdb"/></linearGradient><linearGradient x1="246.53318" y1="183.33335" x2="246.53318" y2="187.03335" gradientUnits="userSpaceOnUse" id="color-42"><stop offset="0" stop-color="#000000" stop-opacity="0"/><stop offset="1" stop-color="#000000" stop-opacity="0"/></linearGradient><linearGradient x1="239.7197" y1="186.83335" x2="237.03139" y2="186.83335" gradientUnits="userSpaceOnUse" id="color-43"><stop offset="0" stop-color="#dbdbdb"/><stop offset="1" stop-color="#ececec"/></linearGradient><linearGradient x1="238.37554" y1="183.13335" x2="238.37554" y2="186.83335" gradientUnits="userSpaceOnUse" id="color-44"><stop offset="0" stop-color="#000000" stop-opacity="0"/><stop offset="1" stop-color="#000000" stop-opacity="0"/></linearGradient><linearGradient x1="252.3849" y1="159.66668" x2="247.17049" y2="159.66668" gradientUnits="userSpaceOnUse" id="color-45"><stop offset="0" stop-color="#ececec"/><stop offset="1" stop-color="#dbdbdb"/></linearGradient><linearGradient x1="252.3849" y1="159.66668" x2="247.17049" y2="159.66668" gradientUnits="userSpaceOnUse" id="color-46"><stop offset="0" stop-color="#ececec"/><stop offset="1" stop-color="#dbdbdb"/></linearGradient><linearGradient x1="237.78454" y1="159.54168" x2="232.57017" y2="159.54168" gradientUnits="userSpaceOnUse" id="color-47"><stop offset="0" stop-color="#dbdbdb"/><stop offset="1" stop-color="#ececec"/></linearGradient><linearGradient x1="237.78454" y1="159.54168" x2="232.57017" y2="159.54168" gradientUnits="userSpaceOnUse" id="color-48"><stop offset="0" stop-color="#dbdbdb"/><stop offset="1" stop-color="#ececec"/></linearGradient><linearGradient x1="244.57616" y1="197.61642" x2="240.35311" y2="197.61642" gradientUnits="userSpaceOnUse" id="color-49"><stop offset="0" stop-color="#8b8b8b"/><stop offset="1" stop-color="#7f7f7f"/></linearGradient><linearGradient x1="247.47562" y1="203.97262" x2="238.02106" y2="203.97262" gradientUnits="userSpaceOnUse" id="color-50"><stop offset="0" stop-color="#888888"/><stop offset="1" stop-color="#696969"/></linearGradient></defs><g transform="translate(-214.47284,-152.72222)"><g data-paper-data="{&quot;isPaintingLayer&quot;:true}" fill-rule="nonzero" stroke-linejoin="miter" stroke-miterlimit="10" stroke-dasharray="" stroke-dashoffset="0" style="mix-blend-mode: normal"><path d="M228.69503,200.38889v-2.66667h4.83333v2.66667z" data-paper-data="{&quot;index&quot;:null}" fill="#3195b6" stroke="none" stroke-width="NaN" stroke-linecap="butt"/><path d="M242.945,202.46667c-7.98272,0 -24.8,-7.8 -24.8,-7.8v-4.6h48.2v4.6c0,0 -15.31729,7.8 -23.4,7.8z" data-paper-data="{&quot;index&quot;:null}" fill="#3195b6" stroke="none" stroke-width="NaN" stroke-linecap="butt"/><path d="M230.69498,164.05555v-4.33333l8.63497,-6.78197l1.86503,-0.21803v11.33333z" data-paper-data="{&quot;index&quot;:null}" fill="#d2d2d2" stroke="none" stroke-width="0" stroke-linecap="butt"/><path d="M230.77002,179.22222v-16.66666h2.08333v16.66666z" data-paper-data="{&quot;index&quot;:null}" fill="#e48500" stroke="none" stroke-width="0" stroke-linecap="butt"/><path d="M217.19504,195.55556c-1.46936,0 -2.72219,-1 -2.72219,-1v-15.5h51.97768v15.5c0,0 -43.00525,1 -49.25549,1z" data-paper-data="{&quot;index&quot;:null}" fill="#3195b6" stroke="none" stroke-width="NaN" stroke-linecap="butt"/><path d="M242.43093,200.33697c4.31079,0 7.80538,3.52552 7.80538,7.87446c0,4.34894 -3.49458,7.87446 -7.80538,7.87446c-4.3108,0 -7.80538,-3.52552 -7.80538,-7.87446c0,-4.34894 3.49458,-7.87446 7.80538,-7.87446z" data-paper-data="{&quot;index&quot;:null}" fill="url(#color-1)" stroke="none" stroke-width="0" stroke-linecap="butt"/><path d="M242.02696,193.07341c6.73228,0 12.18987,5.53134 12.18987,12.35459c0,6.82325 -5.4576,12.35459 -12.18987,12.35459c-6.73228,0 -12.18986,-5.53134 -12.18986,-12.35459c0,-6.82325 5.45759,-12.35459 12.18986,-12.35459z" data-paper-data="{&quot;index&quot;:null}" fill="url(#color-2)" stroke="none" stroke-width="0" stroke-linecap="butt"/><path d="M245.16088,204.32198l-2.5,16.86364l-2.5,-16.86364z" data-paper-data="{&quot;index&quot;:null}" fill="url(#color-3)" stroke="#000000" stroke-width="0" stroke-linecap="round"/><path d="M242.59148,202.8503c3.06294,0 5.54593,2.50497 5.54593,5.59501c0,3.09004 -2.483,5.59501 -5.54593,5.59501c-3.06294,0 -5.54593,-2.50497 -5.54593,-5.59501c0,-3.09004 2.483,-5.59501 5.54593,-5.59501z" data-paper-data="{&quot;index&quot;:null}" fill="url(#color-4)" stroke="none" stroke-width="0" stroke-linecap="butt"/><g data-paper-data="{&quot;index&quot;:null}" stroke="#000000" stroke-width="0" stroke-linecap="round"><path d="M244.8136,205.12112l-2.35162,14.93246l-1.99752,-14.93246z" fill="url(#color-5)"/><path d="M245.61608,206.06954l-3.20183,20.33121l-2.71971,-20.33121z" fill="url(#color-6)"/><path d="M243.65236,204.61823c0,0 1.85822,0.46537 1.8305,2.41626c-0.06512,4.58168 -2.70914,5.49149 -2.70914,5.49149c0,0 -3.13397,-1.02334 -3.2949,-5.49149c-0.06733,-1.86924 1.90371,-2.41626 1.90371,-2.41626z" fill="url(#color-7)"/><path d="M243.3408,204.86497c0,0 1.2562,0.3146 1.23746,1.63345c-0.04402,3.09733 -1.83145,3.71239 -1.83145,3.71239c0,0 -2.11864,-0.69182 -2.22743,-3.71239c-0.04551,-1.26365 1.28696,-1.63345 1.28696,-1.63345z" fill="url(#color-8)"/><path d="M243.867,204.50691c0,0 2.08723,0.52272 2.05609,2.71404c-0.07315,5.14633 -3.04302,6.16828 -3.04302,6.16828c0,0 -3.52021,-1.14947 -3.70096,-6.16828c-0.07562,-2.0996 2.13833,-2.71404 2.13833,-2.71404z" fill="url(#color-9)"/><path d="M243.19954,204.43396c0,0 0.91349,0.22877 0.89985,1.18781c-0.03201,2.25231 -1.33179,2.69957 -1.33179,2.69957c0,0 -1.54063,-0.50307 -1.61974,-2.69957c-0.03309,-0.9189 0.93585,-1.18781 0.93585,-1.18781z" fill="url(#color-10)"/><path d="M241.15676,204.50691c0,0 0.91349,0.22877 0.89986,1.18781c-0.03201,2.25231 -1.33179,2.69957 -1.33179,2.69957c0,0 -1.54064,-0.50307 -1.61975,-2.69957c-0.0331,-0.91889 0.93585,-1.18781 0.93585,-1.18781z" fill="url(#color-11)"/><path d="M245.24231,204.50691c0,0 0.91349,0.22877 0.89986,1.18781c-0.03201,2.25231 -1.33179,2.69957 -1.33179,2.69957c0,0 -1.54064,-0.50307 -1.61975,-2.69957c-0.0331,-0.91889 0.93585,-1.18781 0.93585,-1.18781z" fill="url(#color-12)"/></g><path d="M242.4267,202.04808c3.06294,0 5.54593,2.50497 5.54593,5.59501c0,3.09004 -2.48299,5.59501 -5.54593,5.59501c-3.06294,0 -5.54593,-2.50497 -5.54593,-5.59501c0,-3.09003 2.48299,-5.59501 5.54593,-5.59501z" data-paper-data="{&quot;index&quot;:null}" fill="url(#color-13)" stroke="none" stroke-width="0" stroke-linecap="butt"/><path d="M242.74647,205.18001c2.4947,0 4.51705,0.37649 4.51705,0.84091c0,0.46442 -2.02235,0.84091 -4.51705,0.84091c-2.4947,0 -4.51705,-0.37649 -4.51705,-0.84091c0,-0.46442 2.02235,-0.84091 4.51705,-0.84091z" data-paper-data="{&quot;index&quot;:null}" fill="url(#color-14)" stroke="url(#color-15)" stroke-width="0.5" stroke-linecap="butt"/><path d="M246.98496,206.08134c0,0 -0.83087,0.27881 -1.2975,0.35477c-0.51676,0.08412 -1.66802,0.12799 -1.66802,0.12799l0.03448,-4.2069h2.93103v3.72414z" data-paper-data="{&quot;index&quot;:null}" fill="url(#color-16)" stroke="none" stroke-width="0" stroke-linecap="butt"/><path d="M238.50865,206.08134v-3.72414h2.93104l0.03448,4.2069c0,0 -1.15127,-0.04386 -1.66802,-0.12799c-0.46663,-0.07597 -1.2975,-0.35477 -1.2975,-0.35477z" data-paper-data="{&quot;index&quot;:null}" fill="url(#color-17)" stroke="none" stroke-width="0" stroke-linecap="butt"/><path d="M242.42042,200.81949v-6h2.5v6z" data-paper-data="{&quot;index&quot;:null}" fill="#0098ca" stroke="none" stroke-width="0" stroke-linecap="butt"/><path d="M239.96953,200.81949v-6h2.5v6z" data-paper-data="{&quot;index&quot;:null}" fill="#0098ca" stroke="none" stroke-width="0" stroke-linecap="butt"/><path d="M239.3086,212.8485v-6.27273c0,0 1.51673,-0.45454 3.45455,-0.45454c1.81656,0 3.45454,0.45454 3.45454,0.45454v6.27273z" data-paper-data="{&quot;index&quot;:null}" fill="url(#color-18)" stroke="none" stroke-width="0" stroke-linecap="butt"/><g data-paper-data="{&quot;index&quot;:null}"><g fill="none" stroke="#3195b6" stroke-width="1" stroke-linecap="round"><path d="M266.24249,194.65133l-16.10455,8.375h-8.64874"/><path d="M266.18287,193.77633l-16.10456,8.375h-8.64874"/><path d="M266.36179,192.83883l-16.10456,8.375h-8.64874"/></g><g fill="none" stroke="#3195b6" stroke-width="1" stroke-linecap="round"><path d="M241.06743,203.02633h-8.64874l-16.10455,-8.375"/><path d="M241.12708,202.15133h-8.64874l-16.10456,-8.375"/><path d="M240.94815,201.21383h-8.64874l-16.10456,-8.375"/></g><path d="M231.12139,203.4762v-3.42857h20.58656v3.42857z" fill="#0f566e" stroke="none" stroke-width="0" stroke-linecap="butt"/></g><g data-paper-data="{&quot;index&quot;:null}"><g><path d="M247.15147,173.32002l-7.83741,-1.36364l1.26409,-16.90909c0,0 0.37673,0.18974 0.75845,0.09091c0.38171,-0.09882 0.73137,-0.18471 1.34837,-0.63636c0.61701,-0.45165 1.43265,-1.36364 1.43265,-1.36364z" fill="#001820" stroke="#ff0000" stroke-width="0" stroke-linecap="round"/><path d="M260.8438,175.04168v6.125" fill="none" stroke="url(#color-19)" stroke-width="2" stroke-linecap="round"/><path d="M223.99539,175.04168v6.125" fill="none" stroke="url(#color-20)" stroke-width="2" stroke-linecap="round"/><g><g><path d="M264.02718,182.0408v-4.09091" fill="none" stroke="#b6b6b6" stroke-width="2.5" stroke-linecap="round"/><path d="M262.65774,183.02565v-3.91667" fill="none" stroke="#115e78" stroke-width="0.5" stroke-linecap="round"/><path d="M260.99332,183.24535v-4.31818h1.47477v4.31818z" fill="#136985" stroke="none" stroke-width="0" stroke-linecap="butt"/></g><path d="M263.6058,178.10898l0.04212,4.18182" fill="none" stroke="#c2c2c2" stroke-width="1.5" stroke-linecap="round"/></g><g data-paper-data="{&quot;index&quot;:null}"><g><path d="M220.73187,182.0408v-4.09091" fill="none" stroke="#b6b6b6" stroke-width="2.5" stroke-linecap="round"/><path d="M222.10131,183.02564v-3.91666" fill="none" stroke="#115e78" stroke-width="0.5" stroke-linecap="round"/><path d="M222.29093,183.24536v-4.31819h1.47478v4.31818z" fill="#136985" stroke="none" stroke-width="0" stroke-linecap="butt"/></g><path d="M221.15321,178.10898l-0.04213,4.18182" fill="none" stroke="#c2c2c2" stroke-width="1.5" stroke-linecap="round"/></g><g fill="none" stroke-width="2" stroke-linecap="round"><path d="M254.49548,180.49789v-9.45026" stroke="url(#color-21)"/><path d="M257.73998,173.47077v7.14828" stroke="url(#color-22)"/></g><g data-paper-data="{&quot;index&quot;:null}" fill="none" stroke-width="2" stroke-linecap="round"><path d="M230.39333,171.04763v9.45026" stroke="url(#color-23)"/><path d="M227.14887,173.47078v7.14828" stroke="url(#color-24)"/></g><path d="M239.67924,173.76976v-11.79798h5.35603v11.79798z" fill="url(#color-25)" stroke="none" stroke-width="0" stroke-linecap="butt"/><path d="M242.31631,161.54813c1.10277,0 1.99674,0.20942 1.99674,0.46775c0,0.25833 -0.89397,0.46774 -1.99674,0.46774c-1.10275,0 -1.99671,-0.20941 -1.99671,-0.46774c0,-0.25833 0.89394,-0.46775 1.99671,-0.46775z" fill="url(#color-26)" stroke="#7e7e7e" stroke-width="0.5" stroke-linecap="butt"/><path d="M267.16109,192.23967l-16.3642,8.625l-8.43408,0.03917l-0.04379,-21.91417l24.44707,-0.125z" fill="#3dbce6" stroke="#b6b6b6" stroke-width="0" stroke-linecap="round"/><path d="M266.34254,192.53621l-0.01189,-13.58974" fill="none" stroke="#0098ca" stroke-width="0.5" stroke-linecap="round"/><path d="M265.16002,179.88452l0.0713,12.23077" fill="none" stroke="#2fb2de" stroke-width="2" stroke-linecap="round"/><path d="M264.25591,180.24806v-1.35714h1.78779v1.35714z" fill="#00bcfb" stroke="none" stroke-width="0" stroke-linecap="butt"/><path d="M243.53076,199.60521v-19.28572" fill="none" stroke="#3195b6" stroke-width="2.5" stroke-linecap="round"/><path d="M242.33887,183.74806v-4.71428h2.31751v4.71428z" fill="#f00000" stroke="none" stroke-width="0" stroke-linecap="butt"/><path d="M252.82148,184.71383v7.1875" fill="none" stroke="#00bcfb" stroke-width="1" stroke-linecap="round"/><path d="M251.02539,183.77633l0.11587,8.6875" fill="none" stroke="#f50000" stroke-width="1" stroke-linecap="round"/><path d="M261.62802,189.08883v-7.9375" fill="none" stroke="#2fb2de" stroke-width="1" stroke-linecap="round"/><path d="M256.06597,193.96383v-11.875" fill="none" stroke="#2fb2de" stroke-width="1" stroke-linecap="round"/><path d="M248.18645,184.27633l0.05793,11.1875" fill="none" stroke="#fa0000" stroke-width="1" stroke-linecap="round"/><path d="M258.44145,189.21383l0.11587,5.125" fill="none" stroke="#2fb2de" stroke-width="1" stroke-linecap="round"/><path d="M245.92687,192.40133l0.05794,-11" fill="none" stroke="#fa0000" stroke-width="1" stroke-linecap="round"/><path d="M217.95724,178.86467l24.44707,0.125l-0.0438,21.91417l-8.43407,-0.03917l-16.3642,-8.625z" fill="#3dbce6" stroke="#b6b6b6" stroke-width="0" stroke-linecap="round"/><path d="M216.75109,191.86467v-13.125" fill="none" stroke="#b6b6b6" stroke-width="3" stroke-linecap="round"/><path d="M218.38078,192.53621l0.01188,-13.58974" fill="none" stroke="#0098ca" stroke-width="0.5" stroke-linecap="round"/><path d="M217.21013,191.88452v-13" fill="none" stroke="#c2c2c2" stroke-width="2" stroke-linecap="round"/><path d="M219.5633,179.88452l-0.0713,12.23077" fill="none" stroke="#2fb2de" stroke-width="2" stroke-linecap="round"/><path d="M218.67957,180.24806v-1.35714h1.7878v1.35714z" fill="#00b1ec" stroke="none" stroke-width="0" stroke-linecap="butt"/><path d="M241.19254,180.31949v19.28572" fill="none" stroke="#3195b6" stroke-width="2.5" stroke-linecap="round"/><path d="M240.06693,183.74806v-4.71428h2.31751v4.71428z" fill="#f00000" stroke="none" stroke-width="0" stroke-linecap="butt"/><path d="M231.90179,184.71383v7.1875" fill="none" stroke="#00bcfb" stroke-width="1" stroke-linecap="round"/><path d="M233.69785,183.77633l-0.11587,8.6875" fill="none" stroke="#f50000" stroke-width="1" stroke-linecap="round"/><path d="M223.09527,181.15133v7.9375" fill="none" stroke="#2fb2de" stroke-width="1" stroke-linecap="round"/><path d="M228.65728,193.96383v-11.875" fill="none" stroke="#2fb2de" stroke-width="1" stroke-linecap="round"/><path d="M236.53682,184.27633l-0.05793,11.1875" fill="none" stroke="#fa0000" stroke-width="1" stroke-linecap="round"/><path d="M226.28184,189.21383l-0.11588,5.125" fill="none" stroke="#2fb2de" stroke-width="1" stroke-linecap="round"/><path d="M238.7964,192.40133l-0.05794,-11" fill="none" stroke="#fa0000" stroke-width="1" stroke-linecap="round"/><path d="M241.34719,167.61264v-4.77419h0.23923v4.77419z" fill="#1dfffb" stroke="none" stroke-width="0" stroke-linecap="butt"/><path d="M243.78058,153.41091l-0.08427,17.45455c0,0 -0.23718,0.86024 -1.2641,0.90909c-1.05096,0.04999 -1.43265,-0.90909 -1.43265,-0.90909v-17.45455" fill="none" stroke="#0c4152" stroke-width="1" stroke-linecap="round"/><path d="M247.30127,199.5166l-10.72408,-0.0566l-2.73033,-0.71141l-0.19962,-37.7619l6.06837,-5.42857v15.95287c0,0 0.73395,1.79051 2.71658,1.79051c2.01791,0 2.75978,-1.92095 2.75978,-1.92095v-15.66277l5.92036,5.42857l0.16748,37.58147z" fill="#0f546c" stroke="#0f546c" stroke-width="2.5" stroke-linecap="round"/><path d="M246.78629,195.54754l0.10299,-18.33333" fill="none" stroke="#10576f" stroke-width="1" stroke-linecap="round"/><path d="M235.97128,188.99198l0.10299,-11.77777" fill="none" stroke="#10576f" stroke-width="1" stroke-linecap="round"/><path d="M238.64923,184.76976l-0.206,10.66666" fill="none" stroke="#10576f" stroke-width="1" stroke-linecap="round"/><path d="M244.93227,199.54754v-13.33333" fill="none" stroke="#10576f" stroke-width="1" stroke-linecap="round"/><path d="M239.98824,180.65865l-0.10299,-7" fill="none" stroke="#10576f" stroke-width="1" stroke-linecap="round"/><path d="M247.8163,173.10307l-0.206,-13.77777" fill="none" stroke="#10576f" stroke-width="1" stroke-linecap="round"/><path d="M234.73524,160.32531l0.206,12.11111" fill="none" stroke="#fa0000" stroke-width="1" stroke-linecap="round"/><path d="M237.51625,173.99198l-0.309,-13" fill="none" stroke="#10576f" stroke-width="1" stroke-linecap="round"/><path d="M243.0481,167.52489v-4.7h0.18541v4.7z" fill="url(#color-27)" stroke="none" stroke-width="0" stroke-linecap="butt"/><path d="M242.21439,167.70942v-4.80645h0.20932v4.80645z" fill="#1dfffb" stroke="none" stroke-width="0" stroke-linecap="butt"/><path d="M243.90166,183.26328l-1.35377,0.6931l-1.35377,-0.54738v-7.72276l1.39608,-0.91167l1.31146,1.05738z" fill="#8cffff" stroke="#7e7e7e" stroke-width="0.5" stroke-linecap="round"/><path d="M243.84113,175.94407l-1.2167,0.875l-1.33257,-1.125" fill="none" stroke="#55eded" stroke-width="0.5" stroke-linecap="round"/><path d="M241.52362,183.31907l1.15875,-0.8125l0.92701,0.6875" fill="none" stroke="#55eded" stroke-width="0.5" stroke-linecap="round"/><path d="M242.56649,175.00657l0.05794,1.5l-0.05794,6.5625l-0.17381,0.5625" fill="none" stroke="#4fdada" stroke-width="0.5" stroke-linecap="round"/><path d="M243.90166,183.26328l-1.35377,0.6931l-1.35377,-0.54738v-7.72276l1.39608,-0.91167l1.31146,1.05738z" fill="none" stroke="#7e7e7e" stroke-width="0.5" stroke-linecap="round"/><path d="M242.34989,182.33048l-0.90494,0.78572l0.02207,-6.9881l0.86079,0.82143z" fill="#5cffff" stroke="none" stroke-width="0" stroke-linecap="round"/><path d="M242.17904,183.49804l-0.47845,-0.13243l0.64214,-0.37012z" fill="#57f3f3" stroke="#56eeee" stroke-width="0" stroke-linecap="round"/><path d="M242.81109,176.96646l0.90493,-0.78572l-0.02207,6.80388l-0.86079,-0.66353z" data-paper-data="{&quot;index&quot;:null}" fill="#87ffff" stroke="none" stroke-width="0" stroke-linecap="round"/><path d="M242.408,200.90477v-10.7h3.52262v10.7z" fill="url(#color-28)" stroke="none" stroke-width="0" stroke-linecap="butt"/><path d="M238.9781,200.90477v-10.7h3.52262v10.7z" data-paper-data="{&quot;index&quot;:null}" fill="url(#color-29)" stroke="none" stroke-width="0" stroke-linecap="butt"/><path d="M242.79838,182.91654l0.56895,0.37011l-0.69801,0.34296z" data-paper-data="{&quot;index&quot;:null}" fill="#5afbfb" stroke="#56eeee" stroke-width="0" stroke-linecap="round"/><path d="M252.24535,160.78563l-0.103,39.33333l-1.44201,0.66667h-5.25303v-13.66667l3.70802,-3.77778v-11.77778l-1.85401,-1.88889l-0.103,-13.44444z" fill="#146e8c" stroke="#146e8c" stroke-width="0.5" stroke-linecap="round"/><path d="M250.9063,200.88088h-2.16302v-43.55556l3.50202,3.33333v39.44444z" fill="url(#color-30)" stroke="none" stroke-width="0" stroke-linecap="butt"/><path d="M237.72222,156.22214l-0.103,13.44444l-1.85401,1.88889v11.77778l3.70801,3.77777v13.66667h-5.25302l-1.44201,-0.66667l-0.103,-39.33333z" data-paper-data="{&quot;index&quot;:null}" fill="#146e8c" stroke="#146e8c" stroke-width="0.5" stroke-linecap="round"/><path d="M252.45646,178.97161l13.99776,-0.07778l-0.0927,6.44445l-13.90506,7.6z" fill="#146e8c" stroke="#146e8c" stroke-width="0.5" stroke-linecap="round"/><path d="M262.16738,178.63063l4.56493,-0.02536l-0.10056,6.99198l-4.56277,2.49384z" fill="url(#color-31)" stroke="#ff9b00" stroke-width="0" stroke-linecap="round"/><path d="M229.79121,198.59856v-11.74943h2.67801v13.11111z" fill="url(#color-32)" stroke="none" stroke-width="0" stroke-linecap="butt"/><path d="M232.46407,192.93828l-13.90506,-7.6l-0.09271,-6.44445l13.99777,0.07778z" data-paper-data="{&quot;index&quot;:null}" fill="#146e8c" stroke="#146e8c" stroke-width="0.5" stroke-linecap="round"/><g fill="none" stroke-linecap="round"><path d="M267.9722,191.86467v-13.125" stroke="#b6b6b6" stroke-width="3"/><path d="M267.51313,178.88452v13" stroke="#c2c2c2" stroke-width="2"/></g><path d="M240.09049,184.73335v-12.5h4.44962v12.5z" fill="#0f546c" stroke="none" stroke-width="0" stroke-linecap="butt"/><g stroke="#a6caca" stroke-width="0.5" stroke-linecap="round"><path d="M241.14125,175.62268c0,0 0.51738,-1.7675 1.15464,-1.7675c0.63725,0 1.15462,1.7675 1.15462,1.7675l0.01651,4.93504c0,0 -0.51737,1.7675 -1.15462,1.7675c-0.63725,0 -1.15462,-1.7675 -1.15462,-1.7675z" fill="url(#color-33)"/><path d="M243.33951,176.19633h-1.99438" fill="none"/><path d="M241.43576,177.58407h1.90374" fill="none"/><path d="M243.43016,179.80444h-2.08503" fill="none"/><path d="M241.42412,178.39883h2.08503" fill="none"/></g><path d="M229.82433,191.91526v-13.17857h2.78101v14.60714z" fill="url(#color-34)" stroke="none" stroke-width="0" stroke-linecap="butt"/><path d="M240.72397,194.18308v-2.83333h3.48141v2.83333z" fill="url(#color-35)" stroke="none" stroke-width="0" stroke-linecap="butt"/><path d="M243.01828,193.94446v-2.41667" fill="none" stroke="#9e9e9e" stroke-width="0.5" stroke-linecap="round"/><path d="M241.85953,193.94446v-2.41667" fill="none" stroke="#9e9e9e" stroke-width="0.5" stroke-linecap="round"/><path d="M222.75113,188.0911l-4.56277,-2.49384l-0.10058,-6.99199l4.56494,0.02536z" data-paper-data="{&quot;index&quot;:null}" fill="url(#color-36)" stroke="#ff9b00" stroke-width="0" stroke-linecap="round"/><path d="M252.269,160.66668v17l-3.0707,3.3125v-9.4375l-1.82503,-1.96875l-0.23175,-13.53125z" fill="url(#color-37)" stroke="url(#color-38)" stroke-width="0.5" stroke-linecap="round"/><path d="M237.78457,155.91668l-0.23175,13.53125l-1.82504,1.96875v9.4375l-3.0707,-3.3125v-17z" data-paper-data="{&quot;index&quot;:null}" fill="url(#color-39)" stroke="url(#color-40)" stroke-width="0.5" stroke-linecap="round"/><path d="M245.18898,189.93335v-2.9l2.68832,-2.9v2.9z" fill="url(#color-41)" stroke="url(#color-42)" stroke-width="0" stroke-linecap="butt"/><path d="M237.03138,186.83335v-2.9l2.68832,2.9v2.9z" data-paper-data="{&quot;index&quot;:null}" fill="url(#color-43)" stroke="url(#color-44)" stroke-width="0" stroke-linecap="butt"/><path d="M252.38489,160.54168v1.375l-5.2144,1.625v-7.75z" fill="url(#color-45)" stroke="url(#color-46)" stroke-width="0.5" stroke-linecap="round"/><path d="M237.78459,155.66668v7.75l-5.2144,-1.45834v-1.54166z" data-paper-data="{&quot;index&quot;:null}" fill="url(#color-47)" stroke="url(#color-48)" stroke-width="0.5" stroke-linecap="round"/></g><path d="M240.35315,200.28308v-5.33334h4.22302v5.33334z" fill="url(#color-49)" stroke="none" stroke-width="0" stroke-linecap="butt"/></g><g data-paper-data="{&quot;index&quot;:null}"><path d="M247.47564,206.10898c0,0 -2.50116,-0.63636 -4.68182,-0.63636c-2.15034,0 -4.77273,0.63636 -4.77273,0.63636v-4.27273c0,0 2.53888,-0.48772 4.72727,-0.5c2.18918,-0.01228 4.72727,0.5 4.72727,0.5v4.27273z" fill="url(#color-50)" stroke="none" stroke-width="0" stroke-linecap="butt"/><path d="M238.77834,205.54808v-3.68" fill="none" stroke="#656565" stroke-width="0.5" stroke-linecap="round"/><path d="M239.93833,201.66808v3.64" fill="none" stroke="#6a6a6a" stroke-width="0.5" stroke-linecap="round"/><path d="M241.01835,201.54808l0.04,3.64" fill="none" stroke="#6f6f6f" stroke-width="0.5" stroke-linecap="round"/><path d="M242.21835,205.14808l-0.08,-3.68" fill="none" stroke="#747474" stroke-width="0.5" stroke-linecap="round"/><path d="M243.29832,201.42808l0.04,3.76" fill="none" stroke="#787878" stroke-width="0.5" stroke-linecap="round"/><path d="M244.41836,201.50808v3.76" fill="none" stroke="#7b7b7b" stroke-width="0.5" stroke-linecap="round"/></g></g></g></svg>