<svg version="1.1" xmlns="http://www.w3.org/2000/svg" xmlns:xlink="http://www.w3.org/1999/xlink" width="86.49679" height="35.96727" viewBox="0,0,86.49679,35.96727"><defs><linearGradient x1="215.2495" y1="210.04677" x2="215.0428" y2="160.64272" gradientUnits="userSpaceOnUse" id="color-1"><stop offset="0" stop-color="#24ffff"/><stop offset="1" stop-color="#24ffff" stop-opacity="0"/></linearGradient><radialGradient cx="215.2068" cy="180.35189" r="10.813" gradientUnits="userSpaceOnUse" id="color-2"><stop offset="0" stop-color="#24ffff"/><stop offset="1" stop-color="#24ffff" stop-opacity="0"/></radialGradient><linearGradient x1="231.76061" y1="206.80208" x2="205.37024" y2="165.03665" gradientUnits="userSpaceOnUse" id="color-3"><stop offset="0" stop-color="#24ffff"/><stop offset="1" stop-color="#24ffff" stop-opacity="0"/></linearGradient><linearGradient x1="185.37739" y1="170.08087" x2="232.03138" y2="186.33536" gradientUnits="userSpaceOnUse" id="color-4"><stop offset="0" stop-color="#24ffff"/><stop offset="1" stop-color="#24ffff" stop-opacity="0"/></linearGradient><linearGradient x1="193.82194" y1="157.58753" x2="226.32038" y2="194.79847" gradientUnits="userSpaceOnUse" id="color-5"><stop offset="0" stop-color="#24ffff"/><stop offset="1" stop-color="#24ffff" stop-opacity="0"/></linearGradient><linearGradient x1="244.208" y1="167.15253" x2="200.06571" y2="189.33949" gradientUnits="userSpaceOnUse" id="color-6"><stop offset="0" stop-color="#24ffff"/><stop offset="1" stop-color="#24ffff" stop-opacity="0"/></linearGradient><linearGradient x1="268.14087" y1="209.63032" x2="267.93416" y2="160.22627" gradientUnits="userSpaceOnUse" id="color-7"><stop offset="0" stop-color="#24ffff"/><stop offset="1" stop-color="#24ffff" stop-opacity="0"/></linearGradient><radialGradient cx="268.09817" cy="179.93544" r="10.813" gradientUnits="userSpaceOnUse" id="color-8"><stop offset="0" stop-color="#24ffff"/><stop offset="1" stop-color="#24ffff" stop-opacity="0"/></radialGradient><linearGradient x1="284.65198" y1="206.38564" x2="258.26161" y2="164.6202" gradientUnits="userSpaceOnUse" id="color-9"><stop offset="0" stop-color="#24ffff"/><stop offset="1" stop-color="#24ffff" stop-opacity="0"/></linearGradient><linearGradient x1="238.26876" y1="169.66443" x2="284.92275" y2="185.91891" gradientUnits="userSpaceOnUse" id="color-10"><stop offset="0" stop-color="#24ffff"/><stop offset="1" stop-color="#24ffff" stop-opacity="0"/></linearGradient><linearGradient x1="246.7133" y1="157.17108" x2="279.21175" y2="194.38202" gradientUnits="userSpaceOnUse" id="color-11"><stop offset="0" stop-color="#24ffff"/><stop offset="1" stop-color="#24ffff" stop-opacity="0"/></linearGradient><linearGradient x1="297.09937" y1="166.73609" x2="252.95709" y2="188.92304" gradientUnits="userSpaceOnUse" id="color-12"><stop offset="0" stop-color="#24ffff"/><stop offset="1" stop-color="#24ffff" stop-opacity="0"/></linearGradient></defs><g transform="translate(-199.11931,-160.21745)"><g data-paper-data="{&quot;isPaintingLayer&quot;:true}" fill-rule="nonzero" stroke="none" stroke-linecap="butt" stroke-linejoin="miter" stroke-miterlimit="10" stroke-dasharray="" stroke-dashoffset="0" style="mix-blend-mode: normal"><g><path d="M217.15018,160.6339l-1.96001,20.84159l-2.25477,-20.82396z" fill="url(#color-1)" stroke-width="0"/><path d="M204.3938,180.35189c0,-5.97186 4.84114,-10.813 10.813,-10.813c5.97186,0 10.813,4.84114 10.813,10.813c0,5.97186 -4.84114,10.813 -10.813,10.813c-5.97186,0 -10.813,-4.84114 -10.813,-10.813z" fill="url(#color-2)" stroke-width="0.5"/><path d="M207.1518,163.91094l9.39782,18.70548l-12.96092,-16.45405z" fill="url(#color-3)" stroke-width="0"/><path d="M231.33803,188.32544l-18.9602,-8.90124l20.34691,4.92107z" data-paper-data="{&quot;index&quot;:null}" fill="url(#color-4)" stroke-width="0"/><path d="M224.7331,196.18472l-12.07153,-17.11723l15.24608,14.3447z" data-paper-data="{&quot;index&quot;:null}" fill="url(#color-5)" stroke-width="0"/><path d="M199.11931,187.45654l19.53359,-7.5268l-17.64077,11.29268z" data-paper-data="{&quot;index&quot;:null}" fill="url(#color-6)" stroke-width="0"/></g><g><path d="M270.04156,160.21745l-1.96002,20.84159l-2.25476,-20.82396z" fill="url(#color-7)" stroke-width="0"/><path d="M257.28517,179.93544c0,-5.97186 4.84114,-10.813 10.813,-10.813c5.97186,0 10.813,4.84114 10.813,10.813c0,5.97186 -4.84114,10.813 -10.813,10.813c-5.97186,0 -10.813,-4.84114 -10.813,-10.813z" fill="url(#color-8)" stroke-width="0.5"/><path d="M260.04317,163.49449l9.39781,18.70548l-12.96093,-16.45406z" fill="url(#color-9)" stroke-width="0"/><path d="M284.22939,187.90899l-18.9602,-8.90124l20.34691,4.92108z" data-paper-data="{&quot;index&quot;:null}" fill="url(#color-10)" stroke-width="0"/><path d="M277.62447,195.76828l-12.07153,-17.11722l15.24608,14.3447z" data-paper-data="{&quot;index&quot;:null}" fill="url(#color-11)" stroke-width="0"/><path d="M252.01067,187.0401l19.5336,-7.5268l-17.64077,11.29269z" data-paper-data="{&quot;index&quot;:null}" fill="url(#color-12)" stroke-width="0"/></g></g></g></svg>