<svg version="1.1" xmlns="http://www.w3.org/2000/svg" xmlns:xlink="http://www.w3.org/1999/xlink" width="230" height="230" viewBox="0,0,230,230"><defs><linearGradient x1="277.59737" y1="173.36458" x2="241.32822" y2="173.36458" gradientUnits="userSpaceOnUse" id="color-1"><stop offset="0" stop-color="#e0e0e0" stop-opacity="0"/><stop offset="1" stop-color="#e0e0e0"/></linearGradient><linearGradient x1="271.03281" y1="177.60554" x2="241.13674" y2="177.60554" gradientUnits="userSpaceOnUse" id="color-2"><stop offset="0" stop-color="#e0e0e0" stop-opacity="0"/><stop offset="1" stop-color="#e0e0e0"/></linearGradient><linearGradient x1="265.08828" y1="182.04303" x2="238.67505" y2="182.04303" gradientUnits="userSpaceOnUse" id="color-3"><stop offset="0" stop-color="#e0e0e0" stop-opacity="0"/><stop offset="1" stop-color="#e0e0e0"/></linearGradient><linearGradient x1="256.57871" y1="186.42114" x2="232.93106" y2="186.42114" gradientUnits="userSpaceOnUse" id="color-4"><stop offset="0" stop-color="#e0e0e0" stop-opacity="0"/><stop offset="1" stop-color="#e0e0e0"/></linearGradient><linearGradient x1="202.453" y1="173.49257" x2="238.72216" y2="173.49257" gradientUnits="userSpaceOnUse" id="color-5"><stop offset="0" stop-color="#e0e0e0" stop-opacity="0"/><stop offset="1" stop-color="#e0e0e0"/></linearGradient><linearGradient x1="209.01756" y1="177.73353" x2="238.91363" y2="177.73353" gradientUnits="userSpaceOnUse" id="color-6"><stop offset="0" stop-color="#e0e0e0" stop-opacity="0"/><stop offset="1" stop-color="#e0e0e0"/></linearGradient><linearGradient x1="214.96211" y1="182.17102" x2="241.37532" y2="182.17102" gradientUnits="userSpaceOnUse" id="color-7"><stop offset="0" stop-color="#e0e0e0" stop-opacity="0"/><stop offset="1" stop-color="#e0e0e0"/></linearGradient><linearGradient x1="223.47167" y1="186.54913" x2="247.11932" y2="186.54913" gradientUnits="userSpaceOnUse" id="color-8"><stop offset="0" stop-color="#e0e0e0" stop-opacity="0"/><stop offset="1" stop-color="#e0e0e0"/></linearGradient></defs><g transform="translate(-125,-65)"><g data-paper-data="{&quot;isPaintingLayer&quot;:true}" fill-rule="nonzero" stroke-linejoin="miter" stroke-miterlimit="10" stroke-dasharray="" stroke-dashoffset="0" style="mix-blend-mode: normal"><g fill="none" stroke-width="2.5" stroke-linecap="round"><g data-paper-data="{&quot;index&quot;:null}"><path d="M277.59737,173.36458h-36.26916" stroke="url(#color-1)"/><path d="M271.03281,177.60554h-29.89607" stroke="url(#color-2)"/><path d="M265.08826,182.04303h-26.41321" stroke="url(#color-3)"/><path d="M256.57871,186.42114h-17.8707" stroke="url(#color-4)"/></g><g><path d="M202.453,173.49257h36.26915" stroke="url(#color-5)"/><path d="M209.01756,177.73353h29.89607" stroke="url(#color-6)"/><path d="M214.9621,182.17102h26.41322" stroke="url(#color-7)"/><path d="M242.21766,186.54913h-18.74599" stroke="url(#color-8)"/></g></g><path d="M125,295v-230h230v230z" fill="none" stroke="none" stroke-width="NaN" stroke-linecap="butt"/><path d="M236.58758,190.45l-0.02021,-1.00037l2.28608,-1.80917l0.18877,-2.29046l-2.42511,-0.29103l-0.02953,-11.00897c0,0 0.16913,-4.5 3.42871,-4.5c3.59725,0 3.58456,4.5 3.58456,4.5l-0.07178,11.06794l-2.49975,0.23206l0.1938,2.28203l2.40434,1.80862l-0.0266,1.00935z" fill="#21ff6a" stroke="#00ba3e" stroke-width="4" stroke-linecap="butt"/><path d="M236.58758,190.45001l-0.02021,-1.00037l2.28608,-1.80917l0.18877,-2.29046l-2.42511,-0.29103l-0.02953,-11.00897c0,0 0.16912,-4.5 3.42871,-4.5c3.59725,0 3.58456,4.5 3.58456,4.5l-0.07177,11.06794l-2.49976,0.23206l0.1938,2.28203l2.40434,1.80862l-0.02661,1.00935z" fill="#21ff6a" stroke="#21ff6a" stroke-width="1" stroke-linecap="butt"/></g></g></svg>