<svg version="1.1" xmlns="http://www.w3.org/2000/svg" xmlns:xlink="http://www.w3.org/1999/xlink" width="195" height="195" viewBox="0,0,195,195"><g transform="translate(-142.5,-82.5)"><g data-paper-data="{&quot;isPaintingLayer&quot;:true}" fill-rule="nonzero" stroke-linejoin="miter" stroke-miterlimit="10" stroke-dasharray="" stroke-dashoffset="0" style="mix-blend-mode: normal"><path d="M206.79147,184.56423c-0.56374,0 -1.09691,-0.09848 -1.59952,-0.29545c-0.49582,-0.20376 -0.93051,-0.49921 -1.30407,-0.88636c-0.37356,-0.39394 -0.66562,-0.87277 -0.87617,-1.43651c-0.21055,-0.56374 -0.31583,-1.21237 -0.31583,-1.94591c0,-0.95767 0.17659,-1.77611 0.52978,-2.45531c0.35998,-0.6792 0.849,-1.19879 1.46707,-1.55877c0.62487,-0.36677 1.32444,-0.55015 2.09873,-0.55015c1.07993,0 1.93572,0.2513 2.56738,0.75391c0.63166,0.50261 1.05955,1.20558 1.28369,2.10892l-1.49764,0.23432c-0.1698,-0.51619 -0.44488,-0.92711 -0.82523,-1.23275c-0.37356,-0.31243 -0.8524,-0.46865 -1.43651,-0.46865c-0.58411,-0.01358 -1.07314,0.11207 -1.46707,0.37696c-0.38714,0.26489 -0.6792,0.63845 -0.87617,1.12068c-0.19697,0.47544 -0.29545,1.03239 -0.29545,1.67084c0,0.63845 0.09509,1.19539 0.28526,1.67084c0.19697,0.47544 0.49242,0.84561 0.88636,1.11049c0.39394,0.2581 0.88296,0.39054 1.46707,0.39733c0.44148,0.00679 0.82863,-0.07132 1.16143,-0.23432c0.33281,-0.16301 0.60449,-0.41092 0.81504,-0.74373c0.21055,-0.3396 0.35318,-0.76071 0.4279,-1.26331h-1.54858v-1.15125h3.10735c0.00679,0.06792 0.01019,0.1664 0.01019,0.29545c0.00679,0.12226 0.01019,0.19357 0.01019,0.21395c0,0.82863 -0.16301,1.56556 -0.48902,2.2108c-0.32602,0.63845 -0.79467,1.14106 -1.40595,1.50783c-0.60449,0.36677 -1.33123,0.55015 -2.18024,0.55015zM212.08932,184.38085v-6.57127h1.29388v1.59952l-0.16301,-0.20376c0.0815,-0.21734 0.19018,-0.41431 0.32602,-0.59091c0.13584,-0.18338 0.29885,-0.3362 0.48902,-0.45846c0.16301,-0.10867 0.343,-0.19357 0.53997,-0.2547c0.19697,-0.06113 0.39733,-0.09848 0.60109,-0.11207c0.21055,-0.02038 0.41431,-0.01358 0.61128,0.02038v1.37538c-0.19697,-0.06113 -0.4245,-0.0815 -0.6826,-0.06113c-0.2513,0.02038 -0.47884,0.09169 -0.6826,0.21395c-0.19697,0.10867 -0.35998,0.24791 -0.48902,0.41771c-0.12905,0.1698 -0.22414,0.36337 -0.28526,0.58072c-0.06113,0.21734 -0.09169,0.45167 -0.09169,0.70297v3.34167zM219.80635,184.56423c-0.66562,0 -1.24973,-0.14263 -1.75234,-0.4279c-0.50261,-0.29206 -0.89655,-0.69279 -1.18181,-1.20219c-0.27847,-0.5094 -0.41771,-1.09691 -0.41771,-1.76253c0,-0.71995 0.13584,-1.34482 0.40752,-1.8746c0.27847,-0.52978 0.66222,-0.94069 1.15125,-1.23275c0.48902,-0.29206 1.05616,-0.43808 1.7014,-0.43808c0.68599,0 1.26671,0.15961 1.74215,0.47884c0.47544,0.31922 0.82863,0.77089 1.05955,1.35501c0.23093,0.57732 0.31922,1.25992 0.26489,2.04779h-1.45689v-0.53997c-0.00679,-0.71316 -0.13244,-1.23275 -0.37696,-1.55877c-0.24451,-0.33281 -0.63505,-0.49921 -1.17162,-0.49921c-0.5977,0 -1.04257,0.18678 -1.33463,0.56034c-0.29206,0.37356 -0.43808,0.91692 -0.43808,1.63008c0,0.66562 0.14603,1.18181 0.43808,1.54858c0.29206,0.35998 0.71656,0.53997 1.2735,0.53997c0.35998,0 0.66901,-0.07811 0.92711,-0.23432c0.26489,-0.16301 0.46865,-0.39733 0.61128,-0.70297l1.4467,0.43808c-0.2513,0.59091 -0.63845,1.05276 -1.16143,1.38557c-0.52299,0.32602 -1.10031,0.48902 -1.73196,0.48902zM217.54461,181.50783v-1.11049h4.51329v1.11049zM225.85642,184.56423c-0.47544,0 -0.87957,-0.0883 -1.21237,-0.26489c-0.32602,-0.18338 -0.57393,-0.4245 -0.74373,-0.72335c-0.16301,-0.30564 -0.24451,-0.63845 -0.24451,-0.99843c0,-0.31243 0.05094,-0.5943 0.15282,-0.84561c0.10867,-0.2581 0.27168,-0.47884 0.48902,-0.66222c0.21734,-0.18338 0.50261,-0.3362 0.85579,-0.45846c0.2581,-0.0815 0.56374,-0.15622 0.91692,-0.22414c0.35998,-0.06792 0.74712,-0.13244 1.16143,-0.19357c0.41431,-0.06113 0.849,-0.12565 1.30407,-0.19357l-0.51959,0.29545c0,-0.44827 -0.10188,-0.78108 -0.30564,-0.99843c-0.20376,-0.21734 -0.55355,-0.32602 -1.04937,-0.32602c-0.29206,0 -0.57732,0.07132 -0.85579,0.21395c-0.27168,0.13584 -0.46525,0.37016 -0.58072,0.70297l-1.33463,-0.41771c0.16301,-0.55695 0.47204,-1.00182 0.92711,-1.33463c0.45506,-0.3396 1.06974,-0.5094 1.84403,-0.5094c0.58411,0 1.09691,0.09509 1.53839,0.28526c0.44827,0.19018 0.78108,0.50261 0.99843,0.9373c0.11546,0.23093 0.18338,0.46865 0.20376,0.71316c0.02717,0.23772 0.04075,0.49921 0.04075,0.78448v4.03446h-1.28369v-1.42632l0.21395,0.23432c-0.29885,0.47544 -0.64524,0.82523 -1.03918,1.04937c-0.39394,0.21734 -0.88636,0.32602 -1.47726,0.32602zM226.15187,183.39261c0.32602,0 0.60789,-0.05773 0.84561,-0.1732c0.23772,-0.11546 0.4245,-0.2581 0.56034,-0.4279c0.14263,-0.1698 0.23772,-0.33281 0.28526,-0.48902c0.07471,-0.18338 0.11546,-0.39394 0.12226,-0.63166c0.01358,-0.24451 0.02038,-0.44148 0.02038,-0.59091l0.45846,0.13244c-0.44148,0.06792 -0.82183,0.12905 -1.14106,0.18338c-0.31922,0.05434 -0.59091,0.10528 -0.81504,0.15282c-0.22414,0.04075 -0.4245,0.09169 -0.60109,0.15282c-0.1698,0.06113 -0.31583,0.13244 -0.43808,0.21395c-0.11546,0.0815 -0.20376,0.17659 -0.26489,0.28526c-0.06113,0.10188 -0.09169,0.22074 -0.09169,0.35658c0,0.16301 0.04075,0.30904 0.12226,0.43808c0.0815,0.12226 0.20036,0.22074 0.35658,0.29545c0.15622,0.06792 0.34979,0.10188 0.58072,0.10188zM234.87021,184.38085c-0.4279,0.0815 -0.8524,0.11546 -1.2735,0.10188c-0.41431,-0.00679 -0.78448,-0.0815 -1.11049,-0.22414c-0.32602,-0.14263 -0.57732,-0.37016 -0.75391,-0.6826c-0.14942,-0.28526 -0.22753,-0.57393 -0.23432,-0.86598c-0.00679,-0.29885 -0.01019,-0.63505 -0.01019,-1.00861v-5.71548h1.45689v5.62379c0,0.26489 0.0034,0.49921 0.01019,0.70297c0.00679,0.19697 0.04754,0.35658 0.12226,0.47884c0.14942,0.24451 0.38375,0.38035 0.70297,0.40752c0.31922,0.02717 0.6826,0.01019 1.09012,-0.05094zM230.29579,178.96082v-1.15125h4.57442v1.15125zM243.21014,182.75077v-2.18024h-2.17005v-1.15125h2.17005v-2.17005h1.15125v2.17005h2.17005v1.15125h-2.17005v2.18024zM249.63237,184.38085v-7.16218l-1.64027,1.00861v-1.6199l1.64027,-0.98824h1.49764v8.7617zM258.46306,184.56423c-0.44148,0 -0.85579,-0.09169 -1.24294,-0.27508c-0.38714,-0.18338 -0.71995,-0.43808 -0.99843,-0.7641c-0.27168,-0.32602 -0.46865,-0.70297 -0.59091,-1.13087l1.40595,-0.37696c0.06113,0.23093 0.1664,0.43469 0.31583,0.61128c0.14942,0.1698 0.32602,0.30224 0.52978,0.39733c0.21055,0.0883 0.4245,0.13244 0.64185,0.13244c0.28526,0 0.54336,-0.06792 0.77429,-0.20376c0.23772,-0.14263 0.4245,-0.32941 0.56034,-0.56034c0.14263,-0.23093 0.21395,-0.48902 0.21395,-0.77429c0,-0.28526 -0.07132,-0.54336 -0.21395,-0.77429c-0.14263,-0.23093 -0.33281,-0.41431 -0.57053,-0.55015c-0.23093,-0.13584 -0.48563,-0.20376 -0.7641,-0.20376c-0.3396,0 -0.62147,0.06113 -0.84561,0.18338c-0.21734,0.11546 -0.38375,0.24451 -0.49921,0.38714l-1.25313,-0.40752l0.26489,-4.63555h4.75781v1.37538h-3.97333l0.55015,-0.51959l-0.19357,3.2296l-0.26489,-0.32602c0.22414,-0.21055 0.48563,-0.36677 0.78448,-0.46865c0.29885,-0.10188 0.59091,-0.15282 0.87617,-0.15282c0.54336,0 1.02559,0.12565 1.4467,0.37696c0.4279,0.2513 0.76071,0.59091 0.99843,1.0188c0.24451,0.4279 0.36677,0.91692 0.36677,1.46707c0,0.55015 -0.14263,1.04597 -0.4279,1.48745c-0.28526,0.44148 -0.65883,0.79467 -1.12068,1.05955c-0.46186,0.26489 -0.97126,0.39733 -1.5282,0.39733zM266.15179,184.56423c-0.62487,0 -1.17502,-0.13244 -1.65046,-0.39733c-0.46865,-0.26489 -0.83542,-0.63505 -1.10031,-1.11049c-0.26489,-0.47544 -0.39733,-1.0222 -0.39733,-1.64027v-2.82208c0,-0.62487 0.13244,-1.17162 0.39733,-1.64027c0.26489,-0.47544 0.63166,-0.84561 1.10031,-1.11049c0.47544,-0.27168 1.02559,-0.40752 1.65046,-0.40752c0.61807,0 1.16143,0.13584 1.63008,0.40752c0.47544,0.26489 0.84561,0.63505 1.11049,1.11049c0.27168,0.46865 0.40752,1.01541 0.40752,1.64027v2.82208c0,0.61807 -0.13584,1.16483 -0.40752,1.64027c-0.26489,0.47544 -0.63505,0.84561 -1.11049,1.11049c-0.46865,0.26489 -1.01201,0.39733 -1.63008,0.39733zM266.15179,183.16848c0.30564,0 0.58411,-0.07132 0.83542,-0.21395c0.2513,-0.14942 0.44827,-0.34979 0.59091,-0.60109c0.14942,-0.2513 0.22414,-0.52978 0.22414,-0.83542v-3.03603c0,-0.31243 -0.07471,-0.59091 -0.22414,-0.83542c-0.14263,-0.2513 -0.3396,-0.45167 -0.59091,-0.60109c-0.2513,-0.14942 -0.52978,-0.22414 -0.83542,-0.22414c-0.31243,0 -0.5943,0.07471 -0.84561,0.22414c-0.2513,0.14942 -0.45167,0.34979 -0.60109,0.60109c-0.14263,0.24451 -0.21395,0.52299 -0.21395,0.83542v3.03603c0,0.30564 0.07132,0.58411 0.21395,0.83542c0.14942,0.2513 0.34979,0.45167 0.60109,0.60109c0.2513,0.14263 0.53317,0.21395 0.84561,0.21395zM274.15603,184.56423c-0.62487,0 -1.17502,-0.13244 -1.65046,-0.39733c-0.46865,-0.26489 -0.83542,-0.63505 -1.10031,-1.11049c-0.26489,-0.47544 -0.39733,-1.0222 -0.39733,-1.64027v-2.82208c0,-0.62487 0.13244,-1.17162 0.39733,-1.64027c0.26489,-0.47544 0.63166,-0.84561 1.10031,-1.11049c0.47544,-0.27168 1.02559,-0.40752 1.65046,-0.40752c0.61807,0 1.16143,0.13584 1.63008,0.40752c0.47544,0.26489 0.84561,0.63505 1.11049,1.11049c0.27168,0.46865 0.40752,1.01541 0.40752,1.64027v2.82208c0,0.61807 -0.13584,1.16483 -0.40752,1.64027c-0.26489,0.47544 -0.63505,0.84561 -1.11049,1.11049c-0.46865,0.26489 -1.01201,0.39733 -1.63008,0.39733zM274.15603,183.16848c0.30564,0 0.58411,-0.07132 0.83542,-0.21395c0.2513,-0.14942 0.44827,-0.34979 0.59091,-0.60109c0.14942,-0.2513 0.22414,-0.52978 0.22414,-0.83542v-3.03603c0,-0.31243 -0.07471,-0.59091 -0.22414,-0.83542c-0.14263,-0.2513 -0.3396,-0.45167 -0.59091,-0.60109c-0.2513,-0.14942 -0.52978,-0.22414 -0.83542,-0.22414c-0.31243,0 -0.5943,0.07471 -0.84561,0.22414c-0.2513,0.14942 -0.45167,0.34979 -0.60109,0.60109c-0.14263,0.24451 -0.21395,0.52299 -0.21395,0.83542v3.03603c0,0.30564 0.07132,0.58411 0.21395,0.83542c0.14942,0.2513 0.34979,0.45167 0.60109,0.60109c0.2513,0.14263 0.53317,0.21395 0.84561,0.21395z" fill="#ffffff" stroke="#ffffff" stroke-width="0.25" stroke-linecap="square"/><path d="M142.5,277.5v-195h195v195z" fill="none" stroke="none" stroke-width="0" stroke-linecap="butt"/></g></g></svg>