<svg version="1.1" xmlns="http://www.w3.org/2000/svg" xmlns:xlink="http://www.w3.org/1999/xlink" width="57.42112" height="73.67853" viewBox="0,0,57.42112,73.67853"><defs><radialGradient cx="240.15265" cy="208.21143" r="8.89813" gradientUnits="userSpaceOnUse" id="color-1"><stop offset="0" stop-color="#fff696"/><stop offset="1" stop-color="#fff696" stop-opacity="0"/></radialGradient><radialGradient cx="239.74872" cy="205.428" r="12.35459" gradientUnits="userSpaceOnUse" id="color-2"><stop offset="0" stop-color="#fcd81d"/><stop offset="1" stop-color="#fcd81d" stop-opacity="0"/></radialGradient><linearGradient x1="240.38264" y1="204.32198" x2="240.38264" y2="221.18561" gradientUnits="userSpaceOnUse" id="color-3"><stop offset="0" stop-color="#ffffff"/><stop offset="1" stop-color="#ffffff" stop-opacity="0"/></linearGradient><radialGradient cx="240.31324" cy="208.44531" r="6.32236" gradientUnits="userSpaceOnUse" id="color-4"><stop offset="0" stop-color="#ffee35"/><stop offset="1" stop-color="#ffee35" stop-opacity="0"/></radialGradient><linearGradient x1="240.97312" y1="125.00034" x2="240.97312" y2="219.02639" gradientUnits="userSpaceOnUse" id="color-5"><stop offset="0" stop-color="#a300f2"/><stop offset="1" stop-color="#a300f2" stop-opacity="0"/></linearGradient><linearGradient x1="241.21085" y1="96.98158" x2="241.21085" y2="225.00219" gradientUnits="userSpaceOnUse" id="color-6"><stop offset="0" stop-color="#f1f1f1"/><stop offset="1" stop-color="#f1f1f1" stop-opacity="0"/></linearGradient><linearGradient x1="240.20257" y1="204.61823" x2="240.20257" y2="212.52599" gradientUnits="userSpaceOnUse" id="color-7"><stop offset="0" stop-color="#ff4f00"/><stop offset="1" stop-color="#ff4f00" stop-opacity="0"/></linearGradient><linearGradient x1="240.27057" y1="204.86497" x2="240.27057" y2="210.2108" gradientUnits="userSpaceOnUse" id="color-8"><stop offset="0" stop-color="#ffd400"/><stop offset="1" stop-color="#ffd400" stop-opacity="0"/></linearGradient><linearGradient x1="240.27284" y1="204.50691" x2="240.27284" y2="213.38923" gradientUnits="userSpaceOnUse" id="color-9"><stop offset="0" stop-color="#ffee00"/><stop offset="1" stop-color="#ffee00" stop-opacity="0"/></linearGradient><linearGradient x1="240.34535" y1="204.43396" x2="240.34535" y2="208.32134" gradientUnits="userSpaceOnUse" id="color-10"><stop offset="0" stop-color="#ffee00"/><stop offset="1" stop-color="#ffee00" stop-opacity="0"/></linearGradient><linearGradient x1="238.30262" y1="204.50691" x2="238.30262" y2="208.39429" gradientUnits="userSpaceOnUse" id="color-11"><stop offset="0" stop-color="#ffee00"/><stop offset="1" stop-color="#ffee00" stop-opacity="0"/></linearGradient><linearGradient x1="242.38814" y1="204.50691" x2="242.38814" y2="208.39429" gradientUnits="userSpaceOnUse" id="color-12"><stop offset="0" stop-color="#ffee00"/><stop offset="1" stop-color="#ffee00" stop-opacity="0"/></linearGradient><radialGradient cx="240.14844" cy="207.64309" r="6.32236" gradientUnits="userSpaceOnUse" id="color-13"><stop offset="0" stop-color="#feea00"/><stop offset="1" stop-color="#feea00" stop-opacity="0"/></radialGradient><linearGradient x1="244.98525" y1="206.02092" x2="235.95117" y2="206.02092" gradientUnits="userSpaceOnUse" id="color-14"><stop offset="0" stop-color="#5f5f5f"/><stop offset="1" stop-color="#4c4c4c"/></linearGradient><linearGradient x1="244.98525" y1="206.02092" x2="235.95117" y2="206.02092" gradientUnits="userSpaceOnUse" id="color-15"><stop offset="0" stop-color="#949494"/><stop offset="1" stop-color="#757575"/></linearGradient><linearGradient x1="244.70669" y1="204.21928" x2="241.77564" y2="204.21928" gradientUnits="userSpaceOnUse" id="color-16"><stop offset="0" stop-color="#4c4c4c"/><stop offset="1" stop-color="#4c4c4c" stop-opacity="0"/></linearGradient><linearGradient x1="236.23037" y1="204.21927" x2="239.16142" y2="204.21927" gradientUnits="userSpaceOnUse" id="color-17"><stop offset="0" stop-color="#5f5f5f"/><stop offset="1" stop-color="#5f5f5f" stop-opacity="0"/></linearGradient><linearGradient x1="240.48493" y1="206.57577" x2="240.48493" y2="212.8485" gradientUnits="userSpaceOnUse" id="color-18"><stop offset="0" stop-color="#fccf00"/><stop offset="1" stop-color="#fccf00" stop-opacity="0"/></linearGradient><linearGradient x1="259.7202" y1="175.04168" x2="259.7202" y2="181.16668" gradientUnits="userSpaceOnUse" id="color-19"><stop offset="0" stop-color="#ff8800"/><stop offset="1" stop-color="#ffc500"/></linearGradient><linearGradient x1="220.56972" y1="175.04168" x2="220.56972" y2="181.16668" gradientUnits="userSpaceOnUse" id="color-20"><stop offset="0" stop-color="#ff8800"/><stop offset="1" stop-color="#ffc500"/></linearGradient><linearGradient x1="252.97527" y1="171.04763" x2="252.97527" y2="180.4979" gradientUnits="userSpaceOnUse" id="color-21"><stop offset="0" stop-color="#ff8800"/><stop offset="1" stop-color="#ffc500"/></linearGradient><linearGradient x1="256.42247" y1="173.47077" x2="256.42247" y2="180.61906" gradientUnits="userSpaceOnUse" id="color-22"><stop offset="0" stop-color="#ff8800"/><stop offset="1" stop-color="#ffc500"/></linearGradient><linearGradient x1="227.36737" y1="171.04763" x2="227.36737" y2="180.4979" gradientUnits="userSpaceOnUse" id="color-23"><stop offset="0" stop-color="#ff8800"/><stop offset="1" stop-color="#ffc500"/></linearGradient><linearGradient x1="223.9202" y1="173.47077" x2="223.9202" y2="180.61906" gradientUnits="userSpaceOnUse" id="color-24"><stop offset="0" stop-color="#ff8800"/><stop offset="1" stop-color="#ffc500"/></linearGradient><linearGradient x1="242.92405" y1="167.87077" x2="237.23342" y2="167.87077" gradientUnits="userSpaceOnUse" id="color-25"><stop offset="0" stop-color="#5f5f5f"/><stop offset="1" stop-color="#a8a8a8"/></linearGradient><linearGradient x1="240.03526" y1="161.54813" x2="240.03526" y2="162.48361" gradientUnits="userSpaceOnUse" id="color-26"><stop offset="0" stop-color="#7a7a7a"/><stop offset="1" stop-color="#646464"/></linearGradient><linearGradient x1="241.00973" y1="165.17487" x2="240.81275" y2="165.17487" gradientUnits="userSpaceOnUse" id="color-27"><stop offset="0" stop-color="#00eeec"/><stop offset="1" stop-color="#1cfff4"/></linearGradient><linearGradient x1="243.87534" y1="195.55477" x2="240.13264" y2="195.55477" gradientUnits="userSpaceOnUse" id="color-28"><stop offset="0" stop-color="#0e4d62"/><stop offset="1" stop-color="#126884"/></linearGradient><linearGradient x1="236.48843" y1="195.55477" x2="240.23116" y2="195.55477" gradientUnits="userSpaceOnUse" id="color-29"><stop offset="0" stop-color="#0e4d62"/><stop offset="1" stop-color="#126884"/></linearGradient><linearGradient x1="250.58451" y1="179.1031" x2="246.86372" y2="179.1031" gradientUnits="userSpaceOnUse" id="color-30"><stop offset="0" stop-color="#105972"/><stop offset="1" stop-color="#105972" stop-opacity="0"/></linearGradient><linearGradient x1="265.97659" y1="183.34818" x2="261.02192" y2="183.34818" gradientUnits="userSpaceOnUse" id="color-31"><stop offset="0" stop-color="#ff9b00"/><stop offset="1" stop-color="#e68100"/></linearGradient><linearGradient x1="229.57295" y1="193.40468" x2="226.7276" y2="193.40468" gradientUnits="userSpaceOnUse" id="color-32"><stop offset="0" stop-color="#009dd2"/><stop offset="1" stop-color="#009dd2" stop-opacity="0"/></linearGradient><linearGradient x1="241.25782" y1="178.0902" x2="238.78677" y2="178.0902" gradientUnits="userSpaceOnUse" id="color-33"><stop offset="0" stop-color="#c7ffff"/><stop offset="1" stop-color="#91f5f5"/></linearGradient><linearGradient x1="229.71756" y1="189.16526" x2="226.76279" y2="189.16526" gradientUnits="userSpaceOnUse" id="color-34"><stop offset="0" stop-color="#105972"/><stop offset="1" stop-color="#105972" stop-opacity="0"/></linearGradient><linearGradient x1="242.04229" y1="192.76641" x2="238.34338" y2="192.76641" gradientUnits="userSpaceOnUse" id="color-35"><stop offset="0" stop-color="#8b8b8b"/><stop offset="1" stop-color="#7f7f7f"/></linearGradient><linearGradient x1="214.29306" y1="183.34818" x2="219.24774" y2="183.34818" gradientUnits="userSpaceOnUse" id="color-36"><stop offset="0" stop-color="#ff9b00"/><stop offset="1" stop-color="#e68100"/></linearGradient><linearGradient x1="248.00893" y1="156.16668" x2="248.00893" y2="180.97918" gradientUnits="userSpaceOnUse" id="color-37"><stop offset="0" stop-color="#e68100"/><stop offset="1" stop-color="#ff9b00"/></linearGradient><linearGradient x1="248.00893" y1="156.16668" x2="248.00893" y2="180.97918" gradientUnits="userSpaceOnUse" id="color-38"><stop offset="0" stop-color="#e68100"/><stop offset="1" stop-color="#ff9b00"/></linearGradient><linearGradient x1="232.37333" y1="156.04168" x2="232.37333" y2="180.85418" gradientUnits="userSpaceOnUse" id="color-39"><stop offset="0" stop-color="#e68100"/><stop offset="1" stop-color="#ff9b00"/></linearGradient><linearGradient x1="232.37333" y1="156.04168" x2="232.37333" y2="180.85418" gradientUnits="userSpaceOnUse" id="color-40"><stop offset="0" stop-color="#e68100"/><stop offset="1" stop-color="#ff9b00"/></linearGradient><linearGradient x1="245.94366" y1="187.03335" x2="243.08738" y2="187.03335" gradientUnits="userSpaceOnUse" id="color-41"><stop offset="0" stop-color="#ececec"/><stop offset="1" stop-color="#dbdbdb"/></linearGradient><linearGradient x1="244.51555" y1="183.33335" x2="244.51555" y2="187.03335" gradientUnits="userSpaceOnUse" id="color-42"><stop offset="0" stop-color="#000000" stop-opacity="0"/><stop offset="1" stop-color="#000000" stop-opacity="0"/></linearGradient><linearGradient x1="237.27639" y1="186.83335" x2="234.42011" y2="186.83335" gradientUnits="userSpaceOnUse" id="color-43"><stop offset="0" stop-color="#dbdbdb"/><stop offset="1" stop-color="#ececec"/></linearGradient><linearGradient x1="235.84825" y1="183.13335" x2="235.84825" y2="186.83335" gradientUnits="userSpaceOnUse" id="color-44"><stop offset="0" stop-color="#000000" stop-opacity="0"/><stop offset="1" stop-color="#000000" stop-opacity="0"/></linearGradient><linearGradient x1="250.73282" y1="159.66668" x2="245.19267" y2="159.66668" gradientUnits="userSpaceOnUse" id="color-45"><stop offset="0" stop-color="#ececec"/><stop offset="1" stop-color="#dbdbdb"/></linearGradient><linearGradient x1="250.73282" y1="159.66668" x2="245.19267" y2="159.66668" gradientUnits="userSpaceOnUse" id="color-46"><stop offset="0" stop-color="#ececec"/><stop offset="1" stop-color="#dbdbdb"/></linearGradient><linearGradient x1="235.22035" y1="159.54168" x2="229.68022" y2="159.54168" gradientUnits="userSpaceOnUse" id="color-47"><stop offset="0" stop-color="#dbdbdb"/><stop offset="1" stop-color="#ececec"/></linearGradient><linearGradient x1="235.22035" y1="159.54168" x2="229.68022" y2="159.54168" gradientUnits="userSpaceOnUse" id="color-48"><stop offset="0" stop-color="#dbdbdb"/><stop offset="1" stop-color="#ececec"/></linearGradient><linearGradient x1="242.43625" y1="197.61642" x2="237.94939" y2="197.61642" gradientUnits="userSpaceOnUse" id="color-49"><stop offset="0" stop-color="#8b8b8b"/><stop offset="1" stop-color="#7f7f7f"/></linearGradient><linearGradient x1="245.19738" y1="203.97262" x2="235.74281" y2="203.97262" gradientUnits="userSpaceOnUse" id="color-50"><stop offset="0" stop-color="#888888"/><stop offset="1" stop-color="#696969"/></linearGradient></defs><g transform="translate(-211.37282,-152.72222)"><g data-paper-data="{&quot;isPaintingLayer&quot;:true}" fill-rule="nonzero" stroke-linejoin="miter" stroke-miterlimit="10" stroke-dasharray="" stroke-dashoffset="0" style="mix-blend-mode: normal"><path d="M228.41674,164.05555v-4.33333l8.63497,-6.78197l1.86503,-0.21803v11.33333z" data-paper-data="{&quot;index&quot;:null}" fill="#d2d2d2" stroke="none" stroke-width="0" stroke-linecap="butt"/><path d="M228.58343,179.22222v-16.66666h1v16.66666z" data-paper-data="{&quot;index&quot;:null}" fill="#e48500" stroke="none" stroke-width="0" stroke-linecap="butt"/><path d="M213.08342,194.55556v-15.5h1.33333v15.5z" data-paper-data="{&quot;index&quot;:null}" fill="#3195b6" stroke="none" stroke-width="NaN" stroke-linecap="butt"/><path d="M240.15269,200.33697c4.31079,0 7.80538,3.52552 7.80538,7.87446c0,4.34894 -3.49458,7.87446 -7.80538,7.87446c-4.3108,0 -7.80538,-3.52552 -7.80538,-7.87446c0,-4.34894 3.49458,-7.87446 7.80538,-7.87446z" data-paper-data="{&quot;index&quot;:null}" fill="url(#color-1)" stroke="none" stroke-width="0" stroke-linecap="butt"/><path d="M239.7487,193.07341c6.73228,0 12.18987,5.53134 12.18987,12.35459c0,6.82325 -5.4576,12.35459 -12.18987,12.35459c-6.73228,0 -12.18986,-5.53134 -12.18986,-12.35459c0,-6.82325 5.45759,-12.35459 12.18986,-12.35459z" data-paper-data="{&quot;index&quot;:null}" fill="url(#color-2)" stroke="none" stroke-width="0" stroke-linecap="butt"/><path d="M242.88264,204.32198l-2.5,16.86364l-2.5,-16.86364z" data-paper-data="{&quot;index&quot;:null}" fill="url(#color-3)" stroke="#000000" stroke-width="0" stroke-linecap="round"/><path d="M240.31324,202.8503c3.06294,0 5.54593,2.50497 5.54593,5.59501c0,3.09004 -2.483,5.59501 -5.54593,5.59501c-3.06294,0 -5.54593,-2.50497 -5.54593,-5.59501c0,-3.09004 2.483,-5.59501 5.54593,-5.59501z" data-paper-data="{&quot;index&quot;:null}" fill="url(#color-4)" stroke="none" stroke-width="0" stroke-linecap="butt"/><g data-paper-data="{&quot;index&quot;:null}" stroke="#000000" stroke-width="0" stroke-linecap="round"><path d="M242.53535,205.12112l-2.35162,14.93246l-1.99752,-14.93246z" fill="url(#color-5)"/><path d="M243.33782,206.06954l-3.20183,20.33121l-2.71971,-20.33121z" fill="url(#color-6)"/><path d="M241.37412,204.61823c0,0 1.85822,0.46537 1.8305,2.41626c-0.06512,4.58168 -2.70914,5.49149 -2.70914,5.49149c0,0 -3.13397,-1.02334 -3.2949,-5.49149c-0.06733,-1.86924 1.90371,-2.41626 1.90371,-2.41626z" fill="url(#color-7)"/><path d="M241.06255,204.86497c0,0 1.2562,0.3146 1.23746,1.63345c-0.04402,3.09733 -1.83145,3.71239 -1.83145,3.71239c0,0 -2.11864,-0.69182 -2.22743,-3.71239c-0.04551,-1.26365 1.28696,-1.63345 1.28696,-1.63345z" fill="url(#color-8)"/><path d="M241.58876,204.50691c0,0 2.08723,0.52272 2.05609,2.71404c-0.07315,5.14633 -3.04302,6.16828 -3.04302,6.16828c0,0 -3.52021,-1.14947 -3.70096,-6.16828c-0.07562,-2.0996 2.13833,-2.71404 2.13833,-2.71404z" fill="url(#color-9)"/><path d="M240.92128,204.43396c0,0 0.91349,0.22877 0.89985,1.18781c-0.03201,2.25231 -1.33179,2.69957 -1.33179,2.69957c0,0 -1.54063,-0.50307 -1.61974,-2.69957c-0.03309,-0.9189 0.93585,-1.18781 0.93585,-1.18781z" fill="url(#color-10)"/><path d="M238.87852,204.50691c0,0 0.91349,0.22877 0.89986,1.18781c-0.03201,2.25231 -1.33179,2.69957 -1.33179,2.69957c0,0 -1.54064,-0.50307 -1.61975,-2.69957c-0.0331,-0.91889 0.93585,-1.18781 0.93585,-1.18781z" fill="url(#color-11)"/><path d="M242.96404,204.50691c0,0 0.91349,0.22877 0.89986,1.18781c-0.03201,2.25231 -1.33179,2.69957 -1.33179,2.69957c0,0 -1.54064,-0.50307 -1.61975,-2.69957c-0.0331,-0.91889 0.93585,-1.18781 0.93585,-1.18781z" fill="url(#color-12)"/></g><path d="M240.14844,202.04808c3.06294,0 5.54593,2.50497 5.54593,5.59501c0,3.09004 -2.48299,5.59501 -5.54593,5.59501c-3.06294,0 -5.54593,-2.50497 -5.54593,-5.59501c0,-3.09003 2.48299,-5.59501 5.54593,-5.59501z" data-paper-data="{&quot;index&quot;:null}" fill="url(#color-13)" stroke="none" stroke-width="0" stroke-linecap="butt"/><path d="M240.46822,205.18001c2.4947,0 4.51705,0.37649 4.51705,0.84091c0,0.46442 -2.02235,0.84091 -4.51705,0.84091c-2.4947,0 -4.51705,-0.37649 -4.51705,-0.84091c0,-0.46442 2.02235,-0.84091 4.51705,-0.84091z" data-paper-data="{&quot;index&quot;:null}" fill="url(#color-14)" stroke="url(#color-15)" stroke-width="0.5" stroke-linecap="butt"/><path d="M244.7067,206.08134c0,0 -0.83087,0.27881 -1.2975,0.35477c-0.51676,0.08412 -1.66802,0.12799 -1.66802,0.12799l0.03448,-4.2069h2.93103v3.72414z" data-paper-data="{&quot;index&quot;:null}" fill="url(#color-16)" stroke="none" stroke-width="0" stroke-linecap="butt"/><path d="M236.2304,206.08134v-3.72414h2.93104l0.03448,4.2069c0,0 -1.15127,-0.04386 -1.66802,-0.12799c-0.46663,-0.07597 -1.2975,-0.35477 -1.2975,-0.35477z" data-paper-data="{&quot;index&quot;:null}" fill="url(#color-17)" stroke="none" stroke-width="0" stroke-linecap="butt"/><path d="M265.8252,194.71383v-1.9375h1.0625v1.9375z" data-paper-data="{&quot;index&quot;:null}" fill="#0098ca" stroke="none" stroke-width="0" stroke-linecap="butt"/><path d="M240.14217,200.81949v-6h2.5v6z" data-paper-data="{&quot;index&quot;:null}" fill="#0098ca" stroke="none" stroke-width="0" stroke-linecap="butt"/><path d="M213.44575,194.71383v-1.9375h1.0625v1.9375z" data-paper-data="{&quot;index&quot;:null}" fill="#0098ca" stroke="none" stroke-width="0" stroke-linecap="butt"/><path d="M237.69129,200.81949v-6h2.5v6z" data-paper-data="{&quot;index&quot;:null}" fill="#0098ca" stroke="none" stroke-width="0" stroke-linecap="butt"/><path d="M237.03036,212.8485v-6.27273c0,0 1.51673,-0.45454 3.45455,-0.45454c1.81656,0 3.45454,0.45454 3.45454,0.45454v6.27273z" data-paper-data="{&quot;index&quot;:null}" fill="url(#color-18)" stroke="none" stroke-width="0" stroke-linecap="butt"/><g data-paper-data="{&quot;index&quot;:null}"><g fill="none" stroke="#3195b6" stroke-width="1" stroke-linecap="round"><path d="M266.3252,194.65133l-16.875,8.375h-9.0625"/><path d="M266.2627,193.77633l-16.875,8.375h-9.0625"/><path d="M266.4502,192.83883l-16.875,8.375h-9.0625"/></g><g fill="none" stroke="#3195b6" stroke-width="1" stroke-linecap="round"><path d="M239.94575,203.02633h-9.0625l-16.875,-8.375"/><path d="M240.00825,202.15133h-9.0625l-16.875,-8.375"/><path d="M239.82075,201.21383h-9.0625l-16.875,-8.375"/></g><path d="M229.52387,203.4762v-3.42857h21.57143v3.42857z" fill="#0f566e" stroke="none" stroke-width="0" stroke-linecap="butt"/></g><g data-paper-data="{&quot;index&quot;:null}"><g><path d="M245.17246,173.32002l-8.32704,-1.36364l1.34307,-16.90909c0,0 0.40028,0.18974 0.80584,0.09091c0.40555,-0.09882 0.77706,-0.18471 1.4326,-0.63636c0.65555,-0.45165 1.52215,-1.36364 1.52215,-1.36364z" fill="#001820" stroke="#ff0000" stroke-width="0" stroke-linecap="round"/><path d="M259.7202,175.04168v6.125" fill="none" stroke="url(#color-19)" stroke-width="2" stroke-linecap="round"/><path d="M220.56972,175.04168v6.125" fill="none" stroke="url(#color-20)" stroke-width="2" stroke-linecap="round"/><g><g><path d="M263.10245,177.94989v4.09091" fill="none" stroke="#b6b6b6" stroke-width="2.5" stroke-linecap="round"/><path d="M261.64746,179.10898v3.91667" fill="none" stroke="#115e78" stroke-width="0.5" stroke-linecap="round"/><path d="M259.87906,183.24535v-4.31818h1.56691v4.31818z" fill="#136985" stroke="none" stroke-width="0" stroke-linecap="butt"/></g><path d="M262.6995,182.2908l-0.04476,-4.18182" fill="none" stroke="#c2c2c2" stroke-width="1.5" stroke-linecap="round"/></g><g data-paper-data="{&quot;index&quot;:null}"><g><path d="M217.10229,177.94989v4.09091" fill="none" stroke="#b6b6b6" stroke-width="2.5" stroke-linecap="round"/><path d="M218.55729,183.02564v-3.91666" fill="none" stroke="#115e78" stroke-width="0.5" stroke-linecap="round"/><path d="M218.75874,183.24536v-4.31819h1.56692v4.31818z" fill="#136985" stroke="none" stroke-width="0" stroke-linecap="butt"/></g><path d="M217.50521,182.2908l0.04476,-4.18182" fill="none" stroke="#c2c2c2" stroke-width="1.5" stroke-linecap="round"/></g><g fill="none" stroke-width="2" stroke-linecap="round"><path d="M252.97527,180.49789v-9.45026" stroke="url(#color-21)"/><path d="M256.42247,180.61905v-7.14828" stroke="url(#color-22)"/></g><g data-paper-data="{&quot;index&quot;:null}" fill="none" stroke-width="2" stroke-linecap="round"><path d="M227.36737,180.49789v-9.45026" stroke="url(#color-23)"/><path d="M223.9202,180.61906v-7.14828" stroke="url(#color-24)"/></g><path d="M237.23341,173.76976v-11.79798h5.69064v11.79798z" fill="url(#color-25)" stroke="none" stroke-width="0" stroke-linecap="butt"/><path d="M240.03522,161.54813c1.17166,0 2.12148,0.20942 2.12148,0.46775c0,0.25833 -0.94982,0.46774 -2.12148,0.46774c-1.17165,0 -2.12146,-0.20941 -2.12146,-0.46774c0,-0.25833 0.9498,-0.46775 2.12146,-0.46775z" fill="url(#color-26)" stroke="#7e7e7e" stroke-width="0.5" stroke-linecap="butt"/><path d="M266.43219,192.23967l-17.38655,8.625l-8.96099,0.03917l-0.04653,-21.91417l25.97438,-0.125z" fill="#3dbce6" stroke="#b6b6b6" stroke-width="0" stroke-linecap="round"/><path d="M265.54984,178.94647l0.01263,13.58974" fill="none" stroke="#0098ca" stroke-width="0.5" stroke-linecap="round"/><path d="M264.38181,192.11529l-0.07576,-12.23077" fill="none" stroke="#2fb2de" stroke-width="2" stroke-linecap="round"/><path d="M263.34547,180.24806v-1.35714h1.89948v1.35714z" fill="#00bcfb" stroke="none" stroke-width="0" stroke-linecap="butt"/><path d="M241.32554,199.60521v-19.28572" fill="none" stroke="#3195b6" stroke-width="2.5" stroke-linecap="round"/><path d="M240.05917,183.74806v-4.71428h2.4623v4.71428z" fill="#f00000" stroke="none" stroke-width="0" stroke-linecap="butt"/><path d="M251.1967,184.71383v7.1875" fill="none" stroke="#00bcfb" stroke-width="1" stroke-linecap="round"/><path d="M249.28841,183.77633l0.12311,8.6875" fill="none" stroke="#f50000" stroke-width="1" stroke-linecap="round"/><path d="M260.55341,189.08883v-7.9375" fill="none" stroke="#2fb2de" stroke-width="1" stroke-linecap="round"/><path d="M254.64388,193.96383v-11.875" fill="none" stroke="#2fb2de" stroke-width="1" stroke-linecap="round"/><path d="M246.27208,184.27633l0.06155,11.1875" fill="none" stroke="#fa0000" stroke-width="1" stroke-linecap="round"/><path d="M257.29088,194.33883l-0.12311,-5.125" fill="none" stroke="#2fb2de" stroke-width="1" stroke-linecap="round"/><path d="M243.87134,192.40133l0.06156,-11" fill="none" stroke="#fa0000" stroke-width="1" stroke-linecap="round"/><path d="M214.15433,178.86467l25.97438,0.125l-0.04653,21.91417l-8.96099,-0.03917l-17.38654,-8.625z" fill="#3dbce6" stroke="#b6b6b6" stroke-width="0" stroke-linecap="round"/><path d="M212.87283,178.73967v13.125" fill="none" stroke="#b6b6b6" stroke-width="3" stroke-linecap="round"/><path d="M214.60433,192.53621l0.01262,-13.58974" fill="none" stroke="#0098ca" stroke-width="0.5" stroke-linecap="round"/><path d="M213.36056,178.88452v13" fill="none" stroke="#c2c2c2" stroke-width="2" stroke-linecap="round"/><path d="M215.86074,179.88452l-0.07576,12.23077" fill="none" stroke="#2fb2de" stroke-width="2" stroke-linecap="round"/><path d="M214.9218,180.24806v-1.35714h1.89949v1.35714z" fill="#00b1ec" stroke="none" stroke-width="0" stroke-linecap="butt"/><path d="M238.84123,199.60521v-19.28572" fill="none" stroke="#3195b6" stroke-width="2.5" stroke-linecap="round"/><path d="M237.64531,183.74806v-4.71428h2.46229v4.71428z" fill="#f00000" stroke="none" stroke-width="0" stroke-linecap="butt"/><path d="M228.97007,184.71383v7.1875" fill="none" stroke="#00bcfb" stroke-width="1" stroke-linecap="round"/><path d="M230.75523,192.46383l0.12311,-8.6875" fill="none" stroke="#f50000" stroke-width="1" stroke-linecap="round"/><path d="M219.61337,181.15133v7.9375" fill="none" stroke="#2fb2de" stroke-width="1" stroke-linecap="round"/><path d="M225.52284,182.08883v11.875" fill="none" stroke="#2fb2de" stroke-width="1" stroke-linecap="round"/><path d="M233.83312,195.46383l0.06155,-11.1875" fill="none" stroke="#fa0000" stroke-width="1" stroke-linecap="round"/><path d="M222.99902,189.21383l-0.12311,5.125" fill="none" stroke="#2fb2de" stroke-width="1" stroke-linecap="round"/><path d="M236.2954,192.40133l-0.06156,-11" fill="none" stroke="#fa0000" stroke-width="1" stroke-linecap="round"/><path d="M239.00557,167.61264v-4.77419h0.25417v4.77419z" fill="#1dfffb" stroke="none" stroke-width="0" stroke-linecap="butt"/><path d="M241.59096,153.41091l-0.08954,17.45455c0,0 -0.252,0.86024 -1.34307,0.90909c-1.11662,0.04999 -1.52215,-0.90909 -1.52215,-0.90909v-17.45455" fill="none" stroke="#0c4152" stroke-width="1" stroke-linecap="round"/><path d="M245.33162,199.5166l-11.39406,-0.0566l-2.90091,-0.71141l-0.21209,-37.7619l6.44749,-5.42857v15.95287c0,0 0.7798,1.79051 2.88629,1.79051c2.14397,0 2.93219,-1.92095 2.93219,-1.92095v-15.66277l6.29023,5.42857l0.17795,37.58147z" fill="#0f546c" stroke="#0f546c" stroke-width="2.5" stroke-linecap="round"/><path d="M244.78445,195.54754l0.10943,-18.33333" fill="none" stroke="#10576f" stroke-width="1" stroke-linecap="round"/><path d="M233.40319,177.21421l-0.10943,11.77777" fill="none" stroke="#10576f" stroke-width="1" stroke-linecap="round"/><path d="M236.13906,184.76976l-0.21887,10.66666" fill="none" stroke="#10576f" stroke-width="1" stroke-linecap="round"/><path d="M242.81463,199.54754v-13.33333" fill="none" stroke="#10576f" stroke-width="1" stroke-linecap="round"/><path d="M237.45229,173.65865l0.10943,7" fill="none" stroke="#10576f" stroke-width="1" stroke-linecap="round"/><path d="M245.65993,159.3253l0.21887,13.77777" fill="none" stroke="#10576f" stroke-width="1" stroke-linecap="round"/><path d="M231.98052,160.32531l0.21887,12.11111" fill="none" stroke="#fa0000" stroke-width="1" stroke-linecap="round"/><path d="M234.93525,173.99198l-0.3283,-13" fill="none" stroke="#10576f" stroke-width="1" stroke-linecap="round"/><path d="M240.81274,167.52489v-4.7h0.19699v4.7z" fill="url(#color-27)" stroke="none" stroke-width="0" stroke-linecap="butt"/><path d="M239.92694,167.70942v-4.80645h0.2224v4.80645z" fill="#1dfffb" stroke="none" stroke-width="0" stroke-linecap="butt"/><path d="M241.71961,183.26328l-1.43834,0.6931l-1.43834,-0.54738v-7.72276l1.4833,-0.91167l1.3934,1.05738z" fill="#8cffff" stroke="#7e7e7e" stroke-width="0.5" stroke-linecap="round"/><path d="M241.65531,175.94407l-1.29271,0.875l-1.41582,-1.125" fill="none" stroke="#55eded" stroke-width="0.5" stroke-linecap="round"/><path d="M239.19302,183.31907l1.23114,-0.8125l0.98492,0.6875" fill="none" stroke="#55eded" stroke-width="0.5" stroke-linecap="round"/><path d="M240.30104,175.00657l0.06156,1.5l-0.06156,6.5625l-0.18467,0.5625" fill="none" stroke="#4fdada" stroke-width="0.5" stroke-linecap="round"/><path d="M241.71961,183.26328l-1.43834,0.6931l-1.43834,-0.54738v-7.72276l1.4833,-0.91167l1.3934,1.05738z" fill="none" stroke="#7e7e7e" stroke-width="0.5" stroke-linecap="round"/><path d="M240.0709,182.33048l-0.96148,0.78572l0.02345,-6.9881l0.91457,0.82143z" fill="#5cffff" stroke="none" stroke-width="0" stroke-linecap="round"/><path d="M239.88939,183.49804l-0.50834,-0.13243l0.68225,-0.37012z" fill="#57f3f3" stroke="#56eeee" stroke-width="0" stroke-linecap="round"/><path d="M240.56091,176.96646l0.96147,-0.78572l-0.02345,6.80388l-0.91457,-0.66353z" data-paper-data="{&quot;index&quot;:null}" fill="#87ffff" stroke="none" stroke-width="0" stroke-linecap="round"/><path d="M240.13265,200.90477v-10.7h3.74269v10.7z" fill="url(#color-28)" stroke="none" stroke-width="0" stroke-linecap="butt"/><path d="M236.48847,200.90477v-10.7h3.74269v10.7z" data-paper-data="{&quot;index&quot;:null}" fill="url(#color-29)" stroke="none" stroke-width="0" stroke-linecap="butt"/><path d="M240.5474,182.91654l0.6045,0.37011l-0.74162,0.34296z" data-paper-data="{&quot;index&quot;:null}" fill="#5afbfb" stroke="#56eeee" stroke-width="0" stroke-linecap="round"/><path d="M250.58458,160.78563l-0.10944,39.33333l-1.5321,0.66667h-5.58121v-13.66667l3.93967,-3.77778v-11.77778l-1.96983,-1.88889l-0.10944,-13.44444z" fill="#146e8c" stroke="#146e8c" stroke-width="0.5" stroke-linecap="round"/><path d="M249.16186,200.88088h-2.29815v-43.55556l3.7208,3.33333v39.44444z" fill="url(#color-30)" stroke="none" stroke-width="0" stroke-linecap="butt"/><path d="M235.15413,156.22214l-0.10944,13.44444l-1.96983,1.88889v11.77778l3.93967,3.77777v13.66667h-5.5812l-1.5321,-0.66667l-0.10943,-39.33333z" data-paper-data="{&quot;index&quot;:null}" fill="#146e8c" stroke="#146e8c" stroke-width="0.5" stroke-linecap="round"/><path d="M250.80889,178.97161l14.87226,-0.07778l-0.09849,6.44445l-14.77377,7.6z" fill="#146e8c" stroke="#146e8c" stroke-width="0.5" stroke-linecap="round"/><path d="M261.12647,178.63063l4.85012,-0.02536l-0.10685,6.99198l-4.84782,2.49384z" fill="url(#color-31)" stroke="#ff9b00" stroke-width="0" stroke-linecap="round"/><path d="M226.72763,198.59856v-11.74943h2.84532v13.11111z" fill="url(#color-32)" stroke="none" stroke-width="0" stroke-linecap="butt"/><path d="M229.56749,192.93828l-14.77377,-7.6l-0.0985,-6.44445l14.87227,0.07778z" data-paper-data="{&quot;index&quot;:null}" fill="#146e8c" stroke="#146e8c" stroke-width="0.5" stroke-linecap="round"/><g fill="none" stroke-linecap="round"><path d="M267.29395,191.86467v-13.125" stroke="#b6b6b6" stroke-width="3"/><path d="M266.8062,191.88452v-13" stroke="#c2c2c2" stroke-width="2"/></g><path d="M237.67037,184.73335v-12.5h4.72761v12.5z" fill="#0f546c" stroke="none" stroke-width="0" stroke-linecap="butt"/><g stroke="#a6caca" stroke-width="0.5" stroke-linecap="round"><path d="M238.78676,175.62268c0,0 0.5497,-1.7675 1.22677,-1.7675c0.67706,0 1.22675,1.7675 1.22675,1.7675l0.01755,4.93504c0,0 -0.54969,1.7675 -1.22675,1.7675c-0.67706,0 -1.22675,-1.7675 -1.22675,-1.7675z" fill="url(#color-33)"/><path d="M241.12235,176.19633h-2.11898" fill="none"/><path d="M239.09966,177.58407h2.02267" fill="none"/><path d="M241.21865,179.80444h-2.21529" fill="none"/><path d="M241.30258,178.39883h-2.21529" fill="none"/></g><path d="M226.76281,191.91526v-13.17857h2.95475v14.60714z" fill="url(#color-34)" stroke="none" stroke-width="0" stroke-linecap="butt"/><path d="M238.34337,194.18308v-2.83333h3.69891v2.83333z" fill="url(#color-35)" stroke="none" stroke-width="0" stroke-linecap="butt"/><path d="M240.78105,191.52779v2.41667" fill="none" stroke="#9e9e9e" stroke-width="0.5" stroke-linecap="round"/><path d="M239.5499,191.52779v2.41667" fill="none" stroke="#9e9e9e" stroke-width="0.5" stroke-linecap="round"/><path d="M219.24774,188.0911l-4.84783,-2.49384l-0.10686,-6.99199l4.85013,0.02536z" data-paper-data="{&quot;index&quot;:null}" fill="url(#color-36)" stroke="#ff9b00" stroke-width="0" stroke-linecap="round"/><path d="M250.60969,160.66668v17l-3.26254,3.3125v-9.4375l-1.93905,-1.96875l-0.24623,-13.53125z" fill="url(#color-37)" stroke="url(#color-38)" stroke-width="0.5" stroke-linecap="round"/><path d="M235.22036,155.91668l-0.24623,13.53125l-1.93905,1.96875v9.4375l-3.26254,-3.3125v-17z" data-paper-data="{&quot;index&quot;:null}" fill="url(#color-39)" stroke="url(#color-40)" stroke-width="0.5" stroke-linecap="round"/><path d="M243.08739,189.93335v-2.9l2.85627,-2.9v2.9z" fill="url(#color-41)" stroke="url(#color-42)" stroke-width="0" stroke-linecap="butt"/><path d="M234.42012,186.83335v-2.9l2.85627,2.9v2.9z" data-paper-data="{&quot;index&quot;:null}" fill="url(#color-43)" stroke="url(#color-44)" stroke-width="0" stroke-linecap="butt"/><path d="M250.73284,160.54168v1.375l-5.54017,1.625v-7.75z" fill="url(#color-45)" stroke="url(#color-46)" stroke-width="0.5" stroke-linecap="round"/><path d="M235.22039,155.66668v7.75l-5.54017,-1.45834v-1.54166z" data-paper-data="{&quot;index&quot;:null}" fill="url(#color-47)" stroke="url(#color-48)" stroke-width="0.5" stroke-linecap="round"/></g><path d="M237.94939,200.28308v-5.33334h4.48685v5.33334z" fill="url(#color-49)" stroke="none" stroke-width="0" stroke-linecap="butt"/></g><g data-paper-data="{&quot;index&quot;:null}"><path d="M245.19738,206.10898c0,0 -2.50116,-0.63636 -4.68182,-0.63636c-2.15034,0 -4.77273,0.63636 -4.77273,0.63636v-4.27273c0,0 2.53888,-0.48772 4.72727,-0.5c2.18918,-0.01228 4.72727,0.5 4.72727,0.5v4.27273z" fill="url(#color-50)" stroke="none" stroke-width="0" stroke-linecap="butt"/><path d="M236.50007,205.54808v-3.68" fill="none" stroke="#656565" stroke-width="0.5" stroke-linecap="round"/><path d="M237.66008,201.66808v3.64" fill="none" stroke="#6a6a6a" stroke-width="0.5" stroke-linecap="round"/><path d="M238.7801,205.18808l-0.04,-3.64" fill="none" stroke="#6f6f6f" stroke-width="0.5" stroke-linecap="round"/><path d="M239.8601,201.46808l0.08,3.68" fill="none" stroke="#747474" stroke-width="0.5" stroke-linecap="round"/><path d="M241.02008,201.42808l0.04,3.76" fill="none" stroke="#787878" stroke-width="0.5" stroke-linecap="round"/><path d="M242.14011,205.26808v-3.76" fill="none" stroke="#7b7b7b" stroke-width="0.5" stroke-linecap="round"/></g></g></g></svg>