<svg version="1.1" xmlns="http://www.w3.org/2000/svg" xmlns:xlink="http://www.w3.org/1999/xlink" width="61.5" height="54.125" viewBox="0,0,61.5,54.125"><g transform="translate(-209.25,-152.9375)"><g data-paper-data="{&quot;isPaintingLayer&quot;:true}" fill-rule="nonzero" stroke-linecap="round" stroke-linejoin="miter" stroke-miterlimit="10" stroke-dasharray="" stroke-dashoffset="0" style="mix-blend-mode: normal"><path d="M233.35961,176.91477l5.63467,-4.71902l10.35367,5.35292l-5.00076,10.21282l-10.21282,-0.07043l-1.61996,-9.01546z" fill="#ffe800" stroke="#edd900" stroke-width="1.5"/><path d="M239.8066,188.02823l-8.53847,3.79724c0,0 -0.04567,0.09946 0.01684,-0.18843c0.24932,-1.14825 1.96597,-8.94353 1.96597,-8.94353z" fill="#ffe800" stroke="#edd900" stroke-width="2"/><path d="M246.90603,182.79637c0,0 1.38026,7.86182 1.58002,9.01971c0.05009,0.29032 0.00874,0.18899 0.00874,0.18899l-8.3675,-4.16047z" data-paper-data="{&quot;index&quot;:null}" fill="#ffe800" stroke="#edd900" stroke-width="2"/><path d="M233.30777,183.15776l-7.02244,-6.16522c0,0 -0.10942,0.00015 0.1782,-0.06358c1.14718,-0.25417 8.9453,-1.95786 8.9453,-1.95786z" fill="#ffe800" stroke="#edd900" stroke-width="2.5"/><path d="M244.17284,174.66205l9.22698,1.47895c0,0 0.09254,-0.0584 -0.11697,0.14872c-0.83565,0.82602 -6.52898,6.42059 -6.52898,6.42059z" data-paper-data="{&quot;index&quot;:null}" fill="#ffe800" stroke="#edd900" stroke-width="2.5"/><path d="M235.66389,174.9667c0,0 3.61077,-7.1187 4.14538,-8.16503c0.13403,-0.26234 0.10637,-0.15647 0.10637,-0.15647l4.20021,8.34762z" data-paper-data="{&quot;index&quot;:null}" fill="#ffe800" stroke="#edd900" stroke-width="2.5"/><path d="M244.66691,182.18428l0.56037,2.81872l-0.65806,1.66932l-1.66895,0.28467l-3.24186,-1.67683z" data-paper-data="{&quot;index&quot;:null}" fill="#ffe800" stroke="#ffe800" stroke-width="1"/><path d="M240.17254,185.734l-3.24186,1.67683l-1.66895,-0.28467l-0.65807,-1.66932l0.56037,-2.8187z" data-paper-data="{&quot;index&quot;:null}" fill="#ffe800" stroke="#ffe800" stroke-width="1.5"/><path d="M234.29099,182.89922l-1.74612,7.71202" fill="none" stroke="#edd900" stroke-width="0.5"/><path d="M242.32338,176.49756l3.60716,0.5566l1.18033,1.2138l-0.4525,1.60469l-2.11428,2.01235z" data-paper-data="{&quot;index&quot;:null}" fill="#ffe800" stroke="#ffe800" stroke-width="1"/><path d="M235.34542,182.34578l-2.11428,-1.94653l-0.45249,-1.73635l1.18032,-1.21379l3.60716,-0.55658z" data-paper-data="{&quot;index&quot;:null}" fill="#ffe800" stroke="#ffe800" stroke-width="1.5"/><path d="M236.61742,177.23398l1.84025,-3.15197l1.562,-0.65316l1.18625,0.53093l1.43086,3.20729z" data-paper-data="{&quot;index&quot;:null}" fill="#ffe800" stroke="#ffe800" stroke-width="1.5"/><path d="M233.49066,187.48275c0,0 5.11804,-2.98087 7.09402,-4.90775c1.92734,-1.87944 4.61953,-6.51476 4.61953,-6.51476l-0.07275,-2.47367l8.73058,1.23682l0.6548,0.58205l0.21825,1.01857l-0.43653,0.87306l-6.03865,5.82038l1.52787,8.51233l0.07276,1.01857l-0.50928,0.58204l-0.8003,0.14552l-8.80335,-4.07427l-8.29405,3.56499h-0.50928l-0.43653,-0.50928l-0.1455,-0.8003l0.58204,-2.98294l2.54642,-1.09132z" fill="#fae500" stroke="#000000" stroke-width="0"/><path d="M233.58329,187.45481c0,0 5.6193,-3.65386 7.71897,-5.69422c1.69826,-1.65028 3.73472,-5.49618 3.73472,-5.49618l5.33189,0.92156l-4.93694,4.93694l1.31653,7.56997l-6.51677,-3.22546l-7.17501,3.55459z" fill="#fff15d" stroke="#fff15d" stroke-width="0"/><path d="M209.25,207.0625l61.5,-54.125" fill="none" stroke="#000000" stroke-width="0"/></g></g></svg>