<svg version="1.1" xmlns="http://www.w3.org/2000/svg" xmlns:xlink="http://www.w3.org/1999/xlink" width="124.3008" height="68.60139" viewBox="0,0,124.3008,68.60139"><defs><radialGradient cx="229.95" cy="169.81666" r="21.6" gradientUnits="userSpaceOnUse" id="color-1"><stop offset="0" stop-color="#171717"/><stop offset="1" stop-color="#171717" stop-opacity="0"/></radialGradient><radialGradient cx="245.95" cy="190.21666" r="21.6" gradientUnits="userSpaceOnUse" id="color-2"><stop offset="0" stop-color="#171717"/><stop offset="1" stop-color="#171717" stop-opacity="0"/></radialGradient><radialGradient cx="247.35" cy="170.21666" r="21.6" gradientUnits="userSpaceOnUse" id="color-3"><stop offset="0" stop-color="#171717"/><stop offset="1" stop-color="#171717" stop-opacity="0"/></radialGradient><radialGradient cx="228.55" cy="189.61666" r="21.6" gradientUnits="userSpaceOnUse" id="color-4"><stop offset="0" stop-color="#171717"/><stop offset="1" stop-color="#171717" stop-opacity="0"/></radialGradient><linearGradient x1="212.27083" y1="179.69927" x2="217.79167" y2="179.69927" gradientUnits="userSpaceOnUse" id="color-5"><stop offset="0" stop-color="#666666" stop-opacity="0"/><stop offset="1" stop-color="#666666"/></linearGradient><linearGradient x1="254.33334" y1="180.01666" x2="261.53334" y2="180.01666" gradientUnits="userSpaceOnUse" id="color-6"><stop offset="0" stop-color="#696969"/><stop offset="1" stop-color="#696969" stop-opacity="0"/></linearGradient><linearGradient x1="308.98337" y1="179.81666" x2="319.78334" y2="179.81666" gradientUnits="userSpaceOnUse" id="color-7"><stop offset="0" stop-color="#101010"/><stop offset="1" stop-color="#4b4b4b"/></linearGradient><radialGradient cx="217.71667" cy="198.81666" r="10" gradientUnits="userSpaceOnUse" id="color-8"><stop offset="0" stop-color="#aeaeae"/><stop offset="1" stop-color="#c1c1c1"/></radialGradient><radialGradient cx="217.71667" cy="198.81666" r="10" gradientUnits="userSpaceOnUse" id="color-9"><stop offset="0" stop-color="#c2c2c2"/><stop offset="1" stop-color="#aeaeae"/></radialGradient><radialGradient cx="217.71667" cy="160.61666" r="10" gradientUnits="userSpaceOnUse" id="color-10"><stop offset="0" stop-color="#c1c1c1"/><stop offset="1" stop-color="#a7a7a7"/></radialGradient></defs><g transform="translate(-196.08253,-148.21666)"><g data-paper-data="{&quot;isPaintingLayer&quot;:true}" fill-rule="nonzero" stroke-linejoin="miter" stroke-miterlimit="10" stroke-dasharray="" stroke-dashoffset="0" style="mix-blend-mode: normal"><g><path d="M266.88599,154.03184c0.10947,0.00941 0.18451,0.03442 0.18451,0.03442l1.09234,0.37111c0.70825,0.46995 1.38247,1.0035 1.97514,1.61277c0.26544,1.01621 1.54474,1.5814 1.76899,2.6075c0.47783,2.18635 -0.37731,3.73651 1.45669,5.58981c0.94022,0.95012 2.51945,1.01562 3.39903,2.07509c2.19212,2.64043 4.14376,6.26776 4.15328,9.82064c-0.41116,4.84641 -2.07603,9.31129 -3.75463,13.765c-0.46913,1.24473 -0.96767,3.10416 -2.30746,3.8642c-2.0185,1.14507 -5.96292,-0.37705 -8.23199,0.26811c-1.21625,1.84248 1.32621,4.44808 -0.22199,6.2287c-0.36268,0.41713 -1.00301,0.47479 -1.46139,0.7837c-1.68473,1.13537 -2.54672,3.58476 -4.43849,4.44918c-2.85415,1.30417 -5.72884,0.01505 -8.27193,-1.0253c-1.18836,-0.48614 -2.38248,-0.24904 -3.61054,-0.64735c-5.05713,-1.36337 -8.44807,-3.49246 -13.34571,-0.4432c-1.67791,1.04467 -0.25682,4.34784 -0.7086,5.89721c-0.35462,1.21618 -1.6196,3.07816 -2.49532,3.98418c-0.56596,0.75435 -1.26815,1.42803 -2.06204,1.93704c-0.18914,0.12127 -2.78462,1.54091 -2.89925,1.55889c-5.31093,0.83307 -7.82472,-8.11124 -9.91131,-11.25812c-0.15968,-0.24082 -0.39945,-1.54469 -0.79405,-1.78124c-1.36687,-0.81941 -3.01738,-1.84502 -4.49484,-2.57631c-2.89737,-0.7152 -5.99094,-2.72045 -6.48417,-5.94511c-0.19339,-1.26433 0.58129,-4.6664 -0.45261,-5.56131c-2.63846,-2.28375 -6.94007,-3.13907 -8.86121,-6.50449c-0.00394,-0.26532 -0.07297,-3.01328 0.03196,-3.31285c1.25968,-3.59616 7.41473,-2.98094 9.38826,-5.77395c1.87672,-2.65601 -2.44407,-4.22358 -3.07142,-6.02896c-0.26355,-0.75844 0.80661,-3.38303 1.006,-4.17028c2.2206,-4.40726 8.1364,-5.39964 12.58741,-4.12427c0.77313,0.22153 1.40937,0.8756 2.20764,0.97343c3.6025,0.44153 6.79228,-0.66349 10.19468,-1.56869c0.59149,-0.62124 1.73365,-1.04217 1.99586,-1.90427c0.47026,-1.54615 -0.17611,-4.31781 1.19639,-5.65508c0.68694,-0.66931 2.33157,-0.54246 3.18809,-0.54425c2.78947,-0.00582 5.51069,0.21983 7.90383,1.37182c1.70743,0.8219 3.76658,-0.61843 5.25861,-1.02064c1.38757,-0.43714 2.95631,-1.09824 4.38409,-1.34149c0.6904,-0.11763 1.52425,0.47842 2.09958,0.07906c0.3291,-0.22844 0.31399,-0.80997 0.66666,-1c1.22297,-0.65897 5.21568,-0.22234 6.39008,0.34194c2.02447,0.97272 3.36557,3.46721 5.34981,4.57338z" fill="#717171" stroke="none" stroke-width="0.5" stroke-linecap="butt"/><path d="M229.95,191.41666c-11.92935,0 -21.6,-9.67065 -21.6,-21.6c0,-11.92935 9.67065,-21.6 21.6,-21.6c11.92935,0 21.6,9.67065 21.6,21.6c0,11.92935 -9.67065,21.6 -21.6,21.6z" fill="url(#color-1)" stroke="none" stroke-width="NaN" stroke-linecap="butt"/><path d="M245.95,211.81666c-11.92935,0 -21.6,-9.67065 -21.6,-21.6c0,-11.92935 9.67065,-21.6 21.6,-21.6c11.92935,0 21.6,9.67065 21.6,21.6c0,11.92935 -9.67065,21.6 -21.6,21.6z" fill="url(#color-2)" stroke="none" stroke-width="NaN" stroke-linecap="butt"/><path d="M247.35,191.81666c-11.92935,0 -21.6,-9.67065 -21.6,-21.6c0,-11.92935 9.67065,-21.6 21.6,-21.6c11.92935,0 21.6,9.67065 21.6,21.6c0,11.92935 -9.67065,21.6 -21.6,21.6z" fill="url(#color-3)" stroke="none" stroke-width="NaN" stroke-linecap="butt"/><path d="M228.55,211.21666c-11.92935,0 -21.6,-9.67065 -21.6,-21.6c0,-11.92935 9.67065,-21.6 21.6,-21.6c11.92935,0 21.6,9.67065 21.6,21.6c0,11.92935 -9.67065,21.6 -21.6,21.6z" fill="url(#color-4)" stroke="none" stroke-width="NaN" stroke-linecap="butt"/><path d="M288.76669,192.67499c0,0 -2.71616,0.18651 -5.84509,0.01655c-2.56869,-0.13952 -5.49708,-0.64155 -6.7341,-0.64155c-1.44072,0 -2.67081,0.625 -2.67081,0.625v-10.46532l15.25,5.45376z" fill="#717171" stroke="none" stroke-width="0" stroke-linecap="butt"/><path d="M282.86393,190.75881h-9.33334v-23.58381h9.33334z" fill="#717171" stroke="none" stroke-width="0" stroke-linecap="butt"/><path d="M288.76669,172.18655l-15.25,5.45376v-10.46532c0,0 10.20543,-0.25 12.92081,-0.25c1.36581,0 2.32919,0.25 2.32919,0.25z" fill="#717171" stroke="none" stroke-width="0" stroke-linecap="butt"/><path d="M272.91667,196.86099c0,0 -1.9921,-0.75 -3.10417,-0.75c-1.31284,0 -4.65267,0.07143 -8.64338,0.1702c-8.94074,0.22128 -21.14848,0.5798 -21.14848,0.5798c0,0 0,0.18453 0,-0.67389c0,-3.30573 0,-25.84909 0,-32.19718c0,-1.10553 0,-0.84861 0,-0.84861c0,0 19.56988,0.01247 27.29578,-0.10142c1.02171,-0.01506 1.8363,-0.52358 2.37108,-0.52358c1.34249,0 3.22917,0.625 3.22917,0.625c0,0 0,-0.25696 0,0.84861c0,6.33115 0,28.7774 0,32.19718c0,0.93192 0,0.67389 0,0.67389z" fill="#717171" stroke="#717171" stroke-width="5" stroke-linecap="butt"/><path d="M264.25003,196.86099c0,0 -0.75157,0.375 -2.18753,0.375c-4.69632,0 -30.7085,-0.375 -30.7085,-0.375c0,0 0,0.18453 0,-0.67389c0,-3.30573 0,-25.84909 0,-32.19718c0,-1.10553 0,-0.84861 0,-0.84861c0,0 26.45346,0.5 30.5835,0.5c1.03321,0 2.31253,-0.5 2.31253,-0.5c0,0 0,-0.25696 0,0.84861c0,6.33115 0,28.7774 0,32.19718c0,0.93192 0,0.67389 0,0.67389z" fill="#777777" stroke="#777777" stroke-width="5" stroke-linecap="butt"/><path d="M219.11666,195.09514l-10.6,-8.11782c0,0 0.625,-3.04346 0.625,-4.95351c0,-1.22586 -0.63679,-3.34512 -0.78238,-5.25357c-0.16562,-2.17094 0.15738,-4.06909 0.15738,-4.06909c0,0 2.01689,-1.00741 3.18831,-1.90453c1.94886,-1.4925 7.41169,-6.2133 7.41169,-6.2133z" fill="#777777" stroke="#000000" stroke-width="0" stroke-linecap="round"/><path d="M217.79167,194.35715l-5.52083,-4.60604v-20.10369l5.52083,-3.96984z" fill="url(#color-5)" stroke="none" stroke-width="0" stroke-linecap="butt"/><path d="M261.53334,199.21666h-7.2v-38.4h7.2z" fill="url(#color-6)" stroke="none" stroke-width="0" stroke-linecap="butt"/><path d="M253.91667,202.51666c0,0 -9.17986,-0.625 -14.47917,-0.625c-1.99666,0 -4.81275,1.05988 -7.74971,1.14257c-6.55152,0.18446 -13.70445,-0.51757 -13.70445,-0.51757c0,0 0,0.24645 0,-0.9c0,-4.41487 0,-34.522 0,-43c0,-1.47647 0,-1.13333 0,-1.13333h35.93333c0,0 0,-0.34318 0,1.13333c0,8.45538 0,38.43282 0,43c0,1.24459 0,0.9 0,0.9z" fill="#777777" stroke="#777777" stroke-width="5" stroke-linecap="butt"/><path d="M313.2381,187.71179c0,0 -4.97427,-0.49365 -9.92189,-0.24053c-4.82426,0.2468 -6.70508,0.74053 -10.12871,0.74053c-1.93941,0 -4.62711,-0.55224 -7.37667,-0.62296c-5.75637,-0.14804 -11.78388,0.12296 -11.78388,0.12296c0,0 0,0.0862 0,-0.31479c0,-1.54415 0,-12.07447 0,-15.03975c0,-0.51641 0,-0.3964 0,-0.3964c0,0 8.49956,-0.27562 15.91404,-0.05378c3.44885,0.10319 6.36907,0.80378 8.62151,0.80378c5.63752,0 14.6756,-0.75 14.6756,-0.75c0,0 0,-0.12003 0,0.3964c0,2.95737 0,13.44233 0,15.03975c0,0.43532 0,0.31479 0,0.31479z" fill="#4b4b4b" stroke="#4b4b4b" stroke-width="5" stroke-linecap="butt"/><path d="M316.41667,185.7089h-45.53333v-3.36947h45.53333z" fill="#424242" stroke="none" stroke-width="0" stroke-linecap="butt"/><path d="M316.41667,177.52591h-45.53333v-3.36947h45.53333z" fill="#424242" stroke="none" stroke-width="0" stroke-linecap="butt"/><path d="M314.38333,190.21666c-2.98234,0 -5.4,-4.65624 -5.4,-10.4c0,-5.74376 2.41766,-10.4 5.4,-10.4c2.98234,0 5.4,4.65624 5.4,10.4c0,5.74376 -2.41766,10.4 -5.4,10.4z" fill="url(#color-7)" stroke="none" stroke-width="NaN" stroke-linecap="butt"/><path d="M314.55448,189.41666c-2.6669,0 -4.82884,-4.34284 -4.82884,-9.7c0,-5.35716 2.16194,-9.7 4.82884,-9.7c2.6669,0 4.82885,4.34284 4.82885,9.7c0,5.35716 -2.16195,9.7 -4.82885,9.7z" fill="none" stroke="#424242" stroke-width="2" stroke-linecap="butt"/><path d="M256.18333,199.59166c0,0 -2.42473,0.44167 -5.74491,0.38136c-3.55319,-0.06455 -8.11377,-0.63136 -11.25092,-0.63136c-7.22776,0 -23.50417,0.25 -23.50417,0.25v-7.5c0,0 8.87594,-0.5137 17.25303,-0.43963c4.17816,0.03695 8.51395,0.68963 11.00114,0.68963c5.06489,0 12.24583,-0.25 12.24583,-0.25z" fill="#4b4b4b" stroke="none" stroke-width="0" stroke-linecap="butt"/><path d="M256.18333,167.34166h-40.5v-7.5h40.5z" fill="#4b4b4b" stroke="none" stroke-width="0" stroke-linecap="butt"/><path d="M284.64169,192.67499c0,0 -1.35163,0.16513 -3.35325,-0.03258c-1.30067,-0.12847 -2.91719,-0.45154 -4.15971,-0.61674c-0.46001,-0.06116 -0.86875,-0.10068 -1.19123,-0.10068c-2.54926,0 -6.54581,0.75 -6.54581,0.75v-10.46532l15.25,5.45376z" fill="#777777" stroke="none" stroke-width="0" stroke-linecap="butt"/><path d="M278.73893,190.75881h-9.33334v-23.58381c0,0 3.52202,0.25 5.03191,0.25c1.59641,0 4.30143,-0.25 4.30143,-0.25z" fill="#777777" stroke="none" stroke-width="0" stroke-linecap="butt"/><path d="M284.64169,172.18655l-15.25,5.45376v-10.46532c0,0 3.89833,0.5311 7.16212,0.4584c2.0618,-0.04593 3.56991,-0.7084 4.63369,-0.7084c1.45209,0 3.45419,0.25 3.45419,0.25z" fill="#777777" stroke="none" stroke-width="0" stroke-linecap="butt"/><path d="M256.16138,190.09166c0,0 -4.88476,0.48162 -13.34871,0.41202c-2.71238,-0.0223 -11.06399,-0.66202 -12.87517,-0.66202c-5.2944,0 -14.32557,0.25 -14.32557,0.25v-0.85714c0,0 7.52158,-0.25 12.57557,-0.25c3.75884,0 11.04863,0.81306 17.12539,0.87584c6.02213,0.06222 10.84849,-0.62584 10.84849,-0.62584z" fill="#00d4d4" stroke="none" stroke-width="0" stroke-linecap="butt"/><path d="M256.16139,170.21666h-40.54945v-0.85715h40.54945z" fill="#797979" stroke="none" stroke-width="0" stroke-linecap="butt"/><path d="M227.71667,198.81666c0,0 -3.35901,-0.3748 -6.77759,-0.2497c-3.41306,0.1249 -6.88428,0.7497 -8.62658,0.7497c-1.63277,0 -4.59583,-0.5 -4.59583,-0.5" fill="url(#color-8)" stroke="url(#color-9)" stroke-width="8" stroke-linecap="round"/><path d="M207.71667,160.61666c0,0 4.61531,0.25 7.09583,0.25c1.77133,0 4.31363,-0.55756 6.99945,-0.61744c2.91186,-0.06492 5.90472,0.36744 5.90472,0.36744" fill="none" stroke="url(#color-10)" stroke-width="8" stroke-linecap="round"/><path d="M218.64474,177.82628c-0.08578,-0.01061 -0.17917,-0.0383 -0.28015,-0.08879c-0.67082,-0.33541 -0.33541,-1.00623 -0.33541,-1.00623l0.2,-0.4c1.18743,-2.35628 5.69086,-4.61405 8.34472,-4.61094c1.55318,0.31468 4.01619,0.91708 4.95222,2.33348c0.70147,1.06146 1.08151,2.70395 2.31708,3.346c1.95746,1.01719 8.08877,0.59903 7.17958,4.26707c-0.11247,0.45378 -1.00621,1.66695 -1.34614,2.07894c-0.67947,0.82353 -1.47392,1.55096 -2.28983,2.23956c-1.186,0.66667 -2.81042,1.95972 -4.05793,2.39552c-4.68566,1.63688 -9.22609,-4.93904 -11.60835,-7.63807c-0.8709,-0.9867 -2.12254,-1.70505 -3.00619,-2.80764c0,0 -0.03246,-0.04057 -0.06961,-0.10891z" fill="#7d7d7d" stroke="none" stroke-width="0.5" stroke-linecap="butt"/><path d="M244.36307,174.80145c-0.21638,-0.04057 -0.61307,-0.18933 -0.61307,-0.73478c0,-0.75 0.75,-0.75 0.75,-0.75h0.2c2.76358,0 4.10451,-1.99737 7,-2c0.97139,-0.00089 2.92694,-0.05463 3.48139,1.03661c0.46956,0.92416 -1.0891,4.20831 -1.35145,5.28571c-0.33065,1.45142 0.08353,3.44911 -0.96335,4.71909c-0.87787,1.06494 -3.55981,0.86017 -4.36262,-0.23615c-0.85662,-1.16982 0.08428,-3.79485 -0.59512,-4.79369c-0.25195,-0.3704 -0.93241,0.01975 -1.33118,-0.18436c-1.01289,-0.51844 -1.56679,-1.46485 -2.2146,-2.34242z" fill="#7d7d7d" stroke="none" stroke-width="0.5" stroke-linecap="butt"/><path d="M246.12404,156.45064c0.41602,0.62404 -0.20802,1.04006 -0.20802,1.04006l-1.01602,0.52596c-2.12221,0 -4.5787,-0.54888 -6.6181,-0.02239c0,0 -0.7276,0.1819 -0.9095,-0.54571c-0.1819,-0.72761 0.5457,-0.9095 0.5457,-0.9095c2.20571,-0.53707 4.70371,-0.0224 6.9819,-0.0224l0.18398,-0.27403c0,0 0.62404,-0.41603 1.04006,0.20801z" fill="#7d7d7d" stroke="none" stroke-width="0.5" stroke-linecap="butt"/><path d="M242.37082,201.20208c-0.33541,0.67082 -1.00623,0.33541 -1.00623,0.33541l-0.24649,-0.14321c-1.74377,-0.45018 -3.53543,-0.4094 -4.9681,0.67239c0,0 -0.6,0.45 -1.05,-0.15c-0.45,-0.6 0.15,-1.05 0.15,-1.05c1.83039,-1.36469 4.02908,-1.46398 6.2319,-0.9276l0.55351,0.25678c0,0 0.67082,0.33541 0.33541,1.00623z" fill="#7d7d7d" stroke="none" stroke-width="0.5" stroke-linecap="butt"/><path d="M263.56895,169.49584c-0.05156,-0.14999 -0.05297,-0.33819 0.06023,-0.56458c0.33541,-0.67082 1.00623,-0.33541 1.00623,-0.33541l0.4,0.2c2.17772,1.33621 0.81331,3.75126 0.81094,5.94472c-0.37099,1.88522 -1.25994,7.39707 -4.31587,5.77875c-4.13838,-2.19155 -0.36113,-8.92535 2.03847,-11.02348z" fill="#7d7d7d" stroke="none" stroke-width="0.5" stroke-linecap="butt"/><path d="M262.1,192.21667c-0.75,0 -0.75,-0.75 -0.75,-0.75v-0.4c0.5654,-1.20886 -0.79906,1.02131 -1.70946,-0.84277c-0.37874,-0.77549 1.62842,-3.95072 2.03542,-4.57325c0,0 0.41603,-0.62403 1.04007,-0.20801c0.62404,0.41602 0.20801,1.04006 0.20801,1.04006c-0.44065,0.64549 -0.61202,1.43945 -0.96278,2.13787c-0.20036,0.39894 -1.34133,0.59902 -1.0018,0.88887c0.42365,0.36166 1.31129,-0.39852 1.67087,0.0269c0.33267,0.39358 0.14645,1.02022 0.21967,1.53033v0.4c0,0 0,0.75 -0.75,0.75z" fill="#7d7d7d" stroke="none" stroke-width="0.5" stroke-linecap="butt"/><path d="M278.18688,170.58843c-0.0505,0.12497 -0.1252,0.21376 -0.20869,0.27668c0.19185,-0.03945 0.39474,-0.05272 0.6103,-0.03561c-0.11977,-0.07581 -0.23954,-0.15161 -0.35931,-0.22742zM277.62864,169.52868c0.014,-0.02563 0.02973,-0.05165 0.04732,-0.07803c0.41602,-0.62404 1.04007,-0.20801 1.04007,-0.20801l0.8548,0.68863c0.14689,0.45753 0.29379,0.91505 0.44069,1.37258c-1.51963,1.07715 -2.61746,1.77093 -3.67976,3.36705c-0.68,1.02169 -1.3055,2.68168 -2.74529,2.94078c-1.75225,0.31533 -2.21839,-2.14713 -2.02678,-3.26513c0.58722,-3.42615 2.5635,-5.21645 6.03334,-4.82407c0,0 0.0131,0.00164 0.03562,0.00622z" fill="#7d7d7d" stroke="none" stroke-width="0.5" stroke-linecap="butt"/><path d="M274.8819,186.19428c-0.7276,0.1819 -0.9095,-0.54571 -0.9095,-0.54571l-0.18601,-0.75114c-0.23048,-0.57441 -0.48,-1.14198 -0.7572,-1.69535c0,0 -0.33541,-0.67082 0.33541,-1.00623c0.67082,-0.33541 1.00623,0.33541 1.00623,0.33541c0.31005,0.62118 0.58555,1.25982 0.8428,1.90466l0.21399,0.84885c0,0 0.1819,0.72761 -0.54571,0.90951z" fill="#7d7d7d" stroke="none" stroke-width="0.5" stroke-linecap="butt"/></g></g></g></svg>