<svg version="1.1" xmlns="http://www.w3.org/2000/svg" xmlns:xlink="http://www.w3.org/1999/xlink" width="319.56911" height="309.14757" viewBox="0,0,319.56911,309.14757"><defs><linearGradient x1="201.62049" y1="179.85337" x2="300.45306" y2="179.85337" gradientUnits="userSpaceOnUse" id="color-1"><stop offset="0" stop-color="#00cfff" stop-opacity="0"/><stop offset="1" stop-color="#00cfff"/></linearGradient><linearGradient x1="201.62049" y1="179.85337" x2="300.45306" y2="179.85337" gradientUnits="userSpaceOnUse" id="color-2"><stop offset="0" stop-color="#000000" stop-opacity="0"/><stop offset="1" stop-color="#000000" stop-opacity="0"/></linearGradient><radialGradient cx="240.00001" cy="180.00002" r="15.31187" gradientUnits="userSpaceOnUse" id="color-3"><stop offset="0" stop-color="#00ceff"/><stop offset="1" stop-color="#00ceff" stop-opacity="0"/></radialGradient><linearGradient x1="248.56231" y1="180.18786" x2="231.43785" y2="179.8123" gradientUnits="userSpaceOnUse" id="color-4"><stop offset="0" stop-color="#59edff"/><stop offset="1" stop-color="#4fcfff"/></linearGradient><linearGradient x1="231.43569" y1="179.99999" x2="248.56437" y2="179.99999" gradientUnits="userSpaceOnUse" id="color-5"><stop offset="0" stop-color="#59edff"/><stop offset="1" stop-color="#4fcfff"/></linearGradient></defs><g transform="translate(-80.21548,-25.42621)"><g data-paper-data="{&quot;isPaintingLayer&quot;:true}" fill-rule="nonzero" stroke-linejoin="miter" stroke-miterlimit="10" stroke-dasharray="" stroke-dashoffset="0" style="mix-blend-mode: normal"><path d="M201.62049,181.39295v-3.73897l42.22846,-6.59819v17.59519z" fill="url(#color-1)" stroke="url(#color-2)" stroke-width="0" stroke-linecap="butt"/><path d="M145.70691,81.04386l188.58618,197.91228" fill="none" stroke="#000000" stroke-width="0" stroke-linecap="round"/><path d="M239.60858,195.30687c-8.45375,-0.21617 -15.13161,-7.24455 -14.91544,-15.69828c0.21617,-8.45375 7.24455,-15.13161 15.69828,-14.91544c8.45375,0.21617 15.13161,7.24455 14.91544,15.69828c-0.21617,8.45375 -7.24455,15.13161 -15.69828,14.91544z" fill="url(#color-3)" stroke="none" stroke-width="NaN" stroke-linecap="butt"/><path d="M239.81177,188.74524c-4.72874,-0.10372 -8.47792,-4.10315 -8.37397,-8.93307c0.104,-4.82993 4.02169,-8.66113 8.75047,-8.55743c4.72874,0.10372 8.47795,4.1032 8.374,8.93307c-0.104,4.82993 -4.02173,8.66106 -8.75047,8.55743z" fill="url(#color-4)" stroke="url(#color-5)" stroke-width="1" stroke-linecap="butt"/><path d="M240.20998,179.9067l-0.69981,1.8195l-2.09943,0.97973l0.41989,1.53958l-2.79923,1.25965" fill="none" stroke="#41aac4" stroke-width="1" stroke-linecap="round"/><path d="M240.48988,174.44818l-0.13996,2.51931l-2.51931,0.27993l-0.83976,1.25965" fill="none" stroke="#41aac4" stroke-width="1" stroke-linecap="round"/><path d="M245.94842,183.68566l-1.95947,-1.25965l0.55985,-1.67954l-0.55985,-2.51931" fill="none" stroke="#41aac4" stroke-width="1" stroke-linecap="round"/><path d="M241.88952,185.64511l-0.55985,-0.83976" fill="none" stroke="#41aac4" stroke-width="1" stroke-linecap="round"/><path d="M234.61151,179.90669l-0.97973,-0.27993" fill="none" stroke="#41aac4" stroke-width="1" stroke-linecap="round"/><path d="M244.8287,174.16825l0.69981,0.55985" fill="none" stroke="#41aac4" stroke-width="1" stroke-linecap="round"/><path d="M234.61148,175.84779l1.39962,-0.69981" fill="none" stroke="#41aac4" stroke-width="1" stroke-linecap="round"/><path d="M80.21548,334.57379l319.56911,-309.14757" fill="none" stroke="#000000" stroke-width="0" stroke-linecap="round"/></g></g></svg>