<svg version="1.1" xmlns="http://www.w3.org/2000/svg" xmlns:xlink="http://www.w3.org/1999/xlink" width="528.52853" height="517.5632" viewBox="0,0,528.52853,517.5632"><defs><radialGradient cx="240" cy="175.99999" r="219.30644" gradientUnits="userSpaceOnUse" id="color-1"><stop offset="0" stop-color="#ddc58d"/><stop offset="1" stop-color="#ddc58d" stop-opacity="0"/></radialGradient><radialGradient cx="160.39834" cy="216.77668" r="83.73458" gradientUnits="userSpaceOnUse" id="color-2"><stop offset="0" stop-color="#d8c08a"/><stop offset="1" stop-color="#d8c08a" stop-opacity="0"/></radialGradient><radialGradient cx="331.28631" cy="107.23312" r="83.73458" gradientUnits="userSpaceOnUse" id="color-3"><stop offset="0" stop-color="#d8c08a"/><stop offset="1" stop-color="#d8c08a" stop-opacity="0"/></radialGradient><radialGradient cx="240" cy="179.99999" r="83.73458" gradientUnits="userSpaceOnUse" id="color-4"><stop offset="0" stop-color="#d8c08a"/><stop offset="1" stop-color="#d8c08a" stop-opacity="0"/></radialGradient><radialGradient cx="172.81328" cy="132.2614" r="83.73458" gradientUnits="userSpaceOnUse" id="color-5"><stop offset="0" stop-color="#e1c990"/><stop offset="1" stop-color="#e1c990" stop-opacity="0"/></radialGradient><radialGradient cx="305.72614" cy="244.26555" r="83.73458" gradientUnits="userSpaceOnUse" id="color-6"><stop offset="0" stop-color="#e1c990"/><stop offset="1" stop-color="#e1c990" stop-opacity="0"/></radialGradient><radialGradient cx="279.27137" cy="212.86306" r="106.37358" gradientUnits="userSpaceOnUse" id="color-7"><stop offset="0" stop-color="#e1c990"/><stop offset="1" stop-color="#e1c990" stop-opacity="0"/></radialGradient><radialGradient cx="178.26721" cy="114.22821" r="106.37358" gradientUnits="userSpaceOnUse" id="color-8"><stop offset="0" stop-color="#e1c990"/><stop offset="1" stop-color="#e1c990" stop-opacity="0"/></radialGradient><radialGradient cx="191.63651" cy="209.9419" r="106.37358" gradientUnits="userSpaceOnUse" id="color-9"><stop offset="0" stop-color="#ceb884"/><stop offset="1" stop-color="#ceb884" stop-opacity="0"/></radialGradient><radialGradient cx="308.48299" cy="135.45227" r="106.37358" gradientUnits="userSpaceOnUse" id="color-10"><stop offset="0" stop-color="#b9a576"/><stop offset="1" stop-color="#b9a576" stop-opacity="0"/></radialGradient><radialGradient cx="177.03071" cy="218.70539" r="106.37358" gradientUnits="userSpaceOnUse" id="color-11"><stop offset="0" stop-color="#b9a576"/><stop offset="1" stop-color="#b9a576" stop-opacity="0"/></radialGradient></defs><g transform="translate(24.26427,78.7816)"><g data-paper-data="{&quot;isPaintingLayer&quot;:true}" fill-rule="nonzero" stroke="none" stroke-width="0" stroke-linecap="butt" stroke-linejoin="miter" stroke-miterlimit="10" stroke-dasharray="" stroke-dashoffset="0" style="mix-blend-mode: normal"><path d="M-24.26426,438.7816v-517.5632h528.52853v517.5632z" fill="none"/><path d="M453.82379,175.99999c0,121.11961 -95.73217,219.30644 -213.82379,219.30644c-118.09162,0 -213.82379,-98.18684 -213.82379,-219.30644c0,-121.11961 95.73217,-219.30644 213.82379,-219.30644c118.09162,0 213.82379,98.18684 213.82379,219.30644z" fill="url(#color-1)"/><path d="M242.03956,216.77668c0,46.24534 -36.55202,83.73458 -81.64122,83.73458c-45.0892,0 -81.64122,-37.48924 -81.64122,-83.73458c0,-46.24534 36.55202,-83.73458 81.64122,-83.73458c45.0892,0 81.64122,37.48924 81.64122,83.73458z" fill="url(#color-2)"/><path d="M412.92752,107.23312c0,46.24532 -36.55202,83.73458 -81.64122,83.73458c-45.0892,0 -81.64122,-37.48926 -81.64122,-83.73458c0,-46.24532 36.55202,-83.73458 81.64122,-83.73458c45.0892,0 81.64122,37.48926 81.64122,83.73458z" fill="url(#color-3)"/><path d="M321.64122,179.99999c0,46.24532 -36.55202,83.73458 -81.64122,83.73458c-45.0892,0 -81.64122,-37.48924 -81.64122,-83.73458c0,-46.24532 36.55202,-83.73458 81.64122,-83.73458c45.0892,0 81.64122,37.48926 81.64122,83.73458z" fill="url(#color-4)"/><path d="M254.45449,132.2614c0,46.24532 -36.55202,83.73458 -81.64122,83.73458c-45.0892,0 -81.64122,-37.48926 -81.64122,-83.73458c0,-46.24532 36.55202,-83.73458 81.64122,-83.73458c45.0892,0 81.64122,37.48926 81.64122,83.73458z" fill="url(#color-5)"/><path d="M387.36736,244.26555c0,46.24532 -36.55202,83.73458 -81.64122,83.73458c-45.0892,0 -81.64122,-37.48926 -81.64122,-83.73458c0,-46.24532 36.55202,-83.73458 81.64122,-83.73458c45.0892,0 81.64122,37.48924 81.64122,83.73458z" fill="url(#color-6)"/><path d="M382.98561,212.86306c0,58.74851 -46.43445,106.37358 -103.71424,106.37358c-57.27979,0 -103.71424,-47.62507 -103.71424,-106.37358c0,-58.74851 46.43445,-106.37358 103.71424,-106.37358c57.27979,0 103.71424,47.62507 103.71424,106.37358z" fill="url(#color-7)"/><path d="M281.98146,114.22821c0,58.74851 -46.43445,106.37358 -103.71424,106.37358c-57.27979,0 -103.71424,-47.62507 -103.71424,-106.37358c0,-58.74851 46.43445,-106.37358 103.71424,-106.37358c57.27979,0 103.71424,47.62507 103.71424,106.37358z" fill="url(#color-8)"/><path d="M295.35076,209.9419c0,58.74851 -46.43445,106.37358 -103.71424,106.37358c-57.27979,0 -103.71424,-47.62507 -103.71424,-106.37358c0,-58.74851 46.43445,-106.37358 103.71424,-106.37358c57.27979,0 103.71424,47.62507 103.71424,106.37358z" fill="url(#color-9)"/><path d="M412.19723,135.45227c0,58.74851 -46.43445,106.37358 -103.71424,106.37358c-57.27981,0 -103.71424,-47.62507 -103.71424,-106.37358c0,-58.74851 46.43445,-106.37358 103.71424,-106.37358c57.27979,0 103.71424,47.62507 103.71424,106.37358z" fill="url(#color-10)"/><path d="M280.74494,218.70539c0,58.74851 -46.43445,106.37358 -103.71424,106.37358c-57.27981,0 -103.71424,-47.62507 -103.71424,-106.37358c0,-58.74851 46.43445,-106.37358 103.71424,-106.37358c57.27979,0 103.71424,47.62507 103.71424,106.37358z" fill="url(#color-11)"/></g></g></svg>