<svg version="1.1" xmlns="http://www.w3.org/2000/svg" xmlns:xlink="http://www.w3.org/1999/xlink" width="483.48348" height="364.86487" viewBox="0,0,483.48348,364.86487"><defs><radialGradient cx="240.05412" cy="179.99529" r="42.14585" gradientUnits="userSpaceOnUse" id="color-1"><stop offset="0" stop-color="#d1b7a0"/><stop offset="1" stop-color="#d1b7a0" stop-opacity="0"/></radialGradient><radialGradient cx="239.96299" cy="180.00322" r="28.83275" gradientUnits="userSpaceOnUse" id="color-2"><stop offset="0" stop-color="#ff7800"/><stop offset="1" stop-color="#ff7800" stop-opacity="0"/></radialGradient><radialGradient cx="240.03612" cy="179.99686" r="28.12069" gradientUnits="userSpaceOnUse" id="color-3"><stop offset="0" stop-color="#dd8b44"/><stop offset="1" stop-color="#dd8b44" stop-opacity="0"/></radialGradient><radialGradient cx="240.02597" cy="180.00226" r="20.21434" gradientUnits="userSpaceOnUse" id="color-4"><stop offset="0" stop-color="#ff7800" stop-opacity="0"/><stop offset="1" stop-color="#ff7800"/></radialGradient><radialGradient cx="239.98337" cy="179.99856" r="12.96245" gradientUnits="userSpaceOnUse" id="color-5"><stop offset="0" stop-color="#ffb500" stop-opacity="0"/><stop offset="1" stop-color="#ffb500"/></radialGradient><radialGradient cx="239.98728" cy="180.00111" r="9.91934" gradientUnits="userSpaceOnUse" id="color-6"><stop offset="0" stop-color="#ffca00" stop-opacity="0"/><stop offset="1" stop-color="#ffca00"/></radialGradient></defs><g transform="translate(0.99099,3.43344)"><g data-paper-data="{&quot;isPaintingLayer&quot;:true}" fill-rule="nonzero" stroke-width="0" stroke-linecap="butt" stroke-linejoin="miter" stroke-miterlimit="10" stroke-dasharray="" stroke-dashoffset="0" style="mix-blend-mode: normal"><path d="M277.43624,199.20129c-4.62366,6.44557 -14.27592,11.87003 -22.54233,15.09943c-4.59917,1.79674 -9.60431,6.49176 -14.83979,6.49176c-7.96909,0 -16.71926,0.3955 -22.23436,-3.93852c-6.5182,-5.12229 -9.32032,-15.64676 -12.50159,-23.94598c-1.7375,-4.53275 -6.06122,-7.76862 -6.06122,-12.91269c0,-5.50772 -0.8662,-11.52546 1.95901,-16.03659c3.78218,-6.03918 12.04327,-10.17953 17.38027,-14.45939c6.98534,-5.60168 11.8073,-10.3012 21.45789,-10.3012c3.98878,0 7.9515,4.68738 11.64832,5.90707c5.15119,1.69954 9.7861,0.47597 13.25586,4.25068c5.13996,5.59171 7.29113,13.44592 9.87867,20.79436c1.49324,4.24073 6.01435,5.09363 6.01435,9.84507c0,7.88612 0.45979,13.80428 -3.41507,19.20601z" data-paper-data="{&quot;index&quot;:null}" fill="url(#color-1)" stroke="none"/><path d="M214.3892,166.86405c3.16313,-4.40954 9.76642,-8.1205 15.42162,-10.32979c3.14637,-1.22918 6.57049,-4.44113 10.15217,-4.44113c5.4518,0 11.43795,-0.27056 15.21094,2.69441c4.45922,3.50425 6.3762,10.70423 8.55257,16.38188c1.18866,3.10094 4.14659,5.31466 4.14659,8.83381c0,3.76793 0.59258,7.88478 -1.34019,10.97093c-2.58746,4.13151 -8.23903,6.964 -11.89016,9.89193c-4.7788,3.83221 -8.07759,7.04724 -14.67974,7.04724c-2.7288,0 -5.43977,-3.20672 -7.96882,-4.04114c-3.52402,-1.16269 -6.69485,-0.32561 -9.06858,-2.90797c-3.51634,-3.82539 -4.98799,-9.1986 -6.75817,-14.2258c-1.02155,-2.90116 -4.11452,-3.48465 -4.11452,-6.73519c0,-5.39504 -0.31455,-9.44376 2.33631,-13.13918z" data-paper-data="{&quot;index&quot;:null}" fill="url(#color-2)" stroke="none"/><path d="M264.97833,192.81155c-3.08501,4.30064 -9.52523,7.91996 -15.04076,10.07469c-3.06867,1.19882 -6.40822,4.33145 -9.90145,4.33145c-5.31716,0 -11.15547,0.26388 -14.83528,-2.62787c-4.34909,-3.41771 -6.21873,-10.43988 -8.34135,-15.97731c-1.1593,-3.02436 -4.04418,-5.1834 -4.04418,-8.61565c0,-3.67488 -0.57795,-7.69005 1.3071,-10.69998c2.52355,-4.02948 8.03555,-6.79202 11.59652,-9.64764c4.66078,-3.73757 7.8781,-6.87319 14.3172,-6.87319c2.66141,0 5.30543,3.12752 7.77203,3.94133c3.43699,1.13397 6.52951,0.31758 8.84461,2.83615c3.4295,3.73092 4.86481,8.97143 6.59127,13.87448c0.99633,2.82951 4.01291,3.39859 4.01291,6.56886c0,5.2618 0.30678,9.21053 -2.27862,12.81469z" data-paper-data="{&quot;index&quot;:null}" fill="url(#color-3)" stroke="none"/><path d="M259.59345,180.00226c0,2.27892 -2.16845,2.688 -2.88465,4.72197c-1.24105,3.52452 -2.27281,7.29162 -4.73808,9.97356c-1.6642,1.81046 -3.88723,1.22359 -6.35788,2.03874c-1.7731,0.585 -3.67373,2.8332 -5.58686,2.8332c-4.62869,0 -6.94144,-2.25402 -10.29181,-4.94074c-2.55978,-2.05274 -6.52203,-4.03857 -8.33607,-6.93513c-1.35505,-2.16367 -0.93959,-5.04994 -0.93959,-7.6916c0,-2.46724 2.07377,-4.01926 2.90713,-6.19329c1.52583,-3.98054 2.86981,-9.02837 5.99612,-11.48516c2.6452,-2.07871 6.84203,-1.88903 10.66423,-1.88903c2.51108,0 4.91169,2.25187 7.11758,3.11363c3.9648,1.54891 8.59429,4.15063 10.81193,7.24211c1.8585,2.59082 1.63797,5.42934 1.63797,9.21174z" fill="url(#color-4)" stroke="none"/><path d="M227.43572,179.99856c0,-1.46137 1.39051,-1.72369 1.84978,-3.02797c0.79583,-2.2601 1.45744,-4.67575 3.0383,-6.39555c1.06716,-1.16096 2.4927,-0.78463 4.077,-1.30735c1.137,-0.37513 2.35577,-1.81679 3.58257,-1.81679c2.96815,0 4.4512,1.44539 6.59963,3.16826c1.64146,1.31632 4.18225,2.58973 5.34551,4.44715c0.86892,1.38745 0.60252,3.23829 0.60252,4.93225c0,1.58211 -1.32982,2.57734 -1.8642,3.97144c-0.97844,2.55253 -1.84025,5.78945 -3.845,7.36487c-1.69624,1.33298 -4.38746,1.21133 -6.83844,1.21133c-1.61023,0 -3.14961,-1.44401 -4.56414,-1.99661c-2.54243,-0.99324 -5.51109,-2.66159 -6.93316,-4.644c-1.19176,-1.66136 -1.05034,-3.48156 -1.05034,-5.90703z" data-paper-data="{&quot;index&quot;:null}" fill="url(#color-5)" stroke="none"/><path d="M231.18912,175.48084c1.08821,-1.51701 3.35995,-2.7937 5.30551,-3.55376c1.08245,-0.42288 2.26045,-1.52788 3.49265,-1.52788c1.87559,0 3.935,-0.09308 5.23302,0.92696c1.53411,1.20557 2.1936,3.68258 2.94234,5.63586c0.40894,1.06681 1.42655,1.8284 1.42655,3.0391c0,1.29629 0.20387,2.7126 -0.46107,3.77433c-0.89016,1.42137 -2.83447,2.39583 -4.09058,3.40312c-1.64405,1.3184 -2.77893,2.42446 -5.05027,2.42446c-0.93879,0 -1.87145,-1.10321 -2.74152,-1.39028c-1.21237,-0.4 -2.30323,-0.11202 -3.11986,-1.00043c-1.20972,-1.31605 -1.71602,-3.16459 -2.32502,-4.8941c-0.35145,-0.99809 -1.41552,-1.19882 -1.41552,-2.31711c0,-1.85605 -0.10822,-3.24894 0.80376,-4.52027z" data-paper-data="{&quot;index&quot;:null}" fill="url(#color-6)" stroke="none"/><path d="M-0.99099,361.43143v-364.86486h483.48348v364.86487z" fill="none" stroke="#000000"/></g></g></svg>