<svg version="1.1" xmlns="http://www.w3.org/2000/svg" xmlns:xlink="http://www.w3.org/1999/xlink" width="525.52553" height="667.2991" viewBox="0,0,525.52553,667.2991"><defs><linearGradient x1="252.97334" y1="154.24317" x2="239.62876" y2="154.24317" gradientUnits="userSpaceOnUse" id="color-1"><stop offset="0" stop-color="#ffffff" stop-opacity="0"/><stop offset="1" stop-color="#ffffff"/></linearGradient><linearGradient x1="228.30258" y1="151.13883" x2="241.64715" y2="151.13883" gradientUnits="userSpaceOnUse" id="color-2"><stop offset="0" stop-color="#ffffff" stop-opacity="0"/><stop offset="1" stop-color="#ffffff"/></linearGradient><linearGradient x1="240.37913" y1="-91.6288" x2="240.37913" y2="395.17351" gradientUnits="userSpaceOnUse" id="color-3"><stop offset="0" stop-color="#fff3d2" stop-opacity="0"/><stop offset="1" stop-color="#fff3d2"/></linearGradient><linearGradient x1="238.30223" y1="148.69966" x2="257.61616" y2="148.69966" gradientUnits="userSpaceOnUse" id="color-4"><stop offset="0" stop-color="#fffbce"/><stop offset="1" stop-color="#fffbce" stop-opacity="0"/></linearGradient><linearGradient x1="222.38375" y1="150.91706" x2="241.69777" y2="150.91706" gradientUnits="userSpaceOnUse" id="color-5"><stop offset="0" stop-color="#fffbce" stop-opacity="0"/><stop offset="1" stop-color="#fffbce"/></linearGradient><linearGradient x1="239.9929" y1="76.3964" x2="244.78326" y2="76.3964" gradientUnits="userSpaceOnUse" id="color-6"><stop offset="0" stop-color="#fffe66"/><stop offset="1" stop-color="#fffe66" stop-opacity="0"/></linearGradient><linearGradient x1="240.00712" y1="76.3964" x2="235.21676" y2="76.3964" gradientUnits="userSpaceOnUse" id="color-7"><stop offset="0" stop-color="#fffe66"/><stop offset="1" stop-color="#fffe66" stop-opacity="0"/></linearGradient><radialGradient cx="240.48054" cy="395.83465" r="28.63006" gradientUnits="userSpaceOnUse" id="color-8"><stop offset="0" stop-color="#ffffff"/><stop offset="1" stop-color="#ffffff" stop-opacity="0"/></radialGradient></defs><g transform="translate(22.7627,231.98731)"><g data-paper-data="{&quot;isPaintingLayer&quot;:true}" fill-rule="nonzero" stroke-linejoin="miter" stroke-miterlimit="10" stroke-dasharray="" stroke-dashoffset="0" style="mix-blend-mode: normal"><g stroke="none" stroke-width="0" stroke-linecap="butt"><path d="M239.62876,397.64437v-486.80225h13.34456v486.80225z" data-paper-data="{&quot;index&quot;:null}" fill="url(#color-1)"/><path d="M228.30258,394.53996v-486.80225h13.34458v486.80225z" fill="url(#color-2)"/><path d="M232.45973,395.17351v-486.80225h15.83885v486.80225z" fill="url(#color-3)"/><path d="M236.40895,395.17351v-486.80225h7.94033v486.80225z" fill="#fff3d2"/><path d="M238.30223,392.10082v-486.80225h19.31398v486.80225z" data-paper-data="{&quot;index&quot;:null}" fill="url(#color-4)"/><path d="M222.3838,394.31825v-486.80225h19.31398v486.80225z" data-paper-data="{&quot;index&quot;:null}" fill="url(#color-5)"/></g><path d="M-22.76269,433.0031v-506.00601h525.52553v506.00601z" fill="none" stroke="none" stroke-width="0" stroke-linecap="butt"/><g fill="none" stroke="#ffffd1" stroke-width="5" stroke-linecap="round"><path d="M238.11574,76.81834c0,0 11.94716,11.65005 11.91434,29.40309c-0.03269,17.68604 -19.39434,29.91273 -19.28958,53.03999c0.10477,23.12727 16.90386,23.57445 16.97585,43.99627c0.07728,21.92059 -17.53167,28.85269 -18.65864,50.9303c-1.12698,22.07761 20.59396,24.99385 20.7975,46.23426c-0.57388,18.42935 -21.14593,27.71638 -21.14438,47.8127c0.00284,15.76484 11.03711,40.58338 11.03711,40.58338"/><path d="M241.66063,-228.18164c0,0 11.94716,11.65005 11.91434,29.40309c-0.03269,17.68604 -19.39434,29.91273 -19.28958,53.03999c0.10477,23.12727 16.90386,23.57445 16.97585,43.99627c0.07728,21.92059 -17.53167,28.85269 -18.65864,50.9303c-1.12698,22.07761 20.59396,24.99385 20.7975,46.23426c-0.57388,18.42935 -21.14593,27.71638 -21.14438,47.8127c0.00284,15.76484 11.03711,40.58338 11.03711,40.58338"/></g><g stroke="none" stroke-width="0" stroke-linecap="butt"><path d="M239.9929,384.78011v-616.76742h4.79036v616.76742z" fill="url(#color-6)"/><path d="M235.21676,384.78011v-616.76742h4.79036v616.76742z" data-paper-data="{&quot;index&quot;:null}" fill="url(#color-7)"/></g><path d="M235.94285,435.31179l-34.73731,-45.51965l43.81267,-33.43468l34.73731,45.51965z" fill="url(#color-8)" stroke="none" stroke-width="0" stroke-linecap="butt"/></g></g></svg>