<svg version="1.1" xmlns="http://www.w3.org/2000/svg" xmlns:xlink="http://www.w3.org/1999/xlink" width="349.50002" height="379.93116" viewBox="0,0,349.50002,379.93116"><defs><radialGradient cx="169.83334" cy="261.47642" r="16" gradientUnits="userSpaceOnUse" id="color-1"><stop offset="0" stop-color="#66ebff"/><stop offset="1" stop-color="#66ebff" stop-opacity="0"/></radialGradient><radialGradient cx="153.83333" cy="261.14308" r="16" gradientUnits="userSpaceOnUse" id="color-2"><stop offset="0" stop-color="#66ebff"/><stop offset="1" stop-color="#66ebff" stop-opacity="0"/></radialGradient><linearGradient x1="137.5" y1="247.33333" x2="188.5" y2="247.33333" gradientUnits="userSpaceOnUse" id="color-3"><stop offset="0" stop-color="#849695"/><stop offset="1" stop-color="#98adac"/></linearGradient><linearGradient x1="137.33333" y1="243.66666" x2="188.33333" y2="243.66666" gradientUnits="userSpaceOnUse" id="color-4"><stop offset="0" stop-color="#768685"/><stop offset="1" stop-color="#819392"/></linearGradient><radialGradient cx="329.83333" cy="260.47642" r="16" gradientUnits="userSpaceOnUse" id="color-5"><stop offset="0" stop-color="#66ebff"/><stop offset="1" stop-color="#66ebff" stop-opacity="0"/></radialGradient><radialGradient cx="313.83333" cy="260.14308" r="16" gradientUnits="userSpaceOnUse" id="color-6"><stop offset="0" stop-color="#66ebff"/><stop offset="1" stop-color="#66ebff" stop-opacity="0"/></radialGradient><linearGradient x1="295.50001" y1="246.33333" x2="346.50001" y2="246.33333" gradientUnits="userSpaceOnUse" id="color-7"><stop offset="0" stop-color="#849695"/><stop offset="1" stop-color="#98adac"/></linearGradient><linearGradient x1="295.33333" y1="242.66667" x2="346.33333" y2="242.66667" gradientUnits="userSpaceOnUse" id="color-8"><stop offset="0" stop-color="#768685"/><stop offset="1" stop-color="#819392"/></linearGradient><radialGradient cx="241.75914" cy="325.97665" r="24.55753" gradientUnits="userSpaceOnUse" id="color-9"><stop offset="0" stop-color="#ffffff"/><stop offset="1" stop-color="#ffffff" stop-opacity="0"/></radialGradient><linearGradient x1="228.78519" y1="271.37177" x2="272.26316" y2="364.53886" gradientUnits="userSpaceOnUse" id="color-10"><stop offset="0" stop-color="#ffffff"/><stop offset="1" stop-color="#ffffff" stop-opacity="0"/></linearGradient><radialGradient cx="255.74168" cy="331.73414" r="8.51875" gradientUnits="userSpaceOnUse" id="color-11"><stop offset="0" stop-color="#ffffff"/><stop offset="1" stop-color="#ffffff" stop-opacity="0"/></radialGradient><linearGradient x1="255.44478" y1="272.05725" x2="211.96681" y2="365.22428" gradientUnits="userSpaceOnUse" id="color-12"><stop offset="0" stop-color="#ffffff"/><stop offset="1" stop-color="#ffffff" stop-opacity="0"/></linearGradient><radialGradient cx="227.83545" cy="333.49662" r="8.51875" gradientUnits="userSpaceOnUse" id="color-13"><stop offset="0" stop-color="#ffffff"/><stop offset="1" stop-color="#ffffff" stop-opacity="0"/></radialGradient><radialGradient cx="238.58275" cy="243.23852" r="145.16666" gradientUnits="userSpaceOnUse" id="color-14"><stop offset="0" stop-color="#385e5c"/><stop offset="1" stop-color="#457371"/></radialGradient><radialGradient cx="243.37636" cy="210.23879" r="69.66667" gradientUnits="userSpaceOnUse" id="color-15"><stop offset="0" stop-color="#3a6563"/><stop offset="1" stop-color="#51827f"/></radialGradient><radialGradient cx="238.58275" cy="239.23852" r="145.16666" gradientUnits="userSpaceOnUse" id="color-16"><stop offset="0" stop-color="#3a6563"/><stop offset="1" stop-color="#51827f"/></radialGradient><linearGradient x1="239.43953" y1="20.23709" x2="239.53763" y2="89.23702" gradientUnits="userSpaceOnUse" id="color-17"><stop offset="0" stop-color="#364b4a"/><stop offset="1" stop-color="#3d5453"/></linearGradient><linearGradient x1="76.91666" y1="237.66666" x2="202.91669" y2="237.66666" gradientUnits="userSpaceOnUse" id="color-18"><stop offset="0" stop-color="#426c6a"/><stop offset="1" stop-color="#355a59"/></linearGradient><linearGradient x1="277.75001" y1="237.66666" x2="403.75001" y2="237.66666" gradientUnits="userSpaceOnUse" id="color-19"><stop offset="0" stop-color="#355a59"/><stop offset="1" stop-color="#426c6a"/></linearGradient><linearGradient x1="76.91666" y1="233.5" x2="202.91669" y2="233.5" gradientUnits="userSpaceOnUse" id="color-20"><stop offset="0" stop-color="#497876"/><stop offset="1" stop-color="#3c6563"/></linearGradient><linearGradient x1="403.75001" y1="234" x2="277.75001" y2="234" gradientUnits="userSpaceOnUse" id="color-21"><stop offset="0" stop-color="#497876"/><stop offset="1" stop-color="#3c6563"/></linearGradient></defs><g transform="translate(-65.77778,-18.68168)"><g data-paper-data="{&quot;isPaintingLayer&quot;:true}" fill-rule="nonzero" stroke-linejoin="miter" stroke-miterlimit="10" stroke-dasharray="" stroke-dashoffset="0" style="mix-blend-mode: normal"><g stroke="none" stroke-linecap="butt"><g><path d="M153.83334,261.47642c0,-8.83656 7.16344,-16 16,-16c8.83656,0 16,7.16344 16,16c0,8.83655 -7.16344,16 -16,16c-8.83656,0 -16,-7.16345 -16,-16z" fill="url(#color-1)" stroke-width="NaN"/><path d="M137.83333,261.14308c0,-8.83656 7.16344,-16 16,-16c8.83656,0 16,7.16344 16,16c0,8.83656 -7.16344,16 -16,16c-8.83656,0 -16,-7.16344 -16,-16z" fill="url(#color-2)" stroke-width="NaN"/></g><path d="M137.5,262.33333v-37h51v37c0,0 -7.41831,7 -25,7c-17.41504,0 -26,-7 -26,-7z" fill="url(#color-3)" stroke-width="0"/><path d="M137.33333,258.66666v-37h51v37c0,0 -7.41831,7 -25,7c-17.41504,0 -26,-7 -26,-7z" fill="url(#color-4)" stroke-width="0"/></g><g stroke="none" stroke-linecap="butt"><g><path d="M313.83333,260.47642c0,-8.83656 7.16344,-16 16,-16c8.83655,0 16,7.16345 16,16c0,8.83655 -7.16345,16 -16,16c-8.83656,0 -16,-7.16345 -16,-16z" fill="url(#color-5)" stroke-width="NaN"/><path d="M297.83333,260.14308c0,-8.83656 7.16344,-16 16,-16c8.83655,0 16,7.16344 16,16c0,8.83655 -7.16345,16 -16,16c-8.83656,0 -16,-7.16345 -16,-16z" fill="url(#color-6)" stroke-width="NaN"/></g><path d="M295.50001,261.33333v-37h51v37c0,0 -7.41831,7 -25,7c-17.41504,0 -26,-7 -26,-7z" fill="url(#color-7)" stroke-width="0"/><path d="M295.33333,257.66667v-37h51v37c0,0 -7.41831,7 -25,7c-17.41504,0 -26,-7 -26,-7z" fill="url(#color-8)" stroke-width="0"/></g><g><g><path d="M241.75914,301.41906c13.56276,0 24.55759,10.99483 24.55759,24.55759c0,13.56276 -10.99483,24.55753 -24.55759,24.55753c-13.56276,0 -24.55753,-10.9947 -24.55753,-24.55753c0,-13.56276 10.9947,-24.55759 24.55753,-24.55759z" fill="url(#color-9)" stroke="none" stroke-width="0" stroke-linecap="butt"/><path d="M285.67663,363.8083l-19.28743,10.3716l-14.71601,-42.01141l9.0062,-4.20284z" data-paper-data="{&quot;index&quot;:null}" fill="url(#color-10)" stroke="#ffffff" stroke-width="0" stroke-linecap="butt"/><path d="M255.74168,323.21539c4.70479,0 8.51881,3.81402 8.51881,8.51881c0,4.70479 -3.81402,8.51875 -8.51881,8.51875c-4.70479,0 -8.51875,-3.81396 -8.51875,-8.51875c0,-4.70479 3.81396,-8.51881 8.51875,-8.51881z" fill="url(#color-11)" stroke="none" stroke-width="0" stroke-linecap="butt"/><path d="M259.34405,327.40873l-3.70126,6.16876l-2.4675,1.54219" data-paper-data="{&quot;index&quot;:null}" fill="none" stroke="#777777" stroke-width="4" stroke-linecap="round"/></g><path d="M223.55056,328.65105l9.0062,4.20284l-14.71601,42.01141l-19.28743,-10.37166z" fill="url(#color-12)" stroke="#ffffff" stroke-width="0" stroke-linecap="butt"/><path d="M227.83545,324.97787c4.70479,0 8.51875,3.81396 8.51875,8.51875c0,4.70479 -3.81396,8.51875 -8.51875,8.51875c-4.70479,0 -8.51875,-3.81396 -8.51875,-8.51875c0,-4.70479 3.81396,-8.51875 8.51875,-8.51875z" fill="url(#color-13)" stroke="none" stroke-width="0" stroke-linecap="butt"/><path d="M229.24051,336.35343l-2.4675,-1.54219l-3.70126,-6.16876" fill="none" stroke="#777777" stroke-width="4" stroke-linecap="round"/></g><path d="M168.6731,71.83775l139.33319,-0.1981l0.01331,9.3582c0,0 -7.23442,0.638 -14.35803,3.21055c-8.47762,3.06154 -17.42272,8.23853 -22.51156,9.65989c-3.88952,1.08638 -19.25744,2.80638 -19.25744,2.80638l-25.99499,0.03696c0,0 -7.75328,-1.5763 -16.55474,-4.40077c-7.55475,-2.42439 -15.88176,-6.03162 -20.74068,-7.34936c-7.53981,-2.0448 -19.91576,-3.76556 -19.91576,-3.76556z" fill="#2b3c3b" stroke="none" stroke-width="0" stroke-linecap="butt"/><path d="M66.35224,217.48337l348.38704,-0.48964l0.02772,19.49998c0,0 -30.04994,7.58504 -60.23182,13.76068c-20.47808,4.1901 -41.28672,6.92192 -51.76895,9.32313c-14.28644,3.27265 -30.73586,9.61348 -30.73586,9.61348l-64.25131,0.09135c0,0 -36.26508,-6.74067 -57.72883,-11.64352c-13.08067,-2.98794 -37.25357,-11.47194 -55.48836,-16.03861c-16.75299,-4.19557 -28.1819,-4.61687 -28.1819,-4.61687z" fill="url(#color-14)" stroke="none" stroke-width="0" stroke-linecap="butt"/><path d="M267.72317,297.86382l-5.30205,22.00756l-42.32902,3.06018l-7.70173,-24.65574z" fill="#314443" stroke="#4f6e6c" stroke-width="0" stroke-linecap="round"/><path d="M218.35695,255.7673l44.75072,-0.06362l0.09041,63.59313c0,0 -5.77036,19.68938 -21.95379,20.44386c-17.3701,0.8098 -22.79693,-20.38024 -22.79693,-20.38024z" fill="#314443" stroke="none" stroke-width="0" stroke-linecap="butt"/><path d="M169.8565,196.3433l139.33319,-0.1981l0.01331,9.3582l-56.12703,15.67683l-25.99499,0.03696l-57.21118,-15.51569z" fill="url(#color-15)" stroke="none" stroke-width="0" stroke-linecap="butt"/><path d="M66.35224,213.48337c0,0 8.85326,1.47842 24.67717,1.45618c11.12025,-0.01563 22.55316,-2.61882 49.99456,-2.77023c13.80706,-0.07618 28.72087,1.88596 45.00547,1.87707c36.66683,-0.02001 76.818,-2.67168 114.0002,-2.85396c11.24457,-0.05513 24.65855,2.468 34.9965,2.54297c14.78082,0.10719 28.13767,-1.42603 39.50778,-1.52205c24.84619,-0.20984 40.20536,0.78038 40.20536,0.78038l0.02772,19.49998c0,0 -42.07285,9.94567 -77.27064,17.06916c-15.50851,3.13869 -30.89112,4.52068 -38.70422,6.31046c-13.11154,3.00351 -26.76177,9.31766 -26.76177,9.31766l-64.25131,0.09135c0,0 -14.81105,-2.27062 -35.37866,-6.99017c-9.99582,-2.2937 -23.11512,-4.42962 -34.08893,-7.19866c-21.79541,-5.49967 -42.59505,-14.18058 -51.90894,-16.3081c-9.88437,-2.25783 -20.02257,-1.80207 -20.02257,-1.80207z" fill="url(#color-16)" stroke="none" stroke-width="0" stroke-linecap="butt"/><path d="M232.00636,67.2477l15.99998,-0.02275c0,0 7.76174,24.32569 12.4962,47.56899c1.57696,7.74191 1.92901,16.25278 2.73136,22.51982c1.19469,9.33155 1.92314,28.51381 2.3644,41.83709c0.85316,25.76061 0.63265,46.04835 0.63265,46.04835l-51.99995,0.07393c0,0 -3.47812,-27.7213 -2.75145,-54.05379c0.33947,-12.30155 3.94187,-24.30001 4.97879,-33.02749c1.01423,-8.53645 5.14226,-20.49164 7.50737,-31.22637c4.57647,-20.77159 8.04063,-39.71778 8.04063,-39.71778z" fill="#364b4a" stroke="none" stroke-width="0" stroke-linecap="butt"/><path d="M168.6731,67.33775c0,0 16.80069,1.47754 29.35826,1.45968c6.62625,-0.00942 15.54229,-2.63177 27.98815,-2.80613c13.48236,-0.18888 23.57055,1.94943 37.51118,2.18639c9.79433,0.16648 16.9237,-1.53589 25.03708,-1.80481c9.64321,-0.31962 19.43851,0.76677 19.43851,0.76677l0.01331,9.3582c0,0 -10.32398,2.3864 -19.96892,6.08759c-6.23956,2.39439 -11.61345,6.21126 -15.68413,7.34824c-6.82331,1.90582 -20.47398,2.241 -20.47398,2.241l-25.99499,0.03696c0,0 -6.2327,-0.7554 -15.452,-3.56918c-6.27398,-1.91485 -15.2733,-5.85673 -19.3991,-6.97566c-8.61767,-2.33711 -22.36008,-4.97086 -22.36008,-4.97086z" fill="#364b4a" stroke="none" stroke-width="0" stroke-linecap="butt"/><path d="M230.03765,89.25052l4.90189,-69.00704l6.99999,-0.00995l7.09809,68.98998z" fill="url(#color-17)" stroke="none" stroke-width="0" stroke-linecap="round"/><path d="M211.55157,216.27693l56.99994,-0.08104c0,0 3.04884,31.35241 3.06959,45.94775c0.01679,11.81073 -2.95443,35.05217 -2.95443,35.05217c0,0 -7.34983,25.07879 -27.96301,26.03978c-22.12466,1.03146 -29.03694,-25.95874 -29.03694,-25.95874c0,0 3.98349,-11.61097 3.97138,-20.13181c-0.02106,-14.81617 -4.08653,-60.86811 -4.08653,-60.86811z" fill="#364b4a" stroke="none" stroke-width="0" stroke-linecap="butt"/><path d="M115.2041,206.41391c0,0 1.00431,3.03633 1.00826,5.81401c0.00663,4.66323 -1.4129,19.02176 -1.69572,28.48492c-0.14323,4.79238 0.7486,8.70103 0.7486,8.70103" fill="none" stroke="#849695" stroke-width="7.5" stroke-linecap="round"/><path d="M362.26358,248.06269l-0.06114,-42.99996" fill="none" stroke="#849695" stroke-width="7.5" stroke-linecap="round"/><path d="M198.89399,266.29498c0,0 -1.50619,-4.35539 -1.51218,-8.56518c-0.00445,-3.13065 0.27694,-9.24622 0.63201,-16.57508c0.47075,-9.71676 1.07101,-21.56623 1.30625,-31.41962c0.2568,-10.75612 -0.53414,-19.44004 -0.53414,-19.44004" fill="none" stroke="#849695" stroke-width="7.5" stroke-linecap="round"/><path d="M281.89671,268.17697c0,0 1.34369,-4.16464 1.1293,-10.98013c-0.22478,-7.14561 -0.86593,-17.27299 -1.46846,-26.37116c-0.64033,-9.66909 -1.23703,-18.24048 -1.24394,-23.10003c-0.01074,-7.55788 1.47505,-15.54859 1.47505,-15.54859" fill="none" stroke="#849695" stroke-width="7.5" stroke-linecap="round"/><path d="M258.93197,307.95966c0,0 -7.08257,8.55039 -17.94711,8.99018c-9.77307,0.39561 -18.55144,-7.93828 -18.55144,-7.93828l-0.02915,-20.49998c0,0 7.71579,5.76855 18.99007,5.20612c10.85104,-0.54132 17.50918,-5.75801 17.50918,-5.75801z" fill="#97bfc7" stroke="#4f6e6c" stroke-width="1.5" stroke-linecap="round"/><path d="M240.71799,294.23554l0.03128,21.99998" fill="none" stroke="#89adb4" stroke-width="1.5" stroke-linecap="round"/><path d="M250.71655,293.22133l0.36129,19.66618" fill="none" stroke="#89adb4" stroke-width="1.5" stroke-linecap="round"/><path d="M230.74501,313.24974l-0.02938,-20.66665" fill="none" stroke="#89adb4" stroke-width="1.5" stroke-linecap="round"/><path d="M258.93197,307.95966c0,0 -7.08257,8.55039 -17.94711,8.99018c-9.77307,0.39561 -18.55144,-7.93828 -18.55144,-7.93828l-0.02915,-20.49998c0,0 7.71579,5.76856 18.99006,5.20612c10.85104,-0.54132 17.50919,-5.75801 17.50919,-5.75801z" fill="none" stroke="#4f6e6c" stroke-width="1.5" stroke-linecap="round"/><path d="M230.40212,287.0002c0,0 0.681,-9.85077 0.86328,-19.26747c0.17244,-8.90846 -0.48557,-29.02509 -0.09613,-52.51882c0.12017,-7.24993 2.26426,-15.82145 2.42327,-23.48443c0.71966,-34.68367 0.17276,-72.20497 0.09602,-89.01116c-0.02807,-6.14716 0.43987,-8.22361 0.43987,-8.22361l11.49928,-0.51635c0,0 1.4946,3.01303 1.50646,8.25184c0.03505,15.48303 -1.27913,50.40752 -0.35752,84.45069c0.27204,10.04869 2.51091,21.92331 2.68873,31.05828c0.33592,17.25693 -0.87122,31.87426 -0.68994,40.03906c0.29507,13.29057 1.12596,28.69426 1.12596,28.69426c0,0 -6.15813,2.6924 -9.52759,2.78359c-3.10938,0.08415 -9.97168,-2.25586 -9.97168,-2.25586z" fill="#304040" stroke="#304040" stroke-width="7.5" stroke-linecap="round"/><path d="M239.86688,136.90328c-4.6484,0.00661 -8.42197,-3.71899 -8.42851,-8.32136c-0.00654,-4.60237 3.75642,-8.33868 8.40481,-8.34529c4.6484,-0.00661 8.42197,3.71899 8.42851,8.32136c0.00654,4.60237 -3.75642,8.33868 -8.40481,8.34529z" data-paper-data="{&quot;index&quot;:null}" fill="#2f2f2f" stroke="#2f2f2f" stroke-width="1.5" stroke-linecap="butt"/><path d="M239.89672,157.90325c-4.6484,0.00661 -8.42197,-3.71899 -8.42851,-8.32136c-0.00654,-4.60237 3.75642,-8.33868 8.40481,-8.34529c4.6484,-0.00661 8.42197,3.71899 8.42851,8.32136c0.00654,4.60237 -3.75642,8.33868 -8.40481,8.34529z" data-paper-data="{&quot;index&quot;:null}" fill="#2f2f2f" stroke="#2f2f2f" stroke-width="1.5" stroke-linecap="butt"/><path d="M239.92659,178.90323c-4.6484,0.00661 -8.42197,-3.71899 -8.42851,-8.32136c-0.00654,-4.60237 3.75642,-8.33868 8.40481,-8.34529c4.6484,-0.00661 8.42197,3.71899 8.42851,8.32136c0.00654,4.60237 -3.75642,8.33868 -8.40481,8.34529z" data-paper-data="{&quot;index&quot;:null}" fill="#2f2f2f" stroke="#2f2f2f" stroke-width="1.5" stroke-linecap="butt"/><path d="M239.72858,252.40359c-7.57689,0.01077 -13.72781,-6.06195 -13.73847,-13.56381c-0.01067,-7.50186 6.12296,-13.59205 13.69985,-13.60282c7.57689,-0.01077 13.72781,6.06195 13.73847,13.56381c0.01067,7.50186 -6.12296,13.59205 -13.69985,13.60282z" data-paper-data="{&quot;index&quot;:null}" fill="#2f2f2f" stroke="#2f2f2f" stroke-width="1.5" stroke-linecap="butt"/><path d="M66.52778,232.30555v-18.5" fill="none" stroke="#3985a2" stroke-width="1.5" stroke-linecap="round"/><path d="M414.5278,213.43055v18.5" fill="none" stroke="#3985a2" stroke-width="1.5" stroke-linecap="round"/><path d="M202.91669,221.41666v33.5c0,0 -13.51145,-5.00254 -24.44386,-7.43197c-6.23084,-1.38463 -15.41736,-1.60305 -27.58066,-4.0807c-14.54179,-2.96216 -31.51739,-4.22556 -45.53652,-7.40869c-16.19128,-3.67632 -28.43896,-9.07864 -28.43896,-9.07864v-6.5c0,0 37.61177,-1.68562 58.10786,-1.52295c21.45963,0.17031 67.89215,2.52295 67.89215,2.52295z" fill="url(#color-18)" stroke="#000000" stroke-width="0" stroke-linecap="round"/><path d="M403.75001,220.41667v6.5c0,0 -28.31324,5.72038 -53.12937,11.68913c-15.30187,3.68039 -27.41474,7.76512 -36.2876,9.73687c-15.45465,3.43437 -36.58303,6.57401 -36.58303,6.57401v-33.5z" data-paper-data="{&quot;index&quot;:null}" fill="url(#color-19)" stroke="#000000" stroke-width="0" stroke-linecap="round"/><path d="M202.91669,217.25v33.5c0,0 -18.98429,-5.71873 -32.66739,-8.75942c-2.88921,-0.64204 -6.51304,-1.08281 -10.64288,-1.5074c-8.11739,-0.83454 -18.18965,-1.60657 -28.48068,-3.72168c-26.38549,-5.42298 -54.20905,-14.01151 -54.20905,-14.01151v-6.5c0,0 15.77224,4.11327 27.11929,4.20333c8.63979,0.06857 23.26363,-1.88959 40.45081,-2.4794c27.49414,-0.94351 58.4299,-0.72393 58.4299,-0.72393z" fill="url(#color-20)" stroke="#000000" stroke-width="0" stroke-linecap="round"/><path d="M403.75001,216.75v6.5c0,0 -26.29924,4.76968 -51.08821,11.00307c-17.70013,4.45084 -33.64993,10.38317 -43.18171,12.50135c-12.57535,2.79452 -31.73008,4.49558 -31.73008,4.49558v-33.5c0,0 17.20461,2.3833 28.78229,2.29141c9.62466,-0.07638 27.74177,-2.18709 46.49576,-2.86212c25.18849,-0.90663 50.72195,-0.42929 50.72195,-0.42929z" data-paper-data="{&quot;index&quot;:null}" fill="url(#color-21)" stroke="#000000" stroke-width="0" stroke-linecap="round"/><path d="M234.25001,22.43168h9.5" fill="none" stroke="#364b4a" stroke-width="7.5" stroke-linecap="round"/><path d="M194.16669,250.79279l1,-33.33333h7.33333l-1,34.83333z" fill="#98adac" stroke="none" stroke-width="0" stroke-linecap="butt"/><path d="M194.12501,253.47335v-4.25l7.75,1.5v4.5z" fill="#6f7e7d" stroke="none" stroke-width="0" stroke-linecap="butt"/><path d="M278.66668,251.79279l-1,-34.83333l6.83333,0.5l1.5,34.33333z" fill="#98adac" stroke="none" stroke-width="0" stroke-linecap="butt"/><path d="M278.37501,254.97335v-4.5l7.75,-1.5v4.25z" data-paper-data="{&quot;index&quot;:null}" fill="#6f7e7d" stroke="none" stroke-width="0" stroke-linecap="butt"/><path d="M111.50001,233.95946v-17.16667h7.33333l-0.5,18.66667z" fill="#98adac" stroke="none" stroke-width="0" stroke-linecap="butt"/><path d="M358.50001,232.79279v-15.66667h7.33334v15.66667z" fill="#98adac" stroke="none" stroke-width="0" stroke-linecap="butt"/><path d="M111.37501,237.47335v-4.25l7.75,1.5v4.5z" fill="#6f7e7d" stroke="none" stroke-width="0" stroke-linecap="butt"/><path d="M358.37501,237.22335v-4.5l7.75,-1.5v4.25z" data-paper-data="{&quot;index&quot;:null}" fill="#6f7e7d" stroke="none" stroke-width="0" stroke-linecap="butt"/><path d="M227.5476,207.91261c-1.76776,1.76776 -3.53554,0 -3.53554,0l-1.65759,-2.16143c-0.9581,-3.90247 -0.38503,-7.40234 -1.04236,-11.20588c-0.17951,-1.03869 -0.85239,-1.9563 -1,-3c-0.1786,-1.26284 0.34525,-2.58908 0.03459,-3.82608c-0.36309,-1.44582 -1.64159,-2.55301 -2,-4c-0.62196,-2.51103 -0.00933,-5.28254 -0.91159,-7.70702c-0.44166,-1.18679 -0.97795,-2.35397 -1.68339,-3.40559c-0.62921,-0.93796 -1.92642,-1.43292 -2.2816,-2.50507c-1.671,-5.04416 0.73675,-9.98849 1.91166,-14.69092c1.46447,-5.86135 2.63565,-9.03011 6.44586,-13.82753c0,0 1.56174,-1.95217 3.51391,-0.39043c1.95217,1.56174 0.39043,3.51391 0.39043,3.51391c-2.32243,2.87938 -3.4979,3.72109 -4.57403,7.20927c-0.81187,2.63163 -1.12777,5.40451 -2.00495,8.0151c-0.68359,2.03444 -1.78777,6.10622 -1.0635,8.25719c0.24228,0.71953 1.29904,0.86205 1.71841,1.49493c0.9474,1.42973 1.71138,2.98961 2.31661,4.59441c0.98382,2.60868 0.40593,5.58977 1.08841,8.29298c0.36491,1.44536 1.63993,2.55343 2,4c0.33607,1.35016 -0.16401,2.79682 0.03459,4.17393c0.15046,1.0433 0.83216,1.95935 1,3c0.60468,3.74922 -0.00959,7.00433 0.95764,10.79412l0.34241,-0.16143c0,0 1.76776,1.76777 0,3.53554z" fill="#314443" stroke="none" stroke-width="0.5" stroke-linecap="butt"/><path d="M265.77982,257.64484c-2.5,0 -2.5,-2.5 -2.5,-2.5v-4c0.0457,-6.57411 -4.40951,-11.2115 -5.9549,-17.52723c-0.21779,-0.89008 0.35489,-1.87998 0.06216,-2.7483c-0.38393,-1.13888 -1.67432,-1.84312 -2,-3c-0.39924,-1.41817 0.10038,-2.95787 -0.08854,-4.419c-0.17623,-1.36302 -0.83267,-2.63585 -1,-4c-1.03961,-8.47573 -0.01873,-17.76677 -0.01873,-26.30546c0,0 0,-2.5 2.5,-2.5c2.5,0 2.5,2.5 2.5,2.5c0,8.31067 -1.06974,17.45318 -0.01873,25.69454c0.17386,1.36333 0.83594,2.63546 1,4c0.14253,1.1855 -0.42158,2.43435 -0.08854,3.581c0.33522,1.15416 1.62351,1.85864 2,3c0.3396,1.02953 -0.19204,2.19782 0.06216,3.25169c0.94416,3.91429 3.35596,6.90829 4.83139,10.46139c1.45328,3.49976 1.19459,4.63576 1.21372,8.01138v4c0,0 0,2.5 -2.5,2.5z" fill="#314443" stroke="none" stroke-width="0.5" stroke-linecap="butt"/><path d="M218.77982,233.64484c2.5,0 2.5,2.5 2.5,2.5v1c0,3.33031 0.05692,6.66991 0,10c-0.01867,1.09227 -0.40329,2.22398 -0.10727,3.27554c0.26041,0.92507 1.12493,1.55848 1.68739,2.33771c0,0 1.38675,2.08012 -0.69338,3.46687c-2.08013,1.38675 -3.46688,-0.69338 -3.46688,-0.69338c-0.77087,-1.22077 -1.91235,-2.2751 -2.3126,-3.66229c-1.15719,-4.01056 -0.10727,-10.52005 -0.10727,-14.72446v-1c0,0 0,-2.5 2.5,-2.5z" fill="#314443" stroke="none" stroke-width="0.5" stroke-linecap="butt"/><path d="M265.77982,277.64484c-2.5,0 -2.5,-2.5 -2.5,-2.5l1.70943,0.37171c-2.85366,-1.00831 -7.37158,-3.15251 -8.51913,-6.415c-0.54863,-1.55978 -0.12686,-3.30447 -0.1903,-4.9567c0,0 0,-2.5 2.5,-2.5c2.5,0 2.5,2.5 2.5,2.5c-0.06344,1.01443 -0.48197,2.06963 -0.19031,3.04329c0.52233,1.74372 4.05805,3.15123 5.48087,3.585l1.70943,4.37171c0,0 0,2.5 -2.5,2.5z" fill="#314443" stroke="none" stroke-width="0.5" stroke-linecap="butt"/><path d="M257.77982,150.64484c2.5,0 2.5,2.5 2.5,2.5v1c-0.02051,2.16096 -0.66427,4.27097 -1.03229,6.40046c-1.05135,6.08344 0.03229,13.40646 0.03229,19.59954c0,0 0,2.5 -2.5,2.5c-2.5,0 -2.5,-2.5 -2.5,-2.5c0,-6.52147 -1.0049,-13.96965 0.03228,-20.40045c0.3016,-1.87002 0.99124,-3.70551 0.96772,-5.59955v-1c0,0 0,-2.5 2.5,-2.5z" fill="#314443" stroke="none" stroke-width="0.5" stroke-linecap="butt"/><path d="M226.27982,77.14484c0,2.5 -2.5,2.5 -2.5,2.5l-0.88197,-0.26394c-3.68332,1.8272 -4.66904,2.69517 -8.81257,3.2452c-2.56311,0.34024 -5.19383,0.30469 -7.69912,0.94409c0,0 -2.42536,0.60634 -3.0317,-1.81902c-0.60634,-2.42535 1.81902,-3.03169 1.81902,-3.03169c5.62619,-1.38129 10.19216,-1.13907 15.4883,-3.81071l3.11804,-0.26393c0,0 2.5,0 2.5,2.5z" fill="#314443" stroke="none" stroke-width="0.5" stroke-linecap="butt"/><path d="M256.66177,83.38091c-2.23607,-1.11804 -1.11803,-3.3541 -1.11803,-3.3541l3.23607,-3.38196c4.11329,0.03689 5.23976,-0.29805 8.61325,-2.58012c0,0 2.08013,-1.38675 3.46688,0.69337c1.38675,2.08012 -0.69338,3.46688 -0.69338,3.46688c-4.12307,2.71538 -6.42766,3.3835 -11.38675,3.41988l1.23606,0.61803c0,0 -1.11803,2.23607 -3.3541,1.11803z" fill="#314443" stroke="none" stroke-width="0.5" stroke-linecap="butt"/><path d="M232.54375,76.26287c-1.11803,-2.23607 1.11803,-3.3541 1.11803,-3.3541l2.32747,-1.13564c0.67426,-0.13202 1.50531,0.05591 2.0228,-0.39606c1.06466,-0.92987 0.27592,-2.81869 0.26777,-4.23223c-0.01788,-3.10117 0.14769,-5.26633 -0.87171,-8.20943c0,0 -0.79057,-2.37171 1.58114,-3.16228c2.37171,-0.79057 3.16227,1.58114 3.16227,1.58114c1.36007,4.20689 2.90448,13.86816 -0.60394,17.55834c-0.98496,1.03598 -2.65147,1.06929 -3.9772,1.60394l-1.67254,0.86436c0,0 -2.23606,1.11804 -3.3541,-1.11803z" fill="#334746" stroke="none" stroke-width="0.5" stroke-linecap="butt"/><path d="M234.27982,35.14484c0,-1.38071 1.11929,-2.5 2.5,-2.5c1.38071,0 2.5,1.11929 2.5,2.5c0,1.38071 -1.11929,2.5 -2.5,2.5c-1.38071,0 -2.5,-1.11929 -2.5,-2.5z" fill="#334746" stroke="none" stroke-width="0.5" stroke-linecap="butt"/><path d="M234.27982,22.14484c0,-1.38071 1.11929,-2.5 2.5,-2.5c1.38071,0 2.5,1.11929 2.5,2.5c0,1.38071 -1.11929,2.5 -2.5,2.5c-1.38071,0 -2.5,-1.11929 -2.5,-2.5z" fill="#334746" stroke="none" stroke-width="0.5" stroke-linecap="butt"/><path d="M240.01205,211.91261c-1.76776,-1.76776 0,-3.53554 0,-3.53554l0.26777,0.76777c0.03923,-1.56353 0.92322,-4.72514 -1.01749,-6.01323c-0.87825,-0.58292 -2.20428,-0.30866 -3,-1c-4.61766,-4.01196 -4.80298,-10.74792 -1.42385,-15.56196c0.83278,-1.18641 2.36973,-1.66995 3.55459,-2.50493c0,0 2.08012,-1.38675 3.46687,0.69338c1.38675,2.08013 -0.69338,3.46687 -0.69338,3.46687c-0.81514,0.49836 -1.85638,0.74283 -2.44541,1.49506c-1.6398,2.09415 -1.9084,6.68596 0.57614,8.43805c0.86144,0.60748 2.21481,0.29673 3,1c1.2766,1.14343 2.38483,2.62017 2.87525,4.26231c0.54613,1.82868 0.07152,3.81631 0.10727,5.72446l-1.73224,2.76777c0,0 -1.76777,1.76776 -3.53554,0z" fill="#273333" stroke="none" stroke-width="0.5" stroke-linecap="butt"/><path d="M241.77982,283.64484c-2.5,0 -2.5,-2.5 -2.5,-2.5v-2c0,-1.05135 -0.04804,-6.31774 0.1903,-6.95671c0.36339,-0.97423 1.6614,-1.34895 2.1342,-2.27504c0.52397,-1.0263 0.50009,-2.24973 0.75014,-3.37459c0,0 0.60634,-2.42536 3.0317,-1.81902c2.42535,0.60634 1.81902,3.0317 1.81902,3.0317c-0.41662,1.54181 -0.54638,3.19158 -1.24985,4.62541c-0.37308,0.76041 -1.52168,0.95101 -1.86581,1.72496c-0.68349,1.53719 0.19031,3.361 0.19031,5.0433v2c0,0 0,2.5 -2.5,2.5z" fill="#273333" stroke="none" stroke-width="0.5" stroke-linecap="butt"/><path d="M240.27982,97.14484c0,1.89356 -1.43423,2.3529 -2.13005,2.46431c-1.49561,2.54298 -1.14087,4.37553 1.39782,6.76792c0,0 1.76776,1.76777 0,3.53553c-1.76776,1.76776 -3.53554,0 -3.53554,0c-2.68511,-2.79277 -4.90959,-6.30235 -3.62496,-10.49223c0.42323,-1.38035 1.54173,-2.44152 2.3126,-3.66229l3.08013,-1.11325c0,0 2.5,0 2.5,2.5z" fill="#273333" stroke="none" stroke-width="0.5" stroke-linecap="butt"/><path d="M244.27982,330.14484c0,-2.32142 2.1556,-2.48724 2.46355,-2.49909c1.08956,-1.08956 2.17912,-2.17912 3.26868,-3.26868c0,0 1.76777,-1.76777 3.53553,0c1.76777,1.76777 0,3.53553 0,3.53553c-1.33333,1.33333 -2.66667,2.66667 -4,4l-2.76777,0.73223c0,0 -2.5,0 -2.5,-2.5z" fill="#273333" stroke="none" stroke-width="0.5" stroke-linecap="butt"/><path d="M227.27982,326.14484c0,-1.38071 1.11929,-2.5 2.5,-2.5c1.38071,0 2.5,1.11929 2.5,2.5c0,1.38071 -1.11929,2.5 -2.5,2.5c-1.38071,0 -2.5,-1.11929 -2.5,-2.5z" fill="#273333" stroke="none" stroke-width="0.5" stroke-linecap="butt"/><path d="M143.4081,228.35427c0.79057,-2.37171 3.16228,-1.58114 3.16228,-1.58114l2.60989,0.90399c8.86175,-0.11005 17.48703,0.08733 26.28946,-1.01298c0,0 2.48069,-0.31009 2.79078,2.17061c0.31009,2.48069 -2.17061,2.79078 -2.17061,2.79078c-9.25601,1.157 -18.38599,1.07554 -27.71054,0.98702l-3.39011,-1.09601c0,0 -2.37171,-0.79057 -1.58114,-3.16228z" fill="#395f5d" stroke="none" stroke-width="0.5" stroke-linecap="butt"/><path d="M183.27982,236.14484c0,-1.38071 1.11929,-2.5 2.5,-2.5c1.38071,0 2.5,1.11929 2.5,2.5c0,1.38071 -1.11929,2.5 -2.5,2.5c-1.38071,0 -2.5,-1.11929 -2.5,-2.5z" fill="#395f5d" stroke="none" stroke-width="0.5" stroke-linecap="butt"/><path d="M207.77982,252.64484c-2.5,0 -2.5,-2.5 -2.5,-2.5v-1c0.01258,-2.89103 0.38533,-5.79866 1.07464,-8.60634c0,0 0.60634,-2.42536 3.0317,-1.81902c2.42536,0.60634 1.81902,3.0317 1.81902,3.0317c-0.61422,2.40664 -0.93795,4.90991 -0.92536,7.39366v1c0,0 0,2.5 -2.5,2.5z" fill="#395f5d" stroke="none" stroke-width="0.5" stroke-linecap="butt"/><path d="M308.27982,241.14484c0,2.5 -2.5,2.5 -2.5,2.5l-1.79057,-0.12829c-1.2423,-0.46165 -2.68152,-0.57033 -3.72691,-1.38494c-1.9619,-1.5288 -3.23865,-5.61279 -5.71426,-6.81127c-1.03717,-0.50211 -2.24973,-0.5001 -3.37459,-0.75014c0,0 -2.42536,-0.60634 -1.81902,-3.0317c0.60634,-2.42536 3.0317,-1.81902 3.0317,-1.81902c1.5418,0.41662 3.20308,0.52342 4.62541,1.24986c3.83276,1.95752 4.47346,6.69836 8.55882,7.80379l0.20943,-0.12829c0,0 2.5,0 2.5,2.5z" fill="#395f5d" stroke="none" stroke-width="0.5" stroke-linecap="butt"/><path d="M342.27982,225.14484c0,2.5 -2.5,2.5 -2.5,2.5l0.50341,-0.48011c-4.43089,4.14015 -10.14878,5.25315 -16.01312,6.43156c0,0 -2.45145,0.49029 -2.94174,-1.96116c-0.49029,-2.45145 1.96116,-2.94174 1.96116,-2.94174c4.7967,-0.95452 10.21609,-1.67526 13.72252,-5.31632l2.76777,-0.73223c0,0 2.5,0 2.5,2.5z" fill="#395f5d" stroke="none" stroke-width="0.5" stroke-linecap="butt"/><path d="M143.27981,250.14484c0,-2.5 2.5,-2.5 2.5,-2.5h1c4.3419,0.04122 8.18987,1.41487 12.40046,2.03228c5.58823,0.81943 11.93754,-0.03228 17.59954,-0.03228c0,0 2.5,0 2.5,2.5c0,2.5 -2.5,2.5 -2.5,2.5c-5.95645,0 -12.50665,0.78984 -18.40046,-0.03228c-3.90736,-0.54503 -7.58713,-2.01755 -11.59954,-1.96772h-1c0,0 -2.5,0 -2.5,-2.5z" fill="#3b6260" stroke="none" stroke-width="0.5" stroke-linecap="butt"/><path d="M204.27982,259.14484c0,-1.38071 1.11929,-2.5 2.5,-2.5c1.38071,0 2.5,1.11929 2.5,2.5c0,1.38071 -1.11929,2.5 -2.5,2.5c-1.38071,0 -2.5,-1.11929 -2.5,-2.5z" fill="#3b6260" stroke="none" stroke-width="0.5" stroke-linecap="butt"/><path d="M209.89786,214.38091c-2.23607,1.11803 -3.3541,-1.11803 -3.3541,-1.11803l-1.26393,-3.11803c0.02186,-1.76048 -0.29547,-3.54578 -0.87171,-5.20943c0,0 -0.79057,-2.37171 1.58114,-3.16228c2.37171,-0.79057 3.16228,1.58114 3.16228,1.58114c0.70585,2.18329 1.10651,4.49612 1.12829,6.79057l0.73607,0.88197c0,0 1.11803,2.23607 -1.11803,3.3541z" fill="#3b6260" stroke="none" stroke-width="0.5" stroke-linecap="butt"/><path d="M272.77982,212.64484c-2.5,0 -2.5,-2.5 -2.5,-2.5v-3c0,0 0,-2.5 2.5,-2.5c2.5,0 2.5,2.5 2.5,2.5v3c0,0 0,2.5 -2.5,2.5z" fill="#3b6260" stroke="none" stroke-width="0.5" stroke-linecap="butt"/><path d="M343.27982,241.14484c0,2.5 -2.5,2.5 -2.5,2.5l-2.54431,-0.04188c-2.40716,0.95053 -5.09415,1.01021 -7.53635,1.86671c-3.44031,1.20655 -6.64828,5.17205 -10.19489,6.06791c-1.85037,0.4674 -3.81631,0.07151 -5.72446,0.10727c0,0 -2.5,0 -2.5,-2.5c0,-2.5 2.5,-2.5 2.5,-2.5c1.42518,0.03576 2.89132,0.44839 4.27554,0.10727c0.9833,-0.24232 1.59462,-1.25971 2.46964,-1.76955c2.42915,-1.41535 4.69037,-3.20997 7.33547,-4.16255c2.73736,-0.98581 5.7389,-1.11317 8.46365,-2.13329l3.45569,-0.04188c0,0 2.5,0 2.5,2.5z" fill="#3b6260" stroke="none" stroke-width="0.5" stroke-linecap="butt"/><path d="M307.54758,217.91261c-1.76777,1.76777 -3.53553,0 -3.53553,0l0.76777,-0.26777c-1.33333,0 -2.66667,0 -4,0c0,0 -2.5,0 -2.5,-2.5c0,-2.5 2.5,-2.5 2.5,-2.5c1.33333,0 2.66667,0 4,0l2.76777,1.73223c0,0 1.76777,1.76777 0,3.53553z" fill="#3b6260" stroke="none" stroke-width="0.5" stroke-linecap="butt"/><path d="M119.45862,242.21636c0.92848,-2.32119 3.24967,-1.39272 3.24967,-1.39272l0.35762,0.14305c2.43338,1.00159 5.08268,1.7118 7.71391,1.67815c0,0 2.5,0 2.5,2.5c0,2.5 -2.5,2.5 -2.5,2.5c-3.26149,-0.03289 -6.53261,-0.84941 -9.57086,-2.03576l-0.35762,-0.14305c0,0 -2.32119,-0.92848 -1.39272,-3.24967z" fill="#436f6d" stroke="none" stroke-width="0.5" stroke-linecap="butt"/><path d="M74.87048,234.39439c-2.24955,1.09065 -3.3402,-1.1589 -3.3402,-1.1589l-1.18031,-2.43807c-0.63045,-1.5747 -1.26089,-3.1494 -1.89134,-4.72411c0,0 -0.92848,-2.32119 1.39272,-3.24967c2.32119,-0.92848 3.24967,1.39272 3.24967,1.39272c0.60752,1.52022 1.21505,3.04044 1.82257,4.56066l1.10579,2.27716c0,0 1.09065,2.24955 -1.1589,3.3402z" fill="#436f6d" stroke="none" stroke-width="0.5" stroke-linecap="butt"/><path d="M398.85998,226.75809c1.38675,2.08013 -0.69338,3.46688 -0.69338,3.46688l-3.01062,2.00704c-2.67147,1.70117 -5.78543,2.71759 -8.88584,3.36428c0,0 -2.45145,0.49029 -2.94174,-1.96116c-0.49029,-2.45145 1.96116,-2.94174 1.96116,-2.94174c2.48461,-0.47124 5.01537,-1.22489 7.11416,-2.63572l2.98938,-1.99296c0,0 2.08013,-1.38675 3.46688,0.69338z" fill="#436f6d" stroke="none" stroke-width="0.5" stroke-linecap="butt"/><path d="M411.77982,225.64484c-2.5,0 -2.5,-2.5 -2.5,-2.5l0.12829,-0.20943c-0.33333,-1 -0.66667,-2 -1,-3c0,0 -0.79057,-2.37171 1.58114,-3.16228c2.37171,-0.79057 3.16228,1.58114 3.16228,1.58114c0.33333,1 0.66667,2 1,3l0.12829,1.79057c0,0 0,2.5 -2.5,2.5z" fill="#436f6d" stroke="none" stroke-width="0.5" stroke-linecap="butt"/><path d="M176.27982,202.14484c0,-2.5 2.5,-2.5 2.5,-2.5c3,0 7,0 10,0c0,0 2.5,0 2.5,2.5c0,2.5 -2.5,2.5 -2.5,2.5c-3,0 -6,0 -9,0h-1c0,0 -2.5,0 -2.5,-2.5z" fill="#436f6d" stroke="none" stroke-width="0.5" stroke-linecap="butt"/><path d="M305.27982,202.14484c0,2.5 -2.5,2.5 -2.5,2.5c-3,0 -8,0 -11,0c0,0 -2.5,0 -2.5,-2.5c0,-2.5 2.5,-2.5 2.5,-2.5c3,0 6,0 9,0h2c0,0 2.5,0 2.5,2.5z" fill="#436f6d" stroke="none" stroke-width="0.5" stroke-linecap="butt"/><path d="M240.27982,260.14484c0,-1.79691 1.29155,-2.30226 2.01801,-2.44439c-0.3465,-0.04406 -0.68849,-0.08924 -1.01859,-0.12c-3.35356,-0.31245 -6.58803,-1.41676 -9.91043,-1.96963c0,0 -2.46598,-0.411 -2.05499,-2.87699c0.411,-2.46598 2.87698,-2.05498 2.87698,-2.05498c3.25028,0.54253 6.48047,1.20844 9.69385,1.93839c0.55708,0.12654 1.25791,0.72926 1.67908,0.3433c0.92584,-0.84846 1.09655,-2.25961 1.64482,-3.38941l0.14569,-1.03182c0,0 0.06817,-0.27309 0.25041,-0.61314c0.1092,-2.43597 0.00121,-4.86198 -1.00035,-6.54959c-0.60843,-1.0252 -1.72818,-1.64265 -2.59227,-2.46398c0,0 -1.76776,-1.76777 0,-3.53554c1.76776,-1.76776 3.53554,0 3.53554,0c1.13591,1.17867 2.61119,2.10595 3.40774,3.53602c2.34515,4.21033 1.45773,10.64718 1.3245,15.23175c-0.05023,1.72863 0.48872,3.63848 -0.29582,5.17964c-0.725,1.42419 -2.54496,1.93366 -3.81744,2.90048l-3.38675,0.41987c0,0 -2.5,0 -2.5,-2.5zM243.39306,258.06471c0.18374,-0.09256 0.39136,-0.16169 0.60476,-0.22513c-0.33489,0.00099 -0.67702,-0.0235 -1.01945,-0.0588z" fill="#283535" stroke="none" stroke-width="0.5" stroke-linecap="butt"/><path d="M231.54758,227.37707c1.76776,1.76776 0,3.53554 0,3.53554l-0.68764,0.61898c-0.86392,1.28706 -4.58012,4.77371 -4.58012,6.61325c0,0.32225 0.80856,2.50662 1.4567,2.6903c1.61855,0.45871 3.361,-0.1903 5.0433,-0.1903c0,0 2.5,0 2.5,2.5c0,2.5 -2.5,2.5 -2.5,2.5c-0.97124,0 -6.42352,0.04803 -6.95671,-0.1903c-1.32719,-0.59327 -2.4025,-1.76067 -3.16992,-2.99537c-3.60021,-5.79237 1.15714,-9.33284 4.0465,-13.70108l1.31236,-1.38102c0,0 1.76777,-1.76776 3.53554,0z" fill="#283535" stroke="none" stroke-width="0.5" stroke-linecap="butt"/><path d="M237.01205,218.37707c1.76776,-1.76776 3.53554,0 3.53554,0l1,1c1.71951,1.73002 3.61113,3.30266 5.61898,4.68765c1.21251,0.83637 3.02204,1.20779 3.60002,2.56264c0.10731,0.25154 0.19147,0.50842 0.25677,0.76964l0.12817,-0.04272l0.98155,2.94464c0.09499,0.2642 0.14675,0.54902 0.14675,0.84593c0,1.38071 -1.11929,2.5 -2.5,2.5c-0.69036,0 -1.31536,-0.27982 -1.76777,-0.73223l-2,-2c0,0 -0.87543,-0.87544 -0.77812,-2.01025c-2.77035,-1.07616 -5.44077,-4.21827 -7.22188,-5.98975l-1,-1c0,0 -1.76776,-1.76777 0,-3.53554z" fill="#283535" stroke="none" stroke-width="0.5" stroke-linecap="butt"/><path d="M239.77983,159.84354c-0.28075,0 -0.52997,-0.01892 -0.75121,-0.05251c0.16529,1.11538 0.24815,2.23544 0.2512,3.35341c0,0 0,1.50041 -2.5,1.50041c-2.5,0 -2.5,-1.50041 -2.5,-1.50041c0.00574,-1.93799 -0.27242,-3.88248 -0.80646,-5.79377l-0.18935,-1.92144c0,0 -0.1448,-1.49789 2.351,-1.5848c0.76871,-0.02677 1.31439,0.09681 1.70151,0.28065c0.11841,-3.91982 0.28288,-7.86717 -1.00816,-11.69209c0,0 -0.49029,-1.47128 1.96116,-1.76552c2.45145,-0.29425 2.94174,1.17702 2.94174,1.17702c1.64885,5.00637 1.04797,10.14592 1.04854,15.23994l0.00001,1.25871c0,0 0,1.50041 -2.5,1.50041z" fill="#283535" stroke="none" stroke-width="0.5" stroke-linecap="butt"/><path d="M242.277,128.22014c-0.02417,0.41703 -0.25685,2.4247 -2.4972,2.4247c-2.5,0 -2.5,-2.5 -2.5,-2.5l0.73223,-2.76777c2.54308,-2.39652 1.86168,-4.59529 3.64114,-7.54656c0.58579,-0.97155 1.57257,-1.63563 2.35886,-2.45344c0,0 1.76777,-1.76777 3.53553,0c1.76777,1.76777 0,3.53553 0,3.53553c-2.54308,2.39652 -1.86168,4.59529 -3.64114,7.54656c-0.41375,0.68621 -1.02754,1.21903 -1.62943,1.76097z" fill="#283535" stroke="none" stroke-width="0.5" stroke-linecap="butt"/><g><path d="M318.99358,252.86427l0.19528,-5.23104l20.05234,0.74859l-0.19531,5.23104z" fill="#8d8d8d" stroke="none" stroke-width="0" stroke-linecap="butt"/><path d="M318.7439,259.54837l0.2886,-7.73035l20.34297,0.75946l-0.2886,7.73035z" fill="#b7b7b7" stroke="#000000" stroke-width="0" stroke-linecap="butt"/><path d="M322.02475,257.41546c-0.84267,-0.03147 -1.50025,-0.74006 -1.46877,-1.5827c0.03146,-0.84264 0.74006,-1.50022 1.5827,-1.46874c0.84267,0.03147 1.50025,0.74005 1.46877,1.58269c-0.03147,0.84268 -0.74006,1.50025 -1.5827,1.46878z" fill="#8d8d8d" stroke="none" stroke-width="0.5" stroke-linecap="butt"/><path d="M327.51991,256.38376c0.03147,-0.84268 0.74006,-1.50025 1.5827,-1.46877c0.84268,0.03147 1.50025,0.74006 1.46878,1.5827c-0.03147,0.84267 -0.74006,1.50025 -1.5827,1.46877c-0.84264,-0.03147 -1.50025,-0.74006 -1.46878,-1.5827z" fill="#8d8d8d" stroke="none" stroke-width="0.5" stroke-linecap="butt"/><path d="M334.80091,258.18347c-0.84267,-0.03147 -1.50025,-0.74006 -1.46877,-1.5827c0.03147,-0.84268 0.74006,-1.50025 1.5827,-1.46878c0.84267,0.03147 1.50025,0.74006 1.46877,1.5827c-0.03146,0.84264 -0.74006,1.50022 -1.5827,1.46875z" fill="#8d8d8d" stroke="none" stroke-width="0.5" stroke-linecap="butt"/><path d="M302.25867,297.52761l53.48273,-87.05519" fill="none" stroke="#000000" stroke-width="0.00001" stroke-linecap="round"/><path d="M243.95337,393.31932l170.09338,-278.63861" fill="none" stroke="#000000" stroke-width="0" stroke-linecap="round"/></g><g><path d="M138.97726,257.01855l0.11468,-5.23344l20.06149,0.43963l-0.11471,5.23343z" fill="#8d8d8d" stroke="none" stroke-width="0" stroke-linecap="butt"/><path d="M138.83058,263.7057l0.16949,-7.73387l20.35226,0.44601l-0.16949,7.73388z" fill="#b7b7b7" stroke="#000000" stroke-width="0" stroke-linecap="butt"/><path d="M142.07817,261.52251c-0.84305,-0.01849 -1.51147,-0.71686 -1.49299,-1.55989c0.01848,-0.84302 0.71686,-1.51144 1.55989,-1.49295c0.84305,0.01849 1.51147,0.71685 1.49299,1.55988c-0.01849,0.84305 -0.71686,1.51147 -1.55989,1.49299z" fill="#8d8d8d" stroke="none" stroke-width="0.5" stroke-linecap="butt"/><path d="M147.55681,260.40628c0.01849,-0.84305 0.71686,-1.51147 1.55989,-1.49298c0.84305,0.01849 1.51147,0.71686 1.49299,1.55989c-0.01849,0.84305 -0.71686,1.51147 -1.55989,1.49298c-0.84302,-0.01848 -1.51147,-0.71686 -1.49299,-1.55989z" fill="#8d8d8d" stroke="none" stroke-width="0.5" stroke-linecap="butt"/><path d="M154.86467,262.09362c-0.84305,-0.01849 -1.51147,-0.71685 -1.49299,-1.55988c0.01849,-0.84305 0.71686,-1.51147 1.55989,-1.49299c0.84305,0.01849 1.51147,0.71686 1.49299,1.55989c-0.01848,0.84302 -0.71686,1.51144 -1.55989,1.49295z" fill="#8d8d8d" stroke="none" stroke-width="0.5" stroke-linecap="butt"/><path d="M122.93231,301.93437l52.13539,-87.8687" fill="none" stroke="#000000" stroke-width="0.00001" stroke-linecap="round"/><path d="M66.10949,398.61284l165.78108,-281.22565" fill="none" stroke="#000000" stroke-width="0" stroke-linecap="round"/></g><path d="M170.72279,68.56271l0.02038,14.33332" fill="none" stroke="#849695" stroke-width="7.5" stroke-linecap="round"/><path d="M305.72281,68.56271l0.02038,14.33332" fill="none" stroke="#849695" stroke-width="7.5" stroke-linecap="round"/></g></g></svg>