<svg version="1.1" xmlns="http://www.w3.org/2000/svg" xmlns:xlink="http://www.w3.org/1999/xlink" width="65" height="45.33333" viewBox="0,0,65,45.33333"><defs><linearGradient x1="156.58335" y1="201.67022" x2="166.91668" y2="201.67022" gradientUnits="userSpaceOnUse" id="color-1"><stop offset="0" stop-color="#000000" stop-opacity="0"/><stop offset="1" stop-color="#000000"/></linearGradient><linearGradient x1="162.91668" y1="179.00355" x2="167.31385" y2="179.00355" gradientUnits="userSpaceOnUse" id="color-2"><stop offset="0" stop-color="#000000" stop-opacity="0"/><stop offset="1" stop-color="#000000"/></linearGradient></defs><g transform="translate(-108.16668,-172.198)"><g data-paper-data="{&quot;isPaintingLayer&quot;:true}" fill-rule="nonzero" stroke-linejoin="miter" stroke-miterlimit="10" stroke-dasharray="" stroke-dashoffset="0" style="mix-blend-mode: normal"><g><g data-paper-data="{&quot;index&quot;:null}"><g><g data-paper-data="{&quot;index&quot;:null}" stroke-width="0"><path d="M172.16669,186.31082h-4.63077l-24.0359,-7.71795v-6.39487l27.12308,0.22051z" fill="#0d0d0d" stroke="#4d4d4d" stroke-linecap="round"/><path d="M173.16668,217.53133h-10.5c0,0 -12.1632,-5.18084 -17.90463,-7.02442c-9.97065,-3.20159 -36.59537,-10.47558 -36.59537,-10.47558v-14.5c0,0 14.74006,1.80006 24.00984,1.87542c4.53353,0.03686 8.40669,-1.85927 15.29546,-2.14083c9.74884,-0.39846 22.1947,0.76541 22.1947,0.76541z" fill="#0d0d0d" stroke="#4d4d4d" stroke-linecap="round"/><path d="M147.28022,208.65631v-13.125l6.11413,-5.625h8.72283l-0.08152,18.75z" data-paper-data="{&quot;index&quot;:null}" fill="#0a0a0a" stroke="#000000" stroke-linecap="round"/><path d="M117.95197,188.23966v5.90192l-2.74934,2.5294h-3.9224l0.03666,-8.43132z" data-paper-data="{&quot;index&quot;:null}" fill="#0a0a0a" stroke="#000000" stroke-linecap="round"/><path d="M158.64442,181.67098l-0.03086,-7.09798h3.30211l2.31456,2.12939v4.96859z" data-paper-data="{&quot;index&quot;:null}" fill="#0a0a0a" stroke="#000000" stroke-linecap="round"/><path d="M166.91668,186.00355v31.33333h-5.33333l-5,-1.33333v-30z" fill="url(#color-1)" stroke="none" stroke-linecap="butt"/><path d="M167.31384,172.33688v13.33333h-2.2695l-2.12766,-0.56738v-12.76596z" fill="url(#color-2)" stroke="none" stroke-linecap="butt"/></g><path d="M125.62986,201.74672l-1.32569,-0.2676c-1.15546,-0.3878 -2.17208,-1.12539 -3.32445,-1.52227c-1.92216,-0.66199 -4.13414,0.15621 -6.09365,-0.45963c-1.29462,-0.40687 -2.36674,-1.36789 -3.65635,-1.79037c0,0 -1.18585,-0.39529 -0.79057,-1.58114c0.39529,-1.18585 1.58114,-0.79057 1.58114,-0.79057c1.27723,0.43192 2.35093,1.35902 3.63111,1.78211c1.9306,0.63805 4.13628,-0.17555 6.11889,0.46789c1.1105,0.3604 2.06697,1.11147 3.17555,1.47773l1.17431,0.2324c0,0 1.22573,0.24514 0.98058,1.47087c-0.24514,1.22573 -1.47087,0.98058 -1.47087,0.98058z" data-paper-data="{&quot;index&quot;:null}" fill="#000000" stroke="none" stroke-width="0.5" stroke-linecap="butt"/><path d="M134.60108,192.55188c-0.78086,0.97609 -1.75695,0.19522 -1.75695,0.19522l-0.97877,-0.8347c-3.06432,-0.47777 -5.38982,1.62274 -8.23382,2.332c-2.08952,0.5211 -4.91043,-0.3986 -6.96204,-0.7404c0,0 -1.23299,-0.2055 -1.02749,-1.43849c0.2055,-1.23299 1.43849,-1.02749 1.43849,-1.02749c1.63572,0.27273 4.36909,1.22079 6.03796,0.7596c3.6507,-1.00887 5.83417,-2.84203 9.76618,-2.168l1.52123,1.1653c0,0 0.97609,0.78086 0.19522,1.75695z" data-paper-data="{&quot;index&quot;:null}" fill="#000000" stroke="none" stroke-width="0.5" stroke-linecap="butt"/></g><path d="M166.49304,177.71197c0.55901,1.11803 -0.55902,1.67705 -0.55902,1.67705l-1.05902,0.38197c-5.05889,0 -9.02622,0.33817 -13.64312,-2.42813c0,0 -1.07187,-0.64312 -0.42875,-1.71499c0.64312,-1.07187 1.71499,-0.42875 1.71499,-0.42875c4.20484,2.52665 7.74355,2.07187 12.35688,2.07187l-0.05902,-0.11803c0,0 1.11803,-0.55901 1.67705,0.55902z" data-paper-data="{&quot;index&quot;:null}" fill="#000000" stroke="none" stroke-width="0.5" stroke-linecap="butt"/></g><path d="M158.16668,199.35772c0,3.4863 -2.79823,6.3125 -6.25,6.3125c-1.29822,0 -1.17067,-1.06644 -2.1699,-1.75075c-1.65757,-1.13517 -4.0801,-2.38665 -4.0801,-4.56175c0,-3.4863 2.79822,-6.3125 6.25,-6.3125c3.45177,0 6.25,2.8262 6.25,6.3125z" data-paper-data="{&quot;index&quot;:null}" fill="#3d3d3d" stroke="#3e3e3e" stroke-width="1.5" stroke-linecap="butt"/><path d="M146.875,207.95833c0,1.25 -1.25,1.25 -1.25,1.25l-1.64312,-0.17813c-2.64568,-1.63722 -5.27161,-4.64583 -7.30595,-7.00838c0,0 -0.81349,-0.94907 0.13558,-1.76256c0.94907,-0.81349 1.76256,0.13558 1.76256,0.13558c1.80727,2.11921 4.28976,5.11096 6.69405,6.49162l0.35688,-0.17813c0,0 1.25,0 1.25,1.25z" data-paper-data="{&quot;index&quot;:null}" fill="#000000" stroke="none" stroke-width="0.5" stroke-linecap="butt"/><path d="M155.11735,190.09637c-0.13804,1.24235 -1.38039,1.10432 -1.38039,1.10432l-2.18109,-0.24427c-3.75212,0.00372 -6.57409,0.93111 -9.7375,3.04198c0,0 -1.04006,0.69338 -1.73344,-0.34669c-0.69338,-1.04006 0.34669,-1.73344 0.34669,-1.73344c3.62559,-2.41496 6.95469,-3.46201 11.2625,-3.45802l2.31891,0.25573c0,0 1.24235,0.13804 1.10432,1.38039z" data-paper-data="{&quot;index&quot;:null}" fill="#000000" stroke="none" stroke-width="0.5" stroke-linecap="butt"/><path d="M161.1695,197.44132c-1.23299,-0.2055 -1.02749,-1.43849 -1.02749,-1.43849l0.37153,-1.86648c2.43584,-2.4563 -0.784,-3.18255 -2.15322,-5.38628c-0.49295,-0.7934 -0.61412,-1.76431 -0.92117,-2.64646c0,0 -0.39528,-1.18585 0.79057,-1.58114c1.18585,-0.39528 1.58114,0.79057 1.58114,0.79057c1.06523,3.38465 6.58919,6.33503 2.92561,9.96726l-0.12847,1.13352c0,0 -0.2055,1.23299 -1.43849,1.02749z" data-paper-data="{&quot;index&quot;:null}" fill="#000000" stroke="none" stroke-width="0.5" stroke-linecap="butt"/><path d="M150.00697,209.76735c-0.55902,-1.11803 0.55902,-1.67705 0.55902,-1.67705l1.16373,-0.56782c2.90638,-0.96409 5.59681,-0.81415 8.64528,-0.81415c0,0 1.25,0 1.25,1.25c0,1.25 -1.25,1.25 -1.25,1.25c-2.76305,0 -5.23077,-0.19348 -7.85472,0.68585l-0.83627,0.43218c0,0 -1.11803,0.55902 -1.67705,-0.55902z" data-paper-data="{&quot;index&quot;:null}" fill="#000000" stroke="none" stroke-width="0.5" stroke-linecap="butt"/><path d="M152.13197,193.35765c0.01504,-0.03007 0.03048,-0.05893 0.04629,-0.08662c-1.81681,-0.35056 -3.71175,-0.77258 -5.18096,-0.53369c-0.66307,0.10781 -1.16765,0.6668 -1.72669,1.03931c-0.98441,0.65596 -2.45399,0.83427 -3.01143,1.87763c-1.02254,1.91389 -0.45824,4.19098 0.31539,5.94977c0.20249,0.46036 0.15639,1.08302 0.53927,1.40911c1.13304,0.965 2.81533,0.96647 4.22526,1.44303c3.29388,1.11334 7.03639,1.71932 10.26787,0.37139c0.76011,-0.30376 1.49821,-0.66977 2.28033,-0.91129c0.50026,-0.15448 1.40439,0.23305 1.54721,-0.27066c0.14063,-0.49598 -0.83776,-0.61128 -1.19058,-0.98717c-2.25037,-2.39749 -3.7246,-5.46898 -6.63247,-7.16723l-0.92046,-0.45656c0,0 -1.11803,-0.55902 -0.55902,-1.67705zM155.38317,193.65626c2.67049,1.78254 5.21513,4.85946 6.87291,7.51858c0.61742,0.99036 1.8977,1.99097 1.59329,3.11762c-0.27407,1.01435 -4.31657,2.45701 -5.31394,2.85631c-3.88101,1.50003 -8.05252,0.99289 -11.99235,-0.3227c-0.91153,-0.30438 -4.51915,-1.4445 -5.15691,-2.00593c-0.61067,-0.53758 -0.74744,-1.44591 -1.08881,-2.1844c-2.36214,-5.11001 0.24969,-11.27443 6.27337,-12.36176c2.47631,-0.447 6.09548,0.89692 8.67926,0.89267c0,0 1.25,0 1.25,1.25c0,0.99671 -0.79474,1.19868 -1.11683,1.2396z" data-paper-data="{&quot;index&quot;:null}" fill="#141414" stroke="none" stroke-width="0.5" stroke-linecap="butt"/><path d="M151.89528,197.29696c-1.18585,0.39528 -1.58114,-0.79057 -1.58114,-0.79057l-0.20943,-0.62829c-0.12776,-0.39653 -0.69736,-1.6914 -0.90427,-2.93206c-1.03983,-0.12883 -2.08225,-0.02059 -2.90215,0.46029c-0.89475,0.52478 -0.55627,2.00299 -0.72202,3.02695c-0.40704,2.51456 -0.94109,6.77633 2.40114,7.85593c1.89214,0.61119 4.51984,-1.21022 6.10075,-1.92064c0.92077,-0.41377 1.69662,-1.18258 2.25028,-2.02666c0.26333,-1.6775 -0.34131,-2.98712 -1.40865,-4.2178c-0.73959,-0.6425 -1.47723,-1.28752 -2.27458,-1.85329c-0.17864,-0.08918 -0.34558,-0.17271 -0.50136,-0.2725c0.11123,0.36291 0.20851,0.73189 0.33257,1.08921l0.20943,0.62829c0,0 0.39528,1.18585 -0.79057,1.58114zM158.11185,196.09556c0.44052,0.64261 0.76749,1.28772 0.90816,1.88754c0.2473,1.05448 -0.23231,2.1537 -0.34847,3.23054c-0.91665,1.362 -2.05908,2.71722 -3.54144,3.42284c-2.44341,1.16309 -5.25475,2.8679 -8.10752,1.9632c-0.68069,-0.21587 -1.07121,-0.94548 -1.5827,-1.44379c-2.98961,-2.91254 -2.98442,-5.25223 -2.33007,-9.13072c0.16061,-0.95199 0.52143,-3.78636 1.59189,-4.54262c1.48318,-1.04783 3.33279,-1.1949 5.08471,-0.90617c0.09722,-0.06268 0.20694,-0.11526 0.33029,-0.1564c1.00728,-0.33591 1.98701,0.59949 2.93585,1.20973c0.23609,0.12268 0.46649,0.25589 0.69216,0.39757c0.7956,0.46624 1.74229,1.19454 2.61664,2.03815c0.42171,0.36608 0.84002,0.73171 1.26353,1.07821c0,0 0.47376,0.38763 0.48697,0.9519z" data-paper-data="{&quot;index&quot;:null}" fill="#282828" stroke="none" stroke-width="0.5" stroke-linecap="butt"/></g></g></g></svg>