<svg version="1.1" xmlns="http://www.w3.org/2000/svg" xmlns:xlink="http://www.w3.org/1999/xlink" width="116.3974" height="115.05263" viewBox="0,0,116.3974,115.05263"><defs><radialGradient cx="240" cy="180.375" r="5.4" gradientUnits="userSpaceOnUse" id="color-1"><stop offset="0" stop-color="#58cfff"/><stop offset="1" stop-color="#58cfff" stop-opacity="0"/></radialGradient><radialGradient cx="240" cy="176.875" r="5.4" gradientUnits="userSpaceOnUse" id="color-2"><stop offset="0" stop-color="#58cfff"/><stop offset="1" stop-color="#58cfff" stop-opacity="0"/></radialGradient><radialGradient cx="239.875" cy="173.125" r="5.4" gradientUnits="userSpaceOnUse" id="color-3"><stop offset="0" stop-color="#58cfff"/><stop offset="1" stop-color="#58cfff" stop-opacity="0"/></radialGradient><radialGradient cx="239.875" cy="169.625" r="5.4" gradientUnits="userSpaceOnUse" id="color-4"><stop offset="0" stop-color="#58cfff"/><stop offset="1" stop-color="#58cfff" stop-opacity="0"/></radialGradient><radialGradient cx="239.875" cy="167" r="5.4" gradientUnits="userSpaceOnUse" id="color-5"><stop offset="0" stop-color="#58cfff"/><stop offset="1" stop-color="#58cfff" stop-opacity="0"/></radialGradient><radialGradient cx="239.875" cy="163.5" r="5.4" gradientUnits="userSpaceOnUse" id="color-6"><stop offset="0" stop-color="#58cfff"/><stop offset="1" stop-color="#58cfff" stop-opacity="0"/></radialGradient></defs><g transform="translate(-181.8013,-122.47368)"><g data-paper-data="{&quot;isPaintingLayer&quot;:true}" fill-rule="nonzero" stroke="none" stroke-linecap="butt" stroke-linejoin="miter" stroke-miterlimit="10" stroke-dasharray="" stroke-dashoffset="0" style="mix-blend-mode: normal"><g stroke-width="0.5"><path d="M234.6,180.375c0,-2.98234 2.41766,-5.4 5.4,-5.4c2.98234,0 5.4,2.41766 5.4,5.4c0,2.98234 -2.41766,5.4 -5.4,5.4c-2.98234,0 -5.4,-2.41766 -5.4,-5.4z" fill="url(#color-1)"/><path d="M234.6,176.875c0,-2.98234 2.41766,-5.4 5.4,-5.4c2.98234,0 5.4,2.41766 5.4,5.4c0,2.98234 -2.41766,5.4 -5.4,5.4c-2.98234,0 -5.4,-2.41766 -5.4,-5.4z" fill="url(#color-2)"/></g><g stroke-width="0.5"><path d="M234.475,173.125c0,-2.98234 2.41766,-5.4 5.4,-5.4c2.98234,0 5.4,2.41766 5.4,5.4c0,2.98234 -2.41766,5.4 -5.4,5.4c-2.98234,0 -5.4,-2.41766 -5.4,-5.4z" fill="url(#color-3)"/><path d="M234.475,169.625c0,-2.98234 2.41766,-5.4 5.4,-5.4c2.98234,0 5.4,2.41766 5.4,5.4c0,2.98234 -2.41766,5.4 -5.4,5.4c-2.98234,0 -5.4,-2.41766 -5.4,-5.4z" fill="url(#color-4)"/></g><g stroke-width="0.5"><path d="M234.475,167c0,-2.98234 2.41766,-5.4 5.4,-5.4c2.98234,0 5.4,2.41766 5.4,5.4c0,2.98234 -2.41766,5.4 -5.4,5.4c-2.98234,0 -5.4,-2.41766 -5.4,-5.4z" fill="url(#color-5)"/><path d="M234.475,163.5c0,-2.98234 2.41766,-5.4 5.4,-5.4c2.98234,0 5.4,2.41766 5.4,5.4c0,2.98234 -2.41766,5.4 -5.4,5.4c-2.98234,0 -5.4,-2.41766 -5.4,-5.4z" fill="url(#color-6)"/></g><path d="M181.8013,237.52632v-115.05263h116.3974v115.05263z" fill="none" stroke-width="0"/></g></g></svg>