<svg version="1.1" xmlns="http://www.w3.org/2000/svg" xmlns:xlink="http://www.w3.org/1999/xlink" width="176" height="135" viewBox="0,0,176,135"><g transform="translate(-152,-112.5)"><g data-paper-data="{&quot;isPaintingLayer&quot;:true}" fill-rule="nonzero" stroke-linejoin="miter" stroke-miterlimit="10" stroke-dasharray="" stroke-dashoffset="0" style="mix-blend-mode: normal"><path d="M197.52385,196.58735v-33.1747c0,0 -0.50405,0 1.41395,0c13.9891,0 74.06966,0 82.1242,0c1.85321,0 1.43978,0 1.43978,0v33.1747c0,0 0.09634,0 -1.75687,0c-7.9354,0 -66.49482,0 -81.49002,0c-2.31194,0 -1.73104,0 -1.73104,0z" fill="#004148" stroke="#00e5ff" stroke-width="5" stroke-linecap="butt"/><path d="M152,247.5v-135h176v135z" fill="none" stroke="none" stroke-width="0" stroke-linecap="butt"/><path d="M216.78242,186.84997c-0.27083,0 -0.5,-0.09375 -0.6875,-0.28125c-0.17708,-0.1875 -0.26562,-0.41667 -0.26562,-0.6875v-12.625c0,-0.28125 0.09375,-0.51562 0.28125,-0.70312c0.1875,-0.1875 0.41146,-0.28125 0.67188,-0.28125c0.28125,0 0.51042,0.09375 0.6875,0.28125c0.1875,0.1875 0.28125,0.42188 0.28125,0.70313v11.65625h6.76563c0.27083,0 0.5,0.09375 0.6875,0.28125c0.1875,0.1875 0.28125,0.41667 0.28125,0.6875c0,0.27083 -0.09375,0.5 -0.28125,0.6875c-0.1875,0.1875 -0.41667,0.28125 -0.6875,0.28125zM232.25974,186.9281c-1.01042,0 -1.90105,-0.21875 -2.67189,-0.65625c-0.77083,-0.44792 -1.38021,-1.05729 -1.82812,-1.82812c-0.4375,-0.78125 -0.65625,-1.67708 -0.65625,-2.6875c0,-1.02083 0.21875,-1.91667 0.65625,-2.6875c0.44792,-0.78125 1.05729,-1.39062 1.82813,-1.82812c0.77084,-0.44792 1.66147,-0.67187 2.67189,-0.67187c0.98958,0 1.86979,0.22396 2.64063,0.67188c0.77083,0.4375 1.375,1.04688 1.8125,1.82813c0.44792,0.77083 0.67188,1.66667 0.67188,2.6875c0,1.01042 -0.21875,1.90625 -0.65625,2.6875c-0.4375,0.77083 -1.04167,1.38021 -1.8125,1.82813c-0.77083,0.4375 -1.65625,0.65625 -2.65625,0.65625zM232.25974,185.2406c0.64583,0 1.21354,-0.14583 1.70313,-0.4375c0.5,-0.30208 0.89063,-0.71354 1.17188,-1.23437c0.28125,-0.52083 0.42188,-1.125 0.42188,-1.8125c0,-0.6875 -0.14062,-1.29167 -0.42187,-1.8125c-0.28125,-0.53125 -0.67187,-0.94271 -1.17187,-1.23437c-0.48958,-0.30208 -1.05729,-0.45312 -1.70312,-0.45312c-0.65625,0 -1.23437,0.15104 -1.73437,0.45313c-0.48959,0.29167 -0.88022,0.70313 -1.17189,1.23438c-0.28125,0.52083 -0.42187,1.125 -0.42187,1.8125c0,0.6875 0.14063,1.29167 0.42188,1.8125c0.29167,0.52083 0.6823,0.93229 1.17189,1.23438c0.5,0.29167 1.07813,0.4375 1.73438,0.4375zM244.4777,186.9281c-0.90625,0 -1.72396,-0.22396 -2.45312,-0.67187c-0.71875,-0.45833 -1.28646,-1.07812 -1.70312,-1.85937c-0.41667,-0.78125 -0.625,-1.66146 -0.625,-2.64062c0,-0.97917 0.22396,-1.85937 0.67188,-2.64062c0.45833,-0.79167 1.07292,-1.41146 1.84375,-1.85937c0.78125,-0.45833 1.66146,-0.6875 2.64063,-0.6875c0.96875,0 1.83854,0.22917 2.60938,0.6875c0.77083,0.44792 1.38021,1.06771 1.82813,1.85938c0.45833,0.78125 0.6875,1.66146 0.6875,2.64063h-0.73437c0,0.97917 -0.20833,1.85938 -0.625,2.64063c-0.41667,0.78125 -0.98437,1.40104 -1.70312,1.85938c-0.71875,0.44792 -1.53125,0.67188 -2.4375,0.67188zM244.8527,185.2406c0.625,0 1.1875,-0.15104 1.6875,-0.45312c0.5,-0.30208 0.89063,-0.71875 1.17188,-1.25c0.29167,-0.53125 0.4375,-1.125 0.4375,-1.78125c0,-0.66667 -0.14583,-1.26562 -0.4375,-1.79687c-0.28125,-0.53125 -0.67187,-0.94792 -1.17187,-1.25c-0.5,-0.30208 -1.0625,-0.45312 -1.6875,-0.45312c-0.625,0 -1.19271,0.15104 -1.70312,0.45313c-0.5,0.30208 -0.89583,0.71875 -1.1875,1.25c-0.29167,0.53125 -0.4375,1.13021 -0.4375,1.79688c0,0.65625 0.14583,1.25 0.4375,1.78125c0.29167,0.53125 0.6875,0.94792 1.1875,1.25c0.51042,0.30208 1.07813,0.45313 1.70313,0.45313zM249.02457,186.8656c-0.27083,0 -0.5,-0.08854 -0.6875,-0.26562c-0.17708,-0.17708 -0.26562,-0.40625 -0.26562,-0.6875v-2.84375l0.35938,-1.98437l1.54688,0.67188v4.15625c0,0.28125 -0.09375,0.51042 -0.28125,0.6875c-0.17708,0.17708 -0.40104,0.26563 -0.67187,0.26563zM257.44567,186.9281c-0.97917,0 -1.85937,-0.22396 -2.64062,-0.67187c-0.77083,-0.45833 -1.38542,-1.07812 -1.84375,-1.85937c-0.44792,-0.79167 -0.67187,-1.67708 -0.67187,-2.65625c0,-0.97917 0.20833,-1.85937 0.625,-2.64062c0.41667,-0.78125 0.98438,-1.39583 1.70313,-1.84375c0.72917,-0.45833 1.54688,-0.6875 2.45313,-0.6875c0.72917,0 1.40625,0.15625 2.03125,0.46875c0.625,0.30208 1.14583,0.71354 1.5625,1.23438v-5.04687c0,-0.28125 0.08854,-0.51042 0.26563,-0.6875c0.1875,-0.17708 0.41667,-0.26562 0.6875,-0.26562c0.28125,0 0.51042,0.08854 0.6875,0.26563c0.17708,0.17708 0.26563,0.40625 0.26563,0.6875v8.51563c0,0.97917 -0.22917,1.86458 -0.6875,2.65625c-0.44792,0.78125 -1.05729,1.40104 -1.82812,1.85938c-0.77083,0.44792 -1.64062,0.67188 -2.60937,0.67188zM257.44567,185.2406c0.625,0 1.1875,-0.15104 1.6875,-0.45312c0.5,-0.30208 0.89063,-0.71875 1.17188,-1.25c0.29167,-0.54167 0.4375,-1.14062 0.4375,-1.79687c0,-0.67708 -0.14583,-1.27604 -0.4375,-1.79687c-0.28125,-0.52083 -0.67187,-0.93229 -1.17187,-1.23437c-0.5,-0.30208 -1.0625,-0.45312 -1.6875,-0.45312c-0.625,0 -1.19271,0.15104 -1.70312,0.45313c-0.5,0.30208 -0.89583,0.71354 -1.1875,1.23438c-0.29167,0.52083 -0.4375,1.11979 -0.4375,1.79688c0,0.65625 0.14583,1.25521 0.4375,1.79688c0.29167,0.53125 0.6875,0.94792 1.1875,1.25c0.51042,0.30208 1.07813,0.45313 1.70313,0.45313z" fill="#00e5ff" stroke="#00e3ff" stroke-width="1" stroke-linecap="square"/></g></g></svg>