<svg version="1.1" xmlns="http://www.w3.org/2000/svg" xmlns:xlink="http://www.w3.org/1999/xlink" width="230" height="230" viewBox="0,0,230,230"><defs><radialGradient cx="240" cy="179.25" r="12.75" gradientUnits="userSpaceOnUse" id="color-1"><stop offset="0" stop-color="#ff6666"/><stop offset="1" stop-color="#ff6666" stop-opacity="0"/></radialGradient></defs><g transform="translate(-125,-65)"><g data-paper-data="{&quot;isPaintingLayer&quot;:true}" fill-rule="nonzero" stroke-linejoin="miter" stroke-miterlimit="10" stroke-dasharray="" stroke-dashoffset="0" style="mix-blend-mode: normal"><path d="M125,295v-230h230v230z" fill="none" stroke="none" stroke-width="NaN" stroke-linecap="butt"/><path d="M227.25,179.25c0,-7.04164 5.70836,-12.75 12.75,-12.75c7.04164,0 12.75,5.70836 12.75,12.75c0,7.04164 -5.70836,12.75 -12.75,12.75c-7.04164,0 -12.75,-5.70836 -12.75,-12.75z" fill="url(#color-1)" stroke="none" stroke-width="0" stroke-linecap="butt"/><g stroke-width="0"><path d="M243.39338,172.27883h4.5514v8.30872l-7.98917,7.51573l-7.98917,-7.51573v-8.30872h4.5514l3.52491,3.14187z" fill="#ff0000" stroke="none" stroke-linecap="round"/><path d="M232.05522,180.78284l5.05981,-0.62138l2.92935,2.21922v5.50364z" fill="#f50000" stroke="#000000" stroke-linecap="round"/><path d="M240.04439,187.88432v-5.50364l2.92935,-2.21922l5.05981,0.62138z" data-paper-data="{&quot;index&quot;:null}" fill="#e80000" stroke="#000000" stroke-linecap="round"/><path d="M232.11864,180.69831v-8.52177h4.26089l0.6087,8.52177z" fill="#f80000" stroke="none" stroke-linecap="butt"/><path d="M242.92302,180.54614l0.6087,-8.52177h4.26089v8.52177z" data-paper-data="{&quot;index&quot;:null}" fill="#f30000" stroke="none" stroke-linecap="butt"/></g></g></g></svg>