<svg version="1.1" xmlns="http://www.w3.org/2000/svg" xmlns:xlink="http://www.w3.org/1999/xlink" width="58.25445" height="73.5031" viewBox="0,0,58.25445,73.5031"><defs><radialGradient cx="240.41802" cy="205.42799" r="12.35459" gradientUnits="userSpaceOnUse" id="color-1"><stop offset="0" stop-color="#fcec00"/><stop offset="1" stop-color="#fcec00" stop-opacity="0"/></radialGradient><linearGradient x1="239.78409" y1="204.32197" x2="239.78409" y2="221.1856" gradientUnits="userSpaceOnUse" id="color-2"><stop offset="0" stop-color="#ffffff"/><stop offset="1" stop-color="#ffffff" stop-opacity="0"/></linearGradient><radialGradient cx="240.01406" cy="208.21142" r="8.89813" gradientUnits="userSpaceOnUse" id="color-3"><stop offset="0" stop-color="#f5eb75"/><stop offset="1" stop-color="#f5eb75" stop-opacity="0"/></radialGradient><linearGradient x1="239.19359" y1="125.00033" x2="239.19359" y2="219.02638" gradientUnits="userSpaceOnUse" id="color-4"><stop offset="0" stop-color="#a300f2"/><stop offset="1" stop-color="#a300f2" stop-opacity="0"/></linearGradient><linearGradient x1="238.95587" y1="96.98157" x2="238.95587" y2="225.00218" gradientUnits="userSpaceOnUse" id="color-5"><stop offset="0" stop-color="#f1f1f1"/><stop offset="1" stop-color="#f1f1f1" stop-opacity="0"/></linearGradient><linearGradient x1="239.96416" y1="204.61822" x2="239.96416" y2="212.52598" gradientUnits="userSpaceOnUse" id="color-6"><stop offset="0" stop-color="#ff4f00"/><stop offset="1" stop-color="#ff4f00" stop-opacity="0"/></linearGradient><linearGradient x1="239.89617" y1="204.86496" x2="239.89617" y2="210.21079" gradientUnits="userSpaceOnUse" id="color-7"><stop offset="0" stop-color="#ffd400"/><stop offset="1" stop-color="#ffd400" stop-opacity="0"/></linearGradient><linearGradient x1="239.89388" y1="204.5069" x2="239.89388" y2="213.38922" gradientUnits="userSpaceOnUse" id="color-8"><stop offset="0" stop-color="#ffee00"/><stop offset="1" stop-color="#ffee00" stop-opacity="0"/></linearGradient><linearGradient x1="239.82136" y1="204.43395" x2="239.82136" y2="208.32133" gradientUnits="userSpaceOnUse" id="color-9"><stop offset="0" stop-color="#ffee00"/><stop offset="1" stop-color="#ffee00" stop-opacity="0"/></linearGradient><linearGradient x1="241.86413" y1="204.5069" x2="241.86413" y2="208.39428" gradientUnits="userSpaceOnUse" id="color-10"><stop offset="0" stop-color="#ffee00"/><stop offset="1" stop-color="#ffee00" stop-opacity="0"/></linearGradient><linearGradient x1="237.7786" y1="204.5069" x2="237.7786" y2="208.39428" gradientUnits="userSpaceOnUse" id="color-11"><stop offset="0" stop-color="#ffee00"/><stop offset="1" stop-color="#ffee00" stop-opacity="0"/></linearGradient><radialGradient cx="239.85349" cy="208.4453" r="6.32236" gradientUnits="userSpaceOnUse" id="color-12"><stop offset="0" stop-color="#feea00"/><stop offset="1" stop-color="#feea00" stop-opacity="0"/></radialGradient><radialGradient cx="240.0183" cy="207.64308" r="6.32236" gradientUnits="userSpaceOnUse" id="color-13"><stop offset="0" stop-color="#feea00"/><stop offset="1" stop-color="#feea00" stop-opacity="0"/></radialGradient><linearGradient x1="235.18148" y1="206.02091" x2="244.21558" y2="206.02091" gradientUnits="userSpaceOnUse" id="color-14"><stop offset="0" stop-color="#5f5f5f"/><stop offset="1" stop-color="#4c4c4c"/></linearGradient><linearGradient x1="235.18148" y1="206.02091" x2="244.21558" y2="206.02091" gradientUnits="userSpaceOnUse" id="color-15"><stop offset="0" stop-color="#949494"/><stop offset="1" stop-color="#757575"/></linearGradient><linearGradient x1="235.46004" y1="204.21927" x2="238.39109" y2="204.21927" gradientUnits="userSpaceOnUse" id="color-16"><stop offset="0" stop-color="#4c4c4c"/><stop offset="1" stop-color="#4c4c4c" stop-opacity="0"/></linearGradient><linearGradient x1="243.93637" y1="204.21926" x2="241.00533" y2="204.21926" gradientUnits="userSpaceOnUse" id="color-17"><stop offset="0" stop-color="#5f5f5f"/><stop offset="1" stop-color="#5f5f5f" stop-opacity="0"/></linearGradient><linearGradient x1="234.83302" y1="163.2291" x2="243.28757" y2="163.2291" gradientUnits="userSpaceOnUse" id="color-18"><stop offset="0" stop-color="#d40000"/><stop offset="1" stop-color="#a30000"/></linearGradient><linearGradient x1="237.11583" y1="167.87076" x2="242.8936" y2="167.87076" gradientUnits="userSpaceOnUse" id="color-19"><stop offset="0" stop-color="#5f5f5f"/><stop offset="1" stop-color="#a8a8a8"/></linearGradient><linearGradient x1="240.04887" y1="161.54812" x2="240.04887" y2="162.48361" gradientUnits="userSpaceOnUse" id="color-20"><stop offset="0" stop-color="#7a7a7a"/><stop offset="1" stop-color="#646464"/></linearGradient><linearGradient x1="239.05949" y1="165.17487" x2="239.25947" y2="165.17487" gradientUnits="userSpaceOnUse" id="color-21"><stop offset="0" stop-color="#00eeec"/><stop offset="1" stop-color="#1cfff4"/></linearGradient><linearGradient x1="229.33807" y1="180.76975" x2="233.11583" y2="180.76975" gradientUnits="userSpaceOnUse" id="color-22"><stop offset="0" stop-color="#dedede"/><stop offset="1" stop-color="#dedede" stop-opacity="0"/></linearGradient><linearGradient x1="234.96935" y1="203.97261" x2="244.42393" y2="203.97261" gradientUnits="userSpaceOnUse" id="color-23"><stop offset="0" stop-color="#888888"/><stop offset="1" stop-color="#696969"/></linearGradient><linearGradient x1="250.56029" y1="185.54752" x2="253.44918" y2="185.54752" gradientUnits="userSpaceOnUse" id="color-24"><stop offset="0" stop-color="#dd0000"/><stop offset="1" stop-color="#dd0000" stop-opacity="0"/></linearGradient><linearGradient x1="250.52458" y1="196.05414" x2="253.52458" y2="196.05414" gradientUnits="userSpaceOnUse" id="color-25"><stop offset="0" stop-color="#dfdfdf"/><stop offset="1" stop-color="#dfdfdf" stop-opacity="0"/></linearGradient><linearGradient x1="239.68182" y1="206.57576" x2="239.68182" y2="212.84849" gradientUnits="userSpaceOnUse" id="color-26"><stop offset="0" stop-color="#fde704"/><stop offset="1" stop-color="#fde704" stop-opacity="0"/></linearGradient><linearGradient x1="238.80759" y1="178.09019" x2="241.3165" y2="178.09019" gradientUnits="userSpaceOnUse" id="color-27"><stop offset="0" stop-color="#c7ffff"/><stop offset="1" stop-color="#91f5f5"/></linearGradient><linearGradient x1="238.1875" y1="192.79167" x2="241.8125" y2="192.79167" gradientUnits="userSpaceOnUse" id="color-28"><stop offset="0" stop-color="#bf0000"/><stop offset="1" stop-color="#bf0000"/></linearGradient><linearGradient x1="238.1875" y1="198.47917" x2="241.8125" y2="198.47917" gradientUnits="userSpaceOnUse" id="color-29"><stop offset="0" stop-color="#bf0000"/><stop offset="1" stop-color="#bf0000"/></linearGradient></defs><g transform="translate(-210.87279,-152.89763)"><g data-paper-data="{&quot;isPaintingLayer&quot;:true}" fill-rule="nonzero" stroke-linejoin="miter" stroke-miterlimit="10" stroke-dasharray="" stroke-dashoffset="0" style="mix-blend-mode: normal"><path d="M252.60788,205.42799c0,6.82325 -5.45758,12.35459 -12.18986,12.35459c-6.73227,0 -12.18987,-5.53134 -12.18987,-12.35459c0,-6.82325 5.45759,-12.35459 12.18987,-12.35459c6.73227,0 12.18986,5.53134 12.18986,12.35459z" fill="url(#color-1)" stroke="none" stroke-width="0" stroke-linecap="butt"/><g stroke-width="0"><path d="M242.28409,204.32197l-2.5,16.86364l-2.5,-16.86364z" fill="url(#color-2)" stroke="#000000" stroke-linecap="round"/><path d="M247.81944,208.21142c0,4.34894 -3.49458,7.87446 -7.80538,7.87446c-4.3108,0 -7.80538,-3.52552 -7.80538,-7.87446c0,-4.34894 3.49459,-7.87446 7.80538,-7.87446c4.3108,0 7.80538,3.52552 7.80538,7.87446z" fill="url(#color-3)" stroke="none" stroke-linecap="butt"/><g stroke="#000000" stroke-linecap="round"><path d="M241.98054,205.12111l-1.99752,14.93246l-2.35162,-14.93246z" fill="url(#color-4)"/><path d="M242.75043,206.06953l-2.71971,20.33121l-3.20183,-20.33121z" fill="url(#color-5)"/><path d="M241.06246,204.61822c0,0 1.97104,0.54702 1.90371,2.41626c-0.16093,4.46815 -3.2949,5.49149 -3.2949,5.49149c0,0 -2.64402,-0.90981 -2.70914,-5.49149c-0.02772,-1.95089 1.8305,-2.41626 1.8305,-2.41626z" fill="url(#color-6)"/><path d="M240.63865,204.86496c0,0 1.33247,0.3698 1.28696,1.63345c-0.10879,3.02057 -2.22743,3.71239 -2.22743,3.71239c0,0 -1.78743,-0.61506 -1.83145,-3.71239c-0.01874,-1.31885 1.23746,-1.63345 1.23746,-1.63345z" fill="url(#color-7)"/><path d="M241.12754,204.5069c0,0 2.21395,0.61444 2.13833,2.71404c-0.18075,5.01881 -3.70096,6.16828 -3.70096,6.16828c0,0 -2.96987,-1.02195 -3.04302,-6.16828c-0.03114,-2.19132 2.05609,-2.71404 2.05609,-2.71404z" fill="url(#color-8)"/><path d="M240.36128,204.43395c0,0 0.96894,0.26891 0.93585,1.18781c-0.07911,2.1965 -1.61974,2.69957 -1.61974,2.69957c0,0 -1.29978,-0.44726 -1.33179,-2.69957c-0.01364,-0.95904 0.89985,-1.18781 0.89985,-1.18781z" fill="url(#color-9)"/><path d="M242.40405,204.5069c0,0 0.96895,0.26892 0.93585,1.18781c-0.07911,2.1965 -1.61975,2.69957 -1.61975,2.69957c0,0 -1.29978,-0.44726 -1.33179,-2.69957c-0.01363,-0.95904 0.89986,-1.18781 0.89986,-1.18781z" fill="url(#color-10)"/><path d="M238.31851,204.5069c0,0 0.96895,0.26892 0.93585,1.18781c-0.07911,2.1965 -1.61975,2.69957 -1.61975,2.69957c0,0 -1.29978,-0.44726 -1.33179,-2.69957c-0.01363,-0.95904 0.89986,-1.18781 0.89986,-1.18781z" fill="url(#color-11)"/></g><path d="M245.39942,208.4453c0,3.09004 -2.48299,5.59501 -5.54593,5.59501c-3.06293,0 -5.54593,-2.50497 -5.54593,-5.59501c0,-3.09004 2.48299,-5.59501 5.54593,-5.59501c3.06293,0 5.54593,2.50497 5.54593,5.59501z" fill="url(#color-12)" stroke="none" stroke-linecap="butt"/><path d="M245.56422,207.64308c0,3.09004 -2.48299,5.59501 -5.54593,5.59501c-3.06294,0 -5.54593,-2.50497 -5.54593,-5.59501c0,-3.09004 2.48299,-5.59501 5.54593,-5.59501c3.06294,0 5.54593,2.50498 5.54593,5.59501z" fill="url(#color-13)" stroke="none" stroke-linecap="butt"/></g><path d="M244.21558,206.02091c0,0.46442 -2.02235,0.84091 -4.51705,0.84091c-2.4947,0 -4.51705,-0.37649 -4.51705,-0.84091c0,-0.46442 2.02235,-0.84091 4.51705,-0.84091c2.4947,0 4.51705,0.37649 4.51705,0.84091z" fill="url(#color-14)" stroke="url(#color-15)" stroke-width="0.5" stroke-linecap="butt"/><path d="M235.46004,206.08133v-3.72414h2.93103l0.03448,4.2069c0,0 -1.15126,-0.04387 -1.66802,-0.12799c-0.46663,-0.07596 -1.2975,-0.35477 -1.2975,-0.35477z" fill="url(#color-16)" stroke="none" stroke-width="0" stroke-linecap="butt"/><path d="M242.63885,206.4361c-0.51675,0.08413 -1.66802,0.12799 -1.66802,0.12799l0.03448,-4.2069h2.93104v3.72414c0,0 -0.83087,0.2788 -1.2975,0.35477z" data-paper-data="{&quot;index&quot;:null}" fill="url(#color-17)" stroke="none" stroke-width="0" stroke-linecap="butt"/><path d="M238.10575,153.13819c0,0 0.87987,0.91199 1.54546,1.36364c0.66558,0.45165 1.04278,0.53754 1.45454,0.63636c0.41177,0.09883 0.81818,-0.09091 0.81818,-0.09091l1.36364,16.90909l-8.45455,1.36364z" fill="url(#color-18)" stroke="#ff0000" stroke-width="0" stroke-linecap="round"/><path d="M237.11583,173.76975v-11.79798h5.77778v11.79798z" fill="url(#color-19)" stroke="none" stroke-width="0" stroke-linecap="butt"/><path d="M242.20285,162.01587c0,0.25833 -0.96436,0.46774 -2.15395,0.46774c-1.1896,0 -2.15396,-0.20941 -2.15396,-0.46774c0,-0.25833 0.96436,-0.46775 2.15396,-0.46775c1.1896,0 2.15395,0.20942 2.15395,0.46775z" fill="url(#color-20)" stroke="#7e7e7e" stroke-width="0.5" stroke-linecap="butt"/><path d="M213.27904,194.71382v-1.9375h1.0625v1.9375z" fill="#d80000" stroke="none" stroke-width="0" stroke-linecap="butt"/><path d="M239.77904,203.02632h-9.0625l-16.875,-8.375" fill="none" stroke="#d80000" stroke-width="1" stroke-linecap="round"/><path d="M239.84154,202.15132h-9.0625l-16.875,-8.375" fill="none" stroke="#d80000" stroke-width="1" stroke-linecap="round"/><path d="M239.65404,201.21382h-9.0625l-16.875,-8.375" fill="none" stroke="#d80000" stroke-width="1" stroke-linecap="round"/><path d="M213.67387,178.86466l26.37212,0.125l-0.04724,21.91417l-9.09821,-0.03917l-17.65278,-8.625z" fill="#ff0000" stroke="#b6b6b6" stroke-width="0" stroke-linecap="round"/><path d="M214.13078,192.5362l0.01282,-13.58974" fill="none" stroke="#df0000" stroke-width="0.5" stroke-linecap="round"/><path d="M215.40641,179.88451l-0.07692,12.23077" fill="none" stroke="#f00000" stroke-width="2" stroke-linecap="round"/><path d="M214.45313,180.24805v-1.35714h1.92857v1.35714z" fill="#f00000" stroke="none" stroke-width="0" stroke-linecap="butt"/><path d="M238.73886,180.31948v19.28572" fill="none" stroke="#f00000" stroke-width="2.5" stroke-linecap="round"/><path d="M237.52458,183.74805v-4.71428h2.5v4.71428z" fill="#f00000" stroke="none" stroke-width="0" stroke-linecap="butt"/><path d="M237.52458,200.81948v-6h2.5v6z" fill="#f00000" stroke="none" stroke-width="0" stroke-linecap="butt"/><path d="M232.1674,182.81948l-0.07143,9.57143c0,0 -0.24317,2.09115 -2.64524,2.10518c-2.43173,0.01421 -2.64047,-2.17661 -2.64047,-2.17661v-9.5z" fill="#f70000" stroke="#fa0000" stroke-width="1" stroke-linecap="round"/><path d="M228.71654,184.71382v7.1875" fill="none" stroke="#f50000" stroke-width="1" stroke-linecap="round"/><path d="M230.52904,192.46382l0.125,-8.6875" fill="none" stroke="#f50000" stroke-width="1" stroke-linecap="round"/><path d="M227.96654,182.83882l3.125,-0.0625" fill="none" stroke="#f50000" stroke-width="1" stroke-linecap="round"/><path d="M219.21654,189.08882v-7.9375" fill="none" stroke="#fa0000" stroke-width="1" stroke-linecap="round"/><path d="M225.21654,182.08882v11.875" fill="none" stroke="#fa0000" stroke-width="1" stroke-linecap="round"/><path d="M233.65404,195.46382l0.0625,-11.1875" fill="none" stroke="#fa0000" stroke-width="1" stroke-linecap="round"/><path d="M222.65404,189.21382l-0.125,5.125" fill="none" stroke="#fa0000" stroke-width="1" stroke-linecap="round"/><path d="M236.09154,181.40132l0.0625,11" fill="none" stroke="#fa0000" stroke-width="1" stroke-linecap="round"/><path d="M239.71654,202.96383v-2.0625h0.625v2.0625z" fill="#d80000" stroke="none" stroke-width="0" stroke-linecap="butt"/><g data-paper-data="{&quot;index&quot;:null}"><path d="M265.65849,194.71382v-1.9375h1.0625v1.9375z" fill="#d80000" stroke="none" stroke-width="0" stroke-linecap="butt"/><path d="M266.15849,194.65132l-16.875,8.375h-9.0625" fill="none" stroke="#d80000" stroke-width="1" stroke-linecap="round"/><path d="M266.09599,193.77632l-16.875,8.375h-9.0625" fill="none" stroke="#d80000" stroke-width="1" stroke-linecap="round"/><path d="M266.28349,192.83882l-16.875,8.375h-9.0625" fill="none" stroke="#d80000" stroke-width="1" stroke-linecap="round"/><path d="M266.75224,192.23966l-17.65278,8.625l-9.09821,0.03917l-0.04724,-21.91417l26.37212,-0.125z" fill="#ff0000" stroke="#b6b6b6" stroke-width="0" stroke-linecap="round"/><path d="M267.62724,178.73966v13.125" fill="none" stroke="#b6b6b6" stroke-width="3" stroke-linecap="round"/><path d="M265.86924,192.5362l-0.01282,-13.58974" fill="none" stroke="#df0000" stroke-width="0.5" stroke-linecap="round"/><path d="M267.13205,178.88451v13" fill="none" stroke="#c2c2c2" stroke-width="2" stroke-linecap="round"/><path d="M264.67052,192.11528l-0.07692,-12.23077" fill="none" stroke="#f00000" stroke-width="2" stroke-linecap="round"/><path d="M263.61832,180.24805v-1.35714h1.92857v1.35714z" fill="#f00000" stroke="none" stroke-width="0" stroke-linecap="butt"/><path d="M241.26117,180.31948v19.28572" fill="none" stroke="#f00000" stroke-width="2.5" stroke-linecap="round"/><path d="M239.97544,183.74805v-4.71428h2.5v4.71428z" fill="#f00000" stroke="none" stroke-width="0" stroke-linecap="butt"/><path d="M239.97544,200.81948v-6h2.5v6z" fill="#f00000" stroke="none" stroke-width="0" stroke-linecap="butt"/><path d="M253.18976,182.81948v9.5c0,0 -0.20875,2.19082 -2.64047,2.17661c-2.40207,-0.01403 -2.64524,-2.10518 -2.64524,-2.10518l-0.07143,-9.57143z" fill="#f70000" stroke="#fa0000" stroke-width="1" stroke-linecap="round"/><path d="M251.28351,191.90132v-7.1875" fill="none" stroke="#f50000" stroke-width="1" stroke-linecap="round"/><path d="M249.47101,192.46382l-0.125,-8.6875" fill="none" stroke="#f50000" stroke-width="1" stroke-linecap="round"/><path d="M252.03351,182.83882l-3.125,-0.0625" fill="none" stroke="#f50000" stroke-width="1" stroke-linecap="round"/><path d="M260.78349,189.08882v-7.9375" fill="none" stroke="#fa0000" stroke-width="1" stroke-linecap="round"/><path d="M254.78351,193.96382v-11.875" fill="none" stroke="#fa0000" stroke-width="1" stroke-linecap="round"/><path d="M246.34601,195.46382l-0.0625,-11.1875" fill="none" stroke="#fa0000" stroke-width="1" stroke-linecap="round"/><path d="M257.34599,189.21382l0.125,5.125" fill="none" stroke="#fa0000" stroke-width="1" stroke-linecap="round"/><path d="M243.84601,192.40132l0.0625,-11" fill="none" stroke="#fa0000" stroke-width="1" stroke-linecap="round"/><path d="M239.65851,202.96383v-2.0625h0.625v2.0625z" fill="#d80000" stroke="none" stroke-width="0" stroke-linecap="butt"/></g><path d="M240.83628,167.61264v-4.77419h0.25806v4.77419z" fill="#1dfffb" stroke="none" stroke-width="0" stroke-linecap="butt"/><path d="M241.46935,153.44879v17c0,0 -0.41174,0.95908 -1.54546,0.90909c-1.10778,-0.04885 -1.36363,-0.90909 -1.36363,-0.90909l-0.09091,-17" fill="none" stroke="#acacac" stroke-width="1" stroke-linecap="round"/><path d="M230.37962,198.72781l0.18067,-37.58147l6.38655,-5.42857v15.66277c0,0 0.80028,1.92095 2.97708,1.92095c2.13875,0 2.93049,-1.79051 2.93049,-1.79051v-15.95287l6.54621,5.42857l-0.21533,37.7619l-2.94533,0.71141l-11.56853,0.0566z" fill="#ff0000" stroke="#ff0000" stroke-width="2.5" stroke-linecap="round"/><path d="M235.11584,177.2142l0.11111,18.33333" fill="none" stroke="#fa0000" stroke-width="1" stroke-linecap="round"/><path d="M246.89359,188.99197l-0.11111,-11.77777" fill="none" stroke="#fa0000" stroke-width="1" stroke-linecap="round"/><path d="M244.22695,195.43641l-0.22222,-10.66666" fill="none" stroke="#fa0000" stroke-width="1" stroke-linecap="round"/><path d="M237.22695,186.2142v13.33333" fill="none" stroke="#fa0000" stroke-width="1" stroke-linecap="round"/><path d="M242.56029,180.65864l0.11111,-7" fill="none" stroke="#fa0000" stroke-width="1" stroke-linecap="round"/><path d="M234.33807,159.3253l-0.22223,13.77777" fill="none" stroke="#fa0000" stroke-width="1" stroke-linecap="round"/><path d="M248.22695,160.3253l-0.22222,12.11111" fill="none" stroke="#fa0000" stroke-width="1" stroke-linecap="round"/><path d="M245.22696,173.99197l0.33333,-13" fill="none" stroke="#fa0000" stroke-width="1" stroke-linecap="round"/><path d="M239.05949,167.52488v-4.7h0.2v4.7z" fill="url(#color-21)" stroke="none" stroke-width="0" stroke-linecap="butt"/><path d="M239.93306,167.70941v-4.80645h0.22581v4.80645z" fill="#1dfffb" stroke="none" stroke-width="0" stroke-linecap="butt"/><path d="M238.3387,175.83194l1.41473,-1.05738l1.50602,0.91167v7.72276l-1.46037,0.54738l-1.46037,-0.6931z" fill="#8cffff" stroke="#7e7e7e" stroke-width="0.5" stroke-linecap="round"/><path d="M241.15404,175.69406l-1.4375,1.125l-1.3125,-0.875" fill="none" stroke="#55eded" stroke-width="0.5" stroke-linecap="round"/><path d="M238.65404,183.19406l1,-0.6875l1.25,0.8125" fill="none" stroke="#55eded" stroke-width="0.5" stroke-linecap="round"/><path d="M239.96654,183.63156l-0.1875,-0.5625l-0.0625,-6.5625l0.0625,-1.5" fill="none" stroke="#4fdada" stroke-width="0.5" stroke-linecap="round"/><path d="M238.3387,175.83194l1.41473,-1.05738l1.50602,0.91167v7.72276l-1.46037,0.54738l-1.46037,-0.6931z" fill="none" stroke="#7e7e7e" stroke-width="0.5" stroke-linecap="round"/><path d="M240.03649,176.94952l0.92857,-0.82143l0.02381,6.9881l-0.9762,-0.78572z" fill="#5cffff" stroke="none" stroke-width="0" stroke-linecap="round"/><path d="M240.02038,182.99548l0.6927,0.37012l-0.51613,0.13243z" fill="#57f3f3" stroke="#56eeee" stroke-width="0" stroke-linecap="round"/><path d="M239.49136,182.32108l-0.92858,0.66353l-0.02381,-6.80388l0.9762,0.78572z" data-paper-data="{&quot;index&quot;:null}" fill="#87ffff" stroke="none" stroke-width="0" stroke-linecap="round"/><path d="M239.6681,183.6296l-0.75297,-0.34296l0.61375,-0.37011z" data-paper-data="{&quot;index&quot;:null}" fill="#5afbfb" stroke="#56eeee" stroke-width="0" stroke-linecap="round"/><path d="M234.78248,156.15864l-0.11111,13.44444l-2,1.88889v11.77778l4,3.77778v13.66667h-5.66667l-1.55556,-0.66667l-0.11111,-39.33333z" fill="#ffffff" stroke="#f5f5f5" stroke-width="0.5" stroke-linecap="round"/><path d="M229.33807,200.10308v-39.44444l3.77777,-3.33333v43.55556h-2.33334z" fill="url(#color-22)" stroke="none" stroke-width="0" stroke-linecap="butt"/><path d="M250.44918,160.49197l-0.11111,39.33333l-1.55556,0.66667h-5.66666v-13.66667l4,-3.77777v-11.77778l-2,-1.88889l-0.11111,-13.44444z" data-paper-data="{&quot;index&quot;:null}" fill="#ffffff" stroke="#f5f5f5" stroke-width="0.5" stroke-linecap="round"/><path d="M229.11028,200.04938l-15,-7.6l-0.1,-2l15.1,2.3z" fill="#ffffff" stroke="#f5f5f5" stroke-width="0.5" stroke-linecap="round"/><path d="M250.81029,192.34938l15.1,-2.3c0,0 -0.00629,0.54489 -0.0098,0.84949c-0.00409,0.35448 -0.01328,1.15051 -0.01328,1.15051l-15.07692,7.6z" data-paper-data="{&quot;index&quot;:null}" fill="#ffffff" stroke="#f5f5f5" stroke-width="0.5" stroke-linecap="round"/><g fill="none" stroke-linecap="round"><path d="M212.37279,191.86466v-13.125" stroke="#b6b6b6" stroke-width="3"/><path d="M212.86798,191.88451v-13" stroke="#c2c2c2" stroke-width="2"/></g><path d="M234.96935,206.10897v-4.27273c0,0 2.53809,-0.51228 4.72727,-0.5c2.18839,0.01228 4.72727,0.5 4.72727,0.5v4.27273c0,0 -2.62239,-0.63636 -4.77273,-0.63636c-2.18066,0 -4.68182,0.63636 -4.68182,0.63636z" fill="url(#color-23)" stroke="none" stroke-width="0" stroke-linecap="butt"/><path d="M250.56029,192.10308v-13.11111h2.88889v12.60657z" fill="url(#color-24)" stroke="none" stroke-width="0" stroke-linecap="butt"/><path d="M250.52458,199.98271v-7.85714l3,-0.5v6.92857z" fill="url(#color-25)" stroke="none" stroke-width="0" stroke-linecap="butt"/><g><g><path d="M219.87845,182.04079v-4.09091" fill="none" stroke="#b6b6b6" stroke-width="2.5" stroke-linecap="round"/><path d="M221.35572,183.02564v-3.91667" fill="none" stroke="#df0000" stroke-width="0.5" stroke-linecap="round"/><path d="M221.56029,183.24534v-4.31818h1.59091v4.31818z" fill="#f00000" stroke="none" stroke-width="0" stroke-linecap="butt"/></g><path d="M220.28757,182.29079l0.04545,-4.18182" fill="none" stroke="#c2c2c2" stroke-width="1.5" stroke-linecap="round"/></g><g data-paper-data="{&quot;index&quot;:null}"><g><path d="M259.83302,177.94988v4.09091" fill="none" stroke="#b6b6b6" stroke-width="2.5" stroke-linecap="round"/><path d="M258.35574,183.02563v-3.91666" fill="none" stroke="#df0000" stroke-width="0.5" stroke-linecap="round"/><path d="M256.56028,183.24534v-4.31818h1.59091v4.31819z" fill="#f00000" stroke="none" stroke-width="0" stroke-linecap="butt"/></g><path d="M259.37846,178.10897l0.04545,4.18182" fill="none" stroke="#c2c2c2" stroke-width="1.5" stroke-linecap="round"/></g><path d="M243.66665,201.86807v3.68" fill="none" stroke="#656565" stroke-width="0.5" stroke-linecap="round"/><path d="M242.50665,201.66807v3.64" fill="none" stroke="#6a6a6a" stroke-width="0.5" stroke-linecap="round"/><path d="M241.38663,205.18807l0.04,-3.64" fill="none" stroke="#6f6f6f" stroke-width="0.5" stroke-linecap="round"/><path d="M240.30665,201.46807l-0.08,3.68" fill="none" stroke="#747474" stroke-width="0.5" stroke-linecap="round"/><path d="M239.10665,205.18807l0.04,-3.76" fill="none" stroke="#787878" stroke-width="0.5" stroke-linecap="round"/><path d="M238.02664,201.50807v3.76" fill="none" stroke="#7b7b7b" stroke-width="0.5" stroke-linecap="round"/><path d="M236.22728,212.84849v-6.27273c0,0 1.63798,-0.45454 3.45454,-0.45454c1.93782,0 3.45455,0.45454 3.45455,0.45454v6.27273z" fill="url(#color-26)" stroke="none" stroke-width="0" stroke-linecap="butt"/><path d="M237.65,184.73334v-12.5h4.8v12.5z" fill="#ff0000" stroke="none" stroke-width="0" stroke-linecap="butt"/><g stroke="#a6caca" stroke-width="0.5" stroke-linecap="round"><path d="M241.29867,180.55771c0,0 -0.55811,1.7675 -1.24554,1.7675c-0.68743,0 -1.24554,-1.7675 -1.24554,-1.7675l0.01782,-4.93504c0,0 0.55811,-1.7675 1.24554,-1.7675c0.68744,0 1.24555,1.7675 1.24555,1.7675z" fill="url(#color-27)"/><path d="M238.94515,176.19632h2.15143" fill="none"/><path d="M240.99879,177.58406h-2.05364" fill="none"/><path d="M238.84736,179.80443h2.24922" fill="none"/><path d="M241.01138,178.39882h-2.24922" fill="none"/></g><g><path d="M238.1875,196.16667v-6.75h3.625v6.75z" fill="url(#color-28)" stroke="none" stroke-width="0" stroke-linecap="butt"/><path d="M238.1875,199.91667v-2.875h3.625v2.875z" fill="url(#color-29)" stroke="none" stroke-width="0" stroke-linecap="butt"/><g fill="none" stroke="#d4d4d4" stroke-width="1" stroke-linecap="round"><path d="M231.95,197.13333v3.4"/><path d="M234.55,197.13333v3.4"/></g><g fill="none" stroke="#d4d4d4" stroke-width="1" stroke-linecap="round"><path d="M245.25,197.03333v3.4"/><path d="M247.85,197.03333v3.4"/></g></g></g></g></svg>