<svg version="1.1" xmlns="http://www.w3.org/2000/svg" xmlns:xlink="http://www.w3.org/1999/xlink" width="264" height="172.43768" viewBox="0,0,264,172.43768"><defs><linearGradient x1="323.41669" y1="203.67026" x2="313.08335" y2="203.67026" gradientUnits="userSpaceOnUse" id="color-1"><stop offset="0" stop-color="#000000" stop-opacity="0"/><stop offset="1" stop-color="#000000"/></linearGradient><linearGradient x1="317.08335" y1="181.00359" x2="312.68619" y2="181.00359" gradientUnits="userSpaceOnUse" id="color-2"><stop offset="0" stop-color="#000000" stop-opacity="0"/><stop offset="1" stop-color="#000000"/></linearGradient><linearGradient x1="156.58335" y1="201.67022" x2="166.91668" y2="201.67022" gradientUnits="userSpaceOnUse" id="color-3"><stop offset="0" stop-color="#000000" stop-opacity="0"/><stop offset="1" stop-color="#000000"/></linearGradient><linearGradient x1="162.91668" y1="179.00355" x2="167.31385" y2="179.00355" gradientUnits="userSpaceOnUse" id="color-4"><stop offset="0" stop-color="#000000" stop-opacity="0"/><stop offset="1" stop-color="#000000"/></linearGradient><linearGradient x1="230.67502" y1="150.51834" x2="253.62934" y2="150.51834" gradientUnits="userSpaceOnUse" id="color-5"><stop offset="0" stop-color="#830000"/><stop offset="1" stop-color="#620000"/></linearGradient><linearGradient x1="234.00173" y1="164.19376" x2="250.08085" y2="164.19376" gradientUnits="userSpaceOnUse" id="color-6"><stop offset="0" stop-color="#830000"/><stop offset="1" stop-color="#620000"/></linearGradient><linearGradient x1="242.01355" y1="162.35781" x2="242.01355" y2="164.69968" gradientUnits="userSpaceOnUse" id="color-7"><stop offset="0" stop-color="#620000"/><stop offset="1" stop-color="#620000" stop-opacity="0"/></linearGradient><linearGradient x1="234.16805" y1="136.7418" x2="250.24719" y2="136.7418" gradientUnits="userSpaceOnUse" id="color-8"><stop offset="0" stop-color="#830000"/><stop offset="1" stop-color="#620000"/></linearGradient><linearGradient x1="242.17989" y1="138.57771" x2="242.17989" y2="136.23584" gradientUnits="userSpaceOnUse" id="color-9"><stop offset="0" stop-color="#620000"/><stop offset="1" stop-color="#620000" stop-opacity="0"/></linearGradient><radialGradient cx="239.54942" cy="217.87225" r="65.74662" gradientUnits="userSpaceOnUse" id="color-10"><stop offset="0" stop-color="#000000"/><stop offset="1" stop-color="#111111"/></radialGradient><linearGradient x1="239.25002" y1="120.47578" x2="239.25002" y2="143.14244" gradientUnits="userSpaceOnUse" id="color-11"><stop offset="0" stop-color="#0d0d0d"/><stop offset="1" stop-color="#060606"/></linearGradient><linearGradient x1="298.50002" y1="253.33689" x2="298.50002" y2="259.17024" gradientUnits="userSpaceOnUse" id="color-12"><stop offset="0" stop-color="#737373"/><stop offset="1" stop-color="#8d8d8d"/></linearGradient><linearGradient x1="298.52779" y1="253.12393" x2="298.52779" y2="257.67949" gradientUnits="userSpaceOnUse" id="color-13"><stop offset="0" stop-color="#737373"/><stop offset="1" stop-color="#8d8d8d"/></linearGradient><linearGradient x1="290.12502" y1="239.25357" x2="307.37502" y2="239.25357" gradientUnits="userSpaceOnUse" id="color-14"><stop offset="0" stop-color="#830000"/><stop offset="1" stop-color="#620000"/></linearGradient><linearGradient x1="292.62502" y1="252.55911" x2="304.70835" y2="252.55911" gradientUnits="userSpaceOnUse" id="color-15"><stop offset="0" stop-color="#830000"/><stop offset="1" stop-color="#620000"/></linearGradient><linearGradient x1="298.64585" y1="250.79524" x2="298.64585" y2="253.04524" gradientUnits="userSpaceOnUse" id="color-16"><stop offset="0" stop-color="#620000"/><stop offset="1" stop-color="#620000" stop-opacity="0"/></linearGradient><linearGradient x1="292.75002" y1="226.18411" x2="304.83335" y2="226.18411" gradientUnits="userSpaceOnUse" id="color-17"><stop offset="0" stop-color="#830000"/><stop offset="1" stop-color="#620000"/></linearGradient><linearGradient x1="298.77085" y1="227.94802" x2="298.77085" y2="225.69802" gradientUnits="userSpaceOnUse" id="color-18"><stop offset="0" stop-color="#620000"/><stop offset="1" stop-color="#620000" stop-opacity="0"/></linearGradient><linearGradient x1="321.88996" y1="256.24156" x2="294.18953" y2="261.58862" gradientUnits="userSpaceOnUse" id="color-19"><stop offset="0" stop-color="#c7c7c7"/><stop offset="1" stop-color="#c7c7c7" stop-opacity="0"/></linearGradient><linearGradient x1="309.30046" y1="264.80654" x2="288.0182" y2="257.88057" gradientUnits="userSpaceOnUse" id="color-20"><stop offset="0" stop-color="#c7c7c7"/><stop offset="1" stop-color="#c7c7c7" stop-opacity="0"/></linearGradient><linearGradient x1="124.95419" y1="209.93915" x2="1035.25882" y2="500.61256" gradientUnits="userSpaceOnUse" id="color-21"><stop offset="0" stop-color="#cacaca" stop-opacity="0"/><stop offset="1" stop-color="#cacaca"/></linearGradient><linearGradient x1="183.05135" y1="226.22644" x2="790.14796" y2="420.0812" gradientUnits="userSpaceOnUse" id="color-22"><stop offset="0" stop-color="#cacaca" stop-opacity="0"/><stop offset="1" stop-color="#cacaca"/></linearGradient><linearGradient x1="274.60437" y1="261.72612" x2="302.3048" y2="256.37906" gradientUnits="userSpaceOnUse" id="color-23"><stop offset="0" stop-color="#c7c7c7"/><stop offset="1" stop-color="#c7c7c7" stop-opacity="0"/></linearGradient><linearGradient x1="287.35548" y1="253.1054" x2="308.63774" y2="260.03137" gradientUnits="userSpaceOnUse" id="color-24"><stop offset="0" stop-color="#c7c7c7"/><stop offset="1" stop-color="#c7c7c7" stop-opacity="0"/></linearGradient><linearGradient x1="180.83335" y1="254.00355" x2="180.83335" y2="259.83689" gradientUnits="userSpaceOnUse" id="color-25"><stop offset="0" stop-color="#737373"/><stop offset="1" stop-color="#8d8d8d"/></linearGradient><linearGradient x1="180.86113" y1="253.7906" x2="180.86113" y2="258.34617" gradientUnits="userSpaceOnUse" id="color-26"><stop offset="0" stop-color="#737373"/><stop offset="1" stop-color="#8d8d8d"/></linearGradient><linearGradient x1="172.45835" y1="240.08689" x2="189.70835" y2="240.08689" gradientUnits="userSpaceOnUse" id="color-27"><stop offset="0" stop-color="#830000"/><stop offset="1" stop-color="#620000"/></linearGradient><linearGradient x1="174.95835" y1="253.22578" x2="187.04168" y2="253.22578" gradientUnits="userSpaceOnUse" id="color-28"><stop offset="0" stop-color="#830000"/><stop offset="1" stop-color="#620000"/></linearGradient><linearGradient x1="180.97918" y1="251.46189" x2="180.97918" y2="253.71189" gradientUnits="userSpaceOnUse" id="color-29"><stop offset="0" stop-color="#620000"/><stop offset="1" stop-color="#620000" stop-opacity="0"/></linearGradient><linearGradient x1="175.08335" y1="226.85078" x2="187.16668" y2="226.85078" gradientUnits="userSpaceOnUse" id="color-30"><stop offset="0" stop-color="#830000"/><stop offset="1" stop-color="#620000"/></linearGradient><linearGradient x1="181.10418" y1="228.61467" x2="181.10418" y2="226.36467" gradientUnits="userSpaceOnUse" id="color-31"><stop offset="0" stop-color="#620000"/><stop offset="1" stop-color="#620000" stop-opacity="0"/></linearGradient><linearGradient x1="204.22329" y1="256.90822" x2="176.52286" y2="262.2553" gradientUnits="userSpaceOnUse" id="color-32"><stop offset="0" stop-color="#c7c7c7"/><stop offset="1" stop-color="#c7c7c7" stop-opacity="0"/></linearGradient><linearGradient x1="191.63379" y1="265.47319" x2="170.35153" y2="258.54724" gradientUnits="userSpaceOnUse" id="color-33"><stop offset="0" stop-color="#c7c7c7"/><stop offset="1" stop-color="#c7c7c7" stop-opacity="0"/></linearGradient><linearGradient x1="7.28752" y1="210.6058" x2="917.59214" y2="501.27924" gradientUnits="userSpaceOnUse" id="color-34"><stop offset="0" stop-color="#cacaca" stop-opacity="0"/><stop offset="1" stop-color="#cacaca"/></linearGradient><linearGradient x1="65.38468" y1="226.89313" x2="672.4813" y2="420.74785" gradientUnits="userSpaceOnUse" id="color-35"><stop offset="0" stop-color="#cacaca" stop-opacity="0"/><stop offset="1" stop-color="#cacaca"/></linearGradient><linearGradient x1="156.9377" y1="262.39279" x2="184.63813" y2="257.04573" gradientUnits="userSpaceOnUse" id="color-36"><stop offset="0" stop-color="#c7c7c7"/><stop offset="1" stop-color="#c7c7c7" stop-opacity="0"/></linearGradient><linearGradient x1="169.68881" y1="253.77207" x2="190.97107" y2="260.69802" gradientUnits="userSpaceOnUse" id="color-37"><stop offset="0" stop-color="#c7c7c7"/><stop offset="1" stop-color="#c7c7c7" stop-opacity="0"/></linearGradient><radialGradient cx="240.83335" cy="202.00355" r="49.66667" gradientUnits="userSpaceOnUse" id="color-38"><stop offset="0" stop-color="#000000"/><stop offset="1" stop-color="#0a0a0a"/></radialGradient><linearGradient x1="240.25002" y1="163.45989" x2="240.25002" y2="225.45989" gradientUnits="userSpaceOnUse" id="color-39"><stop offset="0" stop-color="#ff0000"/><stop offset="1" stop-color="#db0000"/></linearGradient><linearGradient x1="240.25002" y1="163.45989" x2="240.25002" y2="225.45989" gradientUnits="userSpaceOnUse" id="color-40"><stop offset="0" stop-color="#ff0000"/><stop offset="1" stop-color="#db0000"/></linearGradient><radialGradient cx="239.58335" cy="229.69802" r="66.25" gradientUnits="userSpaceOnUse" id="color-41"><stop offset="0" stop-color="#000000"/><stop offset="1" stop-color="#121212"/></radialGradient><linearGradient x1="236.15523" y1="249.01052" x2="254.65523" y2="249.01052" gradientUnits="userSpaceOnUse" id="color-42"><stop offset="0" stop-color="#000000" stop-opacity="0"/><stop offset="1" stop-color="#000000"/></linearGradient><linearGradient x1="242.90523" y1="212.90633" x2="265.78023" y2="212.90633" gradientUnits="userSpaceOnUse" id="color-43"><stop offset="0" stop-color="#000000" stop-opacity="0"/><stop offset="1" stop-color="#000000"/></linearGradient><linearGradient x1="240.03023" y1="232.40633" x2="240.03023" y2="244.78133" gradientUnits="userSpaceOnUse" id="color-44"><stop offset="0" stop-color="#000000"/><stop offset="1" stop-color="#000000" stop-opacity="0"/></linearGradient><linearGradient x1="231.95835" y1="178.58689" x2="249.20835" y2="178.58689" gradientUnits="userSpaceOnUse" id="color-45"><stop offset="0" stop-color="#830000"/><stop offset="1" stop-color="#620000"/></linearGradient><linearGradient x1="234.45835" y1="191.72578" x2="246.54168" y2="191.72578" gradientUnits="userSpaceOnUse" id="color-46"><stop offset="0" stop-color="#830000"/><stop offset="1" stop-color="#620000"/></linearGradient><linearGradient x1="240.47918" y1="189.96189" x2="240.47918" y2="192.21189" gradientUnits="userSpaceOnUse" id="color-47"><stop offset="0" stop-color="#620000"/><stop offset="1" stop-color="#620000" stop-opacity="0"/></linearGradient><linearGradient x1="234.58335" y1="165.35078" x2="246.66668" y2="165.35078" gradientUnits="userSpaceOnUse" id="color-48"><stop offset="0" stop-color="#830000"/><stop offset="1" stop-color="#620000"/></linearGradient><linearGradient x1="240.60418" y1="167.11466" x2="240.60418" y2="164.86466" gradientUnits="userSpaceOnUse" id="color-49"><stop offset="0" stop-color="#620000"/><stop offset="1" stop-color="#620000" stop-opacity="0"/></linearGradient><linearGradient x1="173.00002" y1="201.75355" x2="197.16669" y2="201.75355" gradientUnits="userSpaceOnUse" id="color-50"><stop offset="0" stop-color="#db0000"/><stop offset="1" stop-color="#ff0000"/></linearGradient><linearGradient x1="285.16668" y1="202.08689" x2="309.33335" y2="202.08689" gradientUnits="userSpaceOnUse" id="color-51"><stop offset="0" stop-color="#ff0000"/><stop offset="1" stop-color="#db0000"/></linearGradient><linearGradient x1="304.33335" y1="177.448" x2="313.33335" y2="177.448" gradientUnits="userSpaceOnUse" id="color-52"><stop offset="0" stop-color="#6d0000"/><stop offset="1" stop-color="#4a0000"/></linearGradient><linearGradient x1="175.83335" y1="178.948" x2="166.83335" y2="178.948" gradientUnits="userSpaceOnUse" id="color-53"><stop offset="0" stop-color="#6d0000"/><stop offset="1" stop-color="#4a0000"/></linearGradient><linearGradient x1="311.67859" y1="94.18582" x2="307.9837" y2="140.32815" gradientUnits="userSpaceOnUse" id="color-54"><stop offset="0" stop-color="#ef0000"/><stop offset="1" stop-color="#830000"/></linearGradient><linearGradient x1="168.45577" y1="94.18582" x2="172.15067" y2="140.32815" gradientUnits="userSpaceOnUse" id="color-55"><stop offset="0" stop-color="#ef0000"/><stop offset="1" stop-color="#830000"/></linearGradient><linearGradient x1="251.37501" y1="151.93757" x2="259.99602" y2="151.93757" gradientUnits="userSpaceOnUse" id="color-56"><stop offset="0" stop-color="#830000"/><stop offset="1" stop-color="#620000"/></linearGradient><linearGradient x1="252.45777" y1="158.50399" x2="258.49664" y2="158.50399" gradientUnits="userSpaceOnUse" id="color-57"><stop offset="0" stop-color="#830000"/><stop offset="1" stop-color="#620000"/></linearGradient><linearGradient x1="255.46679" y1="157.62244" x2="255.46679" y2="158.74692" gradientUnits="userSpaceOnUse" id="color-58"><stop offset="0" stop-color="#620000"/><stop offset="1" stop-color="#620000" stop-opacity="0"/></linearGradient><linearGradient x1="252.52024" y1="145.32258" x2="258.55911" y2="145.32258" gradientUnits="userSpaceOnUse" id="color-59"><stop offset="0" stop-color="#830000"/><stop offset="1" stop-color="#620000"/></linearGradient><linearGradient x1="255.52927" y1="146.20412" x2="255.52927" y2="145.07964" gradientUnits="userSpaceOnUse" id="color-60"><stop offset="0" stop-color="#620000"/><stop offset="1" stop-color="#620000" stop-opacity="0"/></linearGradient><linearGradient x1="224.58335" y1="152.06257" x2="233.20436" y2="152.06257" gradientUnits="userSpaceOnUse" id="color-61"><stop offset="0" stop-color="#830000"/><stop offset="1" stop-color="#620000"/></linearGradient><linearGradient x1="225.83277" y1="158.62899" x2="231.87164" y2="158.62899" gradientUnits="userSpaceOnUse" id="color-62"><stop offset="0" stop-color="#830000"/><stop offset="1" stop-color="#620000"/></linearGradient><linearGradient x1="228.84179" y1="157.74744" x2="228.84179" y2="158.87192" gradientUnits="userSpaceOnUse" id="color-63"><stop offset="0" stop-color="#620000"/><stop offset="1" stop-color="#620000" stop-opacity="0"/></linearGradient><linearGradient x1="225.89524" y1="145.44758" x2="231.93411" y2="145.44758" gradientUnits="userSpaceOnUse" id="color-64"><stop offset="0" stop-color="#830000"/><stop offset="1" stop-color="#620000"/></linearGradient><linearGradient x1="228.90427" y1="146.32912" x2="228.90427" y2="145.20464" gradientUnits="userSpaceOnUse" id="color-65"><stop offset="0" stop-color="#620000"/><stop offset="1" stop-color="#620000" stop-opacity="0"/></linearGradient><linearGradient x1="189.0606" y1="132.24537" x2="191.4456" y2="152.58808" gradientUnits="userSpaceOnUse" id="color-66"><stop offset="0" stop-color="#4d4d4d"/><stop offset="1" stop-color="#545454"/></linearGradient><linearGradient x1="187.31653" y1="116.32216" x2="189.70153" y2="136.66485" gradientUnits="userSpaceOnUse" id="color-67"><stop offset="0" stop-color="#4d4d4d"/><stop offset="1" stop-color="#555555"/></linearGradient><linearGradient x1="235.87502" y1="119.71641" x2="247.82935" y2="119.71641" gradientUnits="userSpaceOnUse" id="color-68"><stop offset="0" stop-color="#830000"/><stop offset="1" stop-color="#620000"/></linearGradient><linearGradient x1="237.60753" y1="128.82176" x2="245.98134" y2="128.82176" gradientUnits="userSpaceOnUse" id="color-69"><stop offset="0" stop-color="#830000"/><stop offset="1" stop-color="#620000"/></linearGradient><linearGradient x1="241.77999" y1="127.59935" x2="241.77999" y2="129.15862" gradientUnits="userSpaceOnUse" id="color-70"><stop offset="0" stop-color="#620000"/><stop offset="1" stop-color="#620000" stop-opacity="0"/></linearGradient><linearGradient x1="237.69415" y1="110.54373" x2="246.06797" y2="110.54373" gradientUnits="userSpaceOnUse" id="color-71"><stop offset="0" stop-color="#830000"/><stop offset="1" stop-color="#620000"/></linearGradient><linearGradient x1="241.86662" y1="111.76611" x2="241.86662" y2="110.20685" gradientUnits="userSpaceOnUse" id="color-72"><stop offset="0" stop-color="#620000"/><stop offset="1" stop-color="#620000" stop-opacity="0"/></linearGradient><linearGradient x1="240.29168" y1="240.49132" x2="240.29168" y2="254.40829" gradientUnits="userSpaceOnUse" id="color-73"><stop offset="0" stop-color="#79b0ff"/><stop offset="1" stop-color="#98c3ff"/></linearGradient><linearGradient x1="240.29168" y1="240.49132" x2="240.29168" y2="254.40829" gradientUnits="userSpaceOnUse" id="color-74"><stop offset="0" stop-color="#6ea2ea"/><stop offset="1" stop-color="#8fb6ee"/></linearGradient><linearGradient x1="236.33334" y1="242.3355" x2="236.33334" y2="251.0855" gradientUnits="userSpaceOnUse" id="color-75"><stop offset="0" stop-color="#6ea2ea"/><stop offset="1" stop-color="#8fb6ee"/></linearGradient><linearGradient x1="244.45834" y1="242.3355" x2="244.45834" y2="251.0855" gradientUnits="userSpaceOnUse" id="color-76"><stop offset="0" stop-color="#6ea2ea"/><stop offset="1" stop-color="#8fb6ee"/></linearGradient><linearGradient x1="287.97439" y1="135.8578" x2="287.33429" y2="156.32983" gradientUnits="userSpaceOnUse" id="color-77"><stop offset="0" stop-color="#4d4d4d"/><stop offset="1" stop-color="#545454"/></linearGradient><linearGradient x1="288.59687" y1="119.85147" x2="287.95677" y2="140.32348" gradientUnits="userSpaceOnUse" id="color-78"><stop offset="0" stop-color="#4d4d4d"/><stop offset="1" stop-color="#555555"/></linearGradient></defs><g transform="translate(-108.16668,-93.92699)"><g data-paper-data="{&quot;isPaintingLayer&quot;:true}" fill-rule="nonzero" stroke-linejoin="miter" stroke-miterlimit="10" stroke-dasharray="" stroke-dashoffset="0" style="mix-blend-mode: normal"><g data-paper-data="{&quot;index&quot;:null}"><g><g data-paper-data="{&quot;index&quot;:null}" stroke-width="0"><path d="M309.37693,174.41853l27.12308,-0.22051v6.39488l-24.03589,7.71794h-4.63077z" fill="#0d0d0d" stroke="#4d4d4d" stroke-linecap="round"/><path d="M310.66668,188.03135c0,0 13.38283,-1.39073 25.47528,-0.85521c9.95673,0.44094 18.39455,2.83188 23.35546,2.79155c5.59585,-0.0455 12.66926,-2.43634 12.66926,-2.43634v14.5c0,0 -16.26309,6.13952 -24.30252,8.72099c-4.38232,1.40717 -12.56475,1.98195 -18.42318,3.65984c-7.21962,2.06774 -11.7743,5.11917 -11.7743,5.11917h-10.5z" fill="#0d0d0d" stroke="#4d4d4d" stroke-linecap="round"/><path d="M317.96438,210.65635l-0.08152,-18.75h8.72282l6.11413,5.625v13.125z" data-paper-data="{&quot;index&quot;:null}" fill="#0a0a0a" stroke="#000000" stroke-linecap="round"/><path d="M368.68316,190.23971l0.03665,8.43131h-3.9224l-2.74934,-2.5294v-5.90192z" data-paper-data="{&quot;index&quot;:null}" fill="#0a0a0a" stroke="#000000" stroke-linecap="round"/><path d="M315.76981,183.67102v-4.96859l2.31456,-2.12939h3.30211l-0.03086,7.09798z" data-paper-data="{&quot;index&quot;:null}" fill="#0a0a0a" stroke="#000000" stroke-linecap="round"/><path d="M323.41668,188.00359v30l-5,1.33333h-5.33333v-31.33333z" fill="url(#color-1)" stroke="none" stroke-linecap="butt"/><path d="M317.08335,174.3369v12.76596l-2.12766,0.56738h-2.2695v-13.33333z" fill="url(#color-2)" stroke="none" stroke-linecap="butt"/></g><path d="M351.87501,193.27106c0,1.25 -1.25,1.25 -1.25,1.25l-0.7945,-0.01701c-0.02487,0.00358 -1.92973,0.16945 -2.06437,0.52722c-0.33652,0.89423 0.63215,1.8043 0.89925,2.72167c0.64022,2.19888 0.70962,3.78767 0.70962,6.01811c0,0 0,1.25 -1.25,1.25c-1.25,0 -1.25,-1.25 -1.25,-1.25c0,-1.99515 -0.02239,-3.34238 -0.60597,-5.30571c-0.30245,-1.01753 -1.2871,-3.40645 -0.78517,-4.45451c0.80082,-1.67217 2.4926,-1.70906 3.93563,-1.97278l1.2055,-0.01701c0,0 1.25,0 1.25,1.25z" data-paper-data="{&quot;index&quot;:null}" fill="#000000" stroke="none" stroke-width="0.5" stroke-linecap="butt"/><path d="M345.49301,190.58003c-0.55902,1.11804 -1.67705,0.55902 -1.67705,0.55902l0.05902,-0.11803c-0.77399,-0.01381 -1.573,0.10856 -2.28576,0.4106c0,0 -1.16059,0.46424 -1.62483,-0.69636c-0.46424,-1.16059 0.69636,-1.62483 0.69636,-1.62483c1.01703,-0.39009 2.12505,-0.57525 3.21424,-0.5894l1.05902,0.38197c0,0 1.11804,0.55902 0.55902,1.67705z" data-paper-data="{&quot;index&quot;:null}" fill="#000000" stroke="none" stroke-width="0.5" stroke-linecap="butt"/><path d="M354.75446,195.93593c1.08509,-0.62053 1.70563,0.46456 1.70563,0.46456l0.20936,0.41597c2.22004,2.68076 3.06367,5.10144 -0.15134,7.27644c0,0 -1.07187,0.64312 -1.71499,-0.42875c-0.64312,-1.07187 0.42875,-1.71499 0.42875,-1.71499c1.92789,-0.88101 0.6721,-2.30659 -0.44386,-3.48644l-0.49811,-0.82115c0,0 -0.62053,-1.08509 0.46456,-1.70563z" data-paper-data="{&quot;index&quot;:null}" fill="#000000" stroke="none" stroke-width="0.5" stroke-linecap="butt"/></g><path d="M325.11934,177.40211c0.11894,1.24433 -1.12539,1.36327 -1.12539,1.36327l-0.69685,0.02476c-1.97962,0.72692 -3.54664,1.35091 -5.03821,2.86479c0,0 -0.88389,0.88388 -1.76777,0c-0.88388,-0.88389 0,-1.76777 0,-1.76777c1.77232,-1.75127 3.62218,-2.57971 5.93889,-3.44185l1.32605,-0.1686c0,0 1.24433,-0.11894 1.36327,1.12539z" data-paper-data="{&quot;index&quot;:null}" fill="#000000" stroke="none" stroke-width="0.5" stroke-linecap="butt"/><path d="M334.12016,175.04532c1.22573,0.24514 0.98058,1.47087 0.98058,1.47087l-0.40794,1.65472c-1.05924,0.90999 -1.98467,1.97942 -2.81779,3.10013c0,0 -0.75,1 -1.75,0.25c-1,-0.75 -0.25,-1.75 -0.25,-1.75c0.79396,-1.0504 1.6148,-2.12892 2.68221,-2.89987l0.09206,-0.84528c0,0 0.24514,-1.22573 1.47087,-0.98058z" data-paper-data="{&quot;index&quot;:null}" fill="#000000" stroke="none" stroke-width="0.5" stroke-linecap="butt"/></g><g data-paper-data="{&quot;index&quot;:null}"><g><g data-paper-data="{&quot;index&quot;:null}" stroke-width="0"><path d="M172.16669,186.31082h-4.63077l-24.0359,-7.71795v-6.39487l27.12308,0.22051z" fill="#0d0d0d" stroke="#4d4d4d" stroke-linecap="round"/><path d="M173.16668,217.53133h-10.5c0,0 -12.1632,-5.18084 -17.90463,-7.02442c-9.97065,-3.20159 -36.59537,-10.47558 -36.59537,-10.47558v-14.5c0,0 14.74006,1.80006 24.00984,1.87542c4.53353,0.03686 8.40669,-1.85927 15.29546,-2.14083c9.74884,-0.39846 22.1947,0.76541 22.1947,0.76541z" fill="#0d0d0d" stroke="#4d4d4d" stroke-linecap="round"/><path d="M147.28022,208.65631v-13.125l6.11413,-5.625h8.72283l-0.08152,18.75z" data-paper-data="{&quot;index&quot;:null}" fill="#0a0a0a" stroke="#000000" stroke-linecap="round"/><path d="M117.95197,188.23966v5.90192l-2.74934,2.5294h-3.9224l0.03666,-8.43132z" data-paper-data="{&quot;index&quot;:null}" fill="#0a0a0a" stroke="#000000" stroke-linecap="round"/><path d="M158.64442,181.67098l-0.03086,-7.09798h3.30211l2.31456,2.12939v4.96859z" data-paper-data="{&quot;index&quot;:null}" fill="#0a0a0a" stroke="#000000" stroke-linecap="round"/><path d="M166.91668,186.00355v31.33333h-5.33333l-5,-1.33333v-30z" fill="url(#color-3)" stroke="none" stroke-linecap="butt"/><path d="M167.31384,172.33688v13.33333h-2.2695l-2.12766,-0.56738v-12.76596z" fill="url(#color-4)" stroke="none" stroke-linecap="butt"/></g><path d="M125.62986,201.74672l-1.32569,-0.2676c-1.15546,-0.3878 -2.17208,-1.12539 -3.32445,-1.52227c-1.92216,-0.66199 -4.13414,0.15621 -6.09365,-0.45963c-1.29462,-0.40687 -2.36674,-1.36789 -3.65635,-1.79037c0,0 -1.18585,-0.39529 -0.79057,-1.58114c0.39529,-1.18585 1.58114,-0.79057 1.58114,-0.79057c1.27723,0.43192 2.35093,1.35902 3.63111,1.78211c1.9306,0.63805 4.13628,-0.17555 6.11889,0.46789c1.1105,0.3604 2.06697,1.11147 3.17555,1.47773l1.17431,0.2324c0,0 1.22573,0.24514 0.98058,1.47087c-0.24514,1.22573 -1.47087,0.98058 -1.47087,0.98058z" data-paper-data="{&quot;index&quot;:null}" fill="#000000" stroke="none" stroke-width="0.5" stroke-linecap="butt"/><path d="M134.60108,192.55188c-0.78086,0.97609 -1.75695,0.19522 -1.75695,0.19522l-0.97877,-0.8347c-3.06432,-0.47777 -5.38982,1.62274 -8.23382,2.332c-2.08952,0.5211 -4.91043,-0.3986 -6.96204,-0.7404c0,0 -1.23299,-0.2055 -1.02749,-1.43849c0.2055,-1.23299 1.43849,-1.02749 1.43849,-1.02749c1.63572,0.27273 4.36909,1.22079 6.03796,0.7596c3.6507,-1.00887 5.83417,-2.84203 9.76618,-2.168l1.52123,1.1653c0,0 0.97609,0.78086 0.19522,1.75695z" data-paper-data="{&quot;index&quot;:null}" fill="#000000" stroke="none" stroke-width="0.5" stroke-linecap="butt"/></g><path d="M166.49304,177.71197c0.55901,1.11803 -0.55902,1.67705 -0.55902,1.67705l-1.05902,0.38197c-5.05889,0 -9.02622,0.33817 -13.64312,-2.42813c0,0 -1.07187,-0.64312 -0.42875,-1.71499c0.64312,-1.07187 1.71499,-0.42875 1.71499,-0.42875c4.20484,2.52665 7.74355,2.07187 12.35688,2.07187l-0.05902,-0.11803c0,0 1.11803,-0.55901 1.67705,0.55902z" data-paper-data="{&quot;index&quot;:null}" fill="#000000" stroke="none" stroke-width="0.5" stroke-linecap="butt"/></g><g data-paper-data="{&quot;index&quot;:null}" stroke="none" stroke-width="0" stroke-linecap="butt"><path d="M230.67502,162.48791v-23.93912h22.95434v23.93912z" fill="url(#color-5)"/><g><path d="M234.00173,166.07303v-3.75856h16.07912v3.75856z" fill="url(#color-6)"/><path d="M234.02943,164.69968v-2.34187h15.96823v2.34187z" fill="url(#color-7)"/></g><g data-paper-data="{&quot;index&quot;:null}"><path d="M250.24719,134.86254v3.75856h-16.07912v-3.75856z" fill="url(#color-8)"/><path d="M250.16401,136.23584v2.34187h-15.96825v-2.34187z" fill="url(#color-9)"/></g></g><path d="M173.8028,227.08245v-18.42039h131.49324v18.42039z" data-paper-data="{&quot;index&quot;:null}" fill="url(#color-10)" stroke="none" stroke-width="0" stroke-linecap="butt"/><path d="M264.78125,172.36914l3,2.83333l-0.16667,3.5" data-paper-data="{&quot;index&quot;:null}" fill="none" stroke="#bc0000" stroke-width="4" stroke-linecap="round"/><path d="M255.54764,161.29323v-19" data-paper-data="{&quot;index&quot;:null}" fill="none" stroke="#000000" stroke-width="2.5" stroke-linecap="round"/><path d="M228.79764,142.54323v19" data-paper-data="{&quot;index&quot;:null}" fill="none" stroke="#000000" stroke-width="2.5" stroke-linecap="round"/><path d="M171.25002,143.14244v-22.66666h136v22.66666z" data-paper-data="{&quot;index&quot;:null}" fill="url(#color-11)" stroke="none" stroke-width="0" stroke-linecap="butt"/><g data-paper-data="{&quot;index&quot;:null}" stroke="none" stroke-width="0" stroke-linecap="butt"><path d="M297.83335,259.17024v-5.83333h1.33333v5.83333z" fill="url(#color-12)"/><path d="M297.36113,257.67949v-4.55556h2.33333v4.55556z" fill="url(#color-13)"/></g><path d="M290.12502,250.75357c0,0 0.83333,-5.28882 0.83333,-8.38443c0,-4.21816 -0.83333,-14.61557 -0.83333,-14.61557h17.25c0,0 -1.33333,14.65587 -1.33333,18.61557c0,1.78498 1.33333,4.38443 1.33333,4.38443z" data-paper-data="{&quot;index&quot;:null}" fill="url(#color-14)" stroke="none" stroke-width="0" stroke-linecap="butt"/><g data-paper-data="{&quot;index&quot;:null}" stroke="none" stroke-width="0" stroke-linecap="butt"><path d="M292.62502,254.36467v-3.61111h12.08333v3.61111z" fill="url(#color-15)"/><path d="M292.64585,253.04524v-2.25h12v2.25z" fill="url(#color-16)"/></g><g data-paper-data="{&quot;index&quot;:null}" stroke="none" stroke-width="0" stroke-linecap="butt"><path d="M304.83335,224.37855v3.61111h-12.08333v-3.61111z" fill="url(#color-17)"/><path d="M304.77085,225.69802v2.25h-12v-2.25z" fill="url(#color-18)"/></g><g data-paper-data="{&quot;index&quot;:null}" stroke="none" stroke-width="0" stroke-linecap="butt"><path d="M290.59296,260.44019l7.66553,-1.47969l7.19313,2.29687l-8.18811,1.28573z" data-paper-data="{&quot;index&quot;:null}" fill="url(#color-19)"/><path d="M292.67675,256.99823l5.88944,1.91662l-9.31712,1.76468l-5.10345,-2.04458z" data-paper-data="{&quot;index&quot;:null}" fill="url(#color-20)"/><g><path d="M287.49037,258.47837c0.76367,-1.59588 6.25877,-2.75802 13.07881,-2.53268c6.82004,0.22535 11.12696,1.63023 10.32507,3.30598c-0.80189,1.67575 -6.33609,2.74936 -13.11552,2.52535c-6.77943,-0.224 -11.05203,-1.70277 -10.28836,-3.29865z" fill="url(#color-21)"/><path d="M298.31078,260.79796c-4.52131,-0.14939 -7.37076,-1.13561 -6.86146,-2.19993c0.5093,-1.06432 4.17407,-1.83937 8.72247,-1.68908c4.54839,0.15028 7.42074,1.08724 6.88595,2.20481c-0.53479,1.11758 -4.22564,1.83359 -8.74695,1.6842z" fill="url(#color-22)"/><path d="M305.90136,257.5275l-7.66553,1.47969l-7.19313,-2.29687l8.18811,-1.28574z" fill="url(#color-23)"/><path d="M303.97918,260.91371l-5.88943,-1.91662l9.31711,-1.76469l5.10345,2.04458z" data-paper-data="{&quot;index&quot;:null}" fill="url(#color-24)"/></g></g><path d="M180.16668,259.83689v-5.83334h1.33334v5.83334z" data-paper-data="{&quot;index&quot;:null}" fill="url(#color-25)" stroke="none" stroke-width="0" stroke-linecap="butt"/><path d="M179.69446,258.34617v-4.55556h2.33334v4.55556z" data-paper-data="{&quot;index&quot;:null}" fill="url(#color-26)" stroke="none" stroke-width="0" stroke-linecap="butt"/><path d="M172.45835,251.58689v-23h17.25v23z" data-paper-data="{&quot;index&quot;:null}" fill="url(#color-27)" stroke="none" stroke-width="0" stroke-linecap="butt"/><g data-paper-data="{&quot;index&quot;:null}" stroke="none" stroke-width="0" stroke-linecap="butt"><path d="M174.95835,255.03133v-3.61111h12.08333v3.61111z" fill="url(#color-28)"/><path d="M174.97918,253.71189v-2.25h12v2.25z" fill="url(#color-29)"/></g><g data-paper-data="{&quot;index&quot;:null}" stroke="none" stroke-width="0" stroke-linecap="butt"><path d="M187.16668,225.04524v3.61111h-12.08333v-3.61111z" fill="url(#color-30)"/><path d="M187.10418,226.36467v2.25h-12v-2.25z" fill="url(#color-31)"/></g><path d="M172.92629,261.10684l7.66553,-1.47969l7.19313,2.29687l-8.18811,1.28573z" data-paper-data="{&quot;index&quot;:null}" fill="url(#color-32)" stroke="none" stroke-width="0" stroke-linecap="butt"/><path d="M175.01009,257.6649l5.88943,1.91662l-9.31712,1.76468l-5.10345,-2.04458z" data-paper-data="{&quot;index&quot;:null}" fill="url(#color-33)" stroke="none" stroke-width="0" stroke-linecap="butt"/><g data-paper-data="{&quot;index&quot;:null}" stroke="none" stroke-width="0" stroke-linecap="butt"><path d="M169.82371,259.14502c0.76368,-1.59588 6.25877,-2.75803 13.07881,-2.53268c6.82003,0.22535 11.12696,1.63024 10.32507,3.30598c-0.80189,1.67575 -6.33609,2.74936 -13.11553,2.52535c-6.77944,-0.224 -11.05202,-1.70277 -10.28835,-3.29865z" fill="url(#color-34)"/><path d="M180.64411,261.46464c-4.52131,-0.14939 -7.37077,-1.13561 -6.86146,-2.19993c0.50931,-1.06432 4.17407,-1.83937 8.72247,-1.68909c4.54839,0.15028 7.42074,1.08724 6.88595,2.20481c-0.5348,1.11758 -4.22565,1.83359 -8.74696,1.6842z" fill="url(#color-35)"/><path d="M188.2347,258.19415l-7.66553,1.4797l-7.19313,-2.29687l8.18811,-1.28574z" fill="url(#color-36)"/><path d="M186.31252,261.58036l-5.88943,-1.91662l9.31711,-1.76468l5.10344,2.04458z" data-paper-data="{&quot;index&quot;:null}" fill="url(#color-37)"/></g><path d="M191.16669,203.67024v-3.33333h99.33333v3.33333z" data-paper-data="{&quot;index&quot;:null}" fill="url(#color-38)" stroke="none" stroke-width="0" stroke-linecap="butt"/><path d="M206.95835,205.86467v-8c0,0 3.29663,1.66667 6.48957,1.66667c9.9723,0 61.51043,-1.66667 61.51043,-1.66667v8c0,0 -1.41982,0.83333 -4.17709,0.83333c-9.44145,0 -63.82291,-0.83333 -63.82291,-0.83333z" data-paper-data="{&quot;index&quot;:null}" fill="#0a0a0a" stroke="none" stroke-width="0" stroke-linecap="butt"/><path d="M179.08335,225.45989l45.66667,-61.99999h33.66666l5.66885,8.12975" data-paper-data="{&quot;index&quot;:null}" fill="none" stroke="url(#color-39)" stroke-width="5" stroke-linecap="round"/><path d="M301.41667,225.12656l-26.0563,-37.36756" data-paper-data="{&quot;index&quot;:null}" fill="none" stroke="url(#color-40)" stroke-width="5" stroke-linecap="round"/><path d="M173.33335,235.19802v-11c0,0 19.92487,1 34.44791,1c13.98593,0 44.43385,-1.49676 67.6693,-1.77764c17.20666,-0.208 30.38279,0.77764 30.38279,0.77764v11c0,0 -18.61818,-0.66667 -32.21876,-0.66667c-12.87243,0 -40.66252,0.85592 -63.66389,1.03276c-20.16892,0.15506 -36.61735,-0.36609 -36.61735,-0.36609z" data-paper-data="{&quot;index&quot;:null}" fill="url(#color-41)" stroke="none" stroke-width="0" stroke-linecap="butt"/><path d="M241.33335,210.53132l1,44.5" data-paper-data="{&quot;index&quot;:null}" fill="none" stroke="#000000" stroke-width="12.5" stroke-linecap="round"/><path d="M263.20835,229.61467l-11.75,0.2c0,0 0.57778,8.01931 0.61298,11.72471c0.0309,3.25188 -0.41298,9.32529 -0.41298,9.32529c0,0 -1.62905,4.50595 -2.83045,6.60235c-1.27729,2.22882 -4.61955,6.39765 -4.61955,6.39765h-7.25c0,0 -2.79136,-6.04374 -4.3093,-8.29765c-1.08039,-1.60422 -3.9407,-3.95235 -3.9407,-3.95235c0,0 -0.70433,-6.08975 -0.72625,-9.24693c-0.02701,-3.88911 0.57625,-12.35307 0.57625,-12.35307l-10.6,0.2l-0.2,-34.4l14,-0.2l8.4,-7.2l8.6,7.2h14.2z" data-paper-data="{&quot;index&quot;:null}" fill="#0d0d0d" stroke="#0d0d0d" stroke-width="5" stroke-linecap="round"/><path d="M234.65523,232.57302h20v18.75c0,0 -0.6031,2.53714 -1.44547,3.9655c-1.56085,2.64667 -7.17953,10.6595 -7.17953,10.6595l-9.875,0.125z" data-paper-data="{&quot;index&quot;:null}" fill="url(#color-42)" stroke="#0d0d0d" stroke-width="0" stroke-linecap="round"/><path d="M242.90523,232.28133v-38.75h22.875v38.75z" data-paper-data="{&quot;index&quot;:null}" fill="url(#color-43)" stroke="none" stroke-width="0" stroke-linecap="butt"/><path d="M234.92805,234.90633v6.2125l-2.89402,2.6625h-4.1288l0.03858,-8.875z" data-paper-data="{&quot;index&quot;:null}" fill="#0a0a0a" stroke="#000000" stroke-width="0" stroke-linecap="round"/><path d="M226.03023,244.78133v-12.375h28v12.375z" data-paper-data="{&quot;index&quot;:null}" fill="url(#color-44)" stroke="none" stroke-width="0" stroke-linecap="butt"/><path d="M217.40523,230.15633l-0.125,-28.75h13.375l9.375,8.625v20.125z" data-paper-data="{&quot;index&quot;:null}" fill="#0a0a0a" stroke="#000000" stroke-width="0" stroke-linecap="round"/><g data-paper-data="{&quot;index&quot;:null}" stroke-linecap="butt"><path d="M231.95835,190.08689v-23h17.25v23z" fill="url(#color-45)" stroke="none" stroke-width="0"/><g stroke="none" stroke-width="0"><path d="M234.45835,193.53133v-3.61111h12.08333v3.61111z" fill="url(#color-46)"/><path d="M234.47918,192.21189v-2.25h12v2.25z" fill="url(#color-47)"/></g><g data-paper-data="{&quot;index&quot;:null}" stroke="none" stroke-width="0"><path d="M246.66668,163.54522v3.61111h-12.08333v-3.61111z" fill="url(#color-48)"/><path d="M246.60418,164.86466v2.25h-12v-2.25z" fill="url(#color-49)"/></g><g fill="none" stroke="#ffffff"><path d="M245.56394,179.24625c0,2.73872 -2.23023,4.9589 -4.98137,4.9589c-2.75114,0 -4.98137,-2.22018 -4.98137,-4.9589c0,-2.73872 2.23023,-4.9589 4.98137,-4.9589c2.75114,0 4.98137,2.22018 4.98137,4.9589z" stroke-width="1"/><g stroke-width="0.5"><path d="M241.64044,180.92157l-2.68537,-2.9677l0.37453,-0.3389l2.68537,2.9677z"/><path d="M238.99439,180.74683l-0.28403,-0.31389l3.16744,-2.86612l0.28403,0.31389z"/><path d="M238.13779,177.05854l-0.36518,-0.40357l0.37667,-0.34084l0.36518,0.40357z"/><path d="M242.82981,182.24386l-0.36518,-0.40358l0.37667,-0.34084l0.36518,0.40358z"/></g></g></g><path d="M173.00002,203.92024v-4.33333h24.16667v4.33333z" data-paper-data="{&quot;index&quot;:null}" fill="url(#color-50)" stroke="none" stroke-width="0" stroke-linecap="butt"/><path d="M285.16668,204.25355v-4.33333h24.16667v4.33333z" data-paper-data="{&quot;index&quot;:null}" fill="url(#color-51)" stroke="none" stroke-width="0" stroke-linecap="butt"/><path d="M304.33335,242.698c0,0 1.66667,-56.26387 1.66667,-79.49552c0,-19.67443 -1.66667,-51.00448 -1.66667,-51.00448h9c0,0 0.57876,21.16076 0.20492,40.17947c-0.1231,6.26255 -1.53825,12.14425 -1.53825,17.15834c0,22.92392 1.33333,73.16219 1.33333,73.16219z" data-paper-data="{&quot;index&quot;:null}" fill="url(#color-52)" stroke="none" stroke-width="0" stroke-linecap="butt"/><path d="M166.83335,244.19802v-130.5h9v130.5z" data-paper-data="{&quot;index&quot;:null}" fill="url(#color-53)" stroke="none" stroke-width="0" stroke-linecap="butt"/><path d="M248.16668,215.58689c0,4.6484 -3.73096,8.41667 -8.33333,8.41667c-4.60237,0 -8.33333,-3.76827 -8.33333,-8.41667c0,-4.6484 3.73096,-8.41667 8.33333,-8.41667c4.60237,0 8.33333,3.76827 8.33333,8.41667z" data-paper-data="{&quot;index&quot;:null}" fill="#3d3d3d" stroke="#3e3e3e" stroke-width="1.5" stroke-linecap="butt"/><path d="M306.97358,115.12128c0,0 -0.76798,-5.90387 -0.54438,-9.12152c0.26141,-3.76176 2.0172,-12.07277 2.0172,-12.07277l6.46438,0.51764c0,0 -1.10855,8.29224 -1.29195,11.94147c-0.14408,2.86689 0.28075,8.17873 0.28075,8.17873l-5.35862,25.80795c0,0 -0.47279,-12.82048 -0.76218,-17.4828c-0.18993,-3.05985 -0.8052,-7.7687 -0.8052,-7.7687z" data-paper-data="{&quot;index&quot;:null}" fill="url(#color-54)" stroke="#000000" stroke-width="0" stroke-linecap="round"/><path d="M171.5934,140.3728l-4.69195,-24.97462l-3.67788,-15.28686l5.79771,-1.85097l4.13949,16.86096z" data-paper-data="{&quot;index&quot;:null}" fill="url(#color-55)" stroke="#000000" stroke-width="0" stroke-linecap="round"/><g data-paper-data="{&quot;index&quot;:null}" stroke="none" stroke-width="0" stroke-linecap="butt"><path d="M251.37501,157.68491c0,0 0.66667,-3.77437 0.66667,-5.81577c0,-1.74269 -0.66667,-5.6789 -0.66667,-5.6789h8.621c0,0 -1.16667,3.84076 -1.16667,5.84556c0,1.80594 1.16667,5.64912 1.16667,5.64912z" fill="url(#color-56)"/><g><path d="M252.45777,159.40633v-1.80472h6.03887v1.80472z" fill="url(#color-57)"/><path d="M252.46818,158.74692v-1.12448h5.99722v1.12448z" fill="url(#color-58)"/></g><g data-paper-data="{&quot;index&quot;:null}"><path d="M258.55911,144.42022v1.80472h-6.03887v-1.80472z" fill="url(#color-59)"/><path d="M258.52788,145.07964v1.12448h-5.99722v-1.12448z" fill="url(#color-60)"/></g></g><g data-paper-data="{&quot;index&quot;:null}" stroke="none" stroke-width="0" stroke-linecap="butt"><path d="M224.58335,157.80991c0,0 0.66667,-3.38221 0.66667,-5.27411c0,-1.93852 -0.66667,-6.22056 -0.66667,-6.22056h8.621c0,0 1.16667,3.30223 1.16667,5.0539c0,2.03675 -1.16667,6.44078 -1.16667,6.44078z" fill="url(#color-61)"/><g><path d="M225.83277,159.53133v-1.80472h6.03887v1.80472z" fill="url(#color-62)"/><path d="M225.84318,158.87192v-1.12448h5.99722v1.12448z" fill="url(#color-63)"/></g><g data-paper-data="{&quot;index&quot;:null}"><path d="M231.93411,144.54522v1.80472h-6.03887v-1.80472z" fill="url(#color-64)"/><path d="M231.90288,145.20464v1.12448h-5.99722v-1.12448z" fill="url(#color-65)"/></g></g><g data-paper-data="{&quot;index&quot;:null}" stroke="#4d4d4d" stroke-width="1.5" stroke-linecap="butt"><path d="M184.40223,153.88626l2.11501,-21.34268l5.08674,-0.59637l-1.61501,22.34268z" fill="url(#color-66)"/><path d="M186.06813,137.09083l-2.38499,-20.34268l7.26678,-0.85196l2.38499,20.34268z" fill="url(#color-67)"/></g><path d="M336.83335,200.69105c0,3.4863 -2.79822,6.3125 -6.25,6.3125c-2.58573,0 -5.80471,-1.25259 -6.75542,-3.5139c-0.31843,-0.75739 0.50542,-1.92389 0.50542,-2.7986c0,-1.61317 1.09912,-2.75167 2.08488,-3.86758c1.14462,-1.29574 2.31054,-2.44492 4.16512,-2.44492c3.45178,0 6.25,2.8262 6.25,6.3125z" data-paper-data="{&quot;index&quot;:null}" fill="#3d3d3d" stroke="#3e3e3e" stroke-width="1.5" stroke-linecap="butt"/><path d="M158.16668,199.35772c0,3.4863 -2.79823,6.3125 -6.25,6.3125c-1.29822,0 -1.17067,-1.06644 -2.1699,-1.75075c-1.65757,-1.13517 -4.0801,-2.38665 -4.0801,-4.56175c0,-3.4863 2.79822,-6.3125 6.25,-6.3125c3.45177,0 6.25,2.8262 6.25,6.3125z" data-paper-data="{&quot;index&quot;:null}" fill="#3d3d3d" stroke="#3e3e3e" stroke-width="1.5" stroke-linecap="butt"/><g data-paper-data="{&quot;index&quot;:null}" stroke="none" stroke-width="0" stroke-linecap="butt"><path d="M235.87502,127.68598v-15.93912h11.95434v15.93912z" fill="url(#color-68)"/><g><path d="M237.60753,130.07302v-2.50252h8.37381v2.50252z" fill="url(#color-69)"/><path d="M237.62196,129.15862v-1.55926h8.31606v1.55926z" fill="url(#color-70)"/></g><g data-paper-data="{&quot;index&quot;:null}"><path d="M246.06797,109.29248v2.50252h-8.37381v-2.50252z" fill="url(#color-71)"/><path d="M246.02465,110.20685v1.55926h-8.31607v-1.55926z" fill="url(#color-72)"/></g></g><path d="M238.76026,254.40829l-4.23542,-2.49844c0,0 0.25081,-3.25505 0.02376,-5.03228c-0.25578,-2.00209 -1.48256,-6.38625 -1.48256,-6.38625l7.37301,1.30591l7.07826,-1.21302l-1.16832,11.43219c0,0 -1.88085,0.19848 -2.62263,0.5737c-0.81721,0.41337 -2.07627,1.80317 -2.07627,1.80317z" data-paper-data="{&quot;index&quot;:null}" fill="url(#color-73)" stroke="url(#color-74)" stroke-width="1.5" stroke-linecap="round"/><path d="M235.52084,251.0855l1.625,-8.75" data-paper-data="{&quot;index&quot;:null}" fill="none" stroke="url(#color-75)" stroke-width="1" stroke-linecap="round"/><path d="M245.39584,251.0855l-1.875,-8.75" data-paper-data="{&quot;index&quot;:null}" fill="none" stroke="url(#color-76)" stroke-width="1" stroke-linecap="round"/><path d="M166.83333,112.11111l2.66667,-3.33333l1.33333,2" data-paper-data="{&quot;index&quot;:null}" fill="none" stroke="#bd0000" stroke-width="0.5" stroke-linecap="round"/><path d="M310.7,105.4l-0.8,14l-2.4,1.6" data-paper-data="{&quot;index&quot;:null}" fill="none" stroke="#bd0000" stroke-width="0.5" stroke-linecap="round"/><path d="M218.78125,175.20247l-1.66667,0.83333l-3,2.66667l-3.5,0.66667" data-paper-data="{&quot;index&quot;:null}" fill="none" stroke="#bc0000" stroke-width="1" stroke-linecap="round"/><path d="M201.61458,191.86915l3,-0.66667l1.16667,0.83333" data-paper-data="{&quot;index&quot;:null}" fill="none" stroke="#bc0000" stroke-width="1" stroke-linecap="round"/><path d="M279.61458,197.53581l0.16667,-2.16667l3,-0.83333" data-paper-data="{&quot;index&quot;:null}" fill="none" stroke="#bc0000" stroke-width="1" stroke-linecap="round"/><g data-paper-data="{&quot;index&quot;:null}" stroke="#4d4d4d" stroke-width="1.5" stroke-linecap="butt"><path d="M280.17649,156.57547l5.23835,-20.79767l5.11908,0.16006l-4.89124,21.86045z" fill="url(#color-77)"/><path d="M284.30028,140.20916l0.6401,-20.47201l7.31297,0.22865l-0.6401,20.47201z" fill="url(#color-78)"/></g><path d="M146.875,207.95833c0,1.25 -1.25,1.25 -1.25,1.25l-1.64312,-0.17813c-2.64568,-1.63722 -5.27161,-4.64583 -7.30595,-7.00838c0,0 -0.81349,-0.94907 0.13558,-1.76256c0.94907,-0.81349 1.76256,0.13558 1.76256,0.13558c1.80727,2.11921 4.28976,5.11096 6.69405,6.49162l0.35688,-0.17813c0,0 1.25,0 1.25,1.25z" data-paper-data="{&quot;index&quot;:null}" fill="#000000" stroke="none" stroke-width="0.5" stroke-linecap="butt"/><path d="M155.11735,190.09637c-0.13804,1.24235 -1.38039,1.10432 -1.38039,1.10432l-2.18109,-0.24427c-3.75212,0.00372 -6.57409,0.93111 -9.7375,3.04198c0,0 -1.04006,0.69338 -1.73344,-0.34669c-0.69338,-1.04006 0.34669,-1.73344 0.34669,-1.73344c3.62559,-2.41496 6.95469,-3.46201 11.2625,-3.45802l2.31891,0.25573c0,0 1.24235,0.13804 1.10432,1.38039z" data-paper-data="{&quot;index&quot;:null}" fill="#000000" stroke="none" stroke-width="0.5" stroke-linecap="butt"/><path d="M161.1695,197.44132c-1.23299,-0.2055 -1.02749,-1.43849 -1.02749,-1.43849l0.37153,-1.86648c2.43584,-2.4563 -0.784,-3.18255 -2.15322,-5.38628c-0.49295,-0.7934 -0.61412,-1.76431 -0.92117,-2.64646c0,0 -0.39528,-1.18585 0.79057,-1.58114c1.18585,-0.39528 1.58114,0.79057 1.58114,0.79057c1.06523,3.38465 6.58919,6.33503 2.92561,9.96726l-0.12847,1.13352c0,0 -0.2055,1.23299 -1.43849,1.02749z" data-paper-data="{&quot;index&quot;:null}" fill="#000000" stroke="none" stroke-width="0.5" stroke-linecap="butt"/><path d="M150.00697,209.76735c-0.55902,-1.11803 0.55902,-1.67705 0.55902,-1.67705l1.16373,-0.56782c2.90638,-0.96409 5.59681,-0.81415 8.64528,-0.81415c0,0 1.25,0 1.25,1.25c0,1.25 -1.25,1.25 -1.25,1.25c-2.76305,0 -5.23077,-0.19348 -7.85472,0.68585l-0.83627,0.43218c0,0 -1.11803,0.55902 -1.67705,-0.55902z" data-paper-data="{&quot;index&quot;:null}" fill="#000000" stroke="none" stroke-width="0.5" stroke-linecap="butt"/><path d="M195.94687,227.81521c0.64312,1.07187 -0.42875,1.71499 -0.42875,1.71499l-1.43,0.83918c-4.05883,0.90575 -7.25471,3.61562 -11.74332,1.97094c-1.50413,-0.55113 -2.96055,-2.87644 -4.25067,-3.9059c0,0 -0.97609,-0.78087 -0.19522,-1.75695c0.78087,-0.97609 1.75695,-0.19522 1.75695,-0.19522c1.08652,0.87126 2.59049,3.2251 3.74933,3.5941c3.6527,1.16311 6.42242,-1.29125 9.75668,-2.02906l1.07,-0.66082c0,0 1.07187,-0.64312 1.71499,0.42875z" data-paper-data="{&quot;index&quot;:null}" fill="#000000" stroke="none" stroke-width="0.5" stroke-linecap="butt"/><path d="M191.125,221.95833c-1.25,0 -1.25,-1.25 -1.25,-1.25l0.0894,-0.71424c2.7449,-6.04809 9.09592,-0.8732 11.2567,3.03777c0.02122,0.0384 0.04198,0.07701 0.06232,0.1158l0.01159,-0.00701l1.28356,2.12165c0.12101,0.19247 0.191,0.42026 0.191,0.6644c0,0.69036 -0.55964,1.25 -1.25,1.25c-0.13508,0 -0.26516,-0.02143 -0.38701,-0.06107l-2.36674,-0.71002c0,0 -1.19728,-0.35918 -0.8381,-1.55647c0.22485,-0.74949 0.77812,-0.88905 1.16052,-0.88861c-2.27536,-2.2495 -5.80121,-6.39022 -6.80265,-3.03797l0.0894,-0.21424c0,0 0,1.25 -1.25,1.25z" data-paper-data="{&quot;index&quot;:null}" fill="#000000" stroke="none" stroke-width="0.5" stroke-linecap="butt"/><path d="M207.48188,228.2802c-1.07187,-0.64312 -0.42875,-1.71499 -0.42875,-1.71499l0.59882,-0.86505c-0.23269,-1.4105 0.09884,-3.23762 -0.44285,-4.54109c-1.32309,-3.18372 -4.0569,-4.93032 -6.61497,-6.97466c0,0 -0.97609,-0.78087 -0.19522,-1.75695c0.78087,-0.97609 1.75695,-0.19522 1.75695,-0.19522c2.87329,2.30111 5.9743,4.40807 7.38503,8.02534c0.68424,1.75447 0.37928,4.1162 0.55715,5.95891l-0.90118,1.63495c0,0 -0.64312,1.07187 -1.71499,0.42875z" data-paper-data="{&quot;index&quot;:null}" fill="#000000" stroke="none" stroke-width="0.5" stroke-linecap="butt"/><path d="M212.31085,231.31305c0.39528,1.18585 -0.79057,1.58114 -0.79057,1.58114l-1.57445,0.52227c-2.32408,0.45631 -3.86362,1.47335 -6.31598,1.0176c0,0 -1.22573,-0.24515 -0.98058,-1.47087c0.24515,-1.22573 1.47087,-0.98058 1.47087,-0.98058c1.93373,0.42615 3.31001,-0.60127 5.18402,-0.9824l1.42555,-0.47773c0,0 1.18585,-0.39528 1.58114,0.79057z" data-paper-data="{&quot;index&quot;:null}" fill="#000000" stroke="none" stroke-width="0.5" stroke-linecap="butt"/><path d="M283.875,226.95833c0,1.25 -1.25,1.25 -1.25,1.25l-2.33861,-0.00314c-0.6663,-0.09776 -1.36046,-0.079 -1.99889,-0.29328c-0.84417,-0.28334 -1.82365,-0.49937 -2.39574,-1.18173c-1.86579,-2.22545 1.28845,-4.48521 0.30765,-6.347c-0.6042,-1.14692 -1.79115,-1.8748 -2.70829,-2.79095c0,0 -0.88388,-0.88388 0,-1.76777c0.88388,-0.88388 1.76777,0 1.76777,0c0.66725,0.66794 2.89283,2.74945 3.29171,3.70905c0.45576,1.09645 -0.22536,2.9783 -0.45604,3.94907c-0.13257,0.55788 -0.65337,1.3104 -0.23631,1.70392c0.29689,0.28013 2.42926,0.50073 2.60537,0.52499l2.16139,-0.00314c0,0 1.25,0 1.25,1.25z" data-paper-data="{&quot;index&quot;:null}" fill="#000000" stroke="none" stroke-width="0.5" stroke-linecap="butt"/><path d="M297.36021,229.94736c0.17525,-0.26116 0.48109,-0.48903 1.01479,-0.48903c1.25,0 1.25,1.25 1.25,1.25l-0.85472,1.43585c-4.31322,1.33299 -4.06723,-1.53442 -6.81327,-3.72613c-1.2584,-1.00437 -2.68573,-1.77656 -4.02539,-2.66966c0,0 -1.04006,-0.69338 -0.34669,-1.73344c0.69338,-1.04006 1.73344,-0.34669 1.73344,-0.34669c0.21175,0.14116 4.17486,2.77889 4.29512,2.87734c1.69177,1.38493 1.70468,3.76957 3.74672,3.40175z" data-paper-data="{&quot;index&quot;:null}" fill="#000000" stroke="none" stroke-width="0.5" stroke-linecap="butt"/><path d="M298.375,211.95833c0,-1.25 1.25,-1.25 1.25,-1.25l1.39312,0.17813c0.41667,0.25 0.83333,0.5 1.25,0.75c0,0 1.07187,0.64312 0.42875,1.71499c-0.64312,1.07187 -1.71499,0.42875 -1.71499,0.42875c-0.41667,-0.25 -0.83333,-0.5 -1.25,-0.75l-0.10688,0.17813c0,0 -1.25,0 -1.25,-1.25z" data-paper-data="{&quot;index&quot;:null}" fill="#000000" stroke="none" stroke-width="0.5" stroke-linecap="butt"/><path d="M283.875,219.20833c0,-1.25 1.25,-1.25 1.25,-1.25h0.5c1.14584,0.76788 -0.55863,-2.54908 -0.64893,-2.7576c0,0 -0.4924,-1.14893 0.65653,-1.64133c1.14893,-0.4924 1.64133,0.65653 1.64133,0.65653c0.6753,1.59021 2.03906,4.3041 0.40904,5.94617c-0.48826,0.49187 -1.37198,0.19748 -2.05797,0.29623h-0.5c0,0 -1.25,0 -1.25,-1.25z" data-paper-data="{&quot;index&quot;:null}" fill="#000000" stroke="none" stroke-width="0.5" stroke-linecap="butt"/><path d="M244.41506,199.90171c-0.69338,1.04006 -1.73344,0.34669 -1.73344,0.34669l-0.16987,-0.11325c-0.08485,-0.05691 -2.13139,-1.61328 -2.87313,-1.69937c-4.69443,-0.54487 -7.6217,2.6728 -11.81532,3.50673c-2.97202,0.591 -4.98987,-1.65827 -5.19829,-4.23417c0,0 0,-1.25 1.25,-1.25c1.25,0 1.25,1.25 1.25,1.25c-0.234,1.17375 1.16328,2.12101 2.30171,1.76583c4.36747,-1.36263 7.67995,-4.22113 12.68468,-3.49327c1.27559,0.18551 2.86557,1.46317 3.78712,2.07413l0.16987,0.11325c0,0 1.04006,0.69338 0.34669,1.73344z" data-paper-data="{&quot;index&quot;:null}" fill="#000000" stroke="none" stroke-width="0.5" stroke-linecap="butt"/><path d="M261.125,211.70833c0,1.25 -1.25,1.25 -1.25,1.25l-1.40273,-0.00937c-4.4345,-1.25994 -5.27151,-5.5886 -7.43257,-9.37046c0,0 -0.62017,-1.0853 0.46513,-1.70548c1.0853,-0.62017 1.70548,0.46513 1.70548,0.46513c1.41683,2.47945 2.6373,7.58095 5.56743,8.12954l1.09727,-0.00937c0,0 1.25,0 1.25,1.25z" data-paper-data="{&quot;index&quot;:null}" fill="#000000" stroke="none" stroke-width="0.5" stroke-linecap="butt"/><path d="M229.125,223.20833c0,1.25 -1.25,1.25 -1.25,1.25h-1c-1.70756,0 -4.58015,0.46672 -6.04249,-0.78332c-1.71634,-1.46718 -2.86518,-4.82194 -2.21469,-6.98126c0.85046,-2.82312 2.95713,-4.21387 4.82291,-6.31588c0,0 0.83045,-0.93426 1.76472,-0.10381c0.93426,0.83045 0.10381,1.76472 0.10381,1.76472c-2.41919,2.7179 -6.68095,5.92383 -2.89178,9.70287c0.62502,0.62335 3.95534,0.21668 4.45751,0.21668h1c0,0 1.25,0 1.25,1.25z" data-paper-data="{&quot;index&quot;:null}" fill="#000000" stroke="none" stroke-width="0.5" stroke-linecap="butt"/><path d="M252.03973,217.40919c-0.37026,-0.09538 -0.91473,-0.37588 -0.91473,-1.20086c0,-1.25 1.25,-1.25 1.25,-1.25l1.19907,0.43651c1.15928,1.35361 4.41854,3.86234 4.98787,5.42149c1.44637,3.96093 -3.5464,7.60557 -6.47271,8.80259c0,0 -1.1606,0.46424 -1.62483,-0.69636c-0.46424,-1.1606 0.69636,-1.62483 0.69636,-1.62483c1.45224,-0.56402 6.11523,-3.35843 5.02729,-5.69741c-0.56872,-1.22271 -2.93022,-2.97867 -4.14832,-4.19114z" data-paper-data="{&quot;index&quot;:null}" fill="#000000" stroke="none" stroke-width="0.5" stroke-linecap="butt"/><path d="M256.54609,199.76291c-1.05458,0.67109 -1.72567,-0.38348 -1.72567,-0.38348l-0.40781,-0.64085c-1.0733,-2.91979 -1.59013,-0.12295 -0.52045,0.9932c0,0 0.72655,1.01717 -0.29062,1.74371c-1.01717,0.72655 -1.74371,-0.29062 -1.74371,-0.29062c-0.49408,-0.81267 -1.50727,-1.48727 -1.48224,-2.43802c0.02496,-0.94787 2.20043,-4.64654 4.0366,-4.00509c1.06702,0.37276 1.40638,1.76975 2.10957,2.65462l0.40781,0.64085c0,0 0.67109,1.05458 -0.38348,1.72567z" data-paper-data="{&quot;index&quot;:null}" fill="#000000" stroke="none" stroke-width="0.5" stroke-linecap="butt"/><path d="M324.7856,207.17257c-0.46424,1.1606 -1.62483,0.69636 -1.62483,0.69636l-1.47388,-0.61704c-3.06908,-2.99865 -6.88121,-5.10573 -6.01933,-10.07902c0.29634,-1.70999 1.18962,-3.26072 1.7827,-4.89171c0,0 0.42718,-1.17474 1.60192,-0.74756c1.17474,0.42718 0.74756,1.60192 0.74756,1.60192c-0.54606,1.50165 -1.36043,2.925 -1.67384,4.49181c-0.73537,3.67624 2.75634,5.28316 4.93721,7.53746l1.02612,0.38296c0,0 1.1606,0.46424 0.69636,1.62483z" data-paper-data="{&quot;index&quot;:null}" fill="#000000" stroke="none" stroke-width="0.5" stroke-linecap="butt"/><path d="M342.875,195.95833c0,1.25 -1.25,1.25 -1.25,1.25h-1c-5.55705,-0.00837 -9.13426,-3.30977 -14.3434,-4.7981c0,0 -1.2019,-0.3434 -0.8585,-1.54531c0.3434,-1.2019 1.54531,-0.8585 1.54531,-0.8585c0.24043,0.06869 4.87665,1.38811 4.99644,1.44447c2.11207,0.99385 2.12723,1.78942 4.09079,2.81416c1.21798,0.63564 3.28214,0.44539 4.56937,0.44327h1c0,0 1.25,0 1.25,1.25z" data-paper-data="{&quot;index&quot;:null}" fill="#000000" stroke="none" stroke-width="0.5" stroke-linecap="butt"/><path d="M233.36803,136.35765c0.55902,1.11803 -0.55902,1.67705 -0.55902,1.67705l-1.28785,0.6022c-3.20096,0.71133 -9.02805,3.32226 -12.14853,1.52151c-2.11694,-1.22163 -2.89995,-4.83398 -4.31194,-6.67868c-3.08318,-4.02803 -6.87454,-5.86967 -11.33452,-7.92812c0,0 -1.13495,-0.52382 -0.61113,-1.65877c0.52382,-1.13495 1.65877,-0.61113 1.65877,-0.61113c4.80885,2.21947 8.95289,4.34212 12.27208,8.67848c1.09881,1.43555 2.01078,5.07278 3.59725,6.04513c2.09892,1.28642 8.16952,-1.32752 10.33568,-1.80889l0.71215,-0.3978c0,0 1.11803,-0.55902 1.67705,0.55902z" data-paper-data="{&quot;index&quot;:null}" fill="#000000" stroke="none" stroke-width="0.5" stroke-linecap="butt"/><path d="M268,132.41666c0,1.25 -1.25,1.25 -1.25,1.25h-0.5c-3.80988,0 -7.551,0.03872 -11.29977,0.48386c-2.052,0.24366 -3.99699,1.68436 -6.05499,1.97705c-1.73213,0.24634 -3.66038,-0.19824 -5.35074,-0.47791c0,0 -1.23299,-0.2055 -1.02749,-1.43849c0.2055,-1.23299 1.43849,-1.02749 1.43849,-1.02749c1.22049,0.20501 3.29325,0.66249 4.57965,0.46997c2.04883,-0.30664 3.95576,-1.70204 6.01463,-1.97083c3.86684,-0.50484 7.76902,-0.51614 11.70023,-0.51614h0.5c0,0 1.25,0 1.25,1.25z" data-paper-data="{&quot;index&quot;:null}" fill="#000000" stroke="none" stroke-width="0.5" stroke-linecap="butt"/><path d="M299.64445,139.1622c-1.24554,-0.10555 -1.13999,-1.35108 -1.13999,-1.35108l0.19913,-2.28875c0.51261,-1.89429 2.49594,-5.72681 0.66253,-7.22181c0,0 -0.88388,-0.88388 0,-1.76777c0.88388,-0.88388 1.76777,0 1.76777,0c2.58049,2.8537 0.94349,6.10954 0.03135,9.42582l-0.1697,2.06361c0,0 -0.10555,1.24554 -1.35108,1.13999z" data-paper-data="{&quot;index&quot;:null}" fill="#000000" stroke="none" stroke-width="0.5" stroke-linecap="butt"/><path d="M241.51061,210.25411c0.16256,-1.23939 1.40194,-1.07683 1.40194,-1.07683l1.70565,0.22418c0.71358,0.13377 1.63497,0.26465 2.60967,0.42857c-1.64363,-2.07883 -4.22049,-4.97121 -6.17811,-5.1795c-3.40176,-0.36196 -4.10905,1.44046 -6.53698,3.25642c-0.65821,0.4923 -1.56459,0.58575 -2.20871,1.09635c-2.07583,1.64553 -1.80408,3.60028 -1.80408,5.91338c0,2.7992 -0.69652,4.73683 2.02953,6.13213c3.17055,1.85598 7.08597,6.31944 11.26972,4.70197c1.41464,-0.54691 2.18501,-2.10474 3.30961,-3.12239c2.85524,-2.58372 4.71357,-2.42473 4.85449,-6.56508c0.04226,-1.24171 0.5104,-1.69008 -0.96708,-2.55782c-1.71999,-1.01018 -4.83322,-1.27323 -6.77068,-1.63504l-1.63815,-0.21439c0,0 -1.23939,-0.16256 -1.07683,-1.40194zM250.51646,210.5651c0.72891,0.23114 1.37775,0.51086 1.86379,0.85841c3.00467,2.14852 2.96567,7.69937 0.47894,10.26964c-1.1428,1.18118 -2.85527,1.67654 -4.06865,2.78508c-0.37837,0.34568 -3.81471,3.49799 -4.0898,3.60434c-5.27087,2.03776 -9.40072,-2.52949 -13.43145,-4.87465c-0.8488,-0.53786 -1.97068,-0.78999 -2.5464,-1.61357c-0.59919,-0.85716 -0.55708,-2.02094 -0.71681,-3.0545c-0.39545,-2.55889 -0.52445,-7.0468 0.90978,-9.21164c0.97674,-1.4743 2.65397,-2.34417 4.07134,-3.40181c1.85832,-1.38668 2.94883,-3.40735 5.56257,-3.74358c5.03539,-0.64775 8.91928,3.80471 11.70023,7.48386c0,0 0.30608,0.40811 0.26646,0.89843z" data-paper-data="{&quot;index&quot;:null}" fill="#141414" stroke="none" stroke-width="0.5" stroke-linecap="butt"/><path d="M334.45109,195.30294c-0.0376,0.09851 -0.09029,0.201 -0.16102,0.3071c-0.69338,1.04006 -1.73344,0.34669 -1.73344,0.34669c-2.86753,-2.19408 -5.7616,2.21296 -6.5985,4.78077c-0.18028,0.55316 -0.73392,1.11084 -0.54057,1.65957c0.17309,0.49123 0.8849,0.57378 1.38213,0.72878c2.67101,0.83262 5.13968,0.4252 7.75008,0.05696c0.36908,-0.05206 0.77929,0.30292 1.11041,0.13177c1.78295,-0.92161 0.54706,-5.60439 0.46693,-6.84872c-0.58165,-0.50541 -1.1336,-0.88468 -1.67602,-1.16291zM326.52156,194.96393c-0.23012,-0.14885 -0.43177,-0.4051 -0.50455,-0.84177c-0.2055,-1.23299 1.02749,-1.43849 1.02749,-1.43849l0.53402,-0.089c4.57202,-0.75432 7.44829,-0.80742 10.79438,2.77281c0.48379,3.01175 1.7837,8.03421 -1.53307,10.15128c-0.53222,0.33971 -1.26889,0.01608 -1.88959,0.13177c-2.96022,0.55174 -10.1937,1.52604 -11.84837,-2.31136c-0.43199,-1.00185 0.21966,-2.1748 0.44001,-3.24334c0.39962,-1.93786 1.50663,-3.80537 2.97968,-5.1319z" data-paper-data="{&quot;index&quot;:null}" fill="#141414" stroke="none" stroke-width="0.5" stroke-linecap="butt"/><path d="M152.13197,193.35765c0.01504,-0.03007 0.03048,-0.05893 0.04629,-0.08662c-1.81681,-0.35056 -3.71175,-0.77258 -5.18096,-0.53369c-0.66307,0.10781 -1.16765,0.6668 -1.72669,1.03931c-0.98441,0.65596 -2.45399,0.83427 -3.01143,1.87763c-1.02254,1.91389 -0.45824,4.19098 0.31539,5.94977c0.20249,0.46036 0.15639,1.08302 0.53927,1.40911c1.13304,0.965 2.81533,0.96647 4.22526,1.44303c3.29388,1.11334 7.03639,1.71932 10.26787,0.37139c0.76011,-0.30376 1.49821,-0.66977 2.28033,-0.91129c0.50026,-0.15448 1.40439,0.23305 1.54721,-0.27066c0.14063,-0.49598 -0.83776,-0.61128 -1.19058,-0.98717c-2.25037,-2.39749 -3.7246,-5.46898 -6.63247,-7.16723l-0.92046,-0.45656c0,0 -1.11803,-0.55902 -0.55902,-1.67705zM155.38317,193.65626c2.67049,1.78254 5.21513,4.85946 6.87291,7.51858c0.61742,0.99036 1.8977,1.99097 1.59329,3.11762c-0.27407,1.01435 -4.31657,2.45701 -5.31394,2.85631c-3.88101,1.50003 -8.05252,0.99289 -11.99235,-0.3227c-0.91153,-0.30438 -4.51915,-1.4445 -5.15691,-2.00593c-0.61067,-0.53758 -0.74744,-1.44591 -1.08881,-2.1844c-2.36214,-5.11001 0.24969,-11.27443 6.27337,-12.36176c2.47631,-0.447 6.09548,0.89692 8.67926,0.89267c0,0 1.25,0 1.25,1.25c0,0.99671 -0.79474,1.19868 -1.11683,1.2396z" data-paper-data="{&quot;index&quot;:null}" fill="#141414" stroke="none" stroke-width="0.5" stroke-linecap="butt"/><path d="M246.30081,215.01719c-0.19266,0.01717 -0.33211,-0.00519 -0.33211,-0.00519l-1.01505,-0.34015c-0.68958,-0.57747 -1.28661,-1.26383 -1.80657,-2.01174l-0.28984,0.23187l-1.32711,-1.65889c-0.17514,-0.21512 -0.28013,-0.48962 -0.28013,-0.78864c0,-0.69036 0.55964,-1.25 1.25,-1.25c0.20995,0 0.4078,0.05176 0.58151,0.14321l0.68427,0.34213c-0.97089,-1.17898 -2.00369,-2.16503 -2.95059,-2.36911c-2.37944,-0.51283 -3.54011,1.67554 -5.3138,2.85694c-1.09124,0.72684 -3.29554,1.46975 -4.05707,2.42916c-0.56884,0.71666 -0.38884,3.07886 -0.36216,3.6268c0.19105,3.92307 0.81484,5.53129 4.16431,7.83179c3.59096,2.51806 8.31215,2.46182 11.91826,-0.32522c2.51862,-1.94655 0.4862,-6.45647 -0.86391,-8.71295zM248.91224,213.77409c2.03574,3.76485 2.8259,9.24422 -0.10693,11.84246c-4.23755,3.75411 -10.63595,3.4736 -14.98251,0.49386c-3.90255,-2.72421 -5.05871,-5.13951 -5.23828,-9.77843c-0.07142,-1.84493 -0.20741,-3.75305 0.97117,-5.3732c0.84,-1.15471 3.39074,-2.09558 4.6096,-2.90417c2.72734,-1.80933 3.60409,-3.84074 7.35287,-3.14306c2.85109,0.53062 5.58522,5.28993 7.29127,7.4187c0,0 0.59034,0.73793 0.10282,1.44385z" data-paper-data="{&quot;index&quot;:null}" fill="#282828" stroke="none" stroke-width="0.5" stroke-linecap="butt"/><path d="M329.41354,198.71075c-0.52406,0.79778 -0.87602,1.62949 -1.00113,2.8368c-0.01563,0.15084 -0.62541,2.26045 0.46187,2.37091c2.48105,0.25206 4.25704,-2.08079 5.69431,-3.641c0.38878,-0.42203 1.53428,-0.87642 1.13811,-1.29153c-1.26918,-1.32986 -3.60246,-0.89539 -5.25518,-0.95909l-0.25815,0.45767c0,0 -0.3503,0.23353 -0.77983,0.22624zM330.97165,195.54355c1.28971,0.0433 4.04163,0.13468 4.66702,0.4101c5.91127,2.60331 -0.68524,8.94045 -4.23439,10.05886c-1.99279,0.62797 -4.33126,0.79965 -5.3759,-1.55155c-0.42247,-0.95086 -0.16439,-2.08069 -0.10745,-3.11962c0.04312,-0.78679 0.13716,-1.58811 0.40606,-2.32879c0.45191,-1.2448 1.72645,-2.67493 2.53027,-3.68231c0,0 0.78087,-0.97609 1.75695,-0.19522c0.16558,0.13246 0.2806,0.27054 0.35745,0.40853z" data-paper-data="{&quot;index&quot;:null}" fill="#282828" stroke="none" stroke-width="0.5" stroke-linecap="butt"/><path d="M151.89528,197.29696c-1.18585,0.39528 -1.58114,-0.79057 -1.58114,-0.79057l-0.20943,-0.62829c-0.12776,-0.39653 -0.69736,-1.6914 -0.90427,-2.93206c-1.03983,-0.12883 -2.08225,-0.02059 -2.90215,0.46029c-0.89475,0.52478 -0.55627,2.00299 -0.72202,3.02695c-0.40704,2.51456 -0.94109,6.77633 2.40114,7.85593c1.89214,0.61119 4.51984,-1.21022 6.10075,-1.92064c0.92077,-0.41377 1.69662,-1.18258 2.25028,-2.02666c0.26333,-1.6775 -0.34131,-2.98712 -1.40865,-4.2178c-0.73959,-0.6425 -1.47723,-1.28752 -2.27458,-1.85329c-0.17864,-0.08918 -0.34558,-0.17271 -0.50136,-0.2725c0.11123,0.36291 0.20851,0.73189 0.33257,1.08921l0.20943,0.62829c0,0 0.39528,1.18585 -0.79057,1.58114zM158.11185,196.09556c0.44052,0.64261 0.76749,1.28772 0.90816,1.88754c0.2473,1.05448 -0.23231,2.1537 -0.34847,3.23054c-0.91665,1.362 -2.05908,2.71722 -3.54144,3.42284c-2.44341,1.16309 -5.25475,2.8679 -8.10752,1.9632c-0.68069,-0.21587 -1.07121,-0.94548 -1.5827,-1.44379c-2.98961,-2.91254 -2.98442,-5.25223 -2.33007,-9.13072c0.16061,-0.95199 0.52143,-3.78636 1.59189,-4.54262c1.48318,-1.04783 3.33279,-1.1949 5.08471,-0.90617c0.09722,-0.06268 0.20694,-0.11526 0.33029,-0.1564c1.00728,-0.33591 1.98701,0.59949 2.93585,1.20973c0.23609,0.12268 0.46649,0.25589 0.69216,0.39757c0.7956,0.46624 1.74229,1.19454 2.61664,2.03815c0.42171,0.36608 0.84002,0.73171 1.26353,1.07821c0,0 0.47376,0.38763 0.48697,0.9519z" data-paper-data="{&quot;index&quot;:null}" fill="#282828" stroke="none" stroke-width="0.5" stroke-linecap="butt"/></g></g></svg>