<svg version="1.1" xmlns="http://www.w3.org/2000/svg" xmlns:xlink="http://www.w3.org/1999/xlink" width="127" height="669.81288" viewBox="0,0,127,669.81288"><defs><linearGradient x1="217.5" y1="346.71977" x2="186.5" y2="346.71977" gradientUnits="userSpaceOnUse" id="color-1"><stop offset="0" stop-color="#ff0000"/><stop offset="1" stop-color="#ff0000" stop-opacity="0"/></linearGradient><linearGradient x1="238.5" y1="346.71977" x2="269.5" y2="346.71977" gradientUnits="userSpaceOnUse" id="color-2"><stop offset="0" stop-color="#ff0000"/><stop offset="1" stop-color="#ff0000" stop-opacity="0"/></linearGradient><linearGradient x1="250.5" y1="346.71977" x2="281.5" y2="346.71977" gradientUnits="userSpaceOnUse" id="color-3"><stop offset="0" stop-color="#ff0000"/><stop offset="1" stop-color="#ff0000" stop-opacity="0"/></linearGradient><radialGradient cx="228.75" cy="49.67058" r="45.5" gradientUnits="userSpaceOnUse" id="color-4"><stop offset="0" stop-color="#ff0000"/><stop offset="1" stop-color="#ff0000" stop-opacity="0"/></radialGradient><radialGradient cx="228.75" cy="49.67058" r="63.5" gradientUnits="userSpaceOnUse" id="color-5"><stop offset="0" stop-color="#ff0000"/><stop offset="1" stop-color="#ff0000" stop-opacity="0"/></radialGradient><radialGradient cx="216.99315" cy="48.50392" r="25.15982" gradientUnits="userSpaceOnUse" id="color-6"><stop offset="0" stop-color="#ffb7b7"/><stop offset="1" stop-color="#ffb7b7" stop-opacity="0"/></radialGradient><radialGradient cx="239.17352" cy="48.50392" r="25.15982" gradientUnits="userSpaceOnUse" id="color-7"><stop offset="0" stop-color="#ffb7b7"/><stop offset="1" stop-color="#ffb7b7" stop-opacity="0"/></radialGradient><radialGradient cx="227.91781" cy="48.50392" r="25.15982" gradientUnits="userSpaceOnUse" id="color-8"><stop offset="0" stop-color="#ffb7b7"/><stop offset="1" stop-color="#ffb7b7" stop-opacity="0"/></radialGradient><radialGradient cx="229.02131" cy="48.83497" r="12.57991" gradientUnits="userSpaceOnUse" id="color-9"><stop offset="0" stop-color="#ffb7b7"/><stop offset="1" stop-color="#ffb7b7" stop-opacity="0"/></radialGradient><radialGradient cx="223.7245" cy="49.27637" r="12.57991" gradientUnits="userSpaceOnUse" id="color-10"><stop offset="0" stop-color="#ffb7b7"/><stop offset="1" stop-color="#ffb7b7" stop-opacity="0"/></radialGradient><radialGradient cx="217.87595" cy="49.16602" r="8.71766" gradientUnits="userSpaceOnUse" id="color-11"><stop offset="0" stop-color="#ffb7b7"/><stop offset="1" stop-color="#ffb7b7" stop-opacity="0"/></radialGradient><radialGradient cx="240.82877" cy="49.16602" r="10.20738" gradientUnits="userSpaceOnUse" id="color-12"><stop offset="0" stop-color="#ffb7b7"/><stop offset="1" stop-color="#ffb7b7" stop-opacity="0"/></radialGradient><radialGradient cx="239.50457" cy="49.16602" r="8.71765" gradientUnits="userSpaceOnUse" id="color-13"><stop offset="0" stop-color="#ffb7b7"/><stop offset="1" stop-color="#ffb7b7" stop-opacity="0"/></radialGradient><radialGradient cx="246.34627" cy="49.38672" r="6.28995" gradientUnits="userSpaceOnUse" id="color-14"><stop offset="0" stop-color="#ffb7b7"/><stop offset="1" stop-color="#ffb7b7" stop-opacity="0"/></radialGradient><radialGradient cx="233.43531" cy="48.83497" r="12.57991" gradientUnits="userSpaceOnUse" id="color-15"><stop offset="0" stop-color="#ffb7b7"/><stop offset="1" stop-color="#ffb7b7" stop-opacity="0"/></radialGradient><radialGradient cx="215.22755" cy="48.83497" r="9.93151" gradientUnits="userSpaceOnUse" id="color-16"><stop offset="0" stop-color="#ffb7b7"/><stop offset="1" stop-color="#ffb7b7" stop-opacity="0"/></radialGradient><linearGradient x1="204.5" y1="346.71977" x2="173.5" y2="346.71977" gradientUnits="userSpaceOnUse" id="color-17"><stop offset="0" stop-color="#ff0000"/><stop offset="1" stop-color="#ff0000" stop-opacity="0"/></linearGradient><linearGradient x1="197.25" y1="345.62953" x2="216.25" y2="345.62953" gradientUnits="userSpaceOnUse" id="color-18"><stop offset="0" stop-color="#ff0000"/><stop offset="1" stop-color="#ffffff"/></linearGradient><linearGradient x1="237.75" y1="345.62953" x2="256.75" y2="345.62953" gradientUnits="userSpaceOnUse" id="color-19"><stop offset="0" stop-color="#ffffff"/><stop offset="1" stop-color="#ff0000"/></linearGradient><radialGradient cx="209.83333" cy="39.00392" r="38" gradientUnits="userSpaceOnUse" id="color-20"><stop offset="0" stop-color="#ffffff"/><stop offset="1" stop-color="#ffffff" stop-opacity="0"/></radialGradient><radialGradient cx="243.33333" cy="39.00392" r="38" gradientUnits="userSpaceOnUse" id="color-21"><stop offset="0" stop-color="#ffffff"/><stop offset="1" stop-color="#ffffff" stop-opacity="0"/></radialGradient><radialGradient cx="226.33333" cy="39.00392" r="38" gradientUnits="userSpaceOnUse" id="color-22"><stop offset="0" stop-color="#ffffff"/><stop offset="1" stop-color="#ffffff" stop-opacity="0"/></radialGradient><radialGradient cx="228" cy="39.50392" r="19" gradientUnits="userSpaceOnUse" id="color-23"><stop offset="0" stop-color="#ffffff"/><stop offset="1" stop-color="#ffffff" stop-opacity="0"/></radialGradient><radialGradient cx="220" cy="40.17058" r="19" gradientUnits="userSpaceOnUse" id="color-24"><stop offset="0" stop-color="#ffffff"/><stop offset="1" stop-color="#ffffff" stop-opacity="0"/></radialGradient><radialGradient cx="211.16666" cy="40.00392" r="13.16667" gradientUnits="userSpaceOnUse" id="color-25"><stop offset="0" stop-color="#ffffff"/><stop offset="1" stop-color="#ffffff" stop-opacity="0"/></radialGradient><radialGradient cx="245.83333" cy="40.00392" r="15.41667" gradientUnits="userSpaceOnUse" id="color-26"><stop offset="0" stop-color="#ffffff"/><stop offset="1" stop-color="#ffffff" stop-opacity="0"/></radialGradient><radialGradient cx="243.83333" cy="40.00392" r="13.16667" gradientUnits="userSpaceOnUse" id="color-27"><stop offset="0" stop-color="#ffffff"/><stop offset="1" stop-color="#ffffff" stop-opacity="0"/></radialGradient><radialGradient cx="254.16666" cy="40.33725" r="9.5" gradientUnits="userSpaceOnUse" id="color-28"><stop offset="0" stop-color="#ffffff"/><stop offset="1" stop-color="#ffffff" stop-opacity="0"/></radialGradient><radialGradient cx="234.66666" cy="39.50392" r="19" gradientUnits="userSpaceOnUse" id="color-29"><stop offset="0" stop-color="#ffffff"/><stop offset="1" stop-color="#ffffff" stop-opacity="0"/></radialGradient><radialGradient cx="207.16666" cy="39.50392" r="15" gradientUnits="userSpaceOnUse" id="color-30"><stop offset="0" stop-color="#ffffff"/><stop offset="1" stop-color="#ffffff" stop-opacity="0"/></radialGradient></defs><g transform="translate(-165.25,13.82942)"><g data-paper-data="{&quot;isPaintingLayer&quot;:true}" fill-rule="nonzero" stroke-linejoin="miter" stroke-miterlimit="10" stroke-dasharray="" stroke-dashoffset="0" style="mix-blend-mode: normal"><g><g fill="none" stroke="#ff0000" stroke-width="4" stroke-linecap="round"><g><path d="M230.13226,305.50001c0,0 -46.09347,-18.72193 -36.653,-44.71629c6.81047,-18.75268 71.18075,-41.29019 66.87763,-63.31382c-6.43356,-32.9274 -65.48628,-64.70612 -65.48628,-80.9699c0,-21.27727 35.26165,-48 35.26165,-48"/><path d="M227.74907,304.5c0,0 35.26165,26.72273 35.26165,48c0,16.26378 -59.05272,48.0425 -65.48628,80.9699c-4.30312,22.02363 60.06716,44.56114 66.87763,63.31382c9.44046,25.99436 -36.653,44.71629 -36.653,44.71629" data-paper-data="{&quot;index&quot;:null}"/></g><g data-paper-data="{&quot;index&quot;:null}"><path d="M227.74907,277.5c0,0 46.09347,18.72193 36.653,44.71629c-6.81047,18.75267 -71.18075,41.29018 -66.87763,63.31382c6.43356,32.92739 65.48628,64.70612 65.48628,80.9699c0,21.27727 -35.26165,48 -35.26165,48"/><path d="M230.13226,278.5c0,0 -35.26165,-26.72273 -35.26165,-48c0,-16.26378 59.05272,-48.0425 65.48628,-80.9699c4.30312,-22.02363 -60.06716,-44.56114 -66.87763,-63.31382c-9.44046,-25.99436 36.653,-44.71629 36.653,-44.71629" data-paper-data="{&quot;index&quot;:null}"/></g></g><g stroke="none" stroke-width="0" stroke-linecap="butt"><path d="M186.5,655.25664v-617.07374h31v617.07374z" data-paper-data="{&quot;index&quot;:null}" fill="url(#color-1)"/><path d="M238.5,655.25664v-617.07374h31v617.07374z" fill="url(#color-2)"/></g><path d="M250.5,655.25664v-617.07374h31v617.07374z" fill="url(#color-3)" stroke="none" stroke-width="0" stroke-linecap="butt"/><path d="M183.25,49.67058c0,-25.12896 20.37104,-45.5 45.5,-45.5c25.12896,0 45.5,20.37104 45.5,45.5c0,25.12896 -20.37104,45.5 -45.5,45.5c-25.12896,0 -45.5,-20.37104 -45.5,-45.5z" fill="url(#color-4)" stroke="none" stroke-width="0" stroke-linecap="butt"/><path d="M165.25,49.67058c0,-35.07008 28.42992,-63.5 63.5,-63.5c35.07008,0 63.5,28.42992 63.5,63.5c0,35.07008 -28.42992,63.5 -63.5,63.5c-35.07008,0 -63.5,-28.42992 -63.5,-63.5z" fill="url(#color-5)" stroke="none" stroke-width="0" stroke-linecap="butt"/><g stroke="none" stroke-width="0" stroke-linecap="butt"><path d="M191.83333,48.50392c0,-13.89538 11.26443,-25.15982 25.15982,-25.15982c13.89538,0 25.15982,11.26443 25.15982,25.15982c0,13.89538 -11.26443,25.15982 -25.15982,25.15982c-13.89538,0 -25.15982,-11.26443 -25.15982,-25.15982z" fill="url(#color-6)"/><path d="M214.0137,48.50392c0,-13.89538 11.26443,-25.15982 25.15982,-25.15982c13.89538,0 25.15982,11.26443 25.15982,25.15982c0,13.89538 -11.26443,25.15982 -25.15982,25.15982c-13.89538,0 -25.15982,-11.26443 -25.15982,-25.15982z" fill="url(#color-7)"/><path d="M202.75799,48.50392c0,-13.89538 11.26443,-25.15982 25.15982,-25.15982c13.89538,0 25.15982,11.26443 25.15982,25.15982c0,13.89538 -11.26443,25.15982 -25.15982,25.15982c-13.89538,0 -25.15982,-11.26443 -25.15982,-25.15982z" fill="url(#color-8)"/><path d="M216.4414,48.83497c0,-6.94769 5.63222,-12.57991 12.57991,-12.57991c6.94769,0 12.57991,5.63222 12.57991,12.57991c0,6.94769 -5.63222,12.57991 -12.57991,12.57991c-6.94769,0 -12.57991,-5.63222 -12.57991,-12.57991z" fill="url(#color-9)"/><path d="M211.1446,49.27637c0,-6.94769 5.63222,-12.57991 12.57991,-12.57991c6.94769,0 12.57991,5.63222 12.57991,12.57991c0,6.94769 -5.63222,12.57991 -12.57991,12.57991c-6.94769,0 -12.57991,-5.63222 -12.57991,-12.57991z" fill="url(#color-10)"/><path d="M209.15829,49.16602c0,-4.81463 3.90303,-8.71765 8.71765,-8.71765c4.81463,0 8.71766,3.90303 8.71766,8.71765c0,4.81463 -3.90303,8.71765 -8.71766,8.71765c-4.81463,0 -8.71765,-3.90303 -8.71765,-8.71765z" fill="url(#color-11)"/><path d="M230.62138,49.16602c0,-5.63738 4.57,-10.20738 10.20738,-10.20738c5.63738,0 10.20738,4.57 10.20738,10.20738c0,5.63738 -4.57,10.20738 -10.20738,10.20738c-5.63738,0 -10.20738,-4.57 -10.20738,-10.20738z" fill="url(#color-12)"/><path d="M230.78691,49.16602c0,-4.81463 3.90303,-8.71765 8.71766,-8.71765c4.81463,0 8.71765,3.90303 8.71765,8.71765c0,4.81463 -3.90303,8.71765 -8.71765,8.71765c-4.81463,0 -8.71766,-3.90303 -8.71766,-8.71765z" fill="url(#color-13)"/><path d="M240.05631,49.38672c0,-3.47385 2.81611,-6.28995 6.28995,-6.28995c3.47385,0 6.28995,2.81611 6.28995,6.28995c0,3.47385 -2.81611,6.28995 -6.28995,6.28995c-3.47385,0 -6.28995,-2.81611 -6.28995,-6.28995z" fill="url(#color-14)"/><path d="M220.8554,48.83497c0,-6.94769 5.63222,-12.57991 12.57991,-12.57991c6.94769,0 12.57991,5.63222 12.57991,12.57991c0,6.94769 -5.63222,12.57991 -12.57991,12.57991c-6.94769,0 -12.57991,-5.63222 -12.57991,-12.57991z" fill="url(#color-15)"/><path d="M205.29604,48.83497c0,-5.48502 4.44649,-9.93151 9.93151,-9.93151c5.48502,0 9.93151,4.44649 9.93151,9.93151c0,5.48502 -4.44649,9.93151 -9.93151,9.93151c-5.48502,0 -9.93151,-4.44649 -9.93151,-9.93151z" fill="url(#color-16)"/></g><path d="M173.5,655.25664v-617.07374h31v617.07374z" data-paper-data="{&quot;index&quot;:null}" fill="url(#color-17)" stroke="none" stroke-width="0" stroke-linecap="butt"/><g stroke="none" stroke-linecap="butt"><path d="M197.25,655.25664v-619.25422h19v619.25422z" data-paper-data="{&quot;index&quot;:null}" fill="url(#color-18)" stroke-width="NaN"/><path d="M215.5,655.98346v-619.98103h24v619.98103z" fill="#ffffff" stroke-width="0"/><path d="M237.75,655.25664v-619.25422h19v619.25422z" fill="url(#color-19)" stroke-width="NaN"/></g><g stroke="none" stroke-width="0" stroke-linecap="butt"><path d="M171.83333,39.00392c0,-20.98682 17.01318,-38 38,-38c20.98682,0 38,17.01318 38,38c0,20.98682 -17.01318,38 -38,38c-20.98682,0 -38,-17.01318 -38,-38z" fill="url(#color-20)"/><path d="M205.33333,39.00392c0,-20.98682 17.01318,-38 38,-38c20.98682,0 38,17.01318 38,38c0,20.98682 -17.01318,38 -38,38c-20.98682,0 -38,-17.01318 -38,-38z" fill="url(#color-21)"/><path d="M188.33333,39.00392c0,-20.98682 17.01318,-38 38,-38c20.98682,0 38,17.01318 38,38c0,20.98682 -17.01318,38 -38,38c-20.98682,0 -38,-17.01318 -38,-38z" fill="url(#color-22)"/><path d="M209,39.50392c0,-10.49341 8.50659,-19 19,-19c10.49341,0 19,8.50659 19,19c0,10.49341 -8.50659,19 -19,19c-10.49341,0 -19,-8.50659 -19,-19z" fill="url(#color-23)"/><path d="M201,40.17058c0,-10.49341 8.50659,-19 19,-19c10.49341,0 19,8.50659 19,19c0,10.49341 -8.50659,19 -19,19c-10.49341,0 -19,-8.50659 -19,-19z" fill="url(#color-24)"/><path d="M198,40.00392c0,-7.27175 5.89491,-13.16666 13.16666,-13.16666c7.27175,0 13.16667,5.89492 13.16667,13.16666c0,7.27175 -5.89492,13.16667 -13.16667,13.16667c-7.27175,0 -13.16666,-5.89491 -13.16666,-13.16667z" fill="url(#color-25)"/><path d="M230.41666,40.00392c0,-8.51439 6.90228,-15.41666 15.41667,-15.41666c8.51439,0 15.41667,6.90228 15.41667,15.41666c0,8.51439 -6.90228,15.41667 -15.41667,15.41667c-8.51439,0 -15.41667,-6.90228 -15.41667,-15.41667z" fill="url(#color-26)"/><path d="M230.66666,40.00392c0,-7.27175 5.89492,-13.16666 13.16667,-13.16666c7.27175,0 13.16667,5.89492 13.16667,13.16666c0,7.27175 -5.89492,13.16667 -13.16667,13.16667c-7.27175,0 -13.16667,-5.89491 -13.16667,-13.16667z" fill="url(#color-27)"/><path d="M244.66666,40.33725c0,-5.24671 4.2533,-9.5 9.5,-9.5c5.24671,0 9.5,4.25329 9.5,9.5c0,5.24671 -4.25329,9.5 -9.5,9.5c-5.2467,0 -9.5,-4.25329 -9.5,-9.5z" fill="url(#color-28)"/><path d="M215.66666,39.50392c0,-10.49341 8.50659,-19 19,-19c10.49341,0 19,8.50659 19,19c0,10.49341 -8.50659,19 -19,19c-10.49341,0 -19,-8.50659 -19,-19z" fill="url(#color-29)"/><path d="M192.16666,39.50392c0,-8.28427 6.71573,-15 15,-15c8.28427,0 15,6.71573 15,15c0,8.28427 -6.71573,15 -15,15c-8.28427,0 -15,-6.71573 -15,-15z" fill="url(#color-30)"/></g></g></g></g></svg>