<svg version="1.1" xmlns="http://www.w3.org/2000/svg" xmlns:xlink="http://www.w3.org/1999/xlink" width="41.63749" height="41.51594" viewBox="0,0,41.63749,41.51594"><defs><radialGradient cx="250.33961" cy="180.09268" r="3.98095" gradientUnits="userSpaceOnUse" id="color-1"><stop offset="0" stop-color="#ffffff"/><stop offset="1" stop-color="#ffffff" stop-opacity="0"/></radialGradient><linearGradient x1="241.48777" y1="182.19585" x2="256.59082" y2="175.14776" gradientUnits="userSpaceOnUse" id="color-2"><stop offset="0" stop-color="#ffffff"/><stop offset="1" stop-color="#ffffff" stop-opacity="0"/></linearGradient><radialGradient cx="251.27294" cy="177.82601" r="1.38095" gradientUnits="userSpaceOnUse" id="color-3"><stop offset="0" stop-color="#ffffff"/><stop offset="1" stop-color="#ffffff" stop-opacity="0"/></radialGradient><linearGradient x1="241.59889" y1="177.87414" x2="256.70192" y2="184.92223" gradientUnits="userSpaceOnUse" id="color-4"><stop offset="0" stop-color="#ffffff"/><stop offset="1" stop-color="#ffffff" stop-opacity="0"/></linearGradient><radialGradient cx="251.55865" cy="182.34981" r="1.38095" gradientUnits="userSpaceOnUse" id="color-5"><stop offset="0" stop-color="#ffffff"/><stop offset="1" stop-color="#ffffff" stop-opacity="0"/></radialGradient><linearGradient x1="242.52086" y1="183.86112" x2="242.52086" y2="190.40279" gradientUnits="userSpaceOnUse" id="color-6"><stop offset="0" stop-color="#474849"/><stop offset="1" stop-color="#474849" stop-opacity="0"/></linearGradient><linearGradient x1="242.52086" y1="183.86112" x2="242.52086" y2="190.40279" gradientUnits="userSpaceOnUse" id="color-7"><stop offset="0" stop-color="#474849"/><stop offset="1" stop-color="#474849" stop-opacity="0"/></linearGradient><linearGradient x1="229.08118" y1="180.0449" x2="232.43131" y2="180.0449" gradientUnits="userSpaceOnUse" id="color-8"><stop offset="0" stop-color="#666768" stop-opacity="0"/><stop offset="1" stop-color="#666768"/></linearGradient><linearGradient x1="220.24504" y1="179.82644" x2="224.9951" y2="179.82644" gradientUnits="userSpaceOnUse" id="color-9"><stop offset="0" stop-color="#636363"/><stop offset="1" stop-color="#636363" stop-opacity="0"/></linearGradient><linearGradient x1="239.96433" y1="186.43156" x2="239.96433" y2="187.40656" gradientUnits="userSpaceOnUse" id="color-10"><stop offset="0" stop-color="#87898a"/><stop offset="1" stop-color="#696a6b"/></linearGradient><linearGradient x1="239.96433" y1="187.29823" x2="239.96433" y2="188.27323" gradientUnits="userSpaceOnUse" id="color-11"><stop offset="0" stop-color="#87898a"/><stop offset="1" stop-color="#696a6b"/></linearGradient><linearGradient x1="239.96433" y1="188.16489" x2="239.96433" y2="189.13989" gradientUnits="userSpaceOnUse" id="color-12"><stop offset="0" stop-color="#87898a"/><stop offset="1" stop-color="#696a6b"/></linearGradient><linearGradient x1="237.10718" y1="187.80954" x2="240.53576" y2="187.80954" gradientUnits="userSpaceOnUse" id="color-13"><stop offset="0" stop-color="#000000"/><stop offset="1" stop-color="#000000" stop-opacity="0"/></linearGradient><linearGradient x1="239.96433" y1="171.2887" x2="239.96433" y2="172.2637" gradientUnits="userSpaceOnUse" id="color-14"><stop offset="0" stop-color="#87898a"/><stop offset="1" stop-color="#696a6b"/></linearGradient><linearGradient x1="239.96433" y1="172.15537" x2="239.96433" y2="173.13037" gradientUnits="userSpaceOnUse" id="color-15"><stop offset="0" stop-color="#87898a"/><stop offset="1" stop-color="#696a6b"/></linearGradient><linearGradient x1="239.96433" y1="173.02204" x2="239.96433" y2="173.99704" gradientUnits="userSpaceOnUse" id="color-16"><stop offset="0" stop-color="#87898a"/><stop offset="1" stop-color="#696a6b"/></linearGradient><linearGradient x1="237.10718" y1="172.66668" x2="240.53576" y2="172.66668" gradientUnits="userSpaceOnUse" id="color-17"><stop offset="0" stop-color="#000000"/><stop offset="1" stop-color="#000000" stop-opacity="0"/></linearGradient><radialGradient cx="243.83337" cy="178.94445" r="1.45833" gradientUnits="userSpaceOnUse" id="color-18"><stop offset="0" stop-color="#87e2ff"/><stop offset="1" stop-color="#00c1ff"/></radialGradient><radialGradient cx="243.83337" cy="181.11112" r="1.45833" gradientUnits="userSpaceOnUse" id="color-19"><stop offset="0" stop-color="#87e2ff"/><stop offset="1" stop-color="#00c1ff"/></radialGradient><linearGradient x1="242.12504" y1="180.02779" x2="246.45836" y2="180.02779" gradientUnits="userSpaceOnUse" id="color-20"><stop offset="0" stop-color="#858586"/><stop offset="1" stop-color="#6e7071"/></linearGradient><radialGradient cx="244.29171" cy="180.02779" r="2.16667" gradientUnits="userSpaceOnUse" id="color-21"><stop offset="0" stop-color="#000000" stop-opacity="0"/><stop offset="1" stop-color="#000000" stop-opacity="0"/></radialGradient></defs><g transform="translate(-216.62731,-159.36316)"><g data-paper-data="{&quot;isPaintingLayer&quot;:true}" fill-rule="nonzero" stroke-linejoin="miter" stroke-miterlimit="10" stroke-dasharray="" stroke-dashoffset="0" style="mix-blend-mode: normal"><g><g><path d="M246.35865,180.09268c0,-2.19862 1.78234,-3.98096 3.98096,-3.98096c2.19862,0 3.98095,1.78234 3.98095,3.98096c0,2.19862 -1.78232,3.98095 -3.98095,3.98095c-2.19862,0 -3.98096,-1.78232 -3.98096,-3.98095z" fill="url(#color-1)" stroke="none" stroke-width="0" stroke-linecap="butt"/><path d="M256.47239,172.97334l1.68131,3.12663l-6.81035,2.38557l-0.68131,-1.45997z" data-paper-data="{&quot;index&quot;:null}" fill="url(#color-2)" stroke="#ffffff" stroke-width="0" stroke-linecap="butt"/><path d="M249.89199,177.82601c0,-0.76268 0.61828,-1.38096 1.38096,-1.38096c0.76268,0 1.38095,0.61828 1.38095,1.38096c0,0.76268 -0.61827,1.38095 -1.38095,1.38095c-0.76268,0 -1.38096,-0.61827 -1.38096,-1.38095z" fill="url(#color-3)" stroke="none" stroke-width="0" stroke-linecap="butt"/><path d="M250.57176,177.24204l1,0.6l0.25,0.4" data-paper-data="{&quot;index&quot;:null}" fill="none" stroke="#777777" stroke-width="0.5" stroke-linecap="round"/></g><path d="M250.77315,183.04442l0.68131,-1.45997l6.81035,2.38557l-1.68132,3.12663z" fill="url(#color-4)" stroke="#ffffff" stroke-width="0" stroke-linecap="butt"/><path d="M250.1777,182.34981c0,-0.76268 0.61827,-1.38095 1.38095,-1.38095c0.76268,0 1.38095,0.61827 1.38095,1.38095c0,0.76268 -0.61827,1.38095 -1.38095,1.38095c-0.76268,0 -1.38095,-0.61827 -1.38095,-1.38095z" fill="url(#color-5)" stroke="none" stroke-width="0" stroke-linecap="butt"/><path d="M252.02176,182.12204l-0.25,0.4l-1,0.6" fill="none" stroke="#777777" stroke-width="0.5" stroke-linecap="round"/></g><g fill="#6c6d6e" stroke="#8f8f8f" stroke-width="0" stroke-linecap="round"><path d="M239.98556,177.37425l1.39712,-14.1753l1.99862,0.44139l1.61745,14.71673z" data-paper-data="{&quot;index&quot;:null}"/><path d="M245.02909,179.75316l-1.36144,16.7894l-1.99167,0.49026l-1.76691,-16.49547z"/></g><path d="M240.93754,190.40279l-0.58333,-6.54167h4.33333l-0.5,6.54167z" fill="url(#color-6)" stroke="none" stroke-width="0" stroke-linecap="butt"/><path d="M240.93754,190.40279l-0.58333,-6.54167h4.33333l-0.5,6.54167z" fill="url(#color-7)" stroke="none" stroke-width="0" stroke-linecap="butt"/><path d="M223.32467,179.2493l-0.62014,-4.91953l0.73708,-0.14553l1.11075,1.52618l1.08111,3.71696z" data-paper-data="{&quot;index&quot;:null}" fill="#737475" stroke="#8f8f8f" stroke-width="0" stroke-linecap="round"/><path d="M225.63348,180.18424l-1.08111,3.71696l-1.11075,1.52618l-0.73708,-0.14553l0.62014,-4.91953z" data-paper-data="{&quot;index&quot;:null}" fill="#737475" stroke="#8f8f8f" stroke-width="0" stroke-linecap="round"/><path d="M223.7625,184.84356l-0.68059,0.04391" fill="none" stroke="#e88b00" stroke-width="1" stroke-linecap="round"/><path d="M223.7625,174.79656l-0.68059,-0.0439" data-paper-data="{&quot;index&quot;:null}" fill="none" stroke="#e88b00" stroke-width="1" stroke-linecap="round"/><path d="M222.21786,179.04194l9.99828,-1.17089l3.73017,-2.60462l4.31849,-0.64278l5.48673,0.42072l4.88271,2.67l1.01391,2.60619l-0.85805,2.32052l-4.85619,2.71933l-5.90947,0.41369l-4.39857,-1.14926l-3.54904,-2.59208l-9.85951,-1.47803" fill="#696a6b" stroke="#696a6b" stroke-width="0.5" stroke-linecap="round"/><path d="M245.76543,174.95673l5.38116,3.08046l1.14917,0.3511l-0.06356,0.58886l-1.469,-0.23603l-5.55803,-2.80644l-3.03177,-0.25094l-1.0397,-0.95959z" fill="#535454" stroke="#535454" stroke-width="0.5" stroke-linecap="round"/><path d="M241.13369,185.75292l1.0397,-0.95959l3.03177,-0.25094l5.55803,-2.80644l1.469,-0.23603l0.06356,0.58887l-1.14917,0.3511l-5.38116,3.08046z" data-paper-data="{&quot;index&quot;:null}" fill="#535454" stroke="#535454" stroke-width="0.5" stroke-linecap="round"/><path d="M229.08118,181.8307v-3.83587l3.35013,-0.40002v4.90019z" fill="url(#color-8)" stroke="none" stroke-width="0" stroke-linecap="butt"/><path d="M233.83045,178.94343c0,0.30001 -0.30001,0.30001 -0.30001,0.30001c-0.45335,0 -1.06671,0 -1.52006,0c-1.44452,0 -2.93343,0.07886 -4.36352,0.23776c-0.62086,0.06899 -1.37011,0.00766 -1.8246,0.4744c0,0 -0.21214,0.21214 -0.42428,0c-0.21214,-0.21214 0,-0.42428 0,-0.42428c0.5962,-0.5844 1.38755,-0.55809 2.17556,-0.64565c1.4532,-0.16147 2.96963,-0.24226 4.43683,-0.24226c0.45335,0 0.9067,0 1.36005,0h0.16001c0,0 0.30001,0 0.30001,0.30001z" fill="#656667" stroke="none" stroke-width="0.5" stroke-linecap="butt"/><path d="M222.32797,180.58241l-5.30558,-0.21143l0.16668,-0.74483l2.09538,-0.59283l4.39718,-0.44538z" data-paper-data="{&quot;index&quot;:null}" fill="#696a6b" stroke="#8f8f8f" stroke-width="0" stroke-linecap="round"/><path d="M223.64504,180.722v-1.8135l4.75006,-0.67911v3.27746z" fill="url(#color-9)" stroke="none" stroke-width="0" stroke-linecap="butt"/><path d="M242.11091,184.46365c0,0.30001 -0.30001,0.30001 -0.30001,0.30001h-0.08c-2.0124,0 -3.73201,0.15513 -5.73906,-0.24583c0,0 -0.29419,-0.05884 -0.23535,-0.35302c0.05884,-0.29418 0.35302,-0.23535 0.35302,-0.23535c1.97233,0.39489 3.64174,0.23418 5.62139,0.23418h0.08c0,0 0.30001,0 0.30001,0.30001z" fill="#656667" stroke="none" stroke-width="0.5" stroke-linecap="butt"/><path d="M242.10195,176.29608c-0.07276,0.29106 -0.36382,0.21829 -0.36382,0.21829l-0.31307,-0.07836c-0.80881,-0.16488 -1.54775,-0.2084 -2.30844,-0.58439c0,0 -0.26834,-0.13417 -0.13417,-0.40251c0.13417,-0.26834 0.40251,-0.13417 0.40251,-0.13417c0.71248,0.36116 1.40891,0.38554 2.17174,0.53566l0.32696,0.08166c0,0 0.29105,0.07276 0.21829,0.36381z" fill="#656667" stroke="none" stroke-width="0.5" stroke-linecap="butt"/><path d="M248.44153,181.58994c-0.16641,-0.24963 0.08321,-0.41604 0.08321,-0.41604l0.40642,-0.2104c0.21872,0.0045 0.42815,-0.09128 0.63919,-0.14891c0.2094,-0.05719 1.19912,-0.07126 1.22184,-0.45507c0.01879,-0.31747 -0.48797,-0.42542 -0.64796,-0.51453c-0.7845,-0.43695 -1.55576,-1.00368 -2.27311,-1.54159c0,0 -0.24001,-0.18001 -0.06,-0.42002c0.18001,-0.24001 0.42002,-0.06 0.42002,-0.06c0.77239,0.5794 2.48113,1.19092 2.95057,1.99493c0.76884,1.31681 -1.35487,1.73234 -2.25054,1.74522l-0.07359,0.10962c0,0 -0.24963,0.16642 -0.41604,-0.08321z" fill="#656667" stroke="none" stroke-width="0.5" stroke-linecap="butt"/><path d="M222.16998,180.62349v-2.00008h1.44006v2.00008z" fill="#696a6b" stroke="none" stroke-width="0" stroke-linecap="butt"/><path d="M217.49096,179.39395l-0.36364,0.63637" fill="none" stroke="#e88b00" stroke-width="1" stroke-linecap="round"/><g fill="#8a8b8c" stroke="none" stroke-width="0" stroke-linecap="butt"><path d="M241.28012,171.06979l0.37665,-2.77173l0.90081,0.12241l0.17769,2.84705z"/><path d="M240.93172,173.63364l0.20716,-1.52445l1.59374,0.21657l0.07002,1.56212z"/></g><g data-paper-data="{&quot;index&quot;:null}" fill="#8a8b8c" stroke="none" stroke-width="0" stroke-linecap="butt"><path d="M242.52649,189.22611l-0.17769,2.84706l-0.90081,0.12241l-0.37665,-2.77173z"/><path d="M242.59383,186.60576l-0.07001,1.56211l-1.59375,0.21658l-0.20716,-1.52445z"/></g><g><g><path d="M241.25004,186.91906h-2.57143" fill="none" stroke="url(#color-10)" stroke-width="1" stroke-linecap="round"/><path d="M241.25004,187.78573h-2.57143" fill="none" stroke="url(#color-11)" stroke-width="1" stroke-linecap="round"/><path d="M241.25004,188.65239h-2.57143" fill="none" stroke="url(#color-12)" stroke-width="1" stroke-linecap="round"/><path d="M238.80199,188.85283v-0.36364h1.5v0.36364z" fill="#e88b00" stroke="none" stroke-width="0" stroke-linecap="butt"/><path d="M238.80199,187.03464v-0.36363h1.5v0.36363z" fill="#e88b00" stroke="none" stroke-width="0" stroke-linecap="butt"/><path d="M241.6626,186.89222c0,0.18577 -0.08858,0.33636 -0.19786,0.33636c-0.10927,0 -0.19787,-0.15059 -0.19787,-0.33636c0,-0.18577 0.08859,-0.33637 0.19787,-0.33637c0.10927,0 0.19786,0.1506 0.19786,0.33637z" fill="#272727" stroke="none" stroke-width="0" stroke-linecap="butt"/><path d="M241.6626,187.75889c0,0.18577 -0.08858,0.33637 -0.19786,0.33637c-0.10927,0 -0.19787,-0.1506 -0.19787,-0.33637c0,-0.18577 0.08859,-0.33637 0.19787,-0.33637c0.10927,0 0.19786,0.1506 0.19786,0.33637z" fill="#272727" stroke="none" stroke-width="0" stroke-linecap="butt"/><path d="M241.6626,188.65889c0,0.18577 -0.08858,0.33637 -0.19786,0.33637c-0.10927,0 -0.19787,-0.1506 -0.19787,-0.33637c0,-0.18577 0.08859,-0.33637 0.19787,-0.33637c0.10927,0 0.19786,0.1506 0.19786,0.33637z" fill="#272727" stroke="none" stroke-width="0" stroke-linecap="butt"/></g><path d="M237.10718,189.16668v-2.71428h3.42857v2.71428z" fill="url(#color-13)" stroke="none" stroke-width="NaN" stroke-linecap="butt"/></g><g><g><path d="M241.25004,171.7762h-2.57143" fill="none" stroke="url(#color-14)" stroke-width="1" stroke-linecap="round"/><path d="M238.67861,172.64287h2.57143" fill="none" stroke="url(#color-15)" stroke-width="1" stroke-linecap="round"/><path d="M241.25004,173.50954h-2.57143" fill="none" stroke="url(#color-16)" stroke-width="1" stroke-linecap="round"/><path d="M238.80199,173.70997v-0.36364h1.5v0.36364z" fill="#e88b00" stroke="none" stroke-width="0" stroke-linecap="butt"/><path d="M238.80199,171.89179v-0.36363h1.5v0.36363z" fill="#e88b00" stroke="none" stroke-width="0" stroke-linecap="butt"/><path d="M241.6626,171.74936c0,0.18577 -0.08858,0.33637 -0.19786,0.33637c-0.10927,0 -0.19787,-0.1506 -0.19787,-0.33637c0,-0.18577 0.08859,-0.33637 0.19787,-0.33637c0.10927,0 0.19786,0.1506 0.19786,0.33637z" fill="#272727" stroke="none" stroke-width="0" stroke-linecap="butt"/><path d="M241.6626,172.61603c0,0.18577 -0.08858,0.33637 -0.19786,0.33637c-0.10927,0 -0.19787,-0.1506 -0.19787,-0.33637c0,-0.18577 0.08859,-0.33636 0.19787,-0.33636c0.10927,0 0.19786,0.15059 0.19786,0.33636z" fill="#272727" stroke="none" stroke-width="0" stroke-linecap="butt"/><path d="M241.6626,173.51603c0,0.18577 -0.08858,0.33637 -0.19786,0.33637c-0.10927,0 -0.19787,-0.1506 -0.19787,-0.33637c0,-0.18577 0.08859,-0.33636 0.19787,-0.33636c0.10927,0 0.19786,0.15059 0.19786,0.33636z" fill="#272727" stroke="none" stroke-width="0" stroke-linecap="butt"/></g><path d="M237.10718,174.02382v-2.71428h3.42857v2.71428z" fill="url(#color-17)" stroke="none" stroke-width="NaN" stroke-linecap="butt"/></g><g stroke-width="0"><g fill="#6c6d6e" stroke="#8f8f8f" stroke-linecap="round"><path d="M235.56612,177.27727l-0.09069,-17.91411l2.02702,0.12766l3.13514,17.95209z" data-paper-data="{&quot;index&quot;:null}"/><path d="M240.70133,180.07199l-3.04154,20.60338l-2.02468,0.20373l-0.0907,-20.87556z"/></g><g fill="#8a8b8c" stroke="none" stroke-linecap="butt"><path d="M235.53849,168.60801v-3.9618h1l0.61539,3.9618z"/><path d="M235.53849,172.27267v-2.179h1.76923l0.30769,2.179z"/></g><g data-paper-data="{&quot;index&quot;:null}" fill="#8a8b8c" stroke="none" stroke-linecap="butt"><path d="M237.15389,191.78457l-0.61539,3.9618h-1v-3.9618z"/><path d="M237.61542,188.11991l-0.30769,2.17899h-1.76923v-2.17899z"/></g></g><path d="M235.53576,180.23811v-2.5h5.07143v2.5z" fill="#6c6d6e" stroke="none" stroke-width="0" stroke-linecap="butt"/><path d="M230.81822,177.66668l2.09091,-1.63636l2.45454,-0.54546v2.18182z" fill="#e88b00" stroke="#e88b00" stroke-width="0.5" stroke-linecap="round"/><path d="M235.36368,182.32325v2.18182l-2.45454,-0.54546l-2.09091,-1.63636z" data-paper-data="{&quot;index&quot;:null}" fill="#e88b00" stroke="#e88b00" stroke-width="0.5" stroke-linecap="round"/><path d="M232.8462,182.56411v-1.38461h4.53846v1.38461z" fill="#6e7071" stroke="none" stroke-width="0" stroke-linecap="butt"/><path d="M232.8462,181.87181v-1.38461h4.53846v1.38461z" fill="#7b7d7e" stroke="none" stroke-width="0" stroke-linecap="butt"/><g stroke="none" stroke-width="0" stroke-linecap="butt"><path d="M232.8462,179.41027v-1.38461h4.53846v1.38461z" fill="#6e7071"/><path d="M232.8462,178.79488v-1.38461h4.53846v1.38461z" fill="#7b7d7e"/></g><g stroke="none" stroke-width="0" stroke-linecap="butt"><path d="M237.3462,182.4817v-1.38461h4.53846v1.38461z" fill="#6e7071"/><path d="M237.3462,181.86631v-4.45604h4.53846v4.45604z" fill="#7b7d7e"/></g><path d="M236.49606,178.52382c0,0 1.11509,-0.0021 1.11112,1.11112c-0.00417,1.16879 -1.1389,1.1389 -1.1389,1.1389" fill="none" stroke="#7b7d7e" stroke-width="0.5" stroke-linecap="round"/><path d="M251.36367,179.75759h-3.36363" fill="none" stroke="#575959" stroke-width="0.5" stroke-linecap="round"/><path d="M251.36367,180.66668h-3.36363" fill="none" stroke="#575959" stroke-width="0.5" stroke-linecap="round"/><path d="M247.80004,179.0889v-0.86667h0.66666l1.2,0.53333v0.33334z" fill="#8a8b8c" stroke="none" stroke-width="0" stroke-linecap="butt"/><path d="M249.66671,181.2889v0.33333l-1.2,0.53333h-0.66666v-0.86666z" data-paper-data="{&quot;index&quot;:null}" fill="#8a8b8c" stroke="none" stroke-width="0" stroke-linecap="butt"/><g><path d="M245.2917,178.94445h-2.91666" fill="none" stroke="url(#color-18)" stroke-width="0.5" stroke-linecap="round"/><path d="M242.37504,181.11112h2.91666" fill="none" stroke="url(#color-19)" stroke-width="0.5" stroke-linecap="round"/><path d="M242.12504,180.94445v-1.83333h4.33333v1.83333z" fill="url(#color-20)" stroke="url(#color-21)" stroke-width="0" stroke-linecap="butt"/><path d="M243.79171,178.11112h1.66667l0.58333,0.58333" fill="none" stroke="#e88b00" stroke-width="0.35" stroke-linecap="round"/><path d="M246.04171,181.36112l-0.58333,0.58333h-1.66667" data-paper-data="{&quot;index&quot;:null}" fill="none" stroke="#e88b00" stroke-width="0.35" stroke-linecap="round"/></g></g></g></svg>