<svg version="1.1" xmlns="http://www.w3.org/2000/svg" xmlns:xlink="http://www.w3.org/1999/xlink" width="130" height="43.66667" viewBox="0,0,130,43.66667"><g transform="translate(-175,-158.16667)"><g data-paper-data="{&quot;isPaintingLayer&quot;:true}" fill-rule="nonzero" stroke-linejoin="miter" stroke-miterlimit="10" stroke-dasharray="" stroke-dashoffset="0" style="mix-blend-mode: normal"><path d="M197.52385,196.58735v-33.1747c0,0 -0.50405,0 1.41395,0c13.9891,0 74.06966,0 82.1242,0c1.85321,0 1.43978,0 1.43978,0v33.1747c0,0 0.09634,0 -1.75687,0c-7.9354,0 -66.49482,0 -81.49002,0c-2.31194,0 -1.73104,0 -1.73104,0z" fill="#004148" stroke="#00e5ff" stroke-width="4" stroke-linecap="butt"/><path d="M175,201.83334v-43.66667h130v43.66667z" fill="none" stroke="none" stroke-width="0" stroke-linecap="butt"/><path d="M221.57286,188.32809v-13.4375h2.23438v5.65625h6.375v-5.65625h2.23438v13.4375h-2.23437v-5.67187h-6.375v5.67188zM237.84584,188.60934c-0.72917,0 -1.34896,-0.13542 -1.85937,-0.40625c-0.5,-0.28125 -0.88021,-0.65104 -1.14062,-1.10937c-0.25,-0.46875 -0.375,-0.97917 -0.375,-1.53125c0,-0.47917 0.07813,-0.91146 0.23438,-1.29687c0.16667,-0.39583 0.41667,-0.73437 0.75,-1.01562c0.33333,-0.28125 0.77083,-0.51562 1.3125,-0.70312c0.39583,-0.125 0.86458,-0.23958 1.40625,-0.34375c0.55208,-0.10417 1.14583,-0.20312 1.78125,-0.29687c0.63542,-0.09375 1.30208,-0.19271 2,-0.29687l-0.79687,0.45313c0,-0.6875 -0.15625,-1.19792 -0.46875,-1.53125c-0.3125,-0.33333 -0.84896,-0.5 -1.60937,-0.5c-0.44792,0 -0.88542,0.10938 -1.3125,0.32813c-0.41667,0.20833 -0.71354,0.56771 -0.89062,1.07813l-2.04687,-0.64062c0.25,-0.85417 0.72396,-1.53646 1.42188,-2.04687c0.69792,-0.52083 1.64063,-0.78125 2.82813,-0.78125c0.89583,0 1.68229,0.14583 2.35938,0.4375c0.6875,0.29167 1.19792,0.77083 1.53125,1.4375c0.17708,0.35417 0.28125,0.71875 0.3125,1.09375c0.04167,0.36458 0.0625,0.76563 0.0625,1.20313v6.1875h-1.96875v-2.1875l0.32813,0.35938c-0.45833,0.72917 -0.98958,1.26563 -1.59375,1.60938c-0.60417,0.33333 -1.35937,0.5 -2.26562,0.5zM238.29897,186.81247c0.5,0 0.93229,-0.08854 1.29688,-0.26562c0.36458,-0.17708 0.65104,-0.39583 0.85938,-0.65625c0.21875,-0.26042 0.36458,-0.51042 0.4375,-0.75c0.11458,-0.28125 0.17708,-0.60417 0.1875,-0.96875c0.02083,-0.375 0.03125,-0.67708 0.03125,-0.90625l0.70313,0.20313c-0.67708,0.10417 -1.26042,0.19792 -1.75,0.28125c-0.48958,0.08333 -0.90625,0.16146 -1.25,0.23438c-0.34375,0.0625 -0.65104,0.14063 -0.92187,0.23438c-0.26042,0.09375 -0.48437,0.20313 -0.67187,0.32813c-0.17708,0.125 -0.3125,0.27083 -0.40625,0.4375c-0.09375,0.15625 -0.14062,0.33854 -0.14062,0.54688c0,0.25 0.0625,0.47396 0.1875,0.67188c0.125,0.1875 0.30729,0.33854 0.54688,0.45313c0.23958,0.10417 0.53646,0.15625 0.89063,0.15625zM245.77934,188.32809v-10.07812h1.98438v2.45313l-0.25,-0.3125c0.125,-0.33333 0.29167,-0.63542 0.5,-0.90625c0.20833,-0.28125 0.45833,-0.51562 0.75,-0.70312c0.25,-0.16667 0.52604,-0.29687 0.82813,-0.39062c0.30208,-0.09375 0.60938,-0.15104 0.92188,-0.17187c0.32292,-0.03125 0.63542,-0.02083 0.9375,0.03125v2.10938c-0.30208,-0.09375 -0.65104,-0.125 -1.04687,-0.09375c-0.38542,0.03125 -0.73437,0.14063 -1.04687,0.32813c-0.30208,0.16667 -0.55208,0.38021 -0.75,0.64063c-0.19792,0.26042 -0.34375,0.55729 -0.4375,0.89063c-0.09375,0.33333 -0.14062,0.69271 -0.14062,1.07813v5.125zM257.06776,188.60934c-0.92708,0 -1.73437,-0.23437 -2.42187,-0.70312c-0.6875,-0.46875 -1.22396,-1.10417 -1.60937,-1.90625c-0.375,-0.80208 -0.5625,-1.70312 -0.5625,-2.70312c0,-1.02083 0.1875,-1.93229 0.5625,-2.73437c0.38542,-0.80208 0.92708,-1.43229 1.625,-1.89062c0.70833,-0.46875 1.53646,-0.70312 2.48438,-0.70312c0.95833,0 1.76042,0.23438 2.40625,0.70313c0.65625,0.45833 1.15104,1.08854 1.48438,1.89063c0.34375,0.80208 0.51563,1.71354 0.51563,2.73438c0,1 -0.17187,1.90104 -0.51562,2.70313c-0.33333,0.80208 -0.83333,1.4375 -1.5,1.90625c-0.66667,0.46875 -1.48958,0.70313 -2.46875,0.70313zM257.41151,186.59372c0.60417,0 1.08854,-0.13542 1.45313,-0.40625c0.375,-0.28125 0.64583,-0.67187 0.8125,-1.17187c0.17708,-0.5 0.26563,-1.07292 0.26563,-1.71875c0,-0.66667 -0.08854,-1.24479 -0.26562,-1.73437c-0.16667,-0.5 -0.43229,-0.88542 -0.79687,-1.15625c-0.35417,-0.28125 -0.81771,-0.42187 -1.39062,-0.42187c-0.60417,0 -1.10417,0.15104 -1.5,0.45313c-0.38542,0.29167 -0.67187,0.6875 -0.85937,1.1875c-0.1875,0.5 -0.28125,1.05729 -0.28125,1.67188c0,0.61458 0.08854,1.17188 0.26563,1.67188c0.1875,0.5 0.46875,0.89583 0.84375,1.1875c0.38542,0.29167 0.86979,0.4375 1.45313,0.4375zM259.94276,188.32809v-7.07812h-0.28125v-6.35937h2.26563v13.4375z" fill="#002e33" stroke="#002e33" stroke-width="0.25" stroke-linecap="square"/><path d="M219.82286,186.57809v-13.4375h2.23438v5.65625h6.375v-5.65625h2.23438v13.4375h-2.23437v-5.67187h-6.375v5.67188zM236.09584,186.85934c-0.72917,0 -1.34896,-0.13542 -1.85937,-0.40625c-0.5,-0.28125 -0.88021,-0.65104 -1.14062,-1.10937c-0.25,-0.46875 -0.375,-0.97917 -0.375,-1.53125c0,-0.47917 0.07813,-0.91146 0.23438,-1.29687c0.16667,-0.39583 0.41667,-0.73437 0.75,-1.01562c0.33333,-0.28125 0.77083,-0.51562 1.3125,-0.70312c0.39583,-0.125 0.86458,-0.23958 1.40625,-0.34375c0.55208,-0.10417 1.14583,-0.20312 1.78125,-0.29687c0.63542,-0.09375 1.30208,-0.19271 2,-0.29687l-0.79687,0.45313c0,-0.6875 -0.15625,-1.19792 -0.46875,-1.53125c-0.3125,-0.33333 -0.84896,-0.5 -1.60937,-0.5c-0.44792,0 -0.88542,0.10938 -1.3125,0.32813c-0.41667,0.20833 -0.71354,0.56771 -0.89062,1.07813l-2.04687,-0.64062c0.25,-0.85417 0.72396,-1.53646 1.42188,-2.04687c0.69792,-0.52083 1.64063,-0.78125 2.82813,-0.78125c0.89583,0 1.68229,0.14583 2.35938,0.4375c0.6875,0.29167 1.19792,0.77083 1.53125,1.4375c0.17708,0.35417 0.28125,0.71875 0.3125,1.09375c0.04167,0.36458 0.0625,0.76563 0.0625,1.20313v6.1875h-1.96875v-2.1875l0.32813,0.35938c-0.45833,0.72917 -0.98958,1.26563 -1.59375,1.60938c-0.60417,0.33333 -1.35937,0.5 -2.26562,0.5zM236.54897,185.06247c0.5,0 0.93229,-0.08854 1.29688,-0.26562c0.36458,-0.17708 0.65104,-0.39583 0.85938,-0.65625c0.21875,-0.26042 0.36458,-0.51042 0.4375,-0.75c0.11458,-0.28125 0.17708,-0.60417 0.1875,-0.96875c0.02083,-0.375 0.03125,-0.67708 0.03125,-0.90625l0.70313,0.20313c-0.67708,0.10417 -1.26042,0.19792 -1.75,0.28125c-0.48958,0.08333 -0.90625,0.16146 -1.25,0.23438c-0.34375,0.0625 -0.65104,0.14063 -0.92187,0.23438c-0.26042,0.09375 -0.48437,0.20313 -0.67187,0.32813c-0.17708,0.125 -0.3125,0.27083 -0.40625,0.4375c-0.09375,0.15625 -0.14062,0.33854 -0.14062,0.54688c0,0.25 0.0625,0.47396 0.1875,0.67188c0.125,0.1875 0.30729,0.33854 0.54688,0.45313c0.23958,0.10417 0.53646,0.15625 0.89063,0.15625zM244.02934,186.57809v-10.07812h1.98438v2.45313l-0.25,-0.3125c0.125,-0.33333 0.29167,-0.63542 0.5,-0.90625c0.20833,-0.28125 0.45833,-0.51562 0.75,-0.70312c0.25,-0.16667 0.52604,-0.29687 0.82813,-0.39062c0.30208,-0.09375 0.60938,-0.15104 0.92188,-0.17187c0.32292,-0.03125 0.63542,-0.02083 0.9375,0.03125v2.10938c-0.30208,-0.09375 -0.65104,-0.125 -1.04687,-0.09375c-0.38542,0.03125 -0.73437,0.14063 -1.04687,0.32813c-0.30208,0.16667 -0.55208,0.38021 -0.75,0.64063c-0.19792,0.26042 -0.34375,0.55729 -0.4375,0.89063c-0.09375,0.33333 -0.14062,0.69271 -0.14062,1.07813v5.125zM255.31776,186.85934c-0.92708,0 -1.73437,-0.23437 -2.42187,-0.70312c-0.6875,-0.46875 -1.22396,-1.10417 -1.60937,-1.90625c-0.375,-0.80208 -0.5625,-1.70312 -0.5625,-2.70312c0,-1.02083 0.1875,-1.93229 0.5625,-2.73437c0.38542,-0.80208 0.92708,-1.43229 1.625,-1.89062c0.70833,-0.46875 1.53646,-0.70312 2.48438,-0.70312c0.95833,0 1.76042,0.23438 2.40625,0.70313c0.65625,0.45833 1.15104,1.08854 1.48438,1.89063c0.34375,0.80208 0.51563,1.71354 0.51563,2.73438c0,1 -0.17187,1.90104 -0.51562,2.70313c-0.33333,0.80208 -0.83333,1.4375 -1.5,1.90625c-0.66667,0.46875 -1.48958,0.70313 -2.46875,0.70313zM255.66151,184.84372c0.60417,0 1.08854,-0.13542 1.45313,-0.40625c0.375,-0.28125 0.64583,-0.67187 0.8125,-1.17187c0.17708,-0.5 0.26563,-1.07292 0.26563,-1.71875c0,-0.66667 -0.08854,-1.24479 -0.26562,-1.73437c-0.16667,-0.5 -0.43229,-0.88542 -0.79687,-1.15625c-0.35417,-0.28125 -0.81771,-0.42187 -1.39062,-0.42187c-0.60417,0 -1.10417,0.15104 -1.5,0.45313c-0.38542,0.29167 -0.67187,0.6875 -0.85937,1.1875c-0.1875,0.5 -0.28125,1.05729 -0.28125,1.67188c0,0.61458 0.08854,1.17188 0.26563,1.67188c0.1875,0.5 0.46875,0.89583 0.84375,1.1875c0.38542,0.29167 0.86979,0.4375 1.45313,0.4375zM258.19276,186.57809v-7.07812h-0.28125v-6.35937h2.26563v13.4375z" fill="#01ebfc" stroke="#01ebfc" stroke-width="0.25" stroke-linecap="square"/></g></g></svg>