<svg version="1.1" xmlns="http://www.w3.org/2000/svg" xmlns:xlink="http://www.w3.org/1999/xlink" width="483.48348" height="364.86486" viewBox="0,0,483.48348,364.86486"><g transform="translate(0.99099,3.43344)"><g data-paper-data="{&quot;isPaintingLayer&quot;:true}" fill-rule="nonzero" stroke-linejoin="miter" stroke-miterlimit="10" stroke-dasharray="" stroke-dashoffset="0" style="mix-blend-mode: normal"><path d="M-0.99099,361.43142v-364.86486h483.48348v364.86486z" fill="none" stroke="#000000" stroke-width="0" stroke-linecap="butt"/><g stroke-linecap="round"><g><path d="M227.61111,172.96913l11.77778,6.60365l-0.11111,14.39005l-11.66667,-6.9979z" fill="#e0bd76" stroke="#caaa6b" stroke-width="1.5"/><path d="M239.27778,193.17433l-10.77778,-19.12102" fill="none" stroke="#caaa6b" stroke-width="1.5"/><path d="M228.56667,175.88512l9.04444,15.85021" fill="none" stroke="#dab874" stroke-width="0.5"/><path d="M228.59136,176.67506l8.45871,14.82372" fill="none" stroke="#dab874" stroke-width="0.5"/><path d="M238.0759,180.30487l-8.72038,6.13471" fill="none" stroke="#dab874" stroke-width="0.5"/><path d="M227.82799,186.43485l10.37626,-7.37374" fill="none" stroke="#caaa6b" stroke-width="1.5"/><path d="M238.00332,180.57455l-8.28975,5.83175" fill="none" stroke="#dab874" stroke-width="0.5"/><path d="M233.53268,183.80128l0.70588,-0.5218" fill="none" stroke="#b59860" stroke-width="0.5"/><path d="M233.41504,183.54038l0.70589,-0.5218" fill="none" stroke="#b59860" stroke-width="0.5"/></g><g data-paper-data="{&quot;index&quot;:null}"><path d="M252.38889,186.96493l-11.66667,6.9979l-0.11111,-14.39005l11.77778,-6.60365z" fill="#dab874" stroke="#bea065" stroke-width="1.5"/><path d="M240.72222,193.17434l10.77778,-19.12102" fill="none" stroke="#bea065" stroke-width="1.5"/><path d="M251.43333,175.88512l-9.04444,15.85021" fill="none" stroke="#d1b06f" stroke-width="0.5"/><path d="M251.40864,176.67506l-8.45871,14.82372" fill="none" stroke="#d1b06f" stroke-width="0.5"/><path d="M241.92411,180.30487l8.72038,6.13471" fill="none" stroke="#d1b06f" stroke-width="0.5"/><path d="M252.17201,186.43485l-10.37626,-7.37374" fill="none" stroke="#bea065" stroke-width="1.5"/><path d="M250.28643,186.4063l-8.28975,-5.83175" fill="none" stroke="#d1b06f" stroke-width="0.5"/><path d="M246.46732,183.80128l-0.70588,-0.5218" fill="none" stroke="#a88e59" stroke-width="0.5"/><path d="M245.87908,183.01858l0.70589,0.5218" fill="none" stroke="#a88e59" stroke-width="0.5"/></g><g data-paper-data="{&quot;index&quot;:null}"><path d="M251.72365,171.85198l-11.68637,6.59999l-11.82541,-6.61201l10.90834,-5.8028z" fill="#e9c47b" stroke="#d2b170" stroke-width="1.5"/><path d="M229.10373,172.0642l21.30646,-0.39251" fill="none" stroke="#d2b170" stroke-width="1.5"/><path d="M231.0317,171.41661l16.85364,-0.4494" fill="none" stroke="#e0bd77" stroke-width="0.5"/><path d="M247.41462,170.76832l-15.90712,0.33446" fill="none" stroke="#e0bd77" stroke-width="0.5"/><path d="M238.9317,167.50045l2.21702,8.67161" fill="none" stroke="#e0bd77" stroke-width="0.5"/><path d="M239.51529,166.3988l2.70477,10.34689" fill="none" stroke="#d2b170" stroke-width="1.5"/><path d="M238.72586,167.32845l2.30753,9.48526" fill="none" stroke="#e0bd77" stroke-width="0.5"/><path d="M239.72325,171.53814l0.20217,0.71169" fill="none" stroke="#c5a668" stroke-width="0.5"/><path d="M240.00282,171.55403l0.20217,0.71169" fill="none" stroke="#c5a668" stroke-width="0.5"/></g></g></g></g></svg>