<svg version="1.1" xmlns="http://www.w3.org/2000/svg" xmlns:xlink="http://www.w3.org/1999/xlink" width="64.89196" height="65.08841" viewBox="0,0,64.89196,65.08841"><defs><linearGradient x1="103.14125" y1="166.42251" x2="165.84445" y2="166.42251" gradientUnits="userSpaceOnUse" id="color-1"><stop offset="0" stop-color="#0d9700"/><stop offset="1" stop-color="#0a7e00"/></linearGradient><linearGradient x1="140.79872" y1="91.13944" x2="140.79872" y2="99.01071" gradientUnits="userSpaceOnUse" id="color-2"><stop offset="0" stop-color="#096900"/><stop offset="1" stop-color="#096900" stop-opacity="0"/></linearGradient><linearGradient x1="140.41449" y1="93.10246" x2="140.41449" y2="97.2696" gradientUnits="userSpaceOnUse" id="color-3"><stop offset="0" stop-color="#797979"/><stop offset="1" stop-color="#616161"/></linearGradient><linearGradient x1="140.41449" y1="93.33395" x2="140.41449" y2="89.1668" gradientUnits="userSpaceOnUse" id="color-4"><stop offset="0" stop-color="#797979"/><stop offset="1" stop-color="#616161"/></linearGradient><linearGradient x1="135.89846" y1="231.03264" x2="157.82576" y2="231.03264" gradientUnits="userSpaceOnUse" id="color-5"><stop offset="0" stop-color="#0a7300"/><stop offset="1" stop-color="#096c00"/></linearGradient><linearGradient x1="135.89846" y1="226.40245" x2="157.82576" y2="226.40245" gradientUnits="userSpaceOnUse" id="color-6"><stop offset="0" stop-color="#0b8000"/><stop offset="1" stop-color="#0a7800"/></linearGradient><radialGradient cx="134.75" cy="125.33335" r="20.33333" gradientUnits="userSpaceOnUse" id="color-7"><stop offset="0" stop-color="#000000"/><stop offset="1" stop-color="#000000" stop-opacity="0"/></radialGradient></defs><g transform="translate(-100.9525,-83.24088)"><g data-paper-data="{&quot;isPaintingLayer&quot;:true}" fill-rule="nonzero" stroke-linejoin="miter" stroke-miterlimit="10" stroke-dasharray="" stroke-dashoffset="0" style="mix-blend-mode: normal"><path d="M103.28094,102.85728l12.95066,-11.07425l49.49169,-0.13335z" data-paper-data="{&quot;index&quot;:null}" fill="#096600" stroke="none" stroke-width="0" stroke-linecap="butt"/><path d="M100.9525,148.32928l2.44961,-51.95426l12.95065,-11.07425c0,0 14.38239,-2.03875 22.15507,-2.05969c8.63389,-0.02326 27.33663,1.92634 27.33663,1.92634v61.99924z" fill="url(#color-1)" stroke="none" stroke-width="0" stroke-linecap="butt"/><path d="M119.49997,99.01071v-7.87128h42.59753v7.87129z" fill="url(#color-2)" stroke="none" stroke-width="0" stroke-linecap="butt"/><g stroke="none" stroke-width="0" stroke-linecap="butt"><path d="M118.99997,97.2696v-4.16715h42.82904v4.16715z" fill="url(#color-3)"/><path d="M161.82898,89.1668v4.16715h-42.82904v-4.16715z" data-paper-data="{&quot;index&quot;:null}" fill="url(#color-4)"/></g><path d="M126.50006,147.91669z" fill="#0d9c00" stroke="#000000" stroke-width="0" stroke-linecap="round"/><path d="M128.25,102.66672h30.5v27.25h-9.75l-20.75,-20.75z" fill="#0c9100" stroke="#0fb700" stroke-width="0" stroke-linecap="round"/><path d="" fill="url(#color-5)" stroke="#000000" stroke-width="0" stroke-linecap="butt"/><path d="" fill="url(#color-6)" stroke="#000000" stroke-width="0" stroke-linecap="butt"/><g stroke="none" stroke-linecap="butt"><path d="M114.4167,125.33335c0,-11.22979 9.10354,-20.33333 20.33333,-20.33333c11.22979,0 20.33333,9.10354 20.33333,20.33333c0,11.22979 -9.10354,20.33333 -20.33333,20.33333c-11.22979,0 -20.33333,-9.10354 -20.33333,-20.33333z" fill="url(#color-7)" stroke-width="NaN"/><path d="M118.4167,125.50003c0,-9.1127 7.3873,-16.5 16.5,-16.5c9.1127,0 16.5,7.3873 16.5,16.5c0,9.1127 -7.3873,16.5 -16.5,16.5c-9.1127,0 -16.5,-7.3873 -16.5,-16.5z" fill="#555555" stroke-width="NaN"/></g><path d="M147.74689,118.68759c0,2.05601 -1.29037,2.82165 -2.25141,3.10676c-0.08119,2.6191 -0.34688,4.96382 -1.2039,7.78315c-0.54572,1.79526 -0.45236,3.90113 -1.57571,5.40408c-3.94607,5.27947 -10.62671,4.60133 -14.90308,0.49272c-6.31337,-6.06569 -7.91854,-16.00984 0.99763,-20.92151c1.18504,-0.65281 2.72015,0.02199 4.05357,-0.20707c1.31989,-0.22673 2.51035,-1.17104 3.84942,-1.15052c1.51434,0.02321 2.90707,0.85089 4.36061,1.27633c0,0 1.43239,0.47746 2.02814,1.75654l1.36881,-0.81643c0,0 3.27594,0 3.27594,3.27594z" fill="#4b4b4b" stroke="none" stroke-width="0.5" stroke-linecap="butt"/><path d="M141.14865,120.85018c0,0 0.47631,0.23815 0.6517,0.71446c0.14547,0.48628 -0.09269,0.96259 -0.09269,0.96259c-0.00456,0.00912 -0.00916,0.01814 -0.0138,0.02704l-0.52238,1.02374c-0.51263,0.75668 -0.94729,1.58162 -1.22883,2.45116c-0.64419,1.93257 -1.31506,4.89661 -3.45675,5.79986c-1.5557,0.65611 -5.56808,0.30979 -5.36058,-2.35846c0.06699,-0.86145 2.65778,-0.48235 2.26873,-1.25386c-0.85518,-1.69589 -3.417,-3.42468 -3.67365,-5.42069c-0.07653,-0.59519 0.80372,-0.90867 1.07552,-1.44368c0.35256,-0.69397 0.12195,-1.78126 0.77669,-2.20222c2.81025,-1.80682 7.12338,0.47373 9.57604,1.70006c0.38829,0.19414 0.5743,0.45571 0.6517,0.71446c0.09333,0.25344 0.10146,0.5743 -0.09269,0.96259l-0.0138,0.02704c-0.56339,1.08191 -1.66325,0.53198 -1.66325,0.53198c-0.44044,-0.22022 -0.81325,-0.41076 -1.14362,-0.57616c0.0669,-0.10719 0.13505,-0.21348 0.20436,-0.31883l0.38024,-0.78206c0,0 0.55902,-1.11803 1.67705,-0.55902z" fill="#404040" stroke="none" stroke-width="0.5" stroke-linecap="butt"/><path d="M150.42759,109.07672c-0.30822,-0.11997 -0.62679,-0.32372 -0.94536,-0.64229c-1.76777,-1.76777 0,-3.53553 0,-3.53553l0.5,-0.5c1.27035,-1.18064 2.19798,-2.905 3.81106,-3.54193c1.63839,-0.64692 3.61199,-0.60296 5.28423,-0.04937c5.61364,1.85837 4.72938,7.84725 4.67248,12.35907c-0.01531,1.21411 0.41108,2.53287 -0.08375,3.64167c-2.44886,5.4873 -4.02022,7.39089 -8.53127,2.69126c-0.70268,-0.73206 -0.33269,-2.02099 -0.72624,-2.95629c-1.06495,-2.53091 -2.66631,-4.80291 -3.89481,-7.2586c0,0 -0.03819,-0.07639 -0.08634,-0.20798z" fill="#0c8b00" stroke="none" stroke-width="0.5" stroke-linecap="butt"/></g></g></svg>