<svg version="1.1" xmlns="http://www.w3.org/2000/svg" xmlns:xlink="http://www.w3.org/1999/xlink" width="19.48627" height="16.70308" viewBox="0,0,19.48627,16.70308"><g transform="translate(-204.72823,-92.19427)"><g data-paper-data="{&quot;isPaintingLayer&quot;:true}" fill-rule="nonzero" stroke="none" stroke-width="0.5" stroke-linecap="butt" stroke-linejoin="miter" stroke-miterlimit="10" stroke-dasharray="" stroke-dashoffset="0" style="mix-blend-mode: normal"><g><path d="M219.86856,93.44781c0.21482,0.02721 0.35554,0.07412 0.35554,0.07412l2.30278,1.0579c2.33421,3.06071 2.54412,5.56368 -1.27315,7.69981c-0.61338,0.34324 -1.65121,1.34368 -1.7927,1.78671c-0.67129,2.10184 -2.32631,4.47844 -4.78514,4.80211c-2.97597,0.39174 -5.67457,-3.29949 -7.50173,-5.0849c-0.80986,-0.79135 -2.11176,-1.36468 -2.3248,-2.47677c-0.61696,-3.22056 1.23214,-5.89968 3.07159,-7.09815c0.69856,-0.45514 4.63954,-1.72913 5.5476,-1.94568c1.47036,-0.35065 4.144,0.74588 5.66633,0.93355c0,0 0.35587,0.04448 0.73368,0.25131z" fill="#adb1b1"/><path d="M212.67875,102.87903l-0.04254,-0.00338c-1.031,-0.44285 -2.58276,-0.32919 -3.09301,-1.32855c-1.12786,-2.20898 0.97311,-5.10661 2.731,-6.03193c1.11216,-0.58542 2.07106,-0.61408 2.99355,-0.38129l0.0046,-0.03678l1.93771,0.24221c0.91985,0.10146 1.63537,0.88123 1.63537,1.82812c0,0.57292 -0.26195,1.08466 -0.6726,1.42198l-1.46064,1.2172l-0.08738,-0.10485l-0.21946,0.31206c-0.4923,0.03306 -0.98586,0.05131 -1.47755,0.09157c0.01803,0.03091 0.03528,0.06295 0.05165,0.09614c0.48686,0.26971 0.94172,0.59434 1.4136,0.88975c0,0 1.47144,1.10358 0.36786,2.57502c-1.10358,1.47144 -2.57502,0.36786 -2.57502,0.36786c-0.47141,-0.38875 -1.00791,-0.75931 -1.50713,-1.15512z" fill="#969999"/></g></g></g></svg>