<svg version="1.1" xmlns="http://www.w3.org/2000/svg" xmlns:xlink="http://www.w3.org/1999/xlink" width="25.34573" height="4.34323" viewBox="0,0,25.34573,4.34323"><defs><linearGradient x1="227.32715" y1="180.00001" x2="252.67287" y2="180.00001" gradientUnits="userSpaceOnUse" id="color-1"><stop offset="0" stop-color="#ff7700" stop-opacity="0"/><stop offset="1" stop-color="#ff7700"/></linearGradient><linearGradient x1="235.57089" y1="179.98654" x2="250.81506" y2="179.98654" gradientUnits="userSpaceOnUse" id="color-2"><stop offset="0" stop-color="#ff7a00" stop-opacity="0"/><stop offset="1" stop-color="#ff7a00"/></linearGradient></defs><g transform="translate(-227.32713,-177.82839)"><g data-paper-data="{&quot;isPaintingLayer&quot;:true}" fill-rule="nonzero" stroke-linejoin="miter" stroke-miterlimit="10" stroke-dasharray="" stroke-dashoffset="0" style="mix-blend-mode: normal"><path d="M247.29456,182.12814c-1.05329,0.00515 -4.55009,0.12715 -7.72872,-0.06175c-2.86461,-0.17026 -6.64028,-0.26544 -8.95593,-0.61108c-2.39257,-0.35714 -3.27849,-0.96826 -3.28276,-1.35699c-0.00415,-0.37954 0.87306,-1.07228 3.10278,-1.44803c2.37724,-0.40065 6.20506,-0.47867 9.2448,-0.6881c2.99245,-0.20618 6.56796,-0.11129 7.5729,-0.11617c2.98329,-0.01456 5.41223,0.93223 5.42518,2.11475c0.01297,1.1825 -2.39496,2.15289 -5.37821,2.16747z" fill="url(#color-1)" stroke="none" stroke-width="0" stroke-linecap="butt"/><path d="M247.58032,181.26651c-0.63351,0.00309 -2.73663,0.07647 -4.64846,-0.03713c-1.72291,-0.10238 -3.99379,-0.15967 -5.38654,-0.36752c-1.43899,-0.21478 -1.97185,-0.58239 -1.97442,-0.81618c-0.00251,-0.22828 0.52511,-0.64489 1.86618,-0.87093c1.42978,-0.24099 3.73202,-0.28788 5.56027,-0.41386c1.79983,-0.124 3.95029,-0.06691 4.5547,-0.06988c1.79429,-0.00878 3.25516,0.56069 3.26298,1.27189c0.00781,0.71121 -1.44044,1.29486 -3.2347,1.30362z" fill="url(#color-2)" stroke="none" stroke-width="0" stroke-linecap="butt"/><path d="M244.76666,179.87746h4.26667" fill="none" stroke="#ffb36b" stroke-width="1.35" stroke-linecap="round"/></g></g></svg>