<svg version="1.1" xmlns="http://www.w3.org/2000/svg" xmlns:xlink="http://www.w3.org/1999/xlink" width="627.61262" height="408.93793" viewBox="0,0,627.61262,408.93793"><defs><radialGradient cx="42.80781" cy="263.74976" r="56.30631" gradientUnits="userSpaceOnUse" id="color-1"><stop offset="0" stop-color="#436f5b"/><stop offset="1" stop-color="#436f5b" stop-opacity="0"/></radialGradient><radialGradient cx="50.27027" cy="212.24528" r="56.30631" gradientUnits="userSpaceOnUse" id="color-2"><stop offset="0" stop-color="#215755"/><stop offset="1" stop-color="#215755" stop-opacity="0"/></radialGradient><radialGradient cx="30.73573" cy="237.75578" r="56.30631" gradientUnits="userSpaceOnUse" id="color-3"><stop offset="0" stop-color="#396758"/><stop offset="1" stop-color="#396758" stop-opacity="0"/></radialGradient><radialGradient cx="33.46473" cy="133.33334" r="82" gradientUnits="userSpaceOnUse" id="color-4"><stop offset="0" stop-color="#000203"/><stop offset="1" stop-color="#000203" stop-opacity="0"/></radialGradient><radialGradient cx="195.46473" cy="158.33334" r="82" gradientUnits="userSpaceOnUse" id="color-5"><stop offset="0" stop-color="#004a55"/><stop offset="1" stop-color="#004a55" stop-opacity="0"/></radialGradient><radialGradient cx="364.01137" cy="149.20109" r="64.92666" gradientUnits="userSpaceOnUse" id="color-6"><stop offset="0" stop-color="#cef1a9"/><stop offset="1" stop-color="#cef1a9" stop-opacity="0"/></radialGradient><radialGradient cx="349.0211" cy="173.41615" r="64.92666" gradientUnits="userSpaceOnUse" id="color-7"><stop offset="0" stop-color="#aac78b"/><stop offset="1" stop-color="#aac78b" stop-opacity="0"/></radialGradient><radialGradient cx="241.96472" cy="260.83333" r="53.5" gradientUnits="userSpaceOnUse" id="color-8"><stop offset="0" stop-color="#000000"/><stop offset="1" stop-color="#000000" stop-opacity="0"/></radialGradient><radialGradient cx="248.96473" cy="134.83334" r="53.5" gradientUnits="userSpaceOnUse" id="color-9"><stop offset="0" stop-color="#00242a"/><stop offset="1" stop-color="#00242a" stop-opacity="0"/></radialGradient><radialGradient cx="231.96473" cy="94.83335" r="53.5" gradientUnits="userSpaceOnUse" id="color-10"><stop offset="0" stop-color="#004b56"/><stop offset="1" stop-color="#004b56" stop-opacity="0"/></radialGradient><radialGradient cx="251.96473" cy="280.83333" r="53.5" gradientUnits="userSpaceOnUse" id="color-11"><stop offset="0" stop-color="#000000"/><stop offset="1" stop-color="#000000" stop-opacity="0"/></radialGradient><radialGradient cx="289.96473" cy="269.83333" r="53.5" gradientUnits="userSpaceOnUse" id="color-12"><stop offset="0" stop-color="#000000"/><stop offset="1" stop-color="#000000" stop-opacity="0"/></radialGradient><radialGradient cx="207.96473" cy="286.83333" r="53.5" gradientUnits="userSpaceOnUse" id="color-13"><stop offset="0" stop-color="#000000"/><stop offset="1" stop-color="#000000" stop-opacity="0"/></radialGradient><radialGradient cx="271.96473" cy="290.83333" r="53.5" gradientUnits="userSpaceOnUse" id="color-14"><stop offset="0" stop-color="#004b56"/><stop offset="1" stop-color="#004b56" stop-opacity="0"/></radialGradient><radialGradient cx="158.46471" cy="87.33333" r="53.5" gradientUnits="userSpaceOnUse" id="color-15"><stop offset="0" stop-color="#004a55"/><stop offset="1" stop-color="#004a55" stop-opacity="0"/></radialGradient><radialGradient cx="317.96473" cy="274.83333" r="53.5" gradientUnits="userSpaceOnUse" id="color-16"><stop offset="0" stop-color="#000000"/><stop offset="1" stop-color="#000000" stop-opacity="0"/></radialGradient><radialGradient cx="347.96473" cy="286.83333" r="53.5" gradientUnits="userSpaceOnUse" id="color-17"><stop offset="0" stop-color="#000000"/><stop offset="1" stop-color="#000000" stop-opacity="0"/></radialGradient><radialGradient cx="385.96473" cy="276.83333" r="53.5" gradientUnits="userSpaceOnUse" id="color-18"><stop offset="0" stop-color="#000000"/><stop offset="1" stop-color="#000000" stop-opacity="0"/></radialGradient><radialGradient cx="263.46473" cy="206.33336" r="82" gradientUnits="userSpaceOnUse" id="color-19"><stop offset="0" stop-color="#000000"/><stop offset="1" stop-color="#000000" stop-opacity="0"/></radialGradient><radialGradient cx="173.46473" cy="255.33336" r="82" gradientUnits="userSpaceOnUse" id="color-20"><stop offset="0" stop-color="#004b56"/><stop offset="1" stop-color="#004b56" stop-opacity="0"/></radialGradient><radialGradient cx="338.46473" cy="229.33336" r="82" gradientUnits="userSpaceOnUse" id="color-21"><stop offset="0" stop-color="#004b56"/><stop offset="1" stop-color="#004b56" stop-opacity="0"/></radialGradient><radialGradient cx="381.46473" cy="169.33334" r="82" gradientUnits="userSpaceOnUse" id="color-22"><stop offset="0" stop-color="#004b56"/><stop offset="1" stop-color="#004b56" stop-opacity="0"/></radialGradient><radialGradient cx="28.28829" cy="155.72573" r="56.30631" gradientUnits="userSpaceOnUse" id="color-23"><stop offset="0" stop-color="#f5eeb2"/><stop offset="1" stop-color="#f5eeb2" stop-opacity="0"/></radialGradient><radialGradient cx="33.28829" cy="160.72573" r="56.30631" gradientUnits="userSpaceOnUse" id="color-24"><stop offset="0" stop-color="#b3ae83"/><stop offset="1" stop-color="#b3ae83" stop-opacity="0"/></radialGradient><radialGradient cx="38.28829" cy="165.72573" r="56.30631" gradientUnits="userSpaceOnUse" id="color-25"><stop offset="0" stop-color="#f5eeb2"/><stop offset="1" stop-color="#f5eeb2" stop-opacity="0"/></radialGradient><radialGradient cx="43.28829" cy="170.72577" r="56.30631" gradientUnits="userSpaceOnUse" id="color-26"><stop offset="0" stop-color="#6b8a68"/><stop offset="1" stop-color="#6b8a68" stop-opacity="0"/></radialGradient><radialGradient cx="48.28829" cy="115.66569" r="56.30631" gradientUnits="userSpaceOnUse" id="color-27"><stop offset="0" stop-color="#f5eeb2"/><stop offset="1" stop-color="#f5eeb2" stop-opacity="0"/></radialGradient><radialGradient cx="126.35135" cy="181.71674" r="56.30631" gradientUnits="userSpaceOnUse" id="color-28"><stop offset="0" stop-color="#f5eeb2"/><stop offset="1" stop-color="#f5eeb2" stop-opacity="0"/></radialGradient><radialGradient cx="87.80781" cy="219.74978" r="56.30631" gradientUnits="userSpaceOnUse" id="color-29"><stop offset="0" stop-color="#cef1a9"/><stop offset="1" stop-color="#cef1a9" stop-opacity="0"/></radialGradient><radialGradient cx="92.80781" cy="124.74978" r="56.30631" gradientUnits="userSpaceOnUse" id="color-30"><stop offset="0" stop-color="#3a432f"/><stop offset="1" stop-color="#3a432f" stop-opacity="0"/></radialGradient><radialGradient cx="14.80781" cy="109.74978" r="56.30631" gradientUnits="userSpaceOnUse" id="color-31"><stop offset="0" stop-color="#436f5b"/><stop offset="1" stop-color="#436f5b" stop-opacity="0"/></radialGradient><radialGradient cx="72.80781" cy="96.74978" r="56.30631" gradientUnits="userSpaceOnUse" id="color-32"><stop offset="0" stop-color="#436f5b"/><stop offset="1" stop-color="#436f5b" stop-opacity="0"/></radialGradient><radialGradient cx="100.80781" cy="240.74978" r="56.30631" gradientUnits="userSpaceOnUse" id="color-33"><stop offset="0" stop-color="#436f5b"/><stop offset="1" stop-color="#436f5b" stop-opacity="0"/></radialGradient><radialGradient cx="130.80781" cy="193.74978" r="56.30631" gradientUnits="userSpaceOnUse" id="color-34"><stop offset="0" stop-color="#315143"/><stop offset="1" stop-color="#315143" stop-opacity="0"/></radialGradient><radialGradient cx="124.80781" cy="148.74978" r="56.30631" gradientUnits="userSpaceOnUse" id="color-35"><stop offset="0" stop-color="#304f41"/><stop offset="1" stop-color="#304f41" stop-opacity="0"/></radialGradient><radialGradient cx="441.35201" cy="161.89208" r="64.92666" gradientUnits="userSpaceOnUse" id="color-36"><stop offset="0" stop-color="#f5eeb2"/><stop offset="1" stop-color="#f5eeb2" stop-opacity="0"/></radialGradient><radialGradient cx="427.43173" cy="191.86573" r="64.92666" gradientUnits="userSpaceOnUse" id="color-37"><stop offset="0" stop-color="#aac78b"/><stop offset="1" stop-color="#aac78b" stop-opacity="0"/></radialGradient><radialGradient cx="432.64317" cy="75.37516" r="64.92666" gradientUnits="userSpaceOnUse" id="color-38"><stop offset="0" stop-color="#f5eeb2"/><stop offset="1" stop-color="#f5eeb2" stop-opacity="0"/></radialGradient><radialGradient cx="426.87769" cy="81.14065" r="64.92666" gradientUnits="userSpaceOnUse" id="color-39"><stop offset="0" stop-color="#f5eeb2"/><stop offset="1" stop-color="#f5eeb2" stop-opacity="0"/></radialGradient><radialGradient cx="421.1122" cy="86.90614" r="64.92666" gradientUnits="userSpaceOnUse" id="color-40"><stop offset="0" stop-color="#f5eeb2"/><stop offset="1" stop-color="#f5eeb2" stop-opacity="0"/></radialGradient><radialGradient cx="415.34671" cy="92.67163" r="64.92666" gradientUnits="userSpaceOnUse" id="color-41"><stop offset="0" stop-color="#f5eeb2"/><stop offset="1" stop-color="#f5eeb2" stop-opacity="0"/></radialGradient><radialGradient cx="409.58122" cy="29.18201" r="64.92666" gradientUnits="userSpaceOnUse" id="color-42"><stop offset="0" stop-color="#f5eeb2"/><stop offset="1" stop-color="#f5eeb2" stop-opacity="0"/></radialGradient><radialGradient cx="362.26268" cy="76.50054" r="64.92666" gradientUnits="userSpaceOnUse" id="color-43"><stop offset="0" stop-color="#f5eeb2"/><stop offset="1" stop-color="#f5eeb2" stop-opacity="0"/></radialGradient><radialGradient cx="418.82678" cy="132.47598" r="64.92666" gradientUnits="userSpaceOnUse" id="color-44"><stop offset="0" stop-color="#f5eeb2"/><stop offset="1" stop-color="#f5eeb2" stop-opacity="0"/></radialGradient><radialGradient cx="319.5669" cy="105.34531" r="64.92666" gradientUnits="userSpaceOnUse" id="color-45"><stop offset="0" stop-color="#f5eeb2"/><stop offset="1" stop-color="#f5eeb2" stop-opacity="0"/></radialGradient><radialGradient cx="358.24588" cy="39.65685" r="64.92666" gradientUnits="userSpaceOnUse" id="color-46"><stop offset="0" stop-color="#cef1a9"/><stop offset="1" stop-color="#cef1a9" stop-opacity="0"/></radialGradient><radialGradient cx="448.18748" cy="22.36038" r="64.92666" gradientUnits="userSpaceOnUse" id="color-47"><stop offset="0" stop-color="#a5da96"/><stop offset="1" stop-color="#a5da96" stop-opacity="0"/></radialGradient><radialGradient cx="381.30783" cy="7.37011" r="64.92666" gradientUnits="userSpaceOnUse" id="color-48"><stop offset="0" stop-color="#a1d795"/><stop offset="1" stop-color="#a1d795" stop-opacity="0"/></radialGradient><radialGradient cx="314.42816" cy="119.22055" r="64.92666" gradientUnits="userSpaceOnUse" id="color-49"><stop offset="0" stop-color="#b3d193"/><stop offset="1" stop-color="#b3d193" stop-opacity="0"/></radialGradient><radialGradient cx="321.34675" cy="67.33119" r="64.92666" gradientUnits="userSpaceOnUse" id="color-50"><stop offset="0" stop-color="#aac88c"/><stop offset="1" stop-color="#aac88c" stop-opacity="0"/></radialGradient><radialGradient cx="53.32431" cy="176.70171" r="129.30631" gradientUnits="userSpaceOnUse" id="color-51"><stop offset="0" stop-color="#001c20"/><stop offset="1" stop-color="#001c20" stop-opacity="0"/></radialGradient><radialGradient cx="416.32431" cy="64.70171" r="129.30631" gradientUnits="userSpaceOnUse" id="color-52"><stop offset="0" stop-color="#005967"/><stop offset="1" stop-color="#005967" stop-opacity="0"/></radialGradient><radialGradient cx="229.32431" cy="165.70171" r="129.30631" gradientUnits="userSpaceOnUse" id="color-53"><stop offset="0" stop-color="#000000"/><stop offset="1" stop-color="#000000" stop-opacity="0"/></radialGradient><radialGradient cx="422.32431" cy="174.70171" r="129.30631" gradientUnits="userSpaceOnUse" id="color-54"><stop offset="0" stop-color="#005967"/><stop offset="1" stop-color="#005967" stop-opacity="0"/></radialGradient><radialGradient cx="324.32431" cy="116.70172" r="129.30631" gradientUnits="userSpaceOnUse" id="color-55"><stop offset="0" stop-color="#00373f"/><stop offset="1" stop-color="#00373f" stop-opacity="0"/></radialGradient></defs><g transform="translate(75.98197,64.6046)"><g data-paper-data="{&quot;isPaintingLayer&quot;:true}" fill-rule="nonzero" stroke="none" stroke-width="0" stroke-linecap="butt" stroke-linejoin="miter" stroke-miterlimit="10" stroke-dasharray="" stroke-dashoffset="0" style="mix-blend-mode: normal"><path d="M-13.49849,263.74976c0,-31.09711 25.20919,-56.30631 56.30631,-56.30631c31.09711,0 56.30631,25.20919 56.30631,56.30631c0,31.09711 -25.20919,56.30631 -56.30631,56.30631c-31.09711,0 -56.30631,-25.20919 -56.30631,-56.30631z" fill="url(#color-1)"/><path d="M-6.03604,212.24528c0,-31.09711 25.20919,-56.30631 56.30631,-56.30631c31.09711,0 56.30631,25.20919 56.30631,56.30631c0,31.09711 -25.20919,56.30631 -56.30631,56.30631c-31.09711,0 -56.30631,-25.20919 -56.30631,-56.30631z" fill="url(#color-2)"/><path d="M-25.57056,237.75578c0,-31.09711 25.20919,-56.30631 56.30631,-56.30631c31.09711,0 56.30631,25.20919 56.30631,56.30631c0,31.09711 -25.20919,56.30631 -56.30631,56.30631c-31.09711,0 -56.30631,-25.20919 -56.30631,-56.30631z" fill="url(#color-3)"/><path d="M-48.53527,133.33334c0,-45.28735 36.71265,-82 82,-82c45.28735,0 82,36.71265 82,82c0,45.28735 -36.71265,82 -82,82c-45.28735,0 -82,-36.71265 -82,-82z" fill="url(#color-4)"/><path d="M113.46473,158.33334c0,-45.28735 36.71265,-82 82,-82c45.28735,0 82,36.71265 82,82c0,45.28735 -36.71265,82 -82,82c-45.28735,0 -82,-36.71265 -82,-82z" fill="url(#color-5)"/><path d="M364.01136,214.12775c-35.85801,0 -64.92666,-29.06866 -64.92666,-64.92666c0,-35.85801 29.06866,-64.92666 64.92666,-64.92666c35.85801,0 64.92666,29.06866 64.92666,64.92666c0,35.85801 -29.06866,64.92666 -64.92666,64.92666z" fill="url(#color-6)"/><path d="M349.02109,238.34281c-35.85801,0 -64.92666,-29.06866 -64.92666,-64.92666c0,-35.85801 29.06866,-64.92666 64.92666,-64.92666c35.85801,0 64.92666,29.06866 64.92666,64.92666c0,35.85801 -29.06866,64.92666 -64.92666,64.92666z" fill="url(#color-7)"/><path d="M188.46472,260.83333c0,-29.54723 23.95277,-53.5 53.5,-53.5c29.54723,0 53.5,23.95277 53.5,53.5c0,29.54723 -23.95277,53.5 -53.5,53.5c-29.54723,0 -53.5,-23.95277 -53.5,-53.5z" fill="url(#color-8)"/><path d="M195.46473,134.83334c0,-29.54723 23.95277,-53.5 53.5,-53.5c29.54724,0 53.5,23.95277 53.5,53.5c0,29.54724 -23.95276,53.5 -53.5,53.5c-29.54723,0 -53.5,-23.95276 -53.5,-53.5z" fill="url(#color-9)"/><path d="M178.46473,94.83335c0,-29.54723 23.95277,-53.5 53.5,-53.5c29.54724,0 53.5,23.95277 53.5,53.5c0,29.54724 -23.95276,53.5 -53.5,53.5c-29.54723,0 -53.5,-23.95276 -53.5,-53.5z" fill="url(#color-10)"/><path d="M198.46473,280.83333c0,-29.54723 23.95277,-53.5 53.5,-53.5c29.54724,0 53.5,23.95277 53.5,53.5c0,29.54724 -23.95276,53.5 -53.5,53.5c-29.54723,0 -53.5,-23.95276 -53.5,-53.5z" fill="url(#color-11)"/><path d="M236.46473,269.83333c0,-29.54723 23.95277,-53.5 53.5,-53.5c29.54724,0 53.5,23.95277 53.5,53.5c0,29.54724 -23.95276,53.5 -53.5,53.5c-29.54723,0 -53.5,-23.95276 -53.5,-53.5z" fill="url(#color-12)"/><path d="M154.46473,286.83333c0,-29.54723 23.95277,-53.5 53.5,-53.5c29.54724,0 53.5,23.95277 53.5,53.5c0,29.54724 -23.95276,53.5 -53.5,53.5c-29.54723,0 -53.5,-23.95276 -53.5,-53.5z" fill="url(#color-13)"/><path d="M218.46473,290.83333c0,-29.54723 23.95277,-53.5 53.5,-53.5c29.54724,0 53.5,23.95277 53.5,53.5c0,29.54724 -23.95276,53.5 -53.5,53.5c-29.54723,0 -53.5,-23.95276 -53.5,-53.5z" fill="url(#color-14)"/><path d="M105.46473,88.83335c0,-29.54723 23.95277,-53.5 53.5,-53.5c29.54724,0 53.5,23.95277 53.5,53.5c0,29.54724 -23.95276,53.5 -53.5,53.5c-29.54723,0 -53.5,-23.95276 -53.5,-53.5z" fill="url(#color-15)"/><path d="M264.46473,274.83333c0,-29.54723 23.95277,-53.5 53.5,-53.5c29.54724,0 53.5,23.95277 53.5,53.5c0,29.54724 -23.95276,53.5 -53.5,53.5c-29.54723,0 -53.5,-23.95276 -53.5,-53.5z" fill="url(#color-16)"/><path d="M294.46473,286.83333c0,-29.54723 23.95277,-53.5 53.5,-53.5c29.54724,0 53.5,23.95277 53.5,53.5c0,29.54724 -23.95276,53.5 -53.5,53.5c-29.54723,0 -53.5,-23.95276 -53.5,-53.5z" fill="url(#color-17)"/><path d="M332.46473,276.83333c0,-29.54723 23.95277,-53.5 53.5,-53.5c29.54724,0 53.5,23.95277 53.5,53.5c0,29.54724 -23.95276,53.5 -53.5,53.5c-29.54723,0 -53.5,-23.95276 -53.5,-53.5z" fill="url(#color-18)"/><path d="M181.46473,206.33336c0,-45.28735 36.71265,-82 82,-82c45.28735,0 82,36.71265 82,82c0,45.28735 -36.71265,82 -82,82c-45.28735,0 -82,-36.71265 -82,-82z" fill="url(#color-19)"/><path d="M91.46473,255.33336c0,-45.28735 36.71265,-82 82,-82c45.28735,0 82,36.71265 82,82c0,45.28735 -36.71265,82 -82,82c-45.28735,0 -82,-36.71265 -82,-82z" fill="url(#color-20)"/><path d="M256.46473,229.33336c0,-45.28735 36.71265,-82 82,-82c45.28735,0 82,36.71265 82,82c0,45.28735 -36.71265,82 -82,82c-45.28735,0 -82,-36.71265 -82,-82z" fill="url(#color-21)"/><path d="M299.46473,169.33334c0,-45.28735 36.71265,-82 82,-82c45.28735,0 82,36.71265 82,82c0,45.28735 -36.71265,82 -82,82c-45.28735,0 -82,-36.71265 -82,-82z" fill="url(#color-22)"/><path d="M-28.01801,155.72573c0,-31.09711 25.20919,-56.30631 56.30631,-56.30631c31.09711,0 56.30631,25.20919 56.30631,56.30631c0,31.09711 -25.20919,56.30631 -56.30631,56.30631c-31.09711,0 -56.30631,-25.20919 -56.30631,-56.30631z" fill="url(#color-23)"/><path d="M-23.01801,160.72573c0,-31.09711 25.20919,-56.30631 56.30631,-56.30631c31.09711,0 56.30631,25.20919 56.30631,56.30631c0,31.09711 -25.20919,56.30631 -56.30631,56.30631c-31.09711,0 -56.30631,-25.20919 -56.30631,-56.30631z" fill="url(#color-24)"/><path d="M-18.01802,165.72573c0,-31.09711 25.20919,-56.30631 56.30631,-56.30631c31.09711,0 56.30631,25.20919 56.30631,56.30631c0,31.09711 -25.20919,56.30631 -56.30631,56.30631c-31.09711,0 -56.30631,-25.20919 -56.30631,-56.30631z" fill="url(#color-25)"/><path d="M-13.01801,170.72577c0,-31.09711 25.20919,-56.30631 56.30631,-56.30631c31.09711,0 56.30631,25.20919 56.30631,56.30631c0,31.09711 -25.20919,56.30631 -56.30631,56.30631c-31.09711,0 -56.30631,-25.20919 -56.30631,-56.30631z" fill="url(#color-26)"/><path d="M-8.01801,115.66569c0,-31.09711 25.20919,-56.30631 56.30631,-56.30631c31.09711,0 56.30631,25.20919 56.30631,56.30631c0,31.09711 -25.20919,56.30631 -56.30631,56.30631c-31.09711,0 -56.30631,-25.20919 -56.30631,-56.30631z" fill="url(#color-27)"/><path d="M70.04505,181.71674c0,-31.09711 25.20919,-56.30631 56.30631,-56.30631c31.09711,0 56.30631,25.20919 56.30631,56.30631c0,31.09711 -25.20919,56.30631 -56.30631,56.30631c-31.09711,0 -56.30631,-25.20919 -56.30631,-56.30631z" fill="url(#color-28)"/><path d="M31.50151,219.74978c0,-31.09711 25.20919,-56.30631 56.30631,-56.30631c31.09711,0 56.30631,25.20919 56.30631,56.30631c0,31.09711 -25.20919,56.30631 -56.30631,56.30631c-31.09711,0 -56.30631,-25.20919 -56.30631,-56.30631z" fill="url(#color-29)"/><path d="M36.50151,124.74978c0,-31.09711 25.20919,-56.30631 56.30631,-56.30631c31.09711,0 56.30631,25.20919 56.30631,56.30631c0,31.09711 -25.20919,56.30631 -56.30631,56.30631c-31.09711,0 -56.30631,-25.20919 -56.30631,-56.30631z" fill="url(#color-30)"/><path d="M-41.49849,109.74978c0,-31.09711 25.20919,-56.30631 56.30631,-56.30631c31.09711,0 56.30631,25.20919 56.30631,56.30631c0,31.09711 -25.20919,56.30631 -56.30631,56.30631c-31.09711,0 -56.30631,-25.20919 -56.30631,-56.30631z" fill="url(#color-31)"/><path d="M16.5015,96.74978c0,-31.09711 25.20919,-56.30631 56.30631,-56.30631c31.09711,0 56.30631,25.20919 56.30631,56.30631c0,31.09711 -25.20919,56.30631 -56.30631,56.30631c-31.09711,0 -56.30631,-25.20919 -56.30631,-56.30631z" fill="url(#color-32)"/><path d="M44.50151,240.74978c0,-31.09711 25.20919,-56.30631 56.30631,-56.30631c31.09711,0 56.30631,25.20919 56.30631,56.30631c0,31.09711 -25.20919,56.30631 -56.30631,56.30631c-31.09711,0 -56.30631,-25.20919 -56.30631,-56.30631z" fill="url(#color-33)"/><path d="M74.50151,193.74978c0,-31.09711 25.20919,-56.30631 56.30631,-56.30631c31.09711,0 56.30631,25.20919 56.30631,56.30631c0,31.09711 -25.20919,56.30631 -56.30631,56.30631c-31.09711,0 -56.30631,-25.20919 -56.30631,-56.30631z" fill="url(#color-34)"/><path d="M68.50151,148.74978c0,-31.09711 25.20919,-56.30631 56.30631,-56.30631c31.09711,0 56.30631,25.20919 56.30631,56.30631c0,31.09711 -25.20919,56.30631 -56.30631,56.30631c-31.09711,0 -56.30631,-25.20919 -56.30631,-56.30631z" fill="url(#color-35)"/><path d="M441.35199,226.81874c-35.85801,0 -64.92666,-29.06866 -64.92666,-64.92666c0,-35.85801 29.06866,-64.92666 64.92666,-64.92666c35.85801,0 64.92666,29.06866 64.92666,64.92666c0,35.85801 -29.06866,64.92666 -64.92666,64.92666z" fill="url(#color-36)"/><path d="M427.43172,256.79236c-35.85801,0 -64.92666,-29.06866 -64.92666,-64.92666c0,-35.85801 29.06866,-64.92666 64.92666,-64.92666c35.85801,0 64.92666,29.06866 64.92666,64.92666c0,35.85801 -29.06866,64.92666 -64.92666,64.92666z" fill="url(#color-37)"/><g><path d="M432.64316,140.30181c-35.85801,0 -64.92666,-29.06866 -64.92666,-64.92666c0,-35.85801 29.06866,-64.92666 64.92666,-64.92666c35.85801,0 64.92666,29.06866 64.92666,64.92666c0,35.85801 -29.06866,64.92666 -64.92666,64.92666z" fill="url(#color-38)"/><path d="M426.87768,146.06731c-35.85801,0 -64.92666,-29.06866 -64.92666,-64.92666c0,-35.85801 29.06866,-64.92666 64.92666,-64.92666c35.85801,0 64.92666,29.06866 64.92666,64.92666c0,35.85801 -29.06866,64.92666 -64.92666,64.92666z" fill="url(#color-39)"/><path d="M421.11219,151.83279c-35.85801,0 -64.92666,-29.06866 -64.92666,-64.92666c0,-35.85801 29.06866,-64.92666 64.92666,-64.92666c35.85801,0 64.92666,29.06866 64.92666,64.92666c0,35.85801 -29.06866,64.92666 -64.92666,64.92666z" fill="url(#color-40)"/><path d="M415.3467,157.59828c-35.85801,0 -64.92666,-29.06866 -64.92666,-64.92666c0,-35.85801 29.06866,-64.92666 64.92666,-64.92666c35.85801,0 64.92666,29.06866 64.92666,64.92666c0,35.85801 -29.06866,64.92666 -64.92666,64.92666z" fill="url(#color-41)"/><path d="M409.58122,94.10868c-35.85801,0 -64.92666,-29.06866 -64.92666,-64.92666c0,-35.85801 29.06866,-64.92666 64.92666,-64.92666c35.85801,0 64.92666,29.06866 64.92666,64.92666c0,35.85801 -29.06866,64.92666 -64.92666,64.92666z" fill="url(#color-42)"/><path d="M362.26267,141.4272c-35.85801,0 -64.92666,-29.06866 -64.92666,-64.92666c0,-35.85801 29.06866,-64.92666 64.92666,-64.92666c35.85801,0 64.92666,29.06866 64.92666,64.92666c0,35.85801 -29.06866,64.92666 -64.92666,64.92666z" fill="url(#color-43)"/><path d="M418.82677,197.40266c-35.85801,0 -64.92666,-29.06866 -64.92666,-64.92666c0,-35.85801 29.06866,-64.92666 64.92666,-64.92666c35.85801,0 64.92666,29.06866 64.92666,64.92666c0,35.85801 -29.06866,64.92666 -64.92666,64.92666z" fill="url(#color-44)"/><path d="M319.5669,170.27199c-35.85801,0 -64.92666,-29.06866 -64.92666,-64.92666c0,-35.85801 29.06866,-64.92666 64.92666,-64.92666c35.85801,0 64.92666,29.06866 64.92666,64.92666c0,35.85801 -29.06866,64.92666 -64.92666,64.92666z" fill="url(#color-45)"/><path d="M358.24587,104.58351c-35.85801,0 -64.92666,-29.06866 -64.92666,-64.92666c0,-35.85801 29.06866,-64.92666 64.92666,-64.92666c35.85801,0 64.92666,29.06866 64.92666,64.92666c0,35.85801 -29.06866,64.92666 -64.92666,64.92666z" fill="url(#color-46)"/><path d="M448.18747,87.28705c-35.85801,0 -64.92666,-29.06866 -64.92666,-64.92666c0,-35.85801 29.06866,-64.92666 64.92666,-64.92666c35.85801,0 64.92666,29.06866 64.92666,64.92666c0,35.85801 -29.06866,64.92666 -64.92666,64.92666z" fill="url(#color-47)"/><path d="M381.30782,72.29676c-35.85801,0 -64.92666,-29.06866 -64.92666,-64.92666c0,-35.85801 29.06866,-64.92666 64.92666,-64.92666c35.85801,0 64.92666,29.06866 64.92666,64.92666c0,35.85801 -29.06866,64.92666 -64.92666,64.92666z" fill="url(#color-48)"/><path d="M314.42816,184.14725c-35.85801,0 -64.92666,-29.06866 -64.92666,-64.92666c0,-35.85801 29.06866,-64.92666 64.92666,-64.92666c35.85801,0 64.92666,29.06866 64.92666,64.92666c0,35.85801 -29.06866,64.92666 -64.92666,64.92666z" fill="url(#color-49)"/><path d="M321.34675,132.25784c-35.85801,0 -64.92666,-29.06866 -64.92666,-64.92666c0,-35.85801 29.06866,-64.92666 64.92666,-64.92666c35.85801,0 64.92666,29.06866 64.92666,64.92666c0,35.85801 -29.06866,64.92666 -64.92666,64.92666z" fill="url(#color-50)"/></g><path d="M-75.98197,176.70171c0,-71.41389 57.8924,-129.30631 129.30631,-129.30631c71.41389,0 129.30631,57.8924 129.30631,129.30631c0,71.41389 -57.8924,129.30631 -129.30631,129.30631c-71.41389,0 -129.30631,-57.8924 -129.30631,-129.30631z" fill="url(#color-51)"/><path d="M287.01803,64.70171c0,-71.41389 57.8924,-129.30631 129.30631,-129.30631c71.41389,0 129.30631,57.8924 129.30631,129.30631c0,71.41389 -57.8924,129.30631 -129.30631,129.30631c-71.41389,0 -129.30631,-57.8924 -129.30631,-129.30631z" fill="url(#color-52)"/><path d="M100.01803,165.70171c0,-71.41389 57.8924,-129.30631 129.30631,-129.30631c71.41389,0 129.30631,57.8924 129.30631,129.30631c0,71.41389 -57.8924,129.30631 -129.30631,129.30631c-71.41389,0 -129.30631,-57.8924 -129.30631,-129.30631z" fill="url(#color-53)"/><path d="M293.01803,174.70171c0,-71.41389 57.8924,-129.30631 129.30631,-129.30631c71.41389,0 129.30631,57.8924 129.30631,129.30631c0,71.41389 -57.8924,129.30631 -129.30631,129.30631c-71.41389,0 -129.30631,-57.8924 -129.30631,-129.30631z" fill="url(#color-54)"/><path d="M195.01803,116.70172c0,-71.41389 57.8924,-129.30631 129.30631,-129.30631c71.41389,0 129.30631,57.8924 129.30631,129.30631c0,71.41389 -57.8924,129.30631 -129.30631,129.30631c-71.41389,0 -129.30631,-57.8924 -129.30631,-129.30631z" fill="url(#color-55)"/></g></g></svg>