<svg version="1.1" xmlns="http://www.w3.org/2000/svg" xmlns:xlink="http://www.w3.org/1999/xlink" width="38.81517" height="30.84126" viewBox="0,0,38.81517,30.84126"><defs><linearGradient x1="244.15433" y1="180.41824" x2="244.15433" y2="182.89493" gradientUnits="userSpaceOnUse" id="color-1"><stop offset="0" stop-color="#1a5d00"/><stop offset="1" stop-color="#1a5d00" stop-opacity="0"/></linearGradient><linearGradient x1="243.95352" y1="172.31878" x2="243.95352" y2="169.84208" gradientUnits="userSpaceOnUse" id="color-2"><stop offset="0" stop-color="#1a5d00"/><stop offset="1" stop-color="#1a5d00" stop-opacity="0"/></linearGradient><linearGradient x1="237.25139" y1="175.96967" x2="240.61501" y2="175.96967" gradientUnits="userSpaceOnUse" id="color-3"><stop offset="0" stop-color="#000000" stop-opacity="0"/><stop offset="1" stop-color="#000000"/></linearGradient><linearGradient x1="226.6585" y1="175.83592" x2="228.1646" y2="175.83592" gradientUnits="userSpaceOnUse" id="color-4"><stop offset="0" stop-color="#222222"/><stop offset="1" stop-color="#222222" stop-opacity="0"/></linearGradient><linearGradient x1="234.25828" y1="144.70242" x2="259.36131" y2="182.97047" gradientUnits="userSpaceOnUse" id="color-5"><stop offset="0" stop-color="#c7c7c7"/><stop offset="1" stop-color="#c7c7c7" stop-opacity="0"/></linearGradient><linearGradient x1="277.79403" y1="164.68041" x2="239.29726" y2="189.43123" gradientUnits="userSpaceOnUse" id="color-6"><stop offset="0" stop-color="#c7c7c7"/><stop offset="1" stop-color="#c7c7c7" stop-opacity="0"/></linearGradient><linearGradient x1="-28.8251" y1="381.23131" x2="1588.62552" y2="-679.78152" gradientUnits="userSpaceOnUse" id="color-7"><stop offset="0" stop-color="#cacaca" stop-opacity="0"/><stop offset="1" stop-color="#cacaca"/></linearGradient><linearGradient x1="62.54743" y1="312.56151" x2="1141.25095" y2="-395.04481" gradientUnits="userSpaceOnUse" id="color-8"><stop offset="0" stop-color="#cacaca" stop-opacity="0"/><stop offset="1" stop-color="#cacaca"/></linearGradient><linearGradient x1="258.03202" y1="208.49184" x2="232.92901" y2="170.2238" gradientUnits="userSpaceOnUse" id="color-9"><stop offset="0" stop-color="#c7c7c7"/><stop offset="1" stop-color="#c7c7c7" stop-opacity="0"/></linearGradient><linearGradient x1="214.22131" y1="188.28027" x2="252.71808" y2="163.52943" gradientUnits="userSpaceOnUse" id="color-10"><stop offset="0" stop-color="#c7c7c7"/><stop offset="1" stop-color="#c7c7c7" stop-opacity="0"/></linearGradient></defs><g transform="translate(-222.39374,-159.84941)"><g data-paper-data="{&quot;isPaintingLayer&quot;:true}" fill-rule="nonzero" stroke-linejoin="miter" stroke-miterlimit="10" stroke-dasharray="" stroke-dashoffset="0" style="mix-blend-mode: normal"><g><path d="M244.93384,168.55459l-0.10117,5.18248l-1.41856,2.38603l-1.60548,0.09876l-0.07192,-6.26495z" data-paper-data="{&quot;index&quot;:null}" fill="#298e00" stroke="#8f8f8f" stroke-width="0" stroke-linecap="round"/><path d="M241.91036,182.50354l0.07192,-6.26495l1.60548,0.09876l1.41856,2.38603l0.10117,5.18248z" data-paper-data="{&quot;index&quot;:null}" fill="#298e00" stroke="#8f8f8f" stroke-width="0" stroke-linecap="round"/><path d="M246.83356,178.5377l-0.10117,5.18248l-1.41856,2.38603l-1.60548,0.09876l-0.07192,-6.26495z" fill="#38c400" stroke="#8f8f8f" stroke-width="0" stroke-linecap="round"/><path d="M241.9454,182.89493v-2.4767h4.41789v2.4767z" fill="url(#color-1)" stroke="none" stroke-width="0" stroke-linecap="butt"/><g stroke-linecap="butt"><path d="M246.36624,184.41553l-0.66387,0.00762l-0.02921,-2.54483l0.66387,-0.00762z" fill="#8d8d8d" stroke="none" stroke-width="0"/><path d="M247.21494,184.44268l-0.98105,0.01126l-0.02964,-2.58171l0.98105,-0.01126z" fill="#b7b7b7" stroke="#000000" stroke-width="0"/><path d="M246.90413,182.26994c0.00123,0.10694 -0.08447,0.19462 -0.19141,0.19585c-0.10694,0.00123 -0.19462,-0.08447 -0.19585,-0.1914c-0.00123,-0.10694 0.08447,-0.19462 0.1914,-0.19585c0.10694,-0.00123 0.19462,0.08447 0.19585,0.19141z" fill="#8d8d8d" stroke="none" stroke-width="0.5"/><path d="M246.95116,183.15468c0.00123,0.10694 -0.08447,0.19462 -0.1914,0.19585c-0.10694,0.00123 -0.19462,-0.08447 -0.19585,-0.19141c-0.00123,-0.10694 0.08447,-0.19462 0.19141,-0.19585c0.10694,-0.00123 0.19462,0.08447 0.19585,0.19141z" fill="#8d8d8d" stroke="none" stroke-width="0.5"/><path d="M246.95964,183.89231c0.00123,0.10694 -0.08447,0.19462 -0.19141,0.19585c-0.10694,0.00123 -0.19462,-0.08447 -0.19585,-0.19141c-0.00123,-0.10694 0.08447,-0.19462 0.19141,-0.19585c0.10694,-0.00123 0.19462,0.08447 0.19585,0.19141z" fill="#8d8d8d" stroke="none" stroke-width="0.5"/></g><path d="M243.65363,172.34603l-0.07191,-6.26495l1.60732,0.06188l1.47296,2.35284l0.22011,5.17879z" data-paper-data="{&quot;index&quot;:null}" fill="#38c400" stroke="#8f8f8f" stroke-width="0" stroke-linecap="round"/><path d="M246.16247,169.84208v2.47669h-4.41789v-2.47669z" data-paper-data="{&quot;index&quot;:null}" fill="url(#color-2)" stroke="none" stroke-width="0" stroke-linecap="butt"/><path d="M225.22559,175.05949l13.45222,-1.1756l3.74518,-2.6151l4.33588,-0.64537l5.50882,0.42241l5.48804,3.01543l1.01799,2.282l-0.86151,2.2462l-5.46142,2.81395l-5.93326,0.50663l-4.41628,-1.06261l-3.56333,-2.78506l-13.31289,-1.48398" fill="#555555" stroke="#555555" stroke-width="0.5" stroke-linecap="round"/><path d="M252.28163,170.95784l5.4865,3.09286l0.47083,1.02742l-6.51984,-3.13838l-3.04398,-0.25195l-1.04388,-0.96346z" fill="#38c400" stroke="#38c400" stroke-width="0.5" stroke-linecap="round"/><path d="M247.93179,181.90977l1.02206,-0.93715l3.03756,-0.30705l6.44798,-3.12246l-0.44772,0.985l-5.41592,3.05617z" data-paper-data="{&quot;index&quot;:null}" fill="#38c400" stroke="#38c400" stroke-width="0.5" stroke-linecap="round"/><path d="M237.25139,178.00291v-4.06646l3.36362,-0.40163v4.91992z" fill="url(#color-3)" stroke="none" stroke-width="0" stroke-linecap="butt"/><path d="M253.09298,176.90733l-1.86078,2.35094l-4.57593,0.25335l-4.9826,-0.1838l-3.14677,-1.209l-0.95088,-2.35883l1.18221,-1.98167l2.75997,-0.99565l5.17787,-0.30043l4.42497,0.59185z" fill="#38c400" stroke="#8f8f8f" stroke-width="0" stroke-linecap="round"/><path d="M253.77598,177.76008c-0.29887,0.42976 -0.85986,0.83858 -1.44595,1.18831c-0.58609,0.34973 -1.07846,0.31804 -1.07846,0.31804c0,0 0.63912,-1.72669 0.62963,-3.01081c-0.0095,-1.28413 -0.67521,-3.15287 -0.67521,-3.15287c0,0 0.66229,0.07404 1.0609,0.34443c0.39861,0.27039 0.95155,0.38872 1.44772,1.15817c0.49617,0.76945 0.53034,0.91444 0.54346,1.57071c0.01313,0.65628 -0.18321,1.15427 -0.48208,1.58403z" fill="#a5ffff" stroke="#8f8f8f" stroke-width="0.5" stroke-linecap="round"/><path d="M226.6323,175.96595l-0.04739,2.42758l-0.66448,1.11767l-0.75204,0.04626l-0.03369,-2.93464z" fill="#555555" stroke="#8f8f8f" stroke-width="0" stroke-linecap="round"/><path d="M225.15602,174.98173l-0.03369,-2.93464l0.7529,0.02899l0.68997,1.10212l0.10311,2.42585z" data-paper-data="{&quot;index&quot;:null}" fill="#555555" stroke="#8f8f8f" stroke-width="0" stroke-linecap="round"/><path d="M225.32088,176.60617l-2.92714,-0.21228l0.09196,-0.74783l1.15605,-0.59521l2.42597,0.10049z" data-paper-data="{&quot;index&quot;:null}" fill="#555555" stroke="#8f8f8f" stroke-width="0" stroke-linecap="round"/><g stroke-linecap="butt"><path d="M246.43832,170.70114l-0.66387,0.00762l-0.02921,-2.54483l0.66387,-0.00762z" fill="#8d8d8d" stroke="none" stroke-width="0"/><path d="M247.28702,170.72828l-0.98105,0.01126l-0.02964,-2.58171l0.98105,-0.01126z" fill="#b7b7b7" stroke="#000000" stroke-width="0"/><path d="M246.97622,168.55555c0.00123,0.10694 -0.08447,0.19462 -0.19141,0.19585c-0.10694,0.00123 -0.19462,-0.08447 -0.19585,-0.19141c-0.00123,-0.10694 0.08447,-0.19462 0.1914,-0.19585c0.10694,-0.00123 0.19462,0.08447 0.19585,0.19141z" fill="#8d8d8d" stroke="none" stroke-width="0.5"/><path d="M247.02325,169.44029c0.00123,0.10694 -0.08447,0.19462 -0.19141,0.19585c-0.10694,0.00123 -0.19462,-0.08447 -0.19585,-0.19141c-0.00123,-0.10694 0.08447,-0.19462 0.19141,-0.19585c0.10694,-0.00123 0.19462,0.08447 0.19585,0.19141z" fill="#8d8d8d" stroke="none" stroke-width="0.5"/><path d="M247.03172,170.17792c0.00123,0.10694 -0.08447,0.19462 -0.1914,0.19585c-0.10694,0.00123 -0.19462,-0.08447 -0.19585,-0.19141c-0.00123,-0.10694 0.08447,-0.19462 0.19141,-0.19585c0.10694,-0.00123 0.19462,0.08447 0.19585,0.19141z" fill="#8d8d8d" stroke="none" stroke-width="0.5"/></g><path d="M226.6585,176.74632v-1.8208l1.5061,-0.17983v2.20295z" fill="url(#color-4)" stroke="none" stroke-width="0" stroke-linecap="butt"/><path d="M240.06336,174.78088c0.07132,0.03566 0.11432,0.08076 0.139,0.12781c0.42082,0.10192 0.87663,0.10119 1.22546,0.38001c0.29903,0.23902 0.37928,0.76081 0.81639,0.86597c0.37602,0.09046 0.81402,0.30849 0.94576,0.67211c0.06185,0.17072 0.00943,0.36305 0.01093,0.54463c0.015,1.8084 -1.73823,1.15369 -2.74419,0.46116c-1.57976,-0.39494 -2.01358,-1.62169 -0.83389,-2.80958l0.03642,-0.1074c0,0 0.13471,-0.26942 0.40413,-0.13471z" fill="#22ff00" stroke="none" stroke-width="0.5" stroke-linecap="butt"/><path d="M246.91997,175.25491c-0.08814,-0.02447 -0.14814,-0.08446 -0.14814,-0.08446l-0.24211,-0.26397c-0.17304,-0.36096 -0.45422,-1.27772 -0.12926,-1.64753c0.54817,-0.62384 2.33862,0.43763 2.72507,0.81565c0.51289,0.35889 0.36914,1.00611 0.75966,1.31476c0.07768,0.0614 0.86004,0.47508 0.88396,0.52387c0.10834,0.22093 0.09816,0.50386 0.02206,0.73785c-0.28336,0.87125 -2.35503,0.84318 -2.96792,0.40264c-0.53693,-0.38594 -0.53464,-1.25705 -0.90331,-1.79882z" fill="#22ff00" stroke="none" stroke-width="0.5" stroke-linecap="butt"/><path d="M253.08465,180.82525c0.16708,0.25063 -0.08355,0.41772 -0.08355,0.41772l-0.32376,0.21053c-0.26353,0.06874 -0.52734,0.13639 -0.79156,0.20244c0,0 -0.29223,0.07306 -0.36528,-0.21917c-0.07306,-0.29223 0.21917,-0.36528 0.21917,-0.36528c0.23097,-0.05774 0.46224,-0.11427 0.69395,-0.16893l0.2333,-0.16085c0,0 0.25063,-0.16709 0.41772,0.08354z" fill="#22ff00" stroke="none" stroke-width="0.5" stroke-linecap="butt"/><path d="M251.67842,171.12868c0.08919,-0.09337 0.22716,-0.09337 0.22716,-0.09337l0.1659,0.00899c0.73265,0.19111 1.51051,0.52783 2.08877,1.04179l0.04783,-0.07175l0.27464,0.1831c0.08304,0.05363 0.13802,0.14701 0.13802,0.25322c0,0.16636 -0.13486,0.30122 -0.30122,0.30122c-0.02238,0 -0.04419,-0.00244 -0.06518,-0.00707l-0.43613,-0.08723c-1.0272,0.00068 -1.28781,-0.58015 -2.21021,-0.94854c0,0 -0.27968,-0.11187 -0.1678,-0.39155c0.05604,-0.14011 0.1542,-0.18195 0.23821,-0.18882z" fill="#22ff00" stroke="none" stroke-width="0.5" stroke-linecap="butt"/><path d="M244.11114,167.28349c-0.04107,-0.08177 -0.06706,-0.20987 0.06105,-0.33797c0.21299,-0.21299 0.42599,0 0.42599,0l0.27392,0.39868c-0.00051,0.1718 -0.03059,0.34194 -0.07925,0.50862l0.0734,0.01468l-0.09175,0.45875c-0.02529,0.14079 -0.1484,0.24762 -0.29646,0.24762c-0.14335,0 -0.26331,-0.10014 -0.29375,-0.23428c-0.03095,-0.12379 -0.15321,-0.61285 -0.18416,-0.73664c0,0 -0.05282,-0.21129 0.11103,-0.31946z" fill="#22ff00" stroke="none" stroke-width="0.5" stroke-linecap="butt"/><path d="M244.1641,185.00988c-0.10203,-0.43873 -0.26111,-1.35208 0.52928,-1.30351c0.7589,0.04663 0.47233,0.87936 0.15477,1.39039c0.02446,0.06293 0.08452,0.27221 -0.14259,0.38576c-0.09685,0.04842 -0.17629,0.04463 -0.23832,0.0199c-0.08797,0.02771 -0.22704,0.03626 -0.33271,-0.12223c-0.11429,-0.17144 -0.03313,-0.30379 0.02956,-0.37031z" fill="#22ff00" stroke="none" stroke-width="0.5" stroke-linecap="butt"/><path d="M235.46536,175.37192l0.02946,0.04976c0,0.92804 0.10927,1.42717 -0.82542,1.87777c-0.98969,-0.20703 -1.71278,-0.68365 -2.64417,-1.0382c-0.19041,-0.07249 -0.85679,-0.39622 -0.84662,-0.65389c0.01758,-0.44538 0.74577,-0.5485 1.01429,-0.57829c1.01998,-0.11314 2.01453,-0.29435 3.05977,-0.08846c0,0 0.29537,0.05908 0.2363,0.35445c-0.00578,0.02888 -0.01381,0.05437 -0.02361,0.07686z" fill="#606060" stroke="none" stroke-width="0.5" stroke-linecap="butt"/><path d="M225.16944,176.08531c-0.06085,0.02201 -0.13772,0.0236 -0.23059,-0.02284c-0.26942,-0.13471 -0.13471,-0.40413 -0.13471,-0.40413l0.19517,-0.30161c0.16705,-0.11137 0.69933,-0.50057 0.86629,-0.38633c0.40249,0.27541 0.08603,1.16582 -0.25051,1.29946c-0.15038,0.05972 -0.29758,-0.09178 -0.44566,-0.18456z" fill="#606060" stroke="none" stroke-width="0.5" stroke-linecap="butt"/><g stroke-width="2" stroke-linecap="butt"><path d="M242.58688,177.30787v-2.54363c0,0 -0.02239,0 0.14503,0c0.45719,0 2.89618,0 3.83776,0c0.25461,0 0.23428,0 0.23428,0v2.54363c0,0 0.04637,0 -0.23428,0c-0.96214,0 -3.36851,0 -3.83776,0c-0.18746,0 -0.14503,0 -0.14503,0z" fill="#009ed8" stroke="#247e00"/><path d="M243.25624,177.30787v-2.54363c0,0 -0.02239,0 0.14503,0c0.45719,0 2.89618,0 3.83776,0c0.25461,0 0.23428,0 0.23428,0v2.54363c0,0 0.04637,0 -0.23428,0c-0.96214,0 -3.36851,0 -3.83776,0c-0.18746,0 -0.14503,0 -0.14503,0z" fill="#2ea100" stroke="#2ea100"/></g></g><g stroke="none" stroke-width="0" stroke-linecap="butt"><path d="M252.97084,187.16246l-6.94674,-10.58991l13.36312,-8.66759c0,0 1.65937,3.87075 1.80752,6.02523c0.14846,2.15899 -0.91766,6.91522 -0.91766,6.91522z" data-paper-data="{&quot;index&quot;:null}" fill="url(#color-5)"/><path d="M235.16408,183.00258l10.6532,-6.84927l7.91944,12.29672c0,0 -4.85187,1.97386 -7.28561,2.15152c-2.40915,0.17587 -7.24377,-1.09086 -7.24377,-1.09086z" data-paper-data="{&quot;index&quot;:null}" fill="url(#color-6)"/><g><path d="M242.37256,190.36943c-8.27742,-1.6655 -13.78831,-9.2997 -11.89461,-18.07172c1.8937,-8.77201 9.70154,-13.7795 18.39316,-12.03066c8.69162,1.74884 13.73485,9.39656 11.85239,18.11636c-1.88245,8.71981 -10.07355,13.65151 -18.35096,11.98601z" fill="url(#color-7)"/><path d="M255.65199,177.27902c-1.25543,5.81537 -6.71822,9.10439 -12.23854,7.99366c-5.52033,-1.11076 -9.19565,-6.20212 -7.93269,-12.05232c1.26296,-5.8502 6.47011,-9.18977 12.26668,-8.02343c5.79657,1.16633 9.15998,6.26671 7.90457,12.08209z" fill="url(#color-8)"/><path d="M239.31948,166.03181l6.94674,10.58989l-12.87141,8.51675c0,0 -2.25588,-4.09527 -2.74571,-6.46495c-0.41768,-2.02069 0.07901,-7.00637 0.07901,-7.00637z" fill="url(#color-9)"/><path d="M256.85127,169.9581l-10.6532,6.84927l-9.49723,-14.47419c0,0 4.90906,-2.07291 7.29243,-2.40649c2.2736,-0.31821 6.69392,0.44901 6.69392,0.44901z" data-paper-data="{&quot;index&quot;:null}" fill="url(#color-10)"/></g></g></g></g></svg>