<svg version="1.1" xmlns="http://www.w3.org/2000/svg" xmlns:xlink="http://www.w3.org/1999/xlink" width="346.26682" height="291.45357" viewBox="0,0,346.26682,291.45357"><defs><radialGradient cx="240.97343" cy="178.98317" r="150.52682" gradientUnits="userSpaceOnUse" id="color-1"><stop offset="0" stop-color="#d1b7a0"/><stop offset="1" stop-color="#d1b7a0" stop-opacity="0"/></radialGradient><radialGradient cx="240.91636" cy="179.01188" r="106.14645" gradientUnits="userSpaceOnUse" id="color-2"><stop offset="0" stop-color="#de9d64"/><stop offset="1" stop-color="#de9d64" stop-opacity="0"/></radialGradient><linearGradient x1="342.39025" y1="296.20139" x2="318.94645" y2="179.79751" gradientUnits="userSpaceOnUse" id="color-3"><stop offset="0" stop-color="#d1b7a0" stop-opacity="0"/><stop offset="1" stop-color="#d1b7a0"/></linearGradient><linearGradient x1="275.53303" y1="111.01967" x2="289.03375" y2="146.95403" gradientUnits="userSpaceOnUse" id="color-4"><stop offset="0" stop-color="#d1b7a0" stop-opacity="0"/><stop offset="1" stop-color="#d1b7a0"/></linearGradient><linearGradient x1="314.51238" y1="139.93017" x2="307.36091" y2="211.44317" gradientUnits="userSpaceOnUse" id="color-5"><stop offset="0" stop-color="#d1b7a0" stop-opacity="0"/><stop offset="1" stop-color="#d1b7a0"/></linearGradient><linearGradient x1="248.50087" y1="62.69743" x2="209.81052" y2="123.26397" gradientUnits="userSpaceOnUse" id="color-6"><stop offset="0" stop-color="#d1b7a0" stop-opacity="0"/><stop offset="1" stop-color="#d1b7a0"/></linearGradient><radialGradient cx="240.68518" cy="179.00828" r="74.00501" gradientUnits="userSpaceOnUse" id="color-7"><stop offset="0" stop-color="#ff7800"/><stop offset="1" stop-color="#ff7800" stop-opacity="0"/></radialGradient><radialGradient cx="240.10125" cy="179.99113" r="78.88059" gradientUnits="userSpaceOnUse" id="color-8"><stop offset="0" stop-color="#dd8b44"/><stop offset="1" stop-color="#dd8b44" stop-opacity="0"/></radialGradient><linearGradient x1="213.57499" y1="120.60036" x2="202.56643" y2="149.90141" gradientUnits="userSpaceOnUse" id="color-9"><stop offset="0" stop-color="#d1b7a0" stop-opacity="0"/><stop offset="1" stop-color="#d1b7a0"/></linearGradient><linearGradient x1="123.6097" y1="76.50984" x2="147.05348" y2="192.91372" gradientUnits="userSpaceOnUse" id="color-10"><stop offset="0" stop-color="#d1b7a0" stop-opacity="0"/><stop offset="1" stop-color="#d1b7a0"/></linearGradient><radialGradient cx="240.07718" cy="180.00673" r="60.14765" gradientUnits="userSpaceOnUse" id="color-11"><stop offset="0" stop-color="#ff7800" stop-opacity="0"/><stop offset="1" stop-color="#ff7800"/></radialGradient><radialGradient cx="239.94728" cy="179.99547" r="41.0119" gradientUnits="userSpaceOnUse" id="color-12"><stop offset="0" stop-color="#ffb500" stop-opacity="0"/><stop offset="1" stop-color="#ffb500"/></radialGradient><radialGradient cx="240.74752" cy="179.00288" r="25.45997" gradientUnits="userSpaceOnUse" id="color-13"><stop offset="0" stop-color="#ffca00" stop-opacity="0"/><stop offset="1" stop-color="#ffca00"/></radialGradient><radialGradient cx="289.30509" cy="240.91625" r="7.54604" gradientUnits="userSpaceOnUse" id="color-14"><stop offset="0" stop-color="#fcd900"/><stop offset="1" stop-color="#fcd900" stop-opacity="0"/></radialGradient><radialGradient cx="304.39718" cy="158.49024" r="5.22418" gradientUnits="userSpaceOnUse" id="color-15"><stop offset="0" stop-color="#fcd900"/><stop offset="1" stop-color="#fcd900" stop-opacity="0"/></radialGradient><radialGradient cx="245.18976" cy="56.32842" r="6.38511" gradientUnits="userSpaceOnUse" id="color-16"><stop offset="0" stop-color="#fcd900"/><stop offset="1" stop-color="#fcd900" stop-opacity="0"/></radialGradient><radialGradient cx="141.86701" cy="165.45582" r="6.38511" gradientUnits="userSpaceOnUse" id="color-17"><stop offset="0" stop-color="#fcd900"/><stop offset="1" stop-color="#fcd900" stop-opacity="0"/></radialGradient><radialGradient cx="185.98234" cy="249.04276" r="2.90232" gradientUnits="userSpaceOnUse" id="color-18"><stop offset="0" stop-color="#fcd900"/><stop offset="1" stop-color="#fcd900" stop-opacity="0"/></radialGradient><radialGradient cx="266.0865" cy="269.35903" r="4.06325" gradientUnits="userSpaceOnUse" id="color-19"><stop offset="0" stop-color="#fcd900"/><stop offset="1" stop-color="#fcd900" stop-opacity="0"/></radialGradient><radialGradient cx="182.49955" cy="108.57026" r="3.48279" gradientUnits="userSpaceOnUse" id="color-20"><stop offset="0" stop-color="#fcd900"/><stop offset="1" stop-color="#fcd900" stop-opacity="0"/></radialGradient><radialGradient cx="288.14416" cy="112.05305" r="3.48279" gradientUnits="userSpaceOnUse" id="color-21"><stop offset="0" stop-color="#fcd900"/><stop offset="1" stop-color="#fcd900" stop-opacity="0"/></radialGradient><radialGradient cx="342.70786" cy="210.73208" r="3.48279" gradientUnits="userSpaceOnUse" id="color-22"><stop offset="0" stop-color="#fcd900"/><stop offset="1" stop-color="#fcd900" stop-opacity="0"/></radialGradient><radialGradient cx="244.98124" cy="173.00163" r="14.61411" gradientUnits="userSpaceOnUse" id="color-23"><stop offset="0" stop-color="#ffca00"/><stop offset="1" stop-color="#ffca00" stop-opacity="0"/></radialGradient><radialGradient cx="234.98124" cy="184.00163" r="14.61411" gradientUnits="userSpaceOnUse" id="color-24"><stop offset="0" stop-color="#ffca00"/><stop offset="1" stop-color="#ffca00" stop-opacity="0"/></radialGradient><radialGradient cx="243.98124" cy="188.00164" r="14.61411" gradientUnits="userSpaceOnUse" id="color-25"><stop offset="0" stop-color="#ffca00"/><stop offset="1" stop-color="#ffca00" stop-opacity="0"/></radialGradient></defs><g transform="translate(-59.8666,-33.27322)"><g data-paper-data="{&quot;isPaintingLayer&quot;:true}" fill-rule="nonzero" stroke-linejoin="miter" stroke-miterlimit="10" stroke-dasharray="" stroke-dashoffset="0" style="mix-blend-mode: normal"><path d="M374.48622,247.57871c-16.51371,23.02082 -50.98742,42.39462 -80.51148,53.92866c-16.42626,6.41718 -34.30244,23.18578 -53.00133,23.18578c-28.46217,0 -59.71399,1.41256 -79.41154,-14.06671c-23.28021,-18.29462 -33.28817,-55.88348 -44.65029,-85.52472c-6.20561,-16.18903 -21.64807,-27.74615 -21.64807,-46.11857c0,-19.67119 -3.09369,-41.16397 6.99675,-57.27579c13.50831,-21.56934 43.01338,-36.35689 62.07481,-51.64269c24.94865,-20.00679 42.17058,-36.79144 76.63832,-36.79144c14.24621,0 28.39932,16.7413 41.60276,21.09751c18.39782,6.07001 34.95173,1.69995 47.34422,15.18161c18.35774,19.97118 26.04076,48.02304 35.28235,74.26849c5.33321,15.14607 21.48066,18.19226 21.48066,35.16234c0,28.16582 1.64218,49.30294 -12.19717,68.59559z" data-paper-data="{&quot;index&quot;:null}" fill="url(#color-1)" stroke="none" stroke-width="0" stroke-linecap="butt"/><path d="M343.66611,179.01188c0,11.96672 -11.38663,14.11482 -15.14744,24.79528c-6.5168,18.50743 -11.93464,38.28865 -24.87986,52.37162c-8.73879,9.50681 -20.41202,6.42512 -33.38554,10.70553c-9.31062,3.07184 -19.29094,14.87726 -29.33687,14.87726c-24.30547,0 -36.44985,-11.83596 -54.04278,-25.94404c-13.44153,-10.77904 -34.24747,-21.20672 -43.77309,-36.41671c-7.11543,-11.36152 -4.93385,-26.51747 -4.93385,-40.38895c0,-12.95559 10.88946,-21.10533 15.26548,-32.52124c8.01221,-20.90199 15.06952,-47.40839 31.48592,-60.30912c13.89006,-10.91541 35.92781,-9.91938 55.99837,-9.91938c13.18581,0 25.79151,11.8247 37.37475,16.34984c20.81935,8.13342 45.12902,21.79516 56.77395,38.02867c9.75908,13.60452 8.60107,28.50972 8.60107,48.37129z" fill="url(#color-2)" stroke="none" stroke-width="0" stroke-linecap="butt"/><path d="M257.71577,205.11027c-0.09349,-0.99705 -0.15537,-1.9315 -0.18734,-2.80609c-0.41987,-11.47738 4.30684,-12.65216 10.32587,-9.88735c4.47992,-0.11278 8.5776,2.63674 10.16658,6.83504c5.5682,4.55926 10.53718,9.54032 12.24534,10.54919c1.86712,1.10276 5.72098,9.48978 7.95175,11.81331c0.05189,0.05405 10.32563,-4.75424 12.74249,-2.71479c5.45752,4.60532 6.77819,8.57734 5.17769,15.22998c-0.30195,1.25512 -2.48963,2.58721 -1.60299,3.52548c9.77272,10.34157 22.73076,11.2046 31.29045,17.50133c5.09843,3.75057 9.94267,13.53812 14.93264,16.41231c11.67224,6.72314 45.37517,11.79487 45.37517,11.79487c0,0 -21.25977,-1.53918 -33.21115,-1.98994c-14.78907,-0.55777 -21.41053,-1.14031 -25.83952,-3.14669c-5.53307,-2.50651 -16.88892,-9.55363 -21.54853,-13.52198c-10.20529,-8.69123 -17.14758,-2.90136 -28.56022,-10.48758c-4.60299,-3.05971 -5.15565,-5.53791 -5.55297,-10.17457c-0.17192,-2.00639 -29.08285,-29.10078 -32.61792,-35.94032z" data-paper-data="{&quot;index&quot;:null}" fill="url(#color-3)" stroke="none" stroke-width="0.5" stroke-linecap="butt"/><path d="M267.69502,149.48936c-0.20162,-2.48079 3.08755,-14.86053 2.7912,-15.44016c-0.68488,-1.33952 -0.95763,-2.1137 -0.21924,-3.74084c1.83077,-4.03429 4.72579,-3.63517 6.03625,-7.76576c0.59834,-1.88599 2.50583,-5.76268 3.59397,-7.39736c0.87103,-1.30847 2.58705,-2.60189 6.54703,-5.28689c3.20016,-2.1698 8.76653,-6.23177 8.76653,-6.23177c0,0 -8.37375,7.16109 -10.42348,11.00314c-0.87627,1.64251 -0.52894,5.15586 -1.28493,7.05723c-1.26919,3.19223 -4.67482,5.64744 -5.58412,10.15651c-0.0825,0.40907 0.74547,0.39984 1.04315,0.69232c1.5779,1.55028 1.89579,2.86563 1.18769,5.06287c-0.31358,0.97306 -3.9541,1.41348 -3.95908,1.43716c-0.21394,1.01908 0.16521,3.97881 -0.15798,4.60088c-0.29569,0.56912 -0.80548,2.78576 -1.5518,4.98933c0.28308,1.42331 -0.36985,2.87884 -1.61769,3.61495c-1.17716,1.78871 -2.6745,2.27583 -4.5244,-0.94342c-0.14096,-0.2453 -0.28399,-0.51213 -0.42904,-0.80158z" data-paper-data="{&quot;index&quot;:null}" fill="url(#color-4)" stroke="none" stroke-width="0.5" stroke-linecap="butt"/><path d="M269.44236,197.99578c1.7197,-4.33108 17.51058,-22.38065 17.49402,-23.59937c-0.03826,-2.81644 0.14622,-4.34212 2.73544,-6.46054c6.41963,-5.25239 10.94754,-2.18077 16.57383,-8.02642c2.56892,-2.66904 8.98659,-7.59333 12.16909,-9.43424c2.54745,-1.4736 6.50066,-2.22084 15.37463,-3.44215c7.17128,-0.98694 19.8838,-3.18673 19.8838,-3.18673c0,0 -19.99549,5.07231 -26.62315,9.82039c-2.83338,2.02985 -5.16509,8.21485 -8.01133,10.77902c-4.7785,4.30492 -12.53138,5.60045 -17.79834,12.41419c-0.47785,0.6182 0.91953,1.28953 1.17653,2.02741c1.36222,3.91104 0.80458,6.38243 -2.20674,9.4829c-1.33357,1.37303 -7.80924,-0.90795 -7.83726,-0.87226c-1.2045,1.53298 -3.02355,6.81516 -4.0821,7.59111c-0.96842,0.7099 -3.66298,4.00742 -6.74377,7.08678c-0.70568,2.62374 -3.00911,4.5251 -5.7141,4.72534c-3.45971,2.02559 -6.37691,1.60098 -6.81112,-5.33694c-0.03309,-0.5287 -0.05175,-1.0952 -0.05517,-1.70134z" data-paper-data="{&quot;index&quot;:null}" fill="url(#color-5)" stroke="none" stroke-width="0.5" stroke-linecap="butt"/><path d="M247.12337,137.96008c-0.37818,0.47367 -0.74377,0.90685 -1.09729,1.30134c-4.63905,5.1771 -7.19205,3.7031 -8.65293,-0.03031c-1.99928,-1.83304 -2.62949,-4.75256 -1.55796,-7.24931c-0.5106,-4.32583 -0.58284,-8.58372 -0.90324,-9.74091c-0.35019,-1.26491 1.4943,-6.53823 1.49855,-8.4878c0.00008,-0.04535 -6.49626,-2.26667 -6.69247,-4.17066c-0.44301,-4.29936 0.65035,-6.58486 4.14265,-8.81102c0.65887,-0.41999 2.17168,-0.08129 2.17958,-0.86258c0.08683,-8.61164 -5.19639,-14.4317 -6.2804,-20.77138c-0.64565,-3.77613 1.35576,-10.07577 0.38917,-13.42449c-2.26102,-7.83312 -14.81455,-24.20252 -14.81455,-24.20252c0,0 8.61618,9.60253 13.63403,14.82005c6.20923,6.45635 8.84945,9.49201 9.93626,12.22696c1.35768,3.41669 3.3447,11.25806 3.70771,14.94471c0.79498,8.07434 6.25225,8.46834 8.03752,16.56845c0.72004,3.26697 -0.08034,4.57889 -1.85525,6.76603c-0.76806,0.94641 0.44527,24.89775 -0.88801,29.36292z" data-paper-data="{&quot;index&quot;:null}" fill="url(#color-6)" stroke="none" stroke-width="0.5" stroke-linecap="butt"/><path d="M175.04493,145.28398c8.1188,-11.31796 25.06746,-20.84289 39.58268,-26.51346c8.0758,-3.15494 16.86448,-11.39904 26.05759,-11.39904c13.99315,0 29.35778,-0.69446 39.04192,6.91574c11.44549,8.99435 16.3658,27.47454 21.95188,42.04737c3.05092,7.95917 10.64304,13.64113 10.64304,22.67375c0,9.67114 1.52098,20.23787 -3.43987,28.15909c-6.64124,10.60434 -21.14711,17.87451 -30.51847,25.38961c-12.26575,9.83613 -20.73275,18.08814 -37.67849,18.08814c-7.00401,0 -13.96226,-8.23068 -20.45357,-10.3724c-9.04511,-2.98426 -17.18368,-0.83574 -23.27633,-7.46388c-9.02539,-9.81863 -12.80268,-23.61005 -17.34619,-36.51335c-2.62201,-7.4464 -10.56072,-8.94406 -10.56072,-17.28721c0,-13.84747 -0.80736,-24.2393 5.9966,-33.72434z" data-paper-data="{&quot;index&quot;:null}" fill="url(#color-7)" stroke="none" stroke-width="0" stroke-linecap="butt"/><path d="M310.06598,215.93728c-8.65368,12.0636 -26.71897,22.21606 -42.19044,28.26024c-8.60784,3.36276 -17.97553,12.15004 -27.77429,12.15004c-14.91502,0 -31.2919,0.74019 -41.61403,-7.37137c-12.19952,-9.58692 -17.44399,-29.28463 -23.3981,-44.8175c-3.25192,-8.48355 -11.34422,-14.53983 -11.34422,-24.16753c0,-10.30831 -1.62119,-21.57114 3.6665,-30.01422c7.07874,-11.30299 22.54031,-19.05211 32.52909,-27.06234c13.07381,-10.48416 22.09865,-19.27979 40.1608,-19.27979c7.46546,0 14.88212,8.7729 21.8011,11.05571c9.64102,3.18088 18.31576,0.89084 24.80978,7.9556c9.61998,10.4655 13.64615,25.16552 18.489,38.91892c2.79478,7.93698 11.2565,9.5333 11.2565,18.42614c0,14.75974 0.86053,25.8362 -6.39169,35.94613z" data-paper-data="{&quot;index&quot;:null}" fill="url(#color-8)" stroke="none" stroke-width="0" stroke-linecap="butt"/><path d="M219.79157,152.7896c-0.1183,0.23601 -0.2349,0.45359 -0.34987,0.6536c-1.50843,2.62499 -2.72933,2.22779 -3.68923,0.76927c-1.01746,-0.60021 -1.54985,-1.78707 -1.31906,-2.94765c-0.60857,-1.79682 -1.02427,-3.60429 -1.26536,-4.06834c-0.26354,-0.50722 0.04558,-2.9206 -0.12885,-3.7516c-0.00405,-0.01932 -2.97257,-0.37845 -3.22824,-1.1719c-0.57738,-1.79166 -0.31816,-2.86418 0.96847,-4.12831c0.24274,-0.2385 0.91788,-0.23092 0.8506,-0.56453c-0.74146,-3.67676 -3.51839,-5.67872 -4.55332,-8.28167c-0.61642,-1.55041 -0.3332,-4.41522 -1.04773,-5.75451c-1.67134,-3.1328 -8.49938,-8.972 -8.49938,-8.972c0,0 4.53885,3.31214 7.14829,5.08144c3.229,2.18936 4.62824,3.244 5.33849,4.31094c0.88728,1.33291 2.44265,4.49401 2.93056,6.03184c1.06859,3.3681 3.42918,3.04265 4.92197,6.33223c0.60209,1.32677 0.37969,1.95807 -0.17877,3.0503c-0.24167,0.47264 2.44037,10.56712 2.27597,12.58999z" data-paper-data="{&quot;index&quot;:null}" fill="url(#color-9)" stroke="none" stroke-width="0.5" stroke-linecap="butt"/><path d="M208.28419,167.60097c0.09349,0.99705 0.15537,1.9315 0.18734,2.80609c0.41987,11.47738 -4.30683,12.65216 -10.32583,9.88735c-4.47992,0.11278 -8.5776,-2.63674 -10.16656,-6.83504c-5.56823,-4.55926 -10.53718,-9.54032 -12.24531,-10.54919c-1.86712,-1.10276 -5.72098,-9.48978 -7.95176,-11.81328c-0.05193,-0.05406 -10.32562,4.75424 -12.74248,2.71479c-5.45753,-4.6053 -6.77819,-8.57736 -5.1777,-15.22998c0.30197,-1.25512 2.48964,-2.58718 1.60299,-3.52546c-9.77272,-10.34157 -22.73075,-11.2046 -31.29043,-17.50133c-5.09843,-3.75057 -9.94267,-13.53812 -14.93266,-16.41232c-11.67225,-6.72314 -45.37517,-11.79486 -45.37517,-11.79486c0,0 21.25977,1.5392 33.21117,1.98994c14.78907,0.55777 21.41053,1.14031 25.83953,3.14669c5.53306,2.50651 16.8889,9.55364 21.54852,13.52198c10.20528,8.69123 17.14758,2.90136 28.56022,10.48762c4.60299,3.05972 5.15565,5.53789 5.55297,10.17457c0.17192,2.00639 29.08282,29.10078 32.61788,35.94032z" fill="url(#color-10)" stroke="none" stroke-width="0.5" stroke-linecap="butt"/><path d="M298.30007,180.00673c0,6.78092 -6.4522,7.99813 -8.58326,14.0502c-3.69273,10.4872 -6.76272,21.69618 -14.09813,29.67628c-4.95182,5.38703 -11.56643,3.64079 -18.91784,6.06626c-5.27587,1.74066 -10.93116,8.43017 -16.62367,8.43017c-13.77264,0 -20.65421,-6.70682 -30.62322,-14.70114c-7.61661,-6.10793 -19.40627,-12.01673 -24.80393,-20.63543c-4.03194,-6.438 -2.79575,-15.02606 -2.79575,-22.88633c0,-7.34127 6.17049,-11.95929 8.65016,-18.4281c4.54009,-11.84406 8.5391,-26.86388 17.84143,-34.17402c7.87079,-6.18519 20.35843,-5.62082 31.73137,-5.62082c7.47169,0 14.6147,6.70043 21.17833,9.26459c11.79724,4.60878 25.57228,12.35016 32.17082,21.54885c5.52997,7.70896 4.87377,16.15497 4.87377,27.40948z" fill="url(#color-11)" stroke="none" stroke-width="0" stroke-linecap="butt"/><path d="M200.24779,179.99547c0,-4.62362 4.39944,-5.45357 5.85252,-9.58019c2.51793,-7.15074 4.61119,-14.79361 9.61288,-20.23489c3.37638,-3.67317 7.88665,-2.48249 12.89922,-4.13632c3.59733,-1.18688 7.45343,-5.74814 11.33489,-5.74814c9.39092,0 14.08314,4.57306 20.88056,10.02405c5.19341,4.1647 13.23222,8.19365 16.91266,14.07033c2.74918,4.38975 1.90631,10.24563 1.90631,15.60514c0,5.00564 -4.20742,8.15444 -5.89814,12.56524c-3.09568,8.07594 -5.82237,18.31723 -12.16521,23.30171c-5.36674,4.21741 -13.88148,3.83253 -21.63614,3.83253c-5.09461,0 -9.96506,-4.56871 -14.44048,-6.31707c-8.044,-3.14251 -17.43655,-8.42099 -21.93583,-14.69314c-3.77061,-5.25638 -3.32317,-11.0153 -3.32317,-18.68927z" data-paper-data="{&quot;index&quot;:null}" fill="url(#color-12)" stroke="none" stroke-width="0" stroke-linecap="butt"/><path d="M218.16529,167.40069c2.79312,-3.89371 8.62399,-7.1706 13.61765,-9.12144c2.77833,-1.0854 5.8019,-3.92161 8.96458,-3.92161c4.81406,0 10.09996,-0.23891 13.4316,2.37923c3.93761,3.09434 5.63031,9.45208 7.5521,14.46557c1.04963,2.73818 3.66154,4.69295 3.66154,7.80045c0,3.32719 0.52328,6.96243 -1.18343,9.68756c-2.28477,3.64823 -7.27523,6.14936 -10.49929,8.73479c-4.21979,3.38394 -7.13268,6.22287 -12.96252,6.22287c-2.40959,0 -4.80346,-2.8316 -7.03666,-3.56843c-3.11179,-1.02668 -5.9117,-0.28754 -8.00775,-2.56781c-3.10499,-3.37791 -4.40451,-8.12256 -5.96763,-12.56169c-0.90207,-2.5618 -3.63321,-3.077 -3.63321,-5.94734c0,-4.76391 -0.27776,-8.33905 2.06301,-11.60217z" data-paper-data="{&quot;index&quot;:null}" fill="url(#color-13)" stroke="none" stroke-width="0" stroke-linecap="butt"/><path d="M280.01765,230.46788l15.09209,15.09209" fill="none" stroke="url(#color-14)" stroke-width="2.5" stroke-linecap="round"/><path d="M297.4316,160.8121l10.44837,-2.32186" fill="none" stroke="url(#color-15)" stroke-width="1.5" stroke-linecap="round"/><path d="M246.35069,63.294l-1.16093,-12.77023" fill="none" stroke="url(#color-16)" stroke-width="2" stroke-linecap="round"/><path d="M137.2233,165.45582l12.77023,1.16093" fill="none" stroke="url(#color-17)" stroke-width="2" stroke-linecap="round"/><path d="M184.82141,250.20369l4.64372,-5.80465" fill="none" stroke="url(#color-18)" stroke-width="4" stroke-linecap="round"/><path d="M266.0865,265.29577v8.12651" fill="none" stroke="url(#color-19)" stroke-width="4" stroke-linecap="round"/><path d="M185.98234,108.57026l-6.96558,-6.96558" fill="none" stroke="url(#color-20)" stroke-width="2.5" stroke-linecap="round"/><path d="M284.66137,114.37491l5.80465,-6.96558" fill="none" stroke="url(#color-21)" stroke-width="4" stroke-linecap="round"/><path d="M336.90321,209.57115l6.96558,1.16093" fill="none" stroke="url(#color-22)" stroke-width="4" stroke-linecap="round"/><path d="M232.01896,166.34194c1.60326,-2.235 4.9502,-4.11595 7.81658,-5.23573c1.59477,-0.62302 3.33031,-2.25102 5.1457,-2.25102c2.76329,0 5.79741,-0.13713 7.70978,1.36569c2.2602,1.77616 3.23182,5.42553 4.33493,8.30328c0.60249,1.57172 2.10174,2.69377 2.10174,4.47748c0,1.90982 0.30036,3.99646 -0.67929,5.5607c-1.31147,2.0941 -4.17601,3.52976 -6.02663,5.0138c-2.42218,1.94239 -4.09419,3.57195 -7.44053,3.57195c-1.38311,0 -2.7572,-1.62535 -4.03907,-2.04829c-1.78618,-0.58932 -3.39334,-0.16505 -4.59647,-1.47393c-1.78227,-1.93893 -2.52821,-4.66238 -3.42544,-7.21045c-0.51779,-1.47048 -2.08547,-1.76621 -2.08547,-3.41379c0,-2.7345 -0.15944,-4.78664 1.18417,-6.65968z" data-paper-data="{&quot;index&quot;:null}" fill="url(#color-23)" stroke="none" stroke-width="0" stroke-linecap="butt"/><path d="M222.01896,177.34193c1.60325,-2.23501 4.9502,-4.11595 7.81658,-5.23574c1.59477,-0.62303 3.33031,-2.25101 5.1457,-2.25101c2.76328,0 5.79742,-0.13713 7.70978,1.36569c2.2602,1.77616 3.23182,5.42552 4.33493,8.30328c0.60249,1.57172 2.10173,2.69377 2.10173,4.47749c0,1.90982 0.30036,3.99646 -0.67929,5.56069c-1.31146,2.0941 -4.17601,3.52975 -6.02662,5.0138c-2.42218,1.94239 -4.09419,3.57195 -7.44054,3.57195c-1.38312,0 -2.7572,-1.62535 -4.03906,-2.04829c-1.78618,-0.58932 -3.39334,-0.16505 -4.59647,-1.47394c-1.78227,-1.93893 -2.52821,-4.66237 -3.42544,-7.21045c-0.51779,-1.47048 -2.08548,-1.76621 -2.08548,-3.41379c0,-2.7345 -0.15944,-4.78664 1.18418,-6.65968z" data-paper-data="{&quot;index&quot;:null}" fill="url(#color-24)" stroke="none" stroke-width="0" stroke-linecap="butt"/><path d="M231.01896,181.34194c1.60325,-2.23501 4.9502,-4.11595 7.81658,-5.23574c1.59477,-0.62303 3.33031,-2.25101 5.1457,-2.25101c2.76328,0 5.79742,-0.13713 7.70979,1.36569c2.2602,1.77616 3.23181,5.42552 4.33493,8.30328c0.60249,1.57172 2.10174,2.69377 2.10174,4.47749c0,1.90982 0.30036,3.99646 -0.67929,5.56069c-1.31146,2.0941 -4.17601,3.52975 -6.02662,5.0138c-2.42218,1.94239 -4.09419,3.57195 -7.44054,3.57195c-1.38312,0 -2.7572,-1.62535 -4.03906,-2.04829c-1.78618,-0.58932 -3.39334,-0.16505 -4.59647,-1.47394c-1.78227,-1.93893 -2.52821,-4.66237 -3.42544,-7.21045c-0.51779,-1.47048 -2.08548,-1.76621 -2.08548,-3.41379c0,-2.7345 -0.15944,-4.78664 1.18418,-6.65968z" data-paper-data="{&quot;index&quot;:null}" fill="url(#color-25)" stroke="none" stroke-width="0" stroke-linecap="butt"/></g></g></svg>