<svg version="1.1" xmlns="http://www.w3.org/2000/svg" xmlns:xlink="http://www.w3.org/1999/xlink" width="247.3548" height="218.73999" viewBox="0,0,247.3548,218.73999"><defs><linearGradient x1="247.03143" y1="289.85693" x2="246.89914" y2="222.14546" gradientUnits="userSpaceOnUse" id="color-1"><stop offset="0" stop-color="#da0000"/><stop offset="1" stop-color="#b80000"/></linearGradient><linearGradient x1="246.73669" y1="138.98806" x2="246.6044" y2="71.27659" gradientUnits="userSpaceOnUse" id="color-2"><stop offset="0" stop-color="#b80000"/><stop offset="1" stop-color="#da0000"/></linearGradient><linearGradient x1="177.65801" y1="109.43968" x2="177.70428" y2="133.11838" gradientUnits="userSpaceOnUse" id="color-3"><stop offset="0" stop-color="#730000"/><stop offset="1" stop-color="#6b0000"/></linearGradient><linearGradient x1="224.10022" y1="109.42257" x2="224.14628" y2="133.00586" gradientUnits="userSpaceOnUse" id="color-4"><stop offset="0" stop-color="#730000"/><stop offset="1" stop-color="#6b0000"/></linearGradient><linearGradient x1="182.90801" y1="109.42942" x2="182.95426" y2="133.10812" gradientUnits="userSpaceOnUse" id="color-5"><stop offset="0" stop-color="#800000"/><stop offset="1" stop-color="#780000"/></linearGradient><linearGradient x1="229.35022" y1="109.41231" x2="229.39628" y2="132.99561" gradientUnits="userSpaceOnUse" id="color-6"><stop offset="0" stop-color="#800000"/><stop offset="1" stop-color="#780000"/></linearGradient><linearGradient x1="339.60921" y1="177.88549" x2="335.1092" y2="177.89428" gradientUnits="userSpaceOnUse" id="color-7"><stop offset="0" stop-color="#797979"/><stop offset="1" stop-color="#616161"/></linearGradient><linearGradient x1="339.35921" y1="177.88598" x2="343.85922" y2="177.87718" gradientUnits="userSpaceOnUse" id="color-8"><stop offset="0" stop-color="#797979"/><stop offset="1" stop-color="#616161"/></linearGradient><radialGradient cx="266.98729" cy="179.52737" r="60.88835" gradientUnits="userSpaceOnUse" id="color-9"><stop offset="0" stop-color="#bb0000"/><stop offset="1" stop-color="#bb0000" stop-opacity="0"/></radialGradient><linearGradient x1="215.06609" y1="71.69446" x2="215.06609" y2="89.0278" gradientUnits="userSpaceOnUse" id="color-10"><stop offset="0" stop-color="#d30000"/><stop offset="1" stop-color="#c80000"/></linearGradient><linearGradient x1="193.00002" y1="268.69444" x2="193.00002" y2="289.69444" gradientUnits="userSpaceOnUse" id="color-11"><stop offset="0" stop-color="#c80000"/><stop offset="1" stop-color="#d30000"/></linearGradient><linearGradient x1="243.66669" y1="254.36111" x2="243.66669" y2="273.69444" gradientUnits="userSpaceOnUse" id="color-12"><stop offset="0" stop-color="#c50000"/><stop offset="1" stop-color="#c80000"/></linearGradient><linearGradient x1="246.83335" y1="92.27778" x2="246.83335" y2="100.94445" gradientUnits="userSpaceOnUse" id="color-13"><stop offset="0" stop-color="#e1e1e1"/><stop offset="1" stop-color="#ffffff"/></linearGradient><linearGradient x1="246.83335" y1="258.11112" x2="246.83335" y2="266.77779" gradientUnits="userSpaceOnUse" id="color-14"><stop offset="0" stop-color="#e1e1e1"/><stop offset="1" stop-color="#ffffff"/></linearGradient><radialGradient cx="169.66669" cy="128.94445" r="5.83334" gradientUnits="userSpaceOnUse" id="color-15"><stop offset="0" stop-color="#ffffff"/><stop offset="1" stop-color="#ffffff" stop-opacity="0"/></radialGradient><radialGradient cx="169.66669" cy="132.94445" r="5.83334" gradientUnits="userSpaceOnUse" id="color-16"><stop offset="0" stop-color="#ffffff"/><stop offset="1" stop-color="#ffffff" stop-opacity="0"/></radialGradient><radialGradient cx="169.66669" cy="137.27778" r="5.83334" gradientUnits="userSpaceOnUse" id="color-17"><stop offset="0" stop-color="#ffffff"/><stop offset="1" stop-color="#ffffff" stop-opacity="0"/></radialGradient><radialGradient cx="169.66669" cy="141.27778" r="5.83334" gradientUnits="userSpaceOnUse" id="color-18"><stop offset="0" stop-color="#ffffff"/><stop offset="1" stop-color="#ffffff" stop-opacity="0"/></radialGradient><radialGradient cx="169.66669" cy="218.27778" r="5.83334" gradientUnits="userSpaceOnUse" id="color-19"><stop offset="0" stop-color="#ffffff"/><stop offset="1" stop-color="#ffffff" stop-opacity="0"/></radialGradient><radialGradient cx="169.66669" cy="222.27778" r="5.83334" gradientUnits="userSpaceOnUse" id="color-20"><stop offset="0" stop-color="#ffffff"/><stop offset="1" stop-color="#ffffff" stop-opacity="0"/></radialGradient><radialGradient cx="169.66669" cy="226.61111" r="5.83334" gradientUnits="userSpaceOnUse" id="color-21"><stop offset="0" stop-color="#ffffff"/><stop offset="1" stop-color="#ffffff" stop-opacity="0"/></radialGradient><radialGradient cx="169.66669" cy="230.61111" r="5.83334" gradientUnits="userSpaceOnUse" id="color-22"><stop offset="0" stop-color="#ffffff"/><stop offset="1" stop-color="#ffffff" stop-opacity="0"/></radialGradient><linearGradient x1="99.83336" y1="134.77778" x2="253.81689" y2="134.77778" gradientUnits="userSpaceOnUse" id="color-23"><stop offset="0" stop-color="#ffffff" stop-opacity="0"/><stop offset="1" stop-color="#ffffff"/></linearGradient><linearGradient x1="99.83336" y1="225.77778" x2="253.81689" y2="225.77778" gradientUnits="userSpaceOnUse" id="color-24"><stop offset="0" stop-color="#ffffff" stop-opacity="0"/><stop offset="1" stop-color="#ffffff"/></linearGradient></defs><g transform="translate(-99.83335,-71.41049)"><g data-paper-data="{&quot;isPaintingLayer&quot;:true}" fill-rule="nonzero" stroke-linejoin="miter" stroke-miterlimit="10" stroke-dasharray="" stroke-dashoffset="0" style="mix-blend-mode: normal"><path d="M152.1716,231.32236l10.50058,-8.88151l164.97244,-0.3223l-0.03959,53.445l-11.93146,14.00843l-151.92644,0.5785l-11.48137,-10.63311z" data-paper-data="{&quot;index&quot;:null}" fill="#8d0000" stroke="none" stroke-width="0" stroke-linecap="butt"/><path d="M159.17127,231.17785l10.50058,-8.88151l164.97244,-0.3223l-0.03959,53.44501l-11.93146,14.00842l-151.92645,0.5785l-11.48136,-10.63311z" data-paper-data="{&quot;index&quot;:null}" fill="url(#color-1)" stroke="none" stroke-width="0" stroke-linecap="butt"/><path d="M151.88011,82.11718l11.43973,-10.67789l151.92754,-0.01512l11.9861,13.9617l0.24841,53.44444l-164.97244,0.3223l-10.5352,-8.84041z" data-paper-data="{&quot;index&quot;:null}" fill="#8d0000" stroke="none" stroke-width="0" stroke-linecap="butt"/><path d="M158.88007,82.1035l11.43973,-10.67789l151.92754,-0.01512l11.9861,13.9617l0.24841,53.44444l-164.97244,0.3223l-10.5352,-8.84041z" data-paper-data="{&quot;index&quot;:null}" fill="url(#color-2)" stroke="none" stroke-width="0" stroke-linecap="butt"/><g data-paper-data="{&quot;index&quot;:null}" stroke-width="0" stroke-linecap="butt"><path d="M170.89973,109.4529l20.31525,-0.03969l0.04626,23.67868l-19.81525,0.03871l-7.30591,-6.70706l-0.02626,-10.41794z" fill="url(#color-3)" stroke="#000000"/><path d="M190.35029,109.48852l67.49987,-0.13187l0.04607,23.58328l-67.49987,0.13187z" fill="url(#color-4)" stroke="none"/></g><g data-paper-data="{&quot;index&quot;:null}" stroke-width="0" stroke-linecap="butt"><path d="M176.14973,109.44265l20.31525,-0.03969l0.04626,23.67868l-19.81525,0.03871l-7.30591,-6.70706l-0.02626,-10.41794z" fill="url(#color-5)" stroke="#000000"/><path d="M195.60026,109.47826l67.49987,-0.13187l0.04607,23.58328l-67.49987,0.13187z" fill="url(#color-6)" stroke="none"/></g><path d="M139.38133,104.28988l184.62504,-0.36069l12.94347,13.71138l0.23834,121.99977l-13.38964,13.84561l-184.12504,0.35971z" data-paper-data="{&quot;index&quot;:null}" fill="#8d0000" stroke="none" stroke-width="NaN" stroke-linecap="butt"/><path d="M149.38131,104.27035l184.62504,-0.36069l12.94347,13.71138l0.23834,121.99977l-13.38964,13.84561l-184.12504,0.35971z" data-paper-data="{&quot;index&quot;:null}" fill="#da0000" stroke="none" stroke-width="NaN" stroke-linecap="butt"/><path d="M185.77666,242.43615l-16.48201,-0.02313l-8.03358,-7.92899l-0.21197,-108.49979l8.48045,-10.01659l15.99997,-0.03126z" data-paper-data="{&quot;index&quot;:null}" fill="#ba0000" stroke="none" stroke-width="0" stroke-linecap="butt"/><path d="M191.27664,242.4254l-16.48201,-0.02313l-8.03358,-7.92899l-0.21197,-108.49979l8.48045,-10.01659l15.99997,-0.03126z" data-paper-data="{&quot;index&quot;:null}" fill="#ce0000" stroke="none" stroke-width="0" stroke-linecap="butt"/><g data-paper-data="{&quot;index&quot;:null}" stroke="none" stroke-width="0" stroke-linecap="butt"><path d="M334.99564,119.76939l4.49999,-0.00879l0.22711,116.24978l-4.49999,0.00879z" fill="url(#color-7)"/><path d="M343.97278,236.00207l-4.49999,0.00879l-0.22711,-116.24978l4.49999,-0.00879z" data-paper-data="{&quot;index&quot;:null}" fill="url(#color-8)"/></g><path d="M132.81187,132.53941l11.83332,-0.02312l0.18657,95.49982l-11.83332,0.02312z" data-paper-data="{&quot;index&quot;:null}" fill="#8d0000" stroke="none" stroke-width="0" stroke-linecap="butt"/><path d="M139.81088,132.02573l10.16665,-0.01986l0.18657,95.49982l-10.16665,0.01986z" data-paper-data="{&quot;index&quot;:null}" fill="#da0000" stroke="none" stroke-width="0" stroke-linecap="butt"/><path d="M208.79354,208.3911l-0.09268,-59.7776l16.44027,-18.25448l93.99982,-0.18364l0.18853,96.49982l-93.99982,0.18364z" data-paper-data="{&quot;index&quot;:null}" fill="#ba0000" stroke="#000000" stroke-width="0" stroke-linecap="butt"/><path d="M215.79353,208.37743l-0.09268,-59.7776l16.44027,-18.25448l93.99982,-0.18364l0.18853,96.49982l-93.99982,0.18364z" data-paper-data="{&quot;index&quot;:null}" fill="#ce0000" stroke="#000000" stroke-width="0" stroke-linecap="butt"/><g data-paper-data="{&quot;index&quot;:null}" stroke="none" stroke-linecap="butt"><path d="M170.1101,214.05004l15.99997,-0.03126l0.04819,24.66661l-10.99998,0.02149l-5.01041,-5.32356z" fill="#616161" stroke-width="NaN"/><path d="M172.77675,214.04483l15.99997,-0.03126l0.04819,24.66661l-10.99998,0.02149l-5.01041,-5.32356z" fill="#808080" stroke-width="NaN"/></g><g data-paper-data="{&quot;index&quot;:null}" stroke="none" stroke-linecap="butt"><path d="M169.60483,126.05085l4.98957,-5.34309l10.99998,-0.02149l0.04819,24.66662l-15.99997,0.03126z" fill="#616161" stroke-width="NaN"/><path d="M172.27152,126.04564l4.98957,-5.34309l10.99998,-0.02149l0.04819,24.66662l-15.99997,0.03126z" fill="#808080" stroke-width="NaN"/></g><path d="M323.48717,179.41698c0.05988,30.65174 -25.18744,55.54931 -56.39147,55.61027c-31.20403,0.06096 -56.54844,-24.73777 -56.60832,-55.38951c-0.05988,-30.65174 25.18744,-55.54931 56.39147,-55.61027c31.20403,-0.06096 56.54844,24.73777 56.60832,55.38951z" data-paper-data="{&quot;index&quot;:null}" fill="url(#color-9)" stroke="none" stroke-width="NaN" stroke-linecap="butt"/><path d="M149.75716,104.50626l185.49965,-0.3624l10.02245,11.48044l-123.49976,0.24127l-19.95698,22.03903l0.20876,-21.91325l-40.75083,0.0116l-11.4764,12.50325z" data-paper-data="{&quot;index&quot;:null}" fill="#ffffff" stroke="none" stroke-width="NaN" stroke-linecap="butt"/><path d="M150.00232,230.006l11.52517,12.45831l40.75056,-0.14761l-0.29438,-21.91227l20.04294,21.96089l123.49976,-0.24127l-9.97751,11.51951l-185.49965,0.3624z" data-paper-data="{&quot;index&quot;:null}" fill="#ffffff" stroke="none" stroke-width="NaN" stroke-linecap="butt"/><path d="M139.83335,140.02778h9.66666l8.66666,8v33l-18.33333,19.66667z" fill="#d30000" stroke="#000000" stroke-width="0" stroke-linecap="round"/><path d="M279.14941,116.16667l-10,9h-32l-9.5,-8.83333z" fill="#d30000" stroke="#000000" stroke-width="0" stroke-linecap="round"/><path d="M325.64941,129.91668v18.5h-20.5l-18,-18.5z" fill="#c30202" stroke="#000000" stroke-width="0" stroke-linecap="round"/><path d="M220.64941,213.41669l15.5,-16h23l27.5,29h-54.5z" fill="#c30202" stroke="#000000" stroke-width="0" stroke-linecap="round"/><path d="M254.23275,71.69446v8.66666h-21l-9,8.66667l-31,-0.33333l-17.33333,-17z" fill="url(#color-10)" stroke="#000000" stroke-width="0" stroke-linecap="round"/><path d="M159.16669,268.69444h46.66667l21,21h-57.33334l-10.33334,-10.33333z" fill="url(#color-11)" stroke="#000000" stroke-width="0" stroke-linecap="round"/><path d="M263.50001,254.36111l-0.33333,19.33333h-19l-20.33333,-19.33333z" fill="url(#color-12)" stroke="#000000" stroke-width="0" stroke-linecap="round"/><g stroke="none" stroke-width="0" stroke-linecap="butt"><g><path d="M158.83333,100.94445v-8.66667h176v8.66667z" fill="url(#color-13)"/><path d="M152.125,101.08334v-9h6.75v9z" fill="#bfbfbf"/></g><g><path d="M158.83333,266.77779v-8.66667h176v8.66667z" fill="url(#color-14)"/><path d="M152.125,266.91668v-9h6.75v9z" fill="#bfbfbf"/></g><g><g><path d="M163.83335,128.94445c0,-3.22166 2.61167,-5.83334 5.83333,-5.83334c3.22166,0 5.83334,2.61168 5.83334,5.83334c0,3.22166 -2.61167,5.83333 -5.83334,5.83333c-3.22166,0 -5.83333,-2.61167 -5.83333,-5.83333z" fill="url(#color-15)"/><path d="M163.83335,132.94445c0,-3.22166 2.61167,-5.83334 5.83333,-5.83334c3.22166,0 5.83334,2.61167 5.83334,5.83334c0,3.22166 -2.61167,5.83333 -5.83334,5.83333c-3.22166,0 -5.83333,-2.61167 -5.83333,-5.83333z" fill="url(#color-16)"/></g><g><path d="M163.83335,137.27778c0,-3.22166 2.61167,-5.83333 5.83333,-5.83333c3.22166,0 5.83334,2.61167 5.83334,5.83333c0,3.22166 -2.61167,5.83334 -5.83334,5.83334c-3.22166,0 -5.83333,-2.61167 -5.83333,-5.83334z" fill="url(#color-17)"/><path d="M163.83335,141.27778c0,-3.22166 2.61167,-5.83333 5.83333,-5.83333c3.22166,0 5.83334,2.61167 5.83334,5.83333c0,3.22166 -2.61167,5.83334 -5.83334,5.83334c-3.22166,0 -5.83333,-2.61167 -5.83333,-5.83334z" fill="url(#color-18)"/></g></g><g><g><path d="M163.83335,218.27778c0,-3.22166 2.61167,-5.83333 5.83333,-5.83333c3.22166,0 5.83334,2.61167 5.83334,5.83333c0,3.22166 -2.61167,5.83334 -5.83334,5.83334c-3.22166,0 -5.83333,-2.61167 -5.83333,-5.83334z" fill="url(#color-19)"/><path d="M163.83335,222.27778c0,-3.22166 2.61167,-5.83333 5.83333,-5.83333c3.22166,0 5.83334,2.61167 5.83334,5.83333c0,3.22166 -2.61167,5.83334 -5.83334,5.83334c-3.22166,0 -5.83333,-2.61167 -5.83333,-5.83334z" fill="url(#color-20)"/></g><g><path d="M163.83335,226.61111c0,-3.22166 2.61167,-5.83334 5.83333,-5.83334c3.22166,0 5.83334,2.61168 5.83334,5.83334c0,3.22166 -2.61167,5.83334 -5.83334,5.83334c-3.22166,0 -5.83333,-2.61168 -5.83333,-5.83334z" fill="url(#color-21)"/><path d="M163.83335,230.61111c0,-3.22166 2.61167,-5.83334 5.83333,-5.83334c3.22166,0 5.83334,2.61168 5.83334,5.83334c0,3.22166 -2.61167,5.83334 -5.83334,5.83334c-3.22166,0 -5.83333,-2.61168 -5.83333,-5.83334z" fill="url(#color-22)"/></g></g><path d="M99.83336,158.11111v-49l70.66666,16.33334v18.66666z" fill="url(#color-23)"/><path d="M99.83336,249.11111v-49l70.66666,16.33334v18.66666z" fill="url(#color-24)"/></g><path d="M282.82221,88.11221l26.66661,-0.0521" fill="none" stroke="#6d6d6d" stroke-width="25" stroke-linecap="round"/><path d="M285.48884,88.107l26.66662,-0.0521" fill="none" stroke="#808080" stroke-width="25" stroke-linecap="round"/><path d="M310.84641,271.07832l-26.66661,0.0521" fill="none" stroke="#6d6d6d" stroke-width="25" stroke-linecap="round"/><path d="M286.84644,271.1252l26.66661,-0.0521" fill="none" stroke="#808080" stroke-width="25" stroke-linecap="round"/></g></g></svg>