<svg version="1.1" xmlns="http://www.w3.org/2000/svg" xmlns:xlink="http://www.w3.org/1999/xlink" width="48" height="21" viewBox="0,0,48,21"><g transform="translate(-216.16667,-139.44444)"><g data-paper-data="{&quot;isPaintingLayer&quot;:true}" fill-rule="nonzero" stroke-linecap="butt" stroke-linejoin="miter" stroke-miterlimit="10" stroke-dasharray="" stroke-dashoffset="0" style="mix-blend-mode: normal"><path d="M216.16667,160.44444l0.33333,-21h47l0.66667,21z" data-paper-data="{&quot;index&quot;:null}" fill="#364b4a" stroke="none" stroke-width="0"/><path d="M230.27216,160.44444c0,0 0.63814,-3.53123 0.15318,-7.89629c-0.3909,-3.5185 -1.92533,-7.81229 -1.92533,-9.43704c0,-1.67435 1.77215,-3.66667 1.77215,-3.66667h20.08439c0,0 -0.94114,2.06396 -0.6544,3.95526c0.42409,2.79731 2.13119,6.00863 2.13119,8.04474c0,3.57932 -1.47679,9 -1.47679,9z" data-paper-data="{&quot;index&quot;:null}" fill="#304040" stroke="none" stroke-width="0"/><path d="M247.12661,153.41774l0.69581,-1.04184c0.28171,-0.38736 2.44404,-3.36197 2.61848,-3.59538c0.24226,-0.32414 0.84592,-0.56214 0.74938,-0.95513c-0.27326,-1.11232 -3.78811,-3.71102 -4.57415,-4.49706c0,0 -0.88388,-0.88388 0,-1.76776c0.88388,-0.88388 1.76776,0 1.76776,0c1.30765,1.30765 5.00175,4.1309 5.29343,6.01071c0.28035,1.80684 -2.84549,4.91715 -3.83307,6.27506l-0.63752,0.95816c0,0 -0.69337,1.04006 -1.73344,0.34669c-1.04006,-0.69338 -0.34669,-1.73344 -0.34669,-1.73344z" data-paper-data="{&quot;index&quot;:null}" fill="#2b3a3a" stroke="none" stroke-width="0.5"/><path d="M228.91667,153.11111l0.11204,-0.14941c-0.36781,-0.80917 -1.76355,-3.83851 -1.77838,-4.1551c-0.08871,-1.8936 2.04965,-5.3945 2.75574,-7.15973c0,0 0.46424,-1.1606 1.62483,-0.69636c1.1606,0.46424 0.69636,1.62483 0.69636,1.62483c-0.55056,1.3764 -2.66614,4.71992 -2.5776,6.17361c0.07171,1.17723 1.06691,2.10454 1.55496,3.17824l0.11204,1.18392c0,0 0,1.25 -1.25,1.25c-1.25,0 -1.25,-1.25 -1.25,-1.25z" data-paper-data="{&quot;index&quot;:null}" fill="#2b3a3a" stroke="none" stroke-width="0.5"/><path d="M256.78936,155.75698l0.57691,-0.8404c1.36219,-3.08137 2.16327,-9.31063 0.3952,-12.16234c0,0 -0.64311,-1.07187 0.42875,-1.71499c1.07187,-0.64312 1.71499,0.42874 1.71499,0.42874c2.11694,3.62025 1.38201,10.54701 -0.24107,14.43339l-0.78682,1.23054c0,0 -0.68747,1.04397 -1.73145,0.3565c-1.04397,-0.68747 -0.35651,-1.73144 -0.35651,-1.73144z" data-paper-data="{&quot;index&quot;:null}" fill="#354646" stroke="none" stroke-width="0.5"/><path d="M220.4733,155.48451l-1.30662,-0.95673c-3.34105,-4.4676 -1.21171,-8.59632 0.85773,-13.25768c0,0 0.50767,-1.14227 1.64994,-0.63459c1.14227,0.50768 0.63459,1.64993 0.63459,1.64993c-1.67087,3.75519 -3.82357,7.17856 -1.14226,10.74233l0.69338,0.3766c0,0 1.04006,0.69338 0.34669,1.73344c-0.69338,1.04006 -1.73344,0.34669 -1.73344,0.34669z" data-paper-data="{&quot;index&quot;:null}" fill="#354646" stroke="none" stroke-width="0.5"/><path d="M239.89675,157.90326c-3.18092,0.00452 -7.95219,-0.73865 -9.38701,-3.31452c-0.66193,-1.18834 0.96057,-3.5539 0.9585,-5.00684c-0.00332,-2.33811 1.96622,-2.95271 3.53049,-4.46832c1.51485,-1.46773 2.58743,-3.87372 4.87432,-3.87697c4.64839,-0.00661 8.42196,3.71899 8.42851,8.32135c0.00326,2.2972 -1.43259,3.87863 -2.94891,5.3882c-1.52159,1.51481 -3.12768,2.95378 -5.4559,2.95709z" data-paper-data="{&quot;index&quot;:null}" fill="#2f2f2f" stroke="#2f2f2f" stroke-width="1.5"/></g></g></svg>