<svg version="1.1" xmlns="http://www.w3.org/2000/svg" xmlns:xlink="http://www.w3.org/1999/xlink" width="272" height="289" viewBox="0,0,272,289"><g transform="translate(-104,-35.5)"><g data-paper-data="{&quot;isPaintingLayer&quot;:true}" fill-rule="nonzero" stroke-linejoin="miter" stroke-miterlimit="10" stroke-dasharray="" stroke-dashoffset="0" style="mix-blend-mode: normal"><path d="M196.85249,183.94954c-0.80828,0 -1.53763,-0.13892 -2.18805,-0.41677c-0.6441,-0.28416 -1.17454,-0.6883 -1.59131,-1.21242c-0.41677,-0.52412 -0.68199,-1.14612 -0.79565,-1.866l1.92283,-0.29363c0.16418,0.65673 0.49886,1.16506 1.00404,1.525c0.51149,0.35362 1.10192,0.53044 1.77128,0.53044c0.39151,0 0.76092,-0.05999 1.10823,-0.17997c0.34731,-0.1263 0.62831,-0.30626 0.84301,-0.53991c0.22102,-0.23364 0.33152,-0.52412 0.33152,-0.87143c0,-0.15155 -0.02526,-0.29048 -0.07578,-0.41677c-0.05052,-0.13261 -0.1263,-0.24943 -0.22733,-0.35047c-0.10103,-0.10735 -0.23049,-0.20207 -0.38835,-0.28416c-0.15155,-0.08209 -0.33152,-0.15471 -0.53991,-0.21786l-2.85109,-0.84301c-0.24627,-0.07578 -0.51149,-0.17366 -0.79565,-0.29363c-0.28416,-0.11998 -0.55254,-0.28416 -0.80513,-0.49255c-0.25259,-0.2147 -0.46097,-0.48623 -0.62516,-0.8146c-0.15787,-0.33468 -0.2368,-0.74513 -0.2368,-1.23137c0,-0.70725 0.17997,-1.30083 0.53991,-1.78075c0.35994,-0.48623 0.84617,-0.84933 1.4587,-1.08929c0.61253,-0.24627 1.29136,-0.36625 2.03649,-0.35994c0.75776,0.00631 1.43344,0.13577 2.02702,0.38835c0.59358,0.25259 1.08929,0.622 1.48711,1.10823c0.40414,0.47992 0.68515,1.05771 0.84301,1.73339l-1.97966,0.35047c-0.08209,-0.39151 -0.23996,-0.72303 -0.4736,-0.99457c-0.23364,-0.27153 -0.5178,-0.47992 -0.85249,-0.62516c-0.33468,-0.14524 -0.69146,-0.22102 -1.07034,-0.22733c-0.37257,-0.00631 -0.71672,0.04736 -1.03245,0.16103c-0.30942,0.11366 -0.56201,0.27785 -0.75776,0.49255c-0.18944,0.2147 -0.28416,0.46729 -0.28416,0.75776c0,0.27153 0.08209,0.49255 0.24627,0.66304c0.16418,0.1705 0.36625,0.30626 0.60621,0.4073c0.24627,0.10103 0.49255,0.18313 0.73882,0.24627l1.98913,0.54938c0.27153,0.07578 0.57464,0.17681 0.90932,0.30311c0.33468,0.11998 0.65673,0.29048 0.96615,0.51149c0.31574,0.2147 0.57464,0.50202 0.77671,0.86196c0.20207,0.35994 0.30311,0.8146 0.30311,1.36398c0,0.57464 -0.11998,1.07981 -0.35994,1.51553c-0.23364,0.4294 -0.55254,0.78934 -0.95668,1.07981c-0.40414,0.28416 -0.86827,0.49571 -1.39239,0.63463c-0.5178,0.14524 -1.06087,0.21786 -1.62919,0.21786zM204.62724,183.72221l-2.53851,-8.307l1.81864,0.01894l1.61972,5.31383l1.63867,-5.31383h1.56289l1.62919,5.31383l1.62919,-5.31383h1.80916l-2.52904,8.28805h-1.43975l-1.88494,-5.70218l-1.87547,5.70218zM215.33875,174.17437v-1.6955h1.84705v1.6955zM215.33875,183.72221v-8.28805h1.84705v8.28805zM220.21393,183.72221v-8.42066c0,-0.20839 0.00631,-0.43887 0.01894,-0.69146c0.01894,-0.2589 0.06315,-0.51149 0.13261,-0.75776c0.06946,-0.25259 0.19891,-0.47992 0.38835,-0.68199c0.23364,-0.26522 0.48623,-0.44519 0.75776,-0.53991c0.27785,-0.10103 0.54938,-0.15787 0.8146,-0.1705c0.27153,-0.01263 0.50518,-0.01894 0.70093,-0.01894h1.04193v1.49659h-0.96615c-0.35362,0 -0.61568,0.08841 -0.78618,0.26522c-0.1705,0.17681 -0.25575,0.41046 -0.25575,0.70093v8.81849zM218.87837,176.88338v-1.44923h5.19069v1.44923zM230.15714,183.72221c-0.54938,0.10103 -1.08613,0.14524 -1.61025,0.13261c-0.52412,-0.01263 -0.99457,-0.10735 -1.41134,-0.28416c-0.41677,-0.18313 -0.73251,-0.4736 -0.94721,-0.87143c-0.18944,-0.35994 -0.29048,-0.72619 -0.30311,-1.09876c-0.00631,-0.37257 -0.00947,-0.79249 -0.00947,-1.25978v-7.20824h1.84705v7.09457c0,0.33468 0.00316,0.62831 0.00947,0.8809c0.00631,0.24627 0.05683,0.44835 0.15155,0.60621c0.18944,0.30942 0.48623,0.48308 0.89037,0.52096c0.40414,0.03157 0.86512,0.00947 1.38292,-0.0663zM224.36971,176.88338v-1.44923h5.78743v1.44923zM237.22418,183.94954c-0.84617,0 -1.55026,-0.21786 -2.11227,-0.65357c-0.55569,-0.44203 -0.94721,-1.03561 -1.17454,-1.78075l1.82811,-0.44519c0.05683,0.31574 0.22102,0.58727 0.49255,0.8146c0.27153,0.22102 0.57148,0.33152 0.89985,0.33152c0.2147,0 0.44203,-0.05683 0.68199,-0.1705c0.23996,-0.11366 0.41677,-0.29995 0.53044,-0.55885c0.07578,-0.16418 0.11998,-0.35994 0.13261,-0.58727c0.01263,-0.22733 0.01894,-0.49255 0.01894,-0.79565v-7.43557h1.87547v7.43557c0,0.34731 -0.00316,0.65041 -0.00947,0.90932c0,0.25259 -0.02526,0.49571 -0.07578,0.72935c-0.05052,0.22733 -0.14524,0.46097 -0.28416,0.70093c-0.30311,0.5178 -0.69777,0.89985 -1.18401,1.14612c-0.48623,0.23996 -1.02614,0.35994 -1.61972,0.35994zM245.8088,183.95901c-0.61884,0 -1.12718,-0.10103 -1.525,-0.30311c-0.39783,-0.20839 -0.71672,-0.47044 -0.95668,-0.78618c-0.23364,-0.31574 -0.4073,-0.65357 -0.52096,-1.01351c-0.10735,-0.35994 -0.17997,-0.69777 -0.21786,-1.01351c-0.03157,-0.32205 -0.04736,-0.58411 -0.04736,-0.78618v-4.62236h1.87547v3.98774c0,0.2589 0.01579,0.54938 0.04736,0.87143c0.03789,0.31574 0.12314,0.622 0.25575,0.91879c0.13261,0.29048 0.32836,0.53044 0.58727,0.71988c0.2589,0.18944 0.60621,0.28416 1.04193,0.28416c0.23996,0 0.4736,-0.03789 0.70093,-0.11366c0.22733,-0.07578 0.43571,-0.20523 0.62516,-0.38835c0.18944,-0.18944 0.33784,-0.44835 0.44519,-0.77671c0.11366,-0.32836 0.1705,-0.74513 0.1705,-1.25031l1.09876,0.4736c0,0.70725 -0.13577,1.34819 -0.4073,1.92283c-0.27153,0.56832 -0.67567,1.02298 -1.21242,1.36398c-0.53044,0.34099 -1.18401,0.51149 -1.96072,0.51149zM248.51781,183.72221v-2.5764h-0.22733v-5.71165h1.85652v8.28805zM255.49813,183.94954c-1.02298,0 -1.85337,-0.23049 -2.49115,-0.69146c-0.63779,-0.46097 -1.02614,-1.10823 -1.16506,-1.94177l1.88494,-0.28416c0.10103,0.40414 0.31574,0.72619 0.6441,0.96615c0.33468,0.23364 0.75461,0.35047 1.25978,0.35047c0.44835,0 0.79249,-0.08841 1.03245,-0.26522c0.24627,-0.17681 0.36941,-0.41993 0.36941,-0.72935c0,-0.18944 -0.04736,-0.34099 -0.14208,-0.45466c-0.08841,-0.11366 -0.28416,-0.22417 -0.58727,-0.33152c-0.29679,-0.10735 -0.75776,-0.24312 -1.38292,-0.4073c-0.69462,-0.18313 -1.24715,-0.38204 -1.65761,-0.59674c-0.41046,-0.2147 -0.70725,-0.46729 -0.89037,-0.75776c-0.17681,-0.29048 -0.26522,-0.6441 -0.26522,-1.06087c0,-0.51149 0.13577,-0.95984 0.4073,-1.34503c0.27153,-0.3852 0.65041,-0.68199 1.13665,-0.89037c0.48623,-0.20839 1.06087,-0.31258 1.72391,-0.31258c0.6441,0 1.21558,0.10103 1.71444,0.30311c0.49886,0.20207 0.89985,0.48623 1.20295,0.85249c0.30942,0.36625 0.49886,0.79881 0.56832,1.29767l-1.88494,0.34099c-0.0442,-0.35362 -0.20523,-0.63147 -0.48308,-0.83354c-0.27153,-0.20839 -0.63463,-0.32521 -1.08929,-0.35047c-0.43571,-0.02526 -0.78618,0.04105 -1.0514,0.19891c-0.26522,0.15155 -0.39783,0.36941 -0.39783,0.65357c0,0.15787 0.05367,0.29363 0.16103,0.4073c0.10735,0.10735 0.32205,0.21786 0.6441,0.33152c0.32836,0.11366 0.8146,0.25259 1.4587,0.41677c0.65673,0.1705 1.18401,0.36625 1.58183,0.58727c0.39783,0.2147 0.68515,0.4736 0.86196,0.77671c0.17681,0.29679 0.26522,0.65989 0.26522,1.08929c0,0.83985 -0.30311,1.49659 -0.90932,1.97019c-0.60621,0.4736 -1.44607,0.7104 -2.51957,0.7104zM265.47952,183.72221c-0.54938,0.10103 -1.08613,0.14524 -1.61025,0.13261c-0.52412,-0.01263 -0.99457,-0.10735 -1.41134,-0.28416c-0.41677,-0.18313 -0.73251,-0.4736 -0.94721,-0.87143c-0.18944,-0.35994 -0.29048,-0.72619 -0.30311,-1.09876c-0.00631,-0.37257 -0.00947,-0.79249 -0.00947,-1.25978v-7.20824h1.84705v7.09457c0,0.33468 0.00316,0.62831 0.00947,0.8809c0.00631,0.24627 0.05683,0.44835 0.15155,0.60621c0.18944,0.30942 0.48623,0.48308 0.89037,0.52096c0.40414,0.03157 0.86512,0.00947 1.38292,-0.0663zM259.69209,176.88338v-1.44923h5.78743v1.44923zM267.42029,174.17437v-1.6955h1.84705v1.6955zM267.42029,183.72221v-8.28805h1.84705v8.28805zM275.17498,183.94954c-0.8588,0 -1.59131,-0.18944 -2.19752,-0.56832c-0.5999,-0.37888 -1.06087,-0.89985 -1.38292,-1.56289c-0.31574,-0.66304 -0.47676,-1.41134 -0.48308,-2.24488c0.00631,-0.84617 0.17366,-1.59762 0.50202,-2.25435c0.32836,-0.66304 0.79565,-1.18085 1.40186,-1.55342c0.61253,-0.37888 1.33872,-0.56832 2.17857,-0.56832c0.94089,0 1.73655,0.2368 2.38696,0.7104c0.65673,0.4736 1.08297,1.12086 1.27873,1.94177l-1.83758,0.50202c-0.14524,-0.44835 -0.3852,-0.79565 -0.71988,-1.04193c-0.32836,-0.24627 -0.70409,-0.36941 -1.12718,-0.36941c-0.48623,0 -0.88406,0.11366 -1.19348,0.34099c-0.30942,0.22733 -0.53991,0.53991 -0.69146,0.93773c-0.14524,0.39783 -0.21786,0.84933 -0.21786,1.3545c0,0.78934 0.17366,1.42712 0.52096,1.91336c0.35362,0.48623 0.8809,0.72935 1.58183,0.72935c0.48623,0 0.87143,-0.11051 1.15559,-0.33152c0.28416,-0.22733 0.49886,-0.55254 0.6441,-0.97562l1.88494,0.41677c-0.25259,0.84617 -0.70093,1.49659 -1.34503,1.95124c-0.63779,0.44835 -1.41765,0.67252 -2.3396,0.67252zM283.942,183.94954c-0.83354,0 -1.5692,-0.17997 -2.20699,-0.53991c-0.63779,-0.36625 -1.13349,-0.87143 -1.48711,-1.51553c-0.35362,-0.6441 -0.53044,-1.38608 -0.53044,-2.22593c0,-0.903 0.17366,-1.68918 0.52096,-2.35854c0.34731,-0.66936 0.83038,-1.18717 1.44923,-1.55342c0.61884,-0.37257 1.33556,-0.55885 2.15016,-0.55885c0.8588,0 1.58815,0.20207 2.18805,0.60621c0.60621,0.40414 1.05456,0.97246 1.34503,1.70497c0.29048,0.72619 0.40098,1.58815 0.33152,2.58587h-1.83758v-0.68199c-0.00631,-0.89669 -0.16734,-1.55342 -0.48308,-1.97019c-0.30942,-0.41677 -0.79881,-0.62516 -1.46817,-0.62516c-0.75776,0 -1.31977,0.2368 -1.68603,0.7104c-0.36625,0.46729 -0.54938,1.14928 -0.54938,2.04596c0,0.83985 0.18313,1.49027 0.54938,1.95124c0.36625,0.46097 0.903,0.69146 1.61025,0.69146c0.45466,0 0.84617,-0.10103 1.17454,-0.30311c0.33468,-0.20207 0.59043,-0.49571 0.76724,-0.8809l1.82811,0.55885c-0.31574,0.74513 -0.80513,1.32609 -1.46817,1.74286c-0.66304,0.41046 -1.39555,0.61568 -2.19752,0.61568zM281.09091,180.09441v-1.40186h5.70218v1.40186z" fill="#ffffff" stroke="#ffffff" stroke-width="0.25" stroke-linecap="square"/><path d="M104,324.5v-289h272v289z" fill="none" stroke="none" stroke-width="0" stroke-linecap="butt"/><g fill="#ffffff" stroke="none" stroke-width="1" stroke-linecap="square"><path d="M206.74655,202.26378c-0.60422,0 -1.14801,-0.10494 -1.63139,-0.31483c-0.47701,-0.20989 -0.87135,-0.50882 -1.18299,-0.89679c-0.30529,-0.38797 -0.49928,-0.84908 -0.58196,-1.38334l1.4215,-0.21943c0.12084,0.48337 0.36889,0.85862 0.74414,1.12575c0.38161,0.26713 0.82046,0.40069 1.31656,0.40069c0.29257,0 0.56606,-0.04452 0.82046,-0.13356c0.26077,-0.0954 0.47065,-0.22897 0.62966,-0.40069c0.16537,-0.17808 0.24805,-0.39433 0.24805,-0.64874c0,-0.11448 -0.01908,-0.21943 -0.05724,-0.31483c-0.03816,-0.0954 -0.0954,-0.18127 -0.17172,-0.25759c-0.07632,-0.07632 -0.17172,-0.14629 -0.28621,-0.20989c-0.11448,-0.0636 -0.24805,-0.11766 -0.40069,-0.16218l-2.11794,-0.62012c-0.18445,-0.05724 -0.38161,-0.13038 -0.5915,-0.21943c-0.20989,-0.08904 -0.41023,-0.20989 -0.60104,-0.36253c-0.18445,-0.159 -0.33709,-0.35935 -0.45793,-0.60104c-0.12084,-0.24805 -0.18127,-0.55334 -0.18127,-0.91587c0,-0.5279 0.13356,-0.96993 0.40069,-1.3261c0.27349,-0.36253 0.63602,-0.63284 1.08759,-0.81092c0.45157,-0.17808 0.95403,-0.26395 1.50736,-0.25759c0.56606,0 1.06851,0.0954 1.50736,0.28621c0.43885,0.18445 0.80456,0.45793 1.09713,0.82046c0.29893,0.35617 0.51199,0.78548 0.6392,1.28794l-1.47874,0.25759c-0.0636,-0.29257 -0.18127,-0.53744 -0.35299,-0.7346c-0.17172,-0.20353 -0.38161,-0.35935 -0.62966,-0.46747c-0.24805,-0.10812 -0.51199,-0.16537 -0.79184,-0.17172c-0.27349,-0.00636 -0.5279,0.03498 -0.76322,0.12402c-0.23533,0.08268 -0.42613,0.20353 -0.57242,0.36253c-0.13992,0.159 -0.20989,0.34663 -0.20989,0.56288c0,0.19716 0.06042,0.35935 0.18127,0.48655c0.1272,0.1272 0.27985,0.22897 0.45793,0.30529c0.17808,0.07632 0.36253,0.13674 0.55334,0.18127l1.4692,0.41023c0.19716,0.05724 0.41977,0.13038 0.66782,0.21943c0.25441,0.08904 0.49609,0.21625 0.72506,0.38161c0.23533,0.16537 0.42613,0.38161 0.57242,0.64874c0.15264,0.26077 0.22897,0.59786 0.22897,1.01127c0,0.42613 -0.08904,0.80138 -0.26713,1.12575c-0.17172,0.31801 -0.41023,0.58196 -0.71552,0.79184c-0.29893,0.20989 -0.64238,0.36889 -1.03035,0.47701c-0.38161,0.10812 -0.7823,0.16218 -1.20207,0.16218zM214.15033,202.26378c-0.59786,0 -1.10031,-0.1431 -1.50736,-0.42931c-0.40705,-0.28621 -0.71234,-0.67418 -0.91587,-1.16391c-0.20353,-0.48974 -0.30529,-1.03989 -0.30529,-1.65047c0,-0.6233 0.10176,-1.17981 0.30529,-1.66955c0.20353,-0.48974 0.50245,-0.87452 0.89679,-1.15437c0.40069,-0.28621 0.8936,-0.42931 1.47874,-0.42931c0.57878,0 1.08123,0.1431 1.50736,0.42931c0.43249,0.27985 0.7664,0.66464 1.00173,1.15437c0.23533,0.48974 0.35299,1.04625 0.35299,1.66955c0,0.61058 -0.11766,1.16073 -0.35299,1.65047c-0.22897,0.48974 -0.55652,0.87771 -0.98265,1.16391c-0.41977,0.28621 -0.91269,0.42931 -1.47874,0.42931zM211.1833,204.83011v-8.89154h1.22116v4.32174h0.16218v4.56979zM213.94044,201.03308c0.35617,0 0.64874,-0.08904 0.87771,-0.26713c0.23533,-0.17808 0.41023,-0.41977 0.52472,-0.72506c0.11448,-0.30529 0.17172,-0.64556 0.17172,-1.02081c0,-0.37525 -0.05724,-0.71552 -0.17172,-1.02081c-0.11448,-0.30529 -0.29257,-0.54698 -0.53426,-0.72506c-0.24169,-0.18445 -0.5438,-0.27667 -0.90633,-0.27667c-0.34981,0 -0.63602,0.08586 -0.85862,0.25759c-0.22261,0.16537 -0.38479,0.40069 -0.48655,0.70598c-0.10176,0.29893 -0.15264,0.65192 -0.15264,1.05897c0,0.39433 0.05088,0.74414 0.15264,1.04943c0.10176,0.30529 0.26395,0.5438 0.48655,0.71552c0.22897,0.16537 0.5279,0.24805 0.89679,0.24805zM221.01459,202.26378c-0.6233,0 -1.17027,-0.13356 -1.64093,-0.40069c-0.47065,-0.27349 -0.83954,-0.64874 -1.10667,-1.12575c-0.26077,-0.47701 -0.39115,-1.02717 -0.39115,-1.65047c0,-0.67418 0.1272,-1.25932 0.38161,-1.75541c0.26077,-0.49609 0.62012,-0.88089 1.07805,-1.15437c0.45793,-0.27349 0.98901,-0.41023 1.59323,-0.41023c0.64238,0 1.18618,0.14946 1.63139,0.44839c0.44521,0.29893 0.77594,0.72188 0.99219,1.26886c0.21625,0.54061 0.29893,1.17981 0.24805,1.9176h-1.36426v-0.50563c-0.00636,-0.66782 -0.12402,-1.15437 -0.35299,-1.45966c-0.22897,-0.31165 -0.59468,-0.46747 -1.09713,-0.46747c-0.5597,0 -0.97629,0.17491 -1.24978,0.52472c-0.27349,0.34981 -0.41023,0.85862 -0.41023,1.52644c0,0.6233 0.13674,1.10667 0.41023,1.45012c0.27349,0.33709 0.671,0.50563 1.19253,0.50563c0.33709,0 0.62648,-0.07314 0.86816,-0.21943c0.24805,-0.15264 0.43885,-0.37207 0.57242,-0.65828l1.35472,0.41023c-0.23533,0.55334 -0.59786,0.98583 -1.08759,1.29748c-0.48974,0.30529 -1.03035,0.45793 -1.62185,0.45793zM218.89665,199.4017v-1.03989h4.22634v1.03989zM227.87202,202.26378c-0.6233,0 -1.17027,-0.13356 -1.64093,-0.40069c-0.47065,-0.27349 -0.83954,-0.64874 -1.10667,-1.12575c-0.26077,-0.47701 -0.39115,-1.02717 -0.39115,-1.65047c0,-0.67418 0.1272,-1.25932 0.38161,-1.75541c0.26077,-0.49609 0.62012,-0.88089 1.07805,-1.15437c0.45793,-0.27349 0.98901,-0.41023 1.59323,-0.41023c0.64238,0 1.18618,0.14946 1.63139,0.44839c0.44521,0.29893 0.77594,0.72188 0.99219,1.26886c0.21625,0.54061 0.29893,1.17981 0.24805,1.9176h-1.36426v-0.50563c-0.00636,-0.66782 -0.12402,-1.15437 -0.35299,-1.45966c-0.22897,-0.31165 -0.59468,-0.46747 -1.09713,-0.46747c-0.5597,0 -0.97629,0.17491 -1.24978,0.52472c-0.27349,0.34981 -0.41023,0.85862 -0.41023,1.52644c0,0.6233 0.13674,1.10667 0.41023,1.45012c0.27349,0.33709 0.671,0.50563 1.19253,0.50563c0.33709,0 0.62648,-0.07314 0.86816,-0.21943c0.24805,-0.15264 0.43885,-0.37207 0.57242,-0.65828l1.35472,0.41023c-0.23533,0.55334 -0.59786,0.98583 -1.08759,1.29748c-0.48974,0.30529 -1.03035,0.45793 -1.62185,0.45793zM225.75408,199.4017v-1.03989h4.22634v1.03989zM234.39555,202.26378c-0.56606,0 -1.05897,-0.1431 -1.47874,-0.42931c-0.41977,-0.28621 -0.74732,-0.67418 -0.98265,-1.16391c-0.22897,-0.48974 -0.34345,-1.03989 -0.34345,-1.65047c0,-0.6233 0.11448,-1.17981 0.34345,-1.66955c0.23533,-0.48974 0.56606,-0.87452 0.99219,-1.15437c0.43249,-0.28621 0.93813,-0.42931 1.5169,-0.42931c0.58514,0 1.07487,0.1431 1.4692,0.42931c0.40069,0.27985 0.7028,0.66464 0.90633,1.15437c0.20989,0.48974 0.31483,1.04625 0.31483,1.66955c0,0.61058 -0.10494,1.16073 -0.31483,1.65047c-0.20353,0.48974 -0.50882,0.87771 -0.91587,1.16391c-0.40705,0.28621 -0.90951,0.42931 -1.50736,0.42931zM234.60544,201.03308c0.36889,0 0.66464,-0.08268 0.88725,-0.24805c0.22897,-0.17172 0.39433,-0.41023 0.49609,-0.71552c0.10812,-0.30529 0.16218,-0.6551 0.16218,-1.04943c0,-0.40705 -0.05406,-0.76004 -0.16218,-1.05897c-0.10176,-0.30529 -0.26395,-0.54061 -0.48655,-0.70598c-0.21625,-0.17172 -0.49928,-0.25759 -0.84908,-0.25759c-0.36889,0 -0.67418,0.09222 -0.91587,0.27667c-0.23533,0.17808 -0.41023,0.41977 -0.52472,0.72506c-0.11448,0.30529 -0.17172,0.64556 -0.17172,1.02081c0,0.37525 0.05406,0.71552 0.16218,1.02081c0.11448,0.30529 0.28621,0.54698 0.51517,0.72506c0.23533,0.17808 0.53107,0.26713 0.88725,0.26713zM236.15096,202.09205v-4.32174h-0.17172v-3.88289h1.38334v8.20464zM243.15828,200.56561v-2.04162h-2.03208v-1.07805h2.03208v-2.03208h1.07805v2.03208h2.03208v1.07805h-2.03208v2.04162zM249.17219,202.09205v-6.70681l-1.53598,0.94449v-1.5169l1.53598,-0.92541h1.40242v8.20464zM255.68792,202.26378c-0.58514,0 -1.10031,-0.12402 -1.54552,-0.37207c-0.43885,-0.24805 -0.7823,-0.59468 -1.03035,-1.03989c-0.24805,-0.44521 -0.37207,-0.95721 -0.37207,-1.53598v-2.64266c0,-0.58514 0.12402,-1.09713 0.37207,-1.53598c0.24805,-0.44521 0.5915,-0.79184 1.03035,-1.03989c0.44521,-0.25441 0.96039,-0.38161 1.54552,-0.38161c0.57878,0 1.08759,0.1272 1.52644,0.38161c0.44521,0.24805 0.79184,0.59468 1.03989,1.03989c0.25441,0.43885 0.38161,0.95085 0.38161,1.53598v2.64266c0,0.57878 -0.1272,1.09077 -0.38161,1.53598c-0.24805,0.44521 -0.59468,0.79184 -1.03989,1.03989c-0.43885,0.24805 -0.94767,0.37207 -1.52644,0.37207zM255.68792,200.95676c0.28621,0 0.54698,-0.06678 0.7823,-0.20035c0.23533,-0.13992 0.41977,-0.32755 0.55334,-0.56288c0.13992,-0.23533 0.20989,-0.49609 0.20989,-0.7823v-2.843c0,-0.29257 -0.06996,-0.55334 -0.20989,-0.7823c-0.13356,-0.23533 -0.31801,-0.42295 -0.55334,-0.56288c-0.23533,-0.13992 -0.49609,-0.20989 -0.7823,-0.20989c-0.29257,0 -0.55652,0.06996 -0.79184,0.20989c-0.23533,0.13992 -0.42295,0.32755 -0.56288,0.56288c-0.13356,0.22897 -0.20035,0.48974 -0.20035,0.7823v2.843c0,0.28621 0.06678,0.54698 0.20035,0.7823c0.13992,0.23533 0.32755,0.42295 0.56288,0.56288c0.23533,0.13356 0.49928,0.20035 0.79184,0.20035zM261.3706,202.09205l-0.91587,-0.91587l7.29831,-7.28877l0.91587,0.91587zM266.9612,202.26378c-0.37525,0 -0.7187,-0.09222 -1.03035,-0.27667c-0.31165,-0.18445 -0.5597,-0.42931 -0.74414,-0.7346c-0.18445,-0.31165 -0.27667,-0.65828 -0.27667,-1.03989c0,-0.37525 0.09222,-0.71552 0.27667,-1.02081c0.19081,-0.31165 0.44203,-0.5597 0.75368,-0.74414c0.31165,-0.19081 0.65192,-0.28621 1.02081,-0.28621c0.37525,0 0.7187,0.09222 1.03035,0.27667c0.31165,0.18445 0.5597,0.43249 0.74414,0.74414c0.18445,0.30529 0.27667,0.64874 0.27667,1.03035c0,0.38161 -0.09222,0.72824 -0.27667,1.03989c-0.18445,0.30529 -0.43249,0.55015 -0.74414,0.7346c-0.31165,0.18445 -0.6551,0.27667 -1.03035,0.27667zM266.9612,201.09033c0.15264,0 0.29575,-0.03816 0.42931,-0.11448c0.13992,-0.08268 0.24805,-0.19081 0.32437,-0.32437c0.08268,-0.13356 0.12402,-0.27985 0.12402,-0.43885c0,-0.159 -0.04134,-0.30529 -0.12402,-0.43885c-0.07632,-0.13356 -0.18445,-0.23851 -0.32437,-0.31483c-0.13356,-0.08268 -0.27667,-0.12402 -0.42931,-0.12402c-0.159,0 -0.30529,0.04134 -0.43885,0.12402c-0.13356,0.07632 -0.24169,0.18127 -0.32437,0.31483c-0.08268,0.13356 -0.12402,0.27985 -0.12402,0.43885c0,0.159 0.04134,0.30529 0.12402,0.43885c0.08268,0.13356 0.19081,0.24169 0.32437,0.32437c0.13356,0.07632 0.27985,0.11448 0.43885,0.11448zM262.17198,197.81801c-0.38161,0 -0.72824,-0.09222 -1.03989,-0.27667c-0.30529,-0.18445 -0.55015,-0.42931 -0.7346,-0.7346c-0.18445,-0.31165 -0.27667,-0.65828 -0.27667,-1.03989c0,-0.36889 0.09222,-0.70916 0.27667,-1.02081c0.19081,-0.31165 0.44203,-0.5597 0.75368,-0.74414c0.31165,-0.19081 0.65192,-0.28621 1.02081,-0.28621c0.37525,0 0.71552,0.09222 1.02081,0.27667c0.31165,0.18445 0.5597,0.43249 0.74414,0.74414c0.18445,0.31165 0.27667,0.6551 0.27667,1.03035c0,0.38161 -0.09222,0.72824 -0.27667,1.03989c-0.18445,0.30529 -0.43249,0.55015 -0.74414,0.7346c-0.30529,0.18445 -0.64556,0.27667 -1.02081,0.27667zM262.17198,196.64456c0.159,0 0.30211,-0.03816 0.42931,-0.11448c0.13356,-0.08268 0.23851,-0.19081 0.31483,-0.32437c0.08268,-0.13356 0.12402,-0.27985 0.12402,-0.43885c0,-0.159 -0.04134,-0.30529 -0.12402,-0.43885c-0.07632,-0.13356 -0.18127,-0.23851 -0.31483,-0.31483c-0.1272,-0.08268 -0.27031,-0.12402 -0.42931,-0.12402c-0.16537,0 -0.31483,0.04134 -0.44839,0.12402c-0.1272,0.07632 -0.23215,0.18127 -0.31483,0.31483c-0.07632,0.13356 -0.11448,0.27985 -0.11448,0.43885c0,0.159 0.03816,0.30529 0.11448,0.43885c0.08268,0.13356 0.18762,0.24169 0.31483,0.32437c0.13356,0.07632 0.28303,0.11448 0.44839,0.11448z"/><path d="M203.71275,215.76898v-8.20464h1.36426v3.45358h3.89243v-3.45358h1.36426v8.20464h-1.36426v-3.46312h-3.89243v3.46312zM214.72672,215.94071c-0.6233,0 -1.17027,-0.13356 -1.64093,-0.40069c-0.47065,-0.27349 -0.83954,-0.64874 -1.10667,-1.12575c-0.26077,-0.47701 -0.39115,-1.02717 -0.39115,-1.65047c0,-0.67418 0.1272,-1.25932 0.38161,-1.75541c0.26077,-0.49609 0.62012,-0.88089 1.07805,-1.15437c0.45793,-0.27349 0.98901,-0.41023 1.59323,-0.41023c0.64238,0 1.18618,0.14946 1.63139,0.44839c0.44521,0.29893 0.77594,0.72188 0.99219,1.26886c0.21625,0.54061 0.29893,1.17981 0.24805,1.9176h-1.36426v-0.50563c-0.00636,-0.66782 -0.12402,-1.15437 -0.35299,-1.45966c-0.22897,-0.31165 -0.59468,-0.46747 -1.09713,-0.46747c-0.5597,0 -0.97629,0.17491 -1.24978,0.52472c-0.27349,0.34981 -0.41023,0.85862 -0.41023,1.52644c0,0.6233 0.13674,1.10667 0.41023,1.45012c0.27349,0.33709 0.671,0.50563 1.19253,0.50563c0.33709,0 0.62648,-0.07314 0.86816,-0.21943c0.24805,-0.15264 0.43885,-0.37207 0.57242,-0.65828l1.35472,0.41023c-0.23533,0.55334 -0.59786,0.98583 -1.08759,1.29748c-0.48974,0.30529 -1.03035,0.45793 -1.62185,0.45793zM212.60878,213.07863v-1.03989h4.22634v1.03989zM220.39213,215.94071c-0.44521,0 -0.82364,-0.08268 -1.13529,-0.24805c-0.30529,-0.17172 -0.53744,-0.39751 -0.69644,-0.67736c-0.15264,-0.28621 -0.22897,-0.59786 -0.22897,-0.93495c0,-0.29257 0.0477,-0.55652 0.1431,-0.79184c0.10176,-0.24169 0.25441,-0.44839 0.45793,-0.62012c0.20353,-0.17172 0.47065,-0.31483 0.80138,-0.42931c0.24169,-0.07632 0.5279,-0.14629 0.85862,-0.20989c0.33709,-0.0636 0.69962,-0.12402 1.08759,-0.18127c0.38797,-0.05724 0.79502,-0.11766 1.22116,-0.18127l-0.48655,0.27667c0,-0.41977 -0.0954,-0.73142 -0.28621,-0.93495c-0.19081,-0.20353 -0.51836,-0.30529 -0.98265,-0.30529c-0.27349,0 -0.54061,0.06678 -0.80138,0.20035c-0.25441,0.1272 -0.43567,0.34663 -0.5438,0.65828l-1.24978,-0.39115c0.15264,-0.52153 0.44203,-0.93813 0.86816,-1.24978c0.42613,-0.31801 1.00173,-0.47701 1.72679,-0.47701c0.54698,0 1.02717,0.08904 1.44058,0.26713c0.41977,0.17808 0.73142,0.47065 0.93495,0.87771c0.10812,0.21625 0.17172,0.43885 0.19081,0.66782c0.02544,0.22261 0.03816,0.46747 0.03816,0.7346v3.77795h-1.20207v-1.33564l0.20035,0.21943c-0.27985,0.44521 -0.60422,0.77276 -0.97311,0.98265c-0.36889,0.20353 -0.83,0.30529 -1.38334,0.30529zM220.6688,214.84358c0.30529,0 0.56924,-0.05406 0.79184,-0.16218c0.22261,-0.10812 0.39751,-0.24169 0.52472,-0.40069c0.13356,-0.159 0.22261,-0.31165 0.26713,-0.45793c0.06996,-0.17172 0.10812,-0.36889 0.11448,-0.5915c0.01272,-0.22897 0.01908,-0.41341 0.01908,-0.55334l0.42931,0.12402c-0.41341,0.0636 -0.76958,0.12084 -1.06851,0.17172c-0.29893,0.05088 -0.55334,0.09858 -0.76322,0.1431c-0.20989,0.03816 -0.39751,0.08586 -0.56288,0.1431c-0.159,0.05724 -0.29575,0.12402 -0.41023,0.20035c-0.10812,0.07632 -0.19081,0.16537 -0.24805,0.26713c-0.05724,0.0954 -0.08586,0.2067 -0.08586,0.33391c0,0.15264 0.03816,0.28939 0.11448,0.41023c0.07632,0.11448 0.18762,0.2067 0.33391,0.27667c0.14629,0.0636 0.32755,0.0954 0.5438,0.0954zM225.35063,215.76898v-8.37636h1.36426v8.37636zM232.02803,215.76898c-0.40069,0.07632 -0.7982,0.10812 -1.19253,0.0954c-0.38797,-0.00636 -0.7346,-0.07632 -1.03989,-0.20989c-0.30529,-0.13356 -0.54061,-0.34663 -0.70598,-0.6392c-0.13992,-0.26713 -0.21307,-0.53744 -0.21943,-0.81092c-0.00636,-0.27985 -0.00954,-0.59468 -0.00954,-0.94449v-5.35209h1.36426v5.26623c0,0.24805 0.00318,0.46747 0.00954,0.65828c0.00636,0.18445 0.04452,0.33391 0.11448,0.44839c0.13992,0.22897 0.35935,0.35617 0.65828,0.38161c0.29893,0.02544 0.6392,0.00954 1.02081,-0.0477zM227.74444,210.69356v-1.07805h4.28358v1.07805zM237.61864,215.76898v-2.95748c0,-0.19716 -0.0159,-0.41341 -0.0477,-0.64874c-0.02544,-0.23533 -0.08586,-0.46111 -0.18127,-0.67736c-0.0954,-0.22261 -0.24169,-0.40387 -0.43885,-0.5438c-0.19081,-0.13992 -0.44839,-0.20989 -0.77276,-0.20989c-0.17172,0 -0.34345,0.02862 -0.51517,0.08586c-0.17172,0.05724 -0.32755,0.15583 -0.46747,0.29575c-0.13992,0.13992 -0.25123,0.33073 -0.33391,0.57242c-0.08268,0.24169 -0.12402,0.55015 -0.12402,0.92541l-0.81092,-0.35299c0,-0.52153 0.10176,-0.99537 0.30529,-1.4215c0.20353,-0.42613 0.50245,-0.76322 0.89679,-1.01127c0.39433,-0.25441 0.87771,-0.38161 1.45012,-0.38161c0.45793,0 0.83318,0.07632 1.12575,0.22897c0.29893,0.14629 0.53426,0.34027 0.70598,0.58196c0.17808,0.23533 0.30847,0.48655 0.39115,0.75368c0.08268,0.26077 0.13674,0.51199 0.16218,0.75368c0.02544,0.23533 0.03816,0.42613 0.03816,0.57242v3.4345zM233.3446,215.76898v-8.20464h1.2307v4.32174h0.16218v3.88289zM242.65254,212.7161v-1.07805h3.41542v1.07805zM249.97451,215.94071c-0.41341,0 -0.80138,-0.08586 -1.16391,-0.25759c-0.36253,-0.17172 -0.67418,-0.41023 -0.93495,-0.71552c-0.25441,-0.30529 -0.43885,-0.65828 -0.55334,-1.05897l1.31656,-0.35299c0.05724,0.21625 0.15583,0.40705 0.29575,0.57242c0.13992,0.159 0.30529,0.28303 0.49609,0.37207c0.19716,0.08268 0.39751,0.12402 0.60104,0.12402c0.26713,0 0.50882,-0.0636 0.72506,-0.19081c0.22261,-0.13356 0.39751,-0.30847 0.52472,-0.52472c0.13356,-0.21625 0.20035,-0.45793 0.20035,-0.72506c0,-0.26713 -0.06678,-0.50882 -0.20035,-0.72506c-0.13356,-0.21625 -0.31165,-0.38797 -0.53426,-0.51517c-0.21625,-0.1272 -0.45475,-0.19081 -0.71552,-0.19081c-0.31801,0 -0.58196,0.05724 -0.79184,0.17172c-0.20353,0.10812 -0.35935,0.22897 -0.46747,0.36253l-1.17345,-0.38161l0.24805,-4.34082h4.45531v1.28794h-3.72071l0.51517,-0.48655l-0.18127,3.02427l-0.24805,-0.30529c0.20989,-0.19716 0.45475,-0.34345 0.7346,-0.43885c0.27985,-0.0954 0.55334,-0.1431 0.82046,-0.1431c0.50882,0 0.96039,0.11766 1.35472,0.35299c0.40069,0.23533 0.71234,0.55334 0.93495,0.95403c0.22897,0.40069 0.34345,0.85862 0.34345,1.3738c0,0.51517 -0.13356,0.97947 -0.40069,1.39288c-0.26713,0.41341 -0.61694,0.74414 -1.04943,0.99219c-0.43249,0.24805 -0.90951,0.37207 -1.43104,0.37207zM257.17442,215.94071c-0.58514,0 -1.10031,-0.12402 -1.54552,-0.37207c-0.43885,-0.24805 -0.7823,-0.59468 -1.03035,-1.03989c-0.24805,-0.44521 -0.37207,-0.95721 -0.37207,-1.53598v-2.64266c0,-0.58514 0.12402,-1.09713 0.37207,-1.53598c0.24805,-0.44521 0.5915,-0.79184 1.03035,-1.03989c0.44521,-0.25441 0.96039,-0.38161 1.54552,-0.38161c0.57878,0 1.08759,0.1272 1.52644,0.38161c0.44521,0.24805 0.79184,0.59468 1.03989,1.03989c0.25441,0.43885 0.38161,0.95085 0.38161,1.53598v2.64266c0,0.57878 -0.1272,1.09077 -0.38161,1.53598c-0.24805,0.44521 -0.59468,0.79184 -1.03989,1.03989c-0.43885,0.24805 -0.94767,0.37207 -1.52644,0.37207zM257.17442,214.63369c0.28621,0 0.54698,-0.06678 0.7823,-0.20035c0.23533,-0.13992 0.41977,-0.32755 0.55334,-0.56288c0.13992,-0.23533 0.20989,-0.49609 0.20989,-0.7823v-2.843c0,-0.29257 -0.06996,-0.55334 -0.20989,-0.7823c-0.13356,-0.23533 -0.31801,-0.42295 -0.55334,-0.56288c-0.23533,-0.13992 -0.49609,-0.20989 -0.7823,-0.20989c-0.29257,0 -0.55652,0.06996 -0.79184,0.20989c-0.23533,0.13992 -0.42295,0.32755 -0.56288,0.56288c-0.13356,0.22897 -0.20035,0.48974 -0.20035,0.7823v2.843c0,0.28621 0.06678,0.54698 0.20035,0.7823c0.13992,0.23533 0.32755,0.42295 0.56288,0.56288c0.23533,0.13356 0.49928,0.20035 0.79184,0.20035zM262.8571,215.76898l-0.91587,-0.91587l7.29831,-7.28877l0.91587,0.91587zM268.4477,215.94071c-0.37525,0 -0.7187,-0.09222 -1.03035,-0.27667c-0.31165,-0.18445 -0.5597,-0.42931 -0.74414,-0.7346c-0.18445,-0.31165 -0.27667,-0.65828 -0.27667,-1.03989c0,-0.37525 0.09222,-0.71552 0.27667,-1.02081c0.19081,-0.31165 0.44203,-0.5597 0.75368,-0.74414c0.31165,-0.19081 0.65192,-0.28621 1.02081,-0.28621c0.37525,0 0.7187,0.09222 1.03035,0.27667c0.31165,0.18445 0.5597,0.43249 0.74414,0.74414c0.18445,0.30529 0.27667,0.64874 0.27667,1.03035c0,0.38161 -0.09222,0.72824 -0.27667,1.03989c-0.18445,0.30529 -0.43249,0.55015 -0.74414,0.7346c-0.31165,0.18445 -0.6551,0.27667 -1.03035,0.27667zM268.4477,214.76726c0.15264,0 0.29575,-0.03816 0.42931,-0.11448c0.13992,-0.08268 0.24805,-0.19081 0.32437,-0.32437c0.08268,-0.13356 0.12402,-0.27985 0.12402,-0.43885c0,-0.159 -0.04134,-0.30529 -0.12402,-0.43885c-0.07632,-0.13356 -0.18445,-0.23851 -0.32437,-0.31483c-0.13356,-0.08268 -0.27667,-0.12402 -0.42931,-0.12402c-0.159,0 -0.30529,0.04134 -0.43885,0.12402c-0.13356,0.07632 -0.24169,0.18127 -0.32437,0.31483c-0.08268,0.13356 -0.12402,0.27985 -0.12402,0.43885c0,0.159 0.04134,0.30529 0.12402,0.43885c0.08268,0.13356 0.19081,0.24169 0.32437,0.32437c0.13356,0.07632 0.27985,0.11448 0.43885,0.11448zM263.65848,211.49494c-0.38161,0 -0.72824,-0.09222 -1.03989,-0.27667c-0.30529,-0.18445 -0.55015,-0.42931 -0.7346,-0.7346c-0.18445,-0.31165 -0.27667,-0.65828 -0.27667,-1.03989c0,-0.36889 0.09222,-0.70916 0.27667,-1.02081c0.19081,-0.31165 0.44203,-0.5597 0.75368,-0.74414c0.31165,-0.19081 0.65192,-0.28621 1.02081,-0.28621c0.37525,0 0.71552,0.09222 1.02081,0.27667c0.31165,0.18445 0.5597,0.43249 0.74414,0.74414c0.18445,0.31165 0.27667,0.6551 0.27667,1.03035c0,0.38161 -0.09222,0.72824 -0.27667,1.03989c-0.18445,0.30529 -0.43249,0.55015 -0.74414,0.7346c-0.30529,0.18445 -0.64556,0.27667 -1.02081,0.27667zM263.65848,210.32149c0.159,0 0.30211,-0.03816 0.42931,-0.11448c0.13356,-0.08268 0.23851,-0.19081 0.31483,-0.32437c0.08268,-0.13356 0.12402,-0.27985 0.12402,-0.43885c0,-0.159 -0.04134,-0.30529 -0.12402,-0.43885c-0.07632,-0.13356 -0.18127,-0.23851 -0.31483,-0.31483c-0.1272,-0.08268 -0.27031,-0.12402 -0.42931,-0.12402c-0.16537,0 -0.31483,0.04134 -0.44839,0.12402c-0.1272,0.07632 -0.23215,0.18127 -0.31483,0.31483c-0.07632,0.13356 -0.11448,0.27985 -0.11448,0.43885c0,0.159 0.03816,0.30529 0.11448,0.43885c0.08268,0.13356 0.18762,0.24169 0.31483,0.32437c0.13356,0.07632 0.28303,0.11448 0.44839,0.11448z"/><path d="M203.71275,229.44592v-8.20464h4.93232v1.3738h-3.56806v2.05116h2.8907v1.36426h-2.8907v3.41542zM209.79046,222.3575v-1.25932h1.36426v1.25932zM209.79046,229.44592v-6.15348h1.36426v6.15348zM212.87119,229.44592v-6.15348h1.21161v1.49782l-0.15264,-0.19081c0.07632,-0.20353 0.17808,-0.38797 0.30529,-0.55334c0.1272,-0.17172 0.27985,-0.31483 0.45793,-0.42931c0.15264,-0.10176 0.32119,-0.18127 0.50563,-0.23851c0.18445,-0.05724 0.37207,-0.09222 0.56288,-0.10494c0.19716,-0.01908 0.38797,-0.01272 0.57242,0.01908v1.28794c-0.18445,-0.05724 -0.39751,-0.07632 -0.6392,-0.05724c-0.23533,0.01908 -0.44839,0.08586 -0.6392,0.20035c-0.18445,0.10176 -0.33709,0.23215 -0.45793,0.39115c-0.12084,0.159 -0.20989,0.34027 -0.26713,0.5438c-0.05724,0.20353 -0.08586,0.42295 -0.08586,0.65828v3.12921zM220.09756,229.61765c-0.6233,0 -1.17027,-0.13356 -1.64093,-0.40069c-0.47065,-0.27349 -0.83954,-0.64874 -1.10667,-1.12575c-0.26077,-0.47701 -0.39115,-1.02717 -0.39115,-1.65047c0,-0.67418 0.1272,-1.25932 0.38161,-1.75541c0.26077,-0.49609 0.62012,-0.88089 1.07805,-1.15437c0.45793,-0.27349 0.98901,-0.41023 1.59323,-0.41023c0.64238,0 1.18618,0.14946 1.63139,0.44839c0.44521,0.29893 0.77594,0.72188 0.99219,1.26886c0.21625,0.54061 0.29893,1.17981 0.24805,1.9176h-1.36426v-0.50563c-0.00636,-0.66782 -0.12402,-1.15437 -0.35299,-1.45966c-0.22897,-0.31165 -0.59468,-0.46747 -1.09713,-0.46747c-0.5597,0 -0.97629,0.17491 -1.24978,0.52472c-0.27349,0.34981 -0.41023,0.85862 -0.41023,1.52644c0,0.6233 0.13674,1.10667 0.41023,1.45012c0.27349,0.33709 0.671,0.50563 1.19253,0.50563c0.33709,0 0.62648,-0.07314 0.86816,-0.21943c0.24805,-0.15264 0.43885,-0.37207 0.57242,-0.65828l1.35472,0.41023c-0.23533,0.55334 -0.59786,0.98583 -1.08759,1.29748c-0.48974,0.30529 -1.03035,0.45793 -1.62185,0.45793zM217.97962,226.75556v-1.03989h4.22634v1.03989zM224.1597,229.44592v-6.15348h1.21161v1.49782l-0.15264,-0.19081c0.07632,-0.20353 0.17808,-0.38797 0.30529,-0.55334c0.1272,-0.17172 0.27985,-0.31483 0.45793,-0.42931c0.15264,-0.10176 0.32119,-0.18127 0.50563,-0.23851c0.18445,-0.05724 0.37207,-0.09222 0.56288,-0.10494c0.19716,-0.01908 0.38797,-0.01272 0.57242,0.01908v1.28794c-0.18445,-0.05724 -0.39751,-0.07632 -0.6392,-0.05724c-0.23533,0.01908 -0.44839,0.08586 -0.6392,0.20035c-0.18445,0.10176 -0.33709,0.23215 -0.45793,0.39115c-0.12084,0.159 -0.20989,0.34027 -0.26713,0.5438c-0.05724,0.20353 -0.08586,0.42295 -0.08586,0.65828v3.12921zM230.27953,229.61765c-0.44521,0 -0.82364,-0.08268 -1.13529,-0.24805c-0.30529,-0.17172 -0.53744,-0.39751 -0.69644,-0.67736c-0.15264,-0.28621 -0.22897,-0.59786 -0.22897,-0.93495c0,-0.29257 0.0477,-0.55652 0.1431,-0.79184c0.10176,-0.24169 0.25441,-0.44839 0.45793,-0.62012c0.20353,-0.17172 0.47065,-0.31483 0.80138,-0.42931c0.24169,-0.07632 0.5279,-0.14629 0.85862,-0.20989c0.33709,-0.0636 0.69962,-0.12402 1.08759,-0.18127c0.38797,-0.05724 0.79502,-0.11766 1.22116,-0.18127l-0.48655,0.27667c0,-0.41977 -0.0954,-0.73142 -0.28621,-0.93495c-0.19081,-0.20353 -0.51836,-0.30529 -0.98265,-0.30529c-0.27349,0 -0.54061,0.06678 -0.80138,0.20035c-0.25441,0.1272 -0.43567,0.34663 -0.5438,0.65828l-1.24978,-0.39115c0.15264,-0.52153 0.44203,-0.93813 0.86816,-1.24978c0.42613,-0.31801 1.00173,-0.47701 1.72679,-0.47701c0.54698,0 1.02717,0.08904 1.44058,0.26713c0.41977,0.17808 0.73142,0.47065 0.93495,0.87771c0.10812,0.21625 0.17172,0.43885 0.19081,0.66782c0.02544,0.22261 0.03816,0.46747 0.03816,0.7346v3.77795h-1.20207v-1.33564l0.20035,0.21943c-0.27985,0.44521 -0.60422,0.77276 -0.97311,0.98265c-0.36889,0.20353 -0.83,0.30529 -1.38334,0.30529zM230.55619,228.52051c0.30529,0 0.56924,-0.05406 0.79184,-0.16218c0.22261,-0.10812 0.39751,-0.24169 0.52472,-0.40069c0.13356,-0.159 0.22261,-0.31165 0.26713,-0.45793c0.06996,-0.17172 0.10812,-0.36889 0.11448,-0.5915c0.01272,-0.22897 0.01908,-0.41341 0.01908,-0.55334l0.42931,0.12402c-0.41341,0.0636 -0.76958,0.12084 -1.06851,0.17172c-0.29893,0.05088 -0.55334,0.09858 -0.76322,0.1431c-0.20989,0.03816 -0.39751,0.08586 -0.56288,0.1431c-0.159,0.05724 -0.29575,0.12402 -0.41023,0.20035c-0.10812,0.07632 -0.19081,0.16537 -0.24805,0.26713c-0.05724,0.0954 -0.08586,0.2067 -0.08586,0.33391c0,0.15264 0.03816,0.28939 0.11448,0.41023c0.07632,0.11448 0.18762,0.2067 0.33391,0.27667c0.14629,0.0636 0.32755,0.0954 0.5438,0.0954zM238.72023,229.44592c-0.40069,0.07632 -0.7982,0.10812 -1.19253,0.0954c-0.38797,-0.00636 -0.7346,-0.07632 -1.03989,-0.20989c-0.30529,-0.13356 -0.54061,-0.34663 -0.70598,-0.6392c-0.13992,-0.26713 -0.21307,-0.53744 -0.21943,-0.81092c-0.00636,-0.27985 -0.00954,-0.59468 -0.00954,-0.94449v-5.35209h1.36426v5.26623c0,0.24805 0.00318,0.46747 0.00954,0.65828c0.00636,0.18445 0.04452,0.33391 0.11448,0.44839c0.13992,0.22897 0.35935,0.35617 0.65828,0.38161c0.29893,0.02544 0.6392,0.00954 1.02081,-0.0477zM234.43664,224.3705v-1.07805h4.28358v1.07805zM242.53775,229.61765c-0.6233,0 -1.17027,-0.13356 -1.64093,-0.40069c-0.47065,-0.27349 -0.83954,-0.64874 -1.10667,-1.12575c-0.26077,-0.47701 -0.39115,-1.02717 -0.39115,-1.65047c0,-0.67418 0.1272,-1.25932 0.38161,-1.75541c0.26077,-0.49609 0.62012,-0.88089 1.07805,-1.15437c0.45793,-0.27349 0.98901,-0.41023 1.59323,-0.41023c0.64238,0 1.18618,0.14946 1.63139,0.44839c0.44521,0.29893 0.77594,0.72188 0.99219,1.26886c0.21625,0.54061 0.29893,1.17981 0.24805,1.9176h-1.36426v-0.50563c-0.00636,-0.66782 -0.12402,-1.15437 -0.35299,-1.45966c-0.22897,-0.31165 -0.59468,-0.46747 -1.09713,-0.46747c-0.5597,0 -0.97629,0.17491 -1.24978,0.52472c-0.27349,0.34981 -0.41023,0.85862 -0.41023,1.52644c0,0.6233 0.13674,1.10667 0.41023,1.45012c0.27349,0.33709 0.671,0.50563 1.19253,0.50563c0.33709,0 0.62648,-0.07314 0.86816,-0.21943c0.24805,-0.15264 0.43885,-0.37207 0.57242,-0.65828l1.35472,0.41023c-0.23533,0.55334 -0.59786,0.98583 -1.08759,1.29748c-0.48974,0.30529 -1.03035,0.45793 -1.62185,0.45793zM240.41981,226.75556v-1.03989h4.22634v1.03989zM250.7957,227.91948v-2.04162h-2.03208v-1.07805h2.03208v-2.03208h1.07805v2.03208h2.03208v1.07805h-2.03208v2.04162zM256.80961,229.44592v-6.70681l-1.53598,0.94449v-1.5169l1.53598,-0.92541h1.40242v8.20464zM263.32534,229.61765c-0.58514,0 -1.10031,-0.12402 -1.54552,-0.37207c-0.43885,-0.24805 -0.7823,-0.59468 -1.03035,-1.03989c-0.24805,-0.44521 -0.37207,-0.95721 -0.37207,-1.53598v-2.64266c0,-0.58514 0.12402,-1.09713 0.37207,-1.53598c0.24805,-0.44521 0.5915,-0.79184 1.03035,-1.03989c0.44521,-0.25441 0.96039,-0.38161 1.54552,-0.38161c0.57878,0 1.08759,0.1272 1.52644,0.38161c0.44521,0.24805 0.79184,0.59468 1.03989,1.03989c0.25441,0.43885 0.38161,0.95085 0.38161,1.53598v2.64266c0,0.57878 -0.1272,1.09077 -0.38161,1.53598c-0.24805,0.44521 -0.59468,0.79184 -1.03989,1.03989c-0.43885,0.24805 -0.94767,0.37207 -1.52644,0.37207zM263.32534,228.31063c0.28621,0 0.54698,-0.06678 0.7823,-0.20035c0.23533,-0.13992 0.41977,-0.32755 0.55334,-0.56288c0.13992,-0.23533 0.20989,-0.49609 0.20989,-0.7823v-2.843c0,-0.29257 -0.06996,-0.55334 -0.20989,-0.7823c-0.13356,-0.23533 -0.31801,-0.42295 -0.55334,-0.56288c-0.23533,-0.13992 -0.49609,-0.20989 -0.7823,-0.20989c-0.29257,0 -0.55652,0.06996 -0.79184,0.20989c-0.23533,0.13992 -0.42295,0.32755 -0.56288,0.56288c-0.13356,0.22897 -0.20035,0.48974 -0.20035,0.7823v2.843c0,0.28621 0.06678,0.54698 0.20035,0.7823c0.13992,0.23533 0.32755,0.42295 0.56288,0.56288c0.23533,0.13356 0.49928,0.20035 0.79184,0.20035zM269.00803,229.44592l-0.91587,-0.91587l7.29831,-7.28877l0.91587,0.91587zM274.59863,229.61765c-0.37525,0 -0.7187,-0.09222 -1.03035,-0.27667c-0.31165,-0.18445 -0.5597,-0.42931 -0.74414,-0.7346c-0.18445,-0.31165 -0.27667,-0.65828 -0.27667,-1.03989c0,-0.37525 0.09222,-0.71552 0.27667,-1.02081c0.19081,-0.31165 0.44203,-0.5597 0.75368,-0.74414c0.31165,-0.19081 0.65192,-0.28621 1.02081,-0.28621c0.37525,0 0.7187,0.09222 1.03035,0.27667c0.31165,0.18445 0.5597,0.43249 0.74414,0.74414c0.18445,0.30529 0.27667,0.64874 0.27667,1.03035c0,0.38161 -0.09222,0.72824 -0.27667,1.03989c-0.18445,0.30529 -0.43249,0.55015 -0.74414,0.7346c-0.31165,0.18445 -0.6551,0.27667 -1.03035,0.27667zM274.59863,228.44419c0.15264,0 0.29575,-0.03816 0.42931,-0.11448c0.13992,-0.08268 0.24805,-0.19081 0.32437,-0.32437c0.08268,-0.13356 0.12402,-0.27985 0.12402,-0.43885c0,-0.159 -0.04134,-0.30529 -0.12402,-0.43885c-0.07632,-0.13356 -0.18445,-0.23851 -0.32437,-0.31483c-0.13356,-0.08268 -0.27667,-0.12402 -0.42931,-0.12402c-0.159,0 -0.30529,0.04134 -0.43885,0.12402c-0.13356,0.07632 -0.24169,0.18127 -0.32437,0.31483c-0.08268,0.13356 -0.12402,0.27985 -0.12402,0.43885c0,0.159 0.04134,0.30529 0.12402,0.43885c0.08268,0.13356 0.19081,0.24169 0.32437,0.32437c0.13356,0.07632 0.27985,0.11448 0.43885,0.11448zM269.80941,225.17188c-0.38161,0 -0.72824,-0.09222 -1.03989,-0.27667c-0.30529,-0.18445 -0.55015,-0.42931 -0.7346,-0.7346c-0.18445,-0.31165 -0.27667,-0.65828 -0.27667,-1.03989c0,-0.36889 0.09222,-0.70916 0.27667,-1.02081c0.19081,-0.31165 0.44203,-0.5597 0.75368,-0.74414c0.31165,-0.19081 0.65192,-0.28621 1.02081,-0.28621c0.37525,0 0.71552,0.09222 1.02081,0.27667c0.31165,0.18445 0.5597,0.43249 0.74414,0.74414c0.18445,0.31165 0.27667,0.6551 0.27667,1.03035c0,0.38161 -0.09222,0.72824 -0.27667,1.03989c-0.18445,0.30529 -0.43249,0.55015 -0.74414,0.7346c-0.30529,0.18445 -0.64556,0.27667 -1.02081,0.27667zM269.80941,223.99843c0.159,0 0.30211,-0.03816 0.42931,-0.11448c0.13356,-0.08268 0.23851,-0.19081 0.31483,-0.32437c0.08268,-0.13356 0.12402,-0.27985 0.12402,-0.43885c0,-0.159 -0.04134,-0.30529 -0.12402,-0.43885c-0.07632,-0.13356 -0.18127,-0.23851 -0.31483,-0.31483c-0.1272,-0.08268 -0.27031,-0.12402 -0.42931,-0.12402c-0.16537,0 -0.31483,0.04134 -0.44839,0.12402c-0.1272,0.07632 -0.23215,0.18127 -0.31483,0.31483c-0.07632,0.13356 -0.11448,0.27985 -0.11448,0.43885c0,0.159 0.03816,0.30529 0.11448,0.43885c0.08268,0.13356 0.18762,0.24169 0.31483,0.32437c0.13356,0.07632 0.28303,0.11448 0.44839,0.11448z"/></g></g></g></svg>