<svg version="1.1" xmlns="http://www.w3.org/2000/svg" xmlns:xlink="http://www.w3.org/1999/xlink" width="483.48348" height="364.86487" viewBox="0,0,483.48348,364.86487"><defs><linearGradient x1="234.63869" y1="181.15241" x2="245.38044" y2="181.15241" gradientUnits="userSpaceOnUse" id="color-1"><stop offset="0" stop-color="#727272"/><stop offset="1" stop-color="#777777"/></linearGradient><linearGradient x1="234.63869" y1="181.15241" x2="245.38044" y2="181.15241" gradientUnits="userSpaceOnUse" id="color-2"><stop offset="0" stop-color="#676767"/><stop offset="1" stop-color="#616161"/></linearGradient><linearGradient x1="234.61956" y1="171.63122" x2="245.3734" y2="171.63122" gradientUnits="userSpaceOnUse" id="color-3"><stop offset="0" stop-color="#737373"/><stop offset="1" stop-color="#6e6e6e"/></linearGradient><linearGradient x1="234.61956" y1="171.63122" x2="245.3734" y2="171.63122" gradientUnits="userSpaceOnUse" id="color-4"><stop offset="0" stop-color="#676767"/><stop offset="1" stop-color="#616161"/></linearGradient><linearGradient x1="234.70423" y1="176.62433" x2="245.20405" y2="176.62433" gradientUnits="userSpaceOnUse" id="color-5"><stop offset="0" stop-color="#676767"/><stop offset="1" stop-color="#616161"/></linearGradient><linearGradient x1="234.70423" y1="180.77344" x2="245.20405" y2="180.77344" gradientUnits="userSpaceOnUse" id="color-6"><stop offset="0" stop-color="#676767"/><stop offset="1" stop-color="#616161"/></linearGradient><linearGradient x1="234.7889" y1="184.92256" x2="245.28872" y2="184.92256" gradientUnits="userSpaceOnUse" id="color-7"><stop offset="0" stop-color="#676767"/><stop offset="1" stop-color="#616161"/></linearGradient></defs><g transform="translate(0.99099,3.43343)"><g data-paper-data="{&quot;isPaintingLayer&quot;:true}" fill-rule="nonzero" stroke-linejoin="miter" stroke-miterlimit="10" stroke-dasharray="" stroke-dashoffset="0" style="mix-blend-mode: normal"><path d="M-0.99099,361.43143v-364.86486h483.48348v364.86487z" fill="none" stroke="#000000" stroke-width="0" stroke-linecap="butt"/><g stroke-width="1"><path d="M234.63869,188.65228v-16.35455c0,0 1.86865,0.96772 5.22572,0.96772c3.30844,0 5.51603,-0.96772 5.51603,-0.96772v16.35455c0,0 -2.15385,1.35481 -5.51603,1.35481c-3.41058,0 -5.22572,-1.35481 -5.22572,-1.35481z" fill="url(#color-1)" stroke="url(#color-2)" stroke-linecap="round"/><path d="M245.3734,171.63122c0,0.9048 -2.40733,1.63828 -5.37692,1.63828c-2.96959,0 -5.37692,-0.73348 -5.37692,-1.63828c0,-0.9048 2.40733,-1.63828 5.37692,-1.63828c2.96959,0 5.37692,0.73348 5.37692,1.63828z" fill="url(#color-3)" stroke="url(#color-4)" stroke-linecap="butt"/><path d="M245.20217,175.8199c0.00125,0.01437 0.00188,0.02879 0.00188,0.04325c0,0.88343 -2.35046,1.59958 -5.24991,1.59958c-2.89944,0 -5.24991,-0.71616 -5.24991,-1.59958c0,-0.02589 0.00202,-0.05163 0.00601,-0.07722" fill="none" stroke="url(#color-5)" stroke-linecap="butt"/><path d="M245.20217,179.96901c0.00125,0.01437 0.00188,0.02879 0.00188,0.04325c0,0.88343 -2.35046,1.59958 -5.24991,1.59958c-2.89944,0 -5.24991,-0.71615 -5.24991,-1.59958c0,-0.02589 0.00202,-0.05163 0.00601,-0.07722" fill="none" stroke="url(#color-6)" stroke-linecap="butt"/><path d="M245.28684,184.11813c0.00125,0.01437 0.00188,0.02879 0.00188,0.04325c0,0.88343 -2.35046,1.59958 -5.24991,1.59958c-2.89944,0 -5.24991,-0.71615 -5.24991,-1.59958c0,-0.02589 0.00202,-0.05163 0.00601,-0.07722" fill="none" stroke="url(#color-7)" stroke-linecap="butt"/></g></g></g></svg>