<svg version="1.1" xmlns="http://www.w3.org/2000/svg" xmlns:xlink="http://www.w3.org/1999/xlink" width="54.04698" height="57.625" viewBox="0,0,54.04698,57.625"><g transform="translate(-212.97651,-151.1875)"><g data-paper-data="{&quot;isPaintingLayer&quot;:true}" fill="none" fill-rule="nonzero" stroke-linejoin="miter" stroke-miterlimit="10" stroke-dasharray="" stroke-dashoffset="0" style="mix-blend-mode: normal"><path d="M247.67016,172.6429l-15.37163,15.49686" stroke="#f7f7f7" stroke-width="2.5" stroke-linecap="round"/><path d="M236.80671,174.28651c0,1.89329 -1.51378,3.42809 -3.38113,3.42809c-1.86734,0 -3.38113,-1.53481 -3.38113,-3.42809c0,-1.89329 1.51378,-3.42809 3.38113,-3.42809c1.86734,0 3.38113,1.53481 3.38113,3.42809z" stroke="#f7f7f7" stroke-width="2.5" stroke-linecap="butt"/><path d="M249.95556,185.71349c0,1.89329 -1.51378,3.42809 -3.38113,3.42809c-1.86736,0 -3.38113,-1.53481 -3.38113,-3.42809c0,-1.89329 1.51378,-3.42809 3.38113,-3.42809c1.86736,0 3.38113,1.53481 3.38113,3.42809z" stroke="#f7f7f7" stroke-width="2.5" stroke-linecap="butt"/><path d="M212.97651,208.8125v-57.625h54.04698v57.625z" stroke="none" stroke-width="0" stroke-linecap="butt"/></g></g></svg>