<svg version="1.1" xmlns="http://www.w3.org/2000/svg" xmlns:xlink="http://www.w3.org/1999/xlink" width="172.67767" height="263.71649" viewBox="0,0,172.67767,263.71649"><defs><linearGradient x1="210.55067" y1="189.82249" x2="210.47473" y2="166.8683" gradientUnits="userSpaceOnUse" id="color-1"><stop offset="0" stop-color="#830000"/><stop offset="1" stop-color="#620000"/></linearGradient><linearGradient x1="224.21501" y1="186.45056" x2="224.16181" y2="170.37152" gradientUnits="userSpaceOnUse" id="color-2"><stop offset="0" stop-color="#830000"/><stop offset="1" stop-color="#620000"/></linearGradient><linearGradient x1="222.35256" y1="178.44485" x2="224.69443" y2="178.43711" gradientUnits="userSpaceOnUse" id="color-3"><stop offset="0" stop-color="#620000"/><stop offset="1" stop-color="#620000" stop-opacity="0"/></linearGradient><linearGradient x1="196.76265" y1="186.37506" x2="196.70945" y2="170.29601" gradientUnits="userSpaceOnUse" id="color-4"><stop offset="0" stop-color="#830000"/><stop offset="1" stop-color="#620000"/></linearGradient><linearGradient x1="198.57204" y1="178.35719" x2="196.23019" y2="178.36494" gradientUnits="userSpaceOnUse" id="color-5"><stop offset="0" stop-color="#620000"/><stop offset="1" stop-color="#620000" stop-opacity="0"/></linearGradient><radialGradient cx="277.87355" cy="180.3253" r="65.74662" gradientUnits="userSpaceOnUse" id="color-6"><stop offset="0" stop-color="#000000"/><stop offset="1" stop-color="#111111"/></radialGradient><linearGradient x1="264.12095" y1="96.52735" x2="264.08676" y2="106.86063" gradientUnits="userSpaceOnUse" id="color-7"><stop offset="0" stop-color="#000000" stop-opacity="0"/><stop offset="1" stop-color="#000000"/></linearGradient><linearGradient x1="241.43345" y1="102.78566" x2="241.4189" y2="107.1828" gradientUnits="userSpaceOnUse" id="color-8"><stop offset="0" stop-color="#000000" stop-opacity="0"/><stop offset="1" stop-color="#000000"/></linearGradient><linearGradient x1="263.93447" y1="263.36309" x2="263.96866" y2="253.02981" gradientUnits="userSpaceOnUse" id="color-9"><stop offset="0" stop-color="#000000" stop-opacity="0"/><stop offset="1" stop-color="#000000"/></linearGradient><linearGradient x1="241.28888" y1="256.9548" x2="241.30343" y2="252.55765" gradientUnits="userSpaceOnUse" id="color-10"><stop offset="0" stop-color="#000000" stop-opacity="0"/><stop offset="1" stop-color="#000000"/></linearGradient><linearGradient x1="180.47859" y1="180.94694" x2="203.14513" y2="180.87195" gradientUnits="userSpaceOnUse" id="color-11"><stop offset="0" stop-color="#0d0d0d"/><stop offset="1" stop-color="#060606"/></linearGradient><linearGradient x1="313.14294" y1="121.25768" x2="318.97626" y2="121.23838" gradientUnits="userSpaceOnUse" id="color-12"><stop offset="0" stop-color="#737373"/><stop offset="1" stop-color="#8d8d8d"/></linearGradient><linearGradient x1="312.92989" y1="121.23062" x2="317.48543" y2="121.21555" gradientUnits="userSpaceOnUse" id="color-13"><stop offset="0" stop-color="#737373"/><stop offset="1" stop-color="#8d8d8d"/></linearGradient><linearGradient x1="299.25408" y1="129.67868" x2="299.197" y2="112.42878" gradientUnits="userSpaceOnUse" id="color-14"><stop offset="0" stop-color="#830000"/><stop offset="1" stop-color="#620000"/></linearGradient><linearGradient x1="312.3846" y1="127.13523" x2="312.34463" y2="115.05196" gradientUnits="userSpaceOnUse" id="color-15"><stop offset="0" stop-color="#830000"/><stop offset="1" stop-color="#620000"/></linearGradient><linearGradient x1="310.60082" y1="121.12026" x2="312.85081" y2="121.11282" gradientUnits="userSpaceOnUse" id="color-16"><stop offset="0" stop-color="#620000"/><stop offset="1" stop-color="#620000" stop-opacity="0"/></linearGradient><linearGradient x1="286.00933" y1="127.09749" x2="285.96936" y2="115.01423" gradientUnits="userSpaceOnUse" id="color-17"><stop offset="0" stop-color="#830000"/><stop offset="1" stop-color="#620000"/></linearGradient><linearGradient x1="287.75331" y1="121.07086" x2="285.50333" y2="121.0783" gradientUnits="userSpaceOnUse" id="color-18"><stop offset="0" stop-color="#620000"/><stop offset="1" stop-color="#620000" stop-opacity="0"/></linearGradient><linearGradient x1="315.97021" y1="97.85826" x2="321.40889" y2="125.54085" gradientUnits="userSpaceOnUse" id="color-19"><stop offset="0" stop-color="#c7c7c7"/><stop offset="1" stop-color="#c7c7c7" stop-opacity="0"/></linearGradient><linearGradient x1="324.5768" y1="110.41936" x2="317.72128" y2="131.72441" gradientUnits="userSpaceOnUse" id="color-20"><stop offset="0" stop-color="#c7c7c7"/><stop offset="1" stop-color="#c7c7c7" stop-opacity="0"/></linearGradient><linearGradient x1="270.31963" y1="294.94615" x2="557.97964" y2="-616.31521" gradientUnits="userSpaceOnUse" id="color-21"><stop offset="0" stop-color="#cacaca" stop-opacity="0"/><stop offset="1" stop-color="#cacaca"/></linearGradient><linearGradient x1="286.41461" y1="236.79542" x2="478.2597" y2="-370.93925" gradientUnits="userSpaceOnUse" id="color-22"><stop offset="0" stop-color="#cacaca" stop-opacity="0"/><stop offset="1" stop-color="#cacaca"/></linearGradient><linearGradient x1="321.61119" y1="145.12545" x2="316.17251" y2="117.44286" gradientUnits="userSpaceOnUse" id="color-23"><stop offset="0" stop-color="#c7c7c7"/><stop offset="1" stop-color="#c7c7c7" stop-opacity="0"/></linearGradient><linearGradient x1="312.94833" y1="132.40293" x2="319.80384" y2="111.09787" gradientUnits="userSpaceOnUse" id="color-24"><stop offset="0" stop-color="#c7c7c7"/><stop offset="1" stop-color="#c7c7c7" stop-opacity="0"/></linearGradient><linearGradient x1="314.19891" y1="238.9215" x2="320.03222" y2="238.9022" gradientUnits="userSpaceOnUse" id="color-25"><stop offset="0" stop-color="#737373"/><stop offset="1" stop-color="#8d8d8d"/></linearGradient><linearGradient x1="313.98587" y1="238.89443" x2="318.54141" y2="238.87936" gradientUnits="userSpaceOnUse" id="color-26"><stop offset="0" stop-color="#737373"/><stop offset="1" stop-color="#8d8d8d"/></linearGradient><linearGradient x1="300.31003" y1="247.3425" x2="300.25296" y2="230.0926" gradientUnits="userSpaceOnUse" id="color-27"><stop offset="0" stop-color="#830000"/><stop offset="1" stop-color="#620000"/></linearGradient><linearGradient x1="313.44058" y1="244.79905" x2="313.4006" y2="232.71578" gradientUnits="userSpaceOnUse" id="color-28"><stop offset="0" stop-color="#830000"/><stop offset="1" stop-color="#620000"/></linearGradient><linearGradient x1="311.65678" y1="238.78408" x2="313.90677" y2="238.77664" gradientUnits="userSpaceOnUse" id="color-29"><stop offset="0" stop-color="#620000"/><stop offset="1" stop-color="#620000" stop-opacity="0"/></linearGradient><linearGradient x1="287.06531" y1="244.76131" x2="287.02533" y2="232.67805" gradientUnits="userSpaceOnUse" id="color-30"><stop offset="0" stop-color="#830000"/><stop offset="1" stop-color="#620000"/></linearGradient><linearGradient x1="288.80927" y1="238.73468" x2="286.55928" y2="238.74212" gradientUnits="userSpaceOnUse" id="color-31"><stop offset="0" stop-color="#620000"/><stop offset="1" stop-color="#620000" stop-opacity="0"/></linearGradient><linearGradient x1="317.02617" y1="215.52208" x2="322.46487" y2="243.20467" gradientUnits="userSpaceOnUse" id="color-32"><stop offset="0" stop-color="#c7c7c7"/><stop offset="1" stop-color="#c7c7c7" stop-opacity="0"/></linearGradient><linearGradient x1="325.63275" y1="228.08318" x2="318.77725" y2="249.38823" gradientUnits="userSpaceOnUse" id="color-33"><stop offset="0" stop-color="#c7c7c7"/><stop offset="1" stop-color="#c7c7c7" stop-opacity="0"/></linearGradient><linearGradient x1="271.37558" y1="412.60997" x2="559.03568" y2="-498.65138" gradientUnits="userSpaceOnUse" id="color-34"><stop offset="0" stop-color="#cacaca" stop-opacity="0"/><stop offset="1" stop-color="#cacaca"/></linearGradient><linearGradient x1="287.47061" y1="354.45924" x2="479.3157" y2="-253.27544" gradientUnits="userSpaceOnUse" id="color-35"><stop offset="0" stop-color="#cacaca" stop-opacity="0"/><stop offset="1" stop-color="#cacaca"/></linearGradient><linearGradient x1="322.66716" y1="262.78927" x2="317.22848" y2="235.10668" gradientUnits="userSpaceOnUse" id="color-36"><stop offset="0" stop-color="#c7c7c7"/><stop offset="1" stop-color="#c7c7c7" stop-opacity="0"/></linearGradient><linearGradient x1="314.0043" y1="250.06675" x2="320.8598" y2="228.76169" gradientUnits="userSpaceOnUse" id="color-37"><stop offset="0" stop-color="#c7c7c7"/><stop offset="1" stop-color="#c7c7c7" stop-opacity="0"/></linearGradient><radialGradient cx="262.00068" cy="179.09388" r="49.66667" gradientUnits="userSpaceOnUse" id="color-38"><stop offset="0" stop-color="#000000"/><stop offset="1" stop-color="#0a0a0a"/></radialGradient><linearGradient x1="223.45916" y1="179.80473" x2="285.45882" y2="179.5996" gradientUnits="userSpaceOnUse" id="color-39"><stop offset="0" stop-color="#ff0000"/><stop offset="1" stop-color="#db0000"/></linearGradient><radialGradient cx="289.69913" cy="180.25224" r="66.25" gradientUnits="userSpaceOnUse" id="color-40"><stop offset="0" stop-color="#000000"/><stop offset="1" stop-color="#121212"/></radialGradient><linearGradient x1="309.02452" y1="184.11644" x2="308.96331" y2="165.61655" gradientUnits="userSpaceOnUse" id="color-41"><stop offset="0" stop-color="#000000" stop-opacity="0"/><stop offset="1" stop-color="#000000"/></linearGradient><linearGradient x1="272.89654" y1="176.98594" x2="272.82086" y2="154.11106" gradientUnits="userSpaceOnUse" id="color-42"><stop offset="0" stop-color="#000000" stop-opacity="0"/><stop offset="1" stop-color="#000000"/></linearGradient><linearGradient x1="292.40595" y1="179.7964" x2="304.78088" y2="179.75546" gradientUnits="userSpaceOnUse" id="color-43"><stop offset="0" stop-color="#000000"/><stop offset="1" stop-color="#000000" stop-opacity="0"/></linearGradient><linearGradient x1="238.61351" y1="188.04631" x2="238.55644" y2="170.7964" gradientUnits="userSpaceOnUse" id="color-44"><stop offset="0" stop-color="#830000"/><stop offset="1" stop-color="#620000"/></linearGradient><linearGradient x1="251.74406" y1="185.50285" x2="251.70408" y2="173.41959" gradientUnits="userSpaceOnUse" id="color-45"><stop offset="0" stop-color="#830000"/><stop offset="1" stop-color="#620000"/></linearGradient><linearGradient x1="249.96026" y1="179.48789" x2="252.21024" y2="179.48044" gradientUnits="userSpaceOnUse" id="color-46"><stop offset="0" stop-color="#620000"/><stop offset="1" stop-color="#620000" stop-opacity="0"/></linearGradient><linearGradient x1="225.36879" y1="185.46511" x2="225.32881" y2="173.38185" gradientUnits="userSpaceOnUse" id="color-47"><stop offset="0" stop-color="#830000"/><stop offset="1" stop-color="#620000"/></linearGradient><linearGradient x1="227.11274" y1="179.43848" x2="224.86275" y2="179.44592" gradientUnits="userSpaceOnUse" id="color-48"><stop offset="0" stop-color="#620000"/><stop offset="1" stop-color="#620000" stop-opacity="0"/></linearGradient><linearGradient x1="261.97511" y1="246.92767" x2="261.89515" y2="222.76113" gradientUnits="userSpaceOnUse" id="color-49"><stop offset="0" stop-color="#db0000"/><stop offset="1" stop-color="#ff0000"/></linearGradient><linearGradient x1="261.93734" y1="134.76052" x2="261.85738" y2="110.59398" gradientUnits="userSpaceOnUse" id="color-50"><stop offset="0" stop-color="#ff0000"/><stop offset="1" stop-color="#db0000"/></linearGradient><linearGradient x1="237.23517" y1="115.67547" x2="237.20539" y2="106.67552" gradientUnits="userSpaceOnUse" id="color-51"><stop offset="0" stop-color="#6d0000"/><stop offset="1" stop-color="#4a0000"/></linearGradient><linearGradient x1="239.16031" y1="244.1698" x2="239.19009" y2="253.16976" gradientUnits="userSpaceOnUse" id="color-52"><stop offset="0" stop-color="#6d0000"/><stop offset="1" stop-color="#4a0000"/></linearGradient><linearGradient x1="153.94914" y1="108.60575" x2="200.10344" y2="112.14795" gradientUnits="userSpaceOnUse" id="color-53"><stop offset="0" stop-color="#ef0000"/><stop offset="1" stop-color="#830000"/></linearGradient><linearGradient x1="154.423" y1="251.82779" x2="200.55286" y2="247.98024" gradientUnits="userSpaceOnUse" id="color-54"><stop offset="0" stop-color="#ef0000"/><stop offset="1" stop-color="#830000"/></linearGradient><linearGradient x1="211.90064" y1="168.88458" x2="211.87212" y2="160.26362" gradientUnits="userSpaceOnUse" id="color-55"><stop offset="0" stop-color="#830000"/><stop offset="1" stop-color="#620000"/></linearGradient><linearGradient x1="218.4629" y1="167.61344" x2="218.44292" y2="161.57461" gradientUnits="userSpaceOnUse" id="color-56"><stop offset="0" stop-color="#830000"/><stop offset="1" stop-color="#620000"/></linearGradient><linearGradient x1="217.57139" y1="164.60736" x2="218.69587" y2="164.60364" gradientUnits="userSpaceOnUse" id="color-57"><stop offset="0" stop-color="#620000"/><stop offset="1" stop-color="#620000" stop-opacity="0"/></linearGradient><linearGradient x1="205.28135" y1="167.59459" x2="205.26137" y2="161.55575" gradientUnits="userSpaceOnUse" id="color-58"><stop offset="0" stop-color="#830000"/><stop offset="1" stop-color="#620000"/></linearGradient><linearGradient x1="206.15293" y1="164.58266" x2="205.02846" y2="164.58638" gradientUnits="userSpaceOnUse" id="color-59"><stop offset="0" stop-color="#620000"/><stop offset="1" stop-color="#620000" stop-opacity="0"/></linearGradient><linearGradient x1="212.11704" y1="196.50902" x2="212.08852" y2="187.88806" gradientUnits="userSpaceOnUse" id="color-60"><stop offset="0" stop-color="#830000"/><stop offset="1" stop-color="#620000"/></linearGradient><linearGradient x1="218.67929" y1="195.23788" x2="218.65931" y2="189.19904" gradientUnits="userSpaceOnUse" id="color-61"><stop offset="0" stop-color="#830000"/><stop offset="1" stop-color="#620000"/></linearGradient><linearGradient x1="217.78779" y1="192.23179" x2="218.91227" y2="192.22807" gradientUnits="userSpaceOnUse" id="color-62"><stop offset="0" stop-color="#620000"/><stop offset="1" stop-color="#620000" stop-opacity="0"/></linearGradient><linearGradient x1="205.49775" y1="195.21902" x2="205.47777" y2="189.18018" gradientUnits="userSpaceOnUse" id="color-63"><stop offset="0" stop-color="#830000"/><stop offset="1" stop-color="#620000"/></linearGradient><linearGradient x1="206.36933" y1="192.20709" x2="205.24486" y2="192.21081" gradientUnits="userSpaceOnUse" id="color-64"><stop offset="0" stop-color="#620000"/><stop offset="1" stop-color="#620000" stop-opacity="0"/></linearGradient><linearGradient x1="193.44646" y1="128.83409" x2="213.92836" y2="128.76632" gradientUnits="userSpaceOnUse" id="color-65"><stop offset="0" stop-color="#4d4d4d"/><stop offset="1" stop-color="#545454"/></linearGradient><linearGradient x1="177.42815" y1="128.76515" x2="197.91005" y2="128.69738" gradientUnits="userSpaceOnUse" id="color-66"><stop offset="0" stop-color="#4d4d4d"/><stop offset="1" stop-color="#555555"/></linearGradient><linearGradient x1="192.38393" y1="230.83816" x2="212.86585" y2="230.7704" gradientUnits="userSpaceOnUse" id="color-67"><stop offset="0" stop-color="#4d4d4d"/><stop offset="1" stop-color="#545454"/></linearGradient><linearGradient x1="176.36564" y1="230.76921" x2="196.84755" y2="230.70145" gradientUnits="userSpaceOnUse" id="color-68"><stop offset="0" stop-color="#4d4d4d"/><stop offset="1" stop-color="#555555"/></linearGradient><linearGradient x1="179.73039" y1="184.32444" x2="179.69084" y2="172.37017" gradientUnits="userSpaceOnUse" id="color-69"><stop offset="0" stop-color="#830000"/><stop offset="1" stop-color="#620000"/></linearGradient><linearGradient x1="188.82996" y1="182.56181" x2="188.80226" y2="174.18804" gradientUnits="userSpaceOnUse" id="color-70"><stop offset="0" stop-color="#830000"/><stop offset="1" stop-color="#620000"/></linearGradient><linearGradient x1="187.59375" y1="178.39342" x2="189.15301" y2="178.38826" gradientUnits="userSpaceOnUse" id="color-71"><stop offset="0" stop-color="#620000"/><stop offset="1" stop-color="#620000" stop-opacity="0"/></linearGradient><linearGradient x1="170.55174" y1="182.53566" x2="170.52404" y2="174.16189" gradientUnits="userSpaceOnUse" id="color-72"><stop offset="0" stop-color="#830000"/><stop offset="1" stop-color="#620000"/></linearGradient><linearGradient x1="171.76031" y1="178.35917" x2="170.20106" y2="178.36433" gradientUnits="userSpaceOnUse" id="color-73"><stop offset="0" stop-color="#620000"/><stop offset="1" stop-color="#620000" stop-opacity="0"/></linearGradient><linearGradient x1="300.49003" y1="179.50821" x2="314.40692" y2="179.46216" gradientUnits="userSpaceOnUse" id="color-74"><stop offset="0" stop-color="#79b0ff"/><stop offset="1" stop-color="#98c3ff"/></linearGradient><linearGradient x1="300.49003" y1="179.50821" x2="314.40692" y2="179.46216" gradientUnits="userSpaceOnUse" id="color-75"><stop offset="0" stop-color="#6ea2ea"/><stop offset="1" stop-color="#8fb6ee"/></linearGradient><linearGradient x1="302.3473" y1="183.46042" x2="311.09725" y2="183.43147" gradientUnits="userSpaceOnUse" id="color-76"><stop offset="0" stop-color="#6ea2ea"/><stop offset="1" stop-color="#8fb6ee"/></linearGradient><linearGradient x1="302.58385" y1="179.39712" x2="313.33379" y2="179.36155" gradientUnits="userSpaceOnUse" id="color-77"><stop offset="0" stop-color="#6ea2ea"/><stop offset="1" stop-color="#8fb6ee"/></linearGradient><linearGradient x1="302.32041" y1="175.33547" x2="311.07037" y2="175.30652" gradientUnits="userSpaceOnUse" id="color-78"><stop offset="0" stop-color="#6ea2ea"/><stop offset="1" stop-color="#8fb6ee"/></linearGradient><linearGradient x1="266.73836" y1="269.20556" x2="267.60516" y2="269.20556" gradientUnits="userSpaceOnUse" id="color-79"><stop offset="0" stop-color="#898989"/><stop offset="1" stop-color="#a1a1a1"/></linearGradient><linearGradient x1="268.09273" y1="269.20556" x2="270.3139" y2="269.20556" gradientUnits="userSpaceOnUse" id="color-80"><stop offset="0" stop-color="#898989"/><stop offset="1" stop-color="#a1a1a1"/></linearGradient><linearGradient x1="271.77662" y1="269.23264" x2="273.07681" y2="269.23264" gradientUnits="userSpaceOnUse" id="color-81"><stop offset="0" stop-color="#a1a1a1"/><stop offset="1" stop-color="#898989"/></linearGradient><radialGradient cx="261.59791" cy="262.43069" r="7.44897" gradientUnits="userSpaceOnUse" id="color-82"><stop offset="0" stop-color="#696969"/><stop offset="1" stop-color="#505050"/></radialGradient><linearGradient x1="252.23531" y1="269.06763" x2="258.82979" y2="269.06763" gradientUnits="userSpaceOnUse" id="color-83"><stop offset="0" stop-color="#454545"/><stop offset="1" stop-color="#474747"/></linearGradient><linearGradient x1="266.73836" y1="89.53889" x2="267.60516" y2="89.53889" gradientUnits="userSpaceOnUse" id="color-84"><stop offset="0" stop-color="#898989"/><stop offset="1" stop-color="#a1a1a1"/></linearGradient><linearGradient x1="268.09273" y1="89.53889" x2="270.3139" y2="89.53889" gradientUnits="userSpaceOnUse" id="color-85"><stop offset="0" stop-color="#898989"/><stop offset="1" stop-color="#a1a1a1"/></linearGradient><linearGradient x1="271.77662" y1="89.56597" x2="273.07681" y2="89.56597" gradientUnits="userSpaceOnUse" id="color-86"><stop offset="0" stop-color="#a1a1a1"/><stop offset="1" stop-color="#898989"/></linearGradient><radialGradient cx="261.59791" cy="82.76402" r="7.44897" gradientUnits="userSpaceOnUse" id="color-87"><stop offset="0" stop-color="#696969"/><stop offset="1" stop-color="#505050"/></radialGradient><linearGradient x1="252.23531" y1="89.40096" x2="258.82979" y2="89.40096" gradientUnits="userSpaceOnUse" id="color-88"><stop offset="0" stop-color="#454545"/><stop offset="1" stop-color="#474747"/></linearGradient><linearGradient x1="283.51676" y1="180.24954" x2="284.68316" y2="180.24622" gradientUnits="userSpaceOnUse" id="color-89"><stop offset="0" stop-color="#898989"/><stop offset="1" stop-color="#a1a1a1"/></linearGradient><linearGradient x1="285.33927" y1="180.24436" x2="288.32816" y2="180.23586" gradientUnits="userSpaceOnUse" id="color-90"><stop offset="0" stop-color="#898989"/><stop offset="1" stop-color="#a1a1a1"/></linearGradient><linearGradient x1="290.29657" y1="180.26671" x2="292.04616" y2="180.26174" gradientUnits="userSpaceOnUse" id="color-91"><stop offset="0" stop-color="#a1a1a1"/><stop offset="1" stop-color="#898989"/></linearGradient><radialGradient cx="276.57363" cy="171.15266" r="10.02369" gradientUnits="userSpaceOnUse" id="color-92"><stop offset="0" stop-color="#696969"/><stop offset="1" stop-color="#505050"/></radialGradient><linearGradient x1="264.00032" y1="180.11943" x2="272.87413" y2="180.0942" gradientUnits="userSpaceOnUse" id="color-93"><stop offset="0" stop-color="#454545"/><stop offset="1" stop-color="#474747"/></linearGradient><linearGradient x1="276.43463" y1="180.12367" x2="280.9818" y2="180.11074" gradientUnits="userSpaceOnUse" id="color-94"><stop offset="0" stop-color="#000000"/><stop offset="1" stop-color="#2c2c2c"/></linearGradient><linearGradient x1="276.43463" y1="180.12367" x2="280.9818" y2="180.11074" gradientUnits="userSpaceOnUse" id="color-95"><stop offset="0" stop-color="#000000"/><stop offset="1" stop-color="#2c2c2c"/></linearGradient></defs><g transform="translate(-153.701,-48.05757)"><g data-paper-data="{&quot;isPaintingLayer&quot;:true}" fill-rule="nonzero" stroke-linejoin="miter" stroke-miterlimit="10" stroke-dasharray="" stroke-dashoffset="0" style="mix-blend-mode: normal"><g stroke="none" stroke-width="0" stroke-linecap="butt"><path d="M222.52019,189.78289l-23.93899,0.0792l-0.07595,-22.95421l23.93899,-0.0792z" fill="url(#color-1)"/><g><path d="M226.09427,186.44434l-3.75854,0.01244l-0.0532,-16.07903l3.75854,-0.01244z" fill="url(#color-2)"/><path d="M224.72085,186.42118l-2.34186,0.00775l-0.05283,-15.96814l2.34186,-0.00775z" fill="url(#color-3)"/></g><g data-paper-data="{&quot;index&quot;:null}"><path d="M194.8302,170.30223l3.75854,-0.01244l0.0532,16.07903l-3.75854,0.01244z" fill="url(#color-4)"/><path d="M196.20377,170.38087l2.34186,-0.00775l0.05283,15.96816l-2.34186,0.00775z" fill="url(#color-5)"/></g></g><path d="M287.30121,246.04109l-18.42029,0.06095l-0.43506,-131.49251l18.42029,-0.06095z" fill="url(#color-6)" stroke="none" stroke-width="0" stroke-linecap="butt"/><g data-paper-data="{&quot;index&quot;:null}" stroke-width="0"><path d="M234.82293,110.47026l-0.13077,-27.12366l6.39484,0.02116l7.63837,24.06129l-0.01532,4.63074z" fill="#0d0d0d" stroke="#4d4d4d" stroke-linecap="round"/><path d="M248.43883,109.55889l-0.29652,-61.50132l14.49992,0.04797l17.31959,54.5576l-0.03474,10.49994z" fill="#0d0d0d" stroke="#4d4d4d" stroke-linecap="round"/><path d="M271.08896,102.00275l-18.75017,0.01948l0.02886,-8.72277l5.6452,-6.09549l13.12493,0.04343z" data-paper-data="{&quot;index&quot;:null}" fill="#0a0a0a" stroke="#000000" stroke-linecap="round"/><path d="M250.84024,51.21669l8.43139,-0.00875l-0.01298,3.92238l-2.53848,2.74096l-5.90189,-0.01953z" data-paper-data="{&quot;index&quot;:null}" fill="#0a0a0a" stroke="#000000" stroke-linecap="round"/><path d="M244.09651,104.10802l-4.96856,-0.01644l-2.12172,-2.32159l0.01093,-3.30209l7.09784,0.05434z" data-paper-data="{&quot;index&quot;:null}" fill="#0a0a0a" stroke="#000000" stroke-linecap="round"/><path d="M248.45437,96.47553l29.99984,0.09926l1.31678,5.00438l-0.01765,5.3333l-31.33316,-0.10367z" fill="url(#color-7)" stroke="none" stroke-linecap="butt"/><path d="M234.7668,102.76359l12.76589,0.04224l0.56034,2.12953l-0.00751,2.26949l-13.33326,-0.04411z" fill="url(#color-8)" stroke="none" stroke-linecap="butt"/></g><g data-paper-data="{&quot;index&quot;:null}" stroke-width="0"><path d="M248.6267,247.72902l-0.01532,4.63074l-7.79743,24.01023l-6.39483,-0.02116l0.31025,-27.1222z" fill="#0d0d0d" stroke="#4d4d4d" stroke-linecap="round"/><path d="M279.85037,246.83232l-0.03474,10.49994l-17.68022,54.4418l-14.49992,-0.04797l0.70347,-61.49801z" fill="#0d0d0d" stroke="#4d4d4d" stroke-linecap="round"/><path d="M270.88974,272.68928l-13.12493,-0.04343l-5.60474,-6.13271l0.02886,-8.72278l18.74963,0.14356z" data-paper-data="{&quot;index&quot;:null}" fill="#0a0a0a" stroke="#000000" stroke-linecap="round"/><path d="M250.37617,301.94982l5.90189,0.01953l2.52029,2.75769l-0.01298,3.92238l-8.43115,-0.06456z" data-paper-data="{&quot;index&quot;:null}" fill="#0a0a0a" stroke="#000000" stroke-linecap="round"/><path d="M243.94215,261.23585l-7.09804,0.00738l0.01093,-3.30209l2.13704,-2.3075l4.96856,0.01644z" data-paper-data="{&quot;index&quot;:null}" fill="#0a0a0a" stroke="#000000" stroke-linecap="round"/><path d="M248.30209,252.97798l31.33316,0.10367l-0.01765,5.3333l-1.34987,4.99556l-29.99984,-0.09926z" fill="url(#color-9)" stroke="none" stroke-linecap="butt"/><path d="M234.6368,252.53561l13.33326,0.04411l-0.00751,2.26949l-0.57442,2.12577l-12.76589,-0.04224z" fill="url(#color-10)" stroke="none" stroke-linecap="butt"/></g><path d="M221.2419,164.51437l-18.9999,0.06286" fill="none" stroke="#000000" stroke-width="2.5" stroke-linecap="round"/><path d="M202.58326,192.15959l18.9999,-0.06286" fill="none" stroke="#000000" stroke-width="2.5" stroke-linecap="round"/><path d="M203.37011,248.87157l-22.66654,0.07499l-0.44997,-135.99926l22.66654,-0.07499z" fill="url(#color-11)" stroke="none" stroke-width="0" stroke-linecap="butt"/><g stroke="none" stroke-width="0" stroke-linecap="butt"><path d="M318.97847,121.90505l-5.8333,0.0193l-0.00441,-1.33332l5.8333,-0.0193z" fill="url(#color-12)"/><path d="M317.48929,122.3822l-4.55554,0.01507l-0.00772,-2.33332l4.55554,-0.01507z" fill="url(#color-13)"/></g><path d="M310.75401,129.64063l-22.99987,0.0761l-0.05707,-17.24991l22.99987,-0.0761z" fill="url(#color-14)" stroke="none" stroke-width="0" stroke-linecap="butt"/><g stroke="none" stroke-width="0" stroke-linecap="butt"><path d="M314.19015,127.12925l-3.61109,0.01195l-0.03998,-12.08326l3.61109,-0.01195z" fill="url(#color-15)"/><path d="M312.87066,127.11279l-2.24999,0.00744l-0.0397,-11.99993l2.24999,-0.00744z" fill="url(#color-16)"/></g><g data-paper-data="{&quot;index&quot;:null}" stroke="none" stroke-width="0" stroke-linecap="butt"><path d="M284.16381,115.0202l3.61109,-0.01195l0.03998,12.08326l-3.61109,0.01195z" fill="url(#color-17)"/><path d="M285.48348,115.07833l2.24999,-0.00744l0.0397,11.99993l-2.24999,0.00744z" fill="url(#color-18)"/></g><g stroke="none" stroke-width="0" stroke-linecap="butt"><path d="M320.27236,129.1412l-1.50504,-7.66059l2.27306,-7.20069l1.31281,8.18381z" data-paper-data="{&quot;index&quot;:null}" fill="url(#color-19)"/><path d="M316.82353,127.06881l1.89712,-5.89575l1.7955,9.31123l-2.02768,5.11019z" data-paper-data="{&quot;index&quot;:null}" fill="url(#color-20)"/><g><path d="M318.32082,132.25026c-1.5984,-0.75839 -2.77871,-6.24961 -2.57594,-13.07036c0.20278,-6.82075 1.59341,-11.13229 3.2718,-10.33595c1.67839,0.79634 2.77031,6.32696 2.56873,13.10709c-0.20157,6.78013 -1.66619,11.0576 -3.26459,10.29922z" fill="url(#color-21)"/><path d="M320.6046,121.42224c-0.13443,4.52178 -1.11122,7.37448 -2.17722,6.8687c-1.066,-0.50578 -1.85317,-4.16796 -1.71793,-8.71683c0.13523,-4.54886 1.06268,-7.4243 2.18202,-6.89321c1.11934,0.53109 1.84756,4.21955 1.71313,8.74133z" fill="url(#color-22)"/><path d="M317.30904,113.84252l1.50504,7.66059l-2.27306,7.20069l-1.31282,-8.18381z" fill="url(#color-23)"/><path d="M320.70159,115.75349l-1.89712,5.89574l-1.79551,-9.31122l2.02768,-5.11019z" data-paper-data="{&quot;index&quot;:null}" fill="url(#color-24)"/></g></g><path d="M320.03442,239.56887l-5.83331,0.0193l-0.00441,-1.33333l5.83331,-0.0193z" fill="url(#color-25)" stroke="none" stroke-width="0" stroke-linecap="butt"/><path d="M318.54527,240.04602l-4.55554,0.01507l-0.00772,-2.33333l4.55554,-0.01507z" fill="url(#color-26)" stroke="none" stroke-width="0" stroke-linecap="butt"/><path d="M311.80997,247.30445l-22.99987,0.0761l-0.05707,-17.24991l22.99987,-0.0761z" fill="url(#color-27)" stroke="none" stroke-width="0" stroke-linecap="butt"/><g stroke="none" stroke-width="0" stroke-linecap="butt"><path d="M315.24612,244.79307l-3.61109,0.01195l-0.03998,-12.08326l3.61109,-0.01195z" fill="url(#color-28)"/><path d="M313.92662,244.77661l-2.24999,0.00744l-0.0397,-11.99993l2.24999,-0.00744z" fill="url(#color-29)"/></g><g data-paper-data="{&quot;index&quot;:null}" stroke="none" stroke-width="0" stroke-linecap="butt"><path d="M285.2198,232.68402l3.61109,-0.01195l0.03998,12.08326l-3.61109,0.01195z" fill="url(#color-30)"/><path d="M286.53943,232.74215l2.24999,-0.00744l0.0397,11.99993l-2.24999,0.00744z" fill="url(#color-31)"/></g><path d="M321.32832,246.80502l-1.50504,-7.66059l2.27306,-7.20069l1.31281,8.18381z" data-paper-data="{&quot;index&quot;:null}" fill="url(#color-32)" stroke="none" stroke-width="0" stroke-linecap="butt"/><path d="M317.8795,244.73262l1.89712,-5.89574l1.7955,9.31123l-2.02768,5.11019z" data-paper-data="{&quot;index&quot;:null}" fill="url(#color-33)" stroke="none" stroke-width="0" stroke-linecap="butt"/><g stroke="none" stroke-width="0" stroke-linecap="butt"><path d="M319.37678,249.91407c-1.5984,-0.7584 -2.77872,-6.24961 -2.57594,-13.07036c0.20278,-6.82074 1.59342,-11.13229 3.2718,-10.33595c1.67839,0.79634 2.77031,6.32696 2.56873,13.1071c-0.20157,6.78014 -1.66619,11.05759 -3.26459,10.29921z" fill="url(#color-34)"/><path d="M321.66058,239.08606c-0.13443,4.52178 -1.11122,7.37449 -2.17722,6.8687c-1.066,-0.50579 -1.85317,-4.16796 -1.71794,-8.71683c0.13523,-4.54886 1.06268,-7.4243 2.18202,-6.89321c1.11934,0.5311 1.84756,4.21956 1.71313,8.74134z" fill="url(#color-35)"/><path d="M318.365,231.50633l1.50505,7.66059l-2.27306,7.20069l-1.31282,-8.18381z" fill="url(#color-36)"/><path d="M321.75755,233.4173l-1.89712,5.89574l-1.7955,-9.31122l2.02768,-5.11018z" data-paper-data="{&quot;index&quot;:null}" fill="url(#color-37)"/></g><path d="M263.83168,228.75475l-3.33331,0.01103l-0.32865,-99.33279l3.33331,-0.01103z" fill="url(#color-38)" stroke="none" stroke-width="0" stroke-linecap="butt"/><path d="M265.97385,212.95592l-7.99996,0.02647l-0.22498,-67.99963l7.99996,-0.02647z" fill="#0a0a0a" stroke="none" stroke-width="0" stroke-linecap="butt"/><path d="M285.66119,240.76593l-62.15074,-45.46129l-0.11139,-33.66648l61.52406,-43.20379" fill="none" stroke="url(#color-39)" stroke-width="5" stroke-linecap="round"/><path d="M295.41829,246.48368l-10.99994,0.03639l-0.43839,-132.49927l10.99994,-0.03639z" fill="url(#color-40)" stroke="none" stroke-width="0" stroke-linecap="butt"/><path d="M315.0232,177.41844l-44.49645,1.14723" fill="none" stroke="#000000" stroke-width="12.5" stroke-linecap="round"/><path d="M289.53762,156.62765l0.23887,11.74927l21.04922,-0.26964l13.02458,7.40695l0.02399,7.24996l-12.22264,8.29048l-21.59939,0.22146l0.23507,10.59928l-34.39915,0.31381l-0.24632,-13.99926l-7.22775,-8.37613l7.17151,-8.62377l-0.04698,-14.19992z" fill="#0d0d0d" stroke="#0d0d0d" stroke-width="5" stroke-linecap="round"/><path d="M292.59208,185.67082l-0.06617,-19.99989l18.7499,-0.06204l14.65346,8.57656l0.15767,9.87453z" fill="url(#color-41)" stroke="#0d0d0d" stroke-width="0" stroke-linecap="round"/><path d="M292.27144,176.92183l-38.74979,0.12821l-0.07568,-22.87487l38.74979,-0.12821z" fill="url(#color-42)" stroke="none" stroke-width="0" stroke-linecap="butt"/><path d="M294.92282,184.89029l6.21247,-0.02055l2.67206,2.8852l0.01366,4.12878l-8.87508,-0.00922z" data-paper-data="{&quot;index&quot;:null}" fill="#0a0a0a" stroke="#000000" stroke-width="0" stroke-linecap="round"/><path d="M304.8272,193.75538l-12.37493,0.04094l-0.09264,-27.99985l12.37493,-0.04094z" fill="url(#color-43)" stroke="none" stroke-width="0" stroke-linecap="butt"/><path d="M290.23082,202.42873l-28.74943,0.22012l-0.04425,-13.37493l8.59393,-9.40349l20.12489,-0.06659z" fill="#0a0a0a" stroke="#000000" stroke-width="0" stroke-linecap="round"/><g stroke-linecap="butt"><path d="M250.11345,188.00826l-22.99987,0.0761l-0.05707,-17.24991l22.99987,-0.0761z" fill="url(#color-44)" stroke="none" stroke-width="0"/><g stroke="none" stroke-width="0"><path d="M253.5496,185.49688l-3.61109,0.01195l-0.03998,-12.08326l3.61109,-0.01195z" fill="url(#color-45)"/><path d="M252.23009,185.48041l-2.24999,0.00744l-0.0397,-11.99993l2.24999,-0.00744z" fill="url(#color-46)"/></g><g data-paper-data="{&quot;index&quot;:null}" stroke="none" stroke-width="0"><path d="M223.52326,173.38782l3.61109,-0.01195l0.03998,12.08326l-3.61109,0.01195z" fill="url(#color-47)"/><path d="M224.8429,173.44596l2.24999,-0.00744l0.0397,11.99993l-2.24999,0.00744z" fill="url(#color-48)"/></g><g fill="none" stroke="#ffffff"><path d="M239.22785,174.43861c2.73871,-0.00906 4.96625,2.21381 4.97535,4.96494c0.0091,2.75112 -2.20369,4.98869 -4.94239,4.99775c-2.73871,0.00906 -4.96625,-2.21381 -4.97535,-4.96494c-0.0091,-2.75112 2.20369,-4.98869 4.94239,-4.99775z" stroke-width="1"/><g stroke-width="0.5"><path d="M240.91614,178.35654l-2.9588,2.69517l-0.34014,-0.37341l2.9588,-2.69517z"/><path d="M240.75016,181.00316l-0.31295,0.28507l-2.87658,-3.15794l0.31295,-0.28507z"/><path d="M237.06472,181.87196l-0.40236,0.36651l-0.34208,-0.37554l0.40236,-0.36651z"/><path d="M242.23449,177.16281l-0.40237,0.36651l-0.34208,-0.37554l0.40237,-0.36651z"/></g></g></g><path d="M264.14179,246.9205l-4.33331,0.01434l-0.07996,-24.16654l4.33331,-0.01434z" fill="url(#color-49)" stroke="none" stroke-width="0" stroke-linecap="butt"/><path d="M264.10398,134.75335l-4.33331,0.01434l-0.07996,-24.16654l4.33331,-0.01434z" fill="url(#color-50)" stroke="none" stroke-width="0" stroke-linecap="butt"/><path d="M302.48481,115.45959l-130.49929,0.43177l-0.02978,-8.99995l130.49929,-0.43177z" fill="url(#color-51)" stroke="none" stroke-width="0" stroke-linecap="butt"/><path d="M304.43975,252.95387l-130.49929,0.43177l-0.02978,-8.99995l130.49929,-0.43177z" data-paper-data="{&quot;index&quot;:null}" fill="url(#color-52)" stroke="none" stroke-width="0" stroke-linecap="butt"/><path d="M275.55968,171.71565c4.64837,-0.01538 8.42897,3.70309 8.4442,8.30544c0.01523,4.60234 -3.74068,8.34575 -8.38905,8.36113c-4.64837,0.01538 -8.42897,-3.70309 -8.4442,-8.30544c-0.01523,-4.60234 3.74068,-8.34575 8.38905,-8.36113z" fill="#3d3d3d" stroke="#3e3e3e" stroke-width="1.5" stroke-linecap="butt"/><path d="M274.39304,171.7195c4.64836,-0.01538 8.42896,3.70309 8.44419,8.30545c0.01523,4.60234 -3.74068,8.34576 -8.38904,8.36114c-4.64836,0.01538 -8.42897,-3.70309 -8.4442,-8.30545c-0.01523,-4.60234 3.74068,-8.34576 8.38905,-8.36114z" fill="#5a5a5a" stroke="#4d4d4d" stroke-width="1.5" stroke-linecap="butt"/><path d="M174.90005,113.24147l-21.19905,-1.40269l0.49625,-6.46606l20.95897,1.60853l24.99001,4.60929z" data-paper-data="{&quot;index&quot;:null}" fill="url(#color-53)" stroke="#000000" stroke-width="0" stroke-linecap="round"/><path d="M200.59935,248.53736l-24.95896,4.77455l-20.94786,1.7472l-0.53903,-6.46263l21.1893,-1.54293z" data-paper-data="{&quot;index&quot;:null}" fill="url(#color-54)" stroke="#000000" stroke-width="0" stroke-linecap="round"/><g stroke="none" stroke-width="0" stroke-linecap="butt"><path d="M217.64795,168.86557l-11.49461,0.03803l-0.02852,-8.62095l11.49462,-0.03803z" fill="url(#color-55)"/><g><path d="M219.36523,167.61046l-1.80471,0.00597l-0.01998,-6.03884l1.80471,-0.00597z" fill="url(#color-56)"/><path d="M218.70579,167.60223l-1.12447,0.00372l-0.01984,-5.99719l1.12447,-0.00372z" fill="url(#color-57)"/></g><g data-paper-data="{&quot;index&quot;:null}"><path d="M204.35902,161.55874l1.80471,-0.00597l0.01998,6.03884l-1.80471,0.00597z" fill="url(#color-58)"/><path d="M205.01854,161.58778l1.12447,-0.00372l0.01984,5.99719l-1.12447,0.00372z" fill="url(#color-59)"/></g></g><g stroke="none" stroke-width="0" stroke-linecap="butt"><path d="M217.86435,196.49l-11.49461,0.03803l-0.02852,-8.62095l11.49462,-0.03803z" fill="url(#color-60)"/><g><path d="M219.58163,195.23489l-1.80471,0.00597l-0.01998,-6.03884l1.80471,-0.00597z" fill="url(#color-61)"/><path d="M218.92219,195.22667l-1.12447,0.00372l-0.01984,-5.99719l1.12447,-0.00372z" fill="url(#color-62)"/></g><g data-paper-data="{&quot;index&quot;:null}"><path d="M204.57541,189.18317l1.80471,-0.00597l0.01998,6.03884l-1.80471,0.00597z" fill="url(#color-63)"/><path d="M205.23493,189.21222l1.12447,-0.00372l0.01984,5.99719l-1.12447,0.00372z" fill="url(#color-64)"/></g></g><g stroke="#4d4d4d" stroke-width="1.5" stroke-linecap="butt"><path d="M213.93683,131.3271l-20.4819,0.06777l-0.01695,-5.12155l20.4819,-0.06777z" fill="url(#color-65)"/><path d="M197.92215,132.35563l-20.4819,0.06777l-0.02421,-7.31651l20.4819,-0.06777z" fill="url(#color-66)"/></g><g stroke="#4d4d4d" stroke-width="1.5" stroke-linecap="butt"><path d="M212.87433,233.33117l-20.4819,0.06777l-0.01695,-5.12155l20.4819,-0.06777z" fill="url(#color-67)"/><path d="M196.85965,234.35971l-20.4819,0.06777l-0.02421,-7.31651l20.4819,-0.06777z" fill="url(#color-68)"/></g><g stroke-width="1.5" stroke-linecap="butt"><path d="M260.37056,83.09875c3.48628,-0.01153 6.32172,2.77732 6.33314,6.22908c0.01142,3.45176 -2.80551,6.25932 -6.29179,6.27085c-3.48628,0.01153 -6.32172,-2.77732 -6.33314,-6.22908c-0.01142,-3.45176 2.80551,-6.25932 6.29179,-6.27085z" fill="#3d3d3d" stroke="#3e3e3e"/><path d="M258.99557,83.10329c3.48627,-0.01153 6.32172,2.77732 6.33314,6.22908c0.01142,3.45176 -2.80551,6.25933 -6.29179,6.27086c-3.48627,0.01153 -6.32172,-2.77732 -6.33314,-6.22909c-0.01142,-3.45176 2.80551,-6.25932 6.29179,-6.27085z" fill="#5a5a5a" stroke="#4d4d4d"/></g><g stroke-width="1.5" stroke-linecap="butt"><path d="M259.9639,262.4344c3.48628,-0.01153 6.32172,2.77733 6.33314,6.22908c0.01142,3.45176 -2.80551,6.25932 -6.29179,6.27085c-3.48628,0.01153 -6.32172,-2.77732 -6.33314,-6.22908c-0.01142,-3.45175 2.80551,-6.25932 6.29179,-6.27085z" fill="#3d3d3d" stroke="#3e3e3e"/><path d="M258.58891,262.43895c3.48627,-0.01153 6.32172,2.77732 6.33314,6.22908c0.01142,3.45176 -2.80551,6.25932 -6.29179,6.27085c-3.48627,0.01153 -6.32172,-2.77732 -6.33314,-6.22908c-0.01142,-3.45175 2.80551,-6.25932 6.29179,-6.27085z" fill="#5a5a5a" stroke="#4d4d4d"/></g><g stroke="none" stroke-width="0" stroke-linecap="butt"><path d="M187.69992,184.29807l-15.93903,0.05274l-0.03955,-11.95427l15.93903,-0.05274z" fill="url(#color-69)"/><g><path d="M190.08121,182.55767l-2.50251,0.00828l-0.02771,-8.37376l2.50251,-0.00828z" fill="url(#color-70)"/><path d="M189.16677,182.54626l-1.55925,0.00516l-0.02751,-8.31601l1.55925,-0.00516z" fill="url(#color-71)"/></g><g data-paper-data="{&quot;index&quot;:null}"><path d="M169.2728,174.16603l2.50251,-0.00828l0.02771,8.37376l-2.50251,0.00828z" fill="url(#color-72)"/><path d="M170.1873,174.20632l1.55925,-0.00516l0.02751,8.31602l-1.55925,0.00516z" fill="url(#color-73)"/></g></g><path d="M314.41199,180.99357l-2.48441,4.24366l-11.41364,1.49657l1.28151,-7.37729l-1.23643,-7.07421l11.43599,1.13049l2.3924,4.69101z" fill="url(#color-74)" stroke="url(#color-75)" stroke-width="1.5" stroke-linecap="round"/><path d="M311.09994,184.24397l-8.75533,-1.59604" fill="none" stroke="url(#color-76)" stroke-width="1" stroke-linecap="round"/><path d="M313.33379,179.36155l-10.74994,0.03557" fill="none" stroke="url(#color-77)" stroke-width="1" stroke-linecap="round"/><path d="M302.32351,176.27296l8.74375,-1.90394" fill="none" stroke="url(#color-78)" stroke-width="1" stroke-linecap="round"/><path d="M306.56563,173.88391l0.87996,1.4971l0.76447,4.37249l-0.738,3.62746l-1.11838,2.00371" fill="none" stroke="#84afeb" stroke-width="1" stroke-linecap="round"/><g><path d="M224.41666,305.97553l70.5,-73.95105" fill="none" stroke="#000000" stroke-width="0.00001" stroke-linecap="round"/><path d="M267.01562,269.08454c0,4.09473 -3.33501,7.41416 -7.44897,7.41416c-4.11396,0 -7.44897,-3.31943 -7.44897,-7.41416c0,-4.09473 3.33502,-7.41416 7.44897,-7.41416c4.11396,0 7.44897,3.31943 7.44897,7.41416z" fill="#00fffd" stroke="none" stroke-width="NaN" stroke-linecap="butt"/><path d="M265.4205,270.04527v-1.62524h8.12623v1.62524z" fill="#a1a1a1" stroke="#a1a1a1" stroke-width="0.5" stroke-linecap="butt"/><path d="M273.18516,270.47867v-2.54622h2.16699v2.54622z" fill="#a1a1a1" stroke="#a1a1a1" stroke-width="0.5" stroke-linecap="butt"/><path d="M262.40438,270.20779v-2.00447h5.58001v2.00447z" fill="#a1a1a1" stroke="#a1a1a1" stroke-width="0.5" stroke-linecap="butt"/><path d="M266.73836,270.31615v-2.22117h0.8668v2.22117z" fill="url(#color-79)" stroke="none" stroke-width="0" stroke-linecap="butt"/><path d="M268.09273,270.09944v-1.78777h2.22117v1.78777z" fill="url(#color-80)" stroke="none" stroke-width="0" stroke-linecap="butt"/><path d="M271.77662,270.15362v-1.84194h1.3002v1.84194z" fill="url(#color-81)" stroke="none" stroke-width="0" stroke-linecap="butt"/><path d="M267.01562,269.08454c0,4.09473 -3.33501,7.41416 -7.44897,7.41416c-4.11396,0 -7.44897,-3.31943 -7.44897,-7.41416c0,-4.09473 3.33502,-7.41416 7.44897,-7.41416c4.11396,0 7.44897,3.31943 7.44897,7.41416z" fill="url(#color-82)" stroke="none" stroke-width="NaN" stroke-linecap="butt"/><path d="M254.97511,274.6214c0,0 -2.73215,-1.7074 -2.73979,-5.68009c-0.00777,-4.04045 2.63835,-5.42746 2.63835,-5.42746l3.95612,2.13021v6.33993z" fill="url(#color-83)" stroke="#000000" stroke-width="0" stroke-linecap="round"/><path d="M265.79742,269.08454c0,3.44116 -2.78961,6.23077 -6.23077,6.23077c-3.44116,0 -6.23077,-2.78961 -6.23077,-6.23077c0,-3.44116 2.78961,-6.23077 6.23077,-6.23077c3.44116,0 6.23077,2.78961 6.23077,6.23077z" fill="none" stroke="#00c98b" stroke-width="1" stroke-linecap="butt"/><path d="M263.86029,269.08454c0,2.37131 -1.92234,4.29364 -4.29364,4.29364c-2.37131,0 -4.29364,-1.92233 -4.29364,-4.29364c0,-2.37131 1.92233,-4.29364 4.29364,-4.29364c2.37131,0 4.29364,1.92234 4.29364,4.29364z" fill="none" stroke="#575757" stroke-width="1.5" stroke-linecap="butt"/></g><g><path d="M224.41666,126.30886l70.5,-73.95105" fill="none" stroke="#000000" stroke-width="0.00001" stroke-linecap="round"/><path d="M267.01562,89.41787c0,4.09473 -3.33501,7.41416 -7.44897,7.41416c-4.11396,0 -7.44897,-3.31943 -7.44897,-7.41416c0,-4.09473 3.33502,-7.41416 7.44897,-7.41416c4.11396,0 7.44897,3.31943 7.44897,7.41416z" fill="#00fffd" stroke="none" stroke-width="NaN" stroke-linecap="butt"/><path d="M265.4205,90.3786v-1.62524h8.12623v1.62524z" fill="#a1a1a1" stroke="#a1a1a1" stroke-width="0.5" stroke-linecap="butt"/><path d="M273.18516,90.812v-2.54622h2.16699v2.54622z" fill="#a1a1a1" stroke="#a1a1a1" stroke-width="0.5" stroke-linecap="butt"/><path d="M262.40438,90.54112v-2.00447h5.58001v2.00447z" fill="#a1a1a1" stroke="#a1a1a1" stroke-width="0.5" stroke-linecap="butt"/><path d="M266.73836,90.64948v-2.22117h0.8668v2.22117z" fill="url(#color-84)" stroke="none" stroke-width="0" stroke-linecap="butt"/><path d="M268.09273,90.43277v-1.78777h2.22117v1.78777z" fill="url(#color-85)" stroke="none" stroke-width="0" stroke-linecap="butt"/><path d="M271.77662,90.48695v-1.84194h1.3002v1.84194z" fill="url(#color-86)" stroke="none" stroke-width="0" stroke-linecap="butt"/><path d="M267.01562,89.41787c0,4.09473 -3.33501,7.41416 -7.44897,7.41416c-4.11396,0 -7.44897,-3.31943 -7.44897,-7.41416c0,-4.09473 3.33502,-7.41416 7.44897,-7.41416c4.11396,0 7.44897,3.31943 7.44897,7.41416z" fill="url(#color-87)" stroke="none" stroke-width="NaN" stroke-linecap="butt"/><path d="M254.97511,94.95473c0,0 -2.73215,-1.7074 -2.73979,-5.68009c-0.00777,-4.04045 2.63835,-5.42746 2.63835,-5.42746l3.95612,2.13021v6.33993z" fill="url(#color-88)" stroke="#000000" stroke-width="0" stroke-linecap="round"/><path d="M265.79742,89.41787c0,3.44116 -2.78961,6.23077 -6.23077,6.23077c-3.44116,0 -6.23077,-2.78961 -6.23077,-6.23077c0,-3.44116 2.78961,-6.23077 6.23077,-6.23077c3.44116,0 6.23077,2.78961 6.23077,6.23077z" fill="none" stroke="#00c98b" stroke-width="1" stroke-linecap="butt"/><path d="M263.86029,89.41787c0,2.37131 -1.92234,4.29364 -4.29364,4.29364c-2.37131,0 -4.29364,-1.92233 -4.29364,-4.29364c0,-2.37131 1.92233,-4.29364 4.29364,-4.29364c2.37131,0 4.29364,1.92234 4.29364,4.29364z" fill="none" stroke="#575757" stroke-width="1.5" stroke-linecap="butt"/></g><g><path d="M321.29242,130.10928l-94.58485,99.78145" fill="none" stroke="#000000" stroke-width="0.00001" stroke-linecap="round"/><path d="M283.88939,180.08563c0.01567,5.51004 -4.45937,9.98958 -9.99528,10.00531c-5.53591,0.01574 -10.03635,-4.43827 -10.05202,-9.94831c-0.01567,-5.51004 4.45937,-9.98957 9.99528,-10.00531c5.53591,-0.01574 10.03635,4.43827 10.05202,9.94831z" fill="#00fffd" stroke="none" stroke-width="NaN" stroke-linecap="butt"/><path d="M281.74661,181.38453l-0.00622,-2.18699l10.935,-0.03109l0.00622,2.18699z" fill="#a1a1a1" stroke="#a1a1a1" stroke-width="0.5" stroke-linecap="butt"/><path d="M292.19673,181.93803l-0.00974,-3.42629l2.91599,-0.00829l0.00974,3.4263z" fill="#a1a1a1" stroke="#a1a1a1" stroke-width="0.5" stroke-linecap="butt"/><path d="M277.68861,181.61478l-0.00767,-2.6973l7.5087,-0.02135l0.00767,2.6973z" fill="#a1a1a1" stroke="#a1a1a1" stroke-width="0.5" stroke-linecap="butt"/><path d="M283.52102,181.74399l-0.0085,-2.9889l1.1664,-0.00332l0.00849,2.9889z" fill="url(#color-89)" stroke="none" stroke-width="0" stroke-linecap="butt"/><path d="M285.34268,181.44721l-0.00684,-2.4057l2.9889,-0.0085l0.00684,2.4057z" fill="url(#color-90)" stroke="none" stroke-width="0" stroke-linecap="butt"/><path d="M290.30009,181.50602l-0.00705,-2.4786l1.7496,-0.00498l0.00704,2.4786z" fill="url(#color-91)" stroke="none" stroke-width="0" stroke-linecap="butt"/><path d="M283.88939,180.08563c0.01567,5.51004 -4.45937,9.98958 -9.99528,10.00531c-5.53591,0.01574 -10.03635,-4.43827 -10.05202,-9.94831c-0.01567,-5.51004 4.45937,-9.98957 9.99528,-10.00531c5.53591,-0.01574 10.03635,4.43827 10.05202,9.94831z" fill="url(#color-92)" stroke="none" stroke-width="NaN" stroke-linecap="butt"/><path d="M267.70836,187.58234c0,0 -3.68302,-2.2871 -3.7085,-7.63289c-0.02591,-5.43696 3.52951,-7.31351 3.52951,-7.31351l5.33167,2.85137l0.02426,8.53128l-5.17693,3.56376z" fill="url(#color-93)" stroke="#000000" stroke-width="0" stroke-linecap="round"/><path d="M282.25014,180.0903c0.01316,4.63057 -3.72998,8.39507 -8.36055,8.40823c-4.63057,0.01316 -8.39508,-3.72998 -8.40824,-8.36055c-0.01316,-4.63057 3.72998,-8.39507 8.36056,-8.40823c4.63057,-0.01316 8.39508,3.72998 8.40824,8.36056z" fill="none" stroke="#525252" stroke-width="1.5" stroke-linecap="butt"/><path d="M279.64345,180.09771c0.00907,3.19093 -2.57035,5.78507 -5.76128,5.79414c-3.19093,0.00907 -5.78507,-2.57033 -5.79414,-5.76128c-0.00907,-3.19093 2.57034,-5.78507 5.76128,-5.79414c3.19093,-0.00907 5.78507,2.57035 5.79414,5.76128z" fill="none" stroke="#575757" stroke-width="1.5" stroke-linecap="butt"/><path d="M286.68075,181.34438l-0.00642,-2.25717" fill="none" stroke="#a1a1a1" stroke-width="1.5" stroke-linecap="round"/><path d="M288.03914,179.08333l0.00642,2.25717" fill="none" stroke="#a1a1a1" stroke-width="1.5" stroke-linecap="round"/><path d="M289.45644,179.07931l0.00642,2.25717" fill="none" stroke="#a1a1a1" stroke-width="1.5" stroke-linecap="round"/><path d="M290.97872,179.07497l0.00642,2.25718" fill="none" stroke="#a1a1a1" stroke-width="1.5" stroke-linecap="round"/><path d="M280.63117,181.41378l-2.54083,-0.52425l-1.65435,-0.28968l-0.00437,-1.53629l1.77129,-0.12314l2.42088,-0.12499c0,0 0.35386,-0.16281 0.35785,1.23913c0.00357,1.25431 -0.35046,1.35924 -0.35046,1.35924z" fill="url(#color-94)" stroke="url(#color-95)" stroke-width="0.5" stroke-linecap="round"/></g></g></g></svg>