<svg version="1.1" xmlns="http://www.w3.org/2000/svg" xmlns:xlink="http://www.w3.org/1999/xlink" width="30" height="388.25" viewBox="0,0,30,388.25"><defs><radialGradient cx="239.5" cy="179" r="15" gradientUnits="userSpaceOnUse" id="color-1"><stop offset="0" stop-color="#e6fffe"/><stop offset="1" stop-color="#e6fffe" stop-opacity="0"/></radialGradient><radialGradient cx="239.5" cy="179" r="11.29869" gradientUnits="userSpaceOnUse" id="color-2"><stop offset="0" stop-color="#e6fffe"/><stop offset="1" stop-color="#e6fffe" stop-opacity="0"/></radialGradient><radialGradient cx="239.5" cy="179" r="13.63635" gradientUnits="userSpaceOnUse" id="color-3"><stop offset="0" stop-color="#e6fffe"/><stop offset="1" stop-color="#e6fffe" stop-opacity="0"/></radialGradient><linearGradient x1="238.62338" y1="308.73137" x2="229.85716" y2="308.73137" gradientUnits="userSpaceOnUse" id="color-4"><stop offset="0" stop-color="#e6fffe"/><stop offset="1" stop-color="#e6fffe" stop-opacity="0"/></linearGradient><linearGradient x1="241.54546" y1="309.39803" x2="250.3117" y2="309.39803" gradientUnits="userSpaceOnUse" id="color-5"><stop offset="0" stop-color="#e6fffe"/><stop offset="1" stop-color="#e6fffe" stop-opacity="0"/></linearGradient></defs><g transform="translate(-224.5,-140.5)"><g data-paper-data="{&quot;isPaintingLayer&quot;:true}" fill-rule="nonzero" stroke-linejoin="miter" stroke-miterlimit="10" stroke-dasharray="" stroke-dashoffset="0" style="mix-blend-mode: normal"><path d="M224.5,179c0,-21.26296 6.71572,-38.5 15,-38.5c8.28427,0 15,17.23704 15,38.5c0,21.26296 -6.71573,38.5 -15,38.5c-8.28428,0 -15,-17.23704 -15,-38.5z" fill="url(#color-1)" stroke="none" stroke-width="0" stroke-linecap="butt"/><path d="M228.20131,179c0,-16.01626 5.0586,-29 11.29869,-29c6.24009,0 11.29869,12.98374 11.29869,29c0,16.01626 -5.0586,29 -11.29869,29c-6.24009,0 -11.29869,-12.98374 -11.29869,-29z" fill="url(#color-2)" stroke="none" stroke-width="0" stroke-linecap="butt"/><path d="M225.86365,179c0,-19.32997 6.10521,-35 13.63635,-35c7.53114,0 13.63635,15.67003 13.63635,35c0,19.32997 -6.10521,35 -13.63635,35c-7.53114,0 -13.63635,-15.67003 -13.63635,-35z" fill="url(#color-3)" stroke="none" stroke-width="0" stroke-linecap="butt"/><path d="M229.85716,509.12939v-340.79606h8.76624v340.79606z" data-paper-data="{&quot;index&quot;:null}" fill="url(#color-4)" stroke="none" stroke-width="0" stroke-linecap="butt"/><path d="M237.35716,516v-348h6.23378v348z" fill="#e6fffe" stroke="none" stroke-width="0" stroke-linecap="butt"/><path d="M241.54546,511.79606v-343.92106h8.76624v343.92106z" fill="url(#color-5)" stroke="none" stroke-width="0" stroke-linecap="butt"/><path d="M241.8628,526.25c0,0 1.26306,-25.95864 -0.06383,-53.21686c-1.09926,-22.58204 -4.83144,-46.05601 -4.83144,-56.40109c0,-12.20591 3.3969,-32.73541 3.82521,-56.89232c0.33113,-18.6765 -3.88588,-39.52123 -3.72247,-60.36394c0.15909,-20.29232 4.78462,-40.58273 5.56056,-58.86842c1.69314,-39.90155 -0.76802,-70.25737 -0.76802,-70.25737" data-paper-data="{&quot;index&quot;:null}" fill="none" stroke="#e6fffe" stroke-width="5" stroke-linecap="round"/></g></g></svg>