<svg version="1.1" xmlns="http://www.w3.org/2000/svg" xmlns:xlink="http://www.w3.org/1999/xlink" width="195" height="195" viewBox="0,0,195,195"><g transform="translate(-142.5,-82.5)"><g data-paper-data="{&quot;isPaintingLayer&quot;:true}" fill-rule="nonzero" stroke-linejoin="miter" stroke-miterlimit="10" stroke-dasharray="" stroke-dashoffset="0" style="mix-blend-mode: normal"><path d="M179.548,184.42396v-8.7617h2.79152c0.06792,0 0.21055,0.0034 0.4279,0.01019c0.21734,0.00679 0.4279,0.02038 0.63166,0.04075c0.69279,0.0883 1.28029,0.3362 1.76253,0.74373c0.48223,0.40073 0.84561,0.91353 1.09012,1.53839c0.24451,0.62487 0.36677,1.30746 0.36677,2.04779c0,0.74033 -0.12226,1.42293 -0.36677,2.04779c-0.24451,0.62487 -0.60789,1.14106 -1.09012,1.54858c-0.48223,0.40073 -1.06974,0.64524 -1.76253,0.73354c-0.19697,0.02717 -0.40752,0.04415 -0.63166,0.05094c-0.21734,0 -0.35998,0 -0.4279,0zM181.03545,183.03839h1.30407c0.12226,0 0.27508,-0.0034 0.45846,-0.01019c0.19018,-0.00679 0.35998,-0.02377 0.5094,-0.05094c0.40752,-0.07471 0.74033,-0.2581 0.99843,-0.55015c0.26489,-0.29206 0.45846,-0.64524 0.58072,-1.05955c0.12226,-0.4211 0.18338,-0.86259 0.18338,-1.32444c0,-0.47544 -0.06452,-0.92032 -0.19357,-1.33463c-0.12226,-0.4211 -0.31583,-0.77089 -0.58072,-1.04937c-0.2581,-0.28526 -0.58751,-0.46865 -0.98824,-0.55015c-0.14942,-0.02717 -0.31922,-0.04415 -0.5094,-0.05094c-0.18338,-0.00679 -0.3362,-0.01019 -0.45846,-0.01019h-1.30407zM190.96264,184.60734c-0.65203,0 -1.22596,-0.14603 -1.72178,-0.43808c-0.48902,-0.29885 -0.86938,-0.70977 -1.14106,-1.23275c-0.26489,-0.52299 -0.39733,-1.12068 -0.39733,-1.79309c0,-0.69279 0.13584,-1.29727 0.40752,-1.81347c0.27847,-0.52299 0.66222,-0.93051 1.15125,-1.22256c0.48902,-0.29206 1.05616,-0.43808 1.7014,-0.43808c0.66562,0 1.24294,0.14942 1.73196,0.44827c0.48902,0.29206 0.86938,0.69958 1.14106,1.22256c0.27168,0.52299 0.40752,1.12408 0.40752,1.80328c0,0.6792 -0.13584,1.28029 -0.40752,1.80328c-0.27168,0.51619 -0.65543,0.92371 -1.15125,1.22256c-0.48902,0.29206 -1.06295,0.43808 -1.72178,0.43808zM190.96264,183.23196c0.58411,0 1.0188,-0.19357 1.30407,-0.58072c0.28526,-0.39394 0.4279,-0.89655 0.4279,-1.50783c0,-0.63845 -0.14603,-1.14785 -0.43808,-1.5282c-0.28526,-0.38035 -0.71656,-0.57053 -1.29388,-0.57053c-0.39394,0 -0.71656,0.0883 -0.96786,0.26489c-0.2513,0.17659 -0.43808,0.4245 -0.56034,0.74373c-0.12226,0.31243 -0.18338,0.67581 -0.18338,1.09012c0,0.63166 0.14263,1.13766 0.4279,1.51802c0.29206,0.38035 0.71995,0.57053 1.28369,0.57053zM203.47244,184.42396v-3.9937c0,-0.44827 -0.11207,-0.79806 -0.3362,-1.04937c-0.22414,-0.2581 -0.52638,-0.38714 -0.90673,-0.38714c-0.23772,0 -0.44827,0.05434 -0.63166,0.16301c-0.18338,0.10867 -0.33281,0.26828 -0.44827,0.47884c-0.10867,0.21055 -0.16301,0.45846 -0.16301,0.74373l-0.65203,-0.38714c0,-0.44827 0.10188,-0.84561 0.30564,-1.192c0.21055,-0.35318 0.49242,-0.62487 0.84561,-0.81504c0.35998,-0.19697 0.76071,-0.29545 1.20219,-0.29545c0.72675,0 1.28369,0.21734 1.67084,0.65203c0.38714,0.43469 0.58072,1.00861 0.58072,1.72178v4.36047zM195.56653,184.42396v-6.57127h1.30407v2.0376h0.1732v4.53367zM199.52967,184.42396v-3.97333c0,-0.45506 -0.11207,-0.81165 -0.3362,-1.06974c-0.22414,-0.2581 -0.52638,-0.38714 -0.90673,-0.38714c-0.37356,0 -0.67581,0.12905 -0.90673,0.38714c-0.22414,0.2581 -0.3362,0.59091 -0.3362,0.99843l-0.65203,-0.43808c0,-0.4279 0.10528,-0.81165 0.31583,-1.15125c0.21055,-0.3396 0.49582,-0.60789 0.85579,-0.80485c0.35998,-0.19697 0.76071,-0.29545 1.20219,-0.29545c0.49582,0 0.90673,0.10528 1.23275,0.31583c0.33281,0.21055 0.58072,0.49582 0.74373,0.85579c0.16301,0.35318 0.24451,0.75731 0.24451,1.21237v4.35028zM206.64505,176.85426v-1.34482h1.45689v1.34482zM206.64505,184.42396v-6.57127h1.45689v6.57127zM214.47878,184.42396v-3.15829c0,-0.21055 -0.01698,-0.44148 -0.05094,-0.69279c-0.02717,-0.2513 -0.09169,-0.49242 -0.19357,-0.72335c-0.10188,-0.23772 -0.2581,-0.43129 -0.46865,-0.58072c-0.20376,-0.14942 -0.47884,-0.22414 -0.82523,-0.22414c-0.18338,0 -0.36677,0.03056 -0.55015,0.09169c-0.18338,0.06113 -0.34979,0.1664 -0.49921,0.31583c-0.14942,0.14942 -0.26828,0.35318 -0.35658,0.61128c-0.0883,0.2581 -0.13244,0.58751 -0.13244,0.98824l-0.86598,-0.37696c0,-0.55695 0.10867,-1.06295 0.32602,-1.51802c0.21734,-0.45506 0.53657,-0.81504 0.95767,-1.07993c0.4211,-0.27168 0.9373,-0.40752 1.54858,-0.40752c0.48902,0 0.88975,0.0815 1.20219,0.24451c0.31922,0.15622 0.57053,0.36337 0.75391,0.62147c0.19018,0.2513 0.32941,0.51959 0.41771,0.80485c0.0883,0.27847 0.14603,0.54676 0.1732,0.80485c0.02717,0.2513 0.04075,0.45506 0.04075,0.61128v3.66769zM209.91455,184.42396v-6.57127h1.31425v2.0376h0.1732v4.53367zM219.37767,184.60734c-0.47544,0 -0.87957,-0.0883 -1.21237,-0.26489c-0.32602,-0.18338 -0.57393,-0.4245 -0.74373,-0.72335c-0.16301,-0.30564 -0.24451,-0.63845 -0.24451,-0.99843c0,-0.31243 0.05094,-0.5943 0.15282,-0.84561c0.10867,-0.2581 0.27168,-0.47884 0.48902,-0.66222c0.21734,-0.18338 0.50261,-0.3362 0.85579,-0.45846c0.2581,-0.0815 0.56374,-0.15622 0.91692,-0.22414c0.35998,-0.06792 0.74712,-0.13244 1.16143,-0.19357c0.41431,-0.06113 0.849,-0.12565 1.30407,-0.19357l-0.51959,0.29545c0,-0.44827 -0.10188,-0.78108 -0.30564,-0.99843c-0.20376,-0.21734 -0.55355,-0.32602 -1.04937,-0.32602c-0.29206,0 -0.57732,0.07132 -0.85579,0.21395c-0.27168,0.13584 -0.46525,0.37016 -0.58072,0.70297l-1.33463,-0.41771c0.16301,-0.55695 0.47204,-1.00182 0.92711,-1.33463c0.45506,-0.3396 1.06974,-0.5094 1.84403,-0.5094c0.58411,0 1.09691,0.09509 1.53839,0.28526c0.44827,0.19018 0.78108,0.50261 0.99843,0.9373c0.11546,0.23093 0.18338,0.46865 0.20376,0.71316c0.02717,0.23772 0.04075,0.49921 0.04075,0.78448v4.03446h-1.28369v-1.42632l0.21395,0.23432c-0.29885,0.47544 -0.64524,0.82523 -1.03918,1.04937c-0.39394,0.21734 -0.88636,0.32602 -1.47726,0.32602zM219.67312,183.43572c0.32602,0 0.60789,-0.05773 0.84561,-0.1732c0.23772,-0.11546 0.4245,-0.2581 0.56034,-0.4279c0.14263,-0.1698 0.23772,-0.33281 0.28526,-0.48902c0.07471,-0.18338 0.11546,-0.39394 0.12226,-0.63166c0.01358,-0.24451 0.02038,-0.44148 0.02038,-0.59091l0.45846,0.13244c-0.44148,0.06792 -0.82183,0.12905 -1.14106,0.18338c-0.31922,0.05434 -0.59091,0.10528 -0.81504,0.15282c-0.22414,0.04075 -0.4245,0.09169 -0.60109,0.15282c-0.1698,0.06113 -0.31583,0.13244 -0.43808,0.21395c-0.11546,0.0815 -0.20376,0.17659 -0.26489,0.28526c-0.06113,0.10188 -0.09169,0.22074 -0.09169,0.35658c0,0.16301 0.04075,0.30904 0.12226,0.43808c0.0815,0.12226 0.20036,0.22074 0.35658,0.29545c0.15622,0.06792 0.34979,0.10188 0.58072,0.10188zM228.39146,184.42396c-0.4279,0.0815 -0.8524,0.11546 -1.2735,0.10188c-0.41431,-0.00679 -0.78448,-0.0815 -1.11049,-0.22414c-0.32602,-0.14263 -0.57732,-0.37016 -0.75391,-0.6826c-0.14942,-0.28526 -0.22753,-0.57393 -0.23432,-0.86598c-0.00679,-0.29885 -0.01019,-0.63505 -0.01019,-1.00861v-5.71548h1.45689v5.62379c0,0.26489 0.0034,0.49921 0.01019,0.70297c0.00679,0.19697 0.04754,0.35658 0.12226,0.47884c0.14942,0.24451 0.38375,0.38035 0.70297,0.40752c0.31922,0.02717 0.6826,0.01019 1.09012,-0.05094zM223.81704,179.00392v-1.15125h4.57442v1.15125zM229.94006,176.85426v-1.34482h1.45689v1.34482zM229.94006,184.42396v-6.57127h1.45689v6.57127zM237.77379,184.42396v-3.15829c0,-0.21055 -0.01698,-0.44148 -0.05094,-0.69279c-0.02717,-0.2513 -0.09169,-0.49242 -0.19357,-0.72335c-0.10188,-0.23772 -0.2581,-0.43129 -0.46865,-0.58072c-0.20376,-0.14942 -0.47884,-0.22414 -0.82523,-0.22414c-0.18338,0 -0.36677,0.03056 -0.55015,0.09169c-0.18338,0.06113 -0.34979,0.1664 -0.49921,0.31583c-0.14942,0.14942 -0.26828,0.35318 -0.35658,0.61128c-0.0883,0.2581 -0.13244,0.58751 -0.13244,0.98824l-0.86598,-0.37696c0,-0.55695 0.10867,-1.06295 0.32602,-1.51802c0.21734,-0.45506 0.53657,-0.81504 0.95767,-1.07993c0.4211,-0.27168 0.9373,-0.40752 1.54858,-0.40752c0.48902,0 0.88975,0.0815 1.20219,0.24451c0.31922,0.15622 0.57053,0.36337 0.75391,0.62147c0.19018,0.2513 0.32941,0.51959 0.41771,0.80485c0.0883,0.27847 0.14603,0.54676 0.1732,0.80485c0.02717,0.2513 0.04075,0.45506 0.04075,0.61128v3.66769zM233.20956,184.42396v-6.57127h1.31425v2.0376h0.1732v4.53367zM243.59979,187.52111c-0.36677,0 -0.71995,-0.05773 -1.05955,-0.1732c-0.33281,-0.10867 -0.63166,-0.27168 -0.89655,-0.48902c-0.26489,-0.21055 -0.48223,-0.46525 -0.65203,-0.7641l1.34482,-0.66222c0.12905,0.23772 0.30564,0.41431 0.52978,0.52978c0.23093,0.11546 0.47544,0.1732 0.73354,0.1732c0.30564,0 0.57732,-0.05434 0.81504,-0.16301c0.23772,-0.10867 0.4211,-0.26828 0.55015,-0.47884c0.13584,-0.20376 0.20036,-0.46186 0.19357,-0.77429v-1.8746h0.18338v-4.99213h1.28369v6.8871c0,0.1698 -0.00679,0.32941 -0.02038,0.47884c-0.01358,0.14942 -0.03736,0.29885 -0.07132,0.44827c-0.09509,0.4211 -0.28187,0.7675 -0.56034,1.03918c-0.27847,0.27847 -0.62147,0.48223 -1.02899,0.61128c-0.40752,0.13584 -0.85579,0.20376 -1.34482,0.20376zM243.46734,184.60734c-0.60449,0 -1.13087,-0.15282 -1.57914,-0.45846c-0.44827,-0.30564 -0.79806,-0.71995 -1.04937,-1.24294c-0.24451,-0.52299 -0.36677,-1.11049 -0.36677,-1.76253c0,-0.66562 0.12226,-1.25992 0.36677,-1.7829c0.2513,-0.52299 0.60449,-0.9339 1.05955,-1.23275c0.46186,-0.30564 1.00182,-0.45846 1.6199,-0.45846c0.62487,0 1.14785,0.15282 1.56896,0.45846c0.4279,0.29885 0.75052,0.70977 0.96786,1.23275c0.22414,0.52299 0.3362,1.11729 0.3362,1.7829c0,0.65203 -0.11207,1.23954 -0.3362,1.76253c-0.21734,0.52299 -0.54336,0.9373 -0.97805,1.24294c-0.43469,0.30564 -0.97126,0.45846 -1.60971,0.45846zM243.69148,183.29309c0.39394,0 0.70977,-0.0883 0.94749,-0.26489c0.24451,-0.18338 0.4211,-0.43808 0.52978,-0.7641c0.11546,-0.32602 0.1732,-0.69958 0.1732,-1.12068c0,-0.43469 -0.05773,-0.81165 -0.1732,-1.13087c-0.10867,-0.32602 -0.28187,-0.57732 -0.51959,-0.75391c-0.23093,-0.18338 -0.53317,-0.27508 -0.90673,-0.27508c-0.39394,0 -0.71995,0.09848 -0.97805,0.29545c-0.2513,0.19018 -0.43808,0.44827 -0.56034,0.77429c-0.12226,0.32602 -0.18338,0.68939 -0.18338,1.09012c0,0.40073 0.05773,0.7641 0.1732,1.09012c0.12226,0.32602 0.30564,0.58411 0.55015,0.77429c0.2513,0.19018 0.56713,0.28526 0.94749,0.28526zM255.24575,182.79388v-2.18024h-2.17005v-1.15125h2.17005v-2.17005h1.15125v2.17005h2.17005v1.15125h-2.17005v2.18024zM263.17581,184.60734c-0.57053,0 -1.08672,-0.13244 -1.54858,-0.39733c-0.45506,-0.27168 -0.81504,-0.64524 -1.07993,-1.12068c-0.26489,-0.48223 -0.39733,-1.03578 -0.39733,-1.66065v-2.65907c0,-0.66562 0.13244,-1.24294 0.39733,-1.73196c0.26489,-0.49582 0.63505,-0.87617 1.11049,-1.14106c0.48223,-0.26489 1.04257,-0.39733 1.68102,-0.39733c0.44148,0 0.85919,0.07471 1.25313,0.22414c0.40073,0.14263 0.75391,0.37696 1.05955,0.70297l-1.04937,1.02899c-0.15622,-0.18338 -0.34639,-0.32602 -0.57053,-0.4279c-0.21734,-0.10867 -0.44827,-0.16301 -0.69279,-0.16301c-0.3396,0 -0.63845,0.0815 -0.89655,0.24451c-0.2513,0.15622 -0.44827,0.36677 -0.59091,0.63166c-0.14263,0.2581 -0.21395,0.53317 -0.21395,0.82523v1.45689l-0.26489,-0.29545c0.2513,-0.29206 0.55355,-0.51959 0.90673,-0.6826c0.35318,-0.16301 0.72335,-0.24451 1.11049,-0.24451c0.55015,0 1.03578,0.12565 1.45689,0.37696c0.4211,0.24451 0.75391,0.58411 0.99843,1.0188c0.24451,0.4279 0.36677,0.92032 0.36677,1.47726c0,0.54336 -0.13924,1.03918 -0.41771,1.48745c-0.27847,0.44148 -0.64864,0.79467 -1.11049,1.05955c-0.45506,0.2581 -0.95767,0.38714 -1.50783,0.38714zM263.17581,183.2014c0.28526,0 0.54336,-0.06792 0.77429,-0.20376c0.23772,-0.13584 0.4245,-0.31922 0.56034,-0.55015c0.14263,-0.23772 0.21395,-0.49582 0.21395,-0.77429c0,-0.28526 -0.06792,-0.54336 -0.20376,-0.77429c-0.13584,-0.23772 -0.32262,-0.4279 -0.56034,-0.57053c-0.23093,-0.14263 -0.48902,-0.21395 -0.77429,-0.21395c-0.28526,0 -0.54676,0.07132 -0.78448,0.21395c-0.23093,0.14263 -0.41771,0.33281 -0.56034,0.57053c-0.13584,0.23093 -0.20376,0.48902 -0.20376,0.77429c0,0.27168 0.06792,0.52638 0.20376,0.7641c0.13584,0.23093 0.31922,0.41771 0.55015,0.56034c0.23772,0.13584 0.49921,0.20376 0.78448,0.20376zM270.85829,184.60734c-0.62487,0 -1.17502,-0.13244 -1.65046,-0.39733c-0.46865,-0.26489 -0.83542,-0.63505 -1.10031,-1.11049c-0.26489,-0.47544 -0.39733,-1.0222 -0.39733,-1.64027v-2.82208c0,-0.62487 0.13244,-1.17162 0.39733,-1.64027c0.26489,-0.47544 0.63166,-0.84561 1.10031,-1.11049c0.47544,-0.27168 1.02559,-0.40752 1.65046,-0.40752c0.61807,0 1.16143,0.13584 1.63008,0.40752c0.47544,0.26489 0.84561,0.63505 1.11049,1.11049c0.27168,0.46865 0.40752,1.01541 0.40752,1.64027v2.82208c0,0.61807 -0.13584,1.16483 -0.40752,1.64027c-0.26489,0.47544 -0.63505,0.84561 -1.11049,1.11049c-0.46865,0.26489 -1.01201,0.39733 -1.63008,0.39733zM270.85829,183.21158c0.30564,0 0.58411,-0.07132 0.83542,-0.21395c0.2513,-0.14942 0.44827,-0.34979 0.59091,-0.60109c0.14942,-0.2513 0.22414,-0.52978 0.22414,-0.83542v-3.03603c0,-0.31243 -0.07471,-0.59091 -0.22414,-0.83542c-0.14263,-0.2513 -0.3396,-0.45167 -0.59091,-0.60109c-0.2513,-0.14942 -0.52978,-0.22414 -0.83542,-0.22414c-0.31243,0 -0.5943,0.07471 -0.84561,0.22414c-0.2513,0.14942 -0.45167,0.34979 -0.60109,0.60109c-0.14263,0.24451 -0.21395,0.52299 -0.21395,0.83542v3.03603c0,0.30564 0.07132,0.58411 0.21395,0.83542c0.14942,0.2513 0.34979,0.45167 0.60109,0.60109c0.2513,0.14263 0.53317,0.21395 0.84561,0.21395zM281.29544,184.60734c-0.62487,0 -1.17502,-0.13244 -1.65046,-0.39733c-0.46865,-0.26489 -0.83542,-0.63505 -1.10031,-1.11049c-0.26489,-0.47544 -0.39733,-1.0222 -0.39733,-1.64027v-2.82208c0,-0.62487 0.13244,-1.17162 0.39733,-1.64027c0.26489,-0.47544 0.63166,-0.84561 1.10031,-1.11049c0.47544,-0.27168 1.02559,-0.40752 1.65046,-0.40752c0.61807,0 1.16143,0.13584 1.63008,0.40752c0.47544,0.26489 0.84561,0.63505 1.11049,1.11049c0.27168,0.46865 0.40752,1.01541 0.40752,1.64027v2.82208c0,0.61807 -0.13584,1.16483 -0.40752,1.64027c-0.26489,0.47544 -0.63505,0.84561 -1.11049,1.11049c-0.46865,0.26489 -1.01201,0.39733 -1.63008,0.39733zM281.29544,183.21158c0.30564,0 0.58411,-0.07132 0.83542,-0.21395c0.2513,-0.14942 0.44827,-0.34979 0.59091,-0.60109c0.14942,-0.2513 0.22414,-0.52978 0.22414,-0.83542v-3.03603c0,-0.31243 -0.07471,-0.59091 -0.22414,-0.83542c-0.14263,-0.2513 -0.3396,-0.45167 -0.59091,-0.60109c-0.2513,-0.14942 -0.52978,-0.22414 -0.83542,-0.22414c-0.31243,0 -0.5943,0.07471 -0.84561,0.22414c-0.2513,0.14942 -0.45167,0.34979 -0.60109,0.60109c-0.14263,0.24451 -0.21395,0.52299 -0.21395,0.83542v3.03603c0,0.30564 0.07132,0.58411 0.21395,0.83542c0.14942,0.2513 0.34979,0.45167 0.60109,0.60109c0.2513,0.14263 0.53317,0.21395 0.84561,0.21395zM289.29968,184.60734c-0.62487,0 -1.17502,-0.13244 -1.65046,-0.39733c-0.46865,-0.26489 -0.83542,-0.63505 -1.10031,-1.11049c-0.26489,-0.47544 -0.39733,-1.0222 -0.39733,-1.64027v-2.82208c0,-0.62487 0.13244,-1.17162 0.39733,-1.64027c0.26489,-0.47544 0.63166,-0.84561 1.10031,-1.11049c0.47544,-0.27168 1.02559,-0.40752 1.65046,-0.40752c0.61807,0 1.16143,0.13584 1.63006,0.40752c0.47544,0.26489 0.84561,0.63505 1.11049,1.11049c0.27168,0.46865 0.40752,1.01541 0.40752,1.64027v2.82208c0,0.61807 -0.13584,1.16483 -0.40752,1.64027c-0.26489,0.47544 -0.63505,0.84561 -1.11049,1.11049c-0.46864,0.26489 -1.01199,0.39733 -1.63006,0.39733zM289.29968,183.21158c0.30564,0 0.58411,-0.07132 0.83542,-0.21395c0.25129,-0.14942 0.44825,-0.34979 0.59089,-0.60109c0.14942,-0.2513 0.22414,-0.52978 0.22414,-0.83542v-3.03603c0,-0.31243 -0.07471,-0.59091 -0.22414,-0.83542c-0.14263,-0.2513 -0.33959,-0.45167 -0.59089,-0.60109c-0.2513,-0.14942 -0.52978,-0.22414 -0.83542,-0.22414c-0.31243,0 -0.5943,0.07471 -0.84561,0.22414c-0.2513,0.14942 -0.45167,0.34979 -0.60109,0.60109c-0.14263,0.24451 -0.21395,0.52299 -0.21395,0.83542v3.03603c0,0.30564 0.07132,0.58411 0.21395,0.83542c0.14942,0.2513 0.34979,0.45167 0.60109,0.60109c0.2513,0.14263 0.53317,0.21395 0.84561,0.21395zM297.30391,184.60734c-0.62487,0 -1.17502,-0.13244 -1.65046,-0.39733c-0.46865,-0.26489 -0.83542,-0.63505 -1.10031,-1.11049c-0.26489,-0.47544 -0.39733,-1.0222 -0.39733,-1.64027v-2.82208c0,-0.62487 0.13244,-1.17162 0.39733,-1.64027c0.26489,-0.47544 0.63166,-0.84561 1.10031,-1.11049c0.47544,-0.27168 1.02559,-0.40752 1.65046,-0.40752c0.61807,0 1.16143,0.13584 1.63008,0.40752c0.47544,0.26489 0.84561,0.63505 1.11049,1.11049c0.27168,0.46865 0.40752,1.01541 0.40752,1.64027v2.82208c0,0.61807 -0.13584,1.16483 -0.40752,1.64027c-0.26489,0.47544 -0.63505,0.84561 -1.11049,1.11049c-0.46865,0.26489 -1.01201,0.39733 -1.63008,0.39733zM297.30391,183.21158c0.30564,0 0.58411,-0.07132 0.83542,-0.21395c0.2513,-0.14942 0.44827,-0.34979 0.59091,-0.60109c0.14942,-0.2513 0.22414,-0.52978 0.22414,-0.83542v-3.03603c0,-0.31243 -0.07471,-0.59091 -0.22414,-0.83542c-0.14263,-0.2513 -0.3396,-0.45167 -0.59091,-0.60109c-0.2513,-0.14942 -0.52978,-0.22414 -0.83542,-0.22414c-0.31243,0 -0.5943,0.07471 -0.84561,0.22414c-0.2513,0.14942 -0.45167,0.34979 -0.60109,0.60109c-0.14263,0.24451 -0.21395,0.52299 -0.21395,0.83542v3.03603c0,0.30564 0.07132,0.58411 0.21395,0.83542c0.14942,0.2513 0.34979,0.45167 0.60109,0.60109c0.2513,0.14263 0.53317,0.21395 0.84561,0.21395z" fill="#ffffff" stroke="#ffffff" stroke-width="0.25" stroke-linecap="square"/><path d="M142.5,277.5v-195h195v195z" fill="none" stroke="none" stroke-width="0" stroke-linecap="butt"/></g></g></svg>