<svg version="1.1" xmlns="http://www.w3.org/2000/svg" xmlns:xlink="http://www.w3.org/1999/xlink" width="89.19171" height="20.35" viewBox="0,0,89.19171,20.35"><defs><linearGradient x1="223.71123" y1="172.34285" x2="223.71123" y2="187.69285" gradientUnits="userSpaceOnUse" id="color-1"><stop offset="0" stop-color="#8b8b8b"/><stop offset="1" stop-color="#7a7a7a"/></linearGradient><linearGradient x1="223.71123" y1="172.34285" x2="223.71123" y2="187.69285" gradientUnits="userSpaceOnUse" id="color-2"><stop offset="0" stop-color="#8b8b8b"/><stop offset="1" stop-color="#7a7a7a"/></linearGradient><linearGradient x1="261.61322" y1="180.18053" x2="268.01231" y2="180.18053" gradientUnits="userSpaceOnUse" id="color-3"><stop offset="0" stop-color="#585858"/><stop offset="1" stop-color="#676767"/></linearGradient><linearGradient x1="261.61322" y1="180.18053" x2="268.01231" y2="180.18053" gradientUnits="userSpaceOnUse" id="color-4"><stop offset="0" stop-color="#585858"/><stop offset="1" stop-color="#676767"/></linearGradient><linearGradient x1="271.70732" y1="180.53969" x2="276.27477" y2="180.53969" gradientUnits="userSpaceOnUse" id="color-5"><stop offset="0" stop-color="#585858"/><stop offset="1" stop-color="#676767"/></linearGradient><linearGradient x1="271.70732" y1="180.53969" x2="276.27477" y2="180.53969" gradientUnits="userSpaceOnUse" id="color-6"><stop offset="0" stop-color="#585858"/><stop offset="1" stop-color="#676767"/></linearGradient><linearGradient x1="269.28845" y1="180.507" x2="282.2292" y2="180.507" gradientUnits="userSpaceOnUse" id="color-7"><stop offset="0" stop-color="#494949"/><stop offset="1" stop-color="#7a7a7a"/></linearGradient><linearGradient x1="269.28845" y1="180.507" x2="282.2292" y2="180.507" gradientUnits="userSpaceOnUse" id="color-8"><stop offset="0" stop-color="#494949"/><stop offset="1" stop-color="#7a7a7a"/></linearGradient><linearGradient x1="282.09766" y1="180.4864" x2="284.20074" y2="180.4864" gradientUnits="userSpaceOnUse" id="color-9"><stop offset="0" stop-color="#585858"/><stop offset="1" stop-color="#676767"/></linearGradient><linearGradient x1="282.09766" y1="180.4864" x2="284.20074" y2="180.4864" gradientUnits="userSpaceOnUse" id="color-10"><stop offset="0" stop-color="#585858"/><stop offset="1" stop-color="#676767"/></linearGradient><linearGradient x1="243.88845" y1="180.49496" x2="271.99299" y2="180.49496" gradientUnits="userSpaceOnUse" id="color-11"><stop offset="0" stop-color="#494949"/><stop offset="1" stop-color="#7a7a7a"/></linearGradient><linearGradient x1="243.88845" y1="180.49496" x2="271.99299" y2="180.49496" gradientUnits="userSpaceOnUse" id="color-12"><stop offset="0" stop-color="#494949"/><stop offset="1" stop-color="#7a7a7a"/></linearGradient><linearGradient x1="242.32595" y1="173.74286" x2="242.32595" y2="186.49286" gradientUnits="userSpaceOnUse" id="color-13"><stop offset="0" stop-color="#828282"/><stop offset="1" stop-color="#747474"/></linearGradient><linearGradient x1="242.32595" y1="173.74286" x2="242.32595" y2="186.49286" gradientUnits="userSpaceOnUse" id="color-14"><stop offset="0" stop-color="#828282"/><stop offset="1" stop-color="#747474"/></linearGradient></defs><g transform="translate(-197.50902,-169.84285)"><g data-paper-data="{&quot;isPaintingLayer&quot;:true}" fill-rule="nonzero" stroke-linejoin="miter" stroke-miterlimit="10" stroke-dasharray="" stroke-dashoffset="0" style="mix-blend-mode: normal"><g><path d="M205.42668,187.69285c0,0 -5.42013,-2.64223 -5.41765,-7.52451c0.00272,-5.34651 5.41765,-7.82549 5.41765,-7.82549h41.98676v15.35z" fill="url(#color-1)" stroke="url(#color-2)" stroke-width="5" stroke-linecap="butt"/><g stroke-linecap="butt"><path d="M268.01231,180.18053c0,3.50014 -1.43248,6.33756 -3.19955,6.33756c-1.76706,0 -3.19955,-2.83742 -3.19955,-6.33756c0,-3.50014 1.43248,-6.33756 3.19955,-6.33756c1.76706,0 3.19955,2.83742 3.19955,6.33756z" fill="url(#color-3)" stroke="url(#color-4)" stroke-width="5"/><path d="M269.36597,180.19117c0,4.37779 -2.09363,7.92668 -4.67626,7.92668c-2.58263,0 -4.67626,-3.54889 -4.67626,-7.92668c0,-4.37779 2.09363,-7.92668 4.67626,-7.92668c2.58263,0 4.67626,3.54889 4.67626,7.92668z" fill="none" stroke="#787878" stroke-width="2"/></g><path d="M276.27477,180.53969c0,2.49828 -1.02246,4.52354 -2.28372,4.52354c-1.26126,0 -2.28373,-2.02526 -2.28373,-4.52354c0,-2.49828 1.02246,-4.52353 2.28373,-4.52353c1.26126,0 2.28372,2.02525 2.28372,4.52353z" fill="url(#color-5)" stroke="url(#color-6)" stroke-width="5" stroke-linecap="butt"/><path d="M277.99097,180.52823c0,3.41727 -1.77418,6.18751 -3.96275,6.18751c-2.18857,0 -3.96276,-2.77024 -3.96276,-6.18751c0,-3.41727 1.77419,-6.18752 3.96276,-6.18752c2.18857,0 3.96275,2.77025 3.96275,6.18752z" fill="none" stroke="#787878" stroke-width="2" stroke-linecap="butt"/><g stroke-linecap="butt"><path d="M282.2292,178.41183v4.19034h-11.46181c0,0 -1.4782,-0.67672 -1.47894,-2.13625c-0.00068,-1.33279 1.47894,-2.05409 1.47894,-2.05409z" fill="url(#color-7)" stroke="url(#color-8)" stroke-width="5"/><path d="M283.1492,182.56926c-0.58075,0 -1.05154,-0.93252 -1.05154,-2.08286c0,-1.15033 0.47079,-2.08286 1.05154,-2.08286c0.58075,0 1.05154,0.93252 1.05154,2.08286c0,1.15033 -0.47079,2.08286 -1.05154,2.08286z" fill="url(#color-9)" stroke="url(#color-10)" stroke-width="5"/><path d="M283.16632,184.34071c-1.3391,0 -2.42466,-1.695 -2.42466,-3.78589c0,-2.09089 1.08556,-3.7859 2.42466,-3.7859c1.3391,0 2.42465,1.69501 2.42465,3.7859c0,2.09089 -1.08555,3.78589 -2.42465,3.78589z" fill="none" stroke="#787878" stroke-width="2"/></g><path d="M247.1004,185.04522c0,0 -3.21342,-1.5665 -3.21195,-4.46104c0.00161,-3.16977 3.21195,-4.63948 3.21195,-4.63948h24.8926v9.10052z" fill="url(#color-11)" stroke="url(#color-12)" stroke-width="5" stroke-linecap="butt"/><path d="M227.13845,186.49286c0,0 -4.50206,-2.19469 -4.5,-6.25c0.00226,-4.44091 4.5,-6.5 4.5,-6.5h34.875v12.75z" fill="url(#color-13)" stroke="url(#color-14)" stroke-width="5" stroke-linecap="butt"/><path d="M227.345,183.82937l32,0.16666" fill="none" stroke="#ffca00" stroke-width="1.5" stroke-linecap="round"/><path d="M227.51167,175.99603h32" fill="none" stroke="#ffca00" stroke-width="1.5" stroke-linecap="round"/><path d="M261.17834,179.82937h-17.33334" fill="none" stroke="#ffca00" stroke-width="1.5" stroke-linecap="round"/><path d="M225.26167,188.28572c0,0 -6.18116,-2.7955 -5.92669,-8.28393c0.29501,-6.36281 5.78383,-8.2875 5.78383,-8.2875" fill="none" stroke="#ffca00" stroke-width="1.5" stroke-linecap="round"/></g></g></g></svg>