<svg version="1.1" xmlns="http://www.w3.org/2000/svg" xmlns:xlink="http://www.w3.org/1999/xlink" width="406.31869" height="289.24627" viewBox="0,0,406.31869,289.24627"><defs><radialGradient cx="206.38214" cy="179.43281" r="36.8364" gradientUnits="userSpaceOnUse" id="color-1"><stop offset="0" stop-color="#78ff47"/><stop offset="1" stop-color="#78ff47" stop-opacity="0"/></radialGradient><radialGradient cx="205.97466" cy="179.42311" r="36.8364" gradientUnits="userSpaceOnUse" id="color-2"><stop offset="0" stop-color="#4fff00"/><stop offset="1" stop-color="#4fff00" stop-opacity="0"/></radialGradient><linearGradient x1="245.40005" y1="180.02924" x2="215.72737" y2="180.16123" gradientUnits="userSpaceOnUse" id="color-3"><stop offset="0" stop-color="#55ff0a"/><stop offset="1" stop-color="#55ff0a" stop-opacity="0"/></linearGradient><linearGradient x1="243.22513" y1="180.02023" x2="225.37853" y2="180.09966" gradientUnits="userSpaceOnUse" id="color-4"><stop offset="0" stop-color="#77ff48"/><stop offset="1" stop-color="#77ff48" stop-opacity="0"/></linearGradient><radialGradient cx="240" cy="180" r="13.46279" gradientUnits="userSpaceOnUse" id="color-5"><stop offset="0" stop-color="#66f72c"/><stop offset="1" stop-color="#66f72c" stop-opacity="0"/></radialGradient><radialGradient cx="240" cy="180" r="13.46279" gradientUnits="userSpaceOnUse" id="color-6"><stop offset="0" stop-color="#000000" stop-opacity="0"/><stop offset="1" stop-color="#000000" stop-opacity="0"/></radialGradient><radialGradient cx="223.21518" cy="179.7" r="9.27797" gradientUnits="userSpaceOnUse" id="color-7"><stop offset="0" stop-color="#66f72c"/><stop offset="1" stop-color="#66f72c" stop-opacity="0"/></radialGradient><radialGradient cx="223.21518" cy="179.7" r="9.27797" gradientUnits="userSpaceOnUse" id="color-8"><stop offset="0" stop-color="#000000" stop-opacity="0"/><stop offset="1" stop-color="#000000" stop-opacity="0"/></radialGradient><radialGradient cx="229.21161" cy="179.7" r="10.25119" gradientUnits="userSpaceOnUse" id="color-9"><stop offset="0" stop-color="#66f72c"/><stop offset="1" stop-color="#66f72c" stop-opacity="0"/></radialGradient><radialGradient cx="229.21161" cy="179.7" r="10.25119" gradientUnits="userSpaceOnUse" id="color-10"><stop offset="0" stop-color="#000000" stop-opacity="0"/><stop offset="1" stop-color="#000000" stop-opacity="0"/></radialGradient><radialGradient cx="215.64821" cy="179.95" r="6.26101" gradientUnits="userSpaceOnUse" id="color-11"><stop offset="0" stop-color="#66f72c"/><stop offset="1" stop-color="#66f72c" stop-opacity="0"/></radialGradient><radialGradient cx="215.64821" cy="179.95" r="6.26101" gradientUnits="userSpaceOnUse" id="color-12"><stop offset="0" stop-color="#000000" stop-opacity="0"/><stop offset="1" stop-color="#000000" stop-opacity="0"/></radialGradient><radialGradient cx="211.14822" cy="179.95" r="6.26101" gradientUnits="userSpaceOnUse" id="color-13"><stop offset="0" stop-color="#66f72c"/><stop offset="1" stop-color="#66f72c" stop-opacity="0"/></radialGradient><radialGradient cx="211.14822" cy="179.95" r="6.26101" gradientUnits="userSpaceOnUse" id="color-14"><stop offset="0" stop-color="#000000" stop-opacity="0"/><stop offset="1" stop-color="#000000" stop-opacity="0"/></radialGradient></defs><g transform="translate(-36.84065,-35.37686)"><g data-paper-data="{&quot;isPaintingLayer&quot;:true}" fill-rule="nonzero" stroke-linejoin="miter" stroke-miterlimit="10" stroke-dasharray="" stroke-dashoffset="0" style="mix-blend-mode: normal"><path d="M107.5,274.32283v-188.64567h265v188.64567z" fill="none" stroke="none" stroke-width="0" stroke-linecap="butt"/><path d="M169.4965,180.23446c0,0 1.11934,0.1283 6.18769,0.21789c1.29093,0.02282 4.71334,-1.22851 6.24355,-1.17766c1.81171,0.0602 3.39672,1.70356 5.49091,1.7405c1.98332,0.03499 5.09195,-1.50196 7.22339,-1.45936c1.82097,0.03638 3.95708,1.4016 5.82904,1.41171c2.37443,0.01282 4.51854,-1.84205 6.90788,-1.81703c1.98301,0.02076 4.86043,1.92236 6.78313,1.92567c2.59297,0.00446 3.91214,-2.93901 6.29251,-2.90219c3.17175,0.04907 4.71805,3.7743 7.37803,3.76785c6.55131,-0.01589 6.10884,-3.87782 8.6041,-3.82777c3.01205,0.06042 6.70227,4.13812 6.70227,4.13812" fill="none" stroke="url(#color-1)" stroke-width="5.5" stroke-linecap="round"/><path d="M169.08903,180.22476c0,0 1.11934,0.1283 6.18769,0.2179c1.29093,0.02282 4.71335,-1.2285 6.24355,-1.17765c1.81172,0.0602 3.39673,1.70356 5.49091,1.7405c1.98332,0.03499 5.09197,-1.50196 7.2234,-1.45936c1.82097,0.03638 3.95706,1.4016 5.82904,1.41171c2.37443,0.01282 4.51854,-1.84205 6.90787,-1.81703c1.98301,0.02076 4.86043,1.92236 6.78314,1.92567c2.59297,0.00446 3.91215,-2.93901 6.29251,-2.90219c3.17175,0.04907 4.71806,3.77429 7.37804,3.76784c6.55131,-0.0159 6.10883,-3.87781 8.60408,-3.82777c3.01204,0.06042 6.70227,4.13813 6.70227,4.13813" fill="none" stroke="url(#color-2)" stroke-width="2.5" stroke-linecap="round"/><path d="M239.1036,184.33259c-1.23308,0.01028 -5.32679,0.25442 -9.04801,-0.1236c-3.35359,-0.34064 -7.77376,-0.53111 -10.4847,-1.22275c-2.80095,-0.7146 -3.83813,-1.93744 -3.84312,-2.71527c-0.00487,-0.75941 1.02209,-2.14554 3.63242,-2.89745c2.78303,-0.80167 7.26425,-0.95776 10.82287,-1.37683c3.50326,-0.41256 7.6891,-0.22267 8.8656,-0.23246c3.49253,-0.02914 6.33607,1.86533 6.35126,4.23143c0.01519,2.36611 -2.80377,4.30781 -6.29628,4.33695z" fill="url(#color-3)" stroke="none" stroke-width="0" stroke-linecap="butt"/><path d="M239.43815,182.60848c-0.74165,0.00618 -3.20378,0.15301 -5.44192,-0.07432c-2.01701,-0.20488 -4.67552,-0.31944 -6.30603,-0.73542c-1.68463,-0.4298 -2.30845,-1.16528 -2.31144,-1.63309c-0.00293,-0.45676 0.61473,-1.29044 2.18472,-1.74268c1.67386,-0.48217 4.36908,-0.57603 6.5094,-0.82807c2.10704,-0.24814 4.62459,-0.13391 5.33221,-0.13983c2.10058,-0.01753 3.81083,1.12192 3.81996,2.545c0.00913,1.42308 -1.68632,2.59093 -3.78689,2.60846z" fill="url(#color-4)" stroke="none" stroke-width="0" stroke-linecap="butt"/><path d="M253.46279,180c0,7.63994 -6.02751,13.83333 -13.46279,13.83333c-7.4353,0 -13.46279,-6.1934 -13.46279,-13.83333c0,-7.63994 6.02751,-13.83333 13.46279,-13.83333c7.4353,0 13.46279,6.1934 13.46279,13.83333z" fill="url(#color-5)" stroke="url(#color-6)" stroke-width="0" stroke-linecap="butt"/><path d="M232.49315,179.7c0,5.26512 -4.15389,9.53333 -9.27797,9.53333c-5.12409,0 -9.27797,-4.26822 -9.27797,-9.53333c0,-5.26512 4.15389,-9.53333 9.27797,-9.53333c5.12409,0 9.27797,4.26822 9.27797,9.53333z" fill="url(#color-7)" stroke="url(#color-8)" stroke-width="0" stroke-linecap="butt"/><path d="M239.46279,179.7c0,5.8174 -4.58962,10.53333 -10.25119,10.53333c-5.66158,0 -10.25119,-4.71594 -10.25119,-10.53333c0,-5.8174 4.58962,-10.53333 10.25119,-10.53333c5.66158,0 10.25119,4.71594 10.25119,10.53333z" fill="url(#color-9)" stroke="url(#color-10)" stroke-width="0" stroke-linecap="butt"/><path d="M221.90922,179.95c0,3.55303 -2.80315,6.43333 -6.26101,6.43333c-3.45786,0 -6.26101,-2.8803 -6.26101,-6.43333c0,-3.55303 2.80315,-6.43333 6.26101,-6.43333c3.45786,0 6.26101,2.8803 6.26101,6.43333z" fill="url(#color-11)" stroke="url(#color-12)" stroke-width="0" stroke-linecap="butt"/><path d="M217.40922,179.95c0,3.55303 -2.80315,6.43333 -6.26101,6.43333c-3.45786,0 -6.26101,-2.88031 -6.26101,-6.43333c0,-3.55303 2.80316,-6.43333 6.26101,-6.43333c3.45786,0 6.26101,2.8803 6.26101,6.43333z" fill="url(#color-13)" stroke="url(#color-14)" stroke-width="0" stroke-linecap="butt"/><path d="M36.84066,324.62314v-289.24627h406.31869v289.24627z" fill="none" stroke="none" stroke-width="0" stroke-linecap="butt"/></g></g></svg>