<svg version="1.1" xmlns="http://www.w3.org/2000/svg" xmlns:xlink="http://www.w3.org/1999/xlink" width="142.8544" height="105.40477" viewBox="0,0,142.8544,105.40477"><defs><radialGradient cx="239.54942" cy="217.87225" r="65.74662" gradientUnits="userSpaceOnUse" id="color-1"><stop offset="0" stop-color="#000000"/><stop offset="1" stop-color="#111111"/></radialGradient><linearGradient x1="298.50002" y1="253.33689" x2="298.50002" y2="259.17024" gradientUnits="userSpaceOnUse" id="color-2"><stop offset="0" stop-color="#737373"/><stop offset="1" stop-color="#8d8d8d"/></linearGradient><linearGradient x1="298.52779" y1="253.12393" x2="298.52779" y2="257.67949" gradientUnits="userSpaceOnUse" id="color-3"><stop offset="0" stop-color="#737373"/><stop offset="1" stop-color="#8d8d8d"/></linearGradient><linearGradient x1="290.12502" y1="239.25357" x2="307.37502" y2="239.25357" gradientUnits="userSpaceOnUse" id="color-4"><stop offset="0" stop-color="#830000"/><stop offset="1" stop-color="#620000"/></linearGradient><linearGradient x1="292.62502" y1="252.55911" x2="304.70835" y2="252.55911" gradientUnits="userSpaceOnUse" id="color-5"><stop offset="0" stop-color="#830000"/><stop offset="1" stop-color="#620000"/></linearGradient><linearGradient x1="298.64585" y1="250.79524" x2="298.64585" y2="253.04524" gradientUnits="userSpaceOnUse" id="color-6"><stop offset="0" stop-color="#620000"/><stop offset="1" stop-color="#620000" stop-opacity="0"/></linearGradient><linearGradient x1="292.75002" y1="226.18411" x2="304.83335" y2="226.18411" gradientUnits="userSpaceOnUse" id="color-7"><stop offset="0" stop-color="#830000"/><stop offset="1" stop-color="#620000"/></linearGradient><linearGradient x1="298.77085" y1="227.94802" x2="298.77085" y2="225.69802" gradientUnits="userSpaceOnUse" id="color-8"><stop offset="0" stop-color="#620000"/><stop offset="1" stop-color="#620000" stop-opacity="0"/></linearGradient><linearGradient x1="180.83335" y1="254.00355" x2="180.83335" y2="259.83689" gradientUnits="userSpaceOnUse" id="color-9"><stop offset="0" stop-color="#737373"/><stop offset="1" stop-color="#8d8d8d"/></linearGradient><linearGradient x1="180.86113" y1="253.7906" x2="180.86113" y2="258.34617" gradientUnits="userSpaceOnUse" id="color-10"><stop offset="0" stop-color="#737373"/><stop offset="1" stop-color="#8d8d8d"/></linearGradient><linearGradient x1="172.45835" y1="240.08689" x2="189.70835" y2="240.08689" gradientUnits="userSpaceOnUse" id="color-11"><stop offset="0" stop-color="#830000"/><stop offset="1" stop-color="#620000"/></linearGradient><linearGradient x1="174.95835" y1="253.22578" x2="187.04168" y2="253.22578" gradientUnits="userSpaceOnUse" id="color-12"><stop offset="0" stop-color="#830000"/><stop offset="1" stop-color="#620000"/></linearGradient><linearGradient x1="180.97918" y1="251.46189" x2="180.97918" y2="253.71189" gradientUnits="userSpaceOnUse" id="color-13"><stop offset="0" stop-color="#620000"/><stop offset="1" stop-color="#620000" stop-opacity="0"/></linearGradient><linearGradient x1="175.08335" y1="226.85078" x2="187.16668" y2="226.85078" gradientUnits="userSpaceOnUse" id="color-14"><stop offset="0" stop-color="#830000"/><stop offset="1" stop-color="#620000"/></linearGradient><linearGradient x1="181.10418" y1="228.61467" x2="181.10418" y2="226.36467" gradientUnits="userSpaceOnUse" id="color-15"><stop offset="0" stop-color="#620000"/><stop offset="1" stop-color="#620000" stop-opacity="0"/></linearGradient><linearGradient x1="204.22329" y1="256.90822" x2="176.52286" y2="262.2553" gradientUnits="userSpaceOnUse" id="color-16"><stop offset="0" stop-color="#c7c7c7"/><stop offset="1" stop-color="#c7c7c7" stop-opacity="0"/></linearGradient><linearGradient x1="191.63379" y1="265.47319" x2="170.35153" y2="258.54724" gradientUnits="userSpaceOnUse" id="color-17"><stop offset="0" stop-color="#c7c7c7"/><stop offset="1" stop-color="#c7c7c7" stop-opacity="0"/></linearGradient><radialGradient cx="240.83335" cy="202.00355" r="49.66667" gradientUnits="userSpaceOnUse" id="color-18"><stop offset="0" stop-color="#000000"/><stop offset="1" stop-color="#0a0a0a"/></radialGradient><linearGradient x1="240.25002" y1="163.45989" x2="240.25002" y2="225.45989" gradientUnits="userSpaceOnUse" id="color-19"><stop offset="0" stop-color="#ff0000"/><stop offset="1" stop-color="#db0000"/></linearGradient><linearGradient x1="240.25002" y1="163.45989" x2="240.25002" y2="225.45989" gradientUnits="userSpaceOnUse" id="color-20"><stop offset="0" stop-color="#ff0000"/><stop offset="1" stop-color="#db0000"/></linearGradient><radialGradient cx="239.58335" cy="229.69802" r="66.25" gradientUnits="userSpaceOnUse" id="color-21"><stop offset="0" stop-color="#000000"/><stop offset="1" stop-color="#121212"/></radialGradient><linearGradient x1="236.15523" y1="249.01052" x2="254.65523" y2="249.01052" gradientUnits="userSpaceOnUse" id="color-22"><stop offset="0" stop-color="#000000" stop-opacity="0"/><stop offset="1" stop-color="#000000"/></linearGradient><linearGradient x1="242.90523" y1="212.90633" x2="265.78023" y2="212.90633" gradientUnits="userSpaceOnUse" id="color-23"><stop offset="0" stop-color="#000000" stop-opacity="0"/><stop offset="1" stop-color="#000000"/></linearGradient><linearGradient x1="240.03023" y1="232.40633" x2="240.03023" y2="244.78133" gradientUnits="userSpaceOnUse" id="color-24"><stop offset="0" stop-color="#000000"/><stop offset="1" stop-color="#000000" stop-opacity="0"/></linearGradient><linearGradient x1="231.95835" y1="178.58689" x2="249.20835" y2="178.58689" gradientUnits="userSpaceOnUse" id="color-25"><stop offset="0" stop-color="#830000"/><stop offset="1" stop-color="#620000"/></linearGradient><linearGradient x1="234.45835" y1="191.72578" x2="246.54168" y2="191.72578" gradientUnits="userSpaceOnUse" id="color-26"><stop offset="0" stop-color="#830000"/><stop offset="1" stop-color="#620000"/></linearGradient><linearGradient x1="240.47918" y1="189.96189" x2="240.47918" y2="192.21189" gradientUnits="userSpaceOnUse" id="color-27"><stop offset="0" stop-color="#620000"/><stop offset="1" stop-color="#620000" stop-opacity="0"/></linearGradient><linearGradient x1="234.58335" y1="165.35078" x2="246.66668" y2="165.35078" gradientUnits="userSpaceOnUse" id="color-28"><stop offset="0" stop-color="#830000"/><stop offset="1" stop-color="#620000"/></linearGradient><linearGradient x1="240.60418" y1="167.11466" x2="240.60418" y2="164.86466" gradientUnits="userSpaceOnUse" id="color-29"><stop offset="0" stop-color="#620000"/><stop offset="1" stop-color="#620000" stop-opacity="0"/></linearGradient><linearGradient x1="173.00002" y1="201.75355" x2="197.16669" y2="201.75355" gradientUnits="userSpaceOnUse" id="color-30"><stop offset="0" stop-color="#db0000"/><stop offset="1" stop-color="#ff0000"/></linearGradient><linearGradient x1="285.16668" y1="202.08689" x2="309.33335" y2="202.08689" gradientUnits="userSpaceOnUse" id="color-31"><stop offset="0" stop-color="#ff0000"/><stop offset="1" stop-color="#db0000"/></linearGradient><linearGradient x1="240.29168" y1="240.49132" x2="240.29168" y2="254.40829" gradientUnits="userSpaceOnUse" id="color-32"><stop offset="0" stop-color="#79b0ff"/><stop offset="1" stop-color="#98c3ff"/></linearGradient><linearGradient x1="240.29168" y1="240.49132" x2="240.29168" y2="254.40829" gradientUnits="userSpaceOnUse" id="color-33"><stop offset="0" stop-color="#6ea2ea"/><stop offset="1" stop-color="#8fb6ee"/></linearGradient><linearGradient x1="236.33334" y1="242.3355" x2="236.33334" y2="251.0855" gradientUnits="userSpaceOnUse" id="color-34"><stop offset="0" stop-color="#6ea2ea"/><stop offset="1" stop-color="#8fb6ee"/></linearGradient><linearGradient x1="244.45834" y1="242.3355" x2="244.45834" y2="251.0855" gradientUnits="userSpaceOnUse" id="color-35"><stop offset="0" stop-color="#6ea2ea"/><stop offset="1" stop-color="#8fb6ee"/></linearGradient></defs><g transform="translate(-166.47895,-160.9599)"><g data-paper-data="{&quot;isPaintingLayer&quot;:true}" fill-rule="nonzero" stroke-linejoin="miter" stroke-miterlimit="10" stroke-dasharray="" stroke-dashoffset="0" style="mix-blend-mode: normal"><path d="M173.8028,227.08245v-18.42039h131.49324v18.42039z" data-paper-data="{&quot;index&quot;:null}" fill="url(#color-1)" stroke="none" stroke-width="0" stroke-linecap="butt"/><path d="M264.78125,172.36914l3,2.83333l-0.16667,3.5" data-paper-data="{&quot;index&quot;:null}" fill="none" stroke="#bc0000" stroke-width="4" stroke-linecap="round"/><g data-paper-data="{&quot;index&quot;:null}" stroke="none" stroke-width="0" stroke-linecap="butt"><path d="M297.83335,259.17024v-5.83333h1.33333v5.83333z" fill="url(#color-2)"/><path d="M297.36113,257.67949v-4.55556h2.33333v4.55556z" fill="url(#color-3)"/></g><path d="M290.12502,250.75357c0,0 0.83333,-5.28882 0.83333,-8.38443c0,-4.21816 -0.83333,-14.61557 -0.83333,-14.61557h17.25c0,0 -1.33333,14.65587 -1.33333,18.61557c0,1.78498 1.33333,4.38443 1.33333,4.38443z" data-paper-data="{&quot;index&quot;:null}" fill="url(#color-4)" stroke="none" stroke-width="0" stroke-linecap="butt"/><g data-paper-data="{&quot;index&quot;:null}" stroke="none" stroke-width="0" stroke-linecap="butt"><path d="M292.62502,254.36467v-3.61111h12.08333v3.61111z" fill="url(#color-5)"/><path d="M292.64585,253.04524v-2.25h12v2.25z" fill="url(#color-6)"/></g><g data-paper-data="{&quot;index&quot;:null}" stroke="none" stroke-width="0" stroke-linecap="butt"><path d="M304.83335,224.37855v3.61111h-12.08333v-3.61111z" fill="url(#color-7)"/><path d="M304.77085,225.69802v2.25h-12v-2.25z" fill="url(#color-8)"/></g><path d="M180.16668,259.83689v-5.83334h1.33334v5.83334z" data-paper-data="{&quot;index&quot;:null}" fill="url(#color-9)" stroke="none" stroke-width="0" stroke-linecap="butt"/><path d="M179.69446,258.34617v-4.55556h2.33334v4.55556z" data-paper-data="{&quot;index&quot;:null}" fill="url(#color-10)" stroke="none" stroke-width="0" stroke-linecap="butt"/><path d="M172.45835,251.58689v-23h17.25v23z" data-paper-data="{&quot;index&quot;:null}" fill="url(#color-11)" stroke="none" stroke-width="0" stroke-linecap="butt"/><g data-paper-data="{&quot;index&quot;:null}" stroke="none" stroke-width="0" stroke-linecap="butt"><path d="M174.95835,255.03133v-3.61111h12.08333v3.61111z" fill="url(#color-12)"/><path d="M174.97918,253.71189v-2.25h12v2.25z" fill="url(#color-13)"/></g><g data-paper-data="{&quot;index&quot;:null}" stroke="none" stroke-width="0" stroke-linecap="butt"><path d="M187.16668,225.04524v3.61111h-12.08333v-3.61111z" fill="url(#color-14)"/><path d="M187.10418,226.36467v2.25h-12v-2.25z" fill="url(#color-15)"/></g><path d="M172.92629,261.10684l7.66553,-1.47969l7.19313,2.29687l-8.18811,1.28573z" data-paper-data="{&quot;index&quot;:null}" fill="url(#color-16)" stroke="none" stroke-width="0" stroke-linecap="butt"/><path d="M175.01009,257.6649l5.88943,1.91662l-9.31712,1.76468l-5.10345,-2.04458z" data-paper-data="{&quot;index&quot;:null}" fill="url(#color-17)" stroke="none" stroke-width="0" stroke-linecap="butt"/><path d="M191.16669,203.67024v-3.33333h99.33333v3.33333z" data-paper-data="{&quot;index&quot;:null}" fill="url(#color-18)" stroke="none" stroke-width="0" stroke-linecap="butt"/><path d="M206.95835,205.86467v-8c0,0 3.29663,1.66667 6.48957,1.66667c9.9723,0 61.51043,-1.66667 61.51043,-1.66667v8c0,0 -1.41982,0.83333 -4.17709,0.83333c-9.44145,0 -63.82291,-0.83333 -63.82291,-0.83333z" data-paper-data="{&quot;index&quot;:null}" fill="#0a0a0a" stroke="none" stroke-width="0" stroke-linecap="butt"/><path d="M179.08335,225.45989l45.66667,-61.99999h33.66666l5.66885,8.12975" data-paper-data="{&quot;index&quot;:null}" fill="none" stroke="url(#color-19)" stroke-width="5" stroke-linecap="round"/><path d="M301.41667,225.12656l-26.0563,-37.36756" data-paper-data="{&quot;index&quot;:null}" fill="none" stroke="url(#color-20)" stroke-width="5" stroke-linecap="round"/><path d="M173.33335,235.19802v-11c0,0 19.92487,1 34.44791,1c13.98593,0 44.43385,-1.49676 67.6693,-1.77764c17.20666,-0.208 30.38279,0.77764 30.38279,0.77764v11c0,0 -18.61818,-0.66667 -32.21876,-0.66667c-12.87243,0 -40.66252,0.85592 -63.66389,1.03276c-20.16892,0.15506 -36.61735,-0.36609 -36.61735,-0.36609z" data-paper-data="{&quot;index&quot;:null}" fill="url(#color-21)" stroke="none" stroke-width="0" stroke-linecap="butt"/><path d="M241.33335,210.53132l1,44.5" data-paper-data="{&quot;index&quot;:null}" fill="none" stroke="#000000" stroke-width="12.5" stroke-linecap="round"/><path d="M263.20835,229.61467l-11.75,0.2c0,0 0.57778,8.01931 0.61298,11.72471c0.0309,3.25188 -0.41298,9.32529 -0.41298,9.32529c0,0 -1.62905,4.50595 -2.83045,6.60235c-1.27729,2.22882 -4.61955,6.39765 -4.61955,6.39765h-7.25c0,0 -2.79136,-6.04374 -4.3093,-8.29765c-1.08039,-1.60422 -3.9407,-3.95235 -3.9407,-3.95235c0,0 -0.70433,-6.08975 -0.72625,-9.24693c-0.02701,-3.88911 0.57625,-12.35307 0.57625,-12.35307l-10.6,0.2l-0.2,-34.4l14,-0.2l8.4,-7.2l8.6,7.2h14.2z" data-paper-data="{&quot;index&quot;:null}" fill="#0d0d0d" stroke="#0d0d0d" stroke-width="5" stroke-linecap="round"/><path d="M234.65523,232.57302h20v18.75c0,0 -0.6031,2.53714 -1.44547,3.9655c-1.56085,2.64667 -7.17953,10.6595 -7.17953,10.6595l-9.875,0.125z" data-paper-data="{&quot;index&quot;:null}" fill="url(#color-22)" stroke="#0d0d0d" stroke-width="0" stroke-linecap="round"/><path d="M242.90523,232.28133v-38.75h22.875v38.75z" data-paper-data="{&quot;index&quot;:null}" fill="url(#color-23)" stroke="none" stroke-width="0" stroke-linecap="butt"/><path d="M234.92805,234.90633v6.2125l-2.89402,2.6625h-4.1288l0.03858,-8.875z" data-paper-data="{&quot;index&quot;:null}" fill="#0a0a0a" stroke="#000000" stroke-width="0" stroke-linecap="round"/><path d="M226.03023,244.78133v-12.375h28v12.375z" data-paper-data="{&quot;index&quot;:null}" fill="url(#color-24)" stroke="none" stroke-width="0" stroke-linecap="butt"/><path d="M217.40523,230.15633l-0.125,-28.75h13.375l9.375,8.625v20.125z" data-paper-data="{&quot;index&quot;:null}" fill="#0a0a0a" stroke="#000000" stroke-width="0" stroke-linecap="round"/><g data-paper-data="{&quot;index&quot;:null}" stroke-linecap="butt"><path d="M231.95835,190.08689v-23h17.25v23z" fill="url(#color-25)" stroke="none" stroke-width="0"/><g stroke="none" stroke-width="0"><path d="M234.45835,193.53133v-3.61111h12.08333v3.61111z" fill="url(#color-26)"/><path d="M234.47918,192.21189v-2.25h12v2.25z" fill="url(#color-27)"/></g><g data-paper-data="{&quot;index&quot;:null}" stroke="none" stroke-width="0"><path d="M246.66668,163.54522v3.61111h-12.08333v-3.61111z" fill="url(#color-28)"/><path d="M246.60418,164.86466v2.25h-12v-2.25z" fill="url(#color-29)"/></g><g fill="none" stroke="#ffffff"><path d="M245.56394,179.24625c0,2.73872 -2.23023,4.9589 -4.98137,4.9589c-2.75114,0 -4.98137,-2.22018 -4.98137,-4.9589c0,-2.73872 2.23023,-4.9589 4.98137,-4.9589c2.75114,0 4.98137,2.22018 4.98137,4.9589z" stroke-width="1"/><g stroke-width="0.5"><path d="M241.64044,180.92157l-2.68537,-2.9677l0.37453,-0.3389l2.68537,2.9677z"/><path d="M238.99439,180.74683l-0.28403,-0.31389l3.16744,-2.86612l0.28403,0.31389z"/><path d="M238.13779,177.05854l-0.36518,-0.40357l0.37667,-0.34084l0.36518,0.40357z"/><path d="M242.82981,182.24386l-0.36518,-0.40358l0.37667,-0.34084l0.36518,0.40358z"/></g></g></g><path d="M173.00002,203.92024v-4.33333h24.16667v4.33333z" data-paper-data="{&quot;index&quot;:null}" fill="url(#color-30)" stroke="none" stroke-width="0" stroke-linecap="butt"/><path d="M285.16668,204.25355v-4.33333h24.16667v4.33333z" data-paper-data="{&quot;index&quot;:null}" fill="url(#color-31)" stroke="none" stroke-width="0" stroke-linecap="butt"/><path d="M248.16668,215.58689c0,4.6484 -3.73096,8.41667 -8.33333,8.41667c-4.60237,0 -8.33333,-3.76827 -8.33333,-8.41667c0,-4.6484 3.73096,-8.41667 8.33333,-8.41667c4.60237,0 8.33333,3.76827 8.33333,8.41667z" data-paper-data="{&quot;index&quot;:null}" fill="#3d3d3d" stroke="#3e3e3e" stroke-width="1.5" stroke-linecap="butt"/><path d="M238.76026,254.40829l-4.23542,-2.49844c0,0 0.25081,-3.25505 0.02376,-5.03228c-0.25578,-2.00209 -1.48256,-6.38625 -1.48256,-6.38625l7.37301,1.30591l7.07826,-1.21302l-1.16832,11.43219c0,0 -1.88085,0.19848 -2.62263,0.5737c-0.81721,0.41337 -2.07627,1.80317 -2.07627,1.80317z" data-paper-data="{&quot;index&quot;:null}" fill="url(#color-32)" stroke="url(#color-33)" stroke-width="1.5" stroke-linecap="round"/><path d="M235.52084,251.0855l1.625,-8.75" data-paper-data="{&quot;index&quot;:null}" fill="none" stroke="url(#color-34)" stroke-width="1" stroke-linecap="round"/><path d="M245.39584,251.0855l-1.875,-8.75" data-paper-data="{&quot;index&quot;:null}" fill="none" stroke="url(#color-35)" stroke-width="1" stroke-linecap="round"/><path d="M218.78125,175.20247l-1.66667,0.83333l-3,2.66667l-3.5,0.66667" data-paper-data="{&quot;index&quot;:null}" fill="none" stroke="#bc0000" stroke-width="1" stroke-linecap="round"/><path d="M201.61458,191.86915l3,-0.66667l1.16667,0.83333" data-paper-data="{&quot;index&quot;:null}" fill="none" stroke="#bc0000" stroke-width="1" stroke-linecap="round"/><path d="M279.61458,197.53581l0.16667,-2.16667l3,-0.83333" data-paper-data="{&quot;index&quot;:null}" fill="none" stroke="#bc0000" stroke-width="1" stroke-linecap="round"/><path d="M206.63388,223.53278c0.88388,0.88388 0,1.76777 0,1.76777l-1.06488,1.06043c-3.55153,2.60146 -10.43772,4.4557 -14.82297,2.78122c-1.23236,-0.47057 -2.13404,-1.64042 -3.39131,-2.03969c0,0 -1.18585,-0.39528 -0.79057,-1.58114c0.39528,-1.18585 1.58114,-0.79057 1.58114,-0.79057c1.28693,0.44445 2.25092,1.57309 3.51303,2.08379c3.34969,1.35542 9.59848,-0.2714 12.27268,-2.34225l0.93512,-0.93957c0,0 0.88388,-0.88388 1.76777,0z" data-paper-data="{&quot;index&quot;:null}" fill="#000000" stroke="none" stroke-width="0.5" stroke-linecap="butt"/><path d="M220.36803,226.35765c0.55902,1.11803 -0.55902,1.67705 -0.55902,1.67705l-1.86219,0.59464c-0.88106,-0.29868 -2.03103,-0.19551 -2.64319,-0.89604c-1.04414,-1.19487 -0.29249,-3.26537 -1.09931,-4.63175c-0.66234,-1.1217 -1.9645,-1.71143 -2.9323,-2.58336c-3.97688,-3.58294 -9.548,-5.47882 -14.48627,-7.44093c0,0 -1.1606,-0.46424 -0.69636,-1.62483c0.46424,-1.1606 1.62483,-0.69636 1.62483,-0.69636c5.2309,2.10511 11.00404,4.1042 15.2302,7.90389c1.12687,1.01315 2.58465,1.76466 3.35123,3.07182c1.27992,2.18251 -0.11517,4.29041 2.2575,4.47221l0.13781,-0.40536c0,0 1.11803,-0.55902 1.67705,0.55902z" data-paper-data="{&quot;index&quot;:null}" fill="#000000" stroke="none" stroke-width="0.5" stroke-linecap="butt"/><path d="M244.97573,229.66181c-0.24515,1.22573 -1.47087,0.98058 -1.47087,0.98058l-0.04855,-0.00971c-4.02775,-0.81357 -8.67072,0.23428 -12.52039,-1.26663c-3.74249,-1.45912 -6.89916,-4.82229 -10.32903,-6.87752c0,0 -1.07187,-0.64312 -0.42875,-1.71499c0.64312,-1.07187 1.71499,-0.42875 1.71499,-0.42875c3.29884,1.98178 6.37401,5.26731 9.95843,6.69496c3.59174,1.43057 8.2904,0.38749 12.09505,1.14147l0.04855,0.00971c0,0 1.22573,0.24515 0.98058,1.47087z" data-paper-data="{&quot;index&quot;:null}" fill="#000000" stroke="none" stroke-width="0.5" stroke-linecap="butt"/><path d="M280.98518,228.10856c-0.19189,1.23518 -1.42708,1.04329 -1.42708,1.04329l-1.20844,-0.18774c-2.35869,-0.37375 -3.06735,-0.28612 -5.2437,-1.47613c-1.14422,-0.62565 -1.79076,-1.98987 -2.97011,-2.54645c-3.29742,-1.55618 -8.36255,-0.77486 -11.88585,-0.77486c0,0 -1.25,0 -1.25,-1.25c0,-1.25 1.25,-1.25 1.25,-1.25c3.9559,0 9.25319,-0.73202 12.95285,1.01399c1.25326,0.59146 1.97856,1.99388 3.19119,2.66469c1.6634,0.92017 2.47063,0.86456 4.33941,1.14839l1.20844,0.18774c0,0 1.23518,0.19189 1.04329,1.42708z" data-paper-data="{&quot;index&quot;:null}" fill="#000000" stroke="none" stroke-width="0.5" stroke-linecap="butt"/><path d="M297.98979,227.07613c-0.15946,1.23979 -1.39925,1.08033 -1.39925,1.08033l-1.74751,-0.23068c-5.19085,-1.7192 -9.95228,-2.57194 -14.73615,-5.43724c0,0 -1.07187,-0.64312 -0.42875,-1.71499c0.64312,-1.07187 1.71499,-0.42875 1.71499,-0.42875c4.55438,2.73769 9.06034,3.48371 14.00727,5.1439l1.50907,0.18818c0,0 1.23979,0.15946 1.08033,1.39925z" data-paper-data="{&quot;index&quot;:null}" fill="#000000" stroke="none" stroke-width="0.5" stroke-linecap="butt"/><path d="M243.93585,203.81195c-0.39528,1.18585 -1.58114,0.79057 -1.58114,0.79057l-1.3272,-0.45581c-5.49197,-0.1532 -10.60046,-2.30415 -16.1613,-1.98546c-2.08419,0.11945 -3.94775,0.99598 -6.11622,1.00541c0,0 -1.25,0 -1.25,-1.25c0,-1.25 1.25,-1.25 1.25,-1.25c2.10204,0.01066 3.84797,-0.86548 5.88378,-0.99459c5.78028,-0.36658 11.1425,1.77013 16.8387,2.01454l1.6728,0.54419c0,0 1.18585,0.39528 0.79057,1.58114z" data-paper-data="{&quot;index&quot;:null}" fill="#000000" stroke="none" stroke-width="0.5" stroke-linecap="butt"/><path d="M260.14177,218.99487c-0.57821,-1.10823 0.53002,-1.68644 0.53002,-1.68644l1.58803,-0.69047c0.81051,-4.95327 -7.3494,-9.27503 -10.39371,-12.31742c0,0 -0.88388,-0.88388 0,-1.76777c0.88388,-0.88388 1.76777,0 1.76777,0c2.66804,2.66979 6.12608,4.7296 8.56043,7.56488c0.73113,0.85155 2.70174,3.43369 2.79462,4.65309c0.08724,1.14521 -0.48623,2.24501 -0.72934,3.36752l-2.43139,1.40663c0,0 -1.10823,0.57821 -1.68644,-0.53002z" data-paper-data="{&quot;index&quot;:null}" fill="#000000" stroke="none" stroke-width="0.5" stroke-linecap="butt"/><path d="M230.97884,216.1369c-0.21366,-0.04748 -0.3816,-0.12406 -0.51327,-0.21809c0.02868,0.32684 0.04492,0.66144 0.03444,0.99786c-0.0152,0.48767 -0.36879,1.03682 -0.12337,1.45851c0.33829,0.58127 1.13345,0.73073 1.64891,1.16271c2.91753,2.445 6.07133,4.12102 9.80811,5.08512c1.03001,0.26574 4.42702,0.25557 4.7615,-1.1847c0.3374,-1.45285 -0.14498,-3.07035 0.40691,-4.456c0.34116,-0.85655 1.02929,-1.52998 1.54394,-2.29497c0.39476,-0.42986 1.0966,-0.71259 1.18427,-1.28959c0.05464,-0.35961 -0.62333,-0.38303 -0.89305,-0.62708c-1.92525,-1.74202 -3.36197,-2.07291 -5.64714,-3.23643c-1.47946,-0.75328 -7.36986,-4.44472 -9.00298,-2.29033c-0.32227,0.42513 -0.54186,0.91028 -0.70601,1.41915c0.01228,0.07823 0.01891,0.1626 0.01891,0.2536c0,0.4003 -0.12819,0.6724 -0.30247,0.85737c-0.09601,0.46134 -0.17516,0.921 -0.26963,1.35426l-0.45767,2.05953c0,0 -0.27116,1.22023 -1.4914,0.94907zM231.19163,209.61702c0.24515,-0.72657 0.58556,-1.41718 1.12128,-2.02761c3.02355,-3.44521 8.97055,0.16399 11.99702,1.70967c2.4899,1.27164 4.4171,1.51017 6.35286,3.76357c0.58242,0.67799 1.57172,1.28526 1.56262,2.17901c-0.01113,1.09288 -1.07592,1.90275 -1.61389,2.85412c-1.75289,2.47449 -0.70293,6.11619 -3.13062,7.83494c-5.11742,3.62301 -13.22006,-0.99591 -17.10209,-4.5118c-0.73837,-0.66873 -1.79005,-1.07996 -2.25543,-1.96076c-0.39623,-0.74992 -0.10262,-1.69358 -0.12337,-2.54149c-0.05573,-2.27734 -0.96915,-5.98616 1.77165,-7.15485c0.44188,-0.18842 0.92808,-0.17929 1.41998,-0.14479zM230.45776,212.71954c-0.16445,0.25657 -0.21914,0.59015 -0.21744,0.97846z" data-paper-data="{&quot;index&quot;:null}" fill="#282828" stroke="none" stroke-width="0.5" stroke-linecap="butt"/><path d="M224,211.00348c-0.04264,-0.40758 0.08746,-0.69395 0.26695,-0.89273c0.16062,-0.21619 0.41787,-0.40077 0.8299,-0.43747c5.36979,-1.06135 8.32742,-7.0771 13.91411,-7.98355c0.12308,-0.01997 3.94914,-0.06768 4.21739,0.07208c2.35522,1.2271 3.53343,4.16501 5.75253,5.6408c1.69935,1.13013 2.91655,0.87404 4.28316,2.78316c1.5647,2.18584 1.19292,5.5827 1.21635,8.08546c0.00284,1.52609 0.27072,3.05403 -0.73702,4.40417c-0.6467,0.86643 -1.85042,1.1902 -2.52671,2.03374c-1.98195,2.47213 -3.37519,6.24121 -7.35442,6.45246c-4.45583,0.23655 -8.82511,-2.5641 -12.11385,-4.99949c-2.12646,-1.57469 -5.65747,-1.43749 -7.06172,-3.5883c-1.28335,-1.96563 -0.68669,-4.9666 -0.68669,-7.15716c0,-1.33333 0,-2.66667 0,-4zM226.5,211.86869c0,1.18266 0,2.36532 0,3.54798c0,1.7462 -0.47688,4.20261 0.31331,5.84284c0.19751,0.40997 3.78373,1.48451 4.04951,1.6234c4.05504,2.11909 7.7173,5.84743 12.77492,5.78881c3.11453,-0.0361 4.17467,-3.70608 5.64558,-5.54754c0.65732,-0.82292 1.76808,-1.184 2.47329,-1.96626c0.44888,-0.49792 0.22662,-2.71239 0.22389,-2.86379c-0.01631,-1.82329 0.43116,-5.03234 -0.74456,-6.64658c-0.67043,-0.92049 -2.89317,-1.66649 -3.71684,-2.21684c-3.04924,-2.0374 -3.92692,-5.90814 -8.03007,-5.28712c-5.09942,0.7718 -8.14737,6.10846 -12.98904,7.72509z" data-paper-data="{&quot;index&quot;:null}" fill="#141414" stroke="none" stroke-width="0.5" stroke-linecap="butt"/></g></g></svg>