<svg version="1.1" xmlns="http://www.w3.org/2000/svg" xmlns:xlink="http://www.w3.org/1999/xlink" width="41.55556" height="41.70085" viewBox="0,0,41.55556,41.70085"><defs><radialGradient cx="243.60047" cy="182.30496" r="14.98524" gradientUnits="userSpaceOnUse" id="color-1"><stop offset="0" stop-color="#7f7f7f"/><stop offset="1" stop-color="#7f7f7f" stop-opacity="0"/></radialGradient><radialGradient cx="240.59953" cy="179.64504" r="14.98524" gradientUnits="userSpaceOnUse" id="color-2"><stop offset="0" stop-color="#6b6b6b"/><stop offset="1" stop-color="#6b6b6b" stop-opacity="0"/></radialGradient><radialGradient cx="241.57386" cy="181.78857" r="9.9382" gradientUnits="userSpaceOnUse" id="color-3"><stop offset="0" stop-color="#7f7f7f"/><stop offset="1" stop-color="#7f7f7f" stop-opacity="0"/></radialGradient><radialGradient cx="247.22499" cy="181.20397" r="9.93819" gradientUnits="userSpaceOnUse" id="color-4"><stop offset="0" stop-color="#909090"/><stop offset="1" stop-color="#909090" stop-opacity="0"/></radialGradient><radialGradient cx="240.20979" cy="177.69637" r="9.9382" gradientUnits="userSpaceOnUse" id="color-5"><stop offset="0" stop-color="#929292"/><stop offset="1" stop-color="#929292" stop-opacity="0"/></radialGradient><radialGradient cx="238.84573" cy="185.6859" r="9.9382" gradientUnits="userSpaceOnUse" id="color-6"><stop offset="0" stop-color="#7f7f7f"/><stop offset="1" stop-color="#7f7f7f" stop-opacity="0"/></radialGradient><radialGradient cx="235.2" cy="177.35" r="10.98572" gradientUnits="userSpaceOnUse" id="color-7"><stop offset="0" stop-color="#7f7f7f"/><stop offset="1" stop-color="#7f7f7f" stop-opacity="0"/></radialGradient><radialGradient cx="233" cy="175.4" r="10.98572" gradientUnits="userSpaceOnUse" id="color-8"><stop offset="0" stop-color="#6b6b6b"/><stop offset="1" stop-color="#6b6b6b" stop-opacity="0"/></radialGradient><radialGradient cx="233.71429" cy="176.97143" r="7.28572" gradientUnits="userSpaceOnUse" id="color-9"><stop offset="0" stop-color="#7f7f7f"/><stop offset="1" stop-color="#7f7f7f" stop-opacity="0"/></radialGradient><radialGradient cx="237.85715" cy="176.54286" r="7.28571" gradientUnits="userSpaceOnUse" id="color-10"><stop offset="0" stop-color="#909090"/><stop offset="1" stop-color="#909090" stop-opacity="0"/></radialGradient><radialGradient cx="232.71429" cy="173.97143" r="7.28572" gradientUnits="userSpaceOnUse" id="color-11"><stop offset="0" stop-color="#929292"/><stop offset="1" stop-color="#929292" stop-opacity="0"/></radialGradient><radialGradient cx="231.71429" cy="179.82857" r="7.28572" gradientUnits="userSpaceOnUse" id="color-12"><stop offset="0" stop-color="#7f7f7f"/><stop offset="1" stop-color="#7f7f7f" stop-opacity="0"/></radialGradient></defs><g transform="translate(-219.22222,-159.14962)"><g data-paper-data="{&quot;isPaintingLayer&quot;:true}" fill-rule="nonzero" stroke="none" stroke-width="0" stroke-linecap="butt" stroke-linejoin="miter" stroke-miterlimit="10" stroke-dasharray="" stroke-dashoffset="0" style="mix-blend-mode: normal"><path d="M219.22222,200.85047v-41.70085h41.55556v41.70085z" fill="none"/><g><path d="M228.61523,182.30496c0,-8.27612 6.70913,-14.98524 14.98524,-14.98524c8.27612,0 14.98524,6.70913 14.98524,14.98524c0,8.27612 -6.70913,14.98524 -14.98524,14.98524c-8.27612,0 -14.98524,-6.70913 -14.98524,-14.98524z" fill="url(#color-1)"/><path d="M225.61429,179.64504c0,-8.27612 6.70913,-14.98524 14.98524,-14.98524c8.27612,0 14.98524,6.70913 14.98524,14.98524c0,8.27612 -6.70913,14.98524 -14.98524,14.98524c-8.27612,0 -14.98524,-6.70913 -14.98524,-14.98524z" fill="url(#color-2)"/><path d="M231.66066,182.49293c-0.389,-5.47491 3.73393,-10.22856 9.20884,-10.61756c5.47491,-0.389 10.22856,3.73393 10.61756,9.20884c0.389,5.47491 -3.73393,10.22856 -9.20884,10.61756c-5.47491,0.389 -10.22856,-3.73393 -10.61756,-9.20884z" fill="url(#color-3)"/><path d="M237.2868,181.20397c0,-5.48872 4.44948,-9.93819 9.9382,-9.93819c5.48872,0 9.93819,4.44947 9.93819,9.93819c0,5.48872 -4.44947,9.9382 -9.93819,9.9382c-5.48872,0 -9.9382,-4.44948 -9.9382,-9.9382z" fill="url(#color-4)"/><path d="M230.29659,178.40073c-0.389,-5.47491 3.73393,-10.22856 9.20884,-10.61756c5.47491,-0.389 10.22856,3.73393 10.61756,9.20884c0.389,5.47491 -3.73393,10.22856 -9.20884,10.61756c-5.47491,0.389 -10.22856,-3.73393 -10.61756,-9.20884z" fill="url(#color-5)"/><path d="M228.90753,185.6859c0,-5.48872 4.44948,-9.9382 9.9382,-9.9382c5.48872,0 9.9382,4.44948 9.9382,9.9382c0,5.48872 -4.44948,9.9382 -9.9382,9.9382c-5.48872,0 -9.9382,-4.44948 -9.9382,-9.9382z" fill="url(#color-6)"/></g><g><path d="M224.21429,177.35c0,-6.06724 4.91848,-10.98571 10.98572,-10.98571c6.06724,0 10.98572,4.91848 10.98572,10.98572c0,6.06724 -4.91848,10.98572 -10.98571,10.98572c-6.06724,0 -10.98571,-4.91848 -10.98571,-10.98571z" fill="url(#color-7)"/><path d="M222.01429,175.4c0,-6.06724 4.91848,-10.98571 10.98572,-10.98571c6.06724,0 10.98572,4.91848 10.98572,10.98572c0,6.06724 -4.91848,10.98572 -10.98571,10.98572c-6.06724,0 -10.98571,-4.91848 -10.98571,-10.98571z" fill="url(#color-8)"/><path d="M226.4469,177.4878c-0.28518,-4.01367 2.73736,-7.49858 6.75102,-7.78376c4.01367,-0.28518 7.49858,2.73736 7.78376,6.75102c0.28518,4.01367 -2.73736,7.49858 -6.75102,7.78376c-4.01367,0.28518 -7.49858,-2.73736 -7.78376,-6.75102z" fill="url(#color-9)"/><path d="M230.57143,176.54286c0,-4.02379 3.26193,-7.28571 7.28572,-7.28571c4.02379,0 7.28571,3.26192 7.28571,7.28571c0,4.02379 -3.26192,7.28572 -7.28571,7.28572c-4.02379,0 -7.28572,-3.26193 -7.28572,-7.28572z" fill="url(#color-10)"/><path d="M225.4469,174.4878c-0.28518,-4.01367 2.73736,-7.49858 6.75102,-7.78376c4.01367,-0.28518 7.49858,2.73736 7.78376,6.75102c0.28518,4.01367 -2.73736,7.49858 -6.75102,7.78376c-4.01367,0.28518 -7.49858,-2.73736 -7.78376,-6.75102z" fill="url(#color-11)"/><path d="M224.42857,179.82857c0,-4.02379 3.26192,-7.28572 7.28571,-7.28572c4.02379,0 7.28572,3.26193 7.28572,7.28572c0,4.02379 -3.26193,7.28571 -7.28572,7.28571c-4.02379,0 -7.28571,-3.26192 -7.28571,-7.28571z" fill="url(#color-12)"/></g></g></g></svg>