<svg version="1.1" xmlns="http://www.w3.org/2000/svg" xmlns:xlink="http://www.w3.org/1999/xlink" width="72.02412" height="76.19354" viewBox="0,0,72.02412,76.19354"><defs><linearGradient x1="240.24394" y1="242.31098" x2="239.80092" y2="136.42682" gradientUnits="userSpaceOnUse" id="color-1"><stop offset="0" stop-color="#24ffff"/><stop offset="1" stop-color="#24ffff" stop-opacity="0"/></linearGradient><radialGradient cx="240.15242" cy="178.66808" r="23.17473" gradientUnits="userSpaceOnUse" id="color-2"><stop offset="0" stop-color="#24ffff"/><stop offset="1" stop-color="#24ffff" stop-opacity="0"/></radialGradient><linearGradient x1="275.63101" y1="235.35689" x2="219.07042" y2="145.84402" gradientUnits="userSpaceOnUse" id="color-3"><stop offset="0" stop-color="#24ffff"/><stop offset="1" stop-color="#24ffff" stop-opacity="0"/></linearGradient><linearGradient x1="176.22118" y1="156.65494" x2="276.21134" y2="191.49202" gradientUnits="userSpaceOnUse" id="color-4"><stop offset="0" stop-color="#24ffff"/><stop offset="1" stop-color="#24ffff" stop-opacity="0"/></linearGradient><linearGradient x1="194.31977" y1="129.87885" x2="263.97136" y2="209.63039" gradientUnits="userSpaceOnUse" id="color-5"><stop offset="0" stop-color="#24ffff"/><stop offset="1" stop-color="#24ffff" stop-opacity="0"/></linearGradient><linearGradient x1="302.30861" y1="150.37884" x2="207.70161" y2="197.93055" gradientUnits="userSpaceOnUse" id="color-6"><stop offset="0" stop-color="#24ffff"/><stop offset="1" stop-color="#24ffff" stop-opacity="0"/></linearGradient></defs><g transform="translate(-205.67323,-136.40791)"><g data-paper-data="{&quot;isPaintingLayer&quot;:true}" fill-rule="nonzero" stroke="none" stroke-linecap="butt" stroke-linejoin="miter" stroke-miterlimit="10" stroke-dasharray="" stroke-dashoffset="0" style="mix-blend-mode: normal"><path d="M244.31753,136.40792l-4.20075,44.6683l-4.83248,-44.63051z" fill="url(#color-1)" stroke-width="0"/><path d="M216.97769,178.66808c0,-12.79905 10.37568,-23.17473 23.17473,-23.17473c12.79905,0 23.17473,10.37568 23.17473,23.17473c0,12.79905 -10.37568,23.17473 -23.17473,23.17473c-12.79905,0 -23.17473,-10.37568 -23.17473,-23.17473z" fill="url(#color-2)" stroke-width="0.5"/><path d="M222.88871,143.43137l20.14167,40.09011l-27.77822,-35.2648z" fill="url(#color-3)" stroke-width="0"/><path d="M274.72532,195.75721l-40.63604,-19.07739l43.60808,10.54699z" data-paper-data="{&quot;index&quot;:null}" fill="url(#color-4)" stroke-width="0"/><path d="M260.56946,212.60146l-25.87206,-36.68613l32.67584,30.74398z" data-paper-data="{&quot;index&quot;:null}" fill="url(#color-5)" stroke-width="0"/><path d="M205.67324,193.89497l41.86495,-16.13165l-37.80819,24.20281z" data-paper-data="{&quot;index&quot;:null}" fill="url(#color-6)" stroke-width="0"/></g></g></svg>