<svg version="1.1" xmlns="http://www.w3.org/2000/svg" xmlns:xlink="http://www.w3.org/1999/xlink" width="263.66667" height="172.43768" viewBox="0,0,263.66667,172.43768"><defs><linearGradient x1="230.27502" y1="150.51833" x2="253.22934" y2="150.51833" gradientUnits="userSpaceOnUse" id="color-1"><stop offset="0" stop-color="#830000"/><stop offset="1" stop-color="#620000"/></linearGradient><linearGradient x1="233.60173" y1="164.19375" x2="249.68085" y2="164.19375" gradientUnits="userSpaceOnUse" id="color-2"><stop offset="0" stop-color="#830000"/><stop offset="1" stop-color="#620000"/></linearGradient><linearGradient x1="241.61355" y1="162.3578" x2="241.61355" y2="164.69968" gradientUnits="userSpaceOnUse" id="color-3"><stop offset="0" stop-color="#620000"/><stop offset="1" stop-color="#620000" stop-opacity="0"/></linearGradient><linearGradient x1="233.76805" y1="136.74179" x2="249.84719" y2="136.74179" gradientUnits="userSpaceOnUse" id="color-4"><stop offset="0" stop-color="#830000"/><stop offset="1" stop-color="#620000"/></linearGradient><linearGradient x1="241.77989" y1="138.5777" x2="241.77989" y2="136.23583" gradientUnits="userSpaceOnUse" id="color-5"><stop offset="0" stop-color="#620000"/><stop offset="1" stop-color="#620000" stop-opacity="0"/></linearGradient><radialGradient cx="239.54942" cy="217.87226" r="65.74662" gradientUnits="userSpaceOnUse" id="color-6"><stop offset="0" stop-color="#000000"/><stop offset="1" stop-color="#111111"/></radialGradient><linearGradient x1="323.41669" y1="203.67026" x2="313.08335" y2="203.67026" gradientUnits="userSpaceOnUse" id="color-7"><stop offset="0" stop-color="#000000" stop-opacity="0"/><stop offset="1" stop-color="#000000"/></linearGradient><linearGradient x1="317.08335" y1="181.00359" x2="312.68619" y2="181.00359" gradientUnits="userSpaceOnUse" id="color-8"><stop offset="0" stop-color="#000000" stop-opacity="0"/><stop offset="1" stop-color="#000000"/></linearGradient><linearGradient x1="156.58335" y1="201.67022" x2="166.91668" y2="201.67022" gradientUnits="userSpaceOnUse" id="color-9"><stop offset="0" stop-color="#000000" stop-opacity="0"/><stop offset="1" stop-color="#000000"/></linearGradient><linearGradient x1="162.91668" y1="179.00355" x2="167.31385" y2="179.00355" gradientUnits="userSpaceOnUse" id="color-10"><stop offset="0" stop-color="#000000" stop-opacity="0"/><stop offset="1" stop-color="#000000"/></linearGradient><linearGradient x1="239.25002" y1="120.47578" x2="239.25002" y2="143.14244" gradientUnits="userSpaceOnUse" id="color-11"><stop offset="0" stop-color="#0d0d0d"/><stop offset="1" stop-color="#060606"/></linearGradient><linearGradient x1="298.50002" y1="253.33689" x2="298.50002" y2="259.17024" gradientUnits="userSpaceOnUse" id="color-12"><stop offset="0" stop-color="#737373"/><stop offset="1" stop-color="#8d8d8d"/></linearGradient><linearGradient x1="298.52779" y1="253.12393" x2="298.52779" y2="257.67949" gradientUnits="userSpaceOnUse" id="color-13"><stop offset="0" stop-color="#737373"/><stop offset="1" stop-color="#8d8d8d"/></linearGradient><linearGradient x1="290.12502" y1="239.42024" x2="307.37502" y2="239.42024" gradientUnits="userSpaceOnUse" id="color-14"><stop offset="0" stop-color="#830000"/><stop offset="1" stop-color="#620000"/></linearGradient><linearGradient x1="292.62502" y1="252.55911" x2="304.70835" y2="252.55911" gradientUnits="userSpaceOnUse" id="color-15"><stop offset="0" stop-color="#830000"/><stop offset="1" stop-color="#620000"/></linearGradient><linearGradient x1="298.64585" y1="250.79524" x2="298.64585" y2="253.04524" gradientUnits="userSpaceOnUse" id="color-16"><stop offset="0" stop-color="#620000"/><stop offset="1" stop-color="#620000" stop-opacity="0"/></linearGradient><linearGradient x1="292.75002" y1="226.18411" x2="304.83335" y2="226.18411" gradientUnits="userSpaceOnUse" id="color-17"><stop offset="0" stop-color="#830000"/><stop offset="1" stop-color="#620000"/></linearGradient><linearGradient x1="298.77085" y1="227.94802" x2="298.77085" y2="225.69802" gradientUnits="userSpaceOnUse" id="color-18"><stop offset="0" stop-color="#620000"/><stop offset="1" stop-color="#620000" stop-opacity="0"/></linearGradient><linearGradient x1="321.88996" y1="256.24156" x2="294.18953" y2="261.58862" gradientUnits="userSpaceOnUse" id="color-19"><stop offset="0" stop-color="#c7c7c7"/><stop offset="1" stop-color="#c7c7c7" stop-opacity="0"/></linearGradient><linearGradient x1="309.30046" y1="264.80654" x2="288.0182" y2="257.88057" gradientUnits="userSpaceOnUse" id="color-20"><stop offset="0" stop-color="#c7c7c7"/><stop offset="1" stop-color="#c7c7c7" stop-opacity="0"/></linearGradient><linearGradient x1="124.95419" y1="209.93915" x2="1035.25882" y2="500.61256" gradientUnits="userSpaceOnUse" id="color-21"><stop offset="0" stop-color="#cacaca" stop-opacity="0"/><stop offset="1" stop-color="#cacaca"/></linearGradient><linearGradient x1="183.05135" y1="226.22644" x2="790.14796" y2="420.08122" gradientUnits="userSpaceOnUse" id="color-22"><stop offset="0" stop-color="#cacaca" stop-opacity="0"/><stop offset="1" stop-color="#cacaca"/></linearGradient><linearGradient x1="274.60437" y1="261.72612" x2="302.3048" y2="256.37906" gradientUnits="userSpaceOnUse" id="color-23"><stop offset="0" stop-color="#c7c7c7"/><stop offset="1" stop-color="#c7c7c7" stop-opacity="0"/></linearGradient><linearGradient x1="287.35548" y1="253.1054" x2="308.63774" y2="260.03137" gradientUnits="userSpaceOnUse" id="color-24"><stop offset="0" stop-color="#c7c7c7"/><stop offset="1" stop-color="#c7c7c7" stop-opacity="0"/></linearGradient><linearGradient x1="180.83335" y1="254.00355" x2="180.83335" y2="259.83689" gradientUnits="userSpaceOnUse" id="color-25"><stop offset="0" stop-color="#737373"/><stop offset="1" stop-color="#8d8d8d"/></linearGradient><linearGradient x1="180.86113" y1="253.7906" x2="180.86113" y2="258.34617" gradientUnits="userSpaceOnUse" id="color-26"><stop offset="0" stop-color="#737373"/><stop offset="1" stop-color="#8d8d8d"/></linearGradient><linearGradient x1="172.45835" y1="240.08689" x2="189.70835" y2="240.08689" gradientUnits="userSpaceOnUse" id="color-27"><stop offset="0" stop-color="#830000"/><stop offset="1" stop-color="#620000"/></linearGradient><linearGradient x1="174.95835" y1="253.22578" x2="187.04168" y2="253.22578" gradientUnits="userSpaceOnUse" id="color-28"><stop offset="0" stop-color="#830000"/><stop offset="1" stop-color="#620000"/></linearGradient><linearGradient x1="180.97918" y1="251.46189" x2="180.97918" y2="253.71189" gradientUnits="userSpaceOnUse" id="color-29"><stop offset="0" stop-color="#620000"/><stop offset="1" stop-color="#620000" stop-opacity="0"/></linearGradient><linearGradient x1="175.08335" y1="226.85078" x2="187.16668" y2="226.85078" gradientUnits="userSpaceOnUse" id="color-30"><stop offset="0" stop-color="#830000"/><stop offset="1" stop-color="#620000"/></linearGradient><linearGradient x1="181.10418" y1="228.61467" x2="181.10418" y2="226.36467" gradientUnits="userSpaceOnUse" id="color-31"><stop offset="0" stop-color="#620000"/><stop offset="1" stop-color="#620000" stop-opacity="0"/></linearGradient><linearGradient x1="204.22329" y1="256.90822" x2="176.52286" y2="262.2553" gradientUnits="userSpaceOnUse" id="color-32"><stop offset="0" stop-color="#c7c7c7"/><stop offset="1" stop-color="#c7c7c7" stop-opacity="0"/></linearGradient><linearGradient x1="191.63379" y1="265.47319" x2="170.35153" y2="258.54724" gradientUnits="userSpaceOnUse" id="color-33"><stop offset="0" stop-color="#c7c7c7"/><stop offset="1" stop-color="#c7c7c7" stop-opacity="0"/></linearGradient><linearGradient x1="7.28752" y1="210.6058" x2="917.59214" y2="501.27931" gradientUnits="userSpaceOnUse" id="color-34"><stop offset="0" stop-color="#cacaca" stop-opacity="0"/><stop offset="1" stop-color="#cacaca"/></linearGradient><linearGradient x1="65.38468" y1="226.89313" x2="672.4813" y2="420.74792" gradientUnits="userSpaceOnUse" id="color-35"><stop offset="0" stop-color="#cacaca" stop-opacity="0"/><stop offset="1" stop-color="#cacaca"/></linearGradient><linearGradient x1="156.9377" y1="262.39279" x2="184.63813" y2="257.04573" gradientUnits="userSpaceOnUse" id="color-36"><stop offset="0" stop-color="#c7c7c7"/><stop offset="1" stop-color="#c7c7c7" stop-opacity="0"/></linearGradient><linearGradient x1="169.68881" y1="253.77207" x2="190.97107" y2="260.69802" gradientUnits="userSpaceOnUse" id="color-37"><stop offset="0" stop-color="#c7c7c7"/><stop offset="1" stop-color="#c7c7c7" stop-opacity="0"/></linearGradient><radialGradient cx="240.83335" cy="202.00355" r="49.66667" gradientUnits="userSpaceOnUse" id="color-38"><stop offset="0" stop-color="#000000"/><stop offset="1" stop-color="#0a0a0a"/></radialGradient><linearGradient x1="240.25002" y1="163.45989" x2="240.25002" y2="225.45989" gradientUnits="userSpaceOnUse" id="color-39"><stop offset="0" stop-color="#ff0000"/><stop offset="1" stop-color="#db0000"/></linearGradient><radialGradient cx="239.58335" cy="229.69802" r="66.25" gradientUnits="userSpaceOnUse" id="color-40"><stop offset="0" stop-color="#000000"/><stop offset="1" stop-color="#121212"/></radialGradient><linearGradient x1="235.65523" y1="249.01052" x2="254.15523" y2="249.01052" gradientUnits="userSpaceOnUse" id="color-41"><stop offset="0" stop-color="#000000" stop-opacity="0"/><stop offset="1" stop-color="#000000"/></linearGradient><linearGradient x1="242.90523" y1="212.90633" x2="265.78023" y2="212.90633" gradientUnits="userSpaceOnUse" id="color-42"><stop offset="0" stop-color="#000000" stop-opacity="0"/><stop offset="1" stop-color="#000000"/></linearGradient><linearGradient x1="240.03023" y1="232.40633" x2="240.03023" y2="244.78133" gradientUnits="userSpaceOnUse" id="color-43"><stop offset="0" stop-color="#000000"/><stop offset="1" stop-color="#000000" stop-opacity="0"/></linearGradient><linearGradient x1="231.95835" y1="178.58689" x2="249.20835" y2="178.58689" gradientUnits="userSpaceOnUse" id="color-44"><stop offset="0" stop-color="#830000"/><stop offset="1" stop-color="#620000"/></linearGradient><linearGradient x1="234.45835" y1="191.72578" x2="246.54168" y2="191.72578" gradientUnits="userSpaceOnUse" id="color-45"><stop offset="0" stop-color="#830000"/><stop offset="1" stop-color="#620000"/></linearGradient><linearGradient x1="240.47918" y1="189.96189" x2="240.47918" y2="192.21189" gradientUnits="userSpaceOnUse" id="color-46"><stop offset="0" stop-color="#620000"/><stop offset="1" stop-color="#620000" stop-opacity="0"/></linearGradient><linearGradient x1="234.58335" y1="165.35078" x2="246.66668" y2="165.35078" gradientUnits="userSpaceOnUse" id="color-47"><stop offset="0" stop-color="#830000"/><stop offset="1" stop-color="#620000"/></linearGradient><linearGradient x1="240.60418" y1="167.11466" x2="240.60418" y2="164.86466" gradientUnits="userSpaceOnUse" id="color-48"><stop offset="0" stop-color="#620000"/><stop offset="1" stop-color="#620000" stop-opacity="0"/></linearGradient><linearGradient x1="173.00002" y1="201.75355" x2="197.16669" y2="201.75355" gradientUnits="userSpaceOnUse" id="color-49"><stop offset="0" stop-color="#db0000"/><stop offset="1" stop-color="#ff0000"/></linearGradient><linearGradient x1="285.16668" y1="202.08689" x2="309.33335" y2="202.08689" gradientUnits="userSpaceOnUse" id="color-50"><stop offset="0" stop-color="#ff0000"/><stop offset="1" stop-color="#db0000"/></linearGradient><linearGradient x1="304.33335" y1="177.448" x2="313.33335" y2="177.448" gradientUnits="userSpaceOnUse" id="color-51"><stop offset="0" stop-color="#6d0000"/><stop offset="1" stop-color="#4a0000"/></linearGradient><linearGradient x1="175.83335" y1="178.948" x2="166.83335" y2="178.948" gradientUnits="userSpaceOnUse" id="color-52"><stop offset="0" stop-color="#6d0000"/><stop offset="1" stop-color="#4a0000"/></linearGradient><linearGradient x1="311.67859" y1="94.18582" x2="307.9837" y2="140.32815" gradientUnits="userSpaceOnUse" id="color-53"><stop offset="0" stop-color="#ef0000"/><stop offset="1" stop-color="#830000"/></linearGradient><linearGradient x1="168.45577" y1="94.18582" x2="172.15067" y2="140.32815" gradientUnits="userSpaceOnUse" id="color-54"><stop offset="0" stop-color="#ef0000"/><stop offset="1" stop-color="#830000"/></linearGradient><linearGradient x1="251.20835" y1="151.93757" x2="259.82936" y2="151.93757" gradientUnits="userSpaceOnUse" id="color-55"><stop offset="0" stop-color="#830000"/><stop offset="1" stop-color="#620000"/></linearGradient><linearGradient x1="252.45777" y1="158.50399" x2="258.49664" y2="158.50399" gradientUnits="userSpaceOnUse" id="color-56"><stop offset="0" stop-color="#830000"/><stop offset="1" stop-color="#620000"/></linearGradient><linearGradient x1="255.46679" y1="157.62244" x2="255.46679" y2="158.74692" gradientUnits="userSpaceOnUse" id="color-57"><stop offset="0" stop-color="#620000"/><stop offset="1" stop-color="#620000" stop-opacity="0"/></linearGradient><linearGradient x1="252.52024" y1="145.32258" x2="258.55911" y2="145.32258" gradientUnits="userSpaceOnUse" id="color-58"><stop offset="0" stop-color="#830000"/><stop offset="1" stop-color="#620000"/></linearGradient><linearGradient x1="255.52927" y1="146.20412" x2="255.52927" y2="145.07964" gradientUnits="userSpaceOnUse" id="color-59"><stop offset="0" stop-color="#620000"/><stop offset="1" stop-color="#620000" stop-opacity="0"/></linearGradient><linearGradient x1="223.58335" y1="152.06257" x2="232.20436" y2="152.06257" gradientUnits="userSpaceOnUse" id="color-60"><stop offset="0" stop-color="#830000"/><stop offset="1" stop-color="#620000"/></linearGradient><linearGradient x1="224.83277" y1="158.62899" x2="230.87164" y2="158.62899" gradientUnits="userSpaceOnUse" id="color-61"><stop offset="0" stop-color="#830000"/><stop offset="1" stop-color="#620000"/></linearGradient><linearGradient x1="227.84179" y1="157.74744" x2="227.84179" y2="158.87192" gradientUnits="userSpaceOnUse" id="color-62"><stop offset="0" stop-color="#620000"/><stop offset="1" stop-color="#620000" stop-opacity="0"/></linearGradient><linearGradient x1="224.89524" y1="145.44758" x2="230.93411" y2="145.44758" gradientUnits="userSpaceOnUse" id="color-63"><stop offset="0" stop-color="#830000"/><stop offset="1" stop-color="#620000"/></linearGradient><linearGradient x1="227.90427" y1="146.32912" x2="227.90427" y2="145.20464" gradientUnits="userSpaceOnUse" id="color-64"><stop offset="0" stop-color="#620000"/><stop offset="1" stop-color="#620000" stop-opacity="0"/></linearGradient><linearGradient x1="291.31968" y1="133.616" x2="291.31968" y2="154.09801" gradientUnits="userSpaceOnUse" id="color-65"><stop offset="0" stop-color="#4d4d4d"/><stop offset="1" stop-color="#545454"/></linearGradient><linearGradient x1="291.44162" y1="117.598" x2="291.44162" y2="138.08001" gradientUnits="userSpaceOnUse" id="color-66"><stop offset="0" stop-color="#4d4d4d"/><stop offset="1" stop-color="#555555"/></linearGradient><linearGradient x1="189.31968" y1="132.21598" x2="189.31968" y2="152.69802" gradientUnits="userSpaceOnUse" id="color-67"><stop offset="0" stop-color="#4d4d4d"/><stop offset="1" stop-color="#545454"/></linearGradient><linearGradient x1="189.44163" y1="116.19801" x2="189.44163" y2="136.68003" gradientUnits="userSpaceOnUse" id="color-68"><stop offset="0" stop-color="#4d4d4d"/><stop offset="1" stop-color="#555555"/></linearGradient><linearGradient x1="235.87502" y1="119.71641" x2="247.82935" y2="119.71641" gradientUnits="userSpaceOnUse" id="color-69"><stop offset="0" stop-color="#830000"/><stop offset="1" stop-color="#620000"/></linearGradient><linearGradient x1="237.60753" y1="128.82176" x2="245.98134" y2="128.82176" gradientUnits="userSpaceOnUse" id="color-70"><stop offset="0" stop-color="#830000"/><stop offset="1" stop-color="#620000"/></linearGradient><linearGradient x1="241.77999" y1="127.59935" x2="241.77999" y2="129.15862" gradientUnits="userSpaceOnUse" id="color-71"><stop offset="0" stop-color="#620000"/><stop offset="1" stop-color="#620000" stop-opacity="0"/></linearGradient><linearGradient x1="237.69415" y1="110.54373" x2="246.06797" y2="110.54373" gradientUnits="userSpaceOnUse" id="color-72"><stop offset="0" stop-color="#830000"/><stop offset="1" stop-color="#620000"/></linearGradient><linearGradient x1="241.86662" y1="111.76611" x2="241.86662" y2="110.20685" gradientUnits="userSpaceOnUse" id="color-73"><stop offset="0" stop-color="#620000"/><stop offset="1" stop-color="#620000" stop-opacity="0"/></linearGradient><linearGradient x1="240.29168" y1="240.49132" x2="240.29168" y2="254.40829" gradientUnits="userSpaceOnUse" id="color-74"><stop offset="0" stop-color="#79b0ff"/><stop offset="1" stop-color="#98c3ff"/></linearGradient><linearGradient x1="240.29168" y1="240.49132" x2="240.29168" y2="254.40829" gradientUnits="userSpaceOnUse" id="color-75"><stop offset="0" stop-color="#6ea2ea"/><stop offset="1" stop-color="#8fb6ee"/></linearGradient><linearGradient x1="236.33334" y1="242.3355" x2="236.33334" y2="251.0855" gradientUnits="userSpaceOnUse" id="color-76"><stop offset="0" stop-color="#6ea2ea"/><stop offset="1" stop-color="#8fb6ee"/></linearGradient><linearGradient x1="240.39584" y1="242.5855" x2="240.39584" y2="253.3355" gradientUnits="userSpaceOnUse" id="color-77"><stop offset="0" stop-color="#6ea2ea"/><stop offset="1" stop-color="#8fb6ee"/></linearGradient><linearGradient x1="244.45834" y1="242.3355" x2="244.45834" y2="251.0855" gradientUnits="userSpaceOnUse" id="color-78"><stop offset="0" stop-color="#6ea2ea"/><stop offset="1" stop-color="#8fb6ee"/></linearGradient></defs><g transform="translate(-108.16668,-93.92699)"><g data-paper-data="{&quot;isPaintingLayer&quot;:true}" fill-rule="nonzero" stroke-linejoin="miter" stroke-miterlimit="10" stroke-dasharray="" stroke-dashoffset="0" style="mix-blend-mode: normal"><g data-paper-data="{&quot;index&quot;:null}" stroke="none" stroke-width="0" stroke-linecap="butt"><path d="M230.27502,162.48791v-23.93912h22.95434v23.93912z" fill="url(#color-1)"/><g><path d="M233.60173,166.07302v-3.75856h16.07912v3.75856z" fill="url(#color-2)"/><path d="M233.62943,164.69968v-2.34187h15.96823v2.34187z" fill="url(#color-3)"/></g><g data-paper-data="{&quot;index&quot;:null}"><path d="M249.84719,134.86253v3.75856h-16.07912v-3.75856z" fill="url(#color-4)"/><path d="M249.76401,136.23583v2.34187h-15.96825v-2.34187z" fill="url(#color-5)"/></g></g><path d="M173.8028,227.08244v-18.42039h131.49323v18.42039z" data-paper-data="{&quot;index&quot;:null}" fill="url(#color-6)" stroke="none" stroke-width="0" stroke-linecap="butt"/><g data-paper-data="{&quot;index&quot;:null}" stroke-width="0"><path d="M309.37693,174.41853l27.12308,-0.22051v6.39488l-24.03589,7.71794h-4.63077z" fill="#0d0d0d" stroke="#4d4d4d" stroke-linecap="round"/><path d="M310.33335,188.03135l61.5,-0.5v14.5l-54.5,17.5h-10.5z" fill="#0d0d0d" stroke="#4d4d4d" stroke-linecap="round"/><path d="M317.96438,210.65635l-0.08152,-18.75h8.72282l6.11413,5.625v13.125z" data-paper-data="{&quot;index&quot;:null}" fill="#0a0a0a" stroke="#000000" stroke-linecap="round"/><path d="M368.68316,190.23971l0.03665,8.43131h-3.9224l-2.74934,-2.5294v-5.90192z" data-paper-data="{&quot;index&quot;:null}" fill="#0a0a0a" stroke="#000000" stroke-linecap="round"/><path d="M315.76981,183.67102v-4.96859l2.31456,-2.12939h3.30211l-0.03086,7.09798z" data-paper-data="{&quot;index&quot;:null}" fill="#0a0a0a" stroke="#000000" stroke-linecap="round"/><path d="M323.41668,188.00359v30l-5,1.33333h-5.33333v-31.33333z" fill="url(#color-7)" stroke="none" stroke-linecap="butt"/><path d="M317.08335,174.3369v12.76596l-2.12766,0.56738h-2.2695v-13.33333z" fill="url(#color-8)" stroke="none" stroke-linecap="butt"/></g><g data-paper-data="{&quot;index&quot;:null}" stroke-width="0"><path d="M172.16669,186.31082h-4.63077l-24.0359,-7.71795v-6.39487l27.12308,0.22051z" fill="#0d0d0d" stroke="#4d4d4d" stroke-linecap="round"/><path d="M173.16668,217.53133h-10.5l-54.5,-17.5v-14.5l61.5,0.5z" fill="#0d0d0d" stroke="#4d4d4d" stroke-linecap="round"/><path d="M147.28022,208.65631v-13.125l6.11413,-5.625h8.72283l-0.08152,18.75z" data-paper-data="{&quot;index&quot;:null}" fill="#0a0a0a" stroke="#000000" stroke-linecap="round"/><path d="M117.95197,188.23966v5.90192l-2.74934,2.5294h-3.9224l0.03666,-8.43132z" data-paper-data="{&quot;index&quot;:null}" fill="#0a0a0a" stroke="#000000" stroke-linecap="round"/><path d="M158.64442,181.67098l-0.03086,-7.09798h3.30211l2.31456,2.12939v4.96859z" data-paper-data="{&quot;index&quot;:null}" fill="#0a0a0a" stroke="#000000" stroke-linecap="round"/><path d="M166.91668,186.00355v31.33333h-5.33333l-5,-1.33333v-30z" fill="url(#color-9)" stroke="none" stroke-linecap="butt"/><path d="M167.31384,172.33688v13.33333h-2.2695l-2.12766,-0.56738v-12.76596z" fill="url(#color-10)" stroke="none" stroke-linecap="butt"/></g><path d="M255.54764,142.29323v19" data-paper-data="{&quot;index&quot;:null}" fill="none" stroke="#000000" stroke-width="2.5" stroke-linecap="round"/><path d="M227.9643,142.54323v19" data-paper-data="{&quot;index&quot;:null}" fill="none" stroke="#000000" stroke-width="2.5" stroke-linecap="round"/><path d="M171.25002,143.14244v-22.66666h136v22.66666z" data-paper-data="{&quot;index&quot;:null}" fill="url(#color-11)" stroke="none" stroke-width="0" stroke-linecap="butt"/><g data-paper-data="{&quot;index&quot;:null}" stroke="none" stroke-width="0" stroke-linecap="butt"><path d="M297.83335,259.17024v-5.83333h1.33333v5.83333z" fill="url(#color-12)"/><path d="M297.36113,257.67949v-4.55556h2.33333v4.55556z" fill="url(#color-13)"/></g><path d="M290.12502,250.92024v-23h17.25v23z" data-paper-data="{&quot;index&quot;:null}" fill="url(#color-14)" stroke="none" stroke-width="0" stroke-linecap="butt"/><g data-paper-data="{&quot;index&quot;:null}" stroke="none" stroke-width="0" stroke-linecap="butt"><path d="M292.62502,254.36467v-3.61111h12.08333v3.61111z" fill="url(#color-15)"/><path d="M292.64585,253.04524v-2.25h12v2.25z" fill="url(#color-16)"/></g><g data-paper-data="{&quot;index&quot;:null}" stroke="none" stroke-width="0" stroke-linecap="butt"><path d="M304.83335,224.37855v3.61111h-12.08333v-3.61111z" fill="url(#color-17)"/><path d="M304.77085,225.69802v2.25h-12v-2.25z" fill="url(#color-18)"/></g><g data-paper-data="{&quot;index&quot;:null}" stroke="none" stroke-width="0" stroke-linecap="butt"><path d="M290.59296,260.44019l7.66553,-1.47969l7.19313,2.29687l-8.18811,1.28573z" data-paper-data="{&quot;index&quot;:null}" fill="url(#color-19)"/><path d="M292.67675,256.99823l5.88944,1.91662l-9.31712,1.76468l-5.10345,-2.04458z" data-paper-data="{&quot;index&quot;:null}" fill="url(#color-20)"/><g><path d="M287.49037,258.47837c0.76367,-1.59588 6.25877,-2.75802 13.07881,-2.53268c6.82004,0.22535 11.12696,1.63023 10.32507,3.30598c-0.80189,1.67575 -6.33609,2.74936 -13.11552,2.52535c-6.77943,-0.224 -11.05203,-1.70277 -10.28836,-3.29865z" fill="url(#color-21)"/><path d="M298.31078,260.79796c-4.52131,-0.14939 -7.37076,-1.13561 -6.86146,-2.19993c0.5093,-1.06432 4.17407,-1.83937 8.72247,-1.68908c4.54839,0.15028 7.42074,1.08724 6.88595,2.20481c-0.53479,1.11758 -4.22564,1.83359 -8.74695,1.6842z" fill="url(#color-22)"/><path d="M305.90136,257.5275l-7.66553,1.47969l-7.19313,-2.29687l8.18811,-1.28574z" fill="url(#color-23)"/><path d="M303.97918,260.91371l-5.88943,-1.91662l9.31711,-1.76469l5.10345,2.04458z" data-paper-data="{&quot;index&quot;:null}" fill="url(#color-24)"/></g></g><path d="M180.16668,259.83689v-5.83334h1.33334v5.83334z" data-paper-data="{&quot;index&quot;:null}" fill="url(#color-25)" stroke="none" stroke-width="0" stroke-linecap="butt"/><path d="M179.69446,258.34617v-4.55556h2.33334v4.55556z" data-paper-data="{&quot;index&quot;:null}" fill="url(#color-26)" stroke="none" stroke-width="0" stroke-linecap="butt"/><path d="M172.45835,251.58689v-23h17.25v23z" data-paper-data="{&quot;index&quot;:null}" fill="url(#color-27)" stroke="none" stroke-width="0" stroke-linecap="butt"/><g data-paper-data="{&quot;index&quot;:null}" stroke="none" stroke-width="0" stroke-linecap="butt"><path d="M174.95835,255.03133v-3.61111h12.08333v3.61111z" fill="url(#color-28)"/><path d="M174.97918,253.71189v-2.25h12v2.25z" fill="url(#color-29)"/></g><g data-paper-data="{&quot;index&quot;:null}" stroke="none" stroke-width="0" stroke-linecap="butt"><path d="M187.16668,225.04524v3.61111h-12.08333v-3.61111z" fill="url(#color-30)"/><path d="M187.10418,226.36467v2.25h-12v-2.25z" fill="url(#color-31)"/></g><path d="M172.92629,261.10684l7.66553,-1.47969l7.19313,2.29687l-8.18811,1.28573z" data-paper-data="{&quot;index&quot;:null}" fill="url(#color-32)" stroke="none" stroke-width="0" stroke-linecap="butt"/><path d="M175.01009,257.6649l5.88943,1.91662l-9.31712,1.76468l-5.10345,-2.04458z" data-paper-data="{&quot;index&quot;:null}" fill="url(#color-33)" stroke="none" stroke-width="0" stroke-linecap="butt"/><g data-paper-data="{&quot;index&quot;:null}" stroke="none" stroke-width="0" stroke-linecap="butt"><path d="M169.82371,259.14502c0.76368,-1.59588 6.25877,-2.75803 13.07881,-2.53268c6.82003,0.22535 11.12696,1.63024 10.32507,3.30598c-0.80189,1.67575 -6.33609,2.74936 -13.11553,2.52535c-6.77944,-0.224 -11.05202,-1.70277 -10.28835,-3.29865z" fill="url(#color-34)"/><path d="M180.64411,261.46464c-4.52131,-0.14939 -7.37077,-1.13561 -6.86146,-2.19993c0.50931,-1.06432 4.17407,-1.83937 8.72247,-1.68909c4.54839,0.15028 7.42074,1.08724 6.88595,2.20481c-0.5348,1.11758 -4.22565,1.83359 -8.74696,1.6842z" fill="url(#color-35)"/><path d="M188.2347,258.19415l-7.66553,1.4797l-7.19313,-2.29687l8.18811,-1.28574z" fill="url(#color-36)"/><path d="M186.31252,261.58036l-5.88943,-1.91662l9.31711,-1.76468l5.10344,2.04458z" data-paper-data="{&quot;index&quot;:null}" fill="url(#color-37)"/></g><path d="M191.16669,203.67024v-3.33333h99.33333v3.33333z" data-paper-data="{&quot;index&quot;:null}" fill="url(#color-38)" stroke="none" stroke-width="0" stroke-linecap="butt"/><path d="M206.95835,205.86467v-8h68v8z" data-paper-data="{&quot;index&quot;:null}" fill="#0a0a0a" stroke="none" stroke-width="0" stroke-linecap="butt"/><path d="M179.08335,225.45989l45.66667,-61.99999h33.66666l43,61.66667" data-paper-data="{&quot;index&quot;:null}" fill="none" stroke="url(#color-39)" stroke-width="5" stroke-linecap="round"/><path d="M173.33335,235.19802v-11h132.5v11z" data-paper-data="{&quot;index&quot;:null}" fill="url(#color-40)" stroke="none" stroke-width="0" stroke-linecap="butt"/><path d="M241.33335,210.53132l1,44.5" data-paper-data="{&quot;index&quot;:null}" fill="none" stroke="#000000" stroke-width="12.5" stroke-linecap="round"/><path d="M263.20835,229.61467l-11.75,0.2l0.2,21.05l-7.45,13h-7.25l-8.25,-12.25l-0.15,-21.6l-10.6,0.2l-0.2,-34.4l14,-0.2l8.4,-7.2l8.6,7.2h14.2z" data-paper-data="{&quot;index&quot;:null}" fill="#0d0d0d" stroke="#0d0d0d" stroke-width="5" stroke-linecap="round"/><path d="M234.15523,232.57302h20v18.75l-8.625,14.625l-9.875,0.125z" data-paper-data="{&quot;index&quot;:null}" fill="url(#color-41)" stroke="#0d0d0d" stroke-width="0" stroke-linecap="round"/><path d="M242.90523,232.28133v-38.75h22.875v38.75z" data-paper-data="{&quot;index&quot;:null}" fill="url(#color-42)" stroke="none" stroke-width="0" stroke-linecap="butt"/><path d="M234.92805,234.90633v6.2125l-2.89402,2.6625h-4.1288l0.03858,-8.875z" data-paper-data="{&quot;index&quot;:null}" fill="#0a0a0a" stroke="#000000" stroke-width="0" stroke-linecap="round"/><path d="M226.03023,244.78133v-12.375h28v12.375z" data-paper-data="{&quot;index&quot;:null}" fill="url(#color-43)" stroke="none" stroke-width="0" stroke-linecap="butt"/><path d="M217.40523,230.15633l-0.125,-28.75h13.375l9.375,8.625v20.125z" data-paper-data="{&quot;index&quot;:null}" fill="#0a0a0a" stroke="#000000" stroke-width="0" stroke-linecap="round"/><path d="M231.95835,190.08689v-23h17.25v23z" fill="url(#color-44)" stroke="none" stroke-width="0" stroke-linecap="butt"/><g stroke="none" stroke-width="0" stroke-linecap="butt"><path d="M234.45835,193.53133v-3.61111h12.08333v3.61111z" fill="url(#color-45)"/><path d="M234.47918,192.21189v-2.25h12v2.25z" fill="url(#color-46)"/></g><g data-paper-data="{&quot;index&quot;:null}" stroke="none" stroke-width="0" stroke-linecap="butt"><path d="M246.66668,163.54522v3.61111h-12.08333v-3.61111z" fill="url(#color-47)"/><path d="M246.60418,164.86466v2.25h-12v-2.25z" fill="url(#color-48)"/></g><g fill="none" stroke="#ffffff" stroke-linecap="butt"><path d="M245.56394,179.24625c0,2.73872 -2.23023,4.9589 -4.98137,4.9589c-2.75114,0 -4.98137,-2.22018 -4.98137,-4.9589c0,-2.73872 2.23023,-4.9589 4.98137,-4.9589c2.75114,0 4.98137,2.22018 4.98137,4.9589z" stroke-width="1"/><g stroke-width="0.5"><path d="M241.64044,180.92157l-2.68537,-2.9677l0.33749,-0.30186l2.68537,2.9677z"/><path d="M238.99439,180.74683l-0.28403,-0.31389l3.16744,-2.86612l0.28403,0.31389z"/><path d="M238.13779,177.05854l-0.36518,-0.40357l0.37667,-0.34084l0.36518,0.40357z"/><path d="M242.82981,182.24386l-0.36518,-0.40358l0.37667,-0.34084l0.36518,0.40358z"/></g></g><path d="M173.00002,203.92024v-4.33333h24.16667v4.33333z" data-paper-data="{&quot;index&quot;:null}" fill="url(#color-49)" stroke="none" stroke-width="0" stroke-linecap="butt"/><path d="M285.16668,204.25355v-4.33333h24.16667v4.33333z" data-paper-data="{&quot;index&quot;:null}" fill="url(#color-50)" stroke="none" stroke-width="0" stroke-linecap="butt"/><path d="M304.33335,242.698v-130.5h9v130.5z" data-paper-data="{&quot;index&quot;:null}" fill="url(#color-51)" stroke="none" stroke-width="0" stroke-linecap="butt"/><path d="M166.83335,244.19802v-130.5h9v130.5z" data-paper-data="{&quot;index&quot;:null}" fill="url(#color-52)" stroke="none" stroke-width="0" stroke-linecap="butt"/><path d="M248.16668,215.58689c0,4.6484 -3.73096,8.41667 -8.33333,8.41667c-4.60237,0 -8.33333,-3.76827 -8.33333,-8.41667c0,-4.6484 3.73096,-8.41667 8.33333,-8.41667c4.60237,0 8.33333,3.76827 8.33333,8.41667z" data-paper-data="{&quot;index&quot;:null}" fill="#3d3d3d" stroke="#3e3e3e" stroke-width="1.5" stroke-linecap="butt"/><path d="M306.97358,115.12128l1.47282,-21.19429l6.46438,0.51764l-1.67787,20.95353l-4.69195,24.97462z" data-paper-data="{&quot;index&quot;:null}" fill="url(#color-53)" stroke="#000000" stroke-width="0" stroke-linecap="round"/><path d="M171.5934,140.3728l-4.69195,-24.97462l-1.67788,-20.95353l6.46438,-0.51764l1.47282,21.19429z" data-paper-data="{&quot;index&quot;:null}" fill="url(#color-54)" stroke="#000000" stroke-width="0" stroke-linecap="round"/><g data-paper-data="{&quot;index&quot;:null}" stroke="none" stroke-width="0" stroke-linecap="butt"><path d="M251.20835,157.68491v-11.49467h8.621v11.49468z" fill="url(#color-55)"/><g><path d="M252.45777,159.40633v-1.80472h6.03887v1.80472z" fill="url(#color-56)"/><path d="M252.46818,158.74692v-1.12448h5.99722v1.12448z" fill="url(#color-57)"/></g><g data-paper-data="{&quot;index&quot;:null}"><path d="M258.55911,144.42022v1.80472h-6.03887v-1.80472z" fill="url(#color-58)"/><path d="M258.52788,145.07964v1.12448h-5.99722v-1.12448z" fill="url(#color-59)"/></g></g><g data-paper-data="{&quot;index&quot;:null}" stroke="none" stroke-width="0" stroke-linecap="butt"><path d="M223.58335,157.80991v-11.49467h8.621v11.49468z" fill="url(#color-60)"/><g><path d="M224.83277,159.53133v-1.80472h6.03887v1.80472z" fill="url(#color-61)"/><path d="M224.84318,158.87192v-1.12448h5.99722v1.12448z" fill="url(#color-62)"/></g><g data-paper-data="{&quot;index&quot;:null}"><path d="M230.93411,144.54522v1.80472h-6.03887v-1.80472z" fill="url(#color-63)"/><path d="M230.90288,145.20464v1.12448h-5.99722v-1.12448z" fill="url(#color-64)"/></g></g><g data-paper-data="{&quot;index&quot;:null}" stroke="#4d4d4d" stroke-width="1.5" stroke-linecap="butt"><path d="M288.75889,154.09801v-20.48201h5.12158v20.48201z" fill="url(#color-65)"/><path d="M287.78335,138.08001v-20.48201h7.31655v20.48201z" fill="url(#color-66)"/></g><g data-paper-data="{&quot;index&quot;:null}" stroke="#4d4d4d" stroke-width="1.5" stroke-linecap="butt"><path d="M186.75889,152.69802v-20.48201h5.12158v20.48201z" fill="url(#color-67)"/><path d="M185.78335,136.68003v-20.48201h7.31655v20.48201z" fill="url(#color-68)"/></g><path d="M336.83335,200.69105c0,3.4863 -2.79822,6.3125 -6.25,6.3125c-3.45178,0 -6.25,-2.8262 -6.25,-6.3125c0,-3.4863 2.79822,-6.3125 6.25,-6.3125c3.45178,0 6.25,2.8262 6.25,6.3125z" data-paper-data="{&quot;index&quot;:null}" fill="#3d3d3d" stroke="#3e3e3e" stroke-width="1.5" stroke-linecap="butt"/><path d="M157.50002,199.69105c0,3.4863 -2.79823,6.3125 -6.25,6.3125c-3.45178,0 -6.25,-2.8262 -6.25,-6.3125c0,-3.4863 2.79822,-6.3125 6.25,-6.3125c3.45177,0 6.25,2.8262 6.25,6.3125z" data-paper-data="{&quot;index&quot;:null}" fill="#3d3d3d" stroke="#3e3e3e" stroke-width="1.5" stroke-linecap="butt"/><g data-paper-data="{&quot;index&quot;:null}" stroke="none" stroke-width="0" stroke-linecap="butt"><path d="M235.87502,127.68598v-15.93912h11.95434v15.93912z" fill="url(#color-69)"/><g><path d="M237.60753,130.07302v-2.50252h8.37381v2.50252z" fill="url(#color-70)"/><path d="M237.62196,129.15862v-1.55926h8.31606v1.55926z" fill="url(#color-71)"/></g><g data-paper-data="{&quot;index&quot;:null}"><path d="M246.06797,109.29248v2.50252h-8.37381v-2.50252z" fill="url(#color-72)"/><path d="M246.02465,110.20685v1.55926h-8.31607v-1.55926z" fill="url(#color-73)"/></g></g><path d="M238.76026,254.40829l-4.23542,-2.49844l-1.4588,-11.41853l7.37301,1.30591l7.07826,-1.21302l-1.16832,11.43219l-4.6989,2.37687z" data-paper-data="{&quot;index&quot;:null}" fill="url(#color-74)" stroke="url(#color-75)" stroke-width="1.5" stroke-linecap="round"/><path d="M235.52084,251.0855l1.625,-8.75" data-paper-data="{&quot;index&quot;:null}" fill="none" stroke="url(#color-76)" stroke-width="1" stroke-linecap="round"/><path d="M240.39584,253.3355v-10.75" data-paper-data="{&quot;index&quot;:null}" fill="none" stroke="url(#color-77)" stroke-width="1" stroke-linecap="round"/><path d="M245.39584,251.0855l-1.875,-8.75" data-paper-data="{&quot;index&quot;:null}" fill="none" stroke="url(#color-78)" stroke-width="1" stroke-linecap="round"/><path d="M245.89584,246.5855l-1.5,0.875l-4.375,0.75l-3.625,-0.75l-2,-1.125" data-paper-data="{&quot;index&quot;:null}" fill="none" stroke="#84afeb" stroke-width="1" stroke-linecap="round"/></g></g></svg>