<svg version="1.1" xmlns="http://www.w3.org/2000/svg" xmlns:xlink="http://www.w3.org/1999/xlink" width="131.07453" height="126.80003" viewBox="0,0,131.07453,126.80003"><defs><radialGradient cx="240.32767" cy="168.64341" r="6.89788" gradientUnits="userSpaceOnUse" id="color-1"><stop offset="0" stop-color="#04cefc"/><stop offset="1" stop-color="#04cefc" stop-opacity="0"/></radialGradient><linearGradient x1="310.02929" y1="164.32442" x2="209.80799" y2="163.89775" gradientUnits="userSpaceOnUse" id="color-2"><stop offset="0" stop-color="#00d8ff"/><stop offset="1" stop-color="#00d8ff" stop-opacity="0"/></linearGradient><radialGradient cx="235.34578" cy="168.65705" r="5.19083" gradientUnits="userSpaceOnUse" id="color-3"><stop offset="0" stop-color="#00d3ff"/><stop offset="1" stop-color="#00d3ff" stop-opacity="0"/></radialGradient><linearGradient x1="241.75663" y1="168.70159" x2="237.10269" y2="168.68177" gradientUnits="userSpaceOnUse" id="color-4"><stop offset="0" stop-color="#00f7ff"/><stop offset="1" stop-color="#0091ff"/></linearGradient><linearGradient x1="242.77657" y1="168.74607" x2="238.12264" y2="168.72625" gradientUnits="userSpaceOnUse" id="color-5"><stop offset="0" stop-color="#00f7ff"/><stop offset="1" stop-color="#0091ff"/></linearGradient><linearGradient x1="243.89383" y1="168.73222" x2="239.2398" y2="168.73753" gradientUnits="userSpaceOnUse" id="color-6"><stop offset="0" stop-color="#00f7ff"/><stop offset="1" stop-color="#0091ff"/></linearGradient><linearGradient x1="245.38793" y1="168.7372" x2="227.85753" y2="168.75714" gradientUnits="userSpaceOnUse" id="color-7"><stop offset="0" stop-color="#00d8ff"/><stop offset="1" stop-color="#00d8ff" stop-opacity="0"/></linearGradient><linearGradient x1="313.76355" y1="165.78613" x2="211.94571" y2="165.35265" gradientUnits="userSpaceOnUse" id="color-8"><stop offset="0" stop-color="#00d8ff"/><stop offset="1" stop-color="#00d8ff" stop-opacity="0"/></linearGradient><linearGradient x1="330.72037" y1="166.27369" x2="198.56895" y2="165.71108" gradientUnits="userSpaceOnUse" id="color-9"><stop offset="0" stop-color="#00d8ff"/><stop offset="1" stop-color="#00d8ff" stop-opacity="0"/></linearGradient><linearGradient x1="323.93741" y1="164.24075" x2="191.78602" y2="163.67813" gradientUnits="userSpaceOnUse" id="color-10"><stop offset="0" stop-color="#00d8ff"/><stop offset="1" stop-color="#00d8ff" stop-opacity="0"/></linearGradient><linearGradient x1="281.50188" y1="165.7239" x2="204.35939" y2="165.39548" gradientUnits="userSpaceOnUse" id="color-11"><stop offset="0" stop-color="#00d8ff"/><stop offset="1" stop-color="#00d8ff" stop-opacity="0"/></linearGradient><linearGradient x1="329.73397" y1="162.59536" x2="197.58259" y2="162.03274" gradientUnits="userSpaceOnUse" id="color-12"><stop offset="0" stop-color="#00d8ff"/><stop offset="1" stop-color="#00d8ff" stop-opacity="0"/></linearGradient><linearGradient x1="283.60877" y1="181.07859" x2="208.83719" y2="162.09748" gradientUnits="userSpaceOnUse" id="color-13"><stop offset="0" stop-color="#00d8ff"/><stop offset="1" stop-color="#00d8ff" stop-opacity="0"/></linearGradient><linearGradient x1="285.18259" y1="164.18086" x2="208.04013" y2="163.85243" gradientUnits="userSpaceOnUse" id="color-14"><stop offset="0" stop-color="#00d8ff"/><stop offset="1" stop-color="#00d8ff" stop-opacity="0"/></linearGradient><linearGradient x1="279.38368" y1="166.38291" x2="202.24119" y2="166.0545" gradientUnits="userSpaceOnUse" id="color-15"><stop offset="0" stop-color="#00d8ff"/><stop offset="1" stop-color="#00d8ff" stop-opacity="0"/></linearGradient><linearGradient x1="278.83078" y1="165.48986" x2="201.68831" y2="165.16144" gradientUnits="userSpaceOnUse" id="color-16"><stop offset="0" stop-color="#00d8ff"/><stop offset="1" stop-color="#00d8ff" stop-opacity="0"/></linearGradient><linearGradient x1="275.79156" y1="159.07188" x2="226.1535" y2="158.86057" gradientUnits="userSpaceOnUse" id="color-17"><stop offset="0" stop-color="#00d8ff"/><stop offset="1" stop-color="#00d8ff" stop-opacity="0"/></linearGradient><linearGradient x1="252.19074" y1="174.68602" x2="218.73178" y2="174.54357" gradientUnits="userSpaceOnUse" id="color-18"><stop offset="0" stop-color="#00d8ff"/><stop offset="1" stop-color="#00d8ff" stop-opacity="0"/></linearGradient><linearGradient x1="242.75753" y1="167.52024" x2="209.29857" y2="167.3778" gradientUnits="userSpaceOnUse" id="color-19"><stop offset="0" stop-color="#00d8ff"/><stop offset="1" stop-color="#00d8ff" stop-opacity="0"/></linearGradient><linearGradient x1="245.54378" y1="166.86408" x2="212.08482" y2="166.72162" gradientUnits="userSpaceOnUse" id="color-20"><stop offset="0" stop-color="#00d8ff"/><stop offset="1" stop-color="#00d8ff" stop-opacity="0"/></linearGradient></defs><g transform="translate(-174.8662,-98.94291)"><g data-paper-data="{&quot;isPaintingLayer&quot;:true}" fill-rule="nonzero" stroke-linejoin="miter" stroke-miterlimit="10" stroke-dasharray="" stroke-dashoffset="0" style="mix-blend-mode: normal"><path d="M239.88316,165.68424c1.53723,0.00655 2.77809,1.25801 2.77154,2.79524c-0.00655,1.53723 -1.25802,2.77809 -2.79524,2.77154c-1.53723,-0.00655 -2.77809,-1.25801 -2.77154,-2.79524c0.00655,-1.53723 1.25802,-2.77809 2.79524,-2.77153z" fill="#00d8ff" stroke="none" stroke-width="0.5" stroke-linecap="butt"/><path d="M240.29832,175.54122c-3.80955,-0.01622 -6.88465,-3.11762 -6.86844,-6.92717c0.01622,-3.80955 3.11763,-6.88466 6.92718,-6.86845c3.80955,0.01622 6.88466,3.11763 6.86845,6.92718c-0.01622,3.80955 -3.11763,6.88466 -6.92718,6.86845z" fill="url(#color-1)" stroke="none" stroke-width="NaN" stroke-linecap="butt"/><path d="M239.36215,164.12272c1.73241,0.02433 3.5509,1.08846 3.49212,3.54929c-0.05726,2.39699 -1.83805,3.45417 -3.56561,3.4395c-1.92489,-0.01633 -3.35029,-1.60331 -3.32962,-3.56894c0.02068,-1.96563 1.78012,-3.44267 3.40312,-3.41985z" fill="url(#color-2)" stroke="none" stroke-width="0.5" stroke-linecap="butt"/><path d="M235.32369,173.84782c-2.8668,-0.0122 -5.18088,-2.34608 -5.16868,-5.21288c0.0122,-2.8668 2.34608,-5.18088 5.21288,-5.16868c2.8668,0.0122 5.18088,2.34608 5.16868,5.21288c-0.0122,2.8668 -2.34608,5.18088 -5.21288,5.16868z" fill="url(#color-3)" stroke="none" stroke-width="NaN" stroke-linecap="butt"/><path d="M237.10262,168.69432c0.00254,-1.20725 1.04643,-2.18711 2.33162,-2.18857c1.28517,-0.00147 2.32496,0.97603 2.32243,2.18328c-0.00254,1.20725 -1.04643,2.18711 -2.3316,2.18857c-1.28517,0.00147 -2.32497,-0.97602 -2.32243,-2.18328z" data-paper-data="{&quot;index&quot;:null}" fill="url(#color-4)" stroke="none" stroke-width="0" stroke-linecap="butt"/><path d="M238.12258,168.7388c0.00254,-1.20725 1.04644,-2.1871 2.33161,-2.18856c1.28517,-0.00147 2.32495,0.97603 2.32243,2.18328c-0.00254,1.20725 -1.04642,2.18711 -2.3316,2.18857c-1.28517,0.00147 -2.32498,-0.97603 -2.32244,-2.18328z" data-paper-data="{&quot;index&quot;:null}" fill="url(#color-5)" stroke="none" stroke-width="0" stroke-linecap="butt"/><path d="M241.56221,170.92079c-1.28517,0.00147 -2.32496,-0.97603 -2.32242,-2.18328c0.00254,-1.20725 1.04642,-2.1871 2.33161,-2.18856c1.28517,-0.00147 2.32498,0.97603 2.32244,2.18328c-0.00254,1.20725 -1.04643,2.18709 -2.3316,2.18856z" fill="url(#color-6)" stroke="none" stroke-width="0" stroke-linecap="butt"/><path d="M241.64448,172.25574c-0.72851,0.00082 -3.14824,0.17557 -5.34447,-0.15699c-1.97926,-0.29969 -4.58944,-0.48295 -6.18712,-1.06623c-1.65074,-0.60262 -2.25671,-1.61068 -2.25537,-2.24788c0.0013,-0.62209 0.61563,-1.75121 2.16182,-2.35108c1.64851,-0.63954 4.29666,-0.73978 6.40123,-1.06113c2.07184,-0.31635 4.54358,-0.13504 5.23865,-0.13583c2.06338,-0.00235 3.73278,1.56703 3.72871,3.5053c-0.00407,1.93827 -1.68005,3.51146 -3.74345,3.51381z" fill="url(#color-7)" stroke="none" stroke-width="0" stroke-linecap="butt"/><path d="M241.97069,165.5812c1.76002,0.02473 3.60745,1.10578 3.54774,3.60583c-0.05815,2.43518 -1.86732,3.5092 -3.62241,3.4943c-1.95555,-0.0166 -3.40367,-1.62888 -3.38265,-3.6258c0.02101,-1.99694 1.80847,-3.49748 3.45732,-3.47433z" fill="url(#color-8)" stroke="none" stroke-width="0.5" stroke-linecap="butt"/><path d="M237.53895,166.00774c2.28436,0.0321 4.68219,1.43523 4.60469,4.68009c-0.07548,3.16066 -2.42365,4.55465 -4.7016,4.53532c-2.53814,-0.02155 -4.41768,-2.11414 -4.39041,-4.706c0.02726,-2.59186 2.34725,-4.53947 4.48734,-4.5094z" fill="url(#color-9)" stroke="none" stroke-width="0.5" stroke-linecap="butt"/><path d="M230.75599,163.97478c2.28436,0.0321 4.68219,1.43523 4.60469,4.68009c-0.07548,3.16066 -2.42365,4.55465 -4.7016,4.53531c-2.53814,-0.02155 -4.41768,-2.11415 -4.39043,-4.706c0.02726,-2.59186 2.34726,-4.53947 4.48735,-4.5094z" fill="url(#color-10)" stroke="none" stroke-width="0.5" stroke-linecap="butt"/><path d="M227.10789,165.56865c1.33348,0.01873 2.73319,0.83781 2.68795,2.73198c-0.04406,1.84502 -1.41478,2.65874 -2.74453,2.64746c-1.48162,-0.01259 -2.57879,-1.23411 -2.56288,-2.74709c0.01593,-1.51298 1.37019,-2.64988 2.61946,-2.63234z" fill="url(#color-11)" stroke="none" stroke-width="0.5" stroke-linecap="butt"/><path d="M236.55257,162.32939c2.28436,0.0321 4.68218,1.43524 4.60468,4.68009c-0.07548,3.16066 -2.42365,4.55465 -4.70161,4.53531c-2.53814,-0.02155 -4.41768,-2.11414 -4.39042,-4.706c0.02727,-2.59186 2.34726,-4.53947 4.48734,-4.5094z" fill="url(#color-12)" stroke="none" stroke-width="0.5" stroke-linecap="butt"/><path d="M230.86804,167.76885c1.28934,0.34077 2.44932,1.47414 1.94718,3.30109c-0.48912,1.77955 -2.01596,2.2375 -3.30348,1.90486c-1.43456,-0.37063 -2.20363,-1.82133 -1.82217,-3.28551c0.38146,-1.46418 1.97056,-2.23969 3.17848,-1.92044z" fill="url(#color-13)" stroke="none" stroke-width="0.5" stroke-linecap="butt"/><path d="M230.78859,164.0256c1.33348,0.01873 2.7332,0.8378 2.68796,2.73197c-0.04406,1.84502 -1.41478,2.65875 -2.74453,2.64747c-1.48161,-0.01259 -2.57879,-1.23412 -2.56288,-2.7471c0.01593,-1.51298 1.3702,-2.64988 2.61946,-2.63233z" fill="url(#color-14)" stroke="none" stroke-width="0.5" stroke-linecap="butt"/><path d="M224.98965,166.22767c1.33348,0.01873 2.7332,0.83781 2.68797,2.73197c-0.04406,1.84502 -1.41478,2.65874 -2.74453,2.64746c-1.48161,-0.01259 -2.57879,-1.23412 -2.56289,-2.7471c0.01593,-1.51298 1.3702,-2.64988 2.61947,-2.63233z" fill="url(#color-15)" stroke="none" stroke-width="0.5" stroke-linecap="butt"/><path d="M224.43678,165.33462c1.33348,0.01873 2.7332,0.83781 2.68796,2.73197c-0.04406,1.84502 -1.41478,2.65874 -2.74453,2.64746c-1.48161,-0.01259 -2.57879,-1.23413 -2.56288,-2.74711c0.01593,-1.51298 1.3702,-2.64987 2.61946,-2.63233z" fill="url(#color-16)" stroke="none" stroke-width="0.5" stroke-linecap="butt"/><path d="M240.79123,158.97199c0.85804,0.01204 1.7587,0.53909 1.72959,1.75791c-0.02835,1.18719 -0.91035,1.71078 -1.766,1.70352c-0.95337,-0.00809 -1.65936,-0.79409 -1.64911,-1.76764c0.01024,-0.97353 0.88166,-1.70508 1.68551,-1.69379z" fill="url(#color-17)" stroke="none" stroke-width="0.5" stroke-linecap="butt"/><path d="M228.59844,174.61867c0.57836,0.00813 1.18547,0.36338 1.16584,1.18493c-0.01911,0.80023 -0.61363,1.15318 -1.19038,1.14828c-0.64261,-0.00546 -1.11849,-0.53527 -1.11159,-1.19149c0.0069,-0.65622 0.59429,-1.14934 1.13613,-1.14172z" fill="url(#color-18)" stroke="none" stroke-width="0.5" stroke-linecap="butt"/><path d="M219.16525,167.45291c0.57837,0.00813 1.18546,0.36339 1.16585,1.18494c-0.01911,0.80024 -0.61363,1.15318 -1.19038,1.14828c-0.64262,-0.00546 -1.11849,-0.53528 -1.11159,-1.1915c0.0069,-0.65623 0.59429,-1.14933 1.13614,-1.14172z" fill="url(#color-19)" stroke="none" stroke-width="0.5" stroke-linecap="butt"/><path d="M221.9515,166.79673c0.57837,0.00813 1.18548,0.36339 1.16586,1.18494c-0.01911,0.80023 -0.61363,1.15317 -1.19038,1.1483c-0.64262,-0.00546 -1.11849,-0.53528 -1.11159,-1.19151c0.0069,-0.65623 0.59429,-1.14934 1.13614,-1.14173z" fill="url(#color-20)" stroke="none" stroke-width="0.5" stroke-linecap="butt"/><g fill="none" stroke="#000000" stroke-width="0" stroke-linecap="round"><path d="M213.0105,134.7952l54.78592,55.09544"/><path d="M174.8662,225.74294l131.07453,-126.80003"/></g></g></g></svg>