<svg version="1.1" xmlns="http://www.w3.org/2000/svg" xmlns:xlink="http://www.w3.org/1999/xlink" width="52.85196" height="75.18934" viewBox="0,0,52.85196,75.18934"><defs><radialGradient cx="239.60892" cy="208.21143" r="8.74976" gradientUnits="userSpaceOnUse" id="color-1"><stop offset="0" stop-color="#fff696"/><stop offset="1" stop-color="#fff696" stop-opacity="0"/></radialGradient><radialGradient cx="239.89096" cy="205.428" r="12.14859" gradientUnits="userSpaceOnUse" id="color-2"><stop offset="0" stop-color="#fcd81d"/><stop offset="1" stop-color="#fcd81d" stop-opacity="0"/></radialGradient><radialGradient cx="239.59128" cy="207.64309" r="6.41322" gradientUnits="userSpaceOnUse" id="color-3"><stop offset="0" stop-color="#fff156"/><stop offset="1" stop-color="#fff156" stop-opacity="0"/></radialGradient><linearGradient x1="239.9326" y1="206.57577" x2="239.9326" y2="212.8485" gradientUnits="userSpaceOnUse" id="color-4"><stop offset="0" stop-color="#ff8600"/><stop offset="1" stop-color="#ff8600" stop-opacity="0"/></linearGradient><linearGradient x1="239.82885" y1="204.32198" x2="239.82885" y2="221.18561" gradientUnits="userSpaceOnUse" id="color-5"><stop offset="0" stop-color="#ffffff"/><stop offset="1" stop-color="#ffffff" stop-opacity="0"/></linearGradient><radialGradient cx="239.75845" cy="208.44531" r="6.41322" gradientUnits="userSpaceOnUse" id="color-6"><stop offset="0" stop-color="#ffee35"/><stop offset="1" stop-color="#ffee35" stop-opacity="0"/></radialGradient><linearGradient x1="244.49761" y1="206.02092" x2="235.33369" y2="206.02092" gradientUnits="userSpaceOnUse" id="color-7"><stop offset="0" stop-color="#5f5f5f"/><stop offset="1" stop-color="#4c4c4c"/></linearGradient><linearGradient x1="244.49761" y1="206.02092" x2="235.33369" y2="206.02092" gradientUnits="userSpaceOnUse" id="color-8"><stop offset="0" stop-color="#949494"/><stop offset="1" stop-color="#757575"/></linearGradient><linearGradient x1="244.21503" y1="204.21928" x2="241.24187" y2="204.21928" gradientUnits="userSpaceOnUse" id="color-9"><stop offset="0" stop-color="#4c4c4c"/><stop offset="1" stop-color="#4c4c4c" stop-opacity="0"/></linearGradient><linearGradient x1="235.61691" y1="204.21927" x2="238.59006" y2="204.21927" gradientUnits="userSpaceOnUse" id="color-10"><stop offset="0" stop-color="#5f5f5f"/><stop offset="1" stop-color="#5f5f5f" stop-opacity="0"/></linearGradient><linearGradient x1="244.71278" y1="203.97262" x2="235.12233" y2="203.97262" gradientUnits="userSpaceOnUse" id="color-11"><stop offset="0" stop-color="#888888"/><stop offset="1" stop-color="#696969"/></linearGradient><linearGradient x1="240.7176" y1="126.50034" x2="240.7176" y2="220.52639" gradientUnits="userSpaceOnUse" id="color-12"><stop offset="0" stop-color="#a300f2"/><stop offset="1" stop-color="#a300f2" stop-opacity="0"/></linearGradient><linearGradient x1="241.00441" y1="98.48158" x2="241.00441" y2="226.50219" gradientUnits="userSpaceOnUse" id="color-13"><stop offset="0" stop-color="#f1f1f1"/><stop offset="1" stop-color="#f1f1f1" stop-opacity="0"/></linearGradient><linearGradient x1="239.78789" y1="206.11823" x2="239.78789" y2="214.02599" gradientUnits="userSpaceOnUse" id="color-14"><stop offset="0" stop-color="#ff4f00"/><stop offset="1" stop-color="#ff4f00" stop-opacity="0"/></linearGradient><linearGradient x1="239.86991" y1="206.36497" x2="239.86991" y2="211.7108" gradientUnits="userSpaceOnUse" id="color-15"><stop offset="0" stop-color="#ffd400"/><stop offset="1" stop-color="#ffd400" stop-opacity="0"/></linearGradient><linearGradient x1="239.87267" y1="206.00691" x2="239.87267" y2="214.88923" gradientUnits="userSpaceOnUse" id="color-16"><stop offset="0" stop-color="#ffee00"/><stop offset="1" stop-color="#ffee00" stop-opacity="0"/></linearGradient><linearGradient x1="239.96017" y1="205.93396" x2="239.96017" y2="209.82134" gradientUnits="userSpaceOnUse" id="color-17"><stop offset="0" stop-color="#ffee00"/><stop offset="1" stop-color="#ffee00" stop-opacity="0"/></linearGradient><linearGradient x1="237.49549" y1="206.00691" x2="237.49549" y2="209.89429" gradientUnits="userSpaceOnUse" id="color-18"><stop offset="0" stop-color="#ffee00"/><stop offset="1" stop-color="#ffee00" stop-opacity="0"/></linearGradient><linearGradient x1="242.42484" y1="206.00691" x2="242.42484" y2="209.89429" gradientUnits="userSpaceOnUse" id="color-19"><stop offset="0" stop-color="#ffee00"/><stop offset="1" stop-color="#ffee00" stop-opacity="0"/></linearGradient><linearGradient x1="237.65395" y1="155.72479" x2="237.65395" y2="199.68327" gradientUnits="userSpaceOnUse" id="color-20"><stop offset="0" stop-color="#00de98"/><stop offset="1" stop-color="#00386f"/></linearGradient><linearGradient x1="237.65395" y1="155.72479" x2="237.65395" y2="199.68327" gradientUnits="userSpaceOnUse" id="color-21"><stop offset="0" stop-color="#00de98"/><stop offset="1" stop-color="#00386f"/></linearGradient><linearGradient x1="242.66256" y1="167.87077" x2="237.44966" y2="167.87077" gradientUnits="userSpaceOnUse" id="color-22"><stop offset="0" stop-color="#5f5f5f"/><stop offset="1" stop-color="#a8a8a8"/></linearGradient><linearGradient x1="240.01627" y1="161.54813" x2="240.01627" y2="162.48361" gradientUnits="userSpaceOnUse" id="color-23"><stop offset="0" stop-color="#7a7a7a"/><stop offset="1" stop-color="#646464"/></linearGradient><linearGradient x1="252.10796" y1="178.86467" x2="252.10796" y2="200.90384" gradientUnits="userSpaceOnUse" id="color-24"><stop offset="0" stop-color="#00a29c"/><stop offset="1" stop-color="#00478c"/></linearGradient><linearGradient x1="228.01278" y1="178.86467" x2="228.01278" y2="200.90384" gradientUnits="userSpaceOnUse" id="color-25"><stop offset="0" stop-color="#00a29c"/><stop offset="1" stop-color="#00478c"/></linearGradient><linearGradient x1="240.90892" y1="165.17487" x2="240.72849" y2="165.17487" gradientUnits="userSpaceOnUse" id="color-26"><stop offset="0" stop-color="#00eeec"/><stop offset="1" stop-color="#1cfff4"/></linearGradient><linearGradient x1="246.37174" y1="156.23007" x2="246.37174" y2="200.78563" gradientUnits="userSpaceOnUse" id="color-27"><stop offset="0" stop-color="#00ffad"/><stop offset="1" stop-color="#00478c"/></linearGradient><linearGradient x1="246.37174" y1="156.23007" x2="246.37174" y2="200.78563" gradientUnits="userSpaceOnUse" id="color-28"><stop offset="0" stop-color="#00ffad"/><stop offset="1" stop-color="#00478c"/></linearGradient><linearGradient x1="233.94097" y1="156.22214" x2="233.94097" y2="200.77769" gradientUnits="userSpaceOnUse" id="color-29"><stop offset="0" stop-color="#00ffad"/><stop offset="1" stop-color="#00478c"/></linearGradient><linearGradient x1="233.94097" y1="156.22214" x2="233.94097" y2="200.77769" gradientUnits="userSpaceOnUse" id="color-30"><stop offset="0" stop-color="#00ffad"/><stop offset="1" stop-color="#00478c"/></linearGradient><linearGradient x1="261.51039" y1="178.60527" x2="261.51039" y2="188.09109" gradientUnits="userSpaceOnUse" id="color-31"><stop offset="0" stop-color="#00a29c"/><stop offset="1" stop-color="#007995"/></linearGradient><linearGradient x1="230.43229" y1="193.40468" x2="227.82586" y2="193.40468" gradientUnits="userSpaceOnUse" id="color-32"><stop offset="0" stop-color="#002f5e"/><stop offset="1" stop-color="#002f5e" stop-opacity="0"/></linearGradient><linearGradient x1="230.56478" y1="186.04026" x2="227.85808" y2="186.04026" gradientUnits="userSpaceOnUse" id="color-33"><stop offset="0" stop-color="#dbdbdb"/><stop offset="1" stop-color="#dbdbdb" stop-opacity="0"/></linearGradient><linearGradient x1="242.21568" y1="197.61642" x2="238.10553" y2="197.61642" gradientUnits="userSpaceOnUse" id="color-34"><stop offset="0" stop-color="#8b8b8b"/><stop offset="1" stop-color="#7f7f7f"/></linearGradient><linearGradient x1="241.8548" y1="192.76641" x2="238.46641" y2="192.76641" gradientUnits="userSpaceOnUse" id="color-35"><stop offset="0" stop-color="#8b8b8b"/><stop offset="1" stop-color="#7f7f7f"/></linearGradient><linearGradient x1="218.70458" y1="178.60527" x2="218.70458" y2="188.0911" gradientUnits="userSpaceOnUse" id="color-36"><stop offset="0" stop-color="#00a29c"/><stop offset="1" stop-color="#007995"/></linearGradient><linearGradient x1="262.28415" y1="179.88452" x2="262.28415" y2="192.11529" gradientUnits="userSpaceOnUse" id="color-37"><stop offset="0" stop-color="#009a95"/><stop offset="1" stop-color="#005da9"/></linearGradient><linearGradient x1="217.83661" y1="179.88452" x2="217.83661" y2="192.11529" gradientUnits="userSpaceOnUse" id="color-38"><stop offset="0" stop-color="#009a95"/><stop offset="1" stop-color="#005da9"/></linearGradient><linearGradient x1="263.39458" y1="178.94647" x2="263.39458" y2="192.53621" gradientUnits="userSpaceOnUse" id="color-39"><stop offset="0" stop-color="#007c78"/><stop offset="1" stop-color="#00376d"/></linearGradient><linearGradient x1="216.72611" y1="178.94647" x2="216.72611" y2="192.53621" gradientUnits="userSpaceOnUse" id="color-40"><stop offset="0" stop-color="#007c78"/><stop offset="1" stop-color="#00376d"/></linearGradient><linearGradient x1="249.79267" y1="179.1031" x2="246.38423" y2="179.1031" gradientUnits="userSpaceOnUse" id="color-41"><stop offset="0" stop-color="#00b67c"/><stop offset="1" stop-color="#00b67c" stop-opacity="0"/></linearGradient><linearGradient x1="249.79267" y1="179.1031" x2="246.38423" y2="179.1031" gradientUnits="userSpaceOnUse" id="color-42"><stop offset="0" stop-color="#00847e"/><stop offset="1" stop-color="#00847e" stop-opacity="0"/></linearGradient><linearGradient x1="249.79267" y1="179.1031" x2="246.38423" y2="179.1031" gradientUnits="userSpaceOnUse" id="color-43"><stop offset="0" stop-color="#004183"/><stop offset="1" stop-color="#004183" stop-opacity="0"/></linearGradient><linearGradient x1="249.75932" y1="172.98334" x2="246.4211" y2="172.98334" gradientUnits="userSpaceOnUse" id="color-44"><stop offset="0" stop-color="#009c84"/><stop offset="1" stop-color="#009c84" stop-opacity="0"/></linearGradient><linearGradient x1="249.75932" y1="188.08334" x2="246.4211" y2="188.08334" gradientUnits="userSpaceOnUse" id="color-45"><stop offset="0" stop-color="#00779c"/><stop offset="1" stop-color="#00779c" stop-opacity="0"/></linearGradient><linearGradient x1="255.83386" y1="181.97989" x2="251.38205" y2="181.97989" gradientUnits="userSpaceOnUse" id="color-46"><stop offset="0" stop-color="#01878f"/><stop offset="1" stop-color="#018097"/></linearGradient><linearGradient x1="255.83386" y1="181.97989" x2="251.38204" y2="181.97989" gradientUnits="userSpaceOnUse" id="color-47"><stop offset="0" stop-color="#01878f"/><stop offset="1" stop-color="#018097"/></linearGradient><linearGradient x1="255.77909" y1="185.90967" x2="251.33578" y2="185.90967" gradientUnits="userSpaceOnUse" id="color-48"><stop offset="0" stop-color="#01878f"/><stop offset="1" stop-color="#018097"/></linearGradient><linearGradient x1="255.77909" y1="185.90967" x2="251.33578" y2="185.90967" gradientUnits="userSpaceOnUse" id="color-49"><stop offset="0" stop-color="#01878f"/><stop offset="1" stop-color="#018097"/></linearGradient><linearGradient x1="224.71996" y1="181.97989" x2="229.17177" y2="181.97989" gradientUnits="userSpaceOnUse" id="color-50"><stop offset="0" stop-color="#01878f"/><stop offset="1" stop-color="#018097"/></linearGradient><linearGradient x1="224.71999" y1="181.97989" x2="229.17178" y2="181.97989" gradientUnits="userSpaceOnUse" id="color-51"><stop offset="0" stop-color="#01878f"/><stop offset="1" stop-color="#018097"/></linearGradient><linearGradient x1="224.77475" y1="185.90967" x2="229.21805" y2="185.90967" gradientUnits="userSpaceOnUse" id="color-52"><stop offset="0" stop-color="#01878f"/><stop offset="1" stop-color="#018097"/></linearGradient><linearGradient x1="224.77475" y1="185.90967" x2="229.21805" y2="185.90967" gradientUnits="userSpaceOnUse" id="color-53"><stop offset="0" stop-color="#01878f"/><stop offset="1" stop-color="#018097"/></linearGradient></defs><g transform="translate(-213.63452,-152.71141)"><g data-paper-data="{&quot;isPaintingLayer&quot;:true}" fill-rule="nonzero" stroke-linejoin="miter" stroke-miterlimit="10" stroke-dasharray="" stroke-dashoffset="0" style="mix-blend-mode: normal"><path d="M239.60892,200.33697c4.2389,0 7.67522,3.52552 7.67522,7.87446c0,4.34894 -3.4363,7.87446 -7.67522,7.87446c-4.23891,0 -7.67522,-3.52552 -7.67522,-7.87446c0,-4.34894 3.4363,-7.87446 7.67522,-7.87446z" data-paper-data="{&quot;index&quot;:null}" fill="url(#color-1)" stroke="none" stroke-width="0" stroke-linecap="butt"/><path d="M239.89095,193.07341c6.62003,0 11.9866,5.53134 11.9866,12.35459c0,6.82325 -5.36658,12.35459 -11.9866,12.35459c-6.62003,0 -11.98659,-5.53134 -11.98659,-12.35459c0,-6.82325 5.36657,-12.35459 11.98659,-12.35459z" data-paper-data="{&quot;index&quot;:null}" fill="url(#color-2)" stroke="none" stroke-width="0" stroke-linecap="butt"/><g data-paper-data="{&quot;index&quot;:null}"><g fill="none" stroke="#00386f" stroke-width="1" stroke-linecap="round"><g><path d="M262.78466,194.65133l-15.22514,8.375h-8.17647"/><path d="M262.72827,193.77633l-15.22514,8.375h-8.17647"/><path d="M262.89745,192.83883l-15.22514,8.375h-8.17647"/></g><g><path d="M238.98431,203.02633h-8.17647l-15.22514,-8.375"/><path d="M239.04071,202.15133h-8.17647l-15.22514,-8.375"/><path d="M238.87153,201.21383h-8.17647l-15.22514,-8.375"/></g></g><path d="M230.07564,203.4762v-3.42857h19.46241v3.42857z" fill="#00386f" stroke="none" stroke-width="0" stroke-linecap="butt"/></g><path d="M236.1764,156.79167v-3.875h2.80427v3.875z" data-paper-data="{&quot;index&quot;:null}" fill="#00cd94" stroke="none" stroke-width="0" stroke-linecap="butt"/><path d="M239.59129,202.04808c3.10696,0 5.62563,2.50497 5.62563,5.59501c0,3.09004 -2.51868,5.59501 -5.62563,5.59501c-3.10696,0 -5.62563,-2.50497 -5.62563,-5.59501c0,-3.09003 2.51868,-5.59501 5.62563,-5.59501z" data-paper-data="{&quot;index&quot;:null}" fill="url(#color-3)" stroke="none" stroke-width="0" stroke-linecap="butt"/><path d="M236.42836,212.8485v-6.27273c0,0 1.53853,-0.45454 3.5042,-0.45454c1.84266,0 3.50419,0.45454 3.50419,0.45454v6.27273z" data-paper-data="{&quot;index&quot;:null}" fill="url(#color-4)" stroke="none" stroke-width="0" stroke-linecap="butt"/><path d="M242.36478,204.32198l-2.53593,16.86364l-2.53593,-16.86364z" data-paper-data="{&quot;index&quot;:null}" fill="url(#color-5)" stroke="#000000" stroke-width="0" stroke-linecap="round"/><path d="M239.75845,202.8503c3.10696,0 5.62563,2.50497 5.62563,5.59501c0,3.09004 -2.51869,5.59501 -5.62563,5.59501c-3.10696,0 -5.62563,-2.50497 -5.62563,-5.59501c0,-3.09004 2.51869,-5.59501 5.62563,-5.59501z" data-paper-data="{&quot;index&quot;:null}" fill="url(#color-6)" stroke="none" stroke-width="0" stroke-linecap="butt"/><path d="M239.91567,205.18001c2.53058,0 4.58198,0.37649 4.58198,0.84091c0,0.46442 -2.05143,0.84091 -4.58198,0.84091c-2.53058,0 -4.58198,-0.37649 -4.58198,-0.84091c0,-0.46442 2.05143,-0.84091 4.58198,-0.84091z" data-paper-data="{&quot;index&quot;:null}" fill="url(#color-7)" stroke="url(#color-8)" stroke-width="0.5" stroke-linecap="butt"/><path d="M244.21502,206.08134c0,0 -0.8428,0.27881 -1.31614,0.35477c-0.5242,0.08412 -1.692,0.12799 -1.692,0.12799l0.03498,-4.2069h2.97317v3.72414z" data-paper-data="{&quot;index&quot;:null}" fill="url(#color-9)" stroke="none" stroke-width="0" stroke-linecap="butt"/><path d="M236.93306,206.43611c-0.47332,-0.07597 -1.31614,-0.35477 -1.31614,-0.35477v-3.72414h2.97318l0.03498,4.2069c0,0 -1.16781,-0.04386 -1.692,-0.12799z" data-paper-data="{&quot;index&quot;:null}" fill="url(#color-10)" stroke="none" stroke-width="0" stroke-linecap="butt"/><path d="M244.71279,206.10898c0,0 -2.53709,-0.63636 -4.7491,-0.63636c-2.18126,0 -4.84133,0.63636 -4.84133,0.63636v-4.27273c0,0 2.57537,-0.48772 4.79521,-0.5c2.22064,-0.01228 4.79521,0.5 4.79521,0.5v4.27273z" data-paper-data="{&quot;index&quot;:null}" fill="url(#color-11)" stroke="none" stroke-width="0" stroke-linecap="butt"/><path d="M235.89048,205.54808v-3.68" data-paper-data="{&quot;index&quot;:null}" fill="none" stroke="#656565" stroke-width="0.5" stroke-linecap="round"/><path d="M237.06714,205.30808v-3.64" data-paper-data="{&quot;index&quot;:null}" fill="none" stroke="#6a6a6a" stroke-width="0.5" stroke-linecap="round"/><path d="M238.16271,201.54808l0.04057,3.64" data-paper-data="{&quot;index&quot;:null}" fill="none" stroke="#6f6f6f" stroke-width="0.5" stroke-linecap="round"/><path d="M239.29878,201.46808l0.08116,3.68" data-paper-data="{&quot;index&quot;:null}" fill="none" stroke="#747474" stroke-width="0.5" stroke-linecap="round"/><path d="M240.47545,201.42808l0.04057,3.76" data-paper-data="{&quot;index&quot;:null}" fill="none" stroke="#787878" stroke-width="0.5" stroke-linecap="round"/><path d="M241.61157,201.50808v3.76" data-paper-data="{&quot;index&quot;:null}" fill="none" stroke="#7b7b7b" stroke-width="0.5" stroke-linecap="round"/><g data-paper-data="{&quot;index&quot;:null}" stroke="#000000" stroke-width="0" stroke-linecap="round"><path d="M242.60244,206.62112l-2.83733,14.93246l-2.41008,-14.93246z" fill="url(#color-12)"/><path d="M243.57068,207.56954l-3.86313,20.33121l-3.28143,-20.33121z" fill="url(#color-13)"/><path d="M241.2014,206.11823c0,0 2.24199,0.46537 2.20855,2.41626c-0.07856,4.58168 -3.26868,5.49149 -3.26868,5.49149c0,0 -3.78124,-1.02334 -3.97541,-5.49149c-0.08127,-1.86924 2.29688,-2.41626 2.29688,-2.41626z" fill="url(#color-14)"/><path d="M240.82546,206.36497c0,0 1.51565,0.3146 1.49305,1.63345c-0.05313,3.09733 -2.20972,3.71239 -2.20972,3.71239c0,0 -2.55623,-0.69182 -2.68749,-3.71239c-0.05492,-1.26365 1.55276,-1.63345 1.55276,-1.63345z" fill="url(#color-15)"/><path d="M241.46034,206.00691c0,0 2.51834,0.52272 2.48077,2.71404c-0.08827,5.14633 -3.67153,6.16828 -3.67153,6.16828c0,0 -4.24728,-1.14947 -4.46535,-6.16828c-0.09122,-2.0996 2.57999,-2.71404 2.57999,-2.71404z" fill="url(#color-16)"/><path d="M240.65504,205.93396c0,0 1.10216,0.22877 1.08571,1.18781c-0.03863,2.25231 -1.60687,2.69957 -1.60687,2.69957c0,0 -1.85883,-0.50307 -1.95427,-2.69957c-0.03993,-0.9189 1.12913,-1.18781 1.12913,-1.18781z" fill="url(#color-17)"/><path d="M238.19035,206.00691c0,0 1.10217,0.22877 1.08573,1.18781c-0.03863,2.25231 -1.60687,2.69957 -1.60687,2.69957c0,0 -1.85885,-0.50307 -1.95429,-2.69957c-0.03996,-0.91889 1.12913,-1.18781 1.12913,-1.18781z" fill="url(#color-18)"/><path d="M243.11971,206.00691c0,0 1.10217,0.22877 1.08573,1.18781c-0.03863,2.25231 -1.60687,2.69957 -1.60687,2.69957c0,0 -1.85885,-0.50307 -1.95429,-2.69957c-0.03996,-0.91889 1.12913,-1.18781 1.12913,-1.18781z" fill="url(#color-19)"/></g><path d="M217.31082,192.55921l14.21649,7.77778" data-paper-data="{&quot;index&quot;:null}" fill="none" stroke="#00386f" stroke-width="2.5" stroke-linecap="round"/><path d="M242.36241,199.68327l-10.43748,-0.0566l-2.65737,-0.71141l-0.19428,-37.7619l5.90619,-5.42857v15.95287c0,0 0.71433,1.79051 2.64398,1.79051c1.96397,0 2.68601,-1.92095 2.68601,-1.92095v-15.66277l5.76215,5.42857l0.16301,37.58147z" data-paper-data="{&quot;index&quot;:null}" fill="url(#color-20)" stroke="url(#color-21)" stroke-width="2.5" stroke-linecap="round"/><path d="M244.39407,173.2291l-7.62795,-1.36364l1.23031,-16.90909c0,0 0.36668,0.18974 0.73819,0.09091c0.37152,-0.09882 0.71183,-0.18471 1.31234,-0.63636c0.60052,-0.45165 1.39437,-1.36364 1.39437,-1.36364z" data-paper-data="{&quot;index&quot;:null}" fill="#676767" stroke="#ff0000" stroke-width="0" stroke-linecap="round"/><g data-paper-data="{&quot;index&quot;:null}" fill="none" stroke-linecap="round"><g stroke="#b6b6b6" stroke-width="2.5"><path d="M256.81617,175.37846v4.09091"/></g><path d="M256.44707,179.71937l-0.04101,-4.18182" stroke="#c2c2c2" stroke-width="1.5"/></g><g data-paper-data="{&quot;index&quot;:null}" fill="none" stroke-linecap="round"><g stroke="#b6b6b6" stroke-width="2.5"><path d="M222.4371,179.46937v-4.09091"/></g><path d="M222.8472,175.53755l-0.04101,4.18182" stroke="#c2c2c2" stroke-width="1.5"/></g><path d="M237.44967,173.76976v-11.79798h5.21289v11.79798z" data-paper-data="{&quot;index&quot;:null}" fill="url(#color-22)" stroke="none" stroke-width="0" stroke-linecap="butt"/><path d="M240.01624,161.54813c1.07329,0 1.94336,0.20942 1.94336,0.46775c0,0.25833 -0.87007,0.46774 -1.94336,0.46774c-1.07328,0 -1.94335,-0.20941 -1.94335,-0.46774c0,-0.25833 0.87006,-0.46775 1.94335,-0.46775z" data-paper-data="{&quot;index&quot;:null}" fill="url(#color-23)" stroke="#7e7e7e" stroke-width="0.5" stroke-linecap="butt"/><path d="M262.82782,194.71383v-1.9375h0.95862v1.9375z" data-paper-data="{&quot;index&quot;:null}" fill="#00386f" stroke="none" stroke-width="0" stroke-linecap="butt"/><path d="M264.19707,192.23967l-15.92688,8.625l-8.20869,0.03917l-0.04263,-21.91417l23.79374,-0.125z" data-paper-data="{&quot;index&quot;:null}" fill="url(#color-24)" stroke="#b6b6b6" stroke-width="0" stroke-linecap="round"/><path d="M261.36953,180.24806v-1.35714h1.74002v1.35714z" data-paper-data="{&quot;index&quot;:null}" fill="#00bcfb" stroke="none" stroke-width="0" stroke-linecap="butt"/><path d="M241.19821,199.60521v-19.28572" data-paper-data="{&quot;index&quot;:null}" fill="none" stroke="#3195b6" stroke-width="2.5" stroke-linecap="round"/><path d="M240.0382,183.74806v-4.71428h2.25557v4.71428z" data-paper-data="{&quot;index&quot;:null}" fill="#f00000" stroke="none" stroke-width="0" stroke-linecap="butt"/><path d="M240.0382,200.81949v-6h2.25557v6z" data-paper-data="{&quot;index&quot;:null}" fill="#0098ca" stroke="none" stroke-width="0" stroke-linecap="butt"/><path d="M250.24065,191.90133v-7.1875" data-paper-data="{&quot;index&quot;:null}" fill="none" stroke="#00bcfb" stroke-width="1" stroke-linecap="round"/><path d="M248.49257,183.77633l0.1128,8.6875" data-paper-data="{&quot;index&quot;:null}" fill="none" stroke="#f50000" stroke-width="1" stroke-linecap="round"/><path d="M258.81185,189.08883v-7.9375" data-paper-data="{&quot;index&quot;:null}" fill="none" stroke="#006c8a" stroke-width="1" stroke-linecap="round"/><path d="M253.39845,193.96383v-11.875" data-paper-data="{&quot;index&quot;:null}" fill="none" stroke="#005b82" stroke-width="1" stroke-linecap="round"/><path d="M245.78587,195.46383l-0.05639,-11.1875" data-paper-data="{&quot;index&quot;:null}" fill="none" stroke="#fa0000" stroke-width="1" stroke-linecap="round"/><path d="M255.82319,194.33883l-0.1128,-5.125" data-paper-data="{&quot;index&quot;:null}" fill="none" stroke="#005b82" stroke-width="1" stroke-linecap="round"/><path d="M243.58668,181.40133l-0.05639,11" data-paper-data="{&quot;index&quot;:null}" fill="none" stroke="#fa0000" stroke-width="1" stroke-linecap="round"/><path d="M215.95186,194.71383v-1.9375h0.95862v1.9375z" data-paper-data="{&quot;index&quot;:null}" fill="#00386f" stroke="none" stroke-width="0" stroke-linecap="butt"/><path d="M216.30812,178.86467l23.79374,0.125l-0.04263,21.91417l-8.20869,-0.03917l-15.92688,-8.625z" data-paper-data="{&quot;index&quot;:null}" fill="url(#color-25)" stroke="#b6b6b6" stroke-width="0" stroke-linecap="round"/><path d="M217.01118,180.24806v-1.35714h1.74002v1.35714z" data-paper-data="{&quot;index&quot;:null}" fill="#00b1ec" stroke="none" stroke-width="0" stroke-linecap="butt"/><path d="M238.92248,180.31949v19.28572" data-paper-data="{&quot;index&quot;:null}" fill="none" stroke="#3195b6" stroke-width="2.5" stroke-linecap="round"/><path d="M237.82695,183.74806v-4.71428h2.25557v4.71428z" data-paper-data="{&quot;index&quot;:null}" fill="#f00000" stroke="none" stroke-width="0" stroke-linecap="butt"/><path d="M237.82695,200.81949v-6h2.25557v6z" data-paper-data="{&quot;index&quot;:null}" fill="#0098ca" stroke="none" stroke-width="0" stroke-linecap="butt"/><path d="M229.88003,184.71383v7.1875" data-paper-data="{&quot;index&quot;:null}" fill="none" stroke="#00bcfb" stroke-width="1" stroke-linecap="round"/><path d="M231.51531,192.46383l0.1128,-8.6875" data-paper-data="{&quot;index&quot;:null}" fill="none" stroke="#f50000" stroke-width="1" stroke-linecap="round"/><path d="M221.30886,181.15133v7.9375" data-paper-data="{&quot;index&quot;:null}" fill="none" stroke="#006c8a" stroke-width="1" stroke-linecap="round"/><path d="M226.72221,193.96383v-11.875" data-paper-data="{&quot;index&quot;:null}" fill="none" stroke="#005b82" stroke-width="1" stroke-linecap="round"/><path d="M234.39117,184.27633l-0.05639,11.1875" data-paper-data="{&quot;index&quot;:null}" fill="none" stroke="#fa0000" stroke-width="1" stroke-linecap="round"/><path d="M224.41028,189.21383l-0.1128,5.125" data-paper-data="{&quot;index&quot;:null}" fill="none" stroke="#005b82" stroke-width="1" stroke-linecap="round"/><path d="M236.53398,181.40133l0.05639,11" data-paper-data="{&quot;index&quot;:null}" fill="none" stroke="#fa0000" stroke-width="1" stroke-linecap="round"/><path d="M239.07303,167.61264v-4.77419h0.23282v4.77419z" data-paper-data="{&quot;index&quot;:null}" fill="#1dfffb" stroke="none" stroke-width="0" stroke-linecap="butt"/><path d="M241.44137,153.41091l-0.08202,17.45455c0,0 -0.23083,0.86024 -1.23031,0.90909c-1.02289,0.04999 -1.39437,-0.90909 -1.39437,-0.90909v-17.45455" data-paper-data="{&quot;index&quot;:null}" fill="none" stroke="#b1b1b1" stroke-width="1" stroke-linecap="round"/><path d="M244.86797,199.5166l-10.43748,-0.0566l-2.65737,-0.71141l-0.19428,-37.7619l5.90619,-5.42857v15.95287c0,0 0.71433,1.79051 2.64398,1.79051c1.96397,0 2.68601,-1.92095 2.68601,-1.92095v-15.66277l5.76215,5.42857l0.16301,37.58147z" data-paper-data="{&quot;index&quot;:null}" fill="#ffffff" stroke="#ffffff" stroke-width="2.5" stroke-linecap="round"/><path d="M244.467,177.21421l-0.10025,18.33333" data-paper-data="{&quot;index&quot;:null}" fill="none" stroke="#eeeeee" stroke-width="1" stroke-linecap="round"/><path d="M233.941,177.21421l-0.10025,11.77777" data-paper-data="{&quot;index&quot;:null}" fill="none" stroke="#eeeeee" stroke-width="1" stroke-linecap="round"/><path d="M236.24667,195.43642l0.20049,-10.66666" data-paper-data="{&quot;index&quot;:null}" fill="none" stroke="#eeeeee" stroke-width="1" stroke-linecap="round"/><path d="M242.5623,199.54754v-13.33333" data-paper-data="{&quot;index&quot;:null}" fill="none" stroke="#eeeeee" stroke-width="1" stroke-linecap="round"/><path d="M237.65015,173.65865l0.10025,7" data-paper-data="{&quot;index&quot;:null}" fill="none" stroke="#eeeeee" stroke-width="1" stroke-linecap="round"/><path d="M245.36923,173.10307l-0.2005,-13.77777" data-paper-data="{&quot;index&quot;:null}" fill="none" stroke="#eeeeee" stroke-width="1" stroke-linecap="round"/><path d="M232.83824,172.43641l-0.20049,-12.11111" data-paper-data="{&quot;index&quot;:null}" fill="none" stroke="#fa0000" stroke-width="1" stroke-linecap="round"/><path d="M235.34444,173.99198l-0.30074,-13" data-paper-data="{&quot;index&quot;:null}" fill="none" stroke="#eeeeee" stroke-width="1" stroke-linecap="round"/><path d="M240.72847,167.52489v-4.7h0.18045v4.7z" data-paper-data="{&quot;index&quot;:null}" fill="url(#color-26)" stroke="none" stroke-width="0" stroke-linecap="butt"/><path d="M239.917,167.70942v-4.80645h0.20375v4.80645z" data-paper-data="{&quot;index&quot;:null}" fill="#1dfffb" stroke="none" stroke-width="0" stroke-linecap="butt"/><path d="M241.55924,183.26328l-1.31759,0.6931l-1.31759,-0.54738v-7.72276l1.35878,-0.91167l1.27641,1.05738z" data-paper-data="{&quot;index&quot;:null}" fill="#8cffff" stroke="#7e7e7e" stroke-width="0.5" stroke-linecap="round"/><path d="M241.50029,175.94407l-1.18419,0.875l-1.29695,-1.125" data-paper-data="{&quot;index&quot;:null}" fill="none" stroke="#55eded" stroke-width="0.5" stroke-linecap="round"/><path d="M239.24471,183.31907l1.12779,-0.8125l0.90223,0.6875" data-paper-data="{&quot;index&quot;:null}" fill="none" stroke="#55eded" stroke-width="0.5" stroke-linecap="round"/><path d="M240.25972,175.00657l0.05639,1.5l-0.05639,6.5625l-0.16917,0.5625" data-paper-data="{&quot;index&quot;:null}" fill="none" stroke="#4fdada" stroke-width="0.5" stroke-linecap="round"/><path d="M241.55924,183.26328l-1.31759,0.6931l-1.31759,-0.54738v-7.72276l1.35878,-0.91167l1.27641,1.05738z" data-paper-data="{&quot;index&quot;:null}" fill="none" stroke="#7e7e7e" stroke-width="0.5" stroke-linecap="round"/><path d="M240.04895,182.33048l-0.88076,0.78572l0.02147,-6.9881l0.83779,0.82143z" data-paper-data="{&quot;index&quot;:null}" fill="#5cffff" stroke="none" stroke-width="0" stroke-linecap="round"/><path d="M239.88267,183.49804l-0.46567,-0.13243l0.62498,-0.37012z" data-paper-data="{&quot;index&quot;:null}" fill="#57f3f3" stroke="#56eeee" stroke-width="0" stroke-linecap="round"/><path d="M240.4978,176.96646l0.88076,-0.78572l-0.02147,6.80388l-0.8378,-0.66353z" data-paper-data="{&quot;index&quot;:null}" fill="#87ffff" stroke="none" stroke-width="0" stroke-linecap="round"/><path d="M240.10546,200.90477v-10.7h3.42848v10.7z" data-paper-data="{&quot;index&quot;:null}" fill="#2d2d2d" stroke="none" stroke-width="0" stroke-linecap="butt"/><path d="M236.7672,200.90477v-10.7h3.42848v10.7z" data-paper-data="{&quot;index&quot;:null}" fill="#2d2d2d" stroke="none" stroke-width="0" stroke-linecap="butt"/><path d="M240.48542,182.91654l0.55374,0.37011l-0.67935,0.34296z" data-paper-data="{&quot;index&quot;:null}" fill="#5afbfb" stroke="#56eeee" stroke-width="0" stroke-linecap="round"/><path d="M249.67991,160.78563l-0.10025,39.33333l-1.40347,0.66667h-5.11265v-13.66667l3.60892,-3.77778v-11.77778l-1.80445,-1.88889l-0.10025,-13.44444z" data-paper-data="{&quot;index&quot;:null}" fill="url(#color-27)" stroke="url(#color-28)" stroke-width="0.5" stroke-linecap="round"/><path d="M235.54493,156.22212l-0.10025,13.44444l-1.80445,1.88889v11.77778l3.60892,3.77777v13.66667h-5.11264l-1.40347,-0.66667l-0.10025,-39.33333z" data-paper-data="{&quot;index&quot;:null}" fill="url(#color-29)" stroke="url(#color-30)" stroke-width="0.5" stroke-linecap="round"/><path d="M249.8854,178.97161l13.62369,-0.07778l-0.09022,6.44445l-13.53347,7.6z" data-paper-data="{&quot;index&quot;:null}" fill="#ffffff" stroke="#ffffff" stroke-width="0.5" stroke-linecap="round"/><path d="M259.33682,178.63063l4.44294,-0.02536l-0.09789,6.99198l-4.44084,2.49384z" data-paper-data="{&quot;index&quot;:null}" fill="url(#color-31)" stroke="#ff9b00" stroke-width="0" stroke-linecap="round"/><path d="M227.82585,198.59856v-11.74943h2.60644v13.11111z" data-paper-data="{&quot;index&quot;:null}" fill="url(#color-32)" stroke="none" stroke-width="0" stroke-linecap="butt"/><path d="M230.22679,192.93828l-13.53347,-7.6l-0.09022,-6.44445l13.62369,0.07778z" data-paper-data="{&quot;index&quot;:null}" fill="#ffffff" stroke="#ffffff" stroke-width="0" stroke-linecap="round"/><path d="M237.84987,184.73335v-12.5h4.33072v12.5z" data-paper-data="{&quot;index&quot;:null}" fill="#ffffff" stroke="none" stroke-width="0" stroke-linecap="butt"/><g data-paper-data="{&quot;index&quot;:null}" stroke="#8abcd0" stroke-width="0.5" stroke-linecap="round"><path d="M238.87258,175.62268c0,0 0.50353,-1.7675 1.12377,-1.7675c0.62021,0 1.12376,1.7675 1.12376,1.7675l0.01608,4.93504c0,0 -0.50353,1.7675 -1.12376,1.7675c-0.62021,0 -1.12376,-1.7675 -1.12376,-1.7675z" fill="#97cee4"/><path d="M239.07098,176.19633h1.94109" fill="none"/><path d="M239.15921,177.58407h1.85286" fill="none"/><path d="M241.10033,179.80444h-2.02931" fill="none"/><path d="M241.17719,178.39883h-2.02931" fill="none"/></g><path d="M227.85809,191.91526v-13.17857h2.70669v14.60714z" data-paper-data="{&quot;index&quot;:null}" fill="url(#color-33)" stroke="none" stroke-width="0" stroke-linecap="butt"/><path d="M238.10552,200.28308v-5.33334h4.11016v5.33334z" data-paper-data="{&quot;index&quot;:null}" fill="url(#color-34)" stroke="none" stroke-width="0" stroke-linecap="butt"/><path d="M238.46643,194.18308v-2.83333h3.38837v2.83333z" data-paper-data="{&quot;index&quot;:null}" fill="url(#color-35)" stroke="none" stroke-width="0" stroke-linecap="butt"/><path d="M240.69943,191.52779v2.41667" data-paper-data="{&quot;index&quot;:null}" fill="none" stroke="#9e9e9e" stroke-width="0.5" stroke-linecap="round"/><path d="M239.57165,191.52779v2.41667" data-paper-data="{&quot;index&quot;:null}" fill="none" stroke="#9e9e9e" stroke-width="0.5" stroke-linecap="round"/><path d="M220.97395,188.0911l-4.44084,-2.49384l-0.0979,-6.99199l4.44295,0.02536z" data-paper-data="{&quot;index&quot;:null}" fill="url(#color-36)" stroke="#ff9b00" stroke-width="0" stroke-linecap="round"/><path d="M262.31886,192.11529l-0.0694,-12.23077" data-paper-data="{&quot;index&quot;:null}" fill="none" stroke="url(#color-37)" stroke-width="2" stroke-linecap="round"/><path d="M217.80187,192.11529l0.0694,-12.23077" data-paper-data="{&quot;index&quot;:null}" fill="none" stroke="url(#color-38)" stroke-width="2" stroke-linecap="round"/><path d="M263.38879,178.94647l0.01157,13.58974" data-paper-data="{&quot;index&quot;:null}" fill="none" stroke="url(#color-39)" stroke-width="0.5" stroke-linecap="round"/><path d="M216.73191,178.94647l-0.01157,13.58974" data-paper-data="{&quot;index&quot;:null}" fill="none" stroke="url(#color-40)" stroke-width="0.5" stroke-linecap="round"/><path d="M246.38426,173.08929v-15.76398l3.40841,3.33333v12.34732z" data-paper-data="{&quot;index&quot;:null}" fill="url(#color-41)" stroke="none" stroke-width="0" stroke-linecap="butt"/><path d="M246.38426,187.83929v-14.83333h3.40841v14.83333z" data-paper-data="{&quot;index&quot;:null}" fill="url(#color-42)" stroke="none" stroke-width="0" stroke-linecap="butt"/><path d="M248.48944,200.88087h-2.10521v-13.03889l3.40841,-0.05834l0.07519,12.23611z" data-paper-data="{&quot;index&quot;:null}" fill="url(#color-43)" stroke="none" stroke-width="0" stroke-linecap="butt"/><path d="M246.42108,175.23334v-4.5h3.33824v4.5z" data-paper-data="{&quot;index&quot;:null}" fill="url(#color-44)" stroke="none" stroke-width="0" stroke-linecap="butt"/><path d="M246.42108,190.33334v-4.5h3.33824v4.5z" data-paper-data="{&quot;index&quot;:null}" fill="url(#color-45)" stroke="none" stroke-width="0" stroke-linecap="butt"/><g data-paper-data="{&quot;index&quot;:null}" fill="none" stroke-linecap="round"><path d="M264.81732,177.36467v6.8125" stroke="#b6b6b6" stroke-width="2.5"/><g><path d="M264.98648,185.05217v6.8125" stroke="#b6b6b6" stroke-width="3"/><path d="M264.53972,191.88452v-6.6875" stroke="#c2c2c2" stroke-width="2"/></g><path d="M264.37054,184.19702v-6.6875" stroke="#c2c2c2" stroke-width="1.5"/></g><g data-paper-data="{&quot;index&quot;:null}" fill="none" stroke-linecap="round"><path d="M215.3037,177.36467v6.8125" stroke="#b6b6b6" stroke-width="2.5"/><g><path d="M215.13452,191.86467v-6.8125" stroke="#b6b6b6" stroke-width="3"/><path d="M215.58129,191.88452v-6.6875" stroke="#c2c2c2" stroke-width="2"/></g><path d="M215.75047,184.19702v-6.6875" stroke="#c2c2c2" stroke-width="1.5"/></g><g data-paper-data="{&quot;index&quot;:null}" fill="#01878f" stroke="#d5d5d5" stroke-width="1" stroke-linecap="square"><g><path d="M251.38202,180.31502h0.68708v2.37914l-0.18243,-0.07353l1.17515,-1.47055c0.1453,-0.18382 0.27718,-0.33787 0.39566,-0.46217c0.12005,-0.12429 0.25036,-0.21708 0.39094,-0.27835c0.14215,-0.06303 0.31747,-0.09454 0.52597,-0.09454c0.28431,0 0.53625,0.0709 0.75579,0.2127c0.21956,0.14005 0.39171,0.3335 0.5165,0.58034c0.12478,0.2451 0.18717,0.52257 0.18717,0.83244c0,0.33437 -0.06003,0.62849 -0.18007,0.88233c-0.11846,0.25384 -0.28589,0.45342 -0.50228,0.59872c-0.21639,0.14355 -0.47068,0.21533 -0.76289,0.21533v-0.83244c0.13427,0.00525 0.25904,-0.02801 0.37435,-0.09979c0.11531,-0.07178 0.2077,-0.17244 0.27721,-0.30199c0.06949,-0.12955 0.10424,-0.27836 0.10424,-0.44642c0,-0.15756 -0.03315,-0.29761 -0.0995,-0.42016c-0.06636,-0.12254 -0.15717,-0.21795 -0.27248,-0.28623c-0.11373,-0.07003 -0.24323,-0.10504 -0.38855,-0.10504c-0.10742,0 -0.21876,0.03152 -0.33407,0.09454c-0.1153,0.06128 -0.23772,0.17332 -0.36723,0.33613l-1.66558,2.06928h-0.63495z"/><path d="M251.52786,185.02474c0.12958,-0.2548 0.3101,-0.45401 0.54152,-0.59765c0.23144,-0.14535 0.49833,-0.21803 0.80073,-0.21803h1.37465c0.30085,0 0.56699,0.07268 0.79841,0.21803c0.23141,0.14364 0.41193,0.34286 0.54152,0.59765c0.1296,0.2548 0.1944,0.54977 0.1944,0.88493c0,0.33516 -0.06481,0.63099 -0.1944,0.88749c-0.12958,0.2548 -0.3101,0.45401 -0.54152,0.59765c-0.23141,0.14364 -0.49755,0.21546 -0.79841,0.21546h-1.37465c-0.3024,0 -0.56931,-0.07182 -0.80073,-0.21546c-0.23141,-0.14364 -0.41193,-0.34286 -0.54152,-0.59765c-0.12806,-0.2565 -0.19208,-0.55233 -0.19208,-0.88749c0,-0.33516 0.06403,-0.63014 0.19208,-0.88493zM252.12029,186.36368c0.07252,0.13509 0.16972,0.24197 0.2916,0.32063c0.12189,0.07866 0.25766,0.11799 0.40731,0.11799h1.47879c0.1512,0 0.28774,-0.03933 0.40962,-0.11799c0.12187,-0.07866 0.2183,-0.18554 0.28927,-0.32063c0.07252,-0.13681 0.10878,-0.28814 0.10878,-0.45401c0,-0.16759 -0.03626,-0.31892 -0.10878,-0.45401c-0.07095,-0.13509 -0.16739,-0.24197 -0.28927,-0.32063c-0.12189,-0.07866 -0.25843,-0.11799 -0.40962,-0.11799h-1.47879c-0.14967,0 -0.28543,0.03933 -0.40731,0.11799c-0.12188,0.07866 -0.21908,0.18554 -0.2916,0.32063c-0.07097,0.13509 -0.10645,0.28643 -0.10645,0.45401c0,0.16587 0.03548,0.31721 0.10645,0.45401z"/></g><g data-paper-data="{&quot;index&quot;:null}"><path d="M229.17175,183.64476h-0.63495l-1.66558,-2.06928c-0.12951,-0.16281 -0.25192,-0.27485 -0.36723,-0.33613c-0.11531,-0.06302 -0.22668,-0.09454 -0.33407,-0.09454c-0.14531,0 -0.27482,0.03501 -0.38855,0.10504c-0.11532,0.06828 -0.20613,0.16369 -0.27248,0.28623c-0.06633,0.12255 -0.0995,0.2626 -0.0995,0.42016c0,0.16806 0.03473,0.31687 0.10424,0.44642c0.06951,0.12955 0.1619,0.23021 0.27721,0.30199c0.11532,0.07178 0.2401,0.10504 0.37435,0.09979v0.83244c-0.2922,0 -0.5465,-0.07178 -0.76289,-0.21533c-0.21638,-0.1453 -0.3838,-0.34488 -0.50228,-0.59872c-0.12005,-0.25384 -0.18007,-0.54796 -0.18007,-0.88233c0,-0.30987 0.06238,-0.58734 0.18717,-0.83244c0.12479,-0.24684 0.29696,-0.44029 0.5165,-0.58034c0.21955,-0.1418 0.47147,-0.2127 0.75579,-0.2127c0.20849,0 0.38381,0.03151 0.52597,0.09454c0.14058,0.06127 0.2709,0.15406 0.39094,0.27835c0.11845,0.1243 0.25034,0.27835 0.39566,0.46217l1.17515,1.47055l-0.18243,0.07353v-2.37914h0.68708z"/><path d="M229.21805,185.90967c0,0.33516 -0.06403,0.63099 -0.19208,0.88749c-0.12958,0.2548 -0.3101,0.45401 -0.54152,0.59765c-0.23144,0.14364 -0.49833,0.21546 -0.80073,0.21546h-1.37465c-0.30085,0 -0.56699,-0.07182 -0.79841,-0.21546c-0.23141,-0.14364 -0.41193,-0.34286 -0.54152,-0.59765c-0.1296,-0.2565 -0.1944,-0.55233 -0.1944,-0.88749c0,-0.33516 0.06481,-0.63014 0.1944,-0.88493c0.12958,-0.2548 0.3101,-0.45401 0.54152,-0.59765c0.23141,-0.14535 0.49755,-0.21803 0.79841,-0.21803h1.37465c0.3024,0 0.56931,0.07268 0.80073,0.21803c0.23141,0.14364 0.41193,0.34286 0.54152,0.59765c0.12806,0.2548 0.19208,0.54977 0.19208,0.88493zM228.53998,185.90966c0,-0.16759 -0.03548,-0.31892 -0.10645,-0.45401c-0.07252,-0.13509 -0.16972,-0.24197 -0.2916,-0.32063c-0.12189,-0.07866 -0.25766,-0.11799 -0.40731,-0.11799h-1.47879c-0.1512,0 -0.28774,0.03933 -0.40962,0.11799c-0.12187,0.07866 -0.2183,0.18554 -0.28927,0.32063c-0.07252,0.13509 -0.10878,0.28643 -0.10878,0.45401c0,0.16587 0.03626,0.31721 0.10878,0.45401c0.07095,0.13509 0.16739,0.24197 0.28927,0.32063c0.12189,0.07866 0.25843,0.11799 0.40962,0.11799h1.47879c0.14967,0 0.28543,-0.03933 0.40731,-0.11799c0.12188,-0.07866 0.21908,-0.18554 0.2916,-0.32063c0.07097,-0.13681 0.10645,-0.28814 0.10645,-0.45401z"/></g></g><g data-paper-data="{&quot;index&quot;:null}" stroke-width="0.25" stroke-linecap="square"><g><path d="M251.38202,180.31502h0.68708v2.37914l-0.18243,-0.07353l1.17515,-1.47055c0.1453,-0.18382 0.27718,-0.33787 0.39566,-0.46217c0.12005,-0.12429 0.25036,-0.21708 0.39094,-0.27835c0.14215,-0.06303 0.31747,-0.09454 0.52597,-0.09454c0.28431,0 0.53625,0.0709 0.75579,0.2127c0.21956,0.14005 0.39171,0.3335 0.5165,0.58034c0.12478,0.2451 0.18717,0.52257 0.18717,0.83244c0,0.33437 -0.06003,0.62849 -0.18007,0.88233c-0.11846,0.25384 -0.28589,0.45342 -0.50228,0.59872c-0.21639,0.14355 -0.47068,0.21533 -0.76289,0.21533v-0.83244c0.13427,0.00525 0.25904,-0.02801 0.37435,-0.09979c0.11531,-0.07178 0.2077,-0.17244 0.27721,-0.30199c0.06949,-0.12955 0.10424,-0.27836 0.10424,-0.44642c0,-0.15756 -0.03315,-0.29761 -0.0995,-0.42016c-0.06636,-0.12254 -0.15717,-0.21795 -0.27248,-0.28623c-0.11373,-0.07003 -0.24323,-0.10504 -0.38855,-0.10504c-0.10742,0 -0.21876,0.03152 -0.33407,0.09454c-0.1153,0.06128 -0.23772,0.17332 -0.36723,0.33613l-1.66558,2.06928h-0.63495z" fill="url(#color-46)" stroke="url(#color-47)"/><path d="M251.52786,185.02474c0.12958,-0.2548 0.3101,-0.45401 0.54152,-0.59765c0.23144,-0.14535 0.49833,-0.21803 0.80073,-0.21803h1.37465c0.30085,0 0.56699,0.07268 0.79841,0.21803c0.23141,0.14364 0.41193,0.34286 0.54152,0.59765c0.1296,0.2548 0.1944,0.54977 0.1944,0.88493c0,0.33516 -0.06481,0.63099 -0.1944,0.88749c-0.12958,0.2548 -0.3101,0.45401 -0.54152,0.59765c-0.23141,0.14364 -0.49755,0.21546 -0.79841,0.21546h-1.37465c-0.3024,0 -0.56931,-0.07182 -0.80073,-0.21546c-0.23141,-0.14364 -0.41193,-0.34286 -0.54152,-0.59765c-0.12806,-0.2565 -0.19208,-0.55233 -0.19208,-0.88749c0,-0.33516 0.06403,-0.63014 0.19208,-0.88493zM252.12029,186.36368c0.07252,0.13509 0.16972,0.24197 0.2916,0.32063c0.12189,0.07866 0.25766,0.11799 0.40731,0.11799h1.47879c0.1512,0 0.28774,-0.03933 0.40962,-0.11799c0.12187,-0.07866 0.2183,-0.18554 0.28927,-0.32063c0.07252,-0.13681 0.10878,-0.28814 0.10878,-0.45401c0,-0.16759 -0.03626,-0.31892 -0.10878,-0.45401c-0.07095,-0.13509 -0.16739,-0.24197 -0.28927,-0.32063c-0.12189,-0.07866 -0.25843,-0.11799 -0.40962,-0.11799h-1.47879c-0.14967,0 -0.28543,0.03933 -0.40731,0.11799c-0.12188,0.07866 -0.21908,0.18554 -0.2916,0.32063c-0.07097,0.13509 -0.10645,0.28643 -0.10645,0.45401c0,0.16587 0.03548,0.31721 0.10645,0.45401z" fill="url(#color-48)" stroke="url(#color-49)"/></g><g data-paper-data="{&quot;index&quot;:null}"><path d="M229.17175,183.64476h-0.63495l-1.66558,-2.06928c-0.12951,-0.16281 -0.25192,-0.27485 -0.36723,-0.33613c-0.11531,-0.06302 -0.22668,-0.09454 -0.33407,-0.09454c-0.14531,0 -0.27482,0.03501 -0.38855,0.10504c-0.11532,0.06828 -0.20613,0.16369 -0.27248,0.28623c-0.06633,0.12255 -0.0995,0.2626 -0.0995,0.42016c0,0.16806 0.03473,0.31687 0.10424,0.44642c0.06951,0.12955 0.1619,0.23021 0.27721,0.30199c0.11532,0.07178 0.2401,0.10504 0.37435,0.09979v0.83244c-0.2922,0 -0.5465,-0.07178 -0.76289,-0.21533c-0.21638,-0.1453 -0.3838,-0.34488 -0.50228,-0.59872c-0.12005,-0.25384 -0.18007,-0.54796 -0.18007,-0.88233c0,-0.30987 0.06238,-0.58734 0.18717,-0.83244c0.12479,-0.24684 0.29696,-0.44029 0.5165,-0.58034c0.21955,-0.1418 0.47147,-0.2127 0.75579,-0.2127c0.20849,0 0.38381,0.03151 0.52597,0.09454c0.14058,0.06127 0.2709,0.15406 0.39094,0.27835c0.11845,0.1243 0.25034,0.27835 0.39566,0.46217l1.17515,1.47055l-0.18243,0.07353v-2.37914h0.68708z" fill="url(#color-50)" stroke="url(#color-51)"/><path d="M229.21805,185.90967c0,0.33516 -0.06403,0.63099 -0.19208,0.88749c-0.12958,0.2548 -0.3101,0.45401 -0.54152,0.59765c-0.23144,0.14364 -0.49833,0.21546 -0.80073,0.21546h-1.37465c-0.30085,0 -0.56699,-0.07182 -0.79841,-0.21546c-0.23141,-0.14364 -0.41193,-0.34286 -0.54152,-0.59765c-0.1296,-0.2565 -0.1944,-0.55233 -0.1944,-0.88749c0,-0.33516 0.06481,-0.63014 0.1944,-0.88493c0.12958,-0.2548 0.3101,-0.45401 0.54152,-0.59765c0.23141,-0.14535 0.49755,-0.21803 0.79841,-0.21803h1.37465c0.3024,0 0.56931,0.07268 0.80073,0.21803c0.23141,0.14364 0.41193,0.34286 0.54152,0.59765c0.12806,0.2548 0.19208,0.54977 0.19208,0.88493zM228.53998,185.90966c0,-0.16759 -0.03548,-0.31892 -0.10645,-0.45401c-0.07252,-0.13509 -0.16972,-0.24197 -0.2916,-0.32063c-0.12189,-0.07866 -0.25766,-0.11799 -0.40731,-0.11799h-1.47879c-0.1512,0 -0.28774,0.03933 -0.40962,0.11799c-0.12187,0.07866 -0.2183,0.18554 -0.28927,0.32063c-0.07252,0.13509 -0.10878,0.28643 -0.10878,0.45401c0,0.16587 0.03626,0.31721 0.10878,0.45401c0.07095,0.13509 0.16739,0.24197 0.28927,0.32063c0.12189,0.07866 0.25843,0.11799 0.40962,0.11799h1.47879c0.14967,0 0.28543,-0.03933 0.40731,-0.11799c0.12188,-0.07866 0.21908,-0.18554 0.2916,-0.32063c0.07097,-0.13681 0.10645,-0.28814 0.10645,-0.45401z" fill="url(#color-52)" stroke="url(#color-53)"/></g></g><path d="M263.61506,178.7381v-0.92857h2.25557v0.92857z" data-paper-data="{&quot;index&quot;:null}" fill="#ff0000" stroke="none" stroke-width="0" stroke-linecap="butt"/><path d="M214.19287,178.7381v-0.92857h2.25557v0.92857z" data-paper-data="{&quot;index&quot;:null}" fill="#ff0000" stroke="none" stroke-width="0" stroke-linecap="butt"/></g></g></svg>