<svg version="1.1" xmlns="http://www.w3.org/2000/svg" xmlns:xlink="http://www.w3.org/1999/xlink" width="12.39307" height="12.39307" viewBox="0,0,12.39307,12.39307"><defs><radialGradient cx="240.00001" cy="180" r="6.19551" gradientUnits="userSpaceOnUse" id="color-1"><stop offset="0" stop-color="#dd54ff"/><stop offset="1" stop-color="#dd54ff" stop-opacity="0"/></radialGradient><linearGradient x1="241.69848" y1="176.98005" x2="238.3016" y2="183.01991" gradientUnits="userSpaceOnUse" id="color-2"><stop offset="0" stop-color="#f15aff"/><stop offset="1" stop-color="#cd50ff"/></linearGradient></defs><g transform="translate(-233.80346,-173.80346)"><g data-paper-data="{&quot;isPaintingLayer&quot;:true}" fill-rule="nonzero" stroke-linecap="butt" stroke-linejoin="miter" stroke-miterlimit="10" stroke-dasharray="" stroke-dashoffset="0" style="mix-blend-mode: normal"><path d="M245.36323,183.10163c-1.71299,2.96203 -5.50284,3.97457 -8.46486,2.26159c-2.96203,-1.71299 -3.97457,-5.50284 -2.26159,-8.46486c1.71299,-2.96203 5.50284,-3.97457 8.46486,-2.26159c2.96203,1.71299 3.97457,5.50284 2.26159,8.46486z" fill="url(#color-1)" stroke="none" stroke-width="NaN"/><path d="M241.88576,181.11388c-0.93802,1.66784 -2.54272,2.52122 -3.5842,1.90604c-1.04147,-0.6152 -1.12532,-2.46595 -0.18729,-4.13381c0.93802,-1.66784 2.54273,-2.52123 3.58421,-1.90605c1.04147,0.6152 1.12529,2.46596 0.18729,4.13381z" fill="url(#color-2)" stroke="#d014ff" stroke-width="1"/></g></g></svg>