<svg version="1.1" xmlns="http://www.w3.org/2000/svg" xmlns:xlink="http://www.w3.org/1999/xlink" width="117.28374" height="113.55186" viewBox="0,0,117.28374,113.55186"><defs><radialGradient cx="243.10652" cy="179.99344" r="58.64605" gradientUnits="userSpaceOnUse" id="color-1"><stop offset="0" stop-color="#d1b7a0"/><stop offset="1" stop-color="#d1b7a0" stop-opacity="0"/></radialGradient><radialGradient cx="243.08429" cy="180.00463" r="41.35522" gradientUnits="userSpaceOnUse" id="color-2"><stop offset="0" stop-color="#de9d64"/><stop offset="1" stop-color="#de9d64" stop-opacity="0"/></radialGradient><linearGradient x1="275.83095" y1="217.26261" x2="268.57181" y2="181.21935" gradientUnits="userSpaceOnUse" id="color-3"><stop offset="0" stop-color="#d1b7a0" stop-opacity="0"/><stop offset="1" stop-color="#d1b7a0"/></linearGradient><linearGradient x1="256.57113" y1="153.5145" x2="261.83108" y2="167.51472" gradientUnits="userSpaceOnUse" id="color-4"><stop offset="0" stop-color="#d1b7a0" stop-opacity="0"/><stop offset="1" stop-color="#d1b7a0"/></linearGradient><linearGradient x1="271.75768" y1="164.77819" x2="268.97144" y2="192.64003" gradientUnits="userSpaceOnUse" id="color-5"><stop offset="0" stop-color="#d1b7a0" stop-opacity="0"/><stop offset="1" stop-color="#d1b7a0"/></linearGradient><linearGradient x1="249.68797" y1="134.09311" x2="234.32604" y2="158.14096" gradientUnits="userSpaceOnUse" id="color-6"><stop offset="0" stop-color="#d1b7a0" stop-opacity="0"/><stop offset="1" stop-color="#d1b7a0"/></linearGradient><radialGradient cx="242.99422" cy="180.00323" r="28.83275" gradientUnits="userSpaceOnUse" id="color-7"><stop offset="0" stop-color="#ff7800"/><stop offset="1" stop-color="#ff7800" stop-opacity="0"/></radialGradient><radialGradient cx="243.06735" cy="179.99687" r="28.12069" gradientUnits="userSpaceOnUse" id="color-8"><stop offset="0" stop-color="#dd8b44"/><stop offset="1" stop-color="#dd8b44" stop-opacity="0"/></radialGradient><linearGradient x1="232.43195" y1="157.24719" x2="228.14295" y2="168.66304" gradientUnits="userSpaceOnUse" id="color-9"><stop offset="0" stop-color="#d1b7a0" stop-opacity="0"/><stop offset="1" stop-color="#d1b7a0"/></linearGradient><linearGradient x1="203.13193" y1="147.18558" x2="210.67748" y2="184.65108" gradientUnits="userSpaceOnUse" id="color-10"><stop offset="0" stop-color="#d1b7a0" stop-opacity="0"/><stop offset="1" stop-color="#d1b7a0"/></linearGradient><radialGradient cx="243.0572" cy="180.00227" r="20.21434" gradientUnits="userSpaceOnUse" id="color-11"><stop offset="0" stop-color="#ff7800" stop-opacity="0"/><stop offset="1" stop-color="#ff7800"/></radialGradient><radialGradient cx="243.0146" cy="179.99857" r="12.96245" gradientUnits="userSpaceOnUse" id="color-12"><stop offset="0" stop-color="#ffb500" stop-opacity="0"/><stop offset="1" stop-color="#ffb500"/></radialGradient><radialGradient cx="243.01851" cy="180.00112" r="9.91934" gradientUnits="userSpaceOnUse" id="color-13"><stop offset="0" stop-color="#ffca00" stop-opacity="0"/><stop offset="1" stop-color="#ffca00"/></radialGradient></defs><g transform="translate(-182.6157,-123.22407)"><g data-paper-data="{&quot;isPaintingLayer&quot;:true}" fill-rule="nonzero" stroke="none" stroke-linecap="butt" stroke-linejoin="miter" stroke-miterlimit="10" stroke-dasharray="" stroke-dashoffset="0" style="mix-blend-mode: normal"><path d="M295.12381,206.71863c-6.43383,8.96903 -19.86497,16.51717 -31.3677,21.01089c-6.39976,2.50017 -13.36442,9.0333 -20.6496,9.0333c-11.08901,0 -23.26489,0.55034 -30.93916,-5.48046c-9.07009,-7.12768 -12.96925,-21.7725 -17.39599,-33.32089c-2.41774,-6.30733 -8.4342,-10.81005 -8.4342,-17.96804c0,-7.664 -1.20532,-16.0377 2.72597,-22.31495c5.26291,-8.40353 16.75824,-14.16484 24.18468,-20.12027c9.72012,-7.79475 16.42988,-14.33414 29.8587,-14.33414c5.5504,0 11.06453,6.5225 16.20866,8.2197c7.16789,2.36491 13.61738,0.66231 18.44556,5.91483c7.15227,7.78088 10.14562,18.71003 13.74619,28.9354c2.07785,5.90099 8.36898,7.0878 8.36898,13.69944c0,10.97355 0.6398,19.20869 -4.75208,26.72521z" data-paper-data="{&quot;index&quot;:null}" fill="url(#color-1)" stroke-width="0"/><path d="M283.11614,180.00463c0,4.6623 -4.43629,5.49921 -5.90152,9.66037c-2.53898,7.21059 -4.6498,14.91746 -9.69333,20.40426c-3.40468,3.7039 -7.95263,2.50326 -13.00718,4.17093c-3.62747,1.19681 -7.51585,5.79626 -11.4298,5.79626c-9.46954,0 -14.20105,-4.61135 -21.05535,-10.10794c-5.23689,-4.19957 -13.343,-8.26225 -17.05423,-14.18814c-2.77221,-4.42651 -1.92225,-10.33135 -1.92225,-15.73575c0,-5.04757 4.24259,-8.22275 5.94751,-12.67045c3.1216,-8.14353 5.87116,-18.47056 12.26708,-23.49675c5.41164,-4.2527 13.99767,-3.86464 21.81726,-3.86464c5.13726,0 10.04851,4.60696 14.5614,6.36998c8.11133,3.16882 17.5825,8.49151 22.11943,14.81617c3.80219,5.30039 3.35102,11.10754 3.35102,18.84571z" fill="url(#color-2)" stroke-width="0"/><path d="M249.61236,189.05718c-0.02894,-0.30874 -0.04811,-0.59806 -0.05801,-0.86887c-0.13001,-3.55385 1.33357,-3.91763 3.1973,-3.06152c1.38716,-0.03492 2.65596,0.81645 3.14797,2.1164c1.72413,1.41172 3.26273,2.95406 3.79164,3.26645c0.57814,0.34145 1.77144,2.93842 2.46219,3.65788c0.01607,0.01674 3.19722,-1.47211 3.94558,-0.84062c1.68986,1.42598 2.0988,2.65589 1.60322,4.71581c-0.0935,0.38863 -0.77088,0.80109 -0.49634,1.09162c3.02603,3.20216 7.03833,3.4694 9.68875,5.4191c1.57867,1.16133 3.07865,4.19194 4.62373,5.08191c3.61419,2.08175 14.04996,3.65216 14.04996,3.65216c0,0 -6.58287,-0.47658 -10.28349,-0.61615c-4.57929,-0.17271 -6.62954,-0.35309 -8.00094,-0.97434c-1.71326,-0.77611 -5.22948,-2.95819 -6.67228,-4.18694c-3.15997,-2.69116 -5.30957,-0.89837 -8.84337,-3.24737c-1.42527,-0.94741 -1.5964,-1.71475 -1.71942,-3.15044c-0.05322,-0.62125 -9.0052,-9.01076 -10.09981,-11.12856z" data-paper-data="{&quot;index&quot;:null}" fill="url(#color-3)" stroke-width="0.5"/><path d="M253.5174,168.5025c-0.07855,-0.96653 1.20293,-5.78974 1.08747,-6.01557c-0.26683,-0.52188 -0.3731,-0.82351 -0.08542,-1.45745c0.71328,-1.57178 1.84119,-1.41628 2.35176,-3.02558c0.23312,-0.73479 0.97628,-2.24517 1.40023,-2.88205c0.33936,-0.50979 1.00793,-1.01371 2.55076,-2.0598c1.2468,-0.84537 3.41549,-2.42793 3.41549,-2.42793c0,0 -3.26246,2.79 -4.06104,4.28688c-0.3414,0.63993 -0.20608,2.00875 -0.50061,2.74954c-0.49448,1.24371 -1.82133,2.20027 -2.1756,3.95703c-0.03214,0.15938 0.29044,0.15578 0.40642,0.26973c0.61476,0.604 0.73861,1.11646 0.46273,1.97252c-0.12217,0.37911 -1.54054,0.5507 -1.54248,0.55993c-0.08335,0.39704 0.06437,1.55016 -0.06155,1.79253c-0.1152,0.22173 -0.31382,1.08534 -0.60459,1.94387c0.11029,0.55453 -0.1441,1.12161 -0.63026,1.4084c-0.45863,0.69689 -1.042,0.88667 -1.76273,-0.36756c-0.05492,-0.09557 -0.11064,-0.19953 -0.16716,-0.3123z" data-paper-data="{&quot;index&quot;:null}" fill="url(#color-4)" stroke-width="0.5"/><path d="M254.19817,187.40086c0.67,-1.68741 6.82222,-8.71962 6.81576,-9.19444c-0.01491,-1.0973 0.05697,-1.69171 1.06574,-2.51706c2.50112,-2.04636 4.26522,-0.84964 6.45725,-3.12714c1.00086,-1.03987 3.50122,-2.9584 4.74114,-3.67563c0.9925,-0.57412 2.53269,-0.86525 5.99004,-1.34108c2.79397,-0.38452 7.74683,-1.24157 7.74683,-1.24157c0,0 -7.79035,1.9762 -10.37252,3.82608c-1.1039,0.79084 -2.01235,3.20055 -3.12126,4.19956c-1.86173,1.67722 -4.88229,2.18197 -6.93433,4.83664c-0.18617,0.24085 0.35825,0.50241 0.45838,0.78989c0.53073,1.52376 0.31347,2.48663 -0.85976,3.69459c-0.51957,0.53494 -3.04252,-0.35374 -3.05344,-0.33984c-0.46928,0.59726 -1.17799,2.65522 -1.59041,2.95754c-0.3773,0.27658 -1.42712,1.56132 -2.62741,2.76105c-0.27494,1.02222 -1.17236,1.763 -2.22624,1.84102c-1.34792,0.78918 -2.48448,0.62375 -2.65365,-2.0793c-0.01289,-0.20598 -0.02016,-0.42669 -0.02149,-0.66285z" data-paper-data="{&quot;index&quot;:null}" fill="url(#color-5)" stroke-width="0.5"/><path d="M249.14103,163.97601c-0.15016,0.18807 -0.29531,0.36006 -0.43567,0.51669c-1.84193,2.05555 -2.85559,1.47031 -3.43564,-0.01203c-0.79381,-0.72781 -1.04404,-1.887 -0.61859,-2.87832c-0.20273,-1.71757 -0.23142,-3.40816 -0.35864,-3.86761c-0.13905,-0.50224 0.59331,-2.59599 0.595,-3.37007c0.00002,-0.018 -2.57933,-0.89998 -2.65724,-1.65596c-0.17589,-1.70706 0.25823,-2.6145 1.64483,-3.49839c0.2616,-0.16675 0.86227,-0.03228 0.86539,-0.34249c0.03448,-3.41924 -2.06321,-5.73008 -2.49362,-8.24724c-0.25636,-1.4993 0.5383,-4.00056 0.15452,-5.33017c-0.89774,-3.11013 -5.8821,-9.60957 -5.8821,-9.60957c0,0 3.42104,3.81265 5.41336,5.88427c2.46536,2.56348 3.51368,3.76879 3.94518,4.85469c0.53907,1.35659 1.328,4.47 1.47213,5.93377c0.31565,3.20589 2.48245,3.36234 3.19128,6.57847c0.28589,1.29715 -0.0319,1.81803 -0.73662,2.68643c-0.30496,0.37578 0.17681,9.88562 -0.35257,11.6585z" data-paper-data="{&quot;index&quot;:null}" fill="url(#color-6)" stroke-width="0.5"/><path d="M217.42043,166.86406c3.16313,-4.40954 9.76642,-8.1205 15.42162,-10.32979c3.14637,-1.22918 6.57049,-4.44113 10.15217,-4.44113c5.4518,0 11.43795,-0.27056 15.21094,2.69441c4.45922,3.50425 6.3762,10.70423 8.55257,16.38188c1.18866,3.10094 4.14659,5.31466 4.14659,8.83381c0,3.76793 0.59258,7.88478 -1.34019,10.97093c-2.58746,4.13151 -8.23903,6.964 -11.89016,9.89193c-4.7788,3.83221 -8.07759,7.04724 -14.67974,7.04724c-2.7288,0 -5.43977,-3.20672 -7.96882,-4.04114c-3.52402,-1.16269 -6.69485,-0.32561 -9.06858,-2.90797c-3.51634,-3.82539 -4.98799,-9.1986 -6.75817,-14.2258c-1.02155,-2.90116 -4.11452,-3.48465 -4.11452,-6.73519c0,-5.39504 -0.31455,-9.44376 2.33631,-13.13918z" data-paper-data="{&quot;index&quot;:null}" fill="url(#color-7)" stroke-width="0"/><path d="M268.00955,192.81156c-3.08501,4.30064 -9.52523,7.91996 -15.04076,10.07469c-3.06867,1.19882 -6.40822,4.33145 -9.90145,4.33145c-5.31716,0 -11.15547,0.26388 -14.83528,-2.62787c-4.34909,-3.41771 -6.21873,-10.43988 -8.34135,-15.97731c-1.1593,-3.02436 -4.04418,-5.1834 -4.04418,-8.61565c0,-3.67488 -0.57795,-7.69005 1.3071,-10.69998c2.52355,-4.02948 8.03555,-6.79202 11.59652,-9.64764c4.66078,-3.73757 7.8781,-6.87319 14.3172,-6.87319c2.66141,0 5.30543,3.12752 7.77203,3.94133c3.43699,1.13397 6.52951,0.31758 8.84461,2.83615c3.4295,3.73092 4.86481,8.97143 6.59127,13.87448c0.99633,2.82951 4.01291,3.39859 4.01291,6.56886c0,5.2618 0.30678,9.21053 -2.27862,12.81469z" data-paper-data="{&quot;index&quot;:null}" fill="url(#color-8)" stroke-width="0"/><path d="M234.85396,169.78829c-0.04609,0.09195 -0.09152,0.17672 -0.13631,0.25465c-0.58769,1.02271 -1.06336,0.86796 -1.43734,0.29971c-0.39641,-0.23385 -0.60383,-0.69625 -0.51391,-1.14842c-0.2371,-0.70005 -0.39906,-1.40425 -0.49299,-1.58505c-0.10268,-0.19762 0.01776,-1.13788 -0.0502,-1.46164c-0.00158,-0.00753 -1.15813,-0.14745 -1.25774,-0.45658c-0.22495,-0.69804 -0.12396,-1.1159 0.37732,-1.60841c0.09457,-0.09292 0.35761,-0.08997 0.3314,-0.21994c-0.28888,-1.43248 -1.37079,-2.21246 -1.774,-3.22658c-0.24016,-0.60405 -0.12982,-1.72019 -0.4082,-2.24199c-0.65116,-1.22056 -3.3114,-3.49554 -3.3114,-3.49554c0,0 1.76836,1.29043 2.78501,1.97975c1.25804,0.85299 1.80319,1.26388 2.0799,1.67957c0.34569,0.51931 0.95167,1.75089 1.14176,2.35004c0.41633,1.31223 1.33603,1.18543 1.91763,2.46707c0.23458,0.51692 0.14793,0.76287 -0.06965,1.18841c-0.09416,0.18414 0.95078,4.11701 0.88673,4.90513z" data-paper-data="{&quot;index&quot;:null}" fill="url(#color-9)" stroke-width="0.5"/><path d="M230.38506,176.50396c0.03009,0.32092 0.05001,0.62168 0.0603,0.90318c0.13513,3.69407 -1.38619,4.07219 -3.32346,3.18231c-1.44189,0.0363 -2.76077,-0.84865 -3.27219,-2.19991c-1.79217,-1.46743 -3.39147,-3.07063 -3.94125,-3.39534c-0.60094,-0.35494 -1.84134,-3.05436 -2.55934,-3.8022c-0.01672,-0.01739 -3.32339,1.53019 -4.10126,0.87378c-1.75655,-1.48226 -2.18161,-2.76068 -1.66648,-4.90189c0.09718,-0.40397 0.8013,-0.8327 0.51593,-1.13469c-3.14542,-3.32851 -7.31607,-3.60629 -10.07107,-5.63294c-1.64098,-1.20716 -3.20013,-4.35735 -4.80619,-5.28243c-3.75681,-2.16388 -14.60435,-3.79628 -14.60435,-3.79628c0,0 6.84262,0.49542 10.68928,0.64049c4.75997,0.17953 6.89115,0.36701 8.31665,1.01278c1.78086,0.80674 5.43583,3.07493 6.93555,4.35216c3.28465,2.79734 5.51909,0.93382 9.19233,3.37552c1.48151,0.98479 1.65938,1.78243 1.78726,3.27478c0.05534,0.64577 9.36052,9.36631 10.49831,11.56767z" fill="url(#color-10)" stroke-width="0.5"/><path d="M262.62467,180.00227c0,2.27892 -2.16845,2.688 -2.88465,4.72197c-1.24105,3.52452 -2.27281,7.29162 -4.73808,9.97356c-1.6642,1.81046 -3.88723,1.22359 -6.35788,2.03874c-1.7731,0.585 -3.67373,2.8332 -5.58686,2.8332c-4.62869,0 -6.94144,-2.25402 -10.29181,-4.94074c-2.55978,-2.05274 -6.52203,-4.03857 -8.33607,-6.93513c-1.35505,-2.16367 -0.93959,-5.04994 -0.93959,-7.6916c0,-2.46724 2.07377,-4.01926 2.90713,-6.19329c1.52583,-3.98054 2.86981,-9.02837 5.99612,-11.48516c2.6452,-2.07871 6.84203,-1.88903 10.66423,-1.88903c2.51108,0 4.91169,2.25187 7.11758,3.11363c3.9648,1.54891 8.59429,4.15063 10.81193,7.24211c1.8585,2.59082 1.63797,5.42934 1.63797,9.21174z" fill="url(#color-11)" stroke-width="0"/><path d="M230.46695,179.99857c0,-1.46137 1.39051,-1.72369 1.84978,-3.02797c0.79583,-2.2601 1.45744,-4.67575 3.0383,-6.39555c1.06716,-1.16096 2.4927,-0.78463 4.077,-1.30735c1.137,-0.37513 2.35577,-1.81679 3.58257,-1.81679c2.96815,0 4.4512,1.44539 6.59963,3.16826c1.64146,1.31632 4.18225,2.58973 5.34551,4.44715c0.86892,1.38745 0.60252,3.23829 0.60252,4.93225c0,1.58211 -1.32982,2.57734 -1.8642,3.97144c-0.97844,2.55253 -1.84025,5.78945 -3.845,7.36487c-1.69624,1.33298 -4.38746,1.21133 -6.83844,1.21133c-1.61023,0 -3.14961,-1.44401 -4.56414,-1.99661c-2.54243,-0.99324 -5.51109,-2.66159 -6.93316,-4.644c-1.19176,-1.66136 -1.05034,-3.48156 -1.05034,-5.90703z" data-paper-data="{&quot;index&quot;:null}" fill="url(#color-12)" stroke-width="0"/><path d="M234.22035,175.48085c1.08821,-1.51701 3.35995,-2.7937 5.30551,-3.55376c1.08245,-0.42288 2.26045,-1.52788 3.49265,-1.52788c1.87559,0 3.935,-0.09308 5.23302,0.92696c1.53411,1.20557 2.1936,3.68258 2.94234,5.63586c0.40894,1.06681 1.42655,1.8284 1.42655,3.0391c0,1.29629 0.20387,2.7126 -0.46107,3.77433c-0.89016,1.42137 -2.83447,2.39583 -4.09058,3.40312c-1.64405,1.3184 -2.77893,2.42446 -5.05027,2.42446c-0.93879,0 -1.87145,-1.10321 -2.74152,-1.39028c-1.21237,-0.4 -2.30323,-0.11202 -3.11986,-1.00043c-1.20972,-1.31605 -1.71602,-3.16459 -2.32502,-4.8941c-0.35145,-0.99809 -1.41552,-1.19882 -1.41552,-2.31711c0,-1.85605 -0.10822,-3.24894 0.80376,-4.52027z" data-paper-data="{&quot;index&quot;:null}" fill="url(#color-13)" stroke-width="0"/><path d="M230.45,189.27222c0,-1.38071 1.11929,-2.5 2.5,-2.5c1.38071,0 2.5,1.11929 2.5,2.5c0,1.38071 -1.11929,2.5 -2.5,2.5c-1.38071,0 -2.5,-1.11929 -2.5,-2.5z" fill="#f8b10f" stroke-width="0.5"/><path d="M238.05001,180.33889c0,-2.31959 1.88041,-4.2 4.2,-4.2c2.31959,0 4.2,1.88041 4.2,4.2c0,2.31959 -1.88041,4.2 -4.2,4.2c-2.31959,0 -4.2,-1.88041 -4.2,-4.2z" fill="#f8b10f" stroke-width="0.5"/><path d="M248.21667,189.10555c0,-1.38071 1.11929,-2.5 2.5,-2.5c1.38071,0 2.5,1.11929 2.5,2.5c0,1.38071 -1.11929,2.5 -2.5,2.5c-1.38071,0 -2.5,-1.11929 -2.5,-2.5z" fill="#f8b10f" stroke-width="0.5"/><path d="M236.40001,168.40555c0,-1.62924 1.32076,-2.95 2.95,-2.95c1.62924,0 2.95,1.32076 2.95,2.95c0,1.62924 -1.32076,2.95 -2.95,2.95c-1.62924,0 -2.95,-1.32076 -2.95,-2.95z" fill="#f8b10f" stroke-width="0.5"/></g></g></svg>