<svg version="1.1" xmlns="http://www.w3.org/2000/svg" xmlns:xlink="http://www.w3.org/1999/xlink" width="35.41789" height="39.35754" viewBox="0,0,35.41789,39.35754"><defs><linearGradient x1="232.32363" y1="162.44339" x2="242.40938" y2="162.44339" gradientUnits="userSpaceOnUse" id="color-1"><stop offset="0" stop-color="#e5e5e5" stop-opacity="0"/><stop offset="1" stop-color="#e5e5e5"/></linearGradient><linearGradient x1="232.17237" y1="197.59227" x2="242.25811" y2="197.59227" gradientUnits="userSpaceOnUse" id="color-2"><stop offset="0" stop-color="#e5e5e5" stop-opacity="0"/><stop offset="1" stop-color="#e5e5e5"/></linearGradient><linearGradient x1="244.7084" y1="183.93585" x2="244.7084" y2="187.23268" gradientUnits="userSpaceOnUse" id="color-3"><stop offset="0" stop-color="#474849"/><stop offset="1" stop-color="#474849" stop-opacity="0"/></linearGradient><linearGradient x1="244.75089" y1="172.2463" x2="244.75089" y2="175.54313" gradientUnits="userSpaceOnUse" id="color-4"><stop offset="0" stop-color="#474849" stop-opacity="0"/><stop offset="1" stop-color="#474849"/></linearGradient><linearGradient x1="256.33123" y1="172.87815" x2="257.92496" y2="181.27623" gradientUnits="userSpaceOnUse" id="color-5"><stop offset="0" stop-color="#c7c7c7"/><stop offset="1" stop-color="#c7c7c7" stop-opacity="0"/></linearGradient><linearGradient x1="258.91435" y1="176.70081" x2="256.79558" y2="183.14257" gradientUnits="userSpaceOnUse" id="color-6"><stop offset="0" stop-color="#c7c7c7"/><stop offset="1" stop-color="#c7c7c7" stop-opacity="0"/></linearGradient><linearGradient x1="242.11442" y1="232.50389" x2="331.053" y2="-43.03368" gradientUnits="userSpaceOnUse" id="color-7"><stop offset="0" stop-color="#cacaca" stop-opacity="0"/><stop offset="1" stop-color="#cacaca"/></linearGradient><linearGradient x1="247.10467" y1="214.91645" x2="306.41923" y2="31.15608" gradientUnits="userSpaceOnUse" id="color-8"><stop offset="0" stop-color="#cacaca" stop-opacity="0"/><stop offset="1" stop-color="#cacaca"/></linearGradient><linearGradient x1="257.94797" y1="187.21049" x2="256.35424" y2="178.81241" gradientUnits="userSpaceOnUse" id="color-9"><stop offset="0" stop-color="#c7c7c7"/><stop offset="1" stop-color="#c7c7c7" stop-opacity="0"/></linearGradient><linearGradient x1="255.34812" y1="183.33882" x2="257.46689" y2="176.89708" gradientUnits="userSpaceOnUse" id="color-10"><stop offset="0" stop-color="#c7c7c7"/><stop offset="1" stop-color="#c7c7c7" stop-opacity="0"/></linearGradient><radialGradient cx="244.3767" cy="173.61762" r="1.89486" gradientUnits="userSpaceOnUse" id="color-11"><stop offset="0" stop-color="#87e2ff"/><stop offset="1" stop-color="#00c1ff"/></radialGradient><radialGradient cx="244.3767" cy="170.8024" r="1.89486" gradientUnits="userSpaceOnUse" id="color-12"><stop offset="0" stop-color="#87e2ff"/><stop offset="1" stop-color="#00c1ff"/></radialGradient><linearGradient x1="242.15701" y1="172.21001" x2="247.78744" y2="172.21001" gradientUnits="userSpaceOnUse" id="color-13"><stop offset="0" stop-color="#858586"/><stop offset="1" stop-color="#6e7071"/></linearGradient><radialGradient cx="244.97224" cy="172.21001" r="2.81523" gradientUnits="userSpaceOnUse" id="color-14"><stop offset="0" stop-color="#000000" stop-opacity="0"/><stop offset="1" stop-color="#000000" stop-opacity="0"/></radialGradient><radialGradient cx="244.3767" cy="186.0524" r="1.89486" gradientUnits="userSpaceOnUse" id="color-15"><stop offset="0" stop-color="#87e2ff"/><stop offset="1" stop-color="#00c1ff"/></radialGradient><radialGradient cx="244.3767" cy="188.86762" r="1.89486" gradientUnits="userSpaceOnUse" id="color-16"><stop offset="0" stop-color="#87e2ff"/><stop offset="1" stop-color="#00c1ff"/></radialGradient><linearGradient x1="242.15701" y1="187.46002" x2="247.78744" y2="187.46002" gradientUnits="userSpaceOnUse" id="color-17"><stop offset="0" stop-color="#858586"/><stop offset="1" stop-color="#6e7071"/></linearGradient><radialGradient cx="244.97224" cy="187.46002" r="2.81523" gradientUnits="userSpaceOnUse" id="color-18"><stop offset="0" stop-color="#000000" stop-opacity="0"/><stop offset="1" stop-color="#000000" stop-opacity="0"/></radialGradient><linearGradient x1="237.36363" y1="177.99066" x2="237.36363" y2="181.34351" gradientUnits="userSpaceOnUse" id="color-19"><stop offset="0" stop-color="#434343"/><stop offset="1" stop-color="#292929"/></linearGradient><linearGradient x1="236.8752" y1="178.95073" x2="237.83023" y2="178.95073" gradientUnits="userSpaceOnUse" id="color-20"><stop offset="0" stop-color="#828282"/><stop offset="1" stop-color="#6f6f6f"/></linearGradient><linearGradient x1="237.03997" y1="180.46505" x2="236.46791" y2="179.70032" gradientUnits="userSpaceOnUse" id="color-21"><stop offset="0" stop-color="#828282"/><stop offset="1" stop-color="#6f6f6f"/></linearGradient><linearGradient x1="237.76472" y1="180.45952" x2="238.28278" y2="179.65721" gradientUnits="userSpaceOnUse" id="color-22"><stop offset="0" stop-color="#828282"/><stop offset="1" stop-color="#6f6f6f"/></linearGradient><linearGradient x1="242.0909" y1="177.99066" x2="242.0909" y2="181.34351" gradientUnits="userSpaceOnUse" id="color-23"><stop offset="0" stop-color="#434343"/><stop offset="1" stop-color="#292929"/></linearGradient><linearGradient x1="241.33091" y1="180.14631" x2="241.38058" y2="179.19256" gradientUnits="userSpaceOnUse" id="color-24"><stop offset="0" stop-color="#828282"/><stop offset="1" stop-color="#6f6f6f"/></linearGradient><linearGradient x1="242.85175" y1="180.06051" x2="242.0583" y2="180.59202" gradientUnits="userSpaceOnUse" id="color-25"><stop offset="0" stop-color="#828282"/><stop offset="1" stop-color="#6f6f6f"/></linearGradient><linearGradient x1="242.88391" y1="179.33646" x2="242.10964" y2="178.77736" gradientUnits="userSpaceOnUse" id="color-26"><stop offset="0" stop-color="#828282"/><stop offset="1" stop-color="#6f6f6f"/></linearGradient><radialGradient cx="229.00158" cy="172.08393" r="1.47449" gradientUnits="userSpaceOnUse" id="color-27"><stop offset="0" stop-color="#00d9ff"/><stop offset="1" stop-color="#00d9ff" stop-opacity="0"/></radialGradient><radialGradient cx="229.00158" cy="187.41726" r="1.47449" gradientUnits="userSpaceOnUse" id="color-28"><stop offset="0" stop-color="#00d9ff"/><stop offset="1" stop-color="#00d9ff" stop-opacity="0"/></radialGradient><radialGradient cx="229.13636" cy="172.0303" r="2.90909" gradientUnits="userSpaceOnUse" id="color-29"><stop offset="0" stop-color="#01daff"/><stop offset="1" stop-color="#01daff" stop-opacity="0"/></radialGradient><radialGradient cx="229.13636" cy="187.39394" r="2.90909" gradientUnits="userSpaceOnUse" id="color-30"><stop offset="0" stop-color="#01daff"/><stop offset="1" stop-color="#01daff" stop-opacity="0"/></radialGradient></defs><g transform="translate(-222.79921,-160.32129)"><g data-paper-data="{&quot;isPaintingLayer&quot;:true}" fill-rule="nonzero" stroke-linejoin="miter" stroke-miterlimit="10" stroke-dasharray="" stroke-dashoffset="0" style="mix-blend-mode: normal"><g stroke-width="0"><g fill="#e88b00" stroke="#8f8f8f" stroke-linecap="round"><path d="M226.44973,178.56009l-0.07371,-6.97069l1.6477,0.04968l2.54846,6.98547z" data-paper-data="{&quot;index&quot;:null}"/><path d="M230.62399,179.64756l-2.47239,8.01712l-1.6458,0.07927l-0.07373,-8.12304z"/></g><g fill="#8a8b8c" stroke="none" stroke-linecap="butt"><path d="M226.42726,175.18674v-1.54161h0.81286l0.50023,1.54161z"/><path d="M226.42726,176.61271v-0.84789h1.43816l0.25011,0.84789z"/></g><g data-paper-data="{&quot;index&quot;:null}" fill="#8a8b8c" stroke="none" stroke-linecap="butt"><path d="M227.74039,184.20512l-0.50023,1.54161h-0.81286v-1.54161z"/><path d="M228.11555,182.77915l-0.25011,0.84788h-1.43816v-0.84788z"/></g></g><path d="M242.29731,163.62005l-9.97368,-0.22413l10.08574,-2.12921z" fill="url(#color-1)" stroke="#000000" stroke-width="0" stroke-linecap="round"/><path d="M242.25811,198.76894l-10.08574,-2.12921l9.97368,-0.22413z" data-paper-data="{&quot;index&quot;:null}" fill="url(#color-2)" stroke="#000000" stroke-width="0" stroke-linecap="round"/><path d="M229.18952,176.91775c0,0 4.61134,-0.82168 6.89677,-1.07293c2.25833,-0.24826 5.1624,-0.31734 5.1624,-0.31734l-0.97428,-14.14684l2.51418,-0.9606l5.57001,4.91746l0.02252,10.1742l5.24444,-0.01161l3.57527,4.08276l-3.55693,4.20344l-5.45421,0.01207l-0.08145,10.59398l-5.23282,5.25604l-2.05175,-1.14327l0.33848,-14.6912c0,0 -2.50879,0.02933 -4.88497,-0.29433c-2.14713,-0.29245 -7.07628,-1.46231 -7.07628,-1.46231l-2.93967,-1.25215l-3.46202,-0.30701l0.10187,-1.36379l3.35412,-1.05632z" fill="#696a6b" stroke="#000000" stroke-width="0" stroke-linecap="round"/><path d="M248.41748,166.50975l-7.75907,0.95081l-0.44994,-6.12798l2.51396,-1.01129l5.62367,4.82236z" fill="#e88b00" stroke="#ffffff" stroke-width="0" stroke-linecap="round"/><path d="M248.13171,194.39243l-5.22408,5.2864l-2.60189,-1.27912l0.49415,-6.16739l7.32891,0.85431z" data-paper-data="{&quot;index&quot;:null}" fill="#e88b00" stroke="#ffffff" stroke-width="0" stroke-linecap="round"/><path d="M239.65001,182.63341c0,0 -5.70937,-0.85601 -7.07584,-1.17135c-1.62263,-0.37445 -5.62416,-1.52865 -5.62416,-1.52865" fill="none" stroke="#616263" stroke-width="1.5" stroke-linecap="round"/><path d="M254.769,177.60097l-17.70324,-1.73816l16.66204,-0.25905l1.70819,2.2179z" fill="#e88b00" stroke="#e88b00" stroke-width="0.5" stroke-linecap="round"/><path d="M255.29607,181.52477l-1.69837,2.22544l-16.66303,-0.18529l17.69538,-1.81652z" data-paper-data="{&quot;index&quot;:null}" fill="#e88b00" stroke="#e88b00" stroke-width="0.5" stroke-linecap="round"/><path d="M241.18427,183.95144l7.04099,-0.01559l0.00726,3.28124l-7.04099,0.01559z" fill="url(#color-3)" stroke="none" stroke-width="0" stroke-linecap="butt"/><path d="M241.22676,172.26188l7.04099,-0.01559l0.00726,3.28124l-7.04099,0.01559z" data-paper-data="{&quot;index&quot;:null}" fill="url(#color-4)" stroke="none" stroke-width="0" stroke-linecap="butt"/><g stroke="none" stroke-width="0" stroke-linecap="butt"><path d="M257.57358,182.36486l-0.44103,-2.324l0.70279,-2.17727l0.38176,2.48215z" data-paper-data="{&quot;index&quot;:null}" fill="url(#color-5)"/><path d="M256.53268,181.73023l0.58633,-1.78262l0.52581,2.82468l-0.62435,1.54435z" data-paper-data="{&quot;index&quot;:null}" fill="url(#color-6)"/><g><path d="M256.97619,183.30306c-0.48281,-0.2329 -0.8297,-1.89898 -0.75493,-3.96518c0.07477,-2.06619 0.50454,-3.36982 1.01152,-3.12526c0.50698,0.24456 0.827,1.9224 0.75267,3.97629c-0.07433,2.0539 -0.52645,3.34704 -1.00926,3.11414z" fill="url(#color-7)"/><path d="M257.68931,180.02677c-0.04957,1.36978 -0.3511,2.2322 -0.6731,2.07687c-0.32199,-0.15533 -0.55334,-1.26646 -0.50347,-2.64444c0.04986,-1.37798 0.3365,-2.24739 0.6746,-2.08428c0.3381,0.1631 0.55154,1.28208 0.50197,2.65186z" fill="url(#color-8)"/><path d="M256.70563,177.7238l0.44103,2.324l-0.70279,2.17727l-0.38177,-2.48215z" fill="url(#color-9)"/><path d="M257.7298,178.30942l-0.58633,1.78262l-0.52581,-2.82468l0.62435,-1.54435z" data-paper-data="{&quot;index&quot;:null}" fill="url(#color-10)"/></g></g><path d="M239.77084,191.52925l9.375,1.5" fill="none" stroke="#cf7c00" stroke-width="2.5" stroke-linecap="round"/><path d="M249.31251,166.85423l-9.375,1.5" data-paper-data="{&quot;index&quot;:null}" fill="none" stroke="#cf7c00" stroke-width="2.5" stroke-linecap="round"/><path d="M225.7143,187.09532l3.28571,0.28571" fill="none" stroke="#cf7c00" stroke-width="1.5" stroke-linecap="round"/><path d="M225.59525,172.40485l3.28572,-0.28571" data-paper-data="{&quot;index&quot;:null}" fill="none" stroke="#cf7c00" stroke-width="1.5" stroke-linecap="round"/><path d="M241.21152,182.16318c-0.23717,0.71151 -0.94868,0.47434 -0.94868,0.47434l-0.6114,-0.20613c-2.08393,-0.5235 -4.27067,-0.12298 -6.33723,-0.66765c-2.37475,-0.62589 -4.67251,-1.7544 -7.14754,-1.7544c0,0 -0.75,0 -0.75,-0.75c0,-0.75 0.75,-0.75 0.75,-0.75c2.61703,0 5.02159,1.12661 7.51913,1.80116c2.04565,0.5525 4.24934,0.14796 6.32944,0.66568l0.72194,0.23832c0,0 0.71151,0.23717 0.47434,0.94868z" fill="#616263" stroke="none" stroke-width="0.5" stroke-linecap="butt"/><path d="M240.69445,178.14823c0,0.75 -0.75,0.75 -0.75,0.75l-0.21718,-0.00754c-2.52566,-0.36618 -5.31947,-1.48413 -7.82072,-0.38644c0,0 -0.68936,0.29544 -0.9848,-0.39392c-0.29544,-0.68936 0.39392,-0.9848 0.39392,-0.9848c2.85392,-1.20002 5.74569,-0.12395 8.62373,0.28023l0.00505,-0.00754c0,0 0.75,0 0.75,0.75z" fill="#616263" stroke="none" stroke-width="0.5" stroke-linecap="butt"/><path d="M247.3596,190.97408c-0.37724,0.56586 -0.9431,0.18862 -0.9431,0.18862l-0.11185,-0.11346c-0.82085,-0.23465 -3.66548,-0.52078 -4.12992,-1.22055c-0.04056,-0.06112 0.17549,-1.54466 0.21792,-1.84685c0,0 0.09618,-0.67324 0.76942,-0.57707c0.67324,0.09618 0.57707,0.76942 0.57707,0.76942c-0.05013,0.34576 -0.59053,0.69054 -0.38659,0.97423c0.016,0.02226 2.97424,0.4926 3.32575,0.59299l0.49267,0.28956c0,0 0.56586,0.37724 0.18862,0.9431z" fill="#616263" stroke="none" stroke-width="0.5" stroke-linecap="butt"/><path d="M247.50001,170.89823c-0.27537,0 -0.44963,-0.1011 -0.55992,-0.22907c-0.90749,-0.18988 -1.83471,-0.10426 -2.77342,-0.10426c0,0 -0.75,0 -0.75,-0.75c0,-0.75 0.75,-0.75 0.75,-0.75c1.21866,0 2.35982,-0.07583 3.53937,0.25108l0.54396,0.83225c0,0 0,0.75 -0.75,0.75z" fill="#616263" stroke="none" stroke-width="0.5" stroke-linecap="butt"/><g data-paper-data="{&quot;index&quot;:null}"><path d="M246.27156,173.61762c0,0 -1.67614,0.27281 -2.36007,0.31464c-0.54978,0.03363 -1.42964,-0.08286 -1.42964,-0.08286" fill="none" stroke="url(#color-11)" stroke-width="1" stroke-linecap="round"/><path d="M246.27156,170.8024c0,0 -1.6351,0.38265 -2.30815,0.42381c-0.57453,0.03514 -1.48156,-0.19203 -1.48156,-0.19203" fill="none" stroke="url(#color-12)" stroke-width="1" stroke-linecap="round"/><path d="M243.90724,171.58191c1.03841,-0.04274 3.88021,-0.56297 3.88021,-0.56297v2.3821c0,0 -2.8085,0.44898 -3.82974,0.49102c-0.80217,0.03303 -1.8007,-0.25924 -1.8007,-0.25924v-2.3821c0,0 1.03602,0.36059 1.75023,0.33118z" fill="url(#color-13)" stroke="url(#color-14)" stroke-width="0" stroke-linecap="butt"/><path d="M247.24607,173.94246l-0.75794,0.75794h-2.16555" fill="none" stroke="#e88b00" stroke-width="0.5" stroke-linecap="round"/><path d="M244.32258,169.88628h2.16555l0.75794,0.75794" data-paper-data="{&quot;index&quot;:null}" fill="none" stroke="#e88b00" stroke-width="0.5" stroke-linecap="round"/></g><g data-paper-data="{&quot;index&quot;:null}"><path d="M242.48184,185.82061c0,0 0.87986,-0.11648 1.42964,-0.08286c0.68393,0.04182 2.36007,0.31464 2.36007,0.31464" fill="none" stroke="url(#color-15)" stroke-width="1" stroke-linecap="round"/><path d="M242.48184,188.63583c0,0 0.90703,-0.22717 1.48156,-0.19203c0.67305,0.04117 2.30815,0.42381 2.30815,0.42381" fill="none" stroke="url(#color-16)" stroke-width="1" stroke-linecap="round"/><path d="M242.15701,188.41928v-2.3821c0,0 0.99854,-0.29226 1.8007,-0.25924c1.02123,0.04205 3.82974,0.49102 3.82974,0.49102v2.3821c0,0 -2.8418,-0.52023 -3.88021,-0.56297c-0.71421,-0.0294 -1.75023,0.33118 -1.75023,0.33118z" fill="url(#color-17)" stroke="url(#color-18)" stroke-width="0" stroke-linecap="butt"/><path d="M244.32258,184.96962h2.16555l0.75794,0.75794" fill="none" stroke="#e88b00" stroke-width="0.5" stroke-linecap="round"/><path d="M247.24607,189.02578l-0.75794,0.75794h-2.16555" data-paper-data="{&quot;index&quot;:null}" fill="none" stroke="#e88b00" stroke-width="0.5" stroke-linecap="round"/></g><g stroke="#a6caca" stroke-width="0.5" stroke-linecap="round"><path d="M248.13497,180.92618c0,0 -1.24554,-0.55811 -1.24554,-1.24554c0,-0.68743 1.24554,-1.24554 1.24554,-1.24554l3.47768,0.01782c0,0 1.24554,0.55811 1.24554,1.24554c0,0.68744 -1.24554,1.24555 -1.24554,1.24555z" fill="#c7ffff"/><path d="M251.2084,180.72408v-2.15143" fill="none"/><path d="M250.23047,180.6263v-2.05364" fill="none"/><path d="M248.6658,178.47487v2.24922" fill="none"/><path d="M249.65632,180.63889v-2.24922" fill="none"/></g><g stroke-width="0"><path d="M235.3662,179.82759c0,-1.10315 0.89429,-1.99744 1.99744,-1.99744c1.10315,0 1.99744,0.89429 1.99744,1.99744c0,1.10315 -0.89429,1.99744 -1.99744,1.99744c-1.10315,0 -1.99744,-0.89429 -1.99744,-1.99744z" fill="#3d3d3d" stroke="none" stroke-linecap="butt"/><path d="M235.3662,179.62697c0,-1.10315 0.89429,-1.99744 1.99744,-1.99744c1.10315,0 1.99744,0.89429 1.99744,1.99744c0,1.10315 -0.89429,1.99743 -1.99744,1.99743c-1.10315,0 -1.99744,-0.89428 -1.99744,-1.99743z" fill="#606060" stroke="none" stroke-linecap="butt"/><path d="M235.68721,179.66709c0,-0.92586 0.75056,-1.67642 1.67642,-1.67642c0.92586,0 1.67642,0.75056 1.67642,1.67642c0,0.92586 -0.75056,1.67642 -1.67642,1.67642c-0.92586,0 -1.67642,-0.75056 -1.67642,-1.67642z" fill="url(#color-19)" stroke="none" stroke-linecap="butt"/><path d="M237.52125,179.8215h-0.30898l-0.33707,-1.74152c0,0 0.23904,-0.08426 0.47752,-0.08426c0.21975,0 0.47752,0.08426 0.47752,0.08426z" fill="url(#color-20)" stroke="#000000" stroke-linecap="round"/><path d="M237.35025,179.42616l0.18508,0.24742l-1.19263,1.31306c0,0 -0.21065,-0.14093 -0.3535,-0.3319c-0.13163,-0.17596 -0.21855,-0.43284 -0.21855,-0.43284z" fill="url(#color-21)" stroke="#000000" stroke-linecap="round"/><path d="M239.01429,180.12958c0,0 -0.06904,0.26226 -0.18824,0.44687c-0.12937,0.20035 -0.32982,0.35544 -0.32982,0.35544l-1.28017,-1.22788l0.16762,-0.25957z" data-paper-data="{&quot;index&quot;:null}" fill="url(#color-22)" stroke="#000000" stroke-linecap="round"/><path d="M237.09166,179.66709c0,-0.1502 0.12177,-0.27197 0.27197,-0.27197c0.1502,0 0.27197,0.12177 0.27197,0.27197c0,0.1502 -0.12177,0.27197 -0.27197,0.27197c-0.1502,0 -0.27197,-0.12177 -0.27197,-0.27197z" fill="#5c5c5c" stroke="none" stroke-linecap="butt"/></g><path d="M240.09347,179.82759c0,-1.10315 0.89429,-1.99744 1.99744,-1.99744c1.10315,0 1.99744,0.89429 1.99744,1.99744c0,1.10315 -0.89429,1.99744 -1.99744,1.99744c-1.10315,0 -1.99744,-0.89429 -1.99744,-1.99744z" fill="#3d3d3d" stroke="none" stroke-width="0" stroke-linecap="butt"/><path d="M240.09347,179.62697c0,-1.10315 0.89429,-1.99744 1.99744,-1.99744c1.10315,0 1.99744,0.89429 1.99744,1.99744c0,1.10315 -0.89429,1.99743 -1.99744,1.99743c-1.10315,0 -1.99744,-0.89428 -1.99744,-1.99743z" fill="#606060" stroke="none" stroke-width="0" stroke-linecap="butt"/><path d="M240.41448,179.66709c0,-0.92586 0.75056,-1.67642 1.67642,-1.67642c0.92586,0 1.67642,0.75056 1.67642,1.67642c0,0.92586 -0.75056,1.67642 -1.67642,1.67642c-0.92586,0 -1.67642,-0.75056 -1.67642,-1.67642z" fill="url(#color-23)" stroke="none" stroke-width="0" stroke-linecap="butt"/><g stroke="#000000" stroke-width="0" stroke-linecap="round"><path d="M242.23409,179.54641l-0.01607,0.30856l-1.75669,0.24604c0,0 -0.07172,-0.24309 -0.05932,-0.48125c0.01143,-0.21945 0.10898,-0.47249 0.10898,-0.47249z" fill="url(#color-24)"/><path d="M241.83039,179.69661l0.25671,-0.17196l1.24926,1.2593c0,0 -0.15169,0.20304 -0.34983,0.33577c-0.18257,0.1223 -0.44363,0.19574 -0.44363,0.19574z" fill="url(#color-25)"/><path d="M242.6194,178.07141c0,0 0.25831,0.08258 0.43647,0.21122c0.19335,0.13961 0.33781,0.34786 0.33781,0.34786l-1.29279,1.21458l-0.2505,-0.18089z" data-paper-data="{&quot;index&quot;:null}" fill="url(#color-26)"/></g><path d="M241.81893,179.66709c0,-0.1502 0.12177,-0.27197 0.27197,-0.27197c0.1502,0 0.27197,0.12177 0.27197,0.27197c0,0.1502 -0.12177,0.27197 -0.27197,0.27197c-0.1502,0 -0.27197,-0.12177 -0.27197,-0.27197z" fill="#5c5c5c" stroke="none" stroke-width="0" stroke-linecap="butt"/><g stroke="none" stroke-width="0.5" stroke-linecap="butt"><path d="M228.32103,172.08393c0,-0.37584 0.30469,-0.68053 0.68053,-0.68053c0.37584,0 0.68054,0.30469 0.68054,0.68053c0,0.37584 -0.3047,0.68053 -0.68054,0.68053c-0.37584,0 -0.68053,-0.30469 -0.68053,-0.68053z" fill="#00d9ff"/><path d="M227.52709,172.08393c0,-0.81432 0.66016,-1.47448 1.47448,-1.47448c0.81432,0 1.4745,0.66016 1.4745,1.47448c0,0.81432 -0.66018,1.47448 -1.4745,1.47448c-0.81432,0 -1.47448,-0.66016 -1.47448,-1.47448z" fill="url(#color-27)"/></g><g stroke="none" stroke-width="0.5" stroke-linecap="butt"><path d="M228.32103,187.41726c0,-0.37584 0.30469,-0.68053 0.68053,-0.68053c0.37584,0 0.68054,0.30469 0.68054,0.68053c0,0.37584 -0.3047,0.68053 -0.68054,0.68053c-0.37584,0 -0.68053,-0.30469 -0.68053,-0.68053z" fill="#00d9ff"/><path d="M227.52709,187.41726c0,-0.81432 0.66016,-1.47448 1.47448,-1.47448c0.81432,0 1.4745,0.66016 1.4745,1.47448c0,0.81432 -0.66018,1.47448 -1.4745,1.47448c-0.81432,0 -1.47448,-0.66016 -1.47448,-1.47448z" fill="url(#color-28)"/></g><path d="M226.22727,172.0303c0,-1.60665 1.30244,-2.90909 2.90909,-2.90909c1.60665,0 2.90909,1.30244 2.90909,2.90909c0,1.60665 -1.30244,2.90909 -2.90909,2.90909c-1.60665,0 -2.90909,-1.30244 -2.90909,-2.90909z" fill="url(#color-29)" stroke="none" stroke-width="0" stroke-linecap="butt"/><path d="M226.22727,187.39394c0,-1.60665 1.30244,-2.90909 2.90909,-2.90909c1.60665,0 2.90909,1.30244 2.90909,2.90909c0,1.60665 -1.30244,2.90909 -2.90909,2.90909c-1.60665,0 -2.90909,-1.30244 -2.90909,-2.90909z" fill="url(#color-30)" stroke="none" stroke-width="0" stroke-linecap="butt"/></g></g></svg>