<svg version="1.1" xmlns="http://www.w3.org/2000/svg" xmlns:xlink="http://www.w3.org/1999/xlink" width="55.75445" height="73.54118" viewBox="0,0,55.75445,73.54118"><defs><radialGradient cx="240.41802" cy="205.42801" r="12.35459" gradientUnits="userSpaceOnUse" id="color-1"><stop offset="0" stop-color="#fcec00"/><stop offset="1" stop-color="#fcec00" stop-opacity="0"/></radialGradient><linearGradient x1="241.38266" y1="204.32199" x2="241.38266" y2="221.18562" gradientUnits="userSpaceOnUse" id="color-2"><stop offset="0" stop-color="#ffffff"/><stop offset="1" stop-color="#ffffff" stop-opacity="0"/></linearGradient><radialGradient cx="241.15267" cy="208.21144" r="8.89813" gradientUnits="userSpaceOnUse" id="color-3"><stop offset="0" stop-color="#f5eb75"/><stop offset="1" stop-color="#f5eb75" stop-opacity="0"/></radialGradient><linearGradient x1="241.97314" y1="125.00035" x2="241.97314" y2="219.0264" gradientUnits="userSpaceOnUse" id="color-4"><stop offset="0" stop-color="#a300f2"/><stop offset="1" stop-color="#a300f2" stop-opacity="0"/></linearGradient><linearGradient x1="242.21086" y1="96.98159" x2="242.21086" y2="225.0022" gradientUnits="userSpaceOnUse" id="color-5"><stop offset="0" stop-color="#f1f1f1"/><stop offset="1" stop-color="#f1f1f1" stop-opacity="0"/></linearGradient><linearGradient x1="241.20259" y1="204.61824" x2="241.20259" y2="212.526" gradientUnits="userSpaceOnUse" id="color-6"><stop offset="0" stop-color="#ff4f00"/><stop offset="1" stop-color="#ff4f00" stop-opacity="0"/></linearGradient><linearGradient x1="241.27057" y1="204.86498" x2="241.27057" y2="210.21081" gradientUnits="userSpaceOnUse" id="color-7"><stop offset="0" stop-color="#ffd400"/><stop offset="1" stop-color="#ffd400" stop-opacity="0"/></linearGradient><linearGradient x1="241.27285" y1="204.50692" x2="241.27285" y2="213.38924" gradientUnits="userSpaceOnUse" id="color-8"><stop offset="0" stop-color="#ffee00"/><stop offset="1" stop-color="#ffee00" stop-opacity="0"/></linearGradient><linearGradient x1="241.34537" y1="204.43397" x2="241.34537" y2="208.32135" gradientUnits="userSpaceOnUse" id="color-9"><stop offset="0" stop-color="#ffee00"/><stop offset="1" stop-color="#ffee00" stop-opacity="0"/></linearGradient><linearGradient x1="239.30262" y1="204.50692" x2="239.30262" y2="208.3943" gradientUnits="userSpaceOnUse" id="color-10"><stop offset="0" stop-color="#ffee00"/><stop offset="1" stop-color="#ffee00" stop-opacity="0"/></linearGradient><linearGradient x1="243.38814" y1="204.50692" x2="243.38814" y2="208.3943" gradientUnits="userSpaceOnUse" id="color-11"><stop offset="0" stop-color="#ffee00"/><stop offset="1" stop-color="#ffee00" stop-opacity="0"/></linearGradient><radialGradient cx="241.31326" cy="208.44532" r="6.32236" gradientUnits="userSpaceOnUse" id="color-12"><stop offset="0" stop-color="#feea00"/><stop offset="1" stop-color="#feea00" stop-opacity="0"/></radialGradient><radialGradient cx="241.14843" cy="207.6431" r="6.32236" gradientUnits="userSpaceOnUse" id="color-13"><stop offset="0" stop-color="#feea00"/><stop offset="1" stop-color="#feea00" stop-opacity="0"/></radialGradient><linearGradient x1="245.63644" y1="206.17629" x2="237.25633" y2="206.17629" gradientUnits="userSpaceOnUse" id="color-14"><stop offset="0" stop-color="#5f5f5f"/><stop offset="1" stop-color="#4c4c4c"/></linearGradient><linearGradient x1="245.63644" y1="206.17629" x2="237.25633" y2="206.17629" gradientUnits="userSpaceOnUse" id="color-15"><stop offset="0" stop-color="#949494"/><stop offset="1" stop-color="#757575"/></linearGradient><linearGradient x1="245.37802" y1="204.37465" x2="242.65918" y2="204.37465" gradientUnits="userSpaceOnUse" id="color-16"><stop offset="0" stop-color="#4c4c4c"/><stop offset="1" stop-color="#4c4c4c" stop-opacity="0"/></linearGradient><linearGradient x1="237.51536" y1="204.37464" x2="240.23421" y2="204.37464" gradientUnits="userSpaceOnUse" id="color-17"><stop offset="0" stop-color="#5f5f5f"/><stop offset="1" stop-color="#5f5f5f" stop-opacity="0"/></linearGradient><linearGradient x1="245.95968" y1="163.38448" x2="238.11718" y2="163.38448" gradientUnits="userSpaceOnUse" id="color-18"><stop offset="0" stop-color="#d40000"/><stop offset="1" stop-color="#a30000"/></linearGradient><linearGradient x1="243.84211" y1="168.02614" x2="238.4826" y2="168.02614" gradientUnits="userSpaceOnUse" id="color-19"><stop offset="0" stop-color="#5f5f5f"/><stop offset="1" stop-color="#a8a8a8"/></linearGradient><linearGradient x1="241.12139" y1="161.7035" x2="241.12139" y2="162.63897" gradientUnits="userSpaceOnUse" id="color-20"><stop offset="0" stop-color="#7a7a7a"/><stop offset="1" stop-color="#646464"/></linearGradient><linearGradient x1="242.03919" y1="165.33023" x2="241.85366" y2="165.33023" gradientUnits="userSpaceOnUse" id="color-21"><stop offset="0" stop-color="#00eeec"/><stop offset="1" stop-color="#1cfff4"/></linearGradient><linearGradient x1="251.05683" y1="180.92513" x2="247.55253" y2="180.92513" gradientUnits="userSpaceOnUse" id="color-22"><stop offset="0" stop-color="#dedede"/><stop offset="1" stop-color="#dedede" stop-opacity="0"/></linearGradient><linearGradient x1="245.83317" y1="204.12799" x2="237.0631" y2="204.12799" gradientUnits="userSpaceOnUse" id="color-23"><stop offset="0" stop-color="#888888"/><stop offset="1" stop-color="#696969"/></linearGradient><linearGradient x1="231.37094" y1="185.7029" x2="228.69117" y2="185.7029" gradientUnits="userSpaceOnUse" id="color-24"><stop offset="0" stop-color="#dd0000"/><stop offset="1" stop-color="#dd0000" stop-opacity="0"/></linearGradient><linearGradient x1="231.40407" y1="196.20952" x2="228.62123" y2="196.20952" gradientUnits="userSpaceOnUse" id="color-25"><stop offset="0" stop-color="#dfdfdf"/><stop offset="1" stop-color="#dfdfdf" stop-opacity="0"/></linearGradient><linearGradient x1="241.48493" y1="206.57578" x2="241.48493" y2="212.84851" gradientUnits="userSpaceOnUse" id="color-26"><stop offset="0" stop-color="#fde704"/><stop offset="1" stop-color="#fde704" stop-opacity="0"/></linearGradient><linearGradient x1="239.88451" y1="178.0902" x2="242.39342" y2="178.0902" gradientUnits="userSpaceOnUse" id="color-27"><stop offset="0" stop-color="#c7ffff"/><stop offset="1" stop-color="#91f5f5"/></linearGradient><linearGradient x1="239.40972" y1="192.79167" x2="243.03472" y2="192.79167" gradientUnits="userSpaceOnUse" id="color-28"><stop offset="0" stop-color="#bf0000"/><stop offset="1" stop-color="#bf0000"/></linearGradient><linearGradient x1="239.40972" y1="198.47917" x2="243.03472" y2="198.47917" gradientUnits="userSpaceOnUse" id="color-29"><stop offset="0" stop-color="#bf0000"/><stop offset="1" stop-color="#bf0000"/></linearGradient></defs><g transform="translate(-212.70616,-152.85958)"><g data-paper-data="{&quot;isPaintingLayer&quot;:true}" fill-rule="nonzero" stroke-linejoin="miter" stroke-miterlimit="10" stroke-dasharray="" stroke-dashoffset="0" style="mix-blend-mode: normal"><path d="M238.9375,153.91667v-1h1.125v1z" fill="#cecece" stroke="none" stroke-width="0" stroke-linecap="butt"/><path d="M252.60788,205.42801c0,6.82325 -5.45758,12.35459 -12.18986,12.35459c-6.73227,0 -12.18987,-5.53134 -12.18987,-12.35459c0,-6.82325 5.45759,-12.35459 12.18987,-12.35459c6.73227,0 12.18986,5.53134 12.18986,12.35459z" fill="url(#color-1)" stroke="none" stroke-width="0" stroke-linecap="butt"/><g data-paper-data="{&quot;index&quot;:null}" stroke-width="0"><path d="M243.88266,204.32199l-2.5,16.86364l-2.5,-16.86364z" fill="url(#color-2)" stroke="#000000" stroke-linecap="round"/><path d="M241.15269,200.33698c4.31079,0 7.80538,3.52552 7.80538,7.87446c0,4.34894 -3.49458,7.87446 -7.80538,7.87446c-4.3108,0 -7.80538,-3.52552 -7.80538,-7.87446c0,-4.34894 3.49458,-7.87446 7.80538,-7.87446z" fill="url(#color-3)" stroke="none" stroke-linecap="butt"/><g stroke="#000000" stroke-linecap="round"><path d="M243.53535,205.12113l-2.35162,14.93246l-1.99752,-14.93246z" fill="url(#color-4)"/><path d="M244.33784,206.06955l-3.20183,20.33121l-2.71971,-20.33121z" fill="url(#color-5)"/><path d="M242.37412,204.61824c0,0 1.85822,0.46537 1.8305,2.41626c-0.06512,4.58168 -2.70914,5.49149 -2.70914,5.49149c0,0 -3.13397,-1.02334 -3.2949,-5.49149c-0.06733,-1.86924 1.90371,-2.41626 1.90371,-2.41626z" fill="url(#color-6)"/><path d="M242.06255,204.86498c0,0 1.2562,0.3146 1.23746,1.63345c-0.04402,3.09733 -1.83145,3.71239 -1.83145,3.71239c0,0 -2.11864,-0.69182 -2.22743,-3.71239c-0.04551,-1.26365 1.28696,-1.63345 1.28696,-1.63345z" fill="url(#color-7)"/><path d="M242.58875,204.50692c0,0 2.08723,0.52272 2.05609,2.71404c-0.07315,5.14633 -3.04302,6.16828 -3.04302,6.16828c0,0 -3.52021,-1.14947 -3.70096,-6.16828c-0.07562,-2.0996 2.13833,-2.71404 2.13833,-2.71404z" fill="url(#color-8)"/><path d="M241.9213,204.43397c0,0 0.91349,0.22877 0.89985,1.18781c-0.03201,2.25231 -1.33179,2.69957 -1.33179,2.69957c0,0 -1.54063,-0.50307 -1.61974,-2.69957c-0.03309,-0.9189 0.93585,-1.18781 0.93585,-1.18781z" fill="url(#color-9)"/><path d="M239.87852,204.50692c0,0 0.91349,0.22877 0.89986,1.18781c-0.03201,2.25231 -1.33179,2.69957 -1.33179,2.69957c0,0 -1.54064,-0.50307 -1.61975,-2.69957c-0.0331,-0.91889 0.93585,-1.18781 0.93585,-1.18781z" fill="url(#color-10)"/><path d="M243.96405,204.50692c0,0 0.91349,0.22877 0.89986,1.18781c-0.03201,2.25231 -1.33179,2.69957 -1.33179,2.69957c0,0 -1.54064,-0.50307 -1.61975,-2.69957c-0.0331,-0.91889 0.93585,-1.18781 0.93585,-1.18781z" fill="url(#color-11)"/></g><path d="M241.31326,202.85031c3.06294,0 5.54593,2.50497 5.54593,5.59501c0,3.09004 -2.483,5.59501 -5.54593,5.59501c-3.06294,0 -5.54593,-2.50497 -5.54593,-5.59501c0,-3.09004 2.483,-5.59501 5.54593,-5.59501z" fill="url(#color-12)" stroke="none" stroke-linecap="butt"/><path d="M241.14844,202.04809c3.06294,0 5.54593,2.50497 5.54593,5.59501c0,3.09004 -2.48299,5.59501 -5.54593,5.59501c-3.06294,0 -5.54593,-2.50497 -5.54593,-5.59501c0,-3.09003 2.48299,-5.59501 5.54593,-5.59501z" fill="url(#color-13)" stroke="none" stroke-linecap="butt"/></g><path d="M229.16674,181.29168l1,18.16666l-14.66666,-7.66666v-10.66666z" data-paper-data="{&quot;index&quot;:null}" fill="none" stroke="#bf0000" stroke-width="5" stroke-linecap="round"/><g data-paper-data="{&quot;index&quot;:null}" fill="#cecece"><path d="M238.8309,156.5283v-3.54546l2.90909,3.54546z" stroke="none" stroke-width="0" stroke-linecap="butt"/><path d="M244.74834,199.72879l-10.10296,-0.0566l-2.5722,-0.71141l-0.18805,-37.7619l5.71689,-5.42857v15.95287c0,0 0.69143,1.79051 2.55923,1.79051c1.90103,0 2.59992,-1.92095 2.59992,-1.92095v-15.66277l5.57746,5.42857l0.15778,37.58147z" stroke="#cecece" stroke-width="2.5" stroke-linecap="round"/></g><path d="M241.44638,205.33538c2.3141,0 4.19005,0.37649 4.19005,0.84091c0,0.46442 -1.87595,0.84091 -4.19005,0.84091c-2.3141,0 -4.19005,-0.37649 -4.19005,-0.84091c0,-0.46442 1.87595,-0.84091 4.19005,-0.84091z" data-paper-data="{&quot;index&quot;:null}" fill="url(#color-14)" stroke="url(#color-15)" stroke-width="0.5" stroke-linecap="butt"/><path d="M245.37803,206.23671c0,0 -0.77072,0.27881 -1.20357,0.35477c-0.47935,0.08412 -1.54727,0.12799 -1.54727,0.12799l0.03198,-4.2069h2.71885v3.72414z" data-paper-data="{&quot;index&quot;:null}" fill="url(#color-16)" stroke="none" stroke-width="0" stroke-linecap="butt"/><path d="M237.51533,206.23671v-3.72414h2.71886l0.03198,4.2069c0,0 -1.06793,-0.04386 -1.54727,-0.12799c-0.43285,-0.07597 -1.20357,-0.35477 -1.20357,-0.35477z" data-paper-data="{&quot;index&quot;:null}" fill="url(#color-17)" stroke="none" stroke-width="0" stroke-linecap="butt"/><path d="M245.95968,173.47539l-7.84251,-1.36364l1.26492,-16.90909c0,0 0.37699,0.18974 0.75895,0.09091c0.38195,-0.09882 0.73184,-0.18471 1.34924,-0.63636c0.61741,-0.45165 1.43358,-1.36364 1.43358,-1.36364z" data-paper-data="{&quot;index&quot;:null}" fill="url(#color-18)" stroke="#ff0000" stroke-width="0" stroke-linecap="round"/><path d="M238.4826,173.92513v-11.79798h5.35951v11.79798z" data-paper-data="{&quot;index&quot;:null}" fill="url(#color-19)" stroke="none" stroke-width="0" stroke-linecap="butt"/><path d="M241.12138,161.7035c1.10348,0 1.99803,0.20942 1.99803,0.46775c0,0.25833 -0.89455,0.46774 -1.99803,0.46774c-1.10347,0 -1.99802,-0.20941 -1.99802,-0.46774c0,-0.25833 0.89454,-0.46775 1.99802,-0.46775z" data-paper-data="{&quot;index&quot;:null}" fill="url(#color-20)" stroke="#7e7e7e" stroke-width="0.5" stroke-linecap="butt"/><path d="M264.96774,194.8692v-1.9375h0.98558v1.9375z" data-paper-data="{&quot;index&quot;:null}" fill="#d80000" stroke="none" stroke-width="0" stroke-linecap="butt"/><path d="M265.43155,194.8067l-15.65338,8.375h-8.40644" data-paper-data="{&quot;index&quot;:null}" fill="none" stroke="#d80000" stroke-width="1" stroke-linecap="round"/><path d="M265.37355,193.9317l-15.65338,8.375h-8.40644" data-paper-data="{&quot;index&quot;:null}" fill="none" stroke="#d80000" stroke-width="1" stroke-linecap="round"/><path d="M265.54746,192.9942l-15.65338,8.375h-8.40644" data-paper-data="{&quot;index&quot;:null}" fill="none" stroke="#d80000" stroke-width="1" stroke-linecap="round"/><path d="M265.98228,192.39504l-16.37485,8.625l-8.43957,0.03917l-0.04382,-21.91417l24.46298,-0.125z" data-paper-data="{&quot;index&quot;:null}" fill="#ff0000" stroke="#b6b6b6" stroke-width="0" stroke-linecap="round"/><path d="M265.15132,179.10184l0.01189,13.58974" data-paper-data="{&quot;index&quot;:null}" fill="none" stroke="#df0000" stroke-width="0.5" stroke-linecap="round"/><path d="M263.97992,180.03989l0.07135,12.23077" data-paper-data="{&quot;index&quot;:null}" fill="none" stroke="#f00000" stroke-width="2" stroke-linecap="round"/><path d="M263.07526,180.40343v-1.35714h1.78896v1.35714z" data-paper-data="{&quot;index&quot;:null}" fill="#f00000" stroke="none" stroke-width="0" stroke-linecap="butt"/><path d="M242.33657,199.76058v-19.28572" data-paper-data="{&quot;index&quot;:null}" fill="none" stroke="#f00000" stroke-width="2.5" stroke-linecap="round"/><path d="M241.14397,183.90343v-4.71428h2.31902v4.71428z" data-paper-data="{&quot;index&quot;:null}" fill="#f00000" stroke="none" stroke-width="0" stroke-linecap="butt"/><path d="M241.14397,200.97486v-6h2.31902v6z" data-paper-data="{&quot;index&quot;:null}" fill="#f00000" stroke="none" stroke-width="0" stroke-linecap="butt"/><path d="M253.4016,182.97486v9.5c0,0 -0.19363,2.19082 -2.44932,2.17661c-2.22817,-0.01403 -2.45374,-2.10518 -2.45374,-2.10518l-0.06626,-9.57143z" data-paper-data="{&quot;index&quot;:null}" fill="#f70000" stroke="#fa0000" stroke-width="1" stroke-linecap="round"/><path d="M251.63339,184.8692v7.1875" data-paper-data="{&quot;index&quot;:null}" fill="none" stroke="#f50000" stroke-width="1" stroke-linecap="round"/><path d="M249.95207,192.6192l-0.11595,-8.6875" data-paper-data="{&quot;index&quot;:null}" fill="none" stroke="#f50000" stroke-width="1" stroke-linecap="round"/><path d="M252.32907,182.9942l-2.89877,-0.0625" data-paper-data="{&quot;index&quot;:null}" fill="none" stroke="#f50000" stroke-width="1" stroke-linecap="round"/><path d="M260.44563,181.3067v7.9375" data-paper-data="{&quot;index&quot;:null}" fill="none" stroke="#fa0000" stroke-width="1" stroke-linecap="round"/><path d="M254.87999,182.2442v11.875" data-paper-data="{&quot;index&quot;:null}" fill="none" stroke="#fa0000" stroke-width="1" stroke-linecap="round"/><path d="M246.99535,184.4317l0.05798,11.1875" data-paper-data="{&quot;index&quot;:null}" fill="none" stroke="#fa0000" stroke-width="1" stroke-linecap="round"/><path d="M257.37293,194.4942l-0.11595,-5.125" data-paper-data="{&quot;index&quot;:null}" fill="none" stroke="#fa0000" stroke-width="1" stroke-linecap="round"/><path d="M244.79225,181.5567l-0.05798,11" data-paper-data="{&quot;index&quot;:null}" fill="none" stroke="#fa0000" stroke-width="1" stroke-linecap="round"/><path d="M240.84993,203.11921v-2.0625h0.57975v2.0625z" data-paper-data="{&quot;index&quot;:null}" fill="#d80000" stroke="none" stroke-width="0" stroke-linecap="butt"/><g data-paper-data="{&quot;index&quot;:null}"><path d="M215.09,194.8692v-1.9375h1.03623v1.9375z" fill="#d80000" stroke="none" stroke-width="0" stroke-linecap="butt"/><path d="M240.93495,203.1817h-8.83847l-16.45785,-8.375" fill="none" stroke="#d80000" stroke-width="1" stroke-linecap="round"/><path d="M240.99589,202.3067h-8.83847l-16.45785,-8.375" fill="none" stroke="#d80000" stroke-width="1" stroke-linecap="round"/><path d="M240.81302,201.3692h-8.83847l-16.45785,-8.375" fill="none" stroke="#d80000" stroke-width="1" stroke-linecap="round"/><path d="M215.47513,179.02004l25.7202,0.125l-0.04607,21.91417l-8.8733,-0.03917l-17.2164,-8.625z" fill="#ff0000" stroke="#b6b6b6" stroke-width="0" stroke-linecap="round"/><path d="M214.20616,178.89504v13.125" fill="none" stroke="#b6b6b6" stroke-width="3" stroke-linecap="round"/><path d="M215.92071,192.69158l0.0125,-13.58974" fill="none" stroke="#df0000" stroke-width="0.5" stroke-linecap="round"/><path d="M214.68911,179.03989v13" fill="none" stroke="#c2c2c2" stroke-width="2" stroke-linecap="round"/><path d="M217.16482,180.03989l-0.07502,12.23077" fill="none" stroke="#f00000" stroke-width="2" stroke-linecap="round"/><path d="M216.23512,180.40343v-1.35714h1.8809v1.35714z" fill="#f00000" stroke="none" stroke-width="0" stroke-linecap="butt"/><path d="M239.92044,180.47486v19.28572" fill="none" stroke="#f00000" stroke-width="2.5" stroke-linecap="round"/><path d="M238.73622,183.90343v-4.71428h2.4382v4.71428z" fill="#f00000" stroke="none" stroke-width="0" stroke-linecap="butt"/><path d="M238.73622,200.97486v-6h2.4382v6z" fill="#f00000" stroke="none" stroke-width="0" stroke-linecap="butt"/><path d="M233.51148,182.97486l-0.06967,9.57143c0,0 -0.23715,2.09115 -2.57984,2.10518c-2.37161,0.01421 -2.5752,-2.17661 -2.5752,-2.17661v-9.5z" fill="#f70000" stroke="#fa0000" stroke-width="1" stroke-linecap="round"/><path d="M230.14592,184.8692v7.1875" fill="none" stroke="#f50000" stroke-width="1" stroke-linecap="round"/><path d="M231.91357,192.6192l0.12191,-8.6875" fill="none" stroke="#f50000" stroke-width="1" stroke-linecap="round"/><path d="M232.46217,182.9317l-3.04775,0.0625" fill="none" stroke="#f50000" stroke-width="1" stroke-linecap="round"/><path d="M220.88074,181.3067v7.9375" fill="none" stroke="#fa0000" stroke-width="1" stroke-linecap="round"/><path d="M226.73239,182.2442v11.875" fill="none" stroke="#fa0000" stroke-width="1" stroke-linecap="round"/><path d="M234.96132,195.6192l0.06096,-11.1875" fill="none" stroke="#fa0000" stroke-width="1" stroke-linecap="round"/><path d="M224.23328,189.3692l-0.12191,5.125" fill="none" stroke="#fa0000" stroke-width="1" stroke-linecap="round"/><path d="M237.33856,181.5567l0.06096,11" fill="none" stroke="#fa0000" stroke-width="1" stroke-linecap="round"/><path d="M240.87396,203.11921v-2.0625h0.60954v2.0625z" fill="#d80000" stroke="none" stroke-width="0" stroke-linecap="butt"/></g><path d="M240.15162,167.768v-4.77419h0.23938v4.77419z" data-paper-data="{&quot;index&quot;:null}" fill="#1dfffb" stroke="none" stroke-width="0" stroke-linecap="butt"/><path d="M242.58654,153.56627l-0.08433,17.45455c0,0 -0.23732,0.86024 -1.26491,0.90909c-1.05165,0.04999 -1.43358,-0.90909 -1.43358,-0.90909v-17.45455" data-paper-data="{&quot;index&quot;:null}" fill="none" stroke="#acacac" stroke-width="1" stroke-linecap="round"/><path d="M246.10958,199.67197l-10.73106,-0.0566l-2.73211,-0.71141l-0.19974,-37.7619l6.07231,-5.42857v15.95287c0,0 0.73442,1.79051 2.71834,1.79051c2.01921,0 2.76156,-1.92095 2.76156,-1.92095v-15.66277l5.92421,5.42857l0.16759,37.58147z" data-paper-data="{&quot;index&quot;:null}" fill="#ff0000" stroke="#ff0000" stroke-width="2.5" stroke-linecap="round"/><path d="M245.59426,195.70291l0.10307,-18.33333" data-paper-data="{&quot;index&quot;:null}" fill="none" stroke="#fa0000" stroke-width="1" stroke-linecap="round"/><path d="M234.87525,177.36958l-0.10307,11.77777" data-paper-data="{&quot;index&quot;:null}" fill="none" stroke="#fa0000" stroke-width="1" stroke-linecap="round"/><path d="M237.4519,184.92513l-0.20613,10.66666" data-paper-data="{&quot;index&quot;:null}" fill="none" stroke="#fa0000" stroke-width="1" stroke-linecap="round"/><path d="M243.73905,186.36958v13.33333" data-paper-data="{&quot;index&quot;:null}" fill="none" stroke="#fa0000" stroke-width="1" stroke-linecap="round"/><path d="M238.79179,180.81402l-0.10307,-7" data-paper-data="{&quot;index&quot;:null}" fill="none" stroke="#fa0000" stroke-width="1" stroke-linecap="round"/><path d="M246.62495,173.25845l-0.20614,-13.77777" data-paper-data="{&quot;index&quot;:null}" fill="none" stroke="#fa0000" stroke-width="1" stroke-linecap="round"/><path d="M233.53534,160.48066l0.20613,12.11111" data-paper-data="{&quot;index&quot;:null}" fill="none" stroke="#fa0000" stroke-width="1" stroke-linecap="round"/><path d="M236.009,161.14735l0.3092,13" data-paper-data="{&quot;index&quot;:null}" fill="none" stroke="#fa0000" stroke-width="1" stroke-linecap="round"/><path d="M241.85367,167.68025v-4.7h0.18552v4.7z" data-paper-data="{&quot;index&quot;:null}" fill="url(#color-21)" stroke="none" stroke-width="0" stroke-linecap="butt"/><path d="M241.01938,167.86479v-4.80645h0.20946v4.80645z" data-paper-data="{&quot;index&quot;:null}" fill="#1dfffb" stroke="none" stroke-width="0" stroke-linecap="butt"/><path d="M251.05684,160.86958l-0.10307,39.33333l-1.44295,0.66667h-5.25645v-13.66667l3.71043,-3.77778v-11.77778l-1.85522,-1.88889l-0.10307,-13.44444z" data-paper-data="{&quot;index&quot;:null}" fill="#ffffff" stroke="#f5f5f5" stroke-width="0.5" stroke-linecap="round"/><path d="M249.71696,201.03625h-2.16442v-43.55556l3.50429,3.33333v39.44444z" data-paper-data="{&quot;index&quot;:null}" fill="url(#color-22)" stroke="none" stroke-width="0" stroke-linecap="butt"/><path d="M236.39933,156.09178l-0.10307,13.44444l-1.85522,1.88889v11.77778l3.71043,3.77777v13.66667h-5.25644l-1.44295,-0.66667l-0.10307,-39.33333z" data-paper-data="{&quot;index&quot;:null}" fill="#ffffff" stroke="#f5f5f5" stroke-width="0.5" stroke-linecap="round"/><path d="M251.26815,192.90476l14.00688,-2.3l-0.09276,2l-13.91412,7.6z" data-paper-data="{&quot;index&quot;:null}" fill="#ffffff" stroke="#f5f5f5" stroke-width="0.5" stroke-linecap="round"/><path d="M231.13903,199.80476l-13.98547,-7.6c0,0 -0.00853,-0.79603 -0.01232,-1.15051c-0.00326,-0.3046 -0.00909,-0.84949 -0.00909,-0.84949l14.00688,2.3z" data-paper-data="{&quot;index&quot;:null}" fill="#ffffff" stroke="#f5f5f5" stroke-width="0.5" stroke-linecap="round"/><g data-paper-data="{&quot;index&quot;:null}" fill="none" stroke-linecap="round"><path d="M266.96061,178.89504v13.125" stroke="#b6b6b6" stroke-width="3"/><path d="M266.50127,179.03989v13" stroke="#c2c2c2" stroke-width="2"/></g><path d="M245.83318,206.26435c0,0 -2.32009,-0.63636 -4.34289,-0.63636c-1.99467,0 -4.42722,0.63636 -4.42722,0.63636v-4.27273c0,0 2.35508,-0.48772 4.38505,-0.5c2.0307,-0.01228 4.38505,0.5 4.38505,0.5v4.27273z" data-paper-data="{&quot;index&quot;:null}" fill="url(#color-23)" stroke="none" stroke-width="0" stroke-linecap="butt"/><path d="M228.69118,191.75392v-12.60657h2.67976v13.11111z" data-paper-data="{&quot;index&quot;:null}" fill="url(#color-24)" stroke="none" stroke-width="0" stroke-linecap="butt"/><path d="M228.62125,198.70952v-6.92857l2.78282,0.5v7.85714z" data-paper-data="{&quot;index&quot;:null}" fill="url(#color-25)" stroke="none" stroke-width="0" stroke-linecap="butt"/><g data-paper-data="{&quot;index&quot;:null}"><g><path d="M259.83164,182.19617v-4.09091" fill="none" stroke="#b6b6b6" stroke-width="2.5" stroke-linecap="round"/><path d="M258.46129,183.18102v-3.91667" fill="none" stroke="#df0000" stroke-width="0.5" stroke-linecap="round"/><path d="M256.79581,183.40072v-4.31818h1.47574v4.31818z" fill="#f00000" stroke="none" stroke-width="0" stroke-linecap="butt"/></g><path d="M259.40998,178.26435l0.04216,4.18182" fill="none" stroke="#c2c2c2" stroke-width="1.5" stroke-linecap="round"/></g><g data-paper-data="{&quot;index&quot;:null}"><g><path d="M222.76952,182.19617v-4.09091" fill="none" stroke="#b6b6b6" stroke-width="2.5" stroke-linecap="round"/><path d="M224.13985,183.18101v-3.91666" fill="none" stroke="#df0000" stroke-width="0.5" stroke-linecap="round"/><path d="M224.32957,183.40073v-4.31819h1.47574v4.31818z" fill="#f00000" stroke="none" stroke-width="0" stroke-linecap="butt"/></g><path d="M223.19113,178.26435l-0.04216,4.18182" fill="none" stroke="#c2c2c2" stroke-width="1.5" stroke-linecap="round"/></g><path d="M237.76555,205.70345v-3.68" data-paper-data="{&quot;index&quot;:null}" fill="none" stroke="#656565" stroke-width="0.5" stroke-linecap="round"/><path d="M238.84157,205.46345v-3.64" data-paper-data="{&quot;index&quot;:null}" fill="none" stroke="#6a6a6a" stroke-width="0.5" stroke-linecap="round"/><path d="M239.88046,205.34345l-0.0371,-3.64" data-paper-data="{&quot;index&quot;:null}" fill="none" stroke="#6f6f6f" stroke-width="0.5" stroke-linecap="round"/><path d="M240.95653,205.30345l-0.07421,-3.68" data-paper-data="{&quot;index&quot;:null}" fill="none" stroke="#747474" stroke-width="0.5" stroke-linecap="round"/><path d="M241.95832,201.58345l0.0371,3.76" data-paper-data="{&quot;index&quot;:null}" fill="none" stroke="#787878" stroke-width="0.5" stroke-linecap="round"/><path d="M242.99722,201.66345v3.76" data-paper-data="{&quot;index&quot;:null}" fill="none" stroke="#7b7b7b" stroke-width="0.5" stroke-linecap="round"/><path d="M238.03038,212.84851v-6.27273c0,0 1.51673,-0.45454 3.45455,-0.45454c1.81656,0 3.45454,0.45454 3.45454,0.45454v6.27273z" data-paper-data="{&quot;index&quot;:null}" fill="url(#color-26)" stroke="none" stroke-width="0" stroke-linecap="butt"/><path d="M238.65,184.13335v-11.9h4.8v11.9z" fill="#ff0000" stroke="none" stroke-width="0" stroke-linecap="butt"/><path d="M238.65,184.73336v-12.5h4.8v12.5z" fill="#ff0000" stroke="none" stroke-width="0" stroke-linecap="butt"/><g stroke="#a6caca" stroke-width="0.5" stroke-linecap="round"><path d="M242.37559,180.55772c0,0 -0.55811,1.7675 -1.24554,1.7675c-0.68743,0 -1.24554,-1.7675 -1.24554,-1.7675l0.01782,-4.93504c0,0 0.55811,-1.7675 1.24554,-1.7675c0.68744,0 1.24555,1.7675 1.24555,1.7675z" fill="url(#color-27)"/><path d="M240.02207,176.19633h2.15143" fill="none"/><path d="M242.07571,177.58407h-2.05364" fill="none"/><path d="M242.1735,179.80444h-2.24922" fill="none"/><path d="M239.83908,178.39883h2.24922" fill="none"/></g><g><path d="M239.40972,196.16667v-6.75h3.625v6.75z" fill="url(#color-28)" stroke="none" stroke-width="0" stroke-linecap="butt"/><path d="M239.40972,199.91667v-2.875h3.625v2.875z" fill="url(#color-29)" stroke="none" stroke-width="0" stroke-linecap="butt"/><g fill="none" stroke="#d4d4d4" stroke-width="1" stroke-linecap="round"><path d="M233.17222,200.53333v-3.4"/><path d="M235.77222,200.53333v-3.4"/></g><g fill="none" stroke="#d4d4d4" stroke-width="1" stroke-linecap="round"><path d="M246.47222,197.03333v3.4"/><path d="M249.07222,197.03333v3.4"/></g></g></g></g></svg>