<svg version="1.1" xmlns="http://www.w3.org/2000/svg" xmlns:xlink="http://www.w3.org/1999/xlink" width="23.32984" height="14.08056" viewBox="0,0,23.32984,14.08056"><defs><linearGradient x1="269.80759" y1="179.54529" x2="233.50145" y2="179.98683" gradientUnits="userSpaceOnUse" id="color-1"><stop offset="0" stop-color="#a300f2"/><stop offset="1" stop-color="#a300f2" stop-opacity="0"/></linearGradient><linearGradient x1="280.6253" y1="179.32189" x2="231.1929" y2="179.92313" gradientUnits="userSpaceOnUse" id="color-2"><stop offset="0" stop-color="#f1f1f1"/><stop offset="1" stop-color="#f1f1f1" stop-opacity="0"/></linearGradient><linearGradient x1="239.06847" y1="180.21671" x2="236.01505" y2="180.25385" gradientUnits="userSpaceOnUse" id="color-3"><stop offset="0" stop-color="#ff4f00"/><stop offset="1" stop-color="#ff4f00" stop-opacity="0"/></linearGradient><linearGradient x1="238.97287" y1="180.19162" x2="236.9087" y2="180.21674" gradientUnits="userSpaceOnUse" id="color-4"><stop offset="0" stop-color="#ffd400"/><stop offset="1" stop-color="#ffd400" stop-opacity="0"/></linearGradient><linearGradient x1="239.11112" y1="180.18907" x2="235.6814" y2="180.23079" gradientUnits="userSpaceOnUse" id="color-5"><stop offset="0" stop-color="#ffee00"/><stop offset="1" stop-color="#ffee00" stop-opacity="0"/></linearGradient><linearGradient x1="239.13895" y1="180.16073" x2="237.63792" y2="180.17897" gradientUnits="userSpaceOnUse" id="color-6"><stop offset="0" stop-color="#ffee00"/><stop offset="1" stop-color="#ffee00" stop-opacity="0"/></linearGradient><linearGradient x1="239.12037" y1="180.94984" x2="237.61934" y2="180.9681" gradientUnits="userSpaceOnUse" id="color-7"><stop offset="0" stop-color="#ffee00"/><stop offset="1" stop-color="#ffee00" stop-opacity="0"/></linearGradient><linearGradient x1="239.10119" y1="179.3723" x2="237.60016" y2="179.39056" gradientUnits="userSpaceOnUse" id="color-8"><stop offset="0" stop-color="#ffee00"/><stop offset="1" stop-color="#ffee00" stop-opacity="0"/></linearGradient><linearGradient x1="237.1693" y1="177.54737" x2="242.24082" y2="177.26164" gradientUnits="userSpaceOnUse" id="color-9"><stop offset="0" stop-color="#000000"/><stop offset="1" stop-color="#1d1d1d"/></linearGradient><linearGradient x1="237.1036" y1="177.4645" x2="242.30082" y2="177.4645" gradientUnits="userSpaceOnUse" id="color-10"><stop offset="0" stop-color="#181818"/><stop offset="1" stop-color="#000000"/></linearGradient><linearGradient x1="237.09207" y1="182.71671" x2="242.31117" y2="182.71671" gradientUnits="userSpaceOnUse" id="color-11"><stop offset="0" stop-color="#000000"/><stop offset="1" stop-color="#181818"/></linearGradient><linearGradient x1="237.09207" y1="182.71671" x2="242.31117" y2="182.71671" gradientUnits="userSpaceOnUse" id="color-12"><stop offset="0" stop-color="#181818"/><stop offset="1" stop-color="#000000"/></linearGradient><linearGradient x1="236.75892" y1="180.09668" x2="242.75279" y2="180.09668" gradientUnits="userSpaceOnUse" id="color-13"><stop offset="0" stop-color="#181818"/><stop offset="1" stop-color="#000000"/></linearGradient><linearGradient x1="229.10003" y1="180.1667" x2="237.30003" y2="180.1667" gradientUnits="userSpaceOnUse" id="color-14"><stop offset="0" stop-color="#bee9ff" stop-opacity="0"/><stop offset="1" stop-color="#bee9ff"/></linearGradient><linearGradient x1="229.10003" y1="180.1667" x2="237.30003" y2="180.1667" gradientUnits="userSpaceOnUse" id="color-15"><stop offset="0" stop-color="#d1e8ff" stop-opacity="0"/><stop offset="1" stop-color="#d1e8ff"/></linearGradient><radialGradient cx="237.37395" cy="180.00696" r="6.97852" gradientUnits="userSpaceOnUse" id="color-16"><stop offset="0" stop-color="#ffd900"/><stop offset="1" stop-color="#ffd900" stop-opacity="0"/></radialGradient></defs><g transform="translate(-229.10002,-172.96667)"><g data-paper-data="{&quot;isPaintingLayer&quot;:true}" fill-rule="nonzero" stroke-linejoin="miter" stroke-miterlimit="10" stroke-dasharray="" stroke-dashoffset="0" style="mix-blend-mode: normal"><g stroke="#000000" stroke-width="0" stroke-linecap="round"><path d="M238.88375,180.99766l-5.77523,-0.70118l5.75481,-0.97815z" fill="url(#color-1)"/><path d="M238.52116,181.29941l-7.86323,-0.95468l7.83542,-1.33179z" fill="url(#color-2)"/><path d="M239.07362,180.64082c0,0 -0.20196,0.76365 -0.92404,0.74643c-1.72603,-0.04116 -2.1359,-1.24647 -2.1359,-1.24647c0,0 0.33889,-1.0252 2.1077,-1.07187c0.75316,-0.01987 0.94158,0.69546 0.94158,0.69546z" fill="url(#color-3)"/><path d="M238.97636,180.47832c0,0 -0.13654,0.51624 -0.62468,0.5046c-1.16684,-0.02782 -1.44392,-0.84264 -1.44392,-0.84264c0,0 0.2291,-0.69307 1.42486,-0.72461c0.50916,-0.01343 0.63653,0.47015 0.63653,0.47015z" fill="url(#color-4)"/><path d="M239.11691,180.6654c0,0 -0.22686,0.85775 -1.03793,0.83841c-1.93875,-0.04622 -2.39913,-1.40007 -2.39913,-1.40007c0,0 0.38066,-1.15155 2.36746,-1.20397c0.84599,-0.02231 1.05762,0.78117 1.05762,0.78117z" fill="url(#color-5)"/><path d="M239.14148,180.36919c0,0 -0.09928,0.37539 -0.45425,0.36693c-0.8485,-0.02023 -1.04999,-0.61275 -1.04999,-0.61275c0,0 0.1666,-0.50399 1.03612,-0.52692c0.37025,-0.00977 0.46287,0.34188 0.46287,0.34188z" fill="url(#color-6)"/><path d="M239.12291,181.1583c0,0 -0.09928,0.3754 -0.45425,0.36694c-0.8485,-0.02023 -1.04999,-0.61275 -1.04999,-0.61275c0,0 0.1666,-0.50399 1.03612,-0.52692c0.37025,-0.00976 0.46287,0.34189 0.46287,0.34189z" fill="url(#color-7)"/><path d="M239.10372,179.58076c0,0 -0.09929,0.3754 -0.45425,0.36693c-0.8485,-0.02023 -1.04998,-0.61275 -1.04998,-0.61275c0,0 0.1666,-0.50399 1.03612,-0.52692c0.37025,-0.00976 0.46287,0.34188 0.46287,0.34188z" fill="url(#color-8)"/></g><path d="M238.93686,179.19525l8.87445,-0.96444l4.06847,2.26116l-4.22244,1.96533l-8.70425,-1.30483z" fill="#718896" stroke="#6b818e" stroke-width="0.5" stroke-linecap="round"/><path d="M240.17651,178.54809l-2.9529,-0.03714l-0.12001,-2.13003l3.90578,0.69572l1.29144,1.25003z" fill="url(#color-9)" stroke="url(#color-10)" stroke-width="0.5" stroke-linecap="round"/><path d="M242.31117,181.89639l-1.30563,1.2352l-3.91347,0.65109l0.14431,-2.12852l2.95313,-0.00342z" data-paper-data="{&quot;index&quot;:null}" fill="url(#color-11)" stroke="url(#color-12)" stroke-width="0.5" stroke-linecap="round"/><path d="M236.75892,180.09668h5.99387" fill="none" stroke="url(#color-13)" stroke-width="0.5" stroke-linecap="round"/><path d="M237.30003,181.9667l-8.2,-2.2l8,-1.4z" fill="url(#color-14)" stroke="url(#color-15)" stroke-width="0" stroke-linecap="round"/><path d="M244.35247,180.00696c0,3.88824 -3.12439,7.04028 -6.97852,7.04028c-3.85413,0 -6.97852,-3.15204 -6.97852,-7.04028c0,-3.88824 3.12439,-7.04028 6.97852,-7.04028c3.85413,0 6.97852,3.15204 6.97852,7.04028z" fill="url(#color-16)" stroke="none" stroke-width="0" stroke-linecap="butt"/></g></g></svg>