<svg version="1.1" xmlns="http://www.w3.org/2000/svg" xmlns:xlink="http://www.w3.org/1999/xlink" width="195" height="195" viewBox="0,0,195,195"><g transform="translate(-142.5,-82.5)"><g data-paper-data="{&quot;isPaintingLayer&quot;:true}" fill-rule="nonzero" stroke-linejoin="miter" stroke-miterlimit="10" stroke-dasharray="" stroke-dashoffset="0" style="mix-blend-mode: normal"><path d="M196.71515,184.34389v-8.7617h5.26721v1.46707h-3.81032v2.19042h3.08697v1.45689h-3.08697v3.64731zM205.53859,184.53746c-0.48223,0 -0.88296,-0.0815 -1.20219,-0.24451c-0.31243,-0.16301 -0.56374,-0.37016 -0.75391,-0.62147c-0.18338,-0.2513 -0.32262,-0.51959 -0.41771,-0.80485c-0.0883,-0.28526 -0.14603,-0.55355 -0.1732,-0.80485c-0.02038,-0.2513 -0.03056,-0.45846 -0.03056,-0.62147v-3.66769h1.47726v3.16847c0,0.20376 0.01358,0.43129 0.04075,0.6826c0.03396,0.2513 0.10188,0.49582 0.20376,0.73354c0.10188,0.23093 0.2547,0.4211 0.45846,0.57053c0.20376,0.14942 0.48223,0.22414 0.83542,0.22414c0.18338,0 0.36677,-0.03056 0.55015,-0.09169c0.18338,-0.06113 0.34979,-0.1664 0.49921,-0.31583c0.14942,-0.14942 0.26828,-0.35318 0.35658,-0.61128c0.0883,-0.2581 0.13244,-0.58411 0.13244,-0.97805l0.86598,0.36677c0,0.55695 -0.10867,1.06295 -0.32602,1.51802c-0.21734,0.45506 -0.53657,0.81844 -0.95767,1.09012c-0.4211,0.27168 -0.94069,0.40752 -1.55877,0.40752zM207.68827,184.34389v-2.0376h-0.1732v-4.53367h1.46707v6.57127zM215.23602,184.34389v-3.15829c0,-0.21055 -0.01698,-0.44148 -0.05094,-0.69279c-0.02717,-0.2513 -0.09169,-0.49242 -0.19357,-0.72335c-0.10188,-0.23772 -0.2581,-0.43129 -0.46865,-0.58072c-0.20376,-0.14942 -0.47884,-0.22414 -0.82523,-0.22414c-0.18338,0 -0.36677,0.03056 -0.55015,0.09169c-0.18338,0.06113 -0.34979,0.1664 -0.49921,0.31583c-0.14942,0.14942 -0.26828,0.35318 -0.35658,0.61128c-0.0883,0.2581 -0.13244,0.58751 -0.13244,0.98824l-0.86598,-0.37696c0,-0.55695 0.10867,-1.06295 0.32602,-1.51802c0.21734,-0.45506 0.53657,-0.81504 0.95767,-1.07993c0.4211,-0.27168 0.9373,-0.40752 1.54858,-0.40752c0.48902,0 0.88975,0.0815 1.20219,0.24451c0.31922,0.15622 0.57053,0.36337 0.75391,0.62147c0.19018,0.2513 0.32941,0.51959 0.41771,0.80485c0.0883,0.27847 0.14603,0.54676 0.1732,0.80485c0.02717,0.2513 0.04075,0.45506 0.04075,0.61128v3.66769zM210.67178,184.34389v-6.57127h1.31425v2.0376h0.1732v4.53367zM218.28068,184.34389l0.02038,-8.7617h1.47726v5.3589l2.40437,-3.16847h1.83384l-2.54701,3.29073l2.76095,3.28054h-1.93572l-2.51644,-3.15829v3.15829zM225.70134,187.26785l1.2735,-3.47411l0.02038,1.0188l-2.86283,-7.03992h1.5282l2.02742,5.20608h-0.38714l1.97648,-5.20608h1.46707l-3.66769,9.49523zM238.56517,182.7138v-2.18024h-2.17005v-1.15125h2.17005v-2.17005h1.15125v2.17005h2.17005v1.15125h-2.17005v2.18024zM245.97564,184.5069c-0.44148,0 -0.85919,-0.0849 -1.25313,-0.2547c-0.38714,-0.1698 -0.72335,-0.41092 -1.00861,-0.72335c-0.28526,-0.31243 -0.48902,-0.6826 -0.61128,-1.11049l1.41613,-0.37696c0.10188,0.34639 0.28526,0.61468 0.55015,0.80485c0.27168,0.19018 0.57053,0.28187 0.89655,0.27508c0.28526,0 0.53997,-0.06452 0.7641,-0.19357c0.23093,-0.13584 0.41092,-0.31922 0.53997,-0.55015c0.12905,-0.23093 0.19357,-0.48902 0.19357,-0.77429c0,-0.43469 -0.13924,-0.79467 -0.41771,-1.07993c-0.27847,-0.29206 -0.63845,-0.43808 -1.07993,-0.43808c-0.13584,0 -0.26828,0.01698 -0.39733,0.05094c-0.12226,0.03396 -0.24451,0.0849 -0.36677,0.15282l-0.66222,-1.16143l2.94434,-2.51644l0.12226,0.35658h-4.1669v-1.38557h5.36909v1.38557l-2.36362,2.28212l-0.01019,-0.43808c0.52978,0.04075 0.98145,0.19018 1.35501,0.44827c0.38035,0.2581 0.66901,0.5943 0.86598,1.00861c0.20376,0.40752 0.30564,0.8524 0.30564,1.33463c0,0.55695 -0.13584,1.05276 -0.40752,1.48745c-0.27168,0.43469 -0.63505,0.78108 -1.09012,1.03918c-0.44827,0.2513 -0.94409,0.37696 -1.48745,0.37696zM253.69116,184.52727c-0.62487,0 -1.17502,-0.13244 -1.65046,-0.39733c-0.46865,-0.26489 -0.83542,-0.63505 -1.10031,-1.11049c-0.26489,-0.47544 -0.39733,-1.0222 -0.39733,-1.64027v-2.82208c0,-0.62487 0.13244,-1.17162 0.39733,-1.64027c0.26489,-0.47544 0.63166,-0.84561 1.10031,-1.11049c0.47544,-0.27168 1.02559,-0.40752 1.65046,-0.40752c0.61807,0 1.16143,0.13584 1.63008,0.40752c0.47544,0.26489 0.84561,0.63505 1.11049,1.11049c0.27168,0.46865 0.40752,1.01541 0.40752,1.64027v2.82208c0,0.61807 -0.13584,1.16483 -0.40752,1.64027c-0.26489,0.47544 -0.63505,0.84561 -1.11049,1.11049c-0.46865,0.26489 -1.01201,0.39733 -1.63008,0.39733zM253.69116,183.13151c0.30564,0 0.58411,-0.07132 0.83542,-0.21395c0.2513,-0.14942 0.44827,-0.34979 0.59091,-0.60109c0.14942,-0.2513 0.22414,-0.52978 0.22414,-0.83542v-3.03603c0,-0.31243 -0.07471,-0.59091 -0.22414,-0.83542c-0.14263,-0.2513 -0.3396,-0.45167 -0.59091,-0.60109c-0.2513,-0.14942 -0.52978,-0.22414 -0.83542,-0.22414c-0.31243,0 -0.5943,0.07471 -0.84561,0.22414c-0.2513,0.14942 -0.45167,0.34979 -0.60109,0.60109c-0.14263,0.24451 -0.21395,0.52299 -0.21395,0.83542v3.03603c0,0.30564 0.07132,0.58411 0.21395,0.83542c0.14942,0.2513 0.34979,0.45167 0.60109,0.60109c0.2513,0.14263 0.53317,0.21395 0.84561,0.21395zM264.12829,184.52727c-0.62487,0 -1.17502,-0.13244 -1.65046,-0.39733c-0.46865,-0.26489 -0.83542,-0.63505 -1.10031,-1.11049c-0.26489,-0.47544 -0.39733,-1.0222 -0.39733,-1.64027v-2.82208c0,-0.62487 0.13244,-1.17162 0.39733,-1.64027c0.26489,-0.47544 0.63166,-0.84561 1.10031,-1.11049c0.47544,-0.27168 1.02559,-0.40752 1.65046,-0.40752c0.61807,0 1.16143,0.13584 1.63008,0.40752c0.47544,0.26489 0.84561,0.63505 1.11049,1.11049c0.27168,0.46865 0.40752,1.01541 0.40752,1.64027v2.82208c0,0.61807 -0.13584,1.16483 -0.40752,1.64027c-0.26489,0.47544 -0.63505,0.84561 -1.11049,1.11049c-0.46865,0.26489 -1.01201,0.39733 -1.63008,0.39733zM264.12829,183.13151c0.30564,0 0.58411,-0.07132 0.83542,-0.21395c0.2513,-0.14942 0.44827,-0.34979 0.59091,-0.60109c0.14942,-0.2513 0.22414,-0.52978 0.22414,-0.83542v-3.03603c0,-0.31243 -0.07471,-0.59091 -0.22414,-0.83542c-0.14263,-0.2513 -0.3396,-0.45167 -0.59091,-0.60109c-0.2513,-0.14942 -0.52978,-0.22414 -0.83542,-0.22414c-0.31243,0 -0.5943,0.07471 -0.84561,0.22414c-0.2513,0.14942 -0.45167,0.34979 -0.60109,0.60109c-0.14263,0.24451 -0.21395,0.52299 -0.21395,0.83542v3.03603c0,0.30564 0.07132,0.58411 0.21395,0.83542c0.14942,0.2513 0.34979,0.45167 0.60109,0.60109c0.2513,0.14263 0.53317,0.21395 0.84561,0.21395zM272.13253,184.52727c-0.62487,0 -1.17502,-0.13244 -1.65046,-0.39733c-0.46865,-0.26489 -0.83542,-0.63505 -1.10031,-1.11049c-0.26489,-0.47544 -0.39733,-1.0222 -0.39733,-1.64027v-2.82208c0,-0.62487 0.13244,-1.17162 0.39733,-1.64027c0.26489,-0.47544 0.63166,-0.84561 1.10031,-1.11049c0.47544,-0.27168 1.02559,-0.40752 1.65046,-0.40752c0.61807,0 1.16143,0.13584 1.63008,0.40752c0.47544,0.26489 0.84561,0.63505 1.11049,1.11049c0.27168,0.46865 0.40752,1.01541 0.40752,1.64027v2.82208c0,0.61807 -0.13584,1.16483 -0.40752,1.64027c-0.26489,0.47544 -0.63505,0.84561 -1.11049,1.11049c-0.46865,0.26489 -1.01201,0.39733 -1.63008,0.39733zM272.13253,183.13151c0.30564,0 0.58411,-0.07132 0.83542,-0.21395c0.2513,-0.14942 0.44827,-0.34979 0.59091,-0.60109c0.14942,-0.2513 0.22414,-0.52978 0.22414,-0.83542v-3.03603c0,-0.31243 -0.07471,-0.59091 -0.22414,-0.83542c-0.14263,-0.2513 -0.3396,-0.45167 -0.59091,-0.60109c-0.2513,-0.14942 -0.52978,-0.22414 -0.83542,-0.22414c-0.31243,0 -0.5943,0.07471 -0.84561,0.22414c-0.2513,0.14942 -0.45167,0.34979 -0.60109,0.60109c-0.14263,0.24451 -0.21395,0.52299 -0.21395,0.83542v3.03603c0,0.30564 0.07132,0.58411 0.21395,0.83542c0.14942,0.2513 0.34979,0.45167 0.60109,0.60109c0.2513,0.14263 0.53317,0.21395 0.84561,0.21395zM280.13676,184.52727c-0.62487,0 -1.17502,-0.13244 -1.65046,-0.39733c-0.46865,-0.26489 -0.83542,-0.63505 -1.10031,-1.11049c-0.26489,-0.47544 -0.39733,-1.0222 -0.39733,-1.64027v-2.82208c0,-0.62487 0.13244,-1.17162 0.39733,-1.64027c0.26489,-0.47544 0.63166,-0.84561 1.10031,-1.11049c0.47544,-0.27168 1.02559,-0.40752 1.65046,-0.40752c0.61807,0 1.16143,0.13584 1.63008,0.40752c0.47544,0.26489 0.84561,0.63505 1.11049,1.11049c0.27168,0.46865 0.40752,1.01541 0.40752,1.64027v2.82208c0,0.61807 -0.13584,1.16483 -0.40752,1.64027c-0.26489,0.47544 -0.63505,0.84561 -1.11049,1.11049c-0.46865,0.26489 -1.01201,0.39733 -1.63008,0.39733zM280.13676,183.13151c0.30564,0 0.58411,-0.07132 0.83542,-0.21395c0.2513,-0.14942 0.44827,-0.34979 0.59091,-0.60109c0.14942,-0.2513 0.22414,-0.52978 0.22414,-0.83542v-3.03603c0,-0.31243 -0.07471,-0.59091 -0.22414,-0.83542c-0.14263,-0.2513 -0.3396,-0.45167 -0.59091,-0.60109c-0.2513,-0.14942 -0.52978,-0.22414 -0.83542,-0.22414c-0.31243,0 -0.5943,0.07471 -0.84561,0.22414c-0.2513,0.14942 -0.45167,0.34979 -0.60109,0.60109c-0.14263,0.24451 -0.21395,0.52299 -0.21395,0.83542v3.03603c0,0.30564 0.07132,0.58411 0.21395,0.83542c0.14942,0.2513 0.34979,0.45167 0.60109,0.60109c0.2513,0.14263 0.53317,0.21395 0.84561,0.21395z" fill="#ffffff" stroke="#ffffff" stroke-width="0.25" stroke-linecap="square"/><path d="M142.5,277.5v-195h195v195z" fill="none" stroke="none" stroke-width="0" stroke-linecap="butt"/></g></g></svg>