<svg version="1.1" xmlns="http://www.w3.org/2000/svg" xmlns:xlink="http://www.w3.org/1999/xlink" width="271.86497" height="351.31446" viewBox="0,0,271.86497,351.31446"><defs><linearGradient x1="361.29302" y1="201.36517" x2="182.81426" y2="321.83831" gradientUnits="userSpaceOnUse" id="color-1"><stop offset="0" stop-color="#42e6ff"/><stop offset="1" stop-color="#42e6ff" stop-opacity="0"/></linearGradient><linearGradient x1="332.33313" y1="220.91309" x2="185.36271" y2="320.11807" gradientUnits="userSpaceOnUse" id="color-2"><stop offset="0" stop-color="#42e6ff"/><stop offset="1" stop-color="#42e6ff" stop-opacity="0"/></linearGradient><linearGradient x1="297.58126" y1="244.37057" x2="188.4209" y2="318.05382" gradientUnits="userSpaceOnUse" id="color-3"><stop offset="0" stop-color="#42e6ff"/><stop offset="1" stop-color="#42e6ff" stop-opacity="0"/></linearGradient><linearGradient x1="118.20708" y1="201.36517" x2="296.68582" y2="321.83831" gradientUnits="userSpaceOnUse" id="color-4"><stop offset="0" stop-color="#42e6ff"/><stop offset="1" stop-color="#42e6ff" stop-opacity="0"/></linearGradient><linearGradient x1="147.16697" y1="220.91309" x2="294.13734" y2="320.11807" gradientUnits="userSpaceOnUse" id="color-5"><stop offset="0" stop-color="#42e6ff"/><stop offset="1" stop-color="#42e6ff" stop-opacity="0"/></linearGradient><linearGradient x1="181.91882" y1="244.37057" x2="291.07919" y2="318.05382" gradientUnits="userSpaceOnUse" id="color-6"><stop offset="0" stop-color="#42e6ff"/><stop offset="1" stop-color="#42e6ff" stop-opacity="0"/></linearGradient><linearGradient x1="757.12216" y1="815.36175" x2="-2851.77004" y2="-2567.95791" gradientUnits="userSpaceOnUse" id="color-7"><stop offset="0" stop-color="#858585" stop-opacity="0"/><stop offset="1" stop-color="#858585"/></linearGradient><linearGradient x1="230.14333" y1="221.35006" x2="148.52454" y2="137.46614" gradientUnits="userSpaceOnUse" id="color-8"><stop offset="0" stop-color="#868686"/><stop offset="1" stop-color="#868686" stop-opacity="0"/></linearGradient><linearGradient x1="556.9023" y1="602.39046" x2="-1849.92521" y2="-1653.99904" gradientUnits="userSpaceOnUse" id="color-9"><stop offset="0" stop-color="#848484" stop-opacity="0"/><stop offset="1" stop-color="#848484"/></linearGradient><linearGradient x1="201.24908" y1="100.85072" x2="117.62141" y2="183.60276" gradientUnits="userSpaceOnUse" id="color-10"><stop offset="0" stop-color="#818181"/><stop offset="1" stop-color="#818181" stop-opacity="0"/></linearGradient><linearGradient x1="110.36465" y1="249.84649" x2="194.66794" y2="168.66096" gradientUnits="userSpaceOnUse" id="color-11"><stop offset="0" stop-color="#858585"/><stop offset="1" stop-color="#858585" stop-opacity="0"/></linearGradient><linearGradient x1="82.35046" y1="131.39702" x2="163.92974" y2="215.31928" gradientUnits="userSpaceOnUse" id="color-12"><stop offset="0" stop-color="#868686"/><stop offset="1" stop-color="#868686" stop-opacity="0"/></linearGradient><linearGradient x1="-274.25704" y1="815.36175" x2="3334.63516" y2="-2567.95791" gradientUnits="userSpaceOnUse" id="color-13"><stop offset="0" stop-color="#858585" stop-opacity="0"/><stop offset="1" stop-color="#858585"/></linearGradient><linearGradient x1="252.72177" y1="221.35006" x2="334.34051" y2="137.46614" gradientUnits="userSpaceOnUse" id="color-14"><stop offset="0" stop-color="#868686"/><stop offset="1" stop-color="#868686" stop-opacity="0"/></linearGradient><linearGradient x1="-74.03722" y1="602.39046" x2="2332.79029" y2="-1653.99904" gradientUnits="userSpaceOnUse" id="color-15"><stop offset="0" stop-color="#848484" stop-opacity="0"/><stop offset="1" stop-color="#848484"/></linearGradient><linearGradient x1="281.616" y1="100.85072" x2="365.24372" y2="183.60276" gradientUnits="userSpaceOnUse" id="color-16"><stop offset="0" stop-color="#818181"/><stop offset="1" stop-color="#818181" stop-opacity="0"/></linearGradient><linearGradient x1="372.50047" y1="249.84649" x2="288.19714" y2="168.66096" gradientUnits="userSpaceOnUse" id="color-17"><stop offset="0" stop-color="#858585"/><stop offset="1" stop-color="#858585" stop-opacity="0"/></linearGradient><linearGradient x1="400.51466" y1="131.39702" x2="318.93532" y2="215.31928" gradientUnits="userSpaceOnUse" id="color-18"><stop offset="0" stop-color="#868686"/><stop offset="1" stop-color="#868686" stop-opacity="0"/></linearGradient><linearGradient x1="285.83878" y1="141.26118" x2="228.8388" y2="141.26118" gradientUnits="userSpaceOnUse" id="color-19"><stop offset="0" stop-color="#6f7171"/><stop offset="1" stop-color="#6f7171" stop-opacity="0"/></linearGradient><linearGradient x1="197.51312" y1="141.26118" x2="254.51312" y2="141.26118" gradientUnits="userSpaceOnUse" id="color-20"><stop offset="0" stop-color="#6f7171"/><stop offset="1" stop-color="#6f7171" stop-opacity="0"/></linearGradient><linearGradient x1="249.5888" y1="99.52244" x2="249.5888" y2="111.76126" gradientUnits="userSpaceOnUse" id="color-21"><stop offset="0" stop-color="#b7baba" stop-opacity="0"/><stop offset="1" stop-color="#b7baba"/></linearGradient><linearGradient x1="234.75545" y1="99.52244" x2="234.75545" y2="111.76126" gradientUnits="userSpaceOnUse" id="color-22"><stop offset="0" stop-color="#b7baba" stop-opacity="0"/><stop offset="1" stop-color="#b7baba"/></linearGradient><linearGradient x1="269.33878" y1="101.42791" x2="212.3388" y2="101.42791" gradientUnits="userSpaceOnUse" id="color-23"><stop offset="0" stop-color="#4c4d4d"/><stop offset="1" stop-color="#4c4d4d" stop-opacity="0"/></linearGradient><linearGradient x1="214.3388" y1="101.42791" x2="271.33878" y2="101.42791" gradientUnits="userSpaceOnUse" id="color-24"><stop offset="0" stop-color="#4c4d4d"/><stop offset="1" stop-color="#4c4d4d" stop-opacity="0"/></linearGradient><linearGradient x1="245.42214" y1="57.54114" x2="263.08878" y2="57.54114" gradientUnits="userSpaceOnUse" id="color-25"><stop offset="0" stop-color="#788382"/><stop offset="1" stop-color="#788382" stop-opacity="0"/></linearGradient><linearGradient x1="239.42214" y1="57.54114" x2="221.75546" y2="57.54114" gradientUnits="userSpaceOnUse" id="color-26"><stop offset="0" stop-color="#788382"/><stop offset="1" stop-color="#788382" stop-opacity="0"/></linearGradient><linearGradient x1="244.3388" y1="39.18" x2="260.33878" y2="39.18" gradientUnits="userSpaceOnUse" id="color-27"><stop offset="0" stop-color="#d6dbdb"/><stop offset="1" stop-color="#d6dbdb" stop-opacity="0"/></linearGradient><linearGradient x1="240.17214" y1="39.18" x2="224.17214" y2="39.18" gradientUnits="userSpaceOnUse" id="color-28"><stop offset="0" stop-color="#d6dbdb"/><stop offset="1" stop-color="#d6dbdb" stop-opacity="0"/></linearGradient><linearGradient x1="312.05217" y1="233.94756" x2="312.0535" y2="256.32854" gradientUnits="userSpaceOnUse" id="color-29"><stop offset="0" stop-color="#000000"/><stop offset="1" stop-color="#000000" stop-opacity="0"/></linearGradient><linearGradient x1="168.03981" y1="235.35689" x2="168.07064" y2="257.73787" gradientUnits="userSpaceOnUse" id="color-30"><stop offset="0" stop-color="#000000"/><stop offset="1" stop-color="#000000" stop-opacity="0"/></linearGradient><linearGradient x1="239.92786" y1="334.70009" x2="240.00212" y2="351.73557" gradientUnits="userSpaceOnUse" id="color-31"><stop offset="0" stop-color="#5f5f5f"/><stop offset="1" stop-color="#757575"/></linearGradient><linearGradient x1="248.8388" y1="241.92789" x2="305.83878" y2="241.92789" gradientUnits="userSpaceOnUse" id="color-32"><stop offset="0" stop-color="#6f7171"/><stop offset="1" stop-color="#6f7171" stop-opacity="0"/></linearGradient><linearGradient x1="231.8388" y1="241.92789" x2="174.8388" y2="241.92789" gradientUnits="userSpaceOnUse" id="color-33"><stop offset="0" stop-color="#6f7171"/><stop offset="1" stop-color="#6f7171" stop-opacity="0"/></linearGradient><linearGradient x1="241.96638" y1="45.97188" x2="241.95098" y2="60.36965" gradientUnits="userSpaceOnUse" id="color-34"><stop offset="0" stop-color="#939f9f"/><stop offset="1" stop-color="#939f9f" stop-opacity="0"/></linearGradient><radialGradient cx="285.53704" cy="285.81003" r="8.11129" gradientUnits="userSpaceOnUse" id="color-35"><stop offset="0" stop-color="#a1f2ff"/><stop offset="1" stop-color="#a1f2ff" stop-opacity="0"/></radialGradient><radialGradient cx="282.27567" cy="290.28513" r="8.1113" gradientUnits="userSpaceOnUse" id="color-36"><stop offset="0" stop-color="#a1f2ff"/><stop offset="1" stop-color="#a1f2ff" stop-opacity="0"/></radialGradient><radialGradient cx="271.17656" cy="305.1325" r="8.11129" gradientUnits="userSpaceOnUse" id="color-37"><stop offset="0" stop-color="#a1f2ff"/><stop offset="1" stop-color="#a1f2ff" stop-opacity="0"/></radialGradient><radialGradient cx="278.78346" cy="294.86726" r="8.1113" gradientUnits="userSpaceOnUse" id="color-38"><stop offset="0" stop-color="#a1f2ff"/><stop offset="1" stop-color="#a1f2ff" stop-opacity="0"/></radialGradient><radialGradient cx="268.19453" cy="309.09578" r="8.11129" gradientUnits="userSpaceOnUse" id="color-39"><stop offset="0" stop-color="#a1f2ff"/><stop offset="1" stop-color="#a1f2ff" stop-opacity="0"/></radialGradient><radialGradient cx="275.20322" cy="299.72916" r="8.1113" gradientUnits="userSpaceOnUse" id="color-40"><stop offset="0" stop-color="#a1f2ff"/><stop offset="1" stop-color="#a1f2ff" stop-opacity="0"/></radialGradient><radialGradient cx="262.14905" cy="318.15961" r="8.11129" gradientUnits="userSpaceOnUse" id="color-41"><stop offset="0" stop-color="#a1f2ff"/><stop offset="1" stop-color="#a1f2ff" stop-opacity="0"/></radialGradient><radialGradient cx="265.73807" cy="312.7677" r="8.11129" gradientUnits="userSpaceOnUse" id="color-42"><stop offset="0" stop-color="#a1f2ff"/><stop offset="1" stop-color="#a1f2ff" stop-opacity="0"/></radialGradient><radialGradient cx="194.79044" cy="287.05449" r="8.11129" gradientUnits="userSpaceOnUse" id="color-43"><stop offset="0" stop-color="#a1f2ff"/><stop offset="1" stop-color="#a1f2ff" stop-opacity="0"/></radialGradient><radialGradient cx="198.03899" cy="291.53481" r="8.1113" gradientUnits="userSpaceOnUse" id="color-44"><stop offset="0" stop-color="#a1f2ff"/><stop offset="1" stop-color="#a1f2ff" stop-opacity="0"/></radialGradient><radialGradient cx="209.09564" cy="306.39995" r="8.11128" gradientUnits="userSpaceOnUse" id="color-45"><stop offset="0" stop-color="#a1f2ff"/><stop offset="1" stop-color="#a1f2ff" stop-opacity="0"/></radialGradient><radialGradient cx="201.51814" cy="296.12246" r="8.1113" gradientUnits="userSpaceOnUse" id="color-46"><stop offset="0" stop-color="#a1f2ff"/><stop offset="1" stop-color="#a1f2ff" stop-opacity="0"/></radialGradient><radialGradient cx="212.06633" cy="310.36798" r="8.11129" gradientUnits="userSpaceOnUse" id="color-47"><stop offset="0" stop-color="#a1f2ff"/><stop offset="1" stop-color="#a1f2ff" stop-opacity="0"/></radialGradient><radialGradient cx="205.08444" cy="300.9901" r="8.1113" gradientUnits="userSpaceOnUse" id="color-48"><stop offset="0" stop-color="#a1f2ff"/><stop offset="1" stop-color="#a1f2ff" stop-opacity="0"/></radialGradient><radialGradient cx="218.08592" cy="319.44147" r="8.1113" gradientUnits="userSpaceOnUse" id="color-49"><stop offset="0" stop-color="#a1f2ff"/><stop offset="1" stop-color="#a1f2ff" stop-opacity="0"/></radialGradient><radialGradient cx="214.51232" cy="314.04382" r="8.11129" gradientUnits="userSpaceOnUse" id="color-50"><stop offset="0" stop-color="#a1f2ff"/><stop offset="1" stop-color="#a1f2ff" stop-opacity="0"/></radialGradient><linearGradient x1="242.3388" y1="32.36336" x2="242.3388" y2="65.16339" gradientUnits="userSpaceOnUse" id="color-51"><stop offset="0" stop-color="#7c8685"/><stop offset="1" stop-color="#7c8685" stop-opacity="0"/></linearGradient><linearGradient x1="240.8388" y1="246.17789" x2="240.8388" y2="295.84452" gradientUnits="userSpaceOnUse" id="color-52"><stop offset="0" stop-color="#d6dfdf"/><stop offset="1" stop-color="#f7fbfb"/></linearGradient><radialGradient cx="240.8388" cy="237.26124" r="37.49999" gradientUnits="userSpaceOnUse" id="color-53"><stop offset="0" stop-color="#5b5d5d"/><stop offset="1" stop-color="#5b5d5d" stop-opacity="0"/></radialGradient><radialGradient cx="240.8388" cy="213.26124" r="37.49999" gradientUnits="userSpaceOnUse" id="color-54"><stop offset="0" stop-color="#5b5d5d"/><stop offset="1" stop-color="#5b5d5d" stop-opacity="0"/></radialGradient><linearGradient x1="243.17214" y1="224.00632" x2="243.17214" y2="147.26118" gradientUnits="userSpaceOnUse" id="color-55"><stop offset="0" stop-color="#000000"/><stop offset="1" stop-color="#000000" stop-opacity="0"/></linearGradient><linearGradient x1="217.66803" y1="120.88917" x2="213.33071" y2="120.88917" gradientUnits="userSpaceOnUse" id="color-56"><stop offset="0" stop-color="#a1a1a1"/><stop offset="1" stop-color="#a7a7a7"/></linearGradient><linearGradient x1="217.66803" y1="120.88917" x2="213.33071" y2="120.88917" gradientUnits="userSpaceOnUse" id="color-57"><stop offset="0" stop-color="#a2a2a2"/><stop offset="1" stop-color="#a7a7a7"/></linearGradient><linearGradient x1="215.49935" y1="109.99477" x2="215.49935" y2="111.12696" gradientUnits="userSpaceOnUse" id="color-58"><stop offset="0" stop-color="#898989"/><stop offset="1" stop-color="#a1a1a1"/></linearGradient><linearGradient x1="215.49935" y1="111.76382" x2="215.49935" y2="114.66506" gradientUnits="userSpaceOnUse" id="color-59"><stop offset="0" stop-color="#898989"/><stop offset="1" stop-color="#a1a1a1"/></linearGradient><linearGradient x1="215.45322" y1="116.57562" x2="215.45322" y2="118.27393" gradientUnits="userSpaceOnUse" id="color-60"><stop offset="0" stop-color="#a1a1a1"/><stop offset="1" stop-color="#898989"/></linearGradient><linearGradient x1="-74.53551" y1="735.11355" x2="-74.53551" y2="91.31908" gradientUnits="userSpaceOnUse" id="color-61"><stop offset="0" stop-color="#ffffff"/><stop offset="1" stop-color="#ffffff" stop-opacity="0"/></linearGradient><radialGradient cx="223.30223" cy="103.90498" r="8.57925" gradientUnits="userSpaceOnUse" id="color-62"><stop offset="0" stop-color="#696969"/><stop offset="1" stop-color="#505050"/></radialGradient><linearGradient x1="215.65819" y1="93.12172" x2="215.65819" y2="100.71683" gradientUnits="userSpaceOnUse" id="color-63"><stop offset="0" stop-color="#454545"/><stop offset="1" stop-color="#474747"/></linearGradient><linearGradient x1="270.41796" y1="120.88917" x2="266.08065" y2="120.88917" gradientUnits="userSpaceOnUse" id="color-64"><stop offset="0" stop-color="#a1a1a1"/><stop offset="1" stop-color="#a7a7a7"/></linearGradient><linearGradient x1="270.41796" y1="120.88917" x2="266.08065" y2="120.88917" gradientUnits="userSpaceOnUse" id="color-65"><stop offset="0" stop-color="#a2a2a2"/><stop offset="1" stop-color="#a7a7a7"/></linearGradient><linearGradient x1="268.24933" y1="109.99477" x2="268.24933" y2="111.12696" gradientUnits="userSpaceOnUse" id="color-66"><stop offset="0" stop-color="#898989"/><stop offset="1" stop-color="#a1a1a1"/></linearGradient><linearGradient x1="268.24933" y1="111.76382" x2="268.24933" y2="114.66506" gradientUnits="userSpaceOnUse" id="color-67"><stop offset="0" stop-color="#898989"/><stop offset="1" stop-color="#a1a1a1"/></linearGradient><linearGradient x1="268.20317" y1="116.57562" x2="268.20317" y2="118.27393" gradientUnits="userSpaceOnUse" id="color-68"><stop offset="0" stop-color="#a1a1a1"/><stop offset="1" stop-color="#898989"/></linearGradient><linearGradient x1="-21.78548" y1="735.11355" x2="-21.78548" y2="91.31908" gradientUnits="userSpaceOnUse" id="color-69"><stop offset="0" stop-color="#ffffff"/><stop offset="1" stop-color="#ffffff" stop-opacity="0"/></linearGradient><radialGradient cx="276.05219" cy="103.90498" r="8.57925" gradientUnits="userSpaceOnUse" id="color-70"><stop offset="0" stop-color="#696969"/><stop offset="1" stop-color="#505050"/></radialGradient><linearGradient x1="268.40819" y1="93.12172" x2="268.40819" y2="100.71683" gradientUnits="userSpaceOnUse" id="color-71"><stop offset="0" stop-color="#454545"/><stop offset="1" stop-color="#474747"/></linearGradient><radialGradient cx="244.53017" cy="271.99415" r="7.96473" gradientUnits="userSpaceOnUse" id="color-72"><stop offset="0" stop-color="#87e2ff"/><stop offset="1" stop-color="#00c1ff"/></radialGradient><radialGradient cx="219.41418" cy="271.99415" r="7.96473" gradientUnits="userSpaceOnUse" id="color-73"><stop offset="0" stop-color="#87e2ff"/><stop offset="1" stop-color="#00c1ff"/></radialGradient><linearGradient x1="231.97218" y1="262.664" x2="231.97218" y2="288.73064" gradientUnits="userSpaceOnUse" id="color-74"><stop offset="0" stop-color="#f7fbfb"/><stop offset="1" stop-color="#cce5e8"/></linearGradient><radialGradient cx="231.97211" cy="274.49737" r="11.83336" gradientUnits="userSpaceOnUse" id="color-75"><stop offset="0" stop-color="#000000" stop-opacity="0"/><stop offset="1" stop-color="#000000" stop-opacity="0"/></radialGradient><radialGradient cx="261.7301" cy="271.99415" r="7.96473" gradientUnits="userSpaceOnUse" id="color-76"><stop offset="0" stop-color="#87e2ff"/><stop offset="1" stop-color="#00c1ff"/></radialGradient><radialGradient cx="236.61417" cy="271.99415" r="7.96473" gradientUnits="userSpaceOnUse" id="color-77"><stop offset="0" stop-color="#87e2ff"/><stop offset="1" stop-color="#00c1ff"/></radialGradient><linearGradient x1="249.17217" y1="262.664" x2="249.17217" y2="288.73064" gradientUnits="userSpaceOnUse" id="color-78"><stop offset="0" stop-color="#f7fbfb"/><stop offset="1" stop-color="#cce5e8"/></linearGradient><radialGradient cx="249.17212" cy="274.49737" r="11.83336" gradientUnits="userSpaceOnUse" id="color-79"><stop offset="0" stop-color="#000000" stop-opacity="0"/><stop offset="1" stop-color="#000000" stop-opacity="0"/></radialGradient><linearGradient x1="240.21382" y1="262.71263" x2="240.21382" y2="288.91263" gradientUnits="userSpaceOnUse" id="color-80"><stop offset="0" stop-color="#f7fbfb"/><stop offset="1" stop-color="#cce5e8"/></linearGradient><linearGradient x1="-208.94533" y1="1287.1565" x2="-208.94533" y2="291.76457" gradientUnits="userSpaceOnUse" id="color-81"><stop offset="0" stop-color="#ffffff"/><stop offset="1" stop-color="#ffffff" stop-opacity="0"/></linearGradient><radialGradient cx="247.15022" cy="314.11391" r="10.17544" gradientUnits="userSpaceOnUse" id="color-82"><stop offset="0" stop-color="#8c9aa1"/><stop offset="1" stop-color="#7f959e"/></radialGradient><linearGradient x1="239.5526" y1="317.16006" x2="239.5526" y2="318.34416" gradientUnits="userSpaceOnUse" id="color-83"><stop offset="0" stop-color="#898989"/><stop offset="1" stop-color="#a1a1a1"/></linearGradient><linearGradient x1="239.5526" y1="319.01021" x2="239.5526" y2="322.04436" gradientUnits="userSpaceOnUse" id="color-84"><stop offset="0" stop-color="#898989"/><stop offset="1" stop-color="#a1a1a1"/></linearGradient><linearGradient x1="239.51561" y1="324.04247" x2="239.51561" y2="325.81854" gradientUnits="userSpaceOnUse" id="color-85"><stop offset="0" stop-color="#a1a1a1"/><stop offset="1" stop-color="#898989"/></linearGradient><linearGradient x1="239.70083" y1="309.97112" x2="239.70083" y2="314.58716" gradientUnits="userSpaceOnUse" id="color-86"><stop offset="0" stop-color="#505a5e"/><stop offset="1" stop-color="#5d6b71"/></linearGradient><linearGradient x1="239.70083" y1="309.97112" x2="239.70083" y2="314.58718" gradientUnits="userSpaceOnUse" id="color-87"><stop offset="0" stop-color="#576266"/><stop offset="1" stop-color="#607178"/></linearGradient><linearGradient x1="239.82761" y1="327.47015" x2="237.62683" y2="327.47015" gradientUnits="userSpaceOnUse" id="color-88"><stop offset="0" stop-color="#b7b7b7" stop-opacity="0"/><stop offset="1" stop-color="#b7b7b7"/></linearGradient><linearGradient x1="241.15283" y1="198.62487" x2="241.15283" y2="201.26375" gradientUnits="userSpaceOnUse" id="color-89"><stop offset="0" stop-color="#7d7f7f"/><stop offset="1" stop-color="#6b6d6d"/></linearGradient><linearGradient x1="232.2699" y1="210.90531" x2="249.58736" y2="210.90531" gradientUnits="userSpaceOnUse" id="color-90"><stop offset="0" stop-color="#7d7f7f"/><stop offset="1" stop-color="#939696"/></linearGradient><linearGradient x1="236.55561" y1="210.84711" x2="245.33339" y2="210.84711" gradientUnits="userSpaceOnUse" id="color-91"><stop offset="0" stop-color="#797b7b"/><stop offset="1" stop-color="#7d7f7f"/></linearGradient><linearGradient x1="185.1667" y1="101.70782" x2="193.50005" y2="101.70782" gradientUnits="userSpaceOnUse" id="color-92"><stop offset="0" stop-color="#97a4a3"/><stop offset="1" stop-color="#97a4a3" stop-opacity="0"/></linearGradient><linearGradient x1="298.83335" y1="101.70782" x2="290.50003" y2="101.70782" gradientUnits="userSpaceOnUse" id="color-93"><stop offset="0" stop-color="#97a4a3"/><stop offset="1" stop-color="#97a4a3" stop-opacity="0"/></linearGradient></defs><g transform="translate(-105.50005,-3.26336)"><g data-paper-data="{&quot;isPaintingLayer&quot;:true}" fill-rule="nonzero" stroke-linejoin="miter" stroke-miterlimit="10" stroke-dasharray="" stroke-dashoffset="0" style="mix-blend-mode: normal"><g><path d="M196.09398,194.03432l-35.62644,-15.09819" data-paper-data="{&quot;index&quot;:null}" fill="none" stroke="#6c6c6c" stroke-width="7.5" stroke-linecap="round"/><path d="M321.59398,178.43612l-35.62644,15.09819" fill="none" stroke="#6c6c6c" stroke-width="7.5" stroke-linecap="round"/><g stroke="none" stroke-width="0" stroke-linecap="butt"><path d="M160.71506,289.09878l28.87158,-19.48831l44.19835,65.47905l-28.87156,19.4883z" fill="url(#color-1)"/><path d="M167.1649,293.15835l23.77462,-16.04787l36.39565,53.91948l-23.77462,16.04787z" fill="url(#color-2)"/><path d="M174.9047,298.02982l17.65829,-11.91935l27.0324,40.048l-17.65829,11.91935z" fill="url(#color-3)"/></g><g data-paper-data="{&quot;index&quot;:null}" stroke="none" stroke-width="0" stroke-linecap="butt"><path d="M274.58662,354.57782l-28.87155,-19.4883l44.19836,-65.47905l28.87156,19.48831z" fill="url(#color-4)"/><path d="M275.93951,347.07782l-23.77461,-16.04787l36.39565,-53.91948l23.77462,16.04787z" fill="url(#color-5)"/><path d="M277.56298,338.07782l-17.6583,-11.91935l27.0324,-40.048l17.6583,11.91935z" fill="url(#color-6)"/></g><g><g><path d="M189.59175,140.21058l30.02329,36.55012h-13.70629c0,0 -5.18354,-19.08663 -6.45133,-23.69674c-0.61866,-2.24965 -9.86567,-12.85337 -9.86567,-12.85337z" fill="#878787" stroke="#878787" stroke-width="3" stroke-linecap="round"/><path d="M116.29284,177.28164c-0.91309,-22.7945 15.69253,-40.35598 38.35737,-40.94484c22.66484,-0.58886 40.40056,15.76654 41.31912,38.6975c0.91855,22.93096 -16.54168,40.36301 -38.12637,40.92383c-21.58466,0.56082 -40.63698,-15.88201 -41.55012,-38.67647z" fill="url(#color-7)" stroke="none" stroke-width="0" stroke-linecap="butt"/><path d="M148.34637,137.21638c7.15744,-1.25931 8.87899,-0.91057 18.54502,0.93177c10.61031,2.3958 17.0395,10.09786 17.0395,10.09786l-27.72016,27.78766l-28.01947,-27.7072c0,0 5.77007,-8.5791 20.15512,-11.11008z" data-paper-data="{&quot;index&quot;:null}" fill="url(#color-8)" stroke="none" stroke-width="0" stroke-linecap="butt"/><path d="M155.04397,149.80363c15.11553,-0.39279 26.76735,10.30737 27.37994,25.60038c0.61263,15.29308 -10.88256,26.50571 -25.27765,26.87972c-14.39518,0.37401 -26.71315,-10.31105 -27.3221,-25.51305c-0.60895,-15.20196 10.10434,-26.57432 25.21983,-26.96707z" fill="url(#color-9)" stroke="none" stroke-width="0" stroke-linecap="butt"/><path d="M128.58214,204.37918c0,0 -8.61395,-5.92368 -11.21006,-20.59611c-1.29174,-7.30044 -0.95003,-9.05308 0.85264,-18.89429c2.35264,-10.80075 10.03579,-17.31363 10.03579,-17.31363l27.98321,28.56738z" data-paper-data="{&quot;index&quot;:null}" fill="url(#color-10)" stroke="none" stroke-width="0" stroke-linecap="butt"/><path d="M183.91257,148.272c0,0 8.54927,5.81419 11.00609,20.2121c1.22244,7.16381 1.57437,8.70921 -0.31775,18.36562c-2.45043,10.59786 -10.36595,17.78399 -10.36595,17.78399l-28.17359,-28.48537l27.8512,-27.87636z" data-paper-data="{&quot;index&quot;:null}" fill="url(#color-11)" stroke="none" stroke-width="0" stroke-linecap="butt"/><path d="M155.82984,168.85415c4.12727,-0.10726 7.30884,2.81433 7.47607,6.99011c0.16734,4.17576 -2.97138,7.23729 -6.90199,7.33946c-3.93061,0.10217 -7.29398,-2.81537 -7.46027,-6.96626c-0.16631,-4.15089 2.75894,-7.25606 6.88621,-7.36331z" fill="#878787" stroke="none" stroke-width="0" stroke-linecap="butt"/><path d="M156.07988,223.23386c-25.86339,0 -46.82983,-20.96641 -46.82983,-46.8298c0,-25.86339 20.96644,-46.82983 46.82983,-46.82983c25.86339,0 46.8298,20.96643 46.8298,46.82983c0,25.86339 -20.96641,46.8298 -46.8298,46.8298z" fill="none" stroke="#878787" stroke-width="7.5" stroke-linecap="butt"/></g><path d="M164.10783,215.56919c-7.15803,1.25597 -8.87942,0.90638 -18.54459,-0.94048c-10.60924,-2.40079 -17.03478,-10.10585 -17.03478,-10.10585l27.73327,-27.77462l28.00647,27.72039c0,0 -5.77414,8.57637 -20.16038,11.10058z" data-paper-data="{&quot;index&quot;:null}" fill="url(#color-12)" stroke="none" stroke-width="0" stroke-linecap="butt"/></g><g data-paper-data="{&quot;index&quot;:null}"><g><path d="M283.40765,153.06392c-1.26779,4.61011 -6.45133,23.69674 -6.45133,23.69674h-13.70629l30.0233,-36.55012c0,0 -9.24701,10.60372 -9.86567,12.85337z" fill="#878787" stroke="#878787" stroke-width="3" stroke-linecap="round"/><path d="M366.57231,177.28166c-0.91314,22.79446 -19.96547,39.23729 -41.55013,38.67647c-21.58468,-0.56082 -39.04493,-17.99287 -38.12637,-40.92383c0.91856,-22.93096 18.65427,-39.28636 41.31912,-38.6975c22.66484,0.58886 39.27046,18.15034 38.35737,40.94484z" fill="url(#color-13)" stroke="none" stroke-width="0" stroke-linecap="butt"/><path d="M354.67384,148.32645l-28.01947,27.7072l-27.72016,-27.78766c0,0 6.42918,-7.70206 17.0395,-10.09786c9.66603,-1.84234 11.38758,-2.19109 18.54502,-0.93177c14.38504,2.53098 20.15512,11.11008 20.15512,11.11008z" data-paper-data="{&quot;index&quot;:null}" fill="url(#color-14)" stroke="none" stroke-width="0" stroke-linecap="butt"/><path d="M327.82106,149.80361c15.11549,0.39274 25.82878,11.76511 25.21983,26.96707c-0.60895,15.202 -12.92691,25.88705 -27.32209,25.51305c-14.39509,-0.37401 -25.89028,-11.58663 -25.27765,-26.87972c0.61259,-15.29301 12.26441,-25.99316 27.37994,-25.60038z" fill="url(#color-15)" stroke="none" stroke-width="0" stroke-linecap="butt"/><path d="M326.62136,176.14252l27.98321,-28.56737c0,0 7.68314,6.51288 10.03579,17.31363c1.80267,9.84122 2.14438,11.59385 0.85264,18.8943c-2.59611,14.67243 -11.21006,20.59611 -11.21006,20.59611z" data-paper-data="{&quot;index&quot;:null}" fill="url(#color-16)" stroke="none" stroke-width="0" stroke-linecap="butt"/><path d="M298.9525,148.27199l27.8512,27.87636l-28.17359,28.48537c0,0 -7.91552,-7.18613 -10.36595,-17.78399c-1.89211,-9.65642 -1.54019,-11.20181 -0.31775,-18.36562c2.45682,-14.39791 11.00608,-20.2121 11.00608,-20.2121z" data-paper-data="{&quot;index&quot;:null}" fill="url(#color-17)" stroke="none" stroke-width="0" stroke-linecap="butt"/><path d="M327.03522,168.85415c4.12727,0.10726 7.05253,3.21242 6.88621,7.36332c-0.16629,4.15089 -3.52967,7.06843 -7.46028,6.96626c-3.93061,-0.10217 -7.06934,-3.1637 -6.90199,-7.33946c0.16724,-4.17578 3.3488,-7.09737 7.47607,-6.99011z" fill="#878787" stroke="none" stroke-width="0" stroke-linecap="butt"/><path d="M279.95538,176.40406c0,-25.86339 20.96641,-46.82983 46.8298,-46.82983c25.8634,0 46.82984,20.96643 46.82984,46.82983c0,25.86339 -20.96643,46.8298 -46.82983,46.8298c-25.8634,0 -46.8298,-20.96641 -46.8298,-46.8298z" fill="none" stroke="#878787" stroke-width="7.5" stroke-linecap="butt"/></g><path d="M318.75725,215.56924c-14.38624,-2.52421 -20.16039,-11.10058 -20.16039,-11.10058l28.00649,-27.72039l27.73327,27.77462c0,0 -6.42553,7.70505 -17.03477,10.10585c-9.66517,1.84687 -11.38656,2.19645 -18.54459,0.94048z" data-paper-data="{&quot;index&quot;:null}" fill="url(#color-18)" stroke="none" stroke-width="0" stroke-linecap="butt"/></g><g stroke-width="0"><path d="M240.44428,157.14746l-14.87502,-1.02014l-22.79513,-13.58532l-0.92769,-15.3488l48.22482,-0.62342z" fill="#f7fbfb" stroke="#8f8f8f" stroke-linecap="round"/><path d="M243.67214,145.88618h-18.08333l-15,-10.25h30.33333z" data-paper-data="{&quot;index&quot;:null}" fill="#e5e9e9" stroke="none" stroke-linecap="butt"/><path d="M228.8388,155.92788v-29.33333h22.33333v29.33333z" data-paper-data="{&quot;index&quot;:null}" fill="url(#color-19)" stroke="none" stroke-linecap="butt"/></g><g data-paper-data="{&quot;index&quot;:null}" stroke-width="0"><path d="M233.28065,126.56983l48.22482,0.62342l-0.92769,15.3488l-22.79513,13.58532l-14.87502,1.02014z" fill="#f7fbfb" stroke="#8f8f8f" stroke-linecap="round"/><path d="M242.42978,135.63618h30.33333l-15,10.25h-18.08333z" data-paper-data="{&quot;index&quot;:null}" fill="#e5e9e9" stroke="none" stroke-linecap="butt"/><path d="M232.17976,155.92788v-29.33333h22.33333v29.33333z" data-paper-data="{&quot;index&quot;:null}" fill="url(#color-20)" stroke="none" stroke-linecap="butt"/></g><g stroke="none" stroke-width="0" stroke-linecap="butt"><path d="M201.00546,111.76126v-20.5h96.90335l-1.54847,20.5z" fill="#d7dbdb"/><path d="M201.00546,111.76126v-12.2388h97.16667l-1.54847,12.2388z" fill="url(#color-21)"/></g><g stroke="none" stroke-width="0" stroke-linecap="butt"><path d="M187.98393,111.76126l-1.54847,-20.5h58.40335v20.5z" fill="#d7dbdb"/><path d="M187.7206,111.76126l-1.54847,-12.2388h65.66666v12.2388z" fill="url(#color-22)"/></g><path d="M212.3388,111.59458v-20.33333h42v20.33333z" data-paper-data="{&quot;index&quot;:null}" fill="url(#color-23)" stroke="none" stroke-width="0" stroke-linecap="butt"/><path d="M232.3388,111.59458v-20.33333h38.99999v20.33333z" data-paper-data="{&quot;index&quot;:null}" fill="url(#color-24)" stroke="none" stroke-width="0" stroke-linecap="butt"/><path d="M246.87516,31.76834l58.22086,-0.29474l-0.4149,6.58782l-58.34429,10.1892z" data-paper-data="{&quot;index&quot;:null}" fill="#f7fbfb" stroke="#8f8f8f" stroke-width="0" stroke-linecap="round"/><path d="M242.79233,48.45777l-66.96099,-9.88501l-0.66212,-6.5802l67.84557,-0.29478z" fill="#f7fbfb" stroke="#8f8f8f" stroke-width="0" stroke-linecap="round"/><g fill="#d3d7d7" stroke="none" stroke-width="0" stroke-linecap="butt"><path d="M275.05021,31.67854h12.87586v3.25l-12.87586,2.00002z"/><path d="M263.14009,31.67854h7.08175v5.74999l-7.08175,0.99999z"/></g><path d="M204.72643,36.92859l-12.87585,-2.00002v-3.25h12.87586z" fill="#d3d7d7" stroke="none" stroke-width="0" stroke-linecap="butt"/><path d="M216.63659,38.42852l-7.08172,-0.99999v-5.75h7.08172z" fill="#d3d7d7" stroke="none" stroke-width="0" stroke-linecap="butt"/><path d="M237.43881,48.36336v-16.4h9.6v16.4z" fill="#f7fbfb" stroke="none" stroke-width="0" stroke-linecap="butt"/><g fill="#97a4a3" stroke="#8f8f8f" stroke-width="0" stroke-linecap="round"><path d="M240.83101,64.72017l-23.20638,-0.47787l-10.67774,-6.36364l-0.43453,-7.18968l28.05446,-0.29204z"/><path d="M250.25498,50.61752l28.05445,-0.29203l-0.28478,7.19718l-10.54296,6.58456l-23.19137,0.96085z" data-paper-data="{&quot;index&quot;:null}"/></g><path d="M245.42214,64.20781v-13.33333h17.66666v13.33333z" fill="url(#color-25)" stroke="none" stroke-width="0" stroke-linecap="butt"/><path d="M221.75546,64.20781v-13.33333h17.66667v13.33333z" data-paper-data="{&quot;index&quot;:null}" fill="url(#color-26)" stroke="none" stroke-width="0" stroke-linecap="butt"/><path d="M244.3388,48.76336v-17.33333h15.99999v14.66667z" fill="url(#color-27)" stroke="none" stroke-width="0" stroke-linecap="butt"/><path d="M224.17214,46.0967v-14.66667h16v17.33333z" data-paper-data="{&quot;index&quot;:null}" fill="url(#color-28)" stroke="none" stroke-width="0" stroke-linecap="butt"/><g><path d="M318.39908,260.51858l-0.0012,-19.28572" fill="none" stroke="#f7fbfb" stroke-width="5.5" stroke-linecap="round"/><path d="M311.89784,241.23327l0.00119,19.28572" fill="none" stroke="#f7fbfb" stroke-width="5.5" stroke-linecap="round"/><path d="M305.39905,260.51939l-0.00119,-19.28572" fill="none" stroke="#f7fbfb" stroke-width="5.5" stroke-linecap="round"/><path d="M303.89466,242.15914l2.7273,-0.00017l0.0007,11.25l-2.7273,0.00017z" fill="#00ddff" stroke="none" stroke-width="0" stroke-linecap="butt"/><path d="M317.53103,242.15827l2.72722,-0.00017l0.0007,11.25l-2.72722,0.00017z" fill="#00ddff" stroke="none" stroke-width="0" stroke-linecap="butt"/><path d="M318.60051,262.94611c-1.39328,0.00009 -2.52274,-0.66419 -2.52279,-1.48379c-0.00005,-0.81952 1.12934,-1.48409 2.52261,-1.48417c1.39328,-0.00009 2.52281,0.66426 2.52286,1.48386c0.00005,0.81952 -1.12941,1.48402 -2.52268,1.4841z" fill="#797c7c" stroke="none" stroke-width="0" stroke-linecap="butt"/><path d="M312.10046,262.94651c-1.39328,0.00009 -2.52283,-0.66419 -2.52287,-1.48379c-0.00005,-0.81952 1.12941,-1.48409 2.52269,-1.48417c1.39328,-0.00009 2.52281,0.66426 2.52285,1.48386c0.00005,0.81952 -1.12941,1.48402 -2.52267,1.4841z" fill="#797c7c" stroke="none" stroke-width="0" stroke-linecap="butt"/><path d="M305.35046,262.94694c-1.39328,0.00009 -2.52283,-0.6642 -2.52287,-1.4838c-0.00005,-0.81952 1.12941,-1.48409 2.52269,-1.48417c1.39328,-0.00009 2.52281,0.66426 2.52285,1.48387c0.00005,0.81952 -1.12941,1.48402 -2.52267,1.4841z" fill="#797c7c" stroke="none" stroke-width="0" stroke-linecap="butt"/><path d="M301.87361,233.94819l20.3571,-0.00126l0.00138,22.38095l-20.3571,0.00126z" fill="url(#color-29)" stroke="none" stroke-width="NaN" stroke-linecap="butt"/></g><g><path d="M174.39512,242.6339l0.02655,19.2857" fill="none" stroke="#f7fbfb" stroke-width="5.5" stroke-linecap="round"/><path d="M167.8951,242.64279l0.02655,19.2857" fill="none" stroke="#f7fbfb" stroke-width="5.5" stroke-linecap="round"/><path d="M161.39513,242.65179l0.02656,19.2857" fill="none" stroke="#f7fbfb" stroke-width="5.5" stroke-linecap="round"/><path d="M159.89311,243.5792l2.7273,-0.00376l0.01549,11.24999l-2.7273,0.00375z" fill="#00ddff" stroke="none" stroke-width="0" stroke-linecap="butt"/><path d="M173.52952,243.56041l2.72723,-0.00376l0.01549,11.24999l-2.72723,0.00375z" fill="#00ddff" stroke="none" stroke-width="0" stroke-linecap="butt"/><path d="M174.62631,264.34684c-1.39327,0.00192 -2.52361,-0.66087 -2.52474,-1.48047c-0.00113,-0.81952 1.12737,-1.48557 2.52065,-1.48749c1.39327,-0.00192 2.52369,0.66094 2.52482,1.48054c0.00113,0.81952 -1.12745,1.4855 -2.52073,1.48742z" fill="#797c7c" stroke="none" stroke-width="0" stroke-linecap="butt"/><path d="M168.1263,264.35578c-1.39327,0.00192 -2.52368,-0.66087 -2.52481,-1.48047c-0.00113,-0.81952 1.12745,-1.48557 2.52072,-1.48749c1.39327,-0.00192 2.52368,0.66094 2.52481,1.48054c0.00113,0.81952 -1.12745,1.4855 -2.52072,1.48742z" fill="#797c7c" stroke="none" stroke-width="0" stroke-linecap="butt"/><path d="M161.37626,264.3651c-1.39327,0.00192 -2.52368,-0.66088 -2.52481,-1.48048c-0.00113,-0.81952 1.12745,-1.48557 2.52072,-1.48749c1.39327,-0.00192 2.52368,0.66094 2.52481,1.48055c0.00113,0.81952 -1.12746,1.4855 -2.52073,1.48742z" fill="#797c7c" stroke="none" stroke-width="0" stroke-linecap="butt"/><path d="M157.86122,235.37093l20.35708,-0.02803l0.03082,22.38093l-20.35708,0.02803z" fill="url(#color-30)" stroke="none" stroke-width="NaN" stroke-linecap="butt"/></g><path d="M272.26216,227.47534l59.8915,-0.62338l-0.60798,15.36478l-22.50742,14.05688l-49.50966,2.05122z" data-paper-data="{&quot;index&quot;:null}" fill="#f7fbfb" stroke="#8f8f8f" stroke-width="0" stroke-linecap="round"/><path d="M221.11095,257.81417l-49.54169,-1.02014l-22.79513,-13.58532l-0.92769,-15.3488l59.8915,-0.62342z" fill="#f7fbfb" stroke="#8f8f8f" stroke-width="0" stroke-linecap="round"/><g><g><g stroke="none" stroke-width="0" stroke-linecap="butt"><path d="M219.30325,310.78504l41.03999,-0.17886l0.14848,34.07094l-41.03996,0.17886z" fill="#818181"/><path d="M239.97231,349.7358c-10.90522,0.04753 -19.7325,-1.72769 -19.75301,-6.43189c-0.02051,-4.70421 8.84797,-5.5566 19.75319,-5.60414c10.90522,-0.04753 19.71761,0.72781 19.73812,5.43202c0.02051,4.70421 -8.83308,6.55649 -19.73829,6.60402z" fill="url(#color-31)"/><path d="M239.86034,319.21333c-10.90522,0.04753 -19.76228,-3.72747 -19.7828,-8.43168c-0.02051,-4.70421 8.80331,-8.55626 19.70853,-8.60379c10.90522,-0.04753 19.76227,3.72747 19.78278,8.43168c0.02051,4.70421 -8.8033,8.55626 -19.70852,8.60379z" fill="#818181"/></g><path d="M224.37739,334.96146l-0.10462,-24.00451" fill="none" stroke="#727272" stroke-width="3" stroke-linecap="round"/><path d="M231.71843,331.44489l-0.10463,-24.00451" fill="none" stroke="#727272" stroke-width="4" stroke-linecap="round"/><path d="M240.51364,306.24007l0.10463,24.00452" fill="none" stroke="#727272" stroke-width="4" stroke-linecap="round"/><path d="M255.73814,334.82479l-0.10464,-24.00452" fill="none" stroke="#727272" stroke-width="3" stroke-linecap="round"/><path d="M248.26545,308.14216l0.10462,24.00452" fill="none" stroke="#727272" stroke-width="4" stroke-linecap="round"/></g><path d="M246.48681,345.08031c-0.2117,2.49102 -2.70273,2.27932 -2.70273,2.27932l-2.50344,-0.21275c-2.59534,-0.22353 -5.02343,-0.51352 -7.6153,-0.62646c-1.23669,-0.05388 -2.63535,0.30881 -3.69946,-0.32362c-0.17245,-0.10249 -0.33891,-0.21259 -0.50026,-0.32923l-0.04761,0.07734l-2.7399,-1.6868c-0.72234,-0.42904 -1.2115,-1.2121 -1.22493,-2.11375c-0.01851,-1.24292 0.87328,-2.28746 2.05872,-2.49839l2.69949,-0.53246c0,0 2.45274,-0.48377 2.93652,1.96898c0.01516,0.07687 0.02745,0.1518 0.037,0.22485c2.70066,-0.35089 6.18085,0.66174 8.51915,0.85752l2.50344,0.21276c0,0 2.49102,0.2117 2.27932,2.70272z" fill="#5f5f5f" stroke="none" stroke-width="0.5" stroke-linecap="butt"/><path d="M257.84421,343.20282c-0.75518,2.38322 -3.13839,1.62804 -3.13839,1.62804l-1.26105,-0.61163c-0.99865,0.09821 -1.9973,0.19642 -2.99595,0.29463c0,0 -2.488,0.24468 -2.73268,-2.24331c-0.24469,-2.488 2.24331,-2.73268 2.24331,-2.73268c0.99865,-0.09821 1.9973,-0.19642 2.99595,-0.29463l3.26078,0.82121c0,0 2.38322,0.75516 1.62804,3.13838z" fill="#5f5f5f" stroke="none" stroke-width="0.5" stroke-linecap="butt"/></g><path d="M201.3388,246.55289h-29.75l-15,-10.25h65z" data-paper-data="{&quot;index&quot;:null}" fill="#e5e9e9" stroke="none" stroke-width="0" stroke-linecap="butt"/><path d="M258.92206,236.30289h65l-15,10.25h-29.75z" data-paper-data="{&quot;index&quot;:null}" fill="#e5e9e9" stroke="none" stroke-width="0" stroke-linecap="butt"/><path d="M248.8388,256.59452v-29.33333h56.99999v29.33333z" fill="url(#color-32)" stroke="none" stroke-width="0" stroke-linecap="butt"/><path d="M174.8388,256.59452v-29.33333h57v29.33333z" data-paper-data="{&quot;index&quot;:null}" fill="url(#color-33)" stroke="none" stroke-width="0" stroke-linecap="butt"/><path d="M249.51087,32.28179l13.60078,133.61052l24.96119,30.82939l6.12516,41.45606l-4.09441,46.65809l-28.88261,42.76624c0,0 -7.29164,3.24343 -10.93253,4.86295c-3.63429,1.61658 -5.79906,-6.38902 -10.88124,-6.15462c-5.08218,0.2344 -6.6288,8.45397 -10.09079,7.12191c-3.67945,-1.41573 -10.71838,-4.38059 -10.71838,-4.38059l-27.51113,-41.23801l-4.78251,-52.0584l8.70338,-42.2072l26.16068,-29.03572l13.82252,-132.25139" fill="#97a4a3" stroke="#97a4a3" stroke-width="0.5" stroke-linecap="round"/><path d="M233.37068,45.96268l17.40625,0.01863l1.70371,14.3996l-21.05941,-0.02252z" fill="url(#color-34)" stroke="none" stroke-width="0" stroke-linecap="butt"/><path d="M199.25005,274.15702l17,6.4074l18.33334,34.9495h10.66666l19.33333,-35.53199l17.33333,-6.69864l0.66667,5.53366l-26,51.84175l-32.66667,0.29125l-29.66666,-48.3468z" fill="#a2b1af" stroke="#000000" stroke-width="0" stroke-linecap="round"/><path d="M268.56908,270.59425l6.25,5.5791l-24.25,47.08757h-21.25l-23,-45.74859l7.75,-6.91808h52.25z" fill="#9aa7a6" stroke="#000000" stroke-width="0" stroke-linecap="round"/><path d="M291.27783,284.33247l-29.62282,44.31565l-9.82653,3.79638l30.06847,-52.6668l2.43971,-24.5995l9.221,-8.42843z" fill="#f7fbfb" stroke="#f7fbfb" stroke-width="0.5" stroke-linecap="round"/><path d="M187.29238,250.30843l8.94839,8.01804l2.90419,23.80878l28.78369,49.66682l-9.0783,-2.62323l-28.4939,-42.4717z" data-paper-data="{&quot;index&quot;:null}" fill="#f7fbfb" stroke="#f7fbfb" stroke-width="0.5" stroke-linecap="round"/><g data-paper-data="{&quot;index&quot;:null}"><path d="M279.5424,283.04159c2.00766,-2.43517 6.3191,-3.16981 9.62984,-1.64083c3.31075,1.52898 4.36712,4.74255 2.35947,7.17773c-2.00766,2.43519 -6.31909,3.1698 -9.62984,1.64083c-3.31075,-1.52896 -4.36714,-4.74256 -2.35946,-7.17774z" fill="url(#color-35)" stroke="none" stroke-width="NaN" stroke-linecap="butt"/><path d="M276.28103,287.51671c2.00766,-2.43519 6.3191,-3.1698 9.62984,-1.64083c3.31075,1.52896 4.36712,4.74256 2.35946,7.17773c-2.00766,2.43519 -6.3191,3.16979 -9.62985,1.64081c-3.31075,-1.52896 -4.36712,-4.74253 -2.35946,-7.17773z" fill="url(#color-36)" stroke="none" stroke-width="NaN" stroke-linecap="butt"/><path d="M265.18192,302.36408c2.00766,-2.43519 6.31909,-3.16981 9.62984,-1.64083c3.31075,1.52896 4.36713,4.74255 2.35947,7.17774c-2.00766,2.43519 -6.3191,3.1698 -9.62984,1.64083c-3.31075,-1.52896 -4.36712,-4.74255 -2.35944,-7.17773z" fill="url(#color-37)" stroke="none" stroke-width="NaN" stroke-linecap="butt"/><path d="M272.78882,292.0988c2.00766,-2.43519 6.3191,-3.1698 9.62984,-1.64083c3.31075,1.52896 4.36712,4.74255 2.35944,7.17774c-2.00765,2.43517 -6.3191,3.16979 -9.62984,1.64082c-3.31075,-1.52896 -4.36712,-4.74253 -2.35946,-7.17773z" fill="url(#color-38)" stroke="none" stroke-width="NaN" stroke-linecap="butt"/><path d="M262.19989,306.32732c2.00766,-2.43519 6.3191,-3.1698 9.62984,-1.64083c3.31075,1.52896 4.36712,4.74256 2.35944,7.17774c-2.00766,2.43519 -6.31908,3.16979 -9.62982,1.64082c-3.31075,-1.52896 -4.36712,-4.74254 -2.35946,-7.17774z" fill="url(#color-39)" stroke="none" stroke-width="NaN" stroke-linecap="butt"/><path d="M269.20858,296.96067c2.00766,-2.43519 6.31909,-3.1698 9.62984,-1.64083c3.31075,1.52896 4.36712,4.74255 2.35944,7.17774c-2.00766,2.43519 -6.3191,3.1698 -9.62984,1.64083c-3.31075,-1.52896 -4.36712,-4.74256 -2.35946,-7.17774z" fill="url(#color-40)" stroke="none" stroke-width="NaN" stroke-linecap="butt"/><path d="M256.15436,315.39113c2.00766,-2.43519 6.31909,-3.16979 9.62984,-1.64082c3.31075,1.52896 4.36712,4.74255 2.35944,7.17774c-2.00766,2.43519 -6.3191,3.16979 -9.62984,1.64082c-3.31075,-1.52896 -4.36712,-4.74254 -2.35946,-7.17774z" fill="url(#color-41)" stroke="none" stroke-width="NaN" stroke-linecap="butt"/><path d="M259.74341,309.99926c2.00766,-2.43519 6.31909,-3.16979 9.62984,-1.64083c3.31075,1.52896 4.36713,4.74255 2.35947,7.17774c-2.00766,2.43519 -6.3191,3.16979 -9.62984,1.64082c-3.31075,-1.52896 -4.36712,-4.74256 -2.35946,-7.17773z" fill="url(#color-42)" stroke="none" stroke-width="NaN" stroke-linecap="butt"/><g fill="none" stroke-linecap="round"><path d="M261.68356,319.01271l23.73107,-32.93879" stroke="#a1f2ff" stroke-width="7.5"/><path d="M261.68356,319.01271l23.73107,-32.93879" stroke="#00ddff" stroke-width="2.5"/></g></g><g><path d="M198.41302,291.46961c-3.31512,1.52368 -7.62443,0.78215 -9.62512,-1.65625c-2.0007,-2.4384 -0.93515,-5.65025 2.37997,-7.17392c3.31512,-1.52368 7.62444,-0.78215 9.62513,1.65625c2.0007,2.43838 0.93515,5.65027 -2.37998,7.17393z" fill="url(#color-43)" stroke="none" stroke-width="NaN" stroke-linecap="butt"/><path d="M201.66159,295.94991c-3.31512,1.52368 -7.62444,0.78215 -9.62513,-1.65624c-2.0007,-2.4384 -0.93515,-5.65026 2.37998,-7.17394c3.31512,-1.52368 7.62445,-0.78215 9.62514,1.65625c2.0007,2.4384 0.93515,5.65025 -2.37998,7.17393z" fill="url(#color-44)" stroke="none" stroke-width="NaN" stroke-linecap="butt"/><path d="M212.71822,310.81503c-3.31512,1.52368 -7.62444,0.78215 -9.62513,-1.65625c-2.0007,-2.4384 -0.93515,-5.65027 2.37998,-7.17394c3.31512,-1.52368 7.62443,-0.78214 9.62511,1.65625c2.0007,2.4384 0.93514,5.65024 -2.37996,7.17392z" fill="url(#color-45)" stroke="none" stroke-width="NaN" stroke-linecap="butt"/><path d="M205.14072,300.53758c-3.31512,1.52368 -7.62443,0.78215 -9.62512,-1.65625c-2.0007,-2.4384 -0.93514,-5.65026 2.37998,-7.17393c3.31512,-1.52368 7.62443,-0.78213 9.62512,1.65625c2.0007,2.4384 0.93514,5.65026 -2.37998,7.17393z" fill="url(#color-46)" stroke="none" stroke-width="NaN" stroke-linecap="butt"/><path d="M215.68894,314.78306c-3.31512,1.52368 -7.62445,0.78215 -9.62513,-1.65625c-2.0007,-2.4384 -0.93514,-5.65026 2.37998,-7.17394c3.31512,-1.52368 7.62445,-0.78213 9.62514,1.65625c2.0007,2.4384 0.93515,5.65026 -2.37998,7.17394z" fill="url(#color-47)" stroke="none" stroke-width="NaN" stroke-linecap="butt"/><path d="M208.70705,305.40522c-3.31512,1.52368 -7.62443,0.78215 -9.62512,-1.65625c-2.0007,-2.4384 -0.93516,-5.65025 2.37996,-7.17393c3.31512,-1.52368 7.62445,-0.78215 9.62512,1.65624c2.0007,2.4384 0.93514,5.65027 -2.37998,7.17394z" fill="url(#color-48)" stroke="none" stroke-width="NaN" stroke-linecap="butt"/><path d="M221.70851,323.85652c-3.31512,1.52368 -7.62443,0.78214 -9.62511,-1.65625c-2.0007,-2.4384 -0.93514,-5.65026 2.37997,-7.17393c3.31512,-1.52368 7.62443,-0.78215 9.62512,1.65625c2.0007,2.4384 0.93514,5.65026 -2.37998,7.17393z" fill="url(#color-49)" stroke="none" stroke-width="NaN" stroke-linecap="butt"/><path d="M218.13491,318.45894c-3.31512,1.52368 -7.62444,0.78214 -9.62512,-1.65625c-2.0007,-2.4384 -0.93515,-5.65027 2.37998,-7.17394c3.31512,-1.52368 7.62444,-0.78213 9.62512,1.65625c2.0007,2.4384 0.93514,5.65026 -2.37998,7.17392z" fill="url(#color-50)" stroke="none" stroke-width="NaN" stroke-linecap="butt"/><g fill="none" stroke-linecap="round"><path d="M194.91213,287.31856l23.63687,32.97672" stroke="#a1f2ff" stroke-width="7.5"/><path d="M194.91213,287.31856l23.63687,32.97672" stroke="#00ddff" stroke-width="2.5"/></g></g><path d="M231.28881,65.16339l2.8,-32.8h16.5l1.6,32.8z" fill="url(#color-51)" stroke="none" stroke-width="0" stroke-linecap="butt"/><path d="M236.43881,5.76336h11.4" fill="none" stroke="#697271" stroke-width="5" stroke-linecap="round"/><path d="M250.03881,32.76334h-15.6l4.4,-26.6h6.2z" fill="#97a4a3" stroke="#000000" stroke-width="0" stroke-linecap="round"/><path d="M229.8388,295.84452l-7,-7.33333v-35.33334l6.66666,-7h22.66667l6.66666,7.66667v34.33333l-6.33333,7.66667z" fill="url(#color-52)" stroke="none" stroke-width="0" stroke-linecap="butt"/><path d="M203.3388,237.26124c0,-20.71068 16.78932,-37.5 37.5,-37.5c20.71068,0 37.49999,16.78932 37.49999,37.5c0,20.71068 -16.78932,37.5 -37.5,37.5c-20.71068,0 -37.5,-16.78932 -37.5,-37.5z" fill="url(#color-53)" stroke="none" stroke-width="0" stroke-linecap="butt"/><path d="M217.0888,266.039v-14.33333h46.99999v14.33333z" fill="#f7fbfb" stroke="none" stroke-width="0" stroke-linecap="butt"/><path d="M203.3388,213.26124c0,-20.71068 16.78932,-37.5 37.5,-37.5c20.71068,0 37.49999,16.78932 37.49999,37.5c0,20.71068 -16.78932,37.5 -37.5,37.5c-20.71068,0 -37.5,-16.78932 -37.5,-37.5z" fill="url(#color-54)" stroke="none" stroke-width="0" stroke-linecap="butt"/><path d="M224.3388,263.26122l-10.5,-11v-53l10,-10.5h33.99999l10,11.5v51.5l-9.5,11.5z" fill="#f7fbfb" stroke="none" stroke-width="0" stroke-linecap="butt"/><path d="M227.84411,325.59981l-24.5,-48.56667l2.9,0.11724l23.26667,45.81153z" fill="#929f9e" stroke="#000000" stroke-width="0" stroke-linecap="round"/><path d="M250.14412,322.53148l23.26666,-45.18268l2.89999,-0.11563l-24.5,47.90001z" data-paper-data="{&quot;index&quot;:null}" fill="#929f9e" stroke="#000000" stroke-width="0" stroke-linecap="round"/><path d="M230.92214,157.59669h-7.33333l9.5,-92h5.33333z" fill="#b1c0bf" stroke="#000000" stroke-width="0" stroke-linecap="round"/><path d="M246.42214,65.59669h5.33333l9,92h-7.33333z" data-paper-data="{&quot;index&quot;:null}" fill="#b1c0bf" stroke="#000000" stroke-width="0" stroke-linecap="round"/><path d="M263.00545,159.92789h-41.66666l1.66666,-12.66666h38.33333z" data-paper-data="{&quot;index&quot;:null}" fill="url(#color-55)" stroke="none" stroke-width="0" stroke-linecap="butt"/><path d="M255.12507,175.83885h-25.5l-8.5,-16h42z" fill="#8b9796" stroke="#000000" stroke-width="0" stroke-linecap="round"/><path d="M229.62505,175.33885l-19.25,23.25l-15.5,-6l26.5,-32.75z" fill="#909d9c" stroke="#000000" stroke-width="0" stroke-linecap="round"/><path d="M263.37505,159.83882l25.5,36.25l-15.75,2.5l-18,-23.25z" data-paper-data="{&quot;index&quot;:null}" fill="#909d9c" stroke="#000000" stroke-width="0" stroke-linecap="round"/><g><g stroke-linecap="butt"><path d="M214.06898,108.2734h2.7685v10.61431h-2.7685z" fill="#a1a1a1" stroke="#a1a1a1" stroke-width="0.5"/><path d="M213.33071,118.41545h4.33734v4.94745h-4.33734z" fill="url(#color-56)" stroke="url(#color-57)" stroke-width="0.5"/><path d="M213.79213,104.33381h3.4145v7.28849h-3.4145z" fill="#a1a1a1" stroke="#a1a1a1" stroke-width="0.5"/><path d="M213.60754,109.99477h3.78363v1.1322h-3.78363z" fill="url(#color-58)" stroke="none" stroke-width="0"/><path d="M213.97668,111.76382h3.04536v2.90125h-3.04536z" fill="url(#color-59)" stroke="none" stroke-width="0"/><path d="M213.88443,116.57562h3.13763v1.6983h-3.13763z" fill="url(#color-60)" stroke="none" stroke-width="0"/></g><path d="M205.59659,111.81289c-5.9247,-5.92471 -5.89106,-14.60273 0,-20.4938c5.89106,-5.89106 14.50054,-5.8727 20.37324,0c5.8727,5.8727 5.62215,14.7511 0,20.37325c-5.62214,5.62214 -14.44854,6.04525 -20.37324,0.12055z" data-paper-data="{&quot;index&quot;:null}" fill="url(#color-61)" stroke="none" stroke-width="0" stroke-linecap="butt"/><path d="M215.63875,110.14475c-4.71605,0 -8.53916,-3.84105 -8.53916,-8.57925c0,-4.7382 3.82311,-8.57925 8.53916,-8.57925c4.71605,0 8.53916,3.84107 8.53916,8.57925c0,4.7382 -3.82311,8.57925 -8.53916,8.57925z" fill="#00fffd" stroke="none" stroke-width="NaN" stroke-linecap="butt"/><path d="M215.63875,110.14475c-4.71605,0 -8.53916,-3.84105 -8.53916,-8.57925c0,-4.7382 3.82311,-8.57925 8.53916,-8.57925c4.71605,0 8.53916,3.84107 8.53916,8.57925c0,4.7382 -3.82311,8.57925 -8.53916,8.57925z" fill="url(#color-62)" stroke="none" stroke-width="NaN" stroke-linecap="butt"/><path d="M209.26171,96.27725c0,0 1.96648,-3.14672 6.54197,-3.15552c4.65354,-0.00895 6.251,3.03868 6.251,3.03868l-2.45345,4.55641h-7.30193z" fill="url(#color-63)" stroke="#000000" stroke-width="0" stroke-linecap="round"/><path d="M215.63875,108.7417c-3.96331,0 -7.1762,-3.2129 -7.1762,-7.17621c0,-3.96331 3.21289,-7.17621 7.1762,-7.17621c3.96331,0 7.17621,3.2129 7.17621,7.17621c0,3.96331 -3.2129,7.17621 -7.17621,7.17621z" fill="none" stroke="#ff0000" stroke-width="1" stroke-linecap="butt"/><path d="M215.63875,106.51064c-2.73112,0 -4.94514,-2.21403 -4.94514,-4.94514c0,-2.73112 2.21402,-4.94514 4.94514,-4.94514c2.73112,0 4.94514,2.21402 4.94514,4.94514c0,2.73112 -2.21403,4.94514 -4.94514,4.94514z" fill="none" stroke="#575757" stroke-width="1.5" stroke-linecap="butt"/></g><g><g stroke-linecap="butt"><path d="M266.8189,108.2734h2.76851v10.61431h-2.76851z" fill="#a1a1a1" stroke="#a1a1a1" stroke-width="0.5"/><path d="M266.08065,118.41545h4.33734v4.94745h-4.33734z" fill="url(#color-64)" stroke="url(#color-65)" stroke-width="0.5"/><path d="M266.54213,104.33381h3.41449v7.28849h-3.41449z" fill="#a1a1a1" stroke="#a1a1a1" stroke-width="0.5"/><path d="M266.35749,109.99477h3.78364v1.1322h-3.78364z" fill="url(#color-66)" stroke="none" stroke-width="0"/><path d="M266.72668,111.76382h3.04536v2.90125h-3.04536z" fill="url(#color-67)" stroke="none" stroke-width="0"/><path d="M266.63437,116.57562h3.13763v1.6983h-3.13763z" fill="url(#color-68)" stroke="none" stroke-width="0"/></g><path d="M258.34659,111.81289c-5.9247,-5.92471 -5.89106,-14.60273 0,-20.4938c5.89106,-5.89106 14.50054,-5.8727 20.37324,0c5.8727,5.8727 5.62215,14.7511 0,20.37325c-5.62214,5.62214 -14.44854,6.04525 -20.37324,0.12055z" data-paper-data="{&quot;index&quot;:null}" fill="url(#color-69)" stroke="none" stroke-width="0" stroke-linecap="butt"/><path d="M268.38869,110.14475c-4.71605,0 -8.53916,-3.84105 -8.53916,-8.57925c0,-4.7382 3.82311,-8.57925 8.53916,-8.57925c4.71605,0 8.53915,3.84107 8.53915,8.57925c0,4.7382 -3.8231,8.57925 -8.53915,8.57925z" fill="#00fffd" stroke="none" stroke-width="NaN" stroke-linecap="butt"/><path d="M268.38869,110.14475c-4.71605,0 -8.53916,-3.84105 -8.53916,-8.57925c0,-4.7382 3.82311,-8.57925 8.53916,-8.57925c4.71605,0 8.53915,3.84107 8.53915,8.57925c0,4.7382 -3.8231,8.57925 -8.53915,8.57925z" fill="url(#color-70)" stroke="none" stroke-width="NaN" stroke-linecap="butt"/><path d="M262.01171,96.27725c0,0 1.96648,-3.14672 6.54197,-3.15552c4.65354,-0.00895 6.251,3.03868 6.251,3.03868l-2.45345,4.55641h-7.30193z" fill="url(#color-71)" stroke="#000000" stroke-width="0" stroke-linecap="round"/><path d="M268.38869,108.7417c-3.96331,0 -7.1762,-3.2129 -7.1762,-7.17621c0,-3.96331 3.21289,-7.17621 7.1762,-7.17621c3.96331,0 7.17621,3.2129 7.17621,7.17621c0,3.96331 -3.2129,7.17621 -7.17621,7.17621z" fill="none" stroke="#ff0000" stroke-width="1" stroke-linecap="butt"/><path d="M268.38869,106.51064c-2.73112,0 -4.94514,-2.21403 -4.94514,-4.94514c0,-2.73112 2.21402,-4.94514 4.94514,-4.94514c2.73112,0 4.94514,2.21402 4.94514,4.94514c0,2.73112 -2.21403,4.94514 -4.94514,4.94514z" fill="none" stroke="#575757" stroke-width="1.5" stroke-linecap="butt"/></g><path d="M251.59411,325.61091h-23.8l1.71533,-3.2h20.7982z" fill="#95a2a1" stroke="#000000" stroke-width="0" stroke-linecap="round"/><g><g><path d="M244.53017,264.02941v15.92946" fill="none" stroke="url(#color-72)" stroke-width="5" stroke-linecap="round"/><path d="M219.41418,264.02941v15.92946" fill="none" stroke="url(#color-73)" stroke-width="5" stroke-linecap="round"/><path d="M221.34621,262.664h21.25193v23.66666c0,0 -3.57261,2.4 -10.96931,2.4c-7.63715,0 -10.28262,-2.4 -10.28262,-2.4z" fill="url(#color-74)" stroke="url(#color-75)" stroke-width="0" stroke-linecap="butt"/><path d="M254.19012,271.76662v9.10259l-6.76195,3.18588" fill="none" stroke="#97a4a3" stroke-width="4" stroke-linecap="round"/><path d="M216.51617,284.05508l-2.76195,-3.18588v-9.10259" data-paper-data="{&quot;index&quot;:null}" fill="none" stroke="#8d9998" stroke-width="4" stroke-linecap="round"/></g><g><path d="M261.7301,279.95887v-15.92946" fill="none" stroke="url(#color-76)" stroke-width="5" stroke-linecap="round"/><path d="M236.61417,264.02941v15.92946" fill="none" stroke="url(#color-77)" stroke-width="5" stroke-linecap="round"/><path d="M238.54618,262.664h21.25194v23.66666c0,0 -3.57261,2.4 -10.96931,2.4c-7.63715,0 -10.28263,-2.4 -10.28263,-2.4z" fill="url(#color-78)" stroke="url(#color-79)" stroke-width="0" stroke-linecap="butt"/><path d="M267.05674,271.76662v9.10259l-2.42862,3.18588" fill="none" stroke="#8d9998" stroke-width="4" stroke-linecap="round"/></g><path d="M230.41382,288.91263v-26.2h19.6v26.2z" fill="url(#color-80)" stroke="none" stroke-width="0" stroke-linecap="butt"/></g><g stroke="none" stroke-width="0" stroke-linecap="butt"><path d="M218.5417,344.34431v-14.5h43v14.5l-7.871,6.82291l-27.129,-0.07291z" fill="#f5f9f9"/><path d="M226.2084,339.80884v-9.32946h27.66667v9.32946l-5.06429,4.38994l-17.45509,-0.04691z" fill="#e3e7e7"/><path d="M227.00005,330.56649v-1.83333h26.83333v1.83333z" fill="#b6c6c5"/></g><g><path d="M224.17617,323.45072c-9.16037,-9.16039 -9.10838,-22.57776 0,-31.68614c9.10836,-9.10838 22.41976,-9.07999 31.49974,0c9.07999,9.07999 8.69259,22.80715 0,31.49974c-8.69259,8.69259 -22.33936,9.34676 -31.49974,0.18639z" data-paper-data="{&quot;index&quot;:null}" fill="url(#color-81)" stroke="none" stroke-width="0" stroke-linecap="butt"/><path d="M238.40551,315.35988h2.22012v11.10059h-2.22012z" fill="#a1a1a1" stroke="#a1a1a1" stroke-width="0.5" stroke-linecap="butt"/><path d="M237.81347,325.96657h3.47818v2.96016h-3.47818z" fill="#a1a1a1" stroke="#a1a1a1" stroke-width="0.5" stroke-linecap="butt"/><path d="M238.18354,311.2398h2.73815v7.62241h-2.73815z" fill="#a1a1a1" stroke="#a1a1a1" stroke-width="0.5" stroke-linecap="butt"/><path d="M239.7179,317.53882c-5.59349,0 -10.12789,-4.5557 -10.12789,-10.17544c0,-5.61974 4.53441,-10.17544 10.12789,-10.17544c5.59349,0 10.12789,4.55571 10.12789,10.17544c0,5.61974 -4.53441,10.17544 -10.12789,10.17544z" fill="url(#color-82)" stroke="none" stroke-width="NaN" stroke-linecap="butt"/><path d="M238.03551,317.16006h3.03416v1.18407h-3.03416z" fill="url(#color-83)" stroke="none" stroke-width="0" stroke-linecap="butt"/><path d="M238.33153,319.01021h2.44213v3.03416h-2.44213z" fill="url(#color-84)" stroke="none" stroke-width="0" stroke-linecap="butt"/><path d="M238.2575,324.04247h2.51614v1.7761h-2.51614z" fill="url(#color-85)" stroke="none" stroke-width="0" stroke-linecap="butt"/><path d="M232.15443,301.09128c0,0 2.33235,-3.73217 7.75912,-3.7426c5.51933,-0.01061 7.41401,3.60404 7.41401,3.60404l-2.90992,5.40413h-8.66047l-3.60276,-5.26557z" fill="#768c94" stroke="#000000" stroke-width="0" stroke-linecap="round"/><path d="M239.7179,315.87478c-4.7007,0 -8.51136,-3.81067 -8.51136,-8.51136c0,-4.7007 3.81067,-8.51136 8.51136,-8.51136c4.7007,0 8.51136,3.81067 8.51136,8.51136c0,4.7007 -3.81067,8.51136 -8.51136,8.51136z" fill="none" stroke="#46f3ff" stroke-width="1.5" stroke-linecap="butt"/><path d="M239.7179,313.22862c-3.23926,0 -5.8652,-2.62594 -5.8652,-5.8652c0,-3.23926 2.62594,-5.8652 5.8652,-5.8652c3.23926,0 5.8652,2.62594 5.8652,5.8652c0,3.23926 -2.62594,5.8652 -5.8652,5.8652z" fill="none" stroke="#8da7b1" stroke-width="1.5" stroke-linecap="butt"/><path d="M240.72339,320.36879h-2.29135" fill="none" stroke="#a1a1a1" stroke-width="1.5" stroke-linecap="round"/><path d="M238.43206,321.75426h2.29136" fill="none" stroke="#a1a1a1" stroke-width="1.5" stroke-linecap="round"/><path d="M240.72342,323.19306h-2.29136" fill="none" stroke="#a1a1a1" stroke-width="1.5" stroke-linecap="round"/><path d="M238.43206,324.73837h2.29136" fill="none" stroke="#a1a1a1" stroke-width="1.5" stroke-linecap="round"/><path d="M238.37908,314.22749l0.42268,-4.25633h1.97525l0.23979,4.25633c0,0 0.16426,0.35969 -1.25891,0.35969c-1.27331,0 -1.37881,-0.35969 -1.37881,-0.35969z" fill="url(#color-86)" stroke="url(#color-87)" stroke-width="0.5" stroke-linecap="round"/><path d="M237.62683,325.83196h2.20078v3.27641h-2.20078z" fill="url(#color-88)" stroke="none" stroke-width="0" stroke-linecap="butt"/><g fill="none" stroke-width="1.5" stroke-linecap="round"><path d="M241.11805,329.99557v-3.6807" stroke="#666666"/><path d="M240.252,326.31487v3.6807" stroke="#797979"/><path d="M239.51583,326.31487v3.6807" stroke="#808080"/><path d="M238.00025,326.31487v3.6807" stroke="#666666"/><path d="M238.64979,326.35817v3.6807" stroke="#797979"/></g></g><g stroke="none" stroke-width="0" stroke-linecap="butt"><path d="M232.16673,157.43058l-6.41667,-6.72222v-17.72222l6.11111,-6.41667h20.77778l6.11111,7.02778v16.80556l-5.80556,7.02778z" fill="#dbdfdf"/><path d="M232.16673,153.43058l-6.41667,-6.72222v-17.72222l6.11111,-6.41667h20.77778l6.11111,7.02778v16.80556l-5.80556,7.02778z" fill="#f7fbfb"/></g><g stroke="none" stroke-width="0" stroke-linecap="butt"><path d="M231.16673,228.93058l-6.41667,-6.72222v-17.72222l6.11111,-6.41667h20.77778l6.11111,7.02778v16.80556l-5.80556,7.02778z" fill="#cfd3d3"/><path d="M231.16673,224.93058l-6.41667,-6.72222v-17.72222l6.11111,-6.41667h20.77778l6.11111,7.02778v16.80556l-5.80556,7.02778z" fill="#edf2f2"/></g><g><path d="M236.33339,200.79152l2.16667,-2.16667h4.83333l2.63889,2.63889z" fill="url(#color-89)" stroke="#000000" stroke-width="0" stroke-linecap="round"/><path d="M238.33339,238.79152v-20h5.11111v20z" fill="#717373" stroke="none" stroke-width="0" stroke-linecap="butt"/><path d="M236.19052,217.94498v24.33333" fill="none" stroke="#7d7f7f" stroke-width="2.5" stroke-linecap="round"/><path d="M239.04768,242.27831v-24.33333" fill="none" stroke="#919494" stroke-width="2.5" stroke-linecap="round"/><path d="M242.76196,217.94498v24.33333" fill="none" stroke="#919494" stroke-width="2.5" stroke-linecap="round"/><path d="M245.6191,242.27831v-24.33333" fill="none" stroke="#7d7f7f" stroke-width="2.5" stroke-linecap="round"/><path d="M232.2699,221.11959v-20.42857h17.31746v20.42857z" fill="url(#color-90)" stroke="none" stroke-width="0" stroke-linecap="butt"/><path d="M236.55561,221.01375v-20.33333h8.77778v20.33333z" fill="url(#color-91)" stroke="none" stroke-width="0" stroke-linecap="butt"/></g><path d="M180.26016,108.41617v-15.89458l8.28595,-4.79618v26.33334z" fill="#97a4a3" stroke="none" stroke-width="0" stroke-linecap="butt"/><path d="M295.26014,114.05873v-26.33334l8.28596,4.79618v15.89458z" data-paper-data="{&quot;index&quot;:null}" fill="#97a4a3" stroke="none" stroke-width="0" stroke-linecap="butt"/><path d="M185.1667,112.04115v-20.66666h8.33334v20.66666z" fill="url(#color-92)" stroke="none" stroke-width="0" stroke-linecap="butt"/><path d="M290.50003,112.04115v-20.66666h8.33333v20.66666z" data-paper-data="{&quot;index&quot;:null}" fill="url(#color-93)" stroke="none" stroke-width="0" stroke-linecap="butt"/><g><path d="M254.66098,136.80099c0,6.94301 -5.56446,12.57144 -12.42857,12.57144c-6.86411,0 -12.42857,-5.62843 -12.42857,-12.57144c0,-6.94301 5.56446,-12.57143 12.42857,-12.57143c6.86411,0 12.42857,5.62842 12.42857,12.57143z" fill="none" stroke="#00daff" stroke-width="5" stroke-linecap="butt"/><path d="M254.661,136.80099c0,6.94301 -5.56446,12.57144 -12.42857,12.57144c-6.86411,0 -12.42857,-5.62843 -12.42857,-12.57144c0,-6.94301 5.56446,-12.57143 12.42857,-12.57143c6.86411,0 12.42857,5.62842 12.42857,12.57143z" fill="#585858" stroke="#6a6a6a" stroke-width="0.5" stroke-linecap="butt"/><path d="M254.786,135.17599c0,6.94301 -5.56446,12.57144 -12.42857,12.57144c-6.86411,0 -12.42857,-5.62843 -12.42857,-12.57144c0,-6.94301 5.56446,-12.57143 12.42857,-12.57143c6.86411,0 12.42857,5.62842 12.42857,12.57143z" fill="#717171" stroke="#7b7b7b" stroke-width="0.5" stroke-linecap="butt"/><g fill="none" stroke-width="1.5" stroke-linecap="round"><g><g><g><path d="M241.80109,129.28783h0.78174" stroke="#ffb300"/><path d="M244.1187,129.49046l0.75674,0.19607" stroke="#505050"/></g><g><path d="M246.23149,130.72435l0.49314,0.60656" stroke="#ffb300"/><path d="M247.86151,133.36134l-0.32524,-0.71086" stroke="#505050"/></g></g><g data-paper-data="{&quot;index&quot;:null}"><g stroke="#ffb300"><path d="M248.05888,135.88672l-0.02128,-0.78143"/><path d="M247.89814,137.42755l-0.1754,0.76182"/></g><g><path d="M246.72219,139.57312l-0.59292,0.50946" stroke="#505050"/><path d="M244.83229,140.92985l-0.70175,0.34447" stroke="#ffb300"/></g></g></g><g data-paper-data="{&quot;index&quot;:null}"><g><g><path d="M241.76489,141.575h0.78174" stroke="#ffb300"/><path d="M240.22904,141.37236l-0.75675,-0.19606" stroke="#505050"/></g><g><path d="M237.62309,139.53192l0.49314,0.60656" stroke="#ffb300"/><path d="M236.81147,138.2123l-0.32523,-0.71086" stroke="#505050"/></g></g><g data-paper-data="{&quot;index&quot;:null}"><g stroke="#ffb300"><path d="M236.28884,134.97608l0.02128,0.78144"/><path d="M236.44959,133.43525l0.1754,-0.76182"/></g><g><path d="M238.21846,130.78022l-0.59292,0.50946" stroke="#505050"/><path d="M240.21719,129.58851l-0.70175,0.34447" stroke="#ffb300"/></g></g></g></g><path d="M245.56279,135.40039c0,2.00203 -1.567,3.625 -3.5,3.625c-1.933,0 -3.5,-1.62297 -3.5,-3.625c0,-2.00203 1.567,-3.625 3.5,-3.625c1.933,0 3.5,1.62297 3.5,3.625z" fill="#cab4b4" stroke="none" stroke-width="1.5" stroke-linecap="butt"/></g></g></g></g></svg>