<svg version="1.1" xmlns="http://www.w3.org/2000/svg" xmlns:xlink="http://www.w3.org/1999/xlink" width="69" height="69" viewBox="0,0,69,69"><g transform="translate(-205.5,-145.5)"><g data-paper-data="{&quot;isPaintingLayer&quot;:true}" fill="#000000" fill-rule="nonzero" stroke-linejoin="miter" stroke-miterlimit="10" stroke-dasharray="" stroke-dashoffset="0" style="mix-blend-mode: normal"><path d="M233.07803,198.81123v-37.22371h13.55325v37.22371z" stroke="none" stroke-width="NaN" stroke-linecap="butt"/><path d="M220.09746,191.74827v-9.92632h40.08708v9.92632l-13.31979,7.40885l-13.78671,0.03589z" stroke="none" stroke-width="0" stroke-linecap="butt"/><path d="M233.13743,161.41744l6.68831,-3.59186l6.72879,3.59186l0.00961,9.00912l-13.27521,-0.02947z" stroke="#000000" stroke-width="0" stroke-linecap="round"/><path d="M233.21251,191.49785l-7.04319,-7.94407l10.94516,-9.70396l7.04319,7.94407z" stroke="none" stroke-width="0" stroke-linecap="butt"/><path d="M237.77528,183.72684l7.04319,-7.94406l10.94516,9.70396l-7.04319,7.94406z" data-paper-data="{&quot;index&quot;:null}" stroke="none" stroke-width="0" stroke-linecap="butt"/><path d="M205.5,180c0,-19.05382 15.44618,-34.5 34.5,-34.5c19.05382,0 34.5,15.44618 34.5,34.5c0,19.05382 -15.44618,34.5 -34.5,34.5c-19.05382,0 -34.5,-15.44618 -34.5,-34.5z" stroke="none" stroke-width="0" stroke-linecap="butt"/></g></g></svg>