<svg version="1.1" xmlns="http://www.w3.org/2000/svg" xmlns:xlink="http://www.w3.org/1999/xlink" width="130" height="43.66667" viewBox="0,0,130,43.66667"><g transform="translate(-175,-158.16667)"><g data-paper-data="{&quot;isPaintingLayer&quot;:true}" fill-rule="nonzero" stroke-linejoin="miter" stroke-miterlimit="10" stroke-dasharray="" stroke-dashoffset="0" style="mix-blend-mode: normal"><path d="M188.78246,186.99994c-0.86458,0 -1.68229,-0.15104 -2.45312,-0.45312c-0.76042,-0.3125 -1.42708,-0.76562 -2,-1.35937c-0.57292,-0.60417 -1.02083,-1.33854 -1.34375,-2.20312c-0.32292,-0.86458 -0.48437,-1.85937 -0.48437,-2.98437c0,-1.46875 0.27083,-2.72396 0.8125,-3.76562c0.55208,-1.04167 1.30208,-1.83854 2.25,-2.39062c0.95833,-0.5625 2.03125,-0.84375 3.21875,-0.84375c1.65625,0 2.96875,0.38542 3.9375,1.15625c0.96875,0.77083 1.625,1.84896 1.96875,3.23438l-2.29687,0.35938c-0.26042,-0.79167 -0.68229,-1.42187 -1.26562,-1.89062c-0.57292,-0.47917 -1.30729,-0.71875 -2.20312,-0.71875c-0.89583,-0.02083 -1.64583,0.17188 -2.25,0.57813c-0.59375,0.40625 -1.04167,0.97917 -1.34375,1.71875c-0.30208,0.72917 -0.45312,1.58333 -0.45312,2.5625c0,0.97917 0.14583,1.83333 0.4375,2.5625c0.30208,0.72917 0.75521,1.29688 1.35938,1.70313c0.60417,0.39583 1.35417,0.59896 2.25,0.60938c0.67708,0.01042 1.27083,-0.10937 1.78125,-0.35937c0.51042,-0.25 0.92708,-0.63021 1.25,-1.14062c0.32292,-0.52083 0.54167,-1.16667 0.65625,-1.9375h-2.375v-1.76562h4.76563c0.01042,0.10417 0.01563,0.25521 0.01563,0.45313c0.01042,0.1875 0.01563,0.29688 0.01563,0.32813c0,1.27083 -0.25,2.40104 -0.75,3.39063c-0.5,0.97917 -1.21875,1.75 -2.15625,2.3125c-0.92708,0.5625 -2.04167,0.84375 -3.34375,0.84375zM199.72008,186.99994c-0.72917,0 -1.34896,-0.13542 -1.85937,-0.40625c-0.5,-0.28125 -0.88021,-0.65104 -1.14062,-1.10937c-0.25,-0.46875 -0.375,-0.97917 -0.375,-1.53125c0,-0.47917 0.07813,-0.91146 0.23438,-1.29687c0.16667,-0.39583 0.41667,-0.73437 0.75,-1.01562c0.33333,-0.28125 0.77083,-0.51562 1.3125,-0.70312c0.39583,-0.125 0.86458,-0.23958 1.40625,-0.34375c0.55208,-0.10417 1.14583,-0.20312 1.78125,-0.29687c0.63542,-0.09375 1.30208,-0.19271 2,-0.29687l-0.79687,0.45313c0,-0.6875 -0.15625,-1.19792 -0.46875,-1.53125c-0.3125,-0.33333 -0.84896,-0.5 -1.60937,-0.5c-0.44792,0 -0.88542,0.10938 -1.3125,0.32813c-0.41667,0.20833 -0.71354,0.56771 -0.89062,1.07813l-2.04687,-0.64062c0.25,-0.85417 0.72396,-1.53646 1.42188,-2.04687c0.69792,-0.52083 1.64063,-0.78125 2.82813,-0.78125c0.89583,0 1.68229,0.14583 2.35938,0.4375c0.6875,0.29167 1.19792,0.77083 1.53125,1.4375c0.17708,0.35417 0.28125,0.71875 0.3125,1.09375c0.04167,0.36458 0.0625,0.76563 0.0625,1.20313v6.1875h-1.96875v-2.1875l0.32813,0.35938c-0.45833,0.72917 -0.98958,1.26563 -1.59375,1.60938c-0.60417,0.33333 -1.35937,0.5 -2.26562,0.5zM200.17321,185.20306c0.5,0 0.93229,-0.08854 1.29688,-0.26562c0.36458,-0.17708 0.65104,-0.39583 0.85938,-0.65625c0.21875,-0.26042 0.36458,-0.51042 0.4375,-0.75c0.11458,-0.28125 0.17708,-0.60417 0.1875,-0.96875c0.02083,-0.375 0.03125,-0.67708 0.03125,-0.90625l0.70313,0.20313c-0.67708,0.10417 -1.26042,0.19792 -1.75,0.28125c-0.48958,0.08333 -0.90625,0.16146 -1.25,0.23438c-0.34375,0.0625 -0.65104,0.14063 -0.92187,0.23438c-0.26042,0.09375 -0.48437,0.20313 -0.67187,0.32813c-0.17708,0.125 -0.3125,0.27083 -0.40625,0.4375c-0.09375,0.15625 -0.14062,0.33854 -0.14062,0.54688c0,0.25 0.0625,0.47396 0.1875,0.67188c0.125,0.1875 0.30729,0.33854 0.54688,0.45313c0.23958,0.10417 0.53646,0.15625 0.89063,0.15625zM219.74733,186.71869v-6.125c0,-0.6875 -0.17187,-1.22396 -0.51562,-1.60937c-0.34375,-0.39583 -0.80729,-0.59375 -1.39062,-0.59375c-0.36458,0 -0.6875,0.08333 -0.96875,0.25c-0.28125,0.16667 -0.51042,0.41146 -0.6875,0.73438c-0.16667,0.32292 -0.25,0.70313 -0.25,1.14063l-1,-0.59375c0,-0.6875 0.15625,-1.29687 0.46875,-1.82812c0.32292,-0.54167 0.75521,-0.95833 1.29688,-1.25c0.55208,-0.30208 1.16667,-0.45312 1.84375,-0.45312c1.11458,0 1.96875,0.33333 2.5625,1c0.59375,0.66667 0.89063,1.54688 0.89063,2.64063v6.6875zM207.62233,186.71869v-10.07812h2v3.125h0.26563v6.95313zM213.70046,186.71869v-6.09375c0,-0.69792 -0.17187,-1.24479 -0.51562,-1.64062c-0.34375,-0.39583 -0.80729,-0.59375 -1.39062,-0.59375c-0.57292,0 -1.03646,0.19792 -1.39062,0.59375c-0.34375,0.39583 -0.51562,0.90625 -0.51562,1.53125l-1,-0.67187c0,-0.65625 0.16146,-1.24479 0.48438,-1.76562c0.32292,-0.52083 0.76042,-0.93229 1.3125,-1.23437c0.55208,-0.30208 1.16667,-0.45312 1.84375,-0.45312c0.76042,0 1.39063,0.16146 1.89063,0.48438c0.51042,0.32292 0.89063,0.76042 1.14063,1.3125c0.25,0.54167 0.375,1.16146 0.375,1.85938v6.67188zM228.84502,186.99994c-1.02083,0 -1.91667,-0.21875 -2.6875,-0.65625c-0.77083,-0.44792 -1.375,-1.0625 -1.8125,-1.84375c-0.42708,-0.78125 -0.64062,-1.68229 -0.64062,-2.70312c0,-1.10417 0.20833,-2.0625 0.625,-2.875c0.42708,-0.8125 1.01563,-1.44271 1.76563,-1.89062c0.75,-0.44792 1.61979,-0.67187 2.60938,-0.67187c1.05208,0 1.94271,0.24479 2.67188,0.73438c0.72917,0.48958 1.27083,1.18229 1.625,2.07813c0.35417,0.88542 0.48958,1.93229 0.40625,3.14063h-2.23437v-0.82812c-0.01042,-1.09375 -0.20312,-1.89062 -0.57812,-2.39062c-0.375,-0.51042 -0.97396,-0.76562 -1.79687,-0.76562c-0.91667,0 -1.59896,0.28646 -2.04687,0.85938c-0.44792,0.57292 -0.67187,1.40625 -0.67187,2.5c0,1.02083 0.22396,1.8125 0.67188,2.375c0.44792,0.55208 1.09896,0.82813 1.95313,0.82813c0.55208,0 1.02604,-0.11979 1.42188,-0.35937c0.40625,-0.25 0.71875,-0.60937 0.9375,-1.07812l2.21875,0.67188c-0.38542,0.90625 -0.97917,1.61458 -1.78125,2.125c-0.80208,0.5 -1.6875,0.75 -2.65625,0.75zM225.37627,182.31244v-1.70312h6.92188v1.70313zM239.22921,186.71869v-13.4375h2.01563l4.64063,9.51563l4.65625,-9.51562h2.01563v13.4375h-2.09375v-8.60937l-4.125,8.60938h-0.89062l-4.10937,-8.60937v8.60938zM259.61779,186.99994c-1,0 -1.88021,-0.22396 -2.64062,-0.67187c-0.75,-0.45833 -1.33333,-1.08854 -1.75,-1.89062c-0.40625,-0.80208 -0.60937,-1.71875 -0.60937,-2.75c0,-1.0625 0.20833,-1.98958 0.625,-2.78125c0.42708,-0.80208 1.01563,-1.42708 1.76563,-1.875c0.75,-0.44792 1.61979,-0.67187 2.60938,-0.67187c1.02083,0 1.90625,0.22917 2.65625,0.6875c0.75,0.44792 1.33333,1.07292 1.75,1.875c0.41667,0.80208 0.625,1.72396 0.625,2.76563c0,1.04167 -0.20833,1.96354 -0.625,2.76563c-0.41667,0.79167 -1.00521,1.41667 -1.76562,1.875c-0.75,0.44792 -1.63021,0.67188 -2.64062,0.67188zM259.61779,184.89056c0.89583,0 1.5625,-0.29687 2,-0.89062c0.4375,-0.60417 0.65625,-1.375 0.65625,-2.3125c0,-0.97917 -0.22396,-1.76042 -0.67187,-2.34375c-0.4375,-0.58333 -1.09896,-0.875 -1.98437,-0.875c-0.60417,0 -1.09896,0.13542 -1.48437,0.40625c-0.38542,0.27083 -0.67187,0.65104 -0.85937,1.14063c-0.1875,0.47917 -0.28125,1.03646 -0.28125,1.67188c0,0.96875 0.21875,1.74479 0.65625,2.32813c0.44792,0.58333 1.10417,0.875 1.96875,0.875zM270.74111,186.99994c-0.92708,0 -1.73437,-0.23437 -2.42187,-0.70312c-0.6875,-0.46875 -1.22396,-1.10417 -1.60937,-1.90625c-0.375,-0.80208 -0.5625,-1.70312 -0.5625,-2.70312c0,-1.02083 0.1875,-1.93229 0.5625,-2.73437c0.38542,-0.80208 0.92708,-1.43229 1.625,-1.89062c0.70833,-0.46875 1.53646,-0.70312 2.48438,-0.70312c0.95833,0 1.76042,0.23438 2.40625,0.70313c0.65625,0.45833 1.15104,1.08854 1.48438,1.89063c0.34375,0.80208 0.51563,1.71354 0.51563,2.73438c0,1 -0.17187,1.90104 -0.51562,2.70313c-0.33333,0.80208 -0.83333,1.4375 -1.5,1.90625c-0.66667,0.46875 -1.48958,0.70313 -2.46875,0.70313zM271.08486,184.98431c0.60417,0 1.08854,-0.13542 1.45313,-0.40625c0.375,-0.28125 0.64583,-0.67187 0.8125,-1.17187c0.17708,-0.5 0.26563,-1.07292 0.26563,-1.71875c0,-0.66667 -0.08854,-1.24479 -0.26562,-1.73437c-0.16667,-0.5 -0.43229,-0.88542 -0.79687,-1.15625c-0.35417,-0.28125 -0.81771,-0.42187 -1.39062,-0.42187c-0.60417,0 -1.10417,0.15104 -1.5,0.45313c-0.38542,0.29167 -0.67187,0.6875 -0.85937,1.1875c-0.1875,0.5 -0.28125,1.05729 -0.28125,1.67188c0,0.61458 0.08854,1.17188 0.26563,1.67188c0.1875,0.5 0.46875,0.89583 0.84375,1.1875c0.38542,0.29167 0.86979,0.4375 1.45313,0.4375zM273.61611,186.71869v-7.07812h-0.28125v-6.35937h2.26563v13.4375zM282.79891,186.99994c-1.02083,0 -1.91667,-0.21875 -2.6875,-0.65625c-0.77083,-0.44792 -1.375,-1.0625 -1.8125,-1.84375c-0.42708,-0.78125 -0.64062,-1.68229 -0.64062,-2.70312c0,-1.10417 0.20833,-2.0625 0.625,-2.875c0.42708,-0.8125 1.01563,-1.44271 1.76563,-1.89062c0.75,-0.44792 1.61979,-0.67187 2.60938,-0.67187c1.05208,0 1.94271,0.24479 2.67188,0.73438c0.72917,0.48958 1.27083,1.18229 1.625,2.07813c0.35417,0.88542 0.48958,1.93229 0.40625,3.14063h-2.23437v-0.82812c-0.01042,-1.09375 -0.20312,-1.89062 -0.57812,-2.39062c-0.375,-0.51042 -0.97396,-0.76562 -1.79687,-0.76562c-0.91667,0 -1.59896,0.28646 -2.04687,0.85938c-0.44792,0.57292 -0.67187,1.40625 -0.67187,2.5c0,1.02083 0.22396,1.8125 0.67188,2.375c0.44792,0.55208 1.09896,0.82813 1.95313,0.82813c0.55208,0 1.02604,-0.11979 1.42188,-0.35937c0.40625,-0.25 0.71875,-0.60937 0.9375,-1.07812l2.21875,0.67188c-0.38542,0.90625 -0.97917,1.61458 -1.78125,2.125c-0.80208,0.5 -1.6875,0.75 -2.65625,0.75zM279.33016,182.31244v-1.70312h6.92188v1.70313zM293.34246,186.99994c-1.25,0 -2.26562,-0.28125 -3.04687,-0.84375c-0.77083,-0.5625 -1.23958,-1.34896 -1.40625,-2.35937l2.29688,-0.35937c0.11458,0.5 0.375,0.89583 0.78125,1.1875c0.40625,0.28125 0.91667,0.42188 1.53125,0.42188c0.54167,0 0.95833,-0.10417 1.25,-0.3125c0.29167,-0.21875 0.4375,-0.51562 0.4375,-0.89062c0,-0.22917 -0.05729,-0.41146 -0.17187,-0.54687c-0.10417,-0.14583 -0.33854,-0.28125 -0.70312,-0.40625c-0.36458,-0.13542 -0.92708,-0.30208 -1.6875,-0.5c-0.84375,-0.22917 -1.51562,-0.46875 -2.01562,-0.71875c-0.5,-0.26042 -0.85937,-0.56771 -1.07812,-0.92187c-0.20833,-0.35417 -0.3125,-0.78125 -0.3125,-1.28125c0,-0.63542 0.16146,-1.18229 0.48438,-1.64062c0.33333,-0.46875 0.79167,-0.82812 1.375,-1.07812c0.59375,-0.26042 1.29167,-0.39062 2.09375,-0.39062c0.79167,0 1.48958,0.125 2.09375,0.375c0.60417,0.23958 1.09375,0.58333 1.46875,1.03125c0.375,0.44792 0.60417,0.97396 0.6875,1.57813l-2.29687,0.40625c-0.05208,-0.42708 -0.24479,-0.76562 -0.57812,-1.01562c-0.33333,-0.25 -0.77604,-0.39062 -1.32812,-0.42187c-0.53125,-0.03125 -0.95833,0.05208 -1.28125,0.25c-0.32292,0.1875 -0.48437,0.44792 -0.48437,0.78125c0,0.19792 0.0625,0.36458 0.1875,0.5c0.13542,0.13542 0.40104,0.27083 0.79688,0.40625c0.39583,0.13542 0.98438,0.30729 1.76563,0.51563c0.80208,0.19792 1.44271,0.43229 1.92188,0.70313c0.48958,0.26042 0.83854,0.57292 1.04688,0.9375c0.21875,0.36458 0.32813,0.8125 0.32813,1.34375c0,1.01042 -0.36979,1.80729 -1.10937,2.39063c-0.73958,0.57292 -1.75521,0.85938 -3.04687,0.85938z" fill="#01ebfc" stroke="#01ebfc" stroke-width="0.5" stroke-linecap="square"/><path d="M175,201.83333v-43.66667h130v43.66667z" fill="none" stroke="none" stroke-width="0" stroke-linecap="butt"/></g></g></svg>