<svg version="1.1" xmlns="http://www.w3.org/2000/svg" xmlns:xlink="http://www.w3.org/1999/xlink" width="42.86953" height="47.65219" viewBox="0,0,42.86953,47.65219"><defs><linearGradient x1="238.49536" y1="334.52949" x2="238.56962" y2="351.56497" gradientUnits="userSpaceOnUse" id="color-1"><stop offset="0" stop-color="#5f5f5f"/><stop offset="1" stop-color="#757575"/></linearGradient></defs><g transform="translate(-216.38823,-302.00682)"><g data-paper-data="{&quot;isPaintingLayer&quot;:true}" fill-rule="nonzero" stroke-linejoin="miter" stroke-miterlimit="10" stroke-dasharray="" stroke-dashoffset="0" style="mix-blend-mode: normal"><g><g><g><g><g stroke="none" stroke-width="0" stroke-linecap="butt"><path d="M217.87075,310.61445l41.03999,-0.17886c0,0 0.42847,13.88282 0.3332,21.93765c-0.01689,1.42803 -0.8251,2.86659 -0.82102,3.80361c0.01543,3.53961 0.6363,8.32968 0.6363,8.32968l-41.03996,0.17886c0,0 -1.61734,-3.97891 -1.631,-7.111c-0.00817,-1.87543 1.52887,-4.74696 1.7226,-8.37857c0.43624,-8.17774 -0.24012,-18.58137 -0.24012,-18.58137z" fill="#818181"/><path d="M238.53981,349.5652c-1.80305,0.00786 -4.74929,-1.03411 -6.40832,-1.13091c-8.37512,-0.48865 -13.32757,-1.37457 -13.34469,-5.30098c-0.02051,-4.70421 8.84797,-5.5566 19.75319,-5.60414c10.90522,-0.04753 19.71761,0.72781 19.73812,5.43202c0.01146,2.62845 -0.94753,5.16654 -5.28687,6.19694c-3.4269,0.81374 -9.63943,0.38611 -14.45142,0.40708z" fill="url(#color-1)"/><path d="M238.42784,319.04273c-10.90522,0.04753 -19.76228,-3.72747 -19.7828,-8.43168c-0.02051,-4.70421 8.80331,-8.55626 19.70853,-8.60379c10.90522,-0.04753 19.76227,3.72747 19.78278,8.43168c0.02051,4.70421 -8.8033,8.55626 -19.70852,8.60379z" fill="#818181"/></g><path d="M222.94489,334.79087l-0.10462,-24.00451" fill="none" stroke="#727272" stroke-width="3" stroke-linecap="round"/><path d="M230.1813,307.26978l0.10463,24.00451" fill="none" stroke="#727272" stroke-width="4" stroke-linecap="round"/><path d="M239.08114,306.06947l0.10463,24.00452" fill="none" stroke="#727272" stroke-width="4" stroke-linecap="round"/><path d="M254.20101,310.64967l0.10464,24.00452" fill="none" stroke="#727272" stroke-width="3" stroke-linecap="round"/><path d="M246.83295,307.97157l0.10462,24.00452" fill="none" stroke="#727272" stroke-width="4" stroke-linecap="round"/></g><path d="M245.05431,344.90971c-0.2117,2.49102 -2.70273,2.27932 -2.70273,2.27932l-2.50344,-0.21275c-2.59534,-0.22353 -5.02343,-0.51352 -7.6153,-0.62646c-1.23669,-0.05388 -2.63535,0.30881 -3.69946,-0.32362c-0.17245,-0.10249 -0.33891,-0.21259 -0.50026,-0.32923l-0.04761,0.07734l-2.7399,-1.6868c-0.72234,-0.42904 -1.2115,-1.2121 -1.22493,-2.11375c-0.01851,-1.24292 0.87328,-2.28746 2.05872,-2.49839l2.69949,-0.53246c0,0 2.45274,-0.48377 2.93652,1.96898c0.01516,0.07687 0.02745,0.1518 0.037,0.22485c2.70066,-0.35089 6.18085,0.66174 8.51915,0.85752l2.50344,0.21276c0,0 2.49102,0.2117 2.27932,2.70272z" fill="#5f5f5f" stroke="none" stroke-width="0.5" stroke-linecap="butt"/><path d="M256.41172,343.03223c-0.75518,2.38322 -3.13839,1.62804 -3.13839,1.62804l-1.26105,-0.61163c-0.99865,0.09821 -1.9973,0.19642 -2.99595,0.29463c0,0 -2.488,0.24468 -2.73268,-2.24331c-0.24469,-2.488 2.24331,-2.73268 2.24331,-2.73268c0.99865,-0.09821 1.9973,-0.19642 2.99595,-0.29463l3.26078,0.82121c0,0 2.38322,0.75516 1.62804,3.13838z" fill="#5f5f5f" stroke="none" stroke-width="0.5" stroke-linecap="butt"/></g><path d="M249.82665,345.7739c0,0.75 -0.75,0.75 -0.75,0.75l0.06621,-0.04884c-1.12368,0.42629 -2.20919,0.91184 -3.2939,1.42877c-1.65057,0.02413 -3.06934,0.16385 -4.54776,-0.68067c-1.24705,-0.71235 -2.54558,-2.2419 -3.96639,-2.5128c-1.44716,-0.27592 -2.37704,1.13154 -4,0.8c-2.13424,-0.43599 -4.75342,-1.63749 -6.85817,-1.58647c0,0 -0.75,0 -0.75,-0.75c0,-0.75 0.75,-0.75 0.75,-0.75c2.24569,0.03843 4.91311,1.0638 7.14183,1.61353c1.49437,0.3686 2.29455,-1.05979 4,-0.8c1.63258,0.24869 3.04435,1.87325 4.43361,2.6872c1.10767,0.64897 2.20963,0.49507 3.45224,0.51933c1.00502,-0.53674 2.04213,-0.96695 3.1061,-1.37123l0.46621,-0.04884c0,0 0.75,0 0.75,0.75z" fill="#4a4a4a" stroke="none" stroke-width="0.5" stroke-linecap="butt"/><path d="M253.60698,345.70423c-0.53033,0.53033 -1.06066,0 -1.06066,0l0.14843,-0.00272c-2.86245,-0.82433 -4.30367,-4.50956 -7.57591,-4.93086c-1.26651,-0.16306 -2.6802,0.5351 -3.91889,0.74305c0,0 -0.7398,0.1233 -0.86309,-0.6165c-0.1233,-0.7398 0.6165,-0.86309 0.6165,-0.86309c2.41076,-0.39863 4.53597,-1.29239 6.87613,0.07797c1.66327,0.97399 3.49594,3.81612 5.22907,4.13422l0.54843,0.39728c0,0 0.53033,0.53033 0,1.06066z" fill="#4a4a4a" stroke="none" stroke-width="0.5" stroke-linecap="butt"/><path d="M242.89427,335.20024c-0.1819,0.72761 -0.90951,0.54571 -0.90951,0.54571l-0.52333,-0.13327l-0.25858,0.05831c-1.88056,1.99233 -4.72341,3.33073 -7.51135,2.75048c-0.8787,-0.18288 -1.6187,-0.8301 -2.5,-1c-2.6719,-0.51511 -5.92963,0.14268 -8.54442,0.66563c0,0 -0.73544,0.14709 -0.88252,-0.58835c-0.14709,-0.73544 0.58835,-0.88252 0.58835,-0.88252c2.8043,-0.56086 6.25504,-1.21939 9.12225,-0.6677c0.88136,0.16959 1.62214,0.81314 2.5,1c2.00981,0.42781 3.81197,-0.39153 5.35272,-1.5939c-1.71774,-0.18789 -3.30692,-0.70641 -5.06505,-1.29145c0,0 -0.71151,-0.23717 -0.47434,-0.94868c0.23717,-0.71151 0.94868,-0.47434 0.94868,-0.47434c2.17842,0.72745 3.98324,1.29177 6.1878,1.30047l0.5857,0.14404l0.4741,-0.12727c0,0 0.72761,-0.1819 0.90951,0.54571c0.03348,0.13392 0.03615,0.24935 0.01822,0.34857c0.01793,0.09922 0.01526,0.21465 -0.01822,0.34857z" fill="#787878" stroke="none" stroke-width="0.5" stroke-linecap="butt"/></g><path d="M250.17082,336.35375c-0.33541,0.67082 -1.00623,0.33541 -1.00623,0.33541l-0.55431,-0.28809c-1.18476,-0.37015 -2.01335,-0.77462 -3.20644,-0.33788c0,0 -0.71151,0.23717 -0.94868,-0.47434c-0.23717,-0.71151 0.47434,-0.94868 0.47434,-0.94868c1.55445,-0.48357 2.59957,-0.14565 4.12689,0.32878l0.77902,0.37858c0,0 0.67082,0.33541 0.33541,1.00623z" fill="#787878" stroke="none" stroke-width="0.5" stroke-linecap="butt"/></g></g></g></svg>