<svg version="1.1" xmlns="http://www.w3.org/2000/svg" xmlns:xlink="http://www.w3.org/1999/xlink" width="291" height="291" viewBox="0,0,291,291"><g transform="translate(-94.5,-34.5)"><g data-paper-data="{&quot;isPaintingLayer&quot;:true}" fill-rule="nonzero" stroke-linejoin="miter" stroke-miterlimit="10" stroke-dasharray="" stroke-dashoffset="0" style="mix-blend-mode: normal"><g stroke="none" stroke-linecap="butt"><path d="M249.55556,140.60053v-2.11111h7.55556v2.11111z" fill="#59625f" stroke-width="0"/><path d="M249.55556,140.70634c0,-1.10457 1.69493,-2 3.78572,-2c2.09079,0 3.78571,0.89543 3.78571,2c0,1.10457 -1.69492,2 -3.78571,2c-2.09079,0 -3.78572,-0.89543 -3.78572,-2z" fill="#59625f" stroke-width="NaN"/><path d="M249.55556,138.56349c0,-1.10457 1.69493,-2 3.78572,-2c2.09079,0 3.78571,0.89543 3.78571,2c0,1.10457 -1.69492,2 -3.78571,2c-2.09079,0 -3.78572,-0.89543 -3.78572,-2z" fill="#707b77" stroke-width="NaN"/></g><g stroke-width="0"><g><path d="M264.61057,221.3282l-23.70254,0.20058l-0.00154,-77.40292l21.60117,-0.18281l27.83586,38.23414z" fill="#75817d" stroke="#323645" stroke-linecap="round"/><path d="M246.12015,144.22361v77.33333h-5.33333v-77.33333z" fill="#8f9e99" stroke="none" stroke-linecap="butt"/></g><path d="M286.525,182.36667v-3.025h3.8v3.025z" fill="#75817d" stroke="none" stroke-linecap="butt"/></g><path d="M264.48557,218.5782l-23.70254,0.20058l-0.00154,-77.40292l21.60117,-0.18281l27.83586,38.23414z" fill="#84918d" stroke="#323645" stroke-width="0" stroke-linecap="round"/><path d="M246.12015,141.47361v77.33333h-5.33333v-77.33333z" fill="#97a6a1" stroke="none" stroke-width="0" stroke-linecap="butt"/><path d="M271.78682,194.97362h-10.5l-11.16667,-11.16666" fill="none" stroke="#899792" stroke-width="2.5" stroke-linecap="round"/><path d="M253.28682,206.30696l5.83333,5.83334" fill="none" stroke="#899792" stroke-width="2.5" stroke-linecap="round"/><path d="M256.03682,167.22362l6.41666,6.41666h9.83334l6.5,6.5" fill="none" stroke="#899792" stroke-width="2.5" stroke-linecap="round"/><path d="M250.62015,144.30694l6.5,6.5v7.66667" fill="none" stroke="#899792" stroke-width="2.5" stroke-linecap="round"/><path d="M94.5,325.5v-291h291v291z" fill="none" stroke="none" stroke-width="0" stroke-linecap="butt"/><g data-paper-data="{&quot;index&quot;:null}" stroke="none" stroke-linecap="butt"><path d="M256.94445,221.33597v2.11111h-7.55555v-2.11111z" fill="#59625f" stroke-width="0"/><path d="M253.17461,219.23016c2.09079,0 3.78571,0.89543 3.78571,2c0,1.10457 -1.69492,2 -3.78571,2c-2.09079,0 -3.78572,-0.89543 -3.78572,-2c0,-1.10457 1.69493,-2 3.78572,-2z" fill="#59625f" stroke-width="NaN"/><path d="M253.17461,221.37301c2.09079,0 3.78571,0.89543 3.78571,2c0,1.10457 -1.69492,2 -3.78571,2c-2.09079,0 -3.78572,-0.89543 -3.78572,-2c0,-1.10457 1.69493,-2 3.78572,-2z" fill="#707b77" stroke-width="NaN"/></g></g></g></svg>