<svg version="1.1" xmlns="http://www.w3.org/2000/svg" xmlns:xlink="http://www.w3.org/1999/xlink" width="88.29658" height="92.66309" viewBox="0,0,88.29658,92.66309"><defs><linearGradient x1="245.40829" y1="178.23079" x2="245.40829" y2="182.4573" gradientUnits="userSpaceOnUse" id="color-1"><stop offset="0" stop-color="#ffffff"/><stop offset="1" stop-color="#eeeeee"/></linearGradient><linearGradient x1="245.40829" y1="178.23079" x2="245.40829" y2="182.4573" gradientUnits="userSpaceOnUse" id="color-2"><stop offset="0" stop-color="#e5e5e5"/><stop offset="1" stop-color="#ffffff"/></linearGradient><linearGradient x1="237.16927" y1="177.54733" x2="242.24079" y2="177.2616" gradientUnits="userSpaceOnUse" id="color-3"><stop offset="0" stop-color="#e60000"/><stop offset="1" stop-color="#ff0000"/></linearGradient><linearGradient x1="237.16927" y1="177.54733" x2="242.24079" y2="177.2616" gradientUnits="userSpaceOnUse" id="color-4"><stop offset="0" stop-color="#ff0000"/><stop offset="1" stop-color="#e60000"/></linearGradient><linearGradient x1="237.17108" y1="182.61699" x2="242.23899" y2="182.96057" gradientUnits="userSpaceOnUse" id="color-5"><stop offset="0" stop-color="#e60000"/><stop offset="1" stop-color="#ff0000"/></linearGradient><linearGradient x1="237.17108" y1="182.61699" x2="242.23899" y2="182.96057" gradientUnits="userSpaceOnUse" id="color-6"><stop offset="0" stop-color="#ff0000"/><stop offset="1" stop-color="#e60000"/></linearGradient><linearGradient x1="236.75889" y1="180.09665" x2="242.75276" y2="180.09665" gradientUnits="userSpaceOnUse" id="color-7"><stop offset="0" stop-color="#ff0000"/><stop offset="1" stop-color="#e60000"/></linearGradient><linearGradient x1="267.26992" y1="179.54526" x2="230.96378" y2="179.9868" gradientUnits="userSpaceOnUse" id="color-8"><stop offset="0" stop-color="#a300f2"/><stop offset="1" stop-color="#a300f2" stop-opacity="0"/></linearGradient><linearGradient x1="278.08764" y1="179.32186" x2="228.65523" y2="179.9231" gradientUnits="userSpaceOnUse" id="color-9"><stop offset="0" stop-color="#f1f1f1"/><stop offset="1" stop-color="#f1f1f1" stop-opacity="0"/></linearGradient><linearGradient x1="236.5308" y1="180.21666" x2="233.47738" y2="180.25381" gradientUnits="userSpaceOnUse" id="color-10"><stop offset="0" stop-color="#ff4f00"/><stop offset="1" stop-color="#ff4f00" stop-opacity="0"/></linearGradient><linearGradient x1="236.4352" y1="180.19158" x2="234.37103" y2="180.21671" gradientUnits="userSpaceOnUse" id="color-11"><stop offset="0" stop-color="#ffd400"/><stop offset="1" stop-color="#ffd400" stop-opacity="0"/></linearGradient><linearGradient x1="236.57345" y1="180.18904" x2="233.14373" y2="180.23076" gradientUnits="userSpaceOnUse" id="color-12"><stop offset="0" stop-color="#ffee00"/><stop offset="1" stop-color="#ffee00" stop-opacity="0"/></linearGradient><linearGradient x1="236.60128" y1="180.16069" x2="235.10025" y2="180.17895" gradientUnits="userSpaceOnUse" id="color-13"><stop offset="0" stop-color="#ffee00"/><stop offset="1" stop-color="#ffee00" stop-opacity="0"/></linearGradient><linearGradient x1="236.5827" y1="180.94981" x2="235.08167" y2="180.96807" gradientUnits="userSpaceOnUse" id="color-14"><stop offset="0" stop-color="#ffee00"/><stop offset="1" stop-color="#ffee00" stop-opacity="0"/></linearGradient><linearGradient x1="236.56352" y1="179.37227" x2="235.06249" y2="179.39053" gradientUnits="userSpaceOnUse" id="color-15"><stop offset="0" stop-color="#ffee00"/><stop offset="1" stop-color="#ffee00" stop-opacity="0"/></linearGradient><radialGradient cx="235.7201" cy="180.37287" r="9.34104" gradientUnits="userSpaceOnUse" id="color-16"><stop offset="0" stop-color="#bfe8ff"/><stop offset="1" stop-color="#bfe8ff" stop-opacity="0"/></radialGradient></defs><g transform="translate(-195.85171,-133.66846)"><g data-paper-data="{&quot;isPaintingLayer&quot;:true}" fill-rule="nonzero" stroke-linejoin="miter" stroke-miterlimit="10" stroke-dasharray="" stroke-dashoffset="0" style="mix-blend-mode: normal"><path d="M195.85171,133.66847l88.29658,92.66309" fill="none" stroke="#000000" stroke-width="0" stroke-linecap="round"/><g stroke-linecap="round"><path d="M238.93683,179.19522l8.87445,-0.96444l4.06847,2.26116l-4.22244,1.96533l-8.70425,-1.30483z" fill="url(#color-1)" stroke="url(#color-2)" stroke-width="0.5"/><path d="M240.17648,178.54804l-2.9529,-0.03714l-0.12001,-2.13003l3.90578,0.69572l1.29144,1.25003z" fill="url(#color-3)" stroke="url(#color-4)" stroke-width="0.5"/><path d="M242.31114,181.89636l-1.30563,1.2352l-3.91347,0.65109l0.14431,-2.12852l2.95313,-0.00342z" data-paper-data="{&quot;index&quot;:null}" fill="url(#color-5)" stroke="url(#color-6)" stroke-width="0.5"/><path d="M236.75889,180.09665h5.99387" fill="none" stroke="url(#color-7)" stroke-width="0.5"/><g stroke="#000000" stroke-width="0"><path d="M236.34608,180.99763l-5.77523,-0.70118l5.75481,-0.97815z" fill="url(#color-8)"/><path d="M235.98349,181.29938l-7.86323,-0.95468l7.83542,-1.33179z" fill="url(#color-9)"/><path d="M236.53595,180.64079c0,0 -0.20196,0.76365 -0.92404,0.74643c-1.72603,-0.04116 -2.1359,-1.24647 -2.1359,-1.24647c0,0 0.33889,-1.0252 2.1077,-1.07187c0.75316,-0.01987 0.94158,0.69546 0.94158,0.69546z" fill="url(#color-10)"/><path d="M236.43869,180.47829c0,0 -0.13654,0.51624 -0.62468,0.5046c-1.16684,-0.02782 -1.44392,-0.84264 -1.44392,-0.84264c0,0 0.2291,-0.69307 1.42486,-0.72461c0.50916,-0.01343 0.63653,0.47015 0.63653,0.47015z" fill="url(#color-11)"/><path d="M236.57924,180.66535c0,0 -0.22686,0.85775 -1.03793,0.83841c-1.93875,-0.04622 -2.39913,-1.40007 -2.39913,-1.40007c0,0 0.38066,-1.15155 2.36746,-1.20397c0.84599,-0.02231 1.05762,0.78117 1.05762,0.78117z" fill="url(#color-12)"/><path d="M236.60381,180.36914c0,0 -0.09928,0.37539 -0.45425,0.36693c-0.8485,-0.02023 -1.04999,-0.61275 -1.04999,-0.61275c0,0 0.1666,-0.50399 1.03612,-0.52692c0.37025,-0.00977 0.46287,0.34188 0.46287,0.34188z" fill="url(#color-13)"/><path d="M236.58524,181.15827c0,0 -0.09928,0.3754 -0.45425,0.36694c-0.8485,-0.02023 -1.04999,-0.61275 -1.04999,-0.61275c0,0 0.1666,-0.50399 1.03612,-0.52692c0.37025,-0.00976 0.46287,0.34189 0.46287,0.34189z" fill="url(#color-14)"/><path d="M236.56605,179.58073c0,0 -0.09929,0.3754 -0.45425,0.36693c-0.8485,-0.02023 -1.04998,-0.61275 -1.04998,-0.61275c0,0 0.1666,-0.50399 1.03612,-0.52692c0.37025,-0.00976 0.46287,0.34188 0.46287,0.34188z" fill="url(#color-15)"/></g></g><path d="M245.06113,180.37287c0,5.20457 -4.18212,9.4237 -9.34104,9.4237c-5.15891,0 -9.34104,-4.21913 -9.34104,-9.4237c0,-5.20457 4.18212,-9.4237 9.34104,-9.4237c5.15891,0 9.34104,4.21913 9.34104,9.4237z" fill="url(#color-16)" stroke="none" stroke-width="0" stroke-linecap="butt"/></g></g></svg>