<svg version="1.1" xmlns="http://www.w3.org/2000/svg" xmlns:xlink="http://www.w3.org/1999/xlink" width="343.84384" height="493.99399" viewBox="0,0,343.84384,493.99399"><g transform="translate(-68.07808,66.99698)"><g data-paper-data="{&quot;isPaintingLayer&quot;:true}" fill-rule="nonzero" stroke="none" stroke-linecap="butt" stroke-linejoin="miter" stroke-miterlimit="10" stroke-dasharray="" stroke-dashoffset="0" style="mix-blend-mode: normal"><path d="M68.07808,426.99701v-493.99399h343.84384v493.99399z" fill="none" stroke-width="0"/><g data-paper-data="{&quot;index&quot;:null}"><path d="M242.87238,291.61693v-207.2072h127.62763v207.20721z" fill="#7c7e88" stroke-width="0"/><g fill="#787a84" stroke-width="0.5"><path d="M285.90099,268.38253l-0.02786,-0.23607c-5.3653,-7.15374 -12.13581,-10.84778 -10.63421,-21.87727c0.24282,-1.78357 2.73271,-2.34476 4.05714,-3.56376c0.80977,-0.7453 1.84114,-1.88303 2.95484,-2.88594c-3.86969,0.60294 -6.97296,0.3092 -10.36183,2.81495c-1.13347,0.83811 -3.28486,1.57241 -3.68345,3.29536c-0.31276,1.35195 0.40948,2.81754 0.86243,3.99688c1.05759,2.7536 2.65502,5.89167 3.21486,8.77425c1.11717,5.75224 0.53405,13.88216 -3.6968,18.29423c-1.37547,1.43439 -3.14199,2.43421 -4.71299,3.65131c0,0 -4,3 -7,-1c-3,-4 1,-7 1,-7c1.09567,-0.7829 2.29877,-1.43393 3.28701,-2.3487c1.55664,-1.4409 1.2418,-3.87761 1.21299,-5.6513c-0.02195,-1.35165 0.37039,-2.73199 0.09022,-4.05446c-1.25927,-5.94404 -5.75729,-10.60137 -3.92272,-17.22888c1.6707,-6.0355 8.83765,-11.14771 14.68374,-12.58291c3.08335,-0.75696 6.08027,-0.49426 9.15607,-1.10942c3.59068,-0.02919 9.99088,-0.92977 12.13303,3.17253c1.34692,2.57941 1.2907,5.92214 0.47906,8.71656c-1.07406,3.69792 -4.86552,4.88613 -7.44945,6.95329c-0.76699,0.6136 -1.21351,1.63675 -2.09289,2.07432c-0.32784,0.16313 -1.05772,-0.91145 -0.94285,-0.56375c1.65625,5.01352 6.29658,8.03043 9.36579,12.12273l0.97213,1.76394c0,0 2.23607,4.47213 -2.23606,6.7082c-4.47213,2.23607 -6.70821,-2.23607 -6.70821,-2.23607z"/><path d="M339.72384,187.9338l0.6187,2.66052c0.16172,1.90824 0.69648,3.82135 0.48514,5.72474c-0.83854,7.5517 -9.23192,12.99261 -14.8259,16.58068c-1.46085,0.93702 -2.6408,2.30186 -4.17903,3.10557c-4.62966,2.41896 -7.96393,2.03397 -10.70621,6.22231c-0.68127,1.04052 0.49526,2.44702 0.9202,3.61588c1.39034,3.82433 6.12102,7.01655 8.87192,9.76745c0,0 3.53553,3.53553 0,7.07107c-3.53553,3.53554 -7.07107,0 -7.07107,0c-2.682,-2.682 -6.23917,-5.39937 -8.438,-8.50056c-1.04944,-1.48011 -2.04406,-3.03649 -2.69007,-4.73199c-0.70067,-1.83897 -1.103,-3.80002 -1.30653,-5.7574c-0.58216,-5.59843 3.06981,-10.7889 7.95273,-13.36561c2.40416,-1.26868 5.15697,-1.78282 7.56779,-3.03879c1.41706,-0.73825 2.47785,-2.02892 3.82097,-2.89443c3.49157,-2.24998 6.01771,-3.82052 8.62866,-7.24675c0.53867,-0.70687 1.57002,-1.28419 1.54544,-2.17257c-0.03056,-1.10474 -0.34324,-2.18351 -0.51486,-3.27526l-0.3813,-1.33948c0,0 -1.21268,-4.85071 3.63804,-6.06339c4.85071,-1.21268 6.0634,3.63804 6.0634,3.63804z"/><path d="M264.37313,184.64647v3.5c-0.27709,4.77427 2.95773,11.14434 4.39211,15.61058c0.77535,1.07813 1.84276,1.99747 2.32603,3.23439c0.44737,1.14503 -0.61469,2.85182 0.29746,3.67596c0.45909,0.41478 1.07282,0.62839 1.5465,1.02642c0.22429,0.18847 0.23796,0.62665 0.51903,0.70924c2.72607,0.80095 3.5107,-1.15514 4.51048,-3.11587c0.94587,-1.85498 3.35294,-6.99871 4.65999,-8.44972c5.09044,-5.65115 11.92444,-8.20599 18.00243,-12.36947c3.32684,-2.27892 6.41398,-4.96861 10.00989,-6.79366c0,0 4.47214,-2.23607 6.70821,2.23607c2.23607,4.47214 -2.23606,6.70821 -2.23606,6.70821c-3.26995,1.60235 -5.97724,4.16118 -8.99011,6.20634c-5.4142,3.6752 -11.3675,5.79654 -15.99757,10.63053c-4.06906,4.24827 -3.50167,11.19102 -9.83497,13.81038c-1.58108,0.65391 -3.35133,0.7614 -5.05897,0.86802c-1.644,0.10264 -3.35836,0.231 -4.93559,-0.244c-1.18421,-0.35664 -6.32796,-4.41293 -6.93446,-5.26434c-2.8243,-3.96478 -0.57891,-5.13891 -3.37651,-8.08965c-2.19074,-6.39085 -5.42882,-13.55061 -5.60789,-20.38943v-3.5c0,0 0,-5 5,-5c5,0 5,5 5,5z"/><path d="M297.90866,126.68202l-1,1c-1.68446,1.50577 -2.63184,4.71786 -1.22618,6.92883c0.37982,0.59742 1.17076,0.83719 1.59085,1.407c1.3648,1.85123 2.4284,3.90839 3.72721,5.8065c3.8986,5.69756 6.90077,7.01628 6.87194,13.40275c-0.03001,6.64612 -4.66511,7.59458 -8.46382,11.45492c-1.25892,1.27934 -2.3903,3.50872 -3.68684,4.67745c-0.74086,0.66782 -1.81194,0.8903 -2.5584,1.55185c-1.64162,1.45488 -2.96518,3.25531 -4.66682,4.63951c0,0 -3.90435,3.12348 -7.02782,-0.78087c-3.12347,-3.90435 0.78087,-7.02782 0.78087,-7.02782c1.61477,-1.26153 2.80349,-2.99705 4.33318,-4.36049c0.70639,-0.62961 1.71637,-0.84034 2.4416,-1.44815c1.39137,-1.16611 2.02312,-3.04524 3.31316,-4.32255c0.50455,-0.49957 5.57339,-3.22711 5.53619,-4.54508c-0.09434,-3.34227 -2.59658,-3.99102 -5.12807,-7.59726c-1.17566,-1.67479 -2.06662,-3.54055 -3.27279,-5.19349c-0.69545,-0.95305 -1.87265,-1.54223 -2.40915,-2.593c-3.37322,-6.60672 -2.12785,-13.90124 2.77382,-19.07117l1,-1c0,0 3.53554,-3.53553 7.07107,0c3.53553,3.53553 0,7.07107 0,7.07107z"/><path d="M255.33759,156.11094l1.79946,-1.4366c2.87005,-1.08706 4.58188,-4.54109 5.45943,-7.50558c2.25149,-7.60591 1.39866,-15.30788 2.87374,-23.00286c0,0 0.98058,-4.9029 5.88349,-3.92232c4.9029,0.98058 3.92233,5.88348 3.92233,5.88348c-0.98956,4.66041 -0.55551,9.28417 -0.92724,14.01211c-0.50815,6.46311 -2.68693,12.47173 -6.29427,17.74883c-0.77474,1.13335 -1.25818,2.5149 -2.28415,3.4271c-0.97873,0.8702 -2.23347,1.35064 -3.42223,1.92426c-0.48051,0.44228 -3.74553,3.20768 -7.01056,-0.05734c-3.53554,-3.53554 0,-7.07107 0,-7.07107zM261.6092,163.61862l0.11211,-0.06123c-0.03751,0.02022 -0.07488,0.04062 -0.11211,0.06123z"/></g><path d="M246.62313,287.81314v-180h13v180z" fill="#6a6c75" stroke-width="0"/><path d="M241.12313,287.81314v-180h13v180z" fill="#767882" stroke-width="0"/></g></g></g></svg>