<svg version="1.1" xmlns="http://www.w3.org/2000/svg" xmlns:xlink="http://www.w3.org/1999/xlink" width="51.88728" height="75.22743" viewBox="0,0,51.88728,75.22743"><defs><radialGradient cx="239.61712" cy="208.21143" r="8.58045" gradientUnits="userSpaceOnUse" id="color-1"><stop offset="0" stop-color="#fff696"/><stop offset="1" stop-color="#fff696" stop-opacity="0"/></radialGradient><radialGradient cx="239.8937" cy="205.428" r="11.9135" gradientUnits="userSpaceOnUse" id="color-2"><stop offset="0" stop-color="#fcd81d"/><stop offset="1" stop-color="#fcd81d" stop-opacity="0"/></radialGradient><radialGradient cx="239.58207" cy="207.64309" r="6.54752" gradientUnits="userSpaceOnUse" id="color-3"><stop offset="0" stop-color="#fff156"/><stop offset="1" stop-color="#fff156" stop-opacity="0"/></radialGradient><linearGradient x1="239.93054" y1="206.57577" x2="239.93054" y2="212.8485" gradientUnits="userSpaceOnUse" id="color-4"><stop offset="0" stop-color="#ff8600"/><stop offset="1" stop-color="#ff8600" stop-opacity="0"/></linearGradient><linearGradient x1="239.82462" y1="204.32198" x2="239.82462" y2="221.18561" gradientUnits="userSpaceOnUse" id="color-5"><stop offset="0" stop-color="#ffffff"/><stop offset="1" stop-color="#ffffff" stop-opacity="0"/></linearGradient><radialGradient cx="239.75274" cy="208.44531" r="6.54752" gradientUnits="userSpaceOnUse" id="color-6"><stop offset="0" stop-color="#ffee35"/><stop offset="1" stop-color="#ffee35" stop-opacity="0"/></radialGradient><linearGradient x1="244.59114" y1="206.02092" x2="235.23532" y2="206.02092" gradientUnits="userSpaceOnUse" id="color-7"><stop offset="0" stop-color="#5f5f5f"/><stop offset="1" stop-color="#4c4c4c"/></linearGradient><linearGradient x1="244.59114" y1="206.02092" x2="235.23532" y2="206.02092" gradientUnits="userSpaceOnUse" id="color-8"><stop offset="0" stop-color="#949494"/><stop offset="1" stop-color="#757575"/></linearGradient><linearGradient x1="244.30265" y1="204.21928" x2="241.26722" y2="204.21928" gradientUnits="userSpaceOnUse" id="color-9"><stop offset="0" stop-color="#4c4c4c"/><stop offset="1" stop-color="#4c4c4c" stop-opacity="0"/></linearGradient><linearGradient x1="235.52447" y1="204.21927" x2="238.55989" y2="204.21927" gradientUnits="userSpaceOnUse" id="color-10"><stop offset="0" stop-color="#5f5f5f"/><stop offset="1" stop-color="#5f5f5f" stop-opacity="0"/></linearGradient><linearGradient x1="240.73198" y1="126.50034" x2="240.73198" y2="220.52639" gradientUnits="userSpaceOnUse" id="color-11"><stop offset="0" stop-color="#a300f2"/><stop offset="1" stop-color="#a300f2" stop-opacity="0"/></linearGradient><linearGradient x1="241.0248" y1="98.48158" x2="241.0248" y2="226.50219" gradientUnits="userSpaceOnUse" id="color-12"><stop offset="0" stop-color="#f1f1f1"/><stop offset="1" stop-color="#f1f1f1" stop-opacity="0"/></linearGradient><linearGradient x1="239.78279" y1="206.11823" x2="239.78279" y2="214.02599" gradientUnits="userSpaceOnUse" id="color-13"><stop offset="0" stop-color="#ff4f00"/><stop offset="1" stop-color="#ff4f00" stop-opacity="0"/></linearGradient><linearGradient x1="239.86653" y1="206.36497" x2="239.86653" y2="211.7108" gradientUnits="userSpaceOnUse" id="color-14"><stop offset="0" stop-color="#ffd400"/><stop offset="1" stop-color="#ffd400" stop-opacity="0"/></linearGradient><linearGradient x1="239.86936" y1="206.00691" x2="239.86936" y2="214.88923" gradientUnits="userSpaceOnUse" id="color-15"><stop offset="0" stop-color="#ffee00"/><stop offset="1" stop-color="#ffee00" stop-opacity="0"/></linearGradient><linearGradient x1="239.95869" y1="205.93396" x2="239.95869" y2="209.82134" gradientUnits="userSpaceOnUse" id="color-16"><stop offset="0" stop-color="#ffee00"/><stop offset="1" stop-color="#ffee00" stop-opacity="0"/></linearGradient><linearGradient x1="237.4424" y1="206.00691" x2="237.4424" y2="209.89429" gradientUnits="userSpaceOnUse" id="color-17"><stop offset="0" stop-color="#ffee00"/><stop offset="1" stop-color="#ffee00" stop-opacity="0"/></linearGradient><linearGradient x1="242.47497" y1="206.00691" x2="242.47497" y2="209.89429" gradientUnits="userSpaceOnUse" id="color-18"><stop offset="0" stop-color="#ffee00"/><stop offset="1" stop-color="#ffee00" stop-opacity="0"/></linearGradient><linearGradient x1="244.62222" y1="203.97262" x2="235.21734" y2="203.97262" gradientUnits="userSpaceOnUse" id="color-19"><stop offset="0" stop-color="#888888"/><stop offset="1" stop-color="#696969"/></linearGradient><linearGradient x1="237.2538" y1="155.72479" x2="237.2538" y2="199.68327" gradientUnits="userSpaceOnUse" id="color-20"><stop offset="0" stop-color="#00de98"/><stop offset="1" stop-color="#00386f"/></linearGradient><linearGradient x1="237.2538" y1="155.72479" x2="237.2538" y2="199.68327" gradientUnits="userSpaceOnUse" id="color-21"><stop offset="0" stop-color="#00de98"/><stop offset="1" stop-color="#00386f"/></linearGradient><linearGradient x1="242.61167" y1="167.87077" x2="237.49964" y2="167.87077" gradientUnits="userSpaceOnUse" id="color-22"><stop offset="0" stop-color="#5f5f5f"/><stop offset="1" stop-color="#a8a8a8"/></linearGradient><linearGradient x1="240.01658" y1="161.54813" x2="240.01658" y2="162.48361" gradientUnits="userSpaceOnUse" id="color-23"><stop offset="0" stop-color="#7a7a7a"/><stop offset="1" stop-color="#646464"/></linearGradient><linearGradient x1="251.8743" y1="178.86467" x2="251.8743" y2="200.90384" gradientUnits="userSpaceOnUse" id="color-24"><stop offset="0" stop-color="#00a29c"/><stop offset="1" stop-color="#00478c"/></linearGradient><linearGradient x1="228.24537" y1="178.86467" x2="228.24537" y2="200.90384" gradientUnits="userSpaceOnUse" id="color-25"><stop offset="0" stop-color="#00a29c"/><stop offset="1" stop-color="#00478c"/></linearGradient><linearGradient x1="240.89196" y1="165.17487" x2="240.71503" y2="165.17487" gradientUnits="userSpaceOnUse" id="color-26"><stop offset="0" stop-color="#00eeec"/><stop offset="1" stop-color="#1cfff4"/></linearGradient><linearGradient x1="246.24908" y1="156.23007" x2="246.24908" y2="200.78563" gradientUnits="userSpaceOnUse" id="color-27"><stop offset="0" stop-color="#00ffad"/><stop offset="1" stop-color="#00478c"/></linearGradient><linearGradient x1="246.24908" y1="156.23007" x2="246.24908" y2="200.78563" gradientUnits="userSpaceOnUse" id="color-28"><stop offset="0" stop-color="#00ffad"/><stop offset="1" stop-color="#00478c"/></linearGradient><linearGradient x1="234.05884" y1="156.22214" x2="234.05884" y2="200.77769" gradientUnits="userSpaceOnUse" id="color-29"><stop offset="0" stop-color="#00ffad"/><stop offset="1" stop-color="#00478c"/></linearGradient><linearGradient x1="234.05884" y1="156.22214" x2="234.05884" y2="200.77769" gradientUnits="userSpaceOnUse" id="color-30"><stop offset="0" stop-color="#00ffad"/><stop offset="1" stop-color="#00478c"/></linearGradient><linearGradient x1="261.09478" y1="178.60527" x2="261.09478" y2="188.09109" gradientUnits="userSpaceOnUse" id="color-31"><stop offset="0" stop-color="#00a29c"/><stop offset="1" stop-color="#007995"/></linearGradient><linearGradient x1="230.61806" y1="193.40468" x2="228.06207" y2="193.40468" gradientUnits="userSpaceOnUse" id="color-32"><stop offset="0" stop-color="#002f5e"/><stop offset="1" stop-color="#002f5e" stop-opacity="0"/></linearGradient><linearGradient x1="230.74799" y1="186.04026" x2="228.09366" y2="186.04026" gradientUnits="userSpaceOnUse" id="color-33"><stop offset="0" stop-color="#dbdbdb"/><stop offset="1" stop-color="#dbdbdb" stop-opacity="0"/></linearGradient><linearGradient x1="242.17343" y1="197.61642" x2="238.14282" y2="197.61642" gradientUnits="userSpaceOnUse" id="color-34"><stop offset="0" stop-color="#8b8b8b"/><stop offset="1" stop-color="#7f7f7f"/></linearGradient><linearGradient x1="241.81954" y1="192.76641" x2="238.49671" y2="192.76641" gradientUnits="userSpaceOnUse" id="color-35"><stop offset="0" stop-color="#8b8b8b"/><stop offset="1" stop-color="#7f7f7f"/></linearGradient><linearGradient x1="219.11729" y1="178.60527" x2="219.11729" y2="188.0911" gradientUnits="userSpaceOnUse" id="color-36"><stop offset="0" stop-color="#00a29c"/><stop offset="1" stop-color="#007995"/></linearGradient><linearGradient x1="261.85356" y1="179.88452" x2="261.85356" y2="192.11529" gradientUnits="userSpaceOnUse" id="color-37"><stop offset="0" stop-color="#009a95"/><stop offset="1" stop-color="#005da9"/></linearGradient><linearGradient x1="218.26611" y1="179.88452" x2="218.26611" y2="192.11529" gradientUnits="userSpaceOnUse" id="color-38"><stop offset="0" stop-color="#009a95"/><stop offset="1" stop-color="#005da9"/></linearGradient><linearGradient x1="262.94251" y1="178.94647" x2="262.94251" y2="192.53621" gradientUnits="userSpaceOnUse" id="color-39"><stop offset="0" stop-color="#007c78"/><stop offset="1" stop-color="#00376d"/></linearGradient><linearGradient x1="217.17711" y1="178.94647" x2="217.17711" y2="192.53621" gradientUnits="userSpaceOnUse" id="color-40"><stop offset="0" stop-color="#007c78"/><stop offset="1" stop-color="#00376d"/></linearGradient><linearGradient x1="249.6038" y1="179.1031" x2="246.26133" y2="179.1031" gradientUnits="userSpaceOnUse" id="color-41"><stop offset="0" stop-color="#00b67c"/><stop offset="1" stop-color="#00b67c" stop-opacity="0"/></linearGradient><linearGradient x1="249.6038" y1="179.1031" x2="246.26133" y2="179.1031" gradientUnits="userSpaceOnUse" id="color-42"><stop offset="0" stop-color="#00847e"/><stop offset="1" stop-color="#00847e" stop-opacity="0"/></linearGradient><linearGradient x1="249.6038" y1="179.1031" x2="246.26133" y2="179.1031" gradientUnits="userSpaceOnUse" id="color-43"><stop offset="0" stop-color="#004183"/><stop offset="1" stop-color="#004183" stop-opacity="0"/></linearGradient><linearGradient x1="249.57111" y1="172.98334" x2="246.29748" y2="172.98334" gradientUnits="userSpaceOnUse" id="color-44"><stop offset="0" stop-color="#009c84"/><stop offset="1" stop-color="#009c84" stop-opacity="0"/></linearGradient><linearGradient x1="249.57111" y1="188.08334" x2="246.29748" y2="188.08334" gradientUnits="userSpaceOnUse" id="color-45"><stop offset="0" stop-color="#00779c"/><stop offset="1" stop-color="#00779c" stop-opacity="0"/></linearGradient><linearGradient x1="255.5281" y1="181.97989" x2="251.16243" y2="181.97989" gradientUnits="userSpaceOnUse" id="color-46"><stop offset="0" stop-color="#01878f"/><stop offset="1" stop-color="#018097"/></linearGradient><linearGradient x1="255.5281" y1="181.97989" x2="251.16242" y2="181.97989" gradientUnits="userSpaceOnUse" id="color-47"><stop offset="0" stop-color="#01878f"/><stop offset="1" stop-color="#018097"/></linearGradient><linearGradient x1="255.47439" y1="185.90967" x2="251.11705" y2="185.90967" gradientUnits="userSpaceOnUse" id="color-48"><stop offset="0" stop-color="#01878f"/><stop offset="1" stop-color="#018097"/></linearGradient><linearGradient x1="255.47439" y1="185.90967" x2="251.11705" y2="185.90967" gradientUnits="userSpaceOnUse" id="color-49"><stop offset="0" stop-color="#01878f"/><stop offset="1" stop-color="#018097"/></linearGradient><linearGradient x1="225.01627" y1="181.97989" x2="229.38194" y2="181.97989" gradientUnits="userSpaceOnUse" id="color-50"><stop offset="0" stop-color="#01878f"/><stop offset="1" stop-color="#018097"/></linearGradient><linearGradient x1="225.0163" y1="181.97989" x2="229.38195" y2="181.97989" gradientUnits="userSpaceOnUse" id="color-51"><stop offset="0" stop-color="#01878f"/><stop offset="1" stop-color="#018097"/></linearGradient><linearGradient x1="225.07" y1="185.90967" x2="229.42732" y2="185.90967" gradientUnits="userSpaceOnUse" id="color-52"><stop offset="0" stop-color="#01878f"/><stop offset="1" stop-color="#018097"/></linearGradient><linearGradient x1="225.07" y1="185.90967" x2="229.42732" y2="185.90967" gradientUnits="userSpaceOnUse" id="color-53"><stop offset="0" stop-color="#01878f"/><stop offset="1" stop-color="#018097"/></linearGradient></defs><g transform="translate(-214.11632,-152.67332)"><g data-paper-data="{&quot;isPaintingLayer&quot;:true}" fill-rule="nonzero" stroke-linejoin="miter" stroke-miterlimit="10" stroke-dasharray="" stroke-dashoffset="0" style="mix-blend-mode: normal"><path d="M239.61712,200.33697c4.15687,0 7.52669,3.52552 7.52669,7.87446c0,4.34894 -3.36979,7.87446 -7.52669,7.87446c-4.15688,0 -7.5267,-3.52552 -7.5267,-7.87446c0,-4.34894 3.3698,-7.87446 7.5267,-7.87446z" data-paper-data="{&quot;index&quot;:null}" fill="url(#color-1)" stroke="none" stroke-width="0" stroke-linecap="butt"/><path d="M239.89369,193.07341c6.49192,0 11.75465,5.53134 11.75465,12.35459c0,6.82325 -5.26274,12.35459 -11.75465,12.35459c-6.49192,0 -11.75464,-5.53134 -11.75464,-12.35459c0,-6.82325 5.26273,-12.35459 11.75464,-12.35459z" data-paper-data="{&quot;index&quot;:null}" fill="url(#color-2)" stroke="none" stroke-width="0" stroke-linecap="butt"/><g data-paper-data="{&quot;index&quot;:null}"><g fill="none" stroke="#00386f" stroke-width="1" stroke-linecap="round"><g><path d="M261.60076,194.65133l-14.93053,8.375h-8.01825"/><path d="M261.54547,193.77633l-14.93053,8.375h-8.01825"/><path d="M261.71138,192.83883l-14.93053,8.375h-8.01825"/></g><g><path d="M238.26097,203.02633h-8.01825l-14.93052,-8.375"/><path d="M238.31628,202.15133h-8.01825l-14.93053,-8.375"/><path d="M238.15037,201.21383h-8.01825l-14.93053,-8.375"/></g></g><path d="M229.52468,203.4762v-3.42857h19.0858v3.42857z" fill="#00386f" stroke="none" stroke-width="0" stroke-linecap="butt"/></g><path d="M239.58207,202.04808c3.17202,0 5.74343,2.50497 5.74343,5.59501c0,3.09004 -2.57142,5.59501 -5.74343,5.59501c-3.17202,0 -5.74343,-2.50497 -5.74343,-5.59501c0,-3.09003 2.57142,-5.59501 5.74343,-5.59501z" data-paper-data="{&quot;index&quot;:null}" fill="url(#color-3)" stroke="none" stroke-width="0" stroke-linecap="butt"/><path d="M236.35292,212.8485v-6.27273c0,0 1.57074,-0.45454 3.57758,-0.45454c1.88124,0 3.57757,0.45454 3.57757,0.45454v6.27273z" data-paper-data="{&quot;index&quot;:null}" fill="url(#color-4)" stroke="none" stroke-width="0" stroke-linecap="butt"/><path d="M242.41366,204.32198l-2.58904,16.86364l-2.58904,-16.86364z" data-paper-data="{&quot;index&quot;:null}" fill="url(#color-5)" stroke="#000000" stroke-width="0" stroke-linecap="round"/><path d="M239.75274,202.8503c3.17202,0 5.74343,2.50497 5.74343,5.59501c0,3.09004 -2.57143,5.59501 -5.74343,5.59501c-3.17202,0 -5.74343,-2.50497 -5.74343,-5.59501c0,-3.09004 2.57143,-5.59501 5.74343,-5.59501z" data-paper-data="{&quot;index&quot;:null}" fill="url(#color-6)" stroke="none" stroke-width="0" stroke-linecap="butt"/><path d="M239.91324,205.18001c2.58356,0 4.67792,0.37649 4.67792,0.84091c0,0.46442 -2.09438,0.84091 -4.67792,0.84091c-2.58356,0 -4.67792,-0.37649 -4.67792,-0.84091c0,-0.46442 2.09438,-0.84091 4.67792,-0.84091z" data-paper-data="{&quot;index&quot;:null}" fill="url(#color-7)" stroke="url(#color-8)" stroke-width="0.5" stroke-linecap="butt"/><path d="M244.30264,206.08134c0,0 -0.86045,0.27881 -1.3437,0.35477c-0.53518,0.08412 -1.72743,0.12799 -1.72743,0.12799l0.03572,-4.2069h3.03542v3.72414z" data-paper-data="{&quot;index&quot;:null}" fill="url(#color-9)" stroke="none" stroke-width="0" stroke-linecap="butt"/><path d="M236.86819,206.43611c-0.48323,-0.07597 -1.3437,-0.35477 -1.3437,-0.35477v-3.72414h3.03543l0.03572,4.2069c0,0 -1.19227,-0.04386 -1.72743,-0.12799z" data-paper-data="{&quot;index&quot;:null}" fill="url(#color-10)" stroke="none" stroke-width="0" stroke-linecap="butt"/><g data-paper-data="{&quot;index&quot;:null}" stroke="#000000" stroke-width="0" stroke-linecap="round"><path d="M242.6563,206.62112l-2.89674,14.93246l-2.46056,-14.93246z" fill="url(#color-11)"/><path d="M243.64479,207.56954l-3.94402,20.33121l-3.35014,-20.33121z" fill="url(#color-12)"/><path d="M241.22591,206.11823c0,0 2.28896,0.46537 2.25481,2.41626c-0.08021,4.58168 -3.33713,5.49149 -3.33713,5.49149c0,0 -3.86043,-1.02334 -4.05867,-5.49149c-0.08297,-1.86924 2.34498,-2.41626 2.34498,-2.41626z" fill="url(#color-13)"/><path d="M240.84208,206.36497c0,0 1.5474,0.3146 1.52432,1.63345c-0.05424,3.09733 -2.25599,3.71239 -2.25599,3.71239c0,0 -2.60975,-0.69182 -2.74376,-3.71239c-0.05607,-1.26365 1.58528,-1.63345 1.58528,-1.63345z" fill="url(#color-14)"/><path d="M241.49029,206.00691c0,0 2.57107,0.52272 2.53271,2.71404c-0.09013,5.14633 -3.74842,6.16828 -3.74842,6.16828c0,0 -4.33622,-1.14947 -4.55886,-6.16828c-0.09314,-2.0996 2.63401,-2.71404 2.63401,-2.71404z" fill="url(#color-15)"/><path d="M240.66811,205.93396c0,0 1.12523,0.22877 1.10844,1.18781c-0.03942,2.25231 -1.64051,2.69957 -1.64051,2.69957c0,0 -1.89775,-0.50307 -1.9952,-2.69957c-0.04077,-0.9189 1.15277,-1.18781 1.15277,-1.18781z" fill="url(#color-16)"/><path d="M238.1518,206.00691c0,0 1.12525,0.22877 1.10847,1.18781c-0.03942,2.25231 -1.64051,2.69957 -1.64051,2.69957c0,0 -1.89777,-0.50307 -1.99522,-2.69957c-0.04079,-0.91889 1.15277,-1.18781 1.15277,-1.18781z" fill="url(#color-17)"/><path d="M243.18439,206.00691c0,0 1.12525,0.22877 1.10847,1.18781c-0.03942,2.25231 -1.64051,2.69957 -1.64051,2.69957c0,0 -1.89777,-0.50307 -1.99522,-2.69957c-0.04079,-0.91889 1.15277,-1.18781 1.15277,-1.18781z" fill="url(#color-18)"/></g><path d="M235.95357,156.79167v-3.875h2.89873v3.875z" data-paper-data="{&quot;index&quot;:null}" fill="#00cd94" stroke="none" stroke-width="0" stroke-linecap="butt"/><path d="M244.62223,206.10898c0,0 -2.488,-0.63636 -4.6572,-0.63636c-2.13905,0 -4.74765,0.63636 -4.74765,0.63636v-4.27273c0,0 2.52553,-0.48772 4.70242,-0.5c2.17767,-0.01228 4.70242,0.5 4.70242,0.5v4.27273z" data-paper-data="{&quot;index&quot;:null}" fill="url(#color-19)" stroke="none" stroke-width="0" stroke-linecap="butt"/><path d="M235.97063,205.54808v-3.68" data-paper-data="{&quot;index&quot;:null}" fill="none" stroke="#656565" stroke-width="0.5" stroke-linecap="round"/><path d="M237.12453,201.66808v3.64" data-paper-data="{&quot;index&quot;:null}" fill="none" stroke="#6a6a6a" stroke-width="0.5" stroke-linecap="round"/><path d="M238.23868,205.18808l-0.03978,-3.64" data-paper-data="{&quot;index&quot;:null}" fill="none" stroke="#6f6f6f" stroke-width="0.5" stroke-linecap="round"/><path d="M239.39257,205.14808l-0.07959,-3.68" data-paper-data="{&quot;index&quot;:null}" fill="none" stroke="#747474" stroke-width="0.5" stroke-linecap="round"/><path d="M240.46688,201.42808l0.03978,3.76" data-paper-data="{&quot;index&quot;:null}" fill="none" stroke="#787878" stroke-width="0.5" stroke-linecap="round"/><path d="M241.58101,205.26808v-3.76" data-paper-data="{&quot;index&quot;:null}" fill="none" stroke="#7b7b7b" stroke-width="0.5" stroke-linecap="round"/><path d="M217.7505,192.55921l13.94139,7.77778" data-paper-data="{&quot;index&quot;:null}" fill="none" stroke="#00386f" stroke-width="2.5" stroke-linecap="round"/><path d="M241.87115,199.68327l-10.2355,-0.0566l-2.60595,-0.71141l-0.19053,-37.7619l5.7919,-5.42857v15.95287c0,0 0.70051,1.79051 2.59282,1.79051c1.92597,0 2.63404,-1.92095 2.63404,-1.92095v-15.66277l5.65065,5.42857l0.15985,37.58147z" data-paper-data="{&quot;index&quot;:null}" fill="url(#color-20)" stroke="url(#color-21)" stroke-width="2.5" stroke-linecap="round"/><path d="M244.30968,173.2291l-7.48035,-1.36364l1.20652,-16.90909c0,0 0.35958,0.18974 0.7239,0.09091c0.36432,-0.09882 0.69805,-0.18471 1.28694,-0.63636c0.5889,-0.45165 1.36738,-1.36364 1.36738,-1.36364z" data-paper-data="{&quot;index&quot;:null}" fill="#676767" stroke="#ff0000" stroke-width="0" stroke-linecap="round"/><g data-paper-data="{&quot;index&quot;:null}" fill="none" stroke-linecap="round"><g stroke="#b6b6b6" stroke-width="2.5"><path d="M256.4914,179.46937v-4.09091"/></g><path d="M256.12943,179.71937l-0.04021,-4.18182" stroke="#c2c2c2" stroke-width="1.5"/></g><g data-paper-data="{&quot;index&quot;:null}" fill="none" stroke-linecap="round"><g stroke="#b6b6b6" stroke-width="2.5"><path d="M222.77759,175.37846v4.09091"/></g><path d="M223.17975,175.53755l-0.04021,4.18182" stroke="#c2c2c2" stroke-width="1.5"/></g><path d="M237.49966,173.76976v-11.79798h5.11201v11.79798z" data-paper-data="{&quot;index&quot;:null}" fill="url(#color-22)" stroke="none" stroke-width="0" stroke-linecap="butt"/><path d="M240.01656,161.54813c1.05252,0 1.90576,0.20942 1.90576,0.46775c0,0.25833 -0.85324,0.46774 -1.90576,0.46774c-1.05252,0 -1.90575,-0.20941 -1.90575,-0.46774c0,-0.25833 0.85323,-0.46775 1.90575,-0.46775z" data-paper-data="{&quot;index&quot;:null}" fill="url(#color-23)" stroke="#7e7e7e" stroke-width="0.5" stroke-linecap="butt"/><path d="M261.79182,194.71383v-1.9375h0.94007v1.9375z" data-paper-data="{&quot;index&quot;:null}" fill="#00386f" stroke="none" stroke-width="0" stroke-linecap="butt"/><path d="M263.72946,192.23967l-15.61869,8.625l-8.04984,0.03917l-0.0418,-21.91417l23.33332,-0.125z" data-paper-data="{&quot;index&quot;:null}" fill="url(#color-24)" stroke="#b6b6b6" stroke-width="0" stroke-linecap="round"/><path d="M260.95664,180.24806v-1.35714h1.70635v1.35714z" data-paper-data="{&quot;index&quot;:null}" fill="#00bcfb" stroke="none" stroke-width="0" stroke-linecap="butt"/><path d="M241.17566,180.31949v19.28572" data-paper-data="{&quot;index&quot;:null}" fill="none" stroke="#3195b6" stroke-width="2.5" stroke-linecap="round"/><path d="M240.03809,183.74806v-4.71428h2.21193v4.71428z" data-paper-data="{&quot;index&quot;:null}" fill="#f00000" stroke="none" stroke-width="0" stroke-linecap="butt"/><path d="M240.03809,200.81949v-6h2.21193v6z" data-paper-data="{&quot;index&quot;:null}" fill="#0098ca" stroke="none" stroke-width="0" stroke-linecap="butt"/><path d="M250.04311,184.71383v7.1875" data-paper-data="{&quot;index&quot;:null}" fill="none" stroke="#00bcfb" stroke-width="1" stroke-linecap="round"/><path d="M248.43948,192.46383l-0.11062,-8.6875" data-paper-data="{&quot;index&quot;:null}" fill="none" stroke="#f50000" stroke-width="1" stroke-linecap="round"/><path d="M258.44846,189.08883v-7.9375" data-paper-data="{&quot;index&quot;:null}" fill="none" stroke="#006c8a" stroke-width="1" stroke-linecap="round"/><path d="M253.13981,182.08883v11.875" data-paper-data="{&quot;index&quot;:null}" fill="none" stroke="#005b82" stroke-width="1" stroke-linecap="round"/><path d="M245.67454,195.46383l-0.05529,-11.1875" data-paper-data="{&quot;index&quot;:null}" fill="none" stroke="#fa0000" stroke-width="1" stroke-linecap="round"/><path d="M255.51764,194.33883l-0.11062,-5.125" data-paper-data="{&quot;index&quot;:null}" fill="none" stroke="#005b82" stroke-width="1" stroke-linecap="round"/><path d="M243.5179,181.40133l-0.0553,11" data-paper-data="{&quot;index&quot;:null}" fill="none" stroke="#fa0000" stroke-width="1" stroke-linecap="round"/><path d="M216.41784,194.71383v-1.9375h0.94007v1.9375z" data-paper-data="{&quot;index&quot;:null}" fill="#00386f" stroke="none" stroke-width="0" stroke-linecap="butt"/><path d="M216.7672,178.86467l23.33332,0.125l-0.0418,21.91417l-8.04984,-0.03917l-15.61869,-8.625z" data-paper-data="{&quot;index&quot;:null}" fill="url(#color-25)" stroke="#b6b6b6" stroke-width="0" stroke-linecap="round"/><path d="M217.45666,180.24806v-1.35714h1.70635v1.35714z" data-paper-data="{&quot;index&quot;:null}" fill="#00b1ec" stroke="none" stroke-width="0" stroke-linecap="butt"/><path d="M238.94397,199.60521v-19.28572" data-paper-data="{&quot;index&quot;:null}" fill="none" stroke="#3195b6" stroke-width="2.5" stroke-linecap="round"/><path d="M237.86964,183.74806v-4.71428h2.21192v4.71428z" data-paper-data="{&quot;index&quot;:null}" fill="#f00000" stroke="none" stroke-width="0" stroke-linecap="butt"/><path d="M237.86964,200.81949v-6h2.21192v6z" data-paper-data="{&quot;index&quot;:null}" fill="#0098ca" stroke="none" stroke-width="0" stroke-linecap="butt"/><path d="M230.07649,191.90133v-7.1875" data-paper-data="{&quot;index&quot;:null}" fill="none" stroke="#00bcfb" stroke-width="1" stroke-linecap="round"/><path d="M231.79074,183.77633l-0.11061,8.6875" data-paper-data="{&quot;index&quot;:null}" fill="none" stroke="#f50000" stroke-width="1" stroke-linecap="round"/><path d="M221.67117,189.08883v-7.9375" data-paper-data="{&quot;index&quot;:null}" fill="none" stroke="#006c8a" stroke-width="1" stroke-linecap="round"/><path d="M226.97978,182.08883v11.875" data-paper-data="{&quot;index&quot;:null}" fill="none" stroke="#005b82" stroke-width="1" stroke-linecap="round"/><path d="M234.44504,195.46383l0.0553,-11.1875" data-paper-data="{&quot;index&quot;:null}" fill="none" stroke="#fa0000" stroke-width="1" stroke-linecap="round"/><path d="M224.71258,189.21383l-0.11062,5.125" data-paper-data="{&quot;index&quot;:null}" fill="none" stroke="#005b82" stroke-width="1" stroke-linecap="round"/><path d="M236.60168,181.40133l0.0553,11" data-paper-data="{&quot;index&quot;:null}" fill="none" stroke="#fa0000" stroke-width="1" stroke-linecap="round"/><path d="M239.0916,167.61264v-4.77419h0.22832v4.77419z" data-paper-data="{&quot;index&quot;:null}" fill="#1dfffb" stroke="none" stroke-width="0" stroke-linecap="butt"/><path d="M241.41412,153.41091l-0.08044,17.45455c0,0 -0.22638,0.86024 -1.20652,0.90909c-1.00309,0.04999 -1.36738,-0.90909 -1.36738,-0.90909v-17.45455" data-paper-data="{&quot;index&quot;:null}" fill="none" stroke="#b1b1b1" stroke-width="1" stroke-linecap="round"/><path d="M244.7744,199.5166l-10.2355,-0.0566l-2.60595,-0.71141l-0.19052,-37.7619l5.7919,-5.42857v15.95287c0,0 0.7005,1.79051 2.59281,1.79051c1.92597,0 2.63404,-1.92095 2.63404,-1.92095v-15.66277l5.65065,5.42857l0.15985,37.58147z" data-paper-data="{&quot;index&quot;:null}" fill="#ffffff" stroke="#ffffff" stroke-width="2.5" stroke-linecap="round"/><path d="M244.3812,177.21421l-0.09831,18.33333" data-paper-data="{&quot;index&quot;:null}" fill="none" stroke="#eeeeee" stroke-width="1" stroke-linecap="round"/><path d="M234.05887,177.21421l-0.09831,11.77777" data-paper-data="{&quot;index&quot;:null}" fill="none" stroke="#eeeeee" stroke-width="1" stroke-linecap="round"/><path d="M236.31993,195.43642l0.19661,-10.66666" data-paper-data="{&quot;index&quot;:null}" fill="none" stroke="#eeeeee" stroke-width="1" stroke-linecap="round"/><path d="M242.51335,186.21421v13.33333" data-paper-data="{&quot;index&quot;:null}" fill="none" stroke="#eeeeee" stroke-width="1" stroke-linecap="round"/><path d="M237.79456,180.65865l-0.09831,-7" data-paper-data="{&quot;index&quot;:null}" fill="none" stroke="#eeeeee" stroke-width="1" stroke-linecap="round"/><path d="M245.06934,159.3253l0.19662,13.77777" data-paper-data="{&quot;index&quot;:null}" fill="none" stroke="#eeeeee" stroke-width="1" stroke-linecap="round"/><path d="M232.78084,160.3253l0.19661,12.11111" data-paper-data="{&quot;index&quot;:null}" fill="none" stroke="#fa0000" stroke-width="1" stroke-linecap="round"/><path d="M235.14024,160.99198l0.29492,13" data-paper-data="{&quot;index&quot;:null}" fill="none" stroke="#eeeeee" stroke-width="1" stroke-linecap="round"/><path d="M240.71501,167.52489v-4.7h0.17695v4.7z" data-paper-data="{&quot;index&quot;:null}" fill="url(#color-26)" stroke="none" stroke-width="0" stroke-linecap="butt"/><path d="M239.91926,167.70942v-4.80645h0.19979v4.80645z" data-paper-data="{&quot;index&quot;:null}" fill="#1dfffb" stroke="none" stroke-width="0" stroke-linecap="butt"/><path d="M241.52972,183.26328l-1.2921,0.6931l-1.2921,-0.54738v-7.72276l1.33248,-0.91167l1.25171,1.05738z" data-paper-data="{&quot;index&quot;:null}" fill="#8cffff" stroke="#7e7e7e" stroke-width="0.5" stroke-linecap="round"/><path d="M241.47189,175.94407l-1.16127,0.875l-1.27186,-1.125" data-paper-data="{&quot;index&quot;:null}" fill="none" stroke="#55eded" stroke-width="0.5" stroke-linecap="round"/><path d="M239.25996,183.31907l1.10596,-0.8125l0.88478,0.6875" data-paper-data="{&quot;index&quot;:null}" fill="none" stroke="#55eded" stroke-width="0.5" stroke-linecap="round"/><path d="M240.25532,175.00657l0.0553,1.5l-0.0553,6.5625l-0.16589,0.5625" data-paper-data="{&quot;index&quot;:null}" fill="none" stroke="#4fdada" stroke-width="0.5" stroke-linecap="round"/><path d="M241.52972,183.26328l-1.2921,0.6931l-1.2921,-0.54738v-7.72276l1.33248,-0.91167l1.25171,1.05738z" data-paper-data="{&quot;index&quot;:null}" fill="none" stroke="#7e7e7e" stroke-width="0.5" stroke-linecap="round"/><path d="M240.04863,182.33048l-0.86371,0.78572l0.02106,-6.9881l0.82157,0.82143z" data-paper-data="{&quot;index&quot;:null}" fill="#5cffff" stroke="none" stroke-width="0" stroke-linecap="round"/><path d="M239.88557,183.49804l-0.45666,-0.13243l0.61289,-0.37012z" data-paper-data="{&quot;index&quot;:null}" fill="#57f3f3" stroke="#56eeee" stroke-width="0" stroke-linecap="round"/><path d="M240.4888,176.96646l0.86371,-0.78572l-0.02106,6.80388l-0.82158,-0.66353z" data-paper-data="{&quot;index&quot;:null}" fill="#87ffff" stroke="none" stroke-width="0" stroke-linecap="round"/><path d="M240.10405,200.90477v-10.7h3.36213v10.7z" data-paper-data="{&quot;index&quot;:null}" fill="#2d2d2d" stroke="none" stroke-width="0" stroke-linecap="butt"/><path d="M236.8304,200.90477v-10.7h3.36213v10.7z" data-paper-data="{&quot;index&quot;:null}" fill="#2d2d2d" stroke="none" stroke-width="0" stroke-linecap="butt"/><path d="M240.47666,182.91654l0.54303,0.37011l-0.66621,0.34296z" data-paper-data="{&quot;index&quot;:null}" fill="#5afbfb" stroke="#56eeee" stroke-width="0" stroke-linecap="round"/><path d="M249.49324,160.78563l-0.09832,39.33333l-1.37631,0.66667h-5.01371v-13.66667l3.53908,-3.77778v-11.77778l-1.76953,-1.88889l-0.09831,-13.44444z" data-paper-data="{&quot;index&quot;:null}" fill="url(#color-27)" stroke="url(#color-28)" stroke-width="0.5" stroke-linecap="round"/><path d="M235.63177,156.22212l-0.09831,13.44444l-1.76953,1.88889v11.77778l3.53908,3.77777v13.66667h-5.0137l-1.37632,-0.66667l-0.09831,-39.33333z" data-paper-data="{&quot;index&quot;:null}" fill="url(#color-29)" stroke="url(#color-30)" stroke-width="0.5" stroke-linecap="round"/><path d="M249.69476,178.97161l13.36006,-0.07778l-0.08848,6.44445l-13.27159,7.6z" data-paper-data="{&quot;index&quot;:null}" fill="#ffffff" stroke="#ffffff" stroke-width="0.5" stroke-linecap="round"/><path d="M258.96327,178.63063l4.35696,-0.02536l-0.09599,6.99198l-4.3549,2.49384z" data-paper-data="{&quot;index&quot;:null}" fill="url(#color-31)" stroke="#ff9b00" stroke-width="0" stroke-linecap="round"/><path d="M228.06206,198.59856v-11.74943h2.556v13.11111z" data-paper-data="{&quot;index&quot;:null}" fill="url(#color-32)" stroke="none" stroke-width="0" stroke-linecap="butt"/><path d="M230.41654,192.93828l-13.27159,-7.6l-0.08848,-6.44445l13.36007,0.07778z" data-paper-data="{&quot;index&quot;:null}" fill="#ffffff" stroke="#ffffff" stroke-width="0" stroke-linecap="round"/><path d="M237.89212,184.73335v-12.5h4.24691v12.5z" data-paper-data="{&quot;index&quot;:null}" fill="#ffffff" stroke="none" stroke-width="0" stroke-linecap="butt"/><g data-paper-data="{&quot;index&quot;:null}" stroke="#8abcd0" stroke-width="0.5" stroke-linecap="round"><path d="M238.89503,175.62268c0,0 0.49379,-1.7675 1.10203,-1.7675c0.60821,0 1.10202,1.7675 1.10202,1.7675l0.01576,4.93504c0,0 -0.49379,1.7675 -1.10202,1.7675c-0.60822,0 -1.10202,-1.7675 -1.10202,-1.7675z" fill="#97cee4"/><path d="M239.08959,176.19633h1.90352" fill="none"/><path d="M240.99311,177.58407h-1.817" fill="none"/><path d="M241.07967,179.80444h-1.99004" fill="none"/><path d="M241.15504,178.39883h-1.99004" fill="none"/></g><path d="M228.09367,191.91526v-13.17857h2.65432v14.60714z" data-paper-data="{&quot;index&quot;:null}" fill="url(#color-33)" stroke="none" stroke-width="0" stroke-linecap="butt"/><path d="M238.14281,200.28308v-5.33334h4.03062v5.33334z" data-paper-data="{&quot;index&quot;:null}" fill="url(#color-34)" stroke="none" stroke-width="0" stroke-linecap="butt"/><path d="M238.49672,194.18308v-2.83333h3.32282v2.83333z" data-paper-data="{&quot;index&quot;:null}" fill="url(#color-35)" stroke="none" stroke-width="0" stroke-linecap="butt"/><path d="M240.68653,191.52779v2.41667" data-paper-data="{&quot;index&quot;:null}" fill="none" stroke="#9e9e9e" stroke-width="0.5" stroke-linecap="round"/><path d="M239.58057,191.52779v2.41667" data-paper-data="{&quot;index&quot;:null}" fill="none" stroke="#9e9e9e" stroke-width="0.5" stroke-linecap="round"/><path d="M221.34275,188.0911l-4.3549,-2.49384l-0.096,-6.99199l4.35697,0.02536z" data-paper-data="{&quot;index&quot;:null}" fill="url(#color-36)" stroke="#ff9b00" stroke-width="0" stroke-linecap="round"/><path d="M261.81954,179.88452l0.06806,12.23077" data-paper-data="{&quot;index&quot;:null}" fill="none" stroke="url(#color-37)" stroke-width="2" stroke-linecap="round"/><path d="M218.23206,192.11529l0.06806,-12.23077" data-paper-data="{&quot;index&quot;:null}" fill="none" stroke="url(#color-38)" stroke-width="2" stroke-linecap="round"/><path d="M262.93683,178.94647l0.01134,13.58974" data-paper-data="{&quot;index&quot;:null}" fill="none" stroke="url(#color-39)" stroke-width="0.5" stroke-linecap="round"/><path d="M217.17146,192.53621l0.01134,-13.58974" data-paper-data="{&quot;index&quot;:null}" fill="none" stroke="url(#color-40)" stroke-width="0.5" stroke-linecap="round"/><path d="M246.26134,173.08929v-15.76398l3.34246,3.33333v12.34732z" data-paper-data="{&quot;index&quot;:null}" fill="url(#color-41)" stroke="none" stroke-width="0" stroke-linecap="butt"/><path d="M246.26134,187.83929v-14.83333h3.34246v14.83333z" data-paper-data="{&quot;index&quot;:null}" fill="url(#color-42)" stroke="none" stroke-width="0" stroke-linecap="butt"/><path d="M248.3258,200.88087h-2.06447v-13.03889l3.34246,-0.05834l0.07373,12.23611z" data-paper-data="{&quot;index&quot;:null}" fill="url(#color-43)" stroke="none" stroke-width="0" stroke-linecap="butt"/><path d="M246.29747,175.23334v-4.5h3.27364v4.5z" data-paper-data="{&quot;index&quot;:null}" fill="url(#color-44)" stroke="none" stroke-width="0" stroke-linecap="butt"/><path d="M246.29747,190.33334v-4.5h3.27364v4.5z" data-paper-data="{&quot;index&quot;:null}" fill="url(#color-45)" stroke="none" stroke-width="0" stroke-linecap="butt"/><g data-paper-data="{&quot;index&quot;:null}" fill="none" stroke-linecap="round"><path d="M264.33772,177.36467v6.8125" stroke="#b6b6b6" stroke-width="2.5"/><g><path d="M264.5036,185.05217v6.8125" stroke="#b6b6b6" stroke-width="3"/><path d="M264.06549,191.88452v-6.6875" stroke="#c2c2c2" stroke-width="2"/></g><path d="M263.89959,177.50952v6.6875" stroke="#c2c2c2" stroke-width="1.5"/></g><g data-paper-data="{&quot;index&quot;:null}" fill="none" stroke-linecap="round"><path d="M215.78223,184.17717v-6.8125" stroke="#b6b6b6" stroke-width="2.5"/><g><path d="M215.61632,191.86467v-6.8125" stroke="#b6b6b6" stroke-width="3"/><path d="M216.05444,185.19702v6.6875" stroke="#c2c2c2" stroke-width="2"/></g><path d="M216.22034,184.19702v-6.6875" stroke="#c2c2c2" stroke-width="1.5"/></g><g data-paper-data="{&quot;index&quot;:null}" fill="#01878f" stroke="#d5d5d5" stroke-width="1" stroke-linecap="square"><g><path d="M251.16244,180.31502h0.67379v2.37914l-0.1789,-0.07353l1.15241,-1.47055c0.14249,-0.18382 0.27183,-0.33787 0.388,-0.46217c0.11772,-0.12429 0.24551,-0.21708 0.38337,-0.27835c0.1394,-0.06303 0.31133,-0.09454 0.51579,-0.09454c0.27881,0 0.52587,0.0709 0.74116,0.2127c0.2153,0.14005 0.38413,0.3335 0.5065,0.58034c0.12235,0.2451 0.18355,0.52257 0.18355,0.83244c0,0.33437 -0.05886,0.62849 -0.17658,0.88233c-0.11616,0.25384 -0.28036,0.45342 -0.49256,0.59872c-0.21221,0.14355 -0.46159,0.21533 -0.74814,0.21533v-0.83244c0.13166,0.00525 0.25403,-0.02801 0.3671,-0.09979c0.11307,-0.07178 0.20368,-0.17244 0.27184,-0.30199c0.06814,-0.12955 0.10223,-0.27836 0.10223,-0.44642c0,-0.15756 -0.03252,-0.29761 -0.09758,-0.42016c-0.06507,-0.12254 -0.15414,-0.21795 -0.26721,-0.28623c-0.11153,-0.07003 -0.23852,-0.10504 -0.38103,-0.10504c-0.10533,0 -0.21453,0.03152 -0.3276,0.09454c-0.11308,0.06128 -0.23312,0.17332 -0.36013,0.33613l-1.63335,2.06928h-0.62267z"/><path d="M251.30542,185.02474c0.12707,-0.2548 0.3041,-0.45401 0.53104,-0.59765c0.22695,-0.14535 0.48869,-0.21803 0.78523,-0.21803h1.34804c0.29503,0 0.55603,0.07268 0.78297,0.21803c0.22694,0.14364 0.40396,0.34286 0.53104,0.59765c0.1271,0.2548 0.19064,0.54977 0.19064,0.88493c0,0.33516 -0.06356,0.63099 -0.19064,0.88749c-0.12708,0.2548 -0.3041,0.45401 -0.53104,0.59765c-0.22694,0.14364 -0.48793,0.21546 -0.78297,0.21546h-1.34804c-0.29654,0 -0.55829,-0.07182 -0.78523,-0.21546c-0.22693,-0.14364 -0.40396,-0.34286 -0.53104,-0.59765c-0.12559,-0.2565 -0.18837,-0.55233 -0.18837,-0.88749c0,-0.33516 0.0628,-0.63014 0.18837,-0.88493zM251.88639,186.36368c0.0711,0.13509 0.16642,0.24197 0.28594,0.32063c0.11953,0.07866 0.25267,0.11799 0.39943,0.11799h1.45017c0.14828,0 0.28218,-0.03933 0.4017,-0.11799c0.11952,-0.07866 0.21408,-0.18554 0.28368,-0.32063c0.07112,-0.13681 0.10667,-0.28814 0.10667,-0.45401c0,-0.16759 -0.03555,-0.31892 -0.10667,-0.45401c-0.06959,-0.13509 -0.16416,-0.24197 -0.28368,-0.32063c-0.11953,-0.07866 -0.25343,-0.11799 -0.4017,-0.11799h-1.45017c-0.14677,0 -0.27991,0.03933 -0.39943,0.11799c-0.11951,0.07866 -0.21482,0.18554 -0.28594,0.32063c-0.0696,0.13509 -0.10439,0.28643 -0.10439,0.45401c0,0.16587 0.03479,0.31721 0.10439,0.45401z"/></g><g data-paper-data="{&quot;index&quot;:null}"><path d="M229.38191,183.64476h-0.62267l-1.63335,-2.06928c-0.12701,-0.16281 -0.24705,-0.27485 -0.36012,-0.33613c-0.11307,-0.06302 -0.22228,-0.09454 -0.3276,-0.09454c-0.14249,0 -0.2695,0.03501 -0.38103,0.10504c-0.11307,0.06828 -0.20213,0.16369 -0.26719,0.28623c-0.06506,0.12255 -0.09758,0.2626 -0.09758,0.42016c0,0.16806 0.03407,0.31687 0.10223,0.44642c0.06816,0.12955 0.15877,0.23021 0.27184,0.30199c0.11307,0.07178 0.23545,0.10504 0.3671,0.09979v0.83244c-0.28654,0 -0.53592,-0.07178 -0.74812,-0.21533c-0.21218,-0.1453 -0.37639,-0.34488 -0.49256,-0.59872c-0.11772,-0.25384 -0.17658,-0.54796 -0.17658,-0.88233c0,-0.30987 0.06118,-0.58734 0.18355,-0.83244c0.12237,-0.24684 0.29121,-0.44029 0.5065,-0.58034c0.21529,-0.1418 0.46234,-0.2127 0.74116,-0.2127c0.20446,0 0.37638,0.03151 0.51579,0.09454c0.13786,0.06127 0.26565,0.15406 0.38337,0.27835c0.11616,0.1243 0.24549,0.27835 0.388,0.46217l1.15241,1.47055l-0.1789,0.07353v-2.37914h0.67379z"/><path d="M229.42732,185.90967c0,0.33516 -0.0628,0.63099 -0.18837,0.88749c-0.12708,0.2548 -0.30411,0.45401 -0.53105,0.59765c-0.22696,0.14364 -0.48869,0.21546 -0.78523,0.21546h-1.34805c-0.29503,0 -0.55602,-0.07182 -0.78296,-0.21546c-0.22693,-0.14364 -0.40396,-0.34286 -0.53104,-0.59765c-0.12709,-0.2565 -0.19064,-0.55233 -0.19064,-0.88749c0,-0.33516 0.06356,-0.63014 0.19064,-0.88493c0.12707,-0.2548 0.3041,-0.45401 0.53104,-0.59765c0.22693,-0.14535 0.48792,-0.21803 0.78296,-0.21803h1.34805c0.29655,0 0.55829,0.07268 0.78523,0.21803c0.22694,0.14364 0.40397,0.34286 0.53105,0.59765c0.12559,0.2548 0.18837,0.54977 0.18837,0.88493zM228.76237,185.90966c0,-0.16759 -0.03479,-0.31892 -0.10439,-0.45401c-0.0711,-0.13509 -0.16642,-0.24197 -0.28594,-0.32063c-0.11954,-0.07866 -0.25267,-0.11799 -0.39943,-0.11799h-1.45018c-0.14828,0 -0.28218,0.03933 -0.4017,0.11799c-0.1195,0.07866 -0.21406,0.18554 -0.28366,0.32063c-0.07112,0.13509 -0.10667,0.28643 -0.10667,0.45401c0,0.16587 0.03555,0.31721 0.10667,0.45401c0.06957,0.13509 0.16414,0.24197 0.28366,0.32063c0.11953,0.07866 0.25343,0.11799 0.4017,0.11799h1.45018c0.14678,0 0.27991,-0.03933 0.39943,-0.11799c0.11951,-0.07866 0.21482,-0.18554 0.28594,-0.32063c0.0696,-0.13681 0.10439,-0.28814 0.10439,-0.45401z"/></g></g><g data-paper-data="{&quot;index&quot;:null}" stroke-width="0.25" stroke-linecap="square"><g><path d="M251.16244,180.31502h0.67379v2.37914l-0.1789,-0.07353l1.15241,-1.47055c0.14249,-0.18382 0.27183,-0.33787 0.388,-0.46217c0.11772,-0.12429 0.24551,-0.21708 0.38337,-0.27835c0.1394,-0.06303 0.31133,-0.09454 0.51579,-0.09454c0.27881,0 0.52587,0.0709 0.74116,0.2127c0.2153,0.14005 0.38413,0.3335 0.5065,0.58034c0.12235,0.2451 0.18355,0.52257 0.18355,0.83244c0,0.33437 -0.05886,0.62849 -0.17658,0.88233c-0.11616,0.25384 -0.28036,0.45342 -0.49256,0.59872c-0.21221,0.14355 -0.46159,0.21533 -0.74814,0.21533v-0.83244c0.13166,0.00525 0.25403,-0.02801 0.3671,-0.09979c0.11307,-0.07178 0.20368,-0.17244 0.27184,-0.30199c0.06814,-0.12955 0.10223,-0.27836 0.10223,-0.44642c0,-0.15756 -0.03252,-0.29761 -0.09758,-0.42016c-0.06507,-0.12254 -0.15414,-0.21795 -0.26721,-0.28623c-0.11153,-0.07003 -0.23852,-0.10504 -0.38103,-0.10504c-0.10533,0 -0.21453,0.03152 -0.3276,0.09454c-0.11308,0.06128 -0.23312,0.17332 -0.36013,0.33613l-1.63335,2.06928h-0.62267z" fill="url(#color-46)" stroke="url(#color-47)"/><path d="M251.30542,185.02474c0.12707,-0.2548 0.3041,-0.45401 0.53104,-0.59765c0.22695,-0.14535 0.48869,-0.21803 0.78523,-0.21803h1.34804c0.29503,0 0.55603,0.07268 0.78297,0.21803c0.22694,0.14364 0.40396,0.34286 0.53104,0.59765c0.1271,0.2548 0.19064,0.54977 0.19064,0.88493c0,0.33516 -0.06356,0.63099 -0.19064,0.88749c-0.12708,0.2548 -0.3041,0.45401 -0.53104,0.59765c-0.22694,0.14364 -0.48793,0.21546 -0.78297,0.21546h-1.34804c-0.29654,0 -0.55829,-0.07182 -0.78523,-0.21546c-0.22693,-0.14364 -0.40396,-0.34286 -0.53104,-0.59765c-0.12559,-0.2565 -0.18837,-0.55233 -0.18837,-0.88749c0,-0.33516 0.0628,-0.63014 0.18837,-0.88493zM251.88639,186.36368c0.0711,0.13509 0.16642,0.24197 0.28594,0.32063c0.11953,0.07866 0.25267,0.11799 0.39943,0.11799h1.45017c0.14828,0 0.28218,-0.03933 0.4017,-0.11799c0.11952,-0.07866 0.21408,-0.18554 0.28368,-0.32063c0.07112,-0.13681 0.10667,-0.28814 0.10667,-0.45401c0,-0.16759 -0.03555,-0.31892 -0.10667,-0.45401c-0.06959,-0.13509 -0.16416,-0.24197 -0.28368,-0.32063c-0.11953,-0.07866 -0.25343,-0.11799 -0.4017,-0.11799h-1.45017c-0.14677,0 -0.27991,0.03933 -0.39943,0.11799c-0.11951,0.07866 -0.21482,0.18554 -0.28594,0.32063c-0.0696,0.13509 -0.10439,0.28643 -0.10439,0.45401c0,0.16587 0.03479,0.31721 0.10439,0.45401z" fill="url(#color-48)" stroke="url(#color-49)"/></g><g data-paper-data="{&quot;index&quot;:null}"><path d="M229.38191,183.64476h-0.62267l-1.63335,-2.06928c-0.12701,-0.16281 -0.24705,-0.27485 -0.36012,-0.33613c-0.11307,-0.06302 -0.22228,-0.09454 -0.3276,-0.09454c-0.14249,0 -0.2695,0.03501 -0.38103,0.10504c-0.11307,0.06828 -0.20213,0.16369 -0.26719,0.28623c-0.06506,0.12255 -0.09758,0.2626 -0.09758,0.42016c0,0.16806 0.03407,0.31687 0.10223,0.44642c0.06816,0.12955 0.15877,0.23021 0.27184,0.30199c0.11307,0.07178 0.23545,0.10504 0.3671,0.09979v0.83244c-0.28654,0 -0.53592,-0.07178 -0.74812,-0.21533c-0.21218,-0.1453 -0.37639,-0.34488 -0.49256,-0.59872c-0.11772,-0.25384 -0.17658,-0.54796 -0.17658,-0.88233c0,-0.30987 0.06118,-0.58734 0.18355,-0.83244c0.12237,-0.24684 0.29121,-0.44029 0.5065,-0.58034c0.21529,-0.1418 0.46234,-0.2127 0.74116,-0.2127c0.20446,0 0.37638,0.03151 0.51579,0.09454c0.13786,0.06127 0.26565,0.15406 0.38337,0.27835c0.11616,0.1243 0.24549,0.27835 0.388,0.46217l1.15241,1.47055l-0.1789,0.07353v-2.37914h0.67379z" fill="url(#color-50)" stroke="url(#color-51)"/><path d="M229.42732,185.90967c0,0.33516 -0.0628,0.63099 -0.18837,0.88749c-0.12708,0.2548 -0.30411,0.45401 -0.53105,0.59765c-0.22696,0.14364 -0.48869,0.21546 -0.78523,0.21546h-1.34805c-0.29503,0 -0.55602,-0.07182 -0.78296,-0.21546c-0.22693,-0.14364 -0.40396,-0.34286 -0.53104,-0.59765c-0.12709,-0.2565 -0.19064,-0.55233 -0.19064,-0.88749c0,-0.33516 0.06356,-0.63014 0.19064,-0.88493c0.12707,-0.2548 0.3041,-0.45401 0.53104,-0.59765c0.22693,-0.14535 0.48792,-0.21803 0.78296,-0.21803h1.34805c0.29655,0 0.55829,0.07268 0.78523,0.21803c0.22694,0.14364 0.40397,0.34286 0.53105,0.59765c0.12559,0.2548 0.18837,0.54977 0.18837,0.88493zM228.76237,185.90966c0,-0.16759 -0.03479,-0.31892 -0.10439,-0.45401c-0.0711,-0.13509 -0.16642,-0.24197 -0.28594,-0.32063c-0.11954,-0.07866 -0.25267,-0.11799 -0.39943,-0.11799h-1.45018c-0.14828,0 -0.28218,0.03933 -0.4017,0.11799c-0.1195,0.07866 -0.21406,0.18554 -0.28366,0.32063c-0.07112,0.13509 -0.10667,0.28643 -0.10667,0.45401c0,0.16587 0.03555,0.31721 0.10667,0.45401c0.06957,0.13509 0.16414,0.24197 0.28366,0.32063c0.11953,0.07866 0.25343,0.11799 0.4017,0.11799h1.45018c0.14678,0 0.27991,-0.03933 0.39943,-0.11799c0.11951,-0.07866 0.21482,-0.18554 0.28594,-0.32063c0.0696,-0.13681 0.10439,-0.28814 0.10439,-0.45401z" fill="url(#color-52)" stroke="url(#color-53)"/></g></g><path d="M263.15872,178.7381v-0.92857h2.21192v0.92857z" data-paper-data="{&quot;index&quot;:null}" fill="#ff0000" stroke="none" stroke-width="0" stroke-linecap="butt"/><path d="M214.69288,178.7381v-0.92857h2.21193v0.92857z" data-paper-data="{&quot;index&quot;:null}" fill="#ff0000" stroke="none" stroke-width="0" stroke-linecap="butt"/></g></g></svg>