<svg version="1.1" xmlns="http://www.w3.org/2000/svg" xmlns:xlink="http://www.w3.org/1999/xlink" width="131.07453" height="126.80003" viewBox="0,0,131.07453,126.80003"><defs><radialGradient cx="239.1734" cy="180.15518" r="6.89788" gradientUnits="userSpaceOnUse" id="color-1"><stop offset="0" stop-color="#04cefc"/><stop offset="1" stop-color="#04cefc" stop-opacity="0"/></radialGradient><linearGradient x1="308.87502" y1="175.83619" x2="208.65372" y2="175.40952" gradientUnits="userSpaceOnUse" id="color-2"><stop offset="0" stop-color="#00d8ff"/><stop offset="1" stop-color="#00d8ff" stop-opacity="0"/></linearGradient><radialGradient cx="234.19152" cy="180.16882" r="5.19082" gradientUnits="userSpaceOnUse" id="color-3"><stop offset="0" stop-color="#00d3ff"/><stop offset="1" stop-color="#00d3ff" stop-opacity="0"/></radialGradient><linearGradient x1="240.60236" y1="180.21336" x2="235.94842" y2="180.19354" gradientUnits="userSpaceOnUse" id="color-4"><stop offset="0" stop-color="#00f7ff"/><stop offset="1" stop-color="#0091ff"/></linearGradient><linearGradient x1="241.62231" y1="180.25784" x2="236.96837" y2="180.23802" gradientUnits="userSpaceOnUse" id="color-5"><stop offset="0" stop-color="#00f7ff"/><stop offset="1" stop-color="#0091ff"/></linearGradient><linearGradient x1="242.73956" y1="180.24399" x2="238.08553" y2="180.2493" gradientUnits="userSpaceOnUse" id="color-6"><stop offset="0" stop-color="#00f7ff"/><stop offset="1" stop-color="#0091ff"/></linearGradient><linearGradient x1="244.23366" y1="180.24897" x2="226.70326" y2="180.26891" gradientUnits="userSpaceOnUse" id="color-7"><stop offset="0" stop-color="#00d8ff"/><stop offset="1" stop-color="#00d8ff" stop-opacity="0"/></linearGradient><linearGradient x1="312.60928" y1="177.2979" x2="210.79144" y2="176.86442" gradientUnits="userSpaceOnUse" id="color-8"><stop offset="0" stop-color="#00d8ff"/><stop offset="1" stop-color="#00d8ff" stop-opacity="0"/></linearGradient><linearGradient x1="329.5661" y1="177.78546" x2="197.41468" y2="177.22285" gradientUnits="userSpaceOnUse" id="color-9"><stop offset="0" stop-color="#00d8ff"/><stop offset="1" stop-color="#00d8ff" stop-opacity="0"/></linearGradient><linearGradient x1="322.78314" y1="175.75252" x2="190.63175" y2="175.1899" gradientUnits="userSpaceOnUse" id="color-10"><stop offset="0" stop-color="#00d8ff"/><stop offset="1" stop-color="#00d8ff" stop-opacity="0"/></linearGradient><linearGradient x1="280.34761" y1="177.23567" x2="203.20512" y2="176.90725" gradientUnits="userSpaceOnUse" id="color-11"><stop offset="0" stop-color="#00d8ff"/><stop offset="1" stop-color="#00d8ff" stop-opacity="0"/></linearGradient><linearGradient x1="328.5797" y1="174.10713" x2="196.42832" y2="173.54451" gradientUnits="userSpaceOnUse" id="color-12"><stop offset="0" stop-color="#00d8ff"/><stop offset="1" stop-color="#00d8ff" stop-opacity="0"/></linearGradient><linearGradient x1="282.4545" y1="192.59036" x2="207.68292" y2="173.60925" gradientUnits="userSpaceOnUse" id="color-13"><stop offset="0" stop-color="#00d8ff"/><stop offset="1" stop-color="#00d8ff" stop-opacity="0"/></linearGradient><linearGradient x1="284.02832" y1="175.69262" x2="206.88586" y2="175.3642" gradientUnits="userSpaceOnUse" id="color-14"><stop offset="0" stop-color="#00d8ff"/><stop offset="1" stop-color="#00d8ff" stop-opacity="0"/></linearGradient><linearGradient x1="278.2294" y1="177.89468" x2="201.08692" y2="177.56627" gradientUnits="userSpaceOnUse" id="color-15"><stop offset="0" stop-color="#00d8ff"/><stop offset="1" stop-color="#00d8ff" stop-opacity="0"/></linearGradient><linearGradient x1="277.67651" y1="177.00163" x2="200.53404" y2="176.67321" gradientUnits="userSpaceOnUse" id="color-16"><stop offset="0" stop-color="#00d8ff"/><stop offset="1" stop-color="#00d8ff" stop-opacity="0"/></linearGradient><linearGradient x1="274.63729" y1="170.58365" x2="224.99923" y2="170.37233" gradientUnits="userSpaceOnUse" id="color-17"><stop offset="0" stop-color="#00d8ff"/><stop offset="1" stop-color="#00d8ff" stop-opacity="0"/></linearGradient><linearGradient x1="251.03647" y1="186.19779" x2="217.57751" y2="186.05534" gradientUnits="userSpaceOnUse" id="color-18"><stop offset="0" stop-color="#00d8ff"/><stop offset="1" stop-color="#00d8ff" stop-opacity="0"/></linearGradient><linearGradient x1="241.60327" y1="179.03201" x2="208.1443" y2="178.88957" gradientUnits="userSpaceOnUse" id="color-19"><stop offset="0" stop-color="#00d8ff"/><stop offset="1" stop-color="#00d8ff" stop-opacity="0"/></linearGradient><linearGradient x1="244.38951" y1="178.37585" x2="210.93055" y2="178.23339" gradientUnits="userSpaceOnUse" id="color-20"><stop offset="0" stop-color="#00d8ff"/><stop offset="1" stop-color="#00d8ff" stop-opacity="0"/></linearGradient></defs><g transform="translate(-172.96273,-116.34998)"><g data-paper-data="{&quot;isPaintingLayer&quot;:true}" fill-rule="nonzero" stroke-linejoin="miter" stroke-miterlimit="10" stroke-dasharray="" stroke-dashoffset="0" style="mix-blend-mode: normal"><g><path d="M238.72889,177.19601c1.53723,0.00655 2.77809,1.25801 2.77154,2.79524c-0.00655,1.53723 -1.25802,2.77809 -2.79524,2.77154c-1.53723,-0.00655 -2.77809,-1.25801 -2.77153,-2.79524c0.00655,-1.53723 1.25802,-2.77809 2.79524,-2.77153z" fill="#00d8ff" stroke="none" stroke-width="0.5" stroke-linecap="butt"/><path d="M239.14405,187.05299c-3.80955,-0.01622 -6.88465,-3.11762 -6.86844,-6.92717c0.01622,-3.80955 3.11763,-6.88466 6.92718,-6.86845c3.80955,0.01622 6.88466,3.11763 6.86845,6.92718c-0.01622,3.80955 -3.11763,6.88466 -6.92718,6.86845z" fill="url(#color-1)" stroke="none" stroke-width="NaN" stroke-linecap="butt"/><path d="M238.20788,175.63449c1.73241,0.02433 3.5509,1.08846 3.49212,3.54929c-0.05726,2.39699 -1.83805,3.45417 -3.56561,3.4395c-1.92489,-0.01633 -3.35029,-1.60331 -3.32962,-3.56894c0.02068,-1.96563 1.78011,-3.44267 3.40311,-3.41985z" fill="url(#color-2)" stroke="none" stroke-width="0.5" stroke-linecap="butt"/><path d="M234.16942,185.35959c-2.8668,-0.0122 -5.18088,-2.34608 -5.16868,-5.21288c0.0122,-2.8668 2.34608,-5.18088 5.21288,-5.16868c2.8668,0.0122 5.18088,2.34608 5.16868,5.21288c-0.0122,2.8668 -2.34608,5.18088 -5.21288,5.16868z" fill="url(#color-3)" stroke="none" stroke-width="NaN" stroke-linecap="butt"/><path d="M235.94835,180.20609c0.00254,-1.20725 1.04644,-2.18711 2.33162,-2.18857c1.28517,-0.00147 2.32496,0.97603 2.32243,2.18328c-0.00254,1.20725 -1.04644,2.18711 -2.3316,2.18857c-1.28517,0.00147 -2.32497,-0.97602 -2.32243,-2.18328z" data-paper-data="{&quot;index&quot;:null}" fill="url(#color-4)" stroke="none" stroke-width="0" stroke-linecap="butt"/><path d="M236.96831,180.25056c0.00254,-1.20725 1.04644,-2.1871 2.3316,-2.18856c1.28517,-0.00147 2.32496,0.97603 2.32243,2.18328c-0.00254,1.20725 -1.04642,2.18711 -2.3316,2.18857c-1.28517,0.00147 -2.32498,-0.97603 -2.32244,-2.18328z" data-paper-data="{&quot;index&quot;:null}" fill="url(#color-5)" stroke="none" stroke-width="0" stroke-linecap="butt"/><path d="M240.40794,182.43256c-1.28517,0.00147 -2.32496,-0.97603 -2.32242,-2.18328c0.00254,-1.20725 1.04642,-2.1871 2.3316,-2.18856c1.28517,-0.00147 2.32498,0.97603 2.32244,2.18328c-0.00254,1.20725 -1.04644,2.18709 -2.3316,2.18856z" fill="url(#color-6)" stroke="none" stroke-width="0" stroke-linecap="butt"/><path d="M240.49021,183.76751c-0.72851,0.00082 -3.14824,0.17557 -5.34447,-0.15699c-1.97926,-0.29969 -4.58944,-0.48295 -6.18712,-1.06623c-1.65075,-0.60262 -2.25671,-1.61068 -2.25537,-2.24788c0.0013,-0.62209 0.61562,-1.75121 2.16182,-2.35108c1.64851,-0.63954 4.29666,-0.73978 6.40123,-1.06113c2.07183,-0.31635 4.54358,-0.13504 5.23865,-0.13583c2.06338,-0.00235 3.73278,1.56703 3.72871,3.5053c-0.00406,1.93827 -1.68006,3.51146 -3.74345,3.51381z" fill="url(#color-7)" stroke="none" stroke-width="0" stroke-linecap="butt"/><path d="M240.81642,177.09297c1.76002,0.02473 3.60745,1.10578 3.54774,3.60583c-0.05815,2.43518 -1.86732,3.5092 -3.62241,3.4943c-1.95555,-0.0166 -3.40366,-1.62888 -3.38265,-3.6258c0.02101,-1.99694 1.80847,-3.49748 3.45732,-3.47433z" fill="url(#color-8)" stroke="none" stroke-width="0.5" stroke-linecap="butt"/><path d="M236.38468,177.51951c2.28436,0.0321 4.68219,1.43523 4.60469,4.68009c-0.07548,3.16066 -2.42365,4.55465 -4.70161,4.53532c-2.53814,-0.02155 -4.41768,-2.11414 -4.39041,-4.706c0.02726,-2.59186 2.34725,-4.53947 4.48734,-4.5094z" fill="url(#color-9)" stroke="none" stroke-width="0.5" stroke-linecap="butt"/><path d="M229.60172,175.48655c2.28436,0.0321 4.68219,1.43523 4.60469,4.68009c-0.07548,3.16066 -2.42365,4.55465 -4.70161,4.53531c-2.53814,-0.02155 -4.41768,-2.11415 -4.39043,-4.706c0.02726,-2.59186 2.34726,-4.53947 4.48735,-4.5094z" fill="url(#color-10)" stroke="none" stroke-width="0.5" stroke-linecap="butt"/><path d="M225.95362,177.08042c1.33348,0.01873 2.73319,0.83781 2.68796,2.73198c-0.04406,1.84502 -1.41479,2.65874 -2.74454,2.64746c-1.48162,-0.01259 -2.57879,-1.23411 -2.56288,-2.74709c0.01593,-1.51298 1.37019,-2.64988 2.61946,-2.63234z" fill="url(#color-11)" stroke="none" stroke-width="0.5" stroke-linecap="butt"/><path d="M235.3983,173.84116c2.28436,0.0321 4.68218,1.43524 4.60468,4.68009c-0.07548,3.16066 -2.42365,4.55465 -4.70162,4.53531c-2.53814,-0.02155 -4.41768,-2.11414 -4.39042,-4.706c0.02726,-2.59186 2.34726,-4.53947 4.48734,-4.5094z" fill="url(#color-12)" stroke="none" stroke-width="0.5" stroke-linecap="butt"/><path d="M229.71377,179.28062c1.28934,0.34077 2.44931,1.47414 1.94718,3.30109c-0.48911,1.77955 -2.01596,2.2375 -3.30348,1.90486c-1.43456,-0.37063 -2.20363,-1.82133 -1.82217,-3.28551c0.38146,-1.46418 1.97056,-2.23969 3.17848,-1.92044z" fill="url(#color-13)" stroke="none" stroke-width="0.5" stroke-linecap="butt"/><path d="M229.63432,175.53736c1.33348,0.01873 2.7332,0.8378 2.68796,2.73197c-0.04406,1.84502 -1.41479,2.65875 -2.74454,2.64747c-1.48161,-0.01259 -2.57879,-1.23412 -2.56288,-2.7471c0.01593,-1.51298 1.3702,-2.64988 2.61947,-2.63233z" fill="url(#color-14)" stroke="none" stroke-width="0.5" stroke-linecap="butt"/><path d="M223.83538,177.73944c1.33348,0.01873 2.7332,0.83781 2.68796,2.73197c-0.04406,1.84502 -1.41479,2.65874 -2.74454,2.64746c-1.48161,-0.01259 -2.57879,-1.23412 -2.56288,-2.7471c0.01593,-1.51298 1.3702,-2.64988 2.61947,-2.63233z" fill="url(#color-15)" stroke="none" stroke-width="0.5" stroke-linecap="butt"/><path d="M223.28251,176.84639c1.33348,0.01873 2.7332,0.83781 2.68796,2.73197c-0.04406,1.84502 -1.41479,2.65874 -2.74454,2.64746c-1.48161,-0.01259 -2.57879,-1.23413 -2.56288,-2.74711c0.01593,-1.51298 1.3702,-2.64987 2.61947,-2.63233z" fill="url(#color-16)" stroke="none" stroke-width="0.5" stroke-linecap="butt"/><path d="M239.63696,170.48376c0.85804,0.01204 1.7587,0.53909 1.72959,1.75791c-0.02836,1.18719 -0.91035,1.71078 -1.766,1.70352c-0.95337,-0.00809 -1.65936,-0.79409 -1.64911,-1.76764c0.01024,-0.97353 0.88166,-1.70508 1.68551,-1.69379z" fill="url(#color-17)" stroke="none" stroke-width="0.5" stroke-linecap="butt"/><path d="M227.44417,186.13044c0.57836,0.00813 1.18546,0.36338 1.16584,1.18493c-0.01911,0.80023 -0.61363,1.15318 -1.19038,1.14828c-0.64262,-0.00546 -1.11849,-0.53527 -1.11159,-1.19149c0.0069,-0.65622 0.59429,-1.14934 1.13613,-1.14172z" fill="url(#color-18)" stroke="none" stroke-width="0.5" stroke-linecap="butt"/><path d="M218.01098,178.96468c0.57837,0.00813 1.18546,0.36339 1.16585,1.18494c-0.01911,0.80024 -0.61363,1.15318 -1.19038,1.14828c-0.64262,-0.00546 -1.11849,-0.53528 -1.11159,-1.1915c0.0069,-0.65623 0.59429,-1.14933 1.13614,-1.14172z" fill="url(#color-19)" stroke="none" stroke-width="0.5" stroke-linecap="butt"/><path d="M220.79723,178.3085c0.57837,0.00813 1.18548,0.36339 1.16586,1.18494c-0.01911,0.80023 -0.61363,1.15317 -1.19038,1.1483c-0.64262,-0.00546 -1.11849,-0.53528 -1.11159,-1.19151c0.0069,-0.65623 0.59429,-1.14934 1.13614,-1.14173z" fill="url(#color-20)" stroke="none" stroke-width="0.5" stroke-linecap="butt"/><path d="M304.03727,116.34999l-131.07453,126.80003" fill="none" stroke="#000000" stroke-width="0" stroke-linecap="round"/></g></g></g></svg>