<svg version="1.1" xmlns="http://www.w3.org/2000/svg" xmlns:xlink="http://www.w3.org/1999/xlink" width="65.92105" height="59.49929" viewBox="0,0,65.92105,59.49929"><defs><linearGradient x1="315.08172" y1="166.42251" x2="377.78495" y2="166.42251" gradientUnits="userSpaceOnUse" id="color-1"><stop offset="0" stop-color="#0a7e00"/><stop offset="1" stop-color="#0d9700"/></linearGradient><linearGradient x1="340.59047" y1="92.75999" x2="340.59047" y2="100.63127" gradientUnits="userSpaceOnUse" id="color-2"><stop offset="0" stop-color="#096900"/><stop offset="1" stop-color="#096900" stop-opacity="0"/></linearGradient><linearGradient x1="340.70622" y1="93.223" x2="340.70622" y2="97.39016" gradientUnits="userSpaceOnUse" id="color-3"><stop offset="0" stop-color="#797979"/><stop offset="1" stop-color="#616161"/></linearGradient><linearGradient x1="340.70622" y1="93.45451" x2="340.70622" y2="89.28737" gradientUnits="userSpaceOnUse" id="color-4"><stop offset="0" stop-color="#797979"/><stop offset="1" stop-color="#616161"/></linearGradient><linearGradient x1="317.25005" y1="196.66669" x2="331.25005" y2="196.66669" gradientUnits="userSpaceOnUse" id="color-5"><stop offset="0" stop-color="#042e00" stop-opacity="0"/><stop offset="1" stop-color="#042e00"/></linearGradient><linearGradient x1="335.25005" y1="196.66669" x2="349.25006" y2="196.66669" gradientUnits="userSpaceOnUse" id="color-6"><stop offset="0" stop-color="#042e00"/><stop offset="1" stop-color="#042e00" stop-opacity="0"/></linearGradient><linearGradient x1="344.06945" y1="230.33808" x2="322.14207" y2="230.33808" gradientUnits="userSpaceOnUse" id="color-7"><stop offset="0" stop-color="#0a7300"/><stop offset="1" stop-color="#096c00"/></linearGradient><linearGradient x1="344.00129" y1="187.3311" x2="322.16229" y2="187.3311" gradientUnits="userSpaceOnUse" id="color-8"><stop offset="0" stop-color="#0a7300"/><stop offset="1" stop-color="#096c00"/></linearGradient><linearGradient x1="344.06945" y1="225.47641" x2="322.14207" y2="225.47641" gradientUnits="userSpaceOnUse" id="color-9"><stop offset="0" stop-color="#0b8000"/><stop offset="1" stop-color="#0a7800"/></linearGradient><linearGradient x1="344.00129" y1="182.46943" x2="322.16229" y2="182.46943" gradientUnits="userSpaceOnUse" id="color-10"><stop offset="0" stop-color="#0b8000"/><stop offset="1" stop-color="#0a7800"/></linearGradient><radialGradient cx="330.23339" cy="163.50292" r="3.8" gradientUnits="userSpaceOnUse" id="color-11"><stop offset="0" stop-color="#5d5d5d"/><stop offset="1" stop-color="#727272"/></radialGradient><radialGradient cx="330.10839" cy="227.25292" r="3.8" gradientUnits="userSpaceOnUse" id="color-12"><stop offset="0" stop-color="#5d5d5d"/><stop offset="1" stop-color="#727272"/></radialGradient><radialGradient cx="330.23339" cy="184.21719" r="3.8" gradientUnits="userSpaceOnUse" id="color-13"><stop offset="0" stop-color="#5d5d5d"/><stop offset="1" stop-color="#727272"/></radialGradient><radialGradient cx="330.37622" cy="205.36008" r="3.8" gradientUnits="userSpaceOnUse" id="color-14"><stop offset="0" stop-color="#5d5d5d"/><stop offset="1" stop-color="#727272"/></radialGradient><radialGradient cx="345.25003" cy="124.33335" r="20.33334" gradientUnits="userSpaceOnUse" id="color-15"><stop offset="0" stop-color="#000000"/><stop offset="1" stop-color="#000000" stop-opacity="0"/></radialGradient></defs><g transform="translate(-315.08169,-85.1674)"><g data-paper-data="{&quot;isPaintingLayer&quot;:true}" fill-rule="nonzero" stroke-linejoin="miter" stroke-miterlimit="10" stroke-dasharray="" stroke-dashoffset="0" style="mix-blend-mode: normal"><path d="M315.08169,91.64968l49.49169,0.13335l12.95066,11.07425z" data-paper-data="{&quot;index&quot;:null}" fill="#096600" stroke="none" stroke-width="0" stroke-linecap="butt"/><path d="M315.08169,144.33333v-59.16593c0,0 19.05183,3.04594 27.4078,3.06846c8.13536,0.02192 22.08389,-2.93511 22.08389,-2.93511c0,0 3.25683,4.64006 5.40311,6.47536c2.17035,1.85589 7.54755,4.59889 7.54755,4.59889l3.04866,47.41995z" data-paper-data="{&quot;index&quot;:null}" fill="url(#color-1)" stroke="none" stroke-width="0" stroke-linecap="butt"/><path d="M319.29161,100.63127v-7.87128h42.59753v7.87129z" data-paper-data="{&quot;index&quot;:null}" fill="url(#color-2)" stroke="none" stroke-width="0" stroke-linecap="butt"/><g stroke="none" stroke-width="0" stroke-linecap="butt"><path d="M319.29161,97.39016v-4.16715h42.82905v4.16715z" fill="url(#color-3)"/><path d="M362.12073,89.28737v4.16715h-42.82905v-4.16715z" data-paper-data="{&quot;index&quot;:null}" fill="url(#color-4)"/></g><path d="M335.75006,106.16672l5.5,5.5h16v12l-8.5,8.5h-20v-22v-4.2h6.75" fill="#0c9100" stroke="#000000" stroke-width="0" stroke-linecap="round"/><path d="" fill="#0d9c00" stroke="#000000" stroke-width="0" stroke-linecap="round"/><path d="" fill="#0d9c00" stroke="#000000" stroke-width="0" stroke-linecap="round"/><path d="" data-paper-data="{&quot;index&quot;:null}" fill="url(#color-5)" stroke="none" stroke-width="0" stroke-linecap="butt"/><path d="" data-paper-data="{&quot;index&quot;:null}" fill="url(#color-6)" stroke="none" stroke-width="0" stroke-linecap="butt"/><g data-paper-data="{&quot;index&quot;:null}" stroke-width="0" stroke-linecap="butt"><path d="" fill="url(#color-7)" stroke="#000000"/><path d="" fill="url(#color-8)" stroke="none"/></g><g data-paper-data="{&quot;index&quot;:null}" stroke-width="0" stroke-linecap="butt"><path d="" fill="url(#color-9)" stroke="#000000"/><path d="" fill="url(#color-10)" stroke="none"/></g><g data-paper-data="{&quot;index&quot;:null}" stroke="none" stroke-width="0" stroke-linecap="butt"><g><path d="" fill="#8d8d8d"/><path d="" fill="#ababab"/></g><path d="" fill="url(#color-11)"/><path d="" fill="url(#color-12)"/><path d="" fill="url(#color-13)"/><path d="" fill="url(#color-14)"/></g><g stroke="none" stroke-linecap="butt"><path d="M324.91669,124.33335c0,-11.22979 9.10354,-20.33333 20.33333,-20.33333c11.22979,0 20.33334,9.10355 20.33334,20.33333c0,11.22979 -9.10355,20.33334 -20.33334,20.33334c-11.22979,0 -20.33333,-9.10354 -20.33333,-20.33334z" fill="url(#color-15)" stroke-width="NaN"/><path d="M328.91668,124.50003c0,-9.1127 7.3873,-16.5 16.5,-16.5c9.1127,0 16.5,7.3873 16.5,16.5c0,9.1127 -7.3873,16.5 -16.5,16.5c-9.1127,0 -16.5,-7.3873 -16.5,-16.5z" fill="#555555" stroke-width="NaN"/></g><path d="M355.81868,117.93002c0.08739,0.12729 0.13331,0.21315 0.13331,0.21315l1.7635,3.50901c0.03146,1.1924 0.06293,2.3848 0.09439,3.5772c-0.08677,1.35881 0.27424,2.88723 -0.26031,4.07642c-0.57241,1.27343 -1.88414,1.7379 -2.77752,2.68173c-0.96262,1.01698 -1.6417,2.53097 -2.78548,3.1954c-0.47507,0.27597 -5.51921,0.20871 -6.05135,0.20871c-1.36857,0 -5.19064,0.15553 -6.02084,-0.80307c-1.2683,-1.46446 -0.41821,-4.35588 -1.16485,-6.29944c-0.7516,-1.95648 -3.11614,-2.22669 -4.11838,-4.0001c-3.61585,-6.3981 -0.71619,-7.38524 3.89222,-10.00104c2.45665,-1.39443 5.25248,-1.66523 7.93929,-1.99016c4.47302,-0.54095 6.2487,1.75448 9.21446,5.42748c0,0 0.05854,0.07296 0.14155,0.20473z" fill="#4b4b4b" stroke="none" stroke-width="0.5" stroke-linecap="butt"/><path d="M349.7481,120.46345l0.11893,0.07988c1.66946,1.66946 2.55805,1.64392 2.74856,4.17414c0,1.68646 0.48238,4.7388 -0.93894,6.02555c-0.57102,0.51695 -1.52743,0.29589 -2.29662,0.25538c-1.42458,-0.07504 -6.30915,-0.96928 -7.22887,-1.82277c-0.7579,-0.70332 0.0075,-3.15361 -0.18817,-3.9798c-0.40695,-1.71831 -3.50186,-1.71375 -2.81096,-4.43121c0.73488,-2.89049 5.32578,-2.16035 8.18904,-1.39823c0.54323,-0.15219 1.05223,0.18715 1.05223,0.18715l0.32042,0.2152c0.10722,0.03432 0.20679,0.0669 0.2979,0.09721c0,0 0.4919,0.16397 0.73648,0.59751z" fill="#404040" stroke="none" stroke-width="0.5" stroke-linecap="butt"/><path d="M361.72655,108.6569c-0.08133,-0.06699 -0.16282,-0.14097 -0.24432,-0.22247c-1.76777,-1.76777 0,-3.53553 0,-3.53553l2.77748,-2.18368c3.05633,-0.57297 4.0438,-1.09084 7.447,0.14175c3.82759,1.3863 7.86465,7.53621 8.95954,11.16803c1.44161,4.78189 -1.85406,12.81405 -7.87296,10.95137c-1.25075,-0.38707 -2.00389,-1.69361 -2.90611,-2.6424c-3.00542,-3.1605 -5.534,-7.1964 -8.13718,-10.6673c0,0 -1.19922,-1.59895 -0.02345,-3.00976z" fill="#0c8b00" stroke="none" stroke-width="0.5" stroke-linecap="butt"/></g></g></svg>