<svg version="1.1" xmlns="http://www.w3.org/2000/svg" xmlns:xlink="http://www.w3.org/1999/xlink" width="40.67171" height="36.94137" viewBox="0,0,40.67171,36.94137"><defs><linearGradient x1="249.89079" y1="179.74487" x2="251.10103" y2="179.73618" gradientUnits="userSpaceOnUse" id="color-1"><stop offset="0" stop-color="#898989"/><stop offset="1" stop-color="#a1a1a1"/></linearGradient><linearGradient x1="251.7818" y1="179.73127" x2="254.88304" y2="179.70896" gradientUnits="userSpaceOnUse" id="color-2"><stop offset="0" stop-color="#898989"/><stop offset="1" stop-color="#a1a1a1"/></linearGradient><linearGradient x1="256.92505" y1="179.65644" x2="258.74042" y2="179.64338" gradientUnits="userSpaceOnUse" id="color-3"><stop offset="0" stop-color="#a1a1a1"/><stop offset="1" stop-color="#898989"/></linearGradient><radialGradient cx="242.78165" cy="189.2557" r="10.40067" gradientUnits="userSpaceOnUse" id="color-4"><stop offset="0" stop-color="#696969"/><stop offset="1" stop-color="#505050"/></radialGradient><linearGradient x1="229.64273" y1="180.08313" x2="238.85007" y2="180.01688" gradientUnits="userSpaceOnUse" id="color-5"><stop offset="0" stop-color="#454545"/><stop offset="1" stop-color="#474747"/></linearGradient><linearGradient x1="242.544" y1="179.94923" x2="247.26208" y2="179.91529" gradientUnits="userSpaceOnUse" id="color-6"><stop offset="0" stop-color="#000000"/><stop offset="1" stop-color="#2c2c2c"/></linearGradient><linearGradient x1="242.544" y1="179.94923" x2="247.26208" y2="179.91529" gradientUnits="userSpaceOnUse" id="color-7"><stop offset="0" stop-color="#000000"/><stop offset="1" stop-color="#2c2c2c"/></linearGradient><linearGradient x1="1040.1924" y1="-196.2171" x2="223.41093" y2="-188.01855" gradientUnits="userSpaceOnUse" id="color-8"><stop offset="0" stop-color="#ffffff"/><stop offset="1" stop-color="#ffffff" stop-opacity="0"/></linearGradient></defs><g transform="translate(-221.51043,-161.63185)"><g data-paper-data="{&quot;isPaintingLayer&quot;:true}" fill-rule="nonzero" stroke-linejoin="miter" stroke-miterlimit="10" stroke-dasharray="" stroke-dashoffset="0" style="mix-blend-mode: normal"><g><path d="M239.95319,190.33768c-5.74399,0.04132 -10.43376,-4.55984 -10.47488,-10.27697c-0.04113,-5.71714 4.58195,-10.3853 10.32594,-10.42663c5.74399,-0.04132 10.43375,4.55984 10.47488,10.27698c0.04113,5.71714 -4.58195,10.38531 -10.32593,10.42663z" fill="#00fffd" stroke="none" stroke-width="NaN" stroke-linecap="butt"/><path d="M259.38835,178.50406l0.01632,2.2692l-11.34602,0.08163l-0.01631,-2.2692z" fill="#a1a1a1" stroke="#a1a1a1" stroke-width="0.5" stroke-linecap="butt"/><path d="M261.90477,177.88079l0.02558,3.55509l-3.0256,0.02177l-0.02558,-3.55509z" fill="#a1a1a1" stroke="#a1a1a1" stroke-width="0.5" stroke-linecap="butt"/><path d="M251.62046,178.33301l0.02014,2.79867l-7.79094,0.05606l-0.02013,-2.79868z" fill="#a1a1a1" stroke="#a1a1a1" stroke-width="0.5" stroke-linecap="butt"/><path d="M251.08988,178.18554l0.02232,3.10124l-1.21024,0.00871l-0.02231,-3.10124z" fill="url(#color-1)" stroke="none" stroke-width="0" stroke-linecap="butt"/><path d="M254.87407,178.46089l0.01796,2.49612l-3.10125,0.02231l-0.01796,-2.49612z" fill="url(#color-2)" stroke="none" stroke-width="0" stroke-linecap="butt"/><path d="M258.73114,178.35751l0.01852,2.57176l-1.81536,0.01305l-0.0185,-2.57176z" fill="url(#color-3)" stroke="none" stroke-width="0" stroke-linecap="butt"/><path d="M239.95319,190.33768c-5.74399,0.04132 -10.43376,-4.55984 -10.47488,-10.27697c-0.04113,-5.71714 4.58195,-10.3853 10.32594,-10.42663c5.74399,-0.04132 10.43375,4.55984 10.47488,10.27698c0.04113,5.71714 -4.58195,10.38531 -10.32593,10.42663z" fill="url(#color-4)" stroke="none" stroke-width="NaN" stroke-linecap="butt"/><path d="M233.41232,172.3013l5.40849,3.64368l0.06367,8.85195l-5.50222,3.01398c0,0 -3.70849,-1.91 -3.73824,-7.55142c-0.02923,-5.54683 3.76828,-7.95818 3.76828,-7.95818z" fill="url(#color-5)" stroke="#000000" stroke-width="0" stroke-linecap="round"/><path d="M248.57828,179.92327c0.03457,4.80463 -3.83234,8.72755 -8.63696,8.76212c-4.80463,0.03457 -8.72755,-3.83232 -8.76212,-8.63694c-0.03457,-4.80461 3.83234,-8.72755 8.63695,-8.76212c4.80461,-0.03458 8.72754,3.83233 8.76212,8.63695z" fill="none" stroke="#525252" stroke-width="1.5" stroke-linecap="butt"/><path d="M239.92184,185.98075c-3.31088,0.02382 -6.01418,-2.64088 -6.038,-5.95175c-0.02382,-3.31089 2.64087,-6.01418 5.95174,-6.038c3.31087,-0.02382 6.01418,2.64088 6.038,5.95175c0.02382,3.31087 -2.64088,6.01418 -5.95175,6.038z" fill="none" stroke="#575757" stroke-width="1.5" stroke-linecap="butt"/><path d="M253.17906,180.91798l-0.01685,-2.34201" fill="none" stroke="#a1a1a1" stroke-width="1.5" stroke-linecap="round"/><path d="M254.57832,178.56577l0.01685,2.342" fill="none" stroke="#a1a1a1" stroke-width="1.5" stroke-linecap="round"/><path d="M256.06573,180.89718l-0.01684,-2.34201" fill="none" stroke="#a1a1a1" stroke-width="1.5" stroke-linecap="round"/><path d="M257.6284,178.54382l0.01685,2.34202" fill="none" stroke="#a1a1a1" stroke-width="1.5" stroke-linecap="round"/><path d="M246.88471,178.56694c0,0 0.36842,0.10519 0.37777,1.40664c0.01046,1.45463 -0.35838,1.28939 -0.35838,1.28939l-2.51309,-0.10448l-1.83909,-0.10931l-0.01146,-1.59404l1.71346,-0.31779l2.6308,-0.5704z" fill="url(#color-6)" stroke="url(#color-7)" stroke-width="0.5" stroke-linecap="round"/><path d="M252.97881,167.12378c7.59212,7.44121 7.16772,18.64464 0.1065,25.84904c-7.06123,7.20442 -18.32204,7.63536 -25.84752,0.25944c-7.52548,-7.37591 -7.65842,-18.2985 -0.25945,-25.84751c7.39897,-7.549 18.40833,-7.70219 26.00045,-0.26098z" data-paper-data="{&quot;index&quot;:null}" fill="url(#color-8)" stroke="none" stroke-width="0" stroke-linecap="butt"/></g></g></g></svg>