<svg version="1.1" xmlns="http://www.w3.org/2000/svg" xmlns:xlink="http://www.w3.org/1999/xlink" width="207.56911" height="200.80003" viewBox="0,0,207.56911,200.80003"><defs><radialGradient cx="240" cy="180.00001" r="6.19551" gradientUnits="userSpaceOnUse" id="color-1"><stop offset="0" stop-color="#69f5ff"/><stop offset="1" stop-color="#69f5ff" stop-opacity="0"/></radialGradient></defs><g transform="translate(-136.21546,-79.59999)"><g data-paper-data="{&quot;isPaintingLayer&quot;:true}" fill-rule="nonzero" stroke-linejoin="miter" stroke-miterlimit="10" stroke-dasharray="" stroke-dashoffset="0" style="mix-blend-mode: normal"><path d="M237.64286,180c0,-1.30181 1.05533,-2.35714 2.35714,-2.35714c1.30181,0 2.35714,1.05533 2.35714,2.35714c0,1.30181 -1.05533,2.35714 -2.35714,2.35714c-1.30181,0 -2.35714,-1.05533 -2.35714,-2.35714z" fill="#00eeff" stroke="#00c9ff" stroke-width="0.5" stroke-linecap="butt"/><path d="M239.70829,186.18864c-3.41789,-0.16111 -6.05803,-3.06247 -5.89692,-6.48035c0.16111,-3.41789 3.06247,-6.05803 6.48035,-5.89692c3.41789,0.16111 6.05803,3.06247 5.89692,6.48035c-0.16111,3.41789 -3.06247,6.05803 -6.48035,5.89692z" fill="url(#color-1)" stroke="none" stroke-width="NaN" stroke-linecap="butt"/><path d="M214.21548,204.94369l51.56911,-49.88738" fill="none" stroke="#000000" stroke-width="0.0005" stroke-linecap="round"/><path d="M343.78457,79.59999l-207.56911,200.80003" fill="none" stroke="#000000" stroke-width="0" stroke-linecap="round"/></g></g></svg>