<svg version="1.1" xmlns="http://www.w3.org/2000/svg" xmlns:xlink="http://www.w3.org/1999/xlink" width="168.72825" height="282.79687" viewBox="0,0,168.72825,282.79687"><defs><linearGradient x1="247.60131" y1="183.9093" x2="237.8727" y2="169.61921" gradientUnits="userSpaceOnUse" id="color-1"><stop offset="0" stop-color="#00b3ff"/><stop offset="1" stop-color="#00b3ff" stop-opacity="0"/></linearGradient><linearGradient x1="238.4987" y1="170.36569" x2="248.2273" y2="184.65579" gradientUnits="userSpaceOnUse" id="color-2"><stop offset="0" stop-color="#00b5ff"/><stop offset="1" stop-color="#00b5ff" stop-opacity="0"/></linearGradient></defs><g transform="translate(-155.63587,-38.60156)"><g data-paper-data="{&quot;isPaintingLayer&quot;:true}" fill-rule="nonzero" stroke-linejoin="miter" stroke-miterlimit="10" stroke-dasharray="" stroke-dashoffset="0" style="mix-blend-mode: normal"><g fill="none" stroke="#000000" stroke-width="0" stroke-linecap="round"><path d="M324.36412,198.14074l-168.72825,-36.2815"/><path d="M269.28956,38.60156l-58.57914,282.79687"/></g><g data-paper-data="{&quot;index&quot;:null}"><path d="M244.04179,157.21775l9.44155,12.4504c0,0 -7.99541,7.62885 -12.55546,11.06815c-4.55983,3.43914 -14.80416,9.56718 -14.80416,9.56718l-8.81655,-12.3254z" data-paper-data="{&quot;index&quot;:null}" fill="url(#color-1)" stroke="none" stroke-width="0" stroke-linecap="butt"/><path d="M236.15822,202.78225l-9.81655,-12.5754c0,0 9.4548,-5.71531 13.89358,-9.06016c4.64658,-3.50143 13.39104,-11.50017 13.39104,-11.50017l9.06655,12.8254z" data-paper-data="{&quot;index&quot;:null}" fill="url(#color-2)" stroke="none" stroke-width="0" stroke-linecap="butt"/><path d="M253.81359,169.51355c0,0 -8.05371,7.75832 -12.66969,11.21995c-4.65174,3.48845 -15.13429,9.63089 -15.13429,9.63089" fill="none" stroke="#00b5ff" stroke-width="1.5" stroke-linecap="round"/></g></g></g></svg>