<svg version="1.1" xmlns="http://www.w3.org/2000/svg" xmlns:xlink="http://www.w3.org/1999/xlink" width="39.20213" height="35.6014" viewBox="0,0,39.20213,35.6014"><defs><linearGradient x1="249.51677" y1="180.24954" x2="250.68316" y2="180.24622" gradientUnits="userSpaceOnUse" id="color-1"><stop offset="0" stop-color="#898989"/><stop offset="1" stop-color="#a1a1a1"/></linearGradient><linearGradient x1="251.33927" y1="180.24436" x2="254.32816" y2="180.23586" gradientUnits="userSpaceOnUse" id="color-2"><stop offset="0" stop-color="#898989"/><stop offset="1" stop-color="#a1a1a1"/></linearGradient><linearGradient x1="256.29657" y1="180.26671" x2="258.04616" y2="180.26174" gradientUnits="userSpaceOnUse" id="color-3"><stop offset="0" stop-color="#a1a1a1"/><stop offset="1" stop-color="#898989"/></linearGradient><radialGradient cx="242.57364" cy="171.15266" r="10.02369" gradientUnits="userSpaceOnUse" id="color-4"><stop offset="0" stop-color="#696969"/><stop offset="1" stop-color="#505050"/></radialGradient><linearGradient x1="230.00032" y1="180.11943" x2="238.87413" y2="180.0942" gradientUnits="userSpaceOnUse" id="color-5"><stop offset="0" stop-color="#454545"/><stop offset="1" stop-color="#474747"/></linearGradient><linearGradient x1="242.43464" y1="180.12367" x2="246.9818" y2="180.11074" gradientUnits="userSpaceOnUse" id="color-6"><stop offset="0" stop-color="#000000"/><stop offset="1" stop-color="#2c2c2c"/></linearGradient><linearGradient x1="242.43464" y1="180.12367" x2="246.9818" y2="180.11074" gradientUnits="userSpaceOnUse" id="color-7"><stop offset="0" stop-color="#000000"/><stop offset="1" stop-color="#2c2c2c"/></linearGradient><linearGradient x1="1014.77132" y1="534.92122" x2="227.55547" y2="534.92122" gradientUnits="userSpaceOnUse" id="color-8"><stop offset="0" stop-color="#ffffff"/><stop offset="1" stop-color="#ffffff" stop-opacity="0"/></linearGradient></defs><g transform="translate(-222.16129,-162.19931)"><g data-paper-data="{&quot;isPaintingLayer&quot;:true}" fill-rule="nonzero" stroke-linejoin="miter" stroke-miterlimit="10" stroke-dasharray="" stroke-dashoffset="0" style="mix-blend-mode: normal"><path d="M249.88939,180.08563c0.01567,5.51004 -4.45937,9.98958 -9.99528,10.00531c-5.53591,0.01574 -10.03635,-4.43827 -10.05202,-9.94831c-0.01567,-5.51004 4.45937,-9.98957 9.99528,-10.00531c5.53591,-0.01574 10.03635,4.43827 10.05202,9.94831z" fill="#00fffd" stroke="none" stroke-width="NaN" stroke-linecap="butt"/><path d="M247.74661,181.38453l-0.00622,-2.18699l10.935,-0.03109l0.00622,2.18699z" fill="#a1a1a1" stroke="#a1a1a1" stroke-width="0.5" stroke-linecap="butt"/><path d="M258.19673,181.93803l-0.00974,-3.42629l2.91599,-0.0083l0.00974,3.4263z" fill="#a1a1a1" stroke="#a1a1a1" stroke-width="0.5" stroke-linecap="butt"/><path d="M243.68861,181.61478l-0.00767,-2.6973l7.5087,-0.02135l0.00767,2.6973z" fill="#a1a1a1" stroke="#a1a1a1" stroke-width="0.5" stroke-linecap="butt"/><path d="M249.52102,181.74399l-0.0085,-2.9889l1.1664,-0.00332l0.00849,2.9889z" fill="url(#color-1)" stroke="none" stroke-width="0" stroke-linecap="butt"/><path d="M251.34269,181.44721l-0.00684,-2.4057l2.9889,-0.0085l0.00684,2.4057z" fill="url(#color-2)" stroke="none" stroke-width="0" stroke-linecap="butt"/><path d="M256.30009,181.50602l-0.00705,-2.4786l1.7496,-0.00498l0.00704,2.4786z" fill="url(#color-3)" stroke="none" stroke-width="0" stroke-linecap="butt"/><path d="M249.88939,180.08563c0.01567,5.51004 -4.45937,9.98958 -9.99528,10.00531c-5.53591,0.01574 -10.03635,-4.43827 -10.05202,-9.94831c-0.01567,-5.51004 4.45937,-9.98957 9.99528,-10.00531c5.53591,-0.01574 10.03635,4.43827 10.05202,9.94831z" fill="url(#color-4)" stroke="none" stroke-width="NaN" stroke-linecap="butt"/><path d="M233.70836,187.58234c0,0 -3.68302,-2.2871 -3.7085,-7.63289c-0.02591,-5.43696 3.52951,-7.31351 3.52951,-7.31351l5.33167,2.85137l0.02426,8.53128l-5.17693,3.56376z" fill="url(#color-5)" stroke="#000000" stroke-width="0" stroke-linecap="round"/><path d="M248.25014,180.0903c0.01316,4.63057 -3.72998,8.39507 -8.36055,8.40823c-4.63057,0.01316 -8.39508,-3.72998 -8.40824,-8.36055c-0.01316,-4.63057 3.72998,-8.39507 8.36056,-8.40823c4.63057,-0.01316 8.39508,3.72998 8.40824,8.36056z" fill="none" stroke="#525252" stroke-width="1.5" stroke-linecap="butt"/><path d="M245.64345,180.09771c0.00907,3.19093 -2.57035,5.78507 -5.76128,5.79414c-3.19093,0.00907 -5.78507,-2.57033 -5.79414,-5.76128c-0.00907,-3.19093 2.57034,-5.78507 5.76128,-5.79414c3.19093,-0.00907 5.78507,2.57035 5.79414,5.76128z" fill="none" stroke="#575757" stroke-width="1.5" stroke-linecap="butt"/><path d="M252.67434,179.08721l0.00642,2.25717" fill="none" stroke="#a1a1a1" stroke-width="1.5" stroke-linecap="round"/><path d="M254.04556,181.3405l-0.00642,-2.25717" fill="none" stroke="#a1a1a1" stroke-width="1.5" stroke-linecap="round"/><path d="M255.46286,181.33648l-0.00642,-2.25717" fill="none" stroke="#a1a1a1" stroke-width="1.5" stroke-linecap="round"/><path d="M256.97872,179.07497l0.00642,2.25718" fill="none" stroke="#a1a1a1" stroke-width="1.5" stroke-linecap="round"/><path d="M246.63117,181.41378l-2.54083,-0.52426l-1.65435,-0.28968l-0.00437,-1.53629l1.77129,-0.12314l2.42088,-0.12499c0,0 0.35386,-0.16281 0.35785,1.23913c0.00357,1.25431 -0.35046,1.35924 -0.35046,1.35924z" fill="url(#color-6)" stroke="url(#color-7)" stroke-width="0.5" stroke-linecap="round"/><path d="M252.61477,192.38268c-7.24459,7.24458 -17.85586,7.20345 -25.0593,0c-7.20345,-7.20345 -7.181,-17.73089 0,-24.91189c7.181,-7.181 18.03727,-6.87463 24.9119,0c6.87462,6.87462 7.39199,17.66731 0.14741,24.91189z" data-paper-data="{&quot;index&quot;:null}" fill="url(#color-8)" stroke="none" stroke-width="0" stroke-linecap="butt"/></g></g></svg>