<svg version="1.1" xmlns="http://www.w3.org/2000/svg" xmlns:xlink="http://www.w3.org/1999/xlink" width="296.78796" height="296.78796" viewBox="0,0,296.78796,296.78796"><g transform="translate(-91.60602,-31.60602)"><g data-paper-data="{&quot;isPaintingLayer&quot;:true}" fill="none" fill-rule="nonzero" stroke-linejoin="miter" stroke-miterlimit="10" stroke-dasharray="" stroke-dashoffset="0" style="mix-blend-mode: normal"><path d="M204.85147,197.65437c-2.8838,-5.41315 -4.51813,-11.5929 -4.51813,-18.15437c0,-21.35501 17.31165,-38.66666 38.66666,-38.66666c3.61663,0 7.11728,0.49654 10.43752,1.42515" stroke="#7de6ff" stroke-width="1.5" stroke-linecap="round"/><path d="M200.33334,179.66666c0,-21.35501 17.31165,-38.66666 38.66666,-38.66666c3.61663,0 7.11728,0.49654 10.43752,1.42515" stroke="#7de6ff" stroke-width="3" stroke-linecap="round"/><path d="M210.97841,153.05828c7.0692,-7.7184 16.73019,-12.55828 28.02159,-12.55828c3.61663,0 7.11728,0.49654 10.43752,1.42515" stroke="#7de6ff" stroke-width="4" stroke-linecap="round"/><path d="M239.2,140.3c3.61663,0 7.11728,0.49654 10.43752,1.42515" stroke="#7de6ff" stroke-width="6" stroke-linecap="round"/><path d="M91.60602,328.39398v-296.78796h296.78796v296.78796z" stroke="none" stroke-width="0" stroke-linecap="butt"/></g></g></svg>