<svg version="1.1" xmlns="http://www.w3.org/2000/svg" xmlns:xlink="http://www.w3.org/1999/xlink" width="204.45631" height="189.58676" viewBox="0,0,204.45631,189.58676"><g transform="translate(-137.77184,-85.20662)"><g data-paper-data="{&quot;isPaintingLayer&quot;:true}" fill-rule="nonzero" stroke-linejoin="miter" stroke-miterlimit="10" stroke-dasharray="" stroke-dashoffset="0" style="mix-blend-mode: normal"><path d="M247.01944,197.17575c-4.05722,-1.33949 -9.85886,0.45747 -14.20316,0.46328c-4.90106,-0.54847 -5.40431,-5.7273 -7.40266,-9.45107c-4.04296,-3.84858 0.32287,-6.67646 -0.90431,-11.58428c-1.15423,-3.27631 -2.72816,-4.82779 -0.98072,-8.34122c0.51837,-1.04225 -0.06571,-2.33058 0.93476,-2.99603c1.33322,-3.99966 7.1592,-3.27765 9.72036,-1.35961c3.82394,1.88736 8.18962,0.3099 12.26254,1.31379c3.25148,1.63872 9.11895,3.33038 10.80499,6.62068c-0.0627,3.55653 -1.84636,2.91 -3.16623,6.00334c-0.79167,1.85541 0.18774,3.85925 0.64107,5.61239c0.80746,1.1971 0.25192,2.7054 0.44159,4.05495c0.31579,2.24687 2.41016,4.69394 1.60261,7.02539l-0.1192,-0.07105c0,0 -0.1525,0.07672 -0.20863,0.22848c-3.58937,1.27498 -5.01241,3.37068 -9.423,2.48097z" data-paper-data="{&quot;noHover&quot;:false,&quot;origItem&quot;:[&quot;Path&quot;,{&quot;applyMatrix&quot;:true,&quot;segments&quot;:[[[458.58407,344.52868],[4.49702,-1.59739],[-0.07033,0.19013]],[458.32361,344.81388],[[458.17434,344.72478],[0,0],[-1.01175,2.92101]],[[460.19625,353.50557],[-0.39564,-2.81504],[0.23764,1.69081]],[[460.75726,358.56439],[-1.01164,-1.49981],[0.56797,2.19646]],[[461.56194,365.55801],[0.99186,-2.32459],[-1.65363,3.87556]],[[457.58662,373.05179],[0.07855,-4.45588],[2.11239,4.12232]],[[471.07347,381.29772],[-4.07368,-2.05311],[5.10284,1.25775]],[[486.36287,382.94134],[-4.79091,-2.36462],[3.2088,2.40306]],[[498.50265,381.26317],[-1.67035,5.01106],[1.25346,-0.83372]],[[499.6649,377.52032],[-0.64945,1.3058],[2.18931,-4.40188]],[[498.41994,367.10646],[1.4461,4.10479],[-1.5375,-6.14887]],[[497.29744,352.66322],[5.06531,4.82178],[-2.50367,-4.6654]],[[488.07235,340.8659],[6.1404,0.68716],[-5.44285,0.00728]],[[470.35316,341.44627],[5.08317,1.67821],[-5.5259,-1.1147]]],&quot;closed&quot;:true}],&quot;index&quot;:null}" fill="#777777" stroke="none" stroke-width="0.5" stroke-linecap="butt"/><path d="M235.60277,169.2405c2.54159,0.8391 6.17594,-0.28657 8.89736,-0.29021c3.0702,0.34358 3.38545,3.58778 4.63729,5.92048c2.53266,2.41089 -0.20225,4.18237 0.5665,7.2568c0.72305,2.0524 1.70902,3.0243 0.61436,5.22524c-0.32473,0.6529 0.04116,1.45996 -0.58557,1.87682c-0.83518,2.50553 -4.48478,2.05324 -6.08918,0.85171c-2.39545,-1.18231 -5.13027,-0.19413 -7.68169,-0.82301c-2.03684,-1.02655 -5.71244,-2.08626 -6.76863,-4.14743c0.03928,-2.22794 1.15662,-1.82293 1.98344,-3.76071c0.49593,-1.16229 -0.11761,-2.41757 -0.40159,-3.5158c-0.50582,-0.74991 -0.15781,-1.69476 -0.27663,-2.54017c-0.19782,-1.40752 -1.50981,-2.94045 -1.00393,-4.40095l0.07467,0.04451c0,0 0.09553,-0.04806 0.1307,-0.14312c2.24851,-0.7987 3.13995,-2.11152 5.90291,-1.55417z" data-paper-data="{&quot;noHover&quot;:false,&quot;origItem&quot;:[&quot;Path&quot;,{&quot;applyMatrix&quot;:true,&quot;segments&quot;:[[[458.58407,344.52868],[4.49702,-1.59739],[-0.07033,0.19013]],[458.32361,344.81388],[[458.17434,344.72478],[0,0],[-1.01175,2.92101]],[[460.19625,353.50557],[-0.39564,-2.81504],[0.23764,1.69081]],[[460.75726,358.56439],[-1.01164,-1.49981],[0.56797,2.19646]],[[461.56194,365.55801],[0.99186,-2.32459],[-1.65363,3.87556]],[[457.58662,373.05179],[0.07855,-4.45588],[2.11239,4.12232]],[[471.07347,381.29772],[-4.07368,-2.05311],[5.10284,1.25775]],[[486.36287,382.94134],[-4.79091,-2.36462],[3.2088,2.40306]],[[498.50265,381.26317],[-1.67035,5.01106],[1.25346,-0.83372]],[[499.6649,377.52032],[-0.64945,1.3058],[2.18931,-4.40188]],[[498.41994,367.10646],[1.4461,4.10479],[-1.5375,-6.14887]],[[497.29744,352.66322],[5.06531,4.82178],[-2.50367,-4.6654]],[[488.07235,340.8659],[6.1404,0.68716],[-5.44285,0.00728]],[[470.35316,341.44627],[5.08317,1.67821],[-5.5259,-1.1147]]],&quot;closed&quot;:true}]}" fill="#5f5f5f" stroke="none" stroke-width="0.5" stroke-linecap="butt"/><path d="M247.16339,180.07164c-0.01858,0.04981 0.00291,0.10162 0.00291,0.10162l0.04491,0.00789c-0.29914,0.75346 -1.34529,0.91321 -1.90586,1.40466c-0.33669,0.29518 -0.52198,0.78973 -0.97972,0.91445c-0.48889,0.33907 -1.16248,0.62768 -1.36345,1.25926c-0.33507,1.05298 0.24753,1.27468 -0.49977,2.17326c-1.12541,0.4572 -2.94855,-0.38041 -4.10927,-0.67004c-1.22899,-0.62383 -1.97711,-1.9529 -3.33365,-2.30345c-1.04884,-0.07204 -2.65366,-1.14207 -2.1275,-2.42347c-0.10625,-0.38022 0.31548,-0.57557 0.41004,-0.94615c0.31877,-1.24924 1.04329,-1.29775 2.03334,-1.86554c1.35818,-0.95819 0.87824,-2.59848 2.70999,-2.68904c1.29612,-0.49809 2.53227,-1.67901 3.86966,-0.76419c1.07994,0.93334 2.13835,2.62505 3.43542,3.162c1.28853,0.72468 1.19315,1.5515 1.81295,2.63876z" data-paper-data="{&quot;noHover&quot;:false,&quot;origItem&quot;:[&quot;Path&quot;,{&quot;applyMatrix&quot;:true,&quot;segments&quot;:[[[458.58407,344.52868],[4.49702,-1.59739],[-0.07033,0.19013]],[458.32361,344.81388],[[458.17434,344.72478],[0,0],[-1.01175,2.92101]],[[460.19625,353.50557],[-0.39564,-2.81504],[0.23764,1.69081]],[[460.75726,358.56439],[-1.01164,-1.49981],[0.56797,2.19646]],[[461.56194,365.55801],[0.99186,-2.32459],[-1.65363,3.87556]],[[457.58662,373.05179],[0.07855,-4.45588],[2.11239,4.12232]],[[471.07347,381.29772],[-4.07368,-2.05311],[5.10284,1.25775]],[[486.36287,382.94134],[-4.79091,-2.36462],[3.2088,2.40306]],[[498.50265,381.26317],[-1.67035,5.01106],[1.25346,-0.83372]],[[499.6649,377.52032],[-0.64945,1.3058],[2.18931,-4.40188]],[[498.41994,367.10646],[1.4461,4.10479],[-1.5375,-6.14887]],[[497.29744,352.66322],[5.06531,4.82178],[-2.50367,-4.6654]],[[488.07235,340.8659],[6.1404,0.68716],[-5.44285,0.00728]],[[470.35316,341.44627],[5.08317,1.67821],[-5.5259,-1.1147]]],&quot;closed&quot;:true}],&quot;index&quot;:null}" fill="#515151" stroke="none" stroke-width="0.5" stroke-linecap="butt"/><path d="M230.81274,162.51274c-0.06005,-0.02045 -0.13417,-0.07092 -0.13417,-0.1955c0,-0.11605 0.06431,-0.16779 0.12165,-0.19086c-0.01374,-0.07439 0.02013,-0.14214 0.02013,-0.14214c0.94404,-1.7453 2.85006,-0.44853 4.31518,-0.94449c0.49068,-0.1661 0.74104,-0.59593 1.1523,-0.8184c1.60686,-1.07144 4.88466,-0.43912 6.54143,0.35284c0.46232,0.23236 1.20369,0.29621 1.5993,0.62747c0.28998,0.24281 0.21529,0.88329 0.66096,1.04178c0.41742,0.14845 0.99934,-0.12148 1.38434,0.28474c0.66092,0.69734 -0.19056,1.60562 -0.17801,2.3022c-0.06886,0.76931 -1.04268,0.76854 -1.67109,0.68655c-1.78837,-0.23334 -3.41777,-0.1181 -5.24001,-0.1181c-2.4015,0 -5.36193,0.21485 -7.44813,-0.89905c-0.33896,-0.67793 -1.01536,-1.15447 -1.1239,-1.98702z" fill="#515151" stroke="none" stroke-width="0.5" stroke-linecap="butt"/><path d="M222.47436,186.58292c-0.0183,0.03609 -0.05684,0.07837 -0.13552,0.06718c-0.07329,-0.01042 -0.1002,-0.05568 -0.10962,-0.09397c-0.04821,0.002 -0.08797,-0.02548 -0.08797,-0.02548c-1.01753,-0.75295 -0.02737,-1.84031 -0.20905,-2.81018c-0.06085,-0.32482 -0.30984,-0.52154 -0.41342,-0.80126c-0.53242,-1.11107 0.16127,-3.12448 0.81022,-4.09975c0.18827,-0.27112 0.29516,-0.73363 0.5399,-0.95375c0.17939,-0.16134 0.5772,-0.05666 0.71732,-0.3239c0.13124,-0.25031 0.01301,-0.64207 0.30414,-0.84876c0.49977,-0.3548 0.99697,0.26452 1.43803,0.31914c0.4797,0.11257 0.39177,0.72755 0.28356,1.11707c-0.30795,1.10854 -0.38148,2.14798 -0.54511,3.29888c-0.21564,1.51674 -0.34577,3.40577 -1.23661,4.62335c-0.4586,0.15321 -0.82031,0.53762 -1.35588,0.53141z" fill="#515151" stroke="none" stroke-width="0.5" stroke-linecap="butt"/><path d="M224.46627,177.98152c-0.00516,0.02983 -0.02341,0.06853 -0.08214,0.07783c-0.0547,0.00866 -0.08388,-0.01779 -0.09904,-0.0431c-0.03404,0.01203 -0.0685,0.00112 -0.0685,0.00112c-0.89306,-0.31474 -0.42405,-1.30986 -0.76714,-1.96342c-0.1149,-0.21888 -0.33618,-0.30482 -0.47172,-0.48206c-0.6249,-0.67742 -0.57143,-2.26955 -0.32177,-3.10954c0.07503,-0.23524 0.0498,-0.58944 0.17642,-0.80062c0.09281,-0.1548 0.40027,-0.16738 0.44171,-0.38926c0.03882,-0.20782 -0.13182,-0.46196 0.03092,-0.67373c0.27937,-0.36354 0.771,-0.02998 1.09839,-0.08787c0.36774,-0.02494 0.44004,0.43411 0.44828,0.73642c0.02345,0.86033 0.19934,1.61972 0.3353,2.47861c0.17918,1.13191 0.50133,2.51123 0.13197,3.57764c-0.29424,0.21035 -0.46838,0.56471 -0.85269,0.67799z" fill="#515151" stroke="none" stroke-width="0.5" stroke-linecap="butt"/><path d="M225.08993,163.8834c-0.02964,-0.00617 -0.06769,-0.02573 -0.07499,-0.08474c-0.00679,-0.05496 0.02063,-0.08323 0.04644,-0.09751c-0.01086,-0.03442 0.00122,-0.0685 0.00122,-0.0685c0.34493,-0.88184 1.32352,-0.37925 1.98837,-0.69991c0.22267,-0.10739 0.31608,-0.32561 0.49783,-0.45504c0.69829,-0.60149 2.28767,-0.4939 3.11868,-0.21581c0.23256,0.08298 0.5874,0.06983 0.79416,0.20355c0.15155,0.09802 0.15367,0.40573 0.37401,0.4547c0.20638,0.04587 0.46618,-0.11603 0.67229,0.05382c0.35383,0.29157 0.00374,0.77158 0.05046,1.10074c0.01242,0.36838 -0.44883,0.42502 -0.75124,0.42297c-0.86063,-0.00582 -1.62556,0.14413 -2.48858,0.2508c-1.13735,0.14058 -2.52683,0.41561 -3.58006,0.01019c-0.20021,-0.30122 -0.54845,-0.48732 -0.64859,-0.87526z" fill="#515151" stroke="none" stroke-width="0.5" stroke-linecap="butt"/><path d="M254.11104,179.81251c0.00479,-0.03691 0.02524,-0.08539 0.09689,-0.09984c0.06675,-0.01346 0.10396,0.01754 0.12387,0.04785c0.04119,-0.01652 0.08409,-0.0049 0.08409,-0.0049c1.11322,0.34063 0.58834,1.58718 1.04343,2.37233c0.15241,0.26296 0.42864,0.35713 0.60427,0.56787c0.8025,0.79996 0.81879,2.75846 0.55536,3.80314c-0.08005,0.29283 -0.03084,0.72662 -0.17549,0.99255c-0.10603,0.19493 -0.48306,0.22622 -0.52255,0.50091c-0.03698,0.25729 0.18572,0.56068 -0.00329,0.82919c-0.32446,0.46096 -0.94555,0.07653 -1.34472,0.1645c-0.45044,0.04957 -0.56289,-0.5106 -0.58858,-0.88152c-0.07311,-1.05561 -0.32826,-1.97937 -0.5395,-3.02742c-0.27839,-1.38119 -0.74511,-3.05895 -0.3463,-4.38793c0.35061,-0.27353 0.54628,-0.7178 1.01253,-0.87673z" fill="#515151" stroke="none" stroke-width="0.5" stroke-linecap="butt"/><path d="M244.45241,192.95948c0.03669,0.00625 0.08433,0.0286 0.09592,0.10077c0.0108,0.06723 -0.02165,0.10318 -0.05272,0.12188c0.01488,0.04181 0.00156,0.08422 0.00156,0.08422c-0.38449,1.09885 -1.60925,0.52496 -2.41183,0.94857c-0.26879,0.14187 -0.37384,0.41415 -0.59138,0.58129c-0.83115,0.77015 -2.78875,0.7088 -3.82216,0.40417c-0.28943,-0.09159 -0.72483,-0.05961 -0.98481,-0.2147c-0.19057,-0.11367 -0.20689,-0.49164 -0.4798,-0.54199c-0.25562,-0.04715 -0.56761,0.16334 -0.82841,-0.03616c-0.44773,-0.34247 -0.03899,-0.94784 -0.11106,-1.35018c-0.03168,-0.45205 0.53251,-0.54221 0.90416,-0.55317c1.05768,-0.0312 1.99083,-0.24954 3.04643,-0.41907c1.39114,-0.22342 3.08608,-0.62328 4.39821,-0.1721c0.25942,0.36118 0.69558,0.5743 0.8359,1.04648z" fill="#515151" stroke="none" stroke-width="0.5" stroke-linecap="butt"/><path d="M249.99987,179.75599c0.02796,-0.02455 0.07533,-0.04748 0.13868,-0.01103c0.05902,0.03396 0.06651,0.0818 0.06146,0.11771c0.04185,0.01478 0.06639,0.05183 0.06639,0.05183c0.61134,0.99074 -0.60582,1.58059 -0.78228,2.47078c-0.0591,0.29813 0.08623,0.55121 0.07903,0.82545c0.07471,1.13065 -1.20592,2.61253 -2.09341,3.22334c-0.25344,0.16711 -0.50283,0.52544 -0.78703,0.6297c-0.20833,0.07643 -0.51218,-0.14896 -0.72318,0.03131c-0.19763,0.16885 -0.23063,0.54376 -0.54985,0.62068c-0.548,0.13206 -0.76076,-0.5667 -1.11867,-0.76413c-0.37107,-0.26011 -0.08575,-0.75512 0.13981,-1.05069c0.64193,-0.84118 1.06007,-1.7035 1.59325,-2.63019c0.70266,-1.22126 1.45962,-2.78961 2.63648,-3.5246c0.44393,0.02598 0.88417,-0.17856 1.33931,0.00985z" fill="#515151" stroke="none" stroke-width="0.5" stroke-linecap="butt"/><path d="M137.77184,274.79338l204.45631,-189.58676" fill="none" stroke="#000000" stroke-width="0" stroke-linecap="round"/></g></g></svg>