<svg version="1.1" xmlns="http://www.w3.org/2000/svg" xmlns:xlink="http://www.w3.org/1999/xlink" width="83.07714" height="39.99962" viewBox="0,0,83.07714,39.99962"><defs><linearGradient x1="227.22347" y1="167.5578" x2="228.51275" y2="167.5578" gradientUnits="userSpaceOnUse" id="color-1"><stop offset="0" stop-color="#c90000" stop-opacity="0"/><stop offset="1" stop-color="#c90000"/></linearGradient><linearGradient x1="227.0568" y1="189.73281" x2="228.34608" y2="189.73281" gradientUnits="userSpaceOnUse" id="color-2"><stop offset="0" stop-color="#c90000" stop-opacity="0"/><stop offset="1" stop-color="#c90000"/></linearGradient><linearGradient x1="219.10228" y1="178.65507" x2="220.83207" y2="178.65507" gradientUnits="userSpaceOnUse" id="color-3"><stop offset="0" stop-color="#c90000" stop-opacity="0"/><stop offset="1" stop-color="#c90000"/></linearGradient><linearGradient x1="256.18751" y1="178.66667" x2="260.18751" y2="178.66667" gradientUnits="userSpaceOnUse" id="color-4"><stop offset="0" stop-color="#b40000"/><stop offset="1" stop-color="#ff0000"/></linearGradient><linearGradient x1="256.48571" y1="185.28835" x2="259.79416" y2="185.28835" gradientUnits="userSpaceOnUse" id="color-5"><stop offset="0" stop-color="#898989"/><stop offset="1" stop-color="#a1a1a1"/></linearGradient><linearGradient x1="263.06251" y1="186.04167" x2="263.06251" y2="188.91667" gradientUnits="userSpaceOnUse" id="color-6"><stop offset="0" stop-color="#b7b7b7" stop-opacity="0"/><stop offset="1" stop-color="#b7b7b7"/></linearGradient><linearGradient x1="271.03015" y1="185.28835" x2="279.50802" y2="185.28835" gradientUnits="userSpaceOnUse" id="color-7"><stop offset="0" stop-color="#898989"/><stop offset="1" stop-color="#a1a1a1"/></linearGradient><linearGradient x1="285.09103" y1="185.37553" x2="290.05368" y2="185.37553" gradientUnits="userSpaceOnUse" id="color-8"><stop offset="0" stop-color="#a1a1a1"/><stop offset="1" stop-color="#898989"/></linearGradient><linearGradient x1="280.61186" y1="185.09188" x2="280.61186" y2="188.26836" gradientUnits="userSpaceOnUse" id="color-9"><stop offset="0" stop-color="#b7b7b7" stop-opacity="0"/><stop offset="1" stop-color="#b7b7b7"/></linearGradient><linearGradient x1="294.60504" y1="186.24125" x2="294.60504" y2="188.66836" gradientUnits="userSpaceOnUse" id="color-10"><stop offset="0" stop-color="#b7b7b7" stop-opacity="0"/><stop offset="1" stop-color="#b7b7b7"/></linearGradient><linearGradient x1="256.48571" y1="172.28835" x2="259.79416" y2="172.28835" gradientUnits="userSpaceOnUse" id="color-11"><stop offset="0" stop-color="#898989"/><stop offset="1" stop-color="#a1a1a1"/></linearGradient><linearGradient x1="263.06251" y1="173.04167" x2="263.06251" y2="175.91667" gradientUnits="userSpaceOnUse" id="color-12"><stop offset="0" stop-color="#b7b7b7" stop-opacity="0"/><stop offset="1" stop-color="#b7b7b7"/></linearGradient><linearGradient x1="271.03015" y1="172.28835" x2="279.50802" y2="172.28835" gradientUnits="userSpaceOnUse" id="color-13"><stop offset="0" stop-color="#898989"/><stop offset="1" stop-color="#a1a1a1"/></linearGradient><linearGradient x1="285.09103" y1="172.37553" x2="290.05368" y2="172.37553" gradientUnits="userSpaceOnUse" id="color-14"><stop offset="0" stop-color="#a1a1a1"/><stop offset="1" stop-color="#898989"/></linearGradient><linearGradient x1="280.61186" y1="172.09188" x2="280.61186" y2="175.26836" gradientUnits="userSpaceOnUse" id="color-15"><stop offset="0" stop-color="#b7b7b7" stop-opacity="0"/><stop offset="1" stop-color="#b7b7b7"/></linearGradient><linearGradient x1="294.60504" y1="173.24125" x2="294.60504" y2="175.66836" gradientUnits="userSpaceOnUse" id="color-16"><stop offset="0" stop-color="#b7b7b7" stop-opacity="0"/><stop offset="1" stop-color="#b7b7b7"/></linearGradient><linearGradient x1="239.96167" y1="159.59737" x2="239.96167" y2="165.78551" gradientUnits="userSpaceOnUse" id="color-17"><stop offset="0" stop-color="#ff0000"/><stop offset="1" stop-color="#c50000"/></linearGradient><linearGradient x1="239.77986" y1="191.68744" x2="239.77986" y2="197.87558" gradientUnits="userSpaceOnUse" id="color-18"><stop offset="0" stop-color="#c50000"/><stop offset="1" stop-color="#ff0000"/></linearGradient><linearGradient x1="239.76885" y1="168.14166" x2="239.76885" y2="169.71309" gradientUnits="userSpaceOnUse" id="color-19"><stop offset="0" stop-color="#000000" stop-opacity="0"/><stop offset="1" stop-color="#000000"/></linearGradient><linearGradient x1="242.61613" y1="172.57024" x2="242.61613" y2="174.14167" gradientUnits="userSpaceOnUse" id="color-20"><stop offset="0" stop-color="#000000"/><stop offset="1" stop-color="#000000" stop-opacity="0"/></linearGradient><linearGradient x1="239.17506" y1="183.14166" x2="239.17506" y2="184.71309" gradientUnits="userSpaceOnUse" id="color-21"><stop offset="0" stop-color="#000000" stop-opacity="0"/><stop offset="1" stop-color="#000000"/></linearGradient><linearGradient x1="239.68755" y1="187.57024" x2="239.68755" y2="189.14167" gradientUnits="userSpaceOnUse" id="color-22"><stop offset="0" stop-color="#000000"/><stop offset="1" stop-color="#000000" stop-opacity="0"/></linearGradient><radialGradient cx="223.96143" cy="186.2191" r="7.63635" gradientUnits="userSpaceOnUse" id="color-23"><stop offset="0" stop-color="#9f9f9f"/><stop offset="1" stop-color="#838383"/></radialGradient><radialGradient cx="223.67571" cy="171.2191" r="7.63636" gradientUnits="userSpaceOnUse" id="color-24"><stop offset="0" stop-color="#9f9f9f"/><stop offset="1" stop-color="#838383"/></radialGradient><linearGradient x1="296.96155" y1="173.08159" x2="296.96155" y2="175.69697" gradientUnits="userSpaceOnUse" id="color-25"><stop offset="0" stop-color="#ff4c4c" stop-opacity="0"/><stop offset="1" stop-color="#ff4c4c"/></linearGradient><linearGradient x1="296.96155" y1="186.08159" x2="296.96155" y2="188.69697" gradientUnits="userSpaceOnUse" id="color-26"><stop offset="0" stop-color="#ff4c4c" stop-opacity="0"/><stop offset="1" stop-color="#ff4c4c"/></linearGradient><linearGradient x1="257.60001" y1="168.48158" x2="257.60001" y2="176.18158" gradientUnits="userSpaceOnUse" id="color-27"><stop offset="0" stop-color="#232323"/><stop offset="1" stop-color="#404040"/></linearGradient><linearGradient x1="257.60001" y1="181.49825" x2="257.60001" y2="189.19825" gradientUnits="userSpaceOnUse" id="color-28"><stop offset="0" stop-color="#232323"/><stop offset="1" stop-color="#404040"/></linearGradient></defs><g transform="translate(-216.71037,-158.6455)"><g data-paper-data="{&quot;isPaintingLayer&quot;:true}" fill-rule="nonzero" stroke-linejoin="miter" stroke-miterlimit="10" stroke-dasharray="" stroke-dashoffset="0" style="mix-blend-mode: normal"><g><g><path d="M229.01061,165.80979l-0.96674,-0.58816l-2.41684,-1.37236v-3.23485l3.02105,-1.56841z" fill="#ff0000" stroke="#ff0000" stroke-width="0.5" stroke-linecap="round"/><path d="M228.51275,165.60148l-1.28928,-0.69036v-5.25564l1.28532,-0.67465z" fill="url(#color-1)" stroke="none" stroke-width="0" stroke-linecap="butt"/></g><g data-paper-data="{&quot;index&quot;:null}"><path d="M228.48142,198.2446l-3.02106,-1.56841v-3.23485l2.41684,-1.37236l0.96675,-0.58816z" fill="#ff0000" stroke="#ff0000" stroke-width="0.5" stroke-linecap="round"/><path d="M228.34213,198.30979l-1.28532,-0.67465v-5.25564l1.28928,-0.69037z" fill="url(#color-2)" stroke="none" stroke-width="0" stroke-linecap="butt"/></g><g><path d="M221.33793,190.38236l-4.05329,-2.49886v-4.34014l3.89116,-1.84128l0.32426,-5.39229l-1.29706,-0.78912l-3.24263,-1.84127v-4.34014l4.05329,-2.10431z" fill="#ff0000" stroke="#ff0000" stroke-width="0.5" stroke-linecap="round"/><path d="M219.10228,189.2575v-6.70326l1.71669,-0.97479l0.01312,-5.54914l-1.7298,-0.92625v-7.0514l1.72449,-0.90517v23.01517z" fill="url(#color-3)" stroke="none" stroke-width="0" stroke-linecap="butt"/></g><path d="M256.18751,190.66667v-24h4v24z" fill="url(#color-4)" stroke="none" stroke-width="0" stroke-linecap="butt"/><path d="M260.83063,187.99106v-5.23106h31.01662v5.23106z" fill="#a1a1a1" stroke="#a1a1a1" stroke-width="0.5" stroke-linecap="butt"/><path d="M249.31854,188.51417v-6.45165h21.29807v6.45165z" fill="#a1a1a1" stroke="#a1a1a1" stroke-width="0.5" stroke-linecap="butt"/><path d="M256.48571,188.86291v-7.14913h3.30844v7.14913z" fill="url(#color-5)" stroke="none" stroke-width="0" stroke-linecap="butt"/><path d="M255.06252,188.91667v-2.875h16v2.875z" fill="url(#color-6)" stroke="none" stroke-width="0" stroke-linecap="butt"/><path d="M271.03015,188.16543v-5.75417h8.47789v5.75417z" fill="url(#color-7)" stroke="none" stroke-width="0" stroke-linecap="butt"/><path d="M285.09103,188.3398v-5.92854h4.96267v5.92854z" fill="url(#color-8)" stroke="none" stroke-width="0" stroke-linecap="butt"/><path d="M271.03278,188.26836v-3.17647h19.15816v3.17647z" fill="url(#color-9)" stroke="none" stroke-width="0" stroke-linecap="butt"/><path d="M290.46723,188.45263v-6.26194h8.27111v6.26194z" fill="#a1a1a1" stroke="#a1a1a1" stroke-width="0.5" stroke-linecap="butt"/><path d="M290.12516,188.66836v-2.42709h8.95974v2.42709z" fill="url(#color-10)" stroke="none" stroke-width="0" stroke-linecap="butt"/><path d="M260.83063,174.99106v-5.23106h31.01662v5.23106z" fill="#a1a1a1" stroke="#a1a1a1" stroke-width="0.5" stroke-linecap="butt"/><path d="M249.31854,175.51417v-6.45165h21.29807v6.45165z" fill="#a1a1a1" stroke="#a1a1a1" stroke-width="0.5" stroke-linecap="butt"/><path d="M256.48571,175.86291v-7.14913h3.30844v7.14913z" fill="url(#color-11)" stroke="none" stroke-width="0" stroke-linecap="butt"/><path d="M255.06252,175.91667v-2.875h16v2.875z" fill="url(#color-12)" stroke="none" stroke-width="0" stroke-linecap="butt"/><path d="M271.03015,175.16543v-5.75417h8.47789v5.75417z" fill="url(#color-13)" stroke="none" stroke-width="0" stroke-linecap="butt"/><path d="M285.09103,175.3398v-5.92854h4.96267v5.92854z" fill="url(#color-14)" stroke="none" stroke-width="0" stroke-linecap="butt"/><path d="M271.03278,175.26836v-3.17647h19.15816v3.17647z" fill="url(#color-15)" stroke="none" stroke-width="0" stroke-linecap="butt"/><path d="M290.46723,175.45263v-6.26194h8.27111v6.26194z" fill="#a1a1a1" stroke="#a1a1a1" stroke-width="0.5" stroke-linecap="butt"/><path d="M290.12516,175.66836v-2.42709h8.95974v2.42709z" fill="url(#color-16)" stroke="none" stroke-width="0" stroke-linecap="butt"/><path d="M230.50003,163.04752h22.57143" fill="none" stroke="#232323" stroke-width="1.5" stroke-linecap="round"/><path d="M230.21432,194.11418h22.57143" fill="none" stroke="#232323" stroke-width="1.5" stroke-linecap="round"/><path d="M228.61674,159.54137h22.68986v21.42049h-22.68986z" fill="#ff0000" stroke="none" stroke-width="0" stroke-linecap="butt"/><path d="M228.77541,159.59737h22.37251v6.18814h-22.37251z" fill="url(#color-17)" stroke="none" stroke-width="0" stroke-linecap="butt"/><path d="M228.43494,176.51108h22.68986v21.42049h-22.68986z" fill="#ff0000" stroke="none" stroke-width="0" stroke-linecap="butt"/><path d="M228.59361,191.68744h22.37251v6.18814h-22.37251z" fill="url(#color-18)" stroke="none" stroke-width="0" stroke-linecap="butt"/><path d="M220.81767,165.81127h35.54323v25.54592h-35.54323z" fill="#ff0000" stroke="none" stroke-width="0" stroke-linecap="butt"/><path d="M220.85419,166.85973h29.28125v4.90625l-2.15625,2.15625h-9.0625l-1.9375,1.9375h-16.125z" data-paper-data="{&quot;index&quot;:null}" fill="#232323" stroke="#000000" stroke-width="0" stroke-linecap="round"/><path d="M229.35718,169.71309v-1.57143h20.82335v1.57143z" data-paper-data="{&quot;index&quot;:null}" fill="url(#color-19)" stroke="none" stroke-width="0" stroke-linecap="butt"/><path d="M249.36435,172.57024l-1.4,1.57143h-18.69643v-1.57143z" data-paper-data="{&quot;index&quot;:null}" fill="url(#color-20)" stroke="none" stroke-width="0" stroke-linecap="butt"/><path d="M220.85419,181.52639h16.125l1.9375,1.9375h9.0625l2.15625,2.15625v4.90625h-29.28125z" fill="#232323" stroke="#000000" stroke-width="0" stroke-linecap="round"/><path d="M229.32782,187.58815v-2.85744h26.6945v2.85744z" fill="#2c2c2c" stroke="none" stroke-width="0" stroke-linecap="butt"/><path d="M229.32782,172.58815v-2.85744h26.6945v2.85744z" fill="#2c2c2c" stroke="none" stroke-width="0" stroke-linecap="butt"/><path d="M229.21434,184.71309v-1.57143h18.52143l1.7,1.57143z" fill="url(#color-21)" stroke="none" stroke-width="0" stroke-linecap="butt"/><path d="M250.03577,187.57024v1.57143h-20.69643v-1.57143z" data-paper-data="{&quot;index&quot;:null}" fill="url(#color-22)" stroke="none" stroke-width="0" stroke-linecap="butt"/><path d="M239.87562,177.21751c0.00405,-0.34609 0.29876,-0.58186 0.29876,-0.58186c0.1687,-0.13459 1.62515,-1.30057 1.65021,-1.29995c1.93616,0.04755 2.68727,2.08841 4.16497,2.79196c1.87254,0.89154 4.36098,0.13082 5.8127,1.91371c3.05023,3.74608 -2.08724,3.63791 -4.34978,2.28039c-3.06269,-1.2361 -6.88434,0.07988 -7.69223,-4.40573l-0.01021,-0.26615c0,0 0,-0.22784 0.12557,-0.43236z" fill="#ef0000" stroke="none" stroke-width="0.5" stroke-linecap="butt"/><path d="M238.37834,167.65409c-0.14709,0.73544 -0.88252,0.58835 -0.88252,0.58835l-0.84574,-0.18194c-1.07849,-0.4393 -2.35632,-0.60492 -3.44291,-0.14286c0,0 -0.69636,0.27854 -0.9749,-0.41781c-0.27854,-0.69636 0.41781,-0.9749 0.41781,-0.9749c1.4927,-0.57152 3.0789,-0.43967 4.55709,0.14286l0.58283,0.10378c0,0 0.73544,0.14709 0.58835,0.88252z" fill="#1b1b1b" stroke="none" stroke-width="0.5" stroke-linecap="butt"/><path d="M249.10718,190.36415c0,0.75 -0.75,0.75 -0.75,0.75h-0.85714c-2.03603,-0.00365 -3.92948,-0.42857 -6,-0.42857c0,0 -0.75,0 -0.75,-0.75c0,-0.75 0.75,-0.75 0.75,-0.75c2.06216,0 3.9817,0.43259 6,0.42857h0.85714c0,0 0.75,0 0.75,0.75z" fill="#1b1b1b" stroke="none" stroke-width="0.5" stroke-linecap="butt"/><path d="M221.6429,188.18558c0.75,0 0.75,0.75 0.75,0.75l-0.10688,0.0427c0.4121,0.76804 0.63703,0.804 1.49974,0.77873c0,0 0.75,0 0.75,0.75c0,0.75 -0.75,0.75 -0.75,0.75c-1.40126,-0.02731 -2.02694,-0.32043 -2.78598,-1.50699l-0.10688,-0.81444c0,0 0,-0.75 0.75,-0.75z" fill="#1b1b1b" stroke="none" stroke-width="0.5" stroke-linecap="butt"/><path d="M221.92861,166.75701c0.75,0 0.75,0.75 0.75,0.75l-0.0102,0.26616c-0.08915,0.52465 -0.13436,1.05882 -0.13265,1.59099c0,0 0,0.75 -0.75,0.75c-0.75,0 -0.75,-0.75 -0.75,-0.75c0.00171,-0.61465 0.05368,-1.23102 0.15306,-1.83758l-0.0102,-0.01956c0,0 0,-0.75 0.75,-0.75z" fill="#1b1b1b" stroke="none" stroke-width="0.5" stroke-linecap="butt"/><path d="M248.17087,176.41384c-0.33541,0.67082 -1.00623,0.33541 -1.00623,0.33541l-0.88264,-0.44194c-0.24642,-0.14764 -0.49283,-0.29527 -0.73925,-0.44291c0,0 -0.64312,-0.38587 -0.25725,-1.02899c0.38587,-0.64312 1.02899,-0.25725 1.02899,-0.25725c0.22977,0.13808 0.45955,0.27616 0.68932,0.41424l0.83165,0.41521c0,0 0.67082,0.33541 0.33541,1.00623z" fill="#ef0000" stroke="none" stroke-width="0.5" stroke-linecap="butt"/><path d="M254.93284,178.77157c0.73544,0.14709 0.58835,0.88252 0.58835,0.88252l-0.18194,0.84574c-0.09524,0.2381 -0.19048,0.47619 -0.28571,0.71429c0,0 -0.27854,0.69636 -0.9749,0.41781c-0.69636,-0.27854 -0.41781,-0.9749 -0.41781,-0.9749c0.09524,-0.2381 0.19048,-0.47619 0.28571,-0.71429l0.10378,-0.58283c0,0 0.14709,-0.73544 0.88252,-0.58835z" fill="#ef0000" stroke="none" stroke-width="0.5" stroke-linecap="butt"/><path d="M228.6429,159.44752h22.57143" fill="none" stroke="#c30000" stroke-width="1.5" stroke-linecap="round"/><path d="M228.50004,197.78085h22.57143" fill="none" stroke="#c30000" stroke-width="1.5" stroke-linecap="round"/><path d="M217.65887,186.12759c0,-1.10457 0.89543,-2 2,-2c1.10457,0 2,0.89543 2,2c0,1.10457 -0.89543,2 -2,2c-1.10457,0 -2,-0.89543 -2,-2z" fill="#676767" stroke="none" stroke-width="0.5" stroke-linecap="butt"/><path d="M219.60592,186.16106l15.27273,0.07205" fill="none" stroke="url(#color-23)" stroke-width="2.5" stroke-linecap="round"/><path d="M217.2303,171.12759c0,-1.10457 0.89543,-2 2,-2c1.10457,0 2,0.89543 2,2c0,1.10457 -0.89543,2 -2,2c-1.10457,0 -2,-0.89543 -2,-2z" fill="#676767" stroke="none" stroke-width="0.5" stroke-linecap="butt"/><path d="M234.59294,171.23311l-15.27273,-0.07205" fill="none" stroke="url(#color-24)" stroke-width="2.5" stroke-linecap="round"/><path d="M228.39584,194.17628v-3h22.70833v3z" fill="#323232" stroke="none" stroke-width="0" stroke-linecap="butt"/><path d="M228.62962,166.17628v-3h22.70833v3z" fill="#323232" stroke="none" stroke-width="0" stroke-linecap="butt"/><path d="M228.61459,163.76449v-1.44643h22.71726v1.44643z" fill="#232323" stroke="none" stroke-width="0" stroke-linecap="butt"/><path d="M228.44153,194.835v-1.44643h22.71726v1.44643z" fill="#232323" stroke="none" stroke-width="0" stroke-linecap="butt"/><path d="M220.78576,191.16844h35.71428" fill="none" stroke="#1b1b1b" stroke-width="1.5" stroke-linecap="round"/><path d="M256.35715,166.16843h-35.71428" fill="none" stroke="#1b1b1b" stroke-width="1.5" stroke-linecap="round"/><path d="M298.81251,175.71429v-6.79762h0.875v6.79762z" fill="#1b1b1b" stroke="none" stroke-width="NaN" stroke-linecap="butt"/><path d="M298.91251,188.71429v-6.79762h0.875v6.79762z" fill="#1b1b1b" stroke="none" stroke-width="NaN" stroke-linecap="butt"/><path d="M295.03148,188.69464v-6.81818h3.90909v6.81819z" fill="#f10000" stroke="none" stroke-width="0" stroke-linecap="butt"/><path d="M294.95455,175.69464v-6.81818h3.90909v6.81819z" fill="#f10000" stroke="none" stroke-width="0" stroke-linecap="butt"/><path d="M294.96155,175.69697v-2.61539h4v2.61539z" fill="url(#color-25)" stroke="none" stroke-width="0" stroke-linecap="butt"/><path d="M294.96155,188.69697v-2.61539h4v2.61539z" fill="url(#color-26)" stroke="none" stroke-width="0" stroke-linecap="butt"/><path d="M256.35001,176.18158v-7.7h2.5v7.7z" fill="url(#color-27)" stroke="none" stroke-width="0" stroke-linecap="butt"/><path d="M256.35001,189.19825v-7.7h2.5v7.7z" fill="url(#color-28)" stroke="none" stroke-width="0" stroke-linecap="butt"/></g></g></g></svg>