<svg version="1.1" xmlns="http://www.w3.org/2000/svg" xmlns:xlink="http://www.w3.org/1999/xlink" width="176" height="135" viewBox="0,0,176,135"><g transform="translate(-152,-112.5)"><g data-paper-data="{&quot;isPaintingLayer&quot;:true}" fill-rule="nonzero" stroke-linejoin="miter" stroke-miterlimit="10" stroke-dasharray="" stroke-dashoffset="0" style="mix-blend-mode: normal"><path d="M197.52385,196.58735v-33.1747c0,0 -0.50405,0 1.41395,0c13.9891,0 74.06966,0 82.1242,0c1.85321,0 1.43978,0 1.43978,0v33.1747c0,0 0.09634,0 -1.75687,0c-7.9354,0 -66.49482,0 -81.49002,0c-2.31194,0 -1.73104,0 -1.73104,0z" fill="#004148" stroke="#00e5ff" stroke-width="5" stroke-linecap="butt"/><path d="M152,247.5v-135h176v135z" fill="none" stroke="none" stroke-width="0" stroke-linecap="butt"/><path d="M223.18747,187.46087c-0.80208,0 -1.5625,-0.125 -2.28125,-0.375c-0.71875,-0.25 -1.34896,-0.59896 -1.89062,-1.04687c-0.53125,-0.44792 -0.92187,-0.96354 -1.17187,-1.54687c-0.125,-0.26042 -0.125,-0.5 0,-0.71875c0.13542,-0.22917 0.35938,-0.375 0.67188,-0.4375c0.22917,-0.05208 0.44792,-0.01562 0.65625,0.10938c0.21875,0.11458 0.38542,0.29167 0.5,0.53125c0.14583,0.3125 0.39063,0.59896 0.73438,0.85938c0.34375,0.26042 0.75521,0.47396 1.23438,0.64063c0.48958,0.15625 1.00521,0.23438 1.54688,0.23438c0.59375,0 1.14063,-0.09375 1.64063,-0.28125c0.51042,-0.1875 0.91667,-0.45833 1.21875,-0.8125c0.3125,-0.35417 0.46875,-0.79167 0.46875,-1.3125c0,-0.66667 -0.26042,-1.26042 -0.78125,-1.78125c-0.51042,-0.52083 -1.35417,-0.84375 -2.53125,-0.96875c-1.54167,-0.14583 -2.75521,-0.59896 -3.64062,-1.35937c-0.88542,-0.76042 -1.32812,-1.69792 -1.32812,-2.8125c0,-0.82292 0.22917,-1.52083 0.6875,-2.09375c0.45833,-0.57292 1.08333,-1.00521 1.875,-1.29687c0.79167,-0.30208 1.67188,-0.45312 2.64063,-0.45312c0.76042,0 1.42188,0.10417 1.98438,0.3125c0.57292,0.20833 1.06771,0.5 1.48438,0.875c0.42708,0.375 0.79688,0.81771 1.10938,1.32813c0.16667,0.27083 0.23438,0.53125 0.20313,0.78125c-0.02083,0.23958 -0.14062,0.42708 -0.35937,0.5625c-0.22917,0.14583 -0.48437,0.17708 -0.76562,0.09375c-0.27083,-0.08333 -0.47396,-0.24479 -0.60937,-0.48437c-0.19792,-0.36458 -0.44271,-0.67187 -0.73437,-0.92187c-0.28125,-0.25 -0.61458,-0.44271 -1,-0.57812c-0.38542,-0.14583 -0.83854,-0.21875 -1.35937,-0.21875c-0.92708,-0.01042 -1.70312,0.16146 -2.32812,0.51563c-0.61458,0.35417 -0.92187,0.89583 -0.92187,1.625c0,0.375 0.09375,0.73438 0.28125,1.07813c0.19792,0.34375 0.55208,0.64063 1.0625,0.89063c0.52083,0.25 1.26563,0.42188 2.23438,0.51563c1.47917,0.14583 2.63021,0.59896 3.45313,1.35938c0.83333,0.75 1.25,1.73958 1.25,2.96875c0,0.70833 -0.14583,1.32292 -0.4375,1.84375c-0.29167,0.52083 -0.68229,0.96354 -1.17187,1.32813c-0.48958,0.35417 -1.05208,0.61979 -1.6875,0.79688c-0.625,0.16667 -1.27083,0.25 -1.9375,0.25zM235.46048,187.3515c-0.90625,0 -1.72396,-0.22396 -2.45312,-0.67187c-0.71875,-0.45833 -1.28646,-1.07812 -1.70312,-1.85937c-0.41667,-0.78125 -0.625,-1.66146 -0.625,-2.64062c0,-0.97917 0.22396,-1.85937 0.67188,-2.64062c0.45833,-0.79167 1.07292,-1.41146 1.84375,-1.85937c0.78125,-0.45833 1.66146,-0.6875 2.64063,-0.6875c0.96875,0 1.83854,0.22917 2.60938,0.6875c0.77083,0.44792 1.38021,1.06771 1.82813,1.85938c0.45833,0.78125 0.6875,1.66146 0.6875,2.64063h-0.73437c0,0.97917 -0.20833,1.85938 -0.625,2.64063c-0.41667,0.78125 -0.98437,1.40104 -1.70312,1.85938c-0.71875,0.44792 -1.53125,0.67188 -2.4375,0.67188zM235.83548,185.664c0.625,0 1.1875,-0.15104 1.6875,-0.45312c0.5,-0.30208 0.89063,-0.71875 1.17188,-1.25c0.29167,-0.53125 0.4375,-1.125 0.4375,-1.78125c0,-0.66667 -0.14583,-1.26562 -0.4375,-1.79687c-0.28125,-0.53125 -0.67187,-0.94792 -1.17187,-1.25c-0.5,-0.30208 -1.0625,-0.45312 -1.6875,-0.45312c-0.625,0 -1.19271,0.15104 -1.70312,0.45313c-0.5,0.30208 -0.89583,0.71875 -1.1875,1.25c-0.29167,0.53125 -0.4375,1.13021 -0.4375,1.79688c0,0.65625 0.14583,1.25 0.4375,1.78125c0.29167,0.53125 0.6875,0.94792 1.1875,1.25c0.51042,0.30208 1.07813,0.45313 1.70313,0.45313zM240.00735,187.289c-0.27083,0 -0.5,-0.08854 -0.6875,-0.26562c-0.17708,-0.17708 -0.26562,-0.40625 -0.26562,-0.6875v-2.84375l0.35938,-1.98437l1.54688,0.67188v4.15625c0,0.28125 -0.09375,0.51042 -0.28125,0.6875c-0.17708,0.17708 -0.40104,0.26563 -0.67187,0.26563zM246.68096,187.25775c-0.38542,0 -0.68229,-0.20833 -0.89062,-0.625l-3.95312,-8.32812c-0.10417,-0.21875 -0.11458,-0.42708 -0.03125,-0.625c0.08333,-0.20833 0.24479,-0.36979 0.48438,-0.48437c0.20833,-0.11458 0.42188,-0.13021 0.64063,-0.04687c0.21875,0.07292 0.38021,0.21354 0.48438,0.42188l3.70313,7.96875h-0.89062l3.65625,-7.96875c0.10417,-0.20833 0.27083,-0.34896 0.5,-0.42187c0.22917,-0.08333 0.46354,-0.06771 0.70313,0.04688c0.22917,0.10417 0.38021,0.26042 0.45313,0.46875c0.07292,0.20833 0.05729,0.42188 -0.04687,0.64063l-3.95312,8.32813c-0.1875,0.41667 -0.47396,0.625 -0.85937,0.625zM257.875,187.3515c-1.03125,0 -1.94792,-0.21875 -2.75,-0.65625c-0.80208,-0.44792 -1.43229,-1.05729 -1.89062,-1.82812c-0.44792,-0.78125 -0.67187,-1.67708 -0.67187,-2.6875c0,-1.02083 0.21354,-1.91667 0.64063,-2.6875c0.42708,-0.78125 1.02083,-1.39062 1.78125,-1.82812c0.76042,-0.44792 1.63021,-0.67187 2.60938,-0.67187c0.97917,0 1.8125,0.21354 2.5,0.64063c0.69792,0.42708 1.22917,1.02083 1.59375,1.78125c0.375,0.75 0.5625,1.61458 0.5625,2.59375c0,0.23958 -0.08333,0.4375 -0.25,0.59375c-0.15625,0.15625 -0.35937,0.23438 -0.60937,0.23438h-7.51562v-1.5h7.45313l-0.76562,0.53125c-0.01042,-0.625 -0.13542,-1.18229 -0.375,-1.67187c-0.22917,-0.48958 -0.5625,-0.875 -1,-1.15625c-0.4375,-0.29167 -0.96875,-0.4375 -1.59375,-0.4375c-0.70833,0 -1.3125,0.15625 -1.8125,0.46875c-0.5,0.30208 -0.88542,0.72396 -1.15625,1.26563c-0.26042,0.54167 -0.39062,1.15625 -0.39062,1.84375c0,0.6875 0.15625,1.29688 0.46875,1.82813c0.3125,0.53125 0.73958,0.95313 1.28125,1.26563c0.55208,0.3125 1.18229,0.46875 1.89063,0.46875c0.38542,0 0.78125,-0.06771 1.1875,-0.20312c0.40625,-0.14583 0.73438,-0.3125 0.98438,-0.5c0.1875,-0.13542 0.39063,-0.20833 0.60938,-0.21875c0.21875,-0.01042 0.40625,0.05729 0.5625,0.20313c0.20833,0.17708 0.31771,0.38021 0.32813,0.60938c0.02083,0.21875 -0.07812,0.41146 -0.29687,0.57813c-0.41667,0.33333 -0.94271,0.60938 -1.57812,0.82813c-0.625,0.20833 -1.22396,0.3125 -1.79687,0.3125z" fill="#00e5ff" stroke="#00e5ff" stroke-width="1" stroke-linecap="square"/></g></g></svg>