<svg version="1.1" xmlns="http://www.w3.org/2000/svg" xmlns:xlink="http://www.w3.org/1999/xlink" width="51.88728" height="75.22744" viewBox="0,0,51.88728,75.22744"><defs><radialGradient cx="240.4464" cy="208.21143" r="8.58045" gradientUnits="userSpaceOnUse" id="color-1"><stop offset="0" stop-color="#fff696"/><stop offset="1" stop-color="#fff696" stop-opacity="0"/></radialGradient><radialGradient cx="240.16982" cy="205.428" r="11.9135" gradientUnits="userSpaceOnUse" id="color-2"><stop offset="0" stop-color="#fcd81d"/><stop offset="1" stop-color="#fcd81d" stop-opacity="0"/></radialGradient><radialGradient cx="240.48145" cy="207.64309" r="6.54752" gradientUnits="userSpaceOnUse" id="color-3"><stop offset="0" stop-color="#fff156"/><stop offset="1" stop-color="#fff156" stop-opacity="0"/></radialGradient><linearGradient x1="240.13298" y1="206.57577" x2="240.13298" y2="212.8485" gradientUnits="userSpaceOnUse" id="color-4"><stop offset="0" stop-color="#ff8600"/><stop offset="1" stop-color="#ff8600" stop-opacity="0"/></linearGradient><linearGradient x1="240.2389" y1="204.32198" x2="240.2389" y2="221.18561" gradientUnits="userSpaceOnUse" id="color-5"><stop offset="0" stop-color="#ffffff"/><stop offset="1" stop-color="#ffffff" stop-opacity="0"/></linearGradient><radialGradient cx="240.31078" cy="208.44531" r="6.54752" gradientUnits="userSpaceOnUse" id="color-6"><stop offset="0" stop-color="#ffee35"/><stop offset="1" stop-color="#ffee35" stop-opacity="0"/></radialGradient><linearGradient x1="235.47238" y1="206.02092" x2="244.8282" y2="206.02092" gradientUnits="userSpaceOnUse" id="color-7"><stop offset="0" stop-color="#5f5f5f"/><stop offset="1" stop-color="#4c4c4c"/></linearGradient><linearGradient x1="235.47238" y1="206.02092" x2="244.8282" y2="206.02092" gradientUnits="userSpaceOnUse" id="color-8"><stop offset="0" stop-color="#949494"/><stop offset="1" stop-color="#757575"/></linearGradient><linearGradient x1="235.76087" y1="204.21928" x2="238.7963" y2="204.21928" gradientUnits="userSpaceOnUse" id="color-9"><stop offset="0" stop-color="#4c4c4c"/><stop offset="1" stop-color="#4c4c4c" stop-opacity="0"/></linearGradient><linearGradient x1="244.53905" y1="204.21927" x2="241.50363" y2="204.21927" gradientUnits="userSpaceOnUse" id="color-10"><stop offset="0" stop-color="#5f5f5f"/><stop offset="1" stop-color="#5f5f5f" stop-opacity="0"/></linearGradient><linearGradient x1="239.33154" y1="126.50034" x2="239.33154" y2="220.52639" gradientUnits="userSpaceOnUse" id="color-11"><stop offset="0" stop-color="#a300f2"/><stop offset="1" stop-color="#a300f2" stop-opacity="0"/></linearGradient><linearGradient x1="239.03872" y1="98.48158" x2="239.03872" y2="226.50219" gradientUnits="userSpaceOnUse" id="color-12"><stop offset="0" stop-color="#f1f1f1"/><stop offset="1" stop-color="#f1f1f1" stop-opacity="0"/></linearGradient><linearGradient x1="240.28073" y1="206.11823" x2="240.28073" y2="214.02599" gradientUnits="userSpaceOnUse" id="color-13"><stop offset="0" stop-color="#ff4f00"/><stop offset="1" stop-color="#ff4f00" stop-opacity="0"/></linearGradient><linearGradient x1="240.19699" y1="206.36497" x2="240.19699" y2="211.7108" gradientUnits="userSpaceOnUse" id="color-14"><stop offset="0" stop-color="#ffd400"/><stop offset="1" stop-color="#ffd400" stop-opacity="0"/></linearGradient><linearGradient x1="240.19416" y1="206.00691" x2="240.19416" y2="214.88923" gradientUnits="userSpaceOnUse" id="color-15"><stop offset="0" stop-color="#ffee00"/><stop offset="1" stop-color="#ffee00" stop-opacity="0"/></linearGradient><linearGradient x1="240.10483" y1="205.93396" x2="240.10483" y2="209.82134" gradientUnits="userSpaceOnUse" id="color-16"><stop offset="0" stop-color="#ffee00"/><stop offset="1" stop-color="#ffee00" stop-opacity="0"/></linearGradient><linearGradient x1="242.62112" y1="206.00691" x2="242.62112" y2="209.89429" gradientUnits="userSpaceOnUse" id="color-17"><stop offset="0" stop-color="#ffee00"/><stop offset="1" stop-color="#ffee00" stop-opacity="0"/></linearGradient><linearGradient x1="237.58855" y1="206.00691" x2="237.58855" y2="209.89429" gradientUnits="userSpaceOnUse" id="color-18"><stop offset="0" stop-color="#ffee00"/><stop offset="1" stop-color="#ffee00" stop-opacity="0"/></linearGradient><linearGradient x1="235.4413" y1="203.97262" x2="244.84618" y2="203.97262" gradientUnits="userSpaceOnUse" id="color-19"><stop offset="0" stop-color="#888888"/><stop offset="1" stop-color="#696969"/></linearGradient><linearGradient x1="242.80972" y1="155.72479" x2="242.80972" y2="199.68327" gradientUnits="userSpaceOnUse" id="color-20"><stop offset="0" stop-color="#00de98"/><stop offset="1" stop-color="#00386f"/></linearGradient><linearGradient x1="242.80972" y1="155.72479" x2="242.80972" y2="199.68327" gradientUnits="userSpaceOnUse" id="color-21"><stop offset="0" stop-color="#00de98"/><stop offset="1" stop-color="#00386f"/></linearGradient><linearGradient x1="237.45185" y1="167.87077" x2="242.56388" y2="167.87077" gradientUnits="userSpaceOnUse" id="color-22"><stop offset="0" stop-color="#5f5f5f"/><stop offset="1" stop-color="#a8a8a8"/></linearGradient><linearGradient x1="240.04694" y1="161.54813" x2="240.04694" y2="162.48361" gradientUnits="userSpaceOnUse" id="color-23"><stop offset="0" stop-color="#7a7a7a"/><stop offset="1" stop-color="#646464"/></linearGradient><linearGradient x1="228.18922" y1="178.86467" x2="228.18922" y2="200.90384" gradientUnits="userSpaceOnUse" id="color-24"><stop offset="0" stop-color="#00a29c"/><stop offset="1" stop-color="#00478c"/></linearGradient><linearGradient x1="251.81815" y1="178.86467" x2="251.81815" y2="200.90384" gradientUnits="userSpaceOnUse" id="color-25"><stop offset="0" stop-color="#00a29c"/><stop offset="1" stop-color="#00478c"/></linearGradient><linearGradient x1="239.17156" y1="165.17487" x2="239.34849" y2="165.17487" gradientUnits="userSpaceOnUse" id="color-26"><stop offset="0" stop-color="#00eeec"/><stop offset="1" stop-color="#1cfff4"/></linearGradient><linearGradient x1="233.81444" y1="156.23007" x2="233.81444" y2="200.78563" gradientUnits="userSpaceOnUse" id="color-27"><stop offset="0" stop-color="#00ffad"/><stop offset="1" stop-color="#00478c"/></linearGradient><linearGradient x1="233.81444" y1="156.23007" x2="233.81444" y2="200.78563" gradientUnits="userSpaceOnUse" id="color-28"><stop offset="0" stop-color="#00ffad"/><stop offset="1" stop-color="#00478c"/></linearGradient><linearGradient x1="246.00468" y1="156.22214" x2="246.00468" y2="200.77769" gradientUnits="userSpaceOnUse" id="color-29"><stop offset="0" stop-color="#00ffad"/><stop offset="1" stop-color="#00478c"/></linearGradient><linearGradient x1="246.00468" y1="156.22214" x2="246.00468" y2="200.77769" gradientUnits="userSpaceOnUse" id="color-30"><stop offset="0" stop-color="#00ffad"/><stop offset="1" stop-color="#00478c"/></linearGradient><linearGradient x1="218.96874" y1="178.60527" x2="218.96874" y2="188.09109" gradientUnits="userSpaceOnUse" id="color-31"><stop offset="0" stop-color="#00a29c"/><stop offset="1" stop-color="#007995"/></linearGradient><linearGradient x1="249.44546" y1="193.40468" x2="252.00145" y2="193.40468" gradientUnits="userSpaceOnUse" id="color-32"><stop offset="0" stop-color="#002f5e"/><stop offset="1" stop-color="#002f5e" stop-opacity="0"/></linearGradient><linearGradient x1="249.31553" y1="186.04026" x2="251.96986" y2="186.04026" gradientUnits="userSpaceOnUse" id="color-33"><stop offset="0" stop-color="#dbdbdb"/><stop offset="1" stop-color="#dbdbdb" stop-opacity="0"/></linearGradient><linearGradient x1="237.89009" y1="197.61642" x2="241.9207" y2="197.61642" gradientUnits="userSpaceOnUse" id="color-34"><stop offset="0" stop-color="#8b8b8b"/><stop offset="1" stop-color="#7f7f7f"/></linearGradient><linearGradient x1="238.24398" y1="192.76641" x2="241.56681" y2="192.76641" gradientUnits="userSpaceOnUse" id="color-35"><stop offset="0" stop-color="#8b8b8b"/><stop offset="1" stop-color="#7f7f7f"/></linearGradient><linearGradient x1="260.94623" y1="178.60527" x2="260.94623" y2="188.0911" gradientUnits="userSpaceOnUse" id="color-36"><stop offset="0" stop-color="#00a29c"/><stop offset="1" stop-color="#007995"/></linearGradient><linearGradient x1="218.20996" y1="179.88452" x2="218.20996" y2="192.11529" gradientUnits="userSpaceOnUse" id="color-37"><stop offset="0" stop-color="#009a95"/><stop offset="1" stop-color="#005da9"/></linearGradient><linearGradient x1="261.79741" y1="179.88452" x2="261.79741" y2="192.11529" gradientUnits="userSpaceOnUse" id="color-38"><stop offset="0" stop-color="#009a95"/><stop offset="1" stop-color="#005da9"/></linearGradient><linearGradient x1="217.12101" y1="178.94647" x2="217.12101" y2="192.53621" gradientUnits="userSpaceOnUse" id="color-39"><stop offset="0" stop-color="#007c78"/><stop offset="1" stop-color="#00376d"/></linearGradient><linearGradient x1="262.88641" y1="178.94647" x2="262.88641" y2="192.53621" gradientUnits="userSpaceOnUse" id="color-40"><stop offset="0" stop-color="#007c78"/><stop offset="1" stop-color="#00376d"/></linearGradient><linearGradient x1="230.45972" y1="179.1031" x2="233.80219" y2="179.1031" gradientUnits="userSpaceOnUse" id="color-41"><stop offset="0" stop-color="#00b67c"/><stop offset="1" stop-color="#00b67c" stop-opacity="0"/></linearGradient><linearGradient x1="230.45972" y1="179.1031" x2="233.80219" y2="179.1031" gradientUnits="userSpaceOnUse" id="color-42"><stop offset="0" stop-color="#00847e"/><stop offset="1" stop-color="#00847e" stop-opacity="0"/></linearGradient><linearGradient x1="230.45972" y1="179.1031" x2="233.80219" y2="179.1031" gradientUnits="userSpaceOnUse" id="color-43"><stop offset="0" stop-color="#004183"/><stop offset="1" stop-color="#004183" stop-opacity="0"/></linearGradient><linearGradient x1="230.49241" y1="172.98334" x2="233.76604" y2="172.98334" gradientUnits="userSpaceOnUse" id="color-44"><stop offset="0" stop-color="#009c84"/><stop offset="1" stop-color="#009c84" stop-opacity="0"/></linearGradient><linearGradient x1="230.49241" y1="188.08334" x2="233.76604" y2="188.08334" gradientUnits="userSpaceOnUse" id="color-45"><stop offset="0" stop-color="#00779c"/><stop offset="1" stop-color="#00779c" stop-opacity="0"/></linearGradient><linearGradient x1="224.53542" y1="181.97989" x2="228.90109" y2="181.97989" gradientUnits="userSpaceOnUse" id="color-46"><stop offset="0" stop-color="#01878f"/><stop offset="1" stop-color="#018097"/></linearGradient><linearGradient x1="224.53542" y1="181.97989" x2="228.9011" y2="181.97989" gradientUnits="userSpaceOnUse" id="color-47"><stop offset="0" stop-color="#01878f"/><stop offset="1" stop-color="#018097"/></linearGradient><linearGradient x1="224.58913" y1="185.90967" x2="228.94647" y2="185.90967" gradientUnits="userSpaceOnUse" id="color-48"><stop offset="0" stop-color="#01878f"/><stop offset="1" stop-color="#018097"/></linearGradient><linearGradient x1="224.58913" y1="185.90967" x2="228.94647" y2="185.90967" gradientUnits="userSpaceOnUse" id="color-49"><stop offset="0" stop-color="#01878f"/><stop offset="1" stop-color="#018097"/></linearGradient><linearGradient x1="255.04725" y1="181.97989" x2="250.68158" y2="181.97989" gradientUnits="userSpaceOnUse" id="color-50"><stop offset="0" stop-color="#01878f"/><stop offset="1" stop-color="#018097"/></linearGradient><linearGradient x1="255.04722" y1="181.97989" x2="250.68157" y2="181.97989" gradientUnits="userSpaceOnUse" id="color-51"><stop offset="0" stop-color="#01878f"/><stop offset="1" stop-color="#018097"/></linearGradient><linearGradient x1="254.99352" y1="185.90967" x2="250.6362" y2="185.90967" gradientUnits="userSpaceOnUse" id="color-52"><stop offset="0" stop-color="#01878f"/><stop offset="1" stop-color="#018097"/></linearGradient><linearGradient x1="254.99352" y1="185.90967" x2="250.6362" y2="185.90967" gradientUnits="userSpaceOnUse" id="color-53"><stop offset="0" stop-color="#01878f"/><stop offset="1" stop-color="#018097"/></linearGradient></defs><g transform="translate(-214.05992,-152.67331)"><g data-paper-data="{&quot;isPaintingLayer&quot;:true}" fill-rule="nonzero" stroke-linejoin="miter" stroke-miterlimit="10" stroke-dasharray="" stroke-dashoffset="0" style="mix-blend-mode: normal"><path d="M247.9731,208.21143c0,4.34894 -3.36982,7.87446 -7.5267,7.87446c-4.1569,0 -7.52669,-3.52552 -7.52669,-7.87446c0,-4.34894 3.36982,-7.87446 7.52669,-7.87446c4.1569,0 7.5267,3.52552 7.5267,7.87446z" fill="url(#color-1)" stroke="none" stroke-width="0" stroke-linecap="butt"/><path d="M251.92447,205.428c0,6.82325 -5.26272,12.35459 -11.75464,12.35459c-6.49191,0 -11.75465,-5.53134 -11.75465,-12.35459c0,-6.82325 5.26273,-12.35459 11.75465,-12.35459c6.49191,0 11.75464,5.53134 11.75464,12.35459z" fill="url(#color-2)" stroke="none" stroke-width="0" stroke-linecap="butt"/><g><g fill="none" stroke="#00386f" stroke-width="1" stroke-linecap="round"><g><path d="M241.41154,203.02633h-8.01825l-14.93053,-8.375"/><path d="M241.46683,202.15133h-8.01825l-14.93053,-8.375"/><path d="M241.30092,201.21383h-8.01825l-14.93053,-8.375"/></g><g><path d="M264.75132,194.65133l-14.93052,8.375h-8.01825"/><path d="M264.69602,193.77633l-14.93053,8.375h-8.01825"/><path d="M264.86193,192.83883l-14.93053,8.375h-8.01825"/></g></g><path d="M231.45304,203.4762v-3.42857h19.0858v3.42857z" fill="#00386f" stroke="none" stroke-width="0" stroke-linecap="butt"/></g><path d="M246.22488,207.64309c0,3.09004 -2.57141,5.59501 -5.74343,5.59501c-3.17201,0 -5.74343,-2.50497 -5.74343,-5.59501c0,-3.09004 2.57141,-5.59501 5.74343,-5.59501c3.17201,0 5.74343,2.50498 5.74343,5.59501z" fill="url(#color-3)" stroke="none" stroke-width="0" stroke-linecap="butt"/><path d="M236.55545,212.8485v-6.27273c0,0 1.69633,-0.45454 3.57757,-0.45454c2.00684,0 3.57758,0.45454 3.57758,0.45454v6.27273z" fill="url(#color-4)" stroke="none" stroke-width="0" stroke-linecap="butt"/><path d="M242.82794,204.32198l-2.58904,16.86364l-2.58904,-16.86364z" fill="url(#color-5)" stroke="#000000" stroke-width="0" stroke-linecap="round"/><path d="M246.05421,208.44531c0,3.09004 -2.57141,5.59501 -5.74343,5.59501c-3.172,0 -5.74343,-2.50497 -5.74343,-5.59501c0,-3.09004 2.57141,-5.59501 5.74343,-5.59501c3.172,0 5.74343,2.50497 5.74343,5.59501z" fill="url(#color-6)" stroke="none" stroke-width="0" stroke-linecap="butt"/><path d="M244.8282,206.02092c0,0.46442 -2.09436,0.84091 -4.67792,0.84091c-2.58354,0 -4.67792,-0.37649 -4.67792,-0.84091c0,-0.46442 2.09436,-0.84091 4.67792,-0.84091c2.58354,0 4.67792,0.37649 4.67792,0.84091z" fill="url(#color-7)" stroke="url(#color-8)" stroke-width="0.5" stroke-linecap="butt"/><path d="M235.76087,206.08134v-3.72414h3.03542l0.03572,4.2069c0,0 -1.19225,-0.04387 -1.72743,-0.12799c-0.48325,-0.07596 -1.3437,-0.35477 -1.3437,-0.35477z" fill="url(#color-9)" stroke="none" stroke-width="0" stroke-linecap="butt"/><path d="M243.19531,206.43611c-0.53516,0.08413 -1.72743,0.12799 -1.72743,0.12799l0.03572,-4.2069h3.03543v3.72414c0,0 -0.86047,0.2788 -1.3437,0.35477z" data-paper-data="{&quot;index&quot;:null}" fill="url(#color-10)" stroke="none" stroke-width="0" stroke-linecap="butt"/><g stroke="#000000" stroke-width="0" stroke-linecap="round"><path d="M242.76452,206.62112l-2.46056,14.93246l-2.89674,-14.93246z" fill="url(#color-11)"/><path d="M243.71289,207.56954l-3.35014,20.33121l-3.94402,-20.33121z" fill="url(#color-12)"/><path d="M241.63362,206.11823c0,0 2.42795,0.54702 2.34498,2.41626c-0.19824,4.46815 -4.05867,5.49149 -4.05867,5.49149c0,0 -3.25692,-0.90981 -3.33713,-5.49149c-0.03415,-1.95089 2.25481,-2.41626 2.25481,-2.41626z" fill="url(#color-13)"/><path d="M241.11159,206.36497c0,0 1.64135,0.3698 1.58528,1.63345c-0.13401,3.02057 -2.74376,3.71239 -2.74376,3.71239c0,0 -2.20175,-0.61506 -2.25599,-3.71239c-0.02308,-1.31885 1.52432,-1.63345 1.52432,-1.63345z" fill="url(#color-14)"/><path d="M241.71379,206.00691c0,0 2.72715,0.61444 2.63401,2.71404c-0.22264,5.01881 -4.55886,6.16828 -4.55886,6.16828c0,0 -3.65829,-1.02195 -3.74842,-6.16828c-0.03836,-2.19132 2.53271,-2.71404 2.53271,-2.71404z" fill="url(#color-15)"/><path d="M240.76991,205.93396c0,0 1.19354,0.26891 1.15277,1.18781c-0.09745,2.1965 -1.9952,2.69957 -1.9952,2.69957c0,0 -1.60109,-0.44726 -1.64051,-2.69957c-0.01679,-0.95904 1.10844,-1.18781 1.10844,-1.18781z" fill="url(#color-16)"/><path d="M243.28621,206.00691c0,0 1.19356,0.26892 1.15277,1.18781c-0.09745,2.1965 -1.99522,2.69957 -1.99522,2.69957c0,0 -1.60109,-0.44726 -1.64051,-2.69957c-0.01678,-0.95904 1.10847,-1.18781 1.10847,-1.18781z" fill="url(#color-17)"/><path d="M238.25362,206.00691c0,0 1.19356,0.26892 1.15277,1.18781c-0.09745,2.1965 -1.99522,2.69957 -1.99522,2.69957c0,0 -1.60109,-0.44726 -1.64051,-2.69957c-0.01678,-0.95904 1.10847,-1.18781 1.10847,-1.18781z" fill="url(#color-18)"/></g><path d="M241.21122,156.79167v-3.875h2.89873v3.875z" fill="#00cd94" stroke="none" stroke-width="0" stroke-linecap="butt"/><path d="M235.4413,206.10898v-4.27273c0,0 2.52475,-0.51228 4.70242,-0.5c2.17689,0.01228 4.70242,0.5 4.70242,0.5v4.27273c0,0 -2.6086,-0.63636 -4.74765,-0.63636c-2.1692,0 -4.6572,0.63636 -4.6572,0.63636z" fill="url(#color-19)" stroke="none" stroke-width="0" stroke-linecap="butt"/><path d="M244.09289,205.54808v-3.68" fill="none" stroke="#656565" stroke-width="0.5" stroke-linecap="round"/><path d="M242.93899,201.66808v3.64" fill="none" stroke="#6a6a6a" stroke-width="0.5" stroke-linecap="round"/><path d="M241.82484,205.18808l0.03978,-3.64" fill="none" stroke="#6f6f6f" stroke-width="0.5" stroke-linecap="round"/><path d="M240.75054,201.46808l-0.07959,3.68" fill="none" stroke="#747474" stroke-width="0.5" stroke-linecap="round"/><path d="M239.55686,205.18808l0.03978,-3.76" fill="none" stroke="#787878" stroke-width="0.5" stroke-linecap="round"/><path d="M238.48251,201.50808v3.76" fill="none" stroke="#7b7b7b" stroke-width="0.5" stroke-linecap="round"/><path d="M248.37163,200.33699l13.94139,-7.77778" fill="none" stroke="#00386f" stroke-width="2.5" stroke-linecap="round"/><path d="M234.39509,198.89449l0.15985,-37.58147l5.65065,-5.42857v15.66277c0,0 0.70807,1.92095 2.63404,1.92095c1.89231,0 2.59282,-1.79051 2.59282,-1.79051v-15.95287l5.7919,5.42857l-0.19053,37.7619l-2.60595,0.71141l-10.2355,0.0566z" fill="url(#color-20)" stroke="url(#color-21)" stroke-width="2.5" stroke-linecap="round"/><path d="M238.64945,153.04728c0,0 0.77848,0.91199 1.36738,1.36364c0.58889,0.45165 0.92262,0.53754 1.28694,0.63636c0.36432,0.09883 0.7239,-0.09091 0.7239,-0.09091l1.20652,16.90909l-7.48035,1.36364z" fill="#676767" stroke="#ff0000" stroke-width="0" stroke-linecap="round"/><g fill="none" stroke-linecap="round"><g stroke="#b6b6b6" stroke-width="2.5"><path d="M223.57212,179.46937v-4.09091"/></g><path d="M223.9743,175.53755l-0.04021,4.18182" stroke="#c2c2c2" stroke-width="1.5"/></g><g data-paper-data="{&quot;index&quot;:null}" fill="none" stroke-linecap="round"><g stroke="#b6b6b6" stroke-width="2.5"><path d="M257.28593,179.46937v-4.09091"/></g><path d="M256.88377,175.53755l0.04021,4.18182" stroke="#c2c2c2" stroke-width="1.5"/></g><path d="M237.45185,173.76976v-11.79798h5.11201v11.79798z" fill="url(#color-22)" stroke="none" stroke-width="0" stroke-linecap="butt"/><path d="M241.95271,162.01588c0,0.25833 -0.85323,0.46774 -1.90575,0.46774c-1.05252,0 -1.90576,-0.20941 -1.90576,-0.46774c0,-0.25833 0.85324,-0.46775 1.90576,-0.46775c1.05252,0 1.90575,0.20942 1.90575,0.46775z" fill="url(#color-23)" stroke="#7e7e7e" stroke-width="0.5" stroke-linecap="butt"/><path d="M217.33163,194.71383v-1.9375h0.94007v1.9375z" fill="#00386f" stroke="none" stroke-width="0" stroke-linecap="butt"/><path d="M216.71107,178.86467l23.33332,0.125l-0.0418,21.91417l-8.04984,-0.03917l-15.61869,-8.625z" fill="url(#color-24)" stroke="#b6b6b6" stroke-width="0" stroke-linecap="round"/><path d="M217.40053,180.24806v-1.35714h1.70635v1.35714z" fill="#00bcfb" stroke="none" stroke-width="0" stroke-linecap="butt"/><path d="M238.88786,180.31949v19.28572" fill="none" stroke="#3195b6" stroke-width="2.5" stroke-linecap="round"/><path d="M237.8135,183.74806v-4.71428h2.21193v4.71428z" fill="#f00000" stroke="none" stroke-width="0" stroke-linecap="butt"/><path d="M237.8135,200.81949v-6h2.21193v6z" fill="#0098ca" stroke="none" stroke-width="0" stroke-linecap="butt"/><path d="M230.02041,191.90133v-7.1875" fill="none" stroke="#00bcfb" stroke-width="1" stroke-linecap="round"/><path d="M231.62404,192.46383l0.11062,-8.6875" fill="none" stroke="#f50000" stroke-width="1" stroke-linecap="round"/><path d="M221.61506,189.08883v-7.9375" fill="none" stroke="#006c8a" stroke-width="1" stroke-linecap="round"/><path d="M226.92371,193.96383v-11.875" fill="none" stroke="#005b82" stroke-width="1" stroke-linecap="round"/><path d="M234.38898,195.46383l0.05529,-11.1875" fill="none" stroke="#fa0000" stroke-width="1" stroke-linecap="round"/><path d="M224.54588,194.33883l0.11062,-5.125" fill="none" stroke="#005b82" stroke-width="1" stroke-linecap="round"/><path d="M236.60092,192.40133l-0.0553,-11" fill="none" stroke="#fa0000" stroke-width="1" stroke-linecap="round"/><path d="M262.70561,194.71383v-1.9375h0.94007v1.9375z" fill="#00386f" stroke="none" stroke-width="0" stroke-linecap="butt"/><path d="M263.67333,192.23967l-15.61869,8.625l-8.04984,0.03917l-0.0418,-21.91417l23.33332,-0.125z" fill="url(#color-25)" stroke="#b6b6b6" stroke-width="0" stroke-linecap="round"/><path d="M260.90051,180.24806v-1.35714h1.70635v1.35714z" fill="#00b1ec" stroke="none" stroke-width="0" stroke-linecap="butt"/><path d="M241.11955,199.60521v-19.28572" fill="none" stroke="#3195b6" stroke-width="2.5" stroke-linecap="round"/><path d="M239.98196,183.74806v-4.71428h2.21192v4.71428z" fill="#f00000" stroke="none" stroke-width="0" stroke-linecap="butt"/><path d="M239.98196,200.81949v-6h2.21192v6z" fill="#0098ca" stroke="none" stroke-width="0" stroke-linecap="butt"/><path d="M249.98703,191.90133v-7.1875" fill="none" stroke="#00bcfb" stroke-width="1" stroke-linecap="round"/><path d="M248.38339,192.46383l-0.11061,-8.6875" fill="none" stroke="#f50000" stroke-width="1" stroke-linecap="round"/><path d="M258.39235,189.08883v-7.9375" fill="none" stroke="#006c8a" stroke-width="1" stroke-linecap="round"/><path d="M253.08374,182.08883v11.875" fill="none" stroke="#005b82" stroke-width="1" stroke-linecap="round"/><path d="M245.56318,184.27633l0.0553,11.1875" fill="none" stroke="#fa0000" stroke-width="1" stroke-linecap="round"/><path d="M255.35094,189.21383l0.11062,5.125" fill="none" stroke="#005b82" stroke-width="1" stroke-linecap="round"/><path d="M243.40654,192.40133l0.0553,-11" fill="none" stroke="#fa0000" stroke-width="1" stroke-linecap="round"/><path d="M240.7436,167.61264v-4.77419h0.22832v4.77419z" fill="#1dfffb" stroke="none" stroke-width="0" stroke-linecap="butt"/><path d="M241.30374,153.41091v17.45455c0,0 -0.36429,0.95908 -1.36738,0.90909c-0.98014,-0.04885 -1.20652,-0.90909 -1.20652,-0.90909l-0.08044,-17.45455" fill="none" stroke="#b1b1b1" stroke-width="1" stroke-linecap="round"/><path d="M231.49184,198.72782l0.15985,-37.58147l5.65065,-5.42857v15.66277c0,0 0.70807,1.92095 2.63404,1.92095c1.89231,0 2.59281,-1.79051 2.59281,-1.79051v-15.95287l5.7919,5.42857l-0.19052,37.7619l-2.60595,0.71141l-10.2355,0.0566z" fill="#ffffff" stroke="#ffffff" stroke-width="2.5" stroke-linecap="round"/><path d="M235.68232,177.21421l0.09831,18.33333" fill="none" stroke="#eeeeee" stroke-width="1" stroke-linecap="round"/><path d="M246.00465,177.21421l0.09831,11.77777" fill="none" stroke="#eeeeee" stroke-width="1" stroke-linecap="round"/><path d="M243.54698,184.76976l0.19661,10.66666" fill="none" stroke="#eeeeee" stroke-width="1" stroke-linecap="round"/><path d="M237.55017,199.54754v-13.33333" fill="none" stroke="#eeeeee" stroke-width="1" stroke-linecap="round"/><path d="M242.36727,173.65865l-0.09831,7" fill="none" stroke="#eeeeee" stroke-width="1" stroke-linecap="round"/><path d="M234.99418,159.3253l-0.19662,13.77777" fill="none" stroke="#eeeeee" stroke-width="1" stroke-linecap="round"/><path d="M247.28268,160.3253l-0.19661,12.11111" fill="none" stroke="#fa0000" stroke-width="1" stroke-linecap="round"/><path d="M244.92328,160.99198l-0.29492,13" fill="none" stroke="#eeeeee" stroke-width="1" stroke-linecap="round"/><path d="M239.17156,167.52489v-4.7h0.17695v4.7z" fill="url(#color-26)" stroke="none" stroke-width="0" stroke-linecap="butt"/><path d="M239.94447,167.70942v-4.80645h0.19979v4.80645z" fill="#1dfffb" stroke="none" stroke-width="0" stroke-linecap="butt"/><path d="M238.53381,175.83195l1.25171,-1.05738l1.33248,0.91167v7.72276l-1.2921,0.54738l-1.2921,-0.6931z" fill="#8cffff" stroke="#7e7e7e" stroke-width="0.5" stroke-linecap="round"/><path d="M241.02476,175.69407l-1.27186,1.125l-1.16127,-0.875" fill="none" stroke="#55eded" stroke-width="0.5" stroke-linecap="round"/><path d="M238.81282,183.19407l0.88478,-0.6875l1.10596,0.8125" fill="none" stroke="#55eded" stroke-width="0.5" stroke-linecap="round"/><path d="M239.97409,183.63157l-0.16589,-0.5625l-0.0553,-6.5625l0.0553,-1.5" fill="none" stroke="#4fdada" stroke-width="0.5" stroke-linecap="round"/><path d="M238.53381,175.83195l1.25171,-1.05738l1.33248,0.91167v7.72276l-1.2921,0.54738l-1.2921,-0.6931z" fill="none" stroke="#7e7e7e" stroke-width="0.5" stroke-linecap="round"/><path d="M240.03597,176.94953l0.82157,-0.82143l0.02106,6.9881l-0.86371,-0.78572z" fill="#5cffff" stroke="none" stroke-width="0" stroke-linecap="round"/><path d="M240.02172,182.99549l0.61289,0.37012l-0.45666,0.13243z" fill="#57f3f3" stroke="#56eeee" stroke-width="0" stroke-linecap="round"/><path d="M239.55365,182.32109l-0.82158,0.66353l-0.02106,-6.80388l0.86371,0.78572z" data-paper-data="{&quot;index&quot;:null}" fill="#87ffff" stroke="none" stroke-width="0" stroke-linecap="round"/><path d="M236.59734,200.90477v-10.7h3.36213v10.7z" fill="#2d2d2d" stroke="none" stroke-width="0" stroke-linecap="butt"/><path d="M239.87099,200.90477v-10.7h3.36213v10.7z" data-paper-data="{&quot;index&quot;:null}" fill="#2d2d2d" stroke="none" stroke-width="0" stroke-linecap="butt"/><path d="M239.71004,183.62961l-0.66621,-0.34296l0.54303,-0.37011z" data-paper-data="{&quot;index&quot;:null}" fill="#5afbfb" stroke="#56eeee" stroke-width="0" stroke-linecap="round"/><path d="M235.38738,156.23007l-0.09831,13.44444l-1.76953,1.88889v11.77778l3.53908,3.77778v13.66667h-5.01371l-1.37631,-0.66667l-0.09832,-39.33333z" fill="url(#color-27)" stroke="url(#color-28)" stroke-width="0.5" stroke-linecap="round"/><path d="M249.24884,160.77767l-0.09831,39.33333l-1.37632,0.66667h-5.0137v-13.66667l3.53908,-3.77777v-11.77778l-1.76953,-1.88889l-0.09831,-13.44444z" data-paper-data="{&quot;index&quot;:null}" fill="url(#color-29)" stroke="url(#color-30)" stroke-width="0.5" stroke-linecap="round"/><path d="M230.36877,192.93828l-13.27159,-7.6l-0.08848,-6.44445l13.36006,0.07778z" fill="#ffffff" stroke="#ffffff" stroke-width="0.5" stroke-linecap="round"/><path d="M221.19418,188.09109l-4.3549,-2.49384l-0.09599,-6.99198l4.35696,0.02536z" fill="url(#color-31)" stroke="#ff9b00" stroke-width="0" stroke-linecap="round"/><path d="M249.44546,199.96024v-13.11111h2.556v11.74943z" fill="url(#color-32)" stroke="none" stroke-width="0" stroke-linecap="butt"/><path d="M249.64698,178.97161l13.36007,-0.07778l-0.08848,6.44445l-13.27159,7.6z" data-paper-data="{&quot;index&quot;:null}" fill="#ffffff" stroke="#ffffff" stroke-width="0" stroke-linecap="round"/><path d="M237.92449,184.73335v-12.5h4.24691v12.5z" fill="#ffffff" stroke="none" stroke-width="0" stroke-linecap="butt"/><g stroke="#8abcd0" stroke-width="0.5" stroke-linecap="round"><path d="M241.15272,180.55772c0,0 -0.4938,1.7675 -1.10202,1.7675c-0.60823,0 -1.10202,-1.7675 -1.10202,-1.7675l0.01576,-4.93504c0,0 0.49381,-1.7675 1.10202,-1.7675c0.60824,0 1.10203,1.7675 1.10203,1.7675z" fill="#97cee4"/><path d="M239.07041,176.19633h1.90352" fill="none"/><path d="M239.07041,177.58407h1.817" fill="none"/><path d="M238.98385,179.80444h1.99004" fill="none"/><path d="M240.89852,178.39883h-1.99004" fill="none"/></g><path d="M249.31553,193.34383v-14.60714h2.65432v13.17857z" fill="url(#color-33)" stroke="none" stroke-width="0" stroke-linecap="butt"/><path d="M237.89009,200.28308v-5.33334h4.03062v5.33334z" fill="url(#color-34)" stroke="none" stroke-width="0" stroke-linecap="butt"/><path d="M238.24398,194.18308v-2.83333h3.32282v2.83333z" fill="url(#color-35)" stroke="none" stroke-width="0" stroke-linecap="butt"/><path d="M239.37699,191.52779v2.41667" fill="none" stroke="#9e9e9e" stroke-width="0.5" stroke-linecap="round"/><path d="M240.48295,193.94446v-2.41667" fill="none" stroke="#9e9e9e" stroke-width="0.5" stroke-linecap="round"/><path d="M258.8147,178.63063l4.35697,-0.02536l-0.096,6.99199l-4.3549,2.49384z" data-paper-data="{&quot;index&quot;:null}" fill="url(#color-36)" stroke="#ff9b00" stroke-width="0" stroke-linecap="round"/><path d="M218.17592,192.11529l0.06806,-12.23077" fill="none" stroke="url(#color-37)" stroke-width="2" stroke-linecap="round"/><path d="M261.83146,192.11529l-0.06806,-12.23077" fill="none" stroke="url(#color-38)" stroke-width="2" stroke-linecap="round"/><path d="M217.12669,178.94647l-0.01134,13.58974" fill="none" stroke="url(#color-39)" stroke-width="0.5" stroke-linecap="round"/><path d="M262.88072,178.94647l0.01134,13.58974" fill="none" stroke="url(#color-40)" stroke-width="0.5" stroke-linecap="round"/><path d="M230.45972,173.00596v-12.34732l3.34246,-3.33333v15.76398z" fill="url(#color-41)" stroke="none" stroke-width="0" stroke-linecap="butt"/><path d="M230.45972,187.83929v-14.83333h3.34246v14.83333z" fill="url(#color-42)" stroke="none" stroke-width="0" stroke-linecap="butt"/><path d="M230.386,200.01975l0.07373,-12.23611l3.34246,0.05834v13.03889h-2.06447z" fill="url(#color-43)" stroke="none" stroke-width="0" stroke-linecap="butt"/><path d="M230.49241,175.23334v-4.5h3.27364v4.5z" fill="url(#color-44)" stroke="none" stroke-width="0" stroke-linecap="butt"/><path d="M230.49241,190.33334v-4.5h3.27364v4.5z" fill="url(#color-45)" stroke="none" stroke-width="0" stroke-linecap="butt"/><g fill="none" stroke-linecap="round"><path d="M215.7258,177.36467v6.8125" stroke="#b6b6b6" stroke-width="2.5"/><g><path d="M215.55992,191.86467v-6.8125" stroke="#b6b6b6" stroke-width="3"/><path d="M215.99803,191.88452v-6.6875" stroke="#c2c2c2" stroke-width="2"/></g><path d="M216.16393,184.19702v-6.6875" stroke="#c2c2c2" stroke-width="1.5"/></g><g data-paper-data="{&quot;index&quot;:null}" fill="none" stroke-linecap="round"><path d="M264.28129,177.36467v6.8125" stroke="#b6b6b6" stroke-width="2.5"/><g><path d="M264.4472,191.86467v-6.8125" stroke="#b6b6b6" stroke-width="3"/><path d="M264.00908,191.88452v-6.6875" stroke="#c2c2c2" stroke-width="2"/></g><path d="M263.84318,184.19702v-6.6875" stroke="#c2c2c2" stroke-width="1.5"/></g><g fill="#01878f" stroke="#d5d5d5" stroke-width="1" stroke-linecap="square"><g><path d="M228.90109,183.64476h-0.62267l-1.63335,-2.06928c-0.12701,-0.16281 -0.24705,-0.27485 -0.36013,-0.33613c-0.11307,-0.06302 -0.22227,-0.09454 -0.3276,-0.09454c-0.14251,0 -0.2695,0.03501 -0.38103,0.10504c-0.11307,0.06828 -0.20214,0.16369 -0.26721,0.28623c-0.06506,0.12255 -0.09758,0.2626 -0.09758,0.42016c0,0.16806 0.03409,0.31687 0.10223,0.44642c0.06816,0.12955 0.15877,0.23021 0.27184,0.30199c0.11307,0.07178 0.23544,0.10504 0.3671,0.09979v0.83244c-0.28655,0 -0.53593,-0.07178 -0.74814,-0.21533c-0.2122,-0.1453 -0.3764,-0.34488 -0.49256,-0.59872c-0.11772,-0.25384 -0.17658,-0.54796 -0.17658,-0.88233c0,-0.30987 0.0612,-0.58734 0.18355,-0.83244c0.12237,-0.24684 0.2912,-0.44029 0.5065,-0.58034c0.21529,-0.1418 0.46235,-0.2127 0.74116,-0.2127c0.20446,0 0.37639,0.03151 0.51579,0.09454c0.13786,0.06127 0.26565,0.15406 0.38337,0.27835c0.11617,0.1243 0.24551,0.27835 0.388,0.46217l1.15241,1.47055l-0.1789,0.07353v-2.37914h0.67379z"/><path d="M228.94647,185.90967c0,0.33516 -0.06278,0.63099 -0.18837,0.88749c-0.12708,0.25479 -0.30411,0.45401 -0.53104,0.59765c-0.22694,0.14364 -0.48869,0.21546 -0.78523,0.21546h-1.34804c-0.29504,0 -0.55603,-0.07182 -0.78297,-0.21546c-0.22694,-0.14364 -0.40396,-0.34285 -0.53104,-0.59765c-0.12708,-0.2565 -0.19064,-0.55233 -0.19064,-0.88749c0,-0.33516 0.06354,-0.63013 0.19064,-0.88493c0.12708,-0.25479 0.3041,-0.45401 0.53104,-0.59765c0.22694,-0.14535 0.48794,-0.21803 0.78297,-0.21803h1.34804c0.29654,0 0.55828,0.07268 0.78523,0.21803c0.22694,0.14364 0.40397,0.34285 0.53104,0.59765c0.12557,0.25479 0.18837,0.54977 0.18837,0.88493zM228.28152,185.90967c0,-0.16758 -0.03479,-0.31892 -0.10439,-0.45401c-0.07112,-0.13509 -0.16643,-0.24197 -0.28594,-0.32063c-0.11952,-0.07866 -0.25266,-0.11799 -0.39943,-0.11799h-1.45017c-0.14827,0 -0.28217,0.03933 -0.4017,0.11799c-0.11952,0.07866 -0.21409,0.18554 -0.28368,0.32063c-0.07112,0.13509 -0.10667,0.28642 -0.10667,0.45401c0,0.16587 0.03555,0.3172 0.10667,0.45401c0.0696,0.13509 0.16416,0.24197 0.28368,0.32063c0.11952,0.07866 0.25342,0.11799 0.4017,0.11799h1.45017c0.14676,0 0.2799,-0.03933 0.39943,-0.11799c0.11952,-0.07866 0.21484,-0.18554 0.28594,-0.32063c0.0696,-0.1368 0.10439,-0.28814 0.10439,-0.45401z"/></g><g data-paper-data="{&quot;index&quot;:null}"><path d="M250.68157,180.31502h0.67379v2.37914l-0.1789,-0.07353l1.15241,-1.47055c0.14251,-0.18382 0.27184,-0.33787 0.388,-0.46217c0.11772,-0.12429 0.24551,-0.21708 0.38337,-0.27835c0.13941,-0.06303 0.31133,-0.09454 0.51579,-0.09454c0.27882,0 0.52587,0.0709 0.74116,0.2127c0.21529,0.14005 0.38413,0.3335 0.5065,0.58034c0.12237,0.2451 0.18355,0.52257 0.18355,0.83244c0,0.33437 -0.05886,0.62849 -0.17658,0.88233c-0.11617,0.25384 -0.28038,0.45342 -0.49256,0.59872c-0.2122,0.14355 -0.46158,0.21533 -0.74812,0.21533v-0.83244c0.13165,0.00525 0.25403,-0.02801 0.3671,-0.09979c0.11307,-0.07178 0.20368,-0.17244 0.27184,-0.30199c0.06816,-0.12955 0.10223,-0.27836 0.10223,-0.44642c0,-0.15756 -0.03252,-0.29761 -0.09758,-0.42016c-0.06506,-0.12254 -0.15412,-0.21795 -0.26719,-0.28623c-0.11153,-0.07003 -0.23854,-0.10504 -0.38103,-0.10504c-0.10532,0 -0.21453,0.03152 -0.3276,0.09454c-0.11307,0.06128 -0.23311,0.17332 -0.36012,0.33613l-1.63335,2.06928h-0.62267z"/><path d="M250.82457,185.02474c0.12708,-0.25479 0.30411,-0.45401 0.53105,-0.59765c0.22694,-0.14535 0.48868,-0.21803 0.78523,-0.21803h1.34805c0.29504,0 0.55603,0.07268 0.78296,0.21803c0.22694,0.14364 0.40397,0.34285 0.53104,0.59765c0.12708,0.25479 0.19064,0.54977 0.19064,0.88493c0,0.33516 -0.06355,0.63099 -0.19064,0.88749c-0.12708,0.25479 -0.30411,0.45401 -0.53104,0.59765c-0.22694,0.14364 -0.48793,0.21546 -0.78296,0.21546h-1.34805c-0.29654,0 -0.55827,-0.07182 -0.78523,-0.21546c-0.22694,-0.14364 -0.40397,-0.34285 -0.53105,-0.59765c-0.12557,-0.2565 -0.18837,-0.55233 -0.18837,-0.88749c0,-0.33516 0.06278,-0.63013 0.18837,-0.88493zM251.40554,186.36367c0.07112,0.13509 0.16643,0.24197 0.28594,0.32063c0.11952,0.07866 0.25265,0.11799 0.39943,0.11799h1.45018c0.14827,0 0.28217,-0.03933 0.4017,-0.11799c0.11952,-0.07866 0.21409,-0.18554 0.28366,-0.32063c0.07112,-0.1368 0.10667,-0.28814 0.10667,-0.45401c0,-0.16758 -0.03555,-0.31892 -0.10667,-0.45401c-0.0696,-0.13509 -0.16416,-0.24197 -0.28366,-0.32063c-0.11952,-0.07866 -0.25342,-0.11799 -0.4017,-0.11799h-1.45018c-0.14676,0 -0.27989,0.03933 -0.39943,0.11799c-0.11952,0.07866 -0.21484,0.18554 -0.28594,0.32063c-0.0696,0.13509 -0.10439,0.28642 -0.10439,0.45401c0,0.16587 0.03479,0.3172 0.10439,0.45401z"/></g></g><g stroke-width="0.25" stroke-linecap="square"><g><path d="M228.90109,183.64476h-0.62267l-1.63335,-2.06928c-0.12701,-0.16281 -0.24705,-0.27485 -0.36013,-0.33613c-0.11307,-0.06302 -0.22227,-0.09454 -0.3276,-0.09454c-0.14251,0 -0.2695,0.03501 -0.38103,0.10504c-0.11307,0.06828 -0.20214,0.16369 -0.26721,0.28623c-0.06506,0.12255 -0.09758,0.2626 -0.09758,0.42016c0,0.16806 0.03409,0.31687 0.10223,0.44642c0.06816,0.12955 0.15877,0.23021 0.27184,0.30199c0.11307,0.07178 0.23544,0.10504 0.3671,0.09979v0.83244c-0.28655,0 -0.53593,-0.07178 -0.74814,-0.21533c-0.2122,-0.1453 -0.3764,-0.34488 -0.49256,-0.59872c-0.11772,-0.25384 -0.17658,-0.54796 -0.17658,-0.88233c0,-0.30987 0.0612,-0.58734 0.18355,-0.83244c0.12237,-0.24684 0.2912,-0.44029 0.5065,-0.58034c0.21529,-0.1418 0.46235,-0.2127 0.74116,-0.2127c0.20446,0 0.37639,0.03151 0.51579,0.09454c0.13786,0.06127 0.26565,0.15406 0.38337,0.27835c0.11617,0.1243 0.24551,0.27835 0.388,0.46217l1.15241,1.47055l-0.1789,0.07353v-2.37914h0.67379z" fill="url(#color-46)" stroke="url(#color-47)"/><path d="M228.94647,185.90967c0,0.33516 -0.06278,0.63099 -0.18837,0.88749c-0.12708,0.25479 -0.30411,0.45401 -0.53104,0.59765c-0.22694,0.14364 -0.48869,0.21546 -0.78523,0.21546h-1.34804c-0.29504,0 -0.55603,-0.07182 -0.78297,-0.21546c-0.22694,-0.14364 -0.40396,-0.34285 -0.53104,-0.59765c-0.12708,-0.2565 -0.19064,-0.55233 -0.19064,-0.88749c0,-0.33516 0.06354,-0.63013 0.19064,-0.88493c0.12708,-0.25479 0.3041,-0.45401 0.53104,-0.59765c0.22694,-0.14535 0.48794,-0.21803 0.78297,-0.21803h1.34804c0.29654,0 0.55828,0.07268 0.78523,0.21803c0.22694,0.14364 0.40397,0.34285 0.53104,0.59765c0.12557,0.25479 0.18837,0.54977 0.18837,0.88493zM228.28152,185.90967c0,-0.16758 -0.03479,-0.31892 -0.10439,-0.45401c-0.07112,-0.13509 -0.16643,-0.24197 -0.28594,-0.32063c-0.11952,-0.07866 -0.25266,-0.11799 -0.39943,-0.11799h-1.45017c-0.14827,0 -0.28217,0.03933 -0.4017,0.11799c-0.11952,0.07866 -0.21409,0.18554 -0.28368,0.32063c-0.07112,0.13509 -0.10667,0.28642 -0.10667,0.45401c0,0.16587 0.03555,0.3172 0.10667,0.45401c0.0696,0.13509 0.16416,0.24197 0.28368,0.32063c0.11952,0.07866 0.25342,0.11799 0.4017,0.11799h1.45017c0.14676,0 0.2799,-0.03933 0.39943,-0.11799c0.11952,-0.07866 0.21484,-0.18554 0.28594,-0.32063c0.0696,-0.1368 0.10439,-0.28814 0.10439,-0.45401z" fill="url(#color-48)" stroke="url(#color-49)"/></g><g data-paper-data="{&quot;index&quot;:null}"><path d="M250.68157,180.31502h0.67379v2.37914l-0.1789,-0.07353l1.15241,-1.47055c0.14251,-0.18382 0.27184,-0.33787 0.388,-0.46217c0.11772,-0.12429 0.24551,-0.21708 0.38337,-0.27835c0.13941,-0.06303 0.31133,-0.09454 0.51579,-0.09454c0.27882,0 0.52587,0.0709 0.74116,0.2127c0.21529,0.14005 0.38413,0.3335 0.5065,0.58034c0.12237,0.2451 0.18355,0.52257 0.18355,0.83244c0,0.33437 -0.05886,0.62849 -0.17658,0.88233c-0.11617,0.25384 -0.28038,0.45342 -0.49256,0.59872c-0.2122,0.14355 -0.46158,0.21533 -0.74812,0.21533v-0.83244c0.13165,0.00525 0.25403,-0.02801 0.3671,-0.09979c0.11307,-0.07178 0.20368,-0.17244 0.27184,-0.30199c0.06816,-0.12955 0.10223,-0.27836 0.10223,-0.44642c0,-0.15756 -0.03252,-0.29761 -0.09758,-0.42016c-0.06506,-0.12254 -0.15412,-0.21795 -0.26719,-0.28623c-0.11153,-0.07003 -0.23854,-0.10504 -0.38103,-0.10504c-0.10532,0 -0.21453,0.03152 -0.3276,0.09454c-0.11307,0.06128 -0.23311,0.17332 -0.36012,0.33613l-1.63335,2.06928h-0.62267z" fill="url(#color-50)" stroke="url(#color-51)"/><path d="M250.82457,185.02474c0.12708,-0.25479 0.30411,-0.45401 0.53105,-0.59765c0.22694,-0.14535 0.48868,-0.21803 0.78523,-0.21803h1.34805c0.29504,0 0.55603,0.07268 0.78296,0.21803c0.22694,0.14364 0.40397,0.34285 0.53104,0.59765c0.12708,0.25479 0.19064,0.54977 0.19064,0.88493c0,0.33516 -0.06355,0.63099 -0.19064,0.88749c-0.12708,0.25479 -0.30411,0.45401 -0.53104,0.59765c-0.22694,0.14364 -0.48793,0.21546 -0.78296,0.21546h-1.34805c-0.29654,0 -0.55827,-0.07182 -0.78523,-0.21546c-0.22694,-0.14364 -0.40397,-0.34285 -0.53105,-0.59765c-0.12557,-0.2565 -0.18837,-0.55233 -0.18837,-0.88749c0,-0.33516 0.06278,-0.63013 0.18837,-0.88493zM251.40554,186.36367c0.07112,0.13509 0.16643,0.24197 0.28594,0.32063c0.11952,0.07866 0.25265,0.11799 0.39943,0.11799h1.45018c0.14827,0 0.28217,-0.03933 0.4017,-0.11799c0.11952,-0.07866 0.21409,-0.18554 0.28366,-0.32063c0.07112,-0.1368 0.10667,-0.28814 0.10667,-0.45401c0,-0.16758 -0.03555,-0.31892 -0.10667,-0.45401c-0.0696,-0.13509 -0.16416,-0.24197 -0.28366,-0.32063c-0.11952,-0.07866 -0.25342,-0.11799 -0.4017,-0.11799h-1.45018c-0.14676,0 -0.27989,0.03933 -0.39943,0.11799c-0.11952,0.07866 -0.21484,0.18554 -0.28594,0.32063c-0.0696,0.13509 -0.10439,0.28642 -0.10439,0.45401c0,0.16587 0.03479,0.3172 0.10439,0.45401z" fill="url(#color-52)" stroke="url(#color-53)"/></g></g><path d="M214.69288,178.7381v-0.92857h2.21192v0.92857z" fill="#ff0000" stroke="none" stroke-width="0" stroke-linecap="butt"/><path d="M263.15871,178.7381v-0.92857h2.21193v0.92857z" fill="#ff0000" stroke="none" stroke-width="0" stroke-linecap="butt"/></g></g></svg>