<svg version="1.1" xmlns="http://www.w3.org/2000/svg" xmlns:xlink="http://www.w3.org/1999/xlink" width="285.21835" height="197.25447" viewBox="0,0,285.21835,197.25447"><defs><linearGradient x1="347.42004" y1="88.31957" x2="347.42004" y2="117.95264" gradientUnits="userSpaceOnUse" id="color-1"><stop offset="0" stop-color="#191919"/><stop offset="1" stop-color="#282828"/></linearGradient><linearGradient x1="347.42004" y1="163.32826" x2="347.42004" y2="192.96137" gradientUnits="userSpaceOnUse" id="color-2"><stop offset="0" stop-color="#191919"/><stop offset="1" stop-color="#282828"/></linearGradient><linearGradient x1="347.42004" y1="221.66839" x2="347.42004" y2="192.03533" gradientUnits="userSpaceOnUse" id="color-3"><stop offset="0" stop-color="#191919"/><stop offset="1" stop-color="#282828"/></linearGradient><linearGradient x1="347.14516" y1="162.94242" x2="347.14516" y2="190.26043" gradientUnits="userSpaceOnUse" id="color-4"><stop offset="0" stop-color="#0f0f0f"/><stop offset="1" stop-color="#0f0f0f" stop-opacity="0"/></linearGradient><linearGradient x1="347.42004" y1="220.66839" x2="347.42004" y2="250.30145" gradientUnits="userSpaceOnUse" id="color-5"><stop offset="0" stop-color="#191919"/><stop offset="1" stop-color="#282828"/></linearGradient><linearGradient x1="347.42004" y1="279.00847" x2="347.42004" y2="249.37541" gradientUnits="userSpaceOnUse" id="color-6"><stop offset="0" stop-color="#191919"/><stop offset="1" stop-color="#282828"/></linearGradient><linearGradient x1="260.37288" y1="94.7372" x2="260.37288" y2="124.37028" gradientUnits="userSpaceOnUse" id="color-7"><stop offset="0" stop-color="#191919"/><stop offset="1" stop-color="#282828"/></linearGradient><linearGradient x1="260.37288" y1="153.07727" x2="260.37288" y2="123.44424" gradientUnits="userSpaceOnUse" id="color-8"><stop offset="0" stop-color="#191919"/><stop offset="1" stop-color="#282828"/></linearGradient><linearGradient x1="260.37288" y1="152.15123" x2="260.37288" y2="181.78434" gradientUnits="userSpaceOnUse" id="color-9"><stop offset="0" stop-color="#191919"/><stop offset="1" stop-color="#282828"/></linearGradient><linearGradient x1="260.37288" y1="210.49137" x2="260.37288" y2="180.85831" gradientUnits="userSpaceOnUse" id="color-10"><stop offset="0" stop-color="#191919"/><stop offset="1" stop-color="#282828"/></linearGradient><linearGradient x1="260.24978" y1="188.80681" x2="260.24978" y2="210.10553" gradientUnits="userSpaceOnUse" id="color-11"><stop offset="0" stop-color="#111111" stop-opacity="0"/><stop offset="1" stop-color="#111111"/></linearGradient><linearGradient x1="260.37288" y1="169.74593" x2="260.37288" y2="199.37899" gradientUnits="userSpaceOnUse" id="color-12"><stop offset="0" stop-color="#191919"/><stop offset="1" stop-color="#282828"/></linearGradient><linearGradient x1="260.37288" y1="228.08601" x2="260.37288" y2="198.45295" gradientUnits="userSpaceOnUse" id="color-13"><stop offset="0" stop-color="#191919"/><stop offset="1" stop-color="#282828"/></linearGradient><linearGradient x1="260.37288" y1="227.15997" x2="260.37288" y2="256.79303" gradientUnits="userSpaceOnUse" id="color-14"><stop offset="0" stop-color="#191919"/><stop offset="1" stop-color="#282828"/></linearGradient><linearGradient x1="260.37288" y1="285.50005" x2="260.37288" y2="255.86701" gradientUnits="userSpaceOnUse" id="color-15"><stop offset="0" stop-color="#191919"/><stop offset="1" stop-color="#282828"/></linearGradient><linearGradient x1="218.70135" y1="94.72784" x2="218.70135" y2="124.36092" gradientUnits="userSpaceOnUse" id="color-16"><stop offset="0" stop-color="#191919"/><stop offset="1" stop-color="#282828"/></linearGradient><linearGradient x1="218.70135" y1="153.06788" x2="218.70135" y2="123.43489" gradientUnits="userSpaceOnUse" id="color-17"><stop offset="0" stop-color="#191919"/><stop offset="1" stop-color="#282828"/></linearGradient><linearGradient x1="218.70135" y1="152.14184" x2="218.70135" y2="181.77502" gradientUnits="userSpaceOnUse" id="color-18"><stop offset="0" stop-color="#191919"/><stop offset="1" stop-color="#282828"/></linearGradient><linearGradient x1="218.70135" y1="210.48204" x2="218.70135" y2="180.84898" gradientUnits="userSpaceOnUse" id="color-19"><stop offset="0" stop-color="#191919"/><stop offset="1" stop-color="#282828"/></linearGradient><linearGradient x1="218.5784" y1="188.79742" x2="218.5784" y2="210.09621" gradientUnits="userSpaceOnUse" id="color-20"><stop offset="0" stop-color="#111111" stop-opacity="0"/><stop offset="1" stop-color="#111111"/></linearGradient><linearGradient x1="218.70135" y1="169.73654" x2="218.70135" y2="199.36966" gradientUnits="userSpaceOnUse" id="color-21"><stop offset="0" stop-color="#191919"/><stop offset="1" stop-color="#282828"/></linearGradient><linearGradient x1="218.70135" y1="228.07669" x2="218.70135" y2="198.44362" gradientUnits="userSpaceOnUse" id="color-22"><stop offset="0" stop-color="#191919"/><stop offset="1" stop-color="#282828"/></linearGradient><linearGradient x1="218.70135" y1="227.15065" x2="218.70135" y2="256.78362" gradientUnits="userSpaceOnUse" id="color-23"><stop offset="0" stop-color="#191919"/><stop offset="1" stop-color="#282828"/></linearGradient><linearGradient x1="218.70135" y1="285.49064" x2="218.70135" y2="255.85767" gradientUnits="userSpaceOnUse" id="color-24"><stop offset="0" stop-color="#191919"/><stop offset="1" stop-color="#282828"/></linearGradient><linearGradient x1="132.58015" y1="88.2456" x2="132.58015" y2="117.87867" gradientUnits="userSpaceOnUse" id="color-25"><stop offset="0" stop-color="#191919"/><stop offset="1" stop-color="#282828"/></linearGradient><linearGradient x1="132.58015" y1="146.58569" x2="132.58015" y2="116.95264" gradientUnits="userSpaceOnUse" id="color-26"><stop offset="0" stop-color="#191919"/><stop offset="1" stop-color="#282828"/></linearGradient><linearGradient x1="132.58015" y1="145.65965" x2="132.58015" y2="175.29276" gradientUnits="userSpaceOnUse" id="color-27"><stop offset="0" stop-color="#191919"/><stop offset="1" stop-color="#282828"/></linearGradient><linearGradient x1="132.58015" y1="203.99978" x2="132.58015" y2="174.36672" gradientUnits="userSpaceOnUse" id="color-28"><stop offset="0" stop-color="#191919"/><stop offset="1" stop-color="#282828"/></linearGradient><linearGradient x1="132.30525" y1="182.31522" x2="132.30525" y2="203.61395" gradientUnits="userSpaceOnUse" id="color-29"><stop offset="0" stop-color="#111111" stop-opacity="0"/><stop offset="1" stop-color="#111111"/></linearGradient><linearGradient x1="132.58015" y1="169.75435" x2="132.58015" y2="192.88741" gradientUnits="userSpaceOnUse" id="color-30"><stop offset="0" stop-color="#191919"/><stop offset="1" stop-color="#282828"/></linearGradient><linearGradient x1="132.58015" y1="221.59443" x2="132.58015" y2="191.96137" gradientUnits="userSpaceOnUse" id="color-31"><stop offset="0" stop-color="#191919"/><stop offset="1" stop-color="#282828"/></linearGradient><linearGradient x1="132.58015" y1="220.66839" x2="132.58015" y2="250.30145" gradientUnits="userSpaceOnUse" id="color-32"><stop offset="0" stop-color="#191919"/><stop offset="1" stop-color="#282828"/></linearGradient><linearGradient x1="132.58015" y1="279.00847" x2="132.58015" y2="249.37541" gradientUnits="userSpaceOnUse" id="color-33"><stop offset="0" stop-color="#191919"/><stop offset="1" stop-color="#282828"/></linearGradient><linearGradient x1="347.42004" y1="146.65965" x2="347.42004" y2="117.02662" gradientUnits="userSpaceOnUse" id="color-34"><stop offset="0" stop-color="#191919"/><stop offset="1" stop-color="#282828"/></linearGradient><linearGradient x1="347.42004" y1="145.73361" x2="347.42004" y2="175.36672" gradientUnits="userSpaceOnUse" id="color-35"><stop offset="0" stop-color="#191919"/><stop offset="1" stop-color="#282828"/></linearGradient><linearGradient x1="347.42004" y1="204.07374" x2="347.42004" y2="174.44068" gradientUnits="userSpaceOnUse" id="color-36"><stop offset="0" stop-color="#191919"/><stop offset="1" stop-color="#282828"/></linearGradient><linearGradient x1="132.30525" y1="207.90979" x2="132.30525" y2="229.20858" gradientUnits="userSpaceOnUse" id="color-37"><stop offset="0" stop-color="#111111" stop-opacity="0"/><stop offset="1" stop-color="#111111"/></linearGradient><linearGradient x1="347.14516" y1="207.98377" x2="347.14516" y2="229.28254" gradientUnits="userSpaceOnUse" id="color-38"><stop offset="0" stop-color="#111111" stop-opacity="0"/><stop offset="1" stop-color="#111111"/></linearGradient><linearGradient x1="133" y1="88.33335" x2="133" y2="146.33333" gradientUnits="userSpaceOnUse" id="color-39"><stop offset="0" stop-color="#0e0e0e"/><stop offset="1" stop-color="#0e0e0e" stop-opacity="0"/></linearGradient><linearGradient x1="348.00001" y1="88.33335" x2="348.00001" y2="146.33334" gradientUnits="userSpaceOnUse" id="color-40"><stop offset="0" stop-color="#0e0e0e"/><stop offset="1" stop-color="#0e0e0e" stop-opacity="0"/></linearGradient><linearGradient x1="133" y1="278.33333" x2="133" y2="220.33334" gradientUnits="userSpaceOnUse" id="color-41"><stop offset="0" stop-color="#0e0e0e"/><stop offset="1" stop-color="#0e0e0e" stop-opacity="0"/></linearGradient><linearGradient x1="347.00001" y1="279.33333" x2="347.00001" y2="221.33334" gradientUnits="userSpaceOnUse" id="color-42"><stop offset="0" stop-color="#0e0e0e"/><stop offset="1" stop-color="#0e0e0e" stop-opacity="0"/></linearGradient></defs><g transform="translate(-97.3909,-88.2456)"><g data-paper-data="{&quot;isPaintingLayer&quot;:true}" fill-rule="nonzero" stroke="none" stroke-width="0" stroke-linecap="butt" stroke-linejoin="miter" stroke-miterlimit="10" stroke-dasharray="" stroke-dashoffset="0" style="mix-blend-mode: normal"><path d="M312.23064,98.21435v-9.26033h70.37854v9.26033z" fill="#131313"/><path d="M312.23064,117.95264v-29.63306h70.37854v29.63307z" fill="url(#color-1)"/><path d="M312.23064,192.96137v-29.63307h70.37854v29.63307z" fill="url(#color-2)"/><path d="M382.60925,192.03533v29.63307h-70.37853v-29.63307z" data-paper-data="{&quot;index&quot;:null}" fill="url(#color-3)"/><path d="M312.23064,197.66873v-8.3343h69.82871v8.3343z" fill="#1a1a1a"/><path d="M312.23064,181.46315v-10.18637h69.82871v10.18637z" fill="#131313"/><path d="M312.23064,213.87426v-9.26033h70.37854v9.26033z" fill="#131313"/><path d="M312.23064,190.26043v-27.31798h69.82871v27.31798z" fill="url(#color-4)"/><path d="M312.23064,250.30145v-29.63307h70.37854v29.63307z" fill="url(#color-5)"/><path d="M382.60925,249.37541v29.63307h-70.37853v-29.63307z" data-paper-data="{&quot;index&quot;:null}" fill="url(#color-6)"/><path d="M244.63033,124.37028v-29.63306h31.48513v29.63307z" fill="url(#color-7)"/><path d="M276.11537,123.44424v29.63306h-31.48513v-29.63306z" data-paper-data="{&quot;index&quot;:null}" fill="url(#color-8)"/><path d="M244.63033,138.07761v-8.3343h31.23916v8.3343z" fill="#131313"/><path d="M244.63033,121.87203v-10.18636h31.23916v10.18636z" fill="#131313"/><path d="M244.63033,154.28314v-9.26033h31.48513v9.26033z" fill="#131313"/><path d="M244.63033,181.78434v-29.63307h31.48513v29.63307z" fill="url(#color-9)"/><path d="M276.11537,180.85831v29.63307h-31.48513v-29.63307z" data-paper-data="{&quot;index&quot;:null}" fill="url(#color-10)"/><path d="M244.63033,186.49172v-8.3343h31.23916v8.3343z" fill="#1a1a1a"/><path d="M244.63033,202.6973v-9.26034h31.48513v9.26034z" fill="#131313"/><path d="M244.63033,210.10553v-21.29877h31.23916v21.29877z" fill="url(#color-11)"/><path d="M244.63033,199.37899v-29.63307h31.48513v29.63307z" fill="url(#color-12)"/><path d="M276.11537,198.45295v29.63306h-31.48513v-29.63306z" data-paper-data="{&quot;index&quot;:null}" fill="url(#color-13)"/><path d="M244.63033,213.08635v-8.3343h31.23916v8.3343z" fill="#131313"/><path d="M244.63033,196.88077v-10.18636h31.23916v10.18636z" fill="#131313"/><path d="M244.63033,229.29188v-9.26033h31.48513v9.26033z" fill="#131313"/><path d="M244.63033,256.79303v-29.63307h31.48513v29.63307z" fill="url(#color-14)"/><path d="M276.11537,255.86701v29.63306h-31.48513v-29.63306z" data-paper-data="{&quot;index&quot;:null}" fill="url(#color-15)"/><path d="M244.63033,270.50032v-8.3343h31.23916v8.3343z" fill="#131313"/><path d="M244.63033,254.29482v-10.18636h31.23916v10.18636z" fill="#131313"/><path d="M244.63033,105.70593v-9.26033h31.48513v9.26033z" fill="#131313"/><path d="M202.95878,124.36092v-29.63307h31.48514v29.63307z" fill="url(#color-16)"/><path d="M234.44391,123.43489v29.63307h-31.48514v-29.63306z" data-paper-data="{&quot;index&quot;:null}" fill="url(#color-17)"/><path d="M202.95878,181.77502v-29.63306h31.48514v29.63306z" fill="url(#color-18)"/><path d="M234.44391,180.84898v29.63306h-31.48514v-29.63306z" data-paper-data="{&quot;index&quot;:null}" fill="url(#color-19)"/><path d="M202.95878,186.48232v-8.3343h31.23916v8.3343z" fill="#1a1a1a"/><path d="M202.95878,202.68791v-9.26033h31.48514v9.26033z" fill="#131313"/><path d="M202.95878,210.09621v-21.29877h31.23916v21.29877z" fill="url(#color-20)"/><path d="M202.95878,199.36966v-29.63307h31.48514v29.63307z" fill="url(#color-21)"/><path d="M234.44391,198.44362v29.63307h-31.48514v-29.63307z" data-paper-data="{&quot;index&quot;:null}" fill="url(#color-22)"/><path d="M202.95878,256.78362v-29.63307h31.48514v29.63307z" fill="url(#color-23)"/><path d="M234.44391,255.85767v29.63307h-31.48514v-29.63307z" data-paper-data="{&quot;index&quot;:null}" fill="url(#color-24)"/><path d="M202.95878,104.69662v-9.26033h31.48514v9.26033z" fill="#131313"/><path d="M97.39104,117.87867v-29.63307h70.37853v29.63307z" fill="url(#color-25)"/><path d="M167.76943,116.95264v29.63307h-70.37853v-29.63307z" data-paper-data="{&quot;index&quot;:null}" fill="url(#color-26)"/><path d="M97.39104,175.29276v-29.63307h70.37853v29.63307z" fill="url(#color-27)"/><path d="M167.76943,174.36672v29.63306h-70.37853v-29.63306z" data-paper-data="{&quot;index&quot;:null}" fill="url(#color-28)"/><path d="M97.39104,180.00007v-8.3343h69.8287v8.3343z" fill="#1a1a1a"/><path d="M97.39104,196.20572v-9.26034h70.37853v9.26034z" fill="#131313"/><path d="M97.39104,203.61395v-21.29877h69.8287v21.29877z" fill="url(#color-29)"/><path d="M97.39104,192.88741v-23.13307h70.37853v23.13307z" fill="url(#color-30)"/><path d="M167.76943,191.96137v29.63306h-70.37853v-29.63306z" data-paper-data="{&quot;index&quot;:null}" fill="url(#color-31)"/><path d="M97.39104,213.8003v-9.26033h70.37853v9.26033z" fill="#131313"/><path d="M97.39104,250.30145v-29.63307h70.37853v29.63307z" fill="url(#color-32)"/><path d="M167.76943,249.37541v29.63307h-70.37853v-29.63307z" data-paper-data="{&quot;index&quot;:null}" fill="url(#color-33)"/><path d="M97.39104,98.21435v-9.26033h70.37853v9.26033z" fill="#131313"/><path d="M382.60925,117.02662v29.63307h-70.37853v-29.63306z" data-paper-data="{&quot;index&quot;:null}" fill="url(#color-34)"/><path d="M312.23064,175.36672v-29.63307h70.37854v29.63307z" fill="url(#color-35)"/><path d="M382.60925,174.44068v29.63307h-70.37853v-29.63307z" data-paper-data="{&quot;index&quot;:null}" fill="url(#color-36)"/><path d="M312.23064,98.45441v-10.18636h69.82871v10.18636z" fill="#131313"/><path d="M244.63033,179.28614v-10.18637h31.23916v10.18637z" fill="#131313"/><g><path d="M97.39104,130.58601v-8.3343h69.8287v8.3343z" fill="#1a1a1a"/><path d="M97.39104,114.38044v-10.18637h69.8287v10.18637z" fill="#131313"/><path d="M97.39104,146.79155v-9.26033h70.37853v9.26033z" fill="#131313"/><path d="M97.39104,171.79446v-10.18636h69.8287v10.18636z" fill="#131313"/><path d="M97.39104,205.59477v-8.3343h69.8287v8.3343z" fill="#131313"/><path d="M97.39104,189.38918v-10.18636h69.8287v10.18636z" fill="#131313"/><path d="M97.39104,229.20858v-21.29877h69.8287v21.29877z" fill="url(#color-37)"/><path d="M97.39104,263.00874v-8.3343h69.8287v8.3343z" fill="#1a1a1a"/><path d="M97.39104,246.80323v-10.18637h69.8287v10.18637z" fill="#131313"/></g><g><path d="M312.23064,229.28254v-21.29877h69.82871v21.29877z" fill="url(#color-38)"/><path d="M312.23064,263.00874v-8.3343h69.82871v8.3343z" fill="#1a1a1a"/><path d="M312.23064,247.63651v-10.18637h69.82871v10.18637z" fill="#131313"/><path d="M312.23064,130.65998v-8.3343h69.82871v8.3343z" fill="#1a1a1a"/><path d="M312.23064,114.45441v-10.18636h69.82871v10.18636z" fill="#131313"/><path d="M312.23064,146.86551v-9.26033h70.37854v9.26033z" fill="#131313"/><path d="M312.23064,188.0741v-8.3343h69.82871v8.3343z" fill="#131313"/><path d="M312.23064,171.86842v-10.18637h69.82871v10.18637z" fill="#131313"/><path d="M312.23064,204.27968v-9.26033h70.37854v9.26033z" fill="#131313"/></g><g fill="#131313"><path d="M202.95878,138.06822v-8.3343h31.23916v8.3343z"/><path d="M202.95878,121.86267v-10.18636h31.23916v10.18636z"/><path d="M202.95878,154.27382v-9.26033h31.48514v9.26033z"/><path d="M202.95878,213.07696v-8.3343h31.23916v8.3343z"/><path d="M202.95878,196.87138v-10.18637h31.23916v10.18637z"/><path d="M202.95878,229.28254v-9.26033h31.48514v9.26033z"/><path d="M202.95878,270.491v-8.3343h31.23916v8.3343z"/><path d="M202.95878,254.28543v-10.18636h31.23916v10.18636z"/><path d="M202.95878,179.27673v-10.18636h31.23916v10.18636z"/></g><path d="M98.50006,146.33333v-58h69v58z" fill="url(#color-39)"/><path d="M313.50001,146.33334v-58h69v58z" fill="url(#color-40)"/><path d="M167.50005,220.33334v58h-69v-58z" data-paper-data="{&quot;index&quot;:null}" fill="url(#color-41)"/><path d="M381.50005,221.33334v58h-69v-58z" data-paper-data="{&quot;index&quot;:null}" fill="url(#color-42)"/></g></g></svg>