<svg version="1.1" xmlns="http://www.w3.org/2000/svg" xmlns:xlink="http://www.w3.org/1999/xlink" width="90" height="87" viewBox="0,0,90,87"><g transform="translate(-195,-136.5)"><g data-paper-data="{&quot;isPaintingLayer&quot;:true}" fill-rule="nonzero" stroke="none" stroke-linejoin="miter" stroke-miterlimit="10" stroke-dasharray="" stroke-dashoffset="0" style="mix-blend-mode: normal"><path d="M249.39651,184.00687c0,3.70679 -0.76873,6.55004 -2.3062,8.52978c-1.53746,1.95869 -3.78048,2.93805 -6.72904,2.93805c-2.92749,0 -5.17052,-0.95829 -6.72905,-2.87485c-1.53746,-1.93765 -2.32726,-4.70717 -2.36937,-8.30863v-4.92832c0,-3.74889 0.77925,-6.59214 2.33779,-8.52979c1.55854,-1.95869 3.79102,-2.93803 6.69747,-2.93803c2.92749,0 5.16,0.9688 6.69746,2.90645c1.55854,1.91656 2.35885,4.67558 2.40098,8.27705zM244.08908,178.60466c0,-2.23247 -0.30539,-3.8542 -0.91615,-4.86513c-0.61078,-1.01094 -1.55854,-1.51641 -2.84326,-1.51641c-1.26367,0 -2.19038,0.48442 -2.78008,1.45323c-0.58971,0.94776 -0.90562,2.45363 -0.94776,4.51764v6.50791c0,2.19038 0.29487,3.82261 0.88457,4.89674c0.58971,1.05307 1.54801,1.57959 2.87487,1.57959c1.3058,0 2.24303,-0.50547 2.81168,-1.51641c0.56865,-1.03199 0.87403,-2.60106 0.91617,-4.70717z" fill="#bbbbbb" stroke-width="1" stroke-linecap="square"/><path d="M249.40379,180.63707c0,3.70677 -0.76874,6.55003 -2.3062,8.52979c-1.53748,1.95869 -3.78048,2.93805 -6.72904,2.93805c-2.92751,0 -5.17052,-0.95829 -6.72905,-2.87485c-1.53748,-1.93762 -2.32726,-4.70717 -2.36937,-8.30863v-4.92832c0,-3.7489 0.77928,-6.59217 2.33779,-8.52979c1.55853,-1.95869 3.79102,-2.93802 6.69746,-2.93802c2.92751,0 5.15999,0.96883 6.69746,2.90645c1.55853,1.91658 2.35886,4.67558 2.40098,8.27705zM244.09637,175.23486c0,-2.23249 -0.30539,-3.8542 -0.91615,-4.86513c-0.61077,-1.01094 -1.55853,-1.51641 -2.84327,-1.51641c-1.26367,0 -2.19036,0.4844 -2.78008,1.45323c-0.58972,0.94776 -0.90563,2.45363 -0.94776,4.51764v6.5079c0,2.19035 0.29485,3.82262 0.88457,4.89674c0.58972,1.05306 1.54801,1.57959 2.87487,1.57959c1.30579,0 2.24303,-0.50547 2.81168,-1.51641c0.56865,-1.032 0.87404,-2.60106 0.91618,-4.70717z" fill="#f3f3f3" stroke-width="1" stroke-linecap="square"/><path d="M195,223.5v-87h90v87z" fill="none" stroke-width="0" stroke-linecap="butt"/></g></g></svg>