<svg version="1.1" xmlns="http://www.w3.org/2000/svg" xmlns:xlink="http://www.w3.org/1999/xlink" width="353" height="306" viewBox="0,0,353,306"><defs><linearGradient x1="258.3027" y1="227.3239" x2="226.11662" y2="154.29399" gradientUnits="userSpaceOnUse" id="color-1"><stop offset="0" stop-color="#ffffff" stop-opacity="0"/><stop offset="1" stop-color="#ffffff"/></linearGradient><linearGradient x1="276.68203" y1="208.53816" x2="203.60329" y2="176.46311" gradientUnits="userSpaceOnUse" id="color-2"><stop offset="0" stop-color="#ffffff" stop-opacity="0"/><stop offset="1" stop-color="#ffffff"/></linearGradient><linearGradient x1="279.46335" y1="186.78763" x2="200.25709" y2="196.56923" gradientUnits="userSpaceOnUse" id="color-3"><stop offset="0" stop-color="#ffffff" stop-opacity="0"/><stop offset="1" stop-color="#ffffff"/></linearGradient><linearGradient x1="200.78889" y1="202.79053" x2="278.00769" y2="182.62698" gradientUnits="userSpaceOnUse" id="color-4"><stop offset="0" stop-color="#ffffff" stop-opacity="0"/><stop offset="1" stop-color="#ffffff"/></linearGradient><linearGradient x1="201.46836" y1="180.87343" x2="278.14508" y2="203.00919" gradientUnits="userSpaceOnUse" id="color-5"><stop offset="0" stop-color="#ffffff" stop-opacity="0"/><stop offset="1" stop-color="#ffffff"/></linearGradient><linearGradient x1="212.07883" y1="160.65333" x2="265.09887" y2="220.30388" gradientUnits="userSpaceOnUse" id="color-6"><stop offset="0" stop-color="#ffffff" stop-opacity="0"/><stop offset="1" stop-color="#ffffff"/></linearGradient><linearGradient x1="231.91596" y1="151.30939" x2="247.00018" y2="229.67888" gradientUnits="userSpaceOnUse" id="color-7"><stop offset="0" stop-color="#ffffff" stop-opacity="0"/><stop offset="1" stop-color="#ffffff"/></linearGradient><linearGradient x1="270.62777" y1="165.11265" x2="211.20791" y2="218.39109" gradientUnits="userSpaceOnUse" id="color-8"><stop offset="0" stop-color="#ffffff" stop-opacity="0"/><stop offset="1" stop-color="#ffffff"/></linearGradient><linearGradient x1="251.97333" y1="153.58735" x2="228.13154" y2="229.75086" gradientUnits="userSpaceOnUse" id="color-9"><stop offset="0" stop-color="#ffffff" stop-opacity="0"/><stop offset="1" stop-color="#ffffff"/></linearGradient><linearGradient x1="237.54535" y1="229.60049" x2="246.13145" y2="150.25573" gradientUnits="userSpaceOnUse" id="color-10"><stop offset="0" stop-color="#ffffff" stop-opacity="0"/><stop offset="1" stop-color="#ffffff"/></linearGradient><linearGradient x1="217.2995" y1="221.17867" x2="265.23275" y2="157.36867" gradientUnits="userSpaceOnUse" id="color-11"><stop offset="0" stop-color="#ffffff" stop-opacity="0"/><stop offset="1" stop-color="#ffffff"/></linearGradient><linearGradient x1="1991.99247" y1="982.58433" x2="211.85914" y2="982.58433" gradientUnits="userSpaceOnUse" id="color-12"><stop offset="0" stop-color="#ffffff"/><stop offset="1" stop-color="#ffffff" stop-opacity="0"/></linearGradient></defs><g transform="translate(-64.5,-23.1557)"><g data-paper-data="{&quot;isPaintingLayer&quot;:true}" fill-rule="nonzero" stroke-linejoin="miter" stroke-miterlimit="10" stroke-dasharray="" stroke-dashoffset="0" style="mix-blend-mode: normal"><g stroke="#000000" stroke-width="0" stroke-linecap="round"><g><path d="M265.55008,267.98185l-24.75049,-79.01387l44.71331,72.21922z" fill="url(#color-1)"/><g><path d="M310.58663,235.69687l-72.28709,-44.6035l79.0514,24.63037z" fill="url(#color-2)"/><path d="M322.48592,192.80235l-84.92915,-1.39146l80.53488,-19.2331z" fill="url(#color-3)"/></g></g><g><g><g><g data-paper-data="{&quot;index&quot;:null}"><path d="M159.49583,203.4804l81.94424,-11.87102l-78.41046,32.6603z" fill="url(#color-4)"/><path d="M165.62356,160.36139l76.49999,31.67855l-84.0881,-12.00363z" fill="url(#color-5)"/></g><g data-paper-data="{&quot;index&quot;:null}"><path d="M192.71897,124.17335l47.77632,67.62546l-64.69591,-55.03939z" fill="url(#color-6)"/><path d="M233.9208,110.05925l6.50113,82.54402l-27.47663,-80.37369z" fill="url(#color-7)"/></g></g><g><path d="M309.37447,145.47058l-70.50001,47.37767l55.11071,-61.79473z" fill="url(#color-8)"/><path d="M275.23775,116.90105l-36.38129,76.75479l15.78529,-81.28102z" fill="url(#color-9)"/></g></g><path d="M223.51967,268.44471l18.01649,-80.81575l2.67199,84.8985z" fill="url(#color-10)"/><path d="M185.39077,247.39748l56.79067,-60.25445l-41.09523,74.33759z" fill="url(#color-11)"/></g></g><path d="M268.52582,208.00099c-16.3822,16.38219 -40.37749,16.28918 -56.66667,0c-16.28918,-16.28917 -16.23841,-40.09492 0,-56.33333c16.23841,-16.23841 40.78772,-15.54561 56.33333,0c15.5456,15.5456 16.71552,39.95114 0.33333,56.33333z" data-paper-data="{&quot;index&quot;:null}" fill="url(#color-12)" stroke="none" stroke-width="0" stroke-linecap="butt"/><path d="M281.98443,179.75001c0,22.9968 -18.79707,41.63941 -41.98443,41.63941c-23.18736,0 -41.98443,-18.64258 -41.98443,-41.63941c0,-22.9968 18.79707,-41.63939 41.98443,-41.63939c23.18736,0 41.98443,18.64258 41.98443,41.63939z" fill="none" stroke="#00edff" stroke-width="6" stroke-linecap="butt"/><path d="M277.375,175.95835c0,21.81525 -17.90861,39.5 -40,39.5c-22.09139,0 -40,-17.68475 -40,-39.5c0,-21.81525 17.90861,-39.5 40,-39.5c22.09139,0 40,17.68475 40,39.5z" fill="none" stroke="none" stroke-width="0" stroke-linecap="butt"/><g stroke-linecap="round"><path d="M234.87465,190.24139l4.07617,-3.41379l7.48995,3.87236l-3.6176,7.38805l-7.38805,-0.05095l-1.1719,-6.52187z" fill="#ffe800" stroke="#edd900" stroke-width="1.5"/><path d="M239.53846,198.28098l-6.17681,2.74696c0,0 -0.03304,0.07195 0.01218,-0.13632c0.18036,-0.83065 1.4222,-6.46984 1.4222,-6.46984z" fill="#ffe800" stroke="#edd900" stroke-width="1.5"/><path d="M244.67426,194.4962c0,0 0.99849,5.68732 1.14301,6.52495c0.03623,0.21002 0.00632,0.13672 0.00632,0.13672l-6.05313,-3.00973z" data-paper-data="{&quot;index&quot;:null}" fill="#ffe800" stroke="#edd900" stroke-width="2"/><g fill="#ffe800" stroke="#edd900" stroke-width="2"><path d="M234.83715,194.75763l-5.0801,-4.45998c0,0 -0.07916,0.0001 0.12891,-0.046c0.82988,-0.18387 6.47112,-1.41634 6.47112,-1.41634z"/><path d="M242.69704,188.61176l6.67489,1.06989c0,0 0.06695,-0.04225 -0.08462,0.10758c-0.60452,0.59755 -4.72313,4.64472 -4.72313,4.64472z" data-paper-data="{&quot;index&quot;:null}"/><path d="M236.54159,188.83215c0,0 2.61206,-5.14974 2.9988,-5.90666c0.09696,-0.18978 0.07695,-0.11319 0.07695,-0.11319l3.03847,6.03875z" data-paper-data="{&quot;index&quot;:null}"/></g><path d="M243.05446,194.05341l0.40537,2.03909l-0.47605,1.2076l-1.20734,0.20593l-2.34519,-1.21303z" data-paper-data="{&quot;index&quot;:null}" fill="#ffe800" stroke="#ffe800" stroke-width="1"/><path d="M239.80319,196.62131l-2.34519,1.21303l-1.20734,-0.20593l-0.47605,-1.2076l0.40537,-2.03908z" data-paper-data="{&quot;index&quot;:null}" fill="#ffe800" stroke="#ffe800" stroke-width="1"/><path d="M235.54842,194.57061l-1.26316,5.57895" fill="none" stroke="#edd900" stroke-width="0.5"/><path d="M234.96945,197.88637c0,0 3.70244,-2.15639 5.13188,-3.55031c1.39425,-1.35961 3.34181,-4.71284 3.34181,-4.71284l-0.05263,-1.78948l6.31579,0.89473l0.47369,0.42106l0.15789,0.73684l-0.31579,0.63158l-4.36842,4.21052l1.10527,6.1579l0.05263,0.73685l-0.36842,0.42105l-0.57894,0.10527l-6.36843,-2.94737l-6,2.57895h-0.36842l-0.31579,-0.36842l-0.10526,-0.57895l0.42105,-2.15789l1.84211,-0.78947z" fill="#fae500" stroke="#000000" stroke-width="0"/><path d="M241.35913,189.93959l2.60945,0.40265l0.85386,0.87807l-0.32734,1.16085l-1.52949,1.45576z" data-paper-data="{&quot;index&quot;:null}" fill="#ffe800" stroke="#ffe800" stroke-width="1"/><path d="M236.3112,194.17025l-1.52949,-1.40814l-0.32734,-1.25609l0.85386,-0.87807l2.60945,-0.40264z" data-paper-data="{&quot;index&quot;:null}" fill="#ffe800" stroke="#ffe800" stroke-width="1"/><path d="M237.23138,190.47231l1.33125,-2.28017l1.12997,-0.4725l0.85815,0.38408l1.0351,2.32018z" data-paper-data="{&quot;index&quot;:null}" fill="#ffe800" stroke="#ffe800" stroke-width="1"/><path d="M235.03646,197.86617c0,0 4.06506,-2.64324 5.58398,-4.11925c1.22854,-1.19383 2.70173,-3.97599 2.70173,-3.97599l3.85714,0.66666l-3.57143,3.57143l0.95239,5.47619l-4.71429,-2.33333l-5.19047,2.57143z" fill="#fff15d" stroke="#fff15d" stroke-width="0"/></g><path d="M175.25962,234.08096v-111.51714h118.37418v111.51714z" fill="none" stroke="none" stroke-width="0" stroke-linecap="butt"/><path d="M64.5,324.15571l348,-301" fill="none" stroke="none" stroke-width="0" stroke-linecap="round"/><path d="M69.5,28.15571l348,301" data-paper-data="{&quot;index&quot;:null}" fill="none" stroke="none" stroke-width="0" stroke-linecap="round"/></g></g></svg>