<svg version="1.1" xmlns="http://www.w3.org/2000/svg" xmlns:xlink="http://www.w3.org/1999/xlink" width="271.86497" height="351.31446" viewBox="0,0,271.86497,351.31446"><defs><linearGradient x1="359.86052" y1="201.19457" x2="181.38175" y2="321.66772" gradientUnits="userSpaceOnUse" id="color-1"><stop offset="0" stop-color="#42e6ff"/><stop offset="1" stop-color="#42e6ff" stop-opacity="0"/></linearGradient><linearGradient x1="330.90063" y1="220.74249" x2="183.9302" y2="319.94748" gradientUnits="userSpaceOnUse" id="color-2"><stop offset="0" stop-color="#42e6ff"/><stop offset="1" stop-color="#42e6ff" stop-opacity="0"/></linearGradient><linearGradient x1="296.14874" y1="244.19997" x2="186.98838" y2="317.88323" gradientUnits="userSpaceOnUse" id="color-3"><stop offset="0" stop-color="#42e6ff"/><stop offset="1" stop-color="#42e6ff" stop-opacity="0"/></linearGradient><linearGradient x1="116.77456" y1="201.19457" x2="295.25329" y2="321.66772" gradientUnits="userSpaceOnUse" id="color-4"><stop offset="0" stop-color="#42e6ff"/><stop offset="1" stop-color="#42e6ff" stop-opacity="0"/></linearGradient><linearGradient x1="145.73443" y1="220.74249" x2="292.70482" y2="319.94748" gradientUnits="userSpaceOnUse" id="color-5"><stop offset="0" stop-color="#42e6ff"/><stop offset="1" stop-color="#42e6ff" stop-opacity="0"/></linearGradient><linearGradient x1="180.4863" y1="244.19997" x2="289.64667" y2="317.88323" gradientUnits="userSpaceOnUse" id="color-6"><stop offset="0" stop-color="#42e6ff"/><stop offset="1" stop-color="#42e6ff" stop-opacity="0"/></linearGradient><linearGradient x1="284.40626" y1="141.09059" x2="227.40629" y2="141.09059" gradientUnits="userSpaceOnUse" id="color-7"><stop offset="0" stop-color="#6f7171"/><stop offset="1" stop-color="#6f7171" stop-opacity="0"/></linearGradient><linearGradient x1="196.0806" y1="141.09059" x2="253.0806" y2="141.09059" gradientUnits="userSpaceOnUse" id="color-8"><stop offset="0" stop-color="#6f7171"/><stop offset="1" stop-color="#6f7171" stop-opacity="0"/></linearGradient><linearGradient x1="248.15628" y1="99.35185" x2="248.15628" y2="111.59066" gradientUnits="userSpaceOnUse" id="color-9"><stop offset="0" stop-color="#b7baba" stop-opacity="0"/><stop offset="1" stop-color="#b7baba"/></linearGradient><linearGradient x1="233.32293" y1="99.35185" x2="233.32293" y2="111.59066" gradientUnits="userSpaceOnUse" id="color-10"><stop offset="0" stop-color="#b7baba" stop-opacity="0"/><stop offset="1" stop-color="#b7baba"/></linearGradient><linearGradient x1="267.90626" y1="101.25732" x2="210.90629" y2="101.25732" gradientUnits="userSpaceOnUse" id="color-11"><stop offset="0" stop-color="#4c4d4d"/><stop offset="1" stop-color="#4c4d4d" stop-opacity="0"/></linearGradient><linearGradient x1="212.90629" y1="101.25732" x2="269.90626" y2="101.25732" gradientUnits="userSpaceOnUse" id="color-12"><stop offset="0" stop-color="#4c4d4d"/><stop offset="1" stop-color="#4c4d4d" stop-opacity="0"/></linearGradient><linearGradient x1="243.98962" y1="57.37054" x2="261.65626" y2="57.37054" gradientUnits="userSpaceOnUse" id="color-13"><stop offset="0" stop-color="#788382"/><stop offset="1" stop-color="#788382" stop-opacity="0"/></linearGradient><linearGradient x1="237.98962" y1="57.37054" x2="220.32294" y2="57.37054" gradientUnits="userSpaceOnUse" id="color-14"><stop offset="0" stop-color="#788382"/><stop offset="1" stop-color="#788382" stop-opacity="0"/></linearGradient><linearGradient x1="242.90628" y1="39.00941" x2="258.90626" y2="39.00941" gradientUnits="userSpaceOnUse" id="color-15"><stop offset="0" stop-color="#d6dbdb"/><stop offset="1" stop-color="#d6dbdb" stop-opacity="0"/></linearGradient><linearGradient x1="238.73962" y1="39.00941" x2="222.73962" y2="39.00941" gradientUnits="userSpaceOnUse" id="color-16"><stop offset="0" stop-color="#d6dbdb"/><stop offset="1" stop-color="#d6dbdb" stop-opacity="0"/></linearGradient><linearGradient x1="240.53386" y1="45.80128" x2="240.51846" y2="60.19906" gradientUnits="userSpaceOnUse" id="color-17"><stop offset="0" stop-color="#939f9f"/><stop offset="1" stop-color="#939f9f" stop-opacity="0"/></linearGradient><radialGradient cx="284.10452" cy="285.63944" r="8.11129" gradientUnits="userSpaceOnUse" id="color-18"><stop offset="0" stop-color="#a1f2ff"/><stop offset="1" stop-color="#a1f2ff" stop-opacity="0"/></radialGradient><radialGradient cx="280.84315" cy="290.11454" r="8.1113" gradientUnits="userSpaceOnUse" id="color-19"><stop offset="0" stop-color="#a1f2ff"/><stop offset="1" stop-color="#a1f2ff" stop-opacity="0"/></radialGradient><radialGradient cx="269.74404" cy="304.9619" r="8.11129" gradientUnits="userSpaceOnUse" id="color-20"><stop offset="0" stop-color="#a1f2ff"/><stop offset="1" stop-color="#a1f2ff" stop-opacity="0"/></radialGradient><radialGradient cx="277.35094" cy="294.69667" r="8.1113" gradientUnits="userSpaceOnUse" id="color-21"><stop offset="0" stop-color="#a1f2ff"/><stop offset="1" stop-color="#a1f2ff" stop-opacity="0"/></radialGradient><radialGradient cx="266.76201" cy="308.92519" r="8.11129" gradientUnits="userSpaceOnUse" id="color-22"><stop offset="0" stop-color="#a1f2ff"/><stop offset="1" stop-color="#a1f2ff" stop-opacity="0"/></radialGradient><radialGradient cx="273.7707" cy="299.55857" r="8.1113" gradientUnits="userSpaceOnUse" id="color-23"><stop offset="0" stop-color="#a1f2ff"/><stop offset="1" stop-color="#a1f2ff" stop-opacity="0"/></radialGradient><radialGradient cx="260.71653" cy="317.98901" r="8.11129" gradientUnits="userSpaceOnUse" id="color-24"><stop offset="0" stop-color="#a1f2ff"/><stop offset="1" stop-color="#a1f2ff" stop-opacity="0"/></radialGradient><radialGradient cx="264.30555" cy="312.59711" r="8.11129" gradientUnits="userSpaceOnUse" id="color-25"><stop offset="0" stop-color="#a1f2ff"/><stop offset="1" stop-color="#a1f2ff" stop-opacity="0"/></radialGradient><radialGradient cx="193.35793" cy="286.8839" r="8.11129" gradientUnits="userSpaceOnUse" id="color-26"><stop offset="0" stop-color="#a1f2ff"/><stop offset="1" stop-color="#a1f2ff" stop-opacity="0"/></radialGradient><radialGradient cx="196.60647" cy="291.36422" r="8.1113" gradientUnits="userSpaceOnUse" id="color-27"><stop offset="0" stop-color="#a1f2ff"/><stop offset="1" stop-color="#a1f2ff" stop-opacity="0"/></radialGradient><radialGradient cx="207.66311" cy="306.22936" r="8.11128" gradientUnits="userSpaceOnUse" id="color-28"><stop offset="0" stop-color="#a1f2ff"/><stop offset="1" stop-color="#a1f2ff" stop-opacity="0"/></radialGradient><radialGradient cx="200.08562" cy="295.95186" r="8.1113" gradientUnits="userSpaceOnUse" id="color-29"><stop offset="0" stop-color="#a1f2ff"/><stop offset="1" stop-color="#a1f2ff" stop-opacity="0"/></radialGradient><radialGradient cx="210.63382" cy="310.19739" r="8.11129" gradientUnits="userSpaceOnUse" id="color-30"><stop offset="0" stop-color="#a1f2ff"/><stop offset="1" stop-color="#a1f2ff" stop-opacity="0"/></radialGradient><radialGradient cx="203.65191" cy="300.81951" r="8.1113" gradientUnits="userSpaceOnUse" id="color-31"><stop offset="0" stop-color="#a1f2ff"/><stop offset="1" stop-color="#a1f2ff" stop-opacity="0"/></radialGradient><radialGradient cx="216.65341" cy="319.27088" r="8.1113" gradientUnits="userSpaceOnUse" id="color-32"><stop offset="0" stop-color="#a1f2ff"/><stop offset="1" stop-color="#a1f2ff" stop-opacity="0"/></radialGradient><radialGradient cx="213.0798" cy="313.87323" r="8.11129" gradientUnits="userSpaceOnUse" id="color-33"><stop offset="0" stop-color="#a1f2ff"/><stop offset="1" stop-color="#a1f2ff" stop-opacity="0"/></radialGradient><linearGradient x1="240.90628" y1="32.19277" x2="240.90628" y2="64.99279" gradientUnits="userSpaceOnUse" id="color-34"><stop offset="0" stop-color="#7c8685"/><stop offset="1" stop-color="#7c8685" stop-opacity="0"/></linearGradient><linearGradient x1="239.40628" y1="246.0073" x2="239.40628" y2="295.67393" gradientUnits="userSpaceOnUse" id="color-35"><stop offset="0" stop-color="#d6dfdf"/><stop offset="1" stop-color="#f7fbfb"/></linearGradient><radialGradient cx="239.40628" cy="237.09064" r="37.49999" gradientUnits="userSpaceOnUse" id="color-36"><stop offset="0" stop-color="#5b5d5d"/><stop offset="1" stop-color="#5b5d5d" stop-opacity="0"/></radialGradient><radialGradient cx="239.40628" cy="213.09064" r="37.49999" gradientUnits="userSpaceOnUse" id="color-37"><stop offset="0" stop-color="#5b5d5d"/><stop offset="1" stop-color="#5b5d5d" stop-opacity="0"/></radialGradient><linearGradient x1="241.73962" y1="223.83573" x2="241.73962" y2="147.09059" gradientUnits="userSpaceOnUse" id="color-38"><stop offset="0" stop-color="#000000"/><stop offset="1" stop-color="#000000" stop-opacity="0"/></linearGradient><radialGradient cx="243.09765" cy="271.82356" r="7.96473" gradientUnits="userSpaceOnUse" id="color-39"><stop offset="0" stop-color="#87e2ff"/><stop offset="1" stop-color="#00c1ff"/></radialGradient><radialGradient cx="217.98166" cy="271.82356" r="7.96473" gradientUnits="userSpaceOnUse" id="color-40"><stop offset="0" stop-color="#87e2ff"/><stop offset="1" stop-color="#00c1ff"/></radialGradient><linearGradient x1="230.53966" y1="262.49341" x2="230.53966" y2="288.56005" gradientUnits="userSpaceOnUse" id="color-41"><stop offset="0" stop-color="#f7fbfb"/><stop offset="1" stop-color="#cce5e8"/></linearGradient><radialGradient cx="230.5396" cy="274.32677" r="11.83336" gradientUnits="userSpaceOnUse" id="color-42"><stop offset="0" stop-color="#000000" stop-opacity="0"/><stop offset="1" stop-color="#000000" stop-opacity="0"/></radialGradient><radialGradient cx="260.29758" cy="271.82356" r="7.96473" gradientUnits="userSpaceOnUse" id="color-43"><stop offset="0" stop-color="#87e2ff"/><stop offset="1" stop-color="#00c1ff"/></radialGradient><radialGradient cx="235.18164" cy="271.82356" r="7.96473" gradientUnits="userSpaceOnUse" id="color-44"><stop offset="0" stop-color="#87e2ff"/><stop offset="1" stop-color="#00c1ff"/></radialGradient><linearGradient x1="247.73965" y1="262.49341" x2="247.73965" y2="288.56005" gradientUnits="userSpaceOnUse" id="color-45"><stop offset="0" stop-color="#f7fbfb"/><stop offset="1" stop-color="#cce5e8"/></linearGradient><radialGradient cx="247.73959" cy="274.32677" r="11.83336" gradientUnits="userSpaceOnUse" id="color-46"><stop offset="0" stop-color="#000000" stop-opacity="0"/><stop offset="1" stop-color="#000000" stop-opacity="0"/></radialGradient><linearGradient x1="238.7813" y1="262.54204" x2="238.7813" y2="288.74203" gradientUnits="userSpaceOnUse" id="color-47"><stop offset="0" stop-color="#f7fbfb"/><stop offset="1" stop-color="#cce5e8"/></linearGradient><linearGradient x1="183.73419" y1="101.53723" x2="192.06753" y2="101.53723" gradientUnits="userSpaceOnUse" id="color-48"><stop offset="0" stop-color="#97a4a3"/><stop offset="1" stop-color="#97a4a3" stop-opacity="0"/></linearGradient><linearGradient x1="297.40083" y1="101.53723" x2="289.06753" y2="101.53723" gradientUnits="userSpaceOnUse" id="color-49"><stop offset="0" stop-color="#97a4a3"/><stop offset="1" stop-color="#97a4a3" stop-opacity="0"/></linearGradient></defs><g transform="translate(-104.06753,-3.09277)"><g data-paper-data="{&quot;isPaintingLayer&quot;:true}" fill-rule="nonzero" stroke-linejoin="miter" stroke-miterlimit="10" stroke-dasharray="" stroke-dashoffset="0" style="mix-blend-mode: normal"><path d="M194.66147,193.86372l-35.62644,-15.09819" data-paper-data="{&quot;index&quot;:null}" fill="none" stroke="#6c6c6c" stroke-width="7.5" stroke-linecap="round"/><path d="M284.53502,193.36371l35.62644,-15.09819" fill="none" stroke="#6c6c6c" stroke-width="7.5" stroke-linecap="round"/><g stroke="none" stroke-width="0" stroke-linecap="butt"><path d="M159.28255,288.92818l28.87158,-19.48831l44.19835,65.47905l-28.87156,19.4883z" fill="url(#color-1)"/><path d="M165.73237,292.98775l23.77462,-16.04787l36.39565,53.91948l-23.77462,16.04787z" fill="url(#color-2)"/><path d="M173.47218,297.85923l17.65829,-11.91935l27.0324,40.048l-17.65829,11.91935z" fill="url(#color-3)"/></g><g data-paper-data="{&quot;index&quot;:null}" stroke="none" stroke-width="0" stroke-linecap="butt"><path d="M273.15412,354.40723l-28.87155,-19.4883l44.19836,-65.47905l28.87156,19.48831z" fill="url(#color-4)"/><path d="M274.50699,346.90723l-23.77461,-16.04787l36.39565,-53.91948l23.77462,16.04787z" fill="url(#color-5)"/><path d="M276.13048,337.90723l-17.6583,-11.91935l27.0324,-40.048l17.6583,11.91935z" fill="url(#color-6)"/></g><path d="M188.15924,140.03999l30.02329,36.55012h-13.70629c0,0 -5.18354,-19.08663 -6.45133,-23.69674c-0.61866,-2.24965 -9.86567,-12.85337 -9.86567,-12.85337z" fill="#878787" stroke="#878787" stroke-width="3" stroke-linecap="round"/><path d="M154.39732,168.68355c4.12727,-0.10726 7.30884,2.81433 7.47607,6.99011c0.16734,4.17576 -2.97138,7.23729 -6.90199,7.33946c-3.93061,0.10217 -7.29398,-2.81537 -7.46027,-6.96626c-0.16631,-4.15089 2.75894,-7.25606 6.88621,-7.36331z" fill="#878787" stroke="none" stroke-width="0" stroke-linecap="butt"/><path d="M154.64736,223.06327c-25.86339,0 -46.82983,-20.96641 -46.82983,-46.8298c0,-25.86339 20.96644,-46.82983 46.82983,-46.82983c25.86339,0 46.8298,20.96643 46.8298,46.82983c0,25.86339 -20.96641,46.8298 -46.8298,46.8298z" fill="none" stroke="#878787" stroke-width="7.5" stroke-linecap="butt"/><path d="M281.97513,152.89333c-1.26779,4.61011 -6.45133,23.69674 -6.45133,23.69674h-13.70629l30.0233,-36.55012c0,0 -9.24701,10.60372 -9.86567,12.85337z" fill="#878787" stroke="#878787" stroke-width="3" stroke-linecap="round"/><path d="M325.60272,168.68355c4.12727,0.10726 7.05253,3.21242 6.88621,7.36332c-0.16629,4.15089 -3.52967,7.06843 -7.46028,6.96626c-3.93061,-0.10217 -7.06934,-3.1637 -6.90199,-7.33946c0.16724,-4.17578 3.3488,-7.09737 7.47607,-6.99011z" fill="#878787" stroke="none" stroke-width="0" stroke-linecap="butt"/><path d="M278.52286,176.23347c0,-25.86339 20.96641,-46.82983 46.8298,-46.82983c25.8634,0 46.82984,20.96643 46.82984,46.82983c0,25.86339 -20.96643,46.8298 -46.82983,46.8298c-25.8634,0 -46.8298,-20.96641 -46.8298,-46.8298z" fill="none" stroke="#878787" stroke-width="7.5" stroke-linecap="butt"/><g stroke-width="0"><path d="M239.01176,156.97687l-14.87502,-1.02014l-22.79513,-13.58532l-0.92769,-15.3488l48.22482,-0.62342z" fill="#f7fbfb" stroke="#8f8f8f" stroke-linecap="round"/><path d="M242.23962,145.71559h-18.08333l-15,-10.25h30.33333z" data-paper-data="{&quot;index&quot;:null}" fill="#e5e9e9" stroke="none" stroke-linecap="butt"/><path d="M227.40629,155.75728v-29.33333h22.33333v29.33333z" data-paper-data="{&quot;index&quot;:null}" fill="url(#color-7)" stroke="none" stroke-linecap="butt"/></g><g data-paper-data="{&quot;index&quot;:null}" stroke-width="0"><path d="M231.84813,126.39924l48.22482,0.62342l-0.92769,15.3488l-22.79513,13.58532l-14.87502,1.02014z" fill="#f7fbfb" stroke="#8f8f8f" stroke-linecap="round"/><path d="M240.99726,135.46559h30.33333l-15,10.25h-18.08333z" data-paper-data="{&quot;index&quot;:null}" fill="#e5e9e9" stroke="none" stroke-linecap="butt"/><path d="M230.74725,155.75728v-29.33333h22.33333v29.33333z" data-paper-data="{&quot;index&quot;:null}" fill="url(#color-8)" stroke="none" stroke-linecap="butt"/></g><g stroke="none" stroke-width="0" stroke-linecap="butt"><path d="M199.57294,111.59066v-20.5h96.90335l-1.54847,20.5z" fill="#d7dbdb"/><path d="M199.57294,111.59066v-12.2388h97.16667l-1.54847,12.2388z" fill="url(#color-9)"/></g><g stroke="none" stroke-width="0" stroke-linecap="butt"><path d="M186.55142,111.59066l-1.54847,-20.5h58.40335v20.5z" fill="#d7dbdb"/><path d="M186.28809,111.59066l-1.54847,-12.2388h65.66666v12.2388z" fill="url(#color-10)"/></g><path d="M210.90629,111.42398v-20.33333h42v20.33333z" data-paper-data="{&quot;index&quot;:null}" fill="url(#color-11)" stroke="none" stroke-width="0" stroke-linecap="butt"/><path d="M230.90629,111.42398v-20.33333h38.99999v20.33333z" data-paper-data="{&quot;index&quot;:null}" fill="url(#color-12)" stroke="none" stroke-width="0" stroke-linecap="butt"/><path d="M245.44264,31.59775l58.22086,-0.29474l-0.4149,6.58782l-58.34429,10.1892z" data-paper-data="{&quot;index&quot;:null}" fill="#f7fbfb" stroke="#8f8f8f" stroke-width="0" stroke-linecap="round"/><path d="M241.35981,48.28718l-66.96099,-9.88501l-0.66212,-6.5802l67.84557,-0.29478z" fill="#f7fbfb" stroke="#8f8f8f" stroke-width="0" stroke-linecap="round"/><g fill="#d3d7d7" stroke="none" stroke-width="0" stroke-linecap="butt"><path d="M273.61769,31.50795h12.87586v3.25l-12.87586,2.00002z"/><path d="M261.70757,31.50795h7.08175v5.74999l-7.08175,0.99999z"/></g><path d="M203.29392,36.758l-12.87585,-2.00002v-3.25h12.87586z" fill="#d3d7d7" stroke="none" stroke-width="0" stroke-linecap="butt"/><path d="M215.20407,38.25793l-7.08172,-0.99999v-5.75h7.08172z" fill="#d3d7d7" stroke="none" stroke-width="0" stroke-linecap="butt"/><path d="M236.00629,48.19277v-16.4h9.6v16.4z" fill="#f7fbfb" stroke="none" stroke-width="0" stroke-linecap="butt"/><g fill="#97a4a3" stroke="#8f8f8f" stroke-width="0" stroke-linecap="round"><path d="M239.39849,64.54957l-23.20638,-0.47787l-10.67774,-6.36364l-0.43453,-7.18968l28.05446,-0.29204z"/><path d="M248.82246,50.44692l28.05445,-0.29203l-0.28478,7.19718l-10.54296,6.58456l-23.19137,0.96085z" data-paper-data="{&quot;index&quot;:null}"/></g><path d="M243.98962,64.03721v-13.33333h17.66666v13.33333z" fill="url(#color-13)" stroke="none" stroke-width="0" stroke-linecap="butt"/><path d="M220.32294,64.03721v-13.33333h17.66667v13.33333z" data-paper-data="{&quot;index&quot;:null}" fill="url(#color-14)" stroke="none" stroke-width="0" stroke-linecap="butt"/><path d="M242.90628,48.59276v-17.33333h15.99999v14.66667z" fill="url(#color-15)" stroke="none" stroke-width="0" stroke-linecap="butt"/><path d="M222.73962,45.9261v-14.66667h16v17.33333z" data-paper-data="{&quot;index&quot;:null}" fill="url(#color-16)" stroke="none" stroke-width="0" stroke-linecap="butt"/><path d="M248.07835,32.1112l13.60078,133.61052l24.96119,30.82939l6.12516,41.45606l-4.09441,46.65809l-28.88261,42.76624c0,0 -7.29164,3.24343 -10.93253,4.86295c-3.63429,1.61658 -5.79906,-6.38902 -10.88124,-6.15462c-5.08218,0.2344 -6.6288,8.45397 -10.09079,7.12191c-3.67945,-1.41573 -10.71838,-4.38059 -10.71838,-4.38059l-27.51113,-41.23801l-4.78251,-52.0584l8.70338,-42.2072l26.16068,-29.03572l13.82252,-132.25139" fill="#97a4a3" stroke="#97a4a3" stroke-width="0.5" stroke-linecap="round"/><path d="M231.93817,45.79209l17.40625,0.01863l1.70371,14.3996l-21.05941,-0.02252z" fill="url(#color-17)" stroke="none" stroke-width="0" stroke-linecap="butt"/><path d="M197.81754,273.98643l17,6.4074l18.33334,34.9495h10.66666l19.33333,-35.53199l17.33333,-6.69864l0.66667,5.53366l-26,51.84175l-32.66667,0.29125l-29.66666,-48.3468z" fill="#a2b1af" stroke="#000000" stroke-width="0" stroke-linecap="round"/><path d="M267.13656,270.42366l6.25,5.5791l-24.25,47.08757h-21.25l-23,-45.74859l7.75,-6.91808h52.25z" fill="#9aa7a6" stroke="#000000" stroke-width="0" stroke-linecap="round"/><path d="M289.84531,284.16187l-29.62282,44.31565l-9.82653,3.79638l30.06847,-52.6668l2.43971,-24.5995l9.221,-8.42843z" fill="#f7fbfb" stroke="#f7fbfb" stroke-width="0.5" stroke-linecap="round"/><path d="M185.85986,250.13783l8.94839,8.01804l2.90419,23.80878l28.78369,49.66682l-9.0783,-2.62323l-28.4939,-42.4717z" data-paper-data="{&quot;index&quot;:null}" fill="#f7fbfb" stroke="#f7fbfb" stroke-width="0.5" stroke-linecap="round"/><g data-paper-data="{&quot;index&quot;:null}"><path d="M278.10988,282.87099c2.00766,-2.43517 6.3191,-3.16981 9.62984,-1.64083c3.31075,1.52898 4.36712,4.74255 2.35947,7.17773c-2.00766,2.43519 -6.31909,3.1698 -9.62984,1.64083c-3.31075,-1.52896 -4.36714,-4.74256 -2.35946,-7.17774z" fill="url(#color-18)" stroke="none" stroke-width="NaN" stroke-linecap="butt"/><path d="M274.84851,287.34612c2.00766,-2.43519 6.3191,-3.1698 9.62984,-1.64083c3.31075,1.52896 4.36712,4.74256 2.35946,7.17773c-2.00766,2.43519 -6.3191,3.16979 -9.62985,1.64081c-3.31075,-1.52896 -4.36712,-4.74253 -2.35946,-7.17773z" fill="url(#color-19)" stroke="none" stroke-width="NaN" stroke-linecap="butt"/><path d="M263.7494,302.19348c2.00766,-2.43519 6.31909,-3.16981 9.62984,-1.64083c3.31075,1.52896 4.36713,4.74255 2.35947,7.17774c-2.00766,2.43519 -6.3191,3.1698 -9.62984,1.64083c-3.31075,-1.52896 -4.36712,-4.74255 -2.35944,-7.17773z" fill="url(#color-20)" stroke="none" stroke-width="NaN" stroke-linecap="butt"/><path d="M271.3563,291.92821c2.00766,-2.43519 6.3191,-3.1698 9.62984,-1.64083c3.31075,1.52896 4.36712,4.74255 2.35944,7.17774c-2.00765,2.43517 -6.3191,3.16979 -9.62984,1.64082c-3.31075,-1.52896 -4.36712,-4.74253 -2.35946,-7.17773z" fill="url(#color-21)" stroke="none" stroke-width="NaN" stroke-linecap="butt"/><path d="M260.76739,306.15673c2.00766,-2.43519 6.3191,-3.1698 9.62984,-1.64083c3.31075,1.52896 4.36712,4.74256 2.35944,7.17774c-2.00766,2.43519 -6.31908,3.16979 -9.62982,1.64082c-3.31075,-1.52896 -4.36712,-4.74254 -2.35946,-7.17774z" fill="url(#color-22)" stroke="none" stroke-width="NaN" stroke-linecap="butt"/><path d="M267.77608,296.79007c2.00766,-2.43519 6.31909,-3.1698 9.62984,-1.64083c3.31075,1.52896 4.36712,4.74255 2.35944,7.17774c-2.00766,2.43519 -6.3191,3.1698 -9.62984,1.64083c-3.31075,-1.52896 -4.36712,-4.74256 -2.35946,-7.17774z" fill="url(#color-23)" stroke="none" stroke-width="NaN" stroke-linecap="butt"/><path d="M254.72184,315.22054c2.00766,-2.43519 6.31909,-3.16979 9.62984,-1.64082c3.31075,1.52896 4.36712,4.74255 2.35944,7.17774c-2.00766,2.43519 -6.3191,3.16979 -9.62984,1.64082c-3.31075,-1.52896 -4.36712,-4.74254 -2.35946,-7.17774z" fill="url(#color-24)" stroke="none" stroke-width="NaN" stroke-linecap="butt"/><path d="M258.31089,309.82866c2.00766,-2.43519 6.31909,-3.16979 9.62984,-1.64083c3.31075,1.52896 4.36713,4.74255 2.35947,7.17774c-2.00766,2.43519 -6.3191,3.16979 -9.62984,1.64082c-3.31075,-1.52896 -4.36712,-4.74256 -2.35946,-7.17773z" fill="url(#color-25)" stroke="none" stroke-width="NaN" stroke-linecap="butt"/><g fill="none" stroke-linecap="round"><path d="M283.98211,285.90333l-23.73107,32.93879" stroke="#a1f2ff" stroke-width="7.5"/><path d="M283.98211,285.90333l-23.73107,32.93879" stroke="#00ddff" stroke-width="2.5"/></g></g><g><path d="M196.9805,291.29902c-3.31512,1.52368 -7.62443,0.78215 -9.62512,-1.65625c-2.0007,-2.4384 -0.93515,-5.65025 2.37997,-7.17392c3.31512,-1.52368 7.62444,-0.78215 9.62513,1.65625c2.0007,2.43838 0.93515,5.65027 -2.37998,7.17393z" fill="url(#color-26)" stroke="none" stroke-width="NaN" stroke-linecap="butt"/><path d="M200.22907,295.77931c-3.31512,1.52368 -7.62444,0.78215 -9.62513,-1.65624c-2.0007,-2.4384 -0.93515,-5.65026 2.37998,-7.17394c3.31512,-1.52368 7.62445,-0.78215 9.62514,1.65625c2.0007,2.4384 0.93515,5.65025 -2.37998,7.17393z" fill="url(#color-27)" stroke="none" stroke-width="NaN" stroke-linecap="butt"/><path d="M211.28569,310.64444c-3.31512,1.52368 -7.62444,0.78215 -9.62513,-1.65625c-2.0007,-2.4384 -0.93515,-5.65027 2.37998,-7.17394c3.31512,-1.52368 7.62443,-0.78214 9.62511,1.65625c2.0007,2.4384 0.93514,5.65024 -2.37996,7.17392z" fill="url(#color-28)" stroke="none" stroke-width="NaN" stroke-linecap="butt"/><path d="M203.7082,300.36698c-3.31512,1.52368 -7.62443,0.78215 -9.62512,-1.65625c-2.0007,-2.4384 -0.93514,-5.65026 2.37998,-7.17393c3.31512,-1.52368 7.62443,-0.78213 9.62512,1.65625c2.0007,2.4384 0.93514,5.65026 -2.37998,7.17393z" fill="url(#color-29)" stroke="none" stroke-width="NaN" stroke-linecap="butt"/><path d="M214.25641,314.61247c-3.31512,1.52368 -7.62445,0.78215 -9.62513,-1.65625c-2.0007,-2.4384 -0.93514,-5.65026 2.37998,-7.17394c3.31512,-1.52368 7.62445,-0.78213 9.62514,1.65625c2.0007,2.4384 0.93515,5.65026 -2.37998,7.17394z" fill="url(#color-30)" stroke="none" stroke-width="NaN" stroke-linecap="butt"/><path d="M207.27453,305.23463c-3.31512,1.52368 -7.62443,0.78215 -9.62512,-1.65625c-2.0007,-2.4384 -0.93516,-5.65025 2.37996,-7.17393c3.31512,-1.52368 7.62445,-0.78215 9.62512,1.65624c2.0007,2.4384 0.93514,5.65027 -2.37998,7.17394z" fill="url(#color-31)" stroke="none" stroke-width="NaN" stroke-linecap="butt"/><path d="M220.27599,323.68592c-3.31512,1.52368 -7.62443,0.78214 -9.62511,-1.65625c-2.0007,-2.4384 -0.93514,-5.65026 2.37997,-7.17393c3.31512,-1.52368 7.62443,-0.78215 9.62512,1.65625c2.0007,2.4384 0.93514,5.65026 -2.37998,7.17393z" fill="url(#color-32)" stroke="none" stroke-width="NaN" stroke-linecap="butt"/><path d="M216.70239,318.28835c-3.31512,1.52368 -7.62444,0.78214 -9.62512,-1.65625c-2.0007,-2.4384 -0.93515,-5.65027 2.37998,-7.17394c3.31512,-1.52368 7.62444,-0.78213 9.62512,1.65625c2.0007,2.4384 0.93514,5.65026 -2.37998,7.17392z" fill="url(#color-33)" stroke="none" stroke-width="NaN" stroke-linecap="butt"/><g fill="none" stroke-linecap="round"><path d="M193.47961,287.14796l23.63687,32.97672" stroke="#a1f2ff" stroke-width="7.5"/><path d="M193.47961,287.14796l23.63687,32.97672" stroke="#00ddff" stroke-width="2.5"/></g></g><path d="M229.85629,64.99279l2.8,-32.8h16.5l1.6,32.8z" fill="url(#color-34)" stroke="none" stroke-width="0" stroke-linecap="butt"/><path d="M246.40629,5.59277h-11.4" fill="none" stroke="#697271" stroke-width="5" stroke-linecap="round"/><path d="M248.60629,32.59275h-15.6l4.4,-26.6h6.2z" fill="#97a4a3" stroke="#000000" stroke-width="0" stroke-linecap="round"/><path d="M228.40629,295.67393l-7,-7.33333v-35.33334l6.66666,-7h22.66667l6.66666,7.66667v34.33333l-6.33333,7.66667z" fill="url(#color-35)" stroke="none" stroke-width="0" stroke-linecap="butt"/><path d="M201.90629,237.09064c0,-20.71068 16.78932,-37.5 37.5,-37.5c20.71068,0 37.49999,16.78932 37.49999,37.5c0,20.71068 -16.78932,37.5 -37.5,37.5c-20.71068,0 -37.5,-16.78932 -37.5,-37.5z" fill="url(#color-36)" stroke="none" stroke-width="0" stroke-linecap="butt"/><path d="M215.65629,265.86841v-14.33333h46.99999v14.33333z" fill="#f7fbfb" stroke="none" stroke-width="0" stroke-linecap="butt"/><path d="M201.90629,213.09064c0,-20.71068 16.78932,-37.5 37.5,-37.5c20.71068,0 37.49999,16.78932 37.49999,37.5c0,20.71068 -16.78932,37.5 -37.5,37.5c-20.71068,0 -37.5,-16.78932 -37.5,-37.5z" fill="url(#color-37)" stroke="none" stroke-width="0" stroke-linecap="butt"/><path d="M222.90629,263.09063l-10.5,-11v-53l10,-10.5h33.99999l10,11.5v51.5l-9.5,11.5z" fill="#f7fbfb" stroke="none" stroke-width="0" stroke-linecap="butt"/><path d="M226.41158,325.42921l-24.5,-48.56667l2.9,0.11724l23.26667,45.81153z" fill="#929f9e" stroke="#000000" stroke-width="0" stroke-linecap="round"/><path d="M248.7116,322.36089l23.26666,-45.18268l2.89999,-0.11563l-24.5,47.90001z" data-paper-data="{&quot;index&quot;:null}" fill="#929f9e" stroke="#000000" stroke-width="0" stroke-linecap="round"/><path d="M229.48962,157.4261h-7.33333l9.5,-92h5.33333z" fill="#b1c0bf" stroke="#000000" stroke-width="0" stroke-linecap="round"/><path d="M244.98962,65.42609h5.33333l9,92h-7.33333z" data-paper-data="{&quot;index&quot;:null}" fill="#b1c0bf" stroke="#000000" stroke-width="0" stroke-linecap="round"/><path d="M261.57293,159.7573h-41.66666l1.66666,-12.66666h38.33333z" data-paper-data="{&quot;index&quot;:null}" fill="url(#color-38)" stroke="none" stroke-width="0" stroke-linecap="butt"/><path d="M253.69255,175.66825h-25.5l-8.5,-16h42z" fill="#8b9796" stroke="#000000" stroke-width="0" stroke-linecap="round"/><path d="M228.19254,175.16825l-19.25,23.25l-15.5,-6l26.5,-32.75z" fill="#909d9c" stroke="#000000" stroke-width="0" stroke-linecap="round"/><path d="M261.94253,159.66823l25.5,36.25l-15.75,2.5l-18,-23.25z" data-paper-data="{&quot;index&quot;:null}" fill="#909d9c" stroke="#000000" stroke-width="0" stroke-linecap="round"/><path d="M250.16158,325.44032h-23.8l1.71533,-3.2h20.7982z" fill="#95a2a1" stroke="#000000" stroke-width="0" stroke-linecap="round"/><g><g><path d="M243.09765,263.85882v15.92946" fill="none" stroke="url(#color-39)" stroke-width="5" stroke-linecap="round"/><path d="M217.98166,263.85882v15.92946" fill="none" stroke="url(#color-40)" stroke-width="5" stroke-linecap="round"/><path d="M219.91369,262.49341h21.25193v23.66666c0,0 -3.57261,2.4 -10.96931,2.4c-7.63715,0 -10.28262,-2.4 -10.28262,-2.4z" fill="url(#color-41)" stroke="url(#color-42)" stroke-width="0" stroke-linecap="butt"/><path d="M252.75759,271.59603v9.10259l-6.76195,3.18588" fill="none" stroke="#97a4a3" stroke-width="4" stroke-linecap="round"/><path d="M215.08366,283.88449l-2.76195,-3.18588v-9.10259" data-paper-data="{&quot;index&quot;:null}" fill="none" stroke="#8d9998" stroke-width="4" stroke-linecap="round"/></g><g><path d="M260.29758,279.78827v-15.92946" fill="none" stroke="url(#color-43)" stroke-width="5" stroke-linecap="round"/><path d="M235.18164,263.85882v15.92946" fill="none" stroke="url(#color-44)" stroke-width="5" stroke-linecap="round"/><path d="M237.11366,262.49341h21.25194v23.66666c0,0 -3.57261,2.4 -10.96931,2.4c-7.63715,0 -10.28263,-2.4 -10.28263,-2.4z" fill="url(#color-45)" stroke="url(#color-46)" stroke-width="0" stroke-linecap="butt"/><path d="M265.62422,271.59603v9.10259l-2.42862,3.18588" fill="none" stroke="#8d9998" stroke-width="4" stroke-linecap="round"/></g><path d="M228.98131,288.74203v-26.2h19.6v26.2z" fill="url(#color-47)" stroke="none" stroke-width="0" stroke-linecap="butt"/></g><g stroke="none" stroke-width="0" stroke-linecap="butt"><path d="M230.7342,157.25999l-6.41667,-6.72222v-17.72222l6.11111,-6.41667h20.77778l6.11111,7.02778v16.80556l-5.80556,7.02778z" fill="#dbdfdf"/><path d="M230.7342,153.25999l-6.41667,-6.72222v-17.72222l6.11111,-6.41667h20.77778l6.11111,7.02778v16.80556l-5.80556,7.02778z" fill="#f7fbfb"/></g><g stroke="none" stroke-width="0" stroke-linecap="butt"><path d="M229.7342,228.75999l-6.41667,-6.72222v-17.72222l6.11111,-6.41667h20.77778l6.11111,7.02778v16.80556l-5.80556,7.02778z" fill="#cfd3d3"/><path d="M229.7342,224.75999l-6.41667,-6.72222v-17.72222l6.11111,-6.41667h20.77778l6.11111,7.02778v16.80556l-5.80556,7.02778z" fill="#edf2f2"/></g><path d="M178.82764,108.24557v-15.89458l8.28595,-4.79618v26.33334z" fill="#97a4a3" stroke="none" stroke-width="0" stroke-linecap="butt"/><path d="M293.82764,113.88814v-26.33334l8.28596,4.79618v15.89458z" data-paper-data="{&quot;index&quot;:null}" fill="#97a4a3" stroke="none" stroke-width="0" stroke-linecap="butt"/><path d="M183.73419,111.87056v-20.66666h8.33334v20.66666z" fill="url(#color-48)" stroke="none" stroke-width="0" stroke-linecap="butt"/><path d="M289.06753,111.87056v-20.66666h8.33333v20.66666z" data-paper-data="{&quot;index&quot;:null}" fill="url(#color-49)" stroke="none" stroke-width="0" stroke-linecap="butt"/></g></g></svg>