<svg version="1.1" xmlns="http://www.w3.org/2000/svg" xmlns:xlink="http://www.w3.org/1999/xlink" width="35.88747" height="13.37988" viewBox="0,0,35.88747,13.37988"><defs><linearGradient x1="232.17398" y1="180.09727" x2="234.15263" y2="180.09727" gradientUnits="userSpaceOnUse" id="color-1"><stop offset="0" stop-color="#0099cd"/><stop offset="1" stop-color="#008ab7"/></linearGradient><linearGradient x1="232.17398" y1="180.09727" x2="234.15263" y2="180.09727" gradientUnits="userSpaceOnUse" id="color-2"><stop offset="0" stop-color="#0099cd"/><stop offset="1" stop-color="#008ab7"/></linearGradient><linearGradient x1="232.96227" y1="179.99869" x2="233.71622" y2="179.99869" gradientUnits="userSpaceOnUse" id="color-3"><stop offset="0" stop-color="#0099cd"/><stop offset="1" stop-color="#008ab7"/></linearGradient><linearGradient x1="245.79288" y1="180.00912" x2="247.98343" y2="180.00912" gradientUnits="userSpaceOnUse" id="color-4"><stop offset="0" stop-color="#898989"/><stop offset="1" stop-color="#a1a1a1"/></linearGradient><linearGradient x1="249.21562" y1="180.00912" x2="254.82889" y2="180.00912" gradientUnits="userSpaceOnUse" id="color-5"><stop offset="0" stop-color="#898989"/><stop offset="1" stop-color="#a1a1a1"/></linearGradient><linearGradient x1="258.52544" y1="180.07758" x2="261.81126" y2="180.07758" gradientUnits="userSpaceOnUse" id="color-6"><stop offset="0" stop-color="#a1a1a1"/><stop offset="1" stop-color="#898989"/></linearGradient><linearGradient x1="255.52045" y1="179.86622" x2="255.52045" y2="182.47661" gradientUnits="userSpaceOnUse" id="color-7"><stop offset="0" stop-color="#bebebe" stop-opacity="0"/><stop offset="1" stop-color="#bebebe"/></linearGradient><linearGradient x1="246.29188" y1="180.21622" x2="246.29188" y2="182.82661" gradientUnits="userSpaceOnUse" id="color-8"><stop offset="0" stop-color="#bebebe" stop-opacity="0"/><stop offset="1" stop-color="#bebebe"/></linearGradient><radialGradient cx="240" cy="180" r="6.68994" gradientUnits="userSpaceOnUse" id="color-9"><stop offset="0" stop-color="#00a0ff"/><stop offset="1" stop-color="#0098e2"/></radialGradient><linearGradient x1="264.84188" y1="180.86622" x2="264.84188" y2="183.47661" gradientUnits="userSpaceOnUse" id="color-10"><stop offset="0" stop-color="#bebebe" stop-opacity="0"/><stop offset="1" stop-color="#bebebe"/></linearGradient></defs><g transform="translate(-231.92398,-173.31006)"><g data-paper-data="{&quot;isPaintingLayer&quot;:true}" fill-rule="nonzero" stroke-linejoin="miter" stroke-miterlimit="10" stroke-dasharray="" stroke-dashoffset="0" style="mix-blend-mode: normal"><g><path d="M234.15263,182.53525l-0.56533,-0.424l-1.41332,-0.98933v-2.33198l1.76666,-1.13066z" fill="url(#color-1)" stroke="url(#color-2)" stroke-width="0.5" stroke-linecap="round"/><path d="M233.71622,182.38508l-0.75395,-0.49767v-3.78877l0.75163,-0.48635z" fill="url(#color-3)" stroke="none" stroke-width="0" stroke-linecap="butt"/></g><g stroke-linecap="butt"><g fill="#a1a1a1" stroke="#a1a1a1" stroke-width="0.5"><path d="M242.46241,182.13122v-4.10727h20.53638v4.10727z"/><path d="M262.08508,183.2265v-6.43473h5.47637v6.43473z"/><path d="M234.84014,182.54195v-5.06564h14.10165v5.06564z"/></g><path d="M245.79288,182.81577v-5.61328h2.19055v5.61328z" fill="url(#color-4)" stroke="none" stroke-width="0"/><path d="M249.21562,182.26813v-4.518h5.61328v4.518z" fill="url(#color-5)" stroke="none" stroke-width="0"/><path d="M258.52544,182.40504v-4.65491h3.28583v4.65491z" fill="url(#color-6)" stroke="none" stroke-width="0"/></g><path d="M249.22727,182.47661v-2.61039h12.58636v2.61039z" fill="url(#color-7)" stroke="none" stroke-width="0" stroke-linecap="butt"/><path d="M243.34156,182.82661v-2.61039h5.90064v2.61039z" fill="url(#color-8)" stroke="none" stroke-width="0" stroke-linecap="butt"/><path d="M246.55614,180c0,3.69475 -2.93528,6.68994 -6.55614,6.68994c-3.62086,0 -6.55614,-2.99519 -6.55614,-6.68994c0,-3.69475 2.93528,-6.68994 6.55614,-6.68994c3.62086,0 6.55614,2.99519 6.55614,6.68994z" fill="url(#color-9)" stroke="none" stroke-width="NaN" stroke-linecap="butt"/><path d="M261.89156,183.47661v-2.61039h5.90065v2.61039z" fill="url(#color-10)" stroke="none" stroke-width="0" stroke-linecap="butt"/></g></g></svg>