<svg version="1.1" xmlns="http://www.w3.org/2000/svg" xmlns:xlink="http://www.w3.org/1999/xlink" width="280" height="280" viewBox="0,0,280,280"><defs><radialGradient cx="240" cy="180" r="47.75" gradientUnits="userSpaceOnUse" id="color-1"><stop offset="0" stop-color="#00b4d4"/><stop offset="1" stop-color="#00b4d4" stop-opacity="0"/></radialGradient><linearGradient x1="190.0582" y1="208.62577" x2="288.76464" y2="141.21044" gradientUnits="userSpaceOnUse" id="color-2"><stop offset="0" stop-color="#ffffff"/><stop offset="1" stop-color="#ffffff" stop-opacity="0"/></linearGradient><linearGradient x1="188.13505" y1="139.123" x2="283.9328" y2="210.6113" gradientUnits="userSpaceOnUse" id="color-3"><stop offset="0" stop-color="#ffffff"/><stop offset="1" stop-color="#ffffff" stop-opacity="0"/></linearGradient><linearGradient x1="299.99306" y1="199.3279" x2="185.5294" y2="164.89161" gradientUnits="userSpaceOnUse" id="color-4"><stop offset="0" stop-color="#ffffff"/><stop offset="1" stop-color="#ffffff" stop-opacity="0"/></linearGradient><radialGradient cx="239.91805" cy="201.68524" r="12.35459" gradientUnits="userSpaceOnUse" id="color-5"><stop offset="0" stop-color="#fcec00"/><stop offset="1" stop-color="#fcec00" stop-opacity="0"/></radialGradient><linearGradient x1="239.28417" y1="200.57922" x2="239.28417" y2="217.44285" gradientUnits="userSpaceOnUse" id="color-6"><stop offset="0" stop-color="#ffffff"/><stop offset="1" stop-color="#ffffff" stop-opacity="0"/></linearGradient><radialGradient cx="239.51414" cy="204.46867" r="8.89813" gradientUnits="userSpaceOnUse" id="color-7"><stop offset="0" stop-color="#f5eb75"/><stop offset="1" stop-color="#f5eb75" stop-opacity="0"/></radialGradient><linearGradient x1="238.69367" y1="121.25758" x2="238.69367" y2="215.28363" gradientUnits="userSpaceOnUse" id="color-8"><stop offset="0" stop-color="#a300f2"/><stop offset="1" stop-color="#a300f2" stop-opacity="0"/></linearGradient><linearGradient x1="238.45597" y1="93.23882" x2="238.45597" y2="221.25943" gradientUnits="userSpaceOnUse" id="color-9"><stop offset="0" stop-color="#f1f1f1"/><stop offset="1" stop-color="#f1f1f1" stop-opacity="0"/></linearGradient><linearGradient x1="239.46424" y1="200.87547" x2="239.46424" y2="208.78323" gradientUnits="userSpaceOnUse" id="color-10"><stop offset="0" stop-color="#ff4f00"/><stop offset="1" stop-color="#ff4f00" stop-opacity="0"/></linearGradient><linearGradient x1="239.39626" y1="201.12221" x2="239.39626" y2="206.46804" gradientUnits="userSpaceOnUse" id="color-11"><stop offset="0" stop-color="#ffd400"/><stop offset="1" stop-color="#ffd400" stop-opacity="0"/></linearGradient><linearGradient x1="239.39396" y1="200.76415" x2="239.39396" y2="209.64647" gradientUnits="userSpaceOnUse" id="color-12"><stop offset="0" stop-color="#ffee00"/><stop offset="1" stop-color="#ffee00" stop-opacity="0"/></linearGradient><linearGradient x1="239.32144" y1="200.6912" x2="239.32144" y2="204.57857" gradientUnits="userSpaceOnUse" id="color-13"><stop offset="0" stop-color="#ffee00"/><stop offset="1" stop-color="#ffee00" stop-opacity="0"/></linearGradient><linearGradient x1="241.36421" y1="200.76415" x2="241.36421" y2="204.65153" gradientUnits="userSpaceOnUse" id="color-14"><stop offset="0" stop-color="#ffee00"/><stop offset="1" stop-color="#ffee00" stop-opacity="0"/></linearGradient><linearGradient x1="237.27869" y1="200.76415" x2="237.27869" y2="204.65153" gradientUnits="userSpaceOnUse" id="color-15"><stop offset="0" stop-color="#ffee00"/><stop offset="1" stop-color="#ffee00" stop-opacity="0"/></linearGradient><radialGradient cx="239.35357" cy="204.70255" r="6.32236" gradientUnits="userSpaceOnUse" id="color-16"><stop offset="0" stop-color="#feea00"/><stop offset="1" stop-color="#feea00" stop-opacity="0"/></radialGradient><radialGradient cx="239.5184" cy="203.90033" r="6.32236" gradientUnits="userSpaceOnUse" id="color-17"><stop offset="0" stop-color="#feea00"/><stop offset="1" stop-color="#feea00" stop-opacity="0"/></radialGradient><linearGradient x1="237.14117" y1="148.83234" x2="242.52871" y2="148.83234" gradientUnits="userSpaceOnUse" id="color-18"><stop offset="0" stop-color="#8d9293"/><stop offset="1" stop-color="#70757a"/></linearGradient><linearGradient x1="252.83335" y1="183.94158" x2="261.33335" y2="183.94158" gradientUnits="userSpaceOnUse" id="color-19"><stop offset="0" stop-color="#bac3d3"/><stop offset="1" stop-color="#bac3d3" stop-opacity="0"/></linearGradient><linearGradient x1="218.41668" y1="183.94157" x2="226.91668" y2="183.94157" gradientUnits="userSpaceOnUse" id="color-20"><stop offset="0" stop-color="#bac3d3" stop-opacity="0"/><stop offset="1" stop-color="#bac3d3"/></linearGradient><linearGradient x1="239.33333" y1="14.21212" x2="239.33333" y2="139.66666" gradientUnits="userSpaceOnUse" id="color-21"><stop offset="0" stop-color="#000000"/><stop offset="1" stop-color="#000000" stop-opacity="0"/></linearGradient><linearGradient x1="239.33333" y1="345.78787" x2="239.33333" y2="220.33333" gradientUnits="userSpaceOnUse" id="color-22"><stop offset="0" stop-color="#000000"/><stop offset="1" stop-color="#000000" stop-opacity="0"/></linearGradient><linearGradient x1="405.95454" y1="180.65942" x2="280.5" y2="180.65942" gradientUnits="userSpaceOnUse" id="color-23"><stop offset="0" stop-color="#000000"/><stop offset="1" stop-color="#000000" stop-opacity="0"/></linearGradient><linearGradient x1="74.04546" y1="180.65942" x2="199.5" y2="180.65942" gradientUnits="userSpaceOnUse" id="color-24"><stop offset="0" stop-color="#000000"/><stop offset="1" stop-color="#000000" stop-opacity="0"/></linearGradient></defs><g transform="translate(-100,-40)"><g data-paper-data="{&quot;isPaintingLayer&quot;:true}" fill-rule="nonzero" stroke-linejoin="miter" stroke-miterlimit="10" stroke-dasharray="" stroke-dashoffset="0" style="mix-blend-mode: normal"><path d="M100,320v-280h280v280z" fill="none" stroke="none" stroke-width="0" stroke-linecap="butt"/><g stroke-linecap="butt"><path d="M201.46845,218.52535v-77.05069c0,0 -0.41929,0 2.28298,0c8.58763,0 58.23558,0 72.48473,0c2.5276,0 2.28298,0 2.28298,0v77.05069c0,0 0.59351,0 -2.28298,0c-15.11689,0 -65.96696,0 -73.72214,0c-2.15867,0 -1.04557,0 -1.04557,0z" fill="#00daff" stroke="#00daff" stroke-width="50"/><g><g fill="#00d5fb" stroke="none" stroke-width="0.5"><path d="M181.34313,199.15498c-0.5368,-2.27354 1.75907,-2.9295 1.75907,-2.9295c4.76246,-1.32953 12.45287,-2.75498 16.45457,1.13604c0.93418,0.90834 1.98117,5.63329 3.21573,5.96935c3.71871,1.01227 7.29214,0.16704 11.10554,1.3688c1.29479,0.40804 3.03701,0.25321 3.84433,1.34465c1.37827,1.86334 0.85704,5.77968 -0.87439,7.63021c0.81035,-0.02783 1.59411,0.33609 2.39173,0.49572c3.49413,0.62756 7.84696,2.19651 10.43527,4.81796c1.38058,1.39826 1.73301,3.52915 2.68865,5.2461c0.2075,0.3728 0.12921,1.05657 0.54342,1.15891c1.75633,0.43392 3.62389,0.0394 5.42227,0.23639c0.51497,0.05641 1.15194,0.26145 1.55271,-0.06682c0.56296,-0.46111 0.4975,-1.39165 0.93647,-1.97204c2.08509,-2.75684 5.62046,-5.8168 9.42723,-4.27117c3.4329,1.39382 2.84969,3.07729 4.2227,5.58489c0.47461,0.8668 1.47309,1.47063 1.6923,2.43424c0.32613,1.4336 0.38454,3.03347 -0.13564,4.4086c-0.34767,0.91911 -1.66796,1.11225 -2.25177,1.90268c-0.53323,0.72195 -0.44893,1.79156 -1,2.5c-0.59525,0.76523 -4.46168,3.34528 -5.19372,3.85099c-4.81779,0.16099 -9.75123,2.05177 -14.53692,1.61613c-1.90916,-0.17379 -3.84043,-0.18921 -5.72642,-0.53294c-1.78204,-0.32479 -3.42846,-1.311 -5.23343,-1.46341c-4.35279,-0.36754 -8.92153,0.00852 -13.2938,0.00852c-7.04014,0 -14.04742,0.45541 -18.76777,-5.73223c-3.95445,-2.91605 -7.19444,-7.48581 -7.72007,-12.52142c-0.19033,-1.82342 0.18261,-3.67578 0,-5.5c-0.45184,-4.5136 -1.01216,-8.64794 -1.01216,-13.24634v-3c0,0 0,-0.19418 0.05412,-0.47431z"/><path d="M247.39583,177.15826c1.58757,-1.21071 3.28906,-2.33498 5.18082,-2.92533c1.36631,-0.42638 2.95633,-0.5228 4.03801,-1.46013c1.49341,-1.29412 0.956,-2.43824 1.94657,-4.27795c0.68694,-1.27581 1.83954,-2.26249 2.52137,-3.54104c0.67459,-1.26496 0.85277,-2.75348 1.51382,-4.02557c3.31527,-6.37975 11.86403,-8.71986 18.43894,-8.28678c0.90687,0.05973 1.79701,0.29173 2.67574,0.52373c1.72623,0.45575 4.06115,0.10781 5.13078,1.53731c2.93077,3.91677 -3.68761,8.59243 -4.10953,11.89755c-0.04485,0.35133 0.63285,0.31921 0.95823,0.45909c1.07324,0.46139 2.22019,0.76833 3.23656,1.34426c1.25523,0.71128 2.35825,1.66277 3.53737,2.49416c0.54237,6.23719 0.98096,12.56974 -1.93588,18.34266c-1.4748,2.91888 -4.97911,4.64793 -6.23979,7.36003c-0.13328,0.28671 0.63045,0.16878 0.87239,0.37232c1.09959,0.92507 2.06333,2.00078 3.11384,2.98123c3.58472,3.34566 8.05395,6.83025 5.1702,12.44064c-0.56593,1.10104 -1.98744,1.50227 -2.81351,2.42433c-1.43698,1.60397 -1.98935,3.88284 -3.46033,5.45568c-4.34073,4.64129 -10.35466,3.97214 -15.6285,1.64405c-1.00541,-2.11081 -1.54456,-4.4673 -2.84102,-6.41296c-1.92123,-2.88328 -5.57108,-4.73616 -8.0802,-7.01341c-3.85023,-3.49443 -8.11706,-6.48005 -11.9707,-9.97419c-0.96738,-0.87713 -1.68139,-2.03455 -2.73823,-2.80153c-2.28754,-1.66013 -6.5403,-3.10546 -7.87703,-6.00413c-2.48345,-5.38529 3.78351,-10.32061 7.63523,-12.31904c0,0 0.82593,-0.41297 1.72485,-0.23497z"/><path d="M213.78901,179.62929c0,-0.15679 0.00983,-0.30374 0.02826,-0.44148c-0.77483,-0.7702 -1.69066,-1.43578 -2.23245,-2.37887c-0.68013,-1.18391 -0.39636,-2.97986 -1.47016,-3.82316c-2.06942,-1.62519 -4.21007,-1.50503 -4.78409,-4.90252c-0.24498,-1.44996 0.77201,-2.84537 0.9826,-4.30072c0.28129,-1.94391 -1.2474,-4.09778 -0.41689,-5.87771c0.84582,-1.81273 2.45398,-3.23485 4.0784,-4.40216c3.14618,-2.26085 6.10086,-0.75065 9.41388,-1.34109c3.62726,-0.64644 5.61009,-2.98779 8.43868,-5.06038c2.63962,-1.93413 5.30738,-2.15195 8.06029,-3.8037c0.8766,-0.18403 1.7532,-0.36807 2.62979,-0.5521l2.29059,-0.91624c0.30123,-0.12866 0.63286,-0.19986 0.98111,-0.19986c1.38071,0 2.5,1.11929 2.5,2.5c0,0.34826 -0.07121,0.67989 -0.19987,0.98112l-0.97894,2.44736l-0.03198,-0.01279c-0.03158,0.09981 -0.06591,0.19896 -0.10325,0.29739c-1.15909,3.05613 -3.68066,5.41671 -5.78855,7.91475c-1.32747,1.57317 -4.4025,3.80239 -4.98813,6.0395c-0.97013,3.7059 1.50618,8.84586 -0.17321,12.4507c-0.4427,0.95026 -1.69052,1.26627 -2.37958,2.05631c-0.75597,0.86676 -0.98458,2.195 -1.91637,2.86919c-0.90159,0.65234 -2.16864,0.51122 -3.22776,0.85282c-1.7859,0.576 -3.48757,1.38652 -5.2396,2.05853l-2.97277,0.04511c0,0 -2.5,0 -2.5,-2.5z"/><path d="M184.40805,174.39973c-2.47271,-6.63189 -1.32059,-15.38733 -0.07808,-22.22114c0.73964,-4.06798 1.08397,-8.20976 4.19128,-11.31707c2.27528,-2.27528 4.94457,-2.33341 7.50906,-3.89225c2.2686,-1.37898 4.52864,-2.81835 6.98322,-3.82988c1.36538,1.02004 3.42275,1.49445 4.09615,3.0601c1.58505,3.68526 -1.06808,5.64357 -3.0529,7.69756c-2.97015,3.07364 -6.71348,5.97088 -7.29193,10.57898c-0.32187,2.56414 -0.29294,5.18427 -0.00811,7.75279c0.43989,3.9669 4.44007,7.22156 2.39135,11.72798c-2.55907,5.62898 -7.82219,4.67248 -12.85907,4.67248c0,0 -2.5,0 -2.5,-2.5c0,-0.81135 0.26332,-1.35939 0.61904,-1.72957z"/><path d="M264.85205,142.08217c-0.57976,-0.10512 -1.57169,-0.44476 -1.92945,-1.54207c-5.20267,-0.44415 -11.26314,-2.52738 -14.88359,-6.12545c-3.61425,-3.59191 -5.56385,-6.82272 -2.22051,-11.32388c0.86337,-1.16236 1.89678,-2.23465 3.09429,-3.04857c3.48511,-2.36875 9.91765,-1.70338 13.98012,-1.41074c1.95292,0.14068 4.01825,-0.10471 5.84257,0.60629c3.26056,1.27075 3.36569,4.63968 6.29988,4.90371c3.75113,-0.01657 7.50249,-0.02011 11.25365,-0.01216c4.23483,0.00896 5.98476,0.25138 9.13801,3.11136c2.44522,2.21781 4.40966,2.59733 2.61526,6.97161c-0.52544,1.28088 -2.07248,1.83666 -3.08596,2.77985c-2.34582,2.18314 -4.67013,3.4564 -7.5564,4.8768c-0.93337,0.45934 -1.88624,0.9171 -2.89854,1.15674c-0.47043,0.11137 -1.13951,-0.5036 -1.4446,-0.12859c-0.47693,0.58624 0.23927,1.70158 -0.281,2.24972c-2.15411,2.26948 -6.93168,3.57536 -9.99647,3.93397c-1.37805,0.16125 -3.0094,1.04504 -4.15416,0.2611c-1.55893,-1.06755 -1.81575,-3.31401 -2.72362,-4.97102c-0.09719,-0.81527 -0.46604,-1.6843 -1.04947,-2.28866z"/><path d="M206.28553,123.58745c0.08029,-0.05279 0.16204,-0.09948 0.24383,-0.14081c-0.18858,0.01806 -0.30319,0.05214 -0.30723,0.10827c0.0211,0.0109 0.04224,0.02175 0.0634,0.03254zM211.11109,128.16415c-0.57129,1.46515 -2.32207,1.46515 -2.32207,1.46515l-1.42848,-0.17881c-2.3535,-0.9853 -4.32972,-2.82213 -6.00464,-4.74681c0.65711,-1.8675 0.5319,-4.24332 1.97134,-5.60249c1.0874,-1.02676 2.96965,-0.37076 4.46178,-0.47189c5.76075,-0.39049 12.09276,-0.3041 17.79309,0.51724c1.69867,0.24475 3.75025,-0.20733 5.07146,0.888c5.98694,4.96341 2.06185,5.5867 -1.13973,7.77417c-2.10887,1.44087 -4.57957,2.60908 -7.12505,2.8186c-3.0663,0.25239 -5.89292,-1.40972 -8.72416,-2.07724c-0.94638,-0.22313 -1.76213,-0.33329 -2.55353,-0.38591z"/></g><path d="M192.25,180c0,-26.3716 21.37841,-47.75 47.75,-47.75c26.37159,0 47.75,21.3784 47.75,47.75c0,26.3716 -21.37841,47.75 -47.75,47.75c-26.3716,0 -47.75,-21.3784 -47.75,-47.75z" fill="url(#color-1)" stroke="none" stroke-width="0"/><g fill="#ffffff"><path d="M191.5,235.5v-1.25h23.13567c0.84771,0.1491 2.045,0.15207 3.23409,0h54.11674c1.91484,0.46692 4.75109,0.82967 5.42267,0h11.09083v1.25l-3.15861,0c-0.6809,-1.03075 -2.19886,-0.79073 -3.51766,0l-16.10931,0c-0.77694,-0.6761 -3.0538,-0.58336 -4.6841,0h-0.0042c-0.17241,-0.00484 -0.34568,-0.0049 -0.51916,0h-16.30559c-0.43011,-0.34983 -0.97875,-0.55953 -1.57638,-0.55953c-0.59762,0 -1.14627,0.2097 -1.57637,0.55953h-14.30519c-0.69191,-0.81114 -2.1875,-0.63112 -3.44102,0h-19.97945c-2.39952,-0.5813 -4.99599,-0.84483 -6.96098,0z" stroke="none" stroke-width="none"/><path d="M182.5,219.75v-1.25h47.39995c0.22487,0.08325 0.46499,0.13508 0.71502,0.15017c0.05057,0.00305 0.10154,0.00459 0.15288,0.00459c0.12258,0.00558 3.62204,0.38425 6.1185,-0.15476h11.43453c1.11857,0.67143 3.42623,0.54941 4.94401,0h21.38184c0.91207,0.90651 4.05259,0.6206 5.50432,0h17.34894v1.25h-7.7923c-0.69014,-0.25407 -1.44172,-0.36372 -2.18543,-0.26511c-0.33439,0.04434 -0.66719,0.13077 -0.9921,0.26511l-20.39392,0c-0.92423,-0.72624 -2.46419,-0.59388 -3.89355,-0.01835c-0.19756,-0.05021 -0.40451,-0.07689 -0.61769,-0.07689c-0.23782,0 -0.46789,0.03321 -0.68581,0.09524h-43.34348c-1.79401,-0.45006 -4.39756,-0.49982 -6.52569,0z" stroke="none" stroke-width="none"/><g><path d="M236.33836,230.89323c-0.45394,-0.25421 -0.80802,-0.60648 -1.06223,-1.05679c-0.25421,-0.45394 -0.38131,-0.9769 -0.38131,-1.56884v-2.1428c0.07886,-0.16383 0.12305,-0.34749 0.12305,-0.54148c0,-0.1696 -0.03378,-0.33131 -0.09497,-0.47878c0.05026,-0.40404 0.16801,-0.77145 0.35324,-1.10222c0.25421,-0.45394 0.60829,-0.80803 1.06223,-1.06224c0.45395,-0.25421 0.97689,-0.38131 1.56884,-0.38131c0.59195,0 1.11307,0.12711 1.56339,0.38131c0.45031,0.25421 0.80258,0.60829 1.05679,1.06224c0.25784,0.45394 0.38676,0.97689 0.38676,1.56883v2.69644c0,0.59194 -0.12892,1.11489 -0.38676,1.56884c-0.25421,0.45031 -0.60648,0.80258 -1.05679,1.05679c-0.0238,0.01343 -0.04779,0.02651 -0.07199,0.03924c-0.18515,-0.10842 -0.40069,-0.17057 -0.63074,-0.17057c-0.41342,0 -0.77996,0.2007 -1.00751,0.50998c-0.53195,-0.01945 -1.00595,-0.14567 -1.42198,-0.37865zM237.90719,229.94539c0.29415,0 0.56107,-0.07082 0.80076,-0.21245c0.23969,-0.14163 0.42853,-0.33047 0.56653,-0.56652c0.09388,-0.15887 0.15665,-0.32971 0.1883,-0.51252c0.25315,-0.22875 0.41222,-0.55965 0.41222,-0.92771c0,-0.35621 -0.149,-0.67762 -0.38807,-0.90531v-1.35866c0,-0.29779 -0.07082,-0.56471 -0.21245,-0.80076c-0.138,-0.23969 -0.32684,-0.43034 -0.56653,-0.57198c-0.23969,-0.14163 -0.5066,-0.21245 -0.80076,-0.21245c-0.29415,0 -0.56289,0.07082 -0.8062,0.21245c-0.23969,0.14163 -0.42853,0.33229 -0.56653,0.57198c-0.138,0.23605 -0.207,0.50297 -0.207,0.80076v2.90344c0,0.29416 0.069,0.56107 0.207,0.80076c0.138,0.23605 0.32684,0.42489 0.56653,0.56652c0.24331,0.14163 0.51205,0.21245 0.8062,0.21245z" stroke="#00c8eb" stroke-width="2.5"/><path d="M229.93118,226.67698c0.276,-0.24694 0.46847,-0.47937 0.57741,-0.69726c0.10895,-0.22152 0.16342,-0.43579 0.16342,-0.64279c0,-0.27963 -0.05992,-0.52839 -0.17976,-0.74628c-0.11984,-0.21789 -0.28508,-0.3904 -0.49571,-0.5175c-0.21063,-0.13073 -0.45395,-0.1961 -0.72994,-0.1961c-0.29053,0 -0.54837,0.06719 -0.77353,0.20155c-0.22152,0.13437 -0.39402,0.31232 -0.5175,0.53384c-0.12348,0.22152 -0.18158,0.45939 -0.17432,0.7136h-1.4381c0,-0.2768 0.03025,-0.53581 0.09074,-0.77702c0.2134,-0.27335 0.37119,-0.59222 0.45639,-0.93961c0.22825,-0.29255 0.51435,-0.52836 0.85829,-0.70744c0.43942,-0.22879 0.94783,-0.34319 1.52525,-0.34319c0.53747,0 1.01866,0.11984 1.44355,0.35953c0.42489,0.23605 0.759,0.56471 1.00231,0.98597c0.24695,0.42127 0.37042,0.90427 0.37042,1.449c0,0.39948 -0.05448,0.73539 -0.16342,1.00776c-0.1004,0.24767 -0.24708,0.47837 -0.44002,0.69211c-0.57307,0.0538 -1.03367,0.49449 -1.1179,1.05818l-1.87276,1.65976h3.59409v1.31826h-0.97391c-0.19027,-0.11706 -0.41429,-0.18457 -0.65407,-0.18457c-0.23978,0 -0.4638,0.06752 -0.65407,0.18457h-3.4758v-0.66438c0.09688,-0.22591 0.16143,-0.46896 0.18783,-0.72335z" stroke="#00c8eb" stroke-width="2.5"/><path d="M243.47354,229.86913l3.57891,-3.19214c0.276,-0.24694 0.46848,-0.47937 0.57742,-0.69726c0.10895,-0.22152 0.16342,-0.43579 0.16342,-0.64279c0,-0.27963 -0.05992,-0.52839 -0.17976,-0.74628c-0.11984,-0.21789 -0.28508,-0.3904 -0.4957,-0.5175c-0.21063,-0.13073 -0.45395,-0.1961 -0.72995,-0.1961c-0.29053,0 -0.54837,0.06719 -0.77353,0.20155c-0.18982,0.11514 -0.34365,0.26227 -0.46148,0.44141c-0.40178,0.10942 -0.72301,0.41423 -0.85532,0.80603h-0.81312c0,-0.55926 0.12347,-1.04589 0.37042,-1.45989c0.25058,-0.414 0.59557,-0.73539 1.03499,-0.96418c0.43942,-0.22879 0.94784,-0.34319 1.52526,-0.34319c0.53747,0 1.01865,0.11984 1.44355,0.35953c0.42489,0.23605 0.759,0.56471 1.00231,0.98597c0.24694,0.42127 0.37042,0.90427 0.37042,1.449c0,0.39948 -0.05448,0.73539 -0.16342,1.00776c-0.03735,0.09212 -0.08109,0.1819 -0.13124,0.26932c-0.05523,-0.00746 -0.1116,-0.01131 -0.16888,-0.01131c-0.69036,0 -1.25,0.55964 -1.25,1.25c0,0.07454 0.00652,0.14755 0.01903,0.2185l-1.89958,1.68354h3.59409v1.31826h-2.20075c-0.22905,-0.28665 -0.58161,-0.47029 -0.97707,-0.47029c-0.39546,0 -0.74802,0.18364 -0.97707,0.47029h-1.60296z" stroke="#00c8eb" stroke-width="2.5"/><path d="M253.47052,231.10023l0,-1.2561c0.40928,-0.20535 0.69019,-0.62884 0.69019,-1.11794c0,-0.4891 -0.28091,-0.9126 -0.69019,-1.11794v-3.34444l-1.56883,0.95873v-1.54705l1.56883,-0.9424h1.42721v3.00861c-0.12956,0.30212 -0.2013,0.63492 -0.2013,0.98447c0,0.34955 0.07174,0.68235 0.2013,0.98447v3.38957z" stroke="#00c8eb" stroke-width="2.5"/><path d="M236.33836,230.89323c-0.45394,-0.25421 -0.80802,-0.60648 -1.06223,-1.05679c-0.25421,-0.45394 -0.38131,-0.9769 -0.38131,-1.56884v-2.1428c0.07886,-0.16383 0.12305,-0.34749 0.12305,-0.54148c0,-0.1696 -0.03378,-0.33131 -0.09497,-0.47878c0.05026,-0.40404 0.16801,-0.77145 0.35324,-1.10222c0.25421,-0.45394 0.60829,-0.80803 1.06223,-1.06224c0.45395,-0.25421 0.97689,-0.38131 1.56884,-0.38131c0.59195,0 1.11307,0.12711 1.56339,0.38131c0.45031,0.25421 0.80258,0.60829 1.05679,1.06224c0.25784,0.45394 0.38676,0.97689 0.38676,1.56883v2.69644c0,0.59194 -0.12892,1.11489 -0.38676,1.56884c-0.25421,0.45031 -0.60648,0.80258 -1.05679,1.05679c-0.0238,0.01343 -0.04779,0.02651 -0.07199,0.03924c-0.18515,-0.10842 -0.40069,-0.17057 -0.63074,-0.17057c-0.41342,0 -0.77996,0.2007 -1.00751,0.50998c-0.53195,-0.01945 -1.00595,-0.14567 -1.42198,-0.37865zM237.90719,229.94539c0.29415,0 0.56107,-0.07082 0.80076,-0.21245c0.23969,-0.14163 0.42853,-0.33047 0.56653,-0.56652c0.09388,-0.15887 0.15665,-0.32971 0.1883,-0.51252c0.25315,-0.22875 0.41222,-0.55965 0.41222,-0.92771c0,-0.35621 -0.149,-0.67762 -0.38807,-0.90531v-1.35866c0,-0.29779 -0.07082,-0.56471 -0.21245,-0.80076c-0.138,-0.23969 -0.32684,-0.43034 -0.56653,-0.57198c-0.23969,-0.14163 -0.5066,-0.21245 -0.80076,-0.21245c-0.29415,0 -0.56289,0.07082 -0.8062,0.21245c-0.23969,0.14163 -0.42853,0.33229 -0.56653,0.57198c-0.138,0.23605 -0.207,0.50297 -0.207,0.80076v2.90344c0,0.29416 0.069,0.56107 0.207,0.80076c0.138,0.23605 0.32684,0.42489 0.56653,0.56652c0.24331,0.14163 0.51205,0.21245 0.8062,0.21245z" stroke="none" stroke-width="1"/><path d="M229.93118,226.67698c0.276,-0.24694 0.46847,-0.47937 0.57741,-0.69726c0.10895,-0.22152 0.16342,-0.43579 0.16342,-0.64279c0,-0.27963 -0.05992,-0.52839 -0.17976,-0.74628c-0.11984,-0.21789 -0.28508,-0.3904 -0.49571,-0.5175c-0.21063,-0.13073 -0.45395,-0.1961 -0.72994,-0.1961c-0.29053,0 -0.54837,0.06719 -0.77353,0.20155c-0.22152,0.13437 -0.39402,0.31232 -0.5175,0.53384c-0.12348,0.22152 -0.18158,0.45939 -0.17432,0.7136h-1.4381c0,-0.2768 0.03025,-0.53581 0.09074,-0.77702c0.2134,-0.27335 0.37119,-0.59222 0.45639,-0.93961c0.22825,-0.29255 0.51435,-0.52836 0.85829,-0.70744c0.43942,-0.22879 0.94783,-0.34319 1.52525,-0.34319c0.53747,0 1.01866,0.11984 1.44355,0.35953c0.42489,0.23605 0.759,0.56471 1.00231,0.98597c0.24695,0.42127 0.37042,0.90427 0.37042,1.449c0,0.39948 -0.05448,0.73539 -0.16342,1.00776c-0.1004,0.24767 -0.24708,0.47837 -0.44002,0.69211c-0.57307,0.0538 -1.03367,0.49449 -1.1179,1.05818l-1.87276,1.65976h3.59409v1.31826h-0.97391c-0.19027,-0.11706 -0.41429,-0.18457 -0.65407,-0.18457c-0.23978,0 -0.4638,0.06752 -0.65407,0.18457h-3.4758v-0.66438c0.09688,-0.22591 0.16143,-0.46896 0.18783,-0.72335z" stroke="none" stroke-width="1"/><path d="M243.47354,229.86913l3.57891,-3.19214c0.276,-0.24694 0.46848,-0.47937 0.57742,-0.69726c0.10895,-0.22152 0.16342,-0.43579 0.16342,-0.64279c0,-0.27963 -0.05992,-0.52839 -0.17976,-0.74628c-0.11984,-0.21789 -0.28508,-0.3904 -0.4957,-0.5175c-0.21063,-0.13073 -0.45395,-0.1961 -0.72995,-0.1961c-0.29053,0 -0.54837,0.06719 -0.77353,0.20155c-0.18982,0.11514 -0.34365,0.26227 -0.46148,0.44141c-0.40178,0.10942 -0.72301,0.41423 -0.85532,0.80603h-0.81312c0,-0.55926 0.12347,-1.04589 0.37042,-1.45989c0.25058,-0.414 0.59557,-0.73539 1.03499,-0.96418c0.43942,-0.22879 0.94784,-0.34319 1.52526,-0.34319c0.53747,0 1.01865,0.11984 1.44355,0.35953c0.42489,0.23605 0.759,0.56471 1.00231,0.98597c0.24694,0.42127 0.37042,0.90427 0.37042,1.449c0,0.39948 -0.05448,0.73539 -0.16342,1.00776c-0.03735,0.09212 -0.08109,0.1819 -0.13124,0.26932c-0.05523,-0.00746 -0.1116,-0.01131 -0.16888,-0.01131c-0.69036,0 -1.25,0.55964 -1.25,1.25c0,0.07454 0.00652,0.14755 0.01903,0.2185l-1.89958,1.68354h3.59409v1.31826h-2.20075c-0.22905,-0.28665 -0.58161,-0.47029 -0.97707,-0.47029c-0.39546,0 -0.74802,0.18364 -0.97707,0.47029h-1.60296z" stroke="none" stroke-width="1"/><path d="M253.47052,231.10023l0,-1.2561c0.40928,-0.20535 0.69019,-0.62884 0.69019,-1.11794c0,-0.4891 -0.28091,-0.9126 -0.69019,-1.11794v-3.34444l-1.56883,0.95873v-1.54705l1.56883,-0.9424h1.42721v3.00861c-0.12956,0.30212 -0.2013,0.63492 -0.2013,0.98447c0,0.34955 0.07174,0.68235 0.2013,0.98447v3.38957z" stroke="none" stroke-width="1"/></g></g><path d="M182,216.86222c0,-13.86615 0,-53.11885 0,-76.56c0,-10.84251 10.30666,-18.30222 19.14,-18.30222c13.04018,0 50.67741,0 75.01333,0c12.74841,0 21.84667,8.91591 21.84667,21.39555c0,23.28353 0,58.97213 0,72.30667c0,9.99128 -8.19491,22.29778 -19.91333,22.29778c-23.97925,0 -62.71246,0 -76.17333,0c-9.12259,0 -19.91333,-11.5648 -19.91333,-21.13778z" fill="none" stroke="#00c8eb" stroke-width="5"/></g></g><g stroke="none" stroke-width="none" stroke-linecap="butt"><path d="M240.92737,181.09912l-5.86375,-8.58543l48.33784,-39.15577l12.72862,18.63666z" fill="url(#color-2)"/><path d="M230.67933,178.30682l6.21801,-8.33243l52.72267,33.01578l-13.49764,18.08747z" fill="url(#color-3)"/><path d="M246.61753,177.04695l-2.99525,9.95598l-60.83244,-13.00524l6.50189,-21.61177z" fill="url(#color-4)"/></g><g><path d="M245.37206,201.98067c0,0.8925 -2.60505,1.61602 -5.81854,1.61602c-3.21349,0 -5.81854,-0.72351 -5.81854,-1.61602c0,-0.8925 2.60505,-1.61602 5.81854,-1.61602c3.21349,0 5.81854,0.72351 5.81854,1.61602z" fill="#8deeff" stroke="none" stroke-width="0" stroke-linecap="butt"/><g stroke-width="0"><path d="M252.10791,201.68524c0,6.82325 -5.45758,12.35459 -12.18986,12.35459c-6.73227,0 -12.18987,-5.53134 -12.18987,-12.35459c0,-6.82325 5.45759,-12.35459 12.18987,-12.35459c6.73227,0 12.18986,5.53134 12.18986,12.35459z" fill="url(#color-5)" stroke="none" stroke-linecap="butt"/><g><path d="M241.78417,200.57922l-2.5,16.86364l-2.5,-16.86364z" fill="url(#color-6)" stroke="#000000" stroke-linecap="round"/><path d="M247.31952,204.46867c0,4.34894 -3.49458,7.87446 -7.80538,7.87446c-4.3108,0 -7.80538,-3.52552 -7.80538,-7.87446c0,-4.34894 3.49459,-7.87446 7.80538,-7.87446c4.3108,0 7.80538,3.52552 7.80538,7.87446z" fill="url(#color-7)" stroke="none" stroke-linecap="butt"/><g stroke="#000000" stroke-linecap="round"><path d="M241.48062,201.37835l-1.99752,14.93246l-2.35162,-14.93246z" fill="url(#color-8)"/><path d="M242.25052,202.32677l-2.71971,20.33121l-3.20183,-20.33121z" fill="url(#color-9)"/><path d="M240.56254,200.87547c0,0 1.97104,0.54702 1.90371,2.41626c-0.16093,4.46815 -3.2949,5.49149 -3.2949,5.49149c0,0 -2.64402,-0.90981 -2.70914,-5.49149c-0.02772,-1.95089 1.8305,-2.41626 1.8305,-2.41626z" fill="url(#color-10)"/><path d="M240.13874,201.12221c0,0 1.33247,0.3698 1.28696,1.63345c-0.10879,3.02057 -2.22743,3.71239 -2.22743,3.71239c0,0 -1.78743,-0.61506 -1.83145,-3.71239c-0.01874,-1.31885 1.23746,-1.63345 1.23746,-1.63345z" fill="url(#color-11)"/><path d="M240.62764,200.76415c0,0 2.21395,0.61444 2.13833,2.71404c-0.18075,5.01881 -3.70096,6.16828 -3.70096,6.16828c0,0 -2.96987,-1.02195 -3.04302,-6.16828c-0.03114,-2.19132 2.05609,-2.71404 2.05609,-2.71404z" fill="url(#color-12)"/><path d="M239.86136,200.6912c0,0 0.96894,0.26891 0.93585,1.18781c-0.07911,2.1965 -1.61974,2.69957 -1.61974,2.69957c0,0 -1.29978,-0.44726 -1.33179,-2.69957c-0.01364,-0.95904 0.89985,-1.18781 0.89985,-1.18781z" fill="url(#color-13)"/><path d="M241.90414,200.76415c0,0 0.96895,0.26892 0.93585,1.18781c-0.07911,2.1965 -1.61975,2.69957 -1.61975,2.69957c0,0 -1.29978,-0.44726 -1.33179,-2.69957c-0.01363,-0.95904 0.89986,-1.18781 0.89986,-1.18781z" fill="url(#color-14)"/><path d="M237.81861,200.76415c0,0 0.96895,0.26892 0.93585,1.18781c-0.07911,2.1965 -1.61975,2.69957 -1.61975,2.69957c0,0 -1.29978,-0.44726 -1.33179,-2.69957c-0.01363,-0.95904 0.89986,-1.18781 0.89986,-1.18781z" fill="url(#color-15)"/></g><path d="M244.8995,204.70255c0,3.09004 -2.48299,5.59501 -5.54593,5.59501c-3.06293,0 -5.54593,-2.50497 -5.54593,-5.59501c0,-3.09004 2.48299,-5.59501 5.54593,-5.59501c3.06293,0 5.54593,2.50497 5.54593,5.59501z" fill="url(#color-16)" stroke="none" stroke-linecap="butt"/><path d="M245.06432,203.90033c0,3.09004 -2.48299,5.59501 -5.54593,5.59501c-3.06294,0 -5.54593,-2.50497 -5.54593,-5.59501c0,-3.09004 2.48299,-5.59501 5.54593,-5.59501c3.06294,0 5.54593,2.50498 5.54593,5.59501z" fill="url(#color-17)" stroke="none" stroke-linecap="butt"/></g></g><path d="M227.07149,198.61224l-19.10098,-9.9695l0.13684,-4.65161h64.28845l0.08345,4.05249l-19.97859,10.56862z" fill="#ffffff" stroke="none" stroke-width="0" stroke-linecap="butt"/><path d="M207.86107,187.83879v-18.46878h64.21945v18.46878z" fill="#d8e1eb" stroke="none" stroke-width="0" stroke-linecap="butt"/><path d="M237.14117,156.91562v-16.4076c0,0 0.80945,1.19571 1.60376,1.76975c0.70303,0.50807 2.92177,1.50077 2.92177,1.50077l0.86201,13.37812z" fill="url(#color-18)" stroke="none" stroke-width="0" stroke-linecap="butt"/><path d="M227.00992,199.00616v-49.49742c0,0 3.07256,1.50209 7.11436,3.5152c1.83025,0.9116 4.72647,3.30107 6.10892,3.30107c1.31818,0 4.0571,-3.65969 5.82739,-4.56862c3.92018,-2.01274 6.99422,-2.24766 6.99422,-2.24766v49.49742z" fill="#d8e1eb" stroke="none" stroke-width="0" stroke-linecap="butt"/><path d="M227.05097,149.60169l10.25171,-9.50735v14.42652c0,0 0.53476,0.80119 1.16948,1.01001c0.63472,0.20882 1.29845,0.18876 1.80761,-0.03057c0.64661,-0.27854 0.9943,-0.97944 0.9943,-0.97944v-14.51217l11.72943,9.50735l-12.28359,8.13693z" fill="#d8e1eb" stroke="#000000" stroke-width="0" stroke-linecap="round"/><path d="M207.52076,170.12021v18.084" fill="none" stroke="#8d9293" stroke-width="4" stroke-linecap="round"/><path d="M272.2402,170.12021v18.084" fill="none" stroke="#8d9293" stroke-width="4" stroke-linecap="round"/><path d="M239.41498,172.58876v-6.54103" fill="none" stroke="#6e7273" stroke-width="3.5" stroke-linecap="round"/><path d="M252.83335,198.52491v-29.16666h8.5v24.33334z" fill="url(#color-19)" stroke="none" stroke-width="0" stroke-linecap="butt"/><path d="M218.41668,193.69158v-24.33334h8.5v29.16666z" data-paper-data="{&quot;index&quot;:null}" fill="url(#color-20)" stroke="none" stroke-width="0" stroke-linecap="butt"/><path d="M234.4073,142.7167l-0.15913,17.41254l-2.86431,2.39019v14.90356l5.72861,4.78038v17.29375h-8.11554l-2.2278,-0.8436l-0.15913,-49.77223z" fill="#8d9293" stroke="#f5f5f5" stroke-width="0" stroke-linecap="round"/><path d="M252.91246,149.13129l-0.16519,49.77223l-2.31264,0.8436h-8.42463v-17.29375l5.94678,-4.78038v-14.90356l-2.9734,-2.39019l-0.16519,-17.41254z" data-paper-data="{&quot;index&quot;:null}" fill="#8d9293" stroke="#f5f5f5" stroke-width="0" stroke-linecap="round"/><path d="M226.64868,198.75744l-17.26647,-9.43108l-0.11511,-7.98186l17.38157,4.35413z" data-paper-data="{&quot;index&quot;:null}" fill="#6e7273" stroke="#f5f5f5" stroke-width="0" stroke-linecap="round"/><path d="M252.7671,185.69862l17.38157,-4.35413l0.13489,7.98186l-17.51646,9.43108z" data-paper-data="{&quot;index&quot;:null}" fill="#6e7273" stroke="#f5f5f5" stroke-width="0" stroke-linecap="round"/><path d="M233.73498,202.15657v-4.379c0,0 2.64396,-1.35234 5.49165,-1.35234c3.14154,0 6.14543,1.35234 6.14543,1.35234v4.379c0,0 -2.71747,-1.72727 -6.16591,-1.72727c-2.96912,0 -5.47117,1.72727 -5.47117,1.72727z" fill="#6e7273" stroke="none" stroke-width="0" stroke-linecap="butt"/><path d="M217.10001,169.65v4.8" fill="none" stroke="#8d9293" stroke-width="2.5" stroke-linecap="round"/><path d="M262.50001,169.65v4.8" fill="none" stroke="#8d9293" stroke-width="2.5" stroke-linecap="round"/></g><path d="M176.83333,139.66666c0,0 -0.31227,-4.52612 1.96177,-9.56272c2.8522,-6.31712 11.19988,-13.43728 20.816,-13.43728c16.20523,0 50.27244,0 78.33333,0c24.17308,0 25.22222,23 25.22222,23z" fill="url(#color-21)" stroke="none" stroke-width="0" stroke-linecap="butt"/><path d="M303.16667,220.33333c0,0 -1.04914,23 -25.22222,23c-28.06089,0 -62.1281,0 -78.33333,0c-9.61612,0 -17.9638,-7.12016 -20.816,-13.43728c-2.27404,-5.0366 -1.96177,-9.56272 -1.96177,-9.56272z" data-paper-data="{&quot;index&quot;:null}" fill="url(#color-22)" stroke="none" stroke-width="0" stroke-linecap="butt"/><path d="M280.5,116.82609c0,0 23,1.04914 23,25.22222c0,28.06089 0,62.1281 0,78.33333c0,9.61613 -7.12016,17.96379 -13.43728,20.816c-5.0366,2.27404 -9.56272,1.96177 -9.56272,1.96177z" data-paper-data="{&quot;index&quot;:null}" fill="url(#color-23)" stroke="none" stroke-width="0" stroke-linecap="butt"/><path d="M199.5,243.15942c0,0 -4.52612,0.31227 -9.56272,-1.96177c-6.31712,-2.85221 -13.43728,-11.19987 -13.43728,-20.816c0,-16.20523 0,-50.27245 0,-78.33333c0,-24.17308 23,-25.22222 23,-25.22222z" data-paper-data="{&quot;index&quot;:null}" fill="url(#color-24)" stroke="none" stroke-width="0" stroke-linecap="butt"/></g></g></svg>