<svg version="1.1" xmlns="http://www.w3.org/2000/svg" xmlns:xlink="http://www.w3.org/1999/xlink" width="81.20802" height="34.86112" viewBox="0,0,81.20802,34.86112"><defs><linearGradient x1="284.40628" y1="141.09059" x2="227.40632" y2="141.09059" gradientUnits="userSpaceOnUse" id="color-1"><stop offset="0" stop-color="#6f7171"/><stop offset="1" stop-color="#6f7171" stop-opacity="0"/></linearGradient><linearGradient x1="196.08063" y1="141.09059" x2="253.08063" y2="141.09059" gradientUnits="userSpaceOnUse" id="color-2"><stop offset="0" stop-color="#6f7171"/><stop offset="1" stop-color="#6f7171" stop-opacity="0"/></linearGradient></defs><g transform="translate(-199.39433,-122.39888)"><g data-paper-data="{&quot;isPaintingLayer&quot;:true}" fill-rule="nonzero" stroke-linejoin="miter" stroke-miterlimit="10" stroke-dasharray="" stroke-dashoffset="0" style="mix-blend-mode: normal"><g stroke-width="0"><path d="M239.01178,156.97687l-14.87502,-1.02014c0,0 -5.40592,-5.06777 -8.92989,-7.16796c-4.01114,-2.39054 -13.86524,-6.41736 -13.86524,-6.41736c0,0 -1.78328,-4.68681 -1.93228,-7.15205c-0.15951,-2.63916 1.00459,-8.19675 1.00459,-8.19675c0,0 10.24233,0.63375 16.21305,0.55657c8.90204,-0.11508 32.01176,-1.17999 32.01176,-1.17999z" fill="#f7fbfb" stroke="#8f8f8f" stroke-linecap="round"/><path d="M242.23965,145.71559h-18.08333l-15,-10.25h30.33333z" data-paper-data="{&quot;index&quot;:null}" fill="#e5e9e9" stroke="none" stroke-linecap="butt"/><path d="M227.40632,155.75728v-29.33333h22.33333v29.33333z" data-paper-data="{&quot;index&quot;:null}" fill="url(#color-1)" stroke="none" stroke-linecap="butt"/></g><g data-paper-data="{&quot;index&quot;:null}" stroke-width="0"><path d="M231.84816,126.39924c0,0 27.40269,2.08808 36.28429,2.2029c5.44973,0.07045 11.94053,-1.57948 11.94053,-1.57948c0,0 0.66414,5.55687 0.50464,8.19591c-0.14901,2.46541 -1.43232,7.1529 -1.43232,7.1529c0,0 -6.33707,2.03177 -9.46564,3.89631c-4.16769,2.48384 -13.32949,9.68901 -13.32949,9.68901l-14.87502,1.02014z" fill="#f7fbfb" stroke="#8f8f8f" stroke-linecap="round"/><path d="M240.99728,135.46559h30.33333l-15,10.25h-18.08333z" data-paper-data="{&quot;index&quot;:null}" fill="#e5e9e9" stroke="none" stroke-linecap="butt"/><path d="M230.74728,155.75728v-29.33333h22.33333v29.33333z" data-paper-data="{&quot;index&quot;:null}" fill="url(#color-2)" stroke="none" stroke-linecap="butt"/></g><g stroke="none" stroke-width="0" stroke-linecap="butt"><path d="M230.73422,157.25999c0,0 -2.35431,-1.6807 -3.29018,-2.66114c-1.15612,-1.21117 -3.12649,-4.06108 -3.12649,-4.06108v-17.72222l6.11111,-6.41667h20.77778l6.11111,7.02778v16.80556l-5.80556,7.02778c0,0 -7.10675,-0.75 -10.38698,-0.75c-3.61342,0 -10.39079,0.74999 -10.39079,0.74999z" fill="#dbdfdf"/><path d="M230.48422,153.25999l-6.41667,-6.72222c0,0 -1.25,-4.00039 -1.25,-6.36167c0,-3.25457 1.25,-11.36055 1.25,-11.36055l6.11111,-6.41667c0,0 6.98177,0.5 9.94636,0.5c3.76719,0 10.83142,-0.5 10.83142,-0.5l6.11111,7.02778c0,0 0.75,5.06571 0.75,7.74944c0,2.90117 -0.75,9.05612 -0.75,9.05612l-5.80556,7.02778c0,0 -6.26349,-0.25 -9.38698,-0.25c-3.70325,0 -11.39079,0.24999 -11.39079,0.24999z" fill="#f7fbfb"/></g><path d="M242.75001,145.75943c0,2.5 -2.5,2.5 -2.5,2.5l-3.5,-0.5c-0.96459,-0.72404 -5.65161,-4.23557 -5.70419,-4.32036c-0.3893,-0.62779 -0.29581,-6.44524 -0.29581,-7.17964c0,0 0,-2.5 2.5,-2.5c2.5,0 2.5,2.5 2.5,2.5c0,1.16667 0.07146,2.33552 0,3.5c-0.02763,0.45018 -0.57551,0.96653 -0.29581,1.32036c1.04659,1.32398 2.94529,1.66754 4.29581,2.67964l0.5,-0.5c0,0 2.5,0 2.5,2.5z" fill="#eff4f4" stroke="none" stroke-width="0.5" stroke-linecap="butt"/><path d="M251.75001,140.75943c-2.5,0 -2.5,-2.5 -2.5,-2.5l0.03402,-1.089c-0.50605,-3.34529 -1.88582,-5.23729 -3.98619,-7.84926c0,0 -1.56174,-1.95217 0.39043,-3.51391c1.95217,-1.56174 3.51391,0.39043 3.51391,0.39043c2.62971,3.30219 4.26832,5.96771 5.01381,10.15074l0.03402,1.911c0,0 0,2.5 -2.5,2.5z" fill="#eff4f4" stroke="none" stroke-width="0.5" stroke-linecap="butt"/><path d="M216.75001,131.25943c0,2.5 -2.5,2.5 -2.5,2.5l-0.00971,-0.04855c-2.77964,0.5429 -4.82649,1.50962 -7.37226,2.78462c0,0 -2.23607,1.11803 -3.3541,-1.11803c-1.11803,-2.23607 1.11803,-3.3541 1.11803,-3.3541c2.92352,-1.45948 5.42887,-2.56306 8.62774,-3.21538l0.99029,-0.04855c0,0 2.5,0 2.5,2.5z" fill="#eff4f4" stroke="none" stroke-width="0.5" stroke-linecap="butt"/><path d="M264.87829,144.05c-0.79057,-2.37171 1.58114,-3.16228 1.58114,-3.16228l2.83386,-0.93799c1.68206,-0.84103 3.55654,-1.24169 5.26393,-2.03001c0.36527,-0.16865 0.87538,-0.4935 0.81404,-0.89112c-0.04786,-0.31024 -0.62386,0.11565 -0.93702,0.09399c-1.23283,-0.08528 -2.47168,-0.17492 -3.68417,-0.41366c-2.15217,-0.42376 -4.24693,-1.1259 -6.41107,-1.48352c0,0 -2.46598,-0.411 -2.05499,-2.87698c0.411,-2.46598 2.87698,-2.05499 2.87698,-2.05499c5.92219,0.99468 20.23322,1.7695 12.78178,11.30569c-0.824,1.05453 -2.51152,0.93008 -3.73607,1.46999c-1.02301,0.45105 -2,1 -3,1.5l-3.16614,1.06201c0,0 -2.37171,0.79057 -3.16228,-1.58114z" fill="#eff4f4" stroke="none" stroke-width="0.5" stroke-linecap="butt"/><g stroke="none" stroke-width="0.5" stroke-linecap="butt"><path d="M248.14065,128.8981c0.29199,0.03698 0.48325,0.10074 0.48325,0.10074l3.12998,1.43791c3.1727,4.16016 3.45801,7.56224 -1.73048,10.4657c-0.83371,0.46654 -2.24435,1.82635 -2.43667,2.42853c-0.91243,2.85685 -3.16195,6.08716 -6.50403,6.5271c-4.04499,0.53246 -7.71296,-4.48472 -10.19646,-6.91147c-1.10078,-1.07562 -2.87034,-1.8549 -3.15991,-3.36647c-0.83858,-4.37744 1.67474,-8.01894 4.17495,-9.64791c0.9495,-0.61863 6.30613,-2.35026 7.54038,-2.6446c1.99854,-0.47661 5.63259,1.01381 7.70176,1.26889c0,0 0.4837,0.06046 0.99723,0.34158z" fill="#adb1b1"/><path d="M238.36816,141.71716l-0.05782,-0.00459c-1.40135,-0.60193 -3.51052,-0.44744 -4.20406,-1.80578c-1.533,-3.00248 1.32267,-6.94098 3.71202,-8.19869c1.51167,-0.79571 2.81501,-0.83467 4.06888,-0.51825l0.00625,-0.04999l2.63376,0.32922c1.25027,0.13791 2.22282,1.19778 2.22282,2.48481c0,0.77872 -0.35604,1.47428 -0.91421,1.93278l-1.98533,1.65444l-0.11877,-0.14252l-0.2983,0.42415c-0.66914,0.04493 -1.34,0.06974 -2.00831,0.12446c0.02451,0.04202 0.04795,0.08556 0.0702,0.13068c0.66175,0.3666 1.28,0.80783 1.92138,1.20936c0,0 2,1.5 0.5,3.5c-1.5,2 -3.5,0.5 -3.5,0.5c-0.64075,-0.52839 -1.36996,-1.03206 -2.04852,-1.57005z" fill="#969999"/></g></g></g></svg>