<svg version="1.1" xmlns="http://www.w3.org/2000/svg" xmlns:xlink="http://www.w3.org/1999/xlink" width="77" height="49" viewBox="0,0,77,49"><g transform="translate(-206.5,-157.33333)"><g data-paper-data="{&quot;isPaintingLayer&quot;:true}" fill-rule="nonzero" stroke-linejoin="miter" stroke-miterlimit="10" stroke-dasharray="" stroke-dashoffset="0" style="mix-blend-mode: normal"><path d="M220.15835,183.2632v3.29848h-1.87211v-3.29848h-3.22716v-1.87211h3.22716v-3.18258h1.87211v3.18258h3.23607v1.87211zM226.11169,188.22874v-0.70427l4.31476,-6.34734c0.85582,-1.2659 1.28373,-2.33271 1.28373,-3.20041c0,-1.02817 -0.61512,-1.54226 -1.84536,-1.54226c-0.93903,0 -1.69678,0.49923 -2.27327,1.49769l-1.62249,-1.28373c0.32093,-0.64781 0.8261,-1.18567 1.51552,-1.61358c0.68941,-0.43385 1.45311,-0.65078 2.2911,-0.65078c1.39071,0 2.47831,0.31796 3.26282,0.95388c0.79044,0.63592 1.18567,1.51552 1.18567,2.63878c0,1.03412 -0.50517,2.32082 -1.51552,3.86011l-2.79033,4.24345h5.10818v2.14847zM237.35151,187.19462l0.95388,-1.97909c0.98657,0.76667 1.83051,1.15001 2.5318,1.15001c1.56306,0 2.34459,-0.95983 2.34459,-2.87948c0,-0.9212 -0.1783,-1.59278 -0.53489,-2.01475c-0.35065,-0.42791 -0.93903,-0.64187 -1.76513,-0.64187c-0.74884,0 -1.47986,0.36848 -2.19304,1.10544l-0.95388,-0.62404v-6.73959h7.31905v2.0504h-5.0012v2.43374c0.41008,-0.18424 0.89742,-0.27636 1.46203,-0.27636c1.33722,0 2.36539,0.38631 3.08452,1.15892c0.72507,0.77262 1.08761,1.86914 1.08761,3.28956c0,3.45894 -1.61358,5.18841 -4.84074,5.18841c-1.33128,0 -2.49614,-0.40711 -3.4946,-1.22133zM247.65528,181.01667c0,-1.86022 0.45168,-3.42923 1.35505,-4.70702c0.90931,-1.28373 2.12172,-1.9256 3.63724,-1.9256c3.16773,0 4.75159,2.30893 4.75159,6.9268c0,2.16332 -0.42791,3.88983 -1.28373,5.1795c-0.85582,1.28373 -2.05338,1.9256 -3.59266,1.9256c-1.65815,0 -2.88542,-0.59432 -3.68181,-1.78296c-0.79044,-1.18864 -1.18567,-3.06075 -1.18567,-5.61632zM250.16034,181.17713c0,1.81862 0.17532,3.15584 0.52597,4.01166c0.35659,0.84988 0.94497,1.27482 1.76513,1.27482c0.87959,0 1.50363,-0.38334 1.87211,-1.15001c0.37442,-0.77262 0.56163,-2.14549 0.56163,-4.11864c0,-1.84239 -0.1783,-3.11127 -0.53489,-3.80662c-0.35065,-0.7013 -0.93308,-1.05195 -1.7473,-1.05195c-1.62844,0 -2.44266,1.61358 -2.44266,4.84074zM258.79704,181.01667c0,-1.86022 0.45168,-3.42923 1.35505,-4.70702c0.90931,-1.28373 2.12172,-1.9256 3.63724,-1.9256c3.16773,0 4.75159,2.30893 4.75159,6.9268c0,2.16332 -0.42791,3.88983 -1.28373,5.1795c-0.85582,1.28373 -2.05338,1.9256 -3.59266,1.9256c-1.65815,0 -2.88542,-0.59432 -3.68181,-1.78296c-0.79044,-1.18864 -1.18567,-3.06075 -1.18567,-5.61632zM261.3021,181.17713c0,1.81862 0.17532,3.15584 0.52597,4.01166c0.35659,0.84988 0.94497,1.27482 1.76513,1.27482c0.87959,0 1.50363,-0.38334 1.87211,-1.15001c0.37442,-0.77262 0.56163,-2.14549 0.56163,-4.11864c0,-1.84239 -0.1783,-3.11127 -0.53489,-3.80662c-0.35065,-0.7013 -0.93308,-1.05195 -1.7473,-1.05195c-1.62844,0 -2.44266,1.61358 -2.44266,4.84074z" fill="#003539" stroke="#003539" stroke-width="0.5" stroke-linecap="square"/><path d="M218.35835,181.8632v3.29848h-1.87211v-3.29848h-3.22716v-1.87211h3.22716v-3.18258h1.87211v3.18258h3.23607v1.87211zM224.31169,186.82874v-0.70427l4.31476,-6.34734c0.85582,-1.2659 1.28373,-2.33271 1.28373,-3.20041c0,-1.02817 -0.61512,-1.54226 -1.84536,-1.54226c-0.93903,0 -1.69678,0.49923 -2.27327,1.49769l-1.62249,-1.28373c0.32093,-0.64781 0.8261,-1.18567 1.51552,-1.61358c0.68941,-0.43385 1.45311,-0.65078 2.2911,-0.65078c1.39071,0 2.47831,0.31796 3.26282,0.95388c0.79044,0.63592 1.18567,1.51552 1.18567,2.63878c0,1.03412 -0.50517,2.32082 -1.51552,3.86011l-2.79033,4.24345h5.10818v2.14847zM235.55151,185.79462l0.95388,-1.97909c0.98657,0.76667 1.83051,1.15001 2.5318,1.15001c1.56306,0 2.34459,-0.95983 2.34459,-2.87948c0,-0.9212 -0.1783,-1.59278 -0.53489,-2.01475c-0.35065,-0.42791 -0.93903,-0.64187 -1.76513,-0.64187c-0.74884,0 -1.47986,0.36848 -2.19304,1.10544l-0.95388,-0.62404v-6.73959h7.31905v2.0504h-5.0012v2.43374c0.41008,-0.18424 0.89742,-0.27636 1.46203,-0.27636c1.33722,0 2.36539,0.38631 3.08452,1.15892c0.72507,0.77262 1.08761,1.86914 1.08761,3.28956c0,3.45894 -1.61358,5.18841 -4.84074,5.18841c-1.33128,0 -2.49614,-0.40711 -3.4946,-1.22133zM245.85528,179.61667c0,-1.86022 0.45168,-3.42923 1.35505,-4.70702c0.90931,-1.28373 2.12172,-1.9256 3.63724,-1.9256c3.16773,0 4.75159,2.30893 4.75159,6.9268c0,2.16332 -0.42791,3.88983 -1.28373,5.1795c-0.85582,1.28373 -2.05338,1.9256 -3.59266,1.9256c-1.65815,0 -2.88542,-0.59432 -3.68181,-1.78296c-0.79044,-1.18864 -1.18567,-3.06075 -1.18567,-5.61632zM248.36034,179.77713c0,1.81862 0.17532,3.15584 0.52597,4.01166c0.35659,0.84988 0.94497,1.27482 1.76513,1.27482c0.87959,0 1.50363,-0.38334 1.87211,-1.15001c0.37442,-0.77262 0.56163,-2.14549 0.56163,-4.11864c0,-1.84239 -0.1783,-3.11127 -0.53489,-3.80662c-0.35065,-0.7013 -0.93308,-1.05195 -1.7473,-1.05195c-1.62844,0 -2.44266,1.61358 -2.44266,4.84074zM256.99704,179.61667c0,-1.86022 0.45168,-3.42923 1.35505,-4.70702c0.90931,-1.28373 2.12172,-1.9256 3.63724,-1.9256c3.16773,0 4.75159,2.30893 4.75159,6.9268c0,2.16332 -0.42791,3.88983 -1.28373,5.1795c-0.85582,1.28373 -2.05338,1.9256 -3.59266,1.9256c-1.65815,0 -2.88542,-0.59432 -3.68181,-1.78296c-0.79044,-1.18864 -1.18567,-3.06075 -1.18567,-5.61632zM259.5021,179.77713c0,1.81862 0.17532,3.15584 0.52597,4.01166c0.35659,0.84988 0.94497,1.27482 1.76513,1.27482c0.87959,0 1.50363,-0.38334 1.87211,-1.15001c0.37442,-0.77262 0.56163,-2.14549 0.56163,-4.11864c0,-1.84239 -0.1783,-3.11127 -0.53489,-3.80662c-0.35065,-0.7013 -0.93308,-1.05195 -1.7473,-1.05195c-1.62844,0 -2.44266,1.61358 -2.44266,4.84074z" fill="#01d2e1" stroke="#01d2e1" stroke-width="0.5" stroke-linecap="square"/><path d="M206.5,206.33333v-49h77v49z" fill="none" stroke="none" stroke-width="0" stroke-linecap="butt"/></g></g></svg>