<svg version="1.1" xmlns="http://www.w3.org/2000/svg" xmlns:xlink="http://www.w3.org/1999/xlink" width="90" height="87" viewBox="0,0,90,87"><g transform="translate(-195,-136.5)"><g data-paper-data="{&quot;isPaintingLayer&quot;:true}" fill-rule="nonzero" stroke="none" stroke-linejoin="miter" stroke-miterlimit="10" stroke-dasharray="" stroke-dashoffset="0" style="mix-blend-mode: normal"><path d="M249.79866,191.91532h-18.38643v-3.63305l8.65616,-9.25638c1.20049,-1.30579 2.08505,-2.44309 2.6537,-3.41191c0.56865,-0.96883 0.85299,-1.88497 0.85299,-2.74848c0,-1.20049 -0.30538,-2.13771 -0.91615,-2.81166c-0.58972,-0.69502 -1.44269,-1.04251 -2.55893,-1.04251c-1.20049,0 -2.14825,0.42121 -2.84327,1.26367c-0.69502,0.82138 -1.04251,1.90604 -1.04251,3.25396h-5.33901c0,-1.6217 0.38963,-3.10653 1.16891,-4.45443c0.77928,-1.36897 1.87445,-2.43256 3.28555,-3.19076c1.43216,-0.77928 3.05388,-1.16888 4.86513,-1.16888c2.75901,0 4.89675,0.66343 6.41315,1.9903c1.53748,1.32686 2.3062,3.2013 2.3062,5.62335c0,1.32686 -0.3475,2.68531 -1.04252,4.07535c-0.67395,1.36897 -1.84286,2.96963 -3.50668,4.80195l-6.0972,6.41315h11.531z" fill="#f3f3f3" stroke-width="1" stroke-linecap="square"/><path d="M195,223.5v-87h90v87z" fill="none" stroke-width="0" stroke-linecap="butt"/></g></g></svg>