<svg version="1.1" xmlns="http://www.w3.org/2000/svg" xmlns:xlink="http://www.w3.org/1999/xlink" width="461.27078" height="448.18982" viewBox="0,0,461.27078,448.18982"><defs><radialGradient cx="239.42941" cy="180.33615" r="181.23844" gradientUnits="userSpaceOnUse" id="color-1"><stop offset="0" stop-color="#ffffbc"/><stop offset="1" stop-color="#ffffbc" stop-opacity="0"/></radialGradient><linearGradient x1="232.11592" y1="186.99363" x2="419.08686" y2="18.83244" gradientUnits="userSpaceOnUse" id="color-2"><stop offset="0" stop-color="#ffffbc"/><stop offset="1" stop-color="#ffffbc" stop-opacity="0"/></linearGradient><linearGradient x1="248.5729" y1="177.54221" x2="89.96616" y2="372.73154" gradientUnits="userSpaceOnUse" id="color-3"><stop offset="0" stop-color="#ffffbc"/><stop offset="1" stop-color="#ffffbc" stop-opacity="0"/></linearGradient><linearGradient x1="246.04545" y1="191.59001" x2="139.168" y2="-36.03586" gradientUnits="userSpaceOnUse" id="color-4"><stop offset="0" stop-color="#ffffbc"/><stop offset="1" stop-color="#ffffbc" stop-opacity="0"/></linearGradient><linearGradient x1="251.58701" y1="191.18265" x2="48.41734" y2="42.86273" gradientUnits="userSpaceOnUse" id="color-5"><stop offset="0" stop-color="#ffffbc"/><stop offset="1" stop-color="#ffffbc" stop-opacity="0"/></linearGradient><linearGradient x1="236.3847" y1="168.08023" x2="343.74978" y2="395.48701" gradientUnits="userSpaceOnUse" id="color-6"><stop offset="0" stop-color="#ffffbc"/><stop offset="1" stop-color="#ffffbc" stop-opacity="0"/></linearGradient><linearGradient x1="216.97476" y1="169.64704" x2="455.67569" y2="249.01068" gradientUnits="userSpaceOnUse" id="color-7"><stop offset="0" stop-color="#ffffbc"/><stop offset="1" stop-color="#ffffbc" stop-opacity="0"/></linearGradient></defs><g transform="translate(-13.66319,46.62732)"><g data-paper-data="{&quot;isPaintingLayer&quot;:true}" fill-rule="nonzero" stroke="none" stroke-width="0" stroke-linecap="butt" stroke-linejoin="miter" stroke-miterlimit="10" stroke-dasharray="" stroke-dashoffset="0" style="mix-blend-mode: normal"><path d="M58.19097,180.33615c0,-100.09523 81.14321,-181.23844 181.23844,-181.23844c100.09523,0 181.23844,81.14321 181.23844,181.23844c0,100.09523 -81.14321,181.23844 -181.23844,181.23844c-100.09523,0 -181.23844,-81.14321 -181.23844,-181.23844z" fill="url(#color-1)"/><g><path d="M435.75149,37.36109c0,0 -157.73294,127.23216 -184.61253,146.98345c-7.24878,5.32644 -13.82765,8.32809 -19.02304,2.64909c-5.19538,-5.67898 0.28352,-13.19406 4.82331,-18.17058c19.98539,-21.90799 165.48302,-168.51927 165.48302,-168.51927z" fill="url(#color-2)"/><path d="M61.26064,348.7896c0,0 140.16463,-146.61873 164.88958,-169.22314c6.66772,-6.09585 13.5158,-9.36814 22.42267,-2.02425c8.90687,7.34388 5.3838,16.25482 1.92108,22.09612c-15.24386,25.71498 -131.82232,197.03517 -131.82232,197.03517z" fill="url(#color-3)"/><path d="M161.72552,-46.62732c0,0 76.15755,187.79704 87.28766,219.24139c3.00151,8.47977 3.97148,15.64571 -2.96773,18.97594c-6.9392,3.33022 -12.54779,-4.08856 -15.9981,-9.87396c-15.18915,-25.46891 -113.43687,-207.16045 -113.43687,-207.16045z" fill="url(#color-4)"/><path d="M83.17147,-2.57137c0,0 148.32031,139.18992 170.55092,164.76517c5.99505,6.89703 8.54579,14.91799 -2.13539,28.98885c-10.68116,14.07087 -20.71553,12.21138 -27.05778,9.4688c-27.92027,-12.07362 -210.86604,-112.35463 -210.86604,-112.35463z" fill="url(#color-5)"/><path d="M330.96096,401.5625c0,0 -80.81469,-185.6492 -93.29862,-216.46852c-3.36661,-8.31122 -5.19965,-15.07834 -1.27765,-17.01375c3.922,-1.93541 8.79414,5.82406 11.99703,11.724c14.10002,25.97315 108.15688,209.60729 108.15688,209.60729z" fill="url(#color-6)"/><path d="M436.41741,302.87372c0,0 -183.67774,-87.37984 -212.64386,-104.96557c-7.81144,-4.74244 -12.68482,-11.60484 -6.79879,-28.2611c5.88604,-16.65627 16.00984,-17.94257 22.88616,-17.26281c30.27142,2.99248 235.07305,42.76344 235.07305,42.76344z" fill="url(#color-7)"/></g></g></g></svg>