<svg version="1.1" xmlns="http://www.w3.org/2000/svg" xmlns:xlink="http://www.w3.org/1999/xlink" width="407.15916" height="407.15916" viewBox="0,0,407.15916,407.15916"><g transform="translate(-36.42042,23.57958)"><g data-paper-data="{&quot;isPaintingLayer&quot;:true}" fill-rule="nonzero" stroke="none" stroke-linecap="butt" stroke-linejoin="miter" stroke-miterlimit="10" stroke-dasharray="" stroke-dashoffset="0" style="mix-blend-mode: normal"><path d="M36.42042,383.57958v-407.15916h407.15916v407.15916z" fill="none" stroke-width="0"/><path d="M237.5,180c0,-1.38071 1.11929,-2.5 2.5,-2.5c1.38071,0 2.5,1.11929 2.5,2.5c0,1.38071 -1.11929,2.5 -2.5,2.5c-1.38071,0 -2.5,-1.11929 -2.5,-2.5z" fill="#ffffff" stroke-width="0.5"/><path d="M405.3892,172.31818c0,-0.82843 0.67157,-1.5 1.5,-1.5c0.82843,0 1.5,0.67157 1.5,1.5c0,0.82843 -0.67157,1.5 -1.5,1.5c-0.82843,0 -1.5,-0.67157 -1.5,-1.5z" fill="#ffffff" stroke-width="0.5"/><path d="M173.16193,240.5767c0,-1.24264 1.00736,-2.25 2.25,-2.25c1.24264,0 2.25,1.00736 2.25,2.25c0,1.24264 -1.00736,2.25 -2.25,2.25c-1.24264,0 -2.25,-1.00736 -2.25,-2.25z" fill="#ffffff" stroke-width="0.5"/><path d="M120.71591,80.26136c0,-2.07107 1.67894,-3.75 3.75,-3.75c2.07107,0 3.75,1.67893 3.75,3.75c0,2.07106 -1.67893,3.75 -3.75,3.75c-2.07107,0 -3.75,-1.67894 -3.75,-3.75z" fill="#ffffff" stroke-width="0.5"/></g></g></svg>