<svg version="1.1" xmlns="http://www.w3.org/2000/svg" xmlns:xlink="http://www.w3.org/1999/xlink" width="201.37164" height="14.40886" viewBox="0,0,201.37164,14.40886"><g transform="translate(-125.09784,-151.37466)"><g data-paper-data="{&quot;isPaintingLayer&quot;:true}" fill-rule="nonzero" stroke-linejoin="miter" stroke-miterlimit="10" stroke-dasharray="" stroke-dashoffset="0" style="mix-blend-mode: normal"><g stroke="#ffcc00" stroke-width="0" stroke-linecap="butt"><path d="M126.95284,153.22965c2.47332,-2.47332 6.48336,-2.47332 8.95668,0c2.47332,2.47332 2.47332,6.48336 0,8.95668c-2.47332,2.47332 -6.48336,2.47332 -8.95668,0c-2.47332,-2.47332 -2.47332,-6.48336 0,-8.95668z" fill="#fcc800"/><path d="M126.95284,153.22965c2.47332,-2.47332 6.48336,-2.47332 8.95668,0c2.47332,2.47332 2.47332,6.48336 0,8.95668c-0.17676,0.17676 0.00831,0.01685 0.00831,0.01685l-4.50948,-4.54067l-4.39015,-4.40431c0,0 -0.32595,0.23203 -0.06536,-0.02855z" fill="#ffdb4a"/></g><path d="M144.48194,162.3727v-9.84605h3.137c0.07633,0 0.23661,0.00382 0.48085,0.01145c0.24424,0.00763 0.48086,0.0229 0.70984,0.04579c0.77852,0.09922 1.43874,0.37781 1.98066,0.83577c0.54191,0.45032 0.95025,1.02659 1.22503,1.72879c0.27478,0.7022 0.41217,1.46927 0.41217,2.30122c0,0.83195 -0.13739,1.59903 -0.41217,2.30123c-0.27478,0.7022 -0.68312,1.28227 -1.22503,1.74023c-0.54191,0.45032 -1.20213,0.7251 -1.98066,0.82432c-0.22135,0.03053 -0.45796,0.04961 -0.70984,0.05724c-0.24424,0 -0.40453,0 -0.48085,0zM146.15349,160.81565h1.46545c0.13738,0 0.30912,-0.00382 0.5152,-0.01145c0.21371,-0.00763 0.40453,-0.02671 0.57245,-0.05724c0.45795,-0.08396 0.83194,-0.29004 1.12198,-0.61824c0.29767,-0.3282 0.51521,-0.7251 0.65259,-1.19069c0.13738,-0.47323 0.20608,-0.96933 0.20608,-1.48835c0,-0.53428 -0.07251,-1.03422 -0.21753,-1.49981c-0.13738,-0.47323 -0.35491,-0.8663 -0.65258,-1.17924c-0.29004,-0.32057 -0.66022,-0.52665 -1.11054,-0.61824c-0.16792,-0.03053 -0.35874,-0.04961 -0.57245,-0.05724c-0.20608,-0.00763 -0.37782,-0.01145 -0.5152,-0.01145h-1.46545zM157.41229,162.57878c-0.74799,0 -1.4044,-0.16029 -1.96921,-0.48086c-0.56481,-0.3282 -1.00751,-0.77852 -1.32808,-1.35097c-0.31294,-0.57245 -0.4694,-1.23266 -0.4694,-1.98066c0,-0.80906 0.15265,-1.51125 0.45795,-2.1066c0.31294,-0.59535 0.74419,-1.05712 1.29373,-1.38532c0.54954,-0.3282 1.18687,-0.4923 1.91197,-0.4923c0.77089,0 1.42347,0.17937 1.95775,0.5381c0.53428,0.35873 0.93118,0.86629 1.19069,1.5227c0.25951,0.64877 0.35873,1.41585 0.29767,2.30123h-1.63719v-0.60679c-0.00763,-0.80142 -0.14883,-1.38531 -0.42361,-1.75168c-0.27477,-0.374 -0.71365,-0.56099 -1.31662,-0.56099c-0.67167,0 -1.17161,0.20989 -1.49981,0.62968c-0.3282,0.41979 -0.4923,1.0304 -0.4923,1.83183c0,0.748 0.1641,1.32807 0.4923,1.74023c0.3282,0.40453 0.80524,0.60679 1.43112,0.60679c0.40452,0 0.75181,-0.08777 1.04185,-0.26332c0.29767,-0.18318 0.52664,-0.44651 0.68693,-0.78997l1.62575,0.4923c-0.28241,0.66404 -0.71746,1.18305 -1.30517,1.55705c-0.58771,0.36637 -1.23648,0.54955 -1.94631,0.54955zM154.87063,159.14411v-1.24793h5.07186v1.24793zM165.13788,162.57878c-0.91591,0 -1.66008,-0.20607 -2.23253,-0.61823c-0.56482,-0.41216 -0.90828,-0.98843 -1.0304,-1.72879l1.68299,-0.26332c0.08396,0.36637 0.27477,0.6564 0.57244,0.87011c0.29767,0.20608 0.67167,0.30912 1.12199,0.30912c0.39689,0 0.7022,-0.07632 0.91591,-0.22897c0.21371,-0.16028 0.32057,-0.37781 0.32057,-0.65259c0,-0.16791 -0.04198,-0.30149 -0.12593,-0.40071c-0.07632,-0.10686 -0.24806,-0.20609 -0.5152,-0.29767c-0.26714,-0.09922 -0.6793,-0.22135 -1.23649,-0.36637c-0.61825,-0.16791 -1.11053,-0.34347 -1.4769,-0.52665c-0.36637,-0.19081 -0.62969,-0.41597 -0.78998,-0.67548c-0.15265,-0.25951 -0.22898,-0.57244 -0.22898,-0.93881c0,-0.46559 0.11831,-0.8663 0.35492,-1.20214c0.24424,-0.34347 0.58008,-0.6068 1.0075,-0.78997c0.43505,-0.19081 0.94644,-0.28622 1.53415,-0.28622c0.58008,0 1.09147,0.09159 1.53415,0.27477c0.44268,0.17555 0.80143,0.42743 1.0762,0.75563c0.27477,0.3282 0.44268,0.71365 0.50375,1.15634l-1.68299,0.29767c-0.03816,-0.31294 -0.17936,-0.56099 -0.42361,-0.74417c-0.24424,-0.18318 -0.56864,-0.28622 -0.97316,-0.30912c-0.38927,-0.0229 -0.7022,0.03816 -0.93881,0.18318c-0.2366,0.13738 -0.35491,0.3282 -0.35491,0.57245c0,0.14502 0.04579,0.26714 0.13738,0.36637c0.09922,0.09922 0.29386,0.19844 0.58389,0.29766c0.29004,0.09922 0.72128,0.22517 1.29373,0.37782c0.58771,0.14502 1.05711,0.31675 1.40821,0.51519c0.35874,0.19081 0.61443,0.41979 0.76708,0.68694c0.16029,0.26714 0.24043,0.59535 0.24043,0.98461c0,0.74036 -0.27095,1.32425 -0.81287,1.75168c-0.54192,0.41979 -1.2861,0.62969 -2.23254,0.62969zM174.00563,162.3727c-0.48085,0.09159 -0.95789,0.12976 -1.43111,0.11449c-0.46559,-0.00763 -0.88156,-0.09159 -1.24793,-0.25187c-0.36637,-0.16028 -0.64877,-0.41598 -0.84722,-0.76708c-0.16792,-0.32057 -0.2557,-0.64496 -0.26333,-0.97316c-0.00763,-0.33584 -0.01145,-0.71364 -0.01145,-1.13343v-6.42283h1.6372v6.31979c0,0.29767 0.00382,0.561 0.01145,0.78997c0.00763,0.22135 0.05343,0.40071 0.13739,0.53809c0.16792,0.27478 0.43124,0.42743 0.78997,0.45796c0.35874,0.03053 0.76708,0.01145 1.22503,-0.05724zM168.86507,156.28189v-1.29372h5.14056v1.29372zM175.6085,162.3727v-7.38453h1.45401v1.79747l-0.18318,-0.22897c0.09159,-0.24425 0.21371,-0.4656 0.36636,-0.66404c0.15265,-0.20608 0.33584,-0.37781 0.54955,-0.5152c0.18318,-0.12213 0.38544,-0.21753 0.60679,-0.28622c0.22135,-0.06869 0.44651,-0.11067 0.67548,-0.12594c0.2366,-0.0229 0.46559,-0.01526 0.68694,0.0229v1.5456c-0.22135,-0.06869 -0.47704,-0.09159 -0.76708,-0.06869c-0.2824,0.0229 -0.53811,0.10304 -0.76708,0.24043c-0.22135,0.12213 -0.40452,0.27859 -0.54954,0.4694c-0.14502,0.19081 -0.25188,0.40834 -0.32057,0.65259c-0.06869,0.24425 -0.10304,0.50756 -0.10304,0.78997v3.75524zM184.17753,162.57878c-0.73273,0 -1.37769,-0.16411 -1.93487,-0.49231c-0.54955,-0.33584 -0.97697,-0.7976 -1.28227,-1.38531c-0.29767,-0.58771 -0.4465,-1.25938 -0.4465,-2.01501c0,-0.77853 0.15265,-1.45783 0.45795,-2.0379c0.31294,-0.58771 0.74418,-1.04567 1.29373,-1.37387c0.54955,-0.3282 1.18686,-0.4923 1.91196,-0.4923c0.748,0 1.39677,0.16791 1.94631,0.50375c0.54955,0.3282 0.97697,0.78616 1.28227,1.37387c0.3053,0.58771 0.45796,1.26319 0.45796,2.02645c0,0.76326 -0.15266,1.43875 -0.45796,2.02646c-0.3053,0.58007 -0.73654,1.03803 -1.29373,1.37386c-0.54955,0.3282 -1.1945,0.49231 -1.93486,0.49231zM184.17753,161.03317c0.6564,0 1.14488,-0.21753 1.46545,-0.65258c0.32057,-0.44269 0.48086,-1.00751 0.48086,-1.69443c0,-0.71747 -0.1641,-1.28991 -0.4923,-1.71733c-0.32057,-0.42742 -0.80524,-0.64114 -1.45401,-0.64114c-0.44268,0 -0.80524,0.09923 -1.08765,0.29767c-0.2824,0.19844 -0.49231,0.47704 -0.62969,0.83577c-0.13739,0.3511 -0.20607,0.75944 -0.20607,1.22503c0,0.70983 0.16028,1.27846 0.48085,1.70588c0.3282,0.42742 0.80906,0.64113 1.44257,0.64113zM190.06226,165.65853l1.43111,-3.90407l0.02289,1.14488l-3.21714,-7.91118h1.71733l2.27834,5.85038h-0.43506l2.22109,-5.85038h1.64864l-4.1216,10.67037zM199.97519,162.3727l3.38888,-8.289h-4.29334v-1.55705h6.05647v1.55705l-3.37743,8.289zM209.68386,162.57878c-0.49612,0 -0.96171,-0.10304 -1.39677,-0.30912c-0.43506,-0.20608 -0.80906,-0.4923 -1.12199,-0.85867c-0.30531,-0.36637 -0.52665,-0.78998 -0.66403,-1.27083l1.57995,-0.42361c0.0687,0.25951 0.18701,0.4885 0.35492,0.68694c0.16791,0.19081 0.36636,0.33964 0.59533,0.44651c0.2366,0.09922 0.47704,0.14883 0.72129,0.14883c0.32057,0 0.6106,-0.07632 0.87011,-0.22897c0.26714,-0.16028 0.47704,-0.37018 0.62969,-0.62969c0.16029,-0.25951 0.24043,-0.54955 0.24043,-0.87012c0,-0.32057 -0.08014,-0.6106 -0.24043,-0.87011c-0.16029,-0.25951 -0.374,-0.46559 -0.64114,-0.61823c-0.25951,-0.15265 -0.54572,-0.22897 -0.85866,-0.22897c-0.38163,0 -0.69839,0.06869 -0.95027,0.20608c-0.24425,0.12975 -0.43124,0.27477 -0.56099,0.43506l-1.40821,-0.45796l0.29767,-5.20924h5.34663v1.5456h-4.46507l0.61825,-0.5839l-0.21753,3.6293l-0.29767,-0.36636c0.25187,-0.2366 0.54573,-0.41215 0.88157,-0.52665c0.33584,-0.1145 0.66404,-0.17173 0.98461,-0.17173c0.61061,0 1.15251,0.1412 1.62574,0.42361c0.48085,0.28241 0.85485,0.66403 1.12199,1.14488c0.27478,0.48085 0.41217,1.03039 0.41217,1.64864c0,0.61825 -0.16029,1.17543 -0.48086,1.67155c-0.32057,0.49612 -0.74035,0.89301 -1.25937,1.19068c-0.51902,0.29767 -1.09146,0.44651 -1.71734,0.44651zM216.14887,162.3727l-1.0991,-1.0991l8.75841,-8.74695l1.09909,1.0991zM222.85792,162.57878c-0.45033,0 -0.86248,-0.11067 -1.23648,-0.33202c-0.374,-0.22135 -0.67166,-0.5152 -0.89301,-0.88156c-0.22135,-0.374 -0.33202,-0.78997 -0.33202,-1.24793c0,-0.45032 0.11067,-0.85866 0.33202,-1.22503c0.22898,-0.374 0.53046,-0.67166 0.90446,-0.89301c0.374,-0.22897 0.78235,-0.34347 1.22503,-0.34347c0.45033,0 0.86248,0.11067 1.23648,0.33202c0.374,0.22135 0.67167,0.51902 0.89302,0.89302c0.22135,0.36637 0.33201,0.77853 0.33201,1.23648c0,0.45795 -0.11066,0.87393 -0.33201,1.24793c-0.22135,0.36637 -0.51902,0.66021 -0.89302,0.88156c-0.374,0.22135 -0.78616,0.33202 -1.23648,0.33202zM222.85792,161.17057c0.18318,0 0.35492,-0.04581 0.5152,-0.13739c0.16791,-0.09922 0.29767,-0.22897 0.38926,-0.38925c0.09923,-0.16028 0.14884,-0.33584 0.14884,-0.52665c0,-0.19081 -0.04961,-0.36637 -0.14884,-0.52665c-0.09159,-0.16028 -0.22134,-0.28623 -0.38926,-0.37781c-0.16029,-0.09922 -0.33203,-0.14883 -0.5152,-0.14883c-0.19081,0 -0.36636,0.04961 -0.52665,0.14883c-0.16029,0.09159 -0.29004,0.21753 -0.38927,0.37781c-0.09923,0.16028 -0.14883,0.33584 -0.14883,0.52665c0,0.19081 0.04961,0.36637 0.14883,0.52665c0.09923,0.16028 0.22898,0.29003 0.38927,0.38925c0.16029,0.09159 0.33584,0.13739 0.52665,0.13739zM217.11057,157.24359c-0.45795,0 -0.87392,-0.11067 -1.24792,-0.33202c-0.36637,-0.22135 -0.66021,-0.51519 -0.88156,-0.88156c-0.22135,-0.374 -0.33203,-0.78998 -0.33203,-1.24794c0,-0.44269 0.11068,-0.85103 0.33203,-1.22503c0.22898,-0.374 0.53046,-0.67166 0.90446,-0.89301c0.374,-0.22897 0.78234,-0.34347 1.22503,-0.34347c0.45033,0 0.85867,0.11067 1.22504,0.33202c0.374,0.22135 0.67166,0.51902 0.89301,0.89302c0.22135,0.374 0.33201,0.78615 0.33201,1.23647c0,0.45795 -0.11066,0.87394 -0.33201,1.24794c-0.22135,0.36637 -0.51901,0.66021 -0.89301,0.88156c-0.36637,0.22135 -0.77471,0.33202 -1.22504,0.33202zM217.11057,155.83538c0.19081,0 0.36256,-0.04579 0.51521,-0.13738c0.16029,-0.09922 0.28621,-0.22898 0.3778,-0.38926c0.09923,-0.16028 0.14884,-0.33584 0.14884,-0.52665c0,-0.19081 -0.04961,-0.36637 -0.14884,-0.52665c-0.09159,-0.16028 -0.21752,-0.28622 -0.3778,-0.37781c-0.15265,-0.09922 -0.3244,-0.14884 -0.51521,-0.14884c-0.19845,0 -0.37781,0.04962 -0.53809,0.14884c-0.15265,0.09159 -0.27859,0.21753 -0.37782,0.37781c-0.09159,0.16028 -0.13738,0.33584 -0.13738,0.52665c0,0.19081 0.04579,0.36637 0.13738,0.52665c0.09923,0.16028 0.22517,0.29004 0.37782,0.38926c0.16029,0.09159 0.33965,0.13738 0.53809,0.13738zM233.08177,162.57878c-0.73273,0 -1.37768,-0.16411 -1.93487,-0.49231c-0.54954,-0.33584 -0.97697,-0.7976 -1.28228,-1.38531c-0.29767,-0.58771 -0.44651,-1.25938 -0.44651,-2.01501c0,-0.77853 0.15265,-1.45783 0.45795,-2.0379c0.31294,-0.58771 0.74418,-1.04567 1.29372,-1.37387c0.54954,-0.3282 1.18687,-0.4923 1.91197,-0.4923c0.748,0 1.39676,0.16791 1.9463,0.50375c0.54954,0.3282 0.97697,0.78616 1.28228,1.37387c0.30531,0.58771 0.45795,1.26319 0.45795,2.02645c0,0.76326 -0.15265,1.43875 -0.45795,2.02646c-0.30531,0.58007 -0.73655,1.03803 -1.29373,1.37386c-0.54954,0.3282 -1.1945,0.49231 -1.93485,0.49231zM233.08177,161.03317c0.65641,0 1.14488,-0.21753 1.46545,-0.65258c0.32057,-0.44269 0.48085,-1.00751 0.48085,-1.69443c0,-0.71747 -0.1641,-1.28991 -0.4923,-1.71733c-0.32057,-0.42742 -0.80523,-0.64114 -1.454,-0.64114c-0.44268,0 -0.80524,0.09923 -1.08765,0.29767c-0.2824,0.19844 -0.49231,0.47704 -0.62969,0.83577c-0.13738,0.3511 -0.20608,0.75944 -0.20608,1.22503c0,0.70983 0.16029,1.27846 0.48086,1.70588c0.3282,0.42742 0.80906,0.64113 1.44257,0.64113zM238.91947,162.3727v-7.49902c0,-0.18318 0.00382,-0.38545 0.01145,-0.6068c0.01527,-0.22897 0.05343,-0.45413 0.11449,-0.67548c0.0687,-0.22897 0.187,-0.43507 0.35492,-0.61825c0.21371,-0.22897 0.43888,-0.38926 0.67548,-0.48085c0.24425,-0.09159 0.48467,-0.1412 0.72128,-0.14883c0.24425,-0.01527 0.45414,-0.0229 0.62969,-0.0229h0.91591v1.33952h-0.84722c-0.31294,0 -0.54574,0.08014 -0.69839,0.24043c-0.15265,0.16028 -0.22898,0.36636 -0.22898,0.61823v7.85395zM237.72878,156.28189v-1.29372h4.61391v1.29372zM250.4958,162.3727c-0.48085,0.09159 -0.95788,0.12976 -1.43111,0.11449c-0.46559,-0.00763 -0.88156,-0.09159 -1.24793,-0.25187c-0.36637,-0.16028 -0.64878,-0.41598 -0.84722,-0.76708c-0.16791,-0.32057 -0.25569,-0.64496 -0.26332,-0.97316c-0.00763,-0.33584 -0.01145,-0.71364 -0.01145,-1.13343v-6.42283h1.63718v6.31979c0,0.29767 0.00382,0.561 0.01145,0.78997c0.00763,0.22135 0.05343,0.40071 0.13739,0.53809c0.16791,0.27478 0.43124,0.42743 0.78997,0.45796c0.35873,0.03053 0.76708,0.01145 1.22503,-0.05724zM245.35524,156.28189v-1.29372h5.14055v1.29372zM257.20488,162.3727v-3.54916c0,-0.2366 -0.01907,-0.49611 -0.05724,-0.77852c-0.03053,-0.28241 -0.10304,-0.55337 -0.21753,-0.81288c-0.1145,-0.26714 -0.29005,-0.48468 -0.52665,-0.65259c-0.22898,-0.16791 -0.53809,-0.25187 -0.92736,-0.25187c-0.20608,0 -0.41216,0.03435 -0.61824,0.10305c-0.20608,0.06869 -0.39308,0.187 -0.56099,0.35491c-0.16791,0.16791 -0.30149,0.39689 -0.40071,0.68693c-0.09923,0.29004 -0.14884,0.66022 -0.14884,1.11055l-0.97316,-0.42361c0,-0.62588 0.12212,-1.1945 0.36637,-1.70588c0.24425,-0.51138 0.60297,-0.91591 1.07619,-1.21358c0.47322,-0.30531 1.0533,-0.45796 1.74023,-0.45796c0.54954,0 0.99987,0.09159 1.35097,0.27477c0.35873,0.17555 0.64114,0.40835 0.84722,0.69839c0.21371,0.28241 0.37018,0.58389 0.4694,0.90446c0.09922,0.31294 0.1641,0.61442 0.19463,0.90446c0.03053,0.28241 0.0458,0.51139 0.0458,0.68694v4.1216zM252.07578,162.3727v-9.84605h1.47691v5.18635h0.19463v4.6597zM264.00379,162.57878c-0.748,0 -1.4044,-0.16029 -1.96922,-0.48086c-0.56482,-0.3282 -1.00749,-0.77852 -1.32806,-1.35097c-0.31294,-0.57245 -0.46941,-1.23266 -0.46941,-1.98066c0,-0.80906 0.15266,-1.51125 0.45796,-2.1066c0.31294,-0.59535 0.74417,-1.05712 1.29372,-1.38532c0.54954,-0.3282 1.18687,-0.4923 1.91197,-0.4923c0.77089,0 1.42348,0.17937 1.95776,0.5381c0.53428,0.35873 0.93117,0.86629 1.19068,1.5227c0.25951,0.64877 0.35874,1.41585 0.29767,2.30123h-1.6372v-0.60679c-0.00763,-0.80142 -0.14883,-1.38531 -0.4236,-1.75168c-0.27478,-0.374 -0.71365,-0.56099 -1.31663,-0.56099c-0.67166,0 -1.1716,0.20989 -1.4998,0.62968c-0.3282,0.41979 -0.4923,1.0304 -0.4923,1.83183c0,0.748 0.1641,1.32807 0.4923,1.74023c0.3282,0.40453 0.80523,0.60679 1.43111,0.60679c0.40453,0 0.75181,-0.08777 1.04185,-0.26332c0.29767,-0.18318 0.52666,-0.44651 0.68694,-0.78997l1.62573,0.4923c-0.28241,0.66404 -0.71747,1.18305 -1.30517,1.55705c-0.58771,0.36637 -1.23647,0.54955 -1.9463,0.54955zM261.46213,159.14411v-1.24793h5.07186v1.24793zM274.96711,162.57878c-0.748,0 -1.40439,-0.16029 -1.96921,-0.48086c-0.56482,-0.3282 -1.0075,-0.77852 -1.32807,-1.35097c-0.31294,-0.57245 -0.4694,-1.23266 -0.4694,-1.98066c0,-0.80906 0.15265,-1.51125 0.45795,-2.1066c0.31294,-0.59535 0.74418,-1.05712 1.29372,-1.38532c0.54954,-0.3282 1.18687,-0.4923 1.91197,-0.4923c0.77089,0 1.42348,0.17937 1.95776,0.5381c0.53428,0.35873 0.93117,0.86629 1.19069,1.5227c0.25951,0.64877 0.35874,1.41585 0.29767,2.30123h-1.63719v-0.60679c-0.00763,-0.80142 -0.14884,-1.38531 -0.42362,-1.75168c-0.27478,-0.374 -0.71365,-0.56099 -1.31662,-0.56099c-0.67166,0 -1.1716,0.20989 -1.4998,0.62968c-0.3282,0.41979 -0.49231,1.0304 -0.49231,1.83183c0,0.748 0.16411,1.32807 0.49231,1.74023c0.3282,0.40453 0.80524,0.60679 1.43112,0.60679c0.40453,0 0.75181,-0.08777 1.04185,-0.26332c0.29767,-0.18318 0.52665,-0.44651 0.68693,-0.78997l1.62574,0.4923c-0.28241,0.66404 -0.71747,1.18305 -1.30518,1.55705c-0.58771,0.36637 -1.23648,0.54955 -1.94631,0.54955zM272.42544,159.14411v-1.24793h5.07186v1.24793zM284.74297,162.3727v-3.54916c0,-0.2366 -0.01909,-0.49611 -0.05725,-0.77852c-0.03053,-0.28241 -0.10303,-0.55337 -0.21752,-0.81288c-0.1145,-0.26714 -0.29004,-0.48468 -0.52665,-0.65259c-0.22897,-0.16791 -0.53809,-0.25187 -0.92736,-0.25187c-0.20608,0 -0.41216,0.03435 -0.61824,0.10305c-0.20608,0.06869 -0.39308,0.187 -0.56099,0.35491c-0.16791,0.16791 -0.30149,0.39689 -0.40072,0.68693c-0.09922,0.29004 -0.14883,0.66022 -0.14883,1.11055l-0.97318,-0.42361c0,-0.62588 0.12212,-1.1945 0.36638,-1.70588c0.24425,-0.51138 0.60297,-0.91591 1.0762,-1.21358c0.47323,-0.30531 1.0533,-0.45796 1.74023,-0.45796c0.54954,0 0.99987,0.09159 1.35097,0.27477c0.35873,0.17555 0.64114,0.40835 0.84722,0.69839c0.21371,0.28241 0.37018,0.58389 0.4694,0.90446c0.09922,0.31294 0.1641,0.61442 0.19463,0.90446c0.03053,0.28241 0.04579,0.51139 0.04579,0.68694v4.1216zM279.61384,162.3727v-7.38453h1.47693v2.28977h0.19463v5.09476zM291.42558,162.57878c-0.748,0 -1.40439,-0.16029 -1.9692,-0.48086c-0.56482,-0.3282 -1.00751,-0.77852 -1.32808,-1.35097c-0.31294,-0.57245 -0.4694,-1.23266 -0.4694,-1.98066c0,-0.80906 0.15265,-1.51125 0.45795,-2.1066c0.31294,-0.59535 0.74418,-1.05712 1.29372,-1.38532c0.54954,-0.3282 1.18687,-0.4923 1.91197,-0.4923c0.77089,0 1.42348,0.17937 1.95776,0.5381c0.53428,0.35873 0.93117,0.86629 1.19069,1.5227c0.25951,0.64877 0.35874,1.41585 0.29767,2.30123h-1.63719v-0.60679c-0.00763,-0.80142 -0.14883,-1.38531 -0.42361,-1.75168c-0.27478,-0.374 -0.71365,-0.56099 -1.31663,-0.56099c-0.67166,0 -1.1716,0.20989 -1.49981,0.62968c-0.3282,0.41979 -0.4923,1.0304 -0.4923,1.83183c0,0.748 0.1641,1.32807 0.4923,1.74023c0.3282,0.40453 0.80524,0.60679 1.43112,0.60679c0.40453,0 0.75181,-0.08777 1.04185,-0.26332c0.29767,-0.18318 0.52665,-0.44651 0.68694,-0.78997l1.62574,0.4923c-0.28241,0.66404 -0.71747,1.18305 -1.30517,1.55705c-0.58771,0.36637 -1.23648,0.54955 -1.94631,0.54955zM288.88394,159.14411v-1.24793h5.07187v1.24793zM304.95667,162.3727v-4.48797c0,-0.50375 -0.12593,-0.89683 -0.37781,-1.17923c-0.25188,-0.29004 -0.59153,-0.43506 -1.01896,-0.43506c-0.26714,0 -0.50376,0.06106 -0.70983,0.18319c-0.20608,0.12213 -0.374,0.30149 -0.50375,0.53809c-0.12213,0.2366 -0.18318,0.5152 -0.18318,0.83577l-0.73273,-0.43506c0,-0.50375 0.1145,-0.95025 0.34347,-1.33952c0.2366,-0.39689 0.55337,-0.7022 0.95026,-0.91591c0.40453,-0.22135 0.85485,-0.33202 1.35097,-0.33202c0.81669,0 1.44256,0.24425 1.87761,0.73273c0.43506,0.48848 0.65259,1.13344 0.65259,1.93486v4.90013zM296.07232,162.3727v-7.38453h1.46546v2.28977h0.19463v5.09476zM300.52594,162.3727v-4.46507c0,-0.51138 -0.12593,-0.91209 -0.37781,-1.20213c-0.25188,-0.29004 -0.59153,-0.43506 -1.01896,-0.43506c-0.41979,0 -0.75943,0.14502 -1.01895,0.43506c-0.25188,0.29004 -0.37782,0.66404 -0.37782,1.12199l-0.73273,-0.4923c0,-0.48085 0.11831,-0.9121 0.35492,-1.29373c0.2366,-0.38163 0.55719,-0.68311 0.96171,-0.90446c0.40453,-0.22135 0.85485,-0.33202 1.35097,-0.33202c0.55718,0 1.01894,0.11831 1.38531,0.35492c0.374,0.2366 0.65259,0.55718 0.83577,0.9617c0.18318,0.39689 0.27478,0.85104 0.27478,1.36242v4.88868zM308.52193,153.86617v-1.51126h1.63718v1.51126zM308.52193,162.3727v-7.38453h1.63718v7.38454zM315.57351,162.57878c-0.748,0 -1.4044,-0.16029 -1.96922,-0.48086c-0.56482,-0.3282 -1.00749,-0.77852 -1.32806,-1.35097c-0.31294,-0.57245 -0.46941,-1.23266 -0.46941,-1.98066c0,-0.80906 0.15265,-1.51125 0.45796,-2.1066c0.31294,-0.59535 0.74418,-1.05712 1.29373,-1.38532c0.54954,-0.3282 1.18686,-0.4923 1.91196,-0.4923c0.77089,0 1.42348,0.17937 1.95776,0.5381c0.53428,0.35873 0.93117,0.86629 1.19069,1.5227c0.25951,0.64877 0.35874,1.41585 0.29767,2.30123h-1.63719v-0.60679c-0.00763,-0.80142 -0.14883,-1.38531 -0.42361,-1.75168c-0.27478,-0.374 -0.71365,-0.56099 -1.31662,-0.56099c-0.67166,0 -1.17161,0.20989 -1.49981,0.62968c-0.3282,0.41979 -0.4923,1.0304 -0.4923,1.83183c0,0.748 0.1641,1.32807 0.4923,1.74023c0.3282,0.40453 0.80524,0.60679 1.43112,0.60679c0.40453,0 0.7518,-0.08777 1.04184,-0.26332c0.29767,-0.18318 0.52665,-0.44651 0.68694,-0.78997l1.62574,0.4923c-0.28241,0.66404 -0.71747,1.18305 -1.30517,1.55705c-0.58771,0.36637 -1.23648,0.54955 -1.94631,0.54955zM313.03186,159.14411v-1.24793h5.07185v1.24793zM323.29909,162.57878c-0.91591,0 -1.66009,-0.20607 -2.23254,-0.61823c-0.56482,-0.41216 -0.90827,-0.98843 -1.0304,-1.72879l1.68299,-0.26332c0.08396,0.36637 0.27477,0.6564 0.57244,0.87011c0.29767,0.20608 0.67167,0.30912 1.12199,0.30912c0.39689,0 0.70221,-0.07632 0.91592,-0.22897c0.21371,-0.16028 0.32056,-0.37781 0.32056,-0.65259c0,-0.16791 -0.04198,-0.30149 -0.12593,-0.40071c-0.07632,-0.10686 -0.24805,-0.20609 -0.5152,-0.29767c-0.26714,-0.09922 -0.6793,-0.22135 -1.23648,-0.36637c-0.61825,-0.16791 -1.11054,-0.34347 -1.47691,-0.52665c-0.36637,-0.19081 -0.6297,-0.41597 -0.78998,-0.67548c-0.15265,-0.25951 -0.22897,-0.57244 -0.22897,-0.93881c0,-0.46559 0.11831,-0.8663 0.35492,-1.20214c0.24425,-0.34347 0.58008,-0.6068 1.00751,-0.78997c0.43506,-0.19081 0.94644,-0.28622 1.53414,-0.28622c0.58007,0 1.09147,0.09159 1.53415,0.27477c0.44269,0.17555 0.80142,0.42743 1.0762,0.75563c0.27478,0.3282 0.44269,0.71365 0.50375,1.15634l-1.68299,0.29767c-0.03816,-0.31294 -0.17937,-0.56099 -0.42361,-0.74417c-0.24425,-0.18318 -0.56862,-0.28622 -0.97315,-0.30912c-0.38926,-0.0229 -0.70221,0.03816 -0.93882,0.18318c-0.2366,0.13738 -0.35492,0.3282 -0.35492,0.57245c0,0.14502 0.0458,0.26714 0.13739,0.36637c0.09922,0.09922 0.29385,0.19844 0.58389,0.29766c0.29004,0.09922 0.72127,0.22517 1.29372,0.37782c0.58771,0.14502 1.05712,0.31675 1.40822,0.51519c0.35873,0.19081 0.61443,0.41979 0.76708,0.68694c0.16028,0.26714 0.24043,0.59535 0.24043,0.98461c0,0.74036 -0.27096,1.32425 -0.81288,1.75168c-0.54191,0.41979 -1.28609,0.62969 -2.23253,0.62969z" fill="#01ebfc" stroke="#01ebfc" stroke-width="0.25" stroke-linecap="square"/></g></g></svg>