<svg version="1.1" xmlns="http://www.w3.org/2000/svg" xmlns:xlink="http://www.w3.org/1999/xlink" width="90" height="87" viewBox="0,0,90,87"><g transform="translate(-195,-136.5)"><g data-paper-data="{&quot;isPaintingLayer&quot;:true}" fill-rule="nonzero" stroke="none" stroke-linejoin="miter" stroke-miterlimit="10" stroke-dasharray="" stroke-dashoffset="0" style="mix-blend-mode: normal"><path d="M231.05,188.21252v-3.7h1.9v3.7z" fill="#bbbbbb" stroke-width="0" stroke-linecap="butt"/><path d="M231.35,174.81252v-3.4h2.2v3.4z" fill="#bbbbbb" stroke-width="0" stroke-linecap="butt"/><path d="M237.07564,179.33123h2.84327c1.3479,0 2.34833,-0.33697 3.00123,-1.01094c0.65288,-0.67398 0.97935,-1.56905 0.97935,-2.68529c0,-1.09517 -0.32646,-1.93765 -0.97934,-2.52734c-0.63184,-0.61078 -1.5164,-0.91615 -2.65371,-0.91615c-1.01093,0 -1.8639,0.28433 -2.55892,0.85298c-0.69502,0.54761 -1.04252,1.27421 -1.04252,2.17984h-5.30743c0,-1.41109 0.37911,-2.66424 1.1373,-3.75941c0.75821,-1.11626 1.81128,-1.99027 3.15918,-2.62212c1.3479,-0.63184 2.84327,-0.94776 4.48604,-0.94776c2.84327,0 5.06522,0.68449 6.66588,2.05348c1.60064,1.3479 2.40098,3.21183 2.40098,5.59176c0,1.24263 -0.37911,2.37993 -1.1373,3.41191c-0.73716,1.03198 -1.71649,1.82179 -2.93803,2.3694c1.5164,0.54761 2.64318,1.35845 3.38034,2.43258c0.75821,1.07413 1.1373,2.34833 1.1373,3.82261c0,2.37993 -0.87404,4.29648 -2.62211,5.74971c-1.727,1.43218 -4.02271,2.14825 -6.88701,2.14825c-2.67476,0 -4.86513,-0.70556 -6.57109,-2.11664c-1.70595,-1.41109 -2.55892,-3.28555 -2.55892,-5.62334h5.33902c0,1.01093 0.37911,1.84286 1.1373,2.49576c0.75821,0.63184 1.68491,0.94776 2.78008,0.94776c1.26367,0 2.25357,-0.33697 2.96964,-1.01094c0.71607,-0.67398 1.07412,-1.55854 1.07412,-2.65371c0,-2.67476 -1.47427,-4.01215 -4.42285,-4.01215h-2.81166z" fill="#bbbbbb" stroke-width="1" stroke-linecap="square"/><path d="M237.08292,175.96142h2.84327c1.34793,0 2.34833,-0.33698 3.00123,-1.01093c0.65291,-0.67395 0.97936,-1.56906 0.97936,-2.68529c0,-1.09519 -0.32645,-1.93762 -0.97934,-2.52734c-0.63184,-0.61077 -1.5164,-0.91615 -2.65371,-0.91615c-1.01093,0 -1.86391,0.28434 -2.55893,0.85299c-0.69502,0.54758 -1.04251,1.2742 -1.04251,2.17984h-5.30742c0,-1.4111 0.3791,-2.66424 1.1373,-3.75941c0.75821,-1.11623 1.81126,-1.99027 3.15918,-2.62211c1.34793,-0.63184 2.84326,-0.94776 4.48604,-0.94776c2.84327,0 5.06522,0.68449 6.66589,2.05347c1.60066,1.34793 2.40098,3.21183 2.40098,5.59176c0,1.2426 -0.37911,2.37991 -1.1373,3.41192c-0.73714,1.032 -1.71649,1.82179 -2.93803,2.3694c1.5164,0.54758 2.64318,1.35845 3.38031,2.43258c0.75821,1.07413 1.1373,2.34833 1.1373,3.82262c0,2.37992 -0.87403,4.29648 -2.62211,5.74971c-1.72702,1.43216 -4.02268,2.14825 -6.88701,2.14825c-2.67478,0 -4.86514,-0.70556 -6.5711,-2.11664c-1.70595,-1.4111 -2.55892,-3.28554 -2.55892,-5.62334h5.33902c0,1.01093 0.3791,1.84286 1.1373,2.49576c0.75821,0.63184 1.68489,0.94776 2.78008,0.94776c1.26367,0 2.25355,-0.33698 2.96963,-1.01093c0.71608,-0.67395 1.07413,-1.55853 1.07413,-2.65371c0,-2.67478 -1.4743,-4.01215 -4.42285,-4.01215h-2.81166z" fill="#f3f3f3" stroke-width="1" stroke-linecap="square"/><path d="M195,223.5v-87h90v87z" fill="none" stroke-width="0" stroke-linecap="butt"/></g></g></svg>