<svg version="1.1" xmlns="http://www.w3.org/2000/svg" xmlns:xlink="http://www.w3.org/1999/xlink" width="53.46057" height="73.598" viewBox="0,0,53.46057,73.598"><defs><radialGradient cx="240.41804" cy="205.428" r="12.35459" gradientUnits="userSpaceOnUse" id="color-1"><stop offset="0" stop-color="#fcec00"/><stop offset="1" stop-color="#fcec00" stop-opacity="0"/></radialGradient><linearGradient x1="239.78411" y1="204.32198" x2="239.78411" y2="221.18561" gradientUnits="userSpaceOnUse" id="color-2"><stop offset="0" stop-color="#ffffff"/><stop offset="1" stop-color="#ffffff" stop-opacity="0"/></linearGradient><radialGradient cx="240.01408" cy="208.21143" r="8.89813" gradientUnits="userSpaceOnUse" id="color-3"><stop offset="0" stop-color="#f5eb75"/><stop offset="1" stop-color="#f5eb75" stop-opacity="0"/></radialGradient><linearGradient x1="239.19361" y1="125.00034" x2="239.19361" y2="219.02639" gradientUnits="userSpaceOnUse" id="color-4"><stop offset="0" stop-color="#a300f2"/><stop offset="1" stop-color="#a300f2" stop-opacity="0"/></linearGradient><linearGradient x1="238.95589" y1="96.98158" x2="238.95589" y2="225.00219" gradientUnits="userSpaceOnUse" id="color-5"><stop offset="0" stop-color="#f1f1f1"/><stop offset="1" stop-color="#f1f1f1" stop-opacity="0"/></linearGradient><linearGradient x1="239.96418" y1="204.61823" x2="239.96418" y2="212.52599" gradientUnits="userSpaceOnUse" id="color-6"><stop offset="0" stop-color="#ff4f00"/><stop offset="1" stop-color="#ff4f00" stop-opacity="0"/></linearGradient><linearGradient x1="239.89619" y1="204.86497" x2="239.89619" y2="210.2108" gradientUnits="userSpaceOnUse" id="color-7"><stop offset="0" stop-color="#ffd400"/><stop offset="1" stop-color="#ffd400" stop-opacity="0"/></linearGradient><linearGradient x1="239.8939" y1="204.50691" x2="239.8939" y2="213.38923" gradientUnits="userSpaceOnUse" id="color-8"><stop offset="0" stop-color="#ffee00"/><stop offset="1" stop-color="#ffee00" stop-opacity="0"/></linearGradient><linearGradient x1="239.82138" y1="204.43396" x2="239.82138" y2="208.32133" gradientUnits="userSpaceOnUse" id="color-9"><stop offset="0" stop-color="#ffee00"/><stop offset="1" stop-color="#ffee00" stop-opacity="0"/></linearGradient><linearGradient x1="241.86415" y1="204.50691" x2="241.86415" y2="208.39429" gradientUnits="userSpaceOnUse" id="color-10"><stop offset="0" stop-color="#ffee00"/><stop offset="1" stop-color="#ffee00" stop-opacity="0"/></linearGradient><linearGradient x1="237.77862" y1="204.50691" x2="237.77862" y2="208.39429" gradientUnits="userSpaceOnUse" id="color-11"><stop offset="0" stop-color="#ffee00"/><stop offset="1" stop-color="#ffee00" stop-opacity="0"/></linearGradient><radialGradient cx="239.85351" cy="208.44531" r="6.32236" gradientUnits="userSpaceOnUse" id="color-12"><stop offset="0" stop-color="#feea00"/><stop offset="1" stop-color="#feea00" stop-opacity="0"/></radialGradient><radialGradient cx="240.01832" cy="207.64309" r="6.32236" gradientUnits="userSpaceOnUse" id="color-13"><stop offset="0" stop-color="#feea00"/><stop offset="1" stop-color="#feea00" stop-opacity="0"/></radialGradient><linearGradient x1="235.79193" y1="206.17626" x2="243.68153" y2="206.17626" gradientUnits="userSpaceOnUse" id="color-14"><stop offset="0" stop-color="#5f5f5f"/><stop offset="1" stop-color="#4c4c4c"/></linearGradient><linearGradient x1="235.79193" y1="206.17626" x2="243.68153" y2="206.17626" gradientUnits="userSpaceOnUse" id="color-15"><stop offset="0" stop-color="#949494"/><stop offset="1" stop-color="#757575"/></linearGradient><linearGradient x1="236.03522" y1="204.37462" x2="238.59493" y2="204.37462" gradientUnits="userSpaceOnUse" id="color-16"><stop offset="0" stop-color="#4c4c4c"/><stop offset="1" stop-color="#4c4c4c" stop-opacity="0"/></linearGradient><linearGradient x1="243.43768" y1="204.3746" x2="240.87797" y2="204.3746" gradientUnits="userSpaceOnUse" id="color-17"><stop offset="0" stop-color="#5f5f5f"/><stop offset="1" stop-color="#5f5f5f" stop-opacity="0"/></linearGradient><linearGradient x1="235.48761" y1="163.38445" x2="242.87108" y2="163.38445" gradientUnits="userSpaceOnUse" id="color-18"><stop offset="0" stop-color="#d40000"/><stop offset="1" stop-color="#a30000"/></linearGradient><linearGradient x1="237.48123" y1="168.02611" x2="242.52704" y2="168.02611" gradientUnits="userSpaceOnUse" id="color-19"><stop offset="0" stop-color="#5f5f5f"/><stop offset="1" stop-color="#a8a8a8"/></linearGradient><linearGradient x1="240.04271" y1="161.70348" x2="240.04271" y2="162.63896" gradientUnits="userSpaceOnUse" id="color-20"><stop offset="0" stop-color="#7a7a7a"/><stop offset="1" stop-color="#646464"/></linearGradient><linearGradient x1="239.17864" y1="165.33022" x2="239.3533" y2="165.33022" gradientUnits="userSpaceOnUse" id="color-21"><stop offset="0" stop-color="#00eeec"/><stop offset="1" stop-color="#1cfff4"/></linearGradient><linearGradient x1="230.56379" y1="180.9251" x2="233.86298" y2="180.9251" gradientUnits="userSpaceOnUse" id="color-22"><stop offset="0" stop-color="#dedede"/><stop offset="1" stop-color="#dedede" stop-opacity="0"/></linearGradient><linearGradient x1="235.60669" y1="204.12797" x2="243.86347" y2="204.12797" gradientUnits="userSpaceOnUse" id="color-23"><stop offset="0" stop-color="#888888"/><stop offset="1" stop-color="#696969"/></linearGradient><linearGradient x1="249.22244" y1="185.70286" x2="251.74534" y2="185.70286" gradientUnits="userSpaceOnUse" id="color-24"><stop offset="0" stop-color="#dd0000"/><stop offset="1" stop-color="#dd0000" stop-opacity="0"/></linearGradient><linearGradient x1="249.19126" y1="196.20949" x2="251.81119" y2="196.20949" gradientUnits="userSpaceOnUse" id="color-25"><stop offset="0" stop-color="#dfdfdf"/><stop offset="1" stop-color="#dfdfdf" stop-opacity="0"/></linearGradient><linearGradient x1="239.68184" y1="206.57577" x2="239.68184" y2="212.8485" gradientUnits="userSpaceOnUse" id="color-26"><stop offset="0" stop-color="#fde704"/><stop offset="1" stop-color="#fde704" stop-opacity="0"/></linearGradient><linearGradient x1="238.80759" y1="178.09019" x2="241.3165" y2="178.09019" gradientUnits="userSpaceOnUse" id="color-27"><stop offset="0" stop-color="#c7ffff"/><stop offset="1" stop-color="#91f5f5"/></linearGradient><linearGradient x1="238.1875" y1="192.79167" x2="241.8125" y2="192.79167" gradientUnits="userSpaceOnUse" id="color-28"><stop offset="0" stop-color="#bf0000"/><stop offset="1" stop-color="#bf0000"/></linearGradient><linearGradient x1="238.1875" y1="198.47917" x2="241.8125" y2="198.47917" gradientUnits="userSpaceOnUse" id="color-29"><stop offset="0" stop-color="#bf0000"/><stop offset="1" stop-color="#bf0000"/></linearGradient></defs><g transform="translate(-214.70612,-152.80274)"><g data-paper-data="{&quot;isPaintingLayer&quot;:true}" fill-rule="nonzero" stroke-linejoin="miter" stroke-miterlimit="10" stroke-dasharray="" stroke-dashoffset="0" style="mix-blend-mode: normal"><g><path d="M252.6079,205.428c0,6.82325 -5.45758,12.35459 -12.18986,12.35459c-6.73227,0 -12.18987,-5.53134 -12.18987,-12.35459c0,-6.82325 5.45759,-12.35459 12.18987,-12.35459c6.73227,0 12.18986,5.53134 12.18986,12.35459z" fill="url(#color-1)" stroke="none" stroke-width="0" stroke-linecap="butt"/><g stroke-width="0"><path d="M242.28411,204.32198l-2.5,16.86364l-2.5,-16.86364z" fill="url(#color-2)" stroke="#000000" stroke-linecap="round"/><path d="M247.81946,208.21143c0,4.34894 -3.49458,7.87446 -7.80538,7.87446c-4.3108,0 -7.80538,-3.52552 -7.80538,-7.87446c0,-4.34894 3.49459,-7.87446 7.80538,-7.87446c4.3108,0 7.80538,3.52552 7.80538,7.87446z" fill="url(#color-3)" stroke="none" stroke-linecap="butt"/><g stroke="#000000" stroke-linecap="round"><path d="M241.98056,205.12111l-1.99752,14.93246l-2.35162,-14.93246z" fill="url(#color-4)"/><path d="M242.75045,206.06953l-2.71971,20.33121l-3.20183,-20.33121z" fill="url(#color-5)"/><path d="M241.06248,204.61823c0,0 1.97104,0.54702 1.90371,2.41626c-0.16093,4.46815 -3.2949,5.49149 -3.2949,5.49149c0,0 -2.64402,-0.90981 -2.70914,-5.49149c-0.02772,-1.95089 1.8305,-2.41626 1.8305,-2.41626z" fill="url(#color-6)"/><path d="M240.63867,204.86497c0,0 1.33247,0.3698 1.28696,1.63345c-0.10879,3.02057 -2.22743,3.71239 -2.22743,3.71239c0,0 -1.78743,-0.61506 -1.83145,-3.71239c-0.01874,-1.31885 1.23746,-1.63345 1.23746,-1.63345z" fill="url(#color-7)"/><path d="M241.12756,204.50691c0,0 2.21395,0.61444 2.13833,2.71404c-0.18075,5.01881 -3.70096,6.16828 -3.70096,6.16828c0,0 -2.96987,-1.02195 -3.04302,-6.16828c-0.03114,-2.19132 2.05609,-2.71404 2.05609,-2.71404z" fill="url(#color-8)"/><path d="M240.3613,204.43396c0,0 0.96894,0.26891 0.93585,1.18781c-0.07911,2.1965 -1.61974,2.69957 -1.61974,2.69957c0,0 -1.29978,-0.44726 -1.33179,-2.69957c-0.01364,-0.95904 0.89985,-1.18781 0.89985,-1.18781z" fill="url(#color-9)"/><path d="M242.40407,204.50691c0,0 0.96895,0.26892 0.93585,1.18781c-0.07911,2.1965 -1.61975,2.69957 -1.61975,2.69957c0,0 -1.29978,-0.44726 -1.33179,-2.69957c-0.01363,-0.95904 0.89986,-1.18781 0.89986,-1.18781z" fill="url(#color-10)"/><path d="M238.31853,204.50691c0,0 0.96895,0.26892 0.93585,1.18781c-0.07911,2.1965 -1.61975,2.69957 -1.61975,2.69957c0,0 -1.29978,-0.44726 -1.33179,-2.69957c-0.01363,-0.95904 0.89986,-1.18781 0.89986,-1.18781z" fill="url(#color-11)"/></g><path d="M245.39944,208.44531c0,3.09004 -2.48299,5.59501 -5.54593,5.59501c-3.06293,0 -5.54593,-2.50497 -5.54593,-5.59501c0,-3.09004 2.48299,-5.59501 5.54593,-5.59501c3.06293,0 5.54593,2.50497 5.54593,5.59501z" fill="url(#color-12)" stroke="none" stroke-linecap="butt"/><path d="M245.56424,207.64309c0,3.09004 -2.48299,5.59501 -5.54593,5.59501c-3.06294,0 -5.54593,-2.50497 -5.54593,-5.59501c0,-3.09004 2.48299,-5.59501 5.54593,-5.59501c3.06294,0 5.54593,2.50498 5.54593,5.59501z" fill="url(#color-13)" stroke="none" stroke-linecap="butt"/></g><path d="M265.66669,181.12501v10.66666l-14.66667,7.66666l1,-18.16666z" data-paper-data="{&quot;index&quot;:null}" fill="none" stroke="#bf0000" stroke-width="5" stroke-linecap="round"/><g fill="#cecece"><path d="M241.84341,156.52828v-3.54545h2.90909v3.54545z" stroke="none" stroke-width="0" stroke-linecap="butt"/><path d="M235.08703,198.93998l0.15778,-37.58147l5.57746,-5.42857v15.66277c0,0 0.69889,1.92095 2.59992,1.92095c1.8678,0 2.55923,-1.79051 2.55923,-1.79051v-15.95287l5.71689,5.42857l-0.18805,37.7619l-2.5722,0.71141l-10.10296,0.0566z" stroke="#cecece" stroke-width="2.5" stroke-linecap="round"/></g><path d="M243.68153,206.17626c0,0.46442 -1.76614,0.84091 -3.9448,0.84091c-2.17865,0 -3.9448,-0.37649 -3.9448,-0.84091c0,-0.46442 1.76614,-0.84091 3.9448,-0.84091c2.17865,0 3.9448,0.37649 3.9448,0.84091z" fill="url(#color-14)" stroke="url(#color-15)" stroke-width="0.5" stroke-linecap="butt"/><path d="M236.03522,206.23669v-3.72414h2.55971l0.03011,4.2069c0,0 -1.00541,-0.04387 -1.45671,-0.12799c-0.40752,-0.07596 -1.13312,-0.35477 -1.13312,-0.35477z" fill="url(#color-16)" stroke="none" stroke-width="0" stroke-linecap="butt"/><path d="M242.30456,206.59146c-0.45129,0.08413 -1.45671,0.12799 -1.45671,0.12799l0.03011,-4.2069h2.55972v3.72414c0,0 -0.72561,0.2788 -1.13312,0.35477z" data-paper-data="{&quot;index&quot;:null}" fill="url(#color-17)" stroke="none" stroke-width="0" stroke-linecap="butt"/><path d="M238.34572,153.29355c0,0 0.7684,0.91199 1.34967,1.36364c0.58126,0.45165 0.91067,0.53754 1.27026,0.63636c0.3596,0.09883 0.71453,-0.09091 0.71453,-0.09091l1.19089,16.90909l-7.38347,1.36364z" fill="url(#color-18)" stroke="#ff0000" stroke-width="0" stroke-linecap="round"/><path d="M237.48123,173.9251v-11.79798h5.04582v11.79798z" fill="url(#color-19)" stroke="none" stroke-width="0" stroke-linecap="butt"/><path d="M241.92377,162.17122c0,0.25833 -0.84219,0.46774 -1.88108,0.46774c-1.03889,0 -1.88109,-0.20941 -1.88109,-0.46774c0,-0.25833 0.84219,-0.46775 1.88109,-0.46775c1.03889,0 1.88108,0.20942 1.88108,0.46775z" fill="url(#color-20)" stroke="#7e7e7e" stroke-width="0.5" stroke-linecap="butt"/><path d="M216.66422,194.86917v-1.9375h0.92789v1.9375z" fill="#d80000" stroke="none" stroke-width="0" stroke-linecap="butt"/><path d="M239.80703,203.18167h-7.91441l-14.73717,-8.375" fill="none" stroke="#d80000" stroke-width="1" stroke-linecap="round"/><path d="M239.86161,202.30667h-7.91441l-14.73717,-8.375" fill="none" stroke="#d80000" stroke-width="1" stroke-linecap="round"/><path d="M239.69787,201.36917h-7.91441l-14.73717,-8.375" fill="none" stroke="#d80000" stroke-width="1" stroke-linecap="round"/><path d="M217.00906,179.02001l23.03112,0.125l-0.04126,21.91417l-7.94559,-0.03917l-15.4164,-8.625z" fill="#ff0000" stroke="#b6b6b6" stroke-width="0" stroke-linecap="round"/><path d="M217.40808,192.69156l0.01119,-13.58974" fill="none" stroke="#df0000" stroke-width="0.5" stroke-linecap="round"/><path d="M218.45494,192.27064l0.06718,-12.23077" fill="none" stroke="#f00000" stroke-width="2" stroke-linecap="round"/><path d="M217.68959,180.40341v-1.35714h1.68424v1.35714z" fill="#f00000" stroke="none" stroke-width="0" stroke-linecap="butt"/><path d="M238.89863,199.76055v-19.28572" fill="none" stroke="#f00000" stroke-width="2.5" stroke-linecap="round"/><path d="M237.83818,183.90341v-4.71428h2.18328v4.71428z" fill="#f00000" stroke="none" stroke-width="0" stroke-linecap="butt"/><path d="M237.83818,200.97484v-6h2.18328v6z" fill="#f00000" stroke="none" stroke-width="0" stroke-linecap="butt"/><path d="M233.15971,182.97484l-0.06238,9.57143c0,0 -0.21236,2.09115 -2.31012,2.10518c-2.12366,0.01421 -2.30596,-2.17661 -2.30596,-2.17661v-9.5z" fill="#f70000" stroke="#fa0000" stroke-width="1" stroke-linecap="round"/><path d="M230.146,192.05667v-7.1875" fill="none" stroke="#f50000" stroke-width="1" stroke-linecap="round"/><path d="M231.72888,192.61917l0.10916,-8.6875" fill="none" stroke="#f50000" stroke-width="1" stroke-linecap="round"/><path d="M229.49102,182.99417l2.7291,-0.0625" fill="none" stroke="#f50000" stroke-width="1" stroke-linecap="round"/><path d="M221.84953,189.24417v-7.9375" fill="none" stroke="#fa0000" stroke-width="1" stroke-linecap="round"/><path d="M227.0894,194.11917v-11.875" fill="none" stroke="#fa0000" stroke-width="1" stroke-linecap="round"/><path d="M234.51256,184.43167l-0.05458,11.1875" fill="none" stroke="#fa0000" stroke-width="1" stroke-linecap="round"/><path d="M224.85154,189.36917l-0.10916,5.125" fill="none" stroke="#fa0000" stroke-width="1" stroke-linecap="round"/><path d="M236.58668,181.55667l0.05458,11" fill="none" stroke="#fa0000" stroke-width="1" stroke-linecap="round"/><path d="M239.75245,203.11919v-2.0625h0.54582v2.0625z" fill="#d80000" stroke="none" stroke-width="0" stroke-linecap="butt"/><g data-paper-data="{&quot;index&quot;:null}"><path d="M262.40792,194.86917v-1.9375h0.92789v1.9375z" fill="#d80000" stroke="none" stroke-width="0" stroke-linecap="butt"/><path d="M262.84457,194.80667l-14.73717,8.375h-7.91441" fill="none" stroke="#d80000" stroke-width="1" stroke-linecap="round"/><path d="M262.78999,193.93167l-14.73717,8.375h-7.91441" fill="none" stroke="#d80000" stroke-width="1" stroke-linecap="round"/><path d="M262.95372,192.99417l-14.73717,8.375h-7.91441" fill="none" stroke="#d80000" stroke-width="1" stroke-linecap="round"/><path d="M263.36311,192.39501l-15.4164,8.625l-7.94559,0.03917l-0.04126,-21.91417l23.03112,-0.125z" fill="#ff0000" stroke="#b6b6b6" stroke-width="0" stroke-linecap="round"/><path d="M264.12725,192.02001v-13.125" fill="none" stroke="#b6b6b6" stroke-width="3" stroke-linecap="round"/><path d="M262.58077,179.10182l0.01119,13.58974" fill="none" stroke="#df0000" stroke-width="0.5" stroke-linecap="round"/><path d="M263.6948,192.03987v-13" fill="none" stroke="#c2c2c2" stroke-width="2" stroke-linecap="round"/><path d="M261.4779,180.03987l0.06718,12.23077" fill="none" stroke="#f00000" stroke-width="2" stroke-linecap="round"/><path d="M260.62618,180.40341v-1.35714h1.68424v1.35714z" fill="#f00000" stroke="none" stroke-width="0" stroke-linecap="butt"/><path d="M241.10141,180.47484v19.28572" fill="none" stroke="#f00000" stroke-width="2.5" stroke-linecap="round"/><path d="M239.97857,183.90341v-4.71428h2.18328v4.71428z" fill="#f00000" stroke="none" stroke-width="0" stroke-linecap="butt"/><path d="M239.97857,200.97484v-6h2.18328v6z" fill="#f00000" stroke="none" stroke-width="0" stroke-linecap="butt"/><path d="M251.51879,182.97484v9.5c0,0 -0.18231,2.19082 -2.30596,2.17661c-2.09776,-0.01403 -2.31012,-2.10518 -2.31012,-2.10518l-0.06238,-9.57143z" fill="#f70000" stroke="#fa0000" stroke-width="1" stroke-linecap="round"/><path d="M249.85403,184.86917v7.1875" fill="none" stroke="#f50000" stroke-width="1" stroke-linecap="round"/><path d="M248.27116,192.61917l-0.10916,-8.6875" fill="none" stroke="#f50000" stroke-width="1" stroke-linecap="round"/><path d="M250.50903,182.99417l-2.7291,-0.0625" fill="none" stroke="#f50000" stroke-width="1" stroke-linecap="round"/><path d="M258.15049,181.30667v7.9375" fill="none" stroke="#fa0000" stroke-width="1" stroke-linecap="round"/><path d="M252.91064,182.24417v11.875" fill="none" stroke="#fa0000" stroke-width="1" stroke-linecap="round"/><path d="M245.54205,195.61917l-0.05458,-11.1875" fill="none" stroke="#fa0000" stroke-width="1" stroke-linecap="round"/><path d="M255.1485,189.36917l0.10916,5.125" fill="none" stroke="#fa0000" stroke-width="1" stroke-linecap="round"/><path d="M243.41335,181.55667l-0.05458,11" fill="none" stroke="#fa0000" stroke-width="1" stroke-linecap="round"/><path d="M239.70177,203.11919v-2.0625h0.54582v2.0625z" fill="#d80000" stroke="none" stroke-width="0" stroke-linecap="butt"/></g><path d="M240.73034,167.76799v-4.77419h0.22537v4.77419z" fill="#1dfffb" stroke="none" stroke-width="0" stroke-linecap="butt"/><path d="M241.28323,153.56626v17.45455c0,0 -0.35958,0.95908 -1.34967,0.90909c-0.96744,-0.04885 -1.19088,-0.90909 -1.19088,-0.90909l-0.07939,-17.45455" fill="none" stroke="#acacac" stroke-width="1" stroke-linecap="round"/><path d="M231.59839,198.88317l0.15778,-37.58147l5.57746,-5.42857v15.66277c0,0 0.69889,1.92095 2.59992,1.92095c1.8678,0 2.55923,-1.79051 2.55923,-1.79051v-15.95287l5.71689,5.42857l-0.18805,37.7619l-2.5722,0.71141l-10.10296,0.0566z" fill="#ff0000" stroke="#ff0000" stroke-width="2.5" stroke-linecap="round"/><path d="M235.83164,195.70289l-0.09704,-18.33333" fill="none" stroke="#fa0000" stroke-width="1" stroke-linecap="round"/><path d="M245.92325,177.36956l0.09704,11.77777" fill="none" stroke="#fa0000" stroke-width="1" stroke-linecap="round"/><path d="M243.69147,195.59175l-0.19407,-10.66666" fill="none" stroke="#fa0000" stroke-width="1" stroke-linecap="round"/><path d="M237.57826,199.70288v-13.33333" fill="none" stroke="#fa0000" stroke-width="1" stroke-linecap="round"/><path d="M242.23593,180.81399l0.09704,-7" fill="none" stroke="#fa0000" stroke-width="1" stroke-linecap="round"/><path d="M234.86128,173.25842l0.19408,-13.77777" fill="none" stroke="#fa0000" stroke-width="1" stroke-linecap="round"/><path d="M247.18471,160.48064l-0.19407,12.11111" fill="none" stroke="#fa0000" stroke-width="1" stroke-linecap="round"/><path d="M244.85588,161.14733l-0.2911,13" fill="none" stroke="#fa0000" stroke-width="1" stroke-linecap="round"/><path d="M239.17864,167.68023v-4.7h0.17466v4.7z" fill="url(#color-21)" stroke="none" stroke-width="0" stroke-linecap="butt"/><path d="M239.94154,167.86476v-4.80645h0.1972v4.80645z" fill="#1dfffb" stroke="none" stroke-width="0" stroke-linecap="butt"/><path d="M238.54917,175.9873l1.23551,-1.05738l1.31523,0.91167v7.72276l-1.27536,0.54738l-1.27536,-0.6931z" fill="#8cffff" stroke="#7e7e7e" stroke-width="0.5" stroke-linecap="round"/><path d="M241.00783,175.84942l-1.25539,1.125l-1.14623,-0.875" fill="none" stroke="#55eded" stroke-width="0.5" stroke-linecap="round"/><path d="M238.82455,183.34942l0.87331,-0.6875l1.09164,0.8125" fill="none" stroke="#55eded" stroke-width="0.5" stroke-linecap="round"/><path d="M239.97078,183.78692l-0.16375,-0.5625l-0.05458,-6.5625l0.05458,-1.5" fill="none" stroke="#4fdada" stroke-width="0.5" stroke-linecap="round"/><path d="M238.54917,175.9873l1.23551,-1.05738l1.31523,0.91167v7.72276l-1.27536,0.54738l-1.27536,-0.6931z" fill="none" stroke="#7e7e7e" stroke-width="0.5" stroke-linecap="round"/><path d="M240.03187,177.10488l0.81093,-0.82143l0.02079,6.9881l-0.85253,-0.78572z" fill="#5cffff" stroke="none" stroke-width="0" stroke-linecap="round"/><path d="M240.01781,183.15083l0.60495,0.37012l-0.45074,0.13243z" fill="#57f3f3" stroke="#56eeee" stroke-width="0" stroke-linecap="round"/><path d="M239.5558,182.47643l-0.81094,0.66353l-0.02079,-6.80388l0.85253,0.78572z" data-paper-data="{&quot;index&quot;:null}" fill="#87ffff" stroke="none" stroke-width="0" stroke-linecap="round"/><path d="M239.71015,183.78496l-0.65758,-0.34296l0.536,-0.37011z" data-paper-data="{&quot;index&quot;:null}" fill="#5afbfb" stroke="#56eeee" stroke-width="0" stroke-linecap="round"/><path d="M235.31849,156.31399l-0.09704,13.44444l-1.74663,1.88889v11.77778l3.49326,3.77778v13.66667h-4.94878l-1.35849,-0.66667l-0.09704,-39.33333z" fill="#ffffff" stroke="#f5f5f5" stroke-width="0.5" stroke-linecap="round"/><path d="M230.56379,200.25844v-39.44444l3.29918,-3.33333v43.55556h-2.03773z" fill="url(#color-22)" stroke="none" stroke-width="0" stroke-linecap="butt"/><path d="M249.2504,160.64733l-0.09704,39.33333l-1.35849,0.66667h-4.94877v-13.66667l3.49326,-3.77777v-11.77778l-1.74663,-1.88889l-0.09704,-13.44444z" data-paper-data="{&quot;index&quot;:null}" fill="#ffffff" stroke="#f5f5f5" stroke-width="0.5" stroke-linecap="round"/><path d="M230.48986,200.20473l-13.0997,-7.6l-0.08733,-2l13.18704,2.3z" fill="#ffffff" stroke="#f5f5f5" stroke-width="0.5" stroke-linecap="round"/><path d="M249.44077,192.50473l13.18704,-2.3c0,0 -0.00549,0.54489 -0.00856,0.84949c-0.00358,0.35448 -0.0116,1.15051 -0.0116,1.15051l-13.16688,7.6z" data-paper-data="{&quot;index&quot;:null}" fill="#ffffff" stroke="#f5f5f5" stroke-width="0.5" stroke-linecap="round"/><g fill="none" stroke-linecap="round"><path d="M216.20612,178.89501v13.125" stroke="#b6b6b6" stroke-width="3"/><path d="M216.63857,192.03987v-13" stroke="#c2c2c2" stroke-width="2"/></g><path d="M235.60669,206.26433v-4.27273c0,0 2.21655,-0.51228 4.12839,-0.5c1.91115,0.01228 4.12839,0.5 4.12839,0.5v4.27273c0,0 -2.29017,-0.63636 -4.16809,-0.63636c-1.9044,0 -4.0887,0.63636 -4.0887,0.63636z" fill="url(#color-23)" stroke="none" stroke-width="0" stroke-linecap="butt"/><path d="M249.22244,192.25844v-13.11111h2.5229v12.60657z" fill="url(#color-24)" stroke="none" stroke-width="0" stroke-linecap="butt"/><path d="M249.19126,200.13806v-7.85714l2.61994,-0.5v6.92857z" fill="url(#color-25)" stroke="none" stroke-width="0" stroke-linecap="butt"/><g><g><path d="M222.42759,182.19614v-4.09091" fill="none" stroke="#b6b6b6" stroke-width="2.5" stroke-linecap="round"/><path d="M223.71772,179.26433v3.91667" fill="none" stroke="#df0000" stroke-width="0.5" stroke-linecap="round"/><path d="M223.89636,183.4007v-4.31818h1.38936v4.31818z" fill="#f00000" stroke="none" stroke-width="0" stroke-linecap="butt"/></g><path d="M222.78487,182.44615l0.03969,-4.18182" fill="none" stroke="#c2c2c2" stroke-width="1.5" stroke-linecap="round"/></g><g data-paper-data="{&quot;index&quot;:null}"><g><path d="M257.32043,182.19615v-4.09091" fill="none" stroke="#b6b6b6" stroke-width="2.5" stroke-linecap="round"/><path d="M256.03031,183.18099v-3.91666" fill="none" stroke="#df0000" stroke-width="0.5" stroke-linecap="round"/><path d="M254.46232,183.4007v-4.31818h1.38936v4.31819z" fill="#f00000" stroke="none" stroke-width="0" stroke-linecap="butt"/></g><path d="M256.96317,182.44615l-0.03969,-4.18182" fill="none" stroke="#c2c2c2" stroke-width="1.5" stroke-linecap="round"/></g><path d="M243.20213,202.02342v3.68" fill="none" stroke="#656565" stroke-width="0.5" stroke-linecap="round"/><path d="M242.18909,205.46342v-3.64" fill="none" stroke="#6a6a6a" stroke-width="0.5" stroke-linecap="round"/><path d="M241.21098,205.34342l0.03493,-3.64" fill="none" stroke="#6f6f6f" stroke-width="0.5" stroke-linecap="round"/><path d="M240.26781,201.62342l-0.06987,3.68" fill="none" stroke="#747474" stroke-width="0.5" stroke-linecap="round"/><path d="M239.25475,201.58342l-0.03493,3.76" fill="none" stroke="#787878" stroke-width="0.5" stroke-linecap="round"/><path d="M238.27665,201.66343v3.76" fill="none" stroke="#7b7b7b" stroke-width="0.5" stroke-linecap="round"/><path d="M236.2273,212.8485v-6.27273c0,0 1.63798,-0.45454 3.45454,-0.45454c1.93782,0 3.45455,0.45454 3.45455,0.45454v6.27273z" fill="url(#color-26)" stroke="none" stroke-width="0" stroke-linecap="butt"/><path d="M237.75,184.83334v-12.6h4.8v12.6z" fill="#ff0000" stroke="none" stroke-width="0" stroke-linecap="butt"/><g stroke="#a6caca" stroke-width="0.5" stroke-linecap="round"><path d="M241.29867,180.55771c0,0 -0.55811,1.7675 -1.24554,1.7675c-0.68743,0 -1.24554,-1.7675 -1.24554,-1.7675l0.01782,-4.93504c0,0 0.55811,-1.7675 1.24554,-1.7675c0.68744,0 1.24555,1.7675 1.24555,1.7675z" fill="url(#color-27)"/><path d="M238.94515,176.19632h2.15143" fill="none"/><path d="M240.99879,177.58406h-2.05364" fill="none"/><path d="M238.84736,179.80443h2.24922" fill="none"/><path d="M241.01138,178.39882h-2.24922" fill="none"/></g><g><path d="M238.1875,196.16667v-6.75h3.625v6.75z" fill="url(#color-28)" stroke="none" stroke-width="0" stroke-linecap="butt"/><path d="M238.1875,199.91667v-2.875h3.625v2.875z" fill="url(#color-29)" stroke="none" stroke-width="0" stroke-linecap="butt"/><g fill="none" stroke="#d4d4d4" stroke-width="1" stroke-linecap="round"><path d="M231.95,200.53333v-3.4"/><path d="M234.55,200.53333v-3.4"/></g><g fill="none" stroke="#d4d4d4" stroke-width="1" stroke-linecap="round"><path d="M245.25,197.03333v3.4"/><path d="M247.85,200.43333v-3.4"/></g></g></g></g></g></svg>