<svg version="1.1" xmlns="http://www.w3.org/2000/svg" xmlns:xlink="http://www.w3.org/1999/xlink" width="24.17906" height="4.14332" viewBox="0,0,24.17906,4.14332"><defs><linearGradient x1="227.91049" y1="180.00001" x2="252.08955" y2="180.00001" gradientUnits="userSpaceOnUse" id="color-1"><stop offset="0" stop-color="#ff8400" stop-opacity="0"/><stop offset="1" stop-color="#ff8400"/></linearGradient><linearGradient x1="235.77477" y1="179.98717" x2="250.31725" y2="179.98717" gradientUnits="userSpaceOnUse" id="color-2"><stop offset="0" stop-color="#ff8100" stop-opacity="0"/><stop offset="1" stop-color="#ff8100"/></linearGradient></defs><g transform="translate(-227.91049,-177.92835)"><g data-paper-data="{&quot;isPaintingLayer&quot;:true}" fill-rule="nonzero" stroke-linejoin="miter" stroke-miterlimit="10" stroke-dasharray="" stroke-dashoffset="0" style="mix-blend-mode: normal"><path d="M246.95882,182.03019c-1.00481,0.00491 -4.34065,0.1213 -7.37297,-0.05891c-2.73275,-0.16242 -6.33463,-0.25322 -8.54369,-0.58295c-2.28244,-0.3407 -3.12758,-0.92369 -3.13165,-1.29453c-0.00396,-0.36207 0.83287,-1.02292 2.95996,-1.38138c2.26782,-0.38221 5.91944,-0.45664 8.81926,-0.65643c2.85471,-0.19669 6.26564,-0.10617 7.22432,-0.11082c2.84597,-0.01389 5.1631,0.88932 5.17546,2.01741c0.01237,1.12807 -2.28472,2.05379 -5.13065,2.0677z" fill="url(#color-1)" stroke="none" stroke-width="0" stroke-linecap="butt"/><path d="M247.23142,181.20822c-0.60435,0.00295 -2.61066,0.07295 -4.43449,-0.03542c-1.6436,-0.09767 -3.80996,-0.15232 -5.1386,-0.3506c-1.37275,-0.20489 -1.88109,-0.55558 -1.88354,-0.77861c-0.00239,-0.21777 0.50094,-0.61521 1.78028,-0.83084c1.36397,-0.2299 3.56023,-0.27463 5.30433,-0.39481c1.71698,-0.11829 3.76846,-0.06383 4.34505,-0.06666c1.7117,-0.00838 3.10532,0.53488 3.11278,1.21334c0.00745,0.67847 -1.37414,1.23526 -3.08581,1.24361z" fill="url(#color-2)" stroke="none" stroke-width="0" stroke-linecap="butt"/><path d="M244.36666,179.87747h4.26667" fill="none" stroke="#ffbe79" stroke-width="1.25" stroke-linecap="round"/></g></g></svg>