<svg version="1.1" xmlns="http://www.w3.org/2000/svg" xmlns:xlink="http://www.w3.org/1999/xlink" width="55.75444" height="73.54117" viewBox="0,0,55.75444,73.54117"><defs><radialGradient cx="240.41803" cy="205.428" r="12.35459" gradientUnits="userSpaceOnUse" id="color-1"><stop offset="0" stop-color="#fcec00"/><stop offset="1" stop-color="#fcec00" stop-opacity="0"/></radialGradient><linearGradient x1="239.78412" y1="204.32198" x2="239.78412" y2="221.18561" gradientUnits="userSpaceOnUse" id="color-2"><stop offset="0" stop-color="#ffffff"/><stop offset="1" stop-color="#ffffff" stop-opacity="0"/></linearGradient><radialGradient cx="240.01411" cy="208.21143" r="8.89813" gradientUnits="userSpaceOnUse" id="color-3"><stop offset="0" stop-color="#f5eb75"/><stop offset="1" stop-color="#f5eb75" stop-opacity="0"/></radialGradient><linearGradient x1="239.19364" y1="125.00034" x2="239.19364" y2="219.02639" gradientUnits="userSpaceOnUse" id="color-4"><stop offset="0" stop-color="#a300f2"/><stop offset="1" stop-color="#a300f2" stop-opacity="0"/></linearGradient><linearGradient x1="238.95592" y1="96.98158" x2="238.95592" y2="225.00219" gradientUnits="userSpaceOnUse" id="color-5"><stop offset="0" stop-color="#f1f1f1"/><stop offset="1" stop-color="#f1f1f1" stop-opacity="0"/></linearGradient><linearGradient x1="239.96419" y1="204.61823" x2="239.96419" y2="212.52599" gradientUnits="userSpaceOnUse" id="color-6"><stop offset="0" stop-color="#ff4f00"/><stop offset="1" stop-color="#ff4f00" stop-opacity="0"/></linearGradient><linearGradient x1="239.89621" y1="204.86497" x2="239.89621" y2="210.2108" gradientUnits="userSpaceOnUse" id="color-7"><stop offset="0" stop-color="#ffd400"/><stop offset="1" stop-color="#ffd400" stop-opacity="0"/></linearGradient><linearGradient x1="239.89393" y1="204.50691" x2="239.89393" y2="213.38923" gradientUnits="userSpaceOnUse" id="color-8"><stop offset="0" stop-color="#ffee00"/><stop offset="1" stop-color="#ffee00" stop-opacity="0"/></linearGradient><linearGradient x1="239.82141" y1="204.43396" x2="239.82141" y2="208.32133" gradientUnits="userSpaceOnUse" id="color-9"><stop offset="0" stop-color="#ffee00"/><stop offset="1" stop-color="#ffee00" stop-opacity="0"/></linearGradient><linearGradient x1="241.86416" y1="204.50691" x2="241.86416" y2="208.39429" gradientUnits="userSpaceOnUse" id="color-10"><stop offset="0" stop-color="#ffee00"/><stop offset="1" stop-color="#ffee00" stop-opacity="0"/></linearGradient><linearGradient x1="237.77864" y1="204.50691" x2="237.77864" y2="208.39429" gradientUnits="userSpaceOnUse" id="color-11"><stop offset="0" stop-color="#ffee00"/><stop offset="1" stop-color="#ffee00" stop-opacity="0"/></linearGradient><radialGradient cx="239.85352" cy="208.44531" r="6.32236" gradientUnits="userSpaceOnUse" id="color-12"><stop offset="0" stop-color="#feea00"/><stop offset="1" stop-color="#feea00" stop-opacity="0"/></radialGradient><radialGradient cx="240.01835" cy="207.64309" r="6.32236" gradientUnits="userSpaceOnUse" id="color-13"><stop offset="0" stop-color="#feea00"/><stop offset="1" stop-color="#feea00" stop-opacity="0"/></radialGradient><linearGradient x1="235.53034" y1="206.17627" x2="243.91045" y2="206.17627" gradientUnits="userSpaceOnUse" id="color-14"><stop offset="0" stop-color="#5f5f5f"/><stop offset="1" stop-color="#4c4c4c"/></linearGradient><linearGradient x1="235.53034" y1="206.17627" x2="243.91045" y2="206.17627" gradientUnits="userSpaceOnUse" id="color-15"><stop offset="0" stop-color="#949494"/><stop offset="1" stop-color="#757575"/></linearGradient><linearGradient x1="235.78876" y1="204.37464" x2="238.5076" y2="204.37464" gradientUnits="userSpaceOnUse" id="color-16"><stop offset="0" stop-color="#4c4c4c"/><stop offset="1" stop-color="#4c4c4c" stop-opacity="0"/></linearGradient><linearGradient x1="243.65142" y1="204.37462" x2="240.93257" y2="204.37462" gradientUnits="userSpaceOnUse" id="color-17"><stop offset="0" stop-color="#5f5f5f"/><stop offset="1" stop-color="#5f5f5f" stop-opacity="0"/></linearGradient><linearGradient x1="235.2071" y1="163.38446" x2="243.0496" y2="163.38446" gradientUnits="userSpaceOnUse" id="color-18"><stop offset="0" stop-color="#d40000"/><stop offset="1" stop-color="#a30000"/></linearGradient><linearGradient x1="237.32467" y1="168.02612" x2="242.68418" y2="168.02612" gradientUnits="userSpaceOnUse" id="color-19"><stop offset="0" stop-color="#5f5f5f"/><stop offset="1" stop-color="#a8a8a8"/></linearGradient><linearGradient x1="240.04539" y1="161.70349" x2="240.04539" y2="162.63898" gradientUnits="userSpaceOnUse" id="color-20"><stop offset="0" stop-color="#7a7a7a"/><stop offset="1" stop-color="#646464"/></linearGradient><linearGradient x1="239.12759" y1="165.33024" x2="239.31312" y2="165.33024" gradientUnits="userSpaceOnUse" id="color-21"><stop offset="0" stop-color="#00eeec"/><stop offset="1" stop-color="#1cfff4"/></linearGradient><linearGradient x1="230.10995" y1="180.92512" x2="233.61425" y2="180.92512" gradientUnits="userSpaceOnUse" id="color-22"><stop offset="0" stop-color="#dedede"/><stop offset="1" stop-color="#dedede" stop-opacity="0"/></linearGradient><linearGradient x1="235.33361" y1="204.12798" x2="244.10368" y2="204.12798" gradientUnits="userSpaceOnUse" id="color-23"><stop offset="0" stop-color="#888888"/><stop offset="1" stop-color="#696969"/></linearGradient><linearGradient x1="249.79584" y1="185.70288" x2="252.47561" y2="185.70288" gradientUnits="userSpaceOnUse" id="color-24"><stop offset="0" stop-color="#dd0000"/><stop offset="1" stop-color="#dd0000" stop-opacity="0"/></linearGradient><linearGradient x1="249.76271" y1="196.2095" x2="252.54555" y2="196.2095" gradientUnits="userSpaceOnUse" id="color-25"><stop offset="0" stop-color="#dfdfdf"/><stop offset="1" stop-color="#dfdfdf" stop-opacity="0"/></linearGradient><linearGradient x1="239.68185" y1="206.57577" x2="239.68185" y2="212.8485" gradientUnits="userSpaceOnUse" id="color-26"><stop offset="0" stop-color="#fde704"/><stop offset="1" stop-color="#fde704" stop-opacity="0"/></linearGradient><linearGradient x1="238.73066" y1="178.09019" x2="241.23957" y2="178.09019" gradientUnits="userSpaceOnUse" id="color-27"><stop offset="0" stop-color="#c7ffff"/><stop offset="1" stop-color="#91f5f5"/></linearGradient><linearGradient x1="238.1875" y1="192.79167" x2="241.8125" y2="192.79167" gradientUnits="userSpaceOnUse" id="color-28"><stop offset="0" stop-color="#bf0000"/><stop offset="1" stop-color="#bf0000"/></linearGradient><linearGradient x1="238.1875" y1="198.47917" x2="241.8125" y2="198.47917" gradientUnits="userSpaceOnUse" id="color-29"><stop offset="0" stop-color="#bf0000"/><stop offset="1" stop-color="#bf0000"/></linearGradient></defs><g transform="translate(-212.70617,-152.85958)"><g data-paper-data="{&quot;isPaintingLayer&quot;:true}" fill-rule="nonzero" stroke-linejoin="miter" stroke-miterlimit="10" stroke-dasharray="" stroke-dashoffset="0" style="mix-blend-mode: normal"><path d="M241.1875,154.04167v-1h1.25v1z" fill="#cecece" stroke="none" stroke-width="0" stroke-linecap="butt"/><path d="M252.60789,205.428c0,6.82325 -5.45758,12.35459 -12.18986,12.35459c-6.73227,0 -12.18987,-5.53134 -12.18987,-12.35459c0,-6.82325 5.45759,-12.35459 12.18987,-12.35459c6.73227,0 12.18986,5.53134 12.18986,12.35459z" fill="url(#color-1)" stroke="none" stroke-width="0" stroke-linecap="butt"/><g stroke-width="0"><path d="M242.28412,204.32198l-2.5,16.86364l-2.5,-16.86364z" fill="url(#color-2)" stroke="#000000" stroke-linecap="round"/><path d="M247.81947,208.21143c0,4.34894 -3.49458,7.87446 -7.80538,7.87446c-4.3108,0 -7.80538,-3.52552 -7.80538,-7.87446c0,-4.34894 3.49459,-7.87446 7.80538,-7.87446c4.3108,0 7.80538,3.52552 7.80538,7.87446z" fill="url(#color-3)" stroke="none" stroke-linecap="butt"/><g stroke="#000000" stroke-linecap="round"><path d="M241.98057,205.12111l-1.99752,14.93246l-2.35162,-14.93246z" fill="url(#color-4)"/><path d="M242.75048,206.06953l-2.71971,20.33121l-3.20183,-20.33121z" fill="url(#color-5)"/><path d="M241.06249,204.61823c0,0 1.97104,0.54702 1.90371,2.41626c-0.16093,4.46815 -3.2949,5.49149 -3.2949,5.49149c0,0 -2.64402,-0.90981 -2.70914,-5.49149c-0.02772,-1.95089 1.8305,-2.41626 1.8305,-2.41626z" fill="url(#color-6)"/><path d="M240.63869,204.86497c0,0 1.33247,0.3698 1.28696,1.63345c-0.10879,3.02057 -2.22743,3.71239 -2.22743,3.71239c0,0 -1.78743,-0.61506 -1.83145,-3.71239c-0.01874,-1.31885 1.23746,-1.63345 1.23746,-1.63345z" fill="url(#color-7)"/><path d="M241.12759,204.50691c0,0 2.21395,0.61444 2.13833,2.71404c-0.18075,5.01881 -3.70096,6.16828 -3.70096,6.16828c0,0 -2.96987,-1.02195 -3.04302,-6.16828c-0.03114,-2.19132 2.05609,-2.71404 2.05609,-2.71404z" fill="url(#color-8)"/><path d="M240.36131,204.43396c0,0 0.96894,0.26891 0.93585,1.18781c-0.07911,2.1965 -1.61974,2.69957 -1.61974,2.69957c0,0 -1.29978,-0.44726 -1.33179,-2.69957c-0.01364,-0.95904 0.89985,-1.18781 0.89985,-1.18781z" fill="url(#color-9)"/><path d="M242.40409,204.50691c0,0 0.96895,0.26892 0.93585,1.18781c-0.07911,2.1965 -1.61975,2.69957 -1.61975,2.69957c0,0 -1.29978,-0.44726 -1.33179,-2.69957c-0.01363,-0.95904 0.89986,-1.18781 0.89986,-1.18781z" fill="url(#color-10)"/><path d="M238.31856,204.50691c0,0 0.96895,0.26892 0.93585,1.18781c-0.07911,2.1965 -1.61975,2.69957 -1.61975,2.69957c0,0 -1.29978,-0.44726 -1.33179,-2.69957c-0.01363,-0.95904 0.89986,-1.18781 0.89986,-1.18781z" fill="url(#color-11)"/></g><path d="M245.39945,208.44531c0,3.09004 -2.48299,5.59501 -5.54593,5.59501c-3.06293,0 -5.54593,-2.50497 -5.54593,-5.59501c0,-3.09004 2.48299,-5.59501 5.54593,-5.59501c3.06293,0 5.54593,2.50497 5.54593,5.59501z" fill="url(#color-12)" stroke="none" stroke-linecap="butt"/><path d="M245.56427,207.64309c0,3.09004 -2.48299,5.59501 -5.54593,5.59501c-3.06294,0 -5.54593,-2.50497 -5.54593,-5.59501c0,-3.09004 2.48299,-5.59501 5.54593,-5.59501c3.06294,0 5.54593,2.50498 5.54593,5.59501z" fill="url(#color-13)" stroke="none" stroke-linecap="butt"/></g><path d="M265.6667,181.12501v10.66666l-14.66666,7.66666l1,-18.16666z" data-paper-data="{&quot;index&quot;:null}" fill="none" stroke="#bf0000" stroke-width="5" stroke-linecap="round"/><g fill="#cecece"><path d="M239.42679,156.5283l2.90909,-3.54546v3.54546z" stroke="none" stroke-width="0" stroke-linecap="butt"/><path d="M232.67037,198.94l0.15778,-37.58147l5.57746,-5.42857v15.66277c0,0 0.69889,1.92095 2.59992,1.92095c1.8678,0 2.55923,-1.79051 2.55923,-1.79051v-15.95287l5.71689,5.42857l-0.18805,37.7619l-2.5722,0.71141l-10.10296,0.0566z" stroke="#cecece" stroke-width="2.5" stroke-linecap="round"/></g><path d="M243.91045,206.17627c0,0.46442 -1.87595,0.84091 -4.19005,0.84091c-2.3141,0 -4.19005,-0.37649 -4.19005,-0.84091c0,-0.46442 1.87595,-0.84091 4.19005,-0.84091c2.3141,0 4.19005,0.37649 4.19005,0.84091z" fill="url(#color-14)" stroke="url(#color-15)" stroke-width="0.5" stroke-linecap="butt"/><path d="M235.78876,206.2367v-3.72414h2.71885l0.03198,4.2069c0,0 -1.06792,-0.04387 -1.54727,-0.12799c-0.43285,-0.07596 -1.20357,-0.35477 -1.20357,-0.35477z" fill="url(#color-16)" stroke="none" stroke-width="0" stroke-linecap="butt"/><path d="M242.44788,206.59147c-0.47934,0.08413 -1.54727,0.12799 -1.54727,0.12799l0.03198,-4.2069h2.71886v3.72414c0,0 -0.77072,0.2788 -1.20357,0.35477z" data-paper-data="{&quot;index&quot;:null}" fill="url(#color-17)" stroke="none" stroke-width="0" stroke-linecap="butt"/><path d="M238.24292,153.29356c0,0 0.81617,0.91199 1.43358,1.36364c0.6174,0.45165 0.96729,0.53754 1.34924,0.63636c0.38196,0.09883 0.75895,-0.09091 0.75895,-0.09091l1.26492,16.90909l-7.84251,1.36364z" fill="url(#color-18)" stroke="#ff0000" stroke-width="0" stroke-linecap="round"/><path d="M237.32467,173.92512v-11.79798h5.35951v11.79798z" fill="url(#color-19)" stroke="none" stroke-width="0" stroke-linecap="butt"/><path d="M242.04342,162.17124c0,0.25833 -0.89455,0.46774 -1.99802,0.46774c-1.10348,0 -1.99803,-0.20941 -1.99803,-0.46774c0,-0.25833 0.89455,-0.46775 1.99803,-0.46775c1.10348,0 1.99802,0.20942 1.99802,0.46775z" fill="url(#color-20)" stroke="#7e7e7e" stroke-width="0.5" stroke-linecap="butt"/><path d="M215.21346,194.86919v-1.9375h0.98558v1.9375z" fill="#d80000" stroke="none" stroke-width="0" stroke-linecap="butt"/><path d="M239.79505,203.18169h-8.40644l-15.65338,-8.375" fill="none" stroke="#d80000" stroke-width="1" stroke-linecap="round"/><path d="M239.85305,202.30669h-8.40644l-15.65338,-8.375" fill="none" stroke="#d80000" stroke-width="1" stroke-linecap="round"/><path d="M239.67914,201.36919h-8.40644l-15.65338,-8.375" fill="none" stroke="#d80000" stroke-width="1" stroke-linecap="round"/><path d="M215.57976,179.02002l24.46298,0.125l-0.04382,21.91417l-8.43957,-0.03917l-16.37485,-8.625z" fill="#ff0000" stroke="#b6b6b6" stroke-width="0" stroke-linecap="round"/><path d="M216.00357,192.69157l0.01189,-13.58974" fill="none" stroke="#df0000" stroke-width="0.5" stroke-linecap="round"/><path d="M217.18686,180.03988l-0.07135,12.23077" fill="none" stroke="#f00000" stroke-width="2" stroke-linecap="round"/><path d="M216.30256,180.40342v-1.35714h1.78896v1.35714z" fill="#f00000" stroke="none" stroke-width="0" stroke-linecap="butt"/><path d="M238.83021,180.47485v19.28572" fill="none" stroke="#f00000" stroke-width="2.5" stroke-linecap="round"/><path d="M237.70379,183.90342v-4.71428h2.31902v4.71428z" fill="#f00000" stroke="none" stroke-width="0" stroke-linecap="butt"/><path d="M237.70379,200.97485v-6h2.31902v6z" fill="#f00000" stroke="none" stroke-width="0" stroke-linecap="butt"/><path d="M232.7345,182.97485l-0.06626,9.57143c0,0 -0.22557,2.09115 -2.45374,2.10518c-2.25569,0.01421 -2.44932,-2.17661 -2.44932,-2.17661v-9.5z" fill="#f70000" stroke="#fa0000" stroke-width="1" stroke-linecap="round"/><path d="M229.53339,192.05669v-7.1875" fill="none" stroke="#f50000" stroke-width="1" stroke-linecap="round"/><path d="M231.33066,183.93169l-0.11595,8.6875" fill="none" stroke="#f50000" stroke-width="1" stroke-linecap="round"/><path d="M228.83771,182.99419l2.89877,-0.0625" fill="none" stroke="#f50000" stroke-width="1" stroke-linecap="round"/><path d="M220.72115,181.30669v7.9375" fill="none" stroke="#fa0000" stroke-width="1" stroke-linecap="round"/><path d="M226.28679,182.24419v11.875" fill="none" stroke="#fa0000" stroke-width="1" stroke-linecap="round"/><path d="M234.17143,184.43169l-0.05798,11.1875" fill="none" stroke="#fa0000" stroke-width="1" stroke-linecap="round"/><path d="M223.9098,189.36919l-0.11595,5.125" fill="none" stroke="#fa0000" stroke-width="1" stroke-linecap="round"/><path d="M236.43251,192.55669l-0.05798,-11" fill="none" stroke="#fa0000" stroke-width="1" stroke-linecap="round"/><path d="M239.7371,203.1192v-2.0625h0.57975v2.0625z" fill="#d80000" stroke="none" stroke-width="0" stroke-linecap="butt"/><g data-paper-data="{&quot;index&quot;:null}"><path d="M265.04055,194.86919v-1.9375h1.03623v1.9375z" fill="#d80000" stroke="none" stroke-width="0" stroke-linecap="butt"/><path d="M265.52815,194.80669l-16.45785,8.375h-8.83847" fill="none" stroke="#d80000" stroke-width="1" stroke-linecap="round"/><path d="M265.46721,193.93169l-16.45785,8.375h-8.83847" fill="none" stroke="#d80000" stroke-width="1" stroke-linecap="round"/><path d="M265.65008,192.99419l-16.45785,8.375h-8.83847" fill="none" stroke="#d80000" stroke-width="1" stroke-linecap="round"/><path d="M266.10722,192.39502l-17.2164,8.625l-8.8733,0.03917l-0.04607,-21.91417l25.7202,-0.125z" fill="#ff0000" stroke="#b6b6b6" stroke-width="0" stroke-linecap="round"/><path d="M266.96061,192.02002v-13.125" fill="none" stroke="#b6b6b6" stroke-width="3" stroke-linecap="round"/><path d="M265.24607,192.69157l-0.0125,-13.58974" fill="none" stroke="#df0000" stroke-width="0.5" stroke-linecap="round"/><path d="M266.47767,179.03988v13" fill="none" stroke="#c2c2c2" stroke-width="2" stroke-linecap="round"/><path d="M264.07698,192.27065l-0.07502,-12.23077" fill="none" stroke="#f00000" stroke-width="2" stroke-linecap="round"/><path d="M263.05075,180.40342v-1.35714h1.8809v1.35714z" fill="#f00000" stroke="none" stroke-width="0" stroke-linecap="butt"/><path d="M241.24634,199.76057v-19.28572" fill="none" stroke="#f00000" stroke-width="2.5" stroke-linecap="round"/><path d="M239.99236,183.90342v-4.71428h2.4382v4.71428z" fill="#f00000" stroke="none" stroke-width="0" stroke-linecap="butt"/><path d="M239.99236,200.97485v-6h2.4382v6z" fill="#f00000" stroke="none" stroke-width="0" stroke-linecap="butt"/><path d="M252.88001,182.97485v9.5c0,0 -0.20359,2.19082 -2.5752,2.17661c-2.34269,-0.01403 -2.57984,-2.10518 -2.57984,-2.10518l-0.06967,-9.57143z" fill="#f70000" stroke="#fa0000" stroke-width="1" stroke-linecap="round"/><path d="M251.02086,184.86919v7.1875" fill="none" stroke="#f50000" stroke-width="1" stroke-linecap="round"/><path d="M249.1313,183.93169l0.12191,8.6875" fill="none" stroke="#f50000" stroke-width="1" stroke-linecap="round"/><path d="M251.75236,182.99419l-3.04775,-0.0625" fill="none" stroke="#f50000" stroke-width="1" stroke-linecap="round"/><path d="M260.28603,189.24419v-7.9375" fill="none" stroke="#fa0000" stroke-width="1" stroke-linecap="round"/><path d="M254.43439,182.24419v11.875" fill="none" stroke="#fa0000" stroke-width="1" stroke-linecap="round"/><path d="M246.1445,184.43169l0.06096,11.1875" fill="none" stroke="#fa0000" stroke-width="1" stroke-linecap="round"/><path d="M257.05541,194.49419l-0.12191,-5.125" fill="none" stroke="#fa0000" stroke-width="1" stroke-linecap="round"/><path d="M243.82822,181.55669l-0.06096,11" fill="none" stroke="#fa0000" stroke-width="1" stroke-linecap="round"/><path d="M239.68328,203.1192v-2.0625h0.60954v2.0625z" fill="#d80000" stroke="none" stroke-width="0" stroke-linecap="butt"/></g><path d="M240.77578,167.76801v-4.77419h0.23938v4.77419z" fill="#1dfffb" stroke="none" stroke-width="0" stroke-linecap="butt"/><path d="M241.36306,153.56628v17.45455c0,0 -0.38193,0.95908 -1.43358,0.90909c-1.02759,-0.04885 -1.26491,-0.90909 -1.26491,-0.90909l-0.08433,-17.45455" fill="none" stroke="#acacac" stroke-width="1" stroke-linecap="round"/><path d="M231.0761,198.88318l0.16759,-37.58147l5.92421,-5.42857v15.66277c0,0 0.74235,1.92095 2.76156,1.92095c1.98392,0 2.71834,-1.79051 2.71834,-1.79051v-15.95287l6.07231,5.42857l-0.19974,37.7619l-2.73211,0.71141l-10.73106,0.0566z" fill="#ff0000" stroke="#ff0000" stroke-width="2.5" stroke-linecap="round"/><path d="M235.46945,177.36957l0.10307,18.33333" fill="none" stroke="#fa0000" stroke-width="1" stroke-linecap="round"/><path d="M246.3946,189.14734l-0.10307,-11.77777" fill="none" stroke="#fa0000" stroke-width="1" stroke-linecap="round"/><path d="M243.71488,184.92512l0.20613,10.66666" fill="none" stroke="#fa0000" stroke-width="1" stroke-linecap="round"/><path d="M237.42773,186.36957v13.33333" fill="none" stroke="#fa0000" stroke-width="1" stroke-linecap="round"/><path d="M242.47806,173.81401l-0.10307,7" fill="none" stroke="#fa0000" stroke-width="1" stroke-linecap="round"/><path d="M234.54183,173.25843l0.20614,-13.77777" fill="none" stroke="#fa0000" stroke-width="1" stroke-linecap="round"/><path d="M247.63144,160.48066l-0.20613,12.11111" fill="none" stroke="#fa0000" stroke-width="1" stroke-linecap="round"/><path d="M245.15778,161.14734l-0.3092,13" fill="none" stroke="#fa0000" stroke-width="1" stroke-linecap="round"/><path d="M239.12759,167.68025v-4.7h0.18552v4.7z" fill="url(#color-21)" stroke="none" stroke-width="0" stroke-linecap="butt"/><path d="M239.93794,167.86478v-4.80645h0.20946v4.80645z" fill="#1dfffb" stroke="none" stroke-width="0" stroke-linecap="butt"/><path d="M238.45898,175.98731l1.31231,-1.05738l1.397,0.91167v7.72276l-1.35465,0.54738l-1.35465,-0.6931z" fill="#8cffff" stroke="#7e7e7e" stroke-width="0.5" stroke-linecap="round"/><path d="M241.07055,175.84943l-1.33344,1.125l-1.21749,-0.875" fill="none" stroke="#55eded" stroke-width="0.5" stroke-linecap="round"/><path d="M238.75151,183.34943l0.92761,-0.6875l1.15951,0.8125" fill="none" stroke="#55eded" stroke-width="0.5" stroke-linecap="round"/><path d="M239.96901,183.78693l-0.17393,-0.5625l-0.05798,-6.5625l0.05798,-1.5" fill="none" stroke="#4fdada" stroke-width="0.5" stroke-linecap="round"/><path d="M238.45898,175.98731l1.31231,-1.05738l1.397,0.91167v7.72276l-1.35465,0.54738l-1.35465,-0.6931z" fill="none" stroke="#7e7e7e" stroke-width="0.5" stroke-linecap="round"/><path d="M240.0339,177.10489l0.86135,-0.82143l0.02209,6.9881l-0.90553,-0.78572z" fill="#5cffff" stroke="none" stroke-width="0" stroke-linecap="round"/><path d="M240.01896,183.15085l0.64255,0.37012l-0.47877,0.13243z" fill="#57f3f3" stroke="#56eeee" stroke-width="0" stroke-linecap="round"/><path d="M239.5282,182.47645l-0.86136,0.66353l-0.02209,-6.80388l0.90553,0.78572z" data-paper-data="{&quot;index&quot;:null}" fill="#87ffff" stroke="none" stroke-width="0" stroke-linecap="round"/><path d="M239.69215,183.78497l-0.69846,-0.34296l0.56932,-0.37011z" data-paper-data="{&quot;index&quot;:null}" fill="#5afbfb" stroke="#56eeee" stroke-width="0" stroke-linecap="round"/><path d="M235.16027,156.31401l-0.10307,13.44444l-1.85522,1.88889v11.77778l3.71043,3.77778v13.66667h-5.25645l-1.44295,-0.66667l-0.10307,-39.33333z" fill="#ffffff" stroke="#f5f5f5" stroke-width="0.5" stroke-linecap="round"/><path d="M230.10995,200.25845v-39.44444l3.50429,-3.33333v43.55556h-2.16442z" fill="url(#color-22)" stroke="none" stroke-width="0" stroke-linecap="butt"/><path d="M249.81777,160.64734l-0.10307,39.33333l-1.44295,0.66667h-5.25644v-13.66667l3.71043,-3.77777v-11.77778l-1.85522,-1.88889l-0.10307,-13.44444z" data-paper-data="{&quot;index&quot;:null}" fill="#ffffff" stroke="#f5f5f5" stroke-width="0.5" stroke-linecap="round"/><path d="M229.89863,200.20475l-13.91412,-7.6l-0.09276,-2l14.00688,2.3z" fill="#ffffff" stroke="#f5f5f5" stroke-width="0.5" stroke-linecap="round"/><path d="M250.02775,192.50475l14.00688,-2.3c0,0 -0.00583,0.54489 -0.00909,0.84949c-0.00379,0.35448 -0.01232,1.15051 -0.01232,1.15051l-13.98547,7.6z" data-paper-data="{&quot;index&quot;:null}" fill="#ffffff" stroke="#f5f5f5" stroke-width="0.5" stroke-linecap="round"/><g fill="none" stroke-linecap="round"><path d="M214.20617,178.89502v13.125" stroke="#b6b6b6" stroke-width="3"/><path d="M214.66551,179.03988v13" stroke="#c2c2c2" stroke-width="2"/></g><path d="M235.33361,206.26434v-4.27273c0,0 2.35435,-0.51228 4.38505,-0.5c2.02997,0.01228 4.38505,0.5 4.38505,0.5v4.27273c0,0 -2.43255,-0.63636 -4.42722,-0.63636c-2.0228,0 -4.34289,0.63636 -4.34289,0.63636z" fill="url(#color-23)" stroke="none" stroke-width="0" stroke-linecap="butt"/><path d="M249.79584,192.25845v-13.11111h2.67976v12.60657z" fill="url(#color-24)" stroke="none" stroke-width="0" stroke-linecap="butt"/><path d="M249.76271,200.13808v-7.85714l2.78282,-0.5v6.92857z" fill="url(#color-25)" stroke="none" stroke-width="0" stroke-linecap="butt"/><g><g><path d="M221.33514,178.10525v4.09091" fill="none" stroke="#b6b6b6" stroke-width="2.5" stroke-linecap="round"/><path d="M222.70549,179.26434v3.91667" fill="none" stroke="#df0000" stroke-width="0.5" stroke-linecap="round"/><path d="M222.89523,183.40071v-4.31818h1.47574v4.31818z" fill="#f00000" stroke="none" stroke-width="0" stroke-linecap="butt"/></g><path d="M221.7568,178.26434l-0.04216,4.18182" fill="none" stroke="#c2c2c2" stroke-width="1.5" stroke-linecap="round"/></g><g data-paper-data="{&quot;index&quot;:null}"><g><path d="M258.39725,182.19616v-4.09091" fill="none" stroke="#b6b6b6" stroke-width="2.5" stroke-linecap="round"/><path d="M257.02693,179.26434v3.91666" fill="none" stroke="#df0000" stroke-width="0.5" stroke-linecap="round"/><path d="M255.36147,183.40071v-4.31818h1.47574v4.31819z" fill="#f00000" stroke="none" stroke-width="0" stroke-linecap="butt"/></g><path d="M257.97565,178.26434l0.04216,4.18182" fill="none" stroke="#c2c2c2" stroke-width="1.5" stroke-linecap="round"/></g><path d="M243.40123,205.70344v-3.68" fill="none" stroke="#656565" stroke-width="0.5" stroke-linecap="round"/><path d="M242.32521,201.82344v3.64" fill="none" stroke="#6a6a6a" stroke-width="0.5" stroke-linecap="round"/><path d="M241.28632,205.34344l0.0371,-3.64" fill="none" stroke="#6f6f6f" stroke-width="0.5" stroke-linecap="round"/><path d="M240.21025,205.30343l0.07421,-3.68" fill="none" stroke="#747474" stroke-width="0.5" stroke-linecap="round"/><path d="M239.17136,205.34344l0.0371,-3.76" fill="none" stroke="#787878" stroke-width="0.5" stroke-linecap="round"/><path d="M238.16956,205.42344v-3.76" fill="none" stroke="#7b7b7b" stroke-width="0.5" stroke-linecap="round"/><path d="M236.22731,212.8485v-6.27273c0,0 1.63798,-0.45454 3.45454,-0.45454c1.93782,0 3.45455,0.45454 3.45455,0.45454v6.27273z" fill="url(#color-26)" stroke="none" stroke-width="0" stroke-linecap="butt"/><path d="M237.65,184.73334v-12.5h4.8v12.5z" fill="#ff0000" stroke="none" stroke-width="0" stroke-linecap="butt"/><g stroke="#a6caca" stroke-width="0.5" stroke-linecap="round"><path d="M241.22174,180.55771c0,0 -0.55811,1.7675 -1.24554,1.7675c-0.68743,0 -1.24554,-1.7675 -1.24554,-1.7675l0.01782,-4.93504c0,0 0.55811,-1.7675 1.24554,-1.7675c0.68744,0 1.24555,1.7675 1.24555,1.7675z" fill="url(#color-27)"/><path d="M241.01965,176.19632h-2.15143" fill="none"/><path d="M240.92186,177.58406h-2.05364" fill="none"/><path d="M238.77043,179.80443h2.24922" fill="none"/><path d="M240.93445,178.39882h-2.24922" fill="none"/></g><g><path d="M238.1875,196.16667v-6.75h3.625v6.75z" fill="url(#color-28)" stroke="none" stroke-width="0" stroke-linecap="butt"/><path d="M238.1875,199.91667v-2.875h3.625v2.875z" fill="url(#color-29)" stroke="none" stroke-width="0" stroke-linecap="butt"/><g fill="none" stroke="#d4d4d4" stroke-width="1" stroke-linecap="round"><path d="M231.95,197.13333v3.4"/><path d="M234.55,200.53333v-3.4"/></g><g fill="none" stroke="#d4d4d4" stroke-width="1" stroke-linecap="round"><path d="M245.25,197.03333v3.4"/><path d="M247.85,197.03333v3.4"/></g></g></g></g></svg>