<svg version="1.1" xmlns="http://www.w3.org/2000/svg" xmlns:xlink="http://www.w3.org/1999/xlink" width="61.5" height="54.125" viewBox="0,0,61.5,54.125"><g transform="translate(-210.47222,-148.66667)"><g data-paper-data="{&quot;isPaintingLayer&quot;:true}" fill-rule="nonzero" stroke-linejoin="miter" stroke-miterlimit="10" stroke-dasharray="" stroke-dashoffset="0" style="mix-blend-mode: normal"><path d="M210.47222,202.79168l61.5,-54.125" fill="none" stroke="#000000" stroke-width="0" stroke-linecap="round"/><path d="M243.70113,190.67168c-0.36302,0 -0.67265,-0.13524 -0.9289,-0.40573c-0.25625,-0.2776 -0.38437,-0.60859 -0.38437,-0.99296v-3.438h-9.09683c-0.41996,0 -0.75095,-0.12812 -0.99296,-0.38437c-0.23489,-0.25625 -0.36658,-0.55165 -0.39505,-0.88619c-0.02135,-0.34166 0.06762,-0.64774 0.26693,-0.91822l10.46349,-13.71998c0.14948,-0.18507 0.32031,-0.33099 0.5125,-0.43776c0.19219,-0.10677 0.40573,-0.16016 0.64062,-0.16016c0.38437,0 0.69401,0.13524 0.9289,0.40573c0.23489,0.27048 0.35234,0.60859 0.35234,1.01432v12.56686h1.64426c0.37726,0 0.70112,0.09253 0.97161,0.2776c0.2776,0.18507 0.4164,0.5125 0.4164,0.98229c0,0.34878 -0.1388,0.64774 -0.4164,0.89687c-0.27048,0.24201 -0.59435,0.36302 -0.97161,0.36302h-1.64426v3.438c0,0.38437 -0.12812,0.71536 -0.38437,0.99296c-0.25625,0.27048 -0.58368,0.40573 -0.98229,0.40573zM234.92461,184.08395l-0.73672,-0.76875h8.19996v-11.25359l0.85416,1.08906z" fill="#00edff" stroke="#00edff" stroke-width="1" stroke-linecap="square"/></g></g></svg>