<svg version="1.1" xmlns="http://www.w3.org/2000/svg" xmlns:xlink="http://www.w3.org/1999/xlink" width="27.7743" height="4.75938" viewBox="0,0,27.7743,4.75938"><defs><linearGradient x1="226.11286" y1="180.00001" x2="253.88715" y2="180.00001" gradientUnits="userSpaceOnUse" id="color-1"><stop offset="0" stop-color="#ff5100" stop-opacity="0"/><stop offset="1" stop-color="#ff5100"/></linearGradient><linearGradient x1="235.14651" y1="179.98525" x2="251.85132" y2="179.98525" gradientUnits="userSpaceOnUse" id="color-2"><stop offset="0" stop-color="#ff5300" stop-opacity="0"/><stop offset="1" stop-color="#ff5300"/></linearGradient></defs><g transform="translate(-226.11284,-177.62031)"><g data-paper-data="{&quot;isPaintingLayer&quot;:true}" fill-rule="nonzero" stroke-linejoin="miter" stroke-miterlimit="10" stroke-dasharray="" stroke-dashoffset="0" style="mix-blend-mode: normal"><path d="M247.99351,182.33205c-1.15421,0.00564 -4.98607,0.13933 -8.46927,-0.06767c-3.13909,-0.18657 -7.27654,-0.29087 -9.81407,-0.66963c-2.62182,-0.39136 -3.59263,-1.06104 -3.59731,-1.48701c-0.00455,-0.41591 0.95671,-1.17502 3.40008,-1.58678c2.60502,-0.43904 6.79962,-0.52454 10.13062,-0.75403c3.27918,-0.22594 7.19729,-0.12195 8.29852,-0.1273c3.26914,-0.01596 5.93082,1.02155 5.94501,2.31738c0.01421,1.2958 -2.62444,2.35918 -5.89354,2.37515z" fill="url(#color-1)" stroke="none" stroke-width="0" stroke-linecap="butt"/><path d="M248.30664,181.38786c-0.69421,0.00339 -2.99885,0.0838 -5.09387,-0.04069c-1.888,-0.11219 -4.37647,-0.17497 -5.90267,-0.40273c-1.57687,-0.23536 -2.16079,-0.63819 -2.1636,-0.89438c-0.00275,-0.25015 0.57542,-0.70668 2.04499,-0.95438c1.56678,-0.26408 4.08961,-0.31546 6.09304,-0.45352c1.97229,-0.13588 4.3288,-0.07332 4.99112,-0.07658c1.96621,-0.00962 3.56706,0.61441 3.57563,1.39376c0.00856,0.77936 -1.57846,1.41893 -3.54464,1.42853z" fill="url(#color-2)" stroke="none" stroke-width="0" stroke-linecap="butt"/><path d="M249.96666,179.87746h-4.26667" fill="none" stroke="#ff915e" stroke-width="1.4" stroke-linecap="round"/></g></g></svg>