<svg version="1.1" xmlns="http://www.w3.org/2000/svg" xmlns:xlink="http://www.w3.org/1999/xlink" width="54.99936" height="73.67853" viewBox="0,0,54.99936,73.67853"><defs><radialGradient cx="240.01411" cy="208.21143" r="8.89813" gradientUnits="userSpaceOnUse" id="color-1"><stop offset="0" stop-color="#fff696"/><stop offset="1" stop-color="#fff696" stop-opacity="0"/></radialGradient><radialGradient cx="240.41808" cy="205.428" r="12.35459" gradientUnits="userSpaceOnUse" id="color-2"><stop offset="0" stop-color="#fcd81d"/><stop offset="1" stop-color="#fcd81d" stop-opacity="0"/></radialGradient><linearGradient x1="239.78415" y1="204.32198" x2="239.78415" y2="221.18561" gradientUnits="userSpaceOnUse" id="color-3"><stop offset="0" stop-color="#ffffff"/><stop offset="1" stop-color="#ffffff" stop-opacity="0"/></linearGradient><radialGradient cx="239.85355" cy="208.44531" r="6.32236" gradientUnits="userSpaceOnUse" id="color-4"><stop offset="0" stop-color="#ffee35"/><stop offset="1" stop-color="#ffee35" stop-opacity="0"/></radialGradient><linearGradient x1="239.19364" y1="125.00034" x2="239.19364" y2="219.02639" gradientUnits="userSpaceOnUse" id="color-5"><stop offset="0" stop-color="#a300f2"/><stop offset="1" stop-color="#a300f2" stop-opacity="0"/></linearGradient><linearGradient x1="238.95592" y1="96.98158" x2="238.95592" y2="225.00219" gradientUnits="userSpaceOnUse" id="color-6"><stop offset="0" stop-color="#f1f1f1"/><stop offset="1" stop-color="#f1f1f1" stop-opacity="0"/></linearGradient><linearGradient x1="239.96422" y1="204.61823" x2="239.96422" y2="212.52599" gradientUnits="userSpaceOnUse" id="color-7"><stop offset="0" stop-color="#ff4f00"/><stop offset="1" stop-color="#ff4f00" stop-opacity="0"/></linearGradient><linearGradient x1="239.89623" y1="204.86497" x2="239.89623" y2="210.2108" gradientUnits="userSpaceOnUse" id="color-8"><stop offset="0" stop-color="#ffd400"/><stop offset="1" stop-color="#ffd400" stop-opacity="0"/></linearGradient><linearGradient x1="239.89394" y1="204.50691" x2="239.89394" y2="213.38923" gradientUnits="userSpaceOnUse" id="color-9"><stop offset="0" stop-color="#ffee00"/><stop offset="1" stop-color="#ffee00" stop-opacity="0"/></linearGradient><linearGradient x1="239.82141" y1="204.43396" x2="239.82141" y2="208.32134" gradientUnits="userSpaceOnUse" id="color-10"><stop offset="0" stop-color="#ffee00"/><stop offset="1" stop-color="#ffee00" stop-opacity="0"/></linearGradient><linearGradient x1="241.86418" y1="204.50691" x2="241.86418" y2="208.39429" gradientUnits="userSpaceOnUse" id="color-11"><stop offset="0" stop-color="#ffee00"/><stop offset="1" stop-color="#ffee00" stop-opacity="0"/></linearGradient><linearGradient x1="237.77866" y1="204.50691" x2="237.77866" y2="208.39429" gradientUnits="userSpaceOnUse" id="color-12"><stop offset="0" stop-color="#ffee00"/><stop offset="1" stop-color="#ffee00" stop-opacity="0"/></linearGradient><radialGradient cx="240.01836" cy="207.64309" r="6.32236" gradientUnits="userSpaceOnUse" id="color-13"><stop offset="0" stop-color="#feea00"/><stop offset="1" stop-color="#feea00" stop-opacity="0"/></radialGradient><linearGradient x1="235.18154" y1="206.02092" x2="244.21563" y2="206.02092" gradientUnits="userSpaceOnUse" id="color-14"><stop offset="0" stop-color="#5f5f5f"/><stop offset="1" stop-color="#4c4c4c"/></linearGradient><linearGradient x1="235.18154" y1="206.02092" x2="244.21563" y2="206.02092" gradientUnits="userSpaceOnUse" id="color-15"><stop offset="0" stop-color="#949494"/><stop offset="1" stop-color="#757575"/></linearGradient><linearGradient x1="235.4601" y1="204.21928" x2="238.39115" y2="204.21928" gradientUnits="userSpaceOnUse" id="color-16"><stop offset="0" stop-color="#4c4c4c"/><stop offset="1" stop-color="#4c4c4c" stop-opacity="0"/></linearGradient><linearGradient x1="243.93643" y1="204.21927" x2="241.00538" y2="204.21927" gradientUnits="userSpaceOnUse" id="color-17"><stop offset="0" stop-color="#5f5f5f"/><stop offset="1" stop-color="#5f5f5f" stop-opacity="0"/></linearGradient><linearGradient x1="239.68187" y1="206.57577" x2="239.68187" y2="212.8485" gradientUnits="userSpaceOnUse" id="color-18"><stop offset="0" stop-color="#fccf00"/><stop offset="1" stop-color="#fccf00" stop-opacity="0"/></linearGradient><linearGradient x1="221.60123" y1="175.04168" x2="221.60123" y2="181.16668" gradientUnits="userSpaceOnUse" id="color-19"><stop offset="0" stop-color="#ff8800"/><stop offset="1" stop-color="#ffc500"/></linearGradient><linearGradient x1="258.44964" y1="175.04168" x2="258.44964" y2="181.16668" gradientUnits="userSpaceOnUse" id="color-20"><stop offset="0" stop-color="#ff8800"/><stop offset="1" stop-color="#ffc500"/></linearGradient><linearGradient x1="227.94956" y1="171.04763" x2="227.94956" y2="180.4979" gradientUnits="userSpaceOnUse" id="color-21"><stop offset="0" stop-color="#ff8800"/><stop offset="1" stop-color="#ffc500"/></linearGradient><linearGradient x1="224.70506" y1="173.47077" x2="224.70506" y2="180.61906" gradientUnits="userSpaceOnUse" id="color-22"><stop offset="0" stop-color="#ff8800"/><stop offset="1" stop-color="#ffc500"/></linearGradient><linearGradient x1="252.0517" y1="171.04763" x2="252.0517" y2="180.4979" gradientUnits="userSpaceOnUse" id="color-23"><stop offset="0" stop-color="#ff8800"/><stop offset="1" stop-color="#ffc500"/></linearGradient><linearGradient x1="255.29617" y1="173.47077" x2="255.29617" y2="180.61906" gradientUnits="userSpaceOnUse" id="color-24"><stop offset="0" stop-color="#ff8800"/><stop offset="1" stop-color="#ffc500"/></linearGradient><linearGradient x1="237.40976" y1="167.87077" x2="242.76578" y2="167.87077" gradientUnits="userSpaceOnUse" id="color-25"><stop offset="0" stop-color="#5f5f5f"/><stop offset="1" stop-color="#a8a8a8"/></linearGradient><linearGradient x1="240.12871" y1="161.54813" x2="240.12871" y2="162.48361" gradientUnits="userSpaceOnUse" id="color-26"><stop offset="0" stop-color="#7a7a7a"/><stop offset="1" stop-color="#646464"/></linearGradient><linearGradient x1="239.21154" y1="165.17487" x2="239.3969" y2="165.17487" gradientUnits="userSpaceOnUse" id="color-27"><stop offset="0" stop-color="#00eeec"/><stop offset="1" stop-color="#1cfff4"/></linearGradient><linearGradient x1="236.51443" y1="195.55477" x2="240.03703" y2="195.55477" gradientUnits="userSpaceOnUse" id="color-28"><stop offset="0" stop-color="#0e4d62"/><stop offset="1" stop-color="#126884"/></linearGradient><linearGradient x1="243.46694" y1="195.55477" x2="239.94433" y2="195.55477" gradientUnits="userSpaceOnUse" id="color-29"><stop offset="0" stop-color="#0e4d62"/><stop offset="1" stop-color="#126884"/></linearGradient><linearGradient x1="230.19973" y1="179.1031" x2="233.70176" y2="179.1031" gradientUnits="userSpaceOnUse" id="color-30"><stop offset="0" stop-color="#105972"/><stop offset="1" stop-color="#105972" stop-opacity="0"/></linearGradient><linearGradient x1="215.71271" y1="183.34818" x2="220.37605" y2="183.34818" gradientUnits="userSpaceOnUse" id="color-31"><stop offset="0" stop-color="#ff9b00"/><stop offset="1" stop-color="#e68100"/></linearGradient><linearGradient x1="249.97583" y1="193.40468" x2="252.65385" y2="193.40468" gradientUnits="userSpaceOnUse" id="color-32"><stop offset="0" stop-color="#009dd2"/><stop offset="1" stop-color="#009dd2" stop-opacity="0"/></linearGradient><linearGradient x1="238.97802" y1="178.0902" x2="241.30377" y2="178.0902" gradientUnits="userSpaceOnUse" id="color-33"><stop offset="0" stop-color="#c7ffff"/><stop offset="1" stop-color="#91f5f5"/></linearGradient><linearGradient x1="249.8397" y1="189.16526" x2="252.62075" y2="189.16526" gradientUnits="userSpaceOnUse" id="color-34"><stop offset="0" stop-color="#105972"/><stop offset="1" stop-color="#105972" stop-opacity="0"/></linearGradient><linearGradient x1="238.23966" y1="192.76641" x2="241.7211" y2="192.76641" gradientUnits="userSpaceOnUse" id="color-35"><stop offset="0" stop-color="#8b8b8b"/><stop offset="1" stop-color="#7f7f7f"/></linearGradient><linearGradient x1="264.35724" y1="183.34818" x2="259.6939" y2="183.34818" gradientUnits="userSpaceOnUse" id="color-36"><stop offset="0" stop-color="#ff9b00"/><stop offset="1" stop-color="#e68100"/></linearGradient><linearGradient x1="232.62389" y1="156.16668" x2="232.62389" y2="180.97918" gradientUnits="userSpaceOnUse" id="color-37"><stop offset="0" stop-color="#e68100"/><stop offset="1" stop-color="#ff9b00"/></linearGradient><linearGradient x1="232.62389" y1="156.16668" x2="232.62389" y2="180.97918" gradientUnits="userSpaceOnUse" id="color-38"><stop offset="0" stop-color="#e68100"/><stop offset="1" stop-color="#ff9b00"/></linearGradient><linearGradient x1="247.3401" y1="156.04168" x2="247.3401" y2="180.85418" gradientUnits="userSpaceOnUse" id="color-39"><stop offset="0" stop-color="#e68100"/><stop offset="1" stop-color="#ff9b00"/></linearGradient><linearGradient x1="247.3401" y1="156.04168" x2="247.3401" y2="180.85418" gradientUnits="userSpaceOnUse" id="color-40"><stop offset="0" stop-color="#e68100"/><stop offset="1" stop-color="#ff9b00"/></linearGradient><linearGradient x1="234.56773" y1="187.03335" x2="237.25604" y2="187.03335" gradientUnits="userSpaceOnUse" id="color-41"><stop offset="0" stop-color="#ececec"/><stop offset="1" stop-color="#dbdbdb"/></linearGradient><linearGradient x1="235.91185" y1="183.33335" x2="235.91185" y2="187.03335" gradientUnits="userSpaceOnUse" id="color-42"><stop offset="0" stop-color="#000000" stop-opacity="0"/><stop offset="1" stop-color="#000000" stop-opacity="0"/></linearGradient><linearGradient x1="242.72534" y1="186.83335" x2="245.41365" y2="186.83335" gradientUnits="userSpaceOnUse" id="color-43"><stop offset="0" stop-color="#dbdbdb"/><stop offset="1" stop-color="#ececec"/></linearGradient><linearGradient x1="244.06951" y1="183.13335" x2="244.06951" y2="186.83335" gradientUnits="userSpaceOnUse" id="color-44"><stop offset="0" stop-color="#000000" stop-opacity="0"/><stop offset="1" stop-color="#000000" stop-opacity="0"/></linearGradient><linearGradient x1="230.06014" y1="159.66668" x2="235.27456" y2="159.66668" gradientUnits="userSpaceOnUse" id="color-45"><stop offset="0" stop-color="#ececec"/><stop offset="1" stop-color="#dbdbdb"/></linearGradient><linearGradient x1="230.06014" y1="159.66668" x2="235.27456" y2="159.66668" gradientUnits="userSpaceOnUse" id="color-46"><stop offset="0" stop-color="#ececec"/><stop offset="1" stop-color="#dbdbdb"/></linearGradient><linearGradient x1="244.66049" y1="159.54168" x2="249.87486" y2="159.54168" gradientUnits="userSpaceOnUse" id="color-47"><stop offset="0" stop-color="#dbdbdb"/><stop offset="1" stop-color="#ececec"/></linearGradient><linearGradient x1="244.66049" y1="159.54168" x2="249.87486" y2="159.54168" gradientUnits="userSpaceOnUse" id="color-48"><stop offset="0" stop-color="#dbdbdb"/><stop offset="1" stop-color="#ececec"/></linearGradient><linearGradient x1="237.86887" y1="197.61642" x2="242.09192" y2="197.61642" gradientUnits="userSpaceOnUse" id="color-49"><stop offset="0" stop-color="#8b8b8b"/><stop offset="1" stop-color="#7f7f7f"/></linearGradient><linearGradient x1="234.96941" y1="203.97262" x2="244.42399" y2="203.97262" gradientUnits="userSpaceOnUse" id="color-50"><stop offset="0" stop-color="#888888"/><stop offset="1" stop-color="#696969"/></linearGradient></defs><g transform="translate(-212.97283,-152.72222)"><g data-paper-data="{&quot;isPaintingLayer&quot;:true}" fill-rule="nonzero" stroke-linejoin="miter" stroke-miterlimit="10" stroke-dasharray="" stroke-dashoffset="0" style="mix-blend-mode: normal"><path d="M248.91669,200.38889v-2.66667h4.83333v2.66667z" fill="#3195b6" stroke="none" stroke-width="NaN" stroke-linecap="butt"/><path d="M216.10003,194.66667v-4.6h48.2v4.6c0,0 -16.81728,7.8 -24.8,7.8c-8.08271,0 -23.4,-7.8 -23.4,-7.8z" fill="#3195b6" stroke="none" stroke-width="NaN" stroke-linecap="butt"/><path d="M241.25005,164.05555v-11.33333l1.86503,0.21803l8.63497,6.78197v4.33333z" fill="#d2d2d2" stroke="none" stroke-width="0" stroke-linecap="butt"/><path d="M249.5917,179.22222v-16.66666h2.08333v16.66666z" fill="#e48500" stroke="none" stroke-width="0" stroke-linecap="butt"/><path d="M215.99451,194.55556v-15.5h51.97768v15.5c0,0 -1.25283,1 -2.72219,1c-6.25024,0 -49.25549,-1 -49.25549,-1z" fill="#3195b6" stroke="none" stroke-width="NaN" stroke-linecap="butt"/><path d="M247.81949,208.21143c0,4.34894 -3.49458,7.87446 -7.80538,7.87446c-4.3108,0 -7.80538,-3.52552 -7.80538,-7.87446c0,-4.34894 3.49459,-7.87446 7.80538,-7.87446c4.3108,0 7.80538,3.52552 7.80538,7.87446z" fill="url(#color-1)" stroke="none" stroke-width="0" stroke-linecap="butt"/><path d="M252.60795,205.428c0,6.82325 -5.45758,12.35459 -12.18986,12.35459c-6.73227,0 -12.18987,-5.53134 -12.18987,-12.35459c0,-6.82325 5.45759,-12.35459 12.18987,-12.35459c6.73227,0 12.18986,5.53134 12.18986,12.35459z" fill="url(#color-2)" stroke="none" stroke-width="0" stroke-linecap="butt"/><path d="M242.28415,204.32198l-2.5,16.86364l-2.5,-16.86364z" fill="url(#color-3)" stroke="#000000" stroke-width="0" stroke-linecap="round"/><path d="M245.39948,208.44531c0,3.09004 -2.48299,5.59501 -5.54593,5.59501c-3.06293,0 -5.54593,-2.50497 -5.54593,-5.59501c0,-3.09004 2.48299,-5.59501 5.54593,-5.59501c3.06293,0 5.54593,2.50497 5.54593,5.59501z" fill="url(#color-4)" stroke="none" stroke-width="0" stroke-linecap="butt"/><g stroke="#000000" stroke-width="0" stroke-linecap="round"><path d="M241.98059,205.12112l-1.99752,14.93246l-2.35162,-14.93246z" fill="url(#color-5)"/><path d="M242.7505,206.06954l-2.71971,20.33121l-3.20183,-20.33121z" fill="url(#color-6)"/><path d="M241.06251,204.61823c0,0 1.97104,0.54702 1.90371,2.41626c-0.16093,4.46815 -3.2949,5.49149 -3.2949,5.49149c0,0 -2.64402,-0.90981 -2.70914,-5.49149c-0.02772,-1.95089 1.8305,-2.41626 1.8305,-2.41626z" fill="url(#color-7)"/><path d="M240.63871,204.86497c0,0 1.33247,0.3698 1.28696,1.63345c-0.10879,3.02057 -2.22743,3.71239 -2.22743,3.71239c0,0 -1.78743,-0.61506 -1.83145,-3.71239c-0.01874,-1.31885 1.23746,-1.63345 1.23746,-1.63345z" fill="url(#color-8)"/><path d="M241.1276,204.50691c0,0 2.21395,0.61444 2.13833,2.71404c-0.18075,5.01881 -3.70096,6.16828 -3.70096,6.16828c0,0 -2.96987,-1.02195 -3.04302,-6.16828c-0.03114,-2.19132 2.05609,-2.71404 2.05609,-2.71404z" fill="url(#color-9)"/><path d="M240.36134,204.43396c0,0 0.96894,0.26891 0.93585,1.18781c-0.07911,2.1965 -1.61974,2.69957 -1.61974,2.69957c0,0 -1.29978,-0.44726 -1.33179,-2.69957c-0.01364,-0.95904 0.89985,-1.18781 0.89985,-1.18781z" fill="url(#color-10)"/><path d="M242.40411,204.50691c0,0 0.96895,0.26892 0.93585,1.18781c-0.07911,2.1965 -1.61975,2.69957 -1.61975,2.69957c0,0 -1.29978,-0.44726 -1.33179,-2.69957c-0.01363,-0.95904 0.89986,-1.18781 0.89986,-1.18781z" fill="url(#color-11)"/><path d="M238.31856,204.50691c0,0 0.96895,0.26892 0.93585,1.18781c-0.07911,2.1965 -1.61975,2.69957 -1.61975,2.69957c0,0 -1.29978,-0.44726 -1.33179,-2.69957c-0.01363,-0.95904 0.89986,-1.18781 0.89986,-1.18781z" fill="url(#color-12)"/></g><path d="M245.56427,207.64309c0,3.09004 -2.48299,5.59501 -5.54593,5.59501c-3.06294,0 -5.54593,-2.50497 -5.54593,-5.59501c0,-3.09004 2.48299,-5.59501 5.54593,-5.59501c3.06294,0 5.54593,2.50498 5.54593,5.59501z" fill="url(#color-13)" stroke="none" stroke-width="0" stroke-linecap="butt"/><path d="M244.21563,206.02092c0,0.46442 -2.02235,0.84091 -4.51705,0.84091c-2.4947,0 -4.51705,-0.37649 -4.51705,-0.84091c0,-0.46442 2.02235,-0.84091 4.51705,-0.84091c2.4947,0 4.51705,0.37649 4.51705,0.84091z" fill="url(#color-14)" stroke="url(#color-15)" stroke-width="0.5" stroke-linecap="butt"/><path d="M235.4601,206.08134v-3.72414h2.93103l0.03448,4.2069c0,0 -1.15126,-0.04387 -1.66802,-0.12799c-0.46663,-0.07596 -1.2975,-0.35477 -1.2975,-0.35477z" fill="url(#color-16)" stroke="none" stroke-width="0" stroke-linecap="butt"/><path d="M242.6389,206.43611c-0.51675,0.08413 -1.66802,0.12799 -1.66802,0.12799l0.03448,-4.2069h2.93104v3.72414c0,0 -0.83087,0.2788 -1.2975,0.35477z" data-paper-data="{&quot;index&quot;:null}" fill="url(#color-17)" stroke="none" stroke-width="0" stroke-linecap="butt"/><path d="M237.52463,200.81949v-6h2.5v6z" fill="#0098ca" stroke="none" stroke-width="0" stroke-linecap="butt"/><path d="M239.9755,200.81949v-6h2.5v6z" fill="#0098ca" stroke="none" stroke-width="0" stroke-linecap="butt"/><path d="M236.22735,212.8485v-6.27273c0,0 1.63798,-0.45454 3.45454,-0.45454c1.93782,0 3.45455,0.45454 3.45455,0.45454v6.27273z" fill="url(#color-18)" stroke="none" stroke-width="0" stroke-linecap="butt"/><g><g fill="none" stroke="#3195b6" stroke-width="1" stroke-linecap="round"><path d="M240.95583,203.02633h-8.64874l-16.10455,-8.375"/><path d="M241.01547,202.15133h-8.64874l-16.10456,-8.375"/><path d="M240.83655,201.21383h-8.64874l-16.10456,-8.375"/></g><g fill="none" stroke="#3195b6" stroke-width="1" stroke-linecap="round"><path d="M266.13091,194.65133l-16.10455,8.375h-8.64874"/><path d="M266.07127,193.77633l-16.10456,8.375h-8.64874"/><path d="M266.25019,192.83883l-16.10456,8.375h-8.64874"/></g><path d="M230.73708,203.4762v-3.42857h20.58656v3.42857z" fill="#0f566e" stroke="none" stroke-width="0" stroke-linecap="butt"/></g><g><g><path d="M238.32741,153.1382c0,0 0.81564,0.91199 1.43265,1.36364c0.617,0.45165 0.96666,0.53754 1.34837,0.63636c0.38172,0.09883 0.75845,-0.09091 0.75845,-0.09091l1.26409,16.90909l-7.83741,1.36364z" fill="#001820" stroke="#ff0000" stroke-width="0" stroke-linecap="round"/><path d="M221.60123,175.04168v6.125" fill="none" stroke="url(#color-19)" stroke-width="2" stroke-linecap="round"/><path d="M258.44964,175.04168v6.125" fill="none" stroke="url(#color-20)" stroke-width="2" stroke-linecap="round"/><g><g><path d="M218.41785,177.94989v4.09091" fill="none" stroke="#b6b6b6" stroke-width="2.5" stroke-linecap="round"/><path d="M219.7873,179.10898v3.91667" fill="none" stroke="#115e78" stroke-width="0.5" stroke-linecap="round"/><path d="M219.97694,183.24535v-4.31818h1.47477v4.31818z" fill="#136985" stroke="none" stroke-width="0" stroke-linecap="butt"/></g><path d="M218.83923,178.10898l-0.04212,4.18182" fill="none" stroke="#c2c2c2" stroke-width="1.5" stroke-linecap="round"/></g><g data-paper-data="{&quot;index&quot;:null}"><g><path d="M261.71317,177.94989v4.09091" fill="none" stroke="#b6b6b6" stroke-width="2.5" stroke-linecap="round"/><path d="M260.34373,179.10898v3.91666" fill="none" stroke="#115e78" stroke-width="0.5" stroke-linecap="round"/><path d="M258.67933,183.24535v-4.31818h1.47478v4.31819z" fill="#136985" stroke="none" stroke-width="0" stroke-linecap="butt"/></g><path d="M261.33396,182.2908l-0.04213,-4.18182" fill="none" stroke="#c2c2c2" stroke-width="1.5" stroke-linecap="round"/></g><g fill="none" stroke-width="2" stroke-linecap="round"><path d="M227.94956,180.49789v-9.45026" stroke="url(#color-21)"/><path d="M224.70506,180.61905v-7.14828" stroke="url(#color-22)"/></g><g data-paper-data="{&quot;index&quot;:null}" fill="none" stroke-width="2" stroke-linecap="round"><path d="M252.0517,180.49789v-9.45026" stroke="url(#color-23)"/><path d="M255.29617,180.61906v-7.14828" stroke="url(#color-24)"/></g><path d="M237.40976,173.76976v-11.79798h5.35603v11.79798z" fill="url(#color-25)" stroke="none" stroke-width="0" stroke-linecap="butt"/><path d="M242.12545,162.01588c0,0.25833 -0.89396,0.46774 -1.99671,0.46774c-1.10277,0 -1.99674,-0.20941 -1.99674,-0.46774c0,-0.25833 0.89397,-0.46775 1.99674,-0.46775c1.10277,0 1.99671,0.20942 1.99671,0.46775z" fill="url(#color-26)" stroke="#7e7e7e" stroke-width="0.5" stroke-linecap="butt"/><path d="M215.67895,178.86467l24.44707,0.125l-0.04379,21.91417l-8.43408,-0.03917l-16.3642,-8.625z" fill="#3dbce6" stroke="#b6b6b6" stroke-width="0" stroke-linecap="round"/><path d="M216.11439,178.94647l-0.01189,13.58974" fill="none" stroke="#0098ca" stroke-width="0.5" stroke-linecap="round"/><path d="M217.2137,192.11529l0.0713,-12.23077" fill="none" stroke="#2fb2de" stroke-width="2" stroke-linecap="round"/><path d="M216.40134,180.24806v-1.35714h1.78779v1.35714z" fill="#00bcfb" stroke="none" stroke-width="0" stroke-linecap="butt"/><path d="M238.91428,180.31949v19.28572" fill="none" stroke="#3195b6" stroke-width="2.5" stroke-linecap="round"/><path d="M237.78866,183.74806v-4.71428h2.31751v4.71428z" fill="#f00000" stroke="none" stroke-width="0" stroke-linecap="butt"/><path d="M229.62357,191.90133v-7.1875" fill="none" stroke="#00bcfb" stroke-width="1" stroke-linecap="round"/><path d="M231.30377,192.46383l0.11587,-8.6875" fill="none" stroke="#f50000" stroke-width="1" stroke-linecap="round"/><path d="M220.81702,181.15133v7.9375" fill="none" stroke="#2fb2de" stroke-width="1" stroke-linecap="round"/><path d="M226.37907,193.96383v-11.875" fill="none" stroke="#2fb2de" stroke-width="1" stroke-linecap="round"/><path d="M234.20067,195.46383l0.05793,-11.1875" fill="none" stroke="#fa0000" stroke-width="1" stroke-linecap="round"/><path d="M224.0036,189.21383l-0.11587,5.125" fill="none" stroke="#2fb2de" stroke-width="1" stroke-linecap="round"/><path d="M236.51818,192.40133l-0.05794,-11" fill="none" stroke="#fa0000" stroke-width="1" stroke-linecap="round"/><path d="M264.8828,192.23967l-16.3642,8.625l-8.43407,0.03917l-0.0438,-21.91417l24.44707,-0.125z" fill="#3dbce6" stroke="#b6b6b6" stroke-width="0" stroke-linecap="round"/><path d="M265.69395,191.86467v-13.125" fill="none" stroke="#b6b6b6" stroke-width="3" stroke-linecap="round"/><path d="M264.06426,192.53621l-0.01188,-13.58974" fill="none" stroke="#0098ca" stroke-width="0.5" stroke-linecap="round"/><path d="M265.2349,191.88452v-13" fill="none" stroke="#c2c2c2" stroke-width="2" stroke-linecap="round"/><path d="M262.88174,179.88452l0.0713,12.23077" fill="none" stroke="#2fb2de" stroke-width="2" stroke-linecap="round"/><path d="M261.97767,180.24806v-1.35714h1.7878v1.35714z" fill="#00b1ec" stroke="none" stroke-width="0" stroke-linecap="butt"/><path d="M241.25251,180.31949v19.28572" fill="none" stroke="#3195b6" stroke-width="2.5" stroke-linecap="round"/><path d="M240.0606,183.74806v-4.71428h2.31751v4.71428z" fill="#f00000" stroke="none" stroke-width="0" stroke-linecap="butt"/><path d="M250.54326,191.90133v-7.1875" fill="none" stroke="#00bcfb" stroke-width="1" stroke-linecap="round"/><path d="M248.86305,192.46383l-0.11587,-8.6875" fill="none" stroke="#f50000" stroke-width="1" stroke-linecap="round"/><path d="M259.34977,189.08883v-7.9375" fill="none" stroke="#2fb2de" stroke-width="1" stroke-linecap="round"/><path d="M253.78776,182.08883v11.875" fill="none" stroke="#2fb2de" stroke-width="1" stroke-linecap="round"/><path d="M245.90823,184.27633l0.05793,11.1875" fill="none" stroke="#fa0000" stroke-width="1" stroke-linecap="round"/><path d="M256.16319,189.21383l0.11588,5.125" fill="none" stroke="#2fb2de" stroke-width="1" stroke-linecap="round"/><path d="M243.64865,192.40133l0.05794,-11" fill="none" stroke="#fa0000" stroke-width="1" stroke-linecap="round"/><path d="M240.85863,167.61264v-4.77419h0.23923v4.77419z" fill="#1dfffb" stroke="none" stroke-width="0" stroke-linecap="butt"/><path d="M241.44549,153.41091v17.45455c0,0 -0.38169,0.95908 -1.43265,0.90909c-1.02692,-0.04885 -1.2641,-0.90909 -1.2641,-0.90909l-0.08427,-17.45455" fill="none" stroke="#0c4152" stroke-width="1" stroke-linecap="round"/><path d="M231.16524,198.72782l0.16748,-37.58147l5.92036,-5.42857v15.66277c0,0 0.74187,1.92095 2.75978,1.92095c1.98263,0 2.71658,-1.79051 2.71658,-1.79051v-15.95287l6.06837,5.42857l-0.19962,37.7619l-2.73033,0.71141l-10.72408,0.0566z" fill="#0f546c" stroke="#0f546c" stroke-width="2.5" stroke-linecap="round"/><path d="M235.65876,195.54754l-0.10299,-18.33333" fill="none" stroke="#10576f" stroke-width="1" stroke-linecap="round"/><path d="M246.47377,188.99198l-0.10299,-11.77777" fill="none" stroke="#10576f" stroke-width="1" stroke-linecap="round"/><path d="M243.7958,184.76976l0.206,10.66666" fill="none" stroke="#10576f" stroke-width="1" stroke-linecap="round"/><path d="M237.51276,186.21421v13.33333" fill="none" stroke="#10576f" stroke-width="1" stroke-linecap="round"/><path d="M242.45679,180.65865l0.10299,-7" fill="none" stroke="#10576f" stroke-width="1" stroke-linecap="round"/><path d="M234.62874,173.10307l0.206,-13.77777" fill="none" stroke="#10576f" stroke-width="1" stroke-linecap="round"/><path d="M247.70981,160.32531l-0.206,12.11111" fill="none" stroke="#fa0000" stroke-width="1" stroke-linecap="round"/><path d="M244.92879,173.99198l0.309,-13" fill="none" stroke="#10576f" stroke-width="1" stroke-linecap="round"/><path d="M239.21154,167.52489v-4.7h0.18541v4.7z" fill="url(#color-27)" stroke="none" stroke-width="0" stroke-linecap="butt"/><path d="M240.02134,167.70942v-4.80645h0.20932v4.80645z" fill="#1dfffb" stroke="none" stroke-width="0" stroke-linecap="butt"/><path d="M238.54337,175.83195l1.31146,-1.05738l1.39608,0.91167v7.72276l-1.35377,0.54738l-1.35377,-0.6931z" fill="#8cffff" stroke="#7e7e7e" stroke-width="0.5" stroke-linecap="round"/><path d="M241.15317,175.69407l-1.33257,1.125l-1.2167,-0.875" fill="none" stroke="#55eded" stroke-width="0.5" stroke-linecap="round"/><path d="M238.83565,183.19407l0.92701,-0.6875l1.15875,0.8125" fill="none" stroke="#55eded" stroke-width="0.5" stroke-linecap="round"/><path d="M240.05235,183.63157l-0.17381,-0.5625l-0.05794,-6.5625l0.05794,-1.5" fill="none" stroke="#4fdada" stroke-width="0.5" stroke-linecap="round"/><path d="M238.54337,175.83195l1.31146,-1.05738l1.39608,0.91167v7.72276l-1.35377,0.54738l-1.35377,-0.6931z" fill="none" stroke="#7e7e7e" stroke-width="0.5" stroke-linecap="round"/><path d="M240.11722,176.94953l0.86079,-0.82143l0.02207,6.9881l-0.90494,-0.78572z" fill="#5cffff" stroke="none" stroke-width="0" stroke-linecap="round"/><path d="M240.1023,182.99549l0.64214,0.37012l-0.47845,0.13243z" fill="#57f3f3" stroke="#56eeee" stroke-width="0" stroke-linecap="round"/><path d="M239.61189,182.32109l-0.86079,0.66353l-0.02207,-6.80388l0.90493,0.78572z" data-paper-data="{&quot;index&quot;:null}" fill="#87ffff" stroke="none" stroke-width="0" stroke-linecap="round"/><path d="M236.51443,200.90477v-10.7h3.52262v10.7z" fill="url(#color-28)" stroke="none" stroke-width="0" stroke-linecap="butt"/><path d="M239.94433,200.90477v-10.7h3.52262v10.7z" data-paper-data="{&quot;index&quot;:null}" fill="url(#color-29)" stroke="none" stroke-width="0" stroke-linecap="butt"/><path d="M239.77573,183.62961l-0.69801,-0.34296l0.56895,-0.37011z" data-paper-data="{&quot;index&quot;:null}" fill="#5afbfb" stroke="#56eeee" stroke-width="0" stroke-linecap="round"/><path d="M235.24673,156.23007l-0.103,13.44444l-1.85401,1.88889v11.77778l3.70802,3.77778v13.66667h-5.25303l-1.44201,-0.66667l-0.103,-39.33333z" fill="#146e8c" stroke="#146e8c" stroke-width="0.5" stroke-linecap="round"/><path d="M230.19973,200.10309v-39.44444l3.50202,-3.33333v43.55556h-2.16302z" fill="url(#color-30)" stroke="none" stroke-width="0" stroke-linecap="butt"/><path d="M249.76984,160.77769l-0.103,39.33333l-1.44201,0.66667h-5.25302v-13.66667l3.70801,-3.77777v-11.77778l-1.85401,-1.88889l-0.103,-13.44444z" data-paper-data="{&quot;index&quot;:null}" fill="#146e8c" stroke="#146e8c" stroke-width="0.5" stroke-linecap="round"/><path d="M229.98857,192.93828l-13.90506,-7.6l-0.0927,-6.44445l13.99776,0.07778z" fill="#146e8c" stroke="#146e8c" stroke-width="0.5" stroke-linecap="round"/><path d="M220.37605,188.09109l-4.56277,-2.49384l-0.10056,-6.99198l4.56493,0.02536z" fill="url(#color-31)" stroke="#ff9b00" stroke-width="0" stroke-linecap="round"/><path d="M249.97583,199.96024v-13.11111h2.67801v11.74943z" fill="url(#color-32)" stroke="none" stroke-width="0" stroke-linecap="butt"/><path d="M249.98097,178.97161l13.99777,-0.07778l-0.09271,6.44445l-13.90506,7.6z" data-paper-data="{&quot;index&quot;:null}" fill="#146e8c" stroke="#146e8c" stroke-width="0.5" stroke-linecap="round"/><g fill="none" stroke-linecap="round"><path d="M214.47283,191.86467v-13.125" stroke="#b6b6b6" stroke-width="3"/><path d="M214.9319,178.88452v13" stroke="#c2c2c2" stroke-width="2"/></g><path d="M237.90492,184.73335v-12.5h4.44962v12.5z" fill="#0f546c" stroke="none" stroke-width="0" stroke-linecap="butt"/><g stroke="#a6caca" stroke-width="0.5" stroke-linecap="round"><path d="M241.28726,180.55772c0,0 -0.51737,1.7675 -1.15462,1.7675c-0.63725,0 -1.15462,-1.7675 -1.15462,-1.7675l0.01651,-4.93504c0,0 0.51737,-1.7675 1.15462,-1.7675c0.63726,0 1.15464,1.7675 1.15464,1.7675z" fill="url(#color-33)"/><path d="M241.0999,176.19633h-1.99438" fill="none"/><path d="M239.10553,177.58407h1.90374" fill="none"/><path d="M239.01489,179.80444h2.08503" fill="none"/><path d="M241.02092,178.39883h-2.08503" fill="none"/></g><path d="M249.8397,193.34383v-14.60714h2.78101v13.17857z" fill="url(#color-34)" stroke="none" stroke-width="0" stroke-linecap="butt"/><path d="M238.23966,194.18308v-2.83333h3.48141v2.83333z" fill="url(#color-35)" stroke="none" stroke-width="0" stroke-linecap="butt"/><path d="M239.42677,191.52779v2.41667" fill="none" stroke="#9e9e9e" stroke-width="0.5" stroke-linecap="round"/><path d="M240.58552,191.52779v2.41667" fill="none" stroke="#9e9e9e" stroke-width="0.5" stroke-linecap="round"/><path d="M259.79231,178.63063l4.56494,-0.02536l-0.10058,6.99199l-4.56277,2.49384z" data-paper-data="{&quot;index&quot;:null}" fill="url(#color-36)" stroke="#ff9b00" stroke-width="0" stroke-linecap="round"/><path d="M235.30352,156.04168l-0.23175,13.53125l-1.82503,1.96875v9.4375l-3.0707,-3.3125v-17z" fill="url(#color-37)" stroke="url(#color-38)" stroke-width="0.5" stroke-linecap="round"/><path d="M249.78797,160.54168v17l-3.0707,3.3125v-9.4375l-1.82504,-1.96875l-0.23175,-13.53125z" data-paper-data="{&quot;index&quot;:null}" fill="url(#color-39)" stroke="url(#color-40)" stroke-width="0.5" stroke-linecap="round"/><path d="M234.56773,187.03335v-2.9l2.68832,2.9v2.9z" fill="url(#color-41)" stroke="url(#color-42)" stroke-width="0" stroke-linecap="butt"/><path d="M242.72534,189.73335v-2.9l2.68832,-2.9v2.9z" data-paper-data="{&quot;index&quot;:null}" fill="url(#color-43)" stroke="url(#color-44)" stroke-width="0" stroke-linecap="butt"/><path d="M235.27456,155.79168v7.75l-5.2144,-1.625v-1.375z" fill="url(#color-45)" stroke="url(#color-46)" stroke-width="0.5" stroke-linecap="round"/><path d="M249.87486,160.41668v1.54166l-5.2144,1.45834v-7.75z" data-paper-data="{&quot;index&quot;:null}" fill="url(#color-47)" stroke="url(#color-48)" stroke-width="0.5" stroke-linecap="round"/></g><path d="M237.86887,200.28308v-5.33334h4.22302v5.33334z" fill="url(#color-49)" stroke="none" stroke-width="0" stroke-linecap="butt"/></g><g><path d="M234.96941,206.10898v-4.27273c0,0 2.53809,-0.51228 4.72727,-0.5c2.18839,0.01228 4.72727,0.5 4.72727,0.5v4.27273c0,0 -2.62239,-0.63636 -4.77273,-0.63636c-2.18066,0 -4.68182,0.63636 -4.68182,0.63636z" fill="url(#color-50)" stroke="none" stroke-width="0" stroke-linecap="butt"/><path d="M243.6667,205.54808v-3.68" fill="none" stroke="#656565" stroke-width="0.5" stroke-linecap="round"/><path d="M242.50672,205.30808v-3.64" fill="none" stroke="#6a6a6a" stroke-width="0.5" stroke-linecap="round"/><path d="M241.38669,205.18808l0.04,-3.64" fill="none" stroke="#6f6f6f" stroke-width="0.5" stroke-linecap="round"/><path d="M240.3067,201.46808l-0.08,3.68" fill="none" stroke="#747474" stroke-width="0.5" stroke-linecap="round"/><path d="M239.14671,201.42808l-0.04,3.76" fill="none" stroke="#787878" stroke-width="0.5" stroke-linecap="round"/><path d="M238.02669,201.50808v3.76" fill="none" stroke="#7b7b7b" stroke-width="0.5" stroke-linecap="round"/></g></g></g></svg>