<svg version="1.1" xmlns="http://www.w3.org/2000/svg" xmlns:xlink="http://www.w3.org/1999/xlink" width="51.66305" height="75.2511" viewBox="0,0,51.66305,75.2511"><defs><radialGradient cx="239.62203" cy="208.21143" r="8.47886" gradientUnits="userSpaceOnUse" id="color-1"><stop offset="0" stop-color="#fff696"/><stop offset="1" stop-color="#fff696" stop-opacity="0"/></radialGradient><radialGradient cx="239.89533" cy="205.428" r="11.77245" gradientUnits="userSpaceOnUse" id="color-2"><stop offset="0" stop-color="#fcd81d"/><stop offset="1" stop-color="#fcd81d" stop-opacity="0"/></radialGradient><radialGradient cx="239.57228" cy="207.64309" r="6.68989" gradientUnits="userSpaceOnUse" id="color-3"><stop offset="0" stop-color="#fff156"/><stop offset="1" stop-color="#fff156" stop-opacity="0"/></radialGradient><linearGradient x1="239.92833" y1="206.57577" x2="239.92833" y2="212.8485" gradientUnits="userSpaceOnUse" id="color-4"><stop offset="0" stop-color="#ff8600"/><stop offset="1" stop-color="#ff8600" stop-opacity="0"/></linearGradient><linearGradient x1="239.82011" y1="204.32198" x2="239.82011" y2="221.18561" gradientUnits="userSpaceOnUse" id="color-5"><stop offset="0" stop-color="#ffffff"/><stop offset="1" stop-color="#ffffff" stop-opacity="0"/></linearGradient><radialGradient cx="239.74667" cy="208.44531" r="6.68989" gradientUnits="userSpaceOnUse" id="color-6"><stop offset="0" stop-color="#ffee35"/><stop offset="1" stop-color="#ffee35" stop-opacity="0"/></radialGradient><linearGradient x1="244.69028" y1="206.02092" x2="235.13102" y2="206.02092" gradientUnits="userSpaceOnUse" id="color-7"><stop offset="0" stop-color="#5f5f5f"/><stop offset="1" stop-color="#4c4c4c"/></linearGradient><linearGradient x1="244.69028" y1="206.02092" x2="235.13102" y2="206.02092" gradientUnits="userSpaceOnUse" id="color-8"><stop offset="0" stop-color="#949494"/><stop offset="1" stop-color="#757575"/></linearGradient><linearGradient x1="244.39551" y1="204.21928" x2="241.29408" y2="204.21928" gradientUnits="userSpaceOnUse" id="color-9"><stop offset="0" stop-color="#4c4c4c"/><stop offset="1" stop-color="#4c4c4c" stop-opacity="0"/></linearGradient><linearGradient x1="235.42646" y1="204.21927" x2="238.52788" y2="204.21927" gradientUnits="userSpaceOnUse" id="color-10"><stop offset="0" stop-color="#5f5f5f"/><stop offset="1" stop-color="#5f5f5f" stop-opacity="0"/></linearGradient><linearGradient x1="240.7472" y1="126.50034" x2="240.7472" y2="220.52639" gradientUnits="userSpaceOnUse" id="color-11"><stop offset="0" stop-color="#a300f2"/><stop offset="1" stop-color="#a300f2" stop-opacity="0"/></linearGradient><linearGradient x1="241.04638" y1="98.48158" x2="241.04638" y2="226.50219" gradientUnits="userSpaceOnUse" id="color-12"><stop offset="0" stop-color="#f1f1f1"/><stop offset="1" stop-color="#f1f1f1" stop-opacity="0"/></linearGradient><linearGradient x1="239.77737" y1="206.11823" x2="239.77737" y2="214.02599" gradientUnits="userSpaceOnUse" id="color-13"><stop offset="0" stop-color="#ff4f00"/><stop offset="1" stop-color="#ff4f00" stop-opacity="0"/></linearGradient><linearGradient x1="239.86294" y1="206.36497" x2="239.86294" y2="211.7108" gradientUnits="userSpaceOnUse" id="color-14"><stop offset="0" stop-color="#ffd400"/><stop offset="1" stop-color="#ffd400" stop-opacity="0"/></linearGradient><linearGradient x1="239.86582" y1="206.00691" x2="239.86582" y2="214.88923" gradientUnits="userSpaceOnUse" id="color-15"><stop offset="0" stop-color="#ffee00"/><stop offset="1" stop-color="#ffee00" stop-opacity="0"/></linearGradient><linearGradient x1="239.9571" y1="205.93396" x2="239.9571" y2="209.82134" gradientUnits="userSpaceOnUse" id="color-16"><stop offset="0" stop-color="#ffee00"/><stop offset="1" stop-color="#ffee00" stop-opacity="0"/></linearGradient><linearGradient x1="237.38609" y1="206.00691" x2="237.38609" y2="209.89429" gradientUnits="userSpaceOnUse" id="color-17"><stop offset="0" stop-color="#ffee00"/><stop offset="1" stop-color="#ffee00" stop-opacity="0"/></linearGradient><linearGradient x1="242.52809" y1="206.00691" x2="242.52809" y2="209.89429" gradientUnits="userSpaceOnUse" id="color-18"><stop offset="0" stop-color="#ffee00"/><stop offset="1" stop-color="#ffee00" stop-opacity="0"/></linearGradient><linearGradient x1="244.72203" y1="203.97262" x2="235.11265" y2="203.97262" gradientUnits="userSpaceOnUse" id="color-19"><stop offset="0" stop-color="#888888"/><stop offset="1" stop-color="#696969"/></linearGradient><linearGradient x1="236.43571" y1="155.72479" x2="236.43571" y2="199.68327" gradientUnits="userSpaceOnUse" id="color-20"><stop offset="0" stop-color="#00de98"/><stop offset="1" stop-color="#00386f"/></linearGradient><linearGradient x1="236.43571" y1="155.72479" x2="236.43571" y2="199.68327" gradientUnits="userSpaceOnUse" id="color-21"><stop offset="0" stop-color="#00de98"/><stop offset="1" stop-color="#00386f"/></linearGradient><linearGradient x1="242.58112" y1="167.87077" x2="237.52962" y2="167.87077" gradientUnits="userSpaceOnUse" id="color-22"><stop offset="0" stop-color="#5f5f5f"/><stop offset="1" stop-color="#a8a8a8"/></linearGradient><linearGradient x1="240.01675" y1="161.54813" x2="240.01675" y2="162.48361" gradientUnits="userSpaceOnUse" id="color-23"><stop offset="0" stop-color="#7a7a7a"/><stop offset="1" stop-color="#646464"/></linearGradient><linearGradient x1="251.73409" y1="178.86467" x2="251.73409" y2="200.90384" gradientUnits="userSpaceOnUse" id="color-24"><stop offset="0" stop-color="#00a29c"/><stop offset="1" stop-color="#00478c"/></linearGradient><linearGradient x1="228.38492" y1="178.86467" x2="228.38492" y2="200.90384" gradientUnits="userSpaceOnUse" id="color-25"><stop offset="0" stop-color="#00a29c"/><stop offset="1" stop-color="#00478c"/></linearGradient><linearGradient x1="240.88178" y1="165.17487" x2="240.70694" y2="165.17487" gradientUnits="userSpaceOnUse" id="color-26"><stop offset="0" stop-color="#00eeec"/><stop offset="1" stop-color="#1cfff4"/></linearGradient><linearGradient x1="246.17547" y1="156.23007" x2="246.17547" y2="200.78563" gradientUnits="userSpaceOnUse" id="color-27"><stop offset="0" stop-color="#00ffad"/><stop offset="1" stop-color="#00478c"/></linearGradient><linearGradient x1="246.17547" y1="156.23007" x2="246.17547" y2="200.78563" gradientUnits="userSpaceOnUse" id="color-28"><stop offset="0" stop-color="#00ffad"/><stop offset="1" stop-color="#00478c"/></linearGradient><linearGradient x1="234.12956" y1="156.22214" x2="234.12956" y2="200.77769" gradientUnits="userSpaceOnUse" id="color-29"><stop offset="0" stop-color="#00ffad"/><stop offset="1" stop-color="#00478c"/></linearGradient><linearGradient x1="234.12956" y1="156.22214" x2="234.12956" y2="200.77769" gradientUnits="userSpaceOnUse" id="color-30"><stop offset="0" stop-color="#00ffad"/><stop offset="1" stop-color="#00478c"/></linearGradient><linearGradient x1="260.8454" y1="178.60527" x2="260.8454" y2="188.09109" gradientUnits="userSpaceOnUse" id="color-31"><stop offset="0" stop-color="#00a29c"/><stop offset="1" stop-color="#007995"/></linearGradient><linearGradient x1="230.72951" y1="193.40468" x2="228.20378" y2="193.40468" gradientUnits="userSpaceOnUse" id="color-32"><stop offset="0" stop-color="#002f5e"/><stop offset="1" stop-color="#002f5e" stop-opacity="0"/></linearGradient><linearGradient x1="230.8579" y1="186.04026" x2="228.235" y2="186.04026" gradientUnits="userSpaceOnUse" id="color-33"><stop offset="0" stop-color="#dbdbdb"/><stop offset="1" stop-color="#dbdbdb" stop-opacity="0"/></linearGradient><linearGradient x1="242.14807" y1="197.61642" x2="238.16518" y2="197.61642" gradientUnits="userSpaceOnUse" id="color-34"><stop offset="0" stop-color="#8b8b8b"/><stop offset="1" stop-color="#7f7f7f"/></linearGradient><linearGradient x1="241.79837" y1="192.76641" x2="238.51489" y2="192.76641" gradientUnits="userSpaceOnUse" id="color-35"><stop offset="0" stop-color="#8b8b8b"/><stop offset="1" stop-color="#7f7f7f"/></linearGradient><linearGradient x1="219.36491" y1="178.60527" x2="219.36491" y2="188.0911" gradientUnits="userSpaceOnUse" id="color-36"><stop offset="0" stop-color="#00a29c"/><stop offset="1" stop-color="#007995"/></linearGradient><linearGradient x1="261.59521" y1="179.88452" x2="261.59521" y2="192.11529" gradientUnits="userSpaceOnUse" id="color-37"><stop offset="0" stop-color="#009a95"/><stop offset="1" stop-color="#005da9"/></linearGradient><linearGradient x1="218.52381" y1="179.88452" x2="218.52381" y2="192.11529" gradientUnits="userSpaceOnUse" id="color-38"><stop offset="0" stop-color="#009a95"/><stop offset="1" stop-color="#005da9"/></linearGradient><linearGradient x1="262.67126" y1="178.94647" x2="262.67126" y2="192.53621" gradientUnits="userSpaceOnUse" id="color-39"><stop offset="0" stop-color="#007c78"/><stop offset="1" stop-color="#00376d"/></linearGradient><linearGradient x1="217.44769" y1="178.94647" x2="217.44769" y2="192.53621" gradientUnits="userSpaceOnUse" id="color-40"><stop offset="0" stop-color="#007c78"/><stop offset="1" stop-color="#00376d"/></linearGradient><linearGradient x1="249.49047" y1="179.1031" x2="246.18756" y2="179.1031" gradientUnits="userSpaceOnUse" id="color-41"><stop offset="0" stop-color="#00b67c"/><stop offset="1" stop-color="#00b67c" stop-opacity="0"/></linearGradient><linearGradient x1="249.49047" y1="179.1031" x2="246.18756" y2="179.1031" gradientUnits="userSpaceOnUse" id="color-42"><stop offset="0" stop-color="#00847e"/><stop offset="1" stop-color="#00847e" stop-opacity="0"/></linearGradient><linearGradient x1="249.49047" y1="179.1031" x2="246.18756" y2="179.1031" gradientUnits="userSpaceOnUse" id="color-43"><stop offset="0" stop-color="#004183"/><stop offset="1" stop-color="#004183" stop-opacity="0"/></linearGradient><linearGradient x1="249.45817" y1="172.98334" x2="246.22329" y2="172.98334" gradientUnits="userSpaceOnUse" id="color-44"><stop offset="0" stop-color="#009c84"/><stop offset="1" stop-color="#009c84" stop-opacity="0"/></linearGradient><linearGradient x1="249.45817" y1="188.08334" x2="246.22329" y2="188.08334" gradientUnits="userSpaceOnUse" id="color-45"><stop offset="0" stop-color="#00779c"/><stop offset="1" stop-color="#00779c" stop-opacity="0"/></linearGradient><linearGradient x1="255.34462" y1="181.97989" x2="251.03065" y2="181.97989" gradientUnits="userSpaceOnUse" id="color-46"><stop offset="0" stop-color="#01878f"/><stop offset="1" stop-color="#018097"/></linearGradient><linearGradient x1="255.34462" y1="181.97989" x2="251.03064" y2="181.97989" gradientUnits="userSpaceOnUse" id="color-47"><stop offset="0" stop-color="#01878f"/><stop offset="1" stop-color="#018097"/></linearGradient><linearGradient x1="255.29156" y1="185.90967" x2="250.9858" y2="185.90967" gradientUnits="userSpaceOnUse" id="color-48"><stop offset="0" stop-color="#01878f"/><stop offset="1" stop-color="#018097"/></linearGradient><linearGradient x1="255.29156" y1="185.90967" x2="250.9858" y2="185.90967" gradientUnits="userSpaceOnUse" id="color-49"><stop offset="0" stop-color="#01878f"/><stop offset="1" stop-color="#018097"/></linearGradient><linearGradient x1="225.19404" y1="181.97989" x2="229.50803" y2="181.97989" gradientUnits="userSpaceOnUse" id="color-50"><stop offset="0" stop-color="#01878f"/><stop offset="1" stop-color="#018097"/></linearGradient><linearGradient x1="225.19407" y1="181.97989" x2="229.50804" y2="181.97989" gradientUnits="userSpaceOnUse" id="color-51"><stop offset="0" stop-color="#01878f"/><stop offset="1" stop-color="#018097"/></linearGradient><linearGradient x1="225.24714" y1="185.90967" x2="229.55287" y2="185.90967" gradientUnits="userSpaceOnUse" id="color-52"><stop offset="0" stop-color="#01878f"/><stop offset="1" stop-color="#018097"/></linearGradient><linearGradient x1="225.24714" y1="185.90967" x2="229.55287" y2="185.90967" gradientUnits="userSpaceOnUse" id="color-53"><stop offset="0" stop-color="#01878f"/><stop offset="1" stop-color="#018097"/></linearGradient></defs><g transform="translate(-214.05081,-152.64965)"><g data-paper-data="{&quot;isPaintingLayer&quot;:true}" fill-rule="nonzero" stroke-linejoin="miter" stroke-miterlimit="10" stroke-dasharray="" stroke-dashoffset="0" style="mix-blend-mode: normal"><path d="M239.62203,200.33697c4.10765,0 7.43758,3.52552 7.43758,7.87446c0,4.34894 -3.32989,7.87446 -7.43758,7.87446c-4.10766,0 -7.43759,-3.52552 -7.43759,-7.87446c0,-4.34894 3.3299,-7.87446 7.43759,-7.87446z" data-paper-data="{&quot;index&quot;:null}" fill="url(#color-1)" stroke="none" stroke-width="0" stroke-linecap="butt"/><path d="M239.89532,193.07341c6.41506,0 11.61548,5.53134 11.61548,12.35459c0,6.82325 -5.20042,12.35459 -11.61548,12.35459c-6.41505,0 -11.61547,-5.53134 -11.61547,-12.35459c0,-6.82325 5.20041,-12.35459 11.61547,-12.35459z" data-paper-data="{&quot;index&quot;:null}" fill="url(#color-2)" stroke="none" stroke-width="0" stroke-linecap="butt"/><g data-paper-data="{&quot;index&quot;:null}"><g fill="none" stroke="#00386f" stroke-width="1" stroke-linecap="round"><g><path d="M261.52268,194.65133l-14.75376,8.375h-7.92332"/><path d="M261.46805,193.77633l-14.75376,8.375h-7.92332"/><path d="M261.63199,192.83883l-14.75376,8.375h-7.92332"/></g><g><path d="M238.45922,203.02633h-7.92332l-14.75375,-8.375"/><path d="M238.51388,202.15133h-7.92332l-14.75376,-8.375"/><path d="M238.34993,201.21383h-7.92332l-14.75376,-8.375"/></g></g><path d="M229.82637,203.4762v-3.42857h18.85983v3.42857z" fill="#00386f" stroke="none" stroke-width="0" stroke-linecap="butt"/></g><path d="M239.57229,202.04808c3.241,0 5.86832,2.50497 5.86832,5.59501c0,3.09004 -2.62733,5.59501 -5.86832,5.59501c-3.241,0 -5.86832,-2.50497 -5.86832,-5.59501c0,-3.09003 2.62733,-5.59501 5.86832,-5.59501z" data-paper-data="{&quot;index&quot;:null}" fill="url(#color-3)" stroke="none" stroke-width="0" stroke-linecap="butt"/><path d="M236.27292,212.8485v-6.27273c0,0 1.60489,-0.45454 3.65537,-0.45454c1.92215,0 3.65536,0.45454 3.65536,0.45454v6.27273z" data-paper-data="{&quot;index&quot;:null}" fill="url(#color-4)" stroke="none" stroke-width="0" stroke-linecap="butt"/><path d="M242.46544,204.32198l-2.64533,16.86364l-2.64533,-16.86364z" data-paper-data="{&quot;index&quot;:null}" fill="url(#color-5)" stroke="#000000" stroke-width="0" stroke-linecap="round"/><path d="M239.74667,202.8503c3.241,0 5.86832,2.50497 5.86832,5.59501c0,3.09004 -2.62734,5.59501 -5.86832,5.59501c-3.241,0 -5.86832,-2.50497 -5.86832,-5.59501c0,-3.09004 2.62734,-5.59501 5.86832,-5.59501z" data-paper-data="{&quot;index&quot;:null}" fill="url(#color-6)" stroke="none" stroke-width="0" stroke-linecap="butt"/><path d="M239.91066,205.18001c2.63974,0 4.77964,0.37649 4.77964,0.84091c0,0.46442 -2.13992,0.84091 -4.77964,0.84091c-2.63974,0 -4.77964,-0.37649 -4.77964,-0.84091c0,-0.46442 2.13992,-0.84091 4.77964,-0.84091z" data-paper-data="{&quot;index&quot;:null}" fill="url(#color-7)" stroke="url(#color-8)" stroke-width="0.5" stroke-linecap="butt"/><path d="M244.3955,206.08134c0,0 -0.87916,0.27881 -1.37292,0.35477c-0.54682,0.08412 -1.765,0.12799 -1.765,0.12799l0.0365,-4.2069h3.10143v3.72414z" data-paper-data="{&quot;index&quot;:null}" fill="url(#color-9)" stroke="none" stroke-width="0" stroke-linecap="butt"/><path d="M236.79939,206.43611c-0.49374,-0.07597 -1.37292,-0.35477 -1.37292,-0.35477v-3.72414h3.10144l0.0365,4.2069c0,0 -1.2182,-0.04386 -1.765,-0.12799z" data-paper-data="{&quot;index&quot;:null}" fill="url(#color-10)" stroke="none" stroke-width="0" stroke-linecap="butt"/><g data-paper-data="{&quot;index&quot;:null}" stroke="#000000" stroke-width="0" stroke-linecap="round"><path d="M242.71336,206.62112l-2.95973,14.93246l-2.51406,-14.93246z" fill="url(#color-11)"/><path d="M243.72335,207.56954l-4.02978,20.33121l-3.42299,-20.33121z" fill="url(#color-12)"/><path d="M241.25185,206.11823c0,0 2.33873,0.46537 2.30384,2.41626c-0.08195,4.58168 -3.40969,5.49149 -3.40969,5.49149c0,0 -3.94437,-1.02334 -4.14692,-5.49149c-0.08476,-1.86924 2.39598,-2.41626 2.39598,-2.41626z" fill="url(#color-13)"/><path d="M240.8597,206.36497c0,0 1.58104,0.3146 1.55746,1.63345c-0.05542,3.09733 -2.30505,3.71239 -2.30505,3.71239c0,0 -2.6665,-0.69182 -2.80342,-3.71239c-0.05729,-1.26365 1.61975,-1.63345 1.61975,-1.63345z" fill="url(#color-14)"/><path d="M241.52199,206.00691c0,0 2.62699,0.52272 2.58779,2.71404c-0.09209,5.14633 -3.82993,6.16828 -3.82993,6.16828c0,0 -4.43051,-1.14947 -4.65799,-6.16828c-0.09516,-2.0996 2.69129,-2.71404 2.69129,-2.71404z" fill="url(#color-15)"/><path d="M240.68194,205.93396c0,0 1.14971,0.22877 1.13255,1.18781c-0.04028,2.25231 -1.67618,2.69957 -1.67618,2.69957c0,0 -1.93903,-0.50307 -2.03859,-2.69957c-0.04166,-0.9189 1.17784,-1.18781 1.17784,-1.18781z" fill="url(#color-16)"/><path d="M238.11092,206.00691c0,0 1.14972,0.22877 1.13257,1.18781c-0.04028,2.25231 -1.67618,2.69957 -1.67618,2.69957c0,0 -1.93905,-0.50307 -2.03861,-2.69957c-0.04168,-0.91889 1.17784,-1.18781 1.17784,-1.18781z" fill="url(#color-17)"/><path d="M243.25294,206.00691c0,0 1.14972,0.22877 1.13257,1.18781c-0.04028,2.25231 -1.67618,2.69957 -1.67618,2.69957c0,0 -1.93905,-0.50307 -2.03861,-2.69957c-0.04168,-0.91889 1.17784,-1.18781 1.17784,-1.18781z" fill="url(#color-18)"/></g><path d="M239.96357,205.47262c-2.18556,0 -4.85088,0.63636 -4.85088,0.63636v-4.27273c0,0 2.58044,-0.48772 4.80467,-0.5c2.22502,-0.01228 4.80467,0.5 4.80467,0.5v4.27273c0,0 -2.54209,-0.63636 -4.75846,-0.63636z" data-paper-data="{&quot;index&quot;:null}" fill="url(#color-19)" stroke="none" stroke-width="0" stroke-linecap="butt"/><path d="M235.88232,201.86808v3.68" data-paper-data="{&quot;index&quot;:null}" fill="none" stroke="#656565" stroke-width="0.5" stroke-linecap="round"/><path d="M237.06131,201.66808v3.64" data-paper-data="{&quot;index&quot;:null}" fill="none" stroke="#6a6a6a" stroke-width="0.5" stroke-linecap="round"/><path d="M238.15904,201.54808l0.04064,3.64" data-paper-data="{&quot;index&quot;:null}" fill="none" stroke="#6f6f6f" stroke-width="0.5" stroke-linecap="round"/><path d="M239.37866,205.14808l-0.08132,-3.68" data-paper-data="{&quot;index&quot;:null}" fill="none" stroke="#747474" stroke-width="0.5" stroke-linecap="round"/><path d="M240.47634,201.42808l0.04064,3.76" data-paper-data="{&quot;index&quot;:null}" fill="none" stroke="#787878" stroke-width="0.5" stroke-linecap="round"/><path d="M241.61469,201.50808v3.76" data-paper-data="{&quot;index&quot;:null}" fill="none" stroke="#7b7b7b" stroke-width="0.5" stroke-linecap="round"/><path d="M235.2927,156.79167v-3.875h3.57356v3.875z" data-paper-data="{&quot;index&quot;:null}" fill="#00cd94" stroke="none" stroke-width="0" stroke-linecap="butt"/><path d="M231.79063,200.33699l-13.77633,-7.77778" data-paper-data="{&quot;index&quot;:null}" fill="none" stroke="#00386f" stroke-width="2.5" stroke-linecap="round"/><path d="M240.99838,199.68327l-10.11432,-0.0566l-2.5751,-0.71141l-0.18827,-37.7619l5.72333,-5.42857v15.95287c0,0 0.69221,1.79051 2.56212,1.79051c1.90317,0 2.60286,-1.92095 2.60286,-1.92095v-15.66277l5.58376,5.42857l0.15795,37.58147z" data-paper-data="{&quot;index&quot;:null}" fill="url(#color-20)" stroke="url(#color-21)" stroke-width="2.5" stroke-linecap="round"/><path d="M244.25903,173.2291l-7.39179,-1.36364l1.19223,-16.90909c0,0 0.35532,0.18974 0.71533,0.09091c0.36,-0.09882 0.68978,-0.18471 1.2717,-0.63636c0.58194,-0.45165 1.3512,-1.36364 1.3512,-1.36364z" data-paper-data="{&quot;index&quot;:null}" fill="#676767" stroke="#ff0000" stroke-width="0" stroke-linecap="round"/><g data-paper-data="{&quot;index&quot;:null}" fill="none" stroke-linecap="round"><g stroke="#b6b6b6" stroke-width="2.5"><path d="M256.29652,175.37846v4.09091"/></g><path d="M255.89911,175.53755l0.03973,4.18182" stroke="#c2c2c2" stroke-width="1.5"/></g><g data-paper-data="{&quot;index&quot;:null}" fill="none" stroke-linecap="round"><g stroke="#b6b6b6" stroke-width="2.5"><path d="M222.98186,175.37846v4.09091"/></g><path d="M223.33954,179.71937l0.03973,-4.18182" stroke="#c2c2c2" stroke-width="1.5"/></g><path d="M237.52964,173.76976v-11.79798h5.05148v11.79798z" data-paper-data="{&quot;index&quot;:null}" fill="url(#color-22)" stroke="none" stroke-width="0" stroke-linecap="butt"/><path d="M240.01674,161.54813c1.04006,0 1.8832,0.20942 1.8832,0.46775c0,0.25833 -0.84314,0.46774 -1.8832,0.46774c-1.04006,0 -1.88319,-0.20941 -1.88319,-0.46774c0,-0.25833 0.84313,-0.46775 1.88319,-0.46775z" data-paper-data="{&quot;index&quot;:null}" fill="url(#color-23)" stroke="#7e7e7e" stroke-width="0.5" stroke-linecap="butt"/><path d="M261.17961,194.71383v-1.9375h0.92894v1.9375z" data-paper-data="{&quot;index&quot;:null}" fill="#00386f" stroke="none" stroke-width="0" stroke-linecap="butt"/><path d="M263.44888,192.23967l-15.43378,8.625l-7.95453,0.03917l-0.0413,-21.91417l23.05707,-0.125z" data-paper-data="{&quot;index&quot;:null}" fill="url(#color-24)" stroke="#b6b6b6" stroke-width="0" stroke-linecap="round"/><path d="M260.70889,180.24806v-1.35714h1.68615v1.35714z" data-paper-data="{&quot;index&quot;:null}" fill="#00bcfb" stroke="none" stroke-width="0" stroke-linecap="butt"/><path d="M241.16212,199.60521v-19.28572" data-paper-data="{&quot;index&quot;:null}" fill="none" stroke="#3195b6" stroke-width="2.5" stroke-linecap="round"/><path d="M240.03801,183.74806v-4.71428h2.18574v4.71428z" data-paper-data="{&quot;index&quot;:null}" fill="#f00000" stroke="none" stroke-width="0" stroke-linecap="butt"/><path d="M240.03801,200.81949v-6h2.18574v6z" data-paper-data="{&quot;index&quot;:null}" fill="#0098ca" stroke="none" stroke-width="0" stroke-linecap="butt"/><path d="M249.92459,184.71383v7.1875" data-paper-data="{&quot;index&quot;:null}" fill="none" stroke="#00bcfb" stroke-width="1" stroke-linecap="round"/><path d="M248.33994,192.46383l-0.10931,-8.6875" data-paper-data="{&quot;index&quot;:null}" fill="none" stroke="#f50000" stroke-width="1" stroke-linecap="round"/><path d="M258.23041,181.15133v7.9375" data-paper-data="{&quot;index&quot;:null}" fill="none" stroke="#006c8a" stroke-width="1" stroke-linecap="round"/><path d="M252.98462,193.96383v-11.875" data-paper-data="{&quot;index&quot;:null}" fill="none" stroke="#005b82" stroke-width="1" stroke-linecap="round"/><path d="M245.5531,184.27633l0.05463,11.1875" data-paper-data="{&quot;index&quot;:null}" fill="none" stroke="#fa0000" stroke-width="1" stroke-linecap="round"/><path d="M255.33429,194.33883l-0.10931,-5.125" data-paper-data="{&quot;index&quot;:null}" fill="none" stroke="#005b82" stroke-width="1" stroke-linecap="round"/><path d="M243.42199,192.40133l0.05464,-11" data-paper-data="{&quot;index&quot;:null}" fill="none" stroke="#fa0000" stroke-width="1" stroke-linecap="round"/><path d="M216.69741,194.71383v-1.9375h0.92894v1.9375z" data-paper-data="{&quot;index&quot;:null}" fill="#00386f" stroke="none" stroke-width="0" stroke-linecap="butt"/><path d="M217.04264,178.86467l23.05707,0.125l-0.0413,21.91417l-7.95453,-0.03917l-15.43378,-8.625z" data-paper-data="{&quot;index&quot;:null}" fill="url(#color-25)" stroke="#b6b6b6" stroke-width="0" stroke-linecap="round"/><path d="M217.72393,180.24806v-1.35714h1.68615v1.35714z" data-paper-data="{&quot;index&quot;:null}" fill="#00b1ec" stroke="none" stroke-width="0" stroke-linecap="butt"/><path d="M238.95684,180.31949v19.28572" data-paper-data="{&quot;index&quot;:null}" fill="none" stroke="#3195b6" stroke-width="2.5" stroke-linecap="round"/><path d="M237.89523,183.74806v-4.71428h2.18574v4.71428z" data-paper-data="{&quot;index&quot;:null}" fill="#f00000" stroke="none" stroke-width="0" stroke-linecap="butt"/><path d="M237.89523,200.81949v-6h2.18574v6z" data-paper-data="{&quot;index&quot;:null}" fill="#0098ca" stroke="none" stroke-width="0" stroke-linecap="butt"/><path d="M230.19435,184.71383v7.1875" data-paper-data="{&quot;index&quot;:null}" fill="none" stroke="#00bcfb" stroke-width="1" stroke-linecap="round"/><path d="M231.779,192.46383l0.1093,-8.6875" data-paper-data="{&quot;index&quot;:null}" fill="none" stroke="#f50000" stroke-width="1" stroke-linecap="round"/><path d="M221.88856,181.15133v7.9375" data-paper-data="{&quot;index&quot;:null}" fill="none" stroke="#006c8a" stroke-width="1" stroke-linecap="round"/><path d="M227.1343,193.96383v-11.875" data-paper-data="{&quot;index&quot;:null}" fill="none" stroke="#005b82" stroke-width="1" stroke-linecap="round"/><path d="M234.51118,195.46383l0.05464,-11.1875" data-paper-data="{&quot;index&quot;:null}" fill="none" stroke="#fa0000" stroke-width="1" stroke-linecap="round"/><path d="M224.78464,194.33883l0.10931,-5.125" data-paper-data="{&quot;index&quot;:null}" fill="none" stroke="#005b82" stroke-width="1" stroke-linecap="round"/><path d="M236.64229,181.40133l0.05464,11" data-paper-data="{&quot;index&quot;:null}" fill="none" stroke="#fa0000" stroke-width="1" stroke-linecap="round"/><path d="M239.10273,167.61264v-4.77419h0.22562v4.77419z" data-paper-data="{&quot;index&quot;:null}" fill="#1dfffb" stroke="none" stroke-width="0" stroke-linecap="butt"/><path d="M241.39775,153.41091l-0.07949,17.45455c0,0 -0.2237,0.86024 -1.19223,0.90909c-0.99123,0.04999 -1.3512,-0.90909 -1.3512,-0.90909v-17.45455" data-paper-data="{&quot;index&quot;:null}" fill="none" stroke="#b1b1b1" stroke-width="1" stroke-linecap="round"/><path d="M244.71824,199.5166l-10.11432,-0.0566l-2.5751,-0.71141l-0.18826,-37.7619l5.72333,-5.42857v15.95287c0,0 0.6922,1.79051 2.56211,1.79051c1.90317,0 2.60286,-1.92095 2.60286,-1.92095v-15.66277l5.58376,5.42857l0.15795,37.58147z" data-paper-data="{&quot;index&quot;:null}" fill="#ffffff" stroke="#ffffff" stroke-width="2.5" stroke-linecap="round"/><path d="M244.23255,195.54754l0.09715,-18.33333" data-paper-data="{&quot;index&quot;:null}" fill="none" stroke="#eeeeee" stroke-width="1" stroke-linecap="round"/><path d="M234.03244,188.99198l0.09715,-11.77777" data-paper-data="{&quot;index&quot;:null}" fill="none" stroke="#eeeeee" stroke-width="1" stroke-linecap="round"/><path d="M236.55816,184.76976l-0.19428,10.66666" data-paper-data="{&quot;index&quot;:null}" fill="none" stroke="#eeeeee" stroke-width="1" stroke-linecap="round"/><path d="M242.48397,186.21421v13.33333" data-paper-data="{&quot;index&quot;:null}" fill="none" stroke="#eeeeee" stroke-width="1" stroke-linecap="round"/><path d="M237.7239,173.65865l0.09715,7" data-paper-data="{&quot;index&quot;:null}" fill="none" stroke="#eeeeee" stroke-width="1" stroke-linecap="round"/><path d="M245.0097,159.3253l0.19429,13.77777" data-paper-data="{&quot;index&quot;:null}" fill="none" stroke="#eeeeee" stroke-width="1" stroke-linecap="round"/><path d="M233.06096,172.43641l-0.19428,-12.11111" data-paper-data="{&quot;index&quot;:null}" fill="none" stroke="#fa0000" stroke-width="1" stroke-linecap="round"/><path d="M235.19815,160.99198l0.29143,13" data-paper-data="{&quot;index&quot;:null}" fill="none" stroke="#eeeeee" stroke-width="1" stroke-linecap="round"/><path d="M240.70692,167.52489v-4.7h0.17486v4.7z" data-paper-data="{&quot;index&quot;:null}" fill="url(#color-26)" stroke="none" stroke-width="0" stroke-linecap="butt"/><path d="M239.92059,167.70942v-4.80645h0.19743v4.80645z" data-paper-data="{&quot;index&quot;:null}" fill="#1dfffb" stroke="none" stroke-width="0" stroke-linecap="butt"/><path d="M241.512,183.26328l-1.27681,0.6931l-1.27681,-0.54738v-7.72276l1.3167,-0.91167l1.23689,1.05738z" data-paper-data="{&quot;index&quot;:null}" fill="#8cffff" stroke="#7e7e7e" stroke-width="0.5" stroke-linecap="round"/><path d="M241.45484,175.94407l-1.14752,0.875l-1.2568,-1.125" data-paper-data="{&quot;index&quot;:null}" fill="none" stroke="#55eded" stroke-width="0.5" stroke-linecap="round"/><path d="M239.2691,183.31907l1.09286,-0.8125l0.87431,0.6875" data-paper-data="{&quot;index&quot;:null}" fill="none" stroke="#55eded" stroke-width="0.5" stroke-linecap="round"/><path d="M240.25266,175.00657l0.05464,1.5l-0.05464,6.5625l-0.16392,0.5625" data-paper-data="{&quot;index&quot;:null}" fill="none" stroke="#4fdada" stroke-width="0.5" stroke-linecap="round"/><path d="M241.512,183.26328l-1.27681,0.6931l-1.27681,-0.54738v-7.72276l1.3167,-0.91167l1.23689,1.05738z" data-paper-data="{&quot;index&quot;:null}" fill="none" stroke="#7e7e7e" stroke-width="0.5" stroke-linecap="round"/><path d="M240.04841,182.33048l-0.85348,0.78572l0.02082,-6.9881l0.81185,0.82143z" data-paper-data="{&quot;index&quot;:null}" fill="#5cffff" stroke="none" stroke-width="0" stroke-linecap="round"/><path d="M239.8873,183.49804l-0.45125,-0.13243l0.60563,-0.37012z" data-paper-data="{&quot;index&quot;:null}" fill="#57f3f3" stroke="#56eeee" stroke-width="0" stroke-linecap="round"/><path d="M240.48341,176.96646l0.85348,-0.78572l-0.02082,6.80388l-0.81186,-0.66353z" data-paper-data="{&quot;index&quot;:null}" fill="#87ffff" stroke="none" stroke-width="0" stroke-linecap="round"/><path d="M240.1032,200.90477v-10.7h3.32232v10.7z" data-paper-data="{&quot;index&quot;:null}" fill="#2d2d2d" stroke="none" stroke-width="0" stroke-linecap="butt"/><path d="M236.86831,200.90477v-10.7h3.32232v10.7z" data-paper-data="{&quot;index&quot;:null}" fill="#2d2d2d" stroke="none" stroke-width="0" stroke-linecap="butt"/><path d="M240.47139,182.91654l0.53661,0.37011l-0.65833,0.34296z" data-paper-data="{&quot;index&quot;:null}" fill="#5afbfb" stroke="#56eeee" stroke-width="0" stroke-linecap="round"/><path d="M249.38123,160.78563l-0.09716,39.33333l-1.36001,0.66667h-4.95435v-13.66667l3.49717,-3.77778v-11.77778l-1.74858,-1.88889l-0.09715,-13.44444z" data-paper-data="{&quot;index&quot;:null}" fill="url(#color-27)" stroke="url(#color-28)" stroke-width="0.5" stroke-linecap="round"/><path d="M235.68388,156.22212l-0.09715,13.44444l-1.74858,1.88889v11.77778l3.49717,3.77777v13.66667h-4.95434l-1.36002,-0.66667l-0.09715,-39.33333z" data-paper-data="{&quot;index&quot;:null}" fill="url(#color-29)" stroke="url(#color-30)" stroke-width="0.5" stroke-linecap="round"/><path d="M249.58036,178.97161l13.20188,-0.07778l-0.08744,6.44445l-13.11447,7.6z" data-paper-data="{&quot;index&quot;:null}" fill="#ffffff" stroke="#ffffff" stroke-width="0.5" stroke-linecap="round"/><path d="M258.73913,178.63063l4.30537,-0.02536l-0.09485,6.99198l-4.30334,2.49384z" data-paper-data="{&quot;index&quot;:null}" fill="url(#color-31)" stroke="#ff9b00" stroke-width="0" stroke-linecap="round"/><path d="M228.20377,198.59856v-11.74943h2.52574v13.11111z" data-paper-data="{&quot;index&quot;:null}" fill="url(#color-32)" stroke="none" stroke-width="0" stroke-linecap="butt"/><path d="M230.5304,192.93828l-13.11447,-7.6l-0.08744,-6.44445l13.20189,0.07778z" data-paper-data="{&quot;index&quot;:null}" fill="#ffffff" stroke="#ffffff" stroke-width="0" stroke-linecap="round"/><path d="M237.91743,184.73335v-12.5h4.19664v12.5z" data-paper-data="{&quot;index&quot;:null}" fill="#ffffff" stroke="none" stroke-width="0" stroke-linecap="butt"/><g data-paper-data="{&quot;index&quot;:null}" stroke="#8abcd0" stroke-width="0.5" stroke-linecap="round"><path d="M238.90849,175.62268c0,0 0.48794,-1.7675 1.08899,-1.7675c0.60102,0 1.08898,1.7675 1.08898,1.7675l0.01557,4.93504c0,0 -0.48794,1.7675 -1.08898,1.7675c-0.60103,0 -1.08898,-1.7675 -1.08898,-1.7675z" fill="#97cee4"/><path d="M240.98173,176.19633h-1.88098" fill="none"/><path d="M240.98173,177.58407h-1.79548" fill="none"/><path d="M241.06726,179.80444h-1.96648" fill="none"/><path d="M239.17526,178.39883h1.96648" fill="none"/></g><path d="M228.235,191.91526v-13.17857h2.6229v14.60714z" data-paper-data="{&quot;index&quot;:null}" fill="url(#color-33)" stroke="none" stroke-width="0" stroke-linecap="butt"/><path d="M238.16517,200.28308v-5.33334h3.9829v5.33334z" data-paper-data="{&quot;index&quot;:null}" fill="url(#color-34)" stroke="none" stroke-width="0" stroke-linecap="butt"/><path d="M238.5149,194.18308v-2.83333h3.28347v2.83333z" data-paper-data="{&quot;index&quot;:null}" fill="url(#color-35)" stroke="none" stroke-width="0" stroke-linecap="butt"/><path d="M240.67877,193.94446v-2.41667" data-paper-data="{&quot;index&quot;:null}" fill="none" stroke="#9e9e9e" stroke-width="0.5" stroke-linecap="round"/><path d="M239.58591,193.94446v-2.41667" data-paper-data="{&quot;index&quot;:null}" fill="none" stroke="#9e9e9e" stroke-width="0.5" stroke-linecap="round"/><path d="M221.56401,188.0911l-4.30334,-2.49384l-0.09486,-6.99199l4.30538,0.02536z" data-paper-data="{&quot;index&quot;:null}" fill="url(#color-36)" stroke="#ff9b00" stroke-width="0" stroke-linecap="round"/><path d="M261.56158,179.88452l0.06725,12.23077" data-paper-data="{&quot;index&quot;:null}" fill="none" stroke="url(#color-37)" stroke-width="2" stroke-linecap="round"/><path d="M218.55741,179.88452l-0.06725,12.23077" data-paper-data="{&quot;index&quot;:null}" fill="none" stroke="url(#color-38)" stroke-width="2" stroke-linecap="round"/><path d="M262.66565,178.94647l0.0112,13.58974" data-paper-data="{&quot;index&quot;:null}" fill="none" stroke="url(#color-39)" stroke-width="0.5" stroke-linecap="round"/><path d="M217.45332,178.94647l-0.0112,13.58974" data-paper-data="{&quot;index&quot;:null}" fill="none" stroke="url(#color-40)" stroke-width="0.5" stroke-linecap="round"/><path d="M246.18758,173.08929v-15.76398l3.30289,3.33333v12.34732z" data-paper-data="{&quot;index&quot;:null}" fill="url(#color-41)" stroke="none" stroke-width="0" stroke-linecap="butt"/><path d="M246.18758,187.83929v-14.83333h3.30289v14.83333z" data-paper-data="{&quot;index&quot;:null}" fill="url(#color-42)" stroke="none" stroke-width="0" stroke-linecap="butt"/><path d="M248.2276,200.88087h-2.04003v-13.03889l3.30289,-0.05834l0.07285,12.23611z" data-paper-data="{&quot;index&quot;:null}" fill="url(#color-43)" stroke="none" stroke-width="0" stroke-linecap="butt"/><path d="M246.22329,175.23334v-4.5h3.23488v4.5z" data-paper-data="{&quot;index&quot;:null}" fill="url(#color-44)" stroke="none" stroke-width="0" stroke-linecap="butt"/><path d="M246.22329,190.33334v-4.5h3.23488v4.5z" data-paper-data="{&quot;index&quot;:null}" fill="url(#color-45)" stroke="none" stroke-width="0" stroke-linecap="butt"/><g data-paper-data="{&quot;index&quot;:null}" fill="none" stroke-linecap="round"><path d="M264.04995,184.17717v-6.8125" stroke="#b6b6b6" stroke-width="2.5"/><g><path d="M264.21386,191.86467v-6.8125" stroke="#b6b6b6" stroke-width="3"/><path d="M263.78094,191.88452v-6.6875" stroke="#c2c2c2" stroke-width="2"/></g><path d="M263.61701,184.19702v-6.6875" stroke="#c2c2c2" stroke-width="1.5"/></g><g data-paper-data="{&quot;index&quot;:null}" fill="none" stroke-linecap="round"><path d="M215.71475,177.36467v6.8125" stroke="#b6b6b6" stroke-width="2.5"/><g><path d="M215.55081,185.05217v6.8125" stroke="#b6b6b6" stroke-width="3"/><path d="M215.98374,191.88452v-6.6875" stroke="#c2c2c2" stroke-width="2"/></g><path d="M216.14768,177.50952v6.6875" stroke="#c2c2c2" stroke-width="1.5"/></g><g data-paper-data="{&quot;index&quot;:null}" fill="#01878f" stroke="#d5d5d5" stroke-width="1" stroke-linecap="square"><g><path d="M251.03066,180.31502h0.66582v2.37914l-0.17678,-0.07353l1.13877,-1.47055c0.14081,-0.18382 0.26861,-0.33787 0.38341,-0.46217c0.11632,-0.12429 0.2426,-0.21708 0.37883,-0.27835c0.13774,-0.06303 0.30765,-0.09454 0.50968,-0.09454c0.27551,0 0.51965,0.0709 0.73238,0.2127c0.21274,0.14005 0.37958,0.3335 0.5005,0.58034c0.12091,0.2451 0.18138,0.52257 0.18138,0.83244c0,0.33437 -0.05817,0.62849 -0.17449,0.88233c-0.11478,0.25384 -0.27704,0.45342 -0.48673,0.59872c-0.20969,0.14355 -0.45613,0.21533 -0.73928,0.21533v-0.83244c0.13009,0.00525 0.25102,-0.02801 0.36275,-0.09979c0.11173,-0.07178 0.20126,-0.17244 0.26862,-0.30199c0.06734,-0.12955 0.10102,-0.27836 0.10102,-0.44642c0,-0.15756 -0.03214,-0.29761 -0.09643,-0.42016c-0.06429,-0.12254 -0.15231,-0.21795 -0.26404,-0.28623c-0.11022,-0.07003 -0.23569,-0.10504 -0.37652,-0.10504c-0.10408,0 -0.21199,0.03152 -0.32372,0.09454c-0.11175,0.06128 -0.23036,0.17332 -0.35587,0.33613l-1.61401,2.06928h-0.6153z"/><path d="M251.17194,185.02474c0.12556,-0.2548 0.3005,-0.45401 0.52475,-0.59765c0.22426,-0.14535 0.4829,-0.21803 0.77593,-0.21803h1.33208c0.29155,0 0.54945,0.07268 0.7737,0.21803c0.22425,0.14364 0.39918,0.34286 0.52475,0.59765c0.12561,0.2548 0.18839,0.54977 0.18839,0.88493c0,0.33516 -0.06282,0.63099 -0.18839,0.88749c-0.12557,0.2548 -0.3005,0.45401 -0.52475,0.59765c-0.22425,0.14364 -0.48215,0.21546 -0.7737,0.21546h-1.33208c-0.29303,0 -0.55168,-0.07182 -0.77593,-0.21546c-0.22424,-0.14364 -0.39918,-0.34286 -0.52475,-0.59765c-0.1241,-0.2565 -0.18614,-0.55233 -0.18614,-0.88749c0,-0.33516 0.06206,-0.63014 0.18614,-0.88493zM251.74604,186.36368c0.07026,0.13509 0.16445,0.24197 0.28256,0.32063c0.11813,0.07866 0.24968,0.11799 0.39471,0.11799h1.43301c0.14653,0 0.27884,-0.03933 0.39695,-0.11799c0.11809,-0.07866 0.21154,-0.18554 0.28031,-0.32063c0.07027,-0.13681 0.1054,-0.28814 0.1054,-0.45401c0,-0.16759 -0.03513,-0.31892 -0.1054,-0.45401c-0.06876,-0.13509 -0.1622,-0.24197 -0.28031,-0.32063c-0.11813,-0.07866 -0.25043,-0.11799 -0.39695,-0.11799h-1.43301c-0.14504,0 -0.2766,0.03933 -0.39471,0.11799c-0.1181,0.07866 -0.21229,0.18554 -0.28256,0.32063c-0.06877,0.13509 -0.10315,0.28643 -0.10315,0.45401c0,0.16587 0.03438,0.31721 0.10315,0.45401z"/></g><g data-paper-data="{&quot;index&quot;:null}"><path d="M229.50802,183.64476h-0.6153l-1.61401,-2.06928c-0.12551,-0.16281 -0.24413,-0.27485 -0.35586,-0.33613c-0.11173,-0.06302 -0.21966,-0.09454 -0.32372,-0.09454c-0.1408,0 -0.26631,0.03501 -0.37652,0.10504c-0.11174,0.06828 -0.19974,0.16369 -0.26403,0.28623c-0.06429,0.12255 -0.09643,0.2626 -0.09643,0.42016c0,0.16806 0.03366,0.31687 0.10102,0.44642c0.06735,0.12955 0.15689,0.23021 0.26862,0.30199c0.11173,0.07178 0.23267,0.10504 0.36275,0.09979v0.83244c-0.28316,0 -0.52958,-0.07178 -0.73927,-0.21533c-0.20967,-0.1453 -0.37193,-0.34488 -0.48673,-0.59872c-0.11633,-0.25384 -0.17449,-0.54796 -0.17449,-0.88233c0,-0.30987 0.06046,-0.58734 0.18138,-0.83244c0.12092,-0.24684 0.28777,-0.44029 0.5005,-0.58034c0.21273,-0.1418 0.45685,-0.2127 0.73238,-0.2127c0.20204,0 0.37192,0.03151 0.50968,0.09454c0.13623,0.06127 0.26251,0.15406 0.37883,0.27835c0.11479,0.1243 0.24258,0.27835 0.38341,0.46217l1.13877,1.47055l-0.17678,0.07353v-2.37914h0.66582z"/><path d="M229.55287,185.90967c0,0.33516 -0.06206,0.63099 -0.18614,0.88749c-0.12557,0.2548 -0.30051,0.45401 -0.52476,0.59765c-0.22427,0.14364 -0.4829,0.21546 -0.77593,0.21546h-1.33209c-0.29154,0 -0.54944,-0.07182 -0.77369,-0.21546c-0.22424,-0.14364 -0.39918,-0.34286 -0.52475,-0.59765c-0.1256,-0.2565 -0.18839,-0.55233 -0.18839,-0.88749c0,-0.33516 0.06282,-0.63014 0.18839,-0.88493c0.12556,-0.2548 0.3005,-0.45401 0.52475,-0.59765c0.22424,-0.14535 0.48214,-0.21803 0.77369,-0.21803h1.33209c0.29304,0 0.55168,0.07268 0.77593,0.21803c0.22425,0.14364 0.39919,0.34286 0.52476,0.59765c0.1241,0.2548 0.18614,0.54977 0.18614,0.88493zM228.89579,185.90966c0,-0.16759 -0.03438,-0.31892 -0.10315,-0.45401c-0.07026,-0.13509 -0.16445,-0.24197 -0.28256,-0.32063c-0.11814,-0.07866 -0.24968,-0.11799 -0.39471,-0.11799h-1.43301c-0.14653,0 -0.27884,0.03933 -0.39695,0.11799c-0.11808,0.07866 -0.21153,0.18554 -0.2803,0.32063c-0.07027,0.13509 -0.1054,0.28643 -0.1054,0.45401c0,0.16587 0.03513,0.31721 0.1054,0.45401c0.06875,0.13509 0.16219,0.24197 0.2803,0.32063c0.11813,0.07866 0.25043,0.11799 0.39695,0.11799h1.43301c0.14505,0 0.2766,-0.03933 0.39471,-0.11799c0.1181,-0.07866 0.21229,-0.18554 0.28256,-0.32063c0.06877,-0.13681 0.10315,-0.28814 0.10315,-0.45401z"/></g></g><g data-paper-data="{&quot;index&quot;:null}" stroke-width="0.25" stroke-linecap="square"><g><path d="M251.03066,180.31502h0.66582v2.37914l-0.17678,-0.07353l1.13877,-1.47055c0.14081,-0.18382 0.26861,-0.33787 0.38341,-0.46217c0.11632,-0.12429 0.2426,-0.21708 0.37883,-0.27835c0.13774,-0.06303 0.30765,-0.09454 0.50968,-0.09454c0.27551,0 0.51965,0.0709 0.73238,0.2127c0.21274,0.14005 0.37958,0.3335 0.5005,0.58034c0.12091,0.2451 0.18138,0.52257 0.18138,0.83244c0,0.33437 -0.05817,0.62849 -0.17449,0.88233c-0.11478,0.25384 -0.27704,0.45342 -0.48673,0.59872c-0.20969,0.14355 -0.45613,0.21533 -0.73928,0.21533v-0.83244c0.13009,0.00525 0.25102,-0.02801 0.36275,-0.09979c0.11173,-0.07178 0.20126,-0.17244 0.26862,-0.30199c0.06734,-0.12955 0.10102,-0.27836 0.10102,-0.44642c0,-0.15756 -0.03214,-0.29761 -0.09643,-0.42016c-0.06429,-0.12254 -0.15231,-0.21795 -0.26404,-0.28623c-0.11022,-0.07003 -0.23569,-0.10504 -0.37652,-0.10504c-0.10408,0 -0.21199,0.03152 -0.32372,0.09454c-0.11175,0.06128 -0.23036,0.17332 -0.35587,0.33613l-1.61401,2.06928h-0.6153z" fill="url(#color-46)" stroke="url(#color-47)"/><path d="M251.17194,185.02474c0.12556,-0.2548 0.3005,-0.45401 0.52475,-0.59765c0.22426,-0.14535 0.4829,-0.21803 0.77593,-0.21803h1.33208c0.29155,0 0.54945,0.07268 0.7737,0.21803c0.22425,0.14364 0.39918,0.34286 0.52475,0.59765c0.12561,0.2548 0.18839,0.54977 0.18839,0.88493c0,0.33516 -0.06282,0.63099 -0.18839,0.88749c-0.12557,0.2548 -0.3005,0.45401 -0.52475,0.59765c-0.22425,0.14364 -0.48215,0.21546 -0.7737,0.21546h-1.33208c-0.29303,0 -0.55168,-0.07182 -0.77593,-0.21546c-0.22424,-0.14364 -0.39918,-0.34286 -0.52475,-0.59765c-0.1241,-0.2565 -0.18614,-0.55233 -0.18614,-0.88749c0,-0.33516 0.06206,-0.63014 0.18614,-0.88493zM251.74604,186.36368c0.07026,0.13509 0.16445,0.24197 0.28256,0.32063c0.11813,0.07866 0.24968,0.11799 0.39471,0.11799h1.43301c0.14653,0 0.27884,-0.03933 0.39695,-0.11799c0.11809,-0.07866 0.21154,-0.18554 0.28031,-0.32063c0.07027,-0.13681 0.1054,-0.28814 0.1054,-0.45401c0,-0.16759 -0.03513,-0.31892 -0.1054,-0.45401c-0.06876,-0.13509 -0.1622,-0.24197 -0.28031,-0.32063c-0.11813,-0.07866 -0.25043,-0.11799 -0.39695,-0.11799h-1.43301c-0.14504,0 -0.2766,0.03933 -0.39471,0.11799c-0.1181,0.07866 -0.21229,0.18554 -0.28256,0.32063c-0.06877,0.13509 -0.10315,0.28643 -0.10315,0.45401c0,0.16587 0.03438,0.31721 0.10315,0.45401z" fill="url(#color-48)" stroke="url(#color-49)"/></g><g data-paper-data="{&quot;index&quot;:null}"><path d="M229.50802,183.64476h-0.6153l-1.61401,-2.06928c-0.12551,-0.16281 -0.24413,-0.27485 -0.35586,-0.33613c-0.11173,-0.06302 -0.21966,-0.09454 -0.32372,-0.09454c-0.1408,0 -0.26631,0.03501 -0.37652,0.10504c-0.11174,0.06828 -0.19974,0.16369 -0.26403,0.28623c-0.06429,0.12255 -0.09643,0.2626 -0.09643,0.42016c0,0.16806 0.03366,0.31687 0.10102,0.44642c0.06735,0.12955 0.15689,0.23021 0.26862,0.30199c0.11173,0.07178 0.23267,0.10504 0.36275,0.09979v0.83244c-0.28316,0 -0.52958,-0.07178 -0.73927,-0.21533c-0.20967,-0.1453 -0.37193,-0.34488 -0.48673,-0.59872c-0.11633,-0.25384 -0.17449,-0.54796 -0.17449,-0.88233c0,-0.30987 0.06046,-0.58734 0.18138,-0.83244c0.12092,-0.24684 0.28777,-0.44029 0.5005,-0.58034c0.21273,-0.1418 0.45685,-0.2127 0.73238,-0.2127c0.20204,0 0.37192,0.03151 0.50968,0.09454c0.13623,0.06127 0.26251,0.15406 0.37883,0.27835c0.11479,0.1243 0.24258,0.27835 0.38341,0.46217l1.13877,1.47055l-0.17678,0.07353v-2.37914h0.66582z" fill="url(#color-50)" stroke="url(#color-51)"/><path d="M229.55287,185.90967c0,0.33516 -0.06206,0.63099 -0.18614,0.88749c-0.12557,0.2548 -0.30051,0.45401 -0.52476,0.59765c-0.22427,0.14364 -0.4829,0.21546 -0.77593,0.21546h-1.33209c-0.29154,0 -0.54944,-0.07182 -0.77369,-0.21546c-0.22424,-0.14364 -0.39918,-0.34286 -0.52475,-0.59765c-0.1256,-0.2565 -0.18839,-0.55233 -0.18839,-0.88749c0,-0.33516 0.06282,-0.63014 0.18839,-0.88493c0.12556,-0.2548 0.3005,-0.45401 0.52475,-0.59765c0.22424,-0.14535 0.48214,-0.21803 0.77369,-0.21803h1.33209c0.29304,0 0.55168,0.07268 0.77593,0.21803c0.22425,0.14364 0.39919,0.34286 0.52476,0.59765c0.1241,0.2548 0.18614,0.54977 0.18614,0.88493zM228.89579,185.90966c0,-0.16759 -0.03438,-0.31892 -0.10315,-0.45401c-0.07026,-0.13509 -0.16445,-0.24197 -0.28256,-0.32063c-0.11814,-0.07866 -0.24968,-0.11799 -0.39471,-0.11799h-1.43301c-0.14653,0 -0.27884,0.03933 -0.39695,0.11799c-0.11808,0.07866 -0.21153,0.18554 -0.2803,0.32063c-0.07027,0.13509 -0.1054,0.28643 -0.1054,0.45401c0,0.16587 0.03513,0.31721 0.1054,0.45401c0.06875,0.13509 0.16219,0.24197 0.2803,0.32063c0.11813,0.07866 0.25043,0.11799 0.39695,0.11799h1.43301c0.14505,0 0.2766,-0.03933 0.39471,-0.11799c0.1181,-0.07866 0.21229,-0.18554 0.28256,-0.32063c0.06877,-0.13681 0.10315,-0.28814 0.10315,-0.45401z" fill="url(#color-52)" stroke="url(#color-53)"/></g></g><path d="M262.8849,178.7381v-0.92857h2.18574v0.92857z" data-paper-data="{&quot;index&quot;:null}" fill="#ff0000" stroke="none" stroke-width="0" stroke-linecap="butt"/><path d="M214.99288,178.7381v-0.92857h2.18574v0.92857z" data-paper-data="{&quot;index&quot;:null}" fill="#ff0000" stroke="none" stroke-width="0" stroke-linecap="butt"/></g></g></svg>