<svg version="1.1" xmlns="http://www.w3.org/2000/svg" xmlns:xlink="http://www.w3.org/1999/xlink" width="90" height="87" viewBox="0,0,90,87"><g transform="translate(-195,-136.5)"><g data-paper-data="{&quot;isPaintingLayer&quot;:true}" fill-rule="nonzero" stroke="none" stroke-linejoin="miter" stroke-miterlimit="10" stroke-dasharray="" stroke-dashoffset="0" style="mix-blend-mode: normal"><path d="M231.15,187.61252v-3.4h2.5v3.4z" fill="#bbbbbb" stroke-width="0" stroke-linecap="butt"/><path d="M231.85,181.41252v-3.2h2.5v3.2z" fill="#bbbbbb" stroke-width="0" stroke-linecap="butt"/><path d="M231.84669,181.73227l1.54801,-13.64767h15.00612v4.45446h-10.64643l-0.66342,5.74971c1.26367,-0.67397 2.61157,-1.01093 4.04375,-1.01093c2.5484,0 4.53869,0.7898 5.97087,2.36939c1.45322,1.57959 2.17984,3.80155 2.17984,6.66589c0,1.72701 -0.36856,3.27501 -1.10571,4.644c-0.71607,1.36899 -1.7586,2.43258 -3.12758,3.19079c-1.3479,0.75821 -2.94858,1.1373 -4.80195,1.1373c-1.62173,0 -3.12758,-0.32645 -4.51762,-0.97934c-1.39004,-0.67397 -2.48521,-1.60064 -3.28555,-2.78008c-0.80034,-1.20049 -1.23207,-2.55892 -1.29525,-4.07533h5.27584c0.10531,1.11626 0.49493,1.9903 1.16891,2.62213c0.67398,0.61079 1.54801,0.91617 2.62213,0.91617c1.20049,0 2.12719,-0.43175 2.78008,-1.29525c0.65289,-0.86352 0.97935,-2.0956 0.97935,-3.69624c0,-1.51641 -0.37911,-2.67476 -1.13731,-3.47509c-0.73715,-0.82139 -1.79019,-1.23207 -3.15918,-1.23207c-1.26367,0 -2.29566,0.33697 -3.096,1.01093l-0.50547,0.47389z" fill="#bbbbbb" stroke-width="1" stroke-linecap="square"/><path d="M231.96509,178.36247l1.54801,-13.64767h15.0061v4.45446h-10.64643l-0.66342,5.74971c1.26367,-0.67395 2.61159,-1.01094 4.04375,-1.01094c2.54841,0 4.53869,0.78981 5.97084,2.3694c1.45322,1.57959 2.17985,3.80155 2.17985,6.66588c0,1.72702 -0.36856,3.27501 -1.10571,4.644c-0.71609,1.36897 -1.7586,2.43258 -3.12759,3.19079c-1.34792,0.75821 -2.94856,1.1373 -4.80195,1.1373c-1.6217,0 -3.12758,-0.32645 -4.51762,-0.97933c-1.39004,-0.67395 -2.48523,-1.60067 -3.28555,-2.78008c-0.80032,-1.20049 -1.23208,-2.55892 -1.29525,-4.07533h5.27585c0.1053,1.11624 0.49493,1.9903 1.16891,2.62213c0.67395,0.61077 1.54801,0.91617 2.62213,0.91617c1.20049,0 2.12718,-0.43175 2.78008,-1.29525c0.6529,-0.8635 0.97935,-2.0956 0.97935,-3.69624c0,-1.51641 -0.3791,-2.67477 -1.1373,-3.47509c-0.73714,-0.82139 -1.79021,-1.23207 -3.15918,-1.23207c-1.26367,0 -2.29568,0.33698 -3.096,1.01093l-0.50547,0.47389z" fill="#f3f3f3" stroke-width="1" stroke-linecap="square"/><path d="M195,223.5v-87h90v87z" fill="none" stroke-width="0" stroke-linecap="butt"/></g></g></svg>