<svg version="1.1" xmlns="http://www.w3.org/2000/svg" xmlns:xlink="http://www.w3.org/1999/xlink" width="52.9939" height="73.65449" viewBox="0,0,52.9939,73.65449"><defs><radialGradient cx="242.81802" cy="206.62799" r="12.35459" gradientUnits="userSpaceOnUse" id="color-1"><stop offset="0" stop-color="#fcec00"/><stop offset="1" stop-color="#fcec00" stop-opacity="0"/></radialGradient><linearGradient x1="242.55535" y1="204.32197" x2="242.55535" y2="221.1856" gradientUnits="userSpaceOnUse" id="color-2"><stop offset="0" stop-color="#ffffff"/><stop offset="1" stop-color="#ffffff" stop-opacity="0"/></linearGradient><radialGradient cx="242.32538" cy="208.21142" r="8.89813" gradientUnits="userSpaceOnUse" id="color-3"><stop offset="0" stop-color="#f5eb75"/><stop offset="1" stop-color="#f5eb75" stop-opacity="0"/></radialGradient><linearGradient x1="243.14585" y1="125.00033" x2="243.14585" y2="219.02638" gradientUnits="userSpaceOnUse" id="color-4"><stop offset="0" stop-color="#a300f2"/><stop offset="1" stop-color="#a300f2" stop-opacity="0"/></linearGradient><linearGradient x1="243.38357" y1="96.98157" x2="243.38357" y2="225.00218" gradientUnits="userSpaceOnUse" id="color-5"><stop offset="0" stop-color="#f1f1f1"/><stop offset="1" stop-color="#f1f1f1" stop-opacity="0"/></linearGradient><linearGradient x1="242.37528" y1="204.61822" x2="242.37528" y2="212.52598" gradientUnits="userSpaceOnUse" id="color-6"><stop offset="0" stop-color="#ff4f00"/><stop offset="1" stop-color="#ff4f00" stop-opacity="0"/></linearGradient><linearGradient x1="242.44327" y1="204.86496" x2="242.44327" y2="210.21079" gradientUnits="userSpaceOnUse" id="color-7"><stop offset="0" stop-color="#ffd400"/><stop offset="1" stop-color="#ffd400" stop-opacity="0"/></linearGradient><linearGradient x1="242.44556" y1="204.5069" x2="242.44556" y2="213.38922" gradientUnits="userSpaceOnUse" id="color-8"><stop offset="0" stop-color="#ffee00"/><stop offset="1" stop-color="#ffee00" stop-opacity="0"/></linearGradient><linearGradient x1="242.51808" y1="204.43395" x2="242.51808" y2="208.32133" gradientUnits="userSpaceOnUse" id="color-9"><stop offset="0" stop-color="#ffee00"/><stop offset="1" stop-color="#ffee00" stop-opacity="0"/></linearGradient><linearGradient x1="240.47531" y1="204.5069" x2="240.47531" y2="208.39428" gradientUnits="userSpaceOnUse" id="color-10"><stop offset="0" stop-color="#ffee00"/><stop offset="1" stop-color="#ffee00" stop-opacity="0"/></linearGradient><linearGradient x1="244.56084" y1="204.5069" x2="244.56084" y2="208.39428" gradientUnits="userSpaceOnUse" id="color-11"><stop offset="0" stop-color="#ffee00"/><stop offset="1" stop-color="#ffee00" stop-opacity="0"/></linearGradient><radialGradient cx="242.48595" cy="208.4453" r="6.32236" gradientUnits="userSpaceOnUse" id="color-12"><stop offset="0" stop-color="#feea00"/><stop offset="1" stop-color="#feea00" stop-opacity="0"/></radialGradient><radialGradient cx="242.32114" cy="207.64308" r="6.32236" gradientUnits="userSpaceOnUse" id="color-13"><stop offset="0" stop-color="#feea00"/><stop offset="1" stop-color="#feea00" stop-opacity="0"/></radialGradient><linearGradient x1="246.408" y1="206.18876" x2="238.78" y2="206.18876" gradientUnits="userSpaceOnUse" id="color-14"><stop offset="0" stop-color="#5f5f5f"/><stop offset="1" stop-color="#4c4c4c"/></linearGradient><linearGradient x1="246.408" y1="206.18876" x2="238.78" y2="206.18876" gradientUnits="userSpaceOnUse" id="color-15"><stop offset="0" stop-color="#949494"/><stop offset="1" stop-color="#757575"/></linearGradient><linearGradient x1="246.17278" y1="204.38712" x2="243.69794" y2="204.38712" gradientUnits="userSpaceOnUse" id="color-16"><stop offset="0" stop-color="#4c4c4c"/><stop offset="1" stop-color="#4c4c4c" stop-opacity="0"/></linearGradient><linearGradient x1="239.01577" y1="204.38711" x2="241.4906" y2="204.38711" gradientUnits="userSpaceOnUse" id="color-17"><stop offset="0" stop-color="#5f5f5f"/><stop offset="1" stop-color="#5f5f5f" stop-opacity="0"/></linearGradient><linearGradient x1="246.70223" y1="163.39694" x2="239.56358" y2="163.39694" gradientUnits="userSpaceOnUse" id="color-18"><stop offset="0" stop-color="#d40000"/><stop offset="1" stop-color="#a30000"/></linearGradient><linearGradient x1="244.77471" y1="168.03861" x2="239.89621" y2="168.03861" gradientUnits="userSpaceOnUse" id="color-19"><stop offset="0" stop-color="#5f5f5f"/><stop offset="1" stop-color="#a8a8a8"/></linearGradient><linearGradient x1="242.29817" y1="161.71597" x2="242.29817" y2="162.65146" gradientUnits="userSpaceOnUse" id="color-20"><stop offset="0" stop-color="#7a7a7a"/><stop offset="1" stop-color="#646464"/></linearGradient><linearGradient x1="243.13359" y1="165.34273" x2="242.96472" y2="165.34273" gradientUnits="userSpaceOnUse" id="color-21"><stop offset="0" stop-color="#00eeec"/><stop offset="1" stop-color="#1cfff4"/></linearGradient><linearGradient x1="251.46693" y1="180.9376" x2="248.27714" y2="180.9376" gradientUnits="userSpaceOnUse" id="color-22"><stop offset="0" stop-color="#dedede"/><stop offset="1" stop-color="#dedede" stop-opacity="0"/></linearGradient><linearGradient x1="246.5871" y1="204.14046" x2="238.60409" y2="204.14046" gradientUnits="userSpaceOnUse" id="color-23"><stop offset="0" stop-color="#888888"/><stop offset="1" stop-color="#696969"/></linearGradient><linearGradient x1="233.42281" y1="185.71537" x2="230.98357" y2="185.71537" gradientUnits="userSpaceOnUse" id="color-24"><stop offset="0" stop-color="#dd0000"/><stop offset="1" stop-color="#dd0000" stop-opacity="0"/></linearGradient><linearGradient x1="233.45296" y1="196.22199" x2="230.9199" y2="196.22199" gradientUnits="userSpaceOnUse" id="color-25"><stop offset="0" stop-color="#dfdfdf"/><stop offset="1" stop-color="#dfdfdf" stop-opacity="0"/></linearGradient><linearGradient x1="242.65762" y1="206.57576" x2="242.65762" y2="212.84849" gradientUnits="userSpaceOnUse" id="color-26"><stop offset="0" stop-color="#fde704"/><stop offset="1" stop-color="#fde704" stop-opacity="0"/></linearGradient><linearGradient x1="241.13451" y1="178.09019" x2="243.64342" y2="178.09019" gradientUnits="userSpaceOnUse" id="color-27"><stop offset="0" stop-color="#c7ffff"/><stop offset="1" stop-color="#91f5f5"/></linearGradient><linearGradient x1="240.52083" y1="192.79167" x2="244.14583" y2="192.79167" gradientUnits="userSpaceOnUse" id="color-28"><stop offset="0" stop-color="#bf0000"/><stop offset="1" stop-color="#bf0000"/></linearGradient><linearGradient x1="240.52083" y1="198.47917" x2="244.14583" y2="198.47917" gradientUnits="userSpaceOnUse" id="color-29"><stop offset="0" stop-color="#bf0000"/><stop offset="1" stop-color="#bf0000"/></linearGradient></defs><g transform="translate(-214.17277,-152.74625)"><g data-paper-data="{&quot;isPaintingLayer&quot;:true}" fill-rule="nonzero" stroke-linejoin="miter" stroke-miterlimit="10" stroke-dasharray="" stroke-dashoffset="0" style="mix-blend-mode: normal"><path d="M255.00788,206.62799c0,6.82325 -5.45758,12.35459 -12.18986,12.35459c-6.73227,0 -12.18987,-5.53134 -12.18987,-12.35459c0,-6.82325 5.45759,-12.35459 12.18987,-12.35459c6.73227,0 12.18986,5.53134 12.18986,12.35459z" fill="url(#color-1)" stroke="none" stroke-width="0" stroke-linecap="butt"/><g data-paper-data="{&quot;index&quot;:null}" stroke-width="0"><path d="M245.05535,204.32197l-2.5,16.86364l-2.5,-16.86364z" fill="url(#color-2)" stroke="#000000" stroke-linecap="round"/><path d="M242.32538,200.33696c4.31079,0 7.80538,3.52552 7.80538,7.87446c0,4.34894 -3.49458,7.87446 -7.80538,7.87446c-4.3108,0 -7.80538,-3.52552 -7.80538,-7.87446c0,-4.34894 3.49458,-7.87446 7.80538,-7.87446z" fill="url(#color-3)" stroke="none" stroke-linecap="butt"/><g stroke="#000000" stroke-linecap="round"><path d="M244.70804,205.12111l-2.35162,14.93246l-1.99752,-14.93246z" fill="url(#color-4)"/><path d="M245.51055,206.06953l-3.20183,20.33121l-2.71971,-20.33121z" fill="url(#color-5)"/><path d="M243.54681,204.61822c0,0 1.85822,0.46537 1.8305,2.41626c-0.06512,4.58168 -2.70914,5.49149 -2.70914,5.49149c0,0 -3.13397,-1.02334 -3.2949,-5.49149c-0.06733,-1.86924 1.90371,-2.41626 1.90371,-2.41626z" fill="url(#color-6)"/><path d="M243.23525,204.86496c0,0 1.2562,0.3146 1.23746,1.63345c-0.04402,3.09733 -1.83145,3.71239 -1.83145,3.71239c0,0 -2.11864,-0.69182 -2.22743,-3.71239c-0.04551,-1.26365 1.28696,-1.63345 1.28696,-1.63345z" fill="url(#color-7)"/><path d="M243.76146,204.5069c0,0 2.08723,0.52272 2.05609,2.71404c-0.07315,5.14633 -3.04302,6.16828 -3.04302,6.16828c0,0 -3.52021,-1.14947 -3.70096,-6.16828c-0.07562,-2.0996 2.13833,-2.71404 2.13833,-2.71404z" fill="url(#color-8)"/><path d="M243.09399,204.43395c0,0 0.91349,0.22877 0.89985,1.18781c-0.03201,2.25231 -1.33179,2.69957 -1.33179,2.69957c0,0 -1.54063,-0.50307 -1.61974,-2.69957c-0.03309,-0.9189 0.93585,-1.18781 0.93585,-1.18781z" fill="url(#color-9)"/><path d="M241.05122,204.5069c0,0 0.91349,0.22877 0.89986,1.18781c-0.03201,2.25231 -1.33179,2.69957 -1.33179,2.69957c0,0 -1.54064,-0.50307 -1.61975,-2.69957c-0.0331,-0.91889 0.93585,-1.18781 0.93585,-1.18781z" fill="url(#color-10)"/><path d="M245.13676,204.5069c0,0 0.91349,0.22877 0.89986,1.18781c-0.03201,2.25231 -1.33179,2.69957 -1.33179,2.69957c0,0 -1.54064,-0.50307 -1.61975,-2.69957c-0.0331,-0.91889 0.93585,-1.18781 0.93585,-1.18781z" fill="url(#color-11)"/></g><path d="M242.48595,202.85029c3.06294,0 5.54593,2.50497 5.54593,5.59501c0,3.09004 -2.483,5.59501 -5.54593,5.59501c-3.06294,0 -5.54593,-2.50497 -5.54593,-5.59501c0,-3.09004 2.483,-5.59501 5.54593,-5.59501z" fill="url(#color-12)" stroke="none" stroke-linecap="butt"/><path d="M242.32115,202.04807c3.06294,0 5.54593,2.50497 5.54593,5.59501c0,3.09004 -2.48299,5.59501 -5.54593,5.59501c-3.06294,0 -5.54593,-2.50497 -5.54593,-5.59501c0,-3.09003 2.48299,-5.59501 5.54593,-5.59501z" fill="url(#color-13)" stroke="none" stroke-linecap="butt"/></g><path d="M230.33944,181.29166l1,18.16666l-14.66667,-7.66666v-10.66666z" data-paper-data="{&quot;index&quot;:null}" fill="none" stroke="#bf0000" stroke-width="5" stroke-linecap="round"/><g data-paper-data="{&quot;index&quot;:null}" fill="#cecece"><path d="M237.08696,156.51579v-3.54545h2.90909v3.54545z" stroke="none" stroke-width="0" stroke-linecap="butt"/><path d="M243.00436,199.71626l-10.10296,-0.0566l-2.5722,-0.71141l-0.18805,-37.7619l5.71689,-5.42857v15.95287c0,0 0.69143,1.79051 2.55923,1.79051c1.90103,0 2.59992,-1.92095 2.59992,-1.92095v-15.66277l5.57746,5.42857l0.15778,37.58147z" stroke="#cecece" stroke-width="2.5" stroke-linecap="round"/></g><path d="M242.594,205.34785c2.10642,0 3.814,0.37649 3.814,0.84091c0,0.46442 -1.70759,0.84091 -3.814,0.84091c-2.10642,0 -3.814,-0.37649 -3.814,-0.84091c0,-0.46442 1.70759,-0.84091 3.814,-0.84091z" fill="url(#color-14)" stroke="url(#color-15)" stroke-width="0.5" stroke-linecap="butt"/><path d="M246.17279,206.24918c0,0 -0.70154,0.27881 -1.09555,0.35477c-0.43634,0.08412 -1.40841,0.12799 -1.40841,0.12799l0.02911,-4.2069h2.47484v3.72414z" fill="url(#color-16)" stroke="none" stroke-width="0" stroke-linecap="butt"/><path d="M239.01576,206.24918v-3.72414h2.47485l0.02911,4.2069c0,0 -0.97208,-0.04386 -1.40841,-0.12799c-0.394,-0.07597 -1.09555,-0.35477 -1.09555,-0.35477z" data-paper-data="{&quot;index&quot;:null}" fill="url(#color-17)" stroke="none" stroke-width="0" stroke-linecap="butt"/><path d="M246.70224,173.48785l-7.13865,-1.36364l1.1514,-16.90909c0,0 0.34316,0.18974 0.69084,0.09091c0.34767,-0.09882 0.66615,-0.18471 1.22814,-0.63636c0.562,-0.45165 1.30492,-1.36364 1.30492,-1.36364z" fill="url(#color-18)" stroke="#ff0000" stroke-width="0" stroke-linecap="round"/><path d="M239.8962,173.9376v-11.79798h4.87851v11.79798z" fill="url(#color-19)" stroke="none" stroke-width="0" stroke-linecap="butt"/><path d="M242.29819,161.71597c1.00445,0 1.81872,0.20942 1.81872,0.46775c0,0.25833 -0.81428,0.46774 -1.81872,0.46774c-1.00444,0 -1.81871,-0.20941 -1.81871,-0.46774c0,-0.25833 0.81427,-0.46775 1.81871,-0.46775z" fill="url(#color-20)" stroke="#7e7e7e" stroke-width="0.5" stroke-linecap="butt"/><path d="M264.00436,194.88167v-1.9375h0.89712v1.9375z" fill="#d80000" stroke="none" stroke-width="0" stroke-linecap="butt"/><path d="M264.42654,194.81917l-14.24852,8.375h-7.65199" fill="none" stroke="#d80000" stroke-width="1" stroke-linecap="round"/><path d="M264.37377,193.94417l-14.24852,8.375h-7.65199" fill="none" stroke="#d80000" stroke-width="1" stroke-linecap="round"/><path d="M264.53208,193.00667l-14.24852,8.375h-7.65199" fill="none" stroke="#d80000" stroke-width="1" stroke-linecap="round"/><path d="M264.92787,192.40751l-14.90523,8.625l-7.68213,0.03917l-0.03989,-21.91417l22.26746,-0.125z" fill="#ff0000" stroke="#b6b6b6" stroke-width="0" stroke-linecap="round"/><path d="M264.17147,179.11431l0.01082,13.58974" fill="none" stroke="#df0000" stroke-width="0.5" stroke-linecap="round"/><path d="M263.17014,192.28313l-0.06495,-12.23077" fill="none" stroke="#f00000" stroke-width="2" stroke-linecap="round"/><path d="M262.28172,180.4159v-1.35714h1.62839v1.35714z" fill="#f00000" stroke="none" stroke-width="0" stroke-linecap="butt"/><path d="M243.40431,199.77305v-19.28572" fill="none" stroke="#f00000" stroke-width="2.5" stroke-linecap="round"/><path d="M242.31871,183.9159v-4.71428h2.11089v4.71428z" fill="#f00000" stroke="none" stroke-width="0" stroke-linecap="butt"/><path d="M242.31871,200.98733v-6h2.11089v6z" fill="#f00000" stroke="none" stroke-width="0" stroke-linecap="butt"/><path d="M253.47627,182.98733v9.5c0,0 -0.17626,2.19082 -2.2295,2.17661c-2.0282,-0.01403 -2.23352,-2.10518 -2.23352,-2.10518l-0.06031,-9.57143z" fill="#f70000" stroke="#fa0000" stroke-width="1" stroke-linecap="round"/><path d="M251.86673,184.88167v7.1875" fill="none" stroke="#f50000" stroke-width="1" stroke-linecap="round"/><path d="M250.33633,192.63167l-0.10554,-8.6875" fill="none" stroke="#f50000" stroke-width="1" stroke-linecap="round"/><path d="M252.49999,183.00667l-2.63861,-0.0625" fill="none" stroke="#f50000" stroke-width="1" stroke-linecap="round"/><path d="M259.88811,181.31917v7.9375" fill="none" stroke="#fa0000" stroke-width="1" stroke-linecap="round"/><path d="M254.82198,194.13167v-11.875" fill="none" stroke="#fa0000" stroke-width="1" stroke-linecap="round"/><path d="M247.64495,184.44417l0.05277,11.1875" fill="none" stroke="#fa0000" stroke-width="1" stroke-linecap="round"/><path d="M257.09118,194.50667l-0.10554,-5.125" fill="none" stroke="#fa0000" stroke-width="1" stroke-linecap="round"/><path d="M245.6396,181.56917l-0.05277,11" fill="none" stroke="#fa0000" stroke-width="1" stroke-linecap="round"/><path d="M242.05108,203.13168v-2.0625h0.52772v2.0625z" fill="#d80000" stroke="none" stroke-width="0" stroke-linecap="butt"/><g data-paper-data="{&quot;index&quot;:null}"><path d="M219.77741,194.88167v-1.9375h0.89712v1.9375z" fill="#d80000" stroke="none" stroke-width="0" stroke-linecap="butt"/><path d="M242.15287,203.19417h-7.65199l-14.24852,-8.375" fill="none" stroke="#d80000" stroke-width="1" stroke-linecap="round"/><path d="M242.20564,202.31917h-7.65199l-14.24852,-8.375" fill="none" stroke="#d80000" stroke-width="1" stroke-linecap="round"/><path d="M242.04733,201.38167h-7.65199l-14.24852,-8.375" fill="none" stroke="#d80000" stroke-width="1" stroke-linecap="round"/><path d="M220.1108,179.03251l22.26746,0.125l-0.03989,21.91417l-7.68213,-0.03917l-14.90523,-8.625z" fill="#ff0000" stroke="#b6b6b6" stroke-width="0" stroke-linecap="round"/><path d="M219.01221,192.03251v-13.125" fill="none" stroke="#b6b6b6" stroke-width="3" stroke-linecap="round"/><path d="M220.49659,192.70405l0.01082,-13.58974" fill="none" stroke="#df0000" stroke-width="0.5" stroke-linecap="round"/><path d="M219.43032,192.05236v-13" fill="none" stroke="#c2c2c2" stroke-width="2" stroke-linecap="round"/><path d="M221.57369,180.05236l-0.06495,12.23077" fill="none" stroke="#f00000" stroke-width="2" stroke-linecap="round"/><path d="M220.76879,180.4159v-1.35714h1.62839v1.35714z" fill="#f00000" stroke="none" stroke-width="0" stroke-linecap="butt"/><path d="M241.27457,180.48733v19.28572" fill="none" stroke="#f00000" stroke-width="2.5" stroke-linecap="round"/><path d="M240.24929,183.9159v-4.71428h2.11089v4.71428z" fill="#f00000" stroke="none" stroke-width="0" stroke-linecap="butt"/><path d="M240.24929,200.98733v-6h2.11089v6z" fill="#f00000" stroke="none" stroke-width="0" stroke-linecap="butt"/><path d="M235.72594,182.98733l-0.06031,9.57143c0,0 -0.20532,2.09115 -2.23352,2.10518c-2.05323,0.01421 -2.2295,-2.17661 -2.2295,-2.17661v-9.5z" fill="#f70000" stroke="#fa0000" stroke-width="1" stroke-linecap="round"/><path d="M232.81217,192.06917v-7.1875" fill="none" stroke="#f50000" stroke-width="1" stroke-linecap="round"/><path d="M234.34255,192.63167l0.10554,-8.6875" fill="none" stroke="#f50000" stroke-width="1" stroke-linecap="round"/><path d="M232.17888,183.00667l2.63861,-0.0625" fill="none" stroke="#f50000" stroke-width="1" stroke-linecap="round"/><path d="M224.79078,181.31917v7.9375" fill="none" stroke="#fa0000" stroke-width="1" stroke-linecap="round"/><path d="M229.85691,194.13167v-11.875" fill="none" stroke="#fa0000" stroke-width="1" stroke-linecap="round"/><path d="M236.98117,195.63167l0.05277,-11.1875" fill="none" stroke="#fa0000" stroke-width="1" stroke-linecap="round"/><path d="M227.58771,194.50667l0.10554,-5.125" fill="none" stroke="#fa0000" stroke-width="1" stroke-linecap="round"/><path d="M239.09206,192.56917l-0.05277,-11" fill="none" stroke="#fa0000" stroke-width="1" stroke-linecap="round"/><path d="M242.10008,203.13168v-2.0625h0.52772v2.0625z" fill="#d80000" stroke="none" stroke-width="0" stroke-linecap="butt"/></g><path d="M241.41544,167.78049v-4.77419h0.2179v4.77419z" fill="#1dfffb" stroke="none" stroke-width="0" stroke-linecap="butt"/><path d="M243.63185,153.57877l-0.07676,17.45455c0,0 -0.21603,0.86024 -1.15139,0.90909c-0.95726,0.04999 -1.30492,-0.90909 -1.30492,-0.90909v-17.45455" fill="none" stroke="#acacac" stroke-width="1" stroke-linecap="round"/><path d="M246.83869,199.68444l-9.76797,-0.0566l-2.48691,-0.71141l-0.18181,-37.7619l5.52733,-5.42857v15.95287c0,0 0.6685,1.79051 2.47437,1.79051c1.83799,0 2.51371,-1.92095 2.51371,-1.92095v-15.66277l5.39253,5.42857l0.15255,37.58147z" fill="#ff0000" stroke="#ff0000" stroke-width="2.5" stroke-linecap="round"/><path d="M246.46343,177.38205l-0.09382,18.33333" fill="none" stroke="#fa0000" stroke-width="1" stroke-linecap="round"/><path d="M236.61261,177.38205l-0.09382,11.77777" fill="none" stroke="#fa0000" stroke-width="1" stroke-linecap="round"/><path d="M238.77039,195.60426l0.18764,-10.66666" fill="none" stroke="#fa0000" stroke-width="1" stroke-linecap="round"/><path d="M244.6809,186.38205v13.33333" fill="none" stroke="#fa0000" stroke-width="1" stroke-linecap="round"/><path d="M240.08385,173.82649l0.09382,7" fill="none" stroke="#fa0000" stroke-width="1" stroke-linecap="round"/><path d="M247.12015,159.49315l0.18764,13.77777" fill="none" stroke="#fa0000" stroke-width="1" stroke-linecap="round"/><path d="M235.58061,172.60426l-0.18764,-12.11111" fill="none" stroke="#fa0000" stroke-width="1" stroke-linecap="round"/><path d="M237.92604,174.15982l-0.28145,-13" fill="none" stroke="#fa0000" stroke-width="1" stroke-linecap="round"/><path d="M242.96472,167.69273v-4.7h0.16887v4.7z" fill="url(#color-21)" stroke="none" stroke-width="0" stroke-linecap="butt"/><path d="M242.20532,167.87726v-4.80645h0.19066v4.80645z" fill="#1dfffb" stroke="none" stroke-width="0" stroke-linecap="butt"/><path d="M243.74216,183.43112l-1.23307,0.6931l-1.23307,-0.54738v-7.72276l1.27162,-0.91167l1.19454,1.05738z" fill="#8cffff" stroke="#7e7e7e" stroke-width="0.5" stroke-linecap="round"/><path d="M243.68703,176.11191l-1.10822,0.875l-1.21376,-1.125" fill="none" stroke="#55eded" stroke-width="0.5" stroke-linecap="round"/><path d="M241.57615,183.48691l1.05544,-0.8125l0.84435,0.6875" fill="none" stroke="#55eded" stroke-width="0.5" stroke-linecap="round"/><path d="M242.52603,175.17441l0.05277,1.5l-0.05277,6.5625l-0.15832,0.5625" fill="none" stroke="#4fdada" stroke-width="0.5" stroke-linecap="round"/><path d="M243.74216,183.43112l-1.23307,0.6931l-1.23307,-0.54738v-7.72276l1.27162,-0.91167l1.19454,1.05738z" fill="none" stroke="#7e7e7e" stroke-width="0.5" stroke-linecap="round"/><path d="M242.32877,182.49832l-0.82426,0.78572l0.0201,-6.9881l0.78404,0.82143z" fill="#5cffff" stroke="none" stroke-width="0" stroke-linecap="round"/><path d="M242.17314,183.66588l-0.43579,-0.13243l0.58489,-0.37012z" fill="#57f3f3" stroke="#56eeee" stroke-width="0" stroke-linecap="round"/><path d="M242.74882,177.1343l0.82426,-0.78572l-0.0201,6.80388l-0.78405,-0.66353z" data-paper-data="{&quot;index&quot;:null}" fill="#87ffff" stroke="none" stroke-width="0" stroke-linecap="round"/><path d="M242.73725,183.08438l0.51823,0.37011l-0.63578,0.34296z" data-paper-data="{&quot;index&quot;:null}" fill="#5afbfb" stroke="#56eeee" stroke-width="0" stroke-linecap="round"/><path d="M251.46696,160.88205l-0.09382,39.33333l-1.31345,0.66667h-4.78469v-13.66667l3.37743,-3.77778v-11.77778l-1.68872,-1.88889l-0.09382,-13.44444z" fill="#ffffff" stroke="#f5f5f5" stroke-width="0.5" stroke-linecap="round"/><path d="M250.2473,201.04872h-1.97016v-43.55556l3.18979,3.33333v39.44444z" fill="url(#color-22)" stroke="none" stroke-width="0" stroke-linecap="butt"/><path d="M237.9887,156.10427l-0.09382,13.44444l-1.68872,1.88889v11.77778l3.37743,3.77777v13.66667h-4.78468l-1.31345,-0.66667l-0.09382,-39.33333z" data-paper-data="{&quot;index&quot;:null}" fill="#ffffff" stroke="#f5f5f5" stroke-width="0.5" stroke-linecap="round"/><path d="M251.53426,192.91723l12.74979,-2.3l-0.08443,2l-12.66535,7.6z" fill="#ffffff" stroke="#f5f5f5" stroke-width="0.5" stroke-linecap="round"/><path d="M233.21173,199.81723l-12.7303,-7.6c0,0 -0.00776,-0.79603 -0.01122,-1.15051c-0.00297,-0.3046 -0.00828,-0.84949 -0.00828,-0.84949l12.74979,2.3z" data-paper-data="{&quot;index&quot;:null}" fill="#ffffff" stroke="#f5f5f5" stroke-width="0.5" stroke-linecap="round"/><g fill="none" stroke-linecap="round"><path d="M265.66667,192.03251v-13.125" stroke="#b6b6b6" stroke-width="3"/><path d="M265.24856,179.05236v13" stroke="#c2c2c2" stroke-width="2"/></g><path d="M246.58712,206.27682c0,0 -2.11188,-0.63636 -3.95313,-0.63636c-1.81566,0 -4.02989,0.63636 -4.02989,0.63636v-4.27273c0,0 2.14372,-0.48772 3.9915,-0.5c1.84845,-0.01228 3.9915,0.5 3.9915,0.5v4.27273z" fill="url(#color-23)" stroke="none" stroke-width="0" stroke-linecap="butt"/><path d="M230.98356,191.76639v-12.60657h2.43925v13.11111z" fill="url(#color-24)" stroke="none" stroke-width="0" stroke-linecap="butt"/><path d="M230.91989,198.72199v-6.92857l2.53307,0.5v7.85714z" fill="url(#color-25)" stroke="none" stroke-width="0" stroke-linecap="butt"/><g><g><path d="M259.32921,182.20863v-4.09091" fill="none" stroke="#b6b6b6" stroke-width="2.5" stroke-linecap="round"/><path d="M258.08186,183.19349v-3.91667" fill="none" stroke="#df0000" stroke-width="0.5" stroke-linecap="round"/><path d="M256.56585,183.41319v-4.31818h1.34329v4.31818z" fill="#f00000" stroke="none" stroke-width="0" stroke-linecap="butt"/></g><path d="M258.94541,178.27682l0.03837,4.18182" fill="none" stroke="#c2c2c2" stroke-width="1.5" stroke-linecap="round"/></g><g data-paper-data="{&quot;index&quot;:null}"><g><path d="M225.59332,182.20864v-4.09091" fill="none" stroke="#b6b6b6" stroke-width="2.5" stroke-linecap="round"/><path d="M226.84068,183.19348v-3.91666" fill="none" stroke="#df0000" stroke-width="0.5" stroke-linecap="round"/><path d="M227.01339,183.4132v-4.31819h1.34329v4.31818z" fill="#f00000" stroke="none" stroke-width="0" stroke-linecap="butt"/></g><path d="M225.97712,178.27682l-0.03837,4.18182" fill="none" stroke="#c2c2c2" stroke-width="1.5" stroke-linecap="round"/></g><path d="M239.24351,202.03592v3.68" fill="none" stroke="#656565" stroke-width="0.5" stroke-linecap="round"/><path d="M240.22296,205.47592v-3.64" fill="none" stroke="#6a6a6a" stroke-width="0.5" stroke-linecap="round"/><path d="M241.16863,205.35592l-0.03377,-3.64" fill="none" stroke="#6f6f6f" stroke-width="0.5" stroke-linecap="round"/><path d="M242.08053,201.63592l0.06755,3.68" fill="none" stroke="#747474" stroke-width="0.5" stroke-linecap="round"/><path d="M243.06,201.59592l0.03377,3.76" fill="none" stroke="#787878" stroke-width="0.5" stroke-linecap="round"/><path d="M244.00567,201.67592v3.76" fill="none" stroke="#7b7b7b" stroke-width="0.5" stroke-linecap="round"/><path d="M239.20307,212.84849v-6.27273c0,0 1.51673,-0.45454 3.45455,-0.45454c1.81656,0 3.45454,0.45454 3.45454,0.45454v6.27273z" data-paper-data="{&quot;index&quot;:null}" fill="url(#color-26)" stroke="none" stroke-width="0" stroke-linecap="butt"/><path d="M239.93571,184.73334v-12.5h4.8v12.5z" fill="#ff0000" stroke="none" stroke-width="0" stroke-linecap="butt"/><g stroke="#a6caca" stroke-width="0.5" stroke-linecap="round"><path d="M243.62559,180.55771c0,0 -0.55811,1.7675 -1.24554,1.7675c-0.68743,0 -1.24554,-1.7675 -1.24554,-1.7675l0.01782,-4.93504c0,0 0.55811,-1.7675 1.24554,-1.7675c0.68744,0 1.24555,1.7675 1.24555,1.7675z" fill="url(#color-27)"/><path d="M241.27207,176.19632h2.15143" fill="none"/><path d="M243.32571,177.58406h-2.05364" fill="none"/><path d="M241.17428,179.80443h2.24922" fill="none"/><path d="M241.08908,178.39882h2.24922" fill="none"/></g><g><path d="M240.52083,196.16667v-6.75h3.625v6.75z" fill="url(#color-28)" stroke="none" stroke-width="0" stroke-linecap="butt"/><path d="M240.52083,199.91667v-2.875h3.625v2.875z" fill="url(#color-29)" stroke="none" stroke-width="0" stroke-linecap="butt"/><g fill="none" stroke="#d4d4d4" stroke-width="1" stroke-linecap="round"><path d="M234.28333,197.13333v3.4"/><path d="M236.88333,197.13333v3.4"/></g><g fill="none" stroke="#d4d4d4" stroke-width="1" stroke-linecap="round"><path d="M247.58333,197.03333v3.4"/><path d="M250.18333,197.03333v3.4"/></g></g></g></g></svg>