<svg version="1.1" xmlns="http://www.w3.org/2000/svg" xmlns:xlink="http://www.w3.org/1999/xlink" width="71.34598" height="39.5" viewBox="0,0,71.34598,39.5"><defs><linearGradient x1="256.2607" y1="185.28835" x2="259.56915" y2="185.28835" gradientUnits="userSpaceOnUse" id="color-1"><stop offset="0" stop-color="#898989"/><stop offset="1" stop-color="#a1a1a1"/></linearGradient><linearGradient x1="261.43016" y1="185.28835" x2="269.90801" y2="185.28835" gradientUnits="userSpaceOnUse" id="color-2"><stop offset="0" stop-color="#898989"/><stop offset="1" stop-color="#a1a1a1"/></linearGradient><linearGradient x1="275.49102" y1="185.37553" x2="280.45367" y2="185.37553" gradientUnits="userSpaceOnUse" id="color-3"><stop offset="0" stop-color="#a1a1a1"/><stop offset="1" stop-color="#898989"/></linearGradient><linearGradient x1="271.01185" y1="185.09188" x2="271.01185" y2="188.26836" gradientUnits="userSpaceOnUse" id="color-4"><stop offset="0" stop-color="#b7b7b7" stop-opacity="0"/><stop offset="1" stop-color="#b7b7b7"/></linearGradient><linearGradient x1="285.00503" y1="186.49188" x2="285.00503" y2="189.66836" gradientUnits="userSpaceOnUse" id="color-5"><stop offset="0" stop-color="#b7b7b7" stop-opacity="0"/><stop offset="1" stop-color="#b7b7b7"/></linearGradient><linearGradient x1="256.2607" y1="172.28835" x2="259.56915" y2="172.28835" gradientUnits="userSpaceOnUse" id="color-6"><stop offset="0" stop-color="#898989"/><stop offset="1" stop-color="#a1a1a1"/></linearGradient><linearGradient x1="261.43016" y1="172.28835" x2="269.90801" y2="172.28835" gradientUnits="userSpaceOnUse" id="color-7"><stop offset="0" stop-color="#898989"/><stop offset="1" stop-color="#a1a1a1"/></linearGradient><linearGradient x1="275.49102" y1="172.37553" x2="280.45367" y2="172.37553" gradientUnits="userSpaceOnUse" id="color-8"><stop offset="0" stop-color="#a1a1a1"/><stop offset="1" stop-color="#898989"/></linearGradient><linearGradient x1="271.01185" y1="172.09188" x2="271.01185" y2="175.26836" gradientUnits="userSpaceOnUse" id="color-9"><stop offset="0" stop-color="#b7b7b7" stop-opacity="0"/><stop offset="1" stop-color="#b7b7b7"/></linearGradient><linearGradient x1="285.00503" y1="173.49188" x2="285.00503" y2="176.66836" gradientUnits="userSpaceOnUse" id="color-10"><stop offset="0" stop-color="#b7b7b7" stop-opacity="0"/><stop offset="1" stop-color="#b7b7b7"/></linearGradient><linearGradient x1="219.62836" y1="178.19934" x2="220.81382" y2="178.19934" gradientUnits="userSpaceOnUse" id="color-11"><stop offset="0" stop-color="#b7b7b7" stop-opacity="0"/><stop offset="1" stop-color="#b7b7b7"/></linearGradient><linearGradient x1="239.96164" y1="159.59737" x2="239.96164" y2="165.78551" gradientUnits="userSpaceOnUse" id="color-12"><stop offset="0" stop-color="#ff0000"/><stop offset="1" stop-color="#c50000"/></linearGradient><linearGradient x1="239.77984" y1="191.35411" x2="239.77984" y2="197.54225" gradientUnits="userSpaceOnUse" id="color-13"><stop offset="0" stop-color="#c50000"/><stop offset="1" stop-color="#ff0000"/></linearGradient><linearGradient x1="238.89288" y1="168.14166" x2="238.89288" y2="169.71309" gradientUnits="userSpaceOnUse" id="color-14"><stop offset="0" stop-color="#ca0000" stop-opacity="0"/><stop offset="1" stop-color="#ca0000"/></linearGradient><linearGradient x1="242.1786" y1="174.14167" x2="242.1786" y2="172.57024" gradientUnits="userSpaceOnUse" id="color-15"><stop offset="0" stop-color="#ca0000" stop-opacity="0"/><stop offset="1" stop-color="#ca0000"/></linearGradient><linearGradient x1="233.83025" y1="187.58815" x2="233.83025" y2="189.22813" gradientUnits="userSpaceOnUse" id="color-16"><stop offset="0" stop-color="#b7b7b7"/><stop offset="1" stop-color="#b7b7b7" stop-opacity="0"/></linearGradient><linearGradient x1="233.90166" y1="183.08815" x2="233.90166" y2="184.72813" gradientUnits="userSpaceOnUse" id="color-17"><stop offset="0" stop-color="#b7b7b7" stop-opacity="0"/><stop offset="1" stop-color="#b7b7b7"/></linearGradient><linearGradient x1="232.29454" y1="172.58815" x2="232.29454" y2="174.22813" gradientUnits="userSpaceOnUse" id="color-18"><stop offset="0" stop-color="#b7b7b7"/><stop offset="1" stop-color="#b7b7b7" stop-opacity="0"/></linearGradient><linearGradient x1="230.58025" y1="168.08815" x2="230.58025" y2="169.72813" gradientUnits="userSpaceOnUse" id="color-19"><stop offset="0" stop-color="#b7b7b7" stop-opacity="0"/><stop offset="1" stop-color="#b7b7b7"/></linearGradient><linearGradient x1="250.43738" y1="174.22813" x2="250.43738" y2="172.58815" gradientUnits="userSpaceOnUse" id="color-20"><stop offset="0" stop-color="#b7b7b7" stop-opacity="0"/><stop offset="1" stop-color="#b7b7b7"/></linearGradient><linearGradient x1="250.50882" y1="168.08815" x2="250.50882" y2="169.72813" gradientUnits="userSpaceOnUse" id="color-21"><stop offset="0" stop-color="#b7b7b7" stop-opacity="0"/><stop offset="1" stop-color="#b7b7b7"/></linearGradient><linearGradient x1="247.25004" y1="183.14167" x2="247.25004" y2="184.71309" gradientUnits="userSpaceOnUse" id="color-22"><stop offset="0" stop-color="#ca0000" stop-opacity="0"/><stop offset="1" stop-color="#ca0000"/></linearGradient><linearGradient x1="247.25004" y1="189.14167" x2="247.25004" y2="187.57024" gradientUnits="userSpaceOnUse" id="color-23"><stop offset="0" stop-color="#ca0000" stop-opacity="0"/><stop offset="1" stop-color="#ca0000"/></linearGradient></defs><g transform="translate(-218.13892,-158.69752)"><g data-paper-data="{&quot;isPaintingLayer&quot;:true}" fill-rule="nonzero" stroke-linejoin="miter" stroke-miterlimit="10" stroke-dasharray="" stroke-dashoffset="0" style="mix-blend-mode: normal"><g><path d="M253.07143,163.04752h-22.57143" fill="none" stroke="#c30000" stroke-width="1.5" stroke-linecap="round"/><path d="M230.21431,194.44752h22.57143" fill="none" stroke="#c30000" stroke-width="1.5" stroke-linecap="round"/><g fill="#a1a1a1" stroke="#a1a1a1" stroke-width="0.5" stroke-linecap="butt"><path d="M251.23062,187.99106v-5.23106h31.01662v5.23106z"/><path d="M280.86722,189.38602v-8.19533h8.27111v8.19533z"/><path d="M239.71853,188.51417v-6.45165h21.29807v6.45165z"/></g><path d="M256.2607,188.86291v-7.14913h3.30844v7.14913z" fill="url(#color-1)" stroke="none" stroke-width="0" stroke-linecap="butt"/><path d="M261.43016,188.16543v-5.75417h8.47789v5.75417z" fill="url(#color-2)" stroke="none" stroke-width="0" stroke-linecap="butt"/><path d="M275.49102,188.3398v-5.92854h4.96267v5.92854z" fill="url(#color-3)" stroke="none" stroke-width="0" stroke-linecap="butt"/><path d="M261.43276,188.26836v-3.17647h19.15816v3.17647z" fill="url(#color-4)" stroke="none" stroke-width="0" stroke-linecap="butt"/><path d="M280.52517,189.66836v-3.17647h8.95974v3.17647z" fill="url(#color-5)" stroke="none" stroke-width="0" stroke-linecap="butt"/><g stroke-linecap="butt"><g><g fill="#a1a1a1" stroke="#a1a1a1" stroke-width="0.5"><path d="M251.23062,174.99106v-5.23106h31.01662v5.23106z"/><path d="M280.86722,176.38602v-8.19533h8.27111v8.19533z"/><path d="M239.71853,175.51417v-6.45165h21.29807v6.45165z"/></g><path d="M256.2607,175.86291v-7.14913h3.30844v7.14913z" fill="url(#color-6)" stroke="none" stroke-width="0"/><path d="M261.43016,175.16543v-5.75417h8.47789v5.75417z" fill="url(#color-7)" stroke="none" stroke-width="0"/><path d="M275.49102,175.3398v-5.92854h4.96267v5.92854z" fill="url(#color-8)" stroke="none" stroke-width="0"/></g><path d="M261.43276,175.26836v-3.17647h19.15816v3.17647z" fill="url(#color-9)" stroke="none" stroke-width="0"/><path d="M280.52517,176.66836v-3.17647h8.95974v3.17647z" fill="url(#color-10)" stroke="none" stroke-width="0"/></g><g><path d="M221.38893,188.10687l-2.77778,-2.11111v-3.66667l2.66667,-1.55556l0.22222,-4.55556l-0.88889,-0.66667l-2.22222,-1.55556v-3.66667l2.77778,-1.77778z" fill="#e0e0e0" stroke="#e0e0e0" stroke-width="0.5" stroke-linecap="round"/><path d="M219.62836,187.15656v-5.6631l1.17647,-0.82353l0.00899,-4.68807l-1.18546,-0.78252v-5.95722l1.18182,-0.76471v19.44385z" fill="url(#color-11)" stroke="none" stroke-width="0" stroke-linecap="butt"/></g><path d="M228.61672,159.54138h22.68986v21.42049h-22.68986z" fill="#ff0000" stroke="none" stroke-width="0" stroke-linecap="butt"/><path d="M228.77539,159.59737h22.37251v6.18814h-22.37251z" fill="url(#color-12)" stroke="none" stroke-width="0" stroke-linecap="butt"/><path d="M228.43492,176.17775h22.68986v21.42049h-22.68986z" fill="#ff0000" stroke="none" stroke-width="0" stroke-linecap="butt"/><path d="M228.59359,191.35411h22.37251v6.18814h-22.37251z" fill="url(#color-13)" stroke="none" stroke-width="0" stroke-linecap="butt"/><path d="M220.81765,165.81127h35.54323v25.54592h-35.54323z" fill="#ff0000" stroke="none" stroke-width="0" stroke-linecap="butt"/><path d="M230.10716,169.71309v-1.57143h17.57143v1.57143z" data-paper-data="{&quot;index&quot;:null}" fill="url(#color-14)" stroke="none" stroke-width="0" stroke-linecap="butt"/><path d="M250.96432,172.57024v1.57143h-17.57143v-1.57143z" data-paper-data="{&quot;index&quot;:null}" fill="url(#color-15)" stroke="none" stroke-width="0" stroke-linecap="butt"/><path d="M223.11681,189.01146v-21.15572h6.97038l8.14182,10.44303l-0.07085,10.71269z" fill="#e0e0e0" stroke="#ececec" stroke-width="0.5" stroke-linecap="butt"/><path d="M253.93503,167.91076v9.56803h-3.15247l-3.68228,-4.72304l0.03205,-4.84499z" data-paper-data="{&quot;index&quot;:null}" fill="#e0e0e0" stroke="#ececec" stroke-width="0.5" stroke-linecap="butt"/><path d="M229.32779,187.58815v-2.85744h26.6945v2.85744z" fill="#ececec" stroke="none" stroke-width="0" stroke-linecap="butt"/><path d="M229.32779,189.22813v-1.63998h9.00489v1.63998z" fill="url(#color-16)" stroke="none" stroke-width="0" stroke-linecap="butt"/><path d="M238.47556,183.08815v1.63998h-9.14776v-1.63998z" data-paper-data="{&quot;index&quot;:null}" fill="url(#color-17)" stroke="none" stroke-width="0" stroke-linecap="butt"/><path d="M229.32779,172.58815v-2.85744h26.6945v2.85744z" fill="#ececec" stroke="none" stroke-width="0" stroke-linecap="butt"/><path d="M229.32779,174.22813v-1.63998h4.86203l1.07143,1.63998z" fill="url(#color-18)" stroke="none" stroke-width="0" stroke-linecap="butt"/><path d="M230.47556,168.08815l1.35714,1.63998h-2.5049v-1.63998z" data-paper-data="{&quot;index&quot;:null}" fill="url(#color-19)" stroke="none" stroke-width="0" stroke-linecap="butt"/><path d="M254.18984,172.58815v1.63998h-6.1497l-1.35519,-1.63998z" data-paper-data="{&quot;index&quot;:null}" fill="url(#color-20)" stroke="none" stroke-width="0" stroke-linecap="butt"/><path d="M254.11841,168.08815v1.63998h-7.21918v-1.63998z" data-paper-data="{&quot;index&quot;:null}" fill="url(#color-21)" stroke="none" stroke-width="0" stroke-linecap="butt"/><path d="M238.46432,184.71309v-1.57143h17.57143v1.57143z" fill="url(#color-22)" stroke="none" stroke-width="0" stroke-linecap="butt"/><path d="M256.03574,187.57024v1.57143h-17.57143v-1.57143z" data-paper-data="{&quot;index&quot;:null}" fill="url(#color-23)" stroke="none" stroke-width="0" stroke-linecap="butt"/><path d="M239.87559,177.21751c0.00405,-0.34609 0.29876,-0.58186 0.29876,-0.58186c0.1687,-0.13459 1.62515,-1.30057 1.65021,-1.29995c1.93616,0.04755 2.68727,2.08841 4.16497,2.79196c1.87254,0.89154 4.36098,0.13082 5.8127,1.91371c3.05023,3.74608 -2.08724,3.63791 -4.34978,2.28039c-3.06269,-1.2361 -6.88434,0.07988 -7.69223,-4.40573l-0.01021,-0.26615c0,0 0,-0.22784 0.12557,-0.43236z" fill="#ef0000" stroke="none" stroke-width="0.5" stroke-linecap="butt"/><path d="M238.37832,167.65409c-0.14709,0.73544 -0.88252,0.58835 -0.88252,0.58835l-0.84574,-0.18194c-1.07849,-0.4393 -2.35632,-0.60492 -3.44291,-0.14286c0,0 -0.69636,0.27854 -0.9749,-0.41781c-0.27854,-0.69636 0.41781,-0.9749 0.41781,-0.9749c1.4927,-0.57152 3.0789,-0.43967 4.55709,0.14286l0.58283,0.10378c0,0 0.73544,0.14709 0.58835,0.88252z" fill="#ef0000" stroke="none" stroke-width="0.5" stroke-linecap="butt"/><path d="M249.10715,190.36415c0,0.75 -0.75,0.75 -0.75,0.75h-0.85714c-2.03603,-0.00365 -3.92948,-0.42857 -6,-0.42857c0,0 -0.75,0 -0.75,-0.75c0,-0.75 0.75,-0.75 0.75,-0.75c2.06216,0 3.9817,0.43259 6,0.42857h0.85714c0,0 0.75,0 0.75,0.75z" fill="#ef0000" stroke="none" stroke-width="0.5" stroke-linecap="butt"/><path d="M221.64287,188.18558c0.75,0 0.75,0.75 0.75,0.75l-0.10688,0.0427c0.4121,0.76804 0.63703,0.804 1.49974,0.77873c0,0 0.75,0 0.75,0.75c0,0.75 -0.75,0.75 -0.75,0.75c-1.40126,-0.02731 -2.02694,-0.32043 -2.78598,-1.50699l-0.10688,-0.81444c0,0 0,-0.75 0.75,-0.75z" fill="#ef0000" stroke="none" stroke-width="0.5" stroke-linecap="butt"/><path d="M221.9286,166.75701c0.75,0 0.75,0.75 0.75,0.75l-0.0102,0.26616c-0.08915,0.52465 -0.13436,1.05882 -0.13265,1.59099c0,0 0,0.75 -0.75,0.75c-0.75,0 -0.75,-0.75 -0.75,-0.75c0.00171,-0.61465 0.05368,-1.23102 0.15306,-1.83758l-0.0102,-0.01956c0,0 0,-0.75 0.75,-0.75z" fill="#ef0000" stroke="none" stroke-width="0.5" stroke-linecap="butt"/><path d="M248.17085,176.41384c-0.33541,0.67082 -1.00623,0.33541 -1.00623,0.33541l-0.88264,-0.44194c-0.24642,-0.14764 -0.49283,-0.29527 -0.73925,-0.44291c0,0 -0.64312,-0.38587 -0.25725,-1.02899c0.38587,-0.64312 1.02899,-0.25725 1.02899,-0.25725c0.22977,0.13808 0.45955,0.27616 0.68932,0.41424l0.83165,0.41521c0,0 0.67082,0.33541 0.33541,1.00623z" fill="#ef0000" stroke="none" stroke-width="0.5" stroke-linecap="butt"/><path d="M254.93281,178.77157c0.73544,0.14709 0.58835,0.88252 0.58835,0.88252l-0.18194,0.84574c-0.09524,0.2381 -0.19048,0.47619 -0.28571,0.71429c0,0 -0.27854,0.69636 -0.9749,0.41781c-0.69636,-0.27854 -0.41781,-0.9749 -0.41781,-0.9749c0.09524,-0.2381 0.19048,-0.47619 0.28571,-0.71429l0.10378,-0.58283c0,0 0.14709,-0.73544 0.88252,-0.58835z" fill="#ef0000" stroke="none" stroke-width="0.5" stroke-linecap="butt"/><path d="M226.58167,175.44404c0.02479,-0.1067 0.06003,-0.17718 0.06003,-0.17718l0.91912,-0.65438c1.28432,0.26209 1.87039,1.40981 3.20854,1.36927c3.82318,0.83863 6.58963,5.39159 1.14271,6.36389c-3.37607,0.60264 -9.41933,-4.09998 -5.39057,-6.8674c0,0 0.02188,-0.01458 0.06017,-0.0342z" fill="#ececec" stroke="none" stroke-width="0.5" stroke-linecap="butt"/><path d="M228.64287,159.44752h22.57143" fill="none" stroke="#c30000" stroke-width="1.5" stroke-linecap="round"/><path d="M228.50002,197.44752h22.57143" fill="none" stroke="#c30000" stroke-width="1.5" stroke-linecap="round"/><path d="M220.78574,191.16844h35.71428" fill="none" stroke="#c30000" stroke-width="1.5" stroke-linecap="round"/><path d="M256.35715,166.16844h-35.71428" fill="none" stroke="#c30000" stroke-width="1.5" stroke-linecap="round"/></g></g></g></svg>