<svg version="1.1" xmlns="http://www.w3.org/2000/svg" xmlns:xlink="http://www.w3.org/1999/xlink" width="29.85714" height="30.14287" viewBox="0,0,29.85714,30.14287"><g transform="translate(-225.05382,-165.72954)"><g data-paper-data="{&quot;isPaintingLayer&quot;:true}" fill-rule="nonzero" stroke-linejoin="miter" stroke-miterlimit="10" stroke-dasharray="" stroke-dashoffset="0" style="mix-blend-mode: normal"><g><path d="M252.41096,180.80097c0,6.94301 -5.56446,12.57144 -12.42857,12.57144c-6.86411,0 -12.42857,-5.62843 -12.42857,-12.57144c0,-6.94301 5.56446,-12.57143 12.42857,-12.57143c6.86411,0 12.42857,5.62842 12.42857,12.57143z" fill="none" stroke="#00daff" stroke-width="5" stroke-linecap="butt"/><path d="M252.41097,180.80097c0,6.94301 -5.56446,12.57144 -12.42857,12.57144c-6.86411,0 -12.42857,-5.62843 -12.42857,-12.57144c0,-6.94301 5.56446,-12.57143 12.42857,-12.57143c6.86411,0 12.42857,5.62842 12.42857,12.57143z" fill="#585858" stroke="#6a6a6a" stroke-width="0.5" stroke-linecap="butt"/><path d="M252.53597,179.17597c0,6.94301 -5.56446,12.57144 -12.42857,12.57144c-6.86411,0 -12.42857,-5.62843 -12.42857,-12.57144c0,-6.94301 5.56446,-12.57143 12.42857,-12.57143c6.86411,0 12.42857,5.62842 12.42857,12.57143z" fill="#717171" stroke="#7b7b7b" stroke-width="0.5" stroke-linecap="butt"/><g fill="none" stroke-width="1.5" stroke-linecap="round"><g><g><g><path d="M240.3328,173.28781h-0.78174" stroke="#505050"/><path d="M241.86867,173.49044l0.75674,0.19607" stroke="#ff0000"/></g><g><path d="M243.98145,174.72433l0.49314,0.60656" stroke="#505050"/><path d="M245.61147,177.36133l-0.32524,-0.71086" stroke="#ff0000"/></g></g><g data-paper-data="{&quot;index&quot;:null}"><g><path d="M245.80885,179.88673l-0.02128,-0.78143" stroke="#505050"/><path d="M245.6481,181.42757l-0.1754,0.76182" stroke="#ff0000"/></g><g><path d="M244.47215,183.57313l-0.59292,0.50946" stroke="#505050"/><path d="M241.88051,185.27431l0.70175,-0.34447" stroke="#ff0000"/></g></g></g><g data-paper-data="{&quot;index&quot;:null}"><g><g><path d="M239.51486,185.57499h0.78174" stroke="#505050"/><path d="M237.97901,185.37237l-0.75675,-0.19606" stroke="#ff0000"/></g><g><path d="M235.8662,184.13846l-0.49314,-0.60656" stroke="#505050"/><path d="M234.56143,182.21232l-0.32523,-0.71086" stroke="#ff0000"/></g></g><g data-paper-data="{&quot;index&quot;:null}"><g><path d="M234.03882,178.9761l0.02128,0.78144" stroke="#505050"/><path d="M234.19956,177.43527l0.1754,-0.76182" stroke="#ff0000"/></g><g><path d="M235.37551,175.28967l0.59292,-0.50946" stroke="#505050"/><path d="M237.96715,173.58849l-0.70175,0.34447" stroke="#ff0000"/></g></g></g></g><path d="M243.31275,179.40037c0,2.00203 -1.567,3.625 -3.5,3.625c-1.933,0 -3.5,-1.62297 -3.5,-3.625c0,-2.00203 1.567,-3.625 3.5,-3.625c1.933,0 3.5,1.62297 3.5,3.625z" fill="#cab4b4" stroke="none" stroke-width="1.5" stroke-linecap="butt"/></g></g></g></svg>