<svg version="1.1" xmlns="http://www.w3.org/2000/svg" xmlns:xlink="http://www.w3.org/1999/xlink" width="52.9939" height="73.65449" viewBox="0,0,52.9939,73.65449"><defs><linearGradient x1="239.78409" y1="204.32198" x2="239.78409" y2="221.18561" gradientUnits="userSpaceOnUse" id="color-1"><stop offset="0" stop-color="#ffffff"/><stop offset="1" stop-color="#ffffff" stop-opacity="0"/></linearGradient><radialGradient cx="240.01406" cy="208.21143" r="8.89813" gradientUnits="userSpaceOnUse" id="color-2"><stop offset="0" stop-color="#f5eb75"/><stop offset="1" stop-color="#f5eb75" stop-opacity="0"/></radialGradient><linearGradient x1="239.19359" y1="125.00034" x2="239.19359" y2="219.02639" gradientUnits="userSpaceOnUse" id="color-3"><stop offset="0" stop-color="#a300f2"/><stop offset="1" stop-color="#a300f2" stop-opacity="0"/></linearGradient><linearGradient x1="238.95587" y1="96.98158" x2="238.95587" y2="225.00219" gradientUnits="userSpaceOnUse" id="color-4"><stop offset="0" stop-color="#f1f1f1"/><stop offset="1" stop-color="#f1f1f1" stop-opacity="0"/></linearGradient><linearGradient x1="239.96416" y1="204.61823" x2="239.96416" y2="212.52599" gradientUnits="userSpaceOnUse" id="color-5"><stop offset="0" stop-color="#ff4f00"/><stop offset="1" stop-color="#ff4f00" stop-opacity="0"/></linearGradient><linearGradient x1="239.89617" y1="204.86497" x2="239.89617" y2="210.2108" gradientUnits="userSpaceOnUse" id="color-6"><stop offset="0" stop-color="#ffd400"/><stop offset="1" stop-color="#ffd400" stop-opacity="0"/></linearGradient><linearGradient x1="239.89388" y1="204.50691" x2="239.89388" y2="213.38923" gradientUnits="userSpaceOnUse" id="color-7"><stop offset="0" stop-color="#ffee00"/><stop offset="1" stop-color="#ffee00" stop-opacity="0"/></linearGradient><linearGradient x1="239.82136" y1="204.43396" x2="239.82136" y2="208.32134" gradientUnits="userSpaceOnUse" id="color-8"><stop offset="0" stop-color="#ffee00"/><stop offset="1" stop-color="#ffee00" stop-opacity="0"/></linearGradient><linearGradient x1="241.86413" y1="204.50691" x2="241.86413" y2="208.39429" gradientUnits="userSpaceOnUse" id="color-9"><stop offset="0" stop-color="#ffee00"/><stop offset="1" stop-color="#ffee00" stop-opacity="0"/></linearGradient><linearGradient x1="237.7786" y1="204.50691" x2="237.7786" y2="208.39429" gradientUnits="userSpaceOnUse" id="color-10"><stop offset="0" stop-color="#ffee00"/><stop offset="1" stop-color="#ffee00" stop-opacity="0"/></linearGradient><radialGradient cx="239.85349" cy="208.44531" r="6.32236" gradientUnits="userSpaceOnUse" id="color-11"><stop offset="0" stop-color="#feea00"/><stop offset="1" stop-color="#feea00" stop-opacity="0"/></radialGradient><radialGradient cx="240.0183" cy="207.64309" r="6.32236" gradientUnits="userSpaceOnUse" id="color-12"><stop offset="0" stop-color="#feea00"/><stop offset="1" stop-color="#feea00" stop-opacity="0"/></radialGradient><radialGradient cx="240.41802" cy="205.428" r="12.35459" gradientUnits="userSpaceOnUse" id="color-13"><stop offset="0" stop-color="#fcec00"/><stop offset="1" stop-color="#fcec00" stop-opacity="0"/></radialGradient><linearGradient x1="235.93144" y1="206.18877" x2="243.55944" y2="206.18877" gradientUnits="userSpaceOnUse" id="color-14"><stop offset="0" stop-color="#5f5f5f"/><stop offset="1" stop-color="#4c4c4c"/></linearGradient><linearGradient x1="235.93144" y1="206.18877" x2="243.55944" y2="206.18877" gradientUnits="userSpaceOnUse" id="color-15"><stop offset="0" stop-color="#949494"/><stop offset="1" stop-color="#757575"/></linearGradient><linearGradient x1="236.16666" y1="204.38713" x2="238.6415" y2="204.38713" gradientUnits="userSpaceOnUse" id="color-16"><stop offset="0" stop-color="#4c4c4c"/><stop offset="1" stop-color="#4c4c4c" stop-opacity="0"/></linearGradient><linearGradient x1="243.32367" y1="204.38712" x2="240.84884" y2="204.38712" gradientUnits="userSpaceOnUse" id="color-17"><stop offset="0" stop-color="#5f5f5f"/><stop offset="1" stop-color="#5f5f5f" stop-opacity="0"/></linearGradient><linearGradient x1="235.63721" y1="163.39694" x2="242.77586" y2="163.39694" gradientUnits="userSpaceOnUse" id="color-18"><stop offset="0" stop-color="#d40000"/><stop offset="1" stop-color="#a30000"/></linearGradient><linearGradient x1="237.56473" y1="168.03862" x2="242.44323" y2="168.03862" gradientUnits="userSpaceOnUse" id="color-19"><stop offset="0" stop-color="#5f5f5f"/><stop offset="1" stop-color="#a8a8a8"/></linearGradient><linearGradient x1="240.04127" y1="161.71597" x2="240.04127" y2="162.65147" gradientUnits="userSpaceOnUse" id="color-20"><stop offset="0" stop-color="#7a7a7a"/><stop offset="1" stop-color="#646464"/></linearGradient><linearGradient x1="239.20585" y1="165.34274" x2="239.37472" y2="165.34274" gradientUnits="userSpaceOnUse" id="color-21"><stop offset="0" stop-color="#00eeec"/><stop offset="1" stop-color="#1cfff4"/></linearGradient><linearGradient x1="230.87251" y1="180.93761" x2="234.0623" y2="180.93761" gradientUnits="userSpaceOnUse" id="color-22"><stop offset="0" stop-color="#dedede"/><stop offset="1" stop-color="#dedede" stop-opacity="0"/></linearGradient><linearGradient x1="235.75234" y1="204.14047" x2="243.73535" y2="204.14047" gradientUnits="userSpaceOnUse" id="color-23"><stop offset="0" stop-color="#888888"/><stop offset="1" stop-color="#696969"/></linearGradient><linearGradient x1="248.91663" y1="185.71538" x2="251.35587" y2="185.71538" gradientUnits="userSpaceOnUse" id="color-24"><stop offset="0" stop-color="#dd0000"/><stop offset="1" stop-color="#dd0000" stop-opacity="0"/></linearGradient><linearGradient x1="248.88648" y1="196.222" x2="251.41954" y2="196.222" gradientUnits="userSpaceOnUse" id="color-25"><stop offset="0" stop-color="#dfdfdf"/><stop offset="1" stop-color="#dfdfdf" stop-opacity="0"/></linearGradient><linearGradient x1="239.68182" y1="206.57577" x2="239.68182" y2="212.8485" gradientUnits="userSpaceOnUse" id="color-26"><stop offset="0" stop-color="#fde704"/><stop offset="1" stop-color="#fde704" stop-opacity="0"/></linearGradient><linearGradient x1="238.73066" y1="178.0902" x2="241.23957" y2="178.0902" gradientUnits="userSpaceOnUse" id="color-27"><stop offset="0" stop-color="#c7ffff"/><stop offset="1" stop-color="#91f5f5"/></linearGradient><linearGradient x1="238.07639" y1="192.79168" x2="241.70139" y2="192.79168" gradientUnits="userSpaceOnUse" id="color-28"><stop offset="0" stop-color="#bf0000"/><stop offset="1" stop-color="#bf0000"/></linearGradient><linearGradient x1="238.07639" y1="198.47918" x2="241.70139" y2="198.47918" gradientUnits="userSpaceOnUse" id="color-29"><stop offset="0" stop-color="#bf0000"/><stop offset="1" stop-color="#bf0000"/></linearGradient></defs><g transform="translate(-215.17277,-152.74625)"><g data-paper-data="{&quot;isPaintingLayer&quot;:true}" fill-rule="nonzero" stroke-linejoin="miter" stroke-miterlimit="10" stroke-dasharray="" stroke-dashoffset="0" style="mix-blend-mode: normal"><g stroke-width="0"><path d="M242.28409,204.32198l-2.5,16.86364l-2.5,-16.86364z" fill="url(#color-1)" stroke="#000000" stroke-linecap="round"/><path d="M247.81944,208.21143c0,4.34894 -3.49458,7.87446 -7.80538,7.87446c-4.3108,0 -7.80538,-3.52552 -7.80538,-7.87446c0,-4.34894 3.49459,-7.87446 7.80538,-7.87446c4.3108,0 7.80538,3.52552 7.80538,7.87446z" fill="url(#color-2)" stroke="none" stroke-linecap="butt"/><g stroke="#000000" stroke-linecap="round"><path d="M241.98054,205.12112l-1.99752,14.93246l-2.35162,-14.93246z" fill="url(#color-3)"/><path d="M242.75043,206.06954l-2.71971,20.33121l-3.20183,-20.33121z" fill="url(#color-4)"/><path d="M241.06246,204.61823c0,0 1.97104,0.54702 1.90371,2.41626c-0.16093,4.46815 -3.2949,5.49149 -3.2949,5.49149c0,0 -2.64402,-0.90981 -2.70914,-5.49149c-0.02772,-1.95089 1.8305,-2.41626 1.8305,-2.41626z" fill="url(#color-5)"/><path d="M240.63865,204.86497c0,0 1.33247,0.3698 1.28696,1.63345c-0.10879,3.02057 -2.22743,3.71239 -2.22743,3.71239c0,0 -1.78743,-0.61506 -1.83145,-3.71239c-0.01874,-1.31885 1.23746,-1.63345 1.23746,-1.63345z" fill="url(#color-6)"/><path d="M241.12754,204.50691c0,0 2.21395,0.61444 2.13833,2.71404c-0.18075,5.01881 -3.70096,6.16828 -3.70096,6.16828c0,0 -2.96987,-1.02195 -3.04302,-6.16828c-0.03114,-2.19132 2.05609,-2.71404 2.05609,-2.71404z" fill="url(#color-7)"/><path d="M240.36128,204.43396c0,0 0.96894,0.26891 0.93585,1.18781c-0.07911,2.1965 -1.61974,2.69957 -1.61974,2.69957c0,0 -1.29978,-0.44726 -1.33179,-2.69957c-0.01364,-0.95904 0.89985,-1.18781 0.89985,-1.18781z" fill="url(#color-8)"/><path d="M242.40405,204.50691c0,0 0.96895,0.26892 0.93585,1.18781c-0.07911,2.1965 -1.61975,2.69957 -1.61975,2.69957c0,0 -1.29978,-0.44726 -1.33179,-2.69957c-0.01363,-0.95904 0.89986,-1.18781 0.89986,-1.18781z" fill="url(#color-9)"/><path d="M238.31851,204.50691c0,0 0.96895,0.26892 0.93585,1.18781c-0.07911,2.1965 -1.61975,2.69957 -1.61975,2.69957c0,0 -1.29978,-0.44726 -1.33179,-2.69957c-0.01363,-0.95904 0.89986,-1.18781 0.89986,-1.18781z" fill="url(#color-10)"/></g><path d="M245.39942,208.44531c0,3.09004 -2.48299,5.59501 -5.54593,5.59501c-3.06293,0 -5.54593,-2.50497 -5.54593,-5.59501c0,-3.09004 2.48299,-5.59501 5.54593,-5.59501c3.06293,0 5.54593,2.50497 5.54593,5.59501z" fill="url(#color-11)" stroke="none" stroke-linecap="butt"/><path d="M245.56422,207.64309c0,3.09004 -2.48299,5.59501 -5.54593,5.59501c-3.06294,0 -5.54593,-2.50497 -5.54593,-5.59501c0,-3.09004 2.48299,-5.59501 5.54593,-5.59501c3.06294,0 5.54593,2.50498 5.54593,5.59501z" fill="url(#color-12)" stroke="none" stroke-linecap="butt"/></g><path d="M265.66667,181.12501v10.66666l-14.66667,7.66666l1,-18.16666z" data-paper-data="{&quot;index&quot;:null}" fill="none" stroke="#bf0000" stroke-width="5" stroke-linecap="round"/><g fill="#cecece"><path d="M242.34339,156.5158v-3.54545h2.90909v3.54545z" stroke="none" stroke-width="0" stroke-linecap="butt"/><path d="M235.58701,198.92749l0.15778,-37.58147l5.57746,-5.42857v15.66277c0,0 0.69889,1.92095 2.59992,1.92095c1.8678,0 2.55923,-1.79051 2.55923,-1.79051v-15.95287l5.71689,5.42857l-0.18805,37.7619l-2.5722,0.71141l-10.10296,0.0566z" stroke="#cecece" stroke-width="2.5" stroke-linecap="round"/></g><path d="M252.60788,205.428c0,6.82325 -5.45759,12.35459 -12.18986,12.35459c-6.73227,0 -12.18986,-5.53134 -12.18986,-12.35459c0,-6.82325 5.45759,-12.35459 12.18986,-12.35459c6.73227,0 12.18986,5.53134 12.18986,12.35459z" fill="url(#color-13)" stroke="none" stroke-width="0" stroke-linecap="butt"/><path d="M243.55944,206.18877c0,0.46442 -1.70758,0.84091 -3.814,0.84091c-2.10641,0 -3.814,-0.37649 -3.814,-0.84091c0,-0.46442 1.70758,-0.84091 3.814,-0.84091c2.10641,0 3.814,0.37649 3.814,0.84091z" fill="url(#color-14)" stroke="url(#color-15)" stroke-width="0.5" stroke-linecap="butt"/><path d="M236.16666,206.24919v-3.72414h2.47484l0.02911,4.2069c0,0 -0.97207,-0.04387 -1.40841,-0.12799c-0.39401,-0.07596 -1.09555,-0.35477 -1.09555,-0.35477z" fill="url(#color-16)" stroke="none" stroke-width="0" stroke-linecap="butt"/><path d="M242.22813,206.60396c-0.43633,0.08413 -1.40841,0.12799 -1.40841,0.12799l0.02911,-4.2069h2.47485v3.72414c0,0 -0.70155,0.2788 -1.09555,0.35477z" data-paper-data="{&quot;index&quot;:null}" fill="url(#color-17)" stroke="none" stroke-width="0" stroke-linecap="butt"/><path d="M238.40055,153.30604c0,0 0.74292,0.91199 1.30492,1.36364c0.56199,0.45165 0.88047,0.53754 1.22814,0.63636c0.34768,0.09883 0.69084,-0.09091 0.69084,-0.09091l1.1514,16.90909l-7.13865,1.36364z" fill="url(#color-18)" stroke="#ff0000" stroke-width="0" stroke-linecap="round"/><path d="M237.56473,173.93761v-11.79798h4.87851v11.79798z" fill="url(#color-19)" stroke="none" stroke-width="0" stroke-linecap="butt"/><path d="M241.85996,162.18373c0,0.25833 -0.81427,0.46774 -1.81871,0.46774c-1.00444,0 -1.81872,-0.20941 -1.81872,-0.46774c0,-0.25833 0.81427,-0.46775 1.81872,-0.46775c1.00444,0 1.81871,0.20942 1.81871,0.46775z" fill="url(#color-20)" stroke="#7e7e7e" stroke-width="0.5" stroke-linecap="butt"/><path d="M217.43796,194.88168v-1.9375h0.89712v1.9375z" fill="#d80000" stroke="none" stroke-width="0" stroke-linecap="butt"/><path d="M239.81341,203.19418h-7.65199l-14.24852,-8.375" fill="none" stroke="#d80000" stroke-width="1" stroke-linecap="round"/><path d="M239.86618,202.31918h-7.65199l-14.24852,-8.375" fill="none" stroke="#d80000" stroke-width="1" stroke-linecap="round"/><path d="M239.70787,201.38168h-7.65199l-14.24852,-8.375" fill="none" stroke="#d80000" stroke-width="1" stroke-linecap="round"/><path d="M217.77136,179.03252l22.26746,0.125l-0.03989,21.91417l-7.68213,-0.03917l-14.90523,-8.625z" fill="#ff0000" stroke="#b6b6b6" stroke-width="0" stroke-linecap="round"/><path d="M218.16797,179.11432l-0.01082,13.58974" fill="none" stroke="#df0000" stroke-width="0.5" stroke-linecap="round"/><path d="M219.23425,180.05237l-0.06495,12.23077" fill="none" stroke="#f00000" stroke-width="2" stroke-linecap="round"/><path d="M218.42933,180.41591v-1.35714h1.62839v1.35714z" fill="#f00000" stroke="none" stroke-width="0" stroke-linecap="butt"/><path d="M238.93513,199.77306v-19.28572" fill="none" stroke="#f00000" stroke-width="2.5" stroke-linecap="round"/><path d="M237.90984,183.91591v-4.71428h2.11089v4.71428z" fill="#f00000" stroke="none" stroke-width="0" stroke-linecap="butt"/><path d="M237.90984,200.98734v-6h2.11089v6z" fill="#f00000" stroke="none" stroke-width="0" stroke-linecap="butt"/><path d="M233.3865,182.98734l-0.06031,9.57143c0,0 -0.20532,2.09115 -2.23352,2.10518c-2.05324,0.01421 -2.2295,-2.17661 -2.2295,-2.17661v-9.5z" fill="#f70000" stroke="#fa0000" stroke-width="1" stroke-linecap="round"/><path d="M230.47271,192.06918v-7.1875" fill="none" stroke="#f50000" stroke-width="1" stroke-linecap="round"/><path d="M232.00311,192.63168l0.10554,-8.6875" fill="none" stroke="#f50000" stroke-width="1" stroke-linecap="round"/><path d="M232.47806,182.94418l-2.63861,0.0625" fill="none" stroke="#f50000" stroke-width="1" stroke-linecap="round"/><path d="M222.45133,189.25668v-7.9375" fill="none" stroke="#fa0000" stroke-width="1" stroke-linecap="round"/><path d="M227.51746,194.13168v-11.875" fill="none" stroke="#fa0000" stroke-width="1" stroke-linecap="round"/><path d="M234.69449,184.44418l-0.05277,11.1875" fill="none" stroke="#fa0000" stroke-width="1" stroke-linecap="round"/><path d="M225.24826,194.50668l0.10554,-5.125" fill="none" stroke="#fa0000" stroke-width="1" stroke-linecap="round"/><path d="M236.75261,192.56918l-0.05277,-11" fill="none" stroke="#fa0000" stroke-width="1" stroke-linecap="round"/><path d="M239.76064,203.13169v-2.0625h0.52772v2.0625z" fill="#d80000" stroke="none" stroke-width="0" stroke-linecap="butt"/><g data-paper-data="{&quot;index&quot;:null}"><path d="M261.66491,194.88168v-1.9375h0.89712v1.9375z" fill="#d80000" stroke="none" stroke-width="0" stroke-linecap="butt"/><path d="M262.08708,194.81918l-14.24852,8.375h-7.65199" fill="none" stroke="#d80000" stroke-width="1" stroke-linecap="round"/><path d="M262.03431,193.94418l-14.24852,8.375h-7.65199" fill="none" stroke="#d80000" stroke-width="1" stroke-linecap="round"/><path d="M262.19262,193.00668l-14.24852,8.375h-7.65199" fill="none" stroke="#d80000" stroke-width="1" stroke-linecap="round"/><path d="M262.58843,192.40752l-14.90523,8.625l-7.68213,0.03917l-0.03989,-21.91417l22.26746,-0.125z" fill="#ff0000" stroke="#b6b6b6" stroke-width="0" stroke-linecap="round"/><path d="M263.32723,178.90752v13.125" fill="none" stroke="#b6b6b6" stroke-width="3" stroke-linecap="round"/><path d="M261.84285,192.70406l-0.01082,-13.58974" fill="none" stroke="#df0000" stroke-width="0.5" stroke-linecap="round"/><path d="M262.90912,192.05237v-13" fill="none" stroke="#c2c2c2" stroke-width="2" stroke-linecap="round"/><path d="M260.76575,180.05237l0.06495,12.23077" fill="none" stroke="#f00000" stroke-width="2" stroke-linecap="round"/><path d="M259.94226,180.41591v-1.35714h1.62839v1.35714z" fill="#f00000" stroke="none" stroke-width="0" stroke-linecap="butt"/><path d="M241.06487,199.77306v-19.28572" fill="none" stroke="#f00000" stroke-width="2.5" stroke-linecap="round"/><path d="M239.97926,183.91591v-4.71428h2.11089v4.71428z" fill="#f00000" stroke="none" stroke-width="0" stroke-linecap="butt"/><path d="M239.97926,200.98734v-6h2.11089v6z" fill="#f00000" stroke="none" stroke-width="0" stroke-linecap="butt"/><path d="M251.13683,182.98734v9.5c0,0 -0.17627,2.19082 -2.2295,2.17661c-2.0282,-0.01403 -2.23352,-2.10518 -2.23352,-2.10518l-0.06031,-9.57143z" fill="#f70000" stroke="#fa0000" stroke-width="1" stroke-linecap="round"/><path d="M249.52727,192.06918v-7.1875" fill="none" stroke="#f50000" stroke-width="1" stroke-linecap="round"/><path d="M247.89135,183.94418l0.10554,8.6875" fill="none" stroke="#f50000" stroke-width="1" stroke-linecap="round"/><path d="M247.52195,182.94418l2.63861,0.0625" fill="none" stroke="#f50000" stroke-width="1" stroke-linecap="round"/><path d="M257.54866,189.25668v-7.9375" fill="none" stroke="#fa0000" stroke-width="1" stroke-linecap="round"/><path d="M252.48253,194.13168v-11.875" fill="none" stroke="#fa0000" stroke-width="1" stroke-linecap="round"/><path d="M245.35827,195.63168l-0.05277,-11.1875" fill="none" stroke="#fa0000" stroke-width="1" stroke-linecap="round"/><path d="M254.75173,194.50668l-0.10554,-5.125" fill="none" stroke="#fa0000" stroke-width="1" stroke-linecap="round"/><path d="M243.24738,192.56918l0.05277,-11" fill="none" stroke="#fa0000" stroke-width="1" stroke-linecap="round"/><path d="M239.71164,203.13169v-2.0625h0.52772v2.0625z" fill="#d80000" stroke="none" stroke-width="0" stroke-linecap="butt"/></g><path d="M240.7061,167.7805v-4.77419h0.2179v4.77419z" fill="#1dfffb" stroke="none" stroke-width="0" stroke-linecap="butt"/><path d="M241.24066,153.57878v17.45455c0,0 -0.34766,0.95908 -1.30492,0.90909c-0.93536,-0.04885 -1.15139,-0.90909 -1.15139,-0.90909l-0.07676,-17.45455" fill="none" stroke="#acacac" stroke-width="1" stroke-linecap="round"/><path d="M231.87695,198.89567l0.15255,-37.58147l5.39253,-5.42857v15.66277c0,0 0.67572,1.92095 2.51371,1.92095c1.80587,0 2.47437,-1.79051 2.47437,-1.79051v-15.95287l5.52733,5.42857l-0.18181,37.7619l-2.48691,0.71141l-9.76797,0.0566z" fill="#ff0000" stroke="#ff0000" stroke-width="2.5" stroke-linecap="round"/><path d="M235.87601,177.38206l0.09382,18.33333" fill="none" stroke="#fa0000" stroke-width="1" stroke-linecap="round"/><path d="M245.82065,189.15983l-0.09382,-11.77777" fill="none" stroke="#fa0000" stroke-width="1" stroke-linecap="round"/><path d="M243.56905,195.60427l-0.18764,-10.66666" fill="none" stroke="#fa0000" stroke-width="1" stroke-linecap="round"/><path d="M237.65854,186.38206v13.33333" fill="none" stroke="#fa0000" stroke-width="1" stroke-linecap="round"/><path d="M242.16177,180.8265l0.09382,-7" fill="none" stroke="#fa0000" stroke-width="1" stroke-linecap="round"/><path d="M235.21929,159.49316l-0.18764,13.77777" fill="none" stroke="#fa0000" stroke-width="1" stroke-linecap="round"/><path d="M246.75883,172.60427l0.18764,-12.11111" fill="none" stroke="#fa0000" stroke-width="1" stroke-linecap="round"/><path d="M244.4134,174.15983l0.28145,-13" fill="none" stroke="#fa0000" stroke-width="1" stroke-linecap="round"/><path d="M239.20585,167.69274v-4.7h0.16887v4.7z" fill="url(#color-21)" stroke="none" stroke-width="0" stroke-linecap="butt"/><path d="M239.94346,167.87727v-4.80645h0.19066v4.80645z" fill="#1dfffb" stroke="none" stroke-width="0" stroke-linecap="butt"/><path d="M238.59726,175.9998l1.19454,-1.05738l1.27162,0.91167v7.72276l-1.23307,0.54738l-1.23307,-0.6931z" fill="#8cffff" stroke="#7e7e7e" stroke-width="0.5" stroke-linecap="round"/><path d="M240.97439,175.86192l-1.21376,1.125l-1.10822,-0.875" fill="none" stroke="#55eded" stroke-width="0.5" stroke-linecap="round"/><path d="M238.8635,183.36192l0.84435,-0.6875l1.05544,0.8125" fill="none" stroke="#55eded" stroke-width="0.5" stroke-linecap="round"/><path d="M239.97173,183.79942l-0.15832,-0.5625l-0.05277,-6.5625l0.05277,-1.5" fill="none" stroke="#4fdada" stroke-width="0.5" stroke-linecap="round"/><path d="M238.59726,175.9998l1.19454,-1.05738l1.27162,0.91167v7.72276l-1.23307,0.54738l-1.23307,-0.6931z" fill="none" stroke="#7e7e7e" stroke-width="0.5" stroke-linecap="round"/><path d="M240.03079,177.11738l0.78404,-0.82143l0.0201,6.9881l-0.82426,-0.78572z" fill="#5cffff" stroke="none" stroke-width="0" stroke-linecap="round"/><path d="M240.0172,183.16334l0.58489,0.37012l-0.43579,0.13243z" fill="#57f3f3" stroke="#56eeee" stroke-width="0" stroke-linecap="round"/><path d="M239.57051,182.48894l-0.78405,0.66353l-0.0201,-6.80388l0.82426,0.78572z" data-paper-data="{&quot;index&quot;:null}" fill="#87ffff" stroke="none" stroke-width="0" stroke-linecap="round"/><path d="M239.71974,183.79746l-0.63578,-0.34296l0.51823,-0.37011z" data-paper-data="{&quot;index&quot;:null}" fill="#5afbfb" stroke="#56eeee" stroke-width="0" stroke-linecap="round"/><path d="M235.46955,156.3265l-0.09382,13.44444l-1.68872,1.88889v11.77778l3.37743,3.77778v13.66667h-4.78469l-1.31345,-0.66667l-0.09382,-39.33333z" fill="#ffffff" stroke="#f5f5f5" stroke-width="0.5" stroke-linecap="round"/><path d="M230.87251,200.27094v-39.44444l3.18979,-3.33333v43.55556h-1.97016z" fill="url(#color-22)" stroke="none" stroke-width="0" stroke-linecap="butt"/><path d="M248.9478,160.65983l-0.09382,39.33333l-1.31345,0.66667h-4.78468v-13.66667l3.37743,-3.77777v-11.77778l-1.68872,-1.88889l-0.09382,-13.44444z" data-paper-data="{&quot;index&quot;:null}" fill="#ffffff" stroke="#f5f5f5" stroke-width="0.5" stroke-linecap="round"/><path d="M230.80517,200.21724l-12.66535,-7.6l-0.08443,-2l12.74979,2.3z" fill="#ffffff" stroke="#f5f5f5" stroke-width="0.5" stroke-linecap="round"/><path d="M249.12772,192.51724l12.74979,-2.3c0,0 -0.00531,0.54489 -0.00828,0.84949c-0.00346,0.35448 -0.01122,1.15051 -0.01122,1.15051l-12.7303,7.6z" data-paper-data="{&quot;index&quot;:null}" fill="#ffffff" stroke="#f5f5f5" stroke-width="0.5" stroke-linecap="round"/><g fill="none" stroke-linecap="round"><path d="M216.67277,178.90752v13.125" stroke="#b6b6b6" stroke-width="3"/><path d="M217.09088,192.05237v-13" stroke="#c2c2c2" stroke-width="2"/></g><path d="M235.75234,206.27683v-4.27273c0,0 2.14305,-0.51228 3.9915,-0.5c1.84778,0.01228 3.9915,0.5 3.9915,0.5v4.27273c0,0 -2.21423,-0.63636 -4.02989,-0.63636c-1.84125,0 -3.95313,0.63636 -3.95313,0.63636z" fill="url(#color-23)" stroke="none" stroke-width="0" stroke-linecap="butt"/><path d="M248.91663,192.27094v-13.11111h2.43925v12.60657z" fill="url(#color-24)" stroke="none" stroke-width="0" stroke-linecap="butt"/><path d="M248.88648,200.15057v-7.85714l2.53307,-0.5v6.92857z" fill="url(#color-25)" stroke="none" stroke-width="0" stroke-linecap="butt"/><g><g><path d="M223.01023,178.11773v4.09091" fill="none" stroke="#b6b6b6" stroke-width="2.5" stroke-linecap="round"/><path d="M224.25758,179.27683v3.91667" fill="none" stroke="#df0000" stroke-width="0.5" stroke-linecap="round"/><path d="M224.4303,183.4132v-4.31818h1.34329v4.31818z" fill="#f00000" stroke="none" stroke-width="0" stroke-linecap="butt"/></g><path d="M223.39403,178.27683l-0.03837,4.18182" fill="none" stroke="#c2c2c2" stroke-width="1.5" stroke-linecap="round"/></g><g data-paper-data="{&quot;index&quot;:null}"><g><path d="M256.74612,178.11774v4.09091" fill="none" stroke="#b6b6b6" stroke-width="2.5" stroke-linecap="round"/><path d="M255.49876,179.27683v3.91666" fill="none" stroke="#df0000" stroke-width="0.5" stroke-linecap="round"/><path d="M253.98276,183.4132v-4.31818h1.34329v4.31819z" fill="#f00000" stroke="none" stroke-width="0" stroke-linecap="butt"/></g><path d="M256.40069,182.45865l-0.03837,-4.18182" fill="none" stroke="#c2c2c2" stroke-width="1.5" stroke-linecap="round"/></g><path d="M243.09593,202.03593v3.68" fill="none" stroke="#656565" stroke-width="0.5" stroke-linecap="round"/><path d="M242.11648,205.47593v-3.64" fill="none" stroke="#6a6a6a" stroke-width="0.5" stroke-linecap="round"/><path d="M241.17081,205.35593l0.03377,-3.64" fill="none" stroke="#6f6f6f" stroke-width="0.5" stroke-linecap="round"/><path d="M240.25891,201.63593l-0.06755,3.68" fill="none" stroke="#747474" stroke-width="0.5" stroke-linecap="round"/><path d="M239.24567,205.35593l0.03377,-3.76" fill="none" stroke="#787878" stroke-width="0.5" stroke-linecap="round"/><path d="M238.33377,201.67593v3.76" fill="none" stroke="#7b7b7b" stroke-width="0.5" stroke-linecap="round"/><path d="M236.22728,212.8485v-6.27273c0,0 1.63798,-0.45454 3.45454,-0.45454c1.93782,0 3.45455,0.45454 3.45455,0.45454v6.27273z" fill="url(#color-26)" stroke="none" stroke-width="0" stroke-linecap="butt"/><path d="M237.65,184.73335v-12.5h4.8v12.5z" fill="#ff0000" stroke="none" stroke-width="0" stroke-linecap="butt"/><g stroke="#a6caca" stroke-width="0.5" stroke-linecap="round"><path d="M241.22174,180.55772c0,0 -0.55811,1.7675 -1.24554,1.7675c-0.68743,0 -1.24554,-1.7675 -1.24554,-1.7675l0.01782,-4.93504c0,0 0.55811,-1.7675 1.24554,-1.7675c0.68744,0 1.24555,1.7675 1.24555,1.7675z" fill="url(#color-27)"/><path d="M241.01965,176.19633h-2.15143" fill="none"/><path d="M240.92186,177.58407h-2.05364" fill="none"/><path d="M241.01965,179.80444h-2.24922" fill="none"/><path d="M240.93445,178.39883h-2.24922" fill="none"/></g><g><path d="M238.07639,196.16668v-6.75h3.625v6.75z" fill="url(#color-28)" stroke="none" stroke-width="0" stroke-linecap="butt"/><path d="M238.07639,199.91668v-2.875h3.625v2.875z" fill="url(#color-29)" stroke="none" stroke-width="0" stroke-linecap="butt"/><g fill="none" stroke="#d4d4d4" stroke-width="1" stroke-linecap="round"><path d="M231.83889,197.13334v3.4"/><path d="M234.43889,197.13334v3.4"/></g><g fill="none" stroke="#d4d4d4" stroke-width="1" stroke-linecap="round"><path d="M245.13889,197.03334v3.4"/><path d="M247.73889,197.03334v3.4"/></g></g></g></g></svg>