<svg version="1.1" xmlns="http://www.w3.org/2000/svg" xmlns:xlink="http://www.w3.org/1999/xlink" width="278" height="16.2" viewBox="0,0,278,16.2"><defs><linearGradient x1="-62" y1="134.96639" x2="216" y2="134.96639" gradientUnits="userSpaceOnUse" id="color-1"><stop offset="0" stop-color="#01ebfc"/><stop offset="1" stop-color="#00b8c5"/></linearGradient><linearGradient x1="91.625" y1="136.1044" x2="91.625" y2="143.13333" gradientUnits="userSpaceOnUse" id="color-2"><stop offset="0" stop-color="#008d97" stop-opacity="0"/><stop offset="1" stop-color="#008d97"/></linearGradient></defs><g transform="translate(62,-126.93333)"><g data-paper-data="{&quot;isPaintingLayer&quot;:true}" fill-rule="nonzero" stroke-linejoin="miter" stroke-miterlimit="10" stroke-dasharray="" stroke-dashoffset="0" style="mix-blend-mode: normal"><path d="M15.97813,138.24452h-2.31782v-6.9874c1.48299,-0.03471 2.41375,-0.05207 2.79227,-0.05207c1.51929,0 2.72487,0.29852 3.61673,0.89555c0.89187,0.59704 1.3378,1.38845 1.3378,2.37426c0,2.5131 -1.80966,3.76965 -5.42899,3.76965zM15.51923,132.34012v4.77455c0.30075,0.01736 0.62223,0.02603 0.96446,0.02603c0.93854,0 1.67226,-0.22736 2.20115,-0.68208c0.5289,-0.45472 0.79335,-1.08994 0.79335,-1.90566c0,-1.49606 -1.03706,-2.24409 -3.11117,-2.24409c-0.20223,0 -0.48483,0.01042 -0.84779,0.03124zM29.75374,136.0525h-5.45232c0.03111,0.40959 0.23852,0.7272 0.62223,0.95283c0.3889,0.22563 0.90742,0.33844 1.55558,0.33844c0.81409,0 1.43373,-0.14232 1.85892,-0.42695l0.68446,0.91117c-0.62742,0.34017 -1.56336,0.51026 -2.80783,0.51026c-1.16151,0 -2.08189,-0.22736 -2.76116,-0.68208c-0.67408,-0.45819 -1.01113,-1.09515 -1.01113,-1.91086c0,-0.8053 0.37074,-1.45788 1.11224,-1.95772c0.7415,-0.49984 1.63337,-0.74977 2.67561,-0.74977c1.10965,0 1.99893,0.22215 2.66783,0.66646c0.6689,0.44083 1.00335,1.00315 1.00335,1.68698c0,0.14579 -0.04926,0.36621 -0.14778,0.66125zM24.36365,135.15695h3.74896c-0.12445,-0.7463 -0.7415,-1.11944 -1.85115,-1.11944c-1.01631,0 -1.64892,0.37314 -1.89781,1.11944zM35.58506,132.13185c-0.3889,-0.08678 -0.68964,-0.13017 -0.90224,-0.13017c-0.33705,0 -0.62223,0.09719 -0.85557,0.29157c-0.23334,0.19439 -0.35001,0.43389 -0.35001,0.71852c0,0.04165 0.00259,0.08157 0.00778,0.11975h1.57892v0.98407h-1.55558v4.12892h-1.78114v-4.12892h-1.11224v-0.98407h1.12002c0.03629,-0.6248 0.31112,-1.12986 0.82446,-1.51515c0.51853,-0.38529 1.18743,-0.57795 2.0067,-0.57795c0.42001,0 0.93594,0.06248 1.54781,0.18744zM43.54026,136.0525h-5.45232c0.03111,0.40959 0.23852,0.7272 0.62223,0.95283c0.3889,0.22563 0.90742,0.33844 1.55558,0.33844c0.81409,0 1.43373,-0.14232 1.85892,-0.42695l0.68446,0.91117c-0.62742,0.34017 -1.56336,0.51026 -2.80783,0.51026c-1.16151,0 -2.08189,-0.22736 -2.76116,-0.68208c-0.67408,-0.45819 -1.01113,-1.09515 -1.01113,-1.91086c0,-0.8053 0.37074,-1.45788 1.11224,-1.95772c0.7415,-0.49984 1.63337,-0.74977 2.67561,-0.74977c1.10965,0 1.99893,0.22215 2.66783,0.66646c0.6689,0.44083 1.00335,1.00315 1.00335,1.68698c0,0.14579 -0.04926,0.36621 -0.14778,0.66125zM38.15016,135.15695h3.74896c-0.12445,-0.7463 -0.7415,-1.11944 -1.85115,-1.11944c-1.01631,0 -1.64891,0.37314 -1.89781,1.11944zM49.36379,137.73426c-0.16074,0.17703 -0.44334,0.32282 -0.84779,0.43737c-0.39927,0.11108 -0.81668,0.16662 -1.25224,0.16662c-0.82446,0 -1.47262,-0.13711 -1.94448,-0.41133c-0.46668,-0.27422 -0.70001,-0.66472 -0.70001,-1.17151c0,-0.5901 0.32927,-1.05175 0.9878,-1.38498c0.66372,-0.3367 1.60744,-0.50505 2.83116,-0.50505c0.20741,0 0.45371,0.02429 0.7389,0.07289c0,-0.6005 -0.56779,-0.90076 -1.70336,-0.90076c-0.6689,0 -1.22891,0.07463 -1.68003,0.22389l-0.3889,-0.92679c0.61705,-0.19785 1.34817,-0.29678 2.19337,-0.29678c1.16151,0 2.01189,0.17703 2.55116,0.53109c0.54445,0.35406 0.81668,1.02745 0.81668,2.0202v1.0882c0,0.68381 0.20482,1.1125 0.61446,1.28606c-0.14519,0.17009 -0.30852,0.27422 -0.49001,0.31241c-0.18149,0.04165 -0.3889,0.06248 -0.62224,0.06248c-0.25408,0 -0.48482,-0.06248 -0.69223,-0.18744c-0.20223,-0.12843 -0.33964,-0.26728 -0.41223,-0.41654zM49.19268,135.83902c-0.30593,-0.04165 -0.53408,-0.06248 -0.68446,-0.06248c-1.40521,0 -2.10781,0.30893 -2.10781,0.92679c0,0.45819 0.39667,0.68729 1.19002,0.68729c1.06817,0 1.60225,-0.35752 1.60225,-1.07258zM53.16647,134.09478h-0.88668v-0.96324h0.88668v-1.03614l1.78114,-0.44257v1.47871h2.09226v0.96324h-2.09226v2.23367c0,0.36794 0.08555,0.62828 0.25667,0.78101c0.17111,0.14926 0.46927,0.22389 0.89446,0.22389c0.43038,0 0.82964,-0.0781 1.1978,-0.2343v1.09861c-0.41482,0.09372 -1.00335,0.14058 -1.76559,0.14058c-0.76223,0 -1.34817,-0.14405 -1.75781,-0.43216c-0.40445,-0.28811 -0.60668,-0.6977 -0.60668,-1.22878zM65.94312,138.24452h-2.03004c0.77261,-1.59672 2.10263,-3.55445 3.99007,-5.87316h-4.78342v-1.14547h7.20235v0.53109l-0.94113,1.18713c-0.31112,0.39918 -0.63779,0.83654 -0.98002,1.31209c-0.34223,0.47554 -0.67408,0.95977 -0.99557,1.45267c-0.32149,0.48943 -0.60667,0.94935 -0.85557,1.37978c-0.2489,0.42695 -0.45112,0.81225 -0.60668,1.15589zM71.84504,137.71344l0.7389,-1.02051c0.75187,0.39571 1.40003,0.59356 1.94448,0.59356c1.1978,0 1.7967,-0.4929 1.7967,-1.47871c0,-0.47554 -0.13741,-0.82092 -0.41223,-1.03613c-0.26963,-0.21868 -0.72334,-0.32802 -1.36113,-0.32802c-0.57038,0 -1.13039,0.18918 -1.68003,0.56753l-0.73112,-0.32282v-3.46246h5.62344v1.05175h-3.84229v1.24961c0.31112,-0.09372 0.68705,-0.14058 1.1278,-0.14058c1.02669,0 1.81485,0.19959 2.36449,0.59877c0.55483,0.39571 0.83224,0.95804 0.83224,1.68698c0,1.77722 -1.23669,2.66583 -3.71007,2.66583c-1.02669,0 -1.92374,-0.20827 -2.69116,-0.6248zM79.44255,132.77748c0,-0.48596 0.2126,-0.88167 0.63779,-1.18713c0.42519,-0.30893 0.96705,-0.46339 1.62558,-0.46339c0.65335,0 1.17187,0.15273 1.55558,0.45819c0.3889,0.30546 0.58334,0.73241 0.58334,1.28085c0,0.51025 -0.20482,0.91985 -0.61446,1.22878c-0.40964,0.30893 -0.93853,0.46339 -1.58669,0.46339c-1.46743,0 -2.20115,-0.59356 -2.20115,-1.78069zM80.77258,132.82434c0,0.31934 0.07518,0.56406 0.22556,0.73415c0.15556,0.17009 0.34741,0.25513 0.57557,0.25513c0.62742,0 0.94113,-0.32802 0.94113,-0.98407c0,-0.63869 -0.27741,-0.95803 -0.83224,-0.95803c-0.60668,0 -0.91001,0.31761 -0.91001,0.95283zM81.61259,138.33824h-1.40002l6.54901,-7.21129h1.38447zM84.43597,136.55755c0,-0.48249 0.21,-0.87646 0.63001,-1.18192c0.42519,-0.30893 0.96705,-0.4634 1.62558,-0.4634c0.65335,0 1.17187,0.15274 1.55558,0.45819c0.3889,0.30546 0.58334,0.73067 0.58334,1.27564c0,0.51025 -0.20482,0.91985 -0.61446,1.22878c-0.40445,0.30893 -0.93335,0.4634 -1.5867,0.4634c-1.46225,0 -2.19337,-0.59356 -2.19337,-1.78069zM85.75822,136.60441c0,0.31587 0.07519,0.56059 0.22556,0.73414c0.15038,0.17009 0.34482,0.25513 0.58334,0.25513c0.62742,0 0.94113,-0.32802 0.94113,-0.98407c0,-0.63869 -0.27741,-0.95804 -0.83224,-0.95804c-0.61186,0 -0.91779,0.31761 -0.91779,0.95283zM94.07675,135.67762c0,-0.78101 0.33445,-1.41622 1.00335,-1.90566c0.67408,-0.48943 1.56336,-0.73414 2.66783,-0.73414c1.15632,0 2.05596,0.23604 2.69894,0.70811c0.64297,0.4686 0.96446,1.1125 0.96446,1.93169c0,0.81572 -0.32667,1.46309 -0.98002,1.9421c-0.65335,0.47902 -1.5478,0.71852 -2.68338,0.71852c-1.16151,0 -2.06374,-0.24125 -2.70672,-0.72373c-0.64297,-0.48596 -0.96446,-1.13159 -0.96446,-1.9369zM95.92789,135.67762c0,1.12465 0.60668,1.68698 1.82004,1.68698c0.55483,0 0.99298,-0.14579 1.31447,-0.43737c0.32667,-0.29157 0.49001,-0.70811 0.49001,-1.24961c0,-1.11076 -0.60149,-1.66615 -1.80447,-1.66615c-0.56001,0 -1.00335,0.14753 -1.33003,0.44257c-0.32667,0.29157 -0.49001,0.69944 -0.49001,1.22358zM107.09098,132.13185c-0.3889,-0.08678 -0.68964,-0.13017 -0.90224,-0.13017c-0.33705,0 -0.62224,0.09719 -0.85557,0.29157c-0.23334,0.19439 -0.35001,0.43389 -0.35001,0.71852c0,0.04165 0.0026,0.08157 0.00778,0.11975h1.57892v0.98407h-1.55558v4.12892h-1.78114v-4.12892h-1.11224v-0.98407h1.12002c0.03629,-0.6248 0.31112,-1.12986 0.82446,-1.51515c0.51853,-0.38529 1.18743,-0.57795 2.0067,-0.57795c0.42001,0 0.93594,0.06248 1.5478,0.18744zM112.90325,134.09478h-0.88668v-0.96324h0.88668v-1.03614l1.78114,-0.44257v1.47871h2.09226v0.96324h-2.09226v2.23367c0,0.36794 0.08555,0.62828 0.25667,0.78101c0.17111,0.14926 0.46927,0.22389 0.89446,0.22389c0.43038,0 0.82964,-0.0781 1.1978,-0.2343v1.09861c-0.41482,0.09372 -1.00335,0.14058 -1.76559,0.14058c-0.76223,0 -1.34817,-0.14405 -1.75781,-0.43216c-0.40445,-0.28811 -0.60668,-0.6977 -0.60668,-1.22878zM123.35833,138.24452v-3.15006c0,-0.31587 -0.14778,-0.56927 -0.44334,-0.76018c-0.29556,-0.19091 -0.67927,-0.28637 -1.15113,-0.28637c-0.29556,0 -0.59371,0.0538 -0.89446,0.1614c-0.30075,0.1076 -0.51334,0.2291 -0.63779,0.36447v3.67073h-1.81226v-7.01344l1.81226,-0.28637v2.51484c0.4563,-0.28116 1.08891,-0.42174 1.89781,-0.42174c0.95409,0 1.69559,0.17703 2.22448,0.53109c0.5289,0.35406 0.79335,0.86258 0.79335,1.52556v3.15006zM133.88681,136.0525h-5.45232c0.03111,0.40959 0.23853,0.7272 0.62224,0.95283c0.3889,0.22563 0.90742,0.33844 1.55558,0.33844c0.81409,0 1.43373,-0.14232 1.85892,-0.42695l0.68446,0.91117c-0.62742,0.34017 -1.56336,0.51026 -2.80783,0.51026c-1.16151,0 -2.08189,-0.22736 -2.76116,-0.68208c-0.67408,-0.45819 -1.01113,-1.09515 -1.01113,-1.91086c0,-0.8053 0.37074,-1.45788 1.11224,-1.95772c0.7415,-0.49984 1.63336,-0.74977 2.6756,-0.74977c1.10965,0 1.99893,0.22215 2.66783,0.66646c0.6689,0.44083 1.00335,1.00315 1.00335,1.68698c0,0.14579 -0.04926,0.36621 -0.14778,0.66125zM128.49671,135.15695h3.74896c-0.12445,-0.7463 -0.74149,-1.11944 -1.85114,-1.11944c-1.01631,0 -1.64892,0.37314 -1.89781,1.11944zM146.67531,136.0525h-5.45232c0.03111,0.40959 0.23852,0.7272 0.62223,0.95283c0.3889,0.22563 0.90742,0.33844 1.55558,0.33844c0.81409,0 1.43373,-0.14232 1.85892,-0.42695l0.68446,0.91117c-0.62742,0.34017 -1.56336,0.51026 -2.80783,0.51026c-1.16151,0 -2.08189,-0.22736 -2.76116,-0.68208c-0.67408,-0.45819 -1.01113,-1.09515 -1.01113,-1.91086c0,-0.8053 0.37074,-1.45788 1.11224,-1.95772c0.7415,-0.49984 1.63337,-0.74977 2.67561,-0.74977c1.10965,0 1.99893,0.22215 2.66783,0.66646c0.6689,0.44083 1.00335,1.00315 1.00335,1.68698c0,0.14579 -0.04926,0.36621 -0.14778,0.66125zM141.28522,135.15695h3.74896c-0.12445,-0.7463 -0.7415,-1.11944 -1.85115,-1.11944c-1.01631,0 -1.64891,0.37314 -1.89781,1.11944zM153.15999,138.24452v-2.9522c0,-0.43737 -0.12445,-0.75497 -0.37334,-0.95283c-0.2489,-0.20133 -0.65593,-0.30199 -1.22113,-0.30199c-0.26445,0 -0.54445,0.04859 -0.84002,0.14579c-0.29556,0.09719 -0.5263,0.22042 -0.69223,0.36967v3.69155h-1.78116v-5.11299h1.28337l0.32667,0.47902c0.48223,-0.38182 1.1978,-0.57274 2.14671,-0.57274c0.90742,0 1.62299,0.18223 2.14671,0.5467c0.52371,0.36447 0.78557,0.87299 0.78557,1.52556v3.13444zM163.68394,136.0525h-5.45232c0.03111,0.40959 0.23852,0.7272 0.62223,0.95283c0.3889,0.22563 0.90742,0.33844 1.55558,0.33844c0.81409,0 1.43373,-0.14232 1.85892,-0.42695l0.68446,0.91117c-0.62742,0.34017 -1.56336,0.51026 -2.80783,0.51026c-1.16151,0 -2.08189,-0.22736 -2.76116,-0.68208c-0.67408,-0.45819 -1.01113,-1.09515 -1.01113,-1.91086c0,-0.8053 0.37074,-1.45788 1.11224,-1.95772c0.7415,-0.49984 1.63336,-0.74977 2.6756,-0.74977c1.10965,0 1.99893,0.22215 2.66783,0.66646c0.6689,0.44083 1.00335,1.00315 1.00335,1.68698c0,0.14579 -0.04926,0.36621 -0.14778,0.66125zM158.29384,135.15695h3.74896c-0.12445,-0.7463 -0.74149,-1.11944 -1.85114,-1.11944c-1.01631,0 -1.64892,0.37314 -1.89781,1.11944zM174.09644,138.24452v-3.20212c0,-0.66993 -0.44853,-1.0049 -1.34558,-1.0049c-0.26445,0 -0.52112,0.05207 -0.77002,0.1562c-0.2489,0.10414 -0.4226,0.22562 -0.52112,0.36447v3.68635h-1.78114v-3.38957c0,-0.24992 -0.11667,-0.44778 -0.35001,-0.59356c-0.23334,-0.14926 -0.56001,-0.22389 -0.98002,-0.22389c-0.22815,0 -0.47445,0.05554 -0.7389,0.16662c-0.25926,0.11108 -0.44853,0.23256 -0.56779,0.36447v3.67593h-1.78114v-5.11299h1.22113l0.36556,0.45298c0.4926,-0.36447 1.13298,-0.5467 1.92115,-0.5467c1.01113,0 1.77336,0.18397 2.28671,0.55191c0.22297,-0.16662 0.53409,-0.30026 0.93335,-0.40092c0.39927,-0.10067 0.79853,-0.15099 1.1978,-0.15099c0.85039,0 1.51151,0.16314 1.98337,0.48943c0.47186,0.32628 0.70779,0.77407 0.70779,1.34333v3.37394zM179.19912,131.15299c0.28519,0 0.5289,0.06769 0.73112,0.20306c0.20223,0.13538 0.30334,0.29852 0.30334,0.48943c0,0.19091 -0.10111,0.35406 -0.30334,0.48943c-0.20223,0.13538 -0.44593,0.20306 -0.73112,0.20306c-0.28519,0 -0.5289,-0.06769 -0.73112,-0.20306c-0.20223,-0.13538 -0.30334,-0.29852 -0.30334,-0.48943c0,-0.19091 0.10111,-0.35406 0.30334,-0.48943c0.20223,-0.13538 0.44593,-0.20306 0.73112,-0.20306zM178.28132,138.24452v-4.13413h-0.97224v-0.97886h2.77672v5.11299zM188.97584,136.0525h-5.45232c0.03111,0.40959 0.23853,0.7272 0.62224,0.95283c0.3889,0.22563 0.90742,0.33844 1.55558,0.33844c0.81409,0 1.43373,-0.14232 1.85892,-0.42695l0.68446,0.91117c-0.62742,0.34017 -1.56336,0.51026 -2.80783,0.51026c-1.16151,0 -2.08189,-0.22736 -2.76116,-0.68208c-0.67408,-0.45819 -1.01113,-1.09515 -1.01113,-1.91086c0,-0.8053 0.37074,-1.45788 1.11224,-1.95772c0.7415,-0.49984 1.63337,-0.74977 2.67561,-0.74977c1.10965,0 1.99893,0.22215 2.66783,0.66646c0.6689,0.44083 1.00335,1.00315 1.00335,1.68698c0,0.14579 -0.04926,0.36621 -0.14778,0.66125zM183.58574,135.15695h3.74896c-0.12445,-0.7463 -0.7415,-1.11944 -1.85115,-1.11944c-1.01631,0 -1.64891,0.37314 -1.89781,1.11944zM190.07818,137.9165l0.63779,-0.95283c0.5289,0.28463 1.13039,0.42695 1.80447,0.42695c0.68964,0 1.03446,-0.16488 1.03446,-0.49464c0,-0.19439 -0.1037,-0.35406 -0.31112,-0.47902c-0.20741,-0.12496 -0.61446,-0.27075 -1.22113,-0.43737c-1.31187,-0.36794 -1.96781,-0.87993 -1.96781,-1.53597c0,-0.44431 0.25149,-0.78968 0.75446,-1.03614c0.50297,-0.24645 1.14594,-0.36967 1.92892,-0.36967c0.79335,0 1.54003,0.11975 2.24004,0.35926l-0.51334,0.92679c-0.3889,-0.22563 -0.93076,-0.33843 -1.62558,-0.33843c-0.62223,0 -0.93335,0.16661 -0.93335,0.49984c0,0.12843 0.10111,0.24645 0.30334,0.35406c0.20741,0.10414 0.64557,0.24471 1.31447,0.42174c0.6689,0.17703 1.15113,0.3905 1.44669,0.64042c0.29556,0.24992 0.44334,0.55365 0.44334,0.91118c0,0.47554 -0.26445,0.84869 -0.79335,1.11944c-0.52371,0.27075 -1.23669,0.40612 -2.13892,0.40612c-0.50816,0 -0.9152,-0.02777 -1.22113,-0.08331c-0.30593,-0.05554 -0.70001,-0.16835 -1.18224,-0.33843z" fill="#01ebfc" stroke="#00ecfd" stroke-width="0.5" stroke-linecap="square"/><path d="M-62,142.99944v-16.06612h278v16.06612z" fill="url(#color-1)" stroke="none" stroke-width="0" stroke-linecap="butt"/><path d="M-32.375,143.13333v-7.02893h248v7.02893z" fill="url(#color-2)" stroke="none" stroke-width="0" stroke-linecap="butt"/></g></g></svg>