<svg version="1.1" xmlns="http://www.w3.org/2000/svg" xmlns:xlink="http://www.w3.org/1999/xlink" width="52.24163" height="73.88873" viewBox="0,0,52.24163,73.88873"><defs><radialGradient cx="241.68082" cy="208.21143" r="8.89813" gradientUnits="userSpaceOnUse" id="color-1"><stop offset="0" stop-color="#fff696"/><stop offset="1" stop-color="#fff696" stop-opacity="0"/></radialGradient><radialGradient cx="242.08477" cy="205.428" r="12.35459" gradientUnits="userSpaceOnUse" id="color-2"><stop offset="0" stop-color="#fcd81d"/><stop offset="1" stop-color="#fcd81d" stop-opacity="0"/></radialGradient><linearGradient x1="241.45084" y1="204.32198" x2="241.45084" y2="221.18561" gradientUnits="userSpaceOnUse" id="color-3"><stop offset="0" stop-color="#ffffff"/><stop offset="1" stop-color="#ffffff" stop-opacity="0"/></linearGradient><radialGradient cx="241.52024" cy="208.44531" r="6.32236" gradientUnits="userSpaceOnUse" id="color-4"><stop offset="0" stop-color="#ffee35"/><stop offset="1" stop-color="#ffee35" stop-opacity="0"/></radialGradient><linearGradient x1="240.86035" y1="125.00034" x2="240.86035" y2="219.02639" gradientUnits="userSpaceOnUse" id="color-5"><stop offset="0" stop-color="#a300f2"/><stop offset="1" stop-color="#a300f2" stop-opacity="0"/></linearGradient><linearGradient x1="240.62263" y1="96.98158" x2="240.62263" y2="225.00219" gradientUnits="userSpaceOnUse" id="color-6"><stop offset="0" stop-color="#f1f1f1"/><stop offset="1" stop-color="#f1f1f1" stop-opacity="0"/></linearGradient><linearGradient x1="241.63091" y1="204.61823" x2="241.63091" y2="212.52599" gradientUnits="userSpaceOnUse" id="color-7"><stop offset="0" stop-color="#ff4f00"/><stop offset="1" stop-color="#ff4f00" stop-opacity="0"/></linearGradient><linearGradient x1="241.56292" y1="204.86497" x2="241.56292" y2="210.2108" gradientUnits="userSpaceOnUse" id="color-8"><stop offset="0" stop-color="#ffd400"/><stop offset="1" stop-color="#ffd400" stop-opacity="0"/></linearGradient><linearGradient x1="241.56064" y1="204.50691" x2="241.56064" y2="213.38923" gradientUnits="userSpaceOnUse" id="color-9"><stop offset="0" stop-color="#ffee00"/><stop offset="1" stop-color="#ffee00" stop-opacity="0"/></linearGradient><linearGradient x1="241.48812" y1="204.43396" x2="241.48812" y2="208.32134" gradientUnits="userSpaceOnUse" id="color-10"><stop offset="0" stop-color="#ffee00"/><stop offset="1" stop-color="#ffee00" stop-opacity="0"/></linearGradient><linearGradient x1="243.53087" y1="204.50691" x2="243.53087" y2="208.39429" gradientUnits="userSpaceOnUse" id="color-11"><stop offset="0" stop-color="#ffee00"/><stop offset="1" stop-color="#ffee00" stop-opacity="0"/></linearGradient><linearGradient x1="239.44535" y1="204.50691" x2="239.44535" y2="208.39429" gradientUnits="userSpaceOnUse" id="color-12"><stop offset="0" stop-color="#ffee00"/><stop offset="1" stop-color="#ffee00" stop-opacity="0"/></linearGradient><radialGradient cx="241.68505" cy="207.64309" r="6.32236" gradientUnits="userSpaceOnUse" id="color-13"><stop offset="0" stop-color="#feea00"/><stop offset="1" stop-color="#feea00" stop-opacity="0"/></radialGradient><linearGradient x1="236.84823" y1="206.02092" x2="245.88232" y2="206.02092" gradientUnits="userSpaceOnUse" id="color-14"><stop offset="0" stop-color="#5f5f5f"/><stop offset="1" stop-color="#4c4c4c"/></linearGradient><linearGradient x1="236.84823" y1="206.02092" x2="245.88232" y2="206.02092" gradientUnits="userSpaceOnUse" id="color-15"><stop offset="0" stop-color="#949494"/><stop offset="1" stop-color="#757575"/></linearGradient><linearGradient x1="237.12679" y1="204.21928" x2="240.05784" y2="204.21928" gradientUnits="userSpaceOnUse" id="color-16"><stop offset="0" stop-color="#4c4c4c"/><stop offset="1" stop-color="#4c4c4c" stop-opacity="0"/></linearGradient><linearGradient x1="245.60312" y1="204.21927" x2="242.67207" y2="204.21927" gradientUnits="userSpaceOnUse" id="color-17"><stop offset="0" stop-color="#5f5f5f"/><stop offset="1" stop-color="#5f5f5f" stop-opacity="0"/></linearGradient><linearGradient x1="240.6819" y1="206.57577" x2="240.6819" y2="212.8485" gradientUnits="userSpaceOnUse" id="color-18"><stop offset="0" stop-color="#fccf00"/><stop offset="1" stop-color="#fccf00" stop-opacity="0"/></linearGradient><linearGradient x1="223.76624" y1="175.04168" x2="223.76624" y2="181.16668" gradientUnits="userSpaceOnUse" id="color-19"><stop offset="0" stop-color="#ff8800"/><stop offset="1" stop-color="#ffc500"/></linearGradient><linearGradient x1="256.29826" y1="175.04168" x2="256.29826" y2="181.16668" gradientUnits="userSpaceOnUse" id="color-20"><stop offset="0" stop-color="#ff8800"/><stop offset="1" stop-color="#ffc500"/></linearGradient><linearGradient x1="229.37094" y1="171.04763" x2="229.37094" y2="180.4979" gradientUnits="userSpaceOnUse" id="color-21"><stop offset="0" stop-color="#ff8800"/><stop offset="1" stop-color="#ffc500"/></linearGradient><linearGradient x1="226.50648" y1="173.47077" x2="226.50648" y2="180.61906" gradientUnits="userSpaceOnUse" id="color-22"><stop offset="0" stop-color="#ff8800"/><stop offset="1" stop-color="#ffc500"/></linearGradient><linearGradient x1="250.64977" y1="171.04763" x2="250.64977" y2="180.4979" gradientUnits="userSpaceOnUse" id="color-23"><stop offset="0" stop-color="#ff8800"/><stop offset="1" stop-color="#ffc500"/></linearGradient><linearGradient x1="253.51419" y1="173.47077" x2="253.51419" y2="180.61906" gradientUnits="userSpaceOnUse" id="color-24"><stop offset="0" stop-color="#ff8800"/><stop offset="1" stop-color="#ffc500"/></linearGradient><linearGradient x1="237.72296" y1="167.87077" x2="242.45158" y2="167.87077" gradientUnits="userSpaceOnUse" id="color-25"><stop offset="0" stop-color="#5f5f5f"/><stop offset="1" stop-color="#a8a8a8"/></linearGradient><linearGradient x1="240.12342" y1="161.54813" x2="240.12342" y2="162.48361" gradientUnits="userSpaceOnUse" id="color-26"><stop offset="0" stop-color="#7a7a7a"/><stop offset="1" stop-color="#646464"/></linearGradient><linearGradient x1="239.31369" y1="165.17487" x2="239.47735" y2="165.17487" gradientUnits="userSpaceOnUse" id="color-27"><stop offset="0" stop-color="#00eeec"/><stop offset="1" stop-color="#1cfff4"/></linearGradient><linearGradient x1="236.93251" y1="195.55477" x2="240.04249" y2="195.55477" gradientUnits="userSpaceOnUse" id="color-28"><stop offset="0" stop-color="#0e4d62"/><stop offset="1" stop-color="#126884"/></linearGradient><linearGradient x1="243.07063" y1="195.55477" x2="239.96064" y2="195.55477" gradientUnits="userSpaceOnUse" id="color-29"><stop offset="0" stop-color="#0e4d62"/><stop offset="1" stop-color="#126884"/></linearGradient><linearGradient x1="231.35753" y1="179.1031" x2="234.44932" y2="179.1031" gradientUnits="userSpaceOnUse" id="color-30"><stop offset="0" stop-color="#105972"/><stop offset="1" stop-color="#105972" stop-opacity="0"/></linearGradient><linearGradient x1="218.5675" y1="183.34818" x2="222.68459" y2="183.34818" gradientUnits="userSpaceOnUse" id="color-31"><stop offset="0" stop-color="#ff9b00"/><stop offset="1" stop-color="#e68100"/></linearGradient><linearGradient x1="248.81706" y1="193.40468" x2="251.18137" y2="193.40468" gradientUnits="userSpaceOnUse" id="color-32"><stop offset="0" stop-color="#009dd2"/><stop offset="1" stop-color="#009dd2" stop-opacity="0"/></linearGradient><linearGradient x1="239.10754" y1="178.0902" x2="241.16085" y2="178.0902" gradientUnits="userSpaceOnUse" id="color-33"><stop offset="0" stop-color="#c7ffff"/><stop offset="1" stop-color="#91f5f5"/></linearGradient><linearGradient x1="248.69689" y1="189.16526" x2="251.15215" y2="189.16526" gradientUnits="userSpaceOnUse" id="color-34"><stop offset="0" stop-color="#105972"/><stop offset="1" stop-color="#105972" stop-opacity="0"/></linearGradient><linearGradient x1="238.45567" y1="192.76641" x2="241.52928" y2="192.76641" gradientUnits="userSpaceOnUse" id="color-35"><stop offset="0" stop-color="#8b8b8b"/><stop offset="1" stop-color="#7f7f7f"/></linearGradient><linearGradient x1="261.51385" y1="183.34818" x2="257.39677" y2="183.34818" gradientUnits="userSpaceOnUse" id="color-36"><stop offset="0" stop-color="#ff9b00"/><stop offset="1" stop-color="#e68100"/></linearGradient><linearGradient x1="233.49771" y1="156.16668" x2="233.49771" y2="180.97918" gradientUnits="userSpaceOnUse" id="color-37"><stop offset="0" stop-color="#e68100"/><stop offset="1" stop-color="#ff9b00"/></linearGradient><linearGradient x1="233.49771" y1="156.16668" x2="233.49771" y2="180.97918" gradientUnits="userSpaceOnUse" id="color-38"><stop offset="0" stop-color="#e68100"/><stop offset="1" stop-color="#ff9b00"/></linearGradient><linearGradient x1="246.49007" y1="156.04168" x2="246.49007" y2="180.85418" gradientUnits="userSpaceOnUse" id="color-39"><stop offset="0" stop-color="#e68100"/><stop offset="1" stop-color="#ff9b00"/></linearGradient><linearGradient x1="246.49007" y1="156.04168" x2="246.49007" y2="180.85418" gradientUnits="userSpaceOnUse" id="color-40"><stop offset="0" stop-color="#e68100"/><stop offset="1" stop-color="#ff9b00"/></linearGradient><linearGradient x1="235.21384" y1="187.03335" x2="237.58724" y2="187.03335" gradientUnits="userSpaceOnUse" id="color-41"><stop offset="0" stop-color="#ececec"/><stop offset="1" stop-color="#dbdbdb"/></linearGradient><linearGradient x1="236.40053" y1="183.33335" x2="236.40053" y2="187.03335" gradientUnits="userSpaceOnUse" id="color-42"><stop offset="0" stop-color="#000000" stop-opacity="0"/><stop offset="1" stop-color="#000000" stop-opacity="0"/></linearGradient><linearGradient x1="242.4159" y1="186.83335" x2="244.78931" y2="186.83335" gradientUnits="userSpaceOnUse" id="color-43"><stop offset="0" stop-color="#dbdbdb"/><stop offset="1" stop-color="#ececec"/></linearGradient><linearGradient x1="243.60259" y1="183.13335" x2="243.60259" y2="186.83335" gradientUnits="userSpaceOnUse" id="color-44"><stop offset="0" stop-color="#000000" stop-opacity="0"/><stop offset="1" stop-color="#000000" stop-opacity="0"/></linearGradient><linearGradient x1="231.23429" y1="159.66668" x2="235.83788" y2="159.66668" gradientUnits="userSpaceOnUse" id="color-45"><stop offset="0" stop-color="#ececec"/><stop offset="1" stop-color="#dbdbdb"/></linearGradient><linearGradient x1="231.23429" y1="159.66668" x2="235.83788" y2="159.66668" gradientUnits="userSpaceOnUse" id="color-46"><stop offset="0" stop-color="#ececec"/><stop offset="1" stop-color="#dbdbdb"/></linearGradient><linearGradient x1="244.12436" y1="159.54168" x2="248.7279" y2="159.54168" gradientUnits="userSpaceOnUse" id="color-47"><stop offset="0" stop-color="#dbdbdb"/><stop offset="1" stop-color="#ececec"/></linearGradient><linearGradient x1="244.12436" y1="159.54168" x2="248.7279" y2="159.54168" gradientUnits="userSpaceOnUse" id="color-48"><stop offset="0" stop-color="#dbdbdb"/><stop offset="1" stop-color="#ececec"/></linearGradient><linearGradient x1="238.12831" y1="197.61642" x2="241.85666" y2="197.61642" gradientUnits="userSpaceOnUse" id="color-49"><stop offset="0" stop-color="#8b8b8b"/><stop offset="1" stop-color="#7f7f7f"/></linearGradient><linearGradient x1="236.6361" y1="203.97262" x2="246.09068" y2="203.97262" gradientUnits="userSpaceOnUse" id="color-50"><stop offset="0" stop-color="#888888"/><stop offset="1" stop-color="#696969"/></linearGradient></defs><g transform="translate(-215.97287,-152.51202)"><g data-paper-data="{&quot;isPaintingLayer&quot;:true}" fill-rule="nonzero" stroke-linejoin="miter" stroke-miterlimit="10" stroke-dasharray="" stroke-dashoffset="0" style="mix-blend-mode: normal"><path d="M248.91672,200.38889v-2.66667h4.83333v2.66667z" fill="#3195b6" stroke="none" stroke-width="NaN" stroke-linecap="butt"/><path d="M217.24291,194.80953v-4.6h48.2v4.6c0,0 -16.81728,7.8 -24.8,7.8c-8.08271,0 -23.4,-7.8 -23.4,-7.8z" fill="#3195b6" stroke="none" stroke-width="NaN" stroke-linecap="butt"/><path d="M241.89293,164.05555v-11.33333l1.86503,0.21803l8.63497,6.78197v4.33333z" fill="#d2d2d2" stroke="none" stroke-width="0" stroke-linecap="butt"/><path d="M243.23458,179.22222v-16.66666h9.22619v16.66666z" fill="#e48500" stroke="none" stroke-width="0" stroke-linecap="butt"/><path d="M216.99455,194.55556v-15.5h50.97768v15.5c0,0 -1.22873,1 -2.66982,1c-6.12999,0 -48.30786,-1 -48.30786,-1z" fill="#3195b6" stroke="none" stroke-width="NaN" stroke-linecap="butt"/><path d="M249.48618,208.21143c0,4.34894 -3.49458,7.87446 -7.80538,7.87446c-4.3108,0 -7.80538,-3.52552 -7.80538,-7.87446c0,-4.34894 3.49459,-7.87446 7.80538,-7.87446c4.3108,0 7.80538,3.52552 7.80538,7.87446z" fill="url(#color-1)" stroke="none" stroke-width="0" stroke-linecap="butt"/><path d="M254.27464,205.428c0,6.82325 -5.45758,12.35459 -12.18986,12.35459c-6.73227,0 -12.18987,-5.53134 -12.18987,-12.35459c0,-6.82325 5.45759,-12.35459 12.18987,-12.35459c6.73227,0 12.18986,5.53134 12.18986,12.35459z" fill="url(#color-2)" stroke="none" stroke-width="0" stroke-linecap="butt"/><path d="M243.95084,204.32198l-2.5,16.86364l-2.5,-16.86364z" fill="url(#color-3)" stroke="#000000" stroke-width="0" stroke-linecap="round"/><path d="M247.06617,208.44531c0,3.09004 -2.48299,5.59501 -5.54593,5.59501c-3.06293,0 -5.54593,-2.50497 -5.54593,-5.59501c0,-3.09004 2.48299,-5.59501 5.54593,-5.59501c3.06293,0 5.54593,2.50497 5.54593,5.59501z" fill="url(#color-4)" stroke="none" stroke-width="0" stroke-linecap="butt"/><g stroke="#000000" stroke-width="0" stroke-linecap="round"><path d="M243.64728,205.12112l-1.99752,14.93246l-2.35162,-14.93246z" fill="url(#color-5)"/><path d="M244.41719,206.06954l-2.71971,20.33121l-3.20183,-20.33121z" fill="url(#color-6)"/><path d="M242.7292,204.61823c0,0 1.97104,0.54702 1.90371,2.41626c-0.16093,4.46815 -3.2949,5.49149 -3.2949,5.49149c0,0 -2.64402,-0.90981 -2.70914,-5.49149c-0.02772,-1.95089 1.8305,-2.41626 1.8305,-2.41626z" fill="url(#color-7)"/><path d="M242.3054,204.86497c0,0 1.33247,0.3698 1.28696,1.63345c-0.10879,3.02057 -2.22743,3.71239 -2.22743,3.71239c0,0 -1.78743,-0.61506 -1.83145,-3.71239c-0.01874,-1.31885 1.23746,-1.63345 1.23746,-1.63345z" fill="url(#color-8)"/><path d="M242.79429,204.50691c0,0 2.21395,0.61444 2.13833,2.71404c-0.18075,5.01881 -3.70096,6.16828 -3.70096,6.16828c0,0 -2.96987,-1.02195 -3.04302,-6.16828c-0.03114,-2.19132 2.05609,-2.71404 2.05609,-2.71404z" fill="url(#color-9)"/><path d="M242.02803,204.43396c0,0 0.96894,0.26891 0.93585,1.18781c-0.07911,2.1965 -1.61974,2.69957 -1.61974,2.69957c0,0 -1.29978,-0.44726 -1.33179,-2.69957c-0.01364,-0.95904 0.89985,-1.18781 0.89985,-1.18781z" fill="url(#color-10)"/><path d="M244.0708,204.50691c0,0 0.96895,0.26892 0.93585,1.18781c-0.07911,2.1965 -1.61975,2.69957 -1.61975,2.69957c0,0 -1.29978,-0.44726 -1.33179,-2.69957c-0.01363,-0.95904 0.89986,-1.18781 0.89986,-1.18781z" fill="url(#color-11)"/><path d="M239.98527,204.50691c0,0 0.96895,0.26892 0.93585,1.18781c-0.07911,2.1965 -1.61975,2.69957 -1.61975,2.69957c0,0 -1.29978,-0.44726 -1.33179,-2.69957c-0.01363,-0.95904 0.89986,-1.18781 0.89986,-1.18781z" fill="url(#color-12)"/></g><path d="M247.23098,207.64309c0,3.09004 -2.48299,5.59501 -5.54593,5.59501c-3.06294,0 -5.54593,-2.50497 -5.54593,-5.59501c0,-3.09004 2.48299,-5.59501 5.54593,-5.59501c3.06294,0 5.54593,2.50498 5.54593,5.59501z" fill="url(#color-13)" stroke="none" stroke-width="0" stroke-linecap="butt"/><path d="M245.88232,206.02092c0,0.46442 -2.02235,0.84091 -4.51705,0.84091c-2.4947,0 -4.51705,-0.37649 -4.51705,-0.84091c0,-0.46442 2.02235,-0.84091 4.51705,-0.84091c2.4947,0 4.51705,0.37649 4.51705,0.84091z" fill="url(#color-14)" stroke="url(#color-15)" stroke-width="0.5" stroke-linecap="butt"/><path d="M237.12679,206.08134v-3.72414h2.93103l0.03448,4.2069c0,0 -1.15126,-0.04387 -1.66802,-0.12799c-0.46663,-0.07596 -1.2975,-0.35477 -1.2975,-0.35477z" fill="url(#color-16)" stroke="none" stroke-width="0" stroke-linecap="butt"/><path d="M244.30559,206.43611c-0.51675,0.08413 -1.66802,0.12799 -1.66802,0.12799l0.03448,-4.2069h2.93104v3.72414c0,0 -0.83087,0.2788 -1.2975,0.35477z" data-paper-data="{&quot;index&quot;:null}" fill="url(#color-17)" stroke="none" stroke-width="0" stroke-linecap="butt"/><path d="M237.52466,200.81949v-6h2.5v6z" fill="#0098ca" stroke="none" stroke-width="0" stroke-linecap="butt"/><path d="M239.97553,200.81949v-6h2.5v6z" fill="#0098ca" stroke="none" stroke-width="0" stroke-linecap="butt"/><path d="M237.22738,212.8485v-6.27273c0,0 1.63798,-0.45454 3.45454,-0.45454c1.93782,0 3.45455,0.45454 3.45455,0.45454v6.27273z" fill="url(#color-18)" stroke="none" stroke-width="0" stroke-linecap="butt"/><g><g fill="none" stroke="#3195b6" stroke-width="1" stroke-linecap="round"><path d="M242.42016,203.02633h-8.64874l-16.10455,-8.375"/><path d="M242.4798,202.15133h-8.64874l-16.10456,-8.375"/><path d="M242.30086,201.21383h-8.64874l-16.10456,-8.375"/></g><g fill="none" stroke="#3195b6" stroke-width="1" stroke-linecap="round"><path d="M267.59522,194.65133l-16.10455,8.375h-8.64874"/><path d="M267.53558,193.77633l-16.10456,8.375h-8.64874"/><path d="M267.7145,192.83883l-16.10456,8.375h-8.64874"/></g><path d="M232.20141,203.4762v-3.42857h20.58656v3.42857z" fill="#0f566e" stroke="none" stroke-width="0" stroke-linecap="butt"/></g><g><g><path d="M238.53312,153.1382c0,0 0.72009,0.91199 1.26483,1.36364c0.54473,0.45165 0.85343,0.53754 1.19042,0.63636c0.33701,0.09883 0.66961,-0.09091 0.66961,-0.09091l1.11601,16.90909l-6.91934,1.36364z" fill="#001820" stroke="#ff0000" stroke-width="0" stroke-linecap="round"/><path d="M223.76624,175.04168v6.125" fill="none" stroke="url(#color-19)" stroke-width="2" stroke-linecap="round"/><path d="M256.29826,175.04168v6.125" fill="none" stroke="url(#color-20)" stroke-width="2" stroke-linecap="round"/><g><g><path d="M220.95578,177.94989v4.09091" fill="none" stroke="#b6b6b6" stroke-width="2.5" stroke-linecap="round"/><path d="M222.16479,179.10898v3.91667" fill="none" stroke="#115e78" stroke-width="0.5" stroke-linecap="round"/><path d="M222.33221,183.24535v-4.31818h1.30202v4.31818z" fill="#136985" stroke="none" stroke-width="0" stroke-linecap="butt"/></g><path d="M221.2906,182.2908l0.03719,-4.18182" fill="none" stroke="#c2c2c2" stroke-width="1.5" stroke-linecap="round"/></g><g data-paper-data="{&quot;index&quot;:null}"><g><path d="M259.17949,177.94989v4.09091" fill="none" stroke="#b6b6b6" stroke-width="2.5" stroke-linecap="round"/><path d="M257.97048,179.10898v3.91666" fill="none" stroke="#115e78" stroke-width="0.5" stroke-linecap="round"/><path d="M256.50104,183.24535v-4.31818h1.30203v4.31819z" fill="#136985" stroke="none" stroke-width="0" stroke-linecap="butt"/></g><path d="M258.84472,182.2908l-0.03719,-4.18182" fill="none" stroke="#c2c2c2" stroke-width="1.5" stroke-linecap="round"/></g><g fill="none" stroke-width="2" stroke-linecap="round"><path d="M229.37094,180.49789v-9.45026" stroke="url(#color-21)"/><path d="M226.50648,180.61905v-7.14828" stroke="url(#color-22)"/></g><g data-paper-data="{&quot;index&quot;:null}" fill="none" stroke-width="2" stroke-linecap="round"><path d="M250.64977,180.49789v-9.45026" stroke="url(#color-23)"/><path d="M253.51419,173.47078v7.14828" stroke="url(#color-24)"/></g><path d="M237.72296,173.76976v-11.79798h4.72863v11.79798z" fill="url(#color-25)" stroke="none" stroke-width="0" stroke-linecap="butt"/><path d="M241.88626,162.01588c0,0.25833 -0.78924,0.46774 -1.76282,0.46774c-0.9736,0 -1.76284,-0.20941 -1.76284,-0.46774c0,-0.25833 0.78925,-0.46775 1.76284,-0.46775c0.9736,0 1.76282,0.20942 1.76282,0.46775z" fill="url(#color-26)" stroke="#7e7e7e" stroke-width="0.5" stroke-linecap="butt"/><path d="M218.53768,178.86467l21.58336,0.125l-0.03866,21.91417l-7.44612,-0.03917l-14.44732,-8.625z" fill="#3dbce6" stroke="#b6b6b6" stroke-width="0" stroke-linecap="round"/><path d="M218.91162,192.53621l0.0105,-13.58974" fill="none" stroke="#0098ca" stroke-width="0.5" stroke-linecap="round"/><path d="M219.95562,179.88452l-0.06295,12.23077" fill="none" stroke="#2fb2de" stroke-width="2" stroke-linecap="round"/><path d="M219.17545,180.24806v-1.35714h1.57837v1.35714z" fill="#00bcfb" stroke="none" stroke-width="0" stroke-linecap="butt"/><path d="M239.05126,199.60521v-19.28572" fill="none" stroke="#3195b6" stroke-width="2.5" stroke-linecap="round"/><path d="M238.05751,183.74806v-4.71428h2.04604v4.71428z" fill="#f00000" stroke="none" stroke-width="0" stroke-linecap="butt"/><path d="M230.84884,191.90133v-7.1875" fill="none" stroke="#00bcfb" stroke-width="1" stroke-linecap="round"/><path d="M232.43454,183.77633l-0.1023,8.6875" fill="none" stroke="#f50000" stroke-width="1" stroke-linecap="round"/><path d="M223.07389,189.08883v-7.9375" fill="none" stroke="#2fb2de" stroke-width="1" stroke-linecap="round"/><path d="M227.9844,182.08883v11.875" fill="none" stroke="#2fb2de" stroke-width="1" stroke-linecap="round"/><path d="M234.88978,195.46383l0.05114,-11.1875" fill="none" stroke="#fa0000" stroke-width="1" stroke-linecap="round"/><path d="M225.78489,194.33883l0.1023,-5.125" fill="none" stroke="#2fb2de" stroke-width="1" stroke-linecap="round"/><path d="M236.88467,181.40133l0.05115,11" fill="none" stroke="#fa0000" stroke-width="1" stroke-linecap="round"/><path d="M261.97785,192.23967l-14.44732,8.625l-7.44611,0.03917l-0.03867,-21.91417l21.58336,-0.125z" fill="#3dbce6" stroke="#b6b6b6" stroke-width="0" stroke-linecap="round"/><path d="M262.69397,178.73967v13.125" fill="none" stroke="#b6b6b6" stroke-width="3" stroke-linecap="round"/><path d="M261.2552,192.53621l-0.01049,-13.58974" fill="none" stroke="#0098ca" stroke-width="0.5" stroke-linecap="round"/><path d="M262.28871,178.88452v13" fill="none" stroke="#c2c2c2" stroke-width="2" stroke-linecap="round"/><path d="M260.21117,179.88452l0.06295,12.23077" fill="none" stroke="#2fb2de" stroke-width="2" stroke-linecap="round"/><path d="M259.41301,180.24806v-1.35714h1.57837v1.35714z" fill="#00b1ec" stroke="none" stroke-width="0" stroke-linecap="butt"/><path d="M241.11558,180.31949v19.28572" fill="none" stroke="#3195b6" stroke-width="2.5" stroke-linecap="round"/><path d="M240.0633,183.74806v-4.71428h2.04604v4.71428z" fill="#f00000" stroke="none" stroke-width="0" stroke-linecap="butt"/><path d="M249.31802,191.90133v-7.1875" fill="none" stroke="#00bcfb" stroke-width="1" stroke-linecap="round"/><path d="M247.73233,183.77633l0.1023,8.6875" fill="none" stroke="#f50000" stroke-width="1" stroke-linecap="round"/><path d="M257.09294,181.15133v7.9375" fill="none" stroke="#2fb2de" stroke-width="1" stroke-linecap="round"/><path d="M252.18247,193.96383v-11.875" fill="none" stroke="#2fb2de" stroke-width="1" stroke-linecap="round"/><path d="M245.27708,195.46383l-0.05114,-11.1875" fill="none" stroke="#fa0000" stroke-width="1" stroke-linecap="round"/><path d="M254.38196,194.33883l-0.10231,-5.125" fill="none" stroke="#2fb2de" stroke-width="1" stroke-linecap="round"/><path d="M243.23104,192.40133l0.05115,-11" fill="none" stroke="#fa0000" stroke-width="1" stroke-linecap="round"/><path d="M240.76784,167.61264v-4.77419h0.2112v4.77419z" fill="#1dfffb" stroke="none" stroke-width="0" stroke-linecap="butt"/><path d="M241.28595,153.41091v17.45455c0,0 -0.33698,0.95908 -1.26483,0.90909c-0.90663,-0.04885 -1.11602,-0.90909 -1.11602,-0.90909l-0.0744,-17.45455" fill="none" stroke="#0c4152" stroke-width="1" stroke-linecap="round"/><path d="M232.20992,198.72782l0.14787,-37.58147l5.22685,-5.42857v15.66277c0,0 0.65496,1.92095 2.4365,1.92095c1.75039,0 2.39837,-1.79051 2.39837,-1.79051v-15.95287l5.35753,5.42857l-0.17624,37.7619l-2.4105,0.71141l-9.46787,0.0566z" fill="#0f546c" stroke="#0f546c" stroke-width="2.5" stroke-linecap="round"/><path d="M236.17707,195.54754l-0.09092,-18.33333" fill="none" stroke="#10576f" stroke-width="1" stroke-linecap="round"/><path d="M245.63431,177.21421l0.09092,11.77777" fill="none" stroke="#10576f" stroke-width="1" stroke-linecap="round"/><path d="M243.54283,195.43642l-0.18188,-10.66666" fill="none" stroke="#10576f" stroke-width="1" stroke-linecap="round"/><path d="M237.81391,199.54754v-13.33333" fill="none" stroke="#10576f" stroke-width="1" stroke-linecap="round"/><path d="M242.26971,173.65865l-0.09092,7" fill="none" stroke="#10576f" stroke-width="1" stroke-linecap="round"/><path d="M235.4496,159.3253l-0.18188,13.77777" fill="none" stroke="#10576f" stroke-width="1" stroke-linecap="round"/><path d="M246.63461,172.43642l0.18188,-12.11111" fill="none" stroke="#fa0000" stroke-width="1" stroke-linecap="round"/><path d="M244.36124,173.99198l0.2728,-13" fill="none" stroke="#10576f" stroke-width="1" stroke-linecap="round"/><path d="M239.31369,167.52489v-4.7h0.16369v4.7z" fill="url(#color-27)" stroke="none" stroke-width="0" stroke-linecap="butt"/><path d="M240.02862,167.70942v-4.80645h0.1848v4.80645z" fill="#1dfffb" stroke="none" stroke-width="0" stroke-linecap="butt"/><path d="M238.72378,175.83195l1.15783,-1.05738l1.23255,0.91167v7.72276l-1.19519,0.54738l-1.19519,-0.6931z" fill="#8cffff" stroke="#7e7e7e" stroke-width="0.5" stroke-linecap="round"/><path d="M241.02788,175.69407l-1.17648,1.125l-1.07418,-0.875" fill="none" stroke="#55eded" stroke-width="0.5" stroke-linecap="round"/><path d="M238.98183,183.19407l0.81841,-0.6875l1.02301,0.8125" fill="none" stroke="#55eded" stroke-width="0.5" stroke-linecap="round"/><path d="M240.05602,183.63157l-0.15345,-0.5625l-0.05115,-6.5625l0.05115,-1.5" fill="none" stroke="#4fdada" stroke-width="0.5" stroke-linecap="round"/><path d="M238.72378,175.83195l1.15783,-1.05738l1.23255,0.91167v7.72276l-1.19519,0.54738l-1.19519,-0.6931z" fill="none" stroke="#7e7e7e" stroke-width="0.5" stroke-linecap="round"/><path d="M240.11327,176.94953l0.75996,-0.82143l0.01948,6.9881l-0.79894,-0.78572z" fill="#5cffff" stroke="none" stroke-width="0" stroke-linecap="round"/><path d="M240.1001,182.99549l0.56692,0.37012l-0.42241,0.13243z" fill="#57f3f3" stroke="#56eeee" stroke-width="0" stroke-linecap="round"/><path d="M239.66714,182.32109l-0.75996,0.66353l-0.01948,-6.80388l0.79893,0.78572z" data-paper-data="{&quot;index&quot;:null}" fill="#87ffff" stroke="none" stroke-width="0" stroke-linecap="round"/><path d="M236.93251,200.90477v-10.7h3.10998v10.7z" fill="url(#color-28)" stroke="none" stroke-width="0" stroke-linecap="butt"/><path d="M239.96064,200.90477v-10.7h3.10998v10.7z" data-paper-data="{&quot;index&quot;:null}" fill="url(#color-29)" stroke="none" stroke-width="0" stroke-linecap="butt"/><path d="M239.81179,183.62961l-0.61625,-0.34296l0.5023,-0.37011z" data-paper-data="{&quot;index&quot;:null}" fill="#5afbfb" stroke="#56eeee" stroke-width="0" stroke-linecap="round"/><path d="M235.81331,156.23007l-0.09093,13.44444l-1.63684,1.88889v11.77778l3.27367,3.77778v13.66667h-4.6377l-1.27309,-0.66667l-0.09093,-39.33333z" fill="#146e8c" stroke="#146e8c" stroke-width="0.5" stroke-linecap="round"/><path d="M231.35753,200.10309v-39.44444l3.09179,-3.33333v43.55556h-1.90965z" fill="url(#color-30)" stroke="none" stroke-width="0" stroke-linecap="butt"/><path d="M248.63519,160.77769l-0.09093,39.33333l-1.27309,0.66667h-4.63769v-13.66667l3.27366,-3.77777v-11.77778l-1.63684,-1.88889l-0.09093,-13.44444z" data-paper-data="{&quot;index&quot;:null}" fill="#146e8c" stroke="#146e8c" stroke-width="0.5" stroke-linecap="round"/><path d="M231.17108,192.93828l-12.27623,-7.6l-0.08185,-6.44445l12.35808,0.07778z" fill="#146e8c" stroke="#146e8c" stroke-width="0.5" stroke-linecap="round"/><path d="M222.68459,188.09109l-4.02829,-2.49384l-0.08878,-6.99198l4.0302,0.02536z" fill="url(#color-31)" stroke="#ff9b00" stroke-width="0" stroke-linecap="round"/><path d="M248.81706,199.96024v-13.11111h2.36431v11.74943z" fill="url(#color-32)" stroke="none" stroke-width="0" stroke-linecap="butt"/><path d="M248.82159,178.97161l12.35809,-0.07778l-0.08185,6.44445l-12.27623,7.6z" data-paper-data="{&quot;index&quot;:null}" fill="#146e8c" stroke="#146e8c" stroke-width="0.5" stroke-linecap="round"/><g fill="none" stroke-linecap="round"><path d="M217.47288,178.73967v13.125" stroke="#b6b6b6" stroke-width="3"/><path d="M217.87814,191.88452v-13" stroke="#c2c2c2" stroke-width="2"/></g><path d="M238.16012,184.73335v-12.5h3.92839v12.5z" fill="#0f546c" stroke="none" stroke-width="0" stroke-linecap="butt"/><g stroke="#a6caca" stroke-width="0.5" stroke-linecap="round"><path d="M241.14626,180.55772c0,0 -0.45677,1.7675 -1.01938,1.7675c-0.56261,0 -1.01938,-1.7675 -1.01938,-1.7675l0.01458,-4.93504c0,0 0.45677,-1.7675 1.01938,-1.7675c0.56262,0 1.01939,1.7675 1.01939,1.7675z" fill="url(#color-33)"/><path d="M240.98086,176.19633h-1.76076" fill="none"/><path d="M240.90085,177.58407h-1.68074" fill="none"/><path d="M240.98087,179.80444h-1.84079" fill="none"/><path d="M239.07035,178.39883h1.84079" fill="none"/></g><path d="M248.69689,193.34383v-14.60714h2.45524v13.17857z" fill="url(#color-34)" stroke="none" stroke-width="0" stroke-linecap="butt"/><path d="M238.45567,194.18308v-2.83333h3.0736v2.83333z" fill="url(#color-35)" stroke="none" stroke-width="0" stroke-linecap="butt"/><path d="M239.50369,191.52779v2.41667" fill="none" stroke="#9e9e9e" stroke-width="0.5" stroke-linecap="round"/><path d="M240.52672,191.52779v2.41667" fill="none" stroke="#9e9e9e" stroke-width="0.5" stroke-linecap="round"/><path d="M257.48364,178.63063l4.03021,-0.02536l-0.08879,6.99199l-4.02829,2.49384z" data-paper-data="{&quot;index&quot;:null}" fill="url(#color-36)" stroke="#ff9b00" stroke-width="0" stroke-linecap="round"/><path d="M235.86346,156.04168l-0.2046,13.53125l-1.61124,1.96875v9.4375l-2.711,-3.3125v-17z" fill="url(#color-37)" stroke="url(#color-38)" stroke-width="0.5" stroke-linecap="round"/><path d="M248.6512,160.54168v17l-2.711,3.3125v-9.4375l-1.61125,-1.96875l-0.2046,-13.53125z" data-paper-data="{&quot;index&quot;:null}" fill="url(#color-39)" stroke="url(#color-40)" stroke-width="0.5" stroke-linecap="round"/><path d="M235.21384,187.03335v-2.9l2.37341,2.9v2.9z" fill="url(#color-41)" stroke="url(#color-42)" stroke-width="0" stroke-linecap="butt"/><path d="M242.4159,189.73335v-2.9l2.37341,-2.9v2.9z" data-paper-data="{&quot;index&quot;:null}" fill="url(#color-43)" stroke="url(#color-44)" stroke-width="0" stroke-linecap="butt"/><path d="M235.83788,155.79168v7.75l-4.6036,-1.625v-1.375z" fill="url(#color-45)" stroke="url(#color-46)" stroke-width="0.5" stroke-linecap="round"/><path d="M248.7279,160.41668v1.54166l-4.6036,1.45834v-7.75z" data-paper-data="{&quot;index&quot;:null}" fill="url(#color-47)" stroke="url(#color-48)" stroke-width="0.5" stroke-linecap="round"/></g><path d="M238.12831,200.28308v-5.33334h3.72834v5.33334z" fill="url(#color-49)" stroke="none" stroke-width="0" stroke-linecap="butt"/></g><g><path d="M236.6361,206.10898v-4.27273c0,0 2.53809,-0.51228 4.72727,-0.5c2.18839,0.01228 4.72727,0.5 4.72727,0.5v4.27273c0,0 -2.62239,-0.63636 -4.77273,-0.63636c-2.18066,0 -4.68182,0.63636 -4.68182,0.63636z" fill="url(#color-50)" stroke="none" stroke-width="0" stroke-linecap="butt"/><path d="M245.33341,201.86808v3.68" fill="none" stroke="#656565" stroke-width="0.5" stroke-linecap="round"/><path d="M244.17341,201.66808v3.64" fill="none" stroke="#6a6a6a" stroke-width="0.5" stroke-linecap="round"/><path d="M243.05338,205.18808l0.04,-3.64" fill="none" stroke="#6f6f6f" stroke-width="0.5" stroke-linecap="round"/><path d="M241.97339,201.46808l-0.08,3.68" fill="none" stroke="#747474" stroke-width="0.5" stroke-linecap="round"/><path d="M240.8134,201.42808l-0.04,3.76" fill="none" stroke="#787878" stroke-width="0.5" stroke-linecap="round"/><path d="M239.69338,201.50808v3.76" fill="none" stroke="#7b7b7b" stroke-width="0.5" stroke-linecap="round"/></g></g></g></svg>