<svg version="1.1" xmlns="http://www.w3.org/2000/svg" xmlns:xlink="http://www.w3.org/1999/xlink" width="27.30959" height="15.85845" viewBox="0,0,27.30959,15.85845"><defs><linearGradient x1="270.71318" y1="179.44518" x2="229.82283" y2="179.94246" gradientUnits="userSpaceOnUse" id="color-1"><stop offset="0" stop-color="#a300f2"/><stop offset="1" stop-color="#a300f2" stop-opacity="0"/></linearGradient><linearGradient x1="282.89681" y1="179.19356" x2="227.22278" y2="179.87075" gradientUnits="userSpaceOnUse" id="color-2"><stop offset="0" stop-color="#f1f1f1"/><stop offset="1" stop-color="#f1f1f1" stop-opacity="0"/></linearGradient><linearGradient x1="236.09279" y1="180.20136" x2="232.65383" y2="180.24319" gradientUnits="userSpaceOnUse" id="color-3"><stop offset="0" stop-color="#ff4f00"/><stop offset="1" stop-color="#ff4f00" stop-opacity="0"/></linearGradient><linearGradient x1="235.98512" y1="180.1731" x2="233.66029" y2="180.20144" gradientUnits="userSpaceOnUse" id="color-4"><stop offset="0" stop-color="#ffd400"/><stop offset="1" stop-color="#ffd400" stop-opacity="0"/></linearGradient><linearGradient x1="236.14082" y1="180.17027" x2="232.27805" y2="180.21726" gradientUnits="userSpaceOnUse" id="color-5"><stop offset="0" stop-color="#ffee00"/><stop offset="1" stop-color="#ffee00" stop-opacity="0"/></linearGradient><linearGradient x1="236.17217" y1="180.13831" x2="234.48159" y2="180.15887" gradientUnits="userSpaceOnUse" id="color-6"><stop offset="0" stop-color="#ffee00"/><stop offset="1" stop-color="#ffee00" stop-opacity="0"/></linearGradient><linearGradient x1="236.15123" y1="181.02708" x2="234.46068" y2="181.04764" gradientUnits="userSpaceOnUse" id="color-7"><stop offset="0" stop-color="#ffee00"/><stop offset="1" stop-color="#ffee00" stop-opacity="0"/></linearGradient><linearGradient x1="236.12963" y1="179.25034" x2="234.43908" y2="179.27092" gradientUnits="userSpaceOnUse" id="color-8"><stop offset="0" stop-color="#ffee00"/><stop offset="1" stop-color="#ffee00" stop-opacity="0"/></linearGradient><radialGradient cx="236.28208" cy="180.33803" r="7.85966" gradientUnits="userSpaceOnUse" id="color-9"><stop offset="0" stop-color="#bfe8ff"/><stop offset="1" stop-color="#bfe8ff" stop-opacity="0"/></radialGradient><linearGradient x1="246.09117" y1="177.96474" x2="246.09117" y2="182.72494" gradientUnits="userSpaceOnUse" id="color-10"><stop offset="0" stop-color="#cacaca"/><stop offset="1" stop-color="#d4d4d4"/></linearGradient><linearGradient x1="246.09117" y1="177.96474" x2="246.09117" y2="182.7249" gradientUnits="userSpaceOnUse" id="color-11"><stop offset="0" stop-color="#d4d4d4"/><stop offset="1" stop-color="#cacaca"/></linearGradient><linearGradient x1="236.81186" y1="177.19497" x2="242.52375" y2="176.87316" gradientUnits="userSpaceOnUse" id="color-12"><stop offset="0" stop-color="#333333"/><stop offset="1" stop-color="#565656"/></linearGradient><linearGradient x1="239.6646" y1="175.88124" x2="239.6646" y2="178.32205" gradientUnits="userSpaceOnUse" id="color-13"><stop offset="0" stop-color="#333333"/><stop offset="1" stop-color="#565656"/></linearGradient><linearGradient x1="239.66394" y1="181.81648" x2="239.66394" y2="184.2176" gradientUnits="userSpaceOnUse" id="color-14"><stop offset="0" stop-color="#333333"/><stop offset="1" stop-color="#565656"/></linearGradient><linearGradient x1="239.66394" y1="181.81648" x2="239.66394" y2="184.2176" gradientUnits="userSpaceOnUse" id="color-15"><stop offset="0" stop-color="#333333"/><stop offset="1" stop-color="#565656"/></linearGradient><linearGradient x1="239.72501" y1="179.78464" x2="239.72501" y2="180.34777" gradientUnits="userSpaceOnUse" id="color-16"><stop offset="0" stop-color="#333333"/><stop offset="1" stop-color="#565656"/></linearGradient></defs><g transform="translate(-226.62026,-172.40881)"><g data-paper-data="{&quot;isPaintingLayer&quot;:true}" fill-rule="nonzero" stroke-linejoin="miter" stroke-miterlimit="10" stroke-dasharray="" stroke-dashoffset="0" style="mix-blend-mode: normal"><g stroke="#000000" stroke-width="0" stroke-linecap="round"><path d="M235.88474,181.08093l-6.50444,-0.78971l6.48144,-1.10166z" fill="url(#color-1)"/><path d="M235.47635,181.42079l-8.85608,-1.07522l8.82476,-1.49995z" fill="url(#color-2)"/><path d="M236.09858,180.67905c0,0 -0.22746,0.86007 -1.04071,0.84068c-1.94397,-0.04636 -2.40559,-1.40386 -2.40559,-1.40386c0,0 0.38168,-1.15465 2.37383,-1.20721c0.84826,-0.02238 1.06047,0.78327 1.06047,0.78327z" fill="url(#color-3)"/><path d="M235.98905,180.49601c0,0 -0.15378,0.58142 -0.70356,0.56831c-1.31417,-0.03133 -1.62624,-0.94904 -1.62624,-0.94904c0,0 0.25803,-0.78058 1.60477,-0.8161c0.57345,-0.01513 0.7169,0.52951 0.7169,0.52951z" fill="url(#color-4)"/><path d="M236.14734,180.7067c0,0 -0.2555,0.96605 -1.16898,0.94427c-2.18355,-0.05206 -2.70206,-1.57685 -2.70206,-1.57685c0,0 0.42872,-1.29695 2.66639,-1.35599c0.95281,-0.02513 1.19116,0.8798 1.19116,0.8798z" fill="url(#color-5)"/><path d="M236.17502,180.37309c0,0 -0.11182,0.42279 -0.51161,0.41326c-0.95564,-0.02278 -1.18257,-0.69012 -1.18257,-0.69012c0,0 0.18764,-0.56763 1.16695,-0.59345c0.417,-0.011 0.52131,0.38505 0.52131,0.38505z" fill="url(#color-6)"/><path d="M236.1541,181.26185c0,0 -0.11182,0.4228 -0.51161,0.41327c-0.95564,-0.02278 -1.18257,-0.69012 -1.18257,-0.69012c0,0 0.18764,-0.56763 1.16695,-0.59345c0.417,-0.01099 0.52131,0.38506 0.52131,0.38506z" fill="url(#color-7)"/><path d="M236.13247,179.48512c0,0 -0.11183,0.4228 -0.51161,0.41326c-0.95564,-0.02278 -1.18256,-0.69012 -1.18256,-0.69012c0,0 0.18764,-0.56763 1.16695,-0.59345c0.417,-0.01099 0.52131,0.38505 0.52131,0.38505z" fill="url(#color-8)"/></g><path d="M244.14174,180.33803c0,4.37919 -3.51889,7.92922 -7.85966,7.92922c-4.34077,0 -7.85966,-3.55003 -7.85966,-7.92922c0,-4.37919 3.51889,-7.92922 7.85966,-7.92922c4.34077,0 7.85966,3.55003 7.85966,7.92922z" fill="url(#color-9)" stroke="none" stroke-width="0" stroke-linecap="butt"/><path d="M238.8026,179.05097l9.99498,-1.08622l4.58218,2.54667l-4.75559,2.21348l-9.80329,-1.46958z" fill="url(#color-10)" stroke="url(#color-11)" stroke-width="0.5" stroke-linecap="round"/><path d="M240.19879,178.32205l-3.32575,-0.04183l-0.13516,-2.39898l4.39894,0.78357l1.4545,1.40787z" fill="url(#color-12)" stroke="url(#color-13)" stroke-width="0.5" stroke-linecap="round"/><path d="M242.60298,182.09313l-1.47049,1.39116l-4.40761,0.7333l0.16253,-2.39728l3.32601,-0.00385z" data-paper-data="{&quot;index&quot;:null}" fill="url(#color-14)" stroke="url(#color-15)" stroke-width="0.5" stroke-linecap="round"/><path d="M236.34968,180.06621h6.75069" fill="none" stroke="url(#color-16)" stroke-width="0.5" stroke-linecap="round"/></g></g></svg>