<svg version="1.1" xmlns="http://www.w3.org/2000/svg" xmlns:xlink="http://www.w3.org/1999/xlink" width="585.67868" height="585.67868" viewBox="0,0,585.67868,585.67868"><defs><radialGradient cx="242" cy="177.27778" r="28.83333" gradientUnits="userSpaceOnUse" id="color-1"><stop offset="0" stop-color="#ffd900"/><stop offset="1" stop-color="#ffd900" stop-opacity="0"/></radialGradient><radialGradient cx="244.33334" cy="169.2778" r="20.25" gradientUnits="userSpaceOnUse" id="color-2"><stop offset="0" stop-color="#ffc900"/><stop offset="1" stop-color="#ffc900" stop-opacity="0"/></radialGradient><radialGradient cx="238.83334" cy="176.7778" r="17.33333" gradientUnits="userSpaceOnUse" id="color-3"><stop offset="0" stop-color="#ffc700"/><stop offset="1" stop-color="#ffc700" stop-opacity="0"/></radialGradient><radialGradient cx="238.83334" cy="178.7778" r="14" gradientUnits="userSpaceOnUse" id="color-4"><stop offset="0" stop-color="#ffce00"/><stop offset="1" stop-color="#ffce00" stop-opacity="0"/></radialGradient></defs><g transform="translate(52.83934,112.83934)"><g data-paper-data="{&quot;isPaintingLayer&quot;:true}" fill-rule="nonzero" stroke="none" stroke-linecap="butt" stroke-linejoin="miter" stroke-miterlimit="10" stroke-dasharray="" stroke-dashoffset="0" style="mix-blend-mode: normal"><path d="M213.16667,177.27778c0,-15.92421 12.90912,-28.83333 28.83333,-28.83333c15.92421,0 28.83333,12.90912 28.83333,28.83333c0,15.92421 -12.90912,28.83333 -28.83333,28.83333c-15.92421,0 -28.83333,-12.90912 -28.83333,-28.83333z" fill="url(#color-1)" stroke-width="0"/><path d="M224.08334,169.2778c0,-11.18376 9.06624,-20.25 20.25,-20.25c11.18376,0 20.25,9.06624 20.25,20.25c0,11.18376 -9.06624,20.25 -20.25,20.25c-11.18376,0 -20.25,-9.06624 -20.25,-20.25z" fill="url(#color-2)" stroke-width="0"/><path d="M221.5,176.7778c0,-9.57294 7.7604,-17.33333 17.33334,-17.33333c9.57294,0 17.33333,7.76039 17.33333,17.33333c0,9.57294 -7.7604,17.33334 -17.33333,17.33334c-9.57294,0 -17.33334,-7.7604 -17.33334,-17.33334z" fill="url(#color-3)" stroke-width="0"/><path d="M224.83334,178.7778c0,-7.73199 6.26801,-14 14,-14c7.73199,0 14,6.26801 14,14c0,7.73199 -6.26801,14 -14,14c-7.73199,0 -14,-6.26801 -14,-14z" fill="url(#color-4)" stroke-width="0"/><path d="M246.82828,178.64019c-0.08144,0.46874 -0.40488,0.80214 -0.40488,0.80214l-0.49151,0.49668c-0.54926,0.65697 -0.67106,1.58355 -1.12573,2.3092c-0.36584,0.58386 -0.95604,0.99244 -1.43406,1.48866c-0.69285,0.24267 -1.34849,0.65094 -2.07855,0.72802c-2.38821,0.25217 -2.06582,-0.54931 -3.89204,-1.75205c-0.95818,-0.63105 -2.30319,-0.45572 -3.27056,-1.07261c-1.38025,-0.88018 -2.5123,-2.87494 -2.35498,-4.54241c0.07645,-0.81028 0.66591,-1.49717 1.13757,-2.16045c0.27392,-0.3852 0.89911,-0.49383 1.06471,-0.93654c0.16368,-0.43757 -0.29386,-0.93124 -0.19522,-1.3879c0.18635,-0.86277 0.32408,-1.90296 1.02258,-2.44257c2.10846,-1.62883 4.52032,-0.80219 6.51611,0.28025c0.54624,0.29626 0.77716,1.01588 1.32237,1.31405c0.55977,0.30613 3.34246,0.36129 3.70709,0.80393c1.83213,2.22414 1.25924,3.28992 0.81243,5.42404c0,0 -0.08086,0.34563 -0.33533,0.64756z" fill="#ffd201" stroke-width="0.5"/><path d="M251.36153,164.74844c0.29358,0.43076 0.29358,0.93972 0.29358,0.93972l-0.00759,0.76559c0.06929,0.93571 0.68042,1.75731 0.87648,2.67487c0.15775,0.73828 0.00532,1.50988 0.00799,2.26481c-0.35972,0.71945 -0.56385,1.54073 -1.07917,2.15835c-1.68575,2.02038 -2.04369,1.14411 -4.3975,1.59156c-1.23499,0.23477 -2.15897,1.39881 -3.39037,1.65173c-1.75698,0.36086 -4.16914,-0.34417 -5.3176,-1.77552c-0.55808,-0.69555 -0.61857,-1.68546 -0.75369,-2.56693c-0.07847,-0.51192 0.33031,-1.07433 0.12278,-1.54883c-0.20512,-0.469 -0.94158,-0.50815 -1.21241,-0.94252c-0.51169,-0.82067 -1.19699,-1.74378 -1.05936,-2.70106c0.41543,-2.88958 2.94284,-4.0796 5.33821,-4.75102c0.65561,-0.18377 1.38624,0.20598 2.04248,0.0245c0.67377,-0.18633 2.90423,-2.26598 3.52868,-2.19607c3.13771,0.3513 3.50031,1.62653 4.77715,3.64574c0,0 0.20011,0.33351 0.23034,0.76509z" fill="#ffca00" stroke-width="0.5"/><path d="M-52.83934,180c0,-161.73071 131.10863,-292.83934 292.83934,-292.83934c161.73071,0 292.83934,131.10863 292.83934,292.83934c0,161.73071 -131.10863,292.83934 -292.83934,292.83934c-161.73071,0 -292.83934,-131.10863 -292.83934,-292.83934z" fill="none" stroke-width="0"/></g></g></svg>