<svg version="1.1" xmlns="http://www.w3.org/2000/svg" xmlns:xlink="http://www.w3.org/1999/xlink" width="74.14036" height="39.99962" viewBox="0,0,74.14036,39.99962"><defs><linearGradient x1="265.76322" y1="178.78053" x2="272.16231" y2="178.78053" gradientUnits="userSpaceOnUse" id="color-1"><stop offset="0" stop-color="#585858"/><stop offset="1" stop-color="#676767"/></linearGradient><linearGradient x1="265.76322" y1="178.78053" x2="272.16231" y2="178.78053" gradientUnits="userSpaceOnUse" id="color-2"><stop offset="0" stop-color="#585858"/><stop offset="1" stop-color="#676767"/></linearGradient><linearGradient x1="275.85731" y1="179.13969" x2="280.42476" y2="179.13969" gradientUnits="userSpaceOnUse" id="color-3"><stop offset="0" stop-color="#585858"/><stop offset="1" stop-color="#676767"/></linearGradient><linearGradient x1="275.85731" y1="179.13969" x2="280.42476" y2="179.13969" gradientUnits="userSpaceOnUse" id="color-4"><stop offset="0" stop-color="#585858"/><stop offset="1" stop-color="#676767"/></linearGradient><linearGradient x1="273.43845" y1="179.107" x2="286.3792" y2="179.107" gradientUnits="userSpaceOnUse" id="color-5"><stop offset="0" stop-color="#494949"/><stop offset="1" stop-color="#7a7a7a"/></linearGradient><linearGradient x1="273.43845" y1="179.107" x2="286.3792" y2="179.107" gradientUnits="userSpaceOnUse" id="color-6"><stop offset="0" stop-color="#494949"/><stop offset="1" stop-color="#7a7a7a"/></linearGradient><linearGradient x1="286.24765" y1="179.0864" x2="288.35074" y2="179.0864" gradientUnits="userSpaceOnUse" id="color-7"><stop offset="0" stop-color="#585858"/><stop offset="1" stop-color="#676767"/></linearGradient><linearGradient x1="286.24765" y1="179.0864" x2="288.35074" y2="179.0864" gradientUnits="userSpaceOnUse" id="color-8"><stop offset="0" stop-color="#585858"/><stop offset="1" stop-color="#676767"/></linearGradient><linearGradient x1="248.03844" y1="179.09496" x2="276.14298" y2="179.09496" gradientUnits="userSpaceOnUse" id="color-9"><stop offset="0" stop-color="#494949"/><stop offset="1" stop-color="#7a7a7a"/></linearGradient><linearGradient x1="248.03844" y1="179.09496" x2="276.14298" y2="179.09496" gradientUnits="userSpaceOnUse" id="color-10"><stop offset="0" stop-color="#494949"/><stop offset="1" stop-color="#7a7a7a"/></linearGradient><linearGradient x1="246.47594" y1="172.34286" x2="246.47594" y2="185.09286" gradientUnits="userSpaceOnUse" id="color-11"><stop offset="0" stop-color="#828282"/><stop offset="1" stop-color="#747474"/></linearGradient><linearGradient x1="246.47594" y1="172.34286" x2="246.47594" y2="185.09286" gradientUnits="userSpaceOnUse" id="color-12"><stop offset="0" stop-color="#828282"/><stop offset="1" stop-color="#747474"/></linearGradient><linearGradient x1="251.8125" y1="178.66667" x2="262.8125" y2="178.66667" gradientUnits="userSpaceOnUse" id="color-13"><stop offset="0" stop-color="#000000"/><stop offset="1" stop-color="#000000" stop-opacity="0"/></linearGradient><linearGradient x1="227.22347" y1="162.29115" x2="228.51276" y2="162.29115" gradientUnits="userSpaceOnUse" id="color-14"><stop offset="0" stop-color="#00e6ff"/><stop offset="1" stop-color="#00cde4"/></linearGradient><linearGradient x1="227.05682" y1="194.99946" x2="228.3461" y2="194.99946" gradientUnits="userSpaceOnUse" id="color-15"><stop offset="0" stop-color="#00e6ff"/><stop offset="1" stop-color="#00cde4"/></linearGradient><linearGradient x1="219.10229" y1="178.65507" x2="220.83209" y2="178.65507" gradientUnits="userSpaceOnUse" id="color-16"><stop offset="0" stop-color="#00e6ff"/><stop offset="1" stop-color="#00cde4"/></linearGradient><linearGradient x1="256.18751" y1="178.66667" x2="260.18751" y2="178.66667" gradientUnits="userSpaceOnUse" id="color-17"><stop offset="0" stop-color="#00cde4"/><stop offset="1" stop-color="#00e6ff"/></linearGradient><linearGradient x1="239.76885" y1="168.14166" x2="239.76885" y2="169.71309" gradientUnits="userSpaceOnUse" id="color-18"><stop offset="0" stop-color="#000000" stop-opacity="0"/><stop offset="1" stop-color="#000000"/></linearGradient><linearGradient x1="242.61614" y1="172.57024" x2="242.61614" y2="174.14167" gradientUnits="userSpaceOnUse" id="color-19"><stop offset="0" stop-color="#000000"/><stop offset="1" stop-color="#000000" stop-opacity="0"/></linearGradient><linearGradient x1="239.17507" y1="183.14166" x2="239.17507" y2="184.71309" gradientUnits="userSpaceOnUse" id="color-20"><stop offset="0" stop-color="#000000" stop-opacity="0"/><stop offset="1" stop-color="#000000"/></linearGradient><linearGradient x1="239.68755" y1="187.57024" x2="239.68755" y2="189.14167" gradientUnits="userSpaceOnUse" id="color-21"><stop offset="0" stop-color="#000000"/><stop offset="1" stop-color="#000000" stop-opacity="0"/></linearGradient><radialGradient cx="223.96144" cy="186.2191" r="7.63635" gradientUnits="userSpaceOnUse" id="color-22"><stop offset="0" stop-color="#9f9f9f"/><stop offset="1" stop-color="#838383"/></radialGradient><radialGradient cx="223.67572" cy="171.2191" r="7.63636" gradientUnits="userSpaceOnUse" id="color-23"><stop offset="0" stop-color="#9f9f9f"/><stop offset="1" stop-color="#838383"/></radialGradient><radialGradient cx="230.44818" cy="178.76378" r="10.4935" gradientUnits="userSpaceOnUse" id="color-24"><stop offset="0" stop-color="#9f9f9f"/><stop offset="1" stop-color="#838383"/></radialGradient></defs><g transform="translate(-216.71038,-158.64549)"><g data-paper-data="{&quot;isPaintingLayer&quot;:true}" fill-rule="nonzero" stroke-linejoin="miter" stroke-miterlimit="10" stroke-dasharray="" stroke-dashoffset="0" style="mix-blend-mode: normal"><g><g stroke-linecap="butt"><path d="M272.16231,178.78053c0,3.50014 -1.43248,6.33756 -3.19955,6.33756c-1.76706,0 -3.19955,-2.83742 -3.19955,-6.33756c0,-3.50014 1.43248,-6.33756 3.19955,-6.33756c1.76706,0 3.19955,2.83742 3.19955,6.33756z" fill="url(#color-1)" stroke="url(#color-2)" stroke-width="5"/><path d="M273.51597,178.79117c0,4.37779 -2.09363,7.92668 -4.67626,7.92668c-2.58263,0 -4.67626,-3.54889 -4.67626,-7.92668c0,-4.37779 2.09363,-7.92668 4.67626,-7.92668c2.58263,0 4.67626,3.54889 4.67626,7.92668z" fill="none" stroke="#787878" stroke-width="2"/></g><path d="M280.42476,179.13969c0,2.49828 -1.02246,4.52354 -2.28372,4.52354c-1.26126,0 -2.28373,-2.02526 -2.28373,-4.52354c0,-2.49828 1.02246,-4.52353 2.28373,-4.52353c1.26126,0 2.28372,2.02525 2.28372,4.52353z" fill="url(#color-3)" stroke="url(#color-4)" stroke-width="5" stroke-linecap="butt"/><path d="M282.14097,179.12823c0,3.41727 -1.77418,6.18751 -3.96275,6.18751c-2.18857,0 -3.96276,-2.77024 -3.96276,-6.18751c0,-3.41727 1.77419,-6.18752 3.96276,-6.18752c2.18857,0 3.96275,2.77025 3.96275,6.18752z" fill="none" stroke="#787878" stroke-width="2" stroke-linecap="butt"/><g stroke-linecap="butt"><path d="M286.3792,177.01183v4.19034h-11.46181c0,0 -1.4782,-0.67672 -1.47894,-2.13625c-0.00068,-1.33279 1.47894,-2.05409 1.47894,-2.05409z" fill="url(#color-5)" stroke="url(#color-6)" stroke-width="5"/><path d="M287.2992,181.16926c-0.58075,0 -1.05154,-0.93252 -1.05154,-2.08286c0,-1.15033 0.47079,-2.08286 1.05154,-2.08286c0.58075,0 1.05154,0.93252 1.05154,2.08286c0,1.15033 -0.47079,2.08286 -1.05154,2.08286z" fill="url(#color-7)" stroke="url(#color-8)" stroke-width="5"/><path d="M287.31631,182.94071c-1.3391,0 -2.42466,-1.695 -2.42466,-3.78589c0,-2.09089 1.08556,-3.7859 2.42466,-3.7859c1.3391,0 2.42465,1.69501 2.42465,3.7859c0,2.09089 -1.08555,3.78589 -2.42465,3.78589z" fill="none" stroke="#787878" stroke-width="2"/></g><path d="M251.25039,183.64522c0,0 -3.21342,-1.5665 -3.21195,-4.46104c0.00161,-3.16977 3.21195,-4.63948 3.21195,-4.63948h24.8926v9.10052z" fill="url(#color-9)" stroke="url(#color-10)" stroke-width="5" stroke-linecap="butt"/><path d="M231.28844,185.09286c0,0 -4.50206,-2.19469 -4.5,-6.25c0.00226,-4.44091 4.5,-6.5 4.5,-6.5h34.875v12.75z" fill="url(#color-11)" stroke="url(#color-12)" stroke-width="5" stroke-linecap="butt"/><path d="M231.495,182.42937l32,0.16666" fill="none" stroke="#00e6ff" stroke-width="1.5" stroke-linecap="round"/><path d="M231.66166,174.59603h32" fill="none" stroke="#00e6ff" stroke-width="1.5" stroke-linecap="round"/><path d="M265.32834,178.42937h-17.33334" fill="none" stroke="#00e6ff" stroke-width="1.5" stroke-linecap="round"/><path d="M229.41166,186.88572c0,0 -6.18116,-2.7955 -5.92669,-8.28393c0.29501,-6.36281 5.78383,-8.2875 5.78383,-8.2875" fill="none" stroke="#00e6ff" stroke-width="1.5" stroke-linecap="round"/></g><path d="M251.8125,187.54167v-17.75h11v17.75z" fill="url(#color-13)" stroke="none" stroke-width="none" stroke-linecap="butt"/><g><path d="M229.01062,165.80979l-0.96674,-0.58816l-2.41684,-1.37236v-3.23485l3.02105,-1.56841z" fill="#00e6ff" stroke="#00e6ff" stroke-width="0.5" stroke-linecap="round"/><path d="M228.51276,165.60148l-1.28928,-0.69036v-5.25564l1.28532,-0.67465z" fill="url(#color-14)" stroke="none" stroke-width="0" stroke-linecap="butt"/></g><g data-paper-data="{&quot;index&quot;:null}"><path d="M228.48143,198.2446l-3.02106,-1.56841v-3.23485l2.41684,-1.37236l0.96675,-0.58816z" fill="#00e6ff" stroke="#00e6ff" stroke-width="0.5" stroke-linecap="round"/><path d="M228.34214,198.30979l-1.28532,-0.67465v-5.25564l1.28928,-0.69037z" fill="url(#color-15)" stroke="none" stroke-width="0" stroke-linecap="butt"/></g><g><path d="M221.33794,190.38236l-4.05329,-2.49886v-4.34014l3.89116,-1.84128l0.32426,-5.39229l-1.29706,-0.78912l-3.24263,-1.84127v-4.34014l4.05329,-2.10431z" fill="#00e6ff" stroke="#00e6ff" stroke-width="0.5" stroke-linecap="round"/><path d="M219.10229,189.2575v-6.70326l1.71669,-0.97479l0.01312,-5.54914l-1.7298,-0.92625v-7.0514l1.72449,-0.90517v23.01517z" fill="url(#color-16)" stroke="none" stroke-width="0" stroke-linecap="butt"/></g><path d="M256.18751,190.66667v-24h4v24z" fill="url(#color-17)" stroke="none" stroke-width="0" stroke-linecap="butt"/><path d="M253.07147,163.04752h-22.57143" fill="none" stroke="#232323" stroke-width="1.5" stroke-linecap="round"/><path d="M230.21432,194.11418h22.57143" fill="none" stroke="#232323" stroke-width="1.5" stroke-linecap="round"/><path d="M228.61674,159.54137h22.68986v21.42049h-22.68986z" fill="#00e6ff" stroke="none" stroke-width="0" stroke-linecap="butt"/><path d="M228.77541,159.59737h22.37251v6.18814h-22.37251z" fill="#00e6ff" stroke="none" stroke-width="0" stroke-linecap="butt"/><path d="M228.43495,176.51108h22.68986v21.42049h-22.68986z" fill="#00e6ff" stroke="none" stroke-width="0" stroke-linecap="butt"/><path d="M228.59362,191.68744h22.37251v6.18814h-22.37251z" fill="#00e6ff" stroke="none" stroke-width="0" stroke-linecap="butt"/><path d="M220.81767,165.81127h35.54323v25.54592h-35.54323z" fill="#00e6ff" stroke="none" stroke-width="0" stroke-linecap="butt"/><path d="M220.85419,166.85973h29.28125v4.90625l-2.15625,2.15625h-9.0625l-1.9375,1.9375h-16.125z" data-paper-data="{&quot;index&quot;:null}" fill="#232323" stroke="#000000" stroke-width="0" stroke-linecap="round"/><path d="M229.35719,169.71309v-1.57143h20.82335v1.57143z" data-paper-data="{&quot;index&quot;:null}" fill="url(#color-18)" stroke="none" stroke-width="0" stroke-linecap="butt"/><path d="M249.36436,172.57024l-1.4,1.57143h-18.69643v-1.57143z" data-paper-data="{&quot;index&quot;:null}" fill="url(#color-19)" stroke="none" stroke-width="0" stroke-linecap="butt"/><path d="M220.85419,181.52639h16.125l1.9375,1.9375h9.0625l2.15625,2.15625v4.90625h-29.28125z" fill="#232323" stroke="#000000" stroke-width="0" stroke-linecap="round"/><path d="M229.32783,187.58815v-2.85744h26.6945v2.85744z" fill="#2c2c2c" stroke="none" stroke-width="0" stroke-linecap="butt"/><path d="M229.32783,172.58815v-2.85744h26.6945v2.85744z" fill="#2c2c2c" stroke="none" stroke-width="0" stroke-linecap="butt"/><path d="M229.21434,184.71309v-1.57143h18.52143l1.7,1.57143z" fill="url(#color-20)" stroke="none" stroke-width="0" stroke-linecap="butt"/><path d="M250.03578,187.57024v1.57143h-20.69643v-1.57143z" data-paper-data="{&quot;index&quot;:null}" fill="url(#color-21)" stroke="none" stroke-width="0" stroke-linecap="butt"/><path d="M239.87563,177.21751c0.00405,-0.34609 0.29876,-0.58186 0.29876,-0.58186c0.1687,-0.13459 1.62515,-1.30057 1.65021,-1.29995c1.93616,0.04755 2.68727,2.08841 4.16497,2.79196c1.87254,0.89154 4.36098,0.13082 5.8127,1.91371c3.05023,3.74608 -2.08724,3.63791 -4.34978,2.28039c-3.06269,-1.2361 -6.88434,0.07988 -7.69223,-4.40573l-0.01021,-0.26615c0,0 0,-0.22784 0.12557,-0.43236z" fill="#00d3ea" stroke="none" stroke-width="0.5" stroke-linecap="butt"/><path d="M238.37835,167.65409c-0.14709,0.73544 -0.88252,0.58835 -0.88252,0.58835l-0.84574,-0.18194c-1.07849,-0.4393 -2.35632,-0.60492 -3.44291,-0.14286c0,0 -0.69636,0.27854 -0.9749,-0.41781c-0.27854,-0.69636 0.41781,-0.9749 0.41781,-0.9749c1.4927,-0.57152 3.0789,-0.43967 4.55709,0.14286l0.58283,0.10378c0,0 0.73544,0.14709 0.58835,0.88252z" fill="#1b1b1b" stroke="none" stroke-width="0.5" stroke-linecap="butt"/><path d="M249.10719,190.36415c0,0.75 -0.75,0.75 -0.75,0.75h-0.85714c-2.03603,-0.00365 -3.92948,-0.42857 -6,-0.42857c0,0 -0.75,0 -0.75,-0.75c0,-0.75 0.75,-0.75 0.75,-0.75c2.06216,0 3.9817,0.43259 6,0.42857h0.85714c0,0 0.75,0 0.75,0.75z" fill="#1b1b1b" stroke="none" stroke-width="0.5" stroke-linecap="butt"/><path d="M221.64291,188.18558c0.75,0 0.75,0.75 0.75,0.75l-0.10688,0.0427c0.4121,0.76804 0.63703,0.804 1.49974,0.77873c0,0 0.75,0 0.75,0.75c0,0.75 -0.75,0.75 -0.75,0.75c-1.40126,-0.02731 -2.02694,-0.32043 -2.78598,-1.50699l-0.10688,-0.81444c0,0 0,-0.75 0.75,-0.75z" fill="#1b1b1b" stroke="none" stroke-width="0.5" stroke-linecap="butt"/><path d="M221.92861,166.75701c0.75,0 0.75,0.75 0.75,0.75l-0.0102,0.26616c-0.08915,0.52465 -0.13436,1.05882 -0.13265,1.59099c0,0 0,0.75 -0.75,0.75c-0.75,0 -0.75,-0.75 -0.75,-0.75c0.00171,-0.61465 0.05368,-1.23102 0.15306,-1.83758l-0.0102,-0.01956c0,0 0,-0.75 0.75,-0.75z" fill="#1b1b1b" stroke="none" stroke-width="0.5" stroke-linecap="butt"/><path d="M248.17088,176.41384c-0.33541,0.67082 -1.00623,0.33541 -1.00623,0.33541l-0.88264,-0.44194c-0.24642,-0.14764 -0.49283,-0.29527 -0.73925,-0.44291c0,0 -0.64312,-0.38587 -0.25725,-1.02899c0.38587,-0.64312 1.02899,-0.25725 1.02899,-0.25725c0.22977,0.13808 0.45955,0.27616 0.68932,0.41424l0.83165,0.41521c0,0 0.67082,0.33541 0.33541,1.00623z" fill="#00d3ea" stroke="none" stroke-width="0.5" stroke-linecap="butt"/><path d="M254.93285,178.77157c0.73544,0.14709 0.58835,0.88252 0.58835,0.88252l-0.18194,0.84574c-0.09524,0.2381 -0.19048,0.47619 -0.28571,0.71429c0,0 -0.27854,0.69636 -0.9749,0.41781c-0.69636,-0.27854 -0.41781,-0.9749 -0.41781,-0.9749c0.09524,-0.2381 0.19048,-0.47619 0.28571,-0.71429l0.10378,-0.58283c0,0 0.14709,-0.73544 0.88252,-0.58835z" fill="#00d3ea" stroke="none" stroke-width="0.5" stroke-linecap="butt"/><path d="M228.64291,159.44752h22.57143" fill="none" stroke="#00cfe6" stroke-width="1.5" stroke-linecap="round"/><path d="M228.50005,197.78085h22.57143" fill="none" stroke="#00cfe6" stroke-width="1.5" stroke-linecap="round"/><path d="M217.65888,186.12759c0,-1.10457 0.89543,-2 2,-2c1.10457,0 2,0.89543 2,2c0,1.10457 -0.89543,2 -2,2c-1.10457,0 -2,-0.89543 -2,-2z" fill="#676767" stroke="none" stroke-width="0.5" stroke-linecap="butt"/><path d="M219.60593,186.16106l15.27273,0.07205" fill="none" stroke="url(#color-22)" stroke-width="2.5" stroke-linecap="round"/><path d="M217.23031,171.12759c0,-1.10457 0.89543,-2 2,-2c1.10457,0 2,0.89543 2,2c0,1.10457 -0.89543,2 -2,2c-1.10457,0 -2,-0.89543 -2,-2z" fill="#676767" stroke="none" stroke-width="0.5" stroke-linecap="butt"/><path d="M234.59295,171.23311l-15.27273,-0.07205" fill="none" stroke="url(#color-23)" stroke-width="2.5" stroke-linecap="round"/><path d="M228.39584,194.17628v-3h22.70833v3z" fill="#323232" stroke="none" stroke-width="0" stroke-linecap="butt"/><path d="M228.62962,166.17628v-3h22.70833v3z" fill="#323232" stroke="none" stroke-width="0" stroke-linecap="butt"/><path d="M228.61459,163.76449v-1.44643h22.71726v1.44643z" fill="#232323" stroke="none" stroke-width="0" stroke-linecap="butt"/><path d="M228.44154,194.835v-1.44643h22.71726v1.44643z" fill="#232323" stroke="none" stroke-width="0" stroke-linecap="butt"/><path d="M220.78577,191.16844h35.71428" fill="none" stroke="#1b1b1b" stroke-width="1.5" stroke-linecap="round"/><path d="M256.35715,166.16843h-35.71428" fill="none" stroke="#1b1b1b" stroke-width="1.5" stroke-linecap="round"/><path d="M221.51602,178.69902c0,-1.49906 1.21523,-2.71429 2.71429,-2.71429c1.49906,0 2.71429,1.21523 2.71429,2.71429c0,1.49906 -1.21523,2.71429 -2.71429,2.71429c-1.49906,0 -2.71429,-1.21523 -2.71429,-2.71429z" fill="#676767" stroke="none" stroke-width="0.5" stroke-linecap="butt"/><path d="M242.80173,178.84188c0,-1.49906 1.21523,-2.71428 2.71428,-2.71428c1.49906,0 2.71429,1.21522 2.71429,2.71428c0,1.49906 -1.21523,2.71429 -2.71429,2.71429c-1.49906,0 -2.71428,-1.21523 -2.71428,-2.71429z" fill="#676767" stroke="none" stroke-width="0.5" stroke-linecap="butt"/><path d="M245.45009,178.78303l-20.98702,-0.09901" fill="none" stroke="url(#color-24)" stroke-width="4" stroke-linecap="round"/></g></g></svg>