<svg version="1.1" xmlns="http://www.w3.org/2000/svg" xmlns:xlink="http://www.w3.org/1999/xlink" width="34.71543" height="37.84159" viewBox="0,0,34.71543,37.84159"><defs><linearGradient x1="232.61931" y1="163.11957" x2="242.31659" y2="163.11957" gradientUnits="userSpaceOnUse" id="color-1"><stop offset="0" stop-color="#e5e5e5" stop-opacity="0"/><stop offset="1" stop-color="#e5e5e5"/></linearGradient><linearGradient x1="232.47388" y1="196.91458" x2="242.17115" y2="196.91458" gradientUnits="userSpaceOnUse" id="color-2"><stop offset="0" stop-color="#e5e5e5" stop-opacity="0"/><stop offset="1" stop-color="#e5e5e5"/></linearGradient><linearGradient x1="244.52706" y1="183.78418" x2="244.52706" y2="186.95402" gradientUnits="userSpaceOnUse" id="color-3"><stop offset="0" stop-color="#cd8900"/><stop offset="1" stop-color="#cd8900" stop-opacity="0"/></linearGradient><linearGradient x1="244.56791" y1="172.54488" x2="244.56791" y2="175.71471" gradientUnits="userSpaceOnUse" id="color-4"><stop offset="0" stop-color="#cd8900" stop-opacity="0"/><stop offset="1" stop-color="#cd8900"/></linearGradient><linearGradient x1="255.70221" y1="173.15239" x2="257.23455" y2="181.227" gradientUnits="userSpaceOnUse" id="color-5"><stop offset="0" stop-color="#c7c7c7"/><stop offset="1" stop-color="#c7c7c7" stop-opacity="0"/></linearGradient><linearGradient x1="258.18583" y1="176.82782" x2="256.14868" y2="183.02144" gradientUnits="userSpaceOnUse" id="color-6"><stop offset="0" stop-color="#c7c7c7"/><stop offset="1" stop-color="#c7c7c7" stop-opacity="0"/></linearGradient><linearGradient x1="242.033" y1="230.48149" x2="327.54589" y2="-34.4431" gradientUnits="userSpaceOnUse" id="color-7"><stop offset="0" stop-color="#cacaca" stop-opacity="0"/><stop offset="1" stop-color="#cacaca"/></linearGradient><linearGradient x1="246.83103" y1="213.5715" x2="303.86095" y2="36.88908" gradientUnits="userSpaceOnUse" id="color-8"><stop offset="0" stop-color="#cacaca" stop-opacity="0"/><stop offset="1" stop-color="#cacaca"/></linearGradient><linearGradient x1="257.25667" y1="186.93269" x2="255.72433" y2="178.85809" gradientUnits="userSpaceOnUse" id="color-9"><stop offset="0" stop-color="#c7c7c7"/><stop offset="1" stop-color="#c7c7c7" stop-opacity="0"/></linearGradient><linearGradient x1="254.75696" y1="183.21014" x2="256.79412" y2="177.01651" gradientUnits="userSpaceOnUse" id="color-10"><stop offset="0" stop-color="#c7c7c7"/><stop offset="1" stop-color="#c7c7c7" stop-opacity="0"/></linearGradient></defs><g transform="translate(-222.80001,-161.0792)"><g data-paper-data="{&quot;isPaintingLayer&quot;:true}" fill-rule="nonzero" stroke-linejoin="miter" stroke-miterlimit="10" stroke-dasharray="" stroke-dashoffset="0" style="mix-blend-mode: normal"><path d="M242.20883,164.2509l-9.58952,-0.2155l9.69727,-2.0472z" fill="url(#color-1)" stroke="#000000" stroke-width="0" stroke-linecap="round"/><path d="M242.17115,198.04593l-9.69727,-2.0472l9.58952,-0.2155z" data-paper-data="{&quot;index&quot;:null}" fill="url(#color-2)" stroke="#000000" stroke-width="0" stroke-linecap="round"/><path d="M229.60591,177.03639c0,0 4.43373,-0.79004 6.63112,-1.0316c2.17135,-0.23869 4.96356,-0.30512 4.96356,-0.30512l-0.93675,-13.60195l2.41735,-0.9236l5.35547,4.72805l0.02165,9.78232l5.04243,-0.01117l3.43757,3.9255l-3.41992,4.04154l-5.24412,0.0116l-0.07831,10.18593l-5.03127,5.0536l-1.97272,-1.09924l0.32543,-14.12533c0,0 -2.41215,0.0282 -4.69681,-0.28299c-2.06443,-0.28119 -6.80372,-1.40598 -6.80372,-1.40598l0.01005,4.5382l-1.91278,1.51697l-0.92372,-7.25909l-3.32867,-0.29518l0.09795,-1.31126l3.22493,-1.01563l0.18652,-6.85815l2.22068,0.90273z" fill="#ffab00" stroke="#000000" stroke-width="0" stroke-linecap="round"/><path d="M248.09327,167.0293l-7.46022,0.91418l-0.43261,-5.89195l2.41713,-0.97233l5.40705,4.63662z" fill="#ffffff" stroke="#ffffff" stroke-width="0" stroke-linecap="round"/><path d="M247.81851,193.83801l-5.02286,5.08278l-2.50166,-1.22985l0.47512,-5.92984l7.04662,0.82141z" data-paper-data="{&quot;index&quot;:null}" fill="#ffffff" stroke="#ffffff" stroke-width="0" stroke-linecap="round"/><path d="M254.20014,177.69329l-17.02136,-1.67121l16.02026,-0.24907l1.6424,2.13247z" fill="#ffffff" stroke="#ffffff" stroke-width="0.5" stroke-linecap="round"/><path d="M239.65001,182.63334c0,0 -5.70937,-0.85601 -7.07585,-1.17135c-1.62263,-0.37446 -5.62416,-1.52865 -5.62416,-1.52865" fill="none" stroke="#ffb41f" stroke-width="1.5" stroke-linecap="round"/><path d="M244.88921,185.28909l0.07038,-0.34465c1.89389,-1.79069 2.97833,2.09965 0.92823,1.87225c-0.42151,-0.04676 -0.75866,-0.89886 -1.01913,-1.15506c0,0 -0.17678,-0.17678 0,-0.35355c0.00685,-0.00685 0.0137,-0.01316 0.02053,-0.01898z" fill="#f18900" stroke="none" stroke-width="0.5" stroke-linecap="butt"/><path d="M254.70692,181.46597l-1.63295,2.13972l-16.02121,-0.17815l17.0138,-1.74655z" data-paper-data="{&quot;index&quot;:null}" fill="#ffffff" stroke="#ffffff" stroke-width="0.5" stroke-linecap="round"/><path d="M241.13866,183.79916l6.76979,-0.01499l0.00698,3.15486l-6.76979,0.01499z" fill="url(#color-3)" stroke="none" stroke-width="0" stroke-linecap="butt"/><path d="M241.17952,172.55987l6.76979,-0.01499l0.00698,3.15486l-6.76979,0.01499z" data-paper-data="{&quot;index&quot;:null}" fill="url(#color-4)" stroke="none" stroke-width="0" stroke-linecap="butt"/><path d="M243.25,171.84848c0,-0.07393 0.02186,-0.126 0.05266,-0.16267c-1.15868,-1.92326 3.64627,-3.88163 3.62728,-0.80678c-0.16558,0.67398 0.36066,1.51957 0.177,2.02689c-0.6452,1.78228 -2.96347,-0.2613 -3.42989,-0.82647l-0.17706,0.01903c0,0 -0.25,0 -0.25,-0.25z" fill="#f18900" stroke="none" stroke-width="0.5" stroke-linecap="butt"/><path d="M229.63252,181.98429l0.07577,4.53495l-2.03416,1.51622l-0.87015,-7.09653l5.65608,1.63064z" fill="#ffffff" stroke="#ffffff" stroke-width="0" stroke-linecap="round"/><path d="M232.94578,176.52911l-6.15637,1.64217l0.15366,-7.27955l2.28229,1.32744l0.38887,4.79982z" data-paper-data="{&quot;index&quot;:null}" fill="#ffffff" stroke="#ffffff" stroke-width="0" stroke-linecap="round"/><path d="M254.99238,179.70049c-0.01137,0.95801 -0.91047,2.26018 -0.91047,2.26018l-2.25762,0.24912c0,0 0.70145,-1.40519 0.72684,-2.5039c0.02538,-1.09872 -0.61545,-2.31784 -0.61545,-2.31784l2.19768,0.23926c0,0 0.8704,1.11516 0.85903,2.07317z" fill="#c7ffff" stroke="#000000" stroke-width="0" stroke-linecap="round"/><g stroke="none" stroke-width="0" stroke-linecap="butt"><path d="M256.89671,182.27371l-0.42405,-2.23448l0.67572,-2.09341l0.36706,2.38655z" data-paper-data="{&quot;index&quot;:null}" fill="url(#color-5)"/><path d="M255.89589,181.66351l0.56374,-1.71396l0.50555,2.71588l-0.60031,1.48486z" data-paper-data="{&quot;index&quot;:null}" fill="url(#color-6)"/><g><path d="M256.32232,183.17576c-0.46422,-0.22393 -0.79774,-1.82584 -0.72584,-3.81245c0.0719,-1.98661 0.48511,-3.24002 0.97256,-3.00488c0.48745,0.23514 0.79514,1.84836 0.72368,3.82314c-0.07146,1.97478 -0.50618,3.21813 -0.97039,2.9942z" fill="url(#color-7)"/><path d="M257.00798,180.02567c-0.04766,1.31702 -0.33759,2.14622 -0.64717,1.99688c-0.30959,-0.14935 -0.53203,-1.21768 -0.48407,-2.54258c0.04794,-1.32491 0.32354,-2.16082 0.64862,-2.004c0.32508,0.15681 0.53029,1.23269 0.48263,2.54972z" fill="url(#color-8)"/><path d="M256.06219,177.81138l0.42405,2.23448l-0.67572,2.09341l-0.36707,-2.38655z" fill="url(#color-9)"/><path d="M257.04691,178.37445l-0.56374,1.71396l-0.50555,-2.71588l0.60031,-1.48486z" data-paper-data="{&quot;index&quot;:null}" fill="url(#color-10)"/></g></g><path d="M240.15001,191.58333l8.4,1.2" fill="none" stroke="#ff9100" stroke-width="1.5" stroke-linecap="round"/><path d="M240.25001,168.18333l8.9,-1" fill="none" stroke="#ff9100" stroke-width="1.5" stroke-linecap="round"/><path d="M223.55001,178.38333v2.9" fill="none" stroke="#ff9100" stroke-width="1.5" stroke-linecap="round"/><g stroke="#a6caca" stroke-width="0.5" stroke-linecap="round"><path d="M244.40768,181.01703c0,0 -1.24554,-0.55811 -1.24554,-1.24554c0,-0.68743 1.24554,-1.24554 1.24554,-1.24554l3.47768,0.01782c0,0 1.24554,0.55811 1.24554,1.24554c0,0.68744 -1.24554,1.24555 -1.24554,1.24555z" fill="#c7ffff"/><path d="M247.48111,178.66351v2.15143" fill="none"/><path d="M246.50318,178.66351v2.05364" fill="none"/><path d="M244.93851,180.81494v-2.24922" fill="none"/><path d="M245.92903,178.48052v2.24922" fill="none"/></g><path d="M241.71967,188.02471c-0.01512,-0.0468 -0.01512,-0.08532 -0.01512,-0.08532v-0.09091c0.00246,-0.23854 0.04836,-0.87818 0.28564,-1.02099c0.2131,-0.12827 4.30453,1.32203 4.39618,1.56645c-0.10807,0.35908 0.01509,1.11817 -0.27797,1.37887c-0.75201,0.669 -3.75969,-0.90518 -4.33063,-1.47482c0,0 -0.12695,-0.12695 -0.0581,-0.27328z" fill="#f18900" stroke="none" stroke-width="0.5" stroke-linecap="butt"/><path d="M239.01495,181.00689c-0.44042,-0.01794 -2.55724,-0.38654 -1.47931,-1.17939c1.2505,-0.91979 2.64014,1.36469 3.09703,-0.43831c1.55044,-2.59559 3.10507,3.37783 -0.57536,2.15102c-0.44675,-0.14892 -0.6358,-0.14194 -0.98853,-0.49838c-0.01773,-0.01192 -0.03568,-0.02357 -0.05383,-0.03493z" fill="#f18900" stroke="none" stroke-width="0.5" stroke-linecap="butt"/><path d="M235.49787,177.85315c0.07407,-0.07284 0.18394,-0.07284 0.18394,-0.07284h0.27273c0.53233,0 0.87618,-0.18182 1.45455,-0.18182c0.49897,0 2.09764,0.69806 1.32852,1.45243c-0.31147,0.30549 -4.1573,0.59303 -4.69216,0.59303c-0.63806,0 -3.00195,-0.69885 -1.3959,-1.55846c0.73994,-0.39604 1.90703,-0.28266 2.84832,-0.23233z" fill="#f18900" stroke="none" stroke-width="0.5" stroke-linecap="butt"/><path d="M229.15465,178.40696c-0.04732,-0.03612 -0.08647,-0.09591 -0.08647,-0.19484c0,-0.25 0.25,-0.25 0.25,-0.25h0.27273c1.42303,0.01469 0.91499,1.86892 -0.35859,0.60859c0,0 -0.06893,-0.06893 -0.07766,-0.16375z" fill="#f18900" stroke="none" stroke-width="0.5" stroke-linecap="butt"/></g></g></svg>