<svg version="1.1" xmlns="http://www.w3.org/2000/svg" xmlns:xlink="http://www.w3.org/1999/xlink" width="171.32447" height="278.63861" viewBox="0,0,171.32447,278.63861"><defs><radialGradient cx="238.58276" cy="243.23852" r="145.16666" gradientUnits="userSpaceOnUse" id="color-1"><stop offset="0" stop-color="#385e5c"/><stop offset="1" stop-color="#457371"/></radialGradient><radialGradient cx="243.37637" cy="210.23879" r="69.66667" gradientUnits="userSpaceOnUse" id="color-2"><stop offset="0" stop-color="#3a6563"/><stop offset="1" stop-color="#51827f"/></radialGradient><radialGradient cx="238.58276" cy="239.23852" r="145.16666" gradientUnits="userSpaceOnUse" id="color-3"><stop offset="0" stop-color="#3a6563"/><stop offset="1" stop-color="#51827f"/></radialGradient><linearGradient x1="277.75003" y1="237.66666" x2="403.75003" y2="237.66666" gradientUnits="userSpaceOnUse" id="color-4"><stop offset="0" stop-color="#355a59"/><stop offset="1" stop-color="#426c6a"/></linearGradient><linearGradient x1="403.75003" y1="234" x2="277.75003" y2="234" gradientUnits="userSpaceOnUse" id="color-5"><stop offset="0" stop-color="#497876"/><stop offset="1" stop-color="#3c6563"/></linearGradient></defs><g transform="translate(-243.95334,-114.68071)"><g data-paper-data="{&quot;isPaintingLayer&quot;:true}" fill-rule="nonzero" stroke-linejoin="miter" stroke-miterlimit="10" stroke-dasharray="" stroke-dashoffset="0" style="mix-blend-mode: normal"><path d="M414.73929,216.99373l0.02772,19.49998c0,0 -30.04994,7.58504 -60.23182,13.76068c-20.47808,4.1901 -41.28672,6.92192 -51.76895,9.32313c-14.28644,3.27265 -30.73586,9.61348 -30.73586,9.61348c0,0 -16.26082,-14.45703 6.70946,-22.1971c27.76717,-9.35643 135.99945,-30.00017 135.99945,-30.00017z" fill="url(#color-1)" stroke="none" stroke-width="0" stroke-linecap="butt"/><path d="M267.78133,196.20834l41.40838,-0.06314l0.01331,9.3582l-41.44174,11.57508z" fill="url(#color-2)" stroke="none" stroke-width="0" stroke-linecap="butt"/><path d="M300.02964,211.19243c11.24457,-0.05513 24.65855,2.468 34.9965,2.54297c14.78082,0.10719 28.13767,-1.42603 39.50778,-1.52205c24.84619,-0.20984 40.20536,0.78038 40.20536,0.78038l0.02772,19.49998c0,0 -42.07285,9.94567 -77.27064,17.06916c-15.50851,3.13869 -30.89112,4.52068 -38.70422,6.31046c-13.11154,3.00351 -26.76177,9.31766 -26.76177,9.31766c0,0 -12.82408,-32.48673 -3.12415,-48.35772c5.64808,-9.24136 17.44034,-5.57377 31.12341,-5.64085z" fill="url(#color-3)" stroke="none" stroke-width="0" stroke-linecap="butt"/><path d="M362.26359,248.06269l-0.06114,-42.99996" fill="none" stroke="#849695" stroke-width="7.5" stroke-linecap="round"/><path d="M281.89671,268.17697c0,0 1.34369,-4.16464 1.1293,-10.98013c-0.22478,-7.14561 -0.86593,-17.27299 -1.46846,-26.37116c-0.64033,-9.66909 -1.23703,-18.24048 -1.24394,-23.10003c-0.01074,-7.55788 1.47505,-15.54859 1.47505,-15.54859" fill="none" stroke="#849695" stroke-width="7.5" stroke-linecap="round"/><path d="M414.52781,213.43055v18.5" fill="none" stroke="#3985a2" stroke-width="1.5" stroke-linecap="round"/><path d="M403.75003,220.41667v6.5c0,0 -28.31324,5.72038 -53.12937,11.68913c-15.30187,3.68039 -27.41474,7.76512 -36.2876,9.73687c-15.45465,3.43437 -36.58303,6.57401 -36.58303,6.57401v-33.5z" data-paper-data="{&quot;index&quot;:null}" fill="url(#color-4)" stroke="#000000" stroke-width="0" stroke-linecap="round"/><path d="M403.75003,216.75v6.5c0,0 -26.29924,4.76968 -51.08821,11.00307c-17.70013,4.45084 -33.64993,10.38317 -43.18171,12.50135c-12.57535,2.79452 -31.73008,4.49558 -31.73008,4.49558v-33.5c0,0 17.20461,2.3833 28.78229,2.29141c9.62466,-0.07638 27.74177,-2.18709 46.49576,-2.86212c25.18849,-0.90663 50.72195,-0.42929 50.72195,-0.42929z" data-paper-data="{&quot;index&quot;:null}" fill="url(#color-5)" stroke="#000000" stroke-width="0" stroke-linecap="round"/><path d="M278.66669,251.79279l-1,-34.83333l6.83333,0.5l1.5,34.33333z" fill="#98adac" stroke="none" stroke-width="0" stroke-linecap="butt"/><path d="M278.37503,254.97335v-4.5l7.75,-1.5v4.25z" data-paper-data="{&quot;index&quot;:null}" fill="#6f7e7d" stroke="none" stroke-width="0" stroke-linecap="butt"/><path d="M358.50003,232.79279v-15.66667h7.33334v15.66667z" fill="#98adac" stroke="none" stroke-width="0" stroke-linecap="butt"/><path d="M358.37503,237.22335v-4.5l7.75,-1.5v4.25z" data-paper-data="{&quot;index&quot;:null}" fill="#6f7e7d" stroke="none" stroke-width="0" stroke-linecap="butt"/><path d="M308.27982,241.14484c0,2.5 -2.5,2.5 -2.5,2.5l-1.79057,-0.12829c-1.2423,-0.46165 -2.68152,-0.57033 -3.72691,-1.38494c-1.9619,-1.5288 -3.23865,-5.61279 -5.71426,-6.81127c-1.03717,-0.50211 -2.24973,-0.5001 -3.37459,-0.75014c0,0 -2.42536,-0.60634 -1.81902,-3.0317c0.60634,-2.42536 3.0317,-1.81902 3.0317,-1.81902c1.5418,0.41662 3.20308,0.52342 4.62541,1.24986c3.83276,1.95752 4.47346,6.69836 8.55882,7.80379l0.20943,-0.12829c0,0 2.5,0 2.5,2.5z" fill="#395f5d" stroke="none" stroke-width="0.5" stroke-linecap="butt"/><path d="M342.27982,225.14484c0,2.5 -2.5,2.5 -2.5,2.5l0.50341,-0.48011c-4.43089,4.14015 -10.14878,5.25315 -16.01312,6.43156c0,0 -2.45145,0.49029 -2.94174,-1.96116c-0.49029,-2.45145 1.96116,-2.94174 1.96116,-2.94174c4.7967,-0.95452 10.21609,-1.67526 13.72252,-5.31632l2.76777,-0.73223c0,0 2.5,0 2.5,2.5z" fill="#395f5d" stroke="none" stroke-width="0.5" stroke-linecap="butt"/><path d="M343.27982,241.14484c0,2.5 -2.5,2.5 -2.5,2.5l-2.54431,-0.04188c-2.40716,0.95053 -5.09415,1.01021 -7.53635,1.86671c-3.44031,1.20655 -6.64828,5.17205 -10.19489,6.06791c-1.85037,0.4674 -3.81631,0.07151 -5.72446,0.10727c0,0 -2.5,0 -2.5,-2.5c0,-2.5 2.5,-2.5 2.5,-2.5c1.42518,0.03576 2.89132,0.44839 4.27554,0.10727c0.9833,-0.24232 1.59462,-1.25971 2.46964,-1.76955c2.42915,-1.41535 4.69037,-3.20997 7.33547,-4.16255c2.73736,-0.98581 5.7389,-1.11317 8.46365,-2.13329l3.45569,-0.04188c0,0 2.5,0 2.5,2.5z" fill="#3b6260" stroke="none" stroke-width="0.5" stroke-linecap="butt"/><path d="M307.5476,217.91261c-1.76777,1.76777 -3.53553,0 -3.53553,0l0.76777,-0.26777c-1.33333,0 -2.66667,0 -4,0c0,0 -2.5,0 -2.5,-2.5c0,-2.5 2.5,-2.5 2.5,-2.5c1.33333,0 2.66667,0 4,0l2.76777,1.73223c0,0 1.76777,1.76777 0,3.53553z" fill="#3b6260" stroke="none" stroke-width="0.5" stroke-linecap="butt"/><path d="M398.85996,226.75809c1.38675,2.08013 -0.69338,3.46688 -0.69338,3.46688l-3.01062,2.00704c-2.67147,1.70117 -5.78543,2.71759 -8.88584,3.36428c0,0 -2.45145,0.49029 -2.94174,-1.96116c-0.49029,-2.45145 1.96116,-2.94174 1.96116,-2.94174c2.48461,-0.47124 5.01537,-1.22489 7.11416,-2.63572l2.98938,-1.99296c0,0 2.08013,-1.38675 3.46688,0.69338z" fill="#436f6d" stroke="none" stroke-width="0.5" stroke-linecap="butt"/><path d="M411.77982,225.64484c-2.5,0 -2.5,-2.5 -2.5,-2.5l0.12829,-0.20943c-0.33333,-1 -0.66667,-2 -1,-3c0,0 -0.79057,-2.37171 1.58114,-3.16228c2.37171,-0.79057 3.16228,1.58114 3.16228,1.58114c0.33333,1 0.66667,2 1,3l0.12829,1.79057c0,0 0,2.5 -2.5,2.5z" fill="#436f6d" stroke="none" stroke-width="0.5" stroke-linecap="butt"/><path d="M305.27982,202.14484c0,2.5 -2.5,2.5 -2.5,2.5c-3,0 -8,0 -11,0c0,0 -2.5,0 -2.5,-2.5c0,-2.5 2.5,-2.5 2.5,-2.5c3,0 6,0 9,0h2c0,0 2.5,0 2.5,2.5z" fill="#436f6d" stroke="none" stroke-width="0.5" stroke-linecap="butt"/><g><path d="M318.99357,252.86427l0.19528,-5.23104l20.05234,0.74859l-0.19531,5.23104z" fill="#8d8d8d" stroke="none" stroke-width="0" stroke-linecap="butt"/><path d="M318.74389,259.54837l0.2886,-7.73035l20.34297,0.75946l-0.2886,7.73035z" fill="#b7b7b7" stroke="#000000" stroke-width="0" stroke-linecap="butt"/><path d="M322.02474,257.41546c-0.84267,-0.03147 -1.50025,-0.74006 -1.46877,-1.5827c0.03146,-0.84264 0.74006,-1.50022 1.5827,-1.46874c0.84267,0.03147 1.50025,0.74005 1.46877,1.58269c-0.03147,0.84268 -0.74006,1.50025 -1.5827,1.46878z" fill="#8d8d8d" stroke="none" stroke-width="0.5" stroke-linecap="butt"/><path d="M327.5199,256.38376c0.03147,-0.84268 0.74006,-1.50025 1.5827,-1.46877c0.84268,0.03147 1.50025,0.74006 1.46878,1.5827c-0.03147,0.84267 -0.74006,1.50025 -1.5827,1.46877c-0.84264,-0.03147 -1.50025,-0.74006 -1.46878,-1.5827z" fill="#8d8d8d" stroke="none" stroke-width="0.5" stroke-linecap="butt"/><path d="M334.8009,258.18347c-0.84267,-0.03147 -1.50025,-0.74006 -1.46877,-1.5827c0.03147,-0.84268 0.74006,-1.50025 1.5827,-1.46878c0.84267,0.03147 1.50025,0.74006 1.46877,1.5827c-0.03146,0.84264 -0.74006,1.50022 -1.5827,1.46875z" fill="#8d8d8d" stroke="none" stroke-width="0.5" stroke-linecap="butt"/><path d="M302.25866,297.52761l53.48273,-87.05519" fill="none" stroke="#000000" stroke-width="0.00001" stroke-linecap="round"/><path d="M414.04672,114.68071l-170.09338,278.63861" fill="none" stroke="#000000" stroke-width="0" stroke-linecap="round"/></g></g></g></svg>