<svg version="1.1" xmlns="http://www.w3.org/2000/svg" xmlns:xlink="http://www.w3.org/1999/xlink" width="58.5" height="58.5" viewBox="0,0,58.5,58.5"><defs><linearGradient x1="-58.86283" y1="11.427" x2="1562.65597" y2="1066.21203" gradientUnits="userSpaceOnUse" id="color-1"><stop offset="0" stop-color="#cacaca" stop-opacity="0"/><stop offset="1" stop-color="#cacaca"/></linearGradient><linearGradient x1="215.87878" y1="156.12152" x2="255.34853" y2="179.28922" gradientUnits="userSpaceOnUse" id="color-2"><stop offset="0" stop-color="#c7c7c7"/><stop offset="1" stop-color="#c7c7c7" stop-opacity="0"/></linearGradient><linearGradient x1="40.69302" y1="67.58863" x2="1122.10965" y2="771.04153" gradientUnits="userSpaceOnUse" id="color-3"><stop offset="0" stop-color="#cacaca" stop-opacity="0"/><stop offset="1" stop-color="#cacaca"/></linearGradient><linearGradient x1="264.33372" y1="155.85103" x2="240.71175" y2="195.32923" gradientUnits="userSpaceOnUse" id="color-4"><stop offset="0" stop-color="#c7c7c7"/><stop offset="1" stop-color="#c7c7c7" stop-opacity="0"/></linearGradient><linearGradient x1="263.95407" y1="203.82114" x2="224.47343" y2="180.672" gradientUnits="userSpaceOnUse" id="color-5"><stop offset="0" stop-color="#c7c7c7"/><stop offset="1" stop-color="#c7c7c7" stop-opacity="0"/></linearGradient><linearGradient x1="216.23311" y1="204.26567" x2="239.19716" y2="164.67708" gradientUnits="userSpaceOnUse" id="color-6"><stop offset="0" stop-color="#c7c7c7"/><stop offset="1" stop-color="#c7c7c7" stop-opacity="0"/></linearGradient><linearGradient x1="225.11275" y1="171.60342" x2="305.88926" y2="224.1479" gradientUnits="userSpaceOnUse" id="color-7"><stop offset="0" stop-color="#ffffff" stop-opacity="0"/><stop offset="1" stop-color="#ffffff"/></linearGradient></defs><g transform="translate(-210.75,-150.75)"><g data-paper-data="{&quot;isPaintingLayer&quot;:true}" fill-rule="nonzero" stroke="none" stroke-width="0" stroke-linecap="butt" stroke-linejoin="miter" stroke-miterlimit="10" stroke-dasharray="" stroke-dashoffset="0" style="mix-blend-mode: normal"><g><path d="M224.67219,183.07414c-1.80095,-8.249 3.18969,-16.5059 11.98331,-18.29661c8.79362,-1.79071 16.65929,3.41834 18.55037,12.08014c1.89108,8.6618 -3.22845,16.60624 -11.96974,18.38629c-8.74128,1.78004 -16.763,-3.92082 -18.56394,-12.16982z" fill="url(#color-1)"/><path d="M253.12155,188.02399l-13.13597,-8.05509l7.96585,-13.11927c0,0 3.52467,1.72283 5.42444,5.52851c1.60149,3.49873 1.89455,4.11994 2.08414,6.95544c0.38104,5.6988 -2.33846,8.69041 -2.33846,8.69041z" data-paper-data="{&quot;index&quot;:null}" fill="url(#color-2)"/><path d="M242.16763,190.05783c-5.8297,1.18714 -11.03659,-2.4936 -12.23768,-7.99499c-1.20107,-5.50137 1.98433,-10.91278 7.84896,-12.10702c5.8646,-1.19426 11.01507,2.23211 12.27624,8.0088c1.26118,5.77668 -2.05784,10.90607 -7.88752,12.09321z" fill="url(#color-3)"/><path d="M231.79934,193.10544l8.14182,-13.13891l13.45923,7.96106c0,0 -1.75638,3.5253 -5.6384,5.42645c-3.56896,1.60277 -4.20263,1.89606 -7.09546,2.08668c-5.81401,0.38312 -8.8672,-2.33529 -8.8672,-2.33529z" data-paper-data="{&quot;index&quot;:null}" fill="url(#color-4)"/><path d="M226.69629,171.93618l13.13976,8.04892l-7.95968,13.12302c0,0 -3.52548,-1.72116 -5.42704,-5.52596c-1.60313,-3.49798 -1.89649,-4.11905 -2.08741,-6.95446c-0.38372,-5.69862 2.33437,-8.69152 2.33437,-8.69152z" data-paper-data="{&quot;index&quot;:null}" fill="url(#color-5)"/><path d="M247.94328,166.85902l-7.98731,13.1773l-13.44586,-8.04101c0,0 1.99036,-3.67636 5.78621,-5.59571c3.49044,-1.61949 4.11013,-1.63004 6.94461,-1.83423c5.69676,-0.4104 8.70234,2.29366 8.70234,2.29366z" data-paper-data="{&quot;index&quot;:null}" fill="url(#color-6)"/><path d="M240.16191,180.75127c-0.43545,0.08867 -0.82438,-0.18626 -0.91409,-0.59719c-0.08971,-0.41093 0.14822,-0.81513 0.58628,-0.90433c0.43806,-0.08921 0.82277,0.16673 0.91697,0.59822c0.0942,0.43149 -0.15371,0.81463 -0.58916,0.9033z" fill="url(#color-7)"/><path d="M210.75,180c0,-16.15433 13.09567,-29.25 29.25,-29.25c16.15433,0 29.25,13.09567 29.25,29.25c0,16.15433 -13.09567,29.25 -29.25,29.25c-16.15433,0 -29.25,-13.09567 -29.25,-29.25z" fill="none"/></g></g></g></svg>