<svg version="1.1" xmlns="http://www.w3.org/2000/svg" xmlns:xlink="http://www.w3.org/1999/xlink" width="525.52553" height="730.81332" viewBox="0,0,525.52553,730.81332"><defs><linearGradient x1="253.70979" y1="148.7717" x2="239.60768" y2="148.7717" gradientUnits="userSpaceOnUse" id="color-1"><stop offset="0" stop-color="#ffffff" stop-opacity="0"/><stop offset="1" stop-color="#ffffff"/></linearGradient><linearGradient x1="227.63857" y1="145.66736" x2="241.74065" y2="145.66736" gradientUnits="userSpaceOnUse" id="color-2"><stop offset="0" stop-color="#ffffff" stop-opacity="0"/><stop offset="1" stop-color="#ffffff"/></linearGradient><linearGradient x1="240.40065" y1="-97.10027" x2="240.40065" y2="389.70204" gradientUnits="userSpaceOnUse" id="color-3"><stop offset="0" stop-color="#fff3d2" stop-opacity="0"/><stop offset="1" stop-color="#fff3d2"/></linearGradient><linearGradient x1="238.20585" y1="143.22819" x2="258.61616" y2="143.22819" gradientUnits="userSpaceOnUse" id="color-4"><stop offset="0" stop-color="#fffbce"/><stop offset="1" stop-color="#fffbce" stop-opacity="0"/></linearGradient><linearGradient x1="221.38375" y1="145.44559" x2="241.79415" y2="145.44559" gradientUnits="userSpaceOnUse" id="color-5"><stop offset="0" stop-color="#fffbce" stop-opacity="0"/><stop offset="1" stop-color="#fffbce"/></linearGradient><linearGradient x1="239.98919" y1="87.73875" x2="247.28326" y2="87.73875" gradientUnits="userSpaceOnUse" id="color-6"><stop offset="0" stop-color="#fffe66"/><stop offset="1" stop-color="#fffe66" stop-opacity="0"/></linearGradient><linearGradient x1="240.01083" y1="87.73875" x2="232.71676" y2="87.73875" gradientUnits="userSpaceOnUse" id="color-7"><stop offset="0" stop-color="#fffe66"/><stop offset="1" stop-color="#fffe66" stop-opacity="0"/></linearGradient><radialGradient cx="241.7584" cy="394.87479" r="30.98352" gradientUnits="userSpaceOnUse" id="color-8"><stop offset="0" stop-color="#ffffff"/><stop offset="1" stop-color="#ffffff" stop-opacity="0"/></radialGradient><radialGradient cx="234.50009" cy="396.83341" r="23.91667" gradientUnits="userSpaceOnUse" id="color-9"><stop offset="0" stop-color="#ffffff"/><stop offset="1" stop-color="#ffffff" stop-opacity="0"/></radialGradient><radialGradient cx="244.25009" cy="398.58341" r="23.91667" gradientUnits="userSpaceOnUse" id="color-10"><stop offset="0" stop-color="#ffffff"/><stop offset="1" stop-color="#ffffff" stop-opacity="0"/></radialGradient></defs><g transform="translate(22.76266,293.515)"><g data-paper-data="{&quot;isPaintingLayer&quot;:true}" fill-rule="nonzero" stroke-linejoin="miter" stroke-miterlimit="10" stroke-dasharray="" stroke-dashoffset="0" style="mix-blend-mode: normal"><g stroke="none" stroke-width="0" stroke-linecap="butt"><path d="M239.60768,392.1729v-486.80225h14.10208v486.80225z" data-paper-data="{&quot;index&quot;:null}" fill="url(#color-1)"/><path d="M227.63857,389.06849v-486.80225h14.1021v486.80225z" fill="url(#color-2)"/><path d="M232.0317,389.70204v-486.80225h16.73795v486.80225z" fill="url(#color-3)"/><path d="M236.2051,389.70204v-486.80225h8.39107v486.80225z" fill="#fff3d2"/><path d="M238.20585,386.62935v-486.80225h20.41035v486.80225z" data-paper-data="{&quot;index&quot;:null}" fill="url(#color-4)"/><path d="M221.3838,388.84678v-486.80225h20.41035v486.80225z" data-paper-data="{&quot;index&quot;:null}" fill="url(#color-5)"/></g><path d="M-22.76266,433.00308v-506.00601h525.52553v506.00601z" fill="none" stroke="none" stroke-width="0" stroke-linecap="butt"/><g fill="none" stroke="#ffffd1" stroke-width="5" stroke-linecap="round"><path d="M248.45885,325.98499c0,0 -0.11992,-4.16232 -3.60165,-9.36313c-5.79552,-8.65702 -16.18381,-21.37192 -16.18581,-31.22025c-0.00175,-20.09632 23.21147,-29.38335 23.85903,-47.8127c-0.22967,-21.24041 -24.73928,-24.15665 -23.46761,-46.23426c1.27165,-22.07761 21.14135,-29.00971 21.05415,-50.9303c-0.08124,-20.42182 -19.0371,-20.869 -19.15532,-43.99627c-0.11821,-23.12726 21.72921,-35.35395 21.7661,-53.03999c0.03703,-17.75304 -13.44398,-29.40309 -13.44398,-29.40309"/><path d="M243.28376,-291.015c0,0 13.48101,11.65005 13.44398,29.40309c-0.03689,17.68604 -21.88431,29.91273 -21.7661,53.03999c0.11822,23.12727 19.07408,23.57445 19.15532,43.99627c0.0872,21.92059 -19.7825,28.85269 -21.05415,50.9303c-1.27167,22.07761 23.23794,24.99385 23.46761,46.23426c-0.64756,18.42935 -23.86078,27.71638 -23.85903,47.8127c0.00321,15.76484 12.45412,40.58338 12.45412,40.58338"/></g><path d="M250.14926,329.02131c1.27167,22.07761 -23.23794,24.99385 -23.46761,46.23426" data-paper-data="{&quot;index&quot;:null}" fill="none" stroke="#ffffd1" stroke-width="5" stroke-linecap="round"/><path d="M235.53042,395.5889c0,0 -11.40595,0.51002 -10.13428,-21.56759" data-paper-data="{&quot;index&quot;:null}" fill="none" stroke="#ffffd1" stroke-width="5" stroke-linecap="round"/><g stroke="none" stroke-width="0" stroke-linecap="butt"><path d="M239.98919,396.12246v-616.76742h7.29407v616.76742z" fill="url(#color-6)"/><path d="M232.71676,396.12246v-616.76742h7.29407v616.76742z" data-paper-data="{&quot;index&quot;:null}" fill="url(#color-7)"/></g><path d="M248.79796,437.29833l-49.70101,-37.00976l35.62189,-47.83724l49.70101,37.00975z" fill="url(#color-8)" stroke="none" stroke-width="0" stroke-linecap="butt"/><path d="M255.00009,396.83341c0,11.59798 -9.17816,21 -20.5,21c-11.32184,0 -20.5,-9.40202 -20.5,-21c0,-11.59798 9.17816,-21 20.5,-21c11.32184,0 20.5,9.40202 20.5,21z" fill="url(#color-9)" stroke="none" stroke-width="0" stroke-linecap="butt"/><path d="M264.75005,398.58341c0,11.59798 -9.17817,21 -20.5,21c-11.32183,0 -20.5,-9.40202 -20.5,-21c0,-11.59798 9.17817,-21 20.5,-21c11.32183,0 20.5,9.40202 20.5,21z" fill="url(#color-10)" stroke="none" stroke-width="0" stroke-linecap="butt"/></g></g></svg>