<svg version="1.1" xmlns="http://www.w3.org/2000/svg" xmlns:xlink="http://www.w3.org/1999/xlink" width="33.75053" height="40.05558" viewBox="0,0,33.75053,40.05558"><g transform="translate(-223.12473,-159.97221)"><g data-paper-data="{&quot;isPaintingLayer&quot;:true}" fill-rule="nonzero" stroke-linejoin="miter" stroke-miterlimit="10" stroke-dasharray="" stroke-dashoffset="0" style="mix-blend-mode: normal"><path d="M240.01041,190.74141c-1.20295,0 -2.28488,-0.28472 -3.24582,-0.85416c-0.95381,-0.57656 -1.70477,-1.35954 -2.25285,-2.34895c-0.54097,-0.99652 -0.81145,-2.11405 -0.81145,-3.35259c0,-1.20295 0.27048,-2.28133 0.81145,-3.23514c0.54809,-0.96093 1.29904,-1.71188 2.25285,-2.25285c0.96093,-0.54809 2.04287,-0.82213 3.24582,-0.82213c1.20295,0 2.27777,0.27404 3.22446,0.82213c0.9467,0.54097 1.69765,1.29192 2.25285,2.25285c0.55521,0.95381 0.82569,2.03219 0.81145,3.23514c0,1.23854 -0.2776,2.35606 -0.83281,3.35259c-0.55521,0.9894 -1.30972,1.77239 -2.26353,2.34895c-0.9467,0.56944 -2.01084,0.85416 -3.19243,0.85416zM240.01041,188.23231c0.67621,0 1.28124,-0.18151 1.8151,-0.54453c0.54097,-0.36302 0.96449,-0.8506 1.27057,-1.46275c0.31319,-0.61215 0.46979,-1.29192 0.46979,-2.03931c0.01424,-0.72604 -0.13524,-1.37734 -0.44844,-1.9539c-0.30607,-0.57656 -0.7296,-1.03211 -1.27057,-1.36666c-0.53385,-0.33455 -1.146,-0.50182 -1.83645,-0.50182c-0.67621,0 -1.28836,0.16727 -1.83645,0.50182c-0.54097,0.33455 -0.96805,0.7901 -1.28124,1.36666c-0.30607,0.57656 -0.45911,1.22786 -0.45911,1.9539c0,0.74739 0.14948,1.42716 0.44844,2.03931c0.29896,0.61215 0.72248,1.09973 1.27057,1.46275c0.54809,0.36302 1.16736,0.54453 1.8578,0.54453zM240.01041,179.87219c-1.03923,0 -1.96457,-0.22778 -2.77603,-0.68333c-0.81145,-0.45555 -1.45564,-1.07126 -1.93254,-1.84713c-0.46979,-0.77586 -0.70468,-1.65494 -0.70468,-2.63723c0,-1.03923 0.23489,-1.96457 0.70468,-2.77603c0.47691,-0.81145 1.12109,-1.45919 1.93254,-1.94322c0.81145,-0.48403 1.7368,-0.72604 2.77603,-0.72604c1.03923,-0.01424 1.96457,0.2171 2.77603,0.69401c0.81145,0.46979 1.45208,1.11397 1.92187,1.93254c0.47691,0.81857 0.70468,1.75815 0.68333,2.81874c0,0.98229 -0.23845,1.86136 -0.71536,2.63723c-0.46979,0.77586 -1.11041,1.39157 -1.92187,1.84713c-0.81145,0.45555 -1.72612,0.68333 -2.744,0.68333zM240.01041,177.59799c0.5125,0 0.96805,-0.13524 1.36666,-0.40573c0.39861,-0.2776 0.71536,-0.63706 0.95026,-1.07838c0.24201,-0.44844 0.36302,-0.9467 0.36302,-1.49478c0.01424,-0.54809 -0.09609,-1.03211 -0.33099,-1.45208c-0.23489,-0.41996 -0.55521,-0.75095 -0.96093,-0.99296c-0.39861,-0.24913 -0.86128,-0.3737 -1.38801,-0.3737c-0.76875,0 -1.40937,0.26693 -1.92187,0.80078c-0.50538,0.52673 -0.76519,1.19939 -0.77942,2.01796c-0.02135,0.81857 0.22778,1.5197 0.74739,2.10337c0.51962,0.58368 1.17091,0.87552 1.9539,0.87552z" fill="#00edff" stroke="#00edff" stroke-width="1" stroke-linecap="square"/><path d="M223.12474,200.02779l33.75053,-40.05558" fill="none" stroke="#000000" stroke-width="0" stroke-linecap="round"/></g></g></svg>