<svg version="1.1" xmlns="http://www.w3.org/2000/svg" xmlns:xlink="http://www.w3.org/1999/xlink" width="31.92495" height="16.9239" viewBox="0,0,31.92495,16.9239"><defs><linearGradient x1="224.42703" y1="180.13642" x2="238.67009" y2="180.13642" gradientUnits="userSpaceOnUse" id="color-1"><stop offset="0" stop-color="#a9a9a9" stop-opacity="0"/><stop offset="1" stop-color="#a9a9a9"/></linearGradient><linearGradient x1="224.42703" y1="180.13642" x2="238.67009" y2="180.13642" gradientUnits="userSpaceOnUse" id="color-2"><stop offset="0" stop-color="#d1e8ff" stop-opacity="0"/><stop offset="1" stop-color="#d1e8ff"/></linearGradient><linearGradient x1="273.30934" y1="179.22286" x2="229.67177" y2="179.75357" gradientUnits="userSpaceOnUse" id="color-3"><stop offset="0" stop-color="#a300f2"/><stop offset="1" stop-color="#a300f2" stop-opacity="0"/></linearGradient><linearGradient x1="286.31152" y1="178.95436" x2="226.89705" y2="179.677" gradientUnits="userSpaceOnUse" id="color-4"><stop offset="0" stop-color="#f1f1f1"/><stop offset="1" stop-color="#f1f1f1" stop-opacity="0"/></linearGradient><linearGradient x1="236.36296" y1="180.02986" x2="232.69295" y2="180.0745" gradientUnits="userSpaceOnUse" id="color-5"><stop offset="0" stop-color="#ff4f00"/><stop offset="1" stop-color="#ff4f00" stop-opacity="0"/></linearGradient><linearGradient x1="236.24806" y1="179.99971" x2="233.76706" y2="180.0299" gradientUnits="userSpaceOnUse" id="color-6"><stop offset="0" stop-color="#ffd400"/><stop offset="1" stop-color="#ffd400" stop-opacity="0"/></linearGradient><linearGradient x1="236.41423" y1="179.99664" x2="232.29193" y2="180.04678" gradientUnits="userSpaceOnUse" id="color-7"><stop offset="0" stop-color="#ffee00"/><stop offset="1" stop-color="#ffee00" stop-opacity="0"/></linearGradient><linearGradient x1="236.44768" y1="179.96258" x2="234.64354" y2="179.98451" gradientUnits="userSpaceOnUse" id="color-8"><stop offset="0" stop-color="#ffee00"/><stop offset="1" stop-color="#ffee00" stop-opacity="0"/></linearGradient><linearGradient x1="236.42534" y1="180.91104" x2="234.62121" y2="180.93298" gradientUnits="userSpaceOnUse" id="color-9"><stop offset="0" stop-color="#ffee00"/><stop offset="1" stop-color="#ffee00" stop-opacity="0"/></linearGradient><linearGradient x1="236.40229" y1="179.01494" x2="234.59815" y2="179.03688" gradientUnits="userSpaceOnUse" id="color-10"><stop offset="0" stop-color="#ffee00"/><stop offset="1" stop-color="#ffee00" stop-opacity="0"/></linearGradient><radialGradient cx="232.60404" cy="180.16667" r="8.38772" gradientUnits="userSpaceOnUse" id="color-11"><stop offset="0" stop-color="#fff100"/><stop offset="1" stop-color="#fff100" stop-opacity="0"/></radialGradient></defs><g transform="translate(-224.21632,-171.70472)"><g data-paper-data="{&quot;isPaintingLayer&quot;:true}" fill-rule="nonzero" stroke-linejoin="miter" stroke-miterlimit="10" stroke-dasharray="" stroke-dashoffset="0" style="mix-blend-mode: normal"><g><path d="M238.55561,181.93626l-14.12859,-2.28061l13.89567,-1.68271z" fill="url(#color-1)" stroke="url(#color-2)" stroke-width="0" stroke-linecap="round"/><g stroke="#000000" stroke-width="0" stroke-linecap="round"><path d="M236.14094,180.96852l-6.94144,-0.84277l6.9169,-1.17567z" fill="url(#color-3)"/><path d="M235.70513,181.3312l-9.45108,-1.14746l9.41766,-1.60072z" fill="url(#color-4)"/><path d="M236.36915,180.53961c0,0 -0.24274,0.91786 -1.11063,0.89716c-2.07457,-0.04947 -2.56721,-1.49817 -2.56721,-1.49817c0,0 0.40732,-1.23222 2.53332,-1.28832c0.90525,-0.02388 1.13172,0.8359 1.13172,0.8359z" fill="url(#color-5)"/><path d="M236.25225,180.34431c0,0 -0.16411,0.62049 -0.75082,0.6065c-1.40246,-0.03344 -1.7355,-1.0128 -1.7355,-1.0128c0,0 0.27536,-0.83302 1.71259,-0.87093c0.61198,-0.01614 0.76507,0.56509 0.76507,0.56509z" fill="url(#color-6)"/><path d="M236.42118,180.56916c0,0 -0.27267,1.03096 -1.24752,1.00771c-2.33025,-0.05555 -2.8836,-1.68279 -2.8836,-1.68279c0,0 0.45753,-1.38409 2.84553,-1.44709c1.01682,-0.02682 1.27119,0.93891 1.27119,0.93891z" fill="url(#color-7)"/><path d="M236.45072,180.21313c0,0 -0.11933,0.45119 -0.54598,0.44103c-1.01984,-0.02432 -1.26202,-0.73648 -1.26202,-0.73648c0,0 0.20024,-0.60576 1.24535,-0.63332c0.44502,-0.01174 0.55634,0.41092 0.55634,0.41092z" fill="url(#color-8)"/><path d="M236.4284,181.1616c0,0 -0.11933,0.45121 -0.54598,0.44104c-1.01984,-0.02432 -1.26202,-0.73648 -1.26202,-0.73648c0,0 0.20024,-0.60576 1.24535,-0.63332c0.44502,-0.01173 0.55634,0.41093 0.55634,0.41093z" fill="url(#color-9)"/><path d="M236.40533,179.2655c0,0 -0.11934,0.45121 -0.54598,0.44103c-1.01984,-0.02432 -1.26201,-0.73648 -1.26201,-0.73648c0,0 0.20024,-0.60576 1.24535,-0.63332c0.44502,-0.01173 0.55634,0.41092 0.55634,0.41092z" fill="url(#color-10)"/></g><path d="M236.20478,178.71123l14.59691,-1.30205l4.81677,2.86062l-4.762,2.3622l-14.62733,-1.56832z" fill="#505050" stroke="#505050" stroke-width="0.5" stroke-linecap="round"/><path d="M241.36143,177.94096l-3.54919,-0.04464l-0.14424,-2.56015l4.69449,0.83621l1.55223,1.50245z" fill="#222222" stroke="#222222" stroke-width="0.5" stroke-linecap="round"/><path d="M243.84382,182.29873l-1.56928,1.48463l-4.70373,0.78257l0.17345,-2.55834l3.54947,-0.00411z" data-paper-data="{&quot;index&quot;:null}" fill="#222222" stroke="#222222" stroke-width="0.5" stroke-linecap="round"/><path d="M242.37461,179.96893h-7.20423" fill="none" stroke="#222222" stroke-width="0.5" stroke-linecap="round"/><path d="M240.99176,180.16667c0,4.67341 -3.75531,8.46195 -8.38772,8.46195c-4.63241,0 -8.38772,-3.78854 -8.38772,-8.46195c0,-4.67341 3.75531,-8.46195 8.38772,-8.46195c4.63241,0 8.38772,3.78854 8.38772,8.46195z" fill="url(#color-11)" stroke="none" stroke-width="0" stroke-linecap="butt"/></g></g></g></svg>