<svg version="1.1" xmlns="http://www.w3.org/2000/svg" xmlns:xlink="http://www.w3.org/1999/xlink" width="162.25" height="142.79319" viewBox="0,0,162.25,142.79319"><g transform="translate(-158.875,-108.6034)"><g data-paper-data="{&quot;isPaintingLayer&quot;:true}" fill-rule="nonzero" stroke-linejoin="miter" stroke-miterlimit="10" stroke-dasharray="" stroke-dashoffset="0" style="mix-blend-mode: normal"><path d="M210.47222,202.79169l61.5,-54.125" fill="none" stroke="#000000" stroke-width="0" stroke-linecap="round"/><path d="M240,190.68773c-1.38801,0 -2.56961,-0.42352 -3.54477,-1.27057c-0.97517,-0.84704 -1.719,-2.06778 -2.2315,-3.66222c-0.50538,-1.59444 -0.75807,-3.51274 -0.75807,-5.75492c0,-2.24218 0.25269,-4.16049 0.75807,-5.75492c0.5125,-1.59444 1.25633,-2.81518 2.2315,-3.66222c0.97517,-0.84704 2.15676,-1.27057 3.54477,-1.27057c1.3809,0 2.55893,0.4342 3.5341,1.3026c0.97517,0.86128 1.719,2.08914 2.2315,3.68358c0.5125,1.59444 0.76875,3.49495 0.76875,5.70154c0,2.20659 -0.25625,4.1071 -0.76875,5.70153c-0.5125,1.59444 -1.25633,2.82585 -2.2315,3.69425c-0.97517,0.86128 -2.1532,1.29192 -3.5341,1.29192zM240,187.84765c0.83993,0 1.53037,-0.34166 2.07134,-1.02499c0.54809,-0.68333 0.95737,-1.61579 1.22786,-2.79738c0.2776,-1.18871 0.4164,-2.53046 0.4164,-4.02524c0,-1.49479 -0.1388,-2.83298 -0.4164,-4.01457c-0.27048,-1.18871 -0.67977,-2.12829 -1.22786,-2.81874c-0.54097,-0.69045 -1.23142,-1.03567 -2.07134,-1.03567c-0.83993,0 -1.53393,0.34166 -2.08202,1.02499c-0.54809,0.68333 -0.95737,1.61935 -1.22786,2.80806c-0.27048,1.18159 -0.40573,2.5269 -0.40573,4.03592c0,1.51614 0.13524,2.865 0.40573,4.04659c0.27048,1.18159 0.68333,2.11049 1.23854,2.7867c0.56232,0.67621 1.25277,1.01432 2.07134,1.01432z" fill="#ffffff" stroke="#f3f3f3" stroke-width="1" stroke-linecap="square"/><path d="M158.875,251.3966l162.25,-142.79319" fill="none" stroke="#000000" stroke-width="0" stroke-linecap="round"/></g></g></svg>