<svg version="1.1" xmlns="http://www.w3.org/2000/svg" xmlns:xlink="http://www.w3.org/1999/xlink" width="21.59515" height="3.70055" viewBox="0,0,21.59515,3.70055"><defs><linearGradient x1="229.20243" y1="180" x2="250.79759" y2="180" gradientUnits="userSpaceOnUse" id="color-1"><stop offset="0" stop-color="#ffaa00" stop-opacity="0"/><stop offset="1" stop-color="#ffaa00"/></linearGradient><linearGradient x1="236.22631" y1="179.98856" x2="249.21468" y2="179.98856" gradientUnits="userSpaceOnUse" id="color-2"><stop offset="0" stop-color="#ffaa00" stop-opacity="0"/><stop offset="1" stop-color="#ffaa00"/></linearGradient></defs><g transform="translate(-229.20243,-178.14974)"><g data-paper-data="{&quot;isPaintingLayer&quot;:true}" fill-rule="nonzero" stroke-linejoin="miter" stroke-miterlimit="10" stroke-dasharray="" stroke-dashoffset="0" style="mix-blend-mode: normal"><path d="M246.21513,181.81324c-0.89743,0.00438 -3.87678,0.10834 -6.58505,-0.05262c-2.44071,-0.14506 -5.65767,-0.22616 -7.63066,-0.52066c-2.03852,-0.30429 -2.79335,-0.82498 -2.79698,-1.15619c-0.00354,-0.32337 0.74387,-0.91361 2.64364,-1.23376c2.02546,-0.34137 5.28685,-0.40784 7.87678,-0.58628c2.54964,-0.17567 5.59605,-0.09482 6.45229,-0.09897c2.54183,-0.0124 4.61134,0.79428 4.62238,1.80181c0.01104,1.00751 -2.04056,1.83431 -4.58236,1.84673z" fill="url(#color-1)" stroke="none" stroke-width="0" stroke-linecap="butt"/><path d="M246.4586,181.07912c-0.53976,0.00263 -2.33167,0.06516 -3.96059,-0.03163c-1.46796,-0.08724 -3.4028,-0.13604 -4.58946,-0.31314c-1.22605,-0.183 -1.68007,-0.49621 -1.68225,-0.6954c-0.00214,-0.1945 0.4474,-0.54947 1.59003,-0.74205c1.21821,-0.20533 3.17976,-0.24528 4.73748,-0.35262c1.53349,-0.10565 3.36574,-0.05701 3.88071,-0.05954c1.52878,-0.00748 2.77347,0.47772 2.78013,1.08368c0.00665,0.60596 -1.22729,1.10326 -2.75604,1.11071z" fill="url(#color-2)" stroke="none" stroke-width="0" stroke-linecap="butt"/><path d="M247.7,179.94412h-4.26667" fill="none" stroke="#fadea7" stroke-width="1" stroke-linecap="round"/></g></g></svg>