<svg version="1.1" xmlns="http://www.w3.org/2000/svg" xmlns:xlink="http://www.w3.org/1999/xlink" width="127.00001" height="723.33035" viewBox="0,0,127.00001,723.33035"><defs><linearGradient x1="231.0513" y1="363.31288" x2="200.05142" y2="363.39635" gradientUnits="userSpaceOnUse" id="color-1"><stop offset="0" stop-color="#ff0000"/><stop offset="1" stop-color="#ff0000" stop-opacity="0"/></linearGradient><linearGradient x1="252.05122" y1="363.25634" x2="283.05112" y2="363.17288" gradientUnits="userSpaceOnUse" id="color-2"><stop offset="0" stop-color="#ff0000"/><stop offset="1" stop-color="#ff0000" stop-opacity="0"/></linearGradient><linearGradient x1="264.05118" y1="363.22404" x2="295.05107" y2="363.14057" gradientUnits="userSpaceOnUse" id="color-3"><stop offset="0" stop-color="#ff0000"/><stop offset="1" stop-color="#ff0000" stop-opacity="0"/></linearGradient><linearGradient x1="218.05135" y1="363.34788" x2="187.05146" y2="363.43135" gradientUnits="userSpaceOnUse" id="color-4"><stop offset="0" stop-color="#ff0000"/><stop offset="1" stop-color="#ff0000" stop-opacity="0"/></linearGradient><radialGradient cx="241.5015" cy="66.23448" r="45.5" gradientUnits="userSpaceOnUse" id="color-5"><stop offset="0" stop-color="#ff0000"/><stop offset="1" stop-color="#ff0000" stop-opacity="0"/></radialGradient><radialGradient cx="241.5015" cy="66.23448" r="63.5" gradientUnits="userSpaceOnUse" id="color-6"><stop offset="0" stop-color="#ff0000"/><stop offset="1" stop-color="#ff0000" stop-opacity="0"/></radialGradient><radialGradient cx="229.74156" cy="65.09948" r="25.15982" gradientUnits="userSpaceOnUse" id="color-7"><stop offset="0" stop-color="#ffb7b7"/><stop offset="1" stop-color="#ffb7b7" stop-opacity="0"/></radialGradient><radialGradient cx="251.92185" cy="65.03976" r="25.15982" gradientUnits="userSpaceOnUse" id="color-8"><stop offset="0" stop-color="#ffb7b7"/><stop offset="1" stop-color="#ffb7b7" stop-opacity="0"/></radialGradient><radialGradient cx="240.66617" cy="65.07006" r="25.15982" gradientUnits="userSpaceOnUse" id="color-9"><stop offset="0" stop-color="#ffb7b7"/><stop offset="1" stop-color="#ffb7b7" stop-opacity="0"/></radialGradient><radialGradient cx="241.77056" cy="65.39814" r="12.57991" gradientUnits="userSpaceOnUse" id="color-10"><stop offset="0" stop-color="#ffb7b7"/><stop offset="1" stop-color="#ffb7b7" stop-opacity="0"/></radialGradient><radialGradient cx="236.47496" cy="65.8538" r="12.57991" gradientUnits="userSpaceOnUse" id="color-11"><stop offset="0" stop-color="#ffb7b7"/><stop offset="1" stop-color="#ffb7b7" stop-opacity="0"/></radialGradient><radialGradient cx="230.62614" cy="65.7592" r="8.71766" gradientUnits="userSpaceOnUse" id="color-12"><stop offset="0" stop-color="#ffb7b7"/><stop offset="1" stop-color="#ffb7b7" stop-opacity="0"/></radialGradient><radialGradient cx="253.57887" cy="65.6974" r="10.20738" gradientUnits="userSpaceOnUse" id="color-13"><stop offset="0" stop-color="#ffb7b7"/><stop offset="1" stop-color="#ffb7b7" stop-opacity="0"/></radialGradient><radialGradient cx="252.25468" cy="65.70097" r="8.71765" gradientUnits="userSpaceOnUse" id="color-14"><stop offset="0" stop-color="#ffb7b7"/><stop offset="1" stop-color="#ffb7b7" stop-opacity="0"/></radialGradient><radialGradient cx="259.09695" cy="65.90325" r="6.28995" gradientUnits="userSpaceOnUse" id="color-15"><stop offset="0" stop-color="#ffb7b7"/><stop offset="1" stop-color="#ffb7b7" stop-opacity="0"/></radialGradient><radialGradient cx="246.18455" cy="65.38626" r="12.57991" gradientUnits="userSpaceOnUse" id="color-16"><stop offset="0" stop-color="#ffb7b7"/><stop offset="1" stop-color="#ffb7b7" stop-opacity="0"/></radialGradient><radialGradient cx="227.97685" cy="65.43528" r="9.93151" gradientUnits="userSpaceOnUse" id="color-17"><stop offset="0" stop-color="#ffb7b7"/><stop offset="1" stop-color="#ffb7b7" stop-opacity="0"/></radialGradient><linearGradient x1="210.79844" y1="362.27717" x2="229.79838" y2="362.22601" gradientUnits="userSpaceOnUse" id="color-18"><stop offset="0" stop-color="#ff0000"/><stop offset="1" stop-color="#ffffff"/></linearGradient><linearGradient x1="251.29829" y1="362.16812" x2="270.29823" y2="362.11698" gradientUnits="userSpaceOnUse" id="color-19"><stop offset="0" stop-color="#ffffff"/><stop offset="1" stop-color="#ff0000"/></linearGradient><radialGradient cx="222.55618" cy="55.61879" r="38" gradientUnits="userSpaceOnUse" id="color-20"><stop offset="0" stop-color="#ffffff"/><stop offset="1" stop-color="#ffffff" stop-opacity="0"/></radialGradient><radialGradient cx="256.05606" cy="55.5286" r="38" gradientUnits="userSpaceOnUse" id="color-21"><stop offset="0" stop-color="#ffffff"/><stop offset="1" stop-color="#ffffff" stop-opacity="0"/></radialGradient><radialGradient cx="239.05613" cy="55.57437" r="38" gradientUnits="userSpaceOnUse" id="color-22"><stop offset="0" stop-color="#ffffff"/><stop offset="1" stop-color="#ffffff" stop-opacity="0"/></radialGradient><radialGradient cx="240.72413" cy="56.06988" r="19" gradientUnits="userSpaceOnUse" id="color-23"><stop offset="0" stop-color="#ffffff"/><stop offset="1" stop-color="#ffffff" stop-opacity="0"/></radialGradient><radialGradient cx="232.72595" cy="56.75807" r="19" gradientUnits="userSpaceOnUse" id="color-24"><stop offset="0" stop-color="#ffffff"/><stop offset="1" stop-color="#ffffff" stop-opacity="0"/></radialGradient><radialGradient cx="223.8922" cy="56.6152" r="13.16667" gradientUnits="userSpaceOnUse" id="color-25"><stop offset="0" stop-color="#ffffff"/><stop offset="1" stop-color="#ffffff" stop-opacity="0"/></radialGradient><radialGradient cx="258.55875" cy="56.52186" r="15.41667" gradientUnits="userSpaceOnUse" id="color-26"><stop offset="0" stop-color="#ffffff"/><stop offset="1" stop-color="#ffffff" stop-opacity="0"/></radialGradient><radialGradient cx="256.55875" cy="56.52724" r="13.16667" gradientUnits="userSpaceOnUse" id="color-27"><stop offset="0" stop-color="#ffffff"/><stop offset="1" stop-color="#ffffff" stop-opacity="0"/></radialGradient><radialGradient cx="266.89294" cy="56.83275" r="9.5" gradientUnits="userSpaceOnUse" id="color-28"><stop offset="0" stop-color="#ffffff"/><stop offset="1" stop-color="#ffffff" stop-opacity="0"/></radialGradient><radialGradient cx="247.39077" cy="56.05192" r="19" gradientUnits="userSpaceOnUse" id="color-29"><stop offset="0" stop-color="#ffffff"/><stop offset="1" stop-color="#ffffff" stop-opacity="0"/></radialGradient><radialGradient cx="219.89087" cy="56.12597" r="15" gradientUnits="userSpaceOnUse" id="color-30"><stop offset="0" stop-color="#ffffff"/><stop offset="1" stop-color="#ffffff" stop-opacity="0"/></radialGradient></defs><g transform="translate(-178.00149,-2.73449)"><g data-paper-data="{&quot;isPaintingLayer&quot;:true}" fill-rule="nonzero" stroke-linejoin="miter" stroke-miterlimit="10" stroke-dasharray="" stroke-dashoffset="0" style="mix-blend-mode: normal"><g stroke="none" stroke-width="0" stroke-linecap="butt"><path d="M200.88211,671.9321l-1.66138,-617.0715l30.99989,-0.08346l1.66138,617.0715z" data-paper-data="{&quot;index&quot;:null}" fill="url(#color-1)"/><path d="M252.88192,671.79209l-1.66138,-617.0715l30.99989,-0.08346l1.66138,617.0715z" fill="url(#color-2)"/></g><path d="M264.88187,671.75979l-1.66138,-617.0715l30.99989,-0.08346l1.66138,617.0715z" fill="url(#color-3)" stroke="none" stroke-width="0" stroke-linecap="butt"/><g data-paper-data="{&quot;index&quot;:null}" fill="none" stroke="#ff0000" stroke-width="4" stroke-linecap="round"><path d="M239.34846,133.11418c0,0 35.18957,26.81757 35.13229,48.09476c-0.04379,16.26373 -59.18186,47.88334 -65.70405,80.7933"/><path d="M239.42116,106.11425c0,0 46.04288,18.84597 36.53247,44.81482c-6.86094,18.73428 -71.29166,41.0984 -67.04785,63.13353" data-paper-data="{&quot;index&quot;:null}"/></g><path d="M187.88216,671.9671l-1.66138,-617.0715l30.99989,-0.08346l1.66138,617.0715z" data-paper-data="{&quot;index&quot;:null}" fill="url(#color-4)" stroke="none" stroke-width="0" stroke-linecap="butt"/><g fill="none" stroke="#ff0000" stroke-width="4" stroke-linecap="round"><g><path d="M243.57254,488.05926c0,0 -46.14371,-18.59777 -36.77326,-44.61744c6.75996,-18.77095 71.06932,-41.48168 66.70692,-63.49364c-6.52219,-32.90996 -65.66026,-64.52957 -65.70405,-80.7933c-0.05728,-21.27719 35.13229,-48.09476 35.13229,-48.09476"/><path d="M241.18666,487.06567c0,0 35.33347,26.62769 35.39076,47.90489c0.04379,16.26372 -58.92316,48.20132 -65.26804,81.14592c-4.24381,22.03513 60.18691,44.39925 67.04785,63.13353c9.51041,25.96885 -36.53247,44.81482 -36.53247,44.81482" data-paper-data="{&quot;index&quot;:null}"/></g><g data-paper-data="{&quot;index&quot;:null}"><path d="M241.11398,460.06577c0,0 46.14371,18.59777 36.77326,44.61744c-6.75995,18.77094 -71.06933,41.48167 -66.70692,63.49364c6.52218,32.90995 65.66026,64.52957 65.70405,80.7933c0.05728,21.27719 -35.13229,48.09476 -35.13229,48.09476"/><path d="M243.49984,461.05935c0,0 -35.33347,-26.62769 -35.39076,-47.90489c-0.04379,-16.26372 58.92316,-48.20132 65.26804,-81.14592c4.24381,-22.03513 -60.18691,-44.39925 -67.04785,-63.13353c-9.51041,-25.96885 36.53247,-44.81482 36.53247,-44.81482" data-paper-data="{&quot;index&quot;:null}"/></g></g><path d="M196.00167,66.35698c-0.06765,-25.12887 20.24846,-45.55468 45.37733,-45.62233c25.12887,-0.06765 45.55468,20.24846 45.62233,45.37733c0.06765,25.12887 -20.24846,45.55468 -45.37733,45.62233c-25.12887,0.06765 -45.55468,-20.24846 -45.62233,-45.37733z" fill="url(#color-5)" stroke="none" stroke-width="0" stroke-linecap="butt"/><path d="M178.00173,66.40545c-0.09442,-35.06995 28.25885,-63.57632 63.32881,-63.67073c35.06995,-0.09442 63.57632,28.25885 63.67073,63.32881c0.09442,35.06995 -28.25885,63.57632 -63.32881,63.67073c-35.06995,0.09442 -63.57632,-28.25885 -63.67073,-63.32881z" fill="url(#color-6)" stroke="none" stroke-width="0" stroke-linecap="butt"/><g stroke="none" stroke-width="0" stroke-linecap="butt"><path d="M204.58182,65.16722c-0.03741,-13.89533 11.19666,-25.19006 25.09199,-25.22747c13.89533,-0.03741 25.19006,11.19666 25.22747,25.09199c0.03741,13.89533 -11.19666,25.19006 -25.09199,25.22747c-13.89533,0.03741 -25.19006,-11.19666 -25.22747,-25.09199z" fill="url(#color-7)"/><path d="M226.76212,65.1075c-0.03741,-13.89533 11.19666,-25.19006 25.09199,-25.22747c13.89533,-0.03741 25.19006,11.19666 25.22747,25.09199c0.03741,13.89533 -11.19666,25.19006 -25.09199,25.22747c-13.89533,0.03741 -25.19006,-11.19666 -25.22747,-25.09199z" fill="url(#color-8)"/><path d="M215.50645,65.1378c-0.03741,-13.89533 11.19666,-25.19006 25.09199,-25.22747c13.89533,-0.03741 25.19006,11.19666 25.22747,25.09199c0.03741,13.89533 -11.19666,25.19006 -25.09199,25.22747c-13.89533,0.03741 -25.19006,-11.19666 -25.22747,-25.09199z" fill="url(#color-9)"/><path d="M229.1907,65.43201c-0.0187,-6.94767 5.59833,-12.59503 12.54599,-12.61373c6.94767,-0.0187 12.59503,5.59833 12.61373,12.54599c0.0187,6.94767 -5.59833,12.59503 -12.54599,12.61373c-6.94767,0.0187 -12.59503,-5.59833 -12.61373,-12.54599z" fill="url(#color-10)"/><path d="M223.89511,65.88767c-0.0187,-6.94767 5.59833,-12.59503 12.54599,-12.61373c6.94767,-0.0187 12.59503,5.59833 12.61373,12.54599c0.0187,6.94767 -5.59833,12.59503 -12.54599,12.61373c-6.94767,0.0187 -12.59503,-5.59833 -12.61373,-12.54599z" fill="url(#color-11)"/><path d="M221.90851,65.78267c-0.01296,-4.81462 3.87954,-8.72812 8.69415,-8.74109c4.81462,-0.01296 8.72814,3.87955 8.7411,8.69414c0.01296,4.81462 -3.87954,8.72812 -8.69416,8.74109c-4.81462,0.01296 -8.72812,-3.87954 -8.74109,-8.69415z" fill="url(#color-12)"/><path d="M243.37151,65.72488c-0.01518,-5.63736 4.54251,-10.21965 10.17986,-10.23483c5.63736,-0.01518 10.21965,4.54251 10.23483,10.17986c0.01518,5.63736 -4.54251,10.21965 -10.17986,10.23483c-5.63736,0.01518 -10.21965,-4.54251 -10.23483,-10.17986z" fill="url(#color-13)"/><path d="M243.53705,65.72443c-0.01296,-4.81462 3.87954,-8.72812 8.69416,-8.74109c4.81462,-0.01296 8.72812,3.87954 8.74109,8.69415c0.01296,4.81462 -3.87954,8.72812 -8.69415,8.74109c-4.81462,0.01296 -8.72814,-3.87955 -8.7411,-8.69414z" fill="url(#color-14)"/><path d="M252.80701,65.92018c-0.00935,-3.47384 2.79917,-6.29751 6.27299,-6.30686c3.47384,-0.00935 6.29751,2.79917 6.30686,6.27299c0.00935,3.47384 -2.79917,6.29751 -6.27299,6.30686c-3.47384,0.00935 -6.29751,-2.79917 -6.30686,-6.27299z" fill="url(#color-15)"/><path d="M233.60468,65.42013c-0.0187,-6.94767 5.59833,-12.59503 12.54599,-12.61373c6.94767,-0.0187 12.59503,5.59833 12.61373,12.54599c0.0187,6.94767 -5.59833,12.59503 -12.54599,12.61373c-6.94767,0.0187 -12.59503,-5.59833 -12.61373,-12.54599z" fill="url(#color-16)"/><path d="M218.04538,65.46202c-0.01476,-5.485 4.41973,-9.94344 9.90473,-9.95821c5.485,-0.01476 9.94344,4.41973 9.95821,9.90473c0.01476,5.485 -4.41973,9.94344 -9.90473,9.95821c-5.485,0.01476 -9.94344,-4.41973 -9.95821,-9.90473z" fill="url(#color-17)"/></g><g stroke="none" stroke-linecap="butt"><path d="M211.63207,671.90316l-1.66725,-619.25198l18.99993,-0.05116l1.66725,619.25198z" data-paper-data="{&quot;index&quot;:null}" fill="url(#color-18)" stroke-width="NaN"/><path d="M229.88396,672.58083l-1.6692,-619.97878l23.99992,-0.06461l1.6692,619.97878z" fill="#ffffff" stroke-width="0"/><path d="M252.13192,671.79411l-1.66725,-619.25198l18.99993,-0.05116l1.66725,619.25198z" fill="url(#color-19)" stroke-width="NaN"/></g><g stroke="none" stroke-width="0" stroke-linecap="butt"><path d="M184.55632,55.7211c-0.05651,-20.98674 16.91081,-38.04567 37.89755,-38.10217c20.98674,-0.05651 38.04567,16.91081 38.10217,37.89755c0.05651,20.98674 -16.91081,38.04567 -37.89755,38.10217c-20.98674,0.05651 -38.04567,-16.91081 -38.10217,-37.89755z" fill="url(#color-20)"/><path d="M218.0562,55.63091c-0.05651,-20.98674 16.91081,-38.04567 37.89755,-38.10217c20.98674,-0.05651 38.04567,16.91081 38.10217,37.89755c0.05651,20.98674 -16.91081,38.04567 -37.89755,38.10217c-20.98674,0.05651 -38.04567,-16.91081 -38.10217,-37.89755z" fill="url(#color-21)"/><path d="M201.05626,55.67668c-0.05651,-20.98674 16.91081,-38.04567 37.89755,-38.10217c20.98674,-0.05651 38.04567,16.91081 38.10217,37.89755c0.05651,20.98674 -16.91081,38.04567 -37.89755,38.10217c-20.98674,0.05651 -38.04567,-16.91081 -38.10217,-37.89755z" fill="url(#color-22)"/><path d="M221.7242,56.12103c-0.02825,-10.49337 8.4554,-19.02284 18.94878,-19.05109c10.49337,-0.02825 19.02284,8.4554 19.05109,18.94878c0.02825,10.49337 -8.4554,19.02284 -18.94878,19.05109c-10.49337,0.02825 -19.02284,-8.4554 -19.05109,-18.94878z" fill="url(#color-23)"/><path d="M213.72603,56.80923c-0.02825,-10.49337 8.4554,-19.02284 18.94878,-19.05109c10.49337,-0.02825 19.02284,8.4554 19.05109,18.94878c0.02825,10.49337 -8.4554,19.02284 -18.94878,19.05109c-10.49337,0.02825 -19.02284,-8.4554 -19.05109,-18.94878z" fill="url(#color-24)"/><path d="M210.72559,56.65064c-0.01958,-7.27173 5.85943,-13.18248 13.13116,-13.20206c7.27173,-0.01958 13.18249,5.85945 13.20207,13.13116c0.01958,7.27173 -5.85945,13.18249 -13.13117,13.20207c-7.27173,0.01958 -13.18248,-5.85943 -13.20206,-13.13118z" fill="url(#color-25)"/><path d="M243.14213,56.56337c-0.02293,-8.51436 6.86075,-15.43519 15.3751,-15.45811c8.51436,-0.02293 15.4352,6.86075 15.45812,15.3751c0.02293,8.51436 -6.86075,15.4352 -15.37511,15.45812c-8.51436,0.02293 -15.4352,-6.86075 -15.45812,-15.37511z" fill="url(#color-26)"/><path d="M243.39213,56.56269c-0.01958,-7.27173 5.85945,-13.18248 13.13118,-13.20206c7.27173,-0.01958 13.18249,5.85945 13.20207,13.13116c0.01958,7.27173 -5.85945,13.18249 -13.13117,13.20207c-7.27173,0.01958 -13.1825,-5.85944 -13.20207,-13.13117z" fill="url(#color-27)"/><path d="M257.39297,56.85833c-0.01413,-5.24669 4.2277,-9.51141 9.47439,-9.52554c5.24669,-0.01413 9.51142,4.2277 9.52554,9.47439c0.01413,5.24669 -4.2277,9.51142 -9.47439,9.52554c-5.24668,0.01412 -9.51142,-4.2277 -9.52554,-9.47439z" fill="url(#color-28)"/><path d="M228.39084,56.10308c-0.02825,-10.49337 8.4554,-19.02284 18.94878,-19.05109c10.49337,-0.02825 19.02284,8.4554 19.05109,18.94878c0.02825,10.49337 -8.4554,19.02284 -18.94878,19.05109c-10.49337,0.02825 -19.02284,-8.4554 -19.05109,-18.94878z" fill="url(#color-29)"/><path d="M204.89092,56.16635c-0.0223,-8.28424 6.67532,-15.01803 14.95956,-15.04033c8.28424,-0.0223 15.01803,6.67532 15.04033,14.95956c0.0223,8.28424 -6.67532,15.01803 -14.95956,15.04033c-8.28424,0.0223 -15.01803,-6.67532 -15.04033,-14.95956z" fill="url(#color-30)"/></g></g></g></svg>