<svg version="1.1" xmlns="http://www.w3.org/2000/svg" xmlns:xlink="http://www.w3.org/1999/xlink" width="35.16503" height="39.07654" viewBox="0,0,35.16503,39.07654"><defs><linearGradient x1="232.22825" y1="197.46658" x2="242.242" y2="197.46658" gradientUnits="userSpaceOnUse" id="color-1"><stop offset="0" stop-color="#e5e5e5" stop-opacity="0"/><stop offset="1" stop-color="#e5e5e5"/></linearGradient><linearGradient x1="232.37844" y1="162.56867" x2="242.39219" y2="162.56867" gradientUnits="userSpaceOnUse" id="color-2"><stop offset="0" stop-color="#e5e5e5" stop-opacity="0"/><stop offset="1" stop-color="#e5e5e5"/></linearGradient><linearGradient x1="244.67478" y1="183.90768" x2="244.67478" y2="187.18096" gradientUnits="userSpaceOnUse" id="color-3"><stop offset="0" stop-color="#17ab00"/><stop offset="1" stop-color="#17ab00" stop-opacity="0"/></linearGradient><linearGradient x1="244.71696" y1="172.30158" x2="244.71696" y2="175.57487" gradientUnits="userSpaceOnUse" id="color-4"><stop offset="0" stop-color="#17ab00" stop-opacity="0"/><stop offset="1" stop-color="#17ab00"/></linearGradient><linearGradient x1="256.21464" y1="172.92892" x2="257.79697" y2="181.26705" gradientUnits="userSpaceOnUse" id="color-5"><stop offset="0" stop-color="#c7c7c7"/><stop offset="1" stop-color="#c7c7c7" stop-opacity="0"/></linearGradient><linearGradient x1="258.77932" y1="176.7243" x2="256.67566" y2="183.12005" gradientUnits="userSpaceOnUse" id="color-6"><stop offset="0" stop-color="#c7c7c7"/><stop offset="1" stop-color="#c7c7c7" stop-opacity="0"/></linearGradient><linearGradient x1="242.09933" y1="232.12894" x2="330.40293" y2="-41.44138" gradientUnits="userSpaceOnUse" id="color-7"><stop offset="0" stop-color="#cacaca" stop-opacity="0"/><stop offset="1" stop-color="#cacaca"/></linearGradient><linearGradient x1="247.05395" y1="214.66709" x2="305.94501" y2="32.2187" gradientUnits="userSpaceOnUse" id="color-8"><stop offset="0" stop-color="#cacaca" stop-opacity="0"/><stop offset="1" stop-color="#cacaca"/></linearGradient><linearGradient x1="257.81983" y1="187.15894" x2="256.23748" y2="178.82082" gradientUnits="userSpaceOnUse" id="color-9"><stop offset="0" stop-color="#c7c7c7"/><stop offset="1" stop-color="#c7c7c7" stop-opacity="0"/></linearGradient><linearGradient x1="255.23854" y1="183.3149" x2="257.34218" y2="176.91914" gradientUnits="userSpaceOnUse" id="color-10"><stop offset="0" stop-color="#c7c7c7"/><stop offset="1" stop-color="#c7c7c7" stop-opacity="0"/></linearGradient></defs><g transform="translate(-222.922,-160.46173)"><g data-paper-data="{&quot;isPaintingLayer&quot;:true}" fill-rule="nonzero" stroke-linejoin="miter" stroke-miterlimit="10" stroke-dasharray="" stroke-dashoffset="0" style="mix-blend-mode: normal"><path d="M242.242,198.63485l-10.01374,-2.11401l9.90248,-0.22253z" data-paper-data="{&quot;index&quot;:null}" fill="url(#color-1)" stroke="#000000" stroke-width="0" stroke-linecap="round"/><path d="M242.28092,163.73693l-9.90248,-0.22253l10.01374,-2.11401z" fill="url(#color-2)" stroke="#000000" stroke-width="0" stroke-linecap="round"/><path d="M229.26669,176.93967c0,0 4.57842,-0.81582 6.84753,-1.06527c2.24221,-0.24649 5.12555,-0.31507 5.12555,-0.31507l-0.96732,-14.04584l2.49623,-0.95374l5.53024,4.88235l0.02236,10.10156l5.20699,-0.01153l3.54975,4.05361l-3.53154,4.17343l-5.41527,0.01198l-0.08087,10.51835l-5.19546,5.21852l-2.03711,-1.13511l0.33606,-14.58631c0,0 -2.49088,0.02912 -4.85009,-0.29223c-2.1318,-0.29036 -7.02576,-1.45187 -7.02576,-1.45187l0.01038,4.6863l-1.9752,1.56648l-0.95386,-7.49599l-3.4373,-0.30482l0.10114,-1.35405l3.33017,-1.04878l0.1926,-7.08196l2.29316,0.93219z" fill="#1de200" stroke="#000000" stroke-width="0" stroke-linecap="round"/><path d="M248.35738,166.60601l-7.70368,0.94402l-0.44673,-6.08423l2.49601,-1.00407l5.58352,4.78793z" fill="#555555" stroke="#ffffff" stroke-width="0" stroke-linecap="round"/><path d="M248.07364,194.28961l-5.18678,5.24866l-2.58331,-1.26998l0.49063,-6.12336l7.27659,0.84822z" data-paper-data="{&quot;index&quot;:null}" fill="#555555" stroke="#ffffff" stroke-width="0" stroke-linecap="round"/><path d="M254.66354,177.61802l-17.57685,-1.72575l16.54308,-0.2572l1.696,2.20206z" fill="#555555" stroke="#555555" stroke-width="0.5" stroke-linecap="round"/><path d="M255.18688,181.51381l-1.68624,2.20955l-16.54406,-0.18396l17.56904,-1.80355z" data-paper-data="{&quot;index&quot;:null}" fill="#555555" stroke="#555555" stroke-width="0.5" stroke-linecap="round"/><path d="M248.14548,168.61169c0.22952,0.01326 0.22952,0.24942 0.22952,0.24942l-0.04199,0.30534c-0.8861,1.32915 -1.51933,4.51012 -3.12468,4.52799c-0.67515,0 -2.76099,-0.0317 -2.4076,-1.31673c0.14164,-0.51504 0.98503,-0.7906 0.90947,-1.31939c-0.0879,-0.61518 -0.56835,-1.04706 -0.58333,-1.64442c0.4972,-1.95301 3.68372,-1.46521 4.94326,-0.85973c0,0 0.03835,0.01917 0.07534,0.05752z" fill="#22ff00" stroke="none" stroke-width="0.5" stroke-linecap="butt"/><path d="M247.95833,185.0481c0,0.19444 0,0.4519 0,0.64634c0,1.9972 0.96785,5.20053 -1.78769,3.31068c-0.22033,-0.7703 -1.01504,-1.05639 -1.35558,-1.78842c-0.5483,-1.17862 1.96157,-2.273 2.89755,-2.59277c0,0 0.23717,-0.07906 0.31623,0.15811c0.04505,0.13515 -0.01258,0.21896 -0.0705,0.26605z" fill="#22ff00" stroke="none" stroke-width="0.5" stroke-linecap="butt"/><path d="M241.17581,183.92315l6.99072,-0.01548l0.00721,3.25781l-6.99072,0.01548z" fill="url(#color-3)" stroke="none" stroke-width="0" stroke-linecap="butt"/><path d="M241.21799,172.31706l6.99072,-0.01548l0.00721,3.25781l-6.99072,0.01548z" data-paper-data="{&quot;index&quot;:null}" fill="url(#color-4)" stroke="none" stroke-width="0" stroke-linecap="butt"/><path d="M229.29417,182.04905l0.07824,4.68294l-2.10054,1.5657l-0.89854,-7.32812l5.84067,1.68386z" fill="#555555" stroke="#ffffff" stroke-width="0" stroke-linecap="round"/><path d="M232.71555,176.41584l-6.35728,1.69576l0.15868,-7.51711l2.35678,1.37075l0.40156,4.95646z" data-paper-data="{&quot;index&quot;:null}" fill="#555555" stroke="#ffffff" stroke-width="0" stroke-linecap="round"/><path d="M255.48164,179.69072c-0.01174,0.98927 -0.94019,2.33395 -0.94019,2.33395l-2.3313,0.25725c0,0 0.72435,-1.45105 0.75056,-2.58562c0.02621,-1.13457 -0.63553,-2.39349 -0.63553,-2.39349l2.26939,0.24707c0,0 0.89881,1.15156 0.88706,2.14083z" fill="#c7ffff" stroke="#000000" stroke-width="0" stroke-linecap="round"/><path d="M241.99355,189.22258c0.06888,-0.11147 0.21479,-0.11147 0.21479,-0.11147c2.88412,0 2.41271,4.44935 0.32322,2.42678c-0.61891,-0.62101 -1.07322,-1.2063 -1.07322,-2.09344l0.41667,-0.25c0,0 0.05827,0 0.11855,0.02813z" fill="#22ff00" stroke="none" stroke-width="0.5" stroke-linecap="butt"/><g stroke="none" stroke-width="0" stroke-linecap="butt"><path d="M257.44809,182.34791l-0.43788,-2.30741l0.69777,-2.16172l0.37904,2.46443z" data-paper-data="{&quot;index&quot;:null}" fill="url(#color-5)"/><path d="M256.41463,181.7178l0.58214,-1.76989l0.52205,2.80452l-0.6199,1.53332z" data-paper-data="{&quot;index&quot;:null}" fill="url(#color-6)"/><g><path d="M256.85499,183.2794c-0.47937,-0.23124 -0.82377,-1.88542 -0.74954,-3.93687c0.07424,-2.05144 0.50094,-3.34576 1.0043,-3.10295c0.50336,0.24282 0.82109,1.90867 0.74729,3.94791c-0.0738,2.03923 -0.52269,3.32315 -1.00206,3.09191z" fill="url(#color-7)"/><path d="M257.563,180.02651c-0.04922,1.36 -0.3486,2.21626 -0.66829,2.06204c-0.31969,-0.15422 -0.54939,-1.25742 -0.49987,-2.62556c0.04951,-1.36814 0.33409,-2.23134 0.66978,-2.0694c0.33569,0.16193 0.5476,1.27292 0.49838,2.63292z" fill="url(#color-8)"/><path d="M256.58637,177.73996l0.43788,2.30741l-0.69777,2.16172l-0.37905,-2.46443z" fill="url(#color-9)"/><path d="M257.6032,178.32141l-0.58214,1.76989l-0.52205,-2.80452l0.6199,-1.53332z" data-paper-data="{&quot;index&quot;:null}" fill="url(#color-10)"/></g></g><g stroke="#a6caca" stroke-width="0.5" stroke-linecap="round"><path d="M244.40768,181.01704c0,0 -1.24554,-0.55811 -1.24554,-1.24554c0,-0.68743 1.24554,-1.24554 1.24554,-1.24554l3.47768,0.01782c0,0 1.24554,0.55811 1.24554,1.24554c0,0.68743 -1.24554,1.24554 -1.24554,1.24554z" fill="#c7ffff"/><path d="M247.48111,178.66351v2.15143" fill="none"/><path d="M246.50319,180.71715v-2.05364" fill="none"/><path d="M244.93852,178.56571v2.24922" fill="none"/><path d="M245.92904,178.48052v2.24922" fill="none"/></g><path d="M235.18494,179.15879c1.28539,1.75073 2.91738,1.56547 4.85673,1.53565c0.35378,0.07926 0.55118,-2.53408 0.80762,-3.05734c-0.33262,-0.11476 -0.84123,-0.48406 -1.08816,-0.52786c-0.34193,-0.06066 -3.30906,0.48557 -3.3073,0.54915c-0.28669,0.73589 -0.50578,1.21834 -1.26889,1.50041zM234.75865,178.77526l0.20396,-0.06799c0.64015,-0.20657 0.76103,-0.56361 1.00023,-1.14344c0.02958,-1.3093 1.62106,-0.49802 2.28016,-0.36697c0.48529,0.09649 0.7915,-0.4459 1.22621,-0.57502c0.55313,-0.1643 1.24823,0.29142 1.77111,0.68086l0.20826,0.06942c0.10216,0.03142 0.17641,0.12653 0.17641,0.23899c0,0.0998 -0.05848,0.18594 -0.14304,0.22603l-0.28292,0.14146c-0.48542,0.82417 0.19871,3.10683 -1.15737,3.21585c-2.20292,-0.02452 -3.9598,0.12486 -5.42746,-1.98372c-0.02382,-0.02497 -0.04464,-0.05869 -0.05971,-0.10389c-0.01464,-0.04392 -0.01844,-0.08242 -0.0149,-0.116c0.00159,-0.0151 0.0048,-0.03055 0.01013,-0.04607c0.00533,-0.01552 0.01227,-0.02969 0.02029,-0.04259c0.01782,-0.02867 0.04446,-0.05673 0.08298,-0.08241c0.03762,-0.02508 0.07298,-0.03882 0.10566,-0.0445z" fill="#22ff00" stroke="none" stroke-width="0.5" stroke-linecap="butt"/><path d="M236.41478,177.62715c-0.00176,-0.06358 3.0392,-0.61448 3.38113,-0.55382c0.24693,0.04381 0.76636,0.42853 1.09898,0.54328c-0.25643,0.52326 -0.46194,3.19016 -0.81572,3.1109c-1.93935,0.02982 -3.65865,0.1864 -4.94404,-1.56433c0.76311,-0.28207 0.99296,-0.80014 1.27966,-1.53603z" data-paper-data="{&quot;noHover&quot;:false,&quot;origItem&quot;:[&quot;Path&quot;,{&quot;applyMatrix&quot;:true,&quot;segments&quot;:[[[235.18494,179.15879],[0.76311,-0.28207],[1.28539,1.75073]],[[240.04167,180.69444],[-1.93935,0.02982],[0.35378,0.07926]],[[240.84929,177.6371],[-0.25643,0.52326],[-0.33262,-0.11476]],[[239.76112,177.10924],[0.24693,0.04381],[-0.34193,-0.06066]],[[236.45382,177.65839],[-0.00176,-0.06358],[-0.28669,0.73589]]],&quot;closed&quot;:true}]}" fill="#22ff00" stroke="none" stroke-width="0.5" stroke-linecap="butt"/><path d="M228.2968,178.10156c-0.1718,-0.04577 -0.1718,-0.24045 -0.1718,-0.24045l0.25,-0.33333c0.97131,0 1.62494,-0.62785 2.46933,-0.32466l0.02639,-0.07918l0.24453,0.08151c0.10216,0.03142 0.17641,0.12653 0.17641,0.23899c0,0.11246 -0.07426,0.20758 -0.17641,0.23899l-0.21553,0.07184c-0.29883,0.2303 -0.98046,1.08745 -1.27473,1.10583c-0.31625,0.01975 -0.83902,-0.49181 -1.16239,-0.59616c0,0 -0.13095,-0.04365 -0.16581,-0.16339z" fill="#22ff00" stroke="none" stroke-width="0.5" stroke-linecap="butt"/></g></g></svg>