<svg version="1.1" xmlns="http://www.w3.org/2000/svg" xmlns:xlink="http://www.w3.org/1999/xlink" width="61.5" height="54.125" viewBox="0,0,61.5,54.125"><g transform="translate(-210.47222,-148.66669)"><g data-paper-data="{&quot;isPaintingLayer&quot;:true}" fill-rule="nonzero" stroke-linejoin="miter" stroke-miterlimit="10" stroke-dasharray="" stroke-dashoffset="0" style="mix-blend-mode: normal"><path d="M210.47222,202.79169l61.5,-54.125" fill="none" stroke="#000000" stroke-width="0" stroke-linecap="round"/><path d="M239.97865,169.33898c1.25989,0 2.37742,0.2776 3.35259,0.83281c0.97517,0.55521 1.7368,1.32039 2.28488,2.29556c0.54809,0.97517 0.82213,2.0927 0.82213,3.35259c0,1.27413 -0.27404,2.39877 -0.82213,3.37394c-0.54809,0.97517 -1.30972,1.74036 -2.28488,2.29556c-0.97517,0.55521 -2.0927,0.83281 -3.35259,0.83281c-1.25277,0 -2.36318,-0.2776 -3.33123,-0.83281c-0.96805,-0.55521 -1.72612,-1.32039 -2.27421,-2.29556c-0.54097,-0.97517 -0.81145,-2.09982 -0.81145,-3.37394c0,-1.25989 0.27048,-2.37742 0.81145,-3.35259c0.54809,-0.97517 1.30616,-1.74036 2.27421,-2.29556c0.96805,-0.55521 2.07846,-0.83281 3.33123,-0.83281zM240.01068,171.79473c-0.74739,0 -1.40937,0.17083 -1.98593,0.5125c-0.56944,0.33455 -1.01788,0.8079 -1.34531,1.42004c-0.32743,0.61215 -0.49114,1.30972 -0.49114,2.0927c0,0.79722 0.16371,1.49834 0.49114,2.10337c0.32743,0.59791 0.77586,1.07126 1.34531,1.42004c0.57656,0.34878 1.23854,0.52317 1.98593,0.52317c0.74739,0 1.40581,-0.17439 1.97525,-0.52317c0.57656,-0.34878 1.02499,-0.82213 1.34531,-1.42004c0.32031,-0.60503 0.48047,-1.30616 0.48047,-2.10337c0,-0.78298 -0.16016,-1.48055 -0.48047,-2.0927c-0.32031,-0.61215 -0.76875,-1.0855 -1.34531,-1.42004c-0.56944,-0.34166 -1.22786,-0.5125 -1.97525,-0.5125zM245.5307,179.31136l-6.34216,10.58094c-0.32743,0.5125 -0.74739,0.76875 -1.25989,0.76875c-0.37726,0 -0.69401,-0.11033 -0.95026,-0.33099c-0.25625,-0.22066 -0.4164,-0.4947 -0.48047,-0.82213c-0.06406,-0.32743 0.00356,-0.65486 0.20286,-0.98229l3.88644,-6.44893z" fill="#ffffff" stroke="#f3f3f3" stroke-width="1" stroke-linecap="square"/></g></g></svg>