<svg version="1.1" xmlns="http://www.w3.org/2000/svg" xmlns:xlink="http://www.w3.org/1999/xlink" width="18.8919" height="669.84635" viewBox="0,0,18.8919,669.84635"><defs><linearGradient x1="239.94698" y1="363.31288" x2="235.33559" y2="363.39635" gradientUnits="userSpaceOnUse" id="color-1"><stop offset="0" stop-color="#ff0000"/><stop offset="1" stop-color="#ff0000" stop-opacity="0"/></linearGradient><linearGradient x1="243.07082" y1="363.25634" x2="247.68222" y2="363.17288" gradientUnits="userSpaceOnUse" id="color-2"><stop offset="0" stop-color="#ff0000"/><stop offset="1" stop-color="#ff0000" stop-opacity="0"/></linearGradient><linearGradient x1="244.85588" y1="363.22404" x2="249.46727" y2="363.14057" gradientUnits="userSpaceOnUse" id="color-3"><stop offset="0" stop-color="#ff0000"/><stop offset="1" stop-color="#ff0000" stop-opacity="0"/></linearGradient><radialGradient cx="241.5015" cy="66.23448" r="6.76836" gradientUnits="userSpaceOnUse" id="color-4"><stop offset="0" stop-color="#ff0000"/><stop offset="1" stop-color="#ff0000" stop-opacity="0"/></radialGradient><radialGradient cx="241.5015" cy="66.23448" r="9.44595" gradientUnits="userSpaceOnUse" id="color-5"><stop offset="0" stop-color="#ff0000"/><stop offset="1" stop-color="#ff0000" stop-opacity="0"/></radialGradient><radialGradient cx="239.75215" cy="65.09948" r="3.74265" gradientUnits="userSpaceOnUse" id="color-6"><stop offset="0" stop-color="#ffb7b7"/><stop offset="1" stop-color="#ffb7b7" stop-opacity="0"/></radialGradient><radialGradient cx="243.05158" cy="65.03976" r="3.74265" gradientUnits="userSpaceOnUse" id="color-7"><stop offset="0" stop-color="#ffb7b7"/><stop offset="1" stop-color="#ffb7b7" stop-opacity="0"/></radialGradient><radialGradient cx="241.37724" cy="65.07006" r="3.74265" gradientUnits="userSpaceOnUse" id="color-8"><stop offset="0" stop-color="#ffb7b7"/><stop offset="1" stop-color="#ffb7b7" stop-opacity="0"/></radialGradient><radialGradient cx="241.54152" cy="65.39814" r="1.87133" gradientUnits="userSpaceOnUse" id="color-9"><stop offset="0" stop-color="#ffb7b7"/><stop offset="1" stop-color="#ffb7b7" stop-opacity="0"/></radialGradient><radialGradient cx="240.75377" cy="65.8538" r="1.87133" gradientUnits="userSpaceOnUse" id="color-10"><stop offset="0" stop-color="#ffb7b7"/><stop offset="1" stop-color="#ffb7b7" stop-opacity="0"/></radialGradient><radialGradient cx="239.88373" cy="65.7592" r="1.2968" gradientUnits="userSpaceOnUse" id="color-11"><stop offset="0" stop-color="#ffb7b7"/><stop offset="1" stop-color="#ffb7b7" stop-opacity="0"/></radialGradient><radialGradient cx="243.29807" cy="65.6974" r="1.5184" gradientUnits="userSpaceOnUse" id="color-12"><stop offset="0" stop-color="#ffb7b7"/><stop offset="1" stop-color="#ffb7b7" stop-opacity="0"/></radialGradient><radialGradient cx="243.10109" cy="65.70097" r="1.2968" gradientUnits="userSpaceOnUse" id="color-13"><stop offset="0" stop-color="#ffb7b7"/><stop offset="1" stop-color="#ffb7b7" stop-opacity="0"/></radialGradient><radialGradient cx="244.11891" cy="65.90325" r="0.93566" gradientUnits="userSpaceOnUse" id="color-14"><stop offset="0" stop-color="#ffb7b7"/><stop offset="1" stop-color="#ffb7b7" stop-opacity="0"/></radialGradient><radialGradient cx="242.19812" cy="65.38626" r="1.87133" gradientUnits="userSpaceOnUse" id="color-15"><stop offset="0" stop-color="#ffb7b7"/><stop offset="1" stop-color="#ffb7b7" stop-opacity="0"/></radialGradient><radialGradient cx="239.48964" cy="65.43528" r="1.47736" gradientUnits="userSpaceOnUse" id="color-16"><stop offset="0" stop-color="#ffb7b7"/><stop offset="1" stop-color="#ffb7b7" stop-opacity="0"/></radialGradient><linearGradient x1="238.01317" y1="363.34788" x2="233.40177" y2="363.43135" gradientUnits="userSpaceOnUse" id="color-17"><stop offset="0" stop-color="#ff0000"/><stop offset="1" stop-color="#ff0000" stop-opacity="0"/></linearGradient><linearGradient x1="236.93426" y1="362.27717" x2="239.7606" y2="362.22601" gradientUnits="userSpaceOnUse" id="color-18"><stop offset="0" stop-color="#ff0000"/><stop offset="1" stop-color="#ffffff"/></linearGradient><linearGradient x1="242.95882" y1="362.16812" x2="245.78516" y2="362.11698" gradientUnits="userSpaceOnUse" id="color-19"><stop offset="0" stop-color="#ffffff"/><stop offset="1" stop-color="#ff0000"/></linearGradient><radialGradient cx="238.68328" cy="55.61879" r="5.65269" gradientUnits="userSpaceOnUse" id="color-20"><stop offset="0" stop-color="#ffffff"/><stop offset="1" stop-color="#ffffff" stop-opacity="0"/></radialGradient><radialGradient cx="243.66656" cy="55.5286" r="5.65269" gradientUnits="userSpaceOnUse" id="color-21"><stop offset="0" stop-color="#ffffff"/><stop offset="1" stop-color="#ffffff" stop-opacity="0"/></radialGradient><radialGradient cx="241.13774" cy="55.57437" r="5.65269" gradientUnits="userSpaceOnUse" id="color-22"><stop offset="0" stop-color="#ffffff"/><stop offset="1" stop-color="#ffffff" stop-opacity="0"/></radialGradient><radialGradient cx="241.38586" cy="56.06988" r="2.82635" gradientUnits="userSpaceOnUse" id="color-23"><stop offset="0" stop-color="#ffffff"/><stop offset="1" stop-color="#ffffff" stop-opacity="0"/></radialGradient><radialGradient cx="240.19609" cy="56.75807" r="2.82635" gradientUnits="userSpaceOnUse" id="color-24"><stop offset="0" stop-color="#ffffff"/><stop offset="1" stop-color="#ffffff" stop-opacity="0"/></radialGradient><radialGradient cx="238.88202" cy="56.6152" r="1.95861" gradientUnits="userSpaceOnUse" id="color-25"><stop offset="0" stop-color="#ffffff"/><stop offset="1" stop-color="#ffffff" stop-opacity="0"/></radialGradient><radialGradient cx="244.03885" cy="56.52186" r="2.29331" gradientUnits="userSpaceOnUse" id="color-26"><stop offset="0" stop-color="#ffffff"/><stop offset="1" stop-color="#ffffff" stop-opacity="0"/></radialGradient><radialGradient cx="243.74134" cy="56.52724" r="1.95861" gradientUnits="userSpaceOnUse" id="color-27"><stop offset="0" stop-color="#ffffff"/><stop offset="1" stop-color="#ffffff" stop-opacity="0"/></radialGradient><radialGradient cx="245.2786" cy="56.83275" r="1.41317" gradientUnits="userSpaceOnUse" id="color-28"><stop offset="0" stop-color="#ffffff"/><stop offset="1" stop-color="#ffffff" stop-opacity="0"/></radialGradient><radialGradient cx="242.37756" cy="56.05192" r="2.82635" gradientUnits="userSpaceOnUse" id="color-29"><stop offset="0" stop-color="#ffffff"/><stop offset="1" stop-color="#ffffff" stop-opacity="0"/></radialGradient><radialGradient cx="238.28681" cy="56.12597" r="2.23133" gradientUnits="userSpaceOnUse" id="color-30"><stop offset="0" stop-color="#ffffff"/><stop offset="1" stop-color="#ffffff" stop-opacity="0"/></radialGradient></defs><g transform="translate(-232.05555,-2.73449)"><g data-paper-data="{&quot;isPaintingLayer&quot;:true}" fill-rule="nonzero" stroke-linejoin="miter" stroke-miterlimit="10" stroke-dasharray="" stroke-dashoffset="0" style="mix-blend-mode: normal"><g><g fill="none" stroke="#ff0000" stroke-width="4" stroke-linecap="round"><g><path d="M241.80958,322.05926c0,0 -6.86411,-18.59777 -5.47021,-44.61744c1.00558,-18.77095 10.57193,-41.48168 9.923,-63.49364c-0.97021,-32.90996 -9.7673,-64.52957 -9.77381,-80.7933c-0.00852,-21.27719 5.22611,-48.09476 5.22611,-48.09476"/><path d="M241.45466,321.06567c0,0 5.25603,26.62769 5.26456,47.90489c0.00651,16.26372 -8.76512,48.20132 -9.70896,81.14592c-0.63129,22.03513 8.95311,44.39925 9.97371,63.13353c1.41472,25.96885 -5.43439,44.81482 -5.43439,44.81482" data-paper-data="{&quot;index&quot;:null}"/></g><g data-paper-data="{&quot;index&quot;:null}"><path d="M241.44385,294.06577c0,0 6.86411,18.59777 5.47021,44.61744c-1.00558,18.77094 -10.57193,41.48167 -9.923,63.49364c0.97021,32.90995 9.7673,64.52957 9.77381,80.7933c0.00852,21.27719 -5.22611,48.09476 -5.22611,48.09476"/><path d="M241.79876,295.05935c0,0 -5.25603,-26.62769 -5.26456,-47.90489c-0.00651,-16.26372 8.76512,-48.20132 9.70896,-81.14592c0.63129,-22.03513 -8.95311,-44.39925 -9.97371,-63.13353c-1.41472,-25.96885 5.43439,-44.81482 5.43439,-44.81482" data-paper-data="{&quot;index&quot;:null}"/></g></g><g stroke="none" stroke-width="0" stroke-linecap="butt"><path d="M235.45915,671.9321l-0.24714,-617.0715l4.61139,-0.08346l0.24714,617.0715z" data-paper-data="{&quot;index&quot;:null}" fill="url(#color-1)"/><path d="M243.19439,671.79209l-0.24714,-617.0715l4.61139,-0.08346l0.24714,617.0715z" fill="url(#color-2)"/></g><path d="M244.97945,671.75979l-0.24714,-617.0715l4.61139,-0.08346l0.24714,617.0715z" fill="url(#color-3)" stroke="none" stroke-width="0" stroke-linecap="butt"/><path d="M234.73316,66.35698c-0.01006,-25.12887 3.01206,-45.55468 6.75011,-45.62233c3.73805,-0.06765 6.77649,20.24846 6.78656,45.37733c0.01006,25.12887 -3.01206,45.55468 -6.75011,45.62233c-3.73805,0.06765 -6.77649,-20.24846 -6.78656,-45.37733z" fill="url(#color-4)" stroke="none" stroke-width="0" stroke-linecap="butt"/><path d="M232.05558,66.40545c-0.01405,-35.06995 4.20365,-63.57632 9.42048,-63.67073c5.21683,-0.09442 9.4573,28.25885 9.47135,63.32881c0.01405,35.06995 -4.20365,63.57632 -9.42048,63.67073c-5.21683,0.09442 -9.4573,-28.25885 -9.47135,-63.32881z" fill="url(#color-5)" stroke="none" stroke-width="0" stroke-linecap="butt"/><g stroke="none" stroke-width="0" stroke-linecap="butt"><path d="M236.00951,65.16722c-0.00556,-13.89533 1.66556,-25.19006 3.73256,-25.22747c2.067,-0.03741 3.74715,11.19666 3.75272,25.09199c0.00556,13.89533 -1.66556,25.19006 -3.73256,25.22747c-2.067,0.03741 -3.74715,-11.19666 -3.75272,-25.09199z" fill="url(#color-6)"/><path d="M239.30894,65.1075c-0.00556,-13.89533 1.66556,-25.19006 3.73256,-25.22747c2.067,-0.03741 3.74715,11.19666 3.75272,25.09199c0.00556,13.89533 -1.66556,25.19006 -3.73256,25.22747c-2.067,0.03741 -3.74715,-11.19666 -3.75272,-25.09199z" fill="url(#color-7)"/><path d="M237.6346,65.1378c-0.00556,-13.89533 1.66556,-25.19006 3.73256,-25.22747c2.067,-0.03741 3.74715,11.19666 3.75272,25.09199c0.00556,13.89533 -1.66556,25.19006 -3.73256,25.22747c-2.067,0.03741 -3.74715,-11.19666 -3.75272,-25.09199z" fill="url(#color-8)"/><path d="M239.6702,65.43201c-0.00278,-6.94767 0.83278,-12.59503 1.86628,-12.61373c1.0335,-0.0187 1.87358,5.59833 1.87636,12.54599c0.00278,6.94767 -0.83278,12.59503 -1.86628,12.61373c-1.0335,0.0187 -1.87358,-5.59833 -1.87636,-12.54599z" fill="url(#color-9)"/><path d="M238.88246,65.88767c-0.00278,-6.94767 0.83278,-12.59503 1.86628,-12.61373c1.0335,-0.0187 1.87358,5.59833 1.87636,12.54599c0.00278,6.94767 -0.83278,12.59503 -1.86628,12.61373c-1.0335,0.0187 -1.87358,-5.59833 -1.87636,-12.54599z" fill="url(#color-10)"/><path d="M238.58694,65.78267c-0.00193,-4.81462 0.5771,-8.72812 1.2933,-8.74109c0.7162,-0.01296 1.29836,3.87955 1.30028,8.69414c0.00193,4.81462 -0.5771,8.72812 -1.2933,8.74109c-0.7162,0.01296 -1.29835,-3.87954 -1.30028,-8.69415z" fill="url(#color-11)"/><path d="M241.77967,65.72488c-0.00226,-5.63736 0.67572,-10.21965 1.51431,-10.23483c0.83859,-0.01518 1.52023,4.54251 1.52248,10.17986c0.00226,5.63736 -0.67572,10.21965 -1.51431,10.23483c-0.83859,0.01518 -1.52023,-4.54251 -1.52248,-10.17986z" fill="url(#color-12)"/><path d="M241.8043,65.72443c-0.00193,-4.81462 0.5771,-8.72812 1.2933,-8.74109c0.7162,-0.01296 1.29835,3.87954 1.30028,8.69415c0.00193,4.81462 -0.5771,8.72812 -1.2933,8.74109c-0.7162,0.01296 -1.29836,-3.87955 -1.30028,-8.69414z" fill="url(#color-13)"/><path d="M243.18325,65.92018c-0.00139,-3.47384 0.41639,-6.29751 0.93314,-6.30686c0.51675,-0.00935 0.93679,2.79917 0.93818,6.27299c0.00139,3.47384 -0.41639,6.29751 -0.93314,6.30686c-0.51675,0.00935 -0.93679,-2.79917 -0.93818,-6.27299z" fill="url(#color-14)"/><path d="M240.3268,65.42013c-0.00278,-6.94767 0.83278,-12.59503 1.86628,-12.61373c1.0335,-0.0187 1.87358,5.59833 1.87636,12.54599c0.00278,6.94767 -0.83278,12.59503 -1.86628,12.61373c-1.0335,0.0187 -1.87358,-5.59833 -1.87636,-12.54599z" fill="url(#color-15)"/><path d="M238.01228,65.46202c-0.0022,-5.485 0.65746,-9.94344 1.47338,-9.95821c0.81592,-0.01476 1.47914,4.41973 1.48133,9.90473c0.0022,5.485 -0.65746,9.94344 -1.47338,9.95821c-0.81592,0.01476 -1.47914,-4.41973 -1.48133,-9.90473z" fill="url(#color-16)"/></g><path d="M233.52535,671.9671l-0.24714,-617.0715l4.61139,-0.08346l0.24714,617.0715z" data-paper-data="{&quot;index&quot;:null}" fill="url(#color-17)" stroke="none" stroke-width="0" stroke-linecap="butt"/><g stroke="none" stroke-linecap="butt"><path d="M237.05827,671.90316l-0.24801,-619.25198l2.82634,-0.05116l0.24801,619.25198z" data-paper-data="{&quot;index&quot;:null}" fill="url(#color-18)" stroke-width="NaN"/><path d="M239.77333,672.58083l-0.2483,-619.97878l3.57011,-0.06461l0.2483,619.97878z" fill="#ffffff" stroke-width="0"/><path d="M243.08283,671.79411l-0.24801,-619.25198l2.82634,-0.05116l0.24801,619.25198z" fill="url(#color-19)" stroke-width="NaN"/></g><g stroke="none" stroke-width="0" stroke-linecap="butt"><path d="M233.03061,55.7211c-0.00841,-20.98674 2.51557,-38.04567 5.63745,-38.10217c3.12189,-0.05651 5.65949,16.91081 5.66789,37.89755c0.00841,20.98674 -2.51557,38.04567 -5.63745,38.10217c-3.12189,0.05651 -5.65949,-16.91081 -5.66789,-37.89755z" fill="url(#color-20)"/><path d="M238.01389,55.63091c-0.00841,-20.98674 2.51557,-38.04567 5.63745,-38.10217c3.12189,-0.05651 5.65949,16.91081 5.66789,37.89755c0.00841,20.98674 -2.51557,38.04567 -5.63745,38.10217c-3.12189,0.05651 -5.65949,-16.91081 -5.66789,-37.89755z" fill="url(#color-21)"/><path d="M235.48506,55.67668c-0.00841,-20.98674 2.51557,-38.04567 5.63745,-38.10217c3.12189,-0.05651 5.65949,16.91081 5.66789,37.89755c0.00841,20.98674 -2.51557,38.04567 -5.63745,38.10217c-3.12189,0.05651 -5.65949,-16.91081 -5.66789,-37.89755z" fill="url(#color-22)"/><path d="M238.55952,56.12103c-0.0042,-10.49337 1.25778,-19.02284 2.81873,-19.05109c1.56094,-0.02825 2.82974,8.4554 2.83395,18.94878c0.0042,10.49337 -1.25778,19.02284 -2.81873,19.05109c-1.56094,0.02825 -2.82974,-8.4554 -2.83395,-18.94878z" fill="url(#color-23)"/><path d="M237.36975,56.80923c-0.0042,-10.49337 1.25778,-19.02284 2.81873,-19.05109c1.56094,-0.02825 2.82974,8.4554 2.83395,18.94878c0.0042,10.49337 -1.25778,19.02284 -2.81873,19.05109c-1.56094,0.02825 -2.82974,-8.4554 -2.83395,-18.94878z" fill="url(#color-24)"/><path d="M236.92342,56.65064c-0.00291,-7.27173 0.87162,-13.18248 1.95333,-13.20206c1.08171,-0.01958 1.96096,5.85945 1.96388,13.13116c0.00291,7.27173 -0.87162,13.18249 -1.95333,13.20207c-1.08171,0.01958 -1.96096,-5.85943 -1.96387,-13.13118z" fill="url(#color-25)"/><path d="M241.74555,56.56337c-0.00341,-8.51436 1.02057,-15.43519 2.28712,-15.45811c1.26655,-0.02293 2.29607,6.86075 2.29947,15.3751c0.00341,8.51436 -1.02057,15.4352 -2.28713,15.45812c-1.26655,0.02293 -2.29607,-6.86075 -2.29947,-15.37511z" fill="url(#color-26)"/><path d="M241.78274,56.56269c-0.00291,-7.27173 0.87162,-13.18248 1.95333,-13.20206c1.08171,-0.01958 1.96096,5.85945 1.96388,13.13116c0.00291,7.27173 -0.87162,13.18249 -1.95333,13.20207c-1.08171,0.01958 -1.96096,-5.85944 -1.96388,-13.13117z" fill="url(#color-27)"/><path d="M243.86544,56.85833c-0.0021,-5.24669 0.62889,-9.51141 1.40936,-9.52554c0.78047,-0.01413 1.41487,4.2277 1.41697,9.47439c0.0021,5.24669 -0.62889,9.51142 -1.40936,9.52554c-0.78047,0.01412 -1.41487,-4.2277 -1.41697,-9.47439z" fill="url(#color-28)"/><path d="M239.55122,56.10308c-0.0042,-10.49337 1.25778,-19.02284 2.81873,-19.05109c1.56094,-0.02825 2.82974,8.4554 2.83395,18.94878c0.0042,10.49337 -1.25778,19.02284 -2.81873,19.05109c-1.56094,0.02825 -2.82974,-8.4554 -2.83395,-18.94878z" fill="url(#color-29)"/><path d="M236.05549,56.16635c-0.00332,-8.28424 0.99299,-15.01803 2.22531,-15.04033c1.23232,-0.0223 2.23401,6.67532 2.23733,14.95956c0.00332,8.28424 -0.99299,15.01803 -2.22531,15.04033c-1.23232,0.0223 -2.23401,-6.67532 -2.23733,-14.95956z" fill="url(#color-30)"/></g></g></g></g></svg>