<svg version="1.1" xmlns="http://www.w3.org/2000/svg" xmlns:xlink="http://www.w3.org/1999/xlink" width="296.78796" height="296.78796" viewBox="0,0,296.78796,296.78796"><defs><radialGradient cx="236.5726" cy="180.30752" r="54.77975" gradientUnits="userSpaceOnUse" id="color-1"><stop offset="0" stop-color="#4b99ad" stop-opacity="0"/><stop offset="1" stop-color="#4b99ad"/></radialGradient><radialGradient cx="240" cy="180" r="42.75" gradientUnits="userSpaceOnUse" id="color-2"><stop offset="0" stop-color="#7ae0ff"/><stop offset="1" stop-color="#7ae0ff" stop-opacity="0"/></radialGradient><radialGradient cx="236.69745" cy="180.18236" r="54.77975" gradientUnits="userSpaceOnUse" id="color-3"><stop offset="0" stop-color="#7de6ff" stop-opacity="0"/><stop offset="1" stop-color="#7de6ff"/></radialGradient><radialGradient cx="227.875" cy="171.99531" r="4.75" gradientUnits="userSpaceOnUse" id="color-4"><stop offset="0" stop-color="#7ae0ff"/><stop offset="1" stop-color="#7ae0ff" stop-opacity="0"/></radialGradient><radialGradient cx="238.875" cy="174.99531" r="4.75" gradientUnits="userSpaceOnUse" id="color-5"><stop offset="0" stop-color="#7ae0ff"/><stop offset="1" stop-color="#7ae0ff" stop-opacity="0"/></radialGradient><radialGradient cx="246.375" cy="167.24531" r="4.75" gradientUnits="userSpaceOnUse" id="color-6"><stop offset="0" stop-color="#7ae0ff"/><stop offset="1" stop-color="#7ae0ff" stop-opacity="0"/></radialGradient><radialGradient cx="257.875" cy="170.74531" r="4.75" gradientUnits="userSpaceOnUse" id="color-7"><stop offset="0" stop-color="#7ae0ff"/><stop offset="1" stop-color="#7ae0ff" stop-opacity="0"/></radialGradient><radialGradient cx="259.625" cy="180.99531" r="4.75" gradientUnits="userSpaceOnUse" id="color-8"><stop offset="0" stop-color="#7ae0ff"/><stop offset="1" stop-color="#7ae0ff" stop-opacity="0"/></radialGradient><radialGradient cx="252.625" cy="188.74531" r="4.75" gradientUnits="userSpaceOnUse" id="color-9"><stop offset="0" stop-color="#7ae0ff"/><stop offset="1" stop-color="#7ae0ff" stop-opacity="0"/></radialGradient><radialGradient cx="241.375" cy="186.24531" r="4.75" gradientUnits="userSpaceOnUse" id="color-10"><stop offset="0" stop-color="#7ae0ff"/><stop offset="1" stop-color="#7ae0ff" stop-opacity="0"/></radialGradient><radialGradient cx="234.375" cy="193.49531" r="4.75" gradientUnits="userSpaceOnUse" id="color-11"><stop offset="0" stop-color="#7ae0ff"/><stop offset="1" stop-color="#7ae0ff" stop-opacity="0"/></radialGradient><radialGradient cx="222.375" cy="189.99531" r="4.75" gradientUnits="userSpaceOnUse" id="color-12"><stop offset="0" stop-color="#7ae0ff"/><stop offset="1" stop-color="#7ae0ff" stop-opacity="0"/></radialGradient><radialGradient cx="219.375" cy="178.99531" r="4.75" gradientUnits="userSpaceOnUse" id="color-13"><stop offset="0" stop-color="#7ae0ff"/><stop offset="1" stop-color="#7ae0ff" stop-opacity="0"/></radialGradient></defs><g transform="translate(-91.60602,-31.60602)"><g data-paper-data="{&quot;isPaintingLayer&quot;:true}" fill-rule="nonzero" stroke-linejoin="miter" stroke-miterlimit="10" stroke-dasharray="" stroke-dashoffset="0" style="mix-blend-mode: normal"><path d="M91.60602,328.39398v-296.78796h296.78796v296.78796z" fill="none" stroke="none" stroke-width="0" stroke-linecap="butt"/><path d="M207.20516,180.10746c-0.18408,-10.47689 4.54236,-19.94028 12.16251,-25.88289c6.34528,-4.9484 14.85033,-7.30225 22.77332,-7.19128c8.3622,0.11712 17.81779,5.40786 23.72487,12.94044c4.7662,6.07775 6.87328,13.70224 6.93349,20.57079c0.1239,14.134 -16.97979,32.42593 -32.3877,32.42593c-16.42015,0 -32.86907,-13.65906 -33.20648,-32.86299z" fill="url(#color-1)" stroke="none" stroke-width="0" stroke-linecap="butt"/><path d="M197.25,180c0,-23.61017 19.13983,-42.75 42.75,-42.75c23.61017,0 42.75,19.13983 42.75,42.75c0,23.61017 -19.13983,42.75 -42.75,42.75c-23.61017,0 -42.75,-19.13983 -42.75,-42.75zM240,212.0625c18.16167,0 32.88462,-14.72294 32.88462,-32.88462c0,-18.16167 -14.72294,-32.88462 -32.88462,-32.88462c-18.16167,0 -32.88462,14.72294 -32.88462,32.88462c0,18.16167 14.72294,32.88462 32.88462,32.88462z" fill="url(#color-2)" stroke="none" stroke-width="0" stroke-linecap="butt"/><path d="M207.33001,179.9823c-0.18408,-10.47689 4.54236,-19.94028 12.16251,-25.88289c6.34528,-4.9484 14.85033,-7.30225 22.77332,-7.19128c8.3622,0.11712 17.81779,5.40786 23.72487,12.94044c4.7662,6.07775 6.87328,13.70224 6.93349,20.57079c0.1239,14.134 -16.97979,32.42593 -32.3877,32.42593c-16.42015,0 -32.86907,-13.65906 -33.20648,-32.86299z" fill="url(#color-3)" stroke="none" stroke-width="0" stroke-linecap="butt"/><path d="M207.33334,180c0,-18.0413 14.62536,-32.66666 32.66666,-32.66666c18.0413,0 32.66667,14.62536 32.66667,32.66666c0,18.0413 -14.62537,32.66666 -32.66667,32.66666c-18.0413,0 -32.66666,-14.62536 -32.66666,-32.66666z" fill="none" stroke="#7de6ff" stroke-width="2.5" stroke-linecap="butt"/><g fill="none"><g><g stroke="#7de6ff" stroke-width="2.5" stroke-linecap="round"><g><path d="M227.28466,171.4441l-7.4791,7.4791l-11.8015,-2.78706c0,0 0.39974,-5.8864 1.90937,-9.60508c1.50963,-3.71867 5.2291,-7.9791 5.2291,-7.9791l9.32854,1.59632z"/></g><g data-paper-data="{&quot;index&quot;:null}"><path d="M232.14511,152.47426l-1.59632,-3.82855c0,0 5.46813,-1.47466 8.54802,-1.6012c3.62218,-0.14882 11.82321,2.01424 11.82321,2.01424l-7.47909,6.2291z"/><path d="M215.31839,158.26239c0,0 4.64267,-5.07942 7.44653,-6.82737c2.48746,-1.55071 7.79132,-3.13964 7.79132,-3.13964l1.53705,4.55149l-7.4791,7.47911z"/><path d="M227.6373,171.47775l-2.84632,-11.32855l7.4791,-7.4791l11.35508,2.59064l2.78706,11.5515l-7.4791,7.47909z"/></g></g><g><g stroke="none" stroke-width="1" stroke-linecap="butt" font-family="sans-serif" font-weight="normal" font-size="12" text-anchor="start"/><g data-paper-data="{&quot;index&quot;:null}" stroke="#7de6ff" stroke-width="2.5" stroke-linecap="round"><path d="M222.38704,190.23376l-2.84633,-11.32855l7.4791,-7.4791l11.35508,2.59063l2.78705,11.5515l-7.4791,7.4791z"/><path d="M207.96399,188.19335c-1.24284,-4.80722 0.2291,-11.7291 0.2291,-11.7291l11.35508,2.59064l2.78706,11.5515l-8.2291,8.7291c0,0 -4.89929,-6.33491 -6.14213,-11.14213z"/><path d="M213.7829,199.40871l8.7291,-8.9791l11.35509,2.59064l2.78705,11.5515l-7.72909,6.2291c0,0 -8.14363,-3.89363 -10.72495,-6.47495c-1.95863,-1.95863 -4.41719,-4.91718 -4.41719,-4.91718z"/></g></g></g><g stroke="#7de6ff" stroke-width="2.5" stroke-linecap="round"><g><g><path d="M260.28117,180.95191l-7.4791,7.4791l-11.5515,-2.78705l-2.59063,-11.35508l7.4791,-7.4791l11.32855,2.84633z"/><path d="M265.3193,162.12519l-7.4791,7.4791l-11.5515,-2.78705l-2.59064,-11.35509l7.4791,-6.4791l8.82855,4.59633z"/><path d="M272.53466,176.4441l-0.7291,7.4791l-11.5515,-2.78706l-2.59064,-11.35508l7.4791,-7.4791l4.82855,3.59632z"/></g><g data-paper-data="{&quot;index&quot;:null}"><path d=""/></g></g><g><g><path d="M248.52309,211.46141c0,0 -6.94731,1.66866 -9.92252,1.4877c-3.35322,-0.20396 -9.19871,-2.65075 -9.19871,-2.65075l6.97909,-5.7291l11.32856,2.84633z"/><path d="M255.56123,199.88469l-7.4791,7.4791l-11.55149,-2.78705l-2.59064,-11.35508l7.4791,-7.4791l11.32855,2.84633z"/><path d="M248.49599,210.89564l-0.59064,-3.35508l7.4791,-7.4791l9.07855,1.34632c0,0 -4.58508,4.4638 -7.61785,6.00232c-2.86313,1.45246 -8.34915,3.48553 -8.34915,3.48553z"/></g><g data-paper-data="{&quot;index&quot;:null}"><path d="M255.56032,200.27189l-2.84633,-11.32854l7.4791,-7.4791l11.35508,2.59064l-1.71294,8.5515l-4.9791,8.9791z"/></g></g></g></g><path d="M223.125,171.99531c0,-2.62336 2.12664,-4.75 4.75,-4.75c2.62336,0 4.75,2.12664 4.75,4.75c0,2.62336 -2.12664,4.75 -4.75,4.75c-2.62336,0 -4.75,-2.12664 -4.75,-4.75z" fill="url(#color-4)" stroke="none" stroke-width="0" stroke-linecap="butt"/><path d="M234.125,174.99531c0,-2.62336 2.12664,-4.75 4.75,-4.75c2.62336,0 4.75,2.12664 4.75,4.75c0,2.62336 -2.12664,4.75 -4.75,4.75c-2.62336,0 -4.75,-2.12664 -4.75,-4.75z" fill="url(#color-5)" stroke="none" stroke-width="0" stroke-linecap="butt"/><path d="M241.625,167.24531c0,-2.62336 2.12664,-4.75 4.75,-4.75c2.62336,0 4.75,2.12664 4.75,4.75c0,2.62336 -2.12664,4.75 -4.75,4.75c-2.62336,0 -4.75,-2.12664 -4.75,-4.75z" fill="url(#color-6)" stroke="none" stroke-width="0" stroke-linecap="butt"/><path d="M253.125,170.74531c0,-2.62336 2.12664,-4.75 4.75,-4.75c2.62336,0 4.75,2.12664 4.75,4.75c0,2.62336 -2.12664,4.75 -4.75,4.75c-2.62336,0 -4.75,-2.12664 -4.75,-4.75z" fill="url(#color-7)" stroke="none" stroke-width="0" stroke-linecap="butt"/><path d="M254.875,180.99531c0,-2.62336 2.12664,-4.75 4.75,-4.75c2.62336,0 4.75,2.12664 4.75,4.75c0,2.62336 -2.12664,4.75 -4.75,4.75c-2.62336,0 -4.75,-2.12664 -4.75,-4.75z" fill="url(#color-8)" stroke="none" stroke-width="0" stroke-linecap="butt"/><path d="M247.875,188.74531c0,-2.62336 2.12664,-4.75 4.75,-4.75c2.62336,0 4.75,2.12664 4.75,4.75c0,2.62336 -2.12664,4.75 -4.75,4.75c-2.62336,0 -4.75,-2.12664 -4.75,-4.75z" fill="url(#color-9)" stroke="none" stroke-width="0" stroke-linecap="butt"/><path d="M236.625,186.24531c0,-2.62336 2.12664,-4.75 4.75,-4.75c2.62336,0 4.75,2.12664 4.75,4.75c0,2.62336 -2.12664,4.75 -4.75,4.75c-2.62336,0 -4.75,-2.12664 -4.75,-4.75z" fill="url(#color-10)" stroke="none" stroke-width="0" stroke-linecap="butt"/><path d="M229.625,193.49531c0,-2.62336 2.12664,-4.75 4.75,-4.75c2.62336,0 4.75,2.12664 4.75,4.75c0,2.62336 -2.12664,4.75 -4.75,4.75c-2.62336,0 -4.75,-2.12664 -4.75,-4.75z" fill="url(#color-11)" stroke="none" stroke-width="0" stroke-linecap="butt"/><path d="M217.625,189.99531c0,-2.62336 2.12664,-4.75 4.75,-4.75c2.62336,0 4.75,2.12664 4.75,4.75c0,2.62336 -2.12664,4.75 -4.75,4.75c-2.62336,0 -4.75,-2.12664 -4.75,-4.75z" fill="url(#color-12)" stroke="none" stroke-width="0" stroke-linecap="butt"/><path d="M214.625,178.99531c0,-2.62336 2.12664,-4.75 4.75,-4.75c2.62336,0 4.75,2.12664 4.75,4.75c0,2.62336 -2.12664,4.75 -4.75,4.75c-2.62336,0 -4.75,-2.12664 -4.75,-4.75z" fill="url(#color-13)" stroke="none" stroke-width="0" stroke-linecap="butt"/></g></g></svg>