<svg version="1.1" xmlns="http://www.w3.org/2000/svg" xmlns:xlink="http://www.w3.org/1999/xlink" width="406.31869" height="289.24627" viewBox="0,0,406.31869,289.24627"><defs><radialGradient cx="213.08326" cy="179.4328" r="30.125" gradientUnits="userSpaceOnUse" id="color-1"><stop offset="0" stop-color="#ff8e48"/><stop offset="1" stop-color="#ff8e48" stop-opacity="0"/></radialGradient><radialGradient cx="212.75007" cy="179.42312" r="30.125" gradientUnits="userSpaceOnUse" id="color-2"><stop offset="0" stop-color="#ff6300"/><stop offset="1" stop-color="#ff6300" stop-opacity="0"/></radialGradient><linearGradient x1="245.40005" y1="180.02925" x2="215.72737" y2="180.16123" gradientUnits="userSpaceOnUse" id="color-3"><stop offset="0" stop-color="#ff6200"/><stop offset="1" stop-color="#ff6200" stop-opacity="0"/></linearGradient><linearGradient x1="243.22513" y1="180.02024" x2="225.37853" y2="180.09967" gradientUnits="userSpaceOnUse" id="color-4"><stop offset="0" stop-color="#ff8b5c"/><stop offset="1" stop-color="#ff8b5c" stop-opacity="0"/></linearGradient><radialGradient cx="240" cy="180.00001" r="9.08333" gradientUnits="userSpaceOnUse" id="color-5"><stop offset="0" stop-color="#ff6200"/><stop offset="1" stop-color="#ff6200" stop-opacity="0"/></radialGradient><radialGradient cx="240" cy="180.00001" r="9.08333" gradientUnits="userSpaceOnUse" id="color-6"><stop offset="0" stop-color="#000000" stop-opacity="0"/><stop offset="1" stop-color="#000000" stop-opacity="0"/></radialGradient></defs><g transform="translate(-36.84065,-35.37686)"><g data-paper-data="{&quot;isPaintingLayer&quot;:true}" fill-rule="nonzero" stroke-linejoin="miter" stroke-miterlimit="10" stroke-dasharray="" stroke-dashoffset="0" style="mix-blend-mode: normal"><path d="M182.92221,180.23447c0,0 0.91527,0.1283 5.05961,0.2179c1.05558,0.02282 3.85406,-1.22851 5.1053,-1.17765c1.48142,0.0602 2.77747,1.70356 4.48987,1.7405c1.62174,0.03498 4.16365,-1.50196 5.9065,-1.45937c1.48899,0.03638 3.23567,1.4016 4.76635,1.41171c1.94155,0.01282 3.69477,-1.84204 5.64851,-1.81703c1.62149,0.02076 3.97433,1.92236 5.5465,1.92567c2.12025,0.00446 3.19892,-2.93901 5.14533,-2.90219c2.59351,0.04906 3.8579,3.7743 6.03295,3.76785c5.35695,-0.01589 4.99514,-3.87783 7.03549,-3.82777c2.46292,0.06041 5.48039,4.13812 5.48039,4.13812" fill="none" stroke="url(#color-1)" stroke-width="3.5" stroke-linecap="round"/><path d="M182.58903,180.22477c0,0 0.91527,0.1283 5.05961,0.2179c1.05558,0.02282 3.85406,-1.22851 5.10529,-1.17766c1.48143,0.06021 2.77748,1.70357 4.48987,1.74051c1.62174,0.03498 4.16366,-1.50196 5.9065,-1.45937c1.48899,0.03638 3.23566,1.4016 4.76635,1.41171c1.94155,0.01282 3.69477,-1.84204 5.6485,-1.81703c1.62149,0.02076 3.97433,1.92236 5.54651,1.92567c2.12025,0.00446 3.19893,-2.93901 5.14533,-2.90219c2.59351,0.04906 3.8579,3.7743 6.03295,3.76785c5.35695,-0.0159 4.99513,-3.87782 7.03548,-3.82777c2.46291,0.06041 5.48039,4.13812 5.48039,4.13812" fill="none" stroke="url(#color-2)" stroke-width="1" stroke-linecap="round"/><path d="M239.1036,184.3326c-1.23308,0.01028 -5.32679,0.25442 -9.04801,-0.1236c-3.35359,-0.34064 -7.77376,-0.53111 -10.4847,-1.22275c-2.80095,-0.7146 -3.83813,-1.93744 -3.84312,-2.71527c-0.00487,-0.75941 1.02209,-2.14554 3.63242,-2.89745c2.78303,-0.80167 7.26425,-0.95776 10.82287,-1.37683c3.50326,-0.41256 7.6891,-0.22267 8.8656,-0.23246c3.49253,-0.02914 6.33607,1.86533 6.35126,4.23143c0.01519,2.36611 -2.80377,4.30781 -6.29628,4.33695z" fill="url(#color-3)" stroke="none" stroke-width="0" stroke-linecap="butt"/><path d="M239.43815,182.60848c-0.74165,0.00618 -3.20378,0.15301 -5.44192,-0.07432c-2.01701,-0.20488 -4.67552,-0.31944 -6.30603,-0.73542c-1.68463,-0.4298 -2.30845,-1.16528 -2.31144,-1.63309c-0.00293,-0.45676 0.61473,-1.29044 2.18472,-1.74268c1.67386,-0.48217 4.36908,-0.57603 6.5094,-0.82807c2.10704,-0.24814 4.62459,-0.13391 5.33221,-0.13983c2.10058,-0.01753 3.81083,1.12192 3.81996,2.545c0.00913,1.42308 -1.68632,2.59093 -3.78689,2.60846z" fill="url(#color-4)" stroke="none" stroke-width="0" stroke-linecap="butt"/><path d="M249.08333,180.00001c0,5.15466 -4.06675,9.33333 -9.08333,9.33333c-5.01659,0 -9.08333,-4.17868 -9.08333,-9.33333c0,-5.15466 4.06675,-9.33333 9.08333,-9.33333c5.01659,0 9.08333,4.17868 9.08333,9.33333z" fill="url(#color-5)" stroke="url(#color-6)" stroke-width="0" stroke-linecap="butt"/><path d="M107.5,274.32284v-188.64567h265v188.64567z" fill="none" stroke="none" stroke-width="0" stroke-linecap="butt"/><path d="M36.84066,324.62314v-289.24627h406.31869v289.24627z" fill="none" stroke="none" stroke-width="0" stroke-linecap="butt"/></g></g></svg>