<svg version="1.1" xmlns="http://www.w3.org/2000/svg" xmlns:xlink="http://www.w3.org/1999/xlink" width="54.79382" height="73.54118" viewBox="0,0,54.79382,73.54118"><defs><radialGradient cx="241.01803" cy="205.62799" r="12.35459" gradientUnits="userSpaceOnUse" id="color-1"><stop offset="0" stop-color="#fcec00"/><stop offset="1" stop-color="#fcec00" stop-opacity="0"/></radialGradient><linearGradient x1="240.75542" y1="204.32197" x2="240.75542" y2="221.1856" gradientUnits="userSpaceOnUse" id="color-2"><stop offset="0" stop-color="#ffffff"/><stop offset="1" stop-color="#ffffff" stop-opacity="0"/></linearGradient><radialGradient cx="240.52546" cy="208.21142" r="8.89813" gradientUnits="userSpaceOnUse" id="color-3"><stop offset="0" stop-color="#f5eb75"/><stop offset="1" stop-color="#f5eb75" stop-opacity="0"/></radialGradient><linearGradient x1="241.34593" y1="125.00033" x2="241.34593" y2="219.02638" gradientUnits="userSpaceOnUse" id="color-4"><stop offset="0" stop-color="#a300f2"/><stop offset="1" stop-color="#a300f2" stop-opacity="0"/></linearGradient><linearGradient x1="241.58365" y1="96.98157" x2="241.58365" y2="225.00218" gradientUnits="userSpaceOnUse" id="color-5"><stop offset="0" stop-color="#f1f1f1"/><stop offset="1" stop-color="#f1f1f1" stop-opacity="0"/></linearGradient><linearGradient x1="240.57535" y1="204.61822" x2="240.57535" y2="212.52598" gradientUnits="userSpaceOnUse" id="color-6"><stop offset="0" stop-color="#ff4f00"/><stop offset="1" stop-color="#ff4f00" stop-opacity="0"/></linearGradient><linearGradient x1="240.64333" y1="204.86496" x2="240.64333" y2="210.21079" gradientUnits="userSpaceOnUse" id="color-7"><stop offset="0" stop-color="#ffd400"/><stop offset="1" stop-color="#ffd400" stop-opacity="0"/></linearGradient><linearGradient x1="240.64564" y1="204.5069" x2="240.64564" y2="213.38922" gradientUnits="userSpaceOnUse" id="color-8"><stop offset="0" stop-color="#ffee00"/><stop offset="1" stop-color="#ffee00" stop-opacity="0"/></linearGradient><linearGradient x1="240.71816" y1="204.43395" x2="240.71816" y2="208.32133" gradientUnits="userSpaceOnUse" id="color-9"><stop offset="0" stop-color="#ffee00"/><stop offset="1" stop-color="#ffee00" stop-opacity="0"/></linearGradient><linearGradient x1="238.67538" y1="204.5069" x2="238.67538" y2="208.39428" gradientUnits="userSpaceOnUse" id="color-10"><stop offset="0" stop-color="#ffee00"/><stop offset="1" stop-color="#ffee00" stop-opacity="0"/></linearGradient><linearGradient x1="242.7609" y1="204.5069" x2="242.7609" y2="208.39428" gradientUnits="userSpaceOnUse" id="color-11"><stop offset="0" stop-color="#ffee00"/><stop offset="1" stop-color="#ffee00" stop-opacity="0"/></linearGradient><radialGradient cx="240.68603" cy="208.4453" r="6.32236" gradientUnits="userSpaceOnUse" id="color-12"><stop offset="0" stop-color="#feea00"/><stop offset="1" stop-color="#feea00" stop-opacity="0"/></radialGradient><radialGradient cx="240.52119" cy="207.64308" r="6.32236" gradientUnits="userSpaceOnUse" id="color-13"><stop offset="0" stop-color="#feea00"/><stop offset="1" stop-color="#feea00" stop-opacity="0"/></radialGradient><linearGradient x1="245.0092" y1="206.17627" x2="236.62909" y2="206.17627" gradientUnits="userSpaceOnUse" id="color-14"><stop offset="0" stop-color="#5f5f5f"/><stop offset="1" stop-color="#4c4c4c"/></linearGradient><linearGradient x1="245.0092" y1="206.17627" x2="236.62909" y2="206.17627" gradientUnits="userSpaceOnUse" id="color-15"><stop offset="0" stop-color="#949494"/><stop offset="1" stop-color="#757575"/></linearGradient><linearGradient x1="244.75078" y1="204.37463" x2="242.03194" y2="204.37463" gradientUnits="userSpaceOnUse" id="color-16"><stop offset="0" stop-color="#4c4c4c"/><stop offset="1" stop-color="#4c4c4c" stop-opacity="0"/></linearGradient><linearGradient x1="236.88812" y1="204.37462" x2="239.60697" y2="204.37462" gradientUnits="userSpaceOnUse" id="color-17"><stop offset="0" stop-color="#5f5f5f"/><stop offset="1" stop-color="#5f5f5f" stop-opacity="0"/></linearGradient><linearGradient x1="245.33244" y1="163.38446" x2="237.48994" y2="163.38446" gradientUnits="userSpaceOnUse" id="color-18"><stop offset="0" stop-color="#d40000"/><stop offset="1" stop-color="#a30000"/></linearGradient><linearGradient x1="243.21487" y1="168.02612" x2="237.85536" y2="168.02612" gradientUnits="userSpaceOnUse" id="color-19"><stop offset="0" stop-color="#5f5f5f"/><stop offset="1" stop-color="#a8a8a8"/></linearGradient><linearGradient x1="240.49415" y1="161.70348" x2="240.49415" y2="162.63897" gradientUnits="userSpaceOnUse" id="color-20"><stop offset="0" stop-color="#7a7a7a"/><stop offset="1" stop-color="#646464"/></linearGradient><linearGradient x1="241.41195" y1="165.33023" x2="241.22642" y2="165.33023" gradientUnits="userSpaceOnUse" id="color-21"><stop offset="0" stop-color="#00eeec"/><stop offset="1" stop-color="#1cfff4"/></linearGradient><linearGradient x1="250.42959" y1="180.92511" x2="246.92529" y2="180.92511" gradientUnits="userSpaceOnUse" id="color-22"><stop offset="0" stop-color="#dedede"/><stop offset="1" stop-color="#dedede" stop-opacity="0"/></linearGradient><linearGradient x1="245.20596" y1="204.12797" x2="236.43586" y2="204.12797" gradientUnits="userSpaceOnUse" id="color-23"><stop offset="0" stop-color="#888888"/><stop offset="1" stop-color="#696969"/></linearGradient><linearGradient x1="230.7437" y1="185.70288" x2="228.06396" y2="185.70288" gradientUnits="userSpaceOnUse" id="color-24"><stop offset="0" stop-color="#dd0000"/><stop offset="1" stop-color="#dd0000" stop-opacity="0"/></linearGradient><linearGradient x1="230.77683" y1="196.2095" x2="227.99402" y2="196.2095" gradientUnits="userSpaceOnUse" id="color-25"><stop offset="0" stop-color="#dfdfdf"/><stop offset="1" stop-color="#dfdfdf" stop-opacity="0"/></linearGradient><linearGradient x1="240.85769" y1="206.57576" x2="240.85769" y2="212.84849" gradientUnits="userSpaceOnUse" id="color-26"><stop offset="0" stop-color="#fde704"/><stop offset="1" stop-color="#fde704" stop-opacity="0"/></linearGradient><linearGradient x1="239.34605" y1="178.09019" x2="241.85496" y2="178.09019" gradientUnits="userSpaceOnUse" id="color-27"><stop offset="0" stop-color="#c7ffff"/><stop offset="1" stop-color="#91f5f5"/></linearGradient><linearGradient x1="238.74306" y1="192.79167" x2="242.36806" y2="192.79167" gradientUnits="userSpaceOnUse" id="color-28"><stop offset="0" stop-color="#bf0000"/><stop offset="1" stop-color="#bf0000"/></linearGradient><linearGradient x1="238.74306" y1="198.47917" x2="242.36806" y2="198.47917" gradientUnits="userSpaceOnUse" id="color-29"><stop offset="0" stop-color="#bf0000"/><stop offset="1" stop-color="#bf0000"/></linearGradient></defs><g transform="translate(-212.37288,-152.85956)"><g data-paper-data="{&quot;isPaintingLayer&quot;:true}" fill-rule="nonzero" stroke-linejoin="miter" stroke-miterlimit="10" stroke-dasharray="" stroke-dashoffset="0" style="mix-blend-mode: normal"><path d="M236.3125,155.66667v-2.5h3.125v2.5z" fill="#cecece" stroke="none" stroke-width="0" stroke-linecap="butt"/><path d="M253.20788,205.62799c0,6.82325 -5.45758,12.35459 -12.18986,12.35459c-6.73227,0 -12.18987,-5.53134 -12.18987,-12.35459c0,-6.82325 5.45759,-12.35459 12.18987,-12.35459c6.73227,0 12.18986,5.53134 12.18986,12.35459z" fill="url(#color-1)" stroke="none" stroke-width="0" stroke-linecap="butt"/><g data-paper-data="{&quot;index&quot;:null}" stroke-width="0"><path d="M243.25542,204.32197l-2.5,16.86364l-2.5,-16.86364z" fill="url(#color-2)" stroke="#000000" stroke-linecap="round"/><path d="M240.52548,200.33696c4.31079,0 7.80538,3.52552 7.80538,7.87446c0,4.34894 -3.49458,7.87446 -7.80538,7.87446c-4.3108,0 -7.80538,-3.52552 -7.80538,-7.87446c0,-4.34894 3.49458,-7.87446 7.80538,-7.87446z" fill="url(#color-3)" stroke="none" stroke-linecap="butt"/><g stroke="#000000" stroke-linecap="round"><path d="M242.90811,205.12111l-2.35162,14.93246l-1.99752,-14.93246z" fill="url(#color-4)"/><path d="M243.71063,206.06953l-3.20183,20.33121l-2.71971,-20.33121z" fill="url(#color-5)"/><path d="M241.74691,204.61822c0,0 1.85822,0.46537 1.8305,2.41626c-0.06512,4.58168 -2.70914,5.49149 -2.70914,5.49149c0,0 -3.13397,-1.02334 -3.2949,-5.49149c-0.06733,-1.86924 1.90371,-2.41626 1.90371,-2.41626z" fill="url(#color-6)"/><path d="M241.43531,204.86496c0,0 1.2562,0.3146 1.23746,1.63345c-0.04402,3.09733 -1.83145,3.71239 -1.83145,3.71239c0,0 -2.11864,-0.69182 -2.22743,-3.71239c-0.04551,-1.26365 1.28696,-1.63345 1.28696,-1.63345z" fill="url(#color-7)"/><path d="M241.96154,204.5069c0,0 2.08723,0.52272 2.05609,2.71404c-0.07315,5.14633 -3.04302,6.16828 -3.04302,6.16828c0,0 -3.52021,-1.14947 -3.70096,-6.16828c-0.07562,-2.0996 2.13833,-2.71404 2.13833,-2.71404z" fill="url(#color-8)"/><path d="M241.29409,204.43395c0,0 0.91349,0.22877 0.89985,1.18781c-0.03201,2.25231 -1.33179,2.69957 -1.33179,2.69957c0,0 -1.54063,-0.50307 -1.61974,-2.69957c-0.03309,-0.9189 0.93585,-1.18781 0.93585,-1.18781z" fill="url(#color-9)"/><path d="M239.2513,204.5069c0,0 0.91349,0.22877 0.89986,1.18781c-0.03201,2.25231 -1.33179,2.69957 -1.33179,2.69957c0,0 -1.54064,-0.50307 -1.61975,-2.69957c-0.0331,-0.91889 0.93585,-1.18781 0.93585,-1.18781z" fill="url(#color-10)"/><path d="M243.33682,204.5069c0,0 0.91349,0.22877 0.89986,1.18781c-0.03201,2.25231 -1.33179,2.69957 -1.33179,2.69957c0,0 -1.54064,-0.50307 -1.61975,-2.69957c-0.0331,-0.91889 0.93585,-1.18781 0.93585,-1.18781z" fill="url(#color-11)"/></g><path d="M240.68603,202.85029c3.06294,0 5.54593,2.50497 5.54593,5.59501c0,3.09004 -2.483,5.59501 -5.54593,5.59501c-3.06294,0 -5.54593,-2.50497 -5.54593,-5.59501c0,-3.09004 2.483,-5.59501 5.54593,-5.59501z" fill="url(#color-12)" stroke="none" stroke-linecap="butt"/><path d="M240.5212,202.04807c3.06294,0 5.54593,2.50497 5.54593,5.59501c0,3.09004 -2.48299,5.59501 -5.54593,5.59501c-3.06294,0 -5.54593,-2.50497 -5.54593,-5.59501c0,-3.09003 2.48299,-5.59501 5.54593,-5.59501z" fill="url(#color-13)" stroke="none" stroke-linecap="butt"/></g><path d="M228.53954,181.29166l1,18.16666l-14.66666,-7.66666v-10.66666z" data-paper-data="{&quot;index&quot;:null}" fill="none" stroke="#bf0000" stroke-width="5" stroke-linecap="round"/><g data-paper-data="{&quot;index&quot;:null}" fill="#cecece"><path d="M236.37037,156.5283v-3.54546l2.90909,3.54546z" stroke="none" stroke-width="0" stroke-linecap="butt"/><path d="M242.2878,199.72877l-10.10296,-0.0566l-2.5722,-0.71141l-0.18805,-37.7619l5.71689,-5.42857v15.95287c0,0 0.69143,1.79051 2.55923,1.79051c1.90103,0 2.59992,-1.92095 2.59992,-1.92095v-15.66277l5.57746,5.42857l0.15778,37.58147z" stroke="#cecece" stroke-width="2.5" stroke-linecap="round"/></g><path d="M240.81917,205.33536c2.3141,0 4.19005,0.37649 4.19005,0.84091c0,0.46442 -1.87595,0.84091 -4.19005,0.84091c-2.3141,0 -4.19005,-0.37649 -4.19005,-0.84091c0,-0.46442 1.87595,-0.84091 4.19005,-0.84091z" data-paper-data="{&quot;index&quot;:null}" fill="url(#color-14)" stroke="url(#color-15)" stroke-width="0.5" stroke-linecap="butt"/><path d="M244.75082,206.23669c0,0 -0.77072,0.27881 -1.20357,0.35477c-0.47935,0.08412 -1.54727,0.12799 -1.54727,0.12799l0.03198,-4.2069h2.71885v3.72414z" data-paper-data="{&quot;index&quot;:null}" fill="url(#color-16)" stroke="none" stroke-width="0" stroke-linecap="butt"/><path d="M236.88811,206.23669v-3.72414h2.71886l0.03198,4.2069c0,0 -1.06793,-0.04386 -1.54727,-0.12799c-0.43285,-0.07597 -1.20357,-0.35477 -1.20357,-0.35477z" data-paper-data="{&quot;index&quot;:null}" fill="url(#color-17)" stroke="none" stroke-width="0" stroke-linecap="butt"/><path d="M245.33244,173.47537l-7.84251,-1.36364l1.26492,-16.90909c0,0 0.37699,0.18974 0.75895,0.09091c0.38195,-0.09882 0.73184,-0.18471 1.34924,-0.63636c0.61741,-0.45165 1.43358,-1.36364 1.43358,-1.36364z" data-paper-data="{&quot;index&quot;:null}" fill="url(#color-18)" stroke="#ff0000" stroke-width="0" stroke-linecap="round"/><path d="M237.85536,173.92511v-11.79798h5.35951v11.79798z" data-paper-data="{&quot;index&quot;:null}" fill="url(#color-19)" stroke="none" stroke-width="0" stroke-linecap="butt"/><path d="M240.49414,161.70348c1.10348,0 1.99803,0.20942 1.99803,0.46775c0,0.25833 -0.89455,0.46774 -1.99803,0.46774c-1.10347,0 -1.99802,-0.20941 -1.99802,-0.46774c0,-0.25833 0.89454,-0.46775 1.99802,-0.46775z" data-paper-data="{&quot;index&quot;:null}" fill="url(#color-20)" stroke="#7e7e7e" stroke-width="0.5" stroke-linecap="butt"/><path d="M264.34053,194.86918v-1.9375h0.98558v1.9375z" data-paper-data="{&quot;index&quot;:null}" fill="#d80000" stroke="none" stroke-width="0" stroke-linecap="butt"/><path d="M264.80431,194.80668l-15.65338,8.375h-8.40644" data-paper-data="{&quot;index&quot;:null}" fill="none" stroke="#d80000" stroke-width="1" stroke-linecap="round"/><path d="M264.74634,193.93168l-15.65338,8.375h-8.40644" data-paper-data="{&quot;index&quot;:null}" fill="none" stroke="#d80000" stroke-width="1" stroke-linecap="round"/><path d="M264.92022,192.99418l-15.65338,8.375h-8.40644" data-paper-data="{&quot;index&quot;:null}" fill="none" stroke="#d80000" stroke-width="1" stroke-linecap="round"/><path d="M264.85506,192.39502l-16.04549,8.625l-8.26982,0.03917l-0.04294,-21.91417l23.97093,-0.125z" data-paper-data="{&quot;index&quot;:null}" fill="#ff0000" stroke="#b6b6b6" stroke-width="0" stroke-linecap="round"/><path d="M264.536,192.69156l-0.01189,-13.58974" data-paper-data="{&quot;index&quot;:null}" fill="none" stroke="#df0000" stroke-width="0.5" stroke-linecap="round"/><path d="M263.35269,180.03987l0.07135,12.23077" data-paper-data="{&quot;index&quot;:null}" fill="none" stroke="#f00000" stroke-width="2" stroke-linecap="round"/><path d="M262.44802,180.40341v-1.35714h1.78896v1.35714z" data-paper-data="{&quot;index&quot;:null}" fill="#f00000" stroke="none" stroke-width="0" stroke-linecap="butt"/><path d="M241.70936,199.76056v-19.28572" data-paper-data="{&quot;index&quot;:null}" fill="none" stroke="#f00000" stroke-width="2.5" stroke-linecap="round"/><path d="M240.51676,183.90341v-4.71428h2.31902v4.71428z" data-paper-data="{&quot;index&quot;:null}" fill="#f00000" stroke="none" stroke-width="0" stroke-linecap="butt"/><path d="M240.51676,200.97484v-6h2.31902v6z" data-paper-data="{&quot;index&quot;:null}" fill="#f00000" stroke="none" stroke-width="0" stroke-linecap="butt"/><path d="M252.77439,182.97484v9.5c0,0 -0.19363,2.19082 -2.44932,2.17661c-2.22817,-0.01403 -2.45374,-2.10518 -2.45374,-2.10518l-0.06626,-9.57143z" data-paper-data="{&quot;index&quot;:null}" fill="#f70000" stroke="#fa0000" stroke-width="1" stroke-linecap="round"/><path d="M251.00615,192.05668v-7.1875" data-paper-data="{&quot;index&quot;:null}" fill="none" stroke="#f50000" stroke-width="1" stroke-linecap="round"/><path d="M249.20888,183.93168l0.11595,8.6875" data-paper-data="{&quot;index&quot;:null}" fill="none" stroke="#f50000" stroke-width="1" stroke-linecap="round"/><path d="M248.80306,182.93168l2.89877,0.0625" data-paper-data="{&quot;index&quot;:null}" fill="none" stroke="#f50000" stroke-width="1" stroke-linecap="round"/><path d="M259.81841,189.24418v-7.9375" data-paper-data="{&quot;index&quot;:null}" fill="none" stroke="#fa0000" stroke-width="1" stroke-linecap="round"/><path d="M254.25275,194.11918v-11.875" data-paper-data="{&quot;index&quot;:null}" fill="none" stroke="#fa0000" stroke-width="1" stroke-linecap="round"/><path d="M246.36813,184.43168l0.05798,11.1875" data-paper-data="{&quot;index&quot;:null}" fill="none" stroke="#fa0000" stroke-width="1" stroke-linecap="round"/><path d="M256.62976,189.36918l0.11595,5.125" data-paper-data="{&quot;index&quot;:null}" fill="none" stroke="#fa0000" stroke-width="1" stroke-linecap="round"/><path d="M244.10705,192.55668l0.05798,-11" data-paper-data="{&quot;index&quot;:null}" fill="none" stroke="#fa0000" stroke-width="1" stroke-linecap="round"/><path d="M240.22272,203.11919v-2.0625h0.57975v2.0625z" data-paper-data="{&quot;index&quot;:null}" fill="#d80000" stroke="none" stroke-width="0" stroke-linecap="butt"/><g data-paper-data="{&quot;index&quot;:null}"><path d="M215.75292,194.86918v-1.9375h0.98558v1.9375z" fill="#d80000" stroke="none" stroke-width="0" stroke-linecap="butt"/><path d="M240.33458,203.18168h-8.40644l-15.65338,-8.375" fill="none" stroke="#d80000" stroke-width="1" stroke-linecap="round"/><path d="M240.39251,202.30668h-8.40644l-15.65338,-8.375" fill="none" stroke="#d80000" stroke-width="1" stroke-linecap="round"/><path d="M240.21855,201.36918h-8.40644l-15.65338,-8.375" fill="none" stroke="#d80000" stroke-width="1" stroke-linecap="round"/><path d="M216.11923,179.02002l24.46298,0.125l-0.04382,21.91417l-8.43957,-0.03917l-16.37485,-8.625z" fill="#ff0000" stroke="#b6b6b6" stroke-width="0" stroke-linecap="round"/><path d="M214.91229,192.02002v-13.125" fill="none" stroke="#b6b6b6" stroke-width="3" stroke-linecap="round"/><path d="M216.55494,179.10182l-0.01189,13.58974" fill="none" stroke="#df0000" stroke-width="0.5" stroke-linecap="round"/><path d="M215.37163,192.03987v-13" fill="none" stroke="#c2c2c2" stroke-width="2" stroke-linecap="round"/><path d="M217.65497,192.27064l0.07135,-12.23077" fill="none" stroke="#f00000" stroke-width="2" stroke-linecap="round"/><path d="M216.84208,180.40341v-1.35714h1.78896v1.35714z" fill="#f00000" stroke="none" stroke-width="0" stroke-linecap="butt"/><path d="M239.3696,180.47484v19.28572" fill="none" stroke="#f00000" stroke-width="2.5" stroke-linecap="round"/><path d="M238.24326,183.90341v-4.71428h2.31902v4.71428z" fill="#f00000" stroke="none" stroke-width="0" stroke-linecap="butt"/><path d="M238.24326,200.97484v-6h2.31902v6z" fill="#f00000" stroke="none" stroke-width="0" stroke-linecap="butt"/><path d="M233.27394,182.97484l-0.06626,9.57143c0,0 -0.22556,2.09115 -2.45374,2.10518c-2.25568,0.01421 -2.44932,-2.17661 -2.44932,-2.17661v-9.5z" fill="#f70000" stroke="#fa0000" stroke-width="1" stroke-linecap="round"/><path d="M230.07286,184.86918v7.1875" fill="none" stroke="#f50000" stroke-width="1" stroke-linecap="round"/><path d="M231.75414,192.61918l0.11595,-8.6875" fill="none" stroke="#f50000" stroke-width="1" stroke-linecap="round"/><path d="M229.37713,182.99418l2.89877,-0.0625" fill="none" stroke="#f50000" stroke-width="1" stroke-linecap="round"/><path d="M221.26061,189.24418v-7.9375" fill="none" stroke="#fa0000" stroke-width="1" stroke-linecap="round"/><path d="M226.82622,182.24418v11.875" fill="none" stroke="#fa0000" stroke-width="1" stroke-linecap="round"/><path d="M234.71088,184.43168l-0.05798,11.1875" fill="none" stroke="#fa0000" stroke-width="1" stroke-linecap="round"/><path d="M224.33332,194.49418l0.11595,-5.125" fill="none" stroke="#fa0000" stroke-width="1" stroke-linecap="round"/><path d="M236.91392,181.55668l0.05798,11" fill="none" stroke="#fa0000" stroke-width="1" stroke-linecap="round"/><path d="M240.27654,203.11919v-2.0625h0.57975v2.0625z" fill="#d80000" stroke="none" stroke-width="0" stroke-linecap="butt"/></g><path d="M239.5244,167.768v-4.77419h0.23938v4.77419z" data-paper-data="{&quot;index&quot;:null}" fill="#1dfffb" stroke="none" stroke-width="0" stroke-linecap="butt"/><path d="M241.95931,153.56627l-0.08433,17.45455c0,0 -0.23732,0.86024 -1.26491,0.90909c-1.05165,0.04999 -1.43358,-0.90909 -1.43358,-0.90909v-17.45455" data-paper-data="{&quot;index&quot;:null}" fill="none" stroke="#acacac" stroke-width="1" stroke-linecap="round"/><path d="M245.48237,199.67195l-10.73106,-0.0566l-2.73211,-0.71141l-0.19974,-37.7619l6.07231,-5.42857v15.95287c0,0 0.73442,1.79051 2.71834,1.79051c2.01921,0 2.76156,-1.92095 2.76156,-1.92095v-15.66277l5.92421,5.42857l0.16759,37.58147z" data-paper-data="{&quot;index&quot;:null}" fill="#ff0000" stroke="#ff0000" stroke-width="2.5" stroke-linecap="round"/><path d="M245.07009,177.36956l-0.10307,18.33333" data-paper-data="{&quot;index&quot;:null}" fill="none" stroke="#fa0000" stroke-width="1" stroke-linecap="round"/><path d="M234.24801,177.36956l-0.10307,11.77777" data-paper-data="{&quot;index&quot;:null}" fill="none" stroke="#fa0000" stroke-width="1" stroke-linecap="round"/><path d="M236.61856,195.59177l0.20613,-10.66666" data-paper-data="{&quot;index&quot;:null}" fill="none" stroke="#fa0000" stroke-width="1" stroke-linecap="round"/><path d="M243.11181,186.36956v13.33333" data-paper-data="{&quot;index&quot;:null}" fill="none" stroke="#fa0000" stroke-width="1" stroke-linecap="round"/><path d="M238.16455,180.814l-0.10307,-7" data-paper-data="{&quot;index&quot;:null}" fill="none" stroke="#fa0000" stroke-width="1" stroke-linecap="round"/><path d="M245.99774,173.25843l-0.20614,-13.77777" data-paper-data="{&quot;index&quot;:null}" fill="none" stroke="#fa0000" stroke-width="1" stroke-linecap="round"/><path d="M232.9081,160.48066l0.20613,12.11111" data-paper-data="{&quot;index&quot;:null}" fill="none" stroke="#fa0000" stroke-width="1" stroke-linecap="round"/><path d="M235.69097,174.14733l-0.3092,-13" data-paper-data="{&quot;index&quot;:null}" fill="none" stroke="#fa0000" stroke-width="1" stroke-linecap="round"/><path d="M241.22643,167.68024v-4.7h0.18552v4.7z" data-paper-data="{&quot;index&quot;:null}" fill="url(#color-21)" stroke="none" stroke-width="0" stroke-linecap="butt"/><path d="M240.39215,167.86477v-4.80645h0.20946v4.80645z" data-paper-data="{&quot;index&quot;:null}" fill="#1dfffb" stroke="none" stroke-width="0" stroke-linecap="butt"/><path d="M242.08055,183.41863l-1.35465,0.6931l-1.35465,-0.54738v-7.72276l1.397,-0.91167l1.31231,1.05738z" data-paper-data="{&quot;index&quot;:null}" fill="#8cffff" stroke="#7e7e7e" stroke-width="0.5" stroke-linecap="round"/><path d="M242.01993,176.09942l-1.21749,0.875l-1.33344,-1.125" data-paper-data="{&quot;index&quot;:null}" fill="none" stroke="#55eded" stroke-width="0.5" stroke-linecap="round"/><path d="M239.70091,183.47442l1.15951,-0.8125l0.92761,0.6875" data-paper-data="{&quot;index&quot;:null}" fill="none" stroke="#55eded" stroke-width="0.5" stroke-linecap="round"/><path d="M240.74449,175.16192l0.05798,1.5l-0.05798,6.5625l-0.17393,0.5625" data-paper-data="{&quot;index&quot;:null}" fill="none" stroke="#4fdada" stroke-width="0.5" stroke-linecap="round"/><path d="M242.08055,183.41863l-1.35465,0.6931l-1.35465,-0.54738v-7.72276l1.397,-0.91167l1.31231,1.05738z" data-paper-data="{&quot;index&quot;:null}" fill="none" stroke="#7e7e7e" stroke-width="0.5" stroke-linecap="round"/><path d="M240.52776,182.48583l-0.90553,0.78572l0.02209,-6.9881l0.86135,0.82143z" data-paper-data="{&quot;index&quot;:null}" fill="#5cffff" stroke="none" stroke-width="0" stroke-linecap="round"/><path d="M240.3568,183.65339l-0.47877,-0.13243l0.64255,-0.37012z" data-paper-data="{&quot;index&quot;:null}" fill="#57f3f3" stroke="#56eeee" stroke-width="0" stroke-linecap="round"/><path d="M240.98928,177.12181l0.90553,-0.78572l-0.02209,6.80388l-0.86136,-0.66353z" data-paper-data="{&quot;index&quot;:null}" fill="#87ffff" stroke="none" stroke-width="0" stroke-linecap="round"/><path d="M240.97656,183.07189l0.56932,0.37011l-0.69846,0.34296z" data-paper-data="{&quot;index&quot;:null}" fill="#5afbfb" stroke="#56eeee" stroke-width="0" stroke-linecap="round"/><path d="M250.4296,160.86956l-0.10307,39.33333l-1.44295,0.66667h-5.25645v-13.66667l3.71043,-3.77778v-11.77778l-1.85522,-1.88889l-0.10307,-13.44444z" data-paper-data="{&quot;index&quot;:null}" fill="#ffffff" stroke="#f5f5f5" stroke-width="0.5" stroke-linecap="round"/><path d="M249.08975,201.03623h-2.16442v-43.55556l3.50429,3.33333v39.44444z" data-paper-data="{&quot;index&quot;:null}" fill="url(#color-22)" stroke="none" stroke-width="0" stroke-linecap="butt"/><path d="M235.77209,156.09178l-0.10307,13.44444l-1.85522,1.88889v11.77778l3.71043,3.77777v13.66667h-5.25644l-1.44295,-0.66667l-0.10307,-39.33333z" data-paper-data="{&quot;index&quot;:null}" fill="#ffffff" stroke="#f5f5f5" stroke-width="0.5" stroke-linecap="round"/><path d="M250.64091,192.90474l14.00688,-2.3l-0.09276,2l-13.91412,7.6z" data-paper-data="{&quot;index&quot;:null}" fill="#ffffff" stroke="#f5f5f5" stroke-width="0.5" stroke-linecap="round"/><path d="M230.51179,199.80474l-13.98547,-7.6c0,0 -0.00853,-0.79603 -0.01232,-1.15051c-0.00326,-0.3046 -0.00909,-0.84949 -0.00909,-0.84949l14.00688,2.3z" data-paper-data="{&quot;index&quot;:null}" fill="#ffffff" stroke="#f5f5f5" stroke-width="0.5" stroke-linecap="round"/><g data-paper-data="{&quot;index&quot;:null}" fill="none" stroke-linecap="round"><path d="M265.6667,192.02002v-13.125" stroke="#b6b6b6" stroke-width="3"/><path d="M265.20739,179.03987v13" stroke="#c2c2c2" stroke-width="2"/></g><path d="M245.20597,206.26433c0,0 -2.32009,-0.63636 -4.34289,-0.63636c-1.99467,0 -4.42722,0.63636 -4.42722,0.63636v-4.27273c0,0 2.35508,-0.48772 4.38505,-0.5c2.0307,-0.01228 4.38505,0.5 4.38505,0.5v4.27273z" data-paper-data="{&quot;index&quot;:null}" fill="url(#color-23)" stroke="none" stroke-width="0" stroke-linecap="butt"/><path d="M228.06397,191.7539v-12.60657h2.67976v13.11111z" data-paper-data="{&quot;index&quot;:null}" fill="url(#color-24)" stroke="none" stroke-width="0" stroke-linecap="butt"/><path d="M227.99404,198.7095v-6.92857l2.78282,0.5v7.85714z" data-paper-data="{&quot;index&quot;:null}" fill="url(#color-25)" stroke="none" stroke-width="0" stroke-linecap="butt"/><g data-paper-data="{&quot;index&quot;:null}"><g><path d="M259.20443,178.10524v4.09091" fill="none" stroke="#b6b6b6" stroke-width="2.5" stroke-linecap="round"/><path d="M257.83405,183.181v-3.91667" fill="none" stroke="#df0000" stroke-width="0.5" stroke-linecap="round"/><path d="M256.16857,183.4007v-4.31818h1.47574v4.31818z" fill="#f00000" stroke="none" stroke-width="0" stroke-linecap="butt"/></g><path d="M258.82491,182.44615l-0.04216,-4.18182" fill="none" stroke="#c2c2c2" stroke-width="1.5" stroke-linecap="round"/></g><g data-paper-data="{&quot;index&quot;:null}"><g><path d="M222.14233,178.10524v4.09091" fill="none" stroke="#b6b6b6" stroke-width="2.5" stroke-linecap="round"/><path d="M223.51266,179.26433v3.91666" fill="none" stroke="#df0000" stroke-width="0.5" stroke-linecap="round"/><path d="M223.70234,183.40071v-4.31819h1.47574v4.31818z" fill="#f00000" stroke="none" stroke-width="0" stroke-linecap="butt"/></g><path d="M222.52175,182.44615l0.04216,-4.18182" fill="none" stroke="#c2c2c2" stroke-width="1.5" stroke-linecap="round"/></g><path d="M237.13831,205.70343v-3.68" data-paper-data="{&quot;index&quot;:null}" fill="none" stroke="#656565" stroke-width="0.5" stroke-linecap="round"/><path d="M238.21433,201.82343v3.64" data-paper-data="{&quot;index&quot;:null}" fill="none" stroke="#6a6a6a" stroke-width="0.5" stroke-linecap="round"/><path d="M239.25325,205.34343l-0.0371,-3.64" data-paper-data="{&quot;index&quot;:null}" fill="none" stroke="#6f6f6f" stroke-width="0.5" stroke-linecap="round"/><path d="M240.32929,205.30343l-0.07421,-3.68" data-paper-data="{&quot;index&quot;:null}" fill="none" stroke="#747474" stroke-width="0.5" stroke-linecap="round"/><path d="M241.33109,201.58343l0.0371,3.76" data-paper-data="{&quot;index&quot;:null}" fill="none" stroke="#787878" stroke-width="0.5" stroke-linecap="round"/><path d="M242.37001,201.66343v3.76" data-paper-data="{&quot;index&quot;:null}" fill="none" stroke="#7b7b7b" stroke-width="0.5" stroke-linecap="round"/><path d="M237.40316,212.84849v-6.27273c0,0 1.51673,-0.45454 3.45455,-0.45454c1.81656,0 3.45454,0.45454 3.45454,0.45454v6.27273z" data-paper-data="{&quot;index&quot;:null}" fill="url(#color-26)" stroke="none" stroke-width="0" stroke-linecap="butt"/><path d="M238.22143,184.73334v-12.5h4.8v12.5z" fill="#ff0000" stroke="none" stroke-width="0" stroke-linecap="butt"/><g stroke="#a6caca" stroke-width="0.5" stroke-linecap="round"><path d="M241.83713,180.55771c0,0 -0.55811,1.7675 -1.24554,1.7675c-0.68743,0 -1.24554,-1.7675 -1.24554,-1.7675l0.01782,-4.93504c0,0 0.55811,-1.7675 1.24554,-1.7675c0.68744,0 1.24555,1.7675 1.24555,1.7675z" fill="url(#color-27)"/><path d="M239.48361,176.19632h2.15143" fill="none"/><path d="M241.53725,177.58406h-2.05364" fill="none"/><path d="M241.63504,179.80443h-2.24922" fill="none"/><path d="M239.30062,178.39882h2.24922" fill="none"/></g><g><path d="M238.74306,196.16667v-6.75h3.625v6.75z" fill="url(#color-28)" stroke="none" stroke-width="0" stroke-linecap="butt"/><path d="M238.74306,199.91667v-2.875h3.625v2.875z" fill="url(#color-29)" stroke="none" stroke-width="0" stroke-linecap="butt"/><g fill="none" stroke="#d4d4d4" stroke-width="1" stroke-linecap="round"><path d="M232.50556,197.13333v3.4"/><path d="M235.10556,197.13333v3.4"/></g><g fill="none" stroke="#d4d4d4" stroke-width="1" stroke-linecap="round"><path d="M245.80556,197.03333v3.4"/><path d="M248.40556,200.43333v-3.4"/></g></g></g></g></svg>