<svg version="1.1" xmlns="http://www.w3.org/2000/svg" xmlns:xlink="http://www.w3.org/1999/xlink" width="140.03505" height="81.09331" viewBox="0,0,140.03505,81.09331"><defs><linearGradient x1="276.12051" y1="198.01117" x2="282.06489" y2="198.01195" gradientUnits="userSpaceOnUse" id="color-1"><stop offset="0" stop-color="#898989"/><stop offset="1" stop-color="#a1a1a1"/></linearGradient><linearGradient x1="285.40862" y1="198.0124" x2="300.64111" y2="198.01439" gradientUnits="userSpaceOnUse" id="color-2"><stop offset="0" stop-color="#898989"/><stop offset="1" stop-color="#a1a1a1"/></linearGradient><linearGradient x1="310.67224" y1="198.20148" x2="319.58881" y2="198.20265" gradientUnits="userSpaceOnUse" id="color-3"><stop offset="0" stop-color="#a1a1a1"/><stop offset="1" stop-color="#898989"/></linearGradient><linearGradient x1="198.29872" y1="181.98337" x2="200.82456" y2="181.9837" gradientUnits="userSpaceOnUse" id="color-4"><stop offset="0" stop-color="#b7b7b7" stop-opacity="0"/><stop offset="1" stop-color="#b7b7b7"/></linearGradient><linearGradient x1="275.51551" y1="169.39909" x2="281.4599" y2="169.39988" gradientUnits="userSpaceOnUse" id="color-5"><stop offset="0" stop-color="#898989"/><stop offset="1" stop-color="#a1a1a1"/></linearGradient><linearGradient x1="284.80362" y1="169.40031" x2="300.03609" y2="169.40232" gradientUnits="userSpaceOnUse" id="color-6"><stop offset="0" stop-color="#898989"/><stop offset="1" stop-color="#a1a1a1"/></linearGradient><linearGradient x1="310.06726" y1="169.5894" x2="318.98382" y2="169.59056" gradientUnits="userSpaceOnUse" id="color-7"><stop offset="0" stop-color="#a1a1a1"/><stop offset="1" stop-color="#898989"/></linearGradient><linearGradient x1="241.62767" y1="142.35421" x2="241.62593" y2="155.53916" gradientUnits="userSpaceOnUse" id="color-8"><stop offset="0" stop-color="#ff0000"/><stop offset="1" stop-color="#c50000"/></linearGradient><linearGradient x1="241.23137" y1="210.01764" x2="241.22963" y2="223.20259" gradientUnits="userSpaceOnUse" id="color-9"><stop offset="0" stop-color="#c50000"/><stop offset="1" stop-color="#ff0000"/></linearGradient><linearGradient x1="239.34808" y1="160.55907" x2="239.34764" y2="163.90728" gradientUnits="userSpaceOnUse" id="color-10"><stop offset="0" stop-color="#ca0000" stop-opacity="0"/><stop offset="1" stop-color="#ca0000"/></linearGradient><linearGradient x1="246.34721" y1="173.34409" x2="246.34765" y2="169.99588" gradientUnits="userSpaceOnUse" id="color-11"><stop offset="0" stop-color="#ca0000" stop-opacity="0"/><stop offset="1" stop-color="#ca0000"/></linearGradient><linearGradient x1="228.55574" y1="201.99191" x2="228.55529" y2="205.48617" gradientUnits="userSpaceOnUse" id="color-12"><stop offset="0" stop-color="#b7b7b7"/><stop offset="1" stop-color="#b7b7b7" stop-opacity="0"/></linearGradient><linearGradient x1="228.70919" y1="192.40386" x2="228.70873" y2="195.89813" gradientUnits="userSpaceOnUse" id="color-13"><stop offset="0" stop-color="#b7b7b7" stop-opacity="0"/><stop offset="1" stop-color="#b7b7b7"/></linearGradient><linearGradient x1="225.28783" y1="170.03125" x2="225.28738" y2="173.52553" gradientUnits="userSpaceOnUse" id="color-14"><stop offset="0" stop-color="#b7b7b7"/><stop offset="1" stop-color="#b7b7b7" stop-opacity="0"/></linearGradient><linearGradient x1="221.63649" y1="160.44272" x2="221.63604" y2="163.937" gradientUnits="userSpaceOnUse" id="color-15"><stop offset="0" stop-color="#b7b7b7" stop-opacity="0"/><stop offset="1" stop-color="#b7b7b7"/></linearGradient><linearGradient x1="263.94402" y1="173.53062" x2="263.94449" y2="170.03634" gradientUnits="userSpaceOnUse" id="color-16"><stop offset="0" stop-color="#b7b7b7" stop-opacity="0"/><stop offset="1" stop-color="#b7b7b7"/></linearGradient><linearGradient x1="264.09792" y1="160.44831" x2="264.09747" y2="163.94257" gradientUnits="userSpaceOnUse" id="color-17"><stop offset="0" stop-color="#b7b7b7" stop-opacity="0"/><stop offset="1" stop-color="#b7b7b7"/></linearGradient><linearGradient x1="257.15027" y1="192.52164" x2="257.14985" y2="195.86983" gradientUnits="userSpaceOnUse" id="color-18"><stop offset="0" stop-color="#ca0000" stop-opacity="0"/><stop offset="1" stop-color="#ca0000"/></linearGradient><linearGradient x1="257.1486" y1="205.30573" x2="257.14904" y2="201.95752" gradientUnits="userSpaceOnUse" id="color-19"><stop offset="0" stop-color="#ca0000" stop-opacity="0"/><stop offset="1" stop-color="#ca0000"/></linearGradient></defs><g transform="translate(-195.409,-142.23174)"><g data-paper-data="{&quot;isPaintingLayer&quot;:true}" fill-rule="nonzero" stroke-linejoin="miter" stroke-miterlimit="10" stroke-dasharray="" stroke-dashoffset="0" style="mix-blend-mode: normal"><g><g stroke-linecap="butt"><g fill="#a1a1a1" stroke="#a1a1a1" stroke-width="0.5"><path d="M267.08202,203.76859l0.00146,-11.14571l55.72862,0.00732l-0.00146,11.14571z"/><path d="M320.33072,206.74783l0.0023,-17.46163l14.861,0.00195l-0.0023,17.46163z"/><path d="M246.39768,204.88045l0.0018,-13.74639l38.26699,0.00503l-0.00181,13.7464z"/></g><path d="M276.1195,205.62742l0.00199,-15.23248l5.9444,0.00077l-0.002,15.23249z" fill="url(#color-1)" stroke="none" stroke-width="0"/><path d="M285.40783,204.14255l0.00161,-12.26031l15.23251,0.00199l-0.00161,12.26031z" fill="url(#color-2)" stroke="none" stroke-width="0"/><path d="M310.6714,204.5174l0.00165,-12.63183l8.91659,0.00118l-0.00165,12.63183z" fill="url(#color-3)" stroke="none" stroke-width="0"/></g><g><path d="M202.04711,203.09365l-5.91796,-4.49888l0.00102,-7.8125l5.68226,-3.31365l0.47476,-9.70638l-1.89375,-1.42071l-4.73442,-3.31502l0.00102,-7.81251l5.91906,-3.7871z" fill="#e0e0e0" stroke="#e0e0e0" stroke-width="0.5" stroke-linecap="round"/><path d="M198.29621,201.06836l0.00158,-12.06627l2.50693,-1.75435l0.02046,-9.98879l-2.52561,-1.66761l0.00167,-12.69294l2.5183,-1.62902l-0.00544,41.42865z" fill="url(#color-4)" stroke="none" stroke-width="0" stroke-linecap="butt"/></g><g stroke-linecap="butt"><g fill="#a1a1a1" stroke="#a1a1a1" stroke-width="0.5"><path d="M266.47702,175.15652l0.00148,-11.14572l55.72864,0.00734l-0.00148,11.14572z"/><path d="M319.72574,178.13573l0.0023,-17.46163l14.861,0.00196l-0.0023,17.46163z"/><path d="M245.79267,176.26838l0.00181,-13.7464l38.26699,0.00505l-0.00181,13.74639z"/></g><path d="M275.51452,177.01535l0.00199,-15.23253l5.94438,0.00079l-0.00199,15.23252z" fill="url(#color-5)" stroke="none" stroke-width="0"/><path d="M284.8028,175.53045l0.00161,-12.26031l15.23251,0.002l-0.00161,12.26029z" fill="url(#color-6)" stroke="none" stroke-width="0"/><path d="M310.06642,175.90531l0.00165,-12.63183l8.91659,0.00118l-0.00165,12.63183z" fill="url(#color-7)" stroke="none" stroke-width="0"/></g><g data-paper-data="{&quot;index&quot;:null}" stroke="none" stroke-width="0" stroke-linecap="butt"><path d="M217.45527,142.23174l48.34485,0.00636l-0.006,45.64022l-48.34487,-0.00636z" fill="#ce0000"/><path d="M217.79334,142.35107l47.66867,0.00628l-0.00173,13.18494l-47.66867,-0.00627z" fill="url(#color-8)"/></g><g stroke="none" stroke-width="0" stroke-linecap="butt"><path d="M217.06321,177.67848l48.34485,0.00635l-0.00602,45.64022l-48.34485,-0.00635z" fill="#ce0000"/><path d="M217.39703,210.01451l47.66867,0.00628l-0.00173,13.18494l-47.66867,-0.00627z" fill="url(#color-9)"/></g><path d="M200.83618,155.58867l75.73129,0.00996l-0.00715,54.43022l-75.73129,-0.00996z" fill="#ff0000" stroke="none" stroke-width="0" stroke-linecap="butt"/><path d="M220.62808,163.90481l0.00044,-3.34821l37.43912,0.00493l-0.00044,3.34821z" data-paper-data="{&quot;index&quot;:null}" fill="url(#color-10)" stroke="none" stroke-width="0" stroke-linecap="butt"/><path d="M265.06721,169.99835l-0.00044,3.34821l-37.43912,-0.00493l0.00043,-3.34821z" data-paper-data="{&quot;index&quot;:null}" fill="url(#color-11)" stroke="none" stroke-width="0" stroke-linecap="butt"/><path d="M205.72841,205.02153l0.00593,-45.07612l14.85165,0.00197l17.34469,22.25305l-0.15395,22.82531z" fill="#e0e0e0" stroke="#ececec" stroke-width="0.5" stroke-linecap="butt"/><path d="M271.39813,160.0713l-0.00268,20.38644l-6.7169,-0.00089l-7.84444,-10.06434l0.06965,-10.32311z" data-paper-data="{&quot;index&quot;:null}" fill="#e0e0e0" stroke="#ececec" stroke-width="0.5" stroke-linecap="butt"/><path d="M218.96247,201.99065l0.0008,-6.08829l56.87748,0.00748l-0.0008,6.08829z" fill="#ececec" stroke="none" stroke-width="0" stroke-linecap="butt"/><path d="M218.96201,205.48493l0.00046,-3.49428l19.18654,0.00252l-0.00046,3.49428z" fill="url(#color-12)" stroke="none" stroke-width="0" stroke-linecap="butt"/><path d="M238.45467,192.40514l-0.00046,3.49429l-19.49095,-0.00256l0.00046,-3.49429z" data-paper-data="{&quot;index&quot;:null}" fill="url(#color-13)" stroke="none" stroke-width="0" stroke-linecap="butt"/><path d="M218.96667,170.03042l0.0008,-6.08828l56.87746,0.00748l-0.0008,6.08829z" fill="#ececec" stroke="none" stroke-width="0" stroke-linecap="butt"/><path d="M218.96623,173.5247l0.00046,-3.49428l10.35943,0.00136l2.28241,3.49457z" fill="url(#color-14)" stroke="none" stroke-width="0" stroke-linecap="butt"/><path d="M221.41345,160.44269l2.89117,3.49467l-5.33714,-0.0007l0.00046,-3.49429z" data-paper-data="{&quot;index&quot;:null}" fill="url(#color-15)" stroke="none" stroke-width="0" stroke-linecap="butt"/><path d="M271.93974,170.0374l-0.00046,3.49429l-13.10305,-0.00173l-2.88702,-3.49466z" data-paper-data="{&quot;index&quot;:null}" fill="url(#color-16)" stroke="none" stroke-width="0" stroke-linecap="butt"/><path d="M271.78881,160.44931l-0.00046,3.49429l-15.38177,-0.00203l0.00046,-3.49429z" data-paper-data="{&quot;index&quot;:null}" fill="url(#color-17)" stroke="none" stroke-width="0" stroke-linecap="butt"/><path d="M238.4303,195.86737l0.00044,-3.34821l37.43912,0.00493l-0.00044,3.34821z" fill="url(#color-18)" stroke="none" stroke-width="0" stroke-linecap="butt"/><path d="M275.8686,201.95999l-0.00044,3.34821l-37.43912,-0.00493l0.00044,-3.34821z" data-paper-data="{&quot;index&quot;:null}" fill="url(#color-19)" stroke="none" stroke-width="0" stroke-linecap="butt"/></g></g></g></svg>