<svg version="1.1" xmlns="http://www.w3.org/2000/svg" xmlns:xlink="http://www.w3.org/1999/xlink" width="53.43075" height="75.16726" viewBox="0,0,53.43075,75.16726"><defs><radialGradient cx="240.45949" cy="208.21142" r="8.85134" gradientUnits="userSpaceOnUse" id="color-1"><stop offset="0" stop-color="#fff696"/><stop offset="1" stop-color="#fff696" stop-opacity="0"/></radialGradient><radialGradient cx="240.17418" cy="205.42799" r="12.28963" gradientUnits="userSpaceOnUse" id="color-2"><stop offset="0" stop-color="#fcd81d"/><stop offset="1" stop-color="#fcd81d" stop-opacity="0"/></radialGradient><linearGradient x1="241.66348" y1="155.72478" x2="241.66348" y2="199.68326" gradientUnits="userSpaceOnUse" id="color-3"><stop offset="0" stop-color="#00de98"/><stop offset="1" stop-color="#00386f"/></linearGradient><linearGradient x1="241.66348" y1="155.72478" x2="241.66348" y2="199.68326" gradientUnits="userSpaceOnUse" id="color-4"><stop offset="0" stop-color="#00de98"/><stop offset="1" stop-color="#00386f"/></linearGradient><linearGradient x1="237.3704" y1="167.87076" x2="242.64381" y2="167.87076" gradientUnits="userSpaceOnUse" id="color-5"><stop offset="0" stop-color="#5f5f5f"/><stop offset="1" stop-color="#a8a8a8"/></linearGradient><linearGradient x1="240.04742" y1="161.54812" x2="240.04742" y2="162.48361" gradientUnits="userSpaceOnUse" id="color-6"><stop offset="0" stop-color="#7a7a7a"/><stop offset="1" stop-color="#646464"/></linearGradient><linearGradient x1="227.81533" y1="178.86466" x2="227.81533" y2="200.90383" gradientUnits="userSpaceOnUse" id="color-7"><stop offset="0" stop-color="#00a29c"/><stop offset="1" stop-color="#00478c"/></linearGradient><linearGradient x1="252.19026" y1="178.86466" x2="252.19026" y2="200.90383" gradientUnits="userSpaceOnUse" id="color-8"><stop offset="0" stop-color="#00a29c"/><stop offset="1" stop-color="#00478c"/></linearGradient><linearGradient x1="239.14439" y1="165.17487" x2="239.32692" y2="165.17487" gradientUnits="userSpaceOnUse" id="color-9"><stop offset="0" stop-color="#00eeec"/><stop offset="1" stop-color="#1cfff4"/></linearGradient><linearGradient x1="233.61815" y1="156.23006" x2="233.61815" y2="200.78562" gradientUnits="userSpaceOnUse" id="color-10"><stop offset="0" stop-color="#00ffad"/><stop offset="1" stop-color="#00478c"/></linearGradient><linearGradient x1="233.61815" y1="156.23006" x2="233.61815" y2="200.78562" gradientUnits="userSpaceOnUse" id="color-11"><stop offset="0" stop-color="#00ffad"/><stop offset="1" stop-color="#00478c"/></linearGradient><linearGradient x1="246.19325" y1="156.22213" x2="246.19325" y2="200.77768" gradientUnits="userSpaceOnUse" id="color-12"><stop offset="0" stop-color="#00ffad"/><stop offset="1" stop-color="#00478c"/></linearGradient><linearGradient x1="246.19325" y1="156.22213" x2="246.19325" y2="200.77768" gradientUnits="userSpaceOnUse" id="color-13"><stop offset="0" stop-color="#00ffad"/><stop offset="1" stop-color="#00478c"/></linearGradient><linearGradient x1="218.30374" y1="178.60526" x2="218.30374" y2="188.09108" gradientUnits="userSpaceOnUse" id="color-14"><stop offset="0" stop-color="#00a29c"/><stop offset="1" stop-color="#007995"/></linearGradient><linearGradient x1="249.74266" y1="193.40467" x2="252.37936" y2="193.40467" gradientUnits="userSpaceOnUse" id="color-15"><stop offset="0" stop-color="#002f5e"/><stop offset="1" stop-color="#002f5e" stop-opacity="0"/></linearGradient><linearGradient x1="249.60864" y1="186.04025" x2="252.34677" y2="186.04025" gradientUnits="userSpaceOnUse" id="color-16"><stop offset="0" stop-color="#dbdbdb"/><stop offset="1" stop-color="#dbdbdb" stop-opacity="0"/></linearGradient><linearGradient x1="237.82247" y1="197.61641" x2="241.98034" y2="197.61641" gradientUnits="userSpaceOnUse" id="color-17"><stop offset="0" stop-color="#8b8b8b"/><stop offset="1" stop-color="#7f7f7f"/></linearGradient><linearGradient x1="238.18754" y1="192.7664" x2="241.61526" y2="192.7664" gradientUnits="userSpaceOnUse" id="color-18"><stop offset="0" stop-color="#8b8b8b"/><stop offset="1" stop-color="#7f7f7f"/></linearGradient><linearGradient x1="261.60653" y1="178.60526" x2="261.60653" y2="188.09109" gradientUnits="userSpaceOnUse" id="color-19"><stop offset="0" stop-color="#00a29c"/><stop offset="1" stop-color="#007995"/></linearGradient><linearGradient x1="217.52099" y1="179.88451" x2="217.52099" y2="192.11528" gradientUnits="userSpaceOnUse" id="color-20"><stop offset="0" stop-color="#009a95"/><stop offset="1" stop-color="#005da9"/></linearGradient><linearGradient x1="262.48459" y1="179.88451" x2="262.48459" y2="192.11528" gradientUnits="userSpaceOnUse" id="color-21"><stop offset="0" stop-color="#009a95"/><stop offset="1" stop-color="#005da9"/></linearGradient><linearGradient x1="216.39767" y1="178.94646" x2="216.39767" y2="192.5362" gradientUnits="userSpaceOnUse" id="color-22"><stop offset="0" stop-color="#007c78"/><stop offset="1" stop-color="#00376d"/></linearGradient><linearGradient x1="263.60798" y1="178.94646" x2="263.60798" y2="192.5362" gradientUnits="userSpaceOnUse" id="color-23"><stop offset="0" stop-color="#007c78"/><stop offset="1" stop-color="#00376d"/></linearGradient><linearGradient x1="230.15751" y1="179.10309" x2="233.60551" y2="179.10309" gradientUnits="userSpaceOnUse" id="color-24"><stop offset="0" stop-color="#00b67c"/><stop offset="1" stop-color="#00b67c" stop-opacity="0"/></linearGradient><linearGradient x1="230.15751" y1="179.10309" x2="233.60551" y2="179.10309" gradientUnits="userSpaceOnUse" id="color-25"><stop offset="0" stop-color="#00847e"/><stop offset="1" stop-color="#00847e" stop-opacity="0"/></linearGradient><linearGradient x1="230.15751" y1="179.10309" x2="233.60551" y2="179.10309" gradientUnits="userSpaceOnUse" id="color-26"><stop offset="0" stop-color="#004183"/><stop offset="1" stop-color="#004183" stop-opacity="0"/></linearGradient><linearGradient x1="230.19123" y1="172.98333" x2="233.56822" y2="172.98333" gradientUnits="userSpaceOnUse" id="color-27"><stop offset="0" stop-color="#009c84"/><stop offset="1" stop-color="#009c84" stop-opacity="0"/></linearGradient><linearGradient x1="230.19123" y1="188.08333" x2="233.56822" y2="188.08333" gradientUnits="userSpaceOnUse" id="color-28"><stop offset="0" stop-color="#00779c"/><stop offset="1" stop-color="#00779c" stop-opacity="0"/></linearGradient><radialGradient cx="240.4637" cy="207.64308" r="6.28912" gradientUnits="userSpaceOnUse" id="color-29"><stop offset="0" stop-color="#fff156"/><stop offset="1" stop-color="#fff156" stop-opacity="0"/></radialGradient><linearGradient x1="240.12898" y1="206.57576" x2="240.12898" y2="212.84849" gradientUnits="userSpaceOnUse" id="color-30"><stop offset="0" stop-color="#ff8600"/><stop offset="1" stop-color="#ff8600" stop-opacity="0"/></linearGradient><linearGradient x1="240.23072" y1="204.32197" x2="240.23072" y2="221.1856" gradientUnits="userSpaceOnUse" id="color-31"><stop offset="0" stop-color="#ffffff"/><stop offset="1" stop-color="#ffffff" stop-opacity="0"/></linearGradient><radialGradient cx="240.29976" cy="208.4453" r="6.28912" gradientUnits="userSpaceOnUse" id="color-32"><stop offset="0" stop-color="#ffee35"/><stop offset="1" stop-color="#ffee35" stop-opacity="0"/></radialGradient><linearGradient x1="235.65231" y1="206.02091" x2="244.6389" y2="206.02091" gradientUnits="userSpaceOnUse" id="color-33"><stop offset="0" stop-color="#5f5f5f"/><stop offset="1" stop-color="#4c4c4c"/></linearGradient><linearGradient x1="235.65231" y1="206.02091" x2="244.6389" y2="206.02091" gradientUnits="userSpaceOnUse" id="color-34"><stop offset="0" stop-color="#949494"/><stop offset="1" stop-color="#757575"/></linearGradient><linearGradient x1="235.92942" y1="204.21927" x2="238.84505" y2="204.21927" gradientUnits="userSpaceOnUse" id="color-35"><stop offset="0" stop-color="#4c4c4c"/><stop offset="1" stop-color="#4c4c4c" stop-opacity="0"/></linearGradient><linearGradient x1="244.36116" y1="204.21926" x2="241.44554" y2="204.21926" gradientUnits="userSpaceOnUse" id="color-36"><stop offset="0" stop-color="#5f5f5f"/><stop offset="1" stop-color="#5f5f5f" stop-opacity="0"/></linearGradient><linearGradient x1="235.4413" y1="203.97261" x2="244.84617" y2="203.97261" gradientUnits="userSpaceOnUse" id="color-37"><stop offset="0" stop-color="#888888"/><stop offset="1" stop-color="#696969"/></linearGradient><linearGradient x1="239.35917" y1="126.50033" x2="239.35917" y2="220.52638" gradientUnits="userSpaceOnUse" id="color-38"><stop offset="0" stop-color="#a300f2"/><stop offset="1" stop-color="#a300f2" stop-opacity="0"/></linearGradient><linearGradient x1="239.07791" y1="98.48157" x2="239.07791" y2="226.50218" gradientUnits="userSpaceOnUse" id="color-39"><stop offset="0" stop-color="#f1f1f1"/><stop offset="1" stop-color="#f1f1f1" stop-opacity="0"/></linearGradient><linearGradient x1="240.2709" y1="206.11822" x2="240.2709" y2="214.02598" gradientUnits="userSpaceOnUse" id="color-40"><stop offset="0" stop-color="#ff4f00"/><stop offset="1" stop-color="#ff4f00" stop-opacity="0"/></linearGradient><linearGradient x1="240.19046" y1="206.36496" x2="240.19046" y2="211.71079" gradientUnits="userSpaceOnUse" id="color-41"><stop offset="0" stop-color="#ffd400"/><stop offset="1" stop-color="#ffd400" stop-opacity="0"/></linearGradient><linearGradient x1="240.18775" y1="206.0069" x2="240.18775" y2="214.88922" gradientUnits="userSpaceOnUse" id="color-42"><stop offset="0" stop-color="#ffee00"/><stop offset="1" stop-color="#ffee00" stop-opacity="0"/></linearGradient><linearGradient x1="240.10194" y1="205.93395" x2="240.10194" y2="209.82133" gradientUnits="userSpaceOnUse" id="color-43"><stop offset="0" stop-color="#ffee00"/><stop offset="1" stop-color="#ffee00" stop-opacity="0"/></linearGradient><linearGradient x1="242.51893" y1="206.0069" x2="242.51893" y2="209.89428" gradientUnits="userSpaceOnUse" id="color-44"><stop offset="0" stop-color="#ffee00"/><stop offset="1" stop-color="#ffee00" stop-opacity="0"/></linearGradient><linearGradient x1="237.68497" y1="206.0069" x2="237.68497" y2="209.89428" gradientUnits="userSpaceOnUse" id="color-45"><stop offset="0" stop-color="#ffee00"/><stop offset="1" stop-color="#ffee00" stop-opacity="0"/></linearGradient><linearGradient x1="224.04617" y1="181.97988" x2="228.54967" y2="181.97988" gradientUnits="userSpaceOnUse" id="color-46"><stop offset="0" stop-color="#01878f"/><stop offset="1" stop-color="#018097"/></linearGradient><linearGradient x1="224.04617" y1="181.97988" x2="228.54968" y2="181.97988" gradientUnits="userSpaceOnUse" id="color-47"><stop offset="0" stop-color="#01878f"/><stop offset="1" stop-color="#018097"/></linearGradient><linearGradient x1="224.10158" y1="185.90966" x2="228.59648" y2="185.90966" gradientUnits="userSpaceOnUse" id="color-48"><stop offset="0" stop-color="#01878f"/><stop offset="1" stop-color="#018097"/></linearGradient><linearGradient x1="224.10158" y1="185.90966" x2="228.59648" y2="185.90966" gradientUnits="userSpaceOnUse" id="color-49"><stop offset="0" stop-color="#01878f"/><stop offset="1" stop-color="#018097"/></linearGradient><linearGradient x1="255.52132" y1="181.97988" x2="251.01782" y2="181.97988" gradientUnits="userSpaceOnUse" id="color-50"><stop offset="0" stop-color="#01878f"/><stop offset="1" stop-color="#018097"/></linearGradient><linearGradient x1="255.52129" y1="181.97988" x2="251.01781" y2="181.97988" gradientUnits="userSpaceOnUse" id="color-51"><stop offset="0" stop-color="#01878f"/><stop offset="1" stop-color="#018097"/></linearGradient><linearGradient x1="255.46589" y1="185.90966" x2="250.971" y2="185.90966" gradientUnits="userSpaceOnUse" id="color-52"><stop offset="0" stop-color="#01878f"/><stop offset="1" stop-color="#018097"/></linearGradient><linearGradient x1="255.46589" y1="185.90966" x2="250.971" y2="185.90966" gradientUnits="userSpaceOnUse" id="color-53"><stop offset="0" stop-color="#01878f"/><stop offset="1" stop-color="#018097"/></linearGradient></defs><g transform="translate(-213.28729,-152.73348)"><g data-paper-data="{&quot;isPaintingLayer&quot;:true}" fill-rule="nonzero" stroke-linejoin="miter" stroke-miterlimit="10" stroke-dasharray="" stroke-dashoffset="0" style="mix-blend-mode: normal"><path d="M241.1875,156.16667v-3.125h2v3.125z" fill="#00cd94" stroke="none" stroke-width="0" stroke-linecap="butt"/><path d="M248.22382,208.21142c0,4.34894 -3.47621,7.87446 -7.76433,7.87446c-4.28814,0 -7.76433,-3.52552 -7.76433,-7.87446c0,-4.34894 3.47622,-7.87446 7.76433,-7.87446c4.28814,0 7.76433,3.52552 7.76433,7.87446z" fill="url(#color-1)" stroke="none" stroke-width="0" stroke-linecap="butt"/><path d="M252.29995,205.42799c0,6.82325 -5.42887,12.35459 -12.12576,12.35459c-6.69688,0 -12.12577,-5.53134 -12.12577,-12.35459c0,-6.82325 5.42888,-12.35459 12.12577,-12.35459c6.69688,0 12.12576,5.53134 12.12576,12.35459z" fill="url(#color-2)" stroke="none" stroke-width="0" stroke-linecap="butt"/><path d="M263.01647,192.5592l-14.38155,7.77778" fill="none" stroke="#00386f" stroke-width="2.5" stroke-linecap="round"/><g><g fill="none" stroke="#00386f" stroke-width="1" stroke-linecap="round"><g><path d="M240.30114,203.02632h-8.2714l-15.40192,-8.375"/><path d="M240.35819,202.15132h-8.2714l-15.40192,-8.375"/><path d="M240.18704,201.21382h-8.2714l-15.40192,-8.375"/></g><g><path d="M264.37782,194.65132l-15.40192,8.375h-8.2714"/><path d="M264.32077,193.77632l-15.40192,8.375h-8.2714"/><path d="M264.49191,192.83882l-15.40192,8.375h-8.2714"/></g></g><path d="M230.02823,203.47619v-3.42857h19.68838v3.42857z" fill="#00386f" stroke="none" stroke-width="0" stroke-linecap="butt"/></g><path d="M232.98318,198.89448l0.1649,-37.58147l5.82905,-5.42857v15.66277c0,0 0.73043,1.92095 2.7172,1.92095c1.95205,0 2.67467,-1.79051 2.67467,-1.79051v-15.95287l5.97476,5.42857l-0.19653,37.7619l-2.68823,0.71141l-10.55867,0.0566z" fill="url(#color-3)" stroke="url(#color-4)" stroke-width="2.5" stroke-linecap="round"/><path d="M238.60581,153.04728c0,0 0.80307,0.91199 1.41056,1.36364c0.60748,0.45165 0.95175,0.53754 1.32757,0.63636c0.37582,0.09883 0.74676,-0.09091 0.74676,-0.09091l1.2446,16.90909l-7.71652,1.36364z" fill="#676767" stroke="#ff0000" stroke-width="0" stroke-linecap="round"/><g fill="none" stroke-linecap="round"><g stroke="#b6b6b6" stroke-width="2.5"><path d="M223.05246,179.46936v-4.09091"/></g><path d="M223.42584,179.71936l0.04148,-4.18182" stroke="#c2c2c2" stroke-width="1.5"/></g><g data-paper-data="{&quot;index&quot;:null}" fill="none" stroke-linecap="round"><g stroke="#b6b6b6" stroke-width="2.5"><path d="M257.83068,175.37845v4.09091"/></g><path d="M257.4573,179.71936l-0.04148,-4.18182" stroke="#c2c2c2" stroke-width="1.5"/></g><path d="M237.3704,173.76975v-11.79798h5.27341v11.79798z" fill="url(#color-5)" stroke="none" stroke-width="0" stroke-linecap="butt"/><path d="M242.01335,162.01587c0,0.25833 -0.88018,0.46774 -1.96592,0.46774c-1.08575,0 -1.96593,-0.20941 -1.96593,-0.46774c0,-0.25833 0.88018,-0.46775 1.96593,-0.46775c1.08575,0 1.96592,0.20942 1.96592,0.46775z" fill="url(#color-6)" stroke="#7e7e7e" stroke-width="0.5" stroke-linecap="butt"/><path d="M215.61442,194.71382v-1.9375h0.96975v1.9375z" fill="#00386f" stroke="none" stroke-width="0" stroke-linecap="butt"/><path d="M215.97479,178.86466l24.07,0.125l-0.04312,21.91417l-8.30399,-0.03917l-16.1118,-8.625z" fill="url(#color-7)" stroke="#b6b6b6" stroke-width="0" stroke-linecap="round"/><path d="M216.68602,180.24805v-1.35714h1.76022v1.35714z" fill="#00bcfb" stroke="none" stroke-width="0" stroke-linecap="butt"/><path d="M238.85175,199.6052v-19.28572" fill="none" stroke="#3195b6" stroke-width="2.5" stroke-linecap="round"/><path d="M237.74347,183.74805v-4.71428h2.28177v4.71428z" fill="#f00000" stroke="none" stroke-width="0" stroke-linecap="butt"/><path d="M237.74347,200.81948v-6h2.28177v6z" fill="#0098ca" stroke="none" stroke-width="0" stroke-linecap="butt"/><path d="M229.70432,191.90132v-7.1875" fill="none" stroke="#00bcfb" stroke-width="1" stroke-linecap="round"/><path d="M231.35859,192.46382l0.1141,-8.6875" fill="none" stroke="#f50000" stroke-width="1" stroke-linecap="round"/><path d="M221.03361,189.08882v-7.9375" fill="none" stroke="#006c8a" stroke-width="1" stroke-linecap="round"/><path d="M226.50985,193.96382v-11.875" fill="none" stroke="#005b82" stroke-width="1" stroke-linecap="round"/><path d="M234.26786,184.27632l-0.05705,11.1875" fill="none" stroke="#fa0000" stroke-width="1" stroke-linecap="round"/><path d="M224.05696,194.33882l0.1141,-5.125" fill="none" stroke="#005b82" stroke-width="1" stroke-linecap="round"/><path d="M236.49259,192.40132l-0.05705,-11" fill="none" stroke="#fa0000" stroke-width="1" stroke-linecap="round"/><path d="M263.42147,194.71382v-1.9375h0.96975v1.9375z" fill="#00386f" stroke="none" stroke-width="0" stroke-linecap="butt"/><path d="M264.41974,192.23966l-16.1118,8.625l-8.30399,0.03917l-0.04312,-21.91417l24.07,-0.125z" fill="url(#color-8)" stroke="#b6b6b6" stroke-width="0" stroke-linecap="round"/><path d="M261.55938,180.24805v-1.35714h1.76022v1.35714z" fill="#00b1ec" stroke="none" stroke-width="0" stroke-linecap="butt"/><path d="M241.15389,180.31948v19.28572" fill="none" stroke="#3195b6" stroke-width="2.5" stroke-linecap="round"/><path d="M239.98039,183.74805v-4.71428h2.28177v4.71428z" fill="#f00000" stroke="none" stroke-width="0" stroke-linecap="butt"/><path d="M239.98039,200.81948v-6h2.28177v6z" fill="#0098ca" stroke="none" stroke-width="0" stroke-linecap="butt"/><path d="M250.30134,191.90132v-7.1875" fill="none" stroke="#00bcfb" stroke-width="1" stroke-linecap="round"/><path d="M248.64707,192.46382l-0.1141,-8.6875" fill="none" stroke="#f50000" stroke-width="1" stroke-linecap="round"/><path d="M258.97202,189.08882v-7.9375" fill="none" stroke="#006c8a" stroke-width="1" stroke-linecap="round"/><path d="M253.49582,182.08882v11.875" fill="none" stroke="#005b82" stroke-width="1" stroke-linecap="round"/><path d="M245.79486,195.46382l-0.05705,-11.1875" fill="none" stroke="#fa0000" stroke-width="1" stroke-linecap="round"/><path d="M255.83459,189.21382l0.1141,5.125" fill="none" stroke="#005b82" stroke-width="1" stroke-linecap="round"/><path d="M243.51309,192.40132l0.05705,-11" fill="none" stroke="#fa0000" stroke-width="1" stroke-linecap="round"/><path d="M240.76607,167.61264v-4.77419h0.23553v4.77419z" fill="#1dfffb" stroke="none" stroke-width="0" stroke-linecap="butt"/><path d="M241.3439,153.41091v17.45455c0,0 -0.37579,0.95908 -1.41056,0.90909c-1.01108,-0.04885 -1.2446,-0.90909 -1.2446,-0.90909l-0.08298,-17.45455" fill="none" stroke="#b1b1b1" stroke-width="1" stroke-linecap="round"/><path d="M231.22221,198.72781l0.1649,-37.58147l5.82905,-5.42857v15.66277c0,0 0.73043,1.92095 2.7172,1.92095c1.95205,0 2.67467,-1.79051 2.67467,-1.79051v-15.95287l5.97476,5.42857l-0.19653,37.7619l-2.68823,0.71141l-10.55867,0.0566z" fill="#ffffff" stroke="#ffffff" stroke-width="2.5" stroke-linecap="round"/><path d="M235.545,177.2142l0.10141,18.33333" fill="none" stroke="#eeeeee" stroke-width="1" stroke-linecap="round"/><path d="M246.29463,188.99197l-0.10141,-11.77777" fill="none" stroke="#eeeeee" stroke-width="1" stroke-linecap="round"/><path d="M243.65796,184.76975l0.20282,10.66666" fill="none" stroke="#eeeeee" stroke-width="1" stroke-linecap="round"/><path d="M237.47182,199.54753v-13.33333" fill="none" stroke="#eeeeee" stroke-width="1" stroke-linecap="round"/><path d="M242.441,173.65864l-0.10141,7" fill="none" stroke="#eeeeee" stroke-width="1" stroke-linecap="round"/><path d="M234.83512,159.3253l-0.20283,13.77777" fill="none" stroke="#eeeeee" stroke-width="1" stroke-linecap="round"/><path d="M247.51161,160.3253l-0.20282,12.11111" fill="none" stroke="#fa0000" stroke-width="1" stroke-linecap="round"/><path d="M245.07772,160.99197l-0.30423,13" fill="none" stroke="#eeeeee" stroke-width="1" stroke-linecap="round"/><path d="M239.14439,167.52488v-4.7h0.18255v4.7z" fill="url(#color-9)" stroke="none" stroke-width="0" stroke-linecap="butt"/><path d="M239.94171,167.70941v-4.80645h0.20611v4.80645z" fill="#1dfffb" stroke="none" stroke-width="0" stroke-linecap="butt"/><path d="M238.48652,175.83194l1.29123,-1.05738l1.37455,0.91167v7.72276l-1.33289,0.54738l-1.33289,-0.6931z" fill="#8cffff" stroke="#7e7e7e" stroke-width="0.5" stroke-linecap="round"/><path d="M241.05611,175.69406l-1.31202,1.125l-1.19793,-0.875" fill="none" stroke="#55eded" stroke-width="0.5" stroke-linecap="round"/><path d="M238.77434,183.19406l0.9127,-0.6875l1.14088,0.8125" fill="none" stroke="#55eded" stroke-width="0.5" stroke-linecap="round"/><path d="M239.97227,183.63156l-0.17113,-0.5625l-0.05705,-6.5625l0.05705,-1.5" fill="none" stroke="#4fdada" stroke-width="0.5" stroke-linecap="round"/><path d="M238.48652,175.83194l1.29123,-1.05738l1.37455,0.91167v7.72276l-1.33289,0.54738l-1.33289,-0.6931z" fill="none" stroke="#7e7e7e" stroke-width="0.5" stroke-linecap="round"/><path d="M240.0361,176.94952l0.84752,-0.82143l0.02173,6.9881l-0.89098,-0.78572z" fill="#5cffff" stroke="none" stroke-width="0" stroke-linecap="round"/><path d="M240.0214,182.99548l0.63223,0.37012l-0.47108,0.13243z" fill="#57f3f3" stroke="#56eeee" stroke-width="0" stroke-linecap="round"/><path d="M239.53855,182.32108l-0.84753,0.66353l-0.02173,-6.80388l0.89098,0.78572z" data-paper-data="{&quot;index&quot;:null}" fill="#87ffff" stroke="none" stroke-width="0" stroke-linecap="round"/><path d="M236.4889,200.90476v-10.7h3.46828v10.7z" fill="#2d2d2d" stroke="none" stroke-width="0" stroke-linecap="butt"/><path d="M239.86591,200.90476v-10.7h3.46828v10.7z" data-paper-data="{&quot;index&quot;:null}" fill="#2d2d2d" stroke="none" stroke-width="0" stroke-linecap="butt"/><path d="M239.69988,183.6296l-0.68724,-0.34296l0.56017,-0.37011z" data-paper-data="{&quot;index&quot;:null}" fill="#5afbfb" stroke="#56eeee" stroke-width="0" stroke-linecap="round"/><path d="M235.24075,156.23006l-0.10141,13.44444l-1.82541,1.88889v11.77778l3.65082,3.77778v13.66667h-5.172l-1.41976,-0.66667l-0.10141,-39.33333z" fill="url(#color-10)" stroke="url(#color-11)" stroke-width="0.5" stroke-linecap="round"/><path d="M249.53983,160.77767l-0.10141,39.33333l-1.41976,0.66667h-5.17199v-13.66667l3.65082,-3.77777v-11.77778l-1.82541,-1.88889l-0.10141,-13.44444z" data-paper-data="{&quot;index&quot;:null}" fill="url(#color-12)" stroke="url(#color-13)" stroke-width="0.5" stroke-linecap="round"/><path d="M230.06369,192.93827l-13.6906,-7.6l-0.09127,-6.44445l13.78186,0.07778z" fill="#ffffff" stroke="#ffffff" stroke-width="0.5" stroke-linecap="round"/><path d="M220.59944,188.09108l-4.49239,-2.49384l-0.09902,-6.99198l4.49452,0.02536z" fill="url(#color-14)" stroke="#ff9b00" stroke-width="0" stroke-linecap="round"/><path d="M249.74266,199.96023v-13.11111h2.63671v11.74943z" fill="url(#color-15)" stroke="none" stroke-width="0" stroke-linecap="butt"/><path d="M249.95055,178.9716l13.78186,-0.07778l-0.09127,6.44445l-13.6906,7.6z" data-paper-data="{&quot;index&quot;:null}" fill="#ffffff" stroke="#ffffff" stroke-width="0" stroke-linecap="round"/><path d="M237.85796,184.73334v-12.5h4.381v12.5z" fill="#ffffff" stroke="none" stroke-width="0" stroke-linecap="butt"/><g stroke="#8abcd0" stroke-width="0.5" stroke-linecap="round"><path d="M241.18811,180.55771c0,0 -0.50939,1.7675 -1.13681,1.7675c-0.62743,0 -1.13681,-1.7675 -1.13681,-1.7675l0.01627,-4.93504c0,0 0.50939,-1.7675 1.13681,-1.7675c0.62744,0 1.13682,1.7675 1.13682,1.7675z" fill="#97cee4"/><path d="M241.00368,176.19632h-1.96363" fill="none"/><path d="M239.04005,177.58406h1.87437" fill="none"/><path d="M238.95077,179.80443h2.05287" fill="none"/><path d="M240.92589,178.39882h-2.05287" fill="none"/></g><path d="M249.60864,193.34382v-14.60714h2.73812v13.17857z" fill="url(#color-16)" stroke="none" stroke-width="0" stroke-linecap="butt"/><path d="M237.82247,200.28307v-5.33334h4.15788v5.33334z" fill="url(#color-17)" stroke="none" stroke-width="0" stroke-linecap="butt"/><path d="M238.18754,194.18307v-2.83333h3.42772v2.83333z" fill="url(#color-18)" stroke="none" stroke-width="0" stroke-linecap="butt"/><path d="M239.35632,191.52778v2.41667" fill="none" stroke="#9e9e9e" stroke-width="0.5" stroke-linecap="round"/><path d="M240.49719,191.52778v2.41667" fill="none" stroke="#9e9e9e" stroke-width="0.5" stroke-linecap="round"/><path d="M259.40772,178.63062l4.49453,-0.02536l-0.09903,6.99199l-4.49239,2.49384z" data-paper-data="{&quot;index&quot;:null}" fill="url(#color-19)" stroke="#ff9b00" stroke-width="0" stroke-linecap="round"/><path d="M217.48589,192.11528l0.0702,-12.23077" fill="none" stroke="url(#color-20)" stroke-width="2" stroke-linecap="round"/><path d="M262.44952,179.88451l0.0702,12.23077" fill="none" stroke="url(#color-21)" stroke-width="2" stroke-linecap="round"/><path d="M216.39182,192.5362l0.0117,-13.58974" fill="none" stroke="url(#color-22)" stroke-width="0.5" stroke-linecap="round"/><path d="M263.60211,178.94646l0.0117,13.58974" fill="none" stroke="url(#color-23)" stroke-width="0.5" stroke-linecap="round"/><path d="M230.15751,173.00595v-12.34732l3.44799,-3.33333v15.76398z" fill="url(#color-24)" stroke="none" stroke-width="0" stroke-linecap="butt"/><path d="M230.15751,187.83928v-14.83333h3.44799v14.83333z" fill="url(#color-25)" stroke="none" stroke-width="0" stroke-linecap="butt"/><path d="M230.08146,200.01974l0.07606,-12.23611l3.44799,0.05834v13.03889h-2.12966z" fill="url(#color-26)" stroke="none" stroke-width="0" stroke-linecap="butt"/><path d="M230.19123,175.23333v-4.5h3.37701v4.5z" fill="url(#color-27)" stroke="none" stroke-width="0" stroke-linecap="butt"/><path d="M230.19123,190.33333v-4.5h3.37701v4.5z" fill="url(#color-28)" stroke="none" stroke-width="0" stroke-linecap="butt"/><g fill="none" stroke-linecap="round"><path d="M214.95841,184.17716v-6.8125" stroke="#b6b6b6" stroke-width="2.5"/><g><path d="M214.78729,185.05216v6.8125" stroke="#b6b6b6" stroke-width="3"/><path d="M215.23924,191.88451v-6.6875" stroke="#c2c2c2" stroke-width="2"/></g><path d="M215.41037,177.50951v6.6875" stroke="#c2c2c2" stroke-width="1.5"/></g><g data-paper-data="{&quot;index&quot;:null}" fill="none" stroke-linecap="round"><path d="M265.04691,184.17716v-6.8125" stroke="#b6b6b6" stroke-width="2.5"/><g><path d="M265.21804,185.05216v6.8125" stroke="#b6b6b6" stroke-width="3"/><path d="M264.76609,185.19701v6.6875" stroke="#c2c2c2" stroke-width="2"/></g><path d="M264.59496,184.19701v-6.6875" stroke="#c2c2c2" stroke-width="1.5"/></g><path d="M245.98046,207.64308c0,3.09004 -2.46993,5.59501 -5.51677,5.59501c-3.04683,0 -5.51677,-2.50497 -5.51677,-5.59501c0,-3.09004 2.46993,-5.59501 5.51677,-5.59501c3.04683,0 5.51677,2.50498 5.51677,5.59501z" fill="url(#color-29)" stroke="none" stroke-width="0" stroke-linecap="butt"/><path d="M236.69264,212.84849v-6.27273c0,0 1.62938,-0.45454 3.43638,-0.45454c1.92764,0 3.43639,0.45454 3.43639,0.45454v6.27273z" fill="url(#color-30)" stroke="none" stroke-width="0" stroke-linecap="butt"/><path d="M242.71758,204.32197l-2.48686,16.86364l-2.48686,-16.86364z" fill="url(#color-31)" stroke="#000000" stroke-width="0" stroke-linecap="round"/><path d="M245.81653,208.4453c0,3.09004 -2.46993,5.59501 -5.51677,5.59501c-3.04682,0 -5.51677,-2.50497 -5.51677,-5.59501c0,-3.09004 2.46993,-5.59501 5.51677,-5.59501c3.04682,0 5.51677,2.50497 5.51677,5.59501z" fill="url(#color-32)" stroke="none" stroke-width="0" stroke-linecap="butt"/><path d="M244.6389,206.02091c0,0.46442 -2.01171,0.84091 -4.49331,0.84091c-2.48158,0 -4.49331,-0.37649 -4.49331,-0.84091c0,-0.46442 2.01171,-0.84091 4.49331,-0.84091c2.48158,0 4.49331,0.37649 4.49331,0.84091z" fill="url(#color-33)" stroke="url(#color-34)" stroke-width="0.5" stroke-linecap="butt"/><path d="M235.92942,206.08133v-3.72414h2.91563l0.03431,4.2069c0,0 -1.1452,-0.04387 -1.65926,-0.12799c-0.46418,-0.07596 -1.29067,-0.35477 -1.29067,-0.35477z" fill="url(#color-35)" stroke="none" stroke-width="0" stroke-linecap="butt"/><path d="M243.07046,206.4361c-0.51404,0.08413 -1.65926,0.12799 -1.65926,0.12799l0.03431,-4.2069h2.91564v3.72414c0,0 -0.82651,0.2788 -1.29067,0.35477z" data-paper-data="{&quot;index&quot;:null}" fill="url(#color-36)" stroke="none" stroke-width="0" stroke-linecap="butt"/><path d="M235.4413,206.10897v-4.27273c0,0 2.52475,-0.51228 4.70242,-0.5c2.17689,0.01228 4.70242,0.5 4.70242,0.5v4.27273c0,0 -2.60859,-0.63636 -4.74764,-0.63636c-2.1692,0 -4.6572,0.63636 -4.6572,0.63636z" fill="url(#color-37)" stroke="none" stroke-width="0" stroke-linecap="butt"/><path d="M244.09288,201.86807v3.68" fill="none" stroke="#656565" stroke-width="0.5" stroke-linecap="round"/><path d="M242.93899,201.66807v3.64" fill="none" stroke="#6a6a6a" stroke-width="0.5" stroke-linecap="round"/><path d="M241.86462,201.54807l-0.03978,3.64" fill="none" stroke="#6f6f6f" stroke-width="0.5" stroke-linecap="round"/><path d="M240.67095,205.14807l0.07959,-3.68" fill="none" stroke="#747474" stroke-width="0.5" stroke-linecap="round"/><path d="M239.55686,205.18807l0.03978,-3.76" fill="none" stroke="#787878" stroke-width="0.5" stroke-linecap="round"/><path d="M238.48251,201.50807v3.76" fill="none" stroke="#7b7b7b" stroke-width="0.5" stroke-linecap="round"/><g stroke="#000000" stroke-width="0" stroke-linecap="round"><path d="M242.65667,206.62111l-2.36345,14.93246l-2.78242,-14.93246z" fill="url(#color-38)"/><path d="M243.56761,207.56953l-3.21793,20.33121l-3.78837,-20.33121z" fill="url(#color-39)"/><path d="M241.5704,206.11822c0,0 2.33213,0.54702 2.25244,2.41626c-0.19042,4.46815 -3.89849,5.49149 -3.89849,5.49149c0,0 -3.12839,-0.90981 -3.20543,-5.49149c-0.0328,-1.95089 2.16582,-2.41626 2.16582,-2.41626z" fill="url(#color-40)"/><path d="M241.06897,206.36496c0,0 1.57657,0.3698 1.52272,1.63345c-0.12872,3.02057 -2.63548,3.71239 -2.63548,3.71239c0,0 -2.11486,-0.61506 -2.16696,-3.71239c-0.02217,-1.31885 1.46416,-1.63345 1.46416,-1.63345z" fill="url(#color-41)"/><path d="M241.6474,206.0069c0,0 2.61952,0.61444 2.53006,2.71404c-0.21385,5.01881 -4.37894,6.16828 -4.37894,6.16828c0,0 -3.51392,-1.02195 -3.60049,-6.16828c-0.03685,-2.19132 2.43276,-2.71404 2.43276,-2.71404z" fill="url(#color-42)"/><path d="M240.74077,205.93395c0,0 1.14644,0.26891 1.10728,1.18781c-0.0936,2.1965 -1.91646,2.69957 -1.91646,2.69957c0,0 -1.5379,-0.44726 -1.57577,-2.69957c-0.01613,-0.95904 1.0647,-1.18781 1.0647,-1.18781z" fill="url(#color-43)"/><path d="M243.15777,206.0069c0,0 1.14646,0.26892 1.10728,1.18781c-0.0936,2.1965 -1.91648,2.69957 -1.91648,2.69957c0,0 -1.5379,-0.44726 -1.57577,-2.69957c-0.01612,-0.95904 1.06472,-1.18781 1.06472,-1.18781z" fill="url(#color-44)"/><path d="M238.32379,206.0069c0,0 1.14646,0.26892 1.10728,1.18781c-0.0936,2.1965 -1.91648,2.69957 -1.91648,2.69957c0,0 -1.5379,-0.44726 -1.57577,-2.69957c-0.01612,-0.95904 1.06472,-1.18781 1.06472,-1.18781z" fill="url(#color-45)"/></g><g fill="#01878f" stroke="#d5d5d5" stroke-width="1" stroke-linecap="square"><g><path d="M228.54967,183.64475h-0.64233l-1.68492,-2.06928c-0.13102,-0.16281 -0.25485,-0.27485 -0.3715,-0.33613c-0.11665,-0.06302 -0.22929,-0.09454 -0.33794,-0.09454c-0.14701,0 -0.27801,0.03501 -0.39306,0.10504c-0.11665,0.06828 -0.20851,0.16369 -0.27564,0.28623c-0.06711,0.12255 -0.10066,0.2626 -0.10066,0.42016c0,0.16806 0.03516,0.31687 0.10546,0.44642c0.07031,0.12955 0.16377,0.23021 0.28042,0.30199c0.11665,0.07178 0.24287,0.10504 0.37869,0.09979v0.83244c-0.2956,0 -0.55285,-0.07178 -0.77175,-0.21533c-0.21891,-0.1453 -0.38828,-0.34488 -0.50811,-0.59872c-0.12143,-0.25384 -0.18215,-0.54796 -0.18215,-0.88233c0,-0.30987 0.06312,-0.58734 0.18935,-0.83244c0.12623,-0.24684 0.30039,-0.44029 0.52249,-0.58034c0.22209,-0.1418 0.47695,-0.2127 0.76456,-0.2127c0.21092,0 0.38828,0.03151 0.53207,0.09454c0.14221,0.06127 0.27404,0.15406 0.39547,0.27835c0.11985,0.1243 0.25326,0.27835 0.40026,0.46217l1.18879,1.47055l-0.18455,0.07353v-2.37914h0.69506z"/><path d="M228.59648,185.90966c0,0.33516 -0.06476,0.63099 -0.19432,0.88749c-0.13109,0.25479 -0.31371,0.45401 -0.54781,0.59765c-0.2341,0.14364 -0.50411,0.21546 -0.81002,0.21546h-1.39061c-0.30435,0 -0.57358,-0.07182 -0.80768,-0.21546c-0.2341,-0.14364 -0.41672,-0.34285 -0.54781,-0.59765c-0.13109,-0.2565 -0.19666,-0.55233 -0.19666,-0.88749c0,-0.33516 0.06555,-0.63013 0.19666,-0.88493c0.13109,-0.25479 0.31371,-0.45401 0.54781,-0.59765c0.2341,-0.14535 0.50333,-0.21803 0.80768,-0.21803h1.39061c0.30591,0 0.57591,0.07268 0.81002,0.21803c0.2341,0.14364 0.41672,0.34285 0.54781,0.59765c0.12953,0.25479 0.19432,0.54977 0.19432,0.88493zM227.91054,185.90966c0,-0.16758 -0.0359,-0.31892 -0.10769,-0.45401c-0.07335,-0.13509 -0.17168,-0.24197 -0.29498,-0.32063c-0.12329,-0.07866 -0.26064,-0.11799 -0.41204,-0.11799h-1.49596c-0.15295,0 -0.29107,0.03933 -0.41438,0.11799c-0.12329,0.07866 -0.22085,0.18554 -0.29263,0.32063c-0.07335,0.13509 -0.11004,0.28642 -0.11004,0.45401c0,0.16587 0.03668,0.3172 0.11004,0.45401c0.07179,0.13509 0.16934,0.24197 0.29263,0.32063c0.12329,0.07866 0.26142,0.11799 0.41438,0.11799h1.49596c0.15139,0 0.28873,-0.03933 0.41204,-0.11799c0.12329,-0.07866 0.22162,-0.18554 0.29498,-0.32063c0.07179,-0.1368 0.10769,-0.28814 0.10769,-0.45401z"/></g><g data-paper-data="{&quot;index&quot;:null}"><path d="M251.01781,180.31501h0.69506v2.37914l-0.18455,-0.07353l1.18879,-1.47055c0.14701,-0.18382 0.28042,-0.33787 0.40026,-0.46217c0.12143,-0.12429 0.25326,-0.21708 0.39547,-0.27835c0.14381,-0.06303 0.32116,-0.09454 0.53207,-0.09454c0.28762,0 0.54247,0.0709 0.76456,0.2127c0.22209,0.14005 0.39626,0.3335 0.52249,0.58034c0.12623,0.2451 0.18935,0.52257 0.18935,0.83244c0,0.33437 -0.06072,0.62849 -0.18215,0.88233c-0.11985,0.25384 -0.28922,0.45342 -0.50811,0.59872c-0.21891,0.14355 -0.47615,0.21533 -0.77175,0.21533v-0.83244c0.13581,0.00525 0.26204,-0.02801 0.37869,-0.09979c0.11665,-0.07178 0.21011,-0.17244 0.28042,-0.30199c0.07031,-0.12955 0.10546,-0.27836 0.10546,-0.44642c0,-0.15756 -0.03356,-0.29761 -0.10066,-0.42016c-0.06711,-0.12254 -0.15899,-0.21795 -0.27564,-0.28623c-0.11505,-0.07003 -0.24607,-0.10504 -0.39306,-0.10504c-0.10864,0 -0.22129,0.03152 -0.33794,0.09454c-0.11665,0.06128 -0.24048,0.17332 -0.3715,0.33613l-1.68492,2.06928h-0.64233z"/><path d="M251.16532,185.02473c0.13109,-0.25479 0.31371,-0.45401 0.54781,-0.59765c0.2341,-0.14535 0.50411,-0.21803 0.81002,-0.21803h1.39061c0.30435,0 0.57358,0.07268 0.80768,0.21803c0.2341,0.14364 0.41672,0.34285 0.54781,0.59765c0.13109,0.25479 0.19666,0.54977 0.19666,0.88493c0,0.33516 -0.06555,0.63099 -0.19666,0.88749c-0.13109,0.25479 -0.31371,0.45401 -0.54781,0.59765c-0.2341,0.14364 -0.50333,0.21546 -0.80768,0.21546h-1.39061c-0.30591,0 -0.57591,-0.07182 -0.81002,-0.21546c-0.2341,-0.14364 -0.41672,-0.34285 -0.54781,-0.59765c-0.12953,-0.2565 -0.19432,-0.55233 -0.19432,-0.88749c0,-0.33516 0.06476,-0.63013 0.19432,-0.88493zM251.76463,186.36366c0.07335,0.13509 0.17168,0.24197 0.29498,0.32063c0.12329,0.07866 0.26064,0.11799 0.41204,0.11799h1.49596c0.15295,0 0.29107,-0.03933 0.41438,-0.11799c0.12329,-0.07866 0.22085,-0.18554 0.29263,-0.32063c0.07335,-0.1368 0.11004,-0.28814 0.11004,-0.45401c0,-0.16758 -0.03668,-0.31892 -0.11004,-0.45401c-0.07179,-0.13509 -0.16934,-0.24197 -0.29263,-0.32063c-0.12329,-0.07866 -0.26142,-0.11799 -0.41438,-0.11799h-1.49596c-0.15139,0 -0.28873,0.03933 -0.41204,0.11799c-0.12329,0.07866 -0.22162,0.18554 -0.29498,0.32063c-0.07179,0.13509 -0.10769,0.28642 -0.10769,0.45401c0,0.16587 0.0359,0.3172 0.10769,0.45401z"/></g></g><g stroke-width="0.25" stroke-linecap="square"><g><path d="M228.54967,183.64475h-0.64233l-1.68492,-2.06928c-0.13102,-0.16281 -0.25485,-0.27485 -0.3715,-0.33613c-0.11665,-0.06302 -0.22929,-0.09454 -0.33794,-0.09454c-0.14701,0 -0.27801,0.03501 -0.39306,0.10504c-0.11665,0.06828 -0.20851,0.16369 -0.27564,0.28623c-0.06711,0.12255 -0.10066,0.2626 -0.10066,0.42016c0,0.16806 0.03516,0.31687 0.10546,0.44642c0.07031,0.12955 0.16377,0.23021 0.28042,0.30199c0.11665,0.07178 0.24287,0.10504 0.37869,0.09979v0.83244c-0.2956,0 -0.55285,-0.07178 -0.77175,-0.21533c-0.21891,-0.1453 -0.38828,-0.34488 -0.50811,-0.59872c-0.12143,-0.25384 -0.18215,-0.54796 -0.18215,-0.88233c0,-0.30987 0.06312,-0.58734 0.18935,-0.83244c0.12623,-0.24684 0.30039,-0.44029 0.52249,-0.58034c0.22209,-0.1418 0.47695,-0.2127 0.76456,-0.2127c0.21092,0 0.38828,0.03151 0.53207,0.09454c0.14221,0.06127 0.27404,0.15406 0.39547,0.27835c0.11985,0.1243 0.25326,0.27835 0.40026,0.46217l1.18879,1.47055l-0.18455,0.07353v-2.37914h0.69506z" fill="url(#color-46)" stroke="url(#color-47)"/><path d="M228.59648,185.90966c0,0.33516 -0.06476,0.63099 -0.19432,0.88749c-0.13109,0.25479 -0.31371,0.45401 -0.54781,0.59765c-0.2341,0.14364 -0.50411,0.21546 -0.81002,0.21546h-1.39061c-0.30435,0 -0.57358,-0.07182 -0.80768,-0.21546c-0.2341,-0.14364 -0.41672,-0.34285 -0.54781,-0.59765c-0.13109,-0.2565 -0.19666,-0.55233 -0.19666,-0.88749c0,-0.33516 0.06555,-0.63013 0.19666,-0.88493c0.13109,-0.25479 0.31371,-0.45401 0.54781,-0.59765c0.2341,-0.14535 0.50333,-0.21803 0.80768,-0.21803h1.39061c0.30591,0 0.57591,0.07268 0.81002,0.21803c0.2341,0.14364 0.41672,0.34285 0.54781,0.59765c0.12953,0.25479 0.19432,0.54977 0.19432,0.88493zM227.91054,185.90966c0,-0.16758 -0.0359,-0.31892 -0.10769,-0.45401c-0.07335,-0.13509 -0.17168,-0.24197 -0.29498,-0.32063c-0.12329,-0.07866 -0.26064,-0.11799 -0.41204,-0.11799h-1.49596c-0.15295,0 -0.29107,0.03933 -0.41438,0.11799c-0.12329,0.07866 -0.22085,0.18554 -0.29263,0.32063c-0.07335,0.13509 -0.11004,0.28642 -0.11004,0.45401c0,0.16587 0.03668,0.3172 0.11004,0.45401c0.07179,0.13509 0.16934,0.24197 0.29263,0.32063c0.12329,0.07866 0.26142,0.11799 0.41438,0.11799h1.49596c0.15139,0 0.28873,-0.03933 0.41204,-0.11799c0.12329,-0.07866 0.22162,-0.18554 0.29498,-0.32063c0.07179,-0.1368 0.10769,-0.28814 0.10769,-0.45401z" fill="url(#color-48)" stroke="url(#color-49)"/></g><g data-paper-data="{&quot;index&quot;:null}"><path d="M251.01781,180.31501h0.69506v2.37914l-0.18455,-0.07353l1.18879,-1.47055c0.14701,-0.18382 0.28042,-0.33787 0.40026,-0.46217c0.12143,-0.12429 0.25326,-0.21708 0.39547,-0.27835c0.14381,-0.06303 0.32116,-0.09454 0.53207,-0.09454c0.28762,0 0.54247,0.0709 0.76456,0.2127c0.22209,0.14005 0.39626,0.3335 0.52249,0.58034c0.12623,0.2451 0.18935,0.52257 0.18935,0.83244c0,0.33437 -0.06072,0.62849 -0.18215,0.88233c-0.11985,0.25384 -0.28922,0.45342 -0.50811,0.59872c-0.21891,0.14355 -0.47615,0.21533 -0.77175,0.21533v-0.83244c0.13581,0.00525 0.26204,-0.02801 0.37869,-0.09979c0.11665,-0.07178 0.21011,-0.17244 0.28042,-0.30199c0.07031,-0.12955 0.10546,-0.27836 0.10546,-0.44642c0,-0.15756 -0.03356,-0.29761 -0.10066,-0.42016c-0.06711,-0.12254 -0.15899,-0.21795 -0.27564,-0.28623c-0.11505,-0.07003 -0.24607,-0.10504 -0.39306,-0.10504c-0.10864,0 -0.22129,0.03152 -0.33794,0.09454c-0.11665,0.06128 -0.24048,0.17332 -0.3715,0.33613l-1.68492,2.06928h-0.64233z" fill="url(#color-50)" stroke="url(#color-51)"/><path d="M251.16532,185.02473c0.13109,-0.25479 0.31371,-0.45401 0.54781,-0.59765c0.2341,-0.14535 0.50411,-0.21803 0.81002,-0.21803h1.39061c0.30435,0 0.57358,0.07268 0.80768,0.21803c0.2341,0.14364 0.41672,0.34285 0.54781,0.59765c0.13109,0.25479 0.19666,0.54977 0.19666,0.88493c0,0.33516 -0.06555,0.63099 -0.19666,0.88749c-0.13109,0.25479 -0.31371,0.45401 -0.54781,0.59765c-0.2341,0.14364 -0.50333,0.21546 -0.80768,0.21546h-1.39061c-0.30591,0 -0.57591,-0.07182 -0.81002,-0.21546c-0.2341,-0.14364 -0.41672,-0.34285 -0.54781,-0.59765c-0.12953,-0.2565 -0.19432,-0.55233 -0.19432,-0.88749c0,-0.33516 0.06476,-0.63013 0.19432,-0.88493zM251.76463,186.36366c0.07335,0.13509 0.17168,0.24197 0.29498,0.32063c0.12329,0.07866 0.26064,0.11799 0.41204,0.11799h1.49596c0.15295,0 0.29107,-0.03933 0.41438,-0.11799c0.12329,-0.07866 0.22085,-0.18554 0.29263,-0.32063c0.07335,-0.1368 0.11004,-0.28814 0.11004,-0.45401c0,-0.16758 -0.03668,-0.31892 -0.11004,-0.45401c-0.07179,-0.13509 -0.16934,-0.24197 -0.29263,-0.32063c-0.12329,-0.07866 -0.26142,-0.11799 -0.41438,-0.11799h-1.49596c-0.15139,0 -0.28873,0.03933 -0.41204,0.11799c-0.12329,0.07866 -0.22162,0.18554 -0.29498,0.32063c-0.07179,0.13509 -0.10769,0.28642 -0.10769,0.45401c0,0.16587 0.0359,0.3172 0.10769,0.45401z" fill="url(#color-52)" stroke="url(#color-53)"/></g></g><path d="M213.89287,178.73809v-0.92857h2.28177v0.92857z" fill="#ff0000" stroke="none" stroke-width="0" stroke-linecap="butt"/><path d="M263.88887,178.73809v-0.92857h2.28177v0.92857z" fill="#ff0000" stroke="none" stroke-width="0" stroke-linecap="butt"/></g></g></svg>