<svg version="1.1" xmlns="http://www.w3.org/2000/svg" xmlns:xlink="http://www.w3.org/1999/xlink" width="273.81822" height="273.81822" viewBox="0,0,273.81822,273.81822"><defs><radialGradient cx="218.51488" cy="195.33174" r="11.09857" gradientUnits="userSpaceOnUse" id="color-1"><stop offset="0" stop-color="#ffca00"/><stop offset="1" stop-color="#ffca00" stop-opacity="0"/></radialGradient><radialGradient cx="210.2344" cy="195.35203" r="9.69654" gradientUnits="userSpaceOnUse" id="color-2"><stop offset="0" stop-color="#ffca00"/><stop offset="1" stop-color="#ffca00" stop-opacity="0"/></radialGradient><radialGradient cx="227.91526" cy="195.2449" r="12.72433" gradientUnits="userSpaceOnUse" id="color-3"><stop offset="0" stop-color="#ffca00"/><stop offset="1" stop-color="#ffca00" stop-opacity="0"/></radialGradient><radialGradient cx="238.98482" cy="194.65091" r="15.67238" gradientUnits="userSpaceOnUse" id="color-4"><stop offset="0" stop-color="#ffca00"/><stop offset="1" stop-color="#ffca00" stop-opacity="0"/></radialGradient><radialGradient cx="205.33762" cy="195.55421" r="6.96757" gradientUnits="userSpaceOnUse" id="color-5"><stop offset="0" stop-color="#ffca00"/><stop offset="1" stop-color="#ffca00" stop-opacity="0"/></radialGradient><linearGradient x1="243.6965" y1="195.49982" x2="187.37111" y2="195.06452" gradientUnits="userSpaceOnUse" id="color-6"><stop offset="0" stop-color="#b850ff"/><stop offset="1" stop-color="#b850ff" stop-opacity="0"/></linearGradient><linearGradient x1="251.43193" y1="195.26665" x2="155.04164" y2="194.78178" gradientUnits="userSpaceOnUse" id="color-7"><stop offset="0" stop-color="#ffca00"/><stop offset="1" stop-color="#ffca00" stop-opacity="0"/></linearGradient><linearGradient x1="249.1965" y1="195.33315" x2="192.87111" y2="194.89785" gradientUnits="userSpaceOnUse" id="color-8"><stop offset="0" stop-color="#ffca00"/><stop offset="1" stop-color="#ffca00" stop-opacity="0"/></linearGradient><radialGradient cx="235.09514" cy="195.31373" r="4.66228" gradientUnits="userSpaceOnUse" id="color-9"><stop offset="0" stop-color="#ffaa00"/><stop offset="1" stop-color="#ffaa00" stop-opacity="0"/></radialGradient><linearGradient x1="245.27655" y1="195.08393" x2="210.29858" y2="194.8136" gradientUnits="userSpaceOnUse" id="color-10"><stop offset="0" stop-color="#ffc000"/><stop offset="1" stop-color="#ffc000" stop-opacity="0"/></linearGradient><radialGradient cx="239.75086" cy="195.48774" r="6.19551" gradientUnits="userSpaceOnUse" id="color-11"><stop offset="0" stop-color="#ffab00"/><stop offset="1" stop-color="#ffab00" stop-opacity="0"/></radialGradient><linearGradient x1="247.64752" y1="195.30175" x2="205.89635" y2="194.97908" gradientUnits="userSpaceOnUse" id="color-12"><stop offset="0" stop-color="#ff7800"/><stop offset="1" stop-color="#ff7800" stop-opacity="0"/></linearGradient><linearGradient x1="245.11117" y1="195.30516" x2="229.36897" y2="194.9876" gradientUnits="userSpaceOnUse" id="color-13"><stop offset="0" stop-color="#ffab00"/><stop offset="1" stop-color="#ffab00" stop-opacity="0"/></linearGradient></defs><g transform="translate(-103.09089,-43.09089)"><g data-paper-data="{&quot;isPaintingLayer&quot;:true}" fill-rule="nonzero" stroke-linejoin="miter" stroke-miterlimit="10" stroke-dasharray="" stroke-dashoffset="0" style="mix-blend-mode: normal"><g stroke="none" stroke-width="0" stroke-linecap="butt"><path d="M229.61342,195.33174c0,6.10233 -4.969,11.04925 -11.09857,11.04925c-6.12957,0 -11.09857,-4.94692 -11.09857,-11.04925c0,-6.10233 4.969,-11.04924 11.09857,-11.04924c6.12957,0 11.09857,4.94691 11.09857,11.04924z" fill="url(#color-1)"/><path d="M219.93094,195.35203c0,5.33145 -4.34129,9.65345 -9.69654,9.65345c-5.35525,0 -9.69654,-4.322 -9.69654,-9.65345c0,-5.33145 4.34128,-9.65344 9.69654,-9.65344c5.35525,0 9.69654,4.32199 9.69654,9.65344z" fill="url(#color-2)"/><path d="M240.63962,195.2449c0,6.99623 -5.69688,12.66778 -12.72433,12.66778c-7.02746,0 -12.72434,-5.67156 -12.72434,-12.66778c0,-6.99623 5.69688,-12.66778 12.72434,-12.66778c7.02746,0 12.72433,5.67156 12.72433,12.66778z" fill="url(#color-3)"/><path d="M254.6572,194.65091c0,8.61715 -7.01676,15.60273 -15.67238,15.60273c-8.65562,0 -15.6724,-6.98558 -15.6724,-15.60273c0,-8.61715 7.01678,-15.60273 15.6724,-15.60273c8.65562,0 15.67238,6.98558 15.67238,15.60273z" fill="url(#color-4)"/><path d="M212.30521,195.55421c0,3.83098 -3.11948,6.9366 -6.96757,6.9366c-3.84808,0 -6.96757,-3.10562 -6.96757,-6.9366c0,-3.83098 3.11948,-6.93661 6.96757,-6.93661c3.84808,0 6.96757,3.10563 6.96757,6.93661z" fill="url(#color-5)"/></g><path d="M231.42806,199.73263c-2.34072,-0.01809 -10.1271,0.13354 -17.16067,-0.33343c-6.33873,-0.42083 -14.71251,-0.71485 -19.80585,-1.47472c-5.26247,-0.78507 -7.14041,-2.0418 -7.09247,-2.82611c0.04676,-0.7657 2.09788,-2.13943 7.10678,-2.83724c5.34033,-0.74397 13.85555,-0.79788 20.63941,-1.13823c6.67831,-0.33504 14.6075,-0.04702 16.84077,-0.02976c6.62965,0.05124 8.55253,2.02678 8.40677,4.41251c-0.14577,2.38573 -2.30504,4.27822 -8.93473,4.22698z" fill="url(#color-6)" stroke="none" stroke-width="0" stroke-linecap="butt"/><path d="M230.4368,199.98152c-4.00569,-0.02015 -17.33062,0.14875 -29.36725,-0.3714c-10.84754,-0.46875 -25.17769,-0.79626 -33.89397,-1.64267c-9.00572,-0.87447 -12.21946,-2.27434 -12.13741,-3.14796c0.08003,-0.85291 3.59013,-2.38308 12.16191,-3.16036c9.13895,-0.82869 23.71114,-0.88875 35.32046,-1.26785c11.42867,-0.3732 24.99797,-0.05238 28.81979,-0.03315c11.34541,0.05707 14.63604,2.2576 14.38658,4.91503c-0.24944,2.65743 -3.94465,4.76544 -15.29011,4.70837z" fill="url(#color-7)" stroke="none" stroke-width="0" stroke-linecap="butt"/><path d="M236.92806,199.56597c-2.34072,-0.01809 -10.1271,0.13354 -17.16067,-0.33343c-6.33873,-0.42083 -14.71251,-0.71485 -19.80585,-1.47472c-5.26247,-0.78507 -7.14041,-2.0418 -7.09247,-2.82611c0.04676,-0.7657 2.09788,-2.13943 7.10678,-2.83725c5.34033,-0.74397 13.85555,-0.79788 20.63941,-1.13822c6.67831,-0.33504 14.6075,-0.04702 16.84077,-0.02976c6.62965,0.05124 8.55253,2.02678 8.40677,4.41251c-0.14577,2.38573 -2.30504,4.27822 -8.93473,4.22698z" fill="url(#color-8)" stroke="none" stroke-width="0" stroke-linecap="butt"/><path d="M234.97596,199.97449c-2.57407,-0.06582 -4.6074,-2.20587 -4.54158,-4.77994c0.06582,-2.57407 2.20587,-4.6074 4.77994,-4.54158c2.57407,0.06582 4.6074,2.20587 4.54158,4.77994c-0.06582,2.57407 -2.20587,4.6074 -4.77994,4.54158z" fill="url(#color-9)" stroke="none" stroke-width="NaN" stroke-linecap="butt"/><path d="M237.65791,197.7125c-1.45359,-0.01123 -6.28892,0.08293 -10.65676,-0.20705c-3.93634,-0.26133 -9.13645,-0.44392 -12.29941,-0.9158c-3.26799,-0.48753 -4.43419,-1.26796 -4.40441,-1.75501c0.02904,-0.4755 1.30278,-1.32859 4.4133,-1.76193c3.31634,-0.462 8.60427,-0.49549 12.81704,-0.70684c4.14722,-0.20806 9.07124,-0.0292 10.4581,-0.01848c4.11701,0.03182 5.31111,1.25863 5.22059,2.74016c-0.09052,1.48154 -1.43143,2.65677 -5.54846,2.62494z" fill="url(#color-10)" stroke="none" stroke-width="0" stroke-linecap="butt"/><path d="M239.59246,201.68123c-3.42057,-0.08747 -6.12258,-2.9313 -6.03511,-6.35186c0.08747,-3.42057 2.9313,-6.12258 6.35186,-6.03511c3.42057,0.08747 6.12258,2.9313 6.03511,6.35186c-0.08747,3.42057 -2.9313,6.12258 -6.35186,6.03511z" fill="url(#color-11)" stroke="none" stroke-width="NaN" stroke-linecap="butt"/><path d="M238.5536,198.43932c-1.73506,-0.01342 -7.50672,0.09899 -12.72036,-0.24715c-4.69859,-0.31194 -10.90566,-0.52988 -14.6811,-1.09314c-3.90081,-0.58193 -5.29283,-1.51349 -5.25729,-2.09486c0.03466,-0.56758 1.55506,-1.58585 5.26791,-2.1031c3.95852,-0.55147 10.27043,-0.59143 15.29898,-0.84371c4.9503,-0.24835 10.82781,-0.03485 12.48323,-0.02206c4.91423,0.03798 6.33957,1.50235 6.23152,3.27077c-0.10805,1.76843 -1.70861,3.17123 -6.62287,3.13325z" fill="url(#color-12)" stroke="none" stroke-width="0" stroke-linecap="butt"/><path d="M241.68235,198.39309c-0.6542,-0.0132 -2.83039,0.09742 -4.79618,-0.24324c-1.77159,-0.307 -4.11195,-0.5215 -5.53547,-1.07584c-1.47079,-0.57272 -1.99565,-1.48954 -1.98225,-2.06171c0.01307,-0.5586 0.58633,-1.56076 1.98625,-2.06983c1.49255,-0.54274 3.87244,-0.58207 5.76844,-0.83036c1.8665,-0.24442 4.0826,-0.0343 4.70677,-0.02171c1.8529,0.03738 3.32194,1.47858 3.2812,3.21902c-0.04074,1.74044 -1.57585,3.12105 -3.42876,3.08367z" fill="url(#color-13)" stroke="none" stroke-width="0" stroke-linecap="butt"/><path d="M236.67206,195.38083c0.02538,-1.08404 0.98152,-1.94393 2.1356,-1.92066c1.15407,0.02328 2.06907,0.92094 2.0437,2.00497c-0.02538,1.08404 -0.98152,1.94393 -2.13559,1.92066c-1.15407,-0.02328 -2.06907,-0.92093 -2.0437,-2.00497z" data-paper-data="{&quot;index&quot;:null}" fill="#f18500" stroke="none" stroke-width="0" stroke-linecap="butt"/><path d="M237.58708,195.44029c0.02538,-1.08404 0.98152,-1.94393 2.13559,-1.92066c1.15407,0.02328 2.06907,0.92094 2.0437,2.00497c-0.02538,1.08404 -0.98151,1.94394 -2.13559,1.92066c-1.15407,-0.02328 -2.06908,-0.92094 -2.04371,-2.00497z" data-paper-data="{&quot;index&quot;:null}" fill="#f18500" stroke="none" stroke-width="0" stroke-linecap="butt"/><path d="M240.634,197.46548c-1.15407,-0.02328 -2.06907,-0.92093 -2.0437,-2.00497c0.02538,-1.08404 0.98151,-1.94394 2.13559,-1.92066c1.15407,0.02328 2.06908,0.92094 2.04371,2.00497c-0.02538,1.08404 -0.98152,1.94392 -2.13559,1.92066z" fill="#ff8d00" stroke="none" stroke-width="0" stroke-linecap="butt"/><path d="M236.01305,200.06409c-0.20398,0.28655 -0.42966,0.4457 -0.66702,0.4457c-0.9122,0 -1.65168,-2.3505 -1.65168,-5.25c0,-2.8995 0.73948,-5.25 1.65168,-5.25c0.25956,0 0.50513,0.19031 0.72367,0.52942" fill="none" stroke="#ff9801" stroke-width="0.5" stroke-linecap="butt"/><path d="M227.38805,199.93909c-0.20398,0.28655 -0.42966,0.4457 -0.66702,0.4457c-0.9122,0 -1.65168,-2.3505 -1.65168,-5.25c0,-2.8995 0.73948,-5.25 1.65168,-5.25c0.25956,0 0.50513,0.19031 0.72367,0.52942" fill="none" stroke="#fc9e0b" stroke-width="0.5" stroke-linecap="butt"/><path d="M231.63805,200.06409c-0.20398,0.28655 -0.42966,0.4457 -0.66702,0.4457c-0.9122,0 -1.65168,-2.3505 -1.65168,-5.25c0,-2.8995 0.73948,-5.25 1.65168,-5.25c0.25956,0 0.50513,0.19031 0.72367,0.52942" fill="none" stroke="#ff9801" stroke-width="0.5" stroke-linecap="butt"/><path d="M223.12657,199.5274c-0.19535,0.27443 -0.41146,0.42683 -0.63878,0.42683c-0.87359,0 -1.58177,-2.25101 -1.58177,-5.02778c0,-2.77677 0.70818,-5.02777 1.58177,-5.02777c0.24857,0 0.48375,0.18225 0.69304,0.50701" fill="none" stroke="#f7a419" stroke-width="0.5" stroke-linecap="butt"/><path d="M218.29097,199.32876c-0.18455,0.25926 -0.38873,0.40326 -0.60349,0.40326c-0.82532,0 -1.49438,-2.12665 -1.49438,-4.75001c0,-2.62336 0.66906,-4.74999 1.49438,-4.74999c0.23484,0 0.45703,0.17218 0.65475,0.47899" fill="none" stroke="#f8a41a" stroke-width="0.5" stroke-linecap="butt"/><path d="M212.62612,199.2318c-0.17808,0.25017 -0.37509,0.38911 -0.58231,0.38911c-0.79637,0 -1.44195,-2.05204 -1.44195,-4.58334c0,-2.53131 0.64559,-4.58333 1.44195,-4.58333c0.2266,0 0.441,0.16614 0.63178,0.46219" fill="none" stroke="#f1a632" stroke-width="0.5" stroke-linecap="butt"/><path d="M206.18522,198.92676c-0.16513,0.23198 -0.34781,0.36081 -0.53996,0.36081c-0.73845,0 -1.33708,-1.9028 -1.33708,-4.25001c0,-2.34721 0.59863,-4.25 1.33708,-4.25c0.21012,0 0.40892,0.15406 0.58583,0.42858" fill="none" stroke="#e8a34c" stroke-width="0.5" stroke-linecap="butt"/><path d="M198.6375,198.2103c-0.13707,0.19255 -0.28871,0.29949 -0.4482,0.29949c-0.61296,0 -1.10987,-1.57944 -1.10987,-3.52778c0,-1.94834 0.49691,-3.52777 1.10987,-3.52777c0.17441,0 0.33943,0.12788 0.48627,0.35575" fill="none" stroke="#e39669" stroke-width="0.5" stroke-linecap="butt"/><path d="M191.99047,194.94266c0,1.56481 -0.42284,2.83333 -0.94444,2.83333c-0.5216,0 -0.94444,-1.26853 -0.94444,-2.83333c0,-1.56481 0.42284,-2.83333 0.94444,-2.83333c0.5216,0 0.94444,1.26853 0.94444,2.83333z" fill="none" stroke="#ca80aa" stroke-width="0.5" stroke-linecap="butt"/><path d="M184.21271,194.99821c0,1.2273 -0.29848,2.22222 -0.66667,2.22222c-0.36819,0 -0.66667,-0.99492 -0.66667,-2.22222c0,-1.2273 0.29848,-2.22222 0.66667,-2.22222c0.36819,0 0.66667,0.99492 0.66667,2.22222z" fill="none" stroke="#ca80aa" stroke-width="0.5" stroke-linecap="butt"/><path d="M136.21546,285.06668l207.56911,-200.80003" fill="none" stroke="none" stroke-width="0" stroke-linecap="round"/><path d="M347.2831,259.06518l-207.56911,-200.80003" data-paper-data="{&quot;index&quot;:null}" fill="none" stroke="none" stroke-width="0" stroke-linecap="round"/><path d="M103.09089,316.90911v-273.81822h273.81822v273.81822z" fill="none" stroke="none" stroke-width="0" stroke-linecap="butt"/></g></g></svg>