<svg version="1.1" xmlns="http://www.w3.org/2000/svg" xmlns:xlink="http://www.w3.org/1999/xlink" width="36.70522" height="29.11524" viewBox="0,0,36.70522,29.11524"><defs><linearGradient x1="259.3928" y1="178.05527" x2="259.3928" y2="182.3926" gradientUnits="userSpaceOnUse" id="color-1"><stop offset="0" stop-color="#a1a1a1"/><stop offset="1" stop-color="#a7a7a7"/></linearGradient><linearGradient x1="259.3928" y1="178.05527" x2="259.3928" y2="182.3926" gradientUnits="userSpaceOnUse" id="color-2"><stop offset="0" stop-color="#a2a2a2"/><stop offset="1" stop-color="#a7a7a7"/></linearGradient><linearGradient x1="248.4984" y1="180.22393" x2="249.63059" y2="180.22393" gradientUnits="userSpaceOnUse" id="color-3"><stop offset="0" stop-color="#898989"/><stop offset="1" stop-color="#a1a1a1"/></linearGradient><linearGradient x1="250.26744" y1="180.22393" x2="253.16869" y2="180.22393" gradientUnits="userSpaceOnUse" id="color-4"><stop offset="0" stop-color="#898989"/><stop offset="1" stop-color="#a1a1a1"/></linearGradient><linearGradient x1="255.07925" y1="180.27008" x2="256.77755" y2="180.27008" gradientUnits="userSpaceOnUse" id="color-5"><stop offset="0" stop-color="#a1a1a1"/><stop offset="1" stop-color="#898989"/></linearGradient><linearGradient x1="873.61717" y1="470.25878" x2="229.82271" y2="470.25878" gradientUnits="userSpaceOnUse" id="color-6"><stop offset="0" stop-color="#ffffff"/><stop offset="1" stop-color="#ffffff" stop-opacity="0"/></linearGradient><radialGradient cx="242.4086" cy="172.42108" r="8.57925" gradientUnits="userSpaceOnUse" id="color-7"><stop offset="0" stop-color="#696969"/><stop offset="1" stop-color="#505050"/></radialGradient><linearGradient x1="231.62535" y1="180.06509" x2="239.22046" y2="180.06509" gradientUnits="userSpaceOnUse" id="color-8"><stop offset="0" stop-color="#454545"/><stop offset="1" stop-color="#474747"/></linearGradient></defs><g transform="translate(-225.4113,-165.44238)"><g data-paper-data="{&quot;isPaintingLayer&quot;:true}" fill-rule="nonzero" stroke-linejoin="miter" stroke-miterlimit="10" stroke-dasharray="" stroke-dashoffset="0" style="mix-blend-mode: normal"><g><g stroke-linecap="butt"><path d="M246.77703,181.65433v-2.7685h10.61431v2.7685z" fill="#a1a1a1" stroke="#a1a1a1" stroke-width="0.5"/><path d="M256.91907,182.3926v-4.33734h4.94745v4.33734z" fill="url(#color-1)" stroke="url(#color-2)" stroke-width="0.5"/><path d="M242.83744,181.93116v-3.4145h7.28849v3.4145z" fill="#a1a1a1" stroke="#a1a1a1" stroke-width="0.5"/><path d="M248.4984,182.11576v-3.78363h1.1322v3.78363z" fill="url(#color-3)" stroke="none" stroke-width="0"/><path d="M250.26744,181.74661v-3.04536h2.90125v3.04536z" fill="url(#color-4)" stroke="none" stroke-width="0"/><path d="M255.07925,181.83888v-3.13763h1.6983v3.13763z" fill="url(#color-5)" stroke="none" stroke-width="0"/></g><path d="M250.31651,190.1267c-5.92471,5.9247 -14.60273,5.89106 -20.4938,0c-5.89106,-5.89106 -5.8727,-14.50054 0,-20.37324c5.8727,-5.8727 14.7511,-5.62215 20.37325,0c5.62214,5.62214 6.04525,14.44854 0.12055,20.37324z" data-paper-data="{&quot;index&quot;:null}" fill="url(#color-6)" stroke="none" stroke-width="0" stroke-linecap="butt"/><path d="M248.64838,180.08456c0,4.71605 -3.84105,8.53916 -8.57925,8.53916c-4.7382,0 -8.57925,-3.82311 -8.57925,-8.53916c0,-4.71605 3.84107,-8.53916 8.57925,-8.53916c4.7382,0 8.57925,3.82311 8.57925,8.53916z" fill="#00fffd" stroke="none" stroke-width="NaN" stroke-linecap="butt"/><path d="M248.64838,180.08456c0,4.71605 -3.84105,8.53916 -8.57925,8.53916c-4.7382,0 -8.57925,-3.82311 -8.57925,-8.53916c0,-4.71605 3.84107,-8.53916 8.57925,-8.53916c4.7382,0 8.57925,3.82311 8.57925,8.53916z" fill="url(#color-7)" stroke="none" stroke-width="NaN" stroke-linecap="butt"/><path d="M234.78088,186.46157c0,0 -3.14672,-1.96648 -3.15552,-6.54197c-0.00895,-4.65354 3.03868,-6.251 3.03868,-6.251l4.55641,2.45345v7.30193z" fill="url(#color-8)" stroke="#000000" stroke-width="0" stroke-linecap="round"/><path d="M247.24533,180.08456c0,3.96331 -3.2129,7.1762 -7.17621,7.1762c-3.96331,0 -7.17621,-3.21289 -7.17621,-7.1762c0,-3.96331 3.2129,-7.17621 7.17621,-7.17621c3.96331,0 7.17621,3.2129 7.17621,7.17621z" fill="none" stroke="#ff0000" stroke-width="1" stroke-linecap="butt"/><path d="M245.01427,180.08456c0,2.73112 -2.21403,4.94514 -4.94514,4.94514c-2.73112,0 -4.94514,-2.21402 -4.94514,-4.94514c0,-2.73112 2.21402,-4.94514 4.94514,-4.94514c2.73112,0 4.94514,2.21403 4.94514,4.94514z" fill="none" stroke="#575757" stroke-width="1.5" stroke-linecap="butt"/></g></g></g></svg>