<svg version="1.1" xmlns="http://www.w3.org/2000/svg" xmlns:xlink="http://www.w3.org/1999/xlink" width="349.5" height="356.18362" viewBox="0,0,349.5,356.18362"><defs><radialGradient cx="329.83334" cy="260.47642" r="16" gradientUnits="userSpaceOnUse" id="color-1"><stop offset="0" stop-color="#66ebff"/><stop offset="1" stop-color="#66ebff" stop-opacity="0"/></radialGradient><radialGradient cx="313.83334" cy="260.14308" r="16" gradientUnits="userSpaceOnUse" id="color-2"><stop offset="0" stop-color="#66ebff"/><stop offset="1" stop-color="#66ebff" stop-opacity="0"/></radialGradient><linearGradient x1="295.5" y1="246.33333" x2="346.5" y2="246.33333" gradientUnits="userSpaceOnUse" id="color-3"><stop offset="0" stop-color="#849695"/><stop offset="1" stop-color="#98adac"/></linearGradient><linearGradient x1="295.33333" y1="242.66667" x2="346.33333" y2="242.66667" gradientUnits="userSpaceOnUse" id="color-4"><stop offset="0" stop-color="#768685"/><stop offset="1" stop-color="#819392"/></linearGradient><radialGradient cx="169.83334" cy="261.47642" r="16" gradientUnits="userSpaceOnUse" id="color-5"><stop offset="0" stop-color="#66ebff"/><stop offset="1" stop-color="#66ebff" stop-opacity="0"/></radialGradient><radialGradient cx="153.83333" cy="261.14308" r="16" gradientUnits="userSpaceOnUse" id="color-6"><stop offset="0" stop-color="#66ebff"/><stop offset="1" stop-color="#66ebff" stop-opacity="0"/></radialGradient><linearGradient x1="137.5" y1="247.33333" x2="188.5" y2="247.33333" gradientUnits="userSpaceOnUse" id="color-7"><stop offset="0" stop-color="#849695"/><stop offset="1" stop-color="#98adac"/></linearGradient><linearGradient x1="137.33333" y1="243.66666" x2="188.33333" y2="243.66666" gradientUnits="userSpaceOnUse" id="color-8"><stop offset="0" stop-color="#768685"/><stop offset="1" stop-color="#819392"/></linearGradient><radialGradient cx="241.75914" cy="325.97665" r="24.55753" gradientUnits="userSpaceOnUse" id="color-9"><stop offset="0" stop-color="#ffffff"/><stop offset="1" stop-color="#ffffff" stop-opacity="0"/></radialGradient><linearGradient x1="228.78519" y1="271.37177" x2="272.26316" y2="364.53886" gradientUnits="userSpaceOnUse" id="color-10"><stop offset="0" stop-color="#ffffff"/><stop offset="1" stop-color="#ffffff" stop-opacity="0"/></linearGradient><radialGradient cx="255.74168" cy="331.73414" r="8.51875" gradientUnits="userSpaceOnUse" id="color-11"><stop offset="0" stop-color="#ffffff"/><stop offset="1" stop-color="#ffffff" stop-opacity="0"/></radialGradient><linearGradient x1="255.44478" y1="272.05725" x2="211.96681" y2="365.22428" gradientUnits="userSpaceOnUse" id="color-12"><stop offset="0" stop-color="#ffffff"/><stop offset="1" stop-color="#ffffff" stop-opacity="0"/></linearGradient><radialGradient cx="227.83545" cy="333.49662" r="8.51875" gradientUnits="userSpaceOnUse" id="color-13"><stop offset="0" stop-color="#ffffff"/><stop offset="1" stop-color="#ffffff" stop-opacity="0"/></radialGradient><radialGradient cx="238.58273" cy="243.23852" r="145.16666" gradientUnits="userSpaceOnUse" id="color-14"><stop offset="0" stop-color="#385e5c"/><stop offset="1" stop-color="#457371"/></radialGradient><radialGradient cx="243.37634" cy="210.23879" r="69.66667" gradientUnits="userSpaceOnUse" id="color-15"><stop offset="0" stop-color="#3a6563"/><stop offset="1" stop-color="#51827f"/></radialGradient><radialGradient cx="238.58273" cy="239.23852" r="145.16666" gradientUnits="userSpaceOnUse" id="color-16"><stop offset="0" stop-color="#3a6563"/><stop offset="1" stop-color="#51827f"/></radialGradient><linearGradient x1="239.43951" y1="20.23709" x2="239.53761" y2="89.23702" gradientUnits="userSpaceOnUse" id="color-17"><stop offset="0" stop-color="#364b4a"/><stop offset="1" stop-color="#3d5453"/></linearGradient><linearGradient x1="76.91667" y1="237.66666" x2="202.91667" y2="237.66666" gradientUnits="userSpaceOnUse" id="color-18"><stop offset="0" stop-color="#426c6a"/><stop offset="1" stop-color="#355a59"/></linearGradient><linearGradient x1="277.75" y1="237.66666" x2="403.75" y2="237.66666" gradientUnits="userSpaceOnUse" id="color-19"><stop offset="0" stop-color="#355a59"/><stop offset="1" stop-color="#426c6a"/></linearGradient><linearGradient x1="76.91667" y1="234" x2="202.91667" y2="234" gradientUnits="userSpaceOnUse" id="color-20"><stop offset="0" stop-color="#497876"/><stop offset="1" stop-color="#3c6563"/></linearGradient><linearGradient x1="403.75" y1="234" x2="277.75" y2="234" gradientUnits="userSpaceOnUse" id="color-21"><stop offset="0" stop-color="#497876"/><stop offset="1" stop-color="#3c6563"/></linearGradient></defs><g transform="translate(-65.77778,-18.68168)"><g data-paper-data="{&quot;isPaintingLayer&quot;:true}" fill-rule="nonzero" stroke-linejoin="miter" stroke-miterlimit="10" stroke-dasharray="" stroke-dashoffset="0" style="mix-blend-mode: normal"><g stroke="none" stroke-linecap="butt"><g><path d="M313.83334,260.47642c0,-8.83656 7.16344,-16 16,-16c8.83655,0 16,7.16345 16,16c0,8.83655 -7.16345,16 -16,16c-8.83656,0 -16,-7.16345 -16,-16z" fill="url(#color-1)" stroke-width="NaN"/><path d="M297.83334,260.14308c0,-8.83656 7.16344,-16 16,-16c8.83655,0 16,7.16344 16,16c0,8.83655 -7.16345,16 -16,16c-8.83656,0 -16,-7.16345 -16,-16z" fill="url(#color-2)" stroke-width="NaN"/></g><path d="M295.5,261.33333v-37h51v37c0,0 -7.41831,7 -25,7c-17.41504,0 -26,-7 -26,-7z" fill="url(#color-3)" stroke-width="0"/><path d="M295.33333,257.66667v-37h51v37c0,0 -7.41831,7 -25,7c-17.41504,0 -26,-7 -26,-7z" fill="url(#color-4)" stroke-width="0"/></g><g stroke="none" stroke-linecap="butt"><g><path d="M153.83334,261.47642c0,-8.83656 7.16344,-16 16,-16c8.83656,0 16,7.16344 16,16c0,8.83655 -7.16344,16 -16,16c-8.83656,0 -16,-7.16345 -16,-16z" fill="url(#color-5)" stroke-width="NaN"/><path d="M137.83333,261.14308c0,-8.83656 7.16344,-16 16,-16c8.83656,0 16,7.16344 16,16c0,8.83656 -7.16344,16 -16,16c-8.83656,0 -16,-7.16344 -16,-16z" fill="url(#color-6)" stroke-width="NaN"/></g><path d="M137.5,262.33333v-37h51v37c0,0 -7.41831,7 -25,7c-17.41504,0 -26,-7 -26,-7z" fill="url(#color-7)" stroke-width="0"/><path d="M137.33333,258.66666v-37h51v37c0,0 -7.41831,7 -25,7c-17.41504,0 -26,-7 -26,-7z" fill="url(#color-8)" stroke-width="0"/></g><g><g><path d="M241.75914,301.41906c13.56276,0 24.55759,10.99483 24.55759,24.55759c0,13.56276 -10.99483,24.55753 -24.55759,24.55753c-13.56276,0 -24.55753,-10.9947 -24.55753,-24.55753c0,-13.56276 10.9947,-24.55759 24.55753,-24.55759z" fill="url(#color-9)" stroke="none" stroke-width="0" stroke-linecap="butt"/><path d="M285.67664,363.8083l-19.28743,10.3716l-14.71601,-42.01141l9.0062,-4.20284z" data-paper-data="{&quot;index&quot;:null}" fill="url(#color-10)" stroke="#ffffff" stroke-width="0" stroke-linecap="butt"/><path d="M255.74168,323.21539c4.70479,0 8.51881,3.81402 8.51881,8.51881c0,4.70479 -3.81402,8.51875 -8.51881,8.51875c-4.70479,0 -8.51875,-3.81396 -8.51875,-8.51875c0,-4.70479 3.81396,-8.51881 8.51875,-8.51881z" fill="url(#color-11)" stroke="none" stroke-width="0" stroke-linecap="butt"/><path d="M259.34405,327.40873l-3.70126,6.16876l-2.4675,1.54219" data-paper-data="{&quot;index&quot;:null}" fill="none" stroke="#777777" stroke-width="4" stroke-linecap="round"/></g><path d="M223.55056,328.65105l9.0062,4.20284l-14.71601,42.01141l-19.28743,-10.37166z" fill="url(#color-12)" stroke="#ffffff" stroke-width="0" stroke-linecap="butt"/><path d="M227.83545,324.97787c4.70479,0 8.51875,3.81396 8.51875,8.51875c0,4.70479 -3.81396,8.51875 -8.51875,8.51875c-4.70479,0 -8.51875,-3.81396 -8.51875,-8.51875c0,-4.70479 3.81396,-8.51875 8.51875,-8.51875z" fill="url(#color-13)" stroke="none" stroke-width="0" stroke-linecap="butt"/><path d="M229.24051,336.35343l-2.4675,-1.54219l-3.70126,-6.16876" fill="none" stroke="#777777" stroke-width="4" stroke-linecap="round"/></g><path d="M168.67307,71.83775l139.33319,-0.1981l0.01331,9.3582l-56.12703,15.67683l-25.99499,0.03696l-57.21118,-15.51569z" fill="#2b3c3b" stroke="none" stroke-width="0" stroke-linecap="butt"/><path d="M66.35223,217.48337l348.38704,-0.48964l0.02772,19.49998l-142.73663,32.69728l-64.25131,0.09135l-141.3991,-32.299z" fill="url(#color-14)" stroke="none" stroke-width="0" stroke-linecap="butt"/><path d="M267.72315,297.86382l-5.30205,22.00756l-42.32902,3.06018l-7.70173,-24.65574z" fill="#314443" stroke="#4f6e6c" stroke-width="0" stroke-linecap="round"/><path d="M218.35694,255.7673l44.75072,-0.06362l0.09041,63.59313c0,0 -5.77036,19.68938 -21.95379,20.44386c-17.3701,0.8098 -22.79693,-20.38024 -22.79693,-20.38024z" fill="#314443" stroke="none" stroke-width="0" stroke-linecap="butt"/><path d="M169.85649,196.3433l139.33319,-0.1981l0.01331,9.3582l-56.12703,15.67683l-25.99499,0.03696l-57.21118,-15.51569z" fill="url(#color-15)" stroke="none" stroke-width="0" stroke-linecap="butt"/><path d="M66.35223,213.48337l348.38704,-0.48964l0.02772,19.49998l-142.73663,32.69728l-64.25131,0.09135l-141.3991,-32.299z" fill="url(#color-16)" stroke="none" stroke-width="0" stroke-linecap="butt"/><path d="M232.00635,67.2477l15.99998,-0.02275c0,0 12.01634,45.00643 15.22756,70.08881c3.50463,27.37412 2.99705,87.88544 2.99705,87.88544l-51.99995,0.07393c0,0 -1.02919,-59.6719 2.22734,-87.08128c2.97674,-25.05439 15.548,-70.94415 15.548,-70.94415z" fill="#364b4a" stroke="none" stroke-width="0" stroke-linecap="butt"/><path d="M168.67307,67.33775l139.33319,-0.1981l0.01331,9.3582l-56.12703,15.67683l-25.99499,0.03696l-57.21118,-15.51569z" fill="#364b4a" stroke="none" stroke-width="0" stroke-linecap="butt"/><path d="M230.03762,89.25052l4.90189,-69.00704l6.99999,-0.00995l7.09809,68.98998z" fill="url(#color-17)" stroke="none" stroke-width="0" stroke-linecap="round"/><path d="M211.55155,216.27693l56.99994,-0.08104l0.11516,80.99992c0,0 -7.34983,25.07879 -27.96301,26.03978c-22.12466,1.03146 -29.03694,-25.95874 -29.03694,-25.95874z" fill="#364b4a" stroke="none" stroke-width="0" stroke-linecap="butt"/><path d="M115.20409,206.41391l0.06114,42.99996" fill="none" stroke="#849695" stroke-width="7.5" stroke-linecap="round"/><path d="M362.26356,248.06269l-0.06114,-42.99996" fill="none" stroke="#849695" stroke-width="7.5" stroke-linecap="round"/><path d="M198.78592,190.29506l0.10805,75.99992" fill="none" stroke="#849695" stroke-width="7.5" stroke-linecap="round"/><path d="M281.89671,268.17697l-0.10805,-75.99992" fill="none" stroke="#849695" stroke-width="7.5" stroke-linecap="round"/><path d="M258.93195,307.95966c0,0 -7.08257,8.55039 -17.94711,8.99018c-9.77307,0.39561 -18.55144,-7.93828 -18.55144,-7.93828l-0.02915,-20.49998c0,0 7.71579,5.76855 18.99007,5.20612c10.85104,-0.54132 17.50918,-5.75801 17.50918,-5.75801z" fill="#97bfc7" stroke="#4f6e6c" stroke-width="1.5" stroke-linecap="round"/><path d="M240.71797,294.23554l0.03128,21.99998" fill="none" stroke="#89adb4" stroke-width="1.5" stroke-linecap="round"/><path d="M250.71654,293.22133l0.36129,19.66618" fill="none" stroke="#89adb4" stroke-width="1.5" stroke-linecap="round"/><path d="M230.71561,292.58309l0.02938,20.66665" fill="none" stroke="#89adb4" stroke-width="1.5" stroke-linecap="round"/><path d="M258.93195,307.95966c0,0 -7.08257,8.55039 -17.94711,8.99018c-9.77307,0.39561 -18.55144,-7.93828 -18.55144,-7.93828l-0.02915,-20.49998c0,0 7.71579,5.76856 18.99006,5.20612c10.85104,-0.54132 17.50919,-5.75801 17.50919,-5.75801z" fill="none" stroke="#4f6e6c" stroke-width="1.5" stroke-linecap="round"/><path d="M230.40211,287.0002l3.72631,-192.50549l11.49928,-0.51635l4.27368,192.49412c0,0 -6.15813,2.6924 -9.52759,2.78359c-3.10938,0.08415 -9.97168,-2.25586 -9.97168,-2.25586z" fill="#304040" stroke="#304040" stroke-width="7.5" stroke-linecap="round"/><path d="M239.86686,136.90328c-4.6484,0.00661 -8.42197,-3.71899 -8.42851,-8.32136c-0.00654,-4.60237 3.75642,-8.33868 8.40481,-8.34529c4.6484,-0.00661 8.42197,3.71899 8.42851,8.32136c0.00654,4.60237 -3.75642,8.33868 -8.40481,8.34529z" data-paper-data="{&quot;index&quot;:null}" fill="#2f2f2f" stroke="#2f2f2f" stroke-width="1.5" stroke-linecap="butt"/><path d="M239.89671,157.90325c-4.6484,0.00661 -8.42197,-3.71899 -8.42851,-8.32136c-0.00654,-4.60237 3.75642,-8.33868 8.40481,-8.34529c4.6484,-0.00661 8.42197,3.71899 8.42851,8.32136c0.00654,4.60237 -3.75642,8.33868 -8.40481,8.34529z" data-paper-data="{&quot;index&quot;:null}" fill="#2f2f2f" stroke="#2f2f2f" stroke-width="1.5" stroke-linecap="butt"/><path d="M239.92657,178.90323c-4.6484,0.00661 -8.42197,-3.71899 -8.42851,-8.32136c-0.00654,-4.60237 3.75642,-8.33868 8.40481,-8.34529c4.6484,-0.00661 8.42197,3.71899 8.42851,8.32136c0.00654,4.60237 -3.75642,8.33868 -8.40481,8.34529z" data-paper-data="{&quot;index&quot;:null}" fill="#2f2f2f" stroke="#2f2f2f" stroke-width="1.5" stroke-linecap="butt"/><path d="M239.72857,252.40359c-7.57689,0.01077 -13.72781,-6.06195 -13.73847,-13.56381c-0.01067,-7.50186 6.12296,-13.59205 13.69985,-13.60282c7.57689,-0.01077 13.72781,6.06195 13.73847,13.56381c0.01067,7.50186 -6.12296,13.59205 -13.69985,13.60282z" data-paper-data="{&quot;index&quot;:null}" fill="#2f2f2f" stroke="#2f2f2f" stroke-width="1.5" stroke-linecap="butt"/><path d="M66.52778,213.80555v18.5" fill="none" stroke="#3985a2" stroke-width="1.5" stroke-linecap="round"/><path d="M414.52778,231.93055v-18.5" fill="none" stroke="#3985a2" stroke-width="1.5" stroke-linecap="round"/><path d="M202.91667,221.41666v33.5l-126,-28v-6.5z" fill="url(#color-18)" stroke="#000000" stroke-width="0" stroke-linecap="round"/><path d="M403.75,220.41667v6.5l-126,28v-33.5z" data-paper-data="{&quot;index&quot;:null}" fill="url(#color-19)" stroke="#000000" stroke-width="0" stroke-linecap="round"/><path d="M202.91667,217.75v33.5l-126,-28v-6.5z" fill="url(#color-20)" stroke="#000000" stroke-width="0" stroke-linecap="round"/><path d="M403.75,216.75v6.5l-126,28v-33.5z" data-paper-data="{&quot;index&quot;:null}" fill="url(#color-21)" stroke="#000000" stroke-width="0" stroke-linecap="round"/><path d="M305.72279,68.56271l0.02038,14.33332" fill="none" stroke="#849695" stroke-width="7.5" stroke-linecap="round"/><path d="M234.25,22.43168h9.5" fill="none" stroke="#364b4a" stroke-width="7.5" stroke-linecap="round"/><path d="M195.16667,251.79279v-34.33333h7.33333v34.33333z" fill="#98adac" stroke="none" stroke-width="0" stroke-linecap="butt"/><path d="M195.125,253.47335v-4.25l7.75,1.5v4.5z" fill="#6f7e7d" stroke="none" stroke-width="0" stroke-linecap="butt"/><path d="M278.16667,251.79279v-34.33333h7.33333v34.33333z" fill="#98adac" stroke="none" stroke-width="0" stroke-linecap="butt"/><path d="M277.875,254.97335v-4.5l7.75,-1.5v4.25z" data-paper-data="{&quot;index&quot;:null}" fill="#6f7e7d" stroke="none" stroke-width="0" stroke-linecap="butt"/><path d="M111.5,232.45946v-15.66667h7.33333v15.66667z" fill="#98adac" stroke="none" stroke-width="0" stroke-linecap="butt"/><path d="M358.5,232.79279v-15.66667h7.33334v15.66667z" fill="#98adac" stroke="none" stroke-width="0" stroke-linecap="butt"/><path d="M111.375,234.97335v-4.25l7.75,1.5v4.5z" fill="#6f7e7d" stroke="none" stroke-width="0" stroke-linecap="butt"/><path d="M358.375,237.22335v-4.5l7.75,-1.5v4.25z" data-paper-data="{&quot;index&quot;:null}" fill="#6f7e7d" stroke="none" stroke-width="0" stroke-linecap="butt"/><path d="M170.74317,82.89603l-0.02038,-14.33332" fill="none" stroke="#849695" stroke-width="7.5" stroke-linecap="round"/></g></g></svg>