<svg version="1.1" xmlns="http://www.w3.org/2000/svg" xmlns:xlink="http://www.w3.org/1999/xlink" width="72.02411" height="76.19354" viewBox="0,0,72.02411,76.19354"><defs><linearGradient x1="240.24393" y1="242.31097" x2="239.80091" y2="136.42681" gradientUnits="userSpaceOnUse" id="color-1"><stop offset="0" stop-color="#24ffff"/><stop offset="1" stop-color="#24ffff" stop-opacity="0"/></linearGradient><radialGradient cx="240.15241" cy="178.66807" r="23.17473" gradientUnits="userSpaceOnUse" id="color-2"><stop offset="0" stop-color="#24ffff"/><stop offset="1" stop-color="#24ffff" stop-opacity="0"/></radialGradient><linearGradient x1="275.631" y1="235.35688" x2="219.07041" y2="145.84402" gradientUnits="userSpaceOnUse" id="color-3"><stop offset="0" stop-color="#24ffff"/><stop offset="1" stop-color="#24ffff" stop-opacity="0"/></linearGradient><linearGradient x1="176.22117" y1="156.65493" x2="276.21133" y2="191.49201" gradientUnits="userSpaceOnUse" id="color-4"><stop offset="0" stop-color="#24ffff"/><stop offset="1" stop-color="#24ffff" stop-opacity="0"/></linearGradient><linearGradient x1="194.31976" y1="129.87885" x2="263.97135" y2="209.63038" gradientUnits="userSpaceOnUse" id="color-5"><stop offset="0" stop-color="#24ffff"/><stop offset="1" stop-color="#24ffff" stop-opacity="0"/></linearGradient><linearGradient x1="302.30861" y1="150.37883" x2="207.7016" y2="197.93054" gradientUnits="userSpaceOnUse" id="color-6"><stop offset="0" stop-color="#24ffff"/><stop offset="1" stop-color="#24ffff" stop-opacity="0"/></linearGradient></defs><g transform="translate(-205.67323,-136.40791)"><g data-paper-data="{&quot;isPaintingLayer&quot;:true}" fill-rule="nonzero" stroke="none" stroke-linecap="butt" stroke-linejoin="miter" stroke-miterlimit="10" stroke-dasharray="" stroke-dashoffset="0" style="mix-blend-mode: normal"><path d="M244.31752,136.40791l-4.20075,44.6683l-4.83248,-44.63051z" fill="url(#color-1)" stroke-width="0"/><path d="M216.97768,178.66807c0,-12.79905 10.37568,-23.17473 23.17473,-23.17473c12.79905,0 23.17473,10.37568 23.17473,23.17473c0,12.79905 -10.37568,23.17473 -23.17473,23.17473c-12.79905,0 -23.17473,-10.37568 -23.17473,-23.17473z" fill="url(#color-2)" stroke-width="0.5"/><path d="M222.8887,143.43136l20.14167,40.09011l-27.77822,-35.2648z" fill="url(#color-3)" stroke-width="0"/><path d="M274.72531,195.7572l-40.63604,-19.07739l43.60808,10.54699z" data-paper-data="{&quot;index&quot;:null}" fill="url(#color-4)" stroke-width="0"/><path d="M260.56945,212.60145l-25.87206,-36.68613l32.67584,30.74398z" data-paper-data="{&quot;index&quot;:null}" fill="url(#color-5)" stroke-width="0"/><path d="M205.67323,193.89496l41.86495,-16.13165l-37.80819,24.20281z" data-paper-data="{&quot;index&quot;:null}" fill="url(#color-6)" stroke-width="0"/></g></g></svg>