<svg version="1.1" xmlns="http://www.w3.org/2000/svg" xmlns:xlink="http://www.w3.org/1999/xlink" width="525.52553" height="525.47661" viewBox="0,0,525.52553,525.47661"><defs><linearGradient x1="246.59959" y1="181.39998" x2="239.28182" y2="181.39998" gradientUnits="userSpaceOnUse" id="color-1"><stop offset="0" stop-color="#ffffff" stop-opacity="0"/><stop offset="1" stop-color="#ffffff"/></linearGradient><linearGradient x1="233.07089" y1="156.53802" x2="240.38865" y2="156.53802" gradientUnits="userSpaceOnUse" id="color-2"><stop offset="0" stop-color="#ffffff" stop-opacity="0"/><stop offset="1" stop-color="#ffffff"/></linearGradient><linearGradient x1="239.69329" y1="-84.37199" x2="239.69329" y2="398.70546" gradientUnits="userSpaceOnUse" id="color-3"><stop offset="0" stop-color="#fffbce" stop-opacity="0"/><stop offset="1" stop-color="#fffbce"/></linearGradient><radialGradient cx="239.79078" cy="400.2342" r="15.28924" gradientUnits="userSpaceOnUse" id="color-4"><stop offset="0" stop-color="#ffffff"/><stop offset="1" stop-color="#ffffff" stop-opacity="0"/></radialGradient></defs><g transform="translate(22.76274,92.47357)"><g data-paper-data="{&quot;isPaintingLayer&quot;:true}" fill-rule="nonzero" stroke-linejoin="miter" stroke-miterlimit="10" stroke-dasharray="" stroke-dashoffset="0" style="mix-blend-mode: normal"><path d="M236.27,392.56246c0,0 14.26938,-20.97198 9.7509,-61.7018c-1.73128,-15.60586 -12.41781,-40.18166 -12.8673,-59.44306c-0.46187,-19.79207 12.28175,-42.74109 11.55311,-64.65979c-0.60411,-18.1728 -7.74733,-43.39955 -8.04023,-61.5122c-0.30977,-19.15558 8.66661,-34.66427 8.2707,-52.75258c-0.36783,-16.80566 -7.32261,-32.8944 -7.5145,-47.79005c-0.1944,-15.0907 7.59908,-34.00164 7.39292,-45.99069c-0.24743,-14.38967 -7.0586,-32.88866 -7.08092,-40.94439c-0.06622,-23.89434 9.19444,-47.74148 9.19444,-47.74148" data-paper-data="{&quot;index&quot;:null}" fill="none" stroke="#ffffff" stroke-width="5" stroke-linecap="round"/><path d="M-22.76274,433.00304v-506.00601h525.52553v506.00601z" fill="none" stroke="none" stroke-width="0" stroke-linecap="butt"/><path d="M239.28182,400.93403v-439.06806h7.31774v439.06806z" data-paper-data="{&quot;index&quot;:null}" fill="url(#color-1)" stroke="none" stroke-width="0" stroke-linecap="butt"/><path d="M233.07089,398.07675v-483.07745h7.31775v483.07745z" fill="url(#color-2)" stroke="none" stroke-width="0" stroke-linecap="butt"/><path d="M235.35052,398.70546v-483.07745h8.68553v483.07745z" fill="url(#color-3)" stroke="none" stroke-width="0" stroke-linecap="butt"/><path d="M237.51618,398.70546v-483.07745h4.35423v483.07745z" fill="#fffbce" stroke="none" stroke-width="0" stroke-linecap="butt"/><path d="M225.07491,415.52345v-30.57847h29.43178v30.57847z" fill="url(#color-4)" stroke="none" stroke-width="0" stroke-linecap="butt"/></g></g></svg>