<svg version="1.1" xmlns="http://www.w3.org/2000/svg" xmlns:xlink="http://www.w3.org/1999/xlink" width="15.33174" height="12.3911" viewBox="0,0,15.33174,12.3911"><defs><radialGradient cx="238.85468" cy="179.90811" r="4.66228" gradientUnits="userSpaceOnUse" id="color-1"><stop offset="0" stop-color="#a100ff"/><stop offset="1" stop-color="#a100ff" stop-opacity="0"/></radialGradient><radialGradient cx="243.32855" cy="179.99121" r="6.19551" gradientUnits="userSpaceOnUse" id="color-2"><stop offset="0" stop-color="#a100ff"/><stop offset="1" stop-color="#a100ff" stop-opacity="0"/></radialGradient></defs><g transform="translate(-234.19236,-173.79566)"><g data-paper-data="{&quot;isPaintingLayer&quot;:true}" fill-rule="nonzero" stroke="none" stroke-linecap="butt" stroke-linejoin="miter" stroke-miterlimit="10" stroke-dasharray="" stroke-dashoffset="0" style="mix-blend-mode: normal"><path d="M238.7355,184.56887c-2.57407,-0.06582 -4.6074,-2.20587 -4.54158,-4.77994c0.06582,-2.57407 2.20587,-4.6074 4.77994,-4.54158c2.57407,0.06582 4.6074,2.20587 4.54158,4.77994c-0.06582,2.57407 -2.20587,4.6074 -4.77994,4.54158z" fill="url(#color-1)" stroke-width="NaN"/><path d="M243.17018,186.1847c-3.42057,-0.08747 -6.12258,-2.9313 -6.03511,-6.35186c0.08747,-3.42057 2.9313,-6.12258 6.35186,-6.03511c3.42057,0.08747 6.12258,2.9313 6.03511,6.35186c-0.08747,3.42057 -2.9313,6.12258 -6.35186,6.03511z" fill="url(#color-2)" stroke-width="NaN"/></g></g></svg>