<svg version="1.1" xmlns="http://www.w3.org/2000/svg" xmlns:xlink="http://www.w3.org/1999/xlink" width="18.05112" height="3.09324" viewBox="0,0,18.05112,3.09324"><defs><linearGradient x1="230.97445" y1="180.00003" x2="249.02557" y2="180.00003" gradientUnits="userSpaceOnUse" id="color-1"><stop offset="0" stop-color="#ffdd00" stop-opacity="0"/><stop offset="1" stop-color="#ffdd00"/></linearGradient><linearGradient x1="236.84565" y1="179.99045" x2="247.70248" y2="179.99045" gradientUnits="userSpaceOnUse" id="color-2"><stop offset="0" stop-color="#ffeb66" stop-opacity="0"/><stop offset="1" stop-color="#ffeb66"/></linearGradient></defs><g transform="translate(-230.97445,-178.45342)"><g data-paper-data="{&quot;isPaintingLayer&quot;:true}" fill-rule="nonzero" stroke-linejoin="miter" stroke-miterlimit="10" stroke-dasharray="" stroke-dashoffset="0" style="mix-blend-mode: normal"><path d="M245.19516,181.51569c-0.75015,0.00366 -3.24056,0.09056 -5.50436,-0.04399c-2.04016,-0.12125 -4.72917,-0.18904 -6.37838,-0.43521c-1.70397,-0.25435 -2.33493,-0.68959 -2.33796,-0.96644c-0.00296,-0.2703 0.62179,-0.76367 2.20979,-1.03129c1.69305,-0.28534 4.41921,-0.3409 6.5841,-0.49006c2.13121,-0.14684 4.67767,-0.07925 5.39339,-0.08273c2.12468,-0.01037 3.85456,0.66393 3.86379,1.5061c0.00923,0.84216 -1.70567,1.53328 -3.83034,1.54366z" fill="url(#color-1)" stroke="none" stroke-width="0" stroke-linecap="butt"/><path d="M245.39869,180.90204c-0.45118,0.0022 -1.94902,0.05446 -3.3106,-0.02645c-1.22705,-0.07292 -2.84436,-0.11371 -3.83628,-0.26176c-1.02484,-0.15297 -1.40435,-0.41476 -1.40617,-0.58127c-0.00179,-0.16258 0.37398,-0.4593 1.32908,-0.62027c1.01829,-0.17162 2.65793,-0.20503 3.96,-0.29474c1.28182,-0.08832 2.81338,-0.04766 3.24385,-0.04977c1.27789,-0.00625 2.31831,0.39933 2.32387,0.90584c0.00556,0.50652 -1.02587,0.92219 -2.30375,0.92843z" fill="url(#color-2)" stroke="none" stroke-width="0" stroke-linecap="butt"/><path d="M246.36666,179.91746h-4" fill="none" stroke="#fff4ad" stroke-width="0.5" stroke-linecap="round"/></g></g></svg>