<svg version="1.1" xmlns="http://www.w3.org/2000/svg" xmlns:xlink="http://www.w3.org/1999/xlink" width="273.09252" height="272.61066" viewBox="0,0,273.09252,272.61066"><defs><radialGradient cx="239.03215" cy="179.48809" r="191.40794" gradientUnits="userSpaceOnUse" id="color-1"><stop offset="0" stop-color="#f3f3f3" stop-opacity="0"/><stop offset="1" stop-color="#f3f3f3"/></radialGradient><radialGradient cx="239.4288" cy="179.69788" r="112.96906" gradientUnits="userSpaceOnUse" id="color-2"><stop offset="0" stop-color="#f3f3f3" stop-opacity="0"/><stop offset="1" stop-color="#f3f3f3"/></radialGradient></defs><g transform="translate(-103.45374,-43.69467)"><g data-paper-data="{&quot;isPaintingLayer&quot;:true}" fill-rule="nonzero" stroke="#f4fffa" stroke-width="0" stroke-linecap="butt" stroke-linejoin="miter" stroke-miterlimit="10" stroke-dasharray="" stroke-dashoffset="0" style="mix-blend-mode: normal"><g><path d="M142.95664,84.26551c52.80392,-52.69461 136.63759,-55.42514 192.00118,-0.14986c55.36359,55.27528 55.53833,136.42446 0.00153,191.8463c-55.5368,55.42184 -138.75506,52.31185 -191.69799,-0.54663c-52.94292,-52.85848 -53.10864,-138.45519 -0.30472,-191.1498z" fill="url(#color-1)"/><path d="M182.72497,123.49746c31.1649,-31.10038 80.64357,-32.71194 113.31919,-0.08845c32.67562,32.62349 32.77875,80.51778 0.0009,113.22778c-32.77785,32.71 -81.8933,30.87447 -113.14025,-0.32263c-31.24694,-31.1971 -31.34475,-81.71632 -0.17985,-112.8167z" fill="url(#color-2)"/></g></g></g></svg>