<svg version="1.1" xmlns="http://www.w3.org/2000/svg" xmlns:xlink="http://www.w3.org/1999/xlink" width="61.5" height="54.125" viewBox="0,0,61.5,54.125"><g transform="translate(-210.47222,-148.66667)"><g data-paper-data="{&quot;isPaintingLayer&quot;:true}" fill-rule="nonzero" stroke-linejoin="miter" stroke-miterlimit="10" stroke-dasharray="" stroke-dashoffset="0" style="mix-blend-mode: normal"><path d="M210.47222,202.79168l61.5,-54.125" fill="none" stroke="#000000" stroke-width="0" stroke-linecap="round"/><path d="M239.99466,190.67169c-1.31683,0 -2.49842,-0.30607 -3.54477,-0.91822c-1.04635,-0.61215 -1.8756,-1.44496 -2.48775,-2.49842c-0.61215,-1.05347 -0.91822,-2.23862 -0.91822,-3.55545c0,-0.39861 0.12812,-0.7296 0.38437,-0.99296c0.25625,-0.26337 0.58368,-0.39505 0.98229,-0.39505c0.40573,0 0.74383,0.13168 1.01432,0.39505c0.2776,0.26337 0.4164,0.59435 0.4164,0.99296c0,0.78298 0.18151,1.49478 0.54453,2.13541c0.36302,0.6335 0.85772,1.13532 1.48411,1.50546c0.6335,0.36302 1.34175,0.54453 2.12473,0.54453c0.79722,0 1.50902,-0.18151 2.13541,-0.54453c0.6335,-0.37014 1.13177,-0.87196 1.49478,-1.50546c0.36302,-0.64062 0.54453,-1.35242 0.54453,-2.13541c0,-0.79722 -0.18151,-1.50902 -0.54453,-2.13541c-0.36302,-0.6335 -0.86128,-1.13177 -1.49478,-1.49478c-0.62639,-0.36302 -1.33819,-0.54453 -2.13541,-0.54453h-4.56977c-0.39861,0 -0.72604,-0.13168 -0.98229,-0.39505c-0.25625,-0.27048 -0.38437,-0.60503 -0.38437,-1.00364v-7.37783c0,-0.40573 0.12812,-0.74383 0.38437,-1.01432c0.25625,-0.27048 0.58368,-0.40573 0.98229,-0.40573h9.12886c0.38437,0 0.7118,0.14236 0.98229,0.42708c0.2776,0.2776 0.4164,0.60859 0.4164,0.99296c0,0.36302 -0.13524,0.68333 -0.40573,0.96093c-0.26337,0.27048 -0.59435,0.40573 -0.99296,0.40573h-7.73017v4.61248h3.17108c1.33107,0 2.51978,0.30607 3.56613,0.91822c1.04635,0.61215 1.87204,1.4414 2.47707,2.48775c0.61215,1.04635 0.91822,2.23506 0.91822,3.56613c0,1.31683 -0.30607,2.50198 -0.91822,3.55545c-0.60503,1.05347 -1.43072,1.88628 -2.47707,2.49842c-1.04635,0.61215 -2.23506,0.91822 -3.56613,0.91822z" fill="#00edff" stroke="#00edff" stroke-width="1" stroke-linecap="square"/></g></g></svg>