<svg version="1.1" xmlns="http://www.w3.org/2000/svg" xmlns:xlink="http://www.w3.org/1999/xlink" width="814.92718" height="759.8183" viewBox="0,0,814.92718,759.8183"><defs><linearGradient x1="-65.67799" y1="181.81833" x2="75.32201" y2="181.81833" gradientUnits="userSpaceOnUse" id="color-1"><stop offset="0" stop-color="#001214"/><stop offset="1" stop-color="#001214" stop-opacity="0"/></linearGradient><linearGradient x1="537.32201" y1="209.81833" x2="396.32201" y2="209.81833" gradientUnits="userSpaceOnUse" id="color-2"><stop offset="0" stop-color="#001214"/><stop offset="1" stop-color="#001214" stop-opacity="0"/></linearGradient><linearGradient x1="251.66505" y1="-75.68158" x2="251.97896" y2="65.31823" gradientUnits="userSpaceOnUse" id="color-3"><stop offset="0" stop-color="#001214"/><stop offset="1" stop-color="#001214" stop-opacity="0"/></linearGradient><linearGradient x1="243.66505" y1="422.9849" x2="243.97896" y2="281.98509" gradientUnits="userSpaceOnUse" id="color-4"><stop offset="0" stop-color="#001214"/><stop offset="1" stop-color="#001214" stop-opacity="0"/></linearGradient></defs><g transform="translate(158.98199,199.90916)"><g data-paper-data="{&quot;isPaintingLayer&quot;:true}" fill-rule="nonzero" stroke-linejoin="miter" stroke-miterlimit="10" stroke-dasharray="" stroke-dashoffset="0" style="mix-blend-mode: normal"><path d="M-13.99998,378.00002v-396h508v396z" fill="#002125" stroke="none" stroke-width="0" stroke-linecap="butt"/><g fill="none" stroke="#00383f" stroke-width="4" stroke-linecap="round"><g><g><g><g><g><path d="M92.94671,-17.44744v391.89189"/><path d="M116.97073,-17.44744v394.89489"/></g><g><path d="M142.49626,-17.44746v391.8919"/><path d="M166.52028,-17.44746v394.8949"/></g></g><g><g><path d="M189.79356,374.44445v-391.89189"/><path d="M213.81758,-17.44744v394.89489"/></g><g><path d="M239.3431,-17.44744v391.89189"/><path d="M263.36713,377.44745v-394.89489"/></g></g></g><g><g><g><path d="M-101.87311,374.44445v-391.89189"/><path d="M-77.8491,377.44745v-394.89489"/></g><g><path d="M-52.32356,-17.44744v391.89189"/><path d="M-28.29954,377.44745v-394.89489"/></g></g><g><g><path d="M-5.02627,-17.44744v391.89189"/><path d="M18.99776,-17.44744v394.89489"/></g><g><path d="M44.52328,-17.44744v391.89189"/><path d="M68.5473,-17.44744v394.89489"/></g></g></g></g><g><g><g><g><path d="M483.52479,-17.44744v391.89189"/><path d="M507.54881,-17.44744v394.89489"/></g><g><path d="M533.07433,-17.44744v391.89189"/><path d="M557.09836,-17.44744v394.89489"/></g></g><g><g><path d="M580.37163,374.44445v-391.89189"/><path d="M604.39564,-17.44744v394.89489"/></g><g><path d="M629.92117,-17.44744v391.89189"/><path d="M653.9452,-17.44744v394.89489"/></g></g></g><g><g><g><path d="M288.70497,-17.44744v391.89189"/><path d="M312.72899,377.44745v-394.89489"/></g><g><path d="M338.25451,-17.44744v391.89189"/><path d="M362.27854,-17.44744v394.89489"/></g></g><g><g><path d="M385.55181,-17.44744v391.89189"/><path d="M409.57583,-17.44744v394.89489"/></g><g><path d="M435.10136,374.44445v-391.89189"/><path d="M459.12538,-17.44744v394.89489"/></g></g></g></g></g><g><g><g><g><g><path d="M-156.98197,363.08934h787.92621"/><path d="M-156.98197,339.06532h793.96395"/></g><g><path d="M630.94425,313.53979h-787.92623"/><path d="M-156.98198,289.51577h793.96397"/></g></g><g><g><path d="M-156.98197,266.24249h787.92621"/><path d="M-156.98197,242.21847h793.96395"/></g><g><path d="M-156.98197,216.69295h787.92621"/><path d="M636.98198,192.66892h-793.96395"/></g></g></g><g><g><g><path d="M-156.98197,557.90915h787.92621"/><path d="M636.98198,533.88514h-793.96395"/></g><g><path d="M630.94424,508.35961h-787.92621"/><path d="M-156.98197,484.33559h793.96395"/></g></g><g><g><path d="M-156.98197,461.06231h787.92621"/><path d="M-156.98197,437.03829h793.96395"/></g><g><path d="M-156.98197,411.51277h787.92621"/><path d="M-156.98197,387.48874h793.96395"/></g></g></g></g><g><g><g><g><path d="M630.94424,-27.48874h-787.92621"/><path d="M636.98198,-51.51276h-793.96395"/></g><g><path d="M-156.98197,-77.03828h787.92621"/><path d="M-156.98197,-101.06231h793.96395"/></g></g><g><g><path d="M-156.98197,-124.33558h787.92621"/><path d="M-156.98197,-148.3596h793.96395"/></g><g><path d="M-156.98197,-173.88513h787.92621"/><path d="M-156.98197,-197.90915h793.96395"/></g></g></g><g><g><g><path d="M-156.98197,167.33108h787.92621"/><path d="M636.98198,143.30706h-793.96395"/></g><g><path d="M630.94424,117.78154h-787.92621"/><path d="M-156.98197,93.75751h793.96395"/></g></g><g><g><path d="M-156.98197,70.48424h787.92621"/><path d="M636.98198,46.46022h-793.96395"/></g><g><path d="M-156.98197,20.93469h787.92621"/><path d="M-156.98197,-3.08933h793.96395"/></g></g></g></g></g></g><path d="M-65.67799,395.31833v-427h141v427z" fill="url(#color-1)" stroke="none" stroke-width="0" stroke-linecap="butt"/><path d="M396.32201,423.31833v-427h141v427z" data-paper-data="{&quot;index&quot;:null}" fill="url(#color-2)" stroke="none" stroke-width="0" stroke-linecap="butt"/><path d="M541.43747,64.96765l-578.91705,0.70115l-0.3139,-140.99981l578.91705,-0.70115z" data-paper-data="{&quot;index&quot;:null}" fill="url(#color-3)" stroke="none" stroke-width="0" stroke-linecap="butt"/><path d="M533.12357,423.33548l-578.91705,-0.70115l0.3139,-140.99981l578.91705,0.70115z" data-paper-data="{&quot;index&quot;:null}" fill="url(#color-4)" stroke="none" stroke-width="0" stroke-linecap="butt"/><path d="M105.68117,89.25192c-0.21666,0 -0.39998,-0.075 -0.54998,-0.225c-0.15,-0.15 -0.225,-0.33333 -0.225,-0.54999v-10.0998c0,-0.23333 0.075,-0.42082 0.225,-0.56249c0.15,-0.15 0.33332,-0.225 0.54998,-0.225c0.29999,0 0.52916,0.14167 0.68749,0.42499l4.67491,9.36231h-0.47499l4.54991,-9.36231c0.15833,-0.28333 0.38749,-0.42499 0.68749,-0.42499c0.21666,0 0.39999,0.075 0.54999,0.225c0.15,0.14167 0.225,0.32916 0.225,0.56249v10.0998c0,0.21666 -0.07917,0.39999 -0.2375,0.54999c-0.15,0.15 -0.32916,0.225 -0.53749,0.225c-0.21666,0 -0.39999,-0.075 -0.54999,-0.225c-0.15,-0.15 -0.225,-0.33333 -0.225,-0.54999v-7.94984l0.29999,-0.075l-3.91242,7.96234c-0.16666,0.25833 -0.39166,0.38749 -0.67499,0.38749c-0.32499,0 -0.56249,-0.15416 -0.71249,-0.46249l-3.86242,-7.74984l0.29999,-0.0625v7.94984c0,0.21666 -0.075,0.39999 -0.225,0.54999c-0.15,0.15 -0.33749,0.225 -0.56249,0.225zM122.82467,89.31442c-0.72499,0 -1.37914,-0.17916 -1.96246,-0.53749c-0.57499,-0.36666 -1.02915,-0.86248 -1.36247,-1.48747c-0.33333,-0.62499 -0.49999,-1.32914 -0.49999,-2.11246c0,-0.78332 0.17916,-1.48747 0.53749,-2.11246c0.36666,-0.63332 0.85831,-1.12915 1.47497,-1.48747c0.62499,-0.36666 1.32914,-0.54999 2.11246,-0.54999c0.77498,0 1.4708,0.18333 2.08746,0.54999c0.61666,0.35832 1.10415,0.85415 1.46247,1.48747c0.36666,0.62499 0.54999,1.32914 0.54999,2.11246h-0.58749c0,0.78332 -0.16666,1.48747 -0.49999,2.11246c-0.33333,0.62499 -0.78748,1.12081 -1.36247,1.48747c-0.57499,0.35832 -1.22498,0.53749 -1.94996,0.53749zM123.12466,87.96445c0.49999,0 0.94998,-0.12083 1.34997,-0.36249c0.39999,-0.24166 0.71249,-0.57499 0.93748,-0.99998c0.23333,-0.42499 0.34999,-0.89998 0.34999,-1.42497c0,-0.53332 -0.11667,-1.01248 -0.34999,-1.43747c-0.225,-0.42499 -0.53749,-0.75832 -0.93748,-0.99998c-0.39999,-0.24166 -0.84998,-0.36249 -1.34997,-0.36249c-0.49999,0 -0.95415,0.12083 -1.36247,0.36249c-0.39999,0.24166 -0.71665,0.57499 -0.94998,0.99998c-0.23333,0.42499 -0.34999,0.90415 -0.34999,1.43747c0,0.52499 0.11667,0.99998 0.34999,1.42497c0.23333,0.42499 0.54999,0.75832 0.94998,0.99998c0.40832,0.24166 0.86248,0.36249 1.36247,0.36249zM126.4621,89.26442c-0.21666,0 -0.39999,-0.07083 -0.54999,-0.2125c-0.14167,-0.14167 -0.2125,-0.32499 -0.2125,-0.54999v-2.27495l0.28749,-1.58747l1.23748,0.53749v3.32493c0,0.225 -0.075,0.40832 -0.225,0.54999c-0.14167,0.14167 -0.32083,0.2125 -0.53749,0.2125zM130.39889,89.25192c-0.21666,0 -0.39999,-0.07083 -0.54999,-0.2125c-0.14167,-0.15 -0.2125,-0.33333 -0.2125,-0.54999v-6.63737c0,-0.23333 0.07083,-0.41666 0.2125,-0.54999c0.15,-0.14167 0.33333,-0.2125 0.54999,-0.2125c0.23333,0 0.41666,0.07083 0.54999,0.2125c0.14167,0.13333 0.2125,0.31666 0.2125,0.54999v6.63737c0,0.21666 -0.07083,0.39999 -0.2125,0.54999c-0.13333,0.14167 -0.31666,0.2125 -0.54999,0.2125zM130.53639,79.76461c-0.26666,0 -0.49999,-0.09583 -0.69999,-0.28749c-0.19166,-0.2 -0.28749,-0.43332 -0.28749,-0.69999c0,-0.26666 0.09583,-0.49582 0.28749,-0.68749c0.2,-0.2 0.43332,-0.29999 0.69999,-0.29999c0.26666,0 0.49582,0.1 0.68749,0.29999c0.2,0.19166 0.29999,0.42082 0.29999,0.68749c0,0.26666 -0.1,0.49999 -0.29999,0.69999c-0.19166,0.19166 -0.42082,0.28749 -0.68749,0.28749zM140.89354,89.26442c-0.21666,0 -0.39999,-0.07083 -0.54999,-0.2125c-0.14167,-0.14167 -0.2125,-0.32499 -0.2125,-0.54999v-3.66243c0,-0.56666 -0.10417,-1.02915 -0.31249,-1.38747c-0.20833,-0.35832 -0.49166,-0.62499 -0.84998,-0.79998c-0.34999,-0.175 -0.75415,-0.26249 -1.21248,-0.26249c-0.41666,0 -0.79582,0.08333 -1.13748,0.24999c-0.33333,0.16666 -0.59999,0.39166 -0.79998,0.67499c-0.2,0.28333 -0.29999,0.61249 -0.29999,0.98748h-0.93748c0,-0.63332 0.15,-1.19581 0.44999,-1.68747c0.30833,-0.49166 0.72499,-0.87915 1.24997,-1.16248c0.52499,-0.29166 1.11665,-0.43749 1.77496,-0.43749c0.69165,0 1.30831,0.14583 1.84996,0.43749c0.54166,0.29166 0.96665,0.72082 1.27497,1.28747c0.31666,0.56666 0.47499,1.26664 0.47499,2.09996v3.66243c0,0.225 -0.075,0.40832 -0.225,0.54999c-0.14167,0.14167 -0.32083,0.2125 -0.53749,0.2125zM134.75616,89.26442c-0.21666,0 -0.39999,-0.07083 -0.54999,-0.2125c-0.14167,-0.14167 -0.2125,-0.32499 -0.2125,-0.54999v-6.64987c0,-0.23333 0.07083,-0.41666 0.2125,-0.54999c0.15,-0.14167 0.33333,-0.2125 0.54999,-0.2125c0.23333,0 0.41666,0.07083 0.54999,0.2125c0.14167,0.13333 0.2125,0.31666 0.2125,0.54999v6.64987c0,0.225 -0.07083,0.40832 -0.2125,0.54999c-0.13333,0.14167 -0.31666,0.2125 -0.54999,0.2125zM153.92015,89.40192c-0.79998,0 -1.55414,-0.15 -2.26245,-0.44999c-0.69999,-0.30833 -1.31247,-0.73332 -1.83746,-1.27497c-0.51666,-0.54166 -0.92498,-1.17498 -1.22498,-1.89996c-0.29166,-0.72499 -0.43749,-1.51247 -0.43749,-2.36245c0,-0.83332 0.14583,-1.6083 0.43749,-2.32495c0.29999,-0.72499 0.70832,-1.3583 1.22498,-1.89996c0.52499,-0.54166 1.13331,-0.96665 1.82496,-1.27497c0.69999,-0.30833 1.4583,-0.46249 2.27495,-0.46249c0.76665,0 1.42497,0.1 1.97496,0.29999c0.55832,0.19166 1.11665,0.51666 1.67497,0.97498c0.075,0.05833 0.13333,0.12083 0.175,0.1875c0.05,0.06667 0.08333,0.13333 0.1,0.2c0.01667,0.05833 0.025,0.13333 0.025,0.225c0,0.19166 -0.07083,0.34999 -0.2125,0.47499c-0.13333,0.125 -0.29583,0.19583 -0.48749,0.2125c-0.18333,0.00833 -0.36666,-0.05417 -0.54999,-0.1875c-0.36666,-0.32499 -0.74582,-0.57082 -1.13748,-0.73749c-0.39166,-0.16666 -0.91248,-0.24999 -1.56247,-0.24999c-0.58332,0 -1.13331,0.12083 -1.64997,0.36249c-0.51666,0.23333 -0.97498,0.55832 -1.37497,0.97498c-0.39166,0.41666 -0.69582,0.90415 -0.91248,1.46247c-0.21666,0.54999 -0.32499,1.13748 -0.32499,1.76246c0,0.64166 0.10833,1.23748 0.32499,1.78746c0.21666,0.54999 0.52082,1.03331 0.91248,1.44997c0.39999,0.41666 0.85831,0.74582 1.37497,0.98748c0.51666,0.23333 1.06665,0.34999 1.64997,0.34999c0.50832,0 0.98748,-0.0875 1.43747,-0.26249c0.45832,-0.175 0.89581,-0.41666 1.31247,-0.72499c0.175,-0.13333 0.34999,-0.19166 0.52499,-0.175c0.175,0.01667 0.32083,0.0875 0.43749,0.2125c0.125,0.125 0.1875,0.29583 0.1875,0.51249c0,0.1 -0.02083,0.2 -0.0625,0.29999c-0.04167,0.09167 -0.1,0.175 -0.175,0.24999c-0.54166,0.42499 -1.12081,0.74998 -1.73747,0.97498c-0.60832,0.21666 -1.24997,0.32499 -1.92496,0.32499zM162.95685,89.31442c-0.72499,0 -1.37914,-0.17916 -1.96246,-0.53749c-0.57499,-0.36666 -1.02915,-0.86248 -1.36247,-1.48747c-0.33333,-0.62499 -0.49999,-1.32914 -0.49999,-2.11246c0,-0.78332 0.17916,-1.48747 0.53749,-2.11246c0.36666,-0.63332 0.85831,-1.12915 1.47497,-1.48747c0.62499,-0.36666 1.32914,-0.54999 2.11246,-0.54999c0.77498,0 1.4708,0.18333 2.08746,0.54999c0.61666,0.35832 1.10415,0.85415 1.46247,1.48747c0.36666,0.62499 0.54999,1.32914 0.54999,2.11246h-0.58749c0,0.78332 -0.16666,1.48747 -0.49999,2.11246c-0.33333,0.62499 -0.78748,1.12081 -1.36247,1.48747c-0.57499,0.35832 -1.22498,0.53749 -1.94996,0.53749zM163.25686,87.96445c0.49999,0 0.94998,-0.12083 1.34997,-0.36249c0.39999,-0.24166 0.71249,-0.57499 0.93748,-0.99998c0.23333,-0.42499 0.34999,-0.89998 0.34999,-1.42497c0,-0.53332 -0.11667,-1.01248 -0.34999,-1.43747c-0.225,-0.42499 -0.53749,-0.75832 -0.93748,-0.99998c-0.39999,-0.24166 -0.84998,-0.36249 -1.34997,-0.36249c-0.49999,0 -0.95415,0.12083 -1.36247,0.36249c-0.39999,0.24166 -0.71665,0.57499 -0.94998,0.99998c-0.23333,0.42499 -0.34999,0.90415 -0.34999,1.43747c0,0.52499 0.11667,0.99998 0.34999,1.42497c0.23333,0.42499 0.54999,0.75832 0.94998,0.99998c0.40832,0.24166 0.86248,0.36249 1.36247,0.36249zM166.59429,89.26442c-0.21666,0 -0.39999,-0.07083 -0.54999,-0.2125c-0.14167,-0.14167 -0.2125,-0.32499 -0.2125,-0.54999v-2.27495l0.28749,-1.58747l1.23748,0.53749v3.32493c0,0.225 -0.075,0.40832 -0.225,0.54999c-0.14167,0.14167 -0.32083,0.2125 -0.53749,0.2125zM176.51847,89.26442c-0.21666,0 -0.39999,-0.07083 -0.54999,-0.2125c-0.14167,-0.14167 -0.2125,-0.32499 -0.2125,-0.54999v-3.66243c0,-0.56666 -0.10417,-1.02915 -0.31249,-1.38747c-0.20833,-0.35832 -0.49166,-0.62499 -0.84998,-0.79998c-0.34999,-0.175 -0.75415,-0.26249 -1.21248,-0.26249c-0.41666,0 -0.79582,0.08333 -1.13748,0.24999c-0.33333,0.16666 -0.59999,0.39166 -0.79998,0.67499c-0.2,0.28333 -0.29999,0.61249 -0.29999,0.98748h-0.93748c0,-0.63332 0.15,-1.19581 0.44999,-1.68747c0.30833,-0.49166 0.72499,-0.87915 1.24997,-1.16248c0.52499,-0.29166 1.11665,-0.43749 1.77496,-0.43749c0.69165,0 1.30831,0.14583 1.84996,0.43749c0.54166,0.29166 0.96665,0.72082 1.27497,1.28747c0.31666,0.56666 0.47499,1.26664 0.47499,2.09996v3.66243c0,0.225 -0.075,0.40832 -0.225,0.54999c-0.14167,0.14167 -0.32083,0.2125 -0.53749,0.2125zM170.38109,89.26442c-0.21666,0 -0.39999,-0.07083 -0.54999,-0.2125c-0.14167,-0.14167 -0.2125,-0.32499 -0.2125,-0.54999v-6.64987c0,-0.23333 0.07083,-0.41666 0.2125,-0.54999c0.15,-0.14167 0.33333,-0.2125 0.54999,-0.2125c0.23333,0 0.41666,0.07083 0.54999,0.2125c0.14167,0.13333 0.2125,0.31666 0.2125,0.54999v6.64987c0,0.225 -0.07083,0.40832 -0.2125,0.54999c-0.13333,0.14167 -0.31666,0.2125 -0.54999,0.2125zM186.69712,89.26442c-0.21666,0 -0.39999,-0.07083 -0.54999,-0.2125c-0.14167,-0.14167 -0.2125,-0.32499 -0.2125,-0.54999v-3.66243c0,-0.56666 -0.10417,-1.02915 -0.31249,-1.38747c-0.20833,-0.35832 -0.49166,-0.62499 -0.84998,-0.79998c-0.34999,-0.175 -0.75415,-0.26249 -1.21248,-0.26249c-0.41666,0 -0.79582,0.08333 -1.13748,0.24999c-0.33333,0.16666 -0.59999,0.39166 -0.79998,0.67499c-0.2,0.28333 -0.29999,0.61249 -0.29999,0.98748h-0.93748c0,-0.63332 0.15,-1.19581 0.44999,-1.68747c0.30833,-0.49166 0.72499,-0.87915 1.24997,-1.16248c0.52499,-0.29166 1.11665,-0.43749 1.77496,-0.43749c0.69165,0 1.30831,0.14583 1.84996,0.43749c0.54166,0.29166 0.96665,0.72082 1.27497,1.28747c0.31666,0.56666 0.47499,1.26664 0.47499,2.09996v3.66243c0,0.225 -0.075,0.40832 -0.225,0.54999c-0.14167,0.14167 -0.32083,0.2125 -0.53749,0.2125zM180.55975,89.26442c-0.21666,0 -0.39999,-0.07083 -0.54999,-0.2125c-0.14167,-0.14167 -0.2125,-0.32499 -0.2125,-0.54999v-6.64987c0,-0.23333 0.07083,-0.41666 0.2125,-0.54999c0.15,-0.14167 0.33333,-0.2125 0.54999,-0.2125c0.23333,0 0.41666,0.07083 0.54999,0.2125c0.14167,0.13333 0.2125,0.31666 0.2125,0.54999v6.64987c0,0.225 -0.07083,0.40832 -0.2125,0.54999c-0.13333,0.14167 -0.31666,0.2125 -0.54999,0.2125zM193.68834,89.31442c-0.80832,0 -1.5208,-0.175 -2.13746,-0.52499c-0.61666,-0.35832 -1.10415,-0.84582 -1.46247,-1.46247c-0.34999,-0.62499 -0.52499,-1.34164 -0.52499,-2.14996c0,-0.81665 0.175,-1.5333 0.52499,-2.14996c0.35832,-0.62499 0.84582,-1.11248 1.46247,-1.46247c0.61666,-0.35832 1.32914,-0.53749 2.13746,-0.53749c0.79165,0 1.4958,0.17916 2.11246,0.53749c0.61666,0.34999 1.09998,0.83748 1.44997,1.46247c0.35832,0.61666 0.53749,1.33331 0.53749,2.14996c0,0.80832 -0.175,1.52497 -0.52499,2.14996c-0.34999,0.61666 -0.83332,1.10415 -1.44997,1.46247c-0.61666,0.34999 -1.32497,0.52499 -2.12496,0.52499zM193.68834,87.96445c0.51666,0 0.97081,-0.11667 1.36247,-0.34999c0.39999,-0.24166 0.71249,-0.57082 0.93748,-0.98748c0.225,-0.41666 0.33749,-0.89998 0.33749,-1.44997c0,-0.54999 -0.1125,-1.03331 -0.33749,-1.44997c-0.225,-0.42499 -0.53749,-0.75415 -0.93748,-0.98748c-0.39166,-0.24166 -0.84582,-0.36249 -1.36247,-0.36249c-0.52499,0 -0.98748,0.12083 -1.38747,0.36249c-0.39166,0.23333 -0.70415,0.56249 -0.93748,0.98748c-0.225,0.41666 -0.33749,0.89998 -0.33749,1.44997c0,0.54999 0.1125,1.03331 0.33749,1.44997c0.23333,0.41666 0.54582,0.74582 0.93748,0.98748c0.39999,0.23333 0.86248,0.34999 1.38747,0.34999zM206.94995,89.26442c-0.21666,0 -0.39999,-0.07083 -0.54999,-0.2125c-0.14167,-0.14167 -0.2125,-0.32499 -0.2125,-0.54999v-3.66243c0,-0.56666 -0.10417,-1.02915 -0.31249,-1.38747c-0.20833,-0.35832 -0.49166,-0.62499 -0.84998,-0.79998c-0.34999,-0.175 -0.75415,-0.26249 -1.21248,-0.26249c-0.41666,0 -0.79582,0.08333 -1.13748,0.24999c-0.33333,0.16666 -0.59999,0.39166 -0.79998,0.67499c-0.2,0.28333 -0.29999,0.61249 -0.29999,0.98748h-0.93748c0,-0.63332 0.15,-1.19581 0.44999,-1.68747c0.30833,-0.49166 0.72499,-0.87915 1.24997,-1.16248c0.52499,-0.29166 1.11665,-0.43749 1.77496,-0.43749c0.69165,0 1.30831,0.14583 1.84996,0.43749c0.54166,0.29166 0.96665,0.72082 1.27497,1.28747c0.31666,0.56666 0.47499,1.26664 0.47499,2.09996v3.66243c0,0.225 -0.075,0.40832 -0.225,0.54999c-0.14167,0.14167 -0.32083,0.2125 -0.53749,0.2125zM200.81258,89.26442c-0.21666,0 -0.39999,-0.07083 -0.54999,-0.2125c-0.14167,-0.14167 -0.2125,-0.32499 -0.2125,-0.54999v-6.64987c0,-0.23333 0.07083,-0.41666 0.2125,-0.54999c0.15,-0.14167 0.33333,-0.2125 0.54999,-0.2125c0.23333,0 0.41666,0.07083 0.54999,0.2125c0.14167,0.13333 0.2125,0.31666 0.2125,0.54999v6.64987c0,0.225 -0.07083,0.40832 -0.2125,0.54999c-0.13333,0.14167 -0.31666,0.2125 -0.54999,0.2125z" fill="#00eeff" stroke="#00e5ff" stroke-width="1" stroke-linecap="square"/><path d="M159.18117,54.85157c-0.21666,0 -0.39998,-0.075 -0.54998,-0.225c-0.15,-0.15 -0.225,-0.33333 -0.225,-0.54999v-10.0998c0,-0.23333 0.075,-0.42082 0.225,-0.56249c0.15,-0.15 0.33332,-0.225 0.54998,-0.225c0.23333,0 0.42082,0.075 0.56249,0.225c0.15,0.14167 0.225,0.32916 0.225,0.56249v4.27491h6.92486v-4.27491c0,-0.23333 0.07083,-0.42082 0.2125,-0.56249c0.15,-0.15 0.33749,-0.225 0.56249,-0.225c0.225,0 0.40832,0.075 0.54999,0.225c0.14167,0.14167 0.2125,0.32916 0.2125,0.56249v10.0998c0,0.21666 -0.07083,0.39999 -0.2125,0.54999c-0.14167,0.15 -0.32499,0.225 -0.54999,0.225c-0.225,0 -0.41249,-0.075 -0.56249,-0.225c-0.14167,-0.15 -0.2125,-0.33333 -0.2125,-0.54999v-4.44991h-6.92486v4.44991c0,0.21666 -0.075,0.39999 -0.225,0.54999c-0.14167,0.15 -0.32916,0.225 -0.56249,0.225zM175.09303,54.91407c-0.82498,0 -1.5583,-0.175 -2.19996,-0.52499c-0.64166,-0.35832 -1.14581,-0.84582 -1.51247,-1.46247c-0.35832,-0.62499 -0.53749,-1.34164 -0.53749,-2.14996c0,-0.81665 0.17083,-1.5333 0.51249,-2.14996c0.34166,-0.62499 0.81665,-1.11248 1.42497,-1.46247c0.60832,-0.35832 1.30414,-0.53749 2.08746,-0.53749c0.78332,0 1.44997,0.17083 1.99996,0.51249c0.55832,0.34166 0.98331,0.81665 1.27497,1.42497c0.29999,0.59999 0.44999,1.29164 0.44999,2.07496c0,0.19166 -0.06667,0.34999 -0.2,0.47499c-0.125,0.125 -0.28749,0.1875 -0.48749,0.1875h-6.01238v-1.19998h5.96238l-0.61249,0.42499c-0.00833,-0.49999 -0.10833,-0.94581 -0.29999,-1.33747c-0.18333,-0.39166 -0.44999,-0.69999 -0.79998,-0.92498c-0.34999,-0.23333 -0.77498,-0.34999 -1.27497,-0.34999c-0.56666,0 -1.04998,0.125 -1.44997,0.37499c-0.39999,0.24166 -0.70832,0.57916 -0.92498,1.01248c-0.20833,0.43332 -0.31249,0.92498 -0.31249,1.47497c0,0.54999 0.125,1.03748 0.37499,1.46247c0.24999,0.42499 0.59166,0.76248 1.02498,1.01248c0.44166,0.24999 0.94581,0.37499 1.51247,0.37499c0.30833,0 0.62499,-0.05417 0.94998,-0.1625c0.32499,-0.11667 0.58749,-0.24999 0.78748,-0.39999c0.15,-0.10833 0.31249,-0.16666 0.48749,-0.175c0.175,-0.00833 0.32499,0.04583 0.44999,0.1625c0.16666,0.14167 0.25416,0.30416 0.26249,0.48749c0.01667,0.175 -0.0625,0.32916 -0.2375,0.46249c-0.33333,0.26666 -0.75415,0.48749 -1.26247,0.66249c-0.49999,0.16666 -0.97915,0.24999 -1.43747,0.24999zM183.63762,54.91407c-0.72499,0 -1.37914,-0.17916 -1.96246,-0.53749c-0.57499,-0.36666 -1.02915,-0.86248 -1.36247,-1.48747c-0.33333,-0.62499 -0.49999,-1.32914 -0.49999,-2.11246c0,-0.78332 0.17916,-1.48747 0.53749,-2.11246c0.36666,-0.63332 0.85831,-1.12915 1.47497,-1.48747c0.62499,-0.36666 1.32914,-0.54999 2.11246,-0.54999c0.77498,0 1.4708,0.18333 2.08746,0.54999c0.61666,0.35832 1.10415,0.85415 1.46247,1.48747c0.36666,0.62499 0.54999,1.32914 0.54999,2.11246h-0.58749c0,0.78332 -0.16666,1.48747 -0.49999,2.11246c-0.33333,0.62499 -0.78748,1.12081 -1.36247,1.48747c-0.57499,0.35832 -1.22498,0.53749 -1.94996,0.53749zM183.93761,53.5641c0.49999,0 0.94998,-0.12083 1.34997,-0.36249c0.39999,-0.24166 0.71249,-0.57499 0.93748,-0.99998c0.23333,-0.42499 0.34999,-0.89998 0.34999,-1.42497c0,-0.53332 -0.11667,-1.01248 -0.34999,-1.43747c-0.225,-0.42499 -0.53749,-0.75832 -0.93748,-0.99998c-0.39999,-0.24166 -0.84998,-0.36249 -1.34997,-0.36249c-0.49999,0 -0.95415,0.12083 -1.36247,0.36249c-0.39999,0.24166 -0.71665,0.57499 -0.94998,0.99998c-0.23333,0.42499 -0.34999,0.90415 -0.34999,1.43747c0,0.52499 0.11667,0.99998 0.34999,1.42497c0.23333,0.42499 0.54999,0.75832 0.94998,0.99998c0.40832,0.24166 0.86248,0.36249 1.36247,0.36249zM187.27505,54.86407c-0.21666,0 -0.39999,-0.07083 -0.54999,-0.2125c-0.14167,-0.14167 -0.2125,-0.32499 -0.2125,-0.54999v-2.27495l0.28749,-1.58747l1.23748,0.53749v3.32493c0,0.225 -0.075,0.40832 -0.225,0.54999c-0.14167,0.14167 -0.32083,0.2125 -0.53749,0.2125zM192.24933,54.85157c-0.44166,0 -0.83332,-0.11667 -1.17498,-0.34999c-0.33333,-0.24166 -0.59582,-0.56666 -0.78748,-0.97498c-0.18333,-0.41666 -0.27499,-0.89581 -0.27499,-1.43747v-8.14984c0,-0.21666 0.06667,-0.39582 0.2,-0.53749c0.14167,-0.14167 0.32083,-0.2125 0.53749,-0.2125c0.225,0 0.40416,0.07083 0.53749,0.2125c0.14167,0.14167 0.2125,0.32083 0.2125,0.53749v8.14984c0,0.36666 0.06667,0.67082 0.2,0.91248c0.14167,0.24166 0.32499,0.36249 0.54999,0.36249h0.37499c0.19166,0 0.34999,0.07083 0.47499,0.2125c0.125,0.13333 0.1875,0.30833 0.1875,0.52499c0,0.225 -0.09583,0.40832 -0.28749,0.54999c-0.18333,0.13333 -0.42499,0.2 -0.72499,0.2zM197.75172,54.85157c-0.49999,0 -0.94998,-0.125 -1.34997,-0.37499c-0.39166,-0.25833 -0.70415,-0.60416 -0.93748,-1.03748c-0.225,-0.44166 -0.33749,-0.93748 -0.33749,-1.48747v-7.11236c0,-0.21666 0.06667,-0.39582 0.2,-0.53749c0.14167,-0.14167 0.32499,-0.2125 0.54999,-0.2125c0.21666,0 0.39166,0.07083 0.52499,0.2125c0.14167,0.14167 0.2125,0.32083 0.2125,0.53749v7.11236c0,0.39999 0.10833,0.73749 0.32499,1.01248c0.225,0.26666 0.49582,0.39999 0.81248,0.39999h0.51249c0.175,0 0.32499,0.07083 0.44999,0.2125c0.125,0.13333 0.1875,0.30833 0.1875,0.52499c0,0.225 -0.08333,0.40832 -0.24999,0.54999c-0.15833,0.13333 -0.36666,0.2 -0.62499,0.2zM194.43928,48.2642c-0.20833,0 -0.37916,-0.05833 -0.51249,-0.175c-0.125,-0.11667 -0.1875,-0.26666 -0.1875,-0.44999c0,-0.2 0.0625,-0.35832 0.1875,-0.47499c0.13333,-0.11667 0.30416,-0.175 0.51249,-0.175h3.44993c0.20833,0 0.37499,0.05833 0.49999,0.175c0.13333,0.11667 0.2,0.27499 0.2,0.47499c0,0.18333 -0.06667,0.33333 -0.2,0.44999c-0.125,0.11667 -0.29166,0.175 -0.49999,0.175zM207.66144,54.86407c-0.21666,0 -0.39999,-0.07083 -0.54999,-0.2125c-0.14167,-0.14167 -0.2125,-0.32499 -0.2125,-0.54999v-3.66243c0,-0.56666 -0.10417,-1.02915 -0.31249,-1.38747c-0.20833,-0.35832 -0.49166,-0.62499 -0.84998,-0.79998c-0.34999,-0.175 -0.75415,-0.26249 -1.21248,-0.26249c-0.41666,0 -0.79582,0.08333 -1.13748,0.24999c-0.33333,0.16666 -0.59999,0.39166 -0.79998,0.67499c-0.2,0.28333 -0.29999,0.61249 -0.29999,0.98748h-0.93748c0,-0.63332 0.15,-1.19581 0.44999,-1.68747c0.30833,-0.49166 0.72499,-0.87915 1.24997,-1.16248c0.52499,-0.29166 1.11665,-0.43749 1.77496,-0.43749c0.69165,0 1.30831,0.14583 1.84996,0.43749c0.54166,0.29166 0.96665,0.72082 1.27497,1.28747c0.31666,0.56666 0.47499,1.26664 0.47499,2.09996v3.66243c0,0.225 -0.075,0.40832 -0.225,0.54999c-0.14167,0.14167 -0.32083,0.2125 -0.53749,0.2125zM201.52407,54.86407c-0.21666,0 -0.39999,-0.07083 -0.54999,-0.2125c-0.14167,-0.14167 -0.2125,-0.32499 -0.2125,-0.54999v-6.64987c0,-0.23333 0.07083,-0.41666 0.2125,-0.54999c0.15,-0.14167 0.33333,-0.2125 0.54999,-0.2125c0.23333,0 0.41666,0.07083 0.54999,0.2125c0.14167,0.13333 0.2125,0.31666 0.2125,0.54999v6.64987c0,0.225 -0.07083,0.40832 -0.2125,0.54999c-0.13333,0.14167 -0.31666,0.2125 -0.54999,0.2125zM201.52407,51.87663c-0.21666,0 -0.39999,-0.07083 -0.54999,-0.2125c-0.14167,-0.14167 -0.2125,-0.32499 -0.2125,-0.54999v-7.16236c0,-0.225 0.07083,-0.40832 0.2125,-0.54999c0.15,-0.14167 0.33333,-0.2125 0.54999,-0.2125c0.23333,0 0.41666,0.07083 0.54999,0.2125c0.14167,0.14167 0.2125,0.32499 0.2125,0.54999v7.16236c0,0.225 -0.07083,0.40832 -0.2125,0.54999c-0.13333,0.14167 -0.31666,0.2125 -0.54999,0.2125z" fill="#00eeff" stroke="#00e5ff" stroke-width="1" stroke-linecap="square"/><path d="M99.39363,123.95122c-0.18333,0 -0.34583,-0.05417 -0.48749,-0.1625c-0.13333,-0.10833 -0.22916,-0.25833 -0.28749,-0.44999l-2.99993,-9.9748c-0.1,-0.32499 -0.09583,-0.58332 0.0125,-0.77498c0.11667,-0.2 0.30416,-0.29999 0.56249,-0.29999c0.16666,0 0.32083,0.05 0.46249,0.15c0.14167,0.09167 0.24166,0.2375 0.29999,0.43749l2.61244,9.09982h-0.32499l2.41245,-9.01232c0.04167,-0.15 0.12917,-0.27499 0.26249,-0.37499c0.14167,-0.1 0.30416,-0.15 0.48749,-0.15c0.15833,0 0.30833,0.04583 0.44999,0.1375c0.15,0.08333 0.24166,0.20833 0.27499,0.37499l2.43745,9.02482h-0.29999l2.62495,-9.17482c0.1,-0.34166 0.35416,-0.51249 0.76248,-0.51249c0.28333,0 0.46249,0.10833 0.53749,0.32499c0.08333,0.21666 0.08333,0.46666 0,0.74998l-2.99994,9.9623c-0.06667,0.19166 -0.17083,0.34583 -0.31249,0.46249c-0.13333,0.10833 -0.28749,0.1625 -0.46249,0.1625c-0.19166,0 -0.35416,-0.05833 -0.48749,-0.175c-0.13333,-0.125 -0.22916,-0.27083 -0.28749,-0.43749l-2.39995,-9.28731h0.34999l-2.42495,9.27481c-0.075,0.19166 -0.17916,0.34583 -0.31249,0.46249c-0.13333,0.10833 -0.28749,0.1625 -0.46249,0.1625zM111.66804,123.95122c-0.21666,0 -0.39999,-0.07083 -0.54999,-0.2125c-0.14167,-0.15 -0.2125,-0.33333 -0.2125,-0.54999v-6.63737c0,-0.23333 0.07083,-0.41666 0.2125,-0.54999c0.15,-0.14167 0.33333,-0.2125 0.54999,-0.2125c0.23333,0 0.41666,0.07083 0.54999,0.2125c0.14167,0.13333 0.2125,0.31666 0.2125,0.54999v6.63737c0,0.21666 -0.07083,0.39999 -0.2125,0.54999c-0.13333,0.14167 -0.31666,0.2125 -0.54999,0.2125zM111.80554,114.46391c-0.26666,0 -0.49999,-0.09583 -0.69999,-0.28749c-0.19166,-0.2 -0.28749,-0.43332 -0.28749,-0.69999c0,-0.26666 0.09583,-0.49582 0.28749,-0.68749c0.2,-0.2 0.43332,-0.29999 0.69999,-0.29999c0.26666,0 0.49582,0.1 0.68749,0.29999c0.2,0.19166 0.29999,0.42082 0.29999,0.68749c0,0.26666 -0.1,0.49999 -0.29999,0.69999c-0.19166,0.19166 -0.42082,0.28749 -0.68749,0.28749zM122.16268,123.96372c-0.21666,0 -0.39999,-0.07083 -0.54999,-0.2125c-0.14167,-0.14167 -0.2125,-0.32499 -0.2125,-0.54999v-3.66243c0,-0.56666 -0.10417,-1.02915 -0.31249,-1.38747c-0.20833,-0.35832 -0.49166,-0.62499 -0.84998,-0.79998c-0.34999,-0.175 -0.75415,-0.26249 -1.21248,-0.26249c-0.41666,0 -0.79582,0.08333 -1.13748,0.24999c-0.33333,0.16666 -0.59999,0.39166 -0.79998,0.67499c-0.2,0.28333 -0.29999,0.61249 -0.29999,0.98748h-0.93748c0,-0.63332 0.15,-1.19581 0.44999,-1.68747c0.30833,-0.49166 0.72499,-0.87915 1.24997,-1.16248c0.52499,-0.29166 1.11665,-0.43749 1.77496,-0.43749c0.69165,0 1.30831,0.14583 1.84996,0.43749c0.54166,0.29166 0.96665,0.72082 1.27497,1.28747c0.31666,0.56666 0.47499,1.26664 0.47499,2.09996v3.66243c0,0.225 -0.075,0.40832 -0.225,0.54999c-0.14167,0.14167 -0.32083,0.2125 -0.53749,0.2125zM116.0253,123.96372c-0.21666,0 -0.39999,-0.07083 -0.54999,-0.2125c-0.14167,-0.14167 -0.2125,-0.32499 -0.2125,-0.54999v-6.64987c0,-0.23333 0.07083,-0.41666 0.2125,-0.54999c0.15,-0.14167 0.33333,-0.2125 0.54999,-0.2125c0.23333,0 0.41666,0.07083 0.54999,0.2125c0.14167,0.13333 0.2125,0.31666 0.2125,0.54999v6.64987c0,0.225 -0.07083,0.40832 -0.2125,0.54999c-0.13333,0.14167 -0.31666,0.2125 -0.54999,0.2125zM128.8539,124.01372c-0.74998,0 -1.41247,-0.175 -1.98746,-0.52499c-0.56666,-0.35832 -1.01665,-0.84582 -1.34997,-1.46247c-0.32499,-0.62499 -0.48749,-1.34164 -0.48749,-2.14996c0,-0.81665 0.175,-1.5333 0.52499,-2.14996c0.35832,-0.62499 0.84582,-1.11248 1.46247,-1.46247c0.61666,-0.35832 1.32914,-0.53749 2.13746,-0.53749c0.79165,0 1.4958,0.17916 2.11246,0.53749c0.61666,0.34999 1.09998,0.83748 1.44997,1.46247c0.35832,0.61666 0.53749,1.33331 0.53749,2.14996h-0.88748c0,0.80832 -0.15,1.52497 -0.44999,2.14996c-0.29999,0.61666 -0.71665,1.10415 -1.24997,1.46247c-0.52499,0.34999 -1.12915,0.52499 -1.81246,0.52499zM129.1164,127.33865c-0.70832,0 -1.3708,-0.14167 -1.98746,-0.42499c-0.61666,-0.27499 -1.13748,-0.67915 -1.56247,-1.21248c-0.13333,-0.175 -0.18333,-0.35416 -0.15,-0.53749c0.04167,-0.175 0.14167,-0.31666 0.29999,-0.42499c0.175,-0.11667 0.35832,-0.15416 0.54999,-0.1125c0.2,0.04167 0.35832,0.14167 0.47499,0.29999c0.27499,0.33333 0.61249,0.59582 1.01248,0.78748c0.40832,0.19166 0.87498,0.28749 1.39997,0.28749c0.47499,0 0.91248,-0.11667 1.31247,-0.34999c0.40832,-0.225 0.72915,-0.56249 0.96248,-1.01248c0.24166,-0.44999 0.36249,-0.99581 0.36249,-1.63747v-2.12496l0.48749,-1.31247l0.97498,0.31249v3.22494c0,0.78332 -0.175,1.4958 -0.52499,2.13746c-0.34999,0.64166 -0.83748,1.14998 -1.46247,1.52497c-0.61666,0.38332 -1.33331,0.57499 -2.14996,0.57499zM129.15389,122.66374c0.51666,0 0.97081,-0.11667 1.36247,-0.34999c0.39999,-0.24166 0.71249,-0.57082 0.93748,-0.98748c0.225,-0.41666 0.33749,-0.89998 0.33749,-1.44997c0,-0.54999 -0.1125,-1.03331 -0.33749,-1.44997c-0.225,-0.42499 -0.53749,-0.75415 -0.93748,-0.98748c-0.39166,-0.24166 -0.84582,-0.36249 -1.36247,-0.36249c-0.52499,0 -0.98748,0.12083 -1.38747,0.36249c-0.39166,0.23333 -0.70415,0.56249 -0.93748,0.98748c-0.225,0.41666 -0.33749,0.89998 -0.33749,1.44997c0,0.54999 0.1125,1.03331 0.33749,1.44997c0.23333,0.41666 0.54582,0.74582 0.93748,0.98748c0.39999,0.23333 0.86248,0.34999 1.38747,0.34999zM145.26347,124.10122c-0.79998,0 -1.55414,-0.15 -2.26245,-0.44999c-0.69999,-0.30833 -1.31247,-0.73332 -1.83746,-1.27497c-0.51666,-0.54166 -0.92498,-1.17498 -1.22498,-1.89996c-0.29166,-0.72499 -0.43749,-1.51247 -0.43749,-2.36245c0,-0.83332 0.14583,-1.6083 0.43749,-2.32495c0.29999,-0.72499 0.70832,-1.3583 1.22498,-1.89996c0.52499,-0.54166 1.13331,-0.96665 1.82496,-1.27497c0.69999,-0.30833 1.4583,-0.46249 2.27495,-0.46249c0.76665,0 1.42497,0.1 1.97496,0.29999c0.55832,0.19166 1.11665,0.51666 1.67497,0.97498c0.075,0.05833 0.13333,0.12083 0.175,0.1875c0.05,0.06667 0.08333,0.13333 0.1,0.2c0.01667,0.05833 0.025,0.13333 0.025,0.225c0,0.19166 -0.07083,0.34999 -0.2125,0.47499c-0.13333,0.125 -0.29583,0.19583 -0.48749,0.2125c-0.18333,0.00833 -0.36666,-0.05417 -0.54999,-0.1875c-0.36666,-0.32499 -0.74582,-0.57082 -1.13748,-0.73749c-0.39166,-0.16666 -0.91248,-0.24999 -1.56247,-0.24999c-0.58332,0 -1.13331,0.12083 -1.64997,0.36249c-0.51666,0.23333 -0.97498,0.55832 -1.37497,0.97498c-0.39166,0.41666 -0.69582,0.90415 -0.91248,1.46247c-0.21666,0.54999 -0.32499,1.13748 -0.32499,1.76246c0,0.64166 0.10833,1.23748 0.32499,1.78746c0.21666,0.54999 0.52082,1.03331 0.91248,1.44997c0.39999,0.41666 0.85831,0.74582 1.37497,0.98748c0.51666,0.23333 1.06665,0.34999 1.64997,0.34999c0.50832,0 0.98748,-0.0875 1.43747,-0.26249c0.45832,-0.175 0.89581,-0.41666 1.31247,-0.72499c0.175,-0.13333 0.34999,-0.19166 0.52499,-0.175c0.175,0.01667 0.32083,0.0875 0.43749,0.2125c0.125,0.125 0.1875,0.29583 0.1875,0.51249c0,0.1 -0.02083,0.2 -0.0625,0.29999c-0.04167,0.09167 -0.1,0.175 -0.175,0.24999c-0.54166,0.42499 -1.12081,0.74998 -1.73747,0.97498c-0.60832,0.21666 -1.24997,0.32499 -1.92496,0.32499zM154.30018,124.01372c-0.72499,0 -1.37914,-0.17916 -1.96246,-0.53749c-0.57499,-0.36666 -1.02915,-0.86248 -1.36247,-1.48747c-0.33333,-0.62499 -0.49999,-1.32914 -0.49999,-2.11246c0,-0.78332 0.17916,-1.48747 0.53749,-2.11246c0.36666,-0.63332 0.85831,-1.12915 1.47497,-1.48747c0.62499,-0.36666 1.32914,-0.54999 2.11246,-0.54999c0.77498,0 1.4708,0.18333 2.08746,0.54999c0.61666,0.35832 1.10415,0.85415 1.46247,1.48747c0.36666,0.62499 0.54999,1.32914 0.54999,2.11246h-0.58749c0,0.78332 -0.16666,1.48747 -0.49999,2.11246c-0.33333,0.62499 -0.78748,1.12081 -1.36247,1.48747c-0.57499,0.35832 -1.22498,0.53749 -1.94996,0.53749zM154.60018,122.66374c0.49999,0 0.94998,-0.12083 1.34997,-0.36249c0.39999,-0.24166 0.71249,-0.57499 0.93748,-0.99998c0.23333,-0.42499 0.34999,-0.89998 0.34999,-1.42497c0,-0.53332 -0.11667,-1.01248 -0.34999,-1.43747c-0.225,-0.42499 -0.53749,-0.75832 -0.93748,-0.99998c-0.39999,-0.24166 -0.84998,-0.36249 -1.34997,-0.36249c-0.49999,0 -0.95415,0.12083 -1.36247,0.36249c-0.39999,0.24166 -0.71665,0.57499 -0.94998,0.99998c-0.23333,0.42499 -0.34999,0.90415 -0.34999,1.43747c0,0.52499 0.11667,0.99998 0.34999,1.42497c0.23333,0.42499 0.54999,0.75832 0.94998,0.99998c0.40832,0.24166 0.86248,0.36249 1.36247,0.36249zM157.93761,123.96372c-0.21666,0 -0.39999,-0.07083 -0.54999,-0.2125c-0.14167,-0.14167 -0.2125,-0.32499 -0.2125,-0.54999v-2.27495l0.28749,-1.58747l1.23748,0.53749v3.32493c0,0.225 -0.075,0.40832 -0.225,0.54999c-0.14167,0.14167 -0.32083,0.2125 -0.53749,0.2125zM167.86179,123.96372c-0.21666,0 -0.39999,-0.07083 -0.54999,-0.2125c-0.14167,-0.14167 -0.2125,-0.32499 -0.2125,-0.54999v-3.66243c0,-0.56666 -0.10417,-1.02915 -0.31249,-1.38747c-0.20833,-0.35832 -0.49166,-0.62499 -0.84998,-0.79998c-0.34999,-0.175 -0.75415,-0.26249 -1.21248,-0.26249c-0.41666,0 -0.79582,0.08333 -1.13748,0.24999c-0.33333,0.16666 -0.59999,0.39166 -0.79998,0.67499c-0.2,0.28333 -0.29999,0.61249 -0.29999,0.98748h-0.93748c0,-0.63332 0.15,-1.19581 0.44999,-1.68747c0.30833,-0.49166 0.72499,-0.87915 1.24997,-1.16248c0.52499,-0.29166 1.11665,-0.43749 1.77496,-0.43749c0.69165,0 1.30831,0.14583 1.84996,0.43749c0.54166,0.29166 0.96665,0.72082 1.27497,1.28747c0.31666,0.56666 0.47499,1.26664 0.47499,2.09996v3.66243c0,0.225 -0.075,0.40832 -0.225,0.54999c-0.14167,0.14167 -0.32083,0.2125 -0.53749,0.2125zM161.7244,123.96372c-0.21666,0 -0.39999,-0.07083 -0.54999,-0.2125c-0.14167,-0.14167 -0.2125,-0.32499 -0.2125,-0.54999v-6.64987c0,-0.23333 0.07083,-0.41666 0.2125,-0.54999c0.15,-0.14167 0.33333,-0.2125 0.54999,-0.2125c0.23333,0 0.41666,0.07083 0.54999,0.2125c0.14167,0.13333 0.2125,0.31666 0.2125,0.54999v6.64987c0,0.225 -0.07083,0.40832 -0.2125,0.54999c-0.13333,0.14167 -0.31666,0.2125 -0.54999,0.2125zM178.04044,123.96372c-0.21666,0 -0.39999,-0.07083 -0.54999,-0.2125c-0.14167,-0.14167 -0.2125,-0.32499 -0.2125,-0.54999v-3.66243c0,-0.56666 -0.10417,-1.02915 -0.31249,-1.38747c-0.20833,-0.35832 -0.49166,-0.62499 -0.84998,-0.79998c-0.34999,-0.175 -0.75415,-0.26249 -1.21248,-0.26249c-0.41666,0 -0.79582,0.08333 -1.13748,0.24999c-0.33333,0.16666 -0.59999,0.39166 -0.79998,0.67499c-0.2,0.28333 -0.29999,0.61249 -0.29999,0.98748h-0.93748c0,-0.63332 0.15,-1.19581 0.44999,-1.68747c0.30833,-0.49166 0.72499,-0.87915 1.24997,-1.16248c0.52499,-0.29166 1.11665,-0.43749 1.77496,-0.43749c0.69165,0 1.30831,0.14583 1.84996,0.43749c0.54166,0.29166 0.96665,0.72082 1.27497,1.28747c0.31666,0.56666 0.47499,1.26664 0.47499,2.09996v3.66243c0,0.225 -0.075,0.40832 -0.225,0.54999c-0.14167,0.14167 -0.32083,0.2125 -0.53749,0.2125zM171.90306,123.96372c-0.21666,0 -0.39999,-0.07083 -0.54999,-0.2125c-0.14167,-0.14167 -0.2125,-0.32499 -0.2125,-0.54999v-6.64987c0,-0.23333 0.07083,-0.41666 0.2125,-0.54999c0.15,-0.14167 0.33333,-0.2125 0.54999,-0.2125c0.23333,0 0.41666,0.07083 0.54999,0.2125c0.14167,0.13333 0.2125,0.31666 0.2125,0.54999v6.64987c0,0.225 -0.07083,0.40832 -0.2125,0.54999c-0.13333,0.14167 -0.31666,0.2125 -0.54999,0.2125zM185.03166,124.01372c-0.80832,0 -1.5208,-0.175 -2.13746,-0.52499c-0.61666,-0.35832 -1.10415,-0.84582 -1.46247,-1.46247c-0.34999,-0.62499 -0.52499,-1.34164 -0.52499,-2.14996c0,-0.81665 0.175,-1.5333 0.52499,-2.14996c0.35832,-0.62499 0.84582,-1.11248 1.46247,-1.46247c0.61666,-0.35832 1.32914,-0.53749 2.13746,-0.53749c0.79165,0 1.4958,0.17916 2.11246,0.53749c0.61666,0.34999 1.09998,0.83748 1.44997,1.46247c0.35832,0.61666 0.53749,1.33331 0.53749,2.14996c0,0.80832 -0.175,1.52497 -0.52499,2.14996c-0.34999,0.61666 -0.83332,1.10415 -1.44997,1.46247c-0.61666,0.34999 -1.32497,0.52499 -2.12496,0.52499zM185.03166,122.66374c0.51666,0 0.97081,-0.11667 1.36247,-0.34999c0.39999,-0.24166 0.71249,-0.57082 0.93748,-0.98748c0.225,-0.41666 0.33749,-0.89998 0.33749,-1.44997c0,-0.54999 -0.1125,-1.03331 -0.33749,-1.44997c-0.225,-0.42499 -0.53749,-0.75415 -0.93748,-0.98748c-0.39166,-0.24166 -0.84582,-0.36249 -1.36247,-0.36249c-0.52499,0 -0.98748,0.12083 -1.38747,0.36249c-0.39166,0.23333 -0.70415,0.56249 -0.93748,0.98748c-0.225,0.41666 -0.33749,0.89998 -0.33749,1.44997c0,0.54999 0.1125,1.03331 0.33749,1.44997c0.23333,0.41666 0.54582,0.74582 0.93748,0.98748c0.39999,0.23333 0.86248,0.34999 1.38747,0.34999zM198.29327,123.96372c-0.21666,0 -0.39999,-0.07083 -0.54999,-0.2125c-0.14167,-0.14167 -0.2125,-0.32499 -0.2125,-0.54999v-3.66243c0,-0.56666 -0.10417,-1.02915 -0.31249,-1.38747c-0.20833,-0.35832 -0.49166,-0.62499 -0.84998,-0.79998c-0.34999,-0.175 -0.75415,-0.26249 -1.21248,-0.26249c-0.41666,0 -0.79582,0.08333 -1.13748,0.24999c-0.33333,0.16666 -0.59999,0.39166 -0.79998,0.67499c-0.2,0.28333 -0.29999,0.61249 -0.29999,0.98748h-0.93748c0,-0.63332 0.15,-1.19581 0.44999,-1.68747c0.30833,-0.49166 0.72499,-0.87915 1.24997,-1.16248c0.52499,-0.29166 1.11665,-0.43749 1.77496,-0.43749c0.69165,0 1.30831,0.14583 1.84996,0.43749c0.54166,0.29166 0.96665,0.72082 1.27497,1.28747c0.31666,0.56666 0.47499,1.26664 0.47499,2.09996v3.66243c0,0.225 -0.075,0.40832 -0.225,0.54999c-0.14167,0.14167 -0.32083,0.2125 -0.53749,0.2125zM192.15589,123.96372c-0.21666,0 -0.39999,-0.07083 -0.54999,-0.2125c-0.14167,-0.14167 -0.2125,-0.32499 -0.2125,-0.54999v-6.64987c0,-0.23333 0.07083,-0.41666 0.2125,-0.54999c0.15,-0.14167 0.33333,-0.2125 0.54999,-0.2125c0.23333,0 0.41666,0.07083 0.54999,0.2125c0.14167,0.13333 0.2125,0.31666 0.2125,0.54999v6.64987c0,0.225 -0.07083,0.40832 -0.2125,0.54999c-0.13333,0.14167 -0.31666,0.2125 -0.54999,0.2125zM204.547,124.01372c-0.69999,0 -1.34581,-0.10833 -1.93746,-0.32499c-0.59166,-0.21666 -1.04998,-0.48749 -1.37497,-0.81248c-0.15,-0.15833 -0.2125,-0.33749 -0.1875,-0.53749c0.025,-0.20833 0.12083,-0.37916 0.28749,-0.51249c0.2,-0.15833 0.39582,-0.225 0.58749,-0.2c0.2,0.025 0.37082,0.1125 0.51249,0.26249c0.16666,0.19166 0.43332,0.37082 0.79998,0.53749c0.37499,0.15833 0.79165,0.2375 1.24997,0.2375c0.58332,0 1.02498,-0.09167 1.32497,-0.27499c0.29999,-0.19166 0.45832,-0.43749 0.47499,-0.73749c0.00833,-0.29999 -0.1375,-0.55832 -0.43749,-0.77498c-0.29166,-0.21666 -0.82498,-0.39582 -1.59997,-0.53749c-0.99998,-0.2 -1.72913,-0.49582 -2.18746,-0.88748c-0.44999,-0.39999 -0.67499,-0.89165 -0.67499,-1.47497c0,-0.49999 0.15,-0.91665 0.44999,-1.24997c0.29999,-0.33333 0.68332,-0.58332 1.14998,-0.74998c0.46666,-0.16666 0.95415,-0.24999 1.46247,-0.24999c0.65832,0 1.23748,0.10417 1.73747,0.31249c0.50832,0.20833 0.91248,0.49582 1.21248,0.86248c0.14167,0.16666 0.20416,0.33749 0.1875,0.51249c-0.00833,0.16666 -0.09167,0.31249 -0.24999,0.43749c-0.15833,0.10833 -0.34583,0.14167 -0.56249,0.1c-0.21666,-0.04167 -0.39999,-0.12917 -0.54999,-0.26249c-0.24999,-0.24166 -0.52082,-0.40832 -0.81248,-0.49999c-0.28333,-0.09167 -0.61666,-0.1375 -0.99998,-0.1375c-0.43332,0 -0.80415,0.075 -1.11248,0.225c-0.29999,0.15 -0.44999,0.37082 -0.44999,0.66249c0,0.175 0.04583,0.33749 0.1375,0.48749c0.1,0.14167 0.28749,0.27083 0.56249,0.38749c0.28333,0.10833 0.69165,0.22083 1.22498,0.33749c0.74998,0.14167 1.33747,0.32916 1.76246,0.56249c0.43332,0.225 0.74582,0.49166 0.93748,0.79998c0.19166,0.29999 0.28749,0.64999 0.28749,1.04998c0,0.45832 -0.125,0.87081 -0.37499,1.23748c-0.24166,0.36666 -0.59999,0.66249 -1.07498,0.88748c-0.46666,0.21666 -1.05415,0.32499 -1.76246,0.32499z" fill="#00eeff" stroke="#00e5ff" stroke-width="1" stroke-linecap="square"/><path d="M149.18117,159.05086c-0.21666,0 -0.39998,-0.075 -0.54998,-0.225c-0.15,-0.15 -0.225,-0.33333 -0.225,-0.54999v-10.0998c0,-0.23333 0.075,-0.42082 0.225,-0.56249c0.15,-0.15 0.33332,-0.225 0.54998,-0.225c0.29999,0 0.52916,0.14167 0.68749,0.42499l4.67491,9.36231h-0.47499l4.54991,-9.36231c0.15833,-0.28333 0.38749,-0.42499 0.68749,-0.42499c0.21666,0 0.39999,0.075 0.54999,0.225c0.15,0.14167 0.225,0.32916 0.225,0.56249v10.0998c0,0.21666 -0.07917,0.39999 -0.2375,0.54999c-0.15,0.15 -0.32916,0.225 -0.53749,0.225c-0.21666,0 -0.39999,-0.075 -0.54999,-0.225c-0.15,-0.15 -0.225,-0.33333 -0.225,-0.54999v-7.94984l0.29999,-0.075l-3.91242,7.96234c-0.16666,0.25833 -0.39166,0.38749 -0.67499,0.38749c-0.32499,0 -0.56249,-0.15416 -0.71249,-0.46249l-3.86242,-7.74984l0.29999,-0.0625v7.94984c0,0.21666 -0.075,0.39999 -0.225,0.54999c-0.15,0.15 -0.33749,0.225 -0.56249,0.225zM166.32467,159.11336c-0.72499,0 -1.37914,-0.17916 -1.96246,-0.53749c-0.57499,-0.36666 -1.02915,-0.86248 -1.36247,-1.48747c-0.33333,-0.62499 -0.49999,-1.32914 -0.49999,-2.11246c0,-0.78332 0.17916,-1.48747 0.53749,-2.11246c0.36666,-0.63332 0.85831,-1.12915 1.47497,-1.48747c0.62499,-0.36666 1.32914,-0.54999 2.11246,-0.54999c0.77498,0 1.4708,0.18333 2.08746,0.54999c0.61666,0.35832 1.10415,0.85415 1.46247,1.48747c0.36666,0.62499 0.54999,1.32914 0.54999,2.11246h-0.58749c0,0.78332 -0.16666,1.48747 -0.49999,2.11246c-0.33333,0.62499 -0.78748,1.12081 -1.36247,1.48747c-0.57499,0.35832 -1.22498,0.53749 -1.94996,0.53749zM166.62465,157.76339c0.49999,0 0.94998,-0.12083 1.34997,-0.36249c0.39999,-0.24166 0.71249,-0.57499 0.93748,-0.99998c0.23333,-0.42499 0.34999,-0.89998 0.34999,-1.42497c0,-0.53332 -0.11667,-1.01248 -0.34999,-1.43747c-0.225,-0.42499 -0.53749,-0.75832 -0.93748,-0.99998c-0.39999,-0.24166 -0.84998,-0.36249 -1.34997,-0.36249c-0.49999,0 -0.95415,0.12083 -1.36247,0.36249c-0.39999,0.24166 -0.71665,0.57499 -0.94998,0.99998c-0.23333,0.42499 -0.34999,0.90415 -0.34999,1.43747c0,0.52499 0.11667,0.99998 0.34999,1.42497c0.23333,0.42499 0.54999,0.75832 0.94998,0.99998c0.40832,0.24166 0.86248,0.36249 1.36247,0.36249zM169.9621,159.06337c-0.21666,0 -0.39999,-0.07083 -0.54999,-0.2125c-0.14167,-0.14167 -0.2125,-0.32499 -0.2125,-0.54999v-2.27495l0.28749,-1.58747l1.23748,0.53749v3.32493c0,0.225 -0.075,0.40832 -0.225,0.54999c-0.14167,0.14167 -0.32083,0.2125 -0.53749,0.2125zM176.39884,159.11336c-0.74998,0 -1.41247,-0.175 -1.98746,-0.52499c-0.56666,-0.35832 -1.01665,-0.84582 -1.34997,-1.46247c-0.32499,-0.62499 -0.48749,-1.34164 -0.48749,-2.14996c0,-0.81665 0.175,-1.5333 0.52499,-2.14996c0.35832,-0.62499 0.84582,-1.11248 1.46247,-1.46247c0.61666,-0.35832 1.32914,-0.53749 2.13746,-0.53749c0.79165,0 1.4958,0.17916 2.11246,0.53749c0.61666,0.34999 1.09998,0.83748 1.44997,1.46247c0.35832,0.61666 0.53749,1.33331 0.53749,2.14996h-0.88748c0,0.80832 -0.15,1.52497 -0.44999,2.14996c-0.29999,0.61666 -0.71665,1.10415 -1.24997,1.46247c-0.52499,0.34999 -1.12915,0.52499 -1.81246,0.52499zM176.66134,162.4383c-0.70832,0 -1.3708,-0.14167 -1.98746,-0.42499c-0.61666,-0.27499 -1.13748,-0.67915 -1.56247,-1.21248c-0.13333,-0.175 -0.18333,-0.35416 -0.15,-0.53749c0.04167,-0.175 0.14167,-0.31666 0.29999,-0.42499c0.175,-0.11667 0.35832,-0.15416 0.54999,-0.1125c0.2,0.04167 0.35832,0.14167 0.47499,0.29999c0.27499,0.33333 0.61249,0.59582 1.01248,0.78748c0.40832,0.19166 0.87498,0.28749 1.39997,0.28749c0.47499,0 0.91248,-0.11667 1.31247,-0.34999c0.40832,-0.225 0.72915,-0.56249 0.96248,-1.01248c0.24166,-0.44999 0.36249,-0.99581 0.36249,-1.63747v-2.12496l0.48749,-1.31247l0.97498,0.31249v3.22494c0,0.78332 -0.175,1.4958 -0.52499,2.13746c-0.34999,0.64166 -0.83748,1.14998 -1.46247,1.52497c-0.61666,0.38332 -1.33331,0.57499 -2.14996,0.57499zM176.69884,157.76339c0.51666,0 0.97081,-0.11667 1.36247,-0.34999c0.39999,-0.24166 0.71249,-0.57082 0.93748,-0.98748c0.225,-0.41666 0.33749,-0.89998 0.33749,-1.44997c0,-0.54999 -0.1125,-1.03331 -0.33749,-1.44997c-0.225,-0.42499 -0.53749,-0.75415 -0.93748,-0.98748c-0.39166,-0.24166 -0.84582,-0.36249 -1.36247,-0.36249c-0.52499,0 -0.98748,0.12083 -1.38747,0.36249c-0.39166,0.23333 -0.70415,0.56249 -0.93748,0.98748c-0.225,0.41666 -0.33749,0.89998 -0.33749,1.44997c0,0.54999 0.1125,1.03331 0.33749,1.44997c0.23333,0.41666 0.54582,0.74582 0.93748,0.98748c0.39999,0.23333 0.86248,0.34999 1.38747,0.34999zM189.96045,159.06337c-0.21666,0 -0.39999,-0.07083 -0.54999,-0.2125c-0.14167,-0.14167 -0.2125,-0.32499 -0.2125,-0.54999v-3.66243c0,-0.56666 -0.10417,-1.02915 -0.31249,-1.38747c-0.20833,-0.35832 -0.49166,-0.62499 -0.84998,-0.79998c-0.34999,-0.175 -0.75415,-0.26249 -1.21248,-0.26249c-0.41666,0 -0.79582,0.08333 -1.13748,0.24999c-0.33333,0.16666 -0.59999,0.39166 -0.79998,0.67499c-0.2,0.28333 -0.29999,0.61249 -0.29999,0.98748h-0.93748c0,-0.63332 0.15,-1.19581 0.44999,-1.68747c0.30833,-0.49166 0.72499,-0.87915 1.24997,-1.16248c0.52499,-0.29166 1.11665,-0.43749 1.77496,-0.43749c0.69165,0 1.30831,0.14583 1.84996,0.43749c0.54166,0.29166 0.96665,0.72082 1.27497,1.28747c0.31666,0.56666 0.47499,1.26664 0.47499,2.09996v3.66243c0,0.225 -0.075,0.40832 -0.225,0.54999c-0.14167,0.14167 -0.32083,0.2125 -0.53749,0.2125zM183.82308,159.06337c-0.21666,0 -0.39999,-0.07083 -0.54999,-0.2125c-0.14167,-0.14167 -0.2125,-0.32499 -0.2125,-0.54999v-6.64987c0,-0.23333 0.07083,-0.41666 0.2125,-0.54999c0.15,-0.14167 0.33333,-0.2125 0.54999,-0.2125c0.23333,0 0.41666,0.07083 0.54999,0.2125c0.14167,0.13333 0.2125,0.31666 0.2125,0.54999v6.64987c0,0.225 -0.07083,0.40832 -0.2125,0.54999c-0.13333,0.14167 -0.31666,0.2125 -0.54999,0.2125zM197.07667,159.11336c-0.82498,0 -1.5583,-0.175 -2.19996,-0.52499c-0.64166,-0.35832 -1.14581,-0.84582 -1.51247,-1.46247c-0.35832,-0.62499 -0.53749,-1.34164 -0.53749,-2.14996c0,-0.81665 0.17083,-1.5333 0.51249,-2.14996c0.34166,-0.62499 0.81665,-1.11248 1.42497,-1.46247c0.60832,-0.35832 1.30414,-0.53749 2.08746,-0.53749c0.78332,0 1.44997,0.17083 1.99996,0.51249c0.55832,0.34166 0.98331,0.81665 1.27497,1.42497c0.29999,0.59999 0.44999,1.29164 0.44999,2.07496c0,0.19166 -0.06667,0.34999 -0.2,0.47499c-0.125,0.125 -0.28749,0.1875 -0.48749,0.1875h-6.01238v-1.19998h5.96238l-0.61249,0.42499c-0.00833,-0.49999 -0.10833,-0.94581 -0.29999,-1.33747c-0.18333,-0.39166 -0.44999,-0.69999 -0.79998,-0.92498c-0.34999,-0.23333 -0.77498,-0.34999 -1.27497,-0.34999c-0.56666,0 -1.04998,0.125 -1.44997,0.37499c-0.39999,0.24166 -0.70832,0.57916 -0.92498,1.01248c-0.20833,0.43332 -0.31249,0.92498 -0.31249,1.47497c0,0.54999 0.125,1.03748 0.37499,1.46247c0.24999,0.42499 0.59166,0.76248 1.02498,1.01248c0.44166,0.24999 0.94581,0.37499 1.51247,0.37499c0.30833,0 0.62499,-0.05417 0.94998,-0.1625c0.32499,-0.11667 0.58749,-0.24999 0.78748,-0.39999c0.15,-0.10833 0.31249,-0.16666 0.48749,-0.175c0.175,-0.00833 0.32499,0.04583 0.44999,0.1625c0.16666,0.14167 0.25416,0.30416 0.26249,0.48749c0.01667,0.175 -0.0625,0.32916 -0.2375,0.46249c-0.33333,0.26666 -0.75415,0.48749 -1.26247,0.66249c-0.49999,0.16666 -0.97915,0.24999 -1.43747,0.24999zM205.48243,159.05086c-0.49999,0 -0.94998,-0.125 -1.34997,-0.37499c-0.39166,-0.25833 -0.70415,-0.60416 -0.93748,-1.03748c-0.225,-0.44166 -0.33749,-0.93748 -0.33749,-1.48747v-7.11236c0,-0.21666 0.06667,-0.39582 0.2,-0.53749c0.14167,-0.14167 0.32499,-0.2125 0.54999,-0.2125c0.21666,0 0.39166,0.07083 0.52499,0.2125c0.14167,0.14167 0.2125,0.32083 0.2125,0.53749v7.11236c0,0.39999 0.10833,0.73749 0.32499,1.01248c0.225,0.26666 0.49582,0.39999 0.81248,0.39999h0.51249c0.175,0 0.32499,0.07083 0.44999,0.2125c0.125,0.13333 0.1875,0.30833 0.1875,0.52499c0,0.225 -0.08333,0.40832 -0.24999,0.54999c-0.15833,0.13333 -0.36666,0.2 -0.62499,0.2zM202.17,152.4635c-0.20833,0 -0.37916,-0.05833 -0.51249,-0.175c-0.125,-0.11667 -0.1875,-0.26666 -0.1875,-0.44999c0,-0.2 0.0625,-0.35832 0.1875,-0.47499c0.13333,-0.11667 0.30416,-0.175 0.51249,-0.175h3.44993c0.20833,0 0.37499,0.05833 0.49999,0.175c0.13333,0.11667 0.2,0.27499 0.2,0.47499c0,0.18333 -0.06667,0.33333 -0.2,0.44999c-0.125,0.11667 -0.29166,0.175 -0.49999,0.175z" fill="#00eeff" stroke="#00e5ff" stroke-width="1" stroke-linecap="square"/><path d="M148.68117,194.65051c-0.21666,0 -0.39998,-0.075 -0.54998,-0.225c-0.15,-0.15 -0.225,-0.33333 -0.225,-0.54999v-10.0998c0,-0.23333 0.075,-0.42082 0.225,-0.56249c0.15,-0.15 0.33332,-0.225 0.54998,-0.225c0.29999,0 0.52916,0.14167 0.68749,0.42499l4.67491,9.36231h-0.47499l4.54991,-9.36231c0.15833,-0.28333 0.38749,-0.42499 0.68749,-0.42499c0.21666,0 0.39999,0.075 0.54999,0.225c0.15,0.14167 0.225,0.32916 0.225,0.56249v10.0998c0,0.21666 -0.07917,0.39999 -0.2375,0.54999c-0.15,0.15 -0.32916,0.225 -0.53749,0.225c-0.21666,0 -0.39999,-0.075 -0.54999,-0.225c-0.15,-0.15 -0.225,-0.33333 -0.225,-0.54999v-7.94984l0.29999,-0.075l-3.91242,7.96234c-0.16666,0.25833 -0.39166,0.38749 -0.67499,0.38749c-0.32499,0 -0.56249,-0.15416 -0.71249,-0.46249l-3.86242,-7.74984l0.29999,-0.0625v7.94984c0,0.21666 -0.075,0.39999 -0.225,0.54999c-0.15,0.15 -0.33749,0.225 -0.56249,0.225zM163.32472,194.65051c-0.21666,0 -0.39999,-0.07083 -0.54999,-0.2125c-0.14167,-0.15 -0.2125,-0.33333 -0.2125,-0.54999v-6.63737c0,-0.23333 0.07083,-0.41666 0.2125,-0.54999c0.15,-0.14167 0.33333,-0.2125 0.54999,-0.2125c0.23333,0 0.41666,0.07083 0.54999,0.2125c0.14167,0.13333 0.2125,0.31666 0.2125,0.54999v6.63737c0,0.21666 -0.07083,0.39999 -0.2125,0.54999c-0.13333,0.14167 -0.31666,0.2125 -0.54999,0.2125zM163.46221,185.1632c-0.26666,0 -0.49999,-0.09583 -0.69999,-0.28749c-0.19166,-0.2 -0.28749,-0.43332 -0.28749,-0.69999c0,-0.26666 0.09583,-0.49582 0.28749,-0.68749c0.2,-0.2 0.43332,-0.29999 0.69999,-0.29999c0.26666,0 0.49582,0.1 0.68749,0.29999c0.2,0.19166 0.29999,0.42082 0.29999,0.68749c0,0.26666 -0.1,0.49999 -0.29999,0.69999c-0.19166,0.19166 -0.42082,0.28749 -0.68749,0.28749zM169.89444,194.71301c-0.69999,0 -1.34581,-0.10833 -1.93746,-0.32499c-0.59166,-0.21666 -1.04998,-0.48749 -1.37497,-0.81248c-0.15,-0.15833 -0.2125,-0.33749 -0.1875,-0.53749c0.025,-0.20833 0.12083,-0.37916 0.28749,-0.51249c0.2,-0.15833 0.39582,-0.225 0.58749,-0.2c0.2,0.025 0.37082,0.1125 0.51249,0.26249c0.16666,0.19166 0.43332,0.37082 0.79998,0.53749c0.37499,0.15833 0.79165,0.2375 1.24997,0.2375c0.58332,0 1.02498,-0.09167 1.32497,-0.27499c0.29999,-0.19166 0.45832,-0.43749 0.47499,-0.73749c0.00833,-0.29999 -0.1375,-0.55832 -0.43749,-0.77498c-0.29166,-0.21666 -0.82498,-0.39582 -1.59997,-0.53749c-0.99998,-0.2 -1.72913,-0.49582 -2.18746,-0.88748c-0.44999,-0.39999 -0.67499,-0.89165 -0.67499,-1.47497c0,-0.49999 0.15,-0.91665 0.44999,-1.24997c0.29999,-0.33333 0.68332,-0.58332 1.14998,-0.74998c0.46666,-0.16666 0.95415,-0.24999 1.46247,-0.24999c0.65832,0 1.23748,0.10417 1.73747,0.31249c0.50832,0.20833 0.91248,0.49582 1.21248,0.86248c0.14167,0.16666 0.20416,0.33749 0.1875,0.51249c-0.00833,0.16666 -0.09167,0.31249 -0.24999,0.43749c-0.15833,0.10833 -0.34583,0.14167 -0.56249,0.1c-0.21666,-0.04167 -0.39999,-0.12917 -0.54999,-0.26249c-0.24999,-0.24166 -0.52082,-0.40832 -0.81248,-0.49999c-0.28333,-0.09167 -0.61666,-0.1375 -0.99998,-0.1375c-0.43332,0 -0.80415,0.075 -1.11248,0.225c-0.29999,0.15 -0.44999,0.37082 -0.44999,0.66249c0,0.175 0.04583,0.33749 0.1375,0.48749c0.1,0.14167 0.28749,0.27083 0.56249,0.38749c0.28333,0.10833 0.69165,0.22083 1.22498,0.33749c0.74998,0.14167 1.33747,0.32916 1.76246,0.56249c0.43332,0.225 0.74582,0.49166 0.93748,0.79998c0.19166,0.29999 0.28749,0.64999 0.28749,1.04998c0,0.45832 -0.125,0.87081 -0.37499,1.23748c-0.24166,0.36666 -0.59999,0.66249 -1.07498,0.88748c-0.46666,0.21666 -1.05415,0.32499 -1.76246,0.32499zM177.99855,194.71301c-0.69999,0 -1.34581,-0.10833 -1.93746,-0.32499c-0.59166,-0.21666 -1.04998,-0.48749 -1.37497,-0.81248c-0.15,-0.15833 -0.2125,-0.33749 -0.1875,-0.53749c0.025,-0.20833 0.12083,-0.37916 0.28749,-0.51249c0.2,-0.15833 0.39582,-0.225 0.58749,-0.2c0.2,0.025 0.37082,0.1125 0.51249,0.26249c0.16666,0.19166 0.43332,0.37082 0.79998,0.53749c0.37499,0.15833 0.79165,0.2375 1.24997,0.2375c0.58332,0 1.02498,-0.09167 1.32497,-0.27499c0.29999,-0.19166 0.45832,-0.43749 0.47499,-0.73749c0.00833,-0.29999 -0.1375,-0.55832 -0.43749,-0.77498c-0.29166,-0.21666 -0.82498,-0.39582 -1.59997,-0.53749c-0.99998,-0.2 -1.72913,-0.49582 -2.18746,-0.88748c-0.44999,-0.39999 -0.67499,-0.89165 -0.67499,-1.47497c0,-0.49999 0.15,-0.91665 0.44999,-1.24997c0.29999,-0.33333 0.68332,-0.58332 1.14998,-0.74998c0.46666,-0.16666 0.95415,-0.24999 1.46247,-0.24999c0.65832,0 1.23748,0.10417 1.73747,0.31249c0.50832,0.20833 0.91248,0.49582 1.21248,0.86248c0.14167,0.16666 0.20416,0.33749 0.1875,0.51249c-0.00833,0.16666 -0.09167,0.31249 -0.24999,0.43749c-0.15833,0.10833 -0.34583,0.14167 -0.56249,0.1c-0.21666,-0.04167 -0.39999,-0.12917 -0.54999,-0.26249c-0.24999,-0.24166 -0.52082,-0.40832 -0.81248,-0.49999c-0.28333,-0.09167 -0.61666,-0.1375 -0.99998,-0.1375c-0.43332,0 -0.80415,0.075 -1.11248,0.225c-0.29999,0.15 -0.44999,0.37082 -0.44999,0.66249c0,0.175 0.04583,0.33749 0.1375,0.48749c0.1,0.14167 0.28749,0.27083 0.56249,0.38749c0.28333,0.10833 0.69165,0.22083 1.22498,0.33749c0.74998,0.14167 1.33747,0.32916 1.76246,0.56249c0.43332,0.225 0.74582,0.49166 0.93748,0.79998c0.19166,0.29999 0.28749,0.64999 0.28749,1.04998c0,0.45832 -0.125,0.87081 -0.37499,1.23748c-0.24166,0.36666 -0.59999,0.66249 -1.07498,0.88748c-0.46666,0.21666 -1.05415,0.32499 -1.76246,0.32499zM184.0402,194.65051c-0.21666,0 -0.39999,-0.07083 -0.54999,-0.2125c-0.14167,-0.15 -0.2125,-0.33333 -0.2125,-0.54999v-6.63737c0,-0.23333 0.07083,-0.41666 0.2125,-0.54999c0.15,-0.14167 0.33333,-0.2125 0.54999,-0.2125c0.23333,0 0.41666,0.07083 0.54999,0.2125c0.14167,0.13333 0.2125,0.31666 0.2125,0.54999v6.63737c0,0.21666 -0.07083,0.39999 -0.2125,0.54999c-0.13333,0.14167 -0.31666,0.2125 -0.54999,0.2125zM184.1777,185.1632c-0.26666,0 -0.49999,-0.09583 -0.69999,-0.28749c-0.19166,-0.2 -0.28749,-0.43332 -0.28749,-0.69999c0,-0.26666 0.09583,-0.49582 0.28749,-0.68749c0.2,-0.2 0.43332,-0.29999 0.69999,-0.29999c0.26666,0 0.49582,0.1 0.68749,0.29999c0.2,0.19166 0.29999,0.42082 0.29999,0.68749c0,0.26666 -0.1,0.49999 -0.29999,0.69999c-0.19166,0.19166 -0.42082,0.28749 -0.68749,0.28749zM189.58494,194.65051c-0.44166,0 -0.83332,-0.11667 -1.17498,-0.34999c-0.33333,-0.24166 -0.59582,-0.56666 -0.78748,-0.97498c-0.18333,-0.41666 -0.27499,-0.89581 -0.27499,-1.43747v-8.14984c0,-0.21666 0.06667,-0.39582 0.2,-0.53749c0.14167,-0.14167 0.32083,-0.2125 0.53749,-0.2125c0.225,0 0.40416,0.07083 0.53749,0.2125c0.14167,0.14167 0.2125,0.32083 0.2125,0.53749v8.14984c0,0.36666 0.06667,0.67082 0.2,0.91248c0.14167,0.24166 0.32499,0.36249 0.54999,0.36249h0.37499c0.19166,0 0.34999,0.07083 0.47499,0.2125c0.125,0.13333 0.1875,0.30833 0.1875,0.52499c0,0.225 -0.09583,0.40832 -0.28749,0.54999c-0.18333,0.13333 -0.42499,0.2 -0.72499,0.2zM195.50182,194.71301c-0.82498,0 -1.5583,-0.175 -2.19996,-0.52499c-0.64166,-0.35832 -1.14581,-0.84582 -1.51247,-1.46247c-0.35832,-0.62499 -0.53749,-1.34164 -0.53749,-2.14996c0,-0.81665 0.17083,-1.5333 0.51249,-2.14996c0.34166,-0.62499 0.81665,-1.11248 1.42497,-1.46247c0.60832,-0.35832 1.30414,-0.53749 2.08746,-0.53749c0.78332,0 1.44997,0.17083 1.99996,0.51249c0.55832,0.34166 0.98331,0.81665 1.27497,1.42497c0.29999,0.59999 0.44999,1.29164 0.44999,2.07496c0,0.19166 -0.06667,0.34999 -0.2,0.47499c-0.125,0.125 -0.28749,0.1875 -0.48749,0.1875h-6.01238v-1.19998h5.96238l-0.61249,0.42499c-0.00833,-0.49999 -0.10833,-0.94581 -0.29999,-1.33747c-0.18333,-0.39166 -0.44999,-0.69999 -0.79998,-0.92498c-0.34999,-0.23333 -0.77498,-0.34999 -1.27497,-0.34999c-0.56666,0 -1.04998,0.125 -1.44997,0.37499c-0.39999,0.24166 -0.70832,0.57916 -0.92498,1.01248c-0.20833,0.43332 -0.31249,0.92498 -0.31249,1.47497c0,0.54999 0.125,1.03748 0.37499,1.46247c0.24999,0.42499 0.59166,0.76248 1.02498,1.01248c0.44166,0.24999 0.94581,0.37499 1.51247,0.37499c0.30833,0 0.62499,-0.05417 0.94998,-0.1625c0.32499,-0.11667 0.58749,-0.24999 0.78748,-0.39999c0.15,-0.10833 0.31249,-0.16666 0.48749,-0.175c0.175,-0.00833 0.32499,0.04583 0.44999,0.1625c0.16666,0.14167 0.25416,0.30416 0.26249,0.48749c0.01667,0.175 -0.0625,0.32916 -0.2375,0.46249c-0.33333,0.26666 -0.75415,0.48749 -1.26247,0.66249c-0.49999,0.16666 -0.97915,0.24999 -1.43747,0.24999zM203.90759,194.71301c-0.69999,0 -1.34581,-0.10833 -1.93746,-0.32499c-0.59166,-0.21666 -1.04998,-0.48749 -1.37497,-0.81248c-0.15,-0.15833 -0.2125,-0.33749 -0.1875,-0.53749c0.025,-0.20833 0.12083,-0.37916 0.28749,-0.51249c0.2,-0.15833 0.39582,-0.225 0.58749,-0.2c0.2,0.025 0.37082,0.1125 0.51249,0.26249c0.16666,0.19166 0.43332,0.37082 0.79998,0.53749c0.37499,0.15833 0.79165,0.2375 1.24997,0.2375c0.58332,0 1.02498,-0.09167 1.32497,-0.27499c0.29999,-0.19166 0.45832,-0.43749 0.47499,-0.73749c0.00833,-0.29999 -0.1375,-0.55832 -0.43749,-0.77498c-0.29166,-0.21666 -0.82498,-0.39582 -1.59997,-0.53749c-0.99998,-0.2 -1.72913,-0.49582 -2.18746,-0.88748c-0.44999,-0.39999 -0.67499,-0.89165 -0.67499,-1.47497c0,-0.49999 0.15,-0.91665 0.44999,-1.24997c0.29999,-0.33333 0.68332,-0.58332 1.14998,-0.74998c0.46666,-0.16666 0.95415,-0.24999 1.46247,-0.24999c0.65832,0 1.23748,0.10417 1.73747,0.31249c0.50832,0.20833 0.91248,0.49582 1.21248,0.86248c0.14167,0.16666 0.20416,0.33749 0.1875,0.51249c-0.00833,0.16666 -0.09167,0.31249 -0.24999,0.43749c-0.15833,0.10833 -0.34583,0.14167 -0.56249,0.1c-0.21666,-0.04167 -0.39999,-0.12917 -0.54999,-0.26249c-0.24999,-0.24166 -0.52082,-0.40832 -0.81248,-0.49999c-0.28333,-0.09167 -0.61666,-0.1375 -0.99998,-0.1375c-0.43332,0 -0.80415,0.075 -1.11248,0.225c-0.29999,0.15 -0.44999,0.37082 -0.44999,0.66249c0,0.175 0.04583,0.33749 0.1375,0.48749c0.1,0.14167 0.28749,0.27083 0.56249,0.38749c0.28333,0.10833 0.69165,0.22083 1.22498,0.33749c0.74998,0.14167 1.33747,0.32916 1.76246,0.56249c0.43332,0.225 0.74582,0.49166 0.93748,0.79998c0.19166,0.29999 0.28749,0.64999 0.28749,1.04998c0,0.45832 -0.125,0.87081 -0.37499,1.23748c-0.24166,0.36666 -0.59999,0.66249 -1.07498,0.88748c-0.46666,0.21666 -1.05415,0.32499 -1.76246,0.32499z" fill="#00eeff" stroke="#00e5ff" stroke-width="1" stroke-linecap="square"/><path d="M102.68117,279.94946c-0.21666,0 -0.39998,-0.075 -0.54998,-0.225c-0.15,-0.15 -0.225,-0.33333 -0.225,-0.54999v-10.0998c0,-0.23333 0.075,-0.42082 0.225,-0.56249c0.15,-0.15 0.33332,-0.225 0.54998,-0.225h6.74986c0.23333,0 0.41666,0.07083 0.54999,0.2125c0.14167,0.13333 0.2125,0.30833 0.2125,0.52499c0,0.20833 -0.07083,0.37916 -0.2125,0.51249c-0.13333,0.125 -0.31666,0.1875 -0.54999,0.1875h-5.96238v3.62493h4.27491c0.23333,0 0.41666,0.06667 0.54999,0.2c0.14167,0.13333 0.2125,0.30833 0.2125,0.52499c0,0.20833 -0.07083,0.37916 -0.2125,0.51249c-0.13333,0.13333 -0.31666,0.2 -0.54999,0.2h-4.27491v3.72493h5.96238c0.23333,0 0.41666,0.06667 0.54999,0.2c0.14167,0.125 0.2125,0.29166 0.2125,0.49999c0,0.225 -0.07083,0.40416 -0.2125,0.53749c-0.13333,0.13333 -0.31666,0.2 -0.54999,0.2zM119.10333,279.96196c-0.21666,0 -0.39999,-0.07083 -0.54999,-0.2125c-0.14167,-0.14167 -0.2125,-0.32499 -0.2125,-0.54999v-3.66243c0,-0.56666 -0.10417,-1.02915 -0.31249,-1.38747c-0.20833,-0.35832 -0.49166,-0.62499 -0.84998,-0.79998c-0.34999,-0.175 -0.75415,-0.26249 -1.21248,-0.26249c-0.41666,0 -0.79582,0.08333 -1.13748,0.24999c-0.33333,0.16666 -0.59999,0.39166 -0.79998,0.67499c-0.2,0.28333 -0.29999,0.61249 -0.29999,0.98748h-0.93748c0,-0.63332 0.15,-1.19581 0.44999,-1.68747c0.30833,-0.49166 0.72499,-0.87915 1.24997,-1.16248c0.52499,-0.29166 1.11665,-0.43749 1.77496,-0.43749c0.69165,0 1.30831,0.14583 1.84996,0.43749c0.54166,0.29166 0.96665,0.72082 1.27497,1.28747c0.31666,0.56666 0.47499,1.26664 0.47499,2.09996v3.66243c0,0.225 -0.075,0.40832 -0.225,0.54999c-0.14167,0.14167 -0.32083,0.2125 -0.53749,0.2125zM112.96596,279.96196c-0.21666,0 -0.39999,-0.07083 -0.54999,-0.2125c-0.14167,-0.14167 -0.2125,-0.32499 -0.2125,-0.54999v-6.64987c0,-0.23333 0.07083,-0.41666 0.2125,-0.54999c0.15,-0.14167 0.33333,-0.2125 0.54999,-0.2125c0.23333,0 0.41666,0.07083 0.54999,0.2125c0.14167,0.13333 0.2125,0.31666 0.2125,0.54999v6.64987c0,0.225 -0.07083,0.40832 -0.2125,0.54999c-0.13333,0.14167 -0.31666,0.2125 -0.54999,0.2125zM126.21955,280.01195c-0.82498,0 -1.5583,-0.175 -2.19996,-0.52499c-0.64166,-0.35832 -1.14581,-0.84582 -1.51247,-1.46247c-0.35832,-0.62499 -0.53749,-1.34164 -0.53749,-2.14996c0,-0.81665 0.17083,-1.5333 0.51249,-2.14996c0.34166,-0.62499 0.81665,-1.11248 1.42497,-1.46247c0.60832,-0.35832 1.30414,-0.53749 2.08746,-0.53749c0.78332,0 1.44997,0.17083 1.99996,0.51249c0.55832,0.34166 0.98331,0.81665 1.27497,1.42497c0.29999,0.59999 0.44999,1.29164 0.44999,2.07496c0,0.19166 -0.06667,0.34999 -0.2,0.47499c-0.125,0.125 -0.28749,0.1875 -0.48749,0.1875h-6.01238v-1.19998h5.96238l-0.61249,0.42499c-0.00833,-0.49999 -0.10833,-0.94581 -0.29999,-1.33747c-0.18333,-0.39166 -0.44999,-0.69999 -0.79998,-0.92498c-0.34999,-0.23333 -0.77498,-0.34999 -1.27497,-0.34999c-0.56666,0 -1.04998,0.125 -1.44997,0.37499c-0.39999,0.24166 -0.70832,0.57916 -0.92498,1.01248c-0.20833,0.43332 -0.31249,0.92498 -0.31249,1.47497c0,0.54999 0.125,1.03748 0.37499,1.46247c0.24999,0.42499 0.59166,0.76248 1.02498,1.01248c0.44166,0.24999 0.94581,0.37499 1.51247,0.37499c0.30833,0 0.62499,-0.05417 0.94998,-0.1625c0.32499,-0.11667 0.58749,-0.24999 0.78748,-0.39999c0.15,-0.10833 0.31249,-0.16666 0.48749,-0.175c0.175,-0.00833 0.32499,0.04583 0.44999,0.1625c0.16666,0.14167 0.25416,0.30416 0.26249,0.48749c0.01667,0.175 -0.0625,0.32916 -0.2375,0.46249c-0.33333,0.26666 -0.75415,0.48749 -1.26247,0.66249c-0.49999,0.16666 -0.97915,0.24999 -1.43747,0.24999zM132.38786,274.84956c0,-0.59999 0.14583,-1.13331 0.43749,-1.59997c0.29166,-0.47499 0.68749,-0.84998 1.18748,-1.12498c0.49999,-0.28333 1.04581,-0.42499 1.63747,-0.42499c0.59999,0 1.04581,0.09583 1.33747,0.28749c0.29999,0.19166 0.41249,0.42499 0.33749,0.69999c-0.025,0.13333 -0.08333,0.2375 -0.175,0.31249c-0.08333,0.075 -0.17916,0.125 -0.28749,0.15c-0.10833,0.01667 -0.225,0.00833 -0.34999,-0.025c-0.64166,-0.125 -1.21664,-0.13333 -1.72497,-0.025c-0.50832,0.10833 -0.90831,0.31249 -1.19998,0.61249c-0.29166,0.29999 -0.43749,0.67915 -0.43749,1.13748zM132.40035,279.94946c-0.23333,0 -0.41666,-0.0625 -0.54999,-0.1875c-0.13333,-0.125 -0.2,-0.31249 -0.2,-0.56249v-6.66237c0,-0.24166 0.06667,-0.42499 0.2,-0.54999c0.13333,-0.13333 0.31666,-0.2 0.54999,-0.2c0.24999,0 0.43749,0.0625 0.56249,0.1875c0.125,0.125 0.1875,0.31249 0.1875,0.56249v6.66237c0,0.24166 -0.0625,0.42916 -0.1875,0.56249c-0.125,0.125 -0.31249,0.1875 -0.56249,0.1875zM141.71888,280.01195c-0.74998,0 -1.41247,-0.175 -1.98746,-0.52499c-0.56666,-0.35832 -1.01665,-0.84582 -1.34997,-1.46247c-0.32499,-0.62499 -0.48749,-1.34164 -0.48749,-2.14996c0,-0.81665 0.175,-1.5333 0.52499,-2.14996c0.35832,-0.62499 0.84582,-1.11248 1.46247,-1.46247c0.61666,-0.35832 1.32914,-0.53749 2.13746,-0.53749c0.79165,0 1.4958,0.17916 2.11246,0.53749c0.61666,0.34999 1.09998,0.83748 1.44997,1.46247c0.35832,0.61666 0.53749,1.33331 0.53749,2.14996h-0.88748c0,0.80832 -0.15,1.52497 -0.44999,2.14996c-0.29999,0.61666 -0.71665,1.10415 -1.24997,1.46247c-0.52499,0.34999 -1.12915,0.52499 -1.81246,0.52499zM141.98138,283.33689c-0.70832,0 -1.3708,-0.14167 -1.98746,-0.42499c-0.61666,-0.27499 -1.13748,-0.67915 -1.56247,-1.21248c-0.13333,-0.175 -0.18333,-0.35416 -0.15,-0.53749c0.04167,-0.175 0.14167,-0.31666 0.29999,-0.42499c0.175,-0.11667 0.35832,-0.15416 0.54999,-0.1125c0.2,0.04167 0.35832,0.14167 0.47499,0.29999c0.27499,0.33333 0.61249,0.59582 1.01248,0.78748c0.40832,0.19166 0.87498,0.28749 1.39997,0.28749c0.47499,0 0.91248,-0.11667 1.31247,-0.34999c0.40832,-0.225 0.72915,-0.56249 0.96248,-1.01248c0.24166,-0.44999 0.36249,-0.99581 0.36249,-1.63747v-2.12496l0.48749,-1.31247l0.97498,0.31249v3.22494c0,0.78332 -0.175,1.4958 -0.52499,2.13746c-0.34999,0.64166 -0.83748,1.14998 -1.46247,1.52497c-0.61666,0.38332 -1.33331,0.57499 -2.14996,0.57499zM142.01888,278.66198c0.51666,0 0.97081,-0.11667 1.36247,-0.34999c0.39999,-0.24166 0.71249,-0.57082 0.93748,-0.98748c0.225,-0.41666 0.33749,-0.89998 0.33749,-1.44997c0,-0.54999 -0.1125,-1.03331 -0.33749,-1.44997c-0.225,-0.42499 -0.53749,-0.75415 -0.93748,-0.98748c-0.39166,-0.24166 -0.84582,-0.36249 -1.36247,-0.36249c-0.52499,0 -0.98748,0.12083 -1.38747,0.36249c-0.39166,0.23333 -0.70415,0.56249 -0.93748,0.98748c-0.225,0.41666 -0.33749,0.89998 -0.33749,1.44997c0,0.54999 0.1125,1.03331 0.33749,1.44997c0.23333,0.41666 0.54582,0.74582 0.93748,0.98748c0.39999,0.23333 0.86248,0.34999 1.38747,0.34999zM149.8431,283.53688c-0.09167,0 -0.20833,-0.03333 -0.34999,-0.1c-0.44166,-0.19166 -0.56249,-0.50416 -0.36249,-0.93748l4.54991,-10.27479c0.2,-0.42499 0.51666,-0.54582 0.94998,-0.36249c0.44166,0.19166 0.56249,0.50416 0.36249,0.93748l-4.56241,10.27479c-0.11667,0.30833 -0.31249,0.46249 -0.58749,0.46249zM151.60557,279.62446c-0.18333,0.075 -0.35832,0.08333 -0.52499,0.025c-0.16666,-0.06667 -0.29999,-0.19583 -0.39999,-0.38749l-3.41243,-6.48737c-0.1,-0.19166 -0.1125,-0.37499 -0.0375,-0.54999c0.075,-0.175 0.20833,-0.29999 0.39999,-0.37499c0.18333,-0.08333 0.35832,-0.09167 0.52499,-0.025c0.175,0.06667 0.30833,0.19166 0.39999,0.37499l3.26243,6.49987c0.1,0.18333 0.1375,0.36249 0.1125,0.53749c-0.025,0.175 -0.13333,0.30416 -0.32499,0.38749zM164.6604,280.09945c-0.64166,0 -1.24997,-0.1 -1.82496,-0.29999c-0.57499,-0.2 -1.07915,-0.47916 -1.51247,-0.83748c-0.42499,-0.35832 -0.73749,-0.77082 -0.93748,-1.23748c-0.1,-0.20833 -0.1,-0.39999 0,-0.57499c0.10833,-0.18333 0.28749,-0.29999 0.53749,-0.34999c0.18333,-0.04167 0.35832,-0.0125 0.52499,0.0875c0.175,0.09167 0.30833,0.23333 0.39999,0.42499c0.11667,0.24999 0.31249,0.47916 0.58749,0.68749c0.27499,0.20833 0.60416,0.37916 0.98748,0.51249c0.39166,0.125 0.80415,0.1875 1.23748,0.1875c0.47499,0 0.91248,-0.075 1.31247,-0.225c0.40832,-0.15 0.73332,-0.36666 0.97498,-0.64999c0.24999,-0.28333 0.37499,-0.63332 0.37499,-1.04998c0,-0.53332 -0.20833,-1.00831 -0.62499,-1.42497c-0.40832,-0.41666 -1.08331,-0.67499 -2.02496,-0.77498c-1.23331,-0.11667 -2.20412,-0.47916 -2.91244,-1.08748c-0.70832,-0.60832 -1.06248,-1.3583 -1.06248,-2.24995c0,-0.65832 0.18333,-1.21664 0.54999,-1.67497c0.36666,-0.45832 0.86665,-0.80415 1.49997,-1.03748c0.63332,-0.24166 1.33747,-0.36249 2.11246,-0.36249c0.60832,0 1.13748,0.08333 1.58747,0.24999c0.45832,0.16666 0.85415,0.39999 1.18748,0.69999c0.34166,0.29999 0.63749,0.65415 0.88748,1.06248c0.13333,0.21666 0.1875,0.42499 0.1625,0.62499c-0.01667,0.19166 -0.1125,0.34166 -0.28749,0.44999c-0.18333,0.11667 -0.38749,0.14167 -0.61249,0.075c-0.21666,-0.06667 -0.37916,-0.19583 -0.48749,-0.38749c-0.15833,-0.29166 -0.35416,-0.53749 -0.58749,-0.73749c-0.225,-0.2 -0.49166,-0.35416 -0.79998,-0.46249c-0.30833,-0.11667 -0.67082,-0.175 -1.08748,-0.175c-0.74165,-0.00833 -1.36247,0.12917 -1.86246,0.41249c-0.49166,0.28333 -0.73749,0.71665 -0.73749,1.29997c0,0.29999 0.075,0.58749 0.225,0.86248c0.15833,0.27499 0.44166,0.51249 0.84998,0.71249c0.41666,0.2 1.01248,0.33749 1.78746,0.41249c1.18331,0.11667 2.10413,0.47916 2.76244,1.08748c0.66665,0.59999 0.99998,1.39164 0.99998,2.37495c0,0.56666 -0.11667,1.05831 -0.34999,1.47497c-0.23333,0.41666 -0.54582,0.77082 -0.93748,1.06248c-0.39166,0.28333 -0.84165,0.49582 -1.34997,0.63749c-0.49999,0.13333 -1.01665,0.2 -1.54997,0.2zM177.96605,279.96196c-0.21666,0 -0.39999,-0.07083 -0.54999,-0.2125c-0.14167,-0.14167 -0.2125,-0.32499 -0.2125,-0.54999v-3.66243c0,-0.56666 -0.10417,-1.02915 -0.31249,-1.38747c-0.20833,-0.35832 -0.49166,-0.62499 -0.84998,-0.79998c-0.34999,-0.175 -0.75415,-0.26249 -1.21248,-0.26249c-0.41666,0 -0.79582,0.08333 -1.13748,0.24999c-0.33333,0.16666 -0.59999,0.39166 -0.79998,0.67499c-0.2,0.28333 -0.29999,0.61249 -0.29999,0.98748h-0.93748c0,-0.63332 0.15,-1.19581 0.44999,-1.68747c0.30833,-0.49166 0.72499,-0.87915 1.24997,-1.16248c0.52499,-0.29166 1.11665,-0.43749 1.77496,-0.43749c0.69165,0 1.30831,0.14583 1.84996,0.43749c0.54166,0.29166 0.96665,0.72082 1.27497,1.28747c0.31666,0.56666 0.47499,1.26664 0.47499,2.09996v3.66243c0,0.225 -0.075,0.40832 -0.225,0.54999c-0.14167,0.14167 -0.32083,0.2125 -0.53749,0.2125zM171.82867,279.96196c-0.21666,0 -0.39999,-0.07083 -0.54999,-0.2125c-0.14167,-0.14167 -0.2125,-0.32499 -0.2125,-0.54999v-6.64987c0,-0.23333 0.07083,-0.41666 0.2125,-0.54999c0.15,-0.14167 0.33333,-0.2125 0.54999,-0.2125c0.23333,0 0.41666,0.07083 0.54999,0.2125c0.14167,0.13333 0.2125,0.31666 0.2125,0.54999v6.64987c0,0.225 -0.07083,0.40832 -0.2125,0.54999c-0.13333,0.14167 -0.31666,0.2125 -0.54999,0.2125zM171.82867,276.97452c-0.21666,0 -0.39999,-0.07083 -0.54999,-0.2125c-0.14167,-0.14167 -0.2125,-0.32499 -0.2125,-0.54999v-7.16236c0,-0.225 0.07083,-0.40832 0.2125,-0.54999c0.15,-0.14167 0.33333,-0.2125 0.54999,-0.2125c0.23333,0 0.41666,0.07083 0.54999,0.2125c0.14167,0.14167 0.2125,0.32499 0.2125,0.54999v7.16236c0,0.225 -0.07083,0.40832 -0.2125,0.54999c-0.13333,0.14167 -0.31666,0.2125 -0.54999,0.2125zM182.17224,279.94946c-0.21666,0 -0.39999,-0.07083 -0.54999,-0.2125c-0.14167,-0.15 -0.2125,-0.33333 -0.2125,-0.54999v-6.63737c0,-0.23333 0.07083,-0.41666 0.2125,-0.54999c0.15,-0.14167 0.33333,-0.2125 0.54999,-0.2125c0.23333,0 0.41666,0.07083 0.54999,0.2125c0.14167,0.13333 0.2125,0.31666 0.2125,0.54999v6.63737c0,0.21666 -0.07083,0.39999 -0.2125,0.54999c-0.13333,0.14167 -0.31666,0.2125 -0.54999,0.2125zM182.30973,270.46215c-0.26666,0 -0.49999,-0.09583 -0.69999,-0.28749c-0.19166,-0.2 -0.28749,-0.43332 -0.28749,-0.69999c0,-0.26666 0.09583,-0.49582 0.28749,-0.68749c0.2,-0.2 0.43332,-0.29999 0.69999,-0.29999c0.26666,0 0.49582,0.1 0.68749,0.29999c0.2,0.19166 0.29999,0.42082 0.29999,0.68749c0,0.26666 -0.1,0.49999 -0.29999,0.69999c-0.19166,0.19166 -0.42082,0.28749 -0.68749,0.28749zM189.60444,280.01195c-0.82498,0 -1.5583,-0.175 -2.19996,-0.52499c-0.64166,-0.35832 -1.14581,-0.84582 -1.51247,-1.46247c-0.35832,-0.62499 -0.53749,-1.34164 -0.53749,-2.14996c0,-0.81665 0.17083,-1.5333 0.51249,-2.14996c0.34166,-0.62499 0.81665,-1.11248 1.42497,-1.46247c0.60832,-0.35832 1.30414,-0.53749 2.08746,-0.53749c0.78332,0 1.44997,0.17083 1.99996,0.51249c0.55832,0.34166 0.98331,0.81665 1.27497,1.42497c0.29999,0.59999 0.44999,1.29164 0.44999,2.07496c0,0.19166 -0.06667,0.34999 -0.2,0.47499c-0.125,0.125 -0.28749,0.1875 -0.48749,0.1875h-6.01238v-1.19998h5.96238l-0.61249,0.42499c-0.00833,-0.49999 -0.10833,-0.94581 -0.29999,-1.33747c-0.18333,-0.39166 -0.44999,-0.69999 -0.79998,-0.92498c-0.34999,-0.23333 -0.77498,-0.34999 -1.27497,-0.34999c-0.56666,0 -1.04998,0.125 -1.44997,0.37499c-0.39999,0.24166 -0.70832,0.57916 -0.92498,1.01248c-0.20833,0.43332 -0.31249,0.92498 -0.31249,1.47497c0,0.54999 0.125,1.03748 0.37499,1.46247c0.24999,0.42499 0.59166,0.76248 1.02498,1.01248c0.44166,0.24999 0.94581,0.37499 1.51247,0.37499c0.30833,0 0.62499,-0.05417 0.94998,-0.1625c0.32499,-0.11667 0.58749,-0.24999 0.78748,-0.39999c0.15,-0.10833 0.31249,-0.16666 0.48749,-0.175c0.175,-0.00833 0.32499,0.04583 0.44999,0.1625c0.16666,0.14167 0.25416,0.30416 0.26249,0.48749c0.01667,0.175 -0.0625,0.32916 -0.2375,0.46249c-0.33333,0.26666 -0.75415,0.48749 -1.26247,0.66249c-0.49999,0.16666 -0.97915,0.24999 -1.43747,0.24999zM196.98522,279.94946c-0.44166,0 -0.83332,-0.11667 -1.17498,-0.34999c-0.33333,-0.24166 -0.59582,-0.56666 -0.78748,-0.97498c-0.18333,-0.41666 -0.27499,-0.89581 -0.27499,-1.43747v-8.14984c0,-0.21666 0.06667,-0.39582 0.2,-0.53749c0.14167,-0.14167 0.32083,-0.2125 0.53749,-0.2125c0.225,0 0.40416,0.07083 0.53749,0.2125c0.14167,0.14167 0.2125,0.32083 0.2125,0.53749v8.14984c0,0.36666 0.06667,0.67082 0.2,0.91248c0.14167,0.24166 0.32499,0.36249 0.54999,0.36249h0.37499c0.19166,0 0.34999,0.07083 0.47499,0.2125c0.125,0.13333 0.1875,0.30833 0.1875,0.52499c0,0.225 -0.09583,0.40832 -0.28749,0.54999c-0.18333,0.13333 -0.42499,0.2 -0.72499,0.2zM202.77711,280.01195c-0.78332,0 -1.48747,-0.17916 -2.11246,-0.53749c-0.61666,-0.36666 -1.10831,-0.86248 -1.47497,-1.48747c-0.35832,-0.63332 -0.53749,-1.34164 -0.53749,-2.12496c0,-0.78332 0.16666,-1.48747 0.49999,-2.11246c0.33333,-0.62499 0.78748,-1.11665 1.36247,-1.47497c0.58332,-0.36666 1.23748,-0.54999 1.96246,-0.54999c0.58332,0 1.12498,0.125 1.62497,0.37499c0.49999,0.24166 0.91665,0.57082 1.24999,0.98748v-4.03742c0,-0.225 0.07083,-0.40832 0.2125,-0.54999c0.15,-0.14167 0.33333,-0.2125 0.54999,-0.2125c0.225,0 0.40832,0.07083 0.54999,0.2125c0.14167,0.14167 0.2125,0.32499 0.2125,0.54999v6.81236c0,0.78332 -0.18333,1.49164 -0.54999,2.12496c-0.35832,0.62499 -0.84582,1.12081 -1.46249,1.48747c-0.61666,0.35832 -1.31247,0.53749 -2.08745,0.53749zM202.77711,278.66198c0.49999,0 0.94998,-0.12083 1.34997,-0.36249c0.39999,-0.24166 0.71249,-0.57499 0.93749,-0.99998c0.23333,-0.43332 0.34999,-0.91248 0.34999,-1.43747c0,-0.54166 -0.11667,-1.02081 -0.34999,-1.43747c-0.225,-0.41666 -0.53751,-0.74582 -0.9375,-0.98748c-0.39999,-0.24166 -0.84998,-0.36249 -1.34997,-0.36249c-0.49999,0 -0.95415,0.12083 -1.36247,0.36249c-0.39999,0.24166 -0.71665,0.57082 -0.94998,0.98748c-0.23333,0.41666 -0.34999,0.89581 -0.34999,1.43747c0,0.52499 0.11667,1.00415 0.34999,1.43747c0.23333,0.42499 0.54999,0.75832 0.94998,0.99998c0.40832,0.24166 0.86249,0.36249 1.36248,0.36249z" fill="#00eeff" stroke="#00e5ff" stroke-width="1" stroke-linecap="square"/><path d="M115.68117,314.5491c-0.21666,0 -0.39998,-0.075 -0.54998,-0.225c-0.15,-0.15 -0.225,-0.33333 -0.225,-0.54999v-10.0998c0,-0.23333 0.075,-0.42082 0.225,-0.56249c0.15,-0.15 0.33332,-0.225 0.54998,-0.225c0.29999,0 0.52916,0.14167 0.68749,0.42499l4.67491,9.36231h-0.47499l4.54991,-9.36231c0.15833,-0.28333 0.38749,-0.42499 0.68749,-0.42499c0.21666,0 0.39999,0.075 0.54999,0.225c0.15,0.14167 0.225,0.32916 0.225,0.56249v10.0998c0,0.21666 -0.07917,0.39999 -0.2375,0.54999c-0.15,0.15 -0.32916,0.225 -0.53749,0.225c-0.21666,0 -0.39999,-0.075 -0.54999,-0.225c-0.15,-0.15 -0.225,-0.33333 -0.225,-0.54999v-7.94984l0.29999,-0.075l-3.91242,7.96234c-0.16666,0.25833 -0.39166,0.38749 -0.67499,0.38749c-0.32499,0 -0.56249,-0.15416 -0.71249,-0.46249l-3.86242,-7.74984l0.29999,-0.0625v7.94984c0,0.21666 -0.075,0.39999 -0.225,0.54999c-0.15,0.15 -0.33749,0.225 -0.56249,0.225zM133.24965,314.6116c-0.82498,0 -1.5583,-0.175 -2.19996,-0.52499c-0.64166,-0.35832 -1.14581,-0.84582 -1.51247,-1.46247c-0.35832,-0.62499 -0.53749,-1.34164 -0.53749,-2.14996c0,-0.81665 0.17083,-1.5333 0.51249,-2.14996c0.34166,-0.62499 0.81665,-1.11248 1.42497,-1.46247c0.60832,-0.35832 1.30414,-0.53749 2.08746,-0.53749c0.78332,0 1.44997,0.17083 1.99996,0.51249c0.55832,0.34166 0.98331,0.81665 1.27497,1.42497c0.29999,0.59999 0.44999,1.29164 0.44999,2.07496c0,0.19166 -0.06667,0.34999 -0.2,0.47499c-0.125,0.125 -0.28749,0.1875 -0.48749,0.1875h-6.01238v-1.19998h5.96238l-0.61249,0.42499c-0.00833,-0.49999 -0.10833,-0.94581 -0.29999,-1.33747c-0.18333,-0.39166 -0.44999,-0.69999 -0.79998,-0.92498c-0.34999,-0.23333 -0.77498,-0.34999 -1.27497,-0.34999c-0.56666,0 -1.04998,0.125 -1.44997,0.37499c-0.39999,0.24166 -0.70832,0.57916 -0.92498,1.01248c-0.20833,0.43332 -0.31249,0.92498 -0.31249,1.47497c0,0.54999 0.125,1.03748 0.37499,1.46247c0.24999,0.42499 0.59166,0.76248 1.02498,1.01248c0.44166,0.24999 0.94581,0.37499 1.51247,0.37499c0.30833,0 0.62499,-0.05417 0.94998,-0.1625c0.32499,-0.11667 0.58749,-0.24999 0.78748,-0.39999c0.15,-0.10833 0.31249,-0.16666 0.48749,-0.175c0.175,-0.00833 0.32499,0.04583 0.44999,0.1625c0.16666,0.14167 0.25416,0.30416 0.26249,0.48749c0.01667,0.175 -0.0625,0.32916 -0.2375,0.46249c-0.33333,0.26666 -0.75415,0.48749 -1.26247,0.66249c-0.49999,0.16666 -0.97915,0.24999 -1.43747,0.24999zM141.79424,314.6116c-0.74998,0 -1.41247,-0.175 -1.98746,-0.52499c-0.56666,-0.35832 -1.01665,-0.84582 -1.34997,-1.46247c-0.32499,-0.62499 -0.48749,-1.34164 -0.48749,-2.14996c0,-0.81665 0.175,-1.5333 0.52499,-2.14996c0.35832,-0.62499 0.84582,-1.11248 1.46247,-1.46247c0.61666,-0.35832 1.32914,-0.53749 2.13746,-0.53749c0.79165,0 1.4958,0.17916 2.11246,0.53749c0.61666,0.34999 1.09998,0.83748 1.44997,1.46247c0.35832,0.61666 0.53749,1.33331 0.53749,2.14996h-0.88748c0,0.80832 -0.15,1.52497 -0.44999,2.14996c-0.29999,0.61666 -0.71665,1.10415 -1.24997,1.46247c-0.52499,0.34999 -1.12915,0.52499 -1.81246,0.52499zM142.05675,317.93654c-0.70832,0 -1.3708,-0.14167 -1.98746,-0.42499c-0.61666,-0.27499 -1.13748,-0.67915 -1.56247,-1.21248c-0.13333,-0.175 -0.18333,-0.35416 -0.15,-0.53749c0.04167,-0.175 0.14167,-0.31666 0.29999,-0.42499c0.175,-0.11667 0.35832,-0.15416 0.54999,-0.1125c0.2,0.04167 0.35832,0.14167 0.47499,0.29999c0.27499,0.33333 0.61249,0.59582 1.01248,0.78748c0.40832,0.19166 0.87498,0.28749 1.39997,0.28749c0.47499,0 0.91248,-0.11667 1.31247,-0.34999c0.40832,-0.225 0.72915,-0.56249 0.96248,-1.01248c0.24166,-0.44999 0.36249,-0.99581 0.36249,-1.63747v-2.12496l0.48749,-1.31247l0.97498,0.31249v3.22494c0,0.78332 -0.175,1.4958 -0.52499,2.13746c-0.34999,0.64166 -0.83748,1.14998 -1.46247,1.52497c-0.61666,0.38332 -1.33331,0.57499 -2.14996,0.57499zM142.09425,313.26162c0.51666,0 0.97081,-0.11667 1.36247,-0.34999c0.39999,-0.24166 0.71249,-0.57082 0.93748,-0.98748c0.225,-0.41666 0.33749,-0.89998 0.33749,-1.44997c0,-0.54999 -0.1125,-1.03331 -0.33749,-1.44997c-0.225,-0.42499 -0.53749,-0.75415 -0.93748,-0.98748c-0.39166,-0.24166 -0.84582,-0.36249 -1.36247,-0.36249c-0.52499,0 -0.98748,0.12083 -1.38747,0.36249c-0.39166,0.23333 -0.70415,0.56249 -0.93748,0.98748c-0.225,0.41666 -0.33749,0.89998 -0.33749,1.44997c0,0.54999 0.1125,1.03331 0.33749,1.44997c0.23333,0.41666 0.54582,0.74582 0.93748,0.98748c0.39999,0.23333 0.86248,0.34999 1.38747,0.34999zM151.86843,314.6116c-0.72499,0 -1.37914,-0.17916 -1.96246,-0.53749c-0.57499,-0.36666 -1.02915,-0.86248 -1.36247,-1.48747c-0.33333,-0.62499 -0.49999,-1.32914 -0.49999,-2.11246c0,-0.78332 0.17916,-1.48747 0.53749,-2.11246c0.36666,-0.63332 0.85831,-1.12915 1.47497,-1.48747c0.62499,-0.36666 1.32914,-0.54999 2.11246,-0.54999c0.77498,0 1.4708,0.18333 2.08746,0.54999c0.61666,0.35832 1.10415,0.85415 1.46247,1.48747c0.36666,0.62499 0.54999,1.32914 0.54999,2.11246h-0.58749c0,0.78332 -0.16666,1.48747 -0.49999,2.11246c-0.33333,0.62499 -0.78748,1.12081 -1.36247,1.48747c-0.57499,0.35832 -1.22498,0.53749 -1.94996,0.53749zM152.16842,313.26162c0.49999,0 0.94998,-0.12083 1.34997,-0.36249c0.39999,-0.24166 0.71249,-0.57499 0.93748,-0.99998c0.23333,-0.42499 0.34999,-0.89998 0.34999,-1.42497c0,-0.53332 -0.11667,-1.01248 -0.34999,-1.43747c-0.225,-0.42499 -0.53749,-0.75832 -0.93748,-0.99998c-0.39999,-0.24166 -0.84998,-0.36249 -1.34997,-0.36249c-0.49999,0 -0.95415,0.12083 -1.36247,0.36249c-0.39999,0.24166 -0.71665,0.57499 -0.94998,0.99998c-0.23333,0.42499 -0.34999,0.90415 -0.34999,1.43747c0,0.52499 0.11667,0.99998 0.34999,1.42497c0.23333,0.42499 0.54999,0.75832 0.94998,0.99998c0.40832,0.24166 0.86248,0.36249 1.36247,0.36249zM155.50586,314.5616c-0.21666,0 -0.39999,-0.07083 -0.54999,-0.2125c-0.14167,-0.14167 -0.2125,-0.32499 -0.2125,-0.54999v-2.27495l0.28749,-1.58747l1.23748,0.53749v3.32493c0,0.225 -0.075,0.40832 -0.225,0.54999c-0.14167,0.14167 -0.32083,0.2125 -0.53749,0.2125zM163.82808,314.5491c-0.21666,0 -0.39999,-0.075 -0.54999,-0.225c-0.15,-0.15 -0.225,-0.33333 -0.225,-0.54999v-10.0998c0,-0.23333 0.075,-0.42082 0.225,-0.56249c0.15,-0.15 0.33333,-0.225 0.54999,-0.225h3.57493c0.67499,0 1.26664,0.13333 1.77496,0.39999c0.51666,0.26666 0.92081,0.63332 1.21248,1.09998c0.29166,0.46666 0.43749,1.00415 0.43749,1.61247c0,0.48332 -0.13333,0.92498 -0.39999,1.32497c-0.25833,0.39166 -0.61666,0.69999 -1.07498,0.92498c0.65832,0.15833 1.18748,0.47082 1.58747,0.93748c0.39999,0.46666 0.59999,1.07915 0.59999,1.83746c0,0.69165 -0.1625,1.29997 -0.48749,1.82496c-0.32499,0.52499 -0.77915,0.94165 -1.36247,1.24997c-0.57499,0.29999 -1.23331,0.44999 -1.97496,0.44999zM164.61557,313.11163h3.09994c0.45832,0 0.85831,-0.07917 1.19998,-0.2375c0.34999,-0.15833 0.62499,-0.39166 0.82498,-0.69999c0.2,-0.30833 0.29999,-0.69165 0.29999,-1.14998c0,-0.42499 -0.1,-0.77498 -0.29999,-1.04998c-0.2,-0.28333 -0.47499,-0.49582 -0.82498,-0.63749c-0.34166,-0.15 -0.74165,-0.225 -1.19998,-0.225h-3.09994zM164.61557,307.68674h2.78744c0.56666,0 1.02915,-0.1375 1.38747,-0.41249c0.36666,-0.28333 0.54999,-0.70832 0.54999,-1.27497c0,-0.56666 -0.18333,-0.98748 -0.54999,-1.26247c-0.35832,-0.27499 -0.82082,-0.41249 -1.38747,-0.41249h-2.78744zM177.40609,314.6116c-0.80832,0 -1.5208,-0.175 -2.13746,-0.52499c-0.61666,-0.35832 -1.10415,-0.84582 -1.46247,-1.46247c-0.34999,-0.62499 -0.52499,-1.34164 -0.52499,-2.14996c0,-0.81665 0.175,-1.5333 0.52499,-2.14996c0.35832,-0.62499 0.84582,-1.11248 1.46247,-1.46247c0.61666,-0.35832 1.32914,-0.53749 2.13746,-0.53749c0.79165,0 1.4958,0.17916 2.11246,0.53749c0.61666,0.34999 1.09998,0.83748 1.44997,1.46247c0.35832,0.61666 0.53749,1.33331 0.53749,2.14996c0,0.80832 -0.175,1.52497 -0.52499,2.14996c-0.34999,0.61666 -0.83332,1.10415 -1.44997,1.46247c-0.61666,0.34999 -1.32497,0.52499 -2.12496,0.52499zM177.40609,313.26162c0.51666,0 0.97081,-0.11667 1.36247,-0.34999c0.39999,-0.24166 0.71249,-0.57082 0.93748,-0.98748c0.225,-0.41666 0.33749,-0.89998 0.33749,-1.44997c0,-0.54999 -0.1125,-1.03331 -0.33749,-1.44997c-0.225,-0.42499 -0.53749,-0.75415 -0.93748,-0.98748c-0.39166,-0.24166 -0.84582,-0.36249 -1.36247,-0.36249c-0.52499,0 -0.98748,0.12083 -1.38747,0.36249c-0.39166,0.23333 -0.70415,0.56249 -0.93748,0.98748c-0.225,0.41666 -0.33749,0.89998 -0.33749,1.44997c0,0.54999 0.1125,1.03331 0.33749,1.44997c0.23333,0.41666 0.54582,0.74582 0.93748,0.98748c0.39999,0.23333 0.86248,0.34999 1.38747,0.34999zM194.49262,314.5616c-0.225,0 -0.40832,-0.07083 -0.54999,-0.2125c-0.14167,-0.14167 -0.2125,-0.32499 -0.2125,-0.54999v-4.26241c0,-0.62499 -0.15416,-1.08748 -0.46249,-1.38747c-0.30833,-0.30833 -0.71249,-0.46249 -1.21248,-0.46249c-0.51666,0 -0.94165,0.17916 -1.27497,0.53749c-0.33333,0.35832 -0.49999,0.81665 -0.49999,1.37497h-1.23748c0,-0.64999 0.1375,-1.22081 0.41249,-1.71247c0.28333,-0.49166 0.67499,-0.87498 1.17498,-1.14998c0.49999,-0.28333 1.07498,-0.42499 1.72497,-0.42499c0.56666,0 1.06665,0.125 1.49997,0.37499c0.44166,0.24999 0.78332,0.61666 1.02498,1.09998c0.24999,0.47499 0.37499,1.05831 0.37499,1.74996v4.26241c0,0.225 -0.07083,0.40832 -0.2125,0.54999c-0.14167,0.14167 -0.32499,0.2125 -0.54999,0.2125zM184.53032,314.5616c-0.21666,0 -0.39999,-0.07083 -0.54999,-0.2125c-0.14167,-0.14167 -0.2125,-0.32499 -0.2125,-0.54999v-6.63737c0,-0.225 0.07083,-0.40832 0.2125,-0.54999c0.15,-0.14167 0.33333,-0.2125 0.54999,-0.2125c0.23333,0 0.41666,0.07083 0.54999,0.2125c0.14167,0.14167 0.2125,0.32499 0.2125,0.54999v6.63737c0,0.225 -0.07083,0.40832 -0.2125,0.54999c-0.13333,0.14167 -0.31666,0.2125 -0.54999,0.2125zM189.51772,314.5616c-0.21666,0 -0.39999,-0.07083 -0.54999,-0.2125c-0.14167,-0.14167 -0.2125,-0.32499 -0.2125,-0.54999v-4.26241c0,-0.62499 -0.15416,-1.08748 -0.46249,-1.38747c-0.30833,-0.30833 -0.70832,-0.46249 -1.19998,-0.46249c-0.52499,0 -0.95831,0.17916 -1.29997,0.53749c-0.33333,0.35832 -0.49999,0.81665 -0.49999,1.37497h-0.93748c0,-0.64999 0.12917,-1.22081 0.38749,-1.71247c0.25833,-0.49166 0.61666,-0.87498 1.07498,-1.14998c0.45832,-0.28333 0.97915,-0.42499 1.56247,-0.42499c0.56666,0 1.07081,0.125 1.51247,0.37499c0.44166,0.24999 0.78332,0.61666 1.02498,1.09998c0.24166,0.47499 0.36249,1.05831 0.36249,1.74996v4.26241c0,0.225 -0.07083,0.40832 -0.2125,0.54999c-0.13333,0.14167 -0.31666,0.2125 -0.54999,0.2125zM201.87963,314.6116c-0.77498,0 -1.4708,-0.17916 -2.08746,-0.53749c-0.61666,-0.36666 -1.10415,-0.86248 -1.46247,-1.48747c-0.35832,-0.63332 -0.54582,-1.34164 -0.56249,-2.12496v-6.81236c0,-0.225 0.07083,-0.40832 0.2125,-0.54999c0.15,-0.14167 0.33333,-0.2125 0.54999,-0.2125c0.23333,0 0.41666,0.07083 0.54999,0.2125c0.14167,0.14167 0.2125,0.32499 0.2125,0.54999v4.03742c0.34999,-0.41666 0.77082,-0.74582 1.26247,-0.98748c0.49166,-0.24999 1.03331,-0.37499 1.62497,-0.37499c0.72499,0 1.37497,0.18333 1.94996,0.54999c0.57499,0.35832 1.02915,0.84998 1.36247,1.47497c0.33333,0.62499 0.49999,1.32914 0.49999,2.11246c0,0.78332 -0.18333,1.49164 -0.54999,2.12496c-0.35832,0.62499 -0.84582,1.12081 -1.46247,1.48747c-0.61666,0.35832 -1.31664,0.53749 -2.09996,0.53749zM201.87963,313.26162c0.50832,0 0.95831,-0.12083 1.34997,-0.36249c0.39999,-0.24166 0.71665,-0.57499 0.94998,-0.99998c0.23333,-0.43332 0.34999,-0.91248 0.34999,-1.43747c0,-0.54166 -0.11667,-1.02081 -0.34999,-1.43747c-0.23333,-0.41666 -0.54999,-0.74582 -0.94998,-0.98748c-0.39166,-0.24166 -0.84165,-0.36249 -1.34997,-0.36249c-0.49999,0 -0.95415,0.12083 -1.36247,0.36249c-0.39999,0.24166 -0.71665,0.57082 -0.94998,0.98748c-0.225,0.41666 -0.33749,0.89581 -0.33749,1.43747c0,0.52499 0.1125,1.00415 0.33749,1.43747c0.23333,0.42499 0.54999,0.75832 0.94998,0.99998c0.40832,0.24166 0.86248,0.36249 1.36247,0.36249z" fill="#00eeff" stroke="#00e5ff" stroke-width="1" stroke-linecap="square"/><g stroke-linecap="round"><path d="M34.07465,45.44138l4.07617,-3.41379l7.48995,3.87236l-3.6176,7.38805l-7.38805,-0.05095l-1.1719,-6.52187z" fill="#ffe800" stroke="#edd900" stroke-width="1.5"/><path d="M38.73846,53.48097l-6.17681,2.74696c0,0 -0.03304,0.07195 0.01218,-0.13632c0.18036,-0.83065 1.4222,-6.46984 1.4222,-6.46984z" fill="#ffe800" stroke="#edd900" stroke-width="1.5"/><path d="M43.87426,49.69619c0,0 0.99849,5.68732 1.14301,6.52495c0.03623,0.21002 0.00632,0.13672 0.00632,0.13672l-6.05313,-3.00973z" data-paper-data="{&quot;index&quot;:null}" fill="#ffe800" stroke="#edd900" stroke-width="2"/><g fill="#ffe800" stroke="#edd900" stroke-width="2"><path d="M34.03715,49.95762l-5.0801,-4.45998c0,0 -0.07916,0.0001 0.12891,-0.046c0.82988,-0.18387 6.47112,-1.41634 6.47112,-1.41634z"/><path d="M41.89704,43.81174l6.67489,1.06989c0,0 0.06695,-0.04225 -0.08462,0.10758c-0.60452,0.59755 -4.72313,4.64472 -4.72313,4.64472z" data-paper-data="{&quot;index&quot;:null}"/><path d="M35.74159,44.03213c0,0 2.61206,-5.14974 2.9988,-5.90666c0.09696,-0.18978 0.07695,-0.11319 0.07695,-0.11319l3.03847,6.03875z" data-paper-data="{&quot;index&quot;:null}"/></g><path d="M42.25446,49.2534l0.40537,2.03909l-0.47605,1.2076l-1.20734,0.20593l-2.34519,-1.21303z" data-paper-data="{&quot;index&quot;:null}" fill="#ffe800" stroke="#ffe800" stroke-width="1"/><path d="M39.00319,51.8213l-2.34519,1.21303l-1.20734,-0.20593l-0.47605,-1.2076l0.40537,-2.03908z" data-paper-data="{&quot;index&quot;:null}" fill="#ffe800" stroke="#ffe800" stroke-width="1"/><path d="M33.48526,55.34954l1.26316,-5.57895" fill="none" stroke="#edd900" stroke-width="0.5"/><path d="M34.16945,53.08636c0,0 3.70244,-2.15639 5.13188,-3.55031c1.39425,-1.35961 3.34181,-4.71284 3.34181,-4.71284l-0.05263,-1.78948l6.31579,0.89473l0.47369,0.42106l0.15789,0.73684l-0.31579,0.63158l-4.36842,4.21052l1.10527,6.1579l0.05263,0.73685l-0.36842,0.42105l-0.57894,0.10527l-6.36843,-2.94737l-6,2.57895h-0.36842l-0.31579,-0.36842l-0.10526,-0.57895l0.42105,-2.15789l1.84211,-0.78947z" fill="#fae500" stroke="#000000" stroke-width="0"/><path d="M40.55913,45.13957l2.60945,0.40265l0.85386,0.87807l-0.32734,1.16085l-1.52949,1.45576z" data-paper-data="{&quot;index&quot;:null}" fill="#ffe800" stroke="#ffe800" stroke-width="1"/><path d="M35.5112,49.37023l-1.52949,-1.40814l-0.32734,-1.25609l0.85386,-0.87807l2.60945,-0.40264z" data-paper-data="{&quot;index&quot;:null}" fill="#ffe800" stroke="#ffe800" stroke-width="1"/><path d="M36.43138,45.6723l1.33125,-2.28017l1.12997,-0.4725l0.85815,0.38408l1.0351,2.32018z" data-paper-data="{&quot;index&quot;:null}" fill="#ffe800" stroke="#ffe800" stroke-width="1"/><path d="M34.23646,53.06615c0,0 4.06506,-2.64324 5.58398,-4.11925c1.22854,-1.19383 2.70173,-3.97599 2.70173,-3.97599l3.85714,0.66666l-3.57143,3.57143l0.95239,5.47619l-4.71429,-2.33333l-5.19047,2.57143z" fill="#fff15d" stroke="#fff15d" stroke-width="0"/></g><g fill="#00eeff" stroke="#00e5ff" stroke-width="1"><path d="M165.66866,245.84981c-0.21666,0 -0.39998,-0.075 -0.54998,-0.225c-0.14167,-0.15 -0.2125,-0.33333 -0.2125,-0.54999v-10.0998c0,-0.225 0.075,-0.41249 0.225,-0.56249c0.15,-0.15 0.32916,-0.225 0.53748,-0.225c0.225,0 0.40832,0.075 0.54999,0.225c0.15,0.15 0.225,0.33749 0.225,0.56249v9.32481h5.41239c0.21666,0 0.39999,0.075 0.54999,0.225c0.15,0.15 0.225,0.33333 0.225,0.54999c0,0.21666 -0.075,0.39999 -0.225,0.54999c-0.15,0.15 -0.33333,0.225 -0.54999,0.225zM187.38695,245.91231c-0.69999,0 -1.34581,-0.10833 -1.93746,-0.32499c-0.59166,-0.21666 -1.04998,-0.48749 -1.37497,-0.81248c-0.15,-0.15833 -0.2125,-0.33749 -0.1875,-0.53749c0.025,-0.20833 0.12083,-0.37916 0.28749,-0.51249c0.2,-0.15833 0.39582,-0.225 0.58749,-0.2c0.2,0.025 0.37082,0.1125 0.51249,0.26249c0.16666,0.19166 0.43332,0.37082 0.79998,0.53749c0.37499,0.15833 0.79165,0.2375 1.24997,0.2375c0.58332,0 1.02498,-0.09167 1.32497,-0.27499c0.29999,-0.19166 0.45832,-0.43749 0.47499,-0.73749c0.00833,-0.29999 -0.1375,-0.55832 -0.43749,-0.77498c-0.29166,-0.21666 -0.82498,-0.39582 -1.59997,-0.53749c-0.99998,-0.2 -1.72913,-0.49582 -2.18746,-0.88748c-0.44999,-0.39999 -0.67499,-0.89165 -0.67499,-1.47497c0,-0.49999 0.15,-0.91665 0.44999,-1.24997c0.29999,-0.33333 0.68332,-0.58332 1.14998,-0.74998c0.46666,-0.16666 0.95415,-0.24999 1.46247,-0.24999c0.65832,0 1.23748,0.10417 1.73747,0.31249c0.50832,0.20833 0.91248,0.49582 1.21248,0.86248c0.14167,0.16666 0.20416,0.33749 0.1875,0.51249c-0.00833,0.16666 -0.09167,0.31249 -0.24999,0.43749c-0.15833,0.10833 -0.34583,0.14167 -0.56249,0.1c-0.21666,-0.04167 -0.39999,-0.12917 -0.54999,-0.26249c-0.24999,-0.24166 -0.52082,-0.40832 -0.81248,-0.49999c-0.28333,-0.09167 -0.61666,-0.1375 -0.99998,-0.1375c-0.43332,0 -0.80415,0.075 -1.11248,0.225c-0.29999,0.15 -0.44999,0.37082 -0.44999,0.66249c0,0.175 0.04583,0.33749 0.1375,0.48749c0.1,0.14167 0.28749,0.27083 0.56249,0.38749c0.28333,0.10833 0.69165,0.22083 1.22498,0.33749c0.74998,0.14167 1.33747,0.32916 1.76246,0.56249c0.43332,0.225 0.74582,0.49166 0.93748,0.79998c0.19166,0.29999 0.28749,0.64999 0.28749,1.04998c0,0.45832 -0.125,0.87081 -0.37499,1.23748c-0.24166,0.36666 -0.59999,0.66249 -1.07498,0.88748c-0.46666,0.21666 -1.05415,0.32499 -1.76246,0.32499zM196.35355,245.91231c-0.82498,0 -1.5583,-0.175 -2.19996,-0.52499c-0.64166,-0.35832 -1.14581,-0.84582 -1.51247,-1.46247c-0.35832,-0.62499 -0.53749,-1.34164 -0.53749,-2.14996c0,-0.81665 0.17083,-1.5333 0.51249,-2.14996c0.34166,-0.62499 0.81665,-1.11248 1.42497,-1.46247c0.60832,-0.35832 1.30414,-0.53749 2.08746,-0.53749c0.78332,0 1.44997,0.17083 1.99996,0.51249c0.55832,0.34166 0.98331,0.81665 1.27497,1.42497c0.29999,0.59999 0.44999,1.29164 0.44999,2.07496c0,0.19166 -0.06667,0.34999 -0.2,0.47499c-0.125,0.125 -0.28749,0.1875 -0.48749,0.1875h-6.01238v-1.19998h5.96238l-0.61249,0.42499c-0.00833,-0.49999 -0.10833,-0.94581 -0.29999,-1.33747c-0.18333,-0.39166 -0.44999,-0.69999 -0.79998,-0.92498c-0.34999,-0.23333 -0.77498,-0.34999 -1.27497,-0.34999c-0.56666,0 -1.04998,0.125 -1.44997,0.37499c-0.39999,0.24166 -0.70832,0.57916 -0.92498,1.01248c-0.20833,0.43332 -0.31249,0.92498 -0.31249,1.47497c0,0.54999 0.125,1.03748 0.37499,1.46247c0.24999,0.42499 0.59166,0.76248 1.02498,1.01248c0.44166,0.24999 0.94581,0.37499 1.51247,0.37499c0.30833,0 0.62499,-0.05417 0.94998,-0.1625c0.32499,-0.11667 0.58749,-0.24999 0.78748,-0.39999c0.15,-0.10833 0.31249,-0.16666 0.48749,-0.175c0.175,-0.00833 0.32499,0.04583 0.44999,0.1625c0.16666,0.14167 0.25416,0.30416 0.26249,0.48749c0.01667,0.175 -0.0625,0.32916 -0.2375,0.46249c-0.33333,0.26666 -0.75415,0.48749 -1.26247,0.66249c-0.49999,0.16666 -0.97915,0.24999 -1.43747,0.24999zM202.52186,240.74991c0,-0.59999 0.14583,-1.13331 0.43749,-1.59997c0.29166,-0.47499 0.68749,-0.84998 1.18748,-1.12498c0.49999,-0.28333 1.04581,-0.42499 1.63747,-0.42499c0.59999,0 1.04581,0.09583 1.33747,0.28749c0.29999,0.19166 0.41249,0.42499 0.33749,0.69999c-0.025,0.13333 -0.08333,0.2375 -0.175,0.31249c-0.08333,0.075 -0.17916,0.125 -0.28749,0.15c-0.10833,0.01667 -0.225,0.00833 -0.34999,-0.025c-0.64166,-0.125 -1.21664,-0.13333 -1.72497,-0.025c-0.50832,0.10833 -0.90831,0.31249 -1.19998,0.61249c-0.29166,0.29999 -0.43749,0.67915 -0.43749,1.13748zM202.53435,245.84981c-0.23333,0 -0.41666,-0.0625 -0.54999,-0.1875c-0.13333,-0.125 -0.2,-0.31249 -0.2,-0.56249v-6.66237c0,-0.24166 0.06667,-0.42499 0.2,-0.54999c0.13333,-0.13333 0.31666,-0.2 0.54999,-0.2c0.24999,0 0.43749,0.0625 0.56249,0.1875c0.125,0.125 0.1875,0.31249 0.1875,0.56249v6.66237c0,0.24166 -0.0625,0.42916 -0.1875,0.56249c-0.125,0.125 -0.31249,0.1875 -0.56249,0.1875z" stroke-linecap="square"/><g stroke-linecap="butt"><path d="M177.75027,246.00953c-0.72499,0 -1.37914,-0.17916 -1.96246,-0.53749c-0.57499,-0.36666 -1.02915,-0.86248 -1.36247,-1.48747c-0.33333,-0.62499 -0.49999,-1.32914 -0.49999,-2.11246c0,-0.78332 0.17916,-1.48747 0.53749,-2.11246c0.36666,-0.63332 0.85831,-1.12915 1.47497,-1.48747c0.62499,-0.36666 1.32914,-0.54999 2.11246,-0.54999c0.77498,0 1.4708,0.18333 2.08746,0.54999c0.61666,0.35832 0.86439,0.62024 1.22271,1.25356c0.36666,0.62499 0.78975,1.56305 0.78975,2.34637h-0.58749c0,0.78332 -0.16666,1.48747 -0.49999,2.11246c-0.33333,0.62499 -0.78748,1.12081 -1.36247,1.48747c-0.57499,0.35832 -1.22498,0.53749 -1.94996,0.53749zM178.05026,244.65955c0.49999,0 0.94998,-0.12083 1.34997,-0.36249c0.39999,-0.24166 0.71249,-0.57499 0.93748,-0.99998c0.23333,-0.42499 0.34999,-0.89998 0.34999,-1.42497c0,-0.53332 -0.11667,-1.01248 -0.34999,-1.43747c-0.225,-0.42499 -0.53749,-0.75832 -0.93748,-0.99998c-0.39999,-0.24166 -0.84998,-0.36249 -1.34997,-0.36249c-0.49999,0 -0.95415,0.12083 -1.36247,0.36249c-0.39999,0.24166 -0.71665,0.57499 -0.94998,0.99998c-0.23333,0.42499 -0.34999,0.90415 -0.34999,1.43747c0,0.52499 0.11667,0.99998 0.34999,1.42497c0.23333,0.42499 0.54999,0.75832 0.94998,0.99998c0.40832,0.24166 0.86248,0.36249 1.36247,0.36249z"/><path d="M180.8377,245.85814c-0.14167,-0.14167 -0.2125,-0.32499 -0.2125,-0.54999v-2.27495l0.27573,-1.52254c0.06905,0.00339 0.13743,0.00945 0.20695,0.01985l1.04228,0.45271v3.32493c0,0.225 -0.075,0.40832 -0.225,0.54999c-0.14167,0.14167 -0.32082,0.2125 -0.53748,0.2125h-0.00001c-0.21666,0 -0.39998,-0.07083 -0.54998,-0.2125z"/><path d="M181.38768,237.39956h0.00001c0.21666,0 0.39581,0.07083 0.53748,0.2125c0.15,0.14167 0.225,0.32499 0.225,0.54999v3.32493l-1.04228,0.45271c-0.06952,0.01039 -0.1379,0.01645 -0.20695,0.01984l-0.27573,-1.52253v-2.27495c0,-0.225 0.07083,-0.40832 0.2125,-0.54999c0.15,-0.14167 0.33333,-0.2125 0.54998,-0.2125z" data-paper-data="{&quot;index&quot;:null}"/></g></g></g></g></svg>