<svg version="1.1" xmlns="http://www.w3.org/2000/svg" xmlns:xlink="http://www.w3.org/1999/xlink" width="55.81221" height="59.04314" viewBox="0,0,55.81221,59.04314"><defs><linearGradient x1="287.07092" y1="229.65086" x2="286.72762" y2="147.60015" gradientUnits="userSpaceOnUse" id="color-1"><stop offset="0" stop-color="#00b4ff"/><stop offset="1" stop-color="#00b4ff" stop-opacity="0"/></linearGradient><radialGradient cx="287" cy="180.33333" r="17.95833" gradientUnits="userSpaceOnUse" id="color-2"><stop offset="0" stop-color="#00b5ff"/><stop offset="1" stop-color="#00b5ff" stop-opacity="0"/></radialGradient><linearGradient x1="314.49272" y1="224.26206" x2="270.66335" y2="154.89764" gradientUnits="userSpaceOnUse" id="color-3"><stop offset="0" stop-color="#00b4ff"/><stop offset="1" stop-color="#00b4ff" stop-opacity="0"/></linearGradient><linearGradient x1="237.45904" y1="163.27513" x2="314.94242" y2="190.27073" gradientUnits="userSpaceOnUse" id="color-4"><stop offset="0" stop-color="#00b4ff"/><stop offset="1" stop-color="#00b4ff" stop-opacity="0"/></linearGradient><linearGradient x1="251.48382" y1="142.52607" x2="305.45754" y2="204.32634" gradientUnits="userSpaceOnUse" id="color-5"><stop offset="0" stop-color="#00b4ff"/><stop offset="1" stop-color="#00b4ff" stop-opacity="0"/></linearGradient><linearGradient x1="335.16547" y1="158.41171" x2="261.85354" y2="195.26001" gradientUnits="userSpaceOnUse" id="color-6"><stop offset="0" stop-color="#00b4ff"/><stop offset="1" stop-color="#00b4ff" stop-opacity="0"/></linearGradient></defs><g transform="translate(-260.28174,-147.58551)"><g data-paper-data="{&quot;isPaintingLayer&quot;:true}" fill-rule="nonzero" stroke="none" stroke-linecap="butt" stroke-linejoin="miter" stroke-miterlimit="10" stroke-dasharray="" stroke-dashoffset="0" style="mix-blend-mode: normal"><path d="M290.22759,147.58551l-3.2552,34.61392l-3.74474,-34.58463z" fill="url(#color-1)" stroke-width="0"/><path d="M269.04167,180.33333c0,-9.91811 8.04022,-17.95833 17.95833,-17.95833c9.91811,0 17.95833,8.04022 17.95833,17.95833c0,9.91811 -8.04022,17.95833 -17.95833,17.95833c-9.91811,0 -17.95833,-8.04022 -17.95833,-17.95833z" fill="url(#color-2)" stroke-width="0.5"/><path d="M273.62218,153.02805l15.60798,31.06623l-21.52562,-27.32705z" fill="url(#color-3)" stroke-width="0"/><path d="M313.79089,193.57587l-31.48928,-14.78326l33.79234,8.17297z" data-paper-data="{&quot;index&quot;:null}" fill="url(#color-4)" stroke-width="0"/><path d="M302.82137,206.62865l-20.04852,-28.42845l25.32084,23.82382z" data-paper-data="{&quot;index&quot;:null}" fill="url(#color-5)" stroke-width="0"/><path d="M260.28174,192.1328l32.44157,-12.50058l-29.29795,18.755z" data-paper-data="{&quot;index&quot;:null}" fill="url(#color-6)" stroke-width="0"/></g></g></svg>