<svg version="1.1" xmlns="http://www.w3.org/2000/svg" xmlns:xlink="http://www.w3.org/1999/xlink" width="195" height="195" viewBox="0,0,195,195"><g transform="translate(-142.5,-82.5)"><g data-paper-data="{&quot;isPaintingLayer&quot;:true}" fill-rule="nonzero" stroke-linejoin="miter" stroke-miterlimit="10" stroke-dasharray="" stroke-dashoffset="0" style="mix-blend-mode: normal"><path d="M189.62839,184.37574l-2.55719,-8.7617h1.53839l1.74215,6.32676l1.74215,-6.30638l1.53839,-0.02038l1.74215,6.32676l1.74215,-6.32676h1.53839l-2.55719,8.7617h-1.4467l-1.79309,-6.22488l-1.7829,6.22488zM201.81396,184.55912c-0.65203,0 -1.22596,-0.14603 -1.72178,-0.43808c-0.48902,-0.29885 -0.86938,-0.70977 -1.14106,-1.23275c-0.26489,-0.52299 -0.39733,-1.12068 -0.39733,-1.79309c0,-0.69279 0.13584,-1.29727 0.40752,-1.81347c0.27847,-0.52299 0.66222,-0.93051 1.15125,-1.22256c0.48902,-0.29206 1.05616,-0.43808 1.7014,-0.43808c0.66562,0 1.24294,0.14942 1.73196,0.44827c0.48902,0.29206 0.86938,0.69958 1.14106,1.22256c0.27168,0.52299 0.40752,1.12408 0.40752,1.80328c0,0.6792 -0.13584,1.28029 -0.40752,1.80328c-0.27168,0.51619 -0.65543,0.92371 -1.15125,1.22256c-0.48902,0.29206 -1.06295,0.43808 -1.72178,0.43808zM201.81396,183.18374c0.58411,0 1.0188,-0.19357 1.30407,-0.58072c0.28526,-0.39394 0.4279,-0.89655 0.4279,-1.50783c0,-0.63845 -0.14603,-1.14785 -0.43808,-1.5282c-0.28526,-0.38035 -0.71656,-0.57053 -1.29388,-0.57053c-0.39394,0 -0.71656,0.0883 -0.96786,0.26489c-0.2513,0.17659 -0.43808,0.4245 -0.56034,0.74373c-0.12226,0.31243 -0.18338,0.67581 -0.18338,1.09012c0,0.63166 0.14263,1.13766 0.4279,1.51802c0.29206,0.38035 0.71995,0.57053 1.28369,0.57053zM210.98208,184.37574v-3.15829c0,-0.21055 -0.01698,-0.44148 -0.05094,-0.69279c-0.02717,-0.2513 -0.09169,-0.49242 -0.19357,-0.72335c-0.10188,-0.23772 -0.2581,-0.43129 -0.46865,-0.58072c-0.20376,-0.14942 -0.47884,-0.22414 -0.82523,-0.22414c-0.18338,0 -0.36677,0.03056 -0.55015,0.09169c-0.18338,0.06113 -0.34979,0.1664 -0.49921,0.31583c-0.14942,0.14942 -0.26828,0.35318 -0.35658,0.61128c-0.0883,0.2581 -0.13244,0.58751 -0.13244,0.98824l-0.86598,-0.37696c0,-0.55695 0.10867,-1.06295 0.32602,-1.51802c0.21734,-0.45506 0.53657,-0.81504 0.95767,-1.07993c0.4211,-0.27168 0.9373,-0.40752 1.54858,-0.40752c0.48902,0 0.88975,0.0815 1.20219,0.24451c0.31922,0.15622 0.57053,0.36337 0.75391,0.62147c0.19018,0.2513 0.32941,0.51959 0.41771,0.80485c0.0883,0.27847 0.14603,0.54676 0.1732,0.80485c0.02717,0.2513 0.04075,0.45506 0.04075,0.61128v3.66769zM206.41785,184.37574v-6.57127h1.31425v2.0376h0.1732v4.53367zM216.57216,184.55912c-0.60449,0 -1.13087,-0.15282 -1.57914,-0.45846c-0.44827,-0.30564 -0.79806,-0.71995 -1.04937,-1.24294c-0.24451,-0.52299 -0.36677,-1.11049 -0.36677,-1.76253c0,-0.66562 0.12226,-1.25992 0.36677,-1.7829c0.2513,-0.52299 0.60449,-0.9339 1.05955,-1.23275c0.46186,-0.30564 1.00182,-0.45846 1.6199,-0.45846c0.62487,0 1.14785,0.15282 1.56896,0.45846c0.4279,0.29885 0.75052,0.70977 0.96786,1.23275c0.22414,0.52299 0.3362,1.11729 0.3362,1.7829c0,0.65203 -0.11207,1.23954 -0.3362,1.76253c-0.21734,0.52299 -0.54336,0.9373 -0.97805,1.24294c-0.43469,0.30564 -0.97126,0.45846 -1.60971,0.45846zM216.7963,183.24487c0.39394,0 0.70977,-0.0883 0.94749,-0.26489c0.24451,-0.18338 0.4211,-0.43808 0.52978,-0.7641c0.11546,-0.32602 0.1732,-0.69958 0.1732,-1.12068c0,-0.43469 -0.05773,-0.81165 -0.1732,-1.13087c-0.10867,-0.32602 -0.28187,-0.57732 -0.51959,-0.75391c-0.23093,-0.18338 -0.53317,-0.27508 -0.90673,-0.27508c-0.39394,0 -0.71995,0.09848 -0.97805,0.29545c-0.2513,0.19018 -0.43808,0.44827 -0.56034,0.77429c-0.12226,0.32602 -0.18338,0.68939 -0.18338,1.09012c0,0.40073 0.05773,0.7641 0.1732,1.09012c0.12226,0.32602 0.30564,0.58411 0.55015,0.77429c0.2513,0.19018 0.56713,0.28526 0.94749,0.28526zM218.44676,184.37574v-4.61517h-0.18338v-4.14652h1.47726v8.7617zM224.43425,184.55912c-0.66562,0 -1.24973,-0.14263 -1.75234,-0.4279c-0.50261,-0.29206 -0.89655,-0.69279 -1.18181,-1.20219c-0.27847,-0.5094 -0.41771,-1.09691 -0.41771,-1.76253c0,-0.71995 0.13584,-1.34482 0.40752,-1.8746c0.27847,-0.52978 0.66222,-0.94069 1.15125,-1.23275c0.48902,-0.29206 1.05616,-0.43808 1.7014,-0.43808c0.68599,0 1.26671,0.15961 1.74215,0.47884c0.47544,0.31922 0.82863,0.77089 1.05955,1.35501c0.23093,0.57732 0.31922,1.25992 0.26489,2.04779h-1.45689v-0.53997c-0.00679,-0.71316 -0.13244,-1.23275 -0.37696,-1.55877c-0.24451,-0.33281 -0.63505,-0.49921 -1.17162,-0.49921c-0.5977,0 -1.04257,0.18678 -1.33463,0.56034c-0.29206,0.37356 -0.43808,0.91692 -0.43808,1.63008c0,0.66562 0.14603,1.18181 0.43808,1.54858c0.29206,0.35998 0.71656,0.53997 1.2735,0.53997c0.35998,0 0.66901,-0.07811 0.92711,-0.23432c0.26489,-0.16301 0.46865,-0.39733 0.61128,-0.70297l1.4467,0.43808c-0.2513,0.59091 -0.63845,1.05276 -1.16143,1.38557c-0.52299,0.32602 -1.10031,0.48902 -1.73196,0.48902zM222.17251,181.50272v-1.11049h4.51329v1.11049zM228.77218,184.37574v-6.57127h1.29388v1.59952l-0.16301,-0.20376c0.0815,-0.21734 0.19018,-0.41431 0.32602,-0.59091c0.13584,-0.18338 0.29885,-0.3362 0.48902,-0.45846c0.16301,-0.10867 0.343,-0.19357 0.53997,-0.2547c0.19697,-0.06113 0.39733,-0.09848 0.60109,-0.11207c0.21055,-0.02038 0.41431,-0.01358 0.61128,0.02038v1.37538c-0.19697,-0.06113 -0.4245,-0.0815 -0.6826,-0.06113c-0.2513,0.02038 -0.47884,0.09169 -0.6826,0.21395c-0.19697,0.10867 -0.35998,0.24791 -0.48902,0.41771c-0.12905,0.1698 -0.22414,0.36337 -0.28526,0.58072c-0.06113,0.21734 -0.09169,0.45167 -0.09169,0.70297v3.34167zM234.19634,184.37574v-6.67315c0,-0.16301 0.0034,-0.343 0.01019,-0.53997c0.01358,-0.20376 0.04754,-0.40412 0.10188,-0.60109c0.06113,-0.20376 0.1664,-0.38714 0.31583,-0.55015c0.19018,-0.20376 0.39054,-0.34639 0.60109,-0.4279c0.21734,-0.0815 0.43129,-0.12565 0.64185,-0.13244c0.21734,-0.01358 0.40412,-0.02038 0.56034,-0.02038h0.81504v1.192h-0.75391c-0.27847,0 -0.48563,0.07132 -0.62147,0.21395c-0.13584,0.14263 -0.20376,0.32602 -0.20376,0.55015v6.98898zM233.13679,178.95571v-1.15125h4.10577v1.15125zM240.67931,184.56931c-0.48223,0 -0.88296,-0.0815 -1.20219,-0.24451c-0.31243,-0.16301 -0.56374,-0.37016 -0.75391,-0.62147c-0.18338,-0.2513 -0.32262,-0.51959 -0.41771,-0.80485c-0.0883,-0.28526 -0.14603,-0.55355 -0.1732,-0.80485c-0.02038,-0.2513 -0.03056,-0.45846 -0.03056,-0.62147v-3.66769h1.47726v3.16847c0,0.20376 0.01358,0.43129 0.04075,0.6826c0.03396,0.2513 0.10188,0.49582 0.20376,0.73354c0.10188,0.23093 0.2547,0.4211 0.45846,0.57053c0.20376,0.14942 0.48223,0.22414 0.83542,0.22414c0.18338,0 0.36677,-0.03056 0.55015,-0.09169c0.18338,-0.06113 0.34979,-0.1664 0.49921,-0.31583c0.14942,-0.14942 0.26828,-0.35318 0.35658,-0.61128c0.0883,-0.2581 0.13244,-0.58411 0.13244,-0.97805l0.86598,0.36677c0,0.55695 -0.10867,1.06295 -0.32602,1.51802c-0.21734,0.45506 -0.53657,0.81844 -0.95767,1.09012c-0.4211,0.27168 -0.94069,0.40752 -1.55877,0.40752zM242.82898,184.37574v-2.0376h-0.1732v-4.53367h1.46707v6.57127zM245.95515,184.37574v-8.94508h1.45689v8.94508zM256.15861,182.74566v-2.18024h-2.17005v-1.15125h2.17005v-2.17005h1.15125v2.17005h2.17005v1.15125h-2.17005v2.18024zM263.65058,184.55912c-0.44148,0 -0.85579,-0.09169 -1.24294,-0.27508c-0.38714,-0.18338 -0.71995,-0.43808 -0.99843,-0.7641c-0.27168,-0.32602 -0.46865,-0.70297 -0.59091,-1.13087l1.40595,-0.37696c0.06113,0.23093 0.1664,0.43469 0.31583,0.61128c0.14942,0.1698 0.32602,0.30224 0.52978,0.39733c0.21055,0.0883 0.4245,0.13244 0.64185,0.13244c0.28526,0 0.54336,-0.06792 0.77429,-0.20376c0.23772,-0.14263 0.4245,-0.32941 0.56034,-0.56034c0.14263,-0.23093 0.21395,-0.48902 0.21395,-0.77429c0,-0.28526 -0.07132,-0.54336 -0.21395,-0.77429c-0.14263,-0.23093 -0.33281,-0.41431 -0.57053,-0.55015c-0.23093,-0.13584 -0.48563,-0.20376 -0.7641,-0.20376c-0.3396,0 -0.62147,0.06113 -0.84561,0.18338c-0.21734,0.11546 -0.38375,0.24451 -0.49921,0.38714l-1.25313,-0.40752l0.26489,-4.63555h4.75781v1.37538h-3.97333l0.55015,-0.51959l-0.19357,3.2296l-0.26489,-0.32602c0.22414,-0.21055 0.48563,-0.36677 0.78448,-0.46865c0.29885,-0.10188 0.59091,-0.15282 0.87617,-0.15282c0.54336,0 1.02559,0.12565 1.4467,0.37696c0.4279,0.2513 0.76071,0.59091 0.99843,1.0188c0.24451,0.4279 0.36677,0.91692 0.36677,1.46707c0,0.55015 -0.14263,1.04597 -0.4279,1.48745c-0.28526,0.44148 -0.65883,0.79467 -1.12068,1.05955c-0.46186,0.26489 -0.97126,0.39733 -1.5282,0.39733zM273.77222,184.55912c-0.62487,0 -1.17502,-0.13244 -1.65046,-0.39733c-0.46865,-0.26489 -0.83542,-0.63505 -1.10031,-1.11049c-0.26489,-0.47544 -0.39733,-1.0222 -0.39733,-1.64027v-2.82208c0,-0.62487 0.13244,-1.17162 0.39733,-1.64027c0.26489,-0.47544 0.63166,-0.84561 1.10031,-1.11049c0.47544,-0.27168 1.02559,-0.40752 1.65046,-0.40752c0.61807,0 1.16143,0.13584 1.63008,0.40752c0.47544,0.26489 0.84561,0.63505 1.11049,1.11049c0.27168,0.46865 0.40752,1.01541 0.40752,1.64027v2.82208c0,0.61807 -0.13584,1.16483 -0.40752,1.64027c-0.26489,0.47544 -0.63505,0.84561 -1.11049,1.11049c-0.46865,0.26489 -1.01201,0.39733 -1.63008,0.39733zM273.77222,183.16336c0.30564,0 0.58411,-0.07132 0.83542,-0.21395c0.2513,-0.14942 0.44827,-0.34979 0.59091,-0.60109c0.14942,-0.2513 0.22414,-0.52978 0.22414,-0.83542v-3.03603c0,-0.31243 -0.07471,-0.59091 -0.22414,-0.83542c-0.14263,-0.2513 -0.3396,-0.45167 -0.59091,-0.60109c-0.2513,-0.14942 -0.52978,-0.22414 -0.83542,-0.22414c-0.31243,0 -0.5943,0.07471 -0.84561,0.22414c-0.2513,0.14942 -0.45167,0.34979 -0.60109,0.60109c-0.14263,0.24451 -0.21395,0.52299 -0.21395,0.83542v3.03603c0,0.30564 0.07132,0.58411 0.21395,0.83542c0.14942,0.2513 0.34979,0.45167 0.60109,0.60109c0.2513,0.14263 0.53317,0.21395 0.84561,0.21395zM281.77647,184.55912c-0.62487,0 -1.17502,-0.13244 -1.65046,-0.39733c-0.46865,-0.26489 -0.83542,-0.63505 -1.10031,-1.11049c-0.26489,-0.47544 -0.39733,-1.0222 -0.39733,-1.64027v-2.82208c0,-0.62487 0.13244,-1.17162 0.39733,-1.64027c0.26489,-0.47544 0.63166,-0.84561 1.10031,-1.11049c0.47544,-0.27168 1.02559,-0.40752 1.65046,-0.40752c0.61807,0 1.16143,0.13584 1.63008,0.40752c0.47544,0.26489 0.84561,0.63505 1.11049,1.11049c0.27168,0.46865 0.40752,1.01541 0.40752,1.64027v2.82208c0,0.61807 -0.13584,1.16483 -0.40752,1.64027c-0.26489,0.47544 -0.63505,0.84561 -1.11049,1.11049c-0.46865,0.26489 -1.01201,0.39733 -1.63008,0.39733zM281.77647,183.16336c0.30564,0 0.58411,-0.07132 0.83542,-0.21395c0.2513,-0.14942 0.44827,-0.34979 0.59091,-0.60109c0.14942,-0.2513 0.22414,-0.52978 0.22414,-0.83542v-3.03603c0,-0.31243 -0.07471,-0.59091 -0.22414,-0.83542c-0.14263,-0.2513 -0.3396,-0.45167 -0.59091,-0.60109c-0.2513,-0.14942 -0.52978,-0.22414 -0.83542,-0.22414c-0.31243,0 -0.5943,0.07471 -0.84561,0.22414c-0.2513,0.14942 -0.45167,0.34979 -0.60109,0.60109c-0.14263,0.24451 -0.21395,0.52299 -0.21395,0.83542v3.03603c0,0.30564 0.07132,0.58411 0.21395,0.83542c0.14942,0.2513 0.34979,0.45167 0.60109,0.60109c0.2513,0.14263 0.53317,0.21395 0.84561,0.21395zM289.78071,184.55912c-0.62487,0 -1.17502,-0.13244 -1.65046,-0.39733c-0.46865,-0.26489 -0.83542,-0.63505 -1.10031,-1.11049c-0.26489,-0.47544 -0.39733,-1.0222 -0.39733,-1.64027v-2.82208c0,-0.62487 0.13244,-1.17162 0.39733,-1.64027c0.26489,-0.47544 0.63166,-0.84561 1.10031,-1.11049c0.47544,-0.27168 1.02559,-0.40752 1.65046,-0.40752c0.61807,0 1.16143,0.13584 1.63008,0.40752c0.47544,0.26489 0.84561,0.63505 1.11049,1.11049c0.27168,0.46865 0.40752,1.01541 0.40752,1.64027v2.82208c0,0.61807 -0.13584,1.16483 -0.40752,1.64027c-0.26489,0.47544 -0.63505,0.84561 -1.11049,1.11049c-0.46865,0.26489 -1.01201,0.39733 -1.63008,0.39733zM289.78071,183.16336c0.30564,0 0.58411,-0.07132 0.83542,-0.21395c0.2513,-0.14942 0.44827,-0.34979 0.59091,-0.60109c0.14942,-0.2513 0.22414,-0.52978 0.22414,-0.83542v-3.03603c0,-0.31243 -0.07471,-0.59091 -0.22414,-0.83542c-0.14263,-0.2513 -0.3396,-0.45167 -0.59091,-0.60109c-0.2513,-0.14942 -0.52978,-0.22414 -0.83542,-0.22414c-0.31243,0 -0.5943,0.07471 -0.84561,0.22414c-0.2513,0.14942 -0.45167,0.34979 -0.60109,0.60109c-0.14263,0.24451 -0.21395,0.52299 -0.21395,0.83542v3.03603c0,0.30564 0.07132,0.58411 0.21395,0.83542c0.14942,0.2513 0.34979,0.45167 0.60109,0.60109c0.2513,0.14263 0.53317,0.21395 0.84561,0.21395z" fill="#ffffff" stroke="#ffffff" stroke-width="0.25" stroke-linecap="square"/><path d="M142.5,277.5v-195h195v195z" fill="none" stroke="none" stroke-width="0" stroke-linecap="butt"/></g></g></svg>