<svg version="1.1" xmlns="http://www.w3.org/2000/svg" xmlns:xlink="http://www.w3.org/1999/xlink" width="207.56911" height="200.80003" viewBox="0,0,207.56911,200.80003"><defs><radialGradient cx="242.72728" cy="180.18181" r="6.19551" gradientUnits="userSpaceOnUse" id="color-1"><stop offset="0" stop-color="#69f5ff"/><stop offset="1" stop-color="#69f5ff" stop-opacity="0"/></radialGradient><radialGradient cx="240.00001" cy="180" r="6.19551" gradientUnits="userSpaceOnUse" id="color-2"><stop offset="0" stop-color="#69f5ff"/><stop offset="1" stop-color="#69f5ff" stop-opacity="0"/></radialGradient></defs><g transform="translate(-136.21546,-79.59999)"><g data-paper-data="{&quot;isPaintingLayer&quot;:true}" fill-rule="nonzero" stroke-linejoin="miter" stroke-miterlimit="10" stroke-dasharray="" stroke-dashoffset="0" style="mix-blend-mode: normal"><path d="M242.43557,186.37044c-3.41789,-0.16111 -6.05803,-3.06247 -5.89692,-6.48035c0.16111,-3.41789 3.06247,-6.05803 6.48035,-5.89692c3.41789,0.16111 6.05803,3.06247 5.89692,6.48035c-0.16111,3.41789 -3.06247,6.05803 -6.48035,5.89692z" fill="url(#color-1)" stroke="none" stroke-width="NaN" stroke-linecap="butt"/><path d="M265.78459,155.05631l-51.56911,49.88738" fill="none" stroke="#000000" stroke-width="0.0005" stroke-linecap="round"/><path d="M343.78457,79.59999l-207.56911,200.80003" fill="none" stroke="#000000" stroke-width="0" stroke-linecap="round"/><path d="M239.70829,186.18863c-3.41789,-0.16111 -6.05803,-3.06247 -5.89692,-6.48035c0.16111,-3.41789 3.06247,-6.05803 6.48035,-5.89692c3.41789,0.16111 6.05803,3.06247 5.89692,6.48035c-0.16111,3.41789 -3.06247,6.05803 -6.48035,5.89692z" fill="url(#color-2)" stroke="none" stroke-width="NaN" stroke-linecap="butt"/><path d="M240.51966,182.18668c-2.28029,-0.06716 -4.06305,-1.10061 -3.98186,-2.30829c0.08121,-1.20768 1.99558,-2.13223 4.27589,-2.06507c2.28029,0.06716 4.06307,1.10062 3.98188,2.3083c-0.08121,1.20768 -1.9956,2.13221 -4.27589,2.06507z" fill="#54f3ff" stroke="#00e1f1" stroke-width="1" stroke-linecap="butt"/></g></g></svg>