<svg version="1.1" xmlns="http://www.w3.org/2000/svg" xmlns:xlink="http://www.w3.org/1999/xlink" width="195" height="195" viewBox="0,0,195,195"><g transform="translate(-142.5,-82.5)"><g data-paper-data="{&quot;isPaintingLayer&quot;:true}" fill-rule="nonzero" stroke-linejoin="miter" stroke-miterlimit="10" stroke-dasharray="" stroke-dashoffset="0" style="mix-blend-mode: normal"><path d="M210.23299,184.38084v-8.7617h1.47726l4.06502,6.17394v-6.17394h1.48745v8.7617h-1.48745l-4.06502,-6.17394v6.17394zM219.08937,176.81114v-1.34482h1.45689v1.34482zM219.08937,184.38084v-6.57127h1.45689v6.57127zM225.23189,184.56422c-0.6792,0 -1.25992,-0.14942 -1.74215,-0.44827c-0.47544,-0.30564 -0.84221,-0.71995 -1.10031,-1.24294c-0.2513,-0.52299 -0.37696,-1.11389 -0.37696,-1.77272c0,-0.67241 0.12905,-1.27011 0.38714,-1.79309c0.26489,-0.52299 0.63845,-0.9339 1.12068,-1.23275c0.48223,-0.29885 1.05616,-0.44827 1.72178,-0.44827c0.74712,0 1.37878,0.19018 1.89497,0.57053c0.51619,0.37356 0.85579,0.88296 1.0188,1.5282l-1.46707,0.39733c-0.10867,-0.35318 -0.29545,-0.62826 -0.56034,-0.82523c-0.26489,-0.19697 -0.56374,-0.29545 -0.89655,-0.29545c-0.38714,0 -0.70297,0.09169 -0.94749,0.27508c-0.24451,0.17659 -0.4279,0.4245 -0.55015,0.74373c-0.11546,0.31922 -0.1732,0.6792 -0.1732,1.07993c0,0.62487 0.13924,1.13087 0.41771,1.51802c0.27847,0.38035 0.69618,0.57053 1.25313,0.57053c0.38714,0 0.69279,-0.0883 0.91692,-0.26489c0.22414,-0.18338 0.39394,-0.44148 0.5094,-0.77429l1.49764,0.3362c-0.20376,0.66562 -0.56034,1.17841 -1.06974,1.53839c-0.50261,0.35998 -1.12068,0.53997 -1.85422,0.53997zM232.18244,184.56422c-0.66562,0 -1.24973,-0.14263 -1.75234,-0.4279c-0.50261,-0.29206 -0.89655,-0.69279 -1.18181,-1.20219c-0.27847,-0.5094 -0.41771,-1.09691 -0.41771,-1.76253c0,-0.71995 0.13584,-1.34482 0.40752,-1.8746c0.27847,-0.52978 0.66222,-0.94069 1.15125,-1.23275c0.48902,-0.29206 1.05616,-0.43808 1.7014,-0.43808c0.68599,0 1.26671,0.15961 1.74215,0.47884c0.47544,0.31922 0.82863,0.77089 1.05955,1.35501c0.23093,0.57732 0.31922,1.25992 0.26489,2.04779h-1.45689v-0.53997c-0.00679,-0.71316 -0.13244,-1.23275 -0.37696,-1.55877c-0.24451,-0.33281 -0.63505,-0.49921 -1.17162,-0.49921c-0.5977,0 -1.04257,0.18678 -1.33463,0.56034c-0.29206,0.37356 -0.43808,0.91692 -0.43808,1.63008c0,0.66562 0.14603,1.18181 0.43808,1.54858c0.29206,0.35998 0.71656,0.53997 1.2735,0.53997c0.35998,0 0.66901,-0.07811 0.92711,-0.23432c0.26489,-0.16301 0.46865,-0.39733 0.61128,-0.70297l1.4467,0.43808c-0.2513,0.59091 -0.63845,1.05276 -1.16143,1.38557c-0.52299,0.32602 -1.10031,0.48902 -1.73196,0.48902zM229.9207,181.50781v-1.11049h4.51329v1.11049zM243.43396,182.75075v-2.18024h-2.17005v-1.15125h2.17005v-2.17005h1.15125v2.17005h2.17005v1.15125h-2.17005v2.18024zM250.92592,184.56422c-0.44148,0 -0.85579,-0.09169 -1.24294,-0.27508c-0.38714,-0.18338 -0.71995,-0.43808 -0.99843,-0.7641c-0.27168,-0.32602 -0.46865,-0.70297 -0.59091,-1.13087l1.40595,-0.37696c0.06113,0.23093 0.1664,0.43469 0.31583,0.61128c0.14942,0.1698 0.32602,0.30224 0.52978,0.39733c0.21055,0.0883 0.4245,0.13244 0.64185,0.13244c0.28526,0 0.54336,-0.06792 0.77429,-0.20376c0.23772,-0.14263 0.4245,-0.32941 0.56034,-0.56034c0.14263,-0.23093 0.21395,-0.48902 0.21395,-0.77429c0,-0.28526 -0.07132,-0.54336 -0.21395,-0.77429c-0.14263,-0.23093 -0.33281,-0.41431 -0.57053,-0.55015c-0.23093,-0.13584 -0.48563,-0.20376 -0.7641,-0.20376c-0.3396,0 -0.62147,0.06113 -0.84561,0.18338c-0.21734,0.11546 -0.38375,0.24451 -0.49921,0.38714l-1.25313,-0.40752l0.26489,-4.63555h4.75781v1.37538h-3.97333l0.55015,-0.51959l-0.19357,3.2296l-0.26489,-0.32602c0.22414,-0.21055 0.48563,-0.36677 0.78448,-0.46865c0.29885,-0.10188 0.59091,-0.15282 0.87617,-0.15282c0.54336,0 1.02559,0.12565 1.4467,0.37696c0.4279,0.2513 0.76071,0.59091 0.99843,1.0188c0.24451,0.4279 0.36677,0.91692 0.36677,1.46707c0,0.55015 -0.14263,1.04597 -0.4279,1.48745c-0.28526,0.44148 -0.65883,0.79467 -1.12068,1.05955c-0.46186,0.26489 -0.97126,0.39733 -1.5282,0.39733zM258.61469,184.56422c-0.62487,0 -1.17502,-0.13244 -1.65046,-0.39733c-0.46865,-0.26489 -0.83542,-0.63505 -1.10031,-1.11049c-0.26489,-0.47544 -0.39733,-1.0222 -0.39733,-1.64027v-2.82208c0,-0.62487 0.13244,-1.17162 0.39733,-1.64027c0.26489,-0.47544 0.63166,-0.84561 1.10031,-1.11049c0.47544,-0.27168 1.02559,-0.40752 1.65046,-0.40752c0.61807,0 1.16143,0.13584 1.63008,0.40752c0.47544,0.26489 0.84561,0.63505 1.11049,1.11049c0.27168,0.46865 0.40752,1.01541 0.40752,1.64027v2.82208c0,0.61807 -0.13584,1.16483 -0.40752,1.64027c-0.26489,0.47544 -0.63505,0.84561 -1.11049,1.11049c-0.46865,0.26489 -1.01201,0.39733 -1.63008,0.39733zM258.61469,183.16846c0.30564,0 0.58411,-0.07132 0.83542,-0.21395c0.2513,-0.14942 0.44827,-0.34979 0.59091,-0.60109c0.14942,-0.2513 0.22414,-0.52978 0.22414,-0.83542v-3.03603c0,-0.31243 -0.07471,-0.59091 -0.22414,-0.83542c-0.14263,-0.2513 -0.3396,-0.45167 -0.59091,-0.60109c-0.2513,-0.14942 -0.52978,-0.22414 -0.83542,-0.22414c-0.31243,0 -0.5943,0.07471 -0.84561,0.22414c-0.2513,0.14942 -0.45167,0.34979 -0.60109,0.60109c-0.14263,0.24451 -0.21395,0.52299 -0.21395,0.83542v3.03603c0,0.30564 0.07132,0.58411 0.21395,0.83542c0.14942,0.2513 0.34979,0.45167 0.60109,0.60109c0.2513,0.14263 0.53317,0.21395 0.84561,0.21395zM266.61893,184.56422c-0.62487,0 -1.17502,-0.13244 -1.65046,-0.39733c-0.46865,-0.26489 -0.83542,-0.63505 -1.10031,-1.11049c-0.26489,-0.47544 -0.39733,-1.0222 -0.39733,-1.64027v-2.82208c0,-0.62487 0.13244,-1.17162 0.39733,-1.64027c0.26489,-0.47544 0.63166,-0.84561 1.10031,-1.11049c0.47544,-0.27168 1.02559,-0.40752 1.65046,-0.40752c0.61807,0 1.16143,0.13584 1.63008,0.40752c0.47544,0.26489 0.84561,0.63505 1.11049,1.11049c0.27168,0.46865 0.40752,1.01541 0.40752,1.64027v2.82208c0,0.61807 -0.13584,1.16483 -0.40752,1.64027c-0.26489,0.47544 -0.63505,0.84561 -1.11049,1.11049c-0.46865,0.26489 -1.01201,0.39733 -1.63008,0.39733zM266.61893,183.16846c0.30564,0 0.58411,-0.07132 0.83542,-0.21395c0.2513,-0.14942 0.44827,-0.34979 0.59091,-0.60109c0.14942,-0.2513 0.22414,-0.52978 0.22414,-0.83542v-3.03603c0,-0.31243 -0.07471,-0.59091 -0.22414,-0.83542c-0.14263,-0.2513 -0.3396,-0.45167 -0.59091,-0.60109c-0.2513,-0.14942 -0.52978,-0.22414 -0.83542,-0.22414c-0.31243,0 -0.5943,0.07471 -0.84561,0.22414c-0.2513,0.14942 -0.45167,0.34979 -0.60109,0.60109c-0.14263,0.24451 -0.21395,0.52299 -0.21395,0.83542v3.03603c0,0.30564 0.07132,0.58411 0.21395,0.83542c0.14942,0.2513 0.34979,0.45167 0.60109,0.60109c0.2513,0.14263 0.53317,0.21395 0.84561,0.21395z" fill="#ffffff" stroke="#ffffff" stroke-width="0.25" stroke-linecap="square"/><path d="M142.5,277.5v-195h195v195z" fill="none" stroke="none" stroke-width="0" stroke-linecap="butt"/></g></g></svg>