<svg version="1.1" xmlns="http://www.w3.org/2000/svg" xmlns:xlink="http://www.w3.org/1999/xlink" width="272" height="289" viewBox="0,0,272,289"><g transform="translate(-104,-35.5)"><g data-paper-data="{&quot;isPaintingLayer&quot;:true}" fill-rule="nonzero" stroke-linejoin="miter" stroke-miterlimit="10" stroke-dasharray="" stroke-dashoffset="0" style="mix-blend-mode: normal"><path d="M104,324.5v-289h272v289z" fill="none" stroke="none" stroke-width="0" stroke-linecap="butt"/><path d="M213.19084,184.17969c-1.14316,0 -2.12479,-0.25162 -2.94489,-0.75486c-0.81388,-0.50324 -1.44138,-1.20219 -1.88249,-2.09683c-0.4349,-0.89464 -0.65235,-1.9322 -0.65235,-3.11263c0,-1.18044 0.21745,-2.21799 0.65235,-3.11263c0.44111,-0.90086 1.06861,-1.59981 1.88249,-2.09683c0.82009,-0.50324 1.80172,-0.75486 2.94489,-0.75486c1.14316,0 2.12479,0.25162 2.94489,0.75486c0.82009,0.49702 1.44759,1.19597 1.88249,2.09683c0.4349,0.89464 0.65235,1.9322 0.65235,3.11263c0,1.18044 -0.21745,2.21799 -0.65235,3.11263c-0.4349,0.89464 -1.06239,1.59359 -1.88249,2.09683c-0.82009,0.50324 -1.80172,0.75486 -2.94489,0.75486zM213.19084,182.37175c0.77039,0.00622 1.41031,-0.16153 1.91977,-0.50324c0.50945,-0.34792 0.89155,-0.83252 1.14627,-1.4538c0.26094,-0.62749 0.39141,-1.36061 0.39141,-2.19934c0,-0.83874 -0.13047,-1.56563 -0.39141,-2.18071c-0.25472,-0.62129 -0.63682,-1.10278 -1.14627,-1.44449c-0.50945,-0.34792 -1.14938,-0.52498 -1.91977,-0.5312c-0.77039,-0.00622 -1.41031,0.16464 -1.91977,0.51256c-0.50945,0.3417 -0.89155,0.82631 -1.14627,1.4538c-0.25472,0.62129 -0.38209,1.35129 -0.38209,2.19003c0,0.83874 0.12736,1.56563 0.38209,2.18071c0.25472,0.61507 0.63682,1.09657 1.14627,1.44449c0.50945,0.3417 1.14938,0.51878 1.91977,0.5312zM223.98853,184.17969c-0.88222,0 -1.63709,-0.19882 -2.26458,-0.59644c-0.62129,-0.39762 -1.09968,-0.93814 -1.43516,-1.62155c-0.32928,-0.68341 -0.49702,-1.45691 -0.50324,-2.3205c0.00622,-0.87601 0.18017,-1.65262 0.52187,-2.32982c0.3417,-0.68341 0.82631,-1.22082 1.4538,-1.61224c0.63371,-0.39141 1.38546,-0.58711 2.25526,-0.58711c0.97541,0 1.79862,0.24541 2.4696,0.73622c0.6772,0.49082 1.12142,1.1587 1.33265,2.00364l-1.91045,0.52187c-0.1491,-0.45975 -0.39762,-0.81699 -0.74554,-1.07172c-0.3417,-0.26094 -0.73311,-0.39141 -1.17423,-0.39141c-0.49702,0 -0.90708,0.11805 -1.23014,0.35413c-0.32307,0.23609 -0.56226,0.56226 -0.71758,0.97852c-0.1491,0.41005 -0.22367,0.87601 -0.22367,1.39789c0,0.82009 0.18017,1.48176 0.54052,1.98501c0.36656,0.50324 0.91018,0.75486 1.63087,0.75486c0.50945,0 0.91018,-0.11494 1.20219,-0.34481c0.29822,-0.23609 0.52187,-0.57468 0.67099,-1.0158l1.95705,0.43801c-0.26715,0.87601 -0.73311,1.55011 -1.39789,2.02228c-0.65856,0.46597 -1.46934,0.69895 -2.43233,0.69895zM234.44286,183.93739c-0.56537,0.10562 -1.12142,0.15221 -1.66814,0.13979c-0.54052,-0.01243 -1.02512,-0.11183 -1.4538,-0.29822c-0.42869,-0.1926 -0.75486,-0.49082 -0.97852,-0.89464c-0.1926,-0.37277 -0.29511,-0.75176 -0.30753,-1.13695c-0.01243,-0.39141 -0.01864,-0.82942 -0.01864,-1.31402v-7.46473h1.91045v7.3529c0,0.3417 0.00311,0.64303 0.00932,0.90397c0.01243,0.26094 0.06834,0.47217 0.16775,0.63371c0.18639,0.32307 0.48771,0.50324 0.90397,0.54052c0.42247,0.03107 0.90086,0.00932 1.43516,-0.06524zM228.4599,176.85475v-1.5004h5.98297v1.5004zM239.65011,184.17969c-0.85737,0 -1.60602,-0.1926 -2.24594,-0.57779c-0.63992,-0.39141 -1.13695,-0.92571 -1.49108,-1.60291c-0.35413,-0.68341 -0.5312,-1.46934 -0.5312,-2.35778c0,-0.90086 0.18017,-1.6899 0.54052,-2.36709c0.36034,-0.6772 0.86048,-1.20529 1.5004,-1.58428c0.64614,-0.3852 1.38857,-0.57779 2.2273,-0.57779c0.86359,0 1.61533,0.19571 2.25526,0.58711c0.64614,0.3852 1.14627,0.91951 1.5004,1.60291c0.35413,0.6772 0.5312,1.45691 0.5312,2.33913c0,0.89464 -0.18017,1.68368 -0.54052,2.36709c-0.35413,0.6772 -0.85427,1.2084 -1.5004,1.59359c-0.63992,0.3852 -1.38857,0.57779 -2.24594,0.57779zM239.65011,182.38107c0.76418,0 1.33265,-0.25472 1.70542,-0.76418c0.37277,-0.50945 0.55916,-1.16801 0.55916,-1.97568c0,-0.83252 -0.18949,-1.49419 -0.56848,-1.98501c-0.37899,-0.49702 -0.94436,-0.74554 -1.6961,-0.74554c-0.50945,0 -0.93193,0.11494 -1.26742,0.34481c-0.32928,0.22987 -0.57468,0.54983 -0.73622,0.95988c-0.15532,0.41005 -0.23298,0.88533 -0.23298,1.42585c0,0.83252 0.18949,1.4973 0.56848,1.99432c0.37899,0.49702 0.93503,0.74554 1.66814,0.74554zM249.81094,184.17969c-0.83874,0 -1.54078,-0.19882 -2.10615,-0.59644c-0.56537,-0.39762 -0.99095,-0.93814 -1.27674,-1.62155c-0.28579,-0.68962 -0.42869,-1.46312 -0.42869,-2.3205c0,-0.86359 0.1429,-1.63709 0.42869,-2.3205c0.28579,-0.68341 0.70516,-1.22082 1.2581,-1.61224c0.55294,-0.39762 1.23636,-0.59644 2.05024,-0.59644c0.81388,0 1.51904,0.19882 2.11548,0.59644c0.59644,0.39141 1.05929,0.92882 1.38857,1.61224c0.32928,0.6772 0.49392,1.4507 0.49392,2.3205c0,0.86359 -0.16153,1.63709 -0.4846,2.3205c-0.32307,0.68341 -0.77971,1.22393 -1.36994,1.62155c-0.59022,0.39762 -1.27985,0.59644 -2.06887,0.59644zM245.6732,187.74896v-12.39462h1.68679v6.02024h0.2423v6.37438zM249.52205,182.45563c0.49702,0 0.90708,-0.12425 1.23014,-0.37277c0.32307,-0.24852 0.56226,-0.58401 0.71758,-1.00648c0.15532,-0.42869 0.23298,-0.90708 0.23298,-1.43516c0,-0.51567 -0.08077,-0.98784 -0.2423,-1.41653c-0.15532,-0.42869 -0.40073,-0.76728 -0.73622,-1.0158c-0.33549,-0.25472 -0.75797,-0.38209 -1.26742,-0.38209c-0.49082,0 -0.89155,0.11805 -1.20219,0.35413c-0.30443,0.23609 -0.5312,0.56537 -0.6803,0.98784c-0.1429,0.42247 -0.21434,0.91329 -0.21434,1.47245c0,0.55916 0.07144,1.04997 0.21434,1.47245c0.1491,0.42247 0.38209,0.75176 0.69895,0.98784c0.31685,0.23609 0.73311,0.35413 1.24878,0.35413zM258.70051,184.17969c-0.63371,0 -1.1587,-0.10562 -1.57496,-0.31685c-0.41626,-0.21124 -0.74554,-0.4815 -0.98784,-0.81078c-0.2423,-0.32928 -0.42247,-0.6772 -0.54052,-1.04376c-0.11805,-0.37277 -0.19571,-0.7238 -0.23298,-1.05307c-0.03107,-0.33549 -0.04659,-0.60575 -0.04659,-0.81078v-4.7901h1.9384v4.12843c0,0.26715 0.01864,0.56848 0.05592,0.90397c0.03728,0.32928 0.12425,0.64614 0.26094,0.95056c0.13668,0.30443 0.3386,0.55605 0.60575,0.75486c0.26715,0.1926 0.62749,0.2889 1.08103,0.2889c0.24852,0 0.49082,-0.04038 0.7269,-0.12115c0.23609,-0.08077 0.45043,-0.21745 0.64303,-0.41005c0.19882,-0.1926 0.35413,-0.45665 0.46597,-0.79213c0.11805,-0.3417 0.17706,-0.7735 0.17706,-1.29537l1.13695,0.4846c0,0.73311 -0.1429,1.39789 -0.42869,1.99432c-0.27958,0.59022 -0.69584,1.06239 -1.24878,1.41653c-0.54673,0.34792 -1.22393,0.52187 -2.0316,0.52187zM261.50561,183.93739v-2.66531h-0.23298v-5.91773h1.92909v8.58304zM268.73826,184.17969c-1.05618,0 -1.91666,-0.23919 -2.58143,-0.71758c-0.66477,-0.47839 -1.06861,-1.14938 -1.21151,-2.01296l1.95705,-0.29822c0.0994,0.42247 0.31996,0.75486 0.66167,0.99716c0.34792,0.2423 0.78593,0.36345 1.31402,0.36345c0.45975,0 0.81388,-0.09009 1.06239,-0.27026c0.25472,-0.18639 0.38209,-0.43801 0.38209,-0.75486c0,-0.1926 -0.04659,-0.34792 -0.13979,-0.46597c-0.0932,-0.12425 -0.29822,-0.23919 -0.61507,-0.34481c-0.31064,-0.11183 -0.78903,-0.25472 -1.43516,-0.42869c-0.72069,-0.18639 -1.29228,-0.3883 -1.71475,-0.60575c-0.42247,-0.22367 -0.7269,-0.48771 -0.91329,-0.79213c-0.18639,-0.30443 -0.27958,-0.67099 -0.27958,-1.09968c0,-0.5343 0.13979,-1.00026 0.41936,-1.39789c0.28579,-0.39762 0.6803,-0.70205 1.18355,-0.91329c0.50324,-0.21745 1.09657,-0.32618 1.77998,-0.32618c0.66477,0 1.25499,0.10562 1.77066,0.31685c0.51567,0.20502 0.93193,0.50013 1.24878,0.88533c0.32307,0.37899 0.52187,0.8232 0.59644,1.33265l-1.95705,0.35413c-0.0497,-0.36656 -0.21745,-0.65545 -0.50324,-0.86669c-0.27958,-0.21124 -0.65545,-0.33239 -1.12763,-0.36345c-0.44732,-0.02485 -0.81078,0.04349 -1.09035,0.20502c-0.27337,0.16153 -0.41005,0.3883 -0.41005,0.6803c0,0.16775 0.05592,0.31064 0.16775,0.42869c0.11183,0.11183 0.33549,0.22676 0.67099,0.34481c0.33549,0.11805 0.83563,0.26094 1.5004,0.42869c0.68341,0.17396 1.23014,0.37588 1.64019,0.60575c0.41626,0.22367 0.71447,0.49082 0.89464,0.80146c0.18639,0.31064 0.27958,0.68962 0.27958,1.13695c0,0.86359 -0.31685,1.54389 -0.95056,2.04091c-0.62749,0.49082 -1.49419,0.73622 -2.60007,0.73622z" fill="#ffffff" stroke="#ffffff" stroke-width="0.25" stroke-linecap="square"/><path d="M160.86231,202.26887v-8.51099h5.11649v1.4251h-3.70129v2.12775h2.99864v1.4152h-2.99864v3.54295zM167.16697,194.91576v-1.30634h1.4152v1.30634zM167.16697,202.26887v-6.38324h1.4152v6.38324zM170.36272,202.26887v-6.38324h1.25686v1.55375l-0.15834,-0.19793c0.07917,-0.21113 0.18473,-0.40246 0.31669,-0.574c0.13195,-0.17814 0.2903,-0.32658 0.47503,-0.44534c0.15834,-0.10556 0.33318,-0.18803 0.52451,-0.24741c0.19133,-0.05938 0.38596,-0.09567 0.58389,-0.10886c0.20453,-0.01979 0.40246,-0.0132 0.59379,0.01979v1.33603c-0.19133,-0.05938 -0.41235,-0.07917 -0.66307,-0.05938c-0.24411,0.01979 -0.46514,0.08907 -0.66307,0.20783c-0.19133,0.10556 -0.34968,0.24081 -0.47503,0.40576c-0.12536,0.16494 -0.21772,0.35298 -0.2771,0.5641c-0.05938,0.21113 -0.08907,0.43874 -0.08907,0.68286v3.24605zM177.85892,202.447c-0.64657,0 -1.21397,-0.13855 -1.7022,-0.41565c-0.48823,-0.2837 -0.87089,-0.67296 -1.14799,-1.16779c-0.2705,-0.49483 -0.40576,-1.06552 -0.40576,-1.7121c0,-0.69935 0.13195,-1.30634 0.39586,-1.82096c0.2705,-0.51462 0.64327,-0.91378 1.1183,-1.19748c0.47503,-0.2837 1.02594,-0.42555 1.65272,-0.42555c0.66636,0 1.23047,0.15505 1.6923,0.46514c0.46184,0.31009 0.80492,0.74884 1.02924,1.31623c0.22432,0.5608 0.31009,1.22387 0.25731,1.9892h-1.4152v-0.52451c-0.0066,-0.69276 -0.12865,-1.19748 -0.36617,-1.51417c-0.23752,-0.32329 -0.61688,-0.48493 -1.1381,-0.48493c-0.58059,0 -1.01274,0.18144 -1.29644,0.54431c-0.2837,0.36287 -0.42555,0.89069 -0.42555,1.58344c0,0.64657 0.14185,1.14799 0.42555,1.50427c0.2837,0.34968 0.69605,0.52451 1.23706,0.52451c0.34968,0 0.64987,-0.07587 0.90058,-0.22762c0.25731,-0.15834 0.45524,-0.38596 0.59379,-0.68286l1.4053,0.42555c-0.24411,0.574 -0.62018,1.02264 -1.1282,1.34592c-0.50802,0.31669 -1.06882,0.47503 -1.68241,0.47503zM175.6619,199.47805v-1.07872h4.38415v1.07872zM184.53697,202.447c-0.79172,0 -1.43499,-0.17814 -1.92982,-0.53441c-0.48823,-0.35627 -0.78512,-0.8544 -0.89069,-1.49437l1.45479,-0.22762c0.07257,0.31669 0.23752,0.5674 0.49483,0.75213c0.25731,0.17814 0.58059,0.26721 0.96986,0.26721c0.34308,0 0.60699,-0.06598 0.79172,-0.19793c0.18473,-0.13855 0.2771,-0.32658 0.2771,-0.5641c0,-0.14515 -0.03629,-0.26061 -0.10886,-0.34638c-0.06598,-0.09237 -0.21442,-0.17814 -0.44534,-0.25731c-0.23092,-0.08577 -0.58719,-0.19133 -1.06882,-0.31669c-0.53441,-0.14515 -0.95996,-0.2969 -1.27665,-0.45524c-0.31669,-0.16494 -0.54431,-0.35957 -0.68286,-0.58389c-0.13195,-0.22432 -0.19793,-0.49483 -0.19793,-0.81151c0,-0.40246 0.10226,-0.74884 0.30679,-1.03913c0.21113,-0.2969 0.50142,-0.52451 0.87089,-0.68286c0.37607,-0.16494 0.81811,-0.24741 1.32613,-0.24741c0.50142,0 0.94347,0.07917 1.32613,0.23752c0.38266,0.15175 0.69276,0.36947 0.93027,0.65317c0.23752,0.2837 0.38266,0.61688 0.43545,0.99955l-1.45479,0.25731c-0.03299,-0.2705 -0.15505,-0.48493 -0.36617,-0.64327c-0.21113,-0.15834 -0.49153,-0.24741 -0.8412,-0.26721c-0.33648,-0.01979 -0.60699,0.03299 -0.81151,0.15834c-0.20453,0.11876 -0.30679,0.2837 -0.30679,0.49483c0,0.12536 0.03959,0.23092 0.11876,0.31669c0.08577,0.08577 0.25401,0.17154 0.50472,0.25731c0.25071,0.08577 0.62348,0.19463 1.1183,0.32658c0.50802,0.12536 0.91378,0.2738 1.21727,0.44534c0.31009,0.16494 0.53111,0.36287 0.66307,0.59379c0.13855,0.23092 0.20783,0.51462 0.20783,0.8511c0,0.63997 -0.23422,1.1447 -0.70265,1.51417c-0.46843,0.36287 -1.11171,0.54431 -1.92982,0.54431zM198.4945,202.26887v-3.87943c0,-0.43545 -0.10886,-0.77523 -0.32658,-1.01934c-0.21772,-0.25071 -0.51132,-0.37607 -0.88079,-0.37607c-0.23092,0 -0.43545,0.05278 -0.61358,0.15834c-0.17814,0.10556 -0.32329,0.26061 -0.43545,0.46514c-0.10556,0.20453 -0.15834,0.44534 -0.15834,0.72244l-0.63338,-0.37607c0,-0.43545 0.09897,-0.82141 0.2969,-1.15789c0.20453,-0.34308 0.47833,-0.60699 0.82141,-0.79172c0.34968,-0.19133 0.73894,-0.287 1.16779,-0.287c0.70595,0 1.24696,0.21113 1.62303,0.63338c0.37607,0.42225 0.5641,0.97975 0.5641,1.67251v4.2357zM190.81482,202.26887v-6.38324h1.26675v1.9793h0.16824v4.40394zM194.66456,202.26887v-3.85964c0,-0.44204 -0.10886,-0.78842 -0.32658,-1.03913c-0.21772,-0.25071 -0.51132,-0.37607 -0.88079,-0.37607c-0.36287,0 -0.65647,0.12536 -0.88079,0.37607c-0.21772,0.25071 -0.32658,0.574 -0.32658,0.96986l-0.63338,-0.42555c0,-0.41565 0.10226,-0.78842 0.30679,-1.1183c0.20453,-0.32988 0.48163,-0.59049 0.83131,-0.78182c0.34968,-0.19133 0.73894,-0.287 1.16779,-0.287c0.48163,0 0.88079,0.10226 1.19748,0.30679c0.32329,0.20453 0.5641,0.48163 0.72244,0.83131c0.15834,0.34308 0.23752,0.73564 0.23752,1.17768v4.22581zM201.57634,194.91576v-1.30634h1.4152v1.30634zM201.57634,202.26887v-6.38324h1.4152v6.38324zM207.23632,202.447c-0.79172,0 -1.43499,-0.17814 -1.92982,-0.53441c-0.48823,-0.35627 -0.78512,-0.8544 -0.89069,-1.49437l1.45479,-0.22762c0.07257,0.31669 0.23752,0.5674 0.49483,0.75213c0.25731,0.17814 0.58059,0.26721 0.96986,0.26721c0.34308,0 0.60699,-0.06598 0.79172,-0.19793c0.18473,-0.13855 0.2771,-0.32658 0.2771,-0.5641c0,-0.14515 -0.03629,-0.26061 -0.10886,-0.34638c-0.06598,-0.09237 -0.21442,-0.17814 -0.44534,-0.25731c-0.23092,-0.08577 -0.58719,-0.19133 -1.06882,-0.31669c-0.53441,-0.14515 -0.95996,-0.2969 -1.27665,-0.45524c-0.31669,-0.16494 -0.54431,-0.35957 -0.68286,-0.58389c-0.13195,-0.22432 -0.19793,-0.49483 -0.19793,-0.81151c0,-0.40246 0.10226,-0.74884 0.30679,-1.03913c0.21113,-0.2969 0.50142,-0.52451 0.87089,-0.68286c0.37607,-0.16494 0.81811,-0.24741 1.32613,-0.24741c0.50142,0 0.94347,0.07917 1.32613,0.23752c0.38266,0.15175 0.69276,0.36947 0.93027,0.65317c0.23752,0.2837 0.38266,0.61688 0.43545,0.99955l-1.45479,0.25731c-0.03299,-0.2705 -0.15505,-0.48493 -0.36617,-0.64327c-0.21113,-0.15834 -0.49153,-0.24741 -0.8412,-0.26721c-0.33648,-0.01979 -0.60699,0.03299 -0.81151,0.15834c-0.20453,0.11876 -0.30679,0.2837 -0.30679,0.49483c0,0.12536 0.03959,0.23092 0.11876,0.31669c0.08577,0.08577 0.25401,0.17154 0.50472,0.25731c0.25071,0.08577 0.62348,0.19463 1.1183,0.32658c0.50802,0.12536 0.91378,0.2738 1.21727,0.44534c0.31009,0.16494 0.53111,0.36287 0.66307,0.59379c0.13855,0.23092 0.20783,0.51462 0.20783,0.8511c0,0.63997 -0.23422,1.1447 -0.70265,1.51417c-0.46843,0.36287 -1.11171,0.54431 -1.92982,0.54431zM213.63492,202.447c-0.79172,0 -1.43499,-0.17814 -1.92982,-0.53441c-0.48823,-0.35627 -0.78512,-0.8544 -0.89069,-1.49437l1.45479,-0.22762c0.07257,0.31669 0.23752,0.5674 0.49483,0.75213c0.25731,0.17814 0.58059,0.26721 0.96986,0.26721c0.34308,0 0.60699,-0.06598 0.79172,-0.19793c0.18473,-0.13855 0.2771,-0.32658 0.2771,-0.5641c0,-0.14515 -0.03629,-0.26061 -0.10886,-0.34638c-0.06598,-0.09237 -0.21442,-0.17814 -0.44534,-0.25731c-0.23092,-0.08577 -0.58719,-0.19133 -1.06882,-0.31669c-0.53441,-0.14515 -0.95996,-0.2969 -1.27665,-0.45524c-0.31669,-0.16494 -0.54431,-0.35957 -0.68286,-0.58389c-0.13195,-0.22432 -0.19793,-0.49483 -0.19793,-0.81151c0,-0.40246 0.10226,-0.74884 0.30679,-1.03913c0.21113,-0.2969 0.50142,-0.52451 0.87089,-0.68286c0.37607,-0.16494 0.81811,-0.24741 1.32613,-0.24741c0.50142,0 0.94347,0.07917 1.32613,0.23752c0.38266,0.15175 0.69276,0.36947 0.93027,0.65317c0.23752,0.2837 0.38266,0.61688 0.43545,0.99955l-1.45479,0.25731c-0.03299,-0.2705 -0.15505,-0.48493 -0.36617,-0.64327c-0.21113,-0.15834 -0.49153,-0.24741 -0.8412,-0.26721c-0.33648,-0.01979 -0.60699,0.03299 -0.81151,0.15834c-0.20453,0.11876 -0.30679,0.2837 -0.30679,0.49483c0,0.12536 0.03959,0.23092 0.11876,0.31669c0.08577,0.08577 0.25401,0.17154 0.50472,0.25731c0.25071,0.08577 0.62348,0.19463 1.1183,0.32658c0.50802,0.12536 0.91378,0.2738 1.21727,0.44534c0.31009,0.16494 0.53111,0.36287 0.66307,0.59379c0.13855,0.23092 0.20783,0.51462 0.20783,0.8511c0,0.63997 -0.23422,1.1447 -0.70265,1.51417c-0.46843,0.36287 -1.11171,0.54431 -1.92982,0.54431zM217.68804,194.91576v-1.30634h1.4152v1.30634zM217.68804,202.26887v-6.38324h1.4152v6.38324zM221.00253,202.26887v-8.68913h1.4152v8.68913zM227.09797,202.447c-0.64657,0 -1.21397,-0.13855 -1.7022,-0.41565c-0.48823,-0.2837 -0.87089,-0.67296 -1.14799,-1.16779c-0.2705,-0.49483 -0.40576,-1.06552 -0.40576,-1.7121c0,-0.69935 0.13195,-1.30634 0.39586,-1.82096c0.2705,-0.51462 0.64327,-0.91378 1.1183,-1.19748c0.47503,-0.2837 1.02594,-0.42555 1.65272,-0.42555c0.66636,0 1.23047,0.15505 1.6923,0.46514c0.46184,0.31009 0.80492,0.74884 1.02924,1.31623c0.22432,0.5608 0.31009,1.22387 0.25731,1.9892h-1.4152v-0.52451c-0.0066,-0.69276 -0.12865,-1.19748 -0.36617,-1.51417c-0.23752,-0.32329 -0.61688,-0.48493 -1.1381,-0.48493c-0.58059,0 -1.01274,0.18144 -1.29644,0.54431c-0.2837,0.36287 -0.42555,0.89069 -0.42555,1.58344c0,0.64657 0.14185,1.14799 0.42555,1.50427c0.2837,0.34968 0.69605,0.52451 1.23706,0.52451c0.34968,0 0.64987,-0.07587 0.90058,-0.22762c0.25731,-0.15834 0.45524,-0.38596 0.59379,-0.68286l1.4053,0.42555c-0.24411,0.574 -0.62018,1.02264 -1.1282,1.34592c-0.50802,0.31669 -1.06882,0.47503 -1.68241,0.47503zM224.90094,199.47805v-1.07872h4.38415v1.07872zM233.77602,202.447c-0.79173,0 -1.43501,-0.17814 -1.92984,-0.53441c-0.48823,-0.35627 -0.78512,-0.8544 -0.89069,-1.49437l1.45479,-0.22762c0.07257,0.31669 0.23752,0.5674 0.49484,0.75213c0.25731,0.17814 0.58059,0.26721 0.96986,0.26721c0.34308,0 0.60699,-0.06598 0.79172,-0.19793c0.18473,-0.13855 0.2771,-0.32658 0.2771,-0.5641c0,-0.14515 -0.03629,-0.26061 -0.10886,-0.34638c-0.06598,-0.09237 -0.21442,-0.17814 -0.44534,-0.25731c-0.23092,-0.08577 -0.58719,-0.19133 -1.06882,-0.31669c-0.53442,-0.14515 -0.95998,-0.2969 -1.27667,-0.45524c-0.31669,-0.16494 -0.54431,-0.35957 -0.68286,-0.58389c-0.13195,-0.22432 -0.19793,-0.49483 -0.19793,-0.81151c0,-0.40246 0.10226,-0.74884 0.30679,-1.03913c0.21113,-0.2969 0.50142,-0.52451 0.87089,-0.68286c0.37608,-0.16494 0.81813,-0.24741 1.32615,-0.24741c0.50142,0 0.94347,0.07917 1.32613,0.23752c0.38266,0.15175 0.69276,0.36947 0.93027,0.65317c0.23752,0.2837 0.38266,0.61688 0.43545,0.99955l-1.45479,0.25731c-0.03299,-0.2705 -0.15505,-0.48493 -0.36617,-0.64327c-0.21113,-0.15834 -0.49153,-0.24741 -0.8412,-0.26721c-0.33648,-0.01979 -0.60699,0.03299 -0.81151,0.15834c-0.20454,0.11876 -0.30681,0.2837 -0.30681,0.49483c0,0.12536 0.03959,0.23092 0.11878,0.31669c0.08577,0.08577 0.25401,0.17154 0.50472,0.25731c0.25071,0.08577 0.62348,0.19463 1.1183,0.32658c0.50802,0.12536 0.91378,0.2738 1.21727,0.44534c0.31009,0.16494 0.53111,0.36287 0.66307,0.59379c0.13855,0.23092 0.20783,0.51462 0.20783,0.8511c0,0.63997 -0.23422,1.1447 -0.70265,1.51417c-0.46843,0.36287 -1.11171,0.54431 -1.92982,0.54431zM241.42946,202.26887l-1.94961,-6.39314l1.39541,0.0099l1.24696,4.09715l1.25686,-4.09715h1.20737l1.25686,4.09715l1.24696,-4.09715h1.39541l-1.94961,6.38324h-1.10841l-1.44489,-4.39405l-1.44489,4.39405zM253.97018,202.26887v-3.06792c0,-0.20453 -0.01649,-0.42885 -0.04948,-0.67296c-0.02639,-0.24411 -0.08907,-0.47833 -0.18803,-0.70265c-0.09897,-0.23092 -0.25071,-0.41895 -0.45524,-0.5641c-0.19793,-0.14515 -0.46514,-0.21772 -0.80162,-0.21772c-0.17814,0 -0.35627,0.02969 -0.53441,0.08907c-0.17814,0.05938 -0.33978,0.16164 -0.48493,0.30679c-0.14515,0.14515 -0.26061,0.34308 -0.34638,0.59379c-0.08577,0.25071 -0.12865,0.5707 -0.12865,0.95996l-0.8412,-0.36617c0,-0.54101 0.10556,-1.03254 0.31669,-1.47458c0.21113,-0.44204 0.52122,-0.79172 0.93027,-1.04903c0.40906,-0.26391 0.91048,-0.39586 1.50427,-0.39586c0.47503,0 0.86429,0.07917 1.16779,0.23752c0.31009,0.15175 0.5542,0.35298 0.73234,0.60369c0.18473,0.24411 0.31999,0.50472 0.40576,0.78182c0.08577,0.2705 0.14185,0.53111 0.16824,0.78182c0.02639,0.24411 0.03959,0.44204 0.03959,0.59379v3.56274zM249.53655,202.26887v-8.51099h1.27665v4.48312h0.16824v4.02788zM259.8472,202.447c-0.64657,0 -1.21397,-0.13855 -1.7022,-0.41565c-0.48823,-0.2837 -0.87089,-0.67296 -1.14799,-1.16779c-0.2705,-0.49483 -0.40576,-1.06552 -0.40576,-1.7121c0,-0.69935 0.13195,-1.30634 0.39586,-1.82096c0.2705,-0.51462 0.64327,-0.91378 1.1183,-1.19748c0.47503,-0.2837 1.02594,-0.42555 1.65272,-0.42555c0.66636,0 1.23047,0.15505 1.6923,0.46514c0.46184,0.31009 0.80492,0.74884 1.02924,1.31623c0.22432,0.5608 0.31009,1.22387 0.25731,1.9892h-1.4152v-0.52451c-0.0066,-0.69276 -0.12865,-1.19748 -0.36617,-1.51417c-0.23752,-0.32329 -0.61688,-0.48493 -1.1381,-0.48493c-0.58059,0 -1.01274,0.18144 -1.29644,0.54431c-0.2837,0.36287 -0.42555,0.89069 -0.42555,1.58344c0,0.64657 0.14185,1.14799 0.42555,1.50427c0.2837,0.34968 0.69605,0.52451 1.23706,0.52451c0.34968,0 0.64987,-0.07587 0.90058,-0.22762c0.25731,-0.15834 0.45524,-0.38596 0.59379,-0.68286l1.4053,0.42555c-0.24411,0.574 -0.62018,1.02264 -1.1282,1.34592c-0.50802,0.31669 -1.06882,0.47503 -1.68241,0.47503zM257.65018,199.47805v-1.07872h4.38415v1.07872zM268.2975,202.26887v-3.06792c0,-0.20453 -0.01649,-0.42885 -0.04948,-0.67296c-0.02639,-0.24411 -0.08907,-0.47833 -0.18803,-0.70265c-0.09897,-0.23092 -0.25071,-0.41895 -0.45524,-0.5641c-0.19793,-0.14515 -0.46514,-0.21772 -0.80162,-0.21772c-0.17814,0 -0.35627,0.02969 -0.53441,0.08907c-0.17814,0.05938 -0.33978,0.16164 -0.48493,0.30679c-0.14515,0.14515 -0.26061,0.34308 -0.34638,0.59379c-0.08577,0.25071 -0.12865,0.5707 -0.12865,0.95996l-0.8412,-0.36617c0,-0.54101 0.10556,-1.03254 0.31669,-1.47458c0.21113,-0.44204 0.52122,-0.79172 0.93027,-1.04903c0.40906,-0.26391 0.91048,-0.39586 1.50427,-0.39586c0.47503,0 0.86429,0.07917 1.16779,0.23752c0.31009,0.15175 0.5542,0.35298 0.73234,0.60369c0.18473,0.24411 0.31999,0.50472 0.40576,0.78182c0.08577,0.2705 0.14185,0.53111 0.16824,0.78182c0.02639,0.24411 0.03959,0.44204 0.03959,0.59379v3.56274zM263.86387,202.26887v-6.38324h1.27665v1.9793h0.16824v4.40394zM276.40911,202.447c-0.65977,0 -1.22387,-0.14515 -1.6923,-0.43545c-0.46184,-0.2969 -0.81811,-0.69935 -1.06882,-1.20737c-0.24411,-0.50802 -0.36617,-1.08202 -0.36617,-1.72199c0,-0.65317 0.12536,-1.23376 0.37607,-1.74178c0.25731,-0.50802 0.62018,-0.90718 1.08862,-1.19748c0.46843,-0.2903 1.02594,-0.43545 1.67251,-0.43545c0.72574,0 1.33933,0.18473 1.84075,0.5542c0.50142,0.36287 0.83131,0.8577 0.98965,1.48448l-1.4251,0.38596c-0.10556,-0.34308 -0.287,-0.61028 -0.54431,-0.80162c-0.25731,-0.19133 -0.54761,-0.287 -0.87089,-0.287c-0.37607,0 -0.68286,0.08907 -0.92037,0.26721c-0.23752,0.17154 -0.41565,0.41235 -0.53441,0.72244c-0.11216,0.31009 -0.16824,0.65977 -0.16824,1.04903c0,0.60699 0.13525,1.09851 0.40576,1.47458c0.2705,0.36947 0.67626,0.5542 1.21727,0.5542c0.37607,0 0.67296,-0.08577 0.89069,-0.25731c0.21772,-0.17814 0.38266,-0.42885 0.49483,-0.75213l1.45479,0.32658c-0.19793,0.64657 -0.54431,1.1447 -1.03913,1.49437c-0.48823,0.34968 -1.08862,0.52451 -1.80116,0.52451zM284.8523,202.26887v-3.06792c0,-0.20453 -0.01649,-0.42885 -0.04948,-0.67296c-0.02639,-0.24411 -0.08907,-0.47833 -0.18803,-0.70265c-0.09897,-0.23092 -0.25071,-0.41895 -0.45524,-0.5641c-0.19793,-0.14515 -0.46514,-0.21772 -0.80162,-0.21772c-0.17814,0 -0.35627,0.02969 -0.53441,0.08907c-0.17814,0.05938 -0.33978,0.16164 -0.48493,0.30679c-0.14515,0.14515 -0.26061,0.34308 -0.34638,0.59379c-0.08577,0.25071 -0.12865,0.5707 -0.12865,0.95996l-0.8412,-0.36617c0,-0.54101 0.10556,-1.03254 0.31669,-1.47458c0.21113,-0.44204 0.52122,-0.79172 0.93027,-1.04903c0.40906,-0.26391 0.91048,-0.39586 1.50427,-0.39586c0.47503,0 0.86429,0.07917 1.16779,0.23752c0.31009,0.15175 0.5542,0.35298 0.73234,0.60369c0.18473,0.24411 0.31999,0.50472 0.40576,0.78182c0.08577,0.2705 0.14185,0.53111 0.16824,0.78182c0.02639,0.24411 0.03959,0.44204 0.03959,0.59379v3.56274zM280.41867,202.26887v-8.51099h1.27665v4.48312h0.16824v4.02788zM289.61101,202.447c-0.46184,0 -0.8544,-0.08577 -1.17768,-0.25731c-0.31669,-0.17814 -0.5575,-0.41235 -0.72244,-0.70265c-0.15834,-0.2969 -0.23752,-0.62018 -0.23752,-0.96986c0,-0.30349 0.04948,-0.5773 0.14845,-0.82141c0.10556,-0.25071 0.26391,-0.46514 0.47503,-0.64327c0.21113,-0.17814 0.48823,-0.32658 0.83131,-0.44534c0.25071,-0.07917 0.54761,-0.15175 0.89069,-0.21772c0.34968,-0.06598 0.72574,-0.12865 1.1282,-0.18803c0.40246,-0.05938 0.82471,-0.12206 1.26675,-0.18803l-0.50472,0.287c0,-0.43545 -0.09897,-0.75873 -0.2969,-0.96986c-0.19793,-0.21113 -0.53771,-0.31669 -1.01934,-0.31669c-0.2837,0 -0.5608,0.06928 -0.83131,0.20783c-0.26391,0.13195 -0.45194,0.35957 -0.5641,0.68286l-1.29644,-0.40576c0.15834,-0.54101 0.45854,-0.97316 0.90058,-1.29644c0.44204,-0.32988 1.03913,-0.49483 1.79127,-0.49483c0.5674,0 1.06552,0.09237 1.49437,0.2771c0.43545,0.18473 0.75873,0.48823 0.96986,0.91048c0.11216,0.22432 0.17814,0.45524 0.19793,0.69276c0.02639,0.23092 0.03959,0.48493 0.03959,0.76203v3.91902h-1.24696v-1.38551l0.20783,0.22762c-0.2903,0.46184 -0.62678,0.80162 -1.00944,1.01934c-0.38266,0.21113 -0.861,0.31669 -1.43499,0.31669zM289.89801,201.3089c0.31669,0 0.59049,-0.05608 0.82141,-0.16824c0.23092,-0.11216 0.41235,-0.25071 0.54431,-0.41565c0.13855,-0.16494 0.23092,-0.32329 0.2771,-0.47503c0.07257,-0.17814 0.11216,-0.38266 0.11876,-0.61358c0.0132,-0.23752 0.01979,-0.42885 0.01979,-0.574l0.44534,0.12865c-0.42885,0.06598 -0.79832,0.12536 -1.10841,0.17814c-0.31009,0.05278 -0.574,0.10226 -0.79172,0.14845c-0.21772,0.03959 -0.41235,0.08907 -0.58389,0.14845c-0.16494,0.05938 -0.30679,0.12865 -0.42555,0.20783c-0.11216,0.07917 -0.19793,0.17154 -0.25731,0.2771c-0.05938,0.09897 -0.08907,0.21442 -0.08907,0.34638c0,0.15834 0.03959,0.30019 0.11876,0.42555c0.07917,0.11876 0.19463,0.21442 0.34638,0.287c0.15175,0.06598 0.33978,0.09897 0.5641,0.09897zM294.63588,202.26887v-6.38324h1.25686v1.55375l-0.15834,-0.19793c0.07917,-0.21113 0.18473,-0.40246 0.31669,-0.574c0.13195,-0.17814 0.2903,-0.32658 0.47503,-0.44534c0.15834,-0.10556 0.33318,-0.18803 0.52451,-0.24741c0.19133,-0.05938 0.38596,-0.09567 0.58389,-0.10886c0.20453,-0.01979 0.40246,-0.0132 0.59379,0.01979v1.33603c-0.19133,-0.05938 -0.41235,-0.07917 -0.66307,-0.05938c-0.24411,0.01979 -0.46514,0.08907 -0.66307,0.20783c-0.19133,0.10556 -0.34968,0.24081 -0.47503,0.40576c-0.12536,0.16494 -0.21772,0.35298 -0.2771,0.5641c-0.05938,0.21113 -0.08907,0.43874 -0.08907,0.68286v3.24605zM301.79616,205.2774c-0.35627,0 -0.69935,-0.05608 -1.02924,-0.16824c-0.32329,-0.10556 -0.61358,-0.26391 -0.87089,-0.47503c-0.25731,-0.20453 -0.46843,-0.45194 -0.63338,-0.74224l1.30634,-0.64327c0.12536,0.23092 0.2969,0.40246 0.51462,0.51462c0.22432,0.11216 0.46184,0.16824 0.71255,0.16824c0.2969,0 0.5608,-0.05278 0.79172,-0.15834c0.23092,-0.10556 0.40906,-0.26061 0.53441,-0.46514c0.13195,-0.19793 0.19463,-0.44864 0.18803,-0.75213v-1.82096h0.17814v-4.84929h1.24696v6.69004c0,0.16494 -0.0066,0.31999 -0.01979,0.46514c-0.0132,0.14515 -0.03629,0.2903 -0.06928,0.43545c-0.09237,0.40906 -0.2738,0.74554 -0.54431,1.00944c-0.2705,0.2705 -0.60369,0.46843 -0.99955,0.59379c-0.39586,0.13195 -0.83131,0.19793 -1.30634,0.19793zM301.6675,202.447c-0.58719,0 -1.09851,-0.14845 -1.53396,-0.44534c-0.43545,-0.2969 -0.77523,-0.69935 -1.01934,-1.20737c-0.23752,-0.50802 -0.35627,-1.07872 -0.35627,-1.7121c0,-0.64657 0.11876,-1.22387 0.35627,-1.73189c0.24411,-0.50802 0.58719,-0.90718 1.02924,-1.19748c0.44864,-0.2969 0.97316,-0.44534 1.57354,-0.44534c0.60699,0 1.11501,0.14845 1.52406,0.44534c0.41565,0.2903 0.72904,0.68946 0.94017,1.19748c0.21772,0.50802 0.32658,1.08532 0.32658,1.73189c0,0.63338 -0.10886,1.20407 -0.32658,1.7121c-0.21113,0.50802 -0.52781,0.91048 -0.95006,1.20737c-0.42225,0.2969 -0.94347,0.44534 -1.56365,0.44534zM301.88523,201.17035c0.38266,0 0.68946,-0.08577 0.92037,-0.25731c0.23752,-0.17814 0.40906,-0.42555 0.51462,-0.74224c0.11216,-0.31669 0.16824,-0.67956 0.16824,-1.08862c0,-0.42225 -0.05608,-0.78842 -0.16824,-1.09851c-0.10556,-0.31669 -0.2738,-0.5608 -0.50472,-0.73234c-0.22432,-0.17814 -0.51792,-0.26721 -0.88079,-0.26721c-0.38266,0 -0.69935,0.09567 -0.95006,0.287c-0.24411,0.18473 -0.42555,0.43545 -0.54431,0.75213c-0.11876,0.31669 -0.17814,0.66966 -0.17814,1.05893c0,0.38926 0.05608,0.74224 0.16824,1.05893c0.11876,0.31669 0.2969,0.5674 0.53441,0.75213c0.24411,0.18473 0.55091,0.2771 0.92037,0.2771zM309.2928,202.447c-0.64657,0 -1.21397,-0.13855 -1.7022,-0.41565c-0.48823,-0.2837 -0.87089,-0.67296 -1.14799,-1.16779c-0.2705,-0.49483 -0.40576,-1.06552 -0.40576,-1.7121c0,-0.69935 0.13195,-1.30634 0.39586,-1.82096c0.2705,-0.51462 0.64327,-0.91378 1.1183,-1.19748c0.47503,-0.2837 1.02594,-0.42555 1.65272,-0.42555c0.66636,0 1.23047,0.15505 1.6923,0.46514c0.46184,0.31009 0.80492,0.74884 1.02924,1.31623c0.22432,0.5608 0.31009,1.22387 0.25731,1.9892h-1.4152v-0.52451c-0.0066,-0.69276 -0.12865,-1.19748 -0.36617,-1.51417c-0.23752,-0.32329 -0.61688,-0.48493 -1.1381,-0.48493c-0.58059,0 -1.01274,0.18144 -1.29644,0.54431c-0.2837,0.36287 -0.42555,0.89069 -0.42555,1.58344c0,0.64657 0.14185,1.14799 0.42555,1.50427c0.2837,0.34968 0.69605,0.52451 1.23706,0.52451c0.34968,0 0.64987,-0.07587 0.90058,-0.22762c0.25731,-0.15834 0.45524,-0.38596 0.59379,-0.68286l1.4053,0.42555c-0.24411,0.574 -0.62018,1.02264 -1.1282,1.34592c-0.50802,0.31669 -1.06882,0.47503 -1.68241,0.47503zM307.09578,199.47805v-1.07872h4.38415v1.07872zM316.05988,202.447c-0.58719,0 -1.09851,-0.14845 -1.53396,-0.44534c-0.43545,-0.2969 -0.77523,-0.69935 -1.01934,-1.20737c-0.23752,-0.50802 -0.35627,-1.07872 -0.35627,-1.7121c0,-0.64657 0.11876,-1.22387 0.35627,-1.73189c0.24411,-0.50802 0.58719,-0.90718 1.02924,-1.19748c0.44864,-0.2969 0.97316,-0.44534 1.57354,-0.44534c0.60699,0 1.11501,0.14845 1.52406,0.44534c0.41565,0.2903 0.72904,0.68946 0.94017,1.19748c0.21772,0.50802 0.32658,1.08532 0.32658,1.73189c0,0.63338 -0.10886,1.20407 -0.32658,1.7121c-0.21113,0.50802 -0.52781,0.91048 -0.95006,1.20737c-0.42225,0.2969 -0.94347,0.44534 -1.56365,0.44534zM316.2776,201.17035c0.38266,0 0.68946,-0.08577 0.92037,-0.25731c0.23752,-0.17814 0.40906,-0.42555 0.51462,-0.74224c0.11216,-0.31669 0.16824,-0.67956 0.16824,-1.08862c0,-0.42225 -0.05608,-0.78842 -0.16824,-1.09851c-0.10556,-0.31669 -0.2738,-0.5608 -0.50472,-0.73234c-0.22432,-0.17814 -0.51792,-0.26721 -0.88079,-0.26721c-0.38266,0 -0.69935,0.09567 -0.95006,0.287c-0.24411,0.18473 -0.42555,0.43545 -0.54431,0.75213c-0.11876,0.31669 -0.17814,0.66966 -0.17814,1.05893c0,0.38926 0.05608,0.74224 0.16824,1.05893c0.11876,0.31669 0.2969,0.5674 0.53441,0.75213c0.24411,0.18473 0.55091,0.2771 0.92037,0.2771zM317.88084,202.26887v-4.48312h-0.17814v-4.02788h1.43499v8.51099z" fill="#ffffff" stroke="none" stroke-width="1" stroke-linecap="square"/></g></g></svg>