<svg version="1.1" xmlns="http://www.w3.org/2000/svg" xmlns:xlink="http://www.w3.org/1999/xlink" width="38.85251" height="31.00832" viewBox="0,0,38.85251,31.00832"><defs><linearGradient x1="244.15432" y1="180.41824" x2="244.15432" y2="182.89493" gradientUnits="userSpaceOnUse" id="color-1"><stop offset="0" stop-color="#1a5d00"/><stop offset="1" stop-color="#1a5d00" stop-opacity="0"/></linearGradient><linearGradient x1="243.9535" y1="172.31878" x2="243.9535" y2="169.84208" gradientUnits="userSpaceOnUse" id="color-2"><stop offset="0" stop-color="#1a5d00"/><stop offset="1" stop-color="#1a5d00" stop-opacity="0"/></linearGradient><linearGradient x1="237.25137" y1="175.96967" x2="240.61499" y2="175.96967" gradientUnits="userSpaceOnUse" id="color-3"><stop offset="0" stop-color="#000000" stop-opacity="0"/><stop offset="1" stop-color="#000000"/></linearGradient><linearGradient x1="226.65848" y1="175.83592" x2="228.16458" y2="175.83592" gradientUnits="userSpaceOnUse" id="color-4"><stop offset="0" stop-color="#222222"/><stop offset="1" stop-color="#222222" stop-opacity="0"/></linearGradient><linearGradient x1="267.70079" y1="151.33346" x2="244.91489" y2="191.02486" gradientUnits="userSpaceOnUse" id="color-5"><stop offset="0" stop-color="#c7c7c7"/><stop offset="1" stop-color="#c7c7c7" stop-opacity="0"/></linearGradient><linearGradient x1="269.56223" y1="199.19802" x2="230.08159" y2="176.04888" gradientUnits="userSpaceOnUse" id="color-6"><stop offset="0" stop-color="#c7c7c7"/><stop offset="1" stop-color="#c7c7c7" stop-opacity="0"/></linearGradient><linearGradient x1="-53.30986" y1="6.73417" x2="1568.20894" y2="1061.5192" gradientUnits="userSpaceOnUse" id="color-7"><stop offset="0" stop-color="#cacaca" stop-opacity="0"/><stop offset="1" stop-color="#cacaca"/></linearGradient><linearGradient x1="46.28796" y1="62.81227" x2="1127.7046" y2="766.26517" gradientUnits="userSpaceOnUse" id="color-8"><stop offset="0" stop-color="#cacaca" stop-opacity="0"/><stop offset="1" stop-color="#cacaca"/></linearGradient><linearGradient x1="220.13682" y1="200.00298" x2="245.09249" y2="161.63869" gradientUnits="userSpaceOnUse" id="color-9"><stop offset="0" stop-color="#c7c7c7"/><stop offset="1" stop-color="#c7c7c7" stop-opacity="0"/></linearGradient><linearGradient x1="221.04067" y1="151.76327" x2="259.17436" y2="177.06991" gradientUnits="userSpaceOnUse" id="color-10"><stop offset="0" stop-color="#c7c7c7"/><stop offset="1" stop-color="#c7c7c7" stop-opacity="0"/></linearGradient></defs><g transform="translate(-222.39372,-159.87272)"><g data-paper-data="{&quot;isPaintingLayer&quot;:true}" fill-rule="nonzero" stroke-linejoin="miter" stroke-miterlimit="10" stroke-dasharray="" stroke-dashoffset="0" style="mix-blend-mode: normal"><g><g><path d="M244.93382,168.55459l-0.10117,5.18248l-1.41856,2.38603l-1.60548,0.09876l-0.07192,-6.26495z" data-paper-data="{&quot;index&quot;:null}" fill="#298e00" stroke="#8f8f8f" stroke-width="0" stroke-linecap="round"/><path d="M241.91034,182.50354l0.07192,-6.26495l1.60548,0.09876l1.41856,2.38603l0.10117,5.18248z" data-paper-data="{&quot;index&quot;:null}" fill="#298e00" stroke="#8f8f8f" stroke-width="0" stroke-linecap="round"/><path d="M246.83354,178.5377l-0.10117,5.18248l-1.41856,2.38603l-1.60548,0.09876l-0.07192,-6.26495z" fill="#38c400" stroke="#8f8f8f" stroke-width="0" stroke-linecap="round"/><path d="M241.94538,182.89493v-2.4767h4.41789v2.4767z" fill="url(#color-1)" stroke="none" stroke-width="0" stroke-linecap="butt"/><g stroke-linecap="butt"><path d="M246.36622,184.41553l-0.66387,0.00762l-0.02921,-2.54483l0.66387,-0.00762z" fill="#8d8d8d" stroke="none" stroke-width="0"/><path d="M247.21492,184.44268l-0.98105,0.01126l-0.02964,-2.58171l0.98105,-0.01126z" fill="#b7b7b7" stroke="#000000" stroke-width="0"/><path d="M246.90411,182.26994c0.00123,0.10694 -0.08447,0.19462 -0.19141,0.19585c-0.10694,0.00123 -0.19462,-0.08447 -0.19585,-0.1914c-0.00123,-0.10694 0.08447,-0.19462 0.1914,-0.19585c0.10694,-0.00123 0.19462,0.08447 0.19585,0.19141z" fill="#8d8d8d" stroke="none" stroke-width="0.5"/><path d="M246.95115,183.15468c0.00123,0.10694 -0.08447,0.19462 -0.1914,0.19585c-0.10694,0.00123 -0.19462,-0.08447 -0.19585,-0.19141c-0.00123,-0.10694 0.08447,-0.19462 0.19141,-0.19585c0.10694,-0.00123 0.19462,0.08447 0.19585,0.19141z" fill="#8d8d8d" stroke="none" stroke-width="0.5"/><path d="M246.95962,183.89231c0.00123,0.10694 -0.08447,0.19462 -0.19141,0.19585c-0.10694,0.00123 -0.19462,-0.08447 -0.19585,-0.19141c-0.00123,-0.10694 0.08447,-0.19462 0.19141,-0.19585c0.10694,-0.00123 0.19462,0.08447 0.19585,0.19141z" fill="#8d8d8d" stroke="none" stroke-width="0.5"/></g><path d="M243.65362,172.34603l-0.07191,-6.26495l1.60732,0.06188l1.47296,2.35284l0.22011,5.17879z" data-paper-data="{&quot;index&quot;:null}" fill="#38c400" stroke="#8f8f8f" stroke-width="0" stroke-linecap="round"/><path d="M246.16245,169.84208v2.47669h-4.41789v-2.47669z" data-paper-data="{&quot;index&quot;:null}" fill="url(#color-2)" stroke="none" stroke-width="0" stroke-linecap="butt"/><path d="M225.22557,175.05949l13.45222,-1.1756l3.74518,-2.6151l4.33588,-0.64537l5.50882,0.42241l5.48804,3.01543l1.01799,2.282l-0.86151,2.2462l-5.46142,2.81395l-5.93326,0.50663l-4.41628,-1.06261l-3.56333,-2.78506l-13.31289,-1.48398" fill="#555555" stroke="#555555" stroke-width="0.5" stroke-linecap="round"/><path d="M252.28161,170.95784l5.4865,3.09286l0.47083,1.02742l-6.51984,-3.13838l-3.04398,-0.25195l-1.04388,-0.96346z" fill="#38c400" stroke="#38c400" stroke-width="0.5" stroke-linecap="round"/><path d="M247.93177,181.90977l1.02206,-0.93715l3.03756,-0.30705l6.44798,-3.12246l-0.44772,0.985l-5.41592,3.05617z" data-paper-data="{&quot;index&quot;:null}" fill="#38c400" stroke="#38c400" stroke-width="0.5" stroke-linecap="round"/><path d="M237.25137,178.00291v-4.06646l3.36362,-0.40163v4.91992z" fill="url(#color-3)" stroke="none" stroke-width="0" stroke-linecap="butt"/><path d="M253.09296,176.90733l-1.86078,2.35094l-4.57593,0.25335l-4.9826,-0.1838l-3.14677,-1.209l-0.95088,-2.35883l1.18221,-1.98167l2.75997,-0.99565l5.17787,-0.30043l4.42497,0.59185z" fill="#38c400" stroke="#8f8f8f" stroke-width="0" stroke-linecap="round"/><path d="M253.77596,177.76008c-0.29887,0.42976 -0.85986,0.83858 -1.44595,1.18831c-0.58609,0.34973 -1.07846,0.31804 -1.07846,0.31804c0,0 0.63912,-1.72669 0.62963,-3.01081c-0.0095,-1.28413 -0.67521,-3.15287 -0.67521,-3.15287c0,0 0.66229,0.07404 1.0609,0.34443c0.39861,0.27039 0.95155,0.38872 1.44772,1.15817c0.49617,0.76945 0.53034,0.91444 0.54346,1.57071c0.01313,0.65628 -0.18321,1.15427 -0.48208,1.58403z" fill="#a5ffff" stroke="#8f8f8f" stroke-width="0.5" stroke-linecap="round"/><path d="M226.63228,175.96595l-0.04739,2.42758l-0.66448,1.11767l-0.75204,0.04626l-0.03369,-2.93464z" fill="#555555" stroke="#8f8f8f" stroke-width="0" stroke-linecap="round"/><path d="M225.156,174.98173l-0.03369,-2.93464l0.7529,0.02899l0.68997,1.10212l0.10311,2.42585z" data-paper-data="{&quot;index&quot;:null}" fill="#555555" stroke="#8f8f8f" stroke-width="0" stroke-linecap="round"/><path d="M225.32087,176.60617l-2.92714,-0.21228l0.09196,-0.74783l1.15605,-0.59521l2.42597,0.10049z" data-paper-data="{&quot;index&quot;:null}" fill="#555555" stroke="#8f8f8f" stroke-width="0" stroke-linecap="round"/><g stroke-linecap="butt"><path d="M246.4383,170.70114l-0.66387,0.00762l-0.02921,-2.54483l0.66387,-0.00762z" fill="#8d8d8d" stroke="none" stroke-width="0"/><path d="M247.287,170.72828l-0.98105,0.01126l-0.02964,-2.58171l0.98105,-0.01126z" fill="#b7b7b7" stroke="#000000" stroke-width="0"/><path d="M246.9762,168.55555c0.00123,0.10694 -0.08447,0.19462 -0.19141,0.19585c-0.10694,0.00123 -0.19462,-0.08447 -0.19585,-0.19141c-0.00123,-0.10694 0.08447,-0.19462 0.1914,-0.19585c0.10694,-0.00123 0.19462,0.08447 0.19585,0.19141z" fill="#8d8d8d" stroke="none" stroke-width="0.5"/><path d="M247.02324,169.44029c0.00123,0.10694 -0.08447,0.19462 -0.19141,0.19585c-0.10694,0.00123 -0.19462,-0.08447 -0.19585,-0.19141c-0.00123,-0.10694 0.08447,-0.19462 0.19141,-0.19585c0.10694,-0.00123 0.19462,0.08447 0.19585,0.19141z" fill="#8d8d8d" stroke="none" stroke-width="0.5"/><path d="M247.0317,170.17792c0.00123,0.10694 -0.08447,0.19462 -0.1914,0.19585c-0.10694,0.00123 -0.19462,-0.08447 -0.19585,-0.19141c-0.00123,-0.10694 0.08447,-0.19462 0.19141,-0.19585c0.10694,-0.00123 0.19462,0.08447 0.19585,0.19141z" fill="#8d8d8d" stroke="none" stroke-width="0.5"/></g><path d="M226.65848,176.74632v-1.8208l1.5061,-0.17983v2.20295z" fill="url(#color-4)" stroke="none" stroke-width="0" stroke-linecap="butt"/><path d="M240.06335,174.78088c0.07132,0.03566 0.11432,0.08076 0.139,0.12781c0.42082,0.10192 0.87663,0.10119 1.22546,0.38001c0.29903,0.23902 0.37928,0.76081 0.81639,0.86597c0.37602,0.09046 0.81402,0.30849 0.94576,0.67211c0.06185,0.17072 0.00943,0.36305 0.01093,0.54463c0.015,1.8084 -1.73823,1.15369 -2.74419,0.46116c-1.57976,-0.39494 -2.01358,-1.62169 -0.83389,-2.80958l0.03642,-0.1074c0,0 0.13471,-0.26942 0.40413,-0.13471z" fill="#22ff00" stroke="none" stroke-width="0.5" stroke-linecap="butt"/><path d="M246.91995,175.25491c-0.08814,-0.02447 -0.14814,-0.08446 -0.14814,-0.08446l-0.24211,-0.26397c-0.17304,-0.36096 -0.45422,-1.27772 -0.12926,-1.64753c0.54817,-0.62384 2.33862,0.43763 2.72507,0.81565c0.51289,0.35889 0.36914,1.00611 0.75966,1.31476c0.07768,0.0614 0.86004,0.47508 0.88396,0.52387c0.10834,0.22093 0.09816,0.50386 0.02206,0.73785c-0.28336,0.87125 -2.35503,0.84318 -2.96792,0.40264c-0.53693,-0.38594 -0.53464,-1.25705 -0.90331,-1.79882z" fill="#22ff00" stroke="none" stroke-width="0.5" stroke-linecap="butt"/><path d="M253.08463,180.82525c0.16708,0.25063 -0.08355,0.41772 -0.08355,0.41772l-0.32376,0.21053c-0.26353,0.06874 -0.52734,0.13639 -0.79156,0.20244c0,0 -0.29223,0.07306 -0.36528,-0.21917c-0.07306,-0.29223 0.21917,-0.36528 0.21917,-0.36528c0.23097,-0.05774 0.46224,-0.11427 0.69395,-0.16893l0.2333,-0.16085c0,0 0.25063,-0.16709 0.41772,0.08354z" fill="#22ff00" stroke="none" stroke-width="0.5" stroke-linecap="butt"/><path d="M251.6784,171.12868c0.08919,-0.09337 0.22716,-0.09337 0.22716,-0.09337l0.1659,0.00899c0.73265,0.19111 1.51051,0.52783 2.08877,1.04179l0.04783,-0.07175l0.27464,0.1831c0.08304,0.05363 0.13802,0.14701 0.13802,0.25322c0,0.16636 -0.13486,0.30122 -0.30122,0.30122c-0.02238,0 -0.04419,-0.00244 -0.06518,-0.00707l-0.43613,-0.08723c-1.0272,0.00068 -1.28781,-0.58015 -2.21021,-0.94854c0,0 -0.27968,-0.11187 -0.1678,-0.39155c0.05604,-0.14011 0.1542,-0.18195 0.23821,-0.18882z" fill="#22ff00" stroke="none" stroke-width="0.5" stroke-linecap="butt"/><path d="M244.11112,167.2835c-0.04107,-0.08177 -0.06706,-0.20987 0.06105,-0.33797c0.21299,-0.21299 0.42599,0 0.42599,0l0.27392,0.39868c-0.00051,0.1718 -0.03059,0.34194 -0.07925,0.50862l0.0734,0.01468l-0.09175,0.45875c-0.02529,0.14079 -0.1484,0.24762 -0.29646,0.24762c-0.14335,0 -0.26331,-0.10014 -0.29375,-0.23428c-0.03095,-0.12379 -0.15321,-0.61285 -0.18416,-0.73664c0,0 -0.05282,-0.21129 0.11103,-0.31946z" fill="#22ff00" stroke="none" stroke-width="0.5" stroke-linecap="butt"/><path d="M244.16409,185.00988c-0.10203,-0.43873 -0.26111,-1.35208 0.52928,-1.30351c0.7589,0.04663 0.47233,0.87936 0.15477,1.39039c0.02446,0.06293 0.08452,0.27221 -0.14259,0.38576c-0.09685,0.04842 -0.17629,0.04463 -0.23832,0.0199c-0.08797,0.02771 -0.22704,0.03626 -0.33271,-0.12223c-0.11429,-0.17144 -0.03313,-0.30379 0.02956,-0.37031z" fill="#22ff00" stroke="none" stroke-width="0.5" stroke-linecap="butt"/><path d="M235.46534,175.37192l0.02946,0.04976c0,0.92804 0.10927,1.42717 -0.82542,1.87777c-0.98969,-0.20703 -1.71278,-0.68365 -2.64417,-1.0382c-0.19041,-0.07249 -0.85679,-0.39622 -0.84662,-0.65389c0.01758,-0.44538 0.74577,-0.5485 1.01429,-0.57829c1.01998,-0.11314 2.01453,-0.29435 3.05977,-0.08846c0,0 0.29537,0.05908 0.2363,0.35445c-0.00578,0.02888 -0.01381,0.05437 -0.02361,0.07686z" fill="#606060" stroke="none" stroke-width="0.5" stroke-linecap="butt"/><path d="M225.16942,176.08531c-0.06085,0.02201 -0.13772,0.0236 -0.23059,-0.02284c-0.26942,-0.13471 -0.13471,-0.40413 -0.13471,-0.40413l0.19517,-0.30161c0.16705,-0.11137 0.69933,-0.50057 0.86629,-0.38633c0.40249,0.27541 0.08603,1.16582 -0.25051,1.29946c-0.15038,0.05972 -0.29758,-0.09178 -0.44566,-0.18456z" fill="#606060" stroke="none" stroke-width="0.5" stroke-linecap="butt"/><g stroke-width="2" stroke-linecap="butt"><path d="M242.58686,177.30787v-2.54363c0,0 -0.02239,0 0.14503,0c0.45719,0 2.89618,0 3.83776,0c0.25461,0 0.23428,0 0.23428,0v2.54363c0,0 0.04637,0 -0.23428,0c-0.96214,0 -3.36851,0 -3.83776,0c-0.18746,0 -0.14503,0 -0.14503,0z" fill="#009ed8" stroke="#247e00"/><path d="M243.25623,177.30787v-2.54363c0,0 -0.02239,0 0.14503,0c0.45719,0 2.89618,0 3.83776,0c0.25461,0 0.23428,0 0.23428,0v2.54363c0,0 0.04637,0 -0.23428,0c-0.96214,0 -3.36851,0 -3.83776,0c-0.18746,0 -0.14503,0 -0.14503,0z" fill="#2ea100" stroke="#2ea100"/></g></g><g stroke="none" stroke-width="0" stroke-linecap="butt"><path d="M238.28674,187.21979l6.30554,-10.98378l13.77244,8.00125c0,0 -2.70247,3.22999 -4.55725,4.33612c-1.85867,1.10846 -6.58309,2.30766 -6.58309,2.30766z" data-paper-data="{&quot;index&quot;:null}" fill="url(#color-5)"/><path d="M233.94731,169.45592l10.92547,6.40606l-7.38825,12.62302c0,0 -3.95405,-3.43545 -5.21275,-5.52596c-1.24599,-2.06941 -2.3017,-6.95446 -2.3017,-6.95446z" data-paper-data="{&quot;index&quot;:null}" fill="url(#color-6)"/><g><path d="M230.43945,178.38131c-1.80095,-8.249 2.9754,-16.36304 11.76902,-18.15375c8.79362,-1.79071 16.51643,3.34691 18.40751,12.00871c1.89108,8.6618 -3.08559,16.35299 -11.82688,18.13304c-8.74128,1.78004 -16.54871,-3.739 -18.34965,-11.988z" fill="url(#color-7)"/><path d="M247.76257,185.28147c-5.8297,1.18714 -11.03659,-2.4936 -12.23768,-7.99499c-1.20107,-5.50137 1.98433,-10.91278 7.84896,-12.10702c5.8646,-1.19426 11.01507,2.23211 12.27624,8.0088c1.26118,5.77668 -2.05784,10.90607 -7.88752,12.09321z" fill="url(#color-8)"/><path d="M251.49902,165.80609l-6.90597,10.61654l-12.97098,-8.36433c0,0 2.84365,-3.71133 4.81677,-5.11208c1.68253,-1.19445 6.44758,-2.74298 6.44758,-2.74298z" fill="url(#color-9)"/><path d="M254.94837,183.43793l-10.55271,-7.0031l9.43803,-14.51287c0,0 3.87079,3.66237 5.13393,5.71081c1.20497,1.9541 2.27862,6.31016 2.27862,6.31016z" data-paper-data="{&quot;index&quot;:null}" fill="url(#color-10)"/></g></g></g></g></g></svg>