<svg version="1.1" xmlns="http://www.w3.org/2000/svg" xmlns:xlink="http://www.w3.org/1999/xlink" width="90" height="87" viewBox="0,0,90,87"><g transform="translate(-195,-136.5)"><g data-paper-data="{&quot;isPaintingLayer&quot;:true}" fill-rule="nonzero" stroke="none" stroke-linejoin="miter" stroke-miterlimit="10" stroke-dasharray="" stroke-dashoffset="0" style="mix-blend-mode: normal"><path d="M248.83513,172.04413c0,1.30579 -0.32645,2.46416 -0.97933,3.47509c-0.6529,0.98987 -1.54798,1.79021 -2.68529,2.40098c1.30579,0.61077 2.3378,1.4743 3.096,2.59053c0.7582,1.09519 1.1373,2.37991 1.1373,3.8542c0,2.37992 -0.81085,4.26491 -2.43255,5.65495c-1.62171,1.39004 -3.83313,2.08505 -6.63428,2.08505c-2.78008,0 -4.9915,-0.69501 -6.63428,-2.08505c-1.6217,-1.39004 -2.43255,-3.27501 -2.43255,-5.65492c0,-1.4743 0.3791,-2.75901 1.1373,-3.8542c0.77928,-1.11623 1.81126,-1.97976 3.096,-2.59053c-1.1373,-0.61077 -2.0324,-1.4111 -2.68529,-2.40098c-0.65291,-1.01093 -0.97934,-2.16931 -0.97934,-3.47509c0,-2.29568 0.75821,-4.11746 2.27461,-5.46537c1.53748,-1.36897 3.61201,-2.05346 6.2236,-2.05346c2.6116,0 4.67559,0.67395 6.192,2.02187c1.53747,1.34793 2.3062,3.18025 2.3062,5.49697zM244.06478,183.98583c0,-1.15837 -0.33699,-2.08506 -1.01094,-2.78008c-0.67395,-0.71608 -1.57959,-1.07412 -2.7169,-1.07412c-1.1373,0 -2.04295,0.34752 -2.71689,1.04254c-0.67395,0.69502 -1.01093,1.63224 -1.01093,2.81168c0,1.1373 0.32646,2.064 0.97935,2.78008c0.67395,0.69502 1.60066,1.04254 2.78008,1.04254c1.15837,0 2.06399,-0.33699 2.71689,-1.01094c0.6529,-0.67395 0.97935,-1.61118 0.97935,-2.81166zM243.52771,172.29686c0,-1.05306 -0.28432,-1.89551 -0.85297,-2.52734c-0.54759,-0.63184 -1.32686,-0.94776 -2.3378,-0.94776c-0.98987,0 -1.7586,0.31591 -2.3062,0.94776c-0.54758,0.61077 -0.82138,1.45322 -0.82138,2.52734c0,1.07413 0.2738,1.93762 0.82138,2.59053c0.54758,0.63184 1.32686,0.94776 2.3378,0.94776c1.01094,0 1.79021,-0.31591 2.33779,-0.94776c0.54759,-0.65291 0.82139,-1.5164 0.82139,-2.59053z" fill="#f3f3f3" stroke-width="1" stroke-linecap="square"/><path d="M195,223.5v-87h90v87z" fill="none" stroke-width="0" stroke-linecap="butt"/></g></g></svg>