<svg version="1.1" xmlns="http://www.w3.org/2000/svg" xmlns:xlink="http://www.w3.org/1999/xlink" width="2" height="376.5" viewBox="0,0,2,376.5"><defs><radialGradient cx="239.5" cy="179" r="1" gradientUnits="userSpaceOnUse" id="color-1"><stop offset="0" stop-color="#e6fffe"/><stop offset="1" stop-color="#e6fffe" stop-opacity="0"/></radialGradient><radialGradient cx="239.5" cy="179" r="0.75325" gradientUnits="userSpaceOnUse" id="color-2"><stop offset="0" stop-color="#e6fffe"/><stop offset="1" stop-color="#e6fffe" stop-opacity="0"/></radialGradient><radialGradient cx="239.5" cy="179" r="0.90909" gradientUnits="userSpaceOnUse" id="color-3"><stop offset="0" stop-color="#e6fffe"/><stop offset="1" stop-color="#e6fffe" stop-opacity="0"/></radialGradient><linearGradient x1="239.44156" y1="308.73137" x2="238.85714" y2="308.73137" gradientUnits="userSpaceOnUse" id="color-4"><stop offset="0" stop-color="#e6fffe"/><stop offset="1" stop-color="#e6fffe" stop-opacity="0"/></linearGradient><linearGradient x1="239.63636" y1="309.39803" x2="240.22078" y2="309.39803" gradientUnits="userSpaceOnUse" id="color-5"><stop offset="0" stop-color="#e6fffe"/><stop offset="1" stop-color="#e6fffe" stop-opacity="0"/></linearGradient></defs><g transform="translate(-238.5,-140.5)"><g data-paper-data="{&quot;isPaintingLayer&quot;:true}" fill-rule="nonzero" stroke-linejoin="miter" stroke-miterlimit="10" stroke-dasharray="" stroke-dashoffset="0" style="mix-blend-mode: normal"><path d="M238.5,179c0,-21.26296 0.44772,-38.5 1,-38.5c0.55228,0 1,17.23704 1,38.5c0,21.26296 -0.44772,38.5 -1,38.5c-0.55228,0 -1,-17.23704 -1,-38.5z" fill="url(#color-1)" stroke="none" stroke-width="0" stroke-linecap="butt"/><path d="M238.74675,179c0,-16.01626 0.33724,-29 0.75325,-29c0.41601,0 0.75325,12.98374 0.75325,29c0,16.01626 -0.33724,29 -0.75325,29c-0.41601,0 -0.75325,-12.98374 -0.75325,-29z" fill="url(#color-2)" stroke="none" stroke-width="0" stroke-linecap="butt"/><path d="M238.59091,179c0,-19.32997 0.40701,-35 0.90909,-35c0.50208,0 0.90909,15.67003 0.90909,35c0,19.32997 -0.40701,35 -0.90909,35c-0.50208,0 -0.90909,-15.67003 -0.90909,-35z" fill="url(#color-3)" stroke="none" stroke-width="0" stroke-linecap="butt"/><path d="M238.85714,509.12939v-340.79606h0.58442v340.79606z" data-paper-data="{&quot;index&quot;:null}" fill="url(#color-4)" stroke="none" stroke-width="1.5" stroke-linecap="butt"/><path d="M239.35714,516v-348h0.41558v348z" fill="#e6fffe" stroke="none" stroke-width="1.5" stroke-linecap="butt"/><path d="M239.63636,511.79606v-344.79606h0.58442v344.79606z" fill="url(#color-5)" stroke="none" stroke-width="1.5" stroke-linecap="butt"/><path d="M239.65752,516.25c0,0 0.0842,-25.95864 -0.00426,-53.21686c-0.07328,-22.58204 -0.3221,-46.05601 -0.3221,-56.40109c0,-12.20591 0.22646,-32.73541 0.25501,-56.89232c0.02207,-18.6765 -0.25906,-39.52123 -0.24817,-60.36394c0.01061,-20.29232 0.31898,-40.58273 0.3707,-58.86842c0.11288,-39.90155 -0.0512,-61.75737 -0.0512,-61.75737" data-paper-data="{&quot;index&quot;:null}" fill="none" stroke="#e6fffe" stroke-width="1.5" stroke-linecap="round"/></g></g></svg>