<svg version="1.1" xmlns="http://www.w3.org/2000/svg" xmlns:xlink="http://www.w3.org/1999/xlink" width="207.56911" height="200.80003" viewBox="0,0,207.56911,200.80003"><defs><radialGradient cx="240.00001" cy="180.00001" r="9.94549" gradientUnits="userSpaceOnUse" id="color-1"><stop offset="0" stop-color="#00ceff"/><stop offset="1" stop-color="#00ceff" stop-opacity="0"/></radialGradient><linearGradient x1="245.56146" y1="180.12202" x2="234.43864" y2="179.87809" gradientUnits="userSpaceOnUse" id="color-2"><stop offset="0" stop-color="#59edff"/><stop offset="1" stop-color="#4fcfff"/></linearGradient><linearGradient x1="234.43724" y1="180" x2="245.5628" y2="180" gradientUnits="userSpaceOnUse" id="color-3"><stop offset="0" stop-color="#59edff"/><stop offset="1" stop-color="#4fcfff"/></linearGradient></defs><g transform="translate(-136.21546,-79.59999)"><g data-paper-data="{&quot;isPaintingLayer&quot;:true}" fill-rule="nonzero" stroke-linejoin="miter" stroke-miterlimit="10" stroke-dasharray="" stroke-dashoffset="0" style="mix-blend-mode: normal"><path d="M301.24602,244.27479l-122.49202,-128.54958" fill="none" stroke="#000000" stroke-width="0" stroke-linecap="round"/><path d="M239.74576,189.94224c-5.49095,-0.14041 -9.82841,-4.70554 -9.688,-10.19647c0.14041,-5.49095 4.70554,-9.82841 10.19647,-9.688c5.49095,0.14041 9.82841,4.70554 9.688,10.19647c-0.14041,5.49095 -4.70554,9.82841 -10.19647,9.688z" fill="url(#color-1)" stroke="none" stroke-width="NaN" stroke-linecap="butt"/><path d="M239.87774,185.68028c-3.07145,-0.06737 -5.50665,-2.66511 -5.43913,-5.80228c0.06755,-3.13717 2.6122,-5.62565 5.68368,-5.55829c3.07145,0.06737 5.50666,2.66514 5.43915,5.80228c-0.06755,3.13717 -2.61223,5.6256 -5.68368,5.55829z" fill="url(#color-2)" stroke="url(#color-3)" stroke-width="1" stroke-linecap="butt"/><path d="M240.13639,179.9394l-0.45455,1.18182l-1.36364,0.63636l0.27273,1l-1.81818,0.81818" fill="none" stroke="#41aac4" stroke-width="1" stroke-linecap="round"/><path d="M240.31819,176.39394l-0.09091,1.63636l-1.63636,0.18182l-0.54545,0.81818" fill="none" stroke="#41aac4" stroke-width="1" stroke-linecap="round"/><path d="M243.86366,182.39394l-1.27273,-0.81818l0.36364,-1.09091l-0.36364,-1.63636" fill="none" stroke="#41aac4" stroke-width="1" stroke-linecap="round"/><path d="M241.2273,183.66666l-0.36364,-0.54545" fill="none" stroke="#41aac4" stroke-width="1" stroke-linecap="round"/><path d="M236.50002,179.93939l-0.63636,-0.18182" fill="none" stroke="#41aac4" stroke-width="1" stroke-linecap="round"/><path d="M243.59093,176.57576l-0.45455,-0.36364" fill="none" stroke="#41aac4" stroke-width="1" stroke-linecap="round"/><path d="M236.50001,177.30303l0.90909,-0.45455" fill="none" stroke="#41aac4" stroke-width="1" stroke-linecap="round"/><path d="M343.78457,79.59999l-207.56911,200.80003" fill="none" stroke="#000000" stroke-width="0" stroke-linecap="round"/></g></g></svg>