<svg version="1.1" xmlns="http://www.w3.org/2000/svg" xmlns:xlink="http://www.w3.org/1999/xlink" width="42.30724" height="20.89317" viewBox="0,0,42.30724,20.89317"><defs><radialGradient cx="252.04287" cy="180.18731" r="3.98095" gradientUnits="userSpaceOnUse" id="color-1"><stop offset="0" stop-color="#ffffff"/><stop offset="1" stop-color="#ffffff" stop-opacity="0"/></radialGradient><linearGradient x1="243.19103" y1="182.29048" x2="258.29408" y2="175.24239" gradientUnits="userSpaceOnUse" id="color-2"><stop offset="0" stop-color="#ffffff"/><stop offset="1" stop-color="#ffffff" stop-opacity="0"/></linearGradient><radialGradient cx="252.9762" cy="177.92064" r="1.38095" gradientUnits="userSpaceOnUse" id="color-3"><stop offset="0" stop-color="#ffffff"/><stop offset="1" stop-color="#ffffff" stop-opacity="0"/></radialGradient><linearGradient x1="243.30215" y1="177.96877" x2="258.40518" y2="185.01686" gradientUnits="userSpaceOnUse" id="color-4"><stop offset="0" stop-color="#ffffff"/><stop offset="1" stop-color="#ffffff" stop-opacity="0"/></linearGradient><radialGradient cx="253.26191" cy="182.44444" r="1.38095" gradientUnits="userSpaceOnUse" id="color-5"><stop offset="0" stop-color="#ffffff"/><stop offset="1" stop-color="#ffffff" stop-opacity="0"/></radialGradient><linearGradient x1="239.42902" y1="184.41957" x2="239.42902" y2="186.89713" gradientUnits="userSpaceOnUse" id="color-6"><stop offset="0" stop-color="#828282"/><stop offset="1" stop-color="#828282" stop-opacity="0"/></linearGradient><linearGradient x1="239.22813" y1="173.83973" x2="239.22813" y2="176.31728" gradientUnits="userSpaceOnUse" id="color-7"><stop offset="0" stop-color="#828282" stop-opacity="0"/><stop offset="1" stop-color="#828282"/></linearGradient><linearGradient x1="232.52366" y1="179.99456" x2="235.88845" y2="179.99456" gradientUnits="userSpaceOnUse" id="color-8"><stop offset="0" stop-color="#d6d6d6" stop-opacity="0"/><stop offset="1" stop-color="#d6d6d6"/></linearGradient><linearGradient x1="221.92707" y1="179.84689" x2="223.4337" y2="179.84689" gradientUnits="userSpaceOnUse" id="color-9"><stop offset="0" stop-color="#eeeeee"/><stop offset="1" stop-color="#eeeeee" stop-opacity="0"/></linearGradient></defs><g transform="translate(-217.66082,-169.79716)"><g data-paper-data="{&quot;isPaintingLayer&quot;:true}" fill-rule="nonzero" stroke-linejoin="miter" stroke-miterlimit="10" stroke-dasharray="" stroke-dashoffset="0" style="mix-blend-mode: normal"><g><g><path d="M248.06191,180.18731c0,-2.19862 1.78234,-3.98096 3.98096,-3.98096c2.19862,0 3.98095,1.78234 3.98095,3.98096c0,2.19862 -1.78232,3.98095 -3.98095,3.98095c-2.19862,0 -3.98096,-1.78232 -3.98096,-3.98095z" fill="url(#color-1)" stroke="none" stroke-width="0" stroke-linecap="butt"/><path d="M258.17565,173.06797l1.68131,3.12663l-6.81035,2.38557l-0.68131,-1.45997z" data-paper-data="{&quot;index&quot;:null}" fill="url(#color-2)" stroke="#ffffff" stroke-width="0" stroke-linecap="butt"/><path d="M251.59525,177.92064c0,-0.76268 0.61828,-1.38096 1.38096,-1.38096c0.76268,0 1.38095,0.61828 1.38095,1.38096c0,0.76268 -0.61827,1.38095 -1.38095,1.38095c-0.76268,0 -1.38096,-0.61827 -1.38096,-1.38095z" fill="url(#color-3)" stroke="none" stroke-width="0" stroke-linecap="butt"/><path d="M252.27502,177.33667l1,0.6l0.25,0.4" data-paper-data="{&quot;index&quot;:null}" fill="none" stroke="#777777" stroke-width="0.5" stroke-linecap="round"/></g><path d="M252.47641,183.13905l0.68131,-1.45997l6.81035,2.38557l-1.68132,3.12663z" fill="url(#color-4)" stroke="#ffffff" stroke-width="0" stroke-linecap="butt"/><path d="M251.88096,182.44444c0,-0.76268 0.61827,-1.38095 1.38095,-1.38095c0.76268,0 1.38095,0.61827 1.38095,1.38095c0,0.76268 -0.61827,1.38095 -1.38095,1.38095c-0.76268,0 -1.38095,-0.61827 -1.38095,-1.38095z" fill="url(#color-5)" stroke="none" stroke-width="0" stroke-linecap="butt"/><path d="M253.72502,182.21667l-0.25,0.4l-1,0.6" fill="none" stroke="#777777" stroke-width="0.5" stroke-linecap="round"/></g><path d="M236.32489,174.14901l1.77925,-0.11479" data-paper-data="{&quot;index&quot;:null}" fill="none" stroke="#9d9d9d" stroke-width="1" stroke-linecap="round"/><path d="M240.20879,172.55177l-0.1012,5.18429l-1.41906,2.38687l-1.60604,0.09879l-0.07194,-6.26714z" data-paper-data="{&quot;index&quot;:null}" fill="#9d9d9d" stroke="#8f8f8f" stroke-width="0" stroke-linecap="round"/><path d="M237.18426,186.5056l0.07194,-6.26714l1.60604,0.09879l1.41905,2.38687l0.10121,5.18429z" data-paper-data="{&quot;index&quot;:null}" fill="#9d9d9d" stroke="#8f8f8f" stroke-width="0" stroke-linecap="round"/><path d="M242.10917,182.53837l-0.1012,5.1843l-1.41906,2.38686l-1.60603,0.0988l-0.07193,-6.26714z" fill="#b1b1b1" stroke="#8f8f8f" stroke-width="0" stroke-linecap="round"/><path d="M236.66926,186.37419l1.77925,0.11479" fill="none" stroke="#9d9d9d" stroke-width="1" stroke-linecap="round"/><path d="M237.2193,186.89713v-2.47756h4.41943v2.47756z" fill="url(#color-6)" stroke="none" stroke-width="0" stroke-linecap="butt"/><path d="M238.92815,176.34454l-0.07194,-6.26714l1.60789,0.0619l1.47346,2.35366l0.22019,5.1806z" data-paper-data="{&quot;index&quot;:null}" fill="#b1b1b1" stroke="#8f8f8f" stroke-width="0" stroke-linecap="round"/><path d="M241.43784,173.83973v2.47755h-4.41943v-2.47755z" data-paper-data="{&quot;index&quot;:null}" fill="url(#color-7)" stroke="none" stroke-width="0" stroke-linecap="butt"/><path d="M220.49366,179.05894l13.45692,-1.17601l3.74649,-2.61602l4.33738,-0.6456l5.51075,0.42256l5.48996,3.01649l1.01835,2.28279l-0.86181,2.24698l-5.46332,2.81493l-5.93533,0.50681l-4.41782,-1.06299l-3.56458,-2.78603l-13.31753,-1.48451" fill="#ffffff" stroke="#ffffff" stroke-width="0.5" stroke-linecap="round"/><path d="M247.55914,174.95587l5.48842,3.09394l0.47099,1.02778l-6.52212,-3.13948l-3.04504,-0.25204l-1.04424,-0.9638z" fill="#b1b1b1" stroke="#b1b1b1" stroke-width="0.5" stroke-linecap="round"/><path d="M243.20778,185.91162l1.02242,-0.93748l3.03862,-0.30715l6.45023,-3.12355l-0.44788,0.98533l-5.41781,3.05724z" data-paper-data="{&quot;index&quot;:null}" fill="#b1b1b1" stroke="#b1b1b1" stroke-width="0.5" stroke-linecap="round"/><path d="M232.52366,182.00339v-4.06788l3.36479,-0.40177v4.92164z" fill="url(#color-8)" stroke="none" stroke-width="0" stroke-linecap="butt"/><path d="M248.37078,180.90743l-1.86144,2.35177l-4.57753,0.25344l-4.98434,-0.18387l-3.14787,-1.20942l-0.95121,-2.35966l1.18262,-1.98236l2.76094,-0.99599l5.17967,-0.30053l4.42652,0.59205z" fill="#b1b1b1" stroke="#8f8f8f" stroke-width="0" stroke-linecap="round"/><path d="M249.05401,181.76048c-0.29897,0.4299 -0.86015,0.83887 -1.44645,1.18872c-0.5863,0.34985 -1.07883,0.31815 -1.07883,0.31815c0,0 0.63934,-1.72728 0.62984,-3.01186c-0.0095,-1.28458 -0.67545,-3.15397 -0.67545,-3.15397c0,0 0.66253,0.07406 1.06127,0.34455c0.39874,0.27049 0.95188,0.38886 1.44822,1.15857c0.49634,0.76972 0.53052,0.91476 0.54365,1.57125c0.01313,0.65651 -0.18327,1.15468 -0.48225,1.58459z" fill="#a5ffff" stroke="#9cf1f1" stroke-width="0.5" stroke-linecap="round"/><path d="M221.90086,179.96572l-0.04741,2.42843l-0.66472,1.11806l-0.7523,0.04628l-0.0337,-2.93566z" fill="#9d9d9d" stroke="#8f8f8f" stroke-width="0" stroke-linecap="round"/><path d="M220.42406,178.98116l-0.0337,-2.93566l0.75316,0.029l0.6902,1.10251l0.10315,2.42669z" data-paper-data="{&quot;index&quot;:null}" fill="#9d9d9d" stroke="#8f8f8f" stroke-width="0" stroke-linecap="round"/><path d="M220.58899,180.60617l-2.92816,-0.21235l0.09199,-0.7481l1.15645,-0.59542l2.42682,0.10052z" data-paper-data="{&quot;index&quot;:null}" fill="#b1b1b1" stroke="#8f8f8f" stroke-width="0" stroke-linecap="round"/><g stroke-linecap="butt"><path d="M241.7138,174.69907l-0.6641,0.00762l-0.02922,-2.54572l0.66411,-0.00762z" fill="#8d8d8d" stroke="none" stroke-width="0"/><path d="M242.56279,174.72622l-0.98139,0.01127l-0.02965,-2.58262l0.98139,-0.01127z" fill="#b7b7b7" stroke="#000000" stroke-width="0"/><path d="M242.25188,172.55273c0.00123,0.10698 -0.0845,0.1947 -0.19147,0.19593c-0.10698,0.00123 -0.19469,-0.0845 -0.19592,-0.19147c-0.00123,-0.10698 0.0845,-0.19469 0.19147,-0.19592c0.10698,-0.00123 0.19469,0.08449 0.19592,0.19147z" fill="#8d8d8d" stroke="none" stroke-width="0.5"/><path d="M242.29893,173.43778c0.00123,0.10698 -0.08449,0.19469 -0.19147,0.19592c-0.10698,0.00123 -0.19469,-0.08449 -0.19592,-0.19147c-0.00123,-0.10698 0.0845,-0.19469 0.19147,-0.19592c0.10698,-0.00123 0.19469,0.0845 0.19592,0.19147z" fill="#8d8d8d" stroke="none" stroke-width="0.5"/><path d="M242.3074,174.17567c0.00123,0.10698 -0.0845,0.19469 -0.19148,0.19592c-0.10698,0.00123 -0.19469,-0.0845 -0.19592,-0.19147c-0.00123,-0.10698 0.0845,-0.19469 0.19148,-0.19592c0.10698,-0.00123 0.19469,0.0845 0.19592,0.19147z" fill="#8d8d8d" stroke="none" stroke-width="0.5"/></g><path d="M221.92707,180.74637v-1.82144l1.50663,-0.17989v2.20372z" fill="url(#color-9)" stroke="none" stroke-width="0" stroke-linecap="butt"/><path d="M235.20129,180.62635c-0.27206,-0.01885 -0.27206,-0.30033 -0.27206,-0.30033l0.30132,-0.38168c0.69083,0.00297 1.58816,0.01046 2.26102,-0.15265c0.8551,-0.20729 1.12016,-0.7366 2.11487,-0.48792c2.09607,0.06014 -0.08396,2.25298 -0.97687,2.5905c-1.28581,0.48605 -2.31177,-0.55553 -3.313,-1.14917c0,0 -0.07003,-0.04202 -0.11529,-0.11876z" fill="#9d9d9d" stroke="none" stroke-width="0.5" stroke-linecap="butt"/><path d="M243.3637,178.44848c-0.04444,-0.04464 -0.07773,-0.1115 -0.07773,-0.21165c0,-0.23397 0.18166,-0.28627 0.26288,-0.29796c0.63064,-0.52429 1.9702,-0.87204 2.26228,0.23832c0.20331,0.77287 -0.61083,1.37973 -1.28379,1.14579c-0.39418,-0.13702 -0.6602,-0.45686 -1.01472,-0.66705c0,0 -0.1249,-0.07493 -0.14892,-0.20744z" fill="#9d9d9d" stroke="none" stroke-width="0.5" stroke-linecap="butt"/><path d="M239.70322,171.78764c-0.27421,-0.01752 -0.2742,-0.30048 -0.2742,-0.30048l0.22824,-0.37268c0.06815,-0.00763 0.13237,-0.02916 0.1935,-0.05983l0.08927,-0.17853c0.04832,-0.10192 0.15214,-0.1724 0.27244,-0.1724c0.16642,0 0.30132,0.13491 0.30132,0.30132v0.40177h-0.02836l0.02029,0.06923c-0.13523,0.1832 -0.18462,0.49504 -0.4057,0.54962c-0.15188,0.0375 -0.2715,-0.11718 -0.3968,-0.23802z" fill="#9d9d9d" stroke="none" stroke-width="0.5" stroke-linecap="butt"/><path d="M249.10368,176.52142c-0.21307,0.21307 -0.42614,0 -0.42614,0l-0.02072,-0.08145c-0.87144,-0.21968 -1.74639,-0.63948 -2.65893,-0.63384c0,0 -0.30132,0 -0.30132,-0.30132c0,-0.30132 0.30132,-0.30132 0.30132,-0.30132c0.97418,0.00501 1.87422,0.4213 2.80509,0.65183l0.3007,0.23996c0,0 0.21307,0.21308 0,0.42614z" fill="#9d9d9d" stroke="none" stroke-width="0.5" stroke-linecap="butt"/><path d="M252.31781,178.12849c-0.21306,0.21307 -0.42614,0 -0.42614,0l-0.08239,-0.10426c-0.10714,-0.05357 -0.21427,-0.10714 -0.32142,-0.16071c0,0 -0.26951,-0.13476 -0.13476,-0.40427c0.13475,-0.26951 0.40428,-0.13475 0.40428,-0.13475c0.10714,0.05357 0.21426,0.10713 0.3214,0.16071l0.23903,0.21715c0,0 0.21306,0.21307 0,0.42613z" fill="#9d9d9d" stroke="none" stroke-width="0.5" stroke-linecap="butt"/><path d="M248.74999,184.50439c0,-0.30132 0.30132,-0.30132 0.30132,-0.30132l-0.05236,0.08826c0.36269,-0.36118 0.74903,-0.70777 1.20326,-0.94033c0,0 0.26951,-0.13475 0.40426,0.13476c0.13476,0.26951 -0.13475,0.40427 -0.13475,0.40427c-0.39372,0.19074 -0.73676,0.51609 -1.04664,0.82744l-0.37377,0.08826c0,0 -0.30132,0 -0.30132,-0.30132z" fill="#9d9d9d" stroke="none" stroke-width="0.5" stroke-linecap="butt"/><path d="M239.1076,187.3971c0,-0.30132 0.30132,-0.30132 0.30132,-0.30132l0.0206,0.00118c0.03564,-0.00523 0.06988,-0.00318 0.09945,0.00174c0.53225,-0.07642 1.98547,0.36548 0.6514,0.91725c-0.07521,0.0311 -0.56327,-0.21599 -0.76347,-0.31773l-0.00798,0.00021c0,0 -0.30132,0 -0.30132,-0.30132z" fill="#9d9d9d" stroke="none" stroke-width="0.5" stroke-linecap="butt"/><path d="M231.0321,180.32601c0,0.30132 -0.30133,0.30133 -0.30133,0.30133h-0.1607c-1.04119,-0.00826 -2.09245,0.27727 -3.16347,0.15924c-0.72523,-0.07992 -1.44755,-0.57524 -2.13984,-0.561c0,0 -0.30132,0 -0.30132,-0.30132c0,-0.30132 0.30132,-0.30133 0.30132,-0.30133c0.75426,0.01083 1.42878,0.47751 2.19923,0.56394c1.05373,0.11821 2.07716,-0.1557 3.10408,-0.16217h0.1607c0,0 0.30133,0 0.30133,0.30132z" fill="#f9f9f9" stroke="none" stroke-width="0.5" stroke-linecap="butt"/><path d="M232.31775,178.87966c0,0.30132 -0.30132,0.30133 -0.30132,0.30133l0.05441,-0.03182c-0.83714,0.39907 -2.02314,0.19252 -2.94712,0.19252c0,0 -0.30132,0 -0.30132,-0.30132c0,-0.30132 0.30132,-0.30132 0.30132,-0.30132c0.77943,0 1.99296,0.23754 2.67761,-0.12889l0.21511,-0.03181c0,0 0.30132,0 0.30132,0.30132z" fill="#f9f9f9" stroke="none" stroke-width="0.5" stroke-linecap="butt"/><path d="M241.47802,184.66509c0,0.30132 -0.30132,0.30132 -0.30132,0.30132h-0.16071c-1.12546,0 -1.92593,-0.3241 -2.9658,-0.57147c0,0 -0.29233,-0.07308 -0.21925,-0.36541c0.07308,-0.29233 0.36541,-0.21925 0.36541,-0.21925c1.00019,0.25935 1.73524,0.55348 2.81964,0.55348h0.16071c0,0 0.30132,0 0.30132,0.30132z" fill="#f9f9f9" stroke="none" stroke-width="0.5" stroke-linecap="butt"/><path d="M242.59398,175.89931c-0.07308,0.29233 -0.36542,0.21925 -0.36542,0.21925l-0.32142,-0.08035c-0.75493,-0.1949 -1.38287,0.01584 -2.11772,0.16385c0,0 -0.29547,0.0591 -0.35456,-0.23638c-0.0591,-0.29548 0.23638,-0.35457 0.23638,-0.35457c0.83299,-0.16531 1.5281,-0.3655 2.38207,-0.15756l0.32142,0.08035c0,0 0.29233,0.07308 0.21925,0.36541z" fill="#f9f9f9" stroke="none" stroke-width="0.5" stroke-linecap="butt"/><path d="M250.91953,181.77238c0,-0.30132 0.30133,-0.30132 0.30133,-0.30132h0.40176c0.58472,0.01869 1.25203,-0.81239 0.79356,-1.38012c-0.54249,-0.67177 -1.70111,-0.96657 -2.45503,-1.34352c0,0 -0.26952,-0.13476 -0.13477,-0.40427c0.13476,-0.26951 0.40428,-0.13475 0.40428,-0.13475c0.81961,0.4098 2.15582,0.75346 2.68757,1.54919c0.67645,1.01225 -0.22312,2.29399 -1.29562,2.31612h-0.40176c0,0 -0.30133,0 -0.30133,-0.30132z" fill="#f9f9f9" stroke="none" stroke-width="0.5" stroke-linecap="butt"/><path d="M220.40604,180.52589v-1.80795h1.54011l-0.06696,1.80795z" fill="#9d9d9d" stroke="none" stroke-width="0" stroke-linecap="butt"/><path d="M241.28001,190.19033l-2.52539,-0.05739" fill="none" stroke="#9d9d9d" stroke-width="1" stroke-linecap="round"/><path d="M241.16522,170.29716l-2.52539,0.0574" data-paper-data="{&quot;index&quot;:null}" fill="none" stroke="#9d9d9d" stroke-width="1" stroke-linecap="round"/><g stroke-width="2" stroke-linecap="butt"><path d="M237.86101,181.30811v-2.54452c0,0 -0.0224,0 0.14508,0c0.45735,0 2.89719,0 3.8391,0c0.2547,0 0.23437,0 0.23437,0v2.54452c0,0 0.04638,0 -0.23437,0c-0.96247,0 -3.36969,0 -3.8391,0c-0.18752,0 -0.14508,0 -0.14508,0z" fill="#009ed8" stroke="#8a8a8a"/><path d="M238.53062,181.30811v-2.54452c0,0 -0.0224,0 0.14508,0c0.45735,0 2.89719,0 3.8391,0c0.2547,0 0.23436,0 0.23436,0v2.54452c0,0 0.04639,0 -0.23436,0c-0.96248,0 -3.36969,0 -3.8391,0c-0.18752,0 -0.14508,0 -0.14508,0z" fill="#9d9d9d" stroke="#9d9d9d"/></g><g stroke-linecap="butt"><path d="M241.98653,188.42634l-0.6641,0.00762l-0.02922,-2.54572l0.66411,-0.00762z" fill="#8d8d8d" stroke="none" stroke-width="0"/><path d="M242.83552,188.45349l-0.98139,0.01127l-0.02965,-2.58262l0.98139,-0.01127z" fill="#b7b7b7" stroke="#000000" stroke-width="0"/><path d="M242.52461,186.28c0.00123,0.10698 -0.0845,0.1947 -0.19147,0.19593c-0.10698,0.00123 -0.19469,-0.0845 -0.19592,-0.19147c-0.00123,-0.10698 0.0845,-0.19469 0.19147,-0.19592c0.10698,-0.00123 0.19469,0.08449 0.19592,0.19147z" fill="#8d8d8d" stroke="none" stroke-width="0.5"/><path d="M242.57166,187.16505c0.00123,0.10698 -0.08449,0.19469 -0.19147,0.19592c-0.10698,0.00123 -0.19469,-0.08449 -0.19592,-0.19147c-0.00123,-0.10698 0.0845,-0.19469 0.19147,-0.19592c0.10698,-0.00123 0.19469,0.0845 0.19592,0.19147z" fill="#8d8d8d" stroke="none" stroke-width="0.5"/><path d="M242.58013,187.90294c0.00123,0.10698 -0.0845,0.19469 -0.19148,0.19592c-0.10698,0.00123 -0.19469,-0.0845 -0.19592,-0.19147c-0.00123,-0.10698 0.0845,-0.19469 0.19148,-0.19592c0.10698,-0.00123 0.19469,0.0845 0.19592,0.19147z" fill="#8d8d8d" stroke="none" stroke-width="0.5"/></g></g></g></svg>