<svg version="1.1" xmlns="http://www.w3.org/2000/svg" xmlns:xlink="http://www.w3.org/1999/xlink" width="49.02537" height="36.33242" viewBox="0,0,49.02537,36.33242"><defs><linearGradient x1="255.35776" y1="179.84193" x2="257.07773" y2="179.84193" gradientUnits="userSpaceOnUse" id="color-1"><stop offset="0" stop-color="#898989"/><stop offset="1" stop-color="#a1a1a1"/></linearGradient><linearGradient x1="258.04522" y1="179.84193" x2="262.45272" y2="179.84193" gradientUnits="userSpaceOnUse" id="color-2"><stop offset="0" stop-color="#898989"/><stop offset="1" stop-color="#a1a1a1"/></linearGradient><linearGradient x1="265.35519" y1="179.8957" x2="267.93519" y2="179.8957" gradientUnits="userSpaceOnUse" id="color-3"><stop offset="0" stop-color="#a1a1a1"/><stop offset="1" stop-color="#898989"/></linearGradient><linearGradient x1="255.64706" y1="178.90196" x2="255.64706" y2="182.07843" gradientUnits="userSpaceOnUse" id="color-4"><stop offset="0" stop-color="#b7b7b7" stop-opacity="0"/><stop offset="1" stop-color="#b7b7b7"/></linearGradient><linearGradient x1="239.77984" y1="191.35411" x2="239.77984" y2="197.54228" gradientUnits="userSpaceOnUse" id="color-5"><stop offset="0" stop-color="#009286"/><stop offset="1" stop-color="#00ad9e"/></linearGradient><linearGradient x1="242.98024" y1="184.08816" x2="242.98024" y2="187.52816" gradientUnits="userSpaceOnUse" id="color-6"><stop offset="0" stop-color="#009488"/><stop offset="1" stop-color="#009488" stop-opacity="0"/></linearGradient><linearGradient x1="270.29412" y1="179.43137" x2="270.29412" y2="182.60784" gradientUnits="userSpaceOnUse" id="color-7"><stop offset="0" stop-color="#b7b7b7" stop-opacity="0"/><stop offset="1" stop-color="#b7b7b7"/></linearGradient><linearGradient x1="263" y1="178.54902" x2="263" y2="181.72549" gradientUnits="userSpaceOnUse" id="color-8"><stop offset="0" stop-color="#b7b7b7" stop-opacity="0"/><stop offset="1" stop-color="#b7b7b7"/></linearGradient></defs><g transform="translate(-223.67479,-165.81129)"><g data-paper-data="{&quot;isPaintingLayer&quot;:true}" fill-rule="nonzero" stroke-linecap="butt" stroke-linejoin="miter" stroke-miterlimit="10" stroke-dasharray="" stroke-dashoffset="0" style="mix-blend-mode: normal"><g><g fill="#a1a1a1" stroke="#a1a1a1" stroke-width="0.5"><path d="M252.74271,181.50819v-3.22498h16.12491v3.22498z"/><path d="M268.15018,182.36816v-5.05247h4.29998v5.05247z"/><path d="M246.75781,181.83069v-3.97748h11.07244v3.97748z"/></g><path d="M255.35776,182.04569v-4.40748h1.71999v4.40748z" fill="url(#color-1)" stroke="none" stroke-width="0"/><path d="M258.04522,181.61566v-3.54748h4.40748v3.54748z" fill="url(#color-2)" stroke="none" stroke-width="0"/><path d="M265.35519,181.72319v-3.65498h2.57999v3.65498z" fill="url(#color-3)" stroke="none" stroke-width="0"/></g><path d="M253.26471,182.07843v-3.17648h4.76471v3.17648z" fill="url(#color-4)" stroke="none" stroke-width="0"/><g stroke="none" stroke-width="0"><path d="M223.6748,165.8113h32.68609v25.54592h-32.68609z" fill="#00ad9e"/><path d="M228.43491,180.72323h22.68986v21.42049h-22.68986z" fill="#00ad9e"/><path d="M228.59358,191.35411h22.37251v6.18814h-22.37251z" fill="url(#color-5)"/></g><path d="M225.54536,189.01149v-21.15572h6.97038l8.14182,10.44303l-0.07085,10.71269z" fill="#00a093" stroke="#00a799" stroke-width="0.5"/><path d="M253.93502,167.91078v9.56803h-3.15247l-3.68228,-4.72304l0.03205,-4.84499z" data-paper-data="{&quot;index&quot;:null}" fill="#00a093" stroke="#00a799" stroke-width="0.5"/><path d="M233.62779,184.08816v-10.85744h18.4899v10.85744z" fill="#00ad9e" stroke="none" stroke-width="0"/><path d="M233.62779,187.52816v-3.43998h18.7049v3.43998z" fill="url(#color-6)" stroke="none" stroke-width="0"/><path d="M236.1346,167.89005c1.28652,-0.34752 1.80363,0.39707 3.0254,0.37098c0.85116,-0.01818 2.01128,-1.19284 2.9527,-0.29448c1.59736,1.52428 -1.34458,3.63924 -2.64305,3.65239c-1.41439,0.01433 -2.12217,-1.21678 -3.16171,-1.95124c-0.14326,0.15502 -0.49688,0.4377 -0.97013,0.12219c-0.44885,-0.29923 -0.35963,-0.70608 -0.27416,-0.91093c-0.07307,-0.14145 -0.10178,-0.32823 -0.02133,-0.56958c0.23717,-0.71151 0.94868,-0.47434 0.94868,-0.47434c0.04805,0.01624 0.09591,0.03464 0.14359,0.05501z" fill="#00b3a4" stroke="none" stroke-width="0.5"/><path d="M240.47927,175.2548c1.60665,-1.17523 2.85515,-1.84191 4.78479,-0.42625c0.84659,1.3056 2.92211,0.18323 3.73536,1.97671c1.99499,4.39962 -5.54955,3.96876 -7.45563,3.13198c-1.55623,-0.68319 -1.09248,-1.92261 -1.64052,-3.07987c-0.2221,-0.05335 -0.56431,-0.21776 -0.56431,-0.72437c0,-0.32647 0.14211,-0.51083 0.30261,-0.61494c0.04394,-0.05149 0.0987,-0.10191 0.16629,-0.15019c0.26324,-0.18803 0.49404,-0.18141 0.67141,-0.11308z" fill="#00b3a4" stroke="none" stroke-width="0.5"/><path d="M234.85972,179.54597c0.05003,-0.32896 0.26615,-0.47816 0.4519,-0.54582c0.12018,-0.056 0.27596,-0.09573 0.44637,-0.05632c1.94126,-0.00324 3.84797,-0.02984 3.84048,2.5549c-0.00133,0.45833 0.11621,1.04376 -0.21778,1.35763c-1.65689,1.55701 -4.63689,-1.7042 -4.68649,-3.00754z" fill="#00b3a4" stroke="none" stroke-width="0.5"/><path d="M246.92705,201.11145c-0.49475,0.24738 -0.80706,-0.05259 -0.93691,-0.2271c-0.73264,0.01776 -1.1687,0.11528 -1.91491,0.56547c-1.80258,0.37444 -2.11044,-0.02204 -3.45719,-0.99399c-0.89082,-0.64291 -1.9157,0.80356 -2.48983,-1.05131c-0.45844,-1.48113 1.98276,-3.25518 3.19936,-3.27489c1.84607,-0.0299 4.25051,2.24178 5.48475,3.47101c0,0 0.10141,0.10141 0.17119,0.25988l0.27895,0.24469c0,0 0.33541,0.67082 -0.33541,1.00623z" fill="#00b3a4" stroke="none" stroke-width="0.5"/><path d="M230.36944,196.75541c-0.05265,-0.17389 -0.04267,-0.39234 0.13963,-0.63542c0.45,-0.6 1.05,-0.15 1.05,-0.15l0.47543,0.3798c1.14064,0.22813 1.18987,0.9123 1.9213,1.42546c0.48839,0.34264 1.40637,-0.14943 1.75874,0.33198c1.10336,1.50743 -0.99208,3.22695 -2.35189,3.04928c-1.79402,-0.2344 -3.2227,-2.69698 -2.99338,-4.40017c0,0 0.00005,-0.00032 0.00016,-0.00093z" fill="#00b3a4" stroke="none" stroke-width="0.5"/><path d="M245.3483,189.03199c0.41603,-0.62404 1.04006,-0.20801 1.04006,-0.20801l0.14992,0.10881c0.13977,-0.23422 0.39412,-0.33596 0.39412,-0.33596c0.77078,-0.29598 1.40999,-0.32019 2.08448,-0.27793c0.21398,-0.16711 0.47724,-0.29999 0.84874,-0.33792c0.09611,-0.00981 0.19175,-0.01134 0.28701,-0.00627v-0.05082l1.08378,0c0.41421,0 0.75,0.33579 0.75,0.75c0,0.24849 -0.12085,0.46876 -0.30698,0.60524l-0.61232,0.45924l-0.06227,-0.08303l-0.15056,0.19454c-0.24397,0.00685 -0.48474,-0.00306 -0.72291,-0.01891c-0.84616,1.11996 -2.71903,1.10462 -3.9731,0.62306l-0.60196,-0.38197c0,0 -0.62404,-0.41603 -0.20801,-1.04006z" fill="#00b3a4" stroke="none" stroke-width="0.5"/><path d="M254.64257,186.32737c-0.75,0 -0.75,-0.75 -0.75,-0.75v-0.30965c0,-1.90034 -0.67488,-3.3807 0.05364,-5.23296c0,0 0.27854,-0.69636 0.9749,-0.41781c0.69636,0.27854 0.41781,0.9749 0.41781,0.9749c-0.62856,1.53934 0.05364,3.01656 0.05364,4.67588v0.30965c0,0 0,0.75 -0.75,0.75z" fill="#00b3a4" stroke="none" stroke-width="0.5"/><path d="M227.60198,169.73112c0.34816,-0.29695 0.80485,-0.0686 0.80485,-0.0686l0.22885,0.11732c1.20477,0.51231 3.17023,-0.16281 3.60463,1.71908c0.19262,0.83444 -2.15697,5.10738 -2.88187,5.38447c-1.36205,0.52065 -2.8908,-0.68674 -3.03379,-2.05208c-0.12085,-1.15393 0.42896,-3.05955 0.42535,-4.35512c0,0 0,-0.75 0.75,-0.75c0.03566,0 0.06963,0.0017 0.10198,0.00493z" fill="#009a8e" stroke="none" stroke-width="0.5"/><path d="M228.3143,178.44487c0.21611,-0.29011 0.61428,-0.29011 0.61428,-0.29011l0.83758,0.0102c3.32739,0.92734 0.93177,6.71617 -1.19875,4.26219c-0.52454,-0.60418 -0.38884,-2.46194 -0.52149,-3.25624c0,0 -0.07892,-0.47354 0.26838,-0.72604z" fill="#009a8e" stroke="none" stroke-width="0.5"/><path d="M231.31604,187.00652c-0.53033,0.53033 -1.06066,0 -1.06066,0l-0.03393,-0.11969c-0.40293,-0.17134 -0.85511,-0.24035 -1.29289,-0.23207c0,0 -0.75,0 -0.75,-0.75c0,-0.75 0.75,-0.75 0.75,-0.75c0.62689,0.00849 1.26447,0.11519 1.84997,0.33936l0.5375,0.45174c0,0 0.53033,0.53033 0,1.06066z" fill="#009a8e" stroke="none" stroke-width="0.5"/><path d="M248.60778,170.63821c-0.13753,-0.16714 -0.24179,-0.42818 -0.06431,-0.78315c0.33541,-0.67082 1.00623,-0.33541 1.00623,-0.33541l0.14829,0.12977c0.04838,0.02166 0.09103,0.04775 0.12864,0.07694c0.32017,-0.00156 0.64911,-0.06767 0.95806,0.01336c3.69462,0.96913 -0.51482,4.87027 -2.08019,1.96313c-0.16962,-0.31501 -0.1137,-0.69548 -0.09672,-1.06464z" fill="#009a8e" stroke="none" stroke-width="0.5"/><path d="M267.91176,182.60784v-3.17647h4.76471v3.17647z" fill="url(#color-7)" stroke="none" stroke-width="0"/><path d="M258.02941,181.72549v-3.17648h9.94118v3.17648z" fill="url(#color-8)" stroke="none" stroke-width="0"/></g></g></svg>