<svg version="1.1" xmlns="http://www.w3.org/2000/svg" xmlns:xlink="http://www.w3.org/1999/xlink" width="247.3548" height="225.96322" viewBox="0,0,247.3548,225.96322"><defs><linearGradient x1="246.78417" y1="289.85693" x2="246.91646" y2="222.14546" gradientUnits="userSpaceOnUse" id="color-1"><stop offset="0" stop-color="#da0000"/><stop offset="1" stop-color="#b80000"/></linearGradient><linearGradient x1="246.73669" y1="138.98806" x2="246.6044" y2="71.27659" gradientUnits="userSpaceOnUse" id="color-2"><stop offset="0" stop-color="#b80000"/><stop offset="1" stop-color="#da0000"/></linearGradient><linearGradient x1="177.65801" y1="109.43968" x2="177.70428" y2="133.11838" gradientUnits="userSpaceOnUse" id="color-3"><stop offset="0" stop-color="#730000"/><stop offset="1" stop-color="#6b0000"/></linearGradient><linearGradient x1="224.10022" y1="109.42257" x2="224.14628" y2="133.00586" gradientUnits="userSpaceOnUse" id="color-4"><stop offset="0" stop-color="#730000"/><stop offset="1" stop-color="#6b0000"/></linearGradient><linearGradient x1="182.90801" y1="109.42942" x2="182.95426" y2="133.10812" gradientUnits="userSpaceOnUse" id="color-5"><stop offset="0" stop-color="#800000"/><stop offset="1" stop-color="#780000"/></linearGradient><linearGradient x1="229.35022" y1="109.41231" x2="229.39628" y2="132.99561" gradientUnits="userSpaceOnUse" id="color-6"><stop offset="0" stop-color="#800000"/><stop offset="1" stop-color="#780000"/></linearGradient><linearGradient x1="339.60921" y1="177.88549" x2="335.1092" y2="177.89428" gradientUnits="userSpaceOnUse" id="color-7"><stop offset="0" stop-color="#797979"/><stop offset="1" stop-color="#616161"/></linearGradient><linearGradient x1="339.35921" y1="176.88598" x2="343.85922" y2="176.87718" gradientUnits="userSpaceOnUse" id="color-8"><stop offset="0" stop-color="#797979"/><stop offset="1" stop-color="#616161"/></linearGradient><radialGradient cx="266.98729" cy="179.52737" r="60.88835" gradientUnits="userSpaceOnUse" id="color-9"><stop offset="0" stop-color="#bb0000"/><stop offset="1" stop-color="#bb0000" stop-opacity="0"/></radialGradient><linearGradient x1="246.83335" y1="92.27778" x2="246.83335" y2="100.94445" gradientUnits="userSpaceOnUse" id="color-10"><stop offset="0" stop-color="#e1e1e1"/><stop offset="1" stop-color="#ffffff"/></linearGradient><linearGradient x1="246.83335" y1="258.11112" x2="246.83335" y2="266.77779" gradientUnits="userSpaceOnUse" id="color-11"><stop offset="0" stop-color="#e1e1e1"/><stop offset="1" stop-color="#ffffff"/></linearGradient><radialGradient cx="169.66669" cy="128.94445" r="5.83334" gradientUnits="userSpaceOnUse" id="color-12"><stop offset="0" stop-color="#ffffff"/><stop offset="1" stop-color="#ffffff" stop-opacity="0"/></radialGradient><radialGradient cx="169.66669" cy="132.94445" r="5.83334" gradientUnits="userSpaceOnUse" id="color-13"><stop offset="0" stop-color="#ffffff"/><stop offset="1" stop-color="#ffffff" stop-opacity="0"/></radialGradient><radialGradient cx="169.66669" cy="137.27778" r="5.83334" gradientUnits="userSpaceOnUse" id="color-14"><stop offset="0" stop-color="#ffffff"/><stop offset="1" stop-color="#ffffff" stop-opacity="0"/></radialGradient><radialGradient cx="169.66669" cy="141.27778" r="5.83334" gradientUnits="userSpaceOnUse" id="color-15"><stop offset="0" stop-color="#ffffff"/><stop offset="1" stop-color="#ffffff" stop-opacity="0"/></radialGradient><radialGradient cx="169.66669" cy="218.27778" r="5.83334" gradientUnits="userSpaceOnUse" id="color-16"><stop offset="0" stop-color="#ffffff"/><stop offset="1" stop-color="#ffffff" stop-opacity="0"/></radialGradient><radialGradient cx="169.66669" cy="222.27778" r="5.83334" gradientUnits="userSpaceOnUse" id="color-17"><stop offset="0" stop-color="#ffffff"/><stop offset="1" stop-color="#ffffff" stop-opacity="0"/></radialGradient><radialGradient cx="169.66669" cy="226.61111" r="5.83334" gradientUnits="userSpaceOnUse" id="color-18"><stop offset="0" stop-color="#ffffff"/><stop offset="1" stop-color="#ffffff" stop-opacity="0"/></radialGradient><radialGradient cx="169.66669" cy="230.61111" r="5.83334" gradientUnits="userSpaceOnUse" id="color-19"><stop offset="0" stop-color="#ffffff"/><stop offset="1" stop-color="#ffffff" stop-opacity="0"/></radialGradient><linearGradient x1="99.83336" y1="134.77778" x2="253.81689" y2="134.77778" gradientUnits="userSpaceOnUse" id="color-20"><stop offset="0" stop-color="#ffffff" stop-opacity="0"/><stop offset="1" stop-color="#ffffff"/></linearGradient><linearGradient x1="99.83336" y1="225.77778" x2="253.81689" y2="225.77778" gradientUnits="userSpaceOnUse" id="color-21"><stop offset="0" stop-color="#ffffff" stop-opacity="0"/><stop offset="1" stop-color="#ffffff"/></linearGradient></defs><g transform="translate(-99.83335,-67.18727)"><g data-paper-data="{&quot;isPaintingLayer&quot;:true}" fill-rule="nonzero" stroke-linejoin="miter" stroke-miterlimit="10" stroke-dasharray="" stroke-dashoffset="0" style="mix-blend-mode: normal"><path d="M331.55044,282.51737l-11.48137,10.63311c0,0 -18.83982,-3.09078 -35.76684,-3.15523c-9.91896,-0.03777 -11.42616,0.27576 -29.88685,0.69601c-33.56073,0.764 -86.27275,1.88072 -86.27275,1.88072l-11.93146,-14.00843l-0.03959,-53.445l164.97244,0.3223l10.50058,8.88151z" data-paper-data="{&quot;index&quot;:null}" fill="#8d0000" stroke="none" stroke-width="0" stroke-linecap="butt"/><path d="M334.55012,279.37286l-11.48136,10.63311c0,0 -18.77533,-10.06768 -32.75912,-10.12093c-3.56209,-0.01357 -8.78522,0.69043 -14.95222,1.70325c-12.42094,2.03991 -28.67076,5.33255 -42.88982,6.53823c-32.63108,2.76689 -61.32528,1.30095 -61.32528,1.30095l-11.93146,-14.00842l-0.03959,-53.44501l164.97244,0.3223l10.50058,8.88151z" data-paper-data="{&quot;index&quot;:null}" fill="url(#color-1)" stroke="none" stroke-width="0" stroke-linecap="butt"/><path d="M310.84641,271.07832l-26.66661,0.0521" fill="none" stroke="#6d6d6d" stroke-width="25" stroke-linecap="round"/><path d="M286.84644,271.1252l26.66661,-0.0521" fill="none" stroke="#808080" stroke-width="25" stroke-linecap="round"/><path d="M151.88011,82.11718l11.43973,-10.67789c0,0 16.16172,6.99919 24.18018,6.99839c10.47745,-0.00104 54.49935,-3.42845 81.00645,-4.99509c8.56152,-0.50601 12.87134,-5.8856 18.99071,-6.17024c16.93248,-0.7876 27.7502,4.15182 27.7502,4.15182l11.9861,13.9617l0.24841,53.44444l-164.97244,0.3223l-10.5352,-8.84041z" data-paper-data="{&quot;index&quot;:null}" fill="#8d0000" stroke="none" stroke-width="0" stroke-linecap="butt"/><path d="M158.88007,82.1035l11.43973,-10.67789c0,0 6.16201,1.84846 13.51688,3.03152c3.4628,0.55701 7.19001,0.96652 10.66304,0.96617c2.15491,-0.00021 4.74023,-0.31311 7.70315,-0.79836c9.46449,-1.55004 22.78193,-4.85875 38.23128,-5.35247c37.10368,-1.18573 81.81318,2.13801 81.81318,2.13801l11.9861,13.9617l0.24841,53.44444l-164.97244,0.3223l-10.5352,-8.84041z" data-paper-data="{&quot;index&quot;:null}" fill="url(#color-2)" stroke="none" stroke-width="0" stroke-linecap="butt"/><g data-paper-data="{&quot;index&quot;:null}" stroke-width="0" stroke-linecap="butt"><path d="M170.89973,109.4529l20.31525,-0.03969l0.04626,23.67868l-19.81525,0.03871l-7.30591,-6.70706l-0.02626,-10.41794z" fill="url(#color-3)" stroke="#000000"/><path d="M190.35029,109.48852l67.49987,-0.13187l0.04607,23.58328l-67.49987,0.13187z" fill="url(#color-4)" stroke="none"/></g><g data-paper-data="{&quot;index&quot;:null}" stroke-width="0" stroke-linecap="butt"><path d="M176.14973,109.44265l20.31525,-0.03969l0.04626,23.67868l-19.81525,0.03871l-7.30591,-6.70706l-0.02626,-10.41794z" fill="url(#color-5)" stroke="#000000"/><path d="M195.60026,109.47826l67.49987,-0.13187l0.04607,23.58328l-67.49987,0.13187z" fill="url(#color-6)" stroke="none"/></g><path d="M309.48882,88.06011l-26.66661,0.0521" fill="none" stroke="#6d6d6d" stroke-width="25" stroke-linecap="round"/><path d="M312.15547,88.0549l-26.66662,0.0521" fill="none" stroke="#808080" stroke-width="25" stroke-linecap="round"/><path d="M139.38133,104.28988l184.62504,-0.36069l12.94347,13.71138l0.23834,121.99977l-13.38964,13.84561l-184.12504,0.35971z" data-paper-data="{&quot;index&quot;:null}" fill="#8d0000" stroke="none" stroke-width="NaN" stroke-linecap="butt"/><path d="M149.38131,104.27035l184.62504,-0.36069l12.94347,13.71138l0.23834,121.99977l-13.38964,13.84561l-184.12504,0.35971z" data-paper-data="{&quot;index&quot;:null}" fill="#da0000" stroke="none" stroke-width="NaN" stroke-linecap="butt"/><path d="M185.77666,242.43615l-16.48201,-0.02313l-8.03358,-7.92899l-0.21197,-108.49979l8.48045,-10.01659l15.99997,-0.03126z" data-paper-data="{&quot;index&quot;:null}" fill="#ba0000" stroke="none" stroke-width="0" stroke-linecap="butt"/><path d="M191.27664,242.4254l-16.48201,-0.02313l-8.03358,-7.92899l-0.21197,-108.49979l8.48045,-10.01659l15.99997,-0.03126z" data-paper-data="{&quot;index&quot;:null}" fill="#ce0000" stroke="none" stroke-width="0" stroke-linecap="butt"/><g data-paper-data="{&quot;index&quot;:null}" stroke="none" stroke-width="0" stroke-linecap="butt"><path d="M334.99564,119.76939l4.49999,-0.00879l0.22711,116.24978l-4.49999,0.00879c0,0 2.31144,-10.5376 2.29314,-19.90874c-0.0144,-7.37048 -1.6869,-22.18093 -2.11202,-38.02357c-0.74042,-27.59315 -0.40823,-58.31747 -0.40823,-58.31747z" fill="url(#color-7)"/><path d="M343.97278,235.00207l-4.49999,0.00879c0,0 -1.06699,-34.29196 -1.10291,-52.67532c-0.01383,-7.07913 1.08964,-17.00663 1.22988,-26.91588c0.02868,-2.02637 -0.94111,-4.05199 -0.91004,-6.05232c0.2504,-16.12434 0.55596,-30.60625 0.55596,-30.60625l4.49999,-0.00879z" data-paper-data="{&quot;index&quot;:null}" fill="url(#color-8)"/></g><path d="M132.81187,132.53941l11.83332,-0.02312l0.18657,95.49982l-11.83332,0.02312c0,0 1.94111,-28.14502 1.91071,-43.7067c-0.01307,-6.69177 -2.37136,-17.66088 -2.78819,-27.071c-0.59491,-13.43038 0.69092,-24.72212 0.69092,-24.72212z" data-paper-data="{&quot;index&quot;:null}" fill="#8d0000" stroke="none" stroke-width="0" stroke-linecap="butt"/><path d="M139.81088,132.02573l10.16665,-0.01986l0.18657,95.49982l-10.16665,0.01986c0,0 1.95575,-22.65264 1.92928,-36.20087c-0.01597,-8.17596 -3.48728,-21.82531 -3.98099,-33.96882c-0.55336,-13.61095 1.86514,-25.33013 1.86514,-25.33013z" data-paper-data="{&quot;index&quot;:null}" fill="#da0000" stroke="none" stroke-width="0" stroke-linecap="butt"/><path d="M208.79354,208.3911l-0.09268,-59.7776l16.44027,-18.25448l93.99982,-0.18364l0.18853,96.49982l-93.99982,0.18364z" data-paper-data="{&quot;index&quot;:null}" fill="#ba0000" stroke="#000000" stroke-width="0" stroke-linecap="butt"/><path d="M215.79353,208.37743c0,0 2.95938,-30.19626 2.94257,-41.04447c-0.01318,-8.49818 -3.03525,-18.73313 -3.03525,-18.73313l16.44027,-18.25448c0,0 15.29549,-0.766 34.1811,0.9476c11.83679,1.07402 27.51257,4.9436 34.17564,4.93058c12.3195,-0.02407 25.64308,-6.06182 25.64308,-6.06182c0,0 -1.45195,13.89655 -0.05867,29.29986c1.13147,12.5089 5.16087,26.01151 5.17623,33.87223c0.02663,13.62885 -4.92903,33.32773 -4.92903,33.32773c0,0 -3.70911,4.01311 -9.82876,4.02506c-7.05364,0.01378 -28.31637,-6.79165 -46.03458,-7.66842c-20.94885,-1.03664 -38.13649,3.827 -38.13649,3.827z" data-paper-data="{&quot;index&quot;:null}" fill="#ce0000" stroke="#000000" stroke-width="0" stroke-linecap="butt"/><g data-paper-data="{&quot;index&quot;:null}" stroke="none" stroke-linecap="butt"><path d="M170.1101,214.05004l15.99997,-0.03126l0.04819,24.66661l-10.99998,0.02149l-5.01041,-5.32356z" fill="#616161" stroke-width="NaN"/><path d="M172.77675,214.04483l15.99997,-0.03126c0,0 -2.98397,8.20555 -2.97594,12.31331c0.00804,4.11443 3.02413,12.3533 3.02413,12.3533l-10.99998,0.02149l-5.01041,-5.32356z" fill="#808080" stroke-width="NaN"/></g><g data-paper-data="{&quot;index&quot;:null}" stroke="none" stroke-linecap="butt"><path d="M169.60483,126.05085l4.98957,-5.34309l10.99998,-0.02149l0.04819,24.66662l-15.99997,0.03126z" fill="#616161" stroke-width="NaN"/><path d="M172.27152,126.04564l4.98957,-5.34309l10.99998,-0.02149l0.04819,24.66662l-15.99997,0.03126c0,0 3.98147,-10.48333 3.97451,-14.04714c-0.00483,-2.47371 -4.01228,-5.28616 -4.01228,-5.28616z" fill="#808080" stroke-width="NaN"/></g><path d="M323.48717,179.41698c0.05988,30.65174 -25.18744,55.54931 -56.39147,55.61027c-31.20403,0.06096 -56.54844,-24.73777 -56.60832,-55.38951c-0.05988,-30.65174 25.18744,-55.54931 56.39147,-55.61027c31.20403,-0.06096 56.54844,24.73777 56.60832,55.38951z" data-paper-data="{&quot;index&quot;:null}" fill="url(#color-9)" stroke="none" stroke-width="NaN" stroke-linecap="butt"/><path d="M149.75716,104.50626l185.49965,-0.3624l10.02245,11.48044l-123.49976,0.24127l-19.95698,22.03903l0.20876,-21.91325l-40.75083,0.0116l-11.4764,12.50325z" data-paper-data="{&quot;index&quot;:null}" fill="#ffffff" stroke="none" stroke-width="NaN" stroke-linecap="butt"/><path d="M150.00232,230.006l11.52517,12.45831l40.75056,-0.14761l-0.29438,-21.91227l20.04294,21.96089l123.49976,-0.24127l-9.97751,11.51951l-185.49965,0.3624z" data-paper-data="{&quot;index&quot;:null}" fill="#ffffff" stroke="none" stroke-width="NaN" stroke-linecap="butt"/><path d="M302.12829,155.1239c0,0 -0.67043,-2.01129 1.07566,-2.94692c-0.06665,-0.52222 -0.13056,-1.04466 -0.18866,-1.56758c0,0 -0.27608,-2.48471 2.20863,-2.76079c2.48471,-0.27608 2.76079,2.20863 2.76079,2.20863c0.39269,3.53422 0.72484,6.91335 0.82923,10.31432c0.24737,1.03995 0.47421,2.08452 0.68021,3.13252l0.45939,2.3495c0,0 0.40134,2.0526 -1.40757,2.77006c-0.00586,0.05711 -0.01182,0.11426 -0.01786,0.17145l-4.23754,1.90993c0,0 -0.57024,0.19008 -1.2447,0.10422c-0.02664,0.34422 -0.04958,0.68725 -0.04585,1.02407c0.06059,5.46605 -0.93941,9.04046 -2.37338,14.31432c-9.24658,8.31401 -19.74746,15.40145 -29.74409,22.68417c-4.15501,3.027 -8.93964,7.26793 -14.67607,7.08238c-3.37147,-0.10905 -6.27049,-1.86355 -8.6728,-4.30355c-2.78789,0.98388 -4.80195,-0.01499 -7.78829,-0.89392l-2.01315,-1.61563c0,0 -1.76777,-1.76777 0,-3.53553c1.76777,-1.76777 3.53553,0 3.53553,0l-0.01315,0.38437c0.75407,0.26395 1.663,0.67426 2.59641,0.89669c-1.05933,-1.69874 -1.9449,-3.44077 -2.6519,-5.03564c-0.9481,-2.13874 -0.76391,-4.70666 -1.88309,-6.76105c-2.40091,-4.40715 -7.0058,-7.2002 -9.40887,-11.67786c-0.09147,-0.18322 -0.18921,-0.36443 -0.29122,-0.54426c-0.07362,0.00551 -0.11594,0.00551 -0.11594,0.00551h-2c-1.3189,-0.06343 -2.73048,0.29949 -3.95671,-0.1903c-1.15135,-0.45988 -1.87722,-1.62269 -2.76046,-2.49274c-1.13365,-1.11673 -3.03391,-1.89198 -3.28576,-3.46322c-1.08117,-6.74509 5.29467,-8.43793 6.5698,-13.92812c0.28854,-1.24234 -0.2541,-2.56969 -0.0346,-3.82607c1.08221,-6.19432 4.54816,-13.84443 10.51101,-16.90924c1.17438,-0.60361 2.63781,-0.12687 3.95671,-0.1903c0,0 2.5,0 2.5,2.5c0,2.5 -2.5,2.5 -2.5,2.5c-0.6811,-0.06343 -1.45362,-0.53701 -2.04329,-0.1903c-1.1631,0.68387 -1.78749,2.02275 -2.72448,2.9936c-5.30951,5.50139 -3.26065,12.89923 -7.12639,19.04408c-0.41872,0.66558 -4.56972,4.85649 -4.29206,6.66494c0.11304,0.73624 1.33642,0.68762 1.90339,1.17071c0.49513,0.42189 0.63582,1.26507 1.23954,1.50726c0.56703,0.22747 1.20783,-0.0526 1.82357,-0.16024c-0.54625,-4.41251 1.92627,-9.3526 4.11798,-13.67144c0.02619,-3.47913 0.53238,-7.0019 1.73003,-10.6492c0,0 0.79057,-2.37171 3.16228,-1.58114c0.91324,0.30441 1.35762,0.84326 1.5588,1.39087c1.66944,-0.94249 3.64833,-1.53318 5.24677,-2.58777c5.83043,-3.84669 9.76178,-8.1139 17.05713,-9.40723c2.31506,-0.41042 4.69111,-0.14959 7.05086,-0.05455c0.71612,-1.83507 2.78616,-1.42106 2.78616,-1.42106c6.68476,1.33791 13.26665,3.06026 19.8738,4.73666l2.83166,1.5193c0,0 2.19549,1.19575 0.99975,3.39124c-1.19575,2.19549 -3.39124,0.99975 -3.39124,0.99975l-2.25619,-1.25174c-0.11765,-0.02884 -0.23529,-0.05772 -0.35292,-0.08663c1.0057,0.88792 1.97887,1.81975 3.11919,2.51624c1.05571,0.64481 2.59385,0.46924 3.45344,1.35886c0.95223,0.9855 0.97836,2.56192 1.54194,3.81106c1.51701,3.36235 4.42553,6.24259 6.22395,9.43733c0.36156,-0.24759 0.67577,-0.35233 0.67577,-0.35233l1.76246,-0.09007c-0.39522,-1.2883 -0.43635,-2.64551 -0.43907,-4.00768c-0.52803,-2.27515 -1.16421,-4.52688 -1.90454,-6.73997z" fill="#ba0000" stroke="none" stroke-width="0.5" stroke-linecap="butt"/><path d="M254.39146,193.35277c-0.19299,0.07635 -0.42415,0.12207 -0.70104,0.12207c-1.67671,0 -1.67671,-1.6767 -1.67671,-1.6767l0.11151,0.00803c-0.07752,-0.15829 -0.13168,-0.33946 -0.14247,-0.54353c-0.83682,-0.69683 -1.59956,-1.49568 -2.52725,-2.0623c-0.70804,-0.43247 -1.73965,-0.31471 -2.31616,-0.91137c-0.63865,-0.66096 -0.65616,-1.71824 -1.03415,-2.55602c-1.20017,-2.6601 -3.69895,-4.87027 -4.74242,-7.50746c-0.30967,-0.78263 -0.07066,-1.68213 -0.07999,-2.52374c-0.04064,-3.66599 0.63005,-6.06329 1.59178,-9.60038c6.20153,-5.57606 13.24428,-10.32949 19.94886,-15.21389c2.7867,-2.03016 5.99567,-4.87447 9.843,-4.75003c4.89505,0.15833 8.30513,5.48843 10.06519,9.45878c0.63587,1.43442 0.51234,3.15668 1.26296,4.53452c1.61026,2.9558 4.69868,4.82906 6.31037,7.83214c0.57628,1.15433 1.52357,2.18923 1.72884,3.46298c0.63085,3.9146 -2.42955,8.49211 -3.95914,11.91433c-0.52873,1.18295 -0.81459,2.51549 -1.61075,3.53777c-1.19027,1.52833 -3.38765,1.88734 -5.00458,2.95413c-3.91037,2.57991 -6.54706,5.44185 -11.43993,6.30927c-1.83737,0.32573 -3.73202,0.02105 -5.59803,0.01621c-2.72293,-0.00706 -3.4054,0.31388 -5.6685,-0.63108c-0.07324,-0.03059 -2.65797,-1.32202 -4.36139,-2.17373z" data-paper-data="{&quot;index&quot;:null}" fill="#aa0000" stroke="none" stroke-width="0.5" stroke-linecap="butt"/><path d="M301.17882,200.7618c-0.92848,-2.32119 1.39272,-3.24967 1.39272,-3.24967l0.35762,-0.14305c2.21395,-0.87831 5.29348,-0.90031 6.50855,-2.94888c0.55987,-0.94392 0.32123,-2.17227 0.53719,-3.24828c1.84275,-9.18135 0.27635,-17.78847 -0.95295,-27.0082c0,0 -0.33041,-2.47807 2.14766,-2.80848c2.47807,-0.33041 2.80848,2.14766 2.80848,2.14766c1.29031,9.6773 3.18077,19.11314 0.87775,28.75367c-0.39924,1.67124 -0.34051,3.5601 -1.29351,4.98985c-1.52848,2.29313 -6.57161,3.87665 -8.77621,4.76503l-0.35762,0.14305c0,0 -2.32119,0.92848 -3.24967,-1.39272z" fill="#ca0000" stroke="none" stroke-width="0.5" stroke-linecap="butt"/><path d="M294.00001,214.83333c0,2.5 -2.5,2.5 -2.5,2.5l-1.99856,-0.20809c-2.54207,-1.10974 -5.16015,-2.04441 -7.79201,-2.92021c0,0 -2.37171,-0.79057 -1.58114,-3.16228c0.79057,-2.37171 3.16228,-1.58114 3.16228,-1.58114c2.77185,0.92545 5.52818,1.91439 8.20799,3.07979l0.00144,-0.20809c0,0 2.5,0 2.5,2.5z" fill="#ca0000" stroke="none" stroke-width="0.5" stroke-linecap="butt"/><path d="M226.28377,153.99014c-1.15681,-2.21625 1.05944,-3.37307 1.05944,-3.37307l2.58853,-1.17567c1.02353,-2.86721 2.11642,-5.70988 3.24709,-8.53656c0,0 0.92848,-2.32119 3.24967,-1.39272c2.32119,0.92848 1.39272,3.24967 1.39272,3.24967c-1.34557,3.36393 -2.74648,6.70589 -4.18072,10.03298l-3.98366,2.2548c0,0 -2.21625,1.15681 -3.37307,-1.05944z" fill="#c70000" stroke="none" stroke-width="0.5" stroke-linecap="butt"/><path d="M260.84632,219.9703c0.86302,2.34631 -1.48329,3.20934 -1.48329,3.20934l-0.32728,0.12038c-1.11871,0.41149 -9.77172,3.66576 -10.48288,3.59475c-2.0161,-0.20131 -5.91246,-3.33633 -7.8723,-4.8255c-0.38196,-0.29023 -8.0733,-6.12909 -8.24828,-6.31113c-0.17607,-0.18317 -5.70443,-8.09698 -5.98036,-8.49116c0,0 -1.43366,-2.04808 0.61442,-3.48174c2.04808,-1.43366 3.48174,0.61442 3.48174,0.61442c1.83781,2.62545 3.26799,5.58304 5.48889,7.89348c2.2209,2.31044 5.12063,3.8551 7.67048,5.79643c0.68011,0.5178 4.89762,3.79186 5.31462,3.82726c1.30473,0.11075 2.37895,-1.0978 3.595,-1.58339c1.54782,-0.61808 3.12842,-1.1507 4.69263,-1.72605l0.32728,-0.12038c0,0 2.34631,-0.86302 3.20934,1.48329z" fill="#c70000" stroke="none" stroke-width="0.5" stroke-linecap="butt"/><path d="M311.26779,200.06556c1.76777,1.76777 0,3.53553 0,3.53553l-0.46447,0.46447c-3.43221,3.43061 -6.83586,7.30642 -11.50546,9.12152c-1.68389,0.65453 -3.53836,0.7318 -5.30755,1.0977c0,0 -2.45145,0.49029 -2.94174,-1.96116c-0.49029,-2.45145 1.96116,-2.94174 1.96116,-2.94174c1.49942,-0.28782 3.06952,-0.32513 4.49826,-0.86346c3.87459,-1.45988 6.94651,-5.17376 9.7598,-7.98839l0.46447,-0.46447c0,0 1.76777,-1.76777 3.53553,0z" fill="#c70000" stroke="none" stroke-width="0.5" stroke-linecap="butt"/><path d="M324.26779,193.6011c-1.76777,1.76777 -3.53553,0 -3.53553,0l-1.4683,-1.64973c-2.89931,-5.84378 -4.0732,-12.14457 -6.13564,-18.32746c0,0 -0.79057,-2.37171 1.58114,-3.16228c2.37171,-0.79057 3.16228,1.58114 3.16228,1.58114c1.97612,5.93247 3.05002,12.09269 5.86436,17.67254l0.5317,0.35027c0,0 1.76777,1.76777 0,3.53553z" fill="#c70000" stroke="none" stroke-width="0.5" stroke-linecap="butt"/><path d="M310.72162,166.32349c-2.49016,0.2216 -2.71176,-2.26856 -2.71176,-2.26856l-0.03093,-0.92497c-1.48309,-4.94365 -2.94744,-9.11411 -2.97891,-14.29663c0,0 0,-2.5 2.5,-2.5c2.5,0 2.5,2.5 2.5,2.5c-0.03392,4.65594 1.43279,8.40905 2.76804,12.85989l0.22211,1.91851c0,0 0.2216,2.49016 -2.26856,2.71176z" fill="#c70000" stroke="none" stroke-width="0.5" stroke-linecap="butt"/><path d="M200.50002,189.33333c-2.5,0 -2.5,-2.5 -2.5,-2.5v-3c0.0063,-3.71165 -0.73933,-7.13541 -0.99517,-10.84466c-0.18268,-2.64861 0.17955,-5.31572 0.00245,-7.96472c-0.28414,-4.25004 -1.33084,-8.60258 -1.97821,-12.81048c0,0 -0.38014,-2.47093 2.09079,-2.85107c2.47093,-0.38014 2.85107,2.09079 2.85107,2.09079c0.66715,4.33648 1.72467,8.80926 2.02179,13.18952c0.18127,2.67229 -0.18313,5.36329 0.00245,8.03528c0.26413,3.8029 0.99899,7.33887 1.00483,11.15534v3c0,0 0,2.5 -2.5,2.5z" fill="#cf0000" stroke="none" stroke-width="0.5" stroke-linecap="butt"/><path d="M267.99996,236.84993c-0.0166,2.49994 -2.51654,2.48335 -2.51654,2.48335l-3.0811,-0.02046c-11.66628,-0.07878 -23.70484,-0.3606 -35.25586,-2.00462c0,0 -2.47487,-0.35355 -2.12132,-2.82843c0.35355,-2.47487 2.82843,-2.12132 2.82843,-2.12132c11.32287,1.62385 23.14472,1.87987 34.58195,1.95447l3.0811,0.02046c0,0 2.49994,0.0166 2.48335,2.51654z" fill="#cf0000" stroke="none" stroke-width="0.5" stroke-linecap="butt"/><path d="M146.21119,189.31659c-2.48326,-0.28883 -2.19443,-2.77209 -2.19443,-2.77209l0.49479,-4.25402c0.72312,-6.20619 1.88761,-13.23285 1.45559,-19.47884c-0.22265,-3.21899 -1.28577,-6.324 -1.91857,-9.48802c0,0 -0.49029,-2.45145 1.96116,-2.94174c2.45145,-0.49029 2.94174,1.96116 2.94174,1.96116c0.07916,0.39578 1.98919,9.91312 2.00375,10.12359c0.45327,6.55335 -0.72126,13.89132 -1.47716,20.4015l-0.49479,4.25402c0,0 -0.28883,2.48326 -2.77209,2.19443z" fill="#cf0000" stroke="none" stroke-width="0.5" stroke-linecap="butt"/><path d="M276.99812,128.93075c-0.09742,2.4981 -2.59552,2.40068 -2.59552,2.40068l-3.09505,-0.12258c-4.86915,-0.56851 -10.65902,-0.51587 -15.37459,-1.82914c-3.16514,-0.88148 -5.75108,-3.40748 -8.9622,-4.10304c-1.45659,-0.31551 -2.9805,0.03778 -4.47075,0.05666c0,0 -2.5,0 -2.5,-2.5c0,-2.5 2.5,-2.5 2.5,-2.5c1.84308,0.01889 3.72785,-0.33354 5.52925,0.05666c3.77112,0.81686 5.63094,3.16648 9.24513,4.17302c4.41443,1.22941 9.86329,1.12525 14.42171,1.66096l2.90133,0.11126c0,0 2.4981,0.09742 2.40068,2.59552z" fill="#cf0000" stroke="none" stroke-width="0.5" stroke-linecap="butt"/><path d="M329.50001,147.33333c-2.5,0 -2.5,-2.5 -2.5,-2.5v-1c0,-3.99763 -0.05894,-8.00252 0,-12c0.02102,-1.42547 0.43857,-2.88894 0.10727,-4.27554c-0.22334,-0.93472 -1.12493,-1.55847 -1.6874,-2.33771c0,0 -1.38675,-2.08013 0.69338,-3.46688c2.08013,-1.38675 3.46688,0.69338 3.46688,0.69338c0.77087,1.22076 1.95219,2.26422 2.3126,3.66229c0.47643,1.84807 0.08381,3.81612 0.10727,5.72446c0.04916,3.99825 0,8.00165 0,12v1c0,0 0,2.5 -2.5,2.5z" fill="#cf0000" stroke="none" stroke-width="0.5" stroke-linecap="butt"/><path d="M289.00001,226.83333c0,-2.5 2.5,-2.5 2.5,-2.5l1.1727,0.00597c6.34471,0.43935 12.6428,0.96016 18.69466,3.14932c5.31882,1.92399 10.50015,4.16532 15.9232,5.973c0,0 2.37171,0.79057 1.58114,3.16228c-0.79057,2.37171 -3.16228,1.58114 -3.16228,1.58114c-5.47448,-1.82483 -10.71122,-4.0721 -16.0768,-6.027c-5.58823,-2.03602 -11.44635,-2.44497 -17.30534,-2.85068l-0.8273,0.00597c0,0 -2.5,0 -2.5,-2.5z" fill="#cf0000" stroke="none" stroke-width="0.5" stroke-linecap="butt"/><path d="M196.98857,266.59437c0.23896,2.48855 -2.2496,2.72751 -2.2496,2.72751l-2.99288,0.28671c-5.19288,0.7203 -8.18913,-0.01964 -13.30556,-0.27598c-4.12658,-0.20674 -8.63342,0.67678 -12.74879,0.99334c0,0 -2.49264,0.19174 -2.68438,-2.30089c-0.19174,-2.49264 2.30089,-2.68438 2.30089,-2.68438c4.29247,-0.33019 8.94469,-1.20902 13.25121,-1.00666c5.10877,0.24007 7.51749,1.05855 12.59394,0.30981l3.10763,-0.29907c0,0 2.48855,-0.23896 2.72751,2.2496z" fill="#cf0000" stroke="none" stroke-width="0.5" stroke-linecap="butt"/><path d="M260.73609,277.95136c-1.11803,2.23607 -3.3541,1.11803 -3.3541,1.11803l-3.45635,-1.80295c-1.37161,-0.01 -2.80577,0.37963 -4.11482,-0.03c-5.38134,-1.68392 -10.6484,-6.93019 -14.91125,-10.48257c0,0 -1.92055,-1.60046 -0.32009,-3.52101c1.60046,-1.92055 3.52101,-0.32009 3.52101,-0.32009c3.39951,2.83292 6.24439,5.07014 9.96453,7.45055c1.05179,0.67301 1.92514,1.71844 3.12422,2.06688c1.24365,0.3614 2.59012,-0.02 3.88518,-0.03l4.54365,2.19705c0,0 2.23607,1.11803 1.11803,3.3541z" fill="#cf0000" stroke="none" stroke-width="0.5" stroke-linecap="butt"/><path d="M255.00002,74.83333c0,2.5 -2.5,2.5 -2.5,2.5l-1.53394,-0.04383c-7.83398,1.48649 -15.49272,4.01568 -23.46606,4.04383c0,0 -2.5,0 -2.5,-2.5c0,-2.5 2.5,-2.5 2.5,-2.5c7.60638,0.03035 15.05037,-2.53618 22.53394,-3.95617l2.46606,-0.04383c0,0 2.5,0 2.5,2.5z" fill="#cf0000" stroke="none" stroke-width="0.5" stroke-linecap="butt"/><path d="M228.00002,95.83333c0,2.5 -2.5,2.5 -2.5,2.5h-5c-0.74192,0 -10.21189,0.02253 -10.61117,-0.07586c-4.33105,-1.0672 -9.70168,-5.06217 -13.61147,-7.24351c-4.18483,-2.3348 -8.92937,-6.85955 -13.77736,-6.68063c0,0 -2.5,0 -2.5,-2.5c0,-2.5 2.5,-2.5 2.5,-2.5c5.20033,0.12336 8.47609,2.79988 12.89747,5.37926c3.97972,2.32172 8.05471,4.44301 12.09249,6.66056c1.21378,0.66661 2.27612,1.70687 3.62121,2.03604c3.04001,0.74394 6.25912,-0.07586 9.38883,-0.07586h5c0,0 2.5,0 2.5,2.5z" fill="#cf0000" stroke="none" stroke-width="0.5" stroke-linecap="butt"/><path d="M298.93015,93.42024c-0.58692,2.43013 -3.01705,1.84321 -3.01705,1.84321l-3.1433,-0.76305c-3.31235,-1.20338 -6.53004,-2.71691 -9.55603,-4.52335c0,0 -2.14373,-1.28624 -0.85749,-3.42997c1.28624,-2.14373 3.42997,-0.85749 3.42997,-0.85749c2.66402,1.60732 5.49515,2.96933 8.42285,4.02245l2.87782,0.69115c0,0 2.43013,0.58692 1.84321,3.01705z" fill="#848484" stroke="none" stroke-width="0.5" stroke-linecap="butt"/><path d="M318.73609,91.95136c-1.11803,2.23607 -3.3541,1.11803 -3.3541,1.11803c-2.66667,-1.33333 -7.33333,-3.66667 -10,-5c0,0 -2.23607,-1.11803 -1.11803,-3.3541c1.11803,-2.23607 3.3541,-1.11803 3.3541,-1.11803c2.66667,1.33333 5.33333,2.66667 8,4l2,1c0,0 2.23607,1.11803 1.11803,3.3541z" fill="#848484" stroke="none" stroke-width="0.5" stroke-linecap="butt"/><path d="M274.01613,274.11671c-0.28338,-2.48389 2.20051,-2.76727 2.20051,-2.76727l0.3277,0.15492c4.50055,-2.5003 8.34399,-4.8194 13.34934,-6.09639c0,0 2.42536,-0.60634 3.0317,1.81902c0.60634,2.42536 -1.81902,3.0317 -1.81902,3.0317c-4.5673,1.11446 -8.03068,3.33695 -12.1338,5.61647l-2.18915,0.44206c0,0 -2.48389,0.28338 -2.76727,-2.20051z" fill="#848484" stroke="none" stroke-width="0.5" stroke-linecap="butt"/><path d="M296.12829,277.6239c-0.79057,-2.37171 1.58114,-3.16228 1.58114,-3.16228l1.25658,-0.41886c1.00515,-0.33225 6.75304,-1.96049 7.79254,-3.20981c0.89053,-1.07028 0.94684,-2.61873 1.42026,-3.92809c0,0 0.92848,-2.32119 3.24967,-1.39272c2.32119,0.92848 1.39272,3.24967 1.39272,3.24967c-0.76455,1.78556 -1.01535,3.89425 -2.29365,5.35667c-2.11534,2.42003 -7.11142,3.70411 -9.98039,4.6677l-1.25658,0.41886c0,0 -2.37171,0.79057 -3.16228,-1.58114z" fill="#848484" stroke="none" stroke-width="0.5" stroke-linecap="butt"/><path d="M265.00001,221.33333c0,2.5 -2.5,2.5 -2.5,2.5h-4c-8.00868,-0.04294 -16.83843,-2.71336 -23.46178,-7.47189c-0.21314,-0.15313 -6.9957,-6.95005 -7.30599,-7.26034c0,0 -1.76777,-1.76777 0,-3.53553c1.76777,-1.76777 3.53553,0 3.53553,0c2.23896,2.23896 4.122,4.89287 6.69401,6.73966c5.73434,4.11746 13.59429,6.57143 20.53822,6.52811h4c0,0 2.5,0 2.5,2.5z" fill="#ba0000" stroke="none" stroke-width="0.5" stroke-linecap="butt"/><path d="M309.79119,189.19257c2.14076,1.29118 0.84958,3.43194 0.84958,3.43194l-0.20853,0.34575c-0.34449,0.57116 -5.25061,8.74103 -5.50108,9.00222c-3.25786,3.39725 -9.11831,6.08797 -13.1449,8.50458c0,0 -2.14373,1.28624 -3.42997,-0.85749c-1.28624,-2.14373 0.85749,-3.42997 0.85749,-3.42997c3.6373,-2.18177 9.15964,-4.60273 12.10859,-7.67784c2.18035,-2.27364 3.2014,-5.42639 4.82836,-8.12386l0.20853,-0.34575c0,0 1.29118,-2.14076 3.43194,-0.84958z" fill="#ba0000" stroke="none" stroke-width="0.5" stroke-linecap="butt"/><path d="M268.98406,186.61538c-0.28206,2.48404 -2.76609,2.20198 -2.76609,2.20198l-2.67305,-0.91646c-2.32323,-2.53054 -5.43402,-5.42897 -6.58554,-8.80976c-0.12291,-0.36085 -0.89211,-9.84705 -0.95071,-10.55021c0,0 -0.20761,-2.49136 2.28375,-2.69898c2.49136,-0.20761 2.69898,2.28375 2.69898,2.28375c0.26042,3.12502 -0.26067,6.39893 0.7102,9.38071c0.72364,2.22247 4.09587,5.46772 5.51975,7.00569l-0.43926,-0.66282c0,0 2.48404,0.28206 2.20198,2.76609z" fill="#a40000" stroke="none" stroke-width="0.5" stroke-linecap="butt"/><path d="M271.3719,179.56432c-2.231,-1.12812 -1.10287,-3.35912 -1.10287,-3.35912l1.12122,-2.15739c0.84873,-4.9771 2.26561,-9.60085 3.71521,-14.43285c0,0 0.71837,-2.39457 3.11294,-1.6762c2.39457,0.71837 1.6762,3.11294 1.6762,3.11294c-1.4662,4.88734 -2.85517,9.54625 -3.7596,14.57327l-1.40397,2.83648c0,0 -1.12812,2.231 -3.35912,1.10287z" fill="#a40000" stroke="none" stroke-width="0.5" stroke-linecap="butt"/><path d="M255.26779,188.1011c-1.76777,1.76777 -3.53553,0 -3.53553,0l-3.58734,-3.92903c0.19001,-5.45264 0.68749,-9.00093 3.11904,-13.95677c0,0 1.11803,-2.23607 3.3541,-1.11803c2.23607,1.11803 1.11803,3.3541 1.11803,3.3541c-0.69039,1.35024 -1.64858,2.59429 -2.07116,4.05073c-0.56167,1.93582 -0.28883,4.04533 -0.80981,5.99249l2.41266,2.07097c0,0 1.76777,1.76777 0,3.53553z" fill="#a40000" stroke="none" stroke-width="0.5" stroke-linecap="butt"/><path d="M247.23438,199.13389c-1.80056,1.73436 -3.53491,-0.0662 -3.53491,-0.0662l-3.44459,-3.72251c-1.25279,-5.97012 -0.84284,-10.2567 -0.24245,-16.26061c0,0 0.24876,-2.48759 2.73635,-2.23883c2.48759,0.24876 2.23883,2.73635 2.23883,2.73635c-0.47342,4.73422 -1.13157,8.75934 -0.29918,13.45146l2.61215,2.56542c0,0 1.73436,1.80056 -0.0662,3.53491z" fill="#a40000" stroke="none" stroke-width="0.5" stroke-linecap="butt"/><path d="M292.46387,184.78631c1.54702,1.96386 -0.41683,3.51088 -0.41683,3.51088l-2.43169,1.91555c-1.54154,1.1604 -2.81647,2.80783 -4.62463,3.48121c-1.67052,0.62212 -3.59655,-0.12726 -5.34283,0.23079c-1.48909,0.30531 -2.81293,1.15319 -4.2194,1.72978c0,0 -2.32119,0.92848 -3.24967,-1.39272c-0.92848,-2.32119 1.39272,-3.24967 1.39272,-3.24967c1.68846,-0.66137 3.28995,-1.61508 5.06537,-1.98412c1.51879,-0.3157 3.18849,0.4736 4.65361,-0.03612c1.32695,-0.46165 2.15386,-1.80458 3.23079,-2.70687l2.43169,-1.91555c0,0 1.96386,-1.54702 3.51088,0.41683z" fill="#a40000" stroke="none" stroke-width="0.5" stroke-linecap="butt"/><path d="M307.98517,94.88086c1.09543,0.20373 2.2113,-0.36397 3.25894,-0.74333c0.64067,-0.23199 0.89443,-0.7921 0.9302,-1.43721l-2.95046,0.06952l-1.64371,1.97245c0.12686,0.0638 0.26099,0.11178 0.40503,0.13857zM302.04576,90.83333c0.24341,0.56259 0.50183,1.11342 0.95426,1.4976v-1.4976zM304.51309,80.68186c2.1164,-4.05445 6.43108,-3.74371 8.29662,0.69476c0.52683,1.25342 0.61606,2.65397 0.49571,4.05155c0.7217,0.27256 1.39401,0.65051 1.96236,1.13739c1.18637,1.01631 1.43029,2.8286 1.69995,4.36731c1.07632,6.14149 -4.13446,9.41922 -9.95288,8.85293c-1.40462,-0.13671 -2.34773,-1.58203 -3.61322,-2.20668c-1.09617,-0.54107 -2.51713,-0.47121 -3.43882,-1.27424c-1.89727,-1.653 -5.14208,-8.30582 -4.91175,-10.47422c0.38336,-3.60897 5.89672,-5.29118 9.46202,-5.1488z" fill="#6e6e6e" stroke="none" stroke-width="0.5" stroke-linecap="butt"/><path d="M308.26779,92.1011c-0.16637,0.16637 -0.33274,0.30142 -0.49764,0.40958c0.17158,0.21859 0.36409,0.40319 0.62258,0.48747c1.21952,0.39761 3.58291,0.64309 3.79759,-0.62153c0.28377,-1.67161 0.34884,-3.42733 0,-5.08658c-0.17519,-0.83331 -2.92653,-1.4736 -3.09076,-1.48899c-0.3487,-0.03268 -0.90802,-0.03905 -1.57609,-0.03242c0.28133,0.36272 0.47654,0.8661 0.47654,1.5647c0,0.32981 -0.04351,0.61611 -0.11905,0.86465l0.38682,0.36759c0,0 1.76777,1.76777 0,3.53553zM300.16602,85.4739c0.06616,0.05606 0.10177,0.09166 0.10177,0.09166c0.08238,0.08254 0.16511,0.16471 0.24817,0.24654c0.05313,-0.06919 0.1098,-0.13552 0.16973,-0.19872c-0.17585,-0.06166 -0.35006,-0.11772 -0.51968,-0.13948zM300.55337,92.65458c-0.89674,0.36618 -1.84394,0.05045 -1.84394,0.05045l-4.23754,-1.90993c-0.29309,-4.16879 -1.58719,-6.80063 2.84846,-9.66596c1.17321,-0.75786 2.78413,-0.23832 4.17964,-0.29581c4.6961,-0.19349 13.04678,-1.2294 15.3097,4.54329c0.60345,1.5394 0.1903,3.30326 0.1903,4.95671c0,1.32043 0.38566,2.76852 -0.1903,3.95671c-2.06255,4.25499 -5.96839,4.37621 -10.20241,3.37847c-1.18099,-0.2783 -1.87443,-1.54122 -2.81829,-2.30366c-1.0939,-0.88363 -2.17529,-1.78503 -3.23563,-2.71027z" fill="#616161" stroke="none" stroke-width="0.5" stroke-linecap="butt"/><path d="M302.19455,96.8146c-1.20439,-0.18442 -2.52784,0.30015 -3.65125,-0.17157c-0.57934,-0.24326 -4.1052,-3.83607 -4.81106,-4.54193c0,0 -0.94626,-0.94626 -0.76184,-2.14646c-0.38036,-0.88496 -0.50401,-1.92092 -0.8421,-2.83074c0,0 -0.27559,-0.82678 -0.01319,-1.66676c-0.26843,-0.15208 -0.48928,-0.36513 -0.6432,-0.66204c-3.08412,-5.94905 2.7179,-6.79689 5.62765,-7.92949c2.46678,-0.0181 4.9361,-0.14295 7.40046,-0.03228c1.77402,0.07967 3.86135,-0.64758 5.31433,0.37337c1.50618,1.05833 2.19992,2.9563 2.83072,4.74275c0.24627,-0.07374 0.52942,-0.11613 0.85495,-0.11613c2.5,0 2.5,2.5 2.5,2.5l-0.12829,0.20943c0.24554,0.80539 0.50607,1.60605 0.77668,2.40343l1.61938,1.61938c0.45241,0.45241 0.73223,1.07741 0.73223,1.76777c0,1.20135 -0.84738,2.20479 -1.97704,2.44522c0.0033,0.21881 -0.00475,0.43588 -0.0248,0.65072c-0.17305,1.85481 -0.64583,4.22951 -2.29514,5.09557c-1.64035,0.86136 -3.67052,-0.20795 -5.51114,-0.69644c-2.3526,-0.06144 -4.66855,-0.65722 -6.99734,-1.0138zM309.50001,92.83333h2.40774c-0.15532,-0.77249 -0.20744,-1.58336 -0.58324,-2.26825c-0.18751,-0.34173 -0.54529,-0.79211 -0.99826,-1.28152c-0.79618,-0.48147 -1.55134,-1.00031 -2.03043,-1.77058c-0.02687,-0.0432 -0.0485,-0.10863 -0.06604,-0.19309c-0.93403,-0.76944 -1.86022,-1.40097 -2.45423,-1.59382c-2.32424,-0.75457 -6.24921,0.27224 -8.82944,0.14324c0.12987,0.67224 0.15688,1.39228 0.54067,1.94655c1.36157,1.96637 2.50326,0.68272 4.41369,1.04977c1.35432,0.2602 2.71316,0.66274 3.91387,1.34109c1.18964,0.67209 2.32657,1.75605 3.57973,2.62684c0.0353,0.0001 0.07062,0.00004 0.10594,-0.00021z" fill="#787878" stroke="none" stroke-width="0.5" stroke-linecap="butt"/><path d="M296.26394,85.21529c1.11803,-2.23607 3.3541,-1.11803 3.3541,-1.11803l0.88197,0.73607c5.46441,0 14.89096,-1.72248 13.46772,6.90046c-0.27379,1.65879 -0.60356,3.70036 -2.00594,4.62765c-4.6506,3.07511 -5.26528,-0.20849 -7.92355,-2c-1.39063,-0.9372 -3.50738,-0.98769 -4.42686,-2.3901c-0.57105,-0.87097 -1.15224,-1.97865 -1.43938,-3.08169l-0.79002,-0.32024c0,0 -2.23607,-1.11803 -1.11803,-3.3541zM307.83495,89.80306c-0.20311,0.03027 -0.33494,0.03027 -0.33494,0.03027c-0.43161,0 -0.85017,0.0247 -1.25674,0.04436c0.24542,0.13259 0.48545,0.27447 0.71852,0.42753c0.80327,0.52752 1.62796,2.84992 2.07645,2c0.21349,-0.40458 -0.08382,-0.92157 -0.00594,-1.37235c0.06922,-0.40065 0.69819,-0.824 0.43961,-1.13777c-0.29093,-0.35302 -0.91491,0.00243 -1.37235,0.00594c-0.0882,0.00068 -0.17641,0.00135 -0.26461,0.00201z" fill="#676767" stroke="none" stroke-width="0.5" stroke-linecap="butt"/><path d="M310.87172,89.1239c-0.79057,2.37171 -3.16228,1.58114 -3.16228,1.58114l-3,-1c0,0 -2.37171,-0.79057 -1.58114,-3.16228c0.79057,-2.37171 3.16228,-1.58114 3.16228,-1.58114l3,1c0,0 2.37171,0.79057 1.58114,3.16228z" fill="#535353" stroke="none" stroke-width="0.5" stroke-linecap="butt"/><path d="M311.1919,261.67748c1.84062,-0.48849 3.8708,-1.5578 5.51114,-0.69645c1.64931,0.86606 2.12208,3.24076 2.29513,5.09558c0.02004,0.21484 0.0281,0.43191 0.0248,0.65072c1.12966,0.24043 1.97704,1.24386 1.97704,2.44522c0,0.69036 -0.27983,1.31536 -0.73224,1.76777l-1.61937,1.61937c-0.27062,0.79737 -0.53114,1.59803 -0.77668,2.40343l0.12829,0.20943c0,0 0,2.5 -2.5,2.5c-0.32553,0 -0.60867,-0.04239 -0.85495,-0.11613c-0.6308,1.78645 -1.32454,3.68442 -2.83072,4.74275c-1.45298,1.02095 -3.54031,0.2937 -5.31433,0.37337c-2.46436,0.11066 -4.93368,-0.01418 -7.40046,-0.03228c-2.90975,-1.13261 -8.71176,-1.98044 -5.62765,-7.9295c0.15393,-0.2969 0.37477,-0.50995 0.6432,-0.66203c-0.2624,-0.83997 0.01319,-1.66676 0.01319,-1.66676c0.3381,-0.90982 0.46175,-1.94577 0.84211,-2.83074c-0.18442,-1.2002 0.76184,-2.14646 0.76184,-2.14646c0.70586,-0.70586 4.23172,-4.29867 4.81106,-4.54193c1.12341,-0.47172 2.44686,0.01285 3.65125,-0.17157c2.3288,-0.35659 4.64474,-0.95236 6.99734,-1.0138zM311.39408,266.67234c-1.25315,0.87079 -2.3901,1.95475 -3.57973,2.62684c-1.20072,0.67836 -2.55956,1.08089 -3.91387,1.34109c-1.91043,0.36705 -3.05213,-0.91661 -4.41369,1.04977c-0.38379,0.55427 -0.41079,1.2743 -0.54067,1.94654c2.58024,-0.12901 6.5052,0.89781 8.82944,0.14324c0.59401,-0.19284 1.5202,-0.82438 2.45423,-1.59382c0.01754,-0.08446 0.03918,-0.14989 0.06605,-0.19309c0.47908,-0.77028 1.23424,-1.2891 2.03042,-1.77058c0.45297,-0.48941 0.81076,-0.9398 0.99826,-1.28152c0.37581,-0.68489 0.42793,-1.49577 0.58324,-2.26826h-2.40774c-0.03533,-0.00025 -0.07064,-0.00032 -0.10594,-0.00021z" data-paper-data="{&quot;index&quot;:null}" fill="#787878" stroke="none" stroke-width="0.5" stroke-linecap="butt"/><path d="M318.79918,277.22682c-1.11804,2.23607 -3.35411,1.11803 -3.35411,1.11803l-0.88196,-0.73607c-5.4644,0 -14.89096,1.72249 -13.46772,-6.90046c0.27379,-1.65879 0.60357,-3.70036 2.00594,-4.62765c4.6506,-3.07511 5.26528,0.20849 7.92355,2c1.39063,0.9372 3.50738,0.9877 4.42686,2.3901c0.57105,0.87097 1.15223,1.97865 1.43938,3.0817l0.79002,0.32024c0,0 2.23607,1.11803 1.11803,3.3541zM307.22819,272.63906c0.20311,-0.03027 0.33493,-0.03028 0.33493,-0.03028c0.43161,0 0.85017,-0.0247 1.25675,-0.04436c-0.24542,-0.13259 -0.48545,-0.27447 -0.71852,-0.42753c-0.80327,-0.52752 -1.62796,-2.84992 -2.07645,-2c-0.21349,0.40458 0.08382,0.92158 0.00594,1.37235c-0.06922,0.40064 -0.69819,0.824 -0.43962,1.13777c0.29093,0.35303 0.91491,-0.00242 1.37235,-0.00594c0.0882,-0.00068 0.1764,-0.00135 0.26461,-0.00201z" data-paper-data="{&quot;index&quot;:null}" fill="#676767" stroke="none" stroke-width="0.5" stroke-linecap="butt"/><path d="M311.87172,275.1239c-0.79057,2.37171 -3.16228,1.58113 -3.16228,1.58113l-3,-1c0,0 -2.37171,-0.79057 -1.58114,-3.16227c0.79057,-2.37171 3.16228,-1.58114 3.16228,-1.58114l3,1c0,0 2.37171,0.79057 1.58114,3.16228z" fill="#535353" stroke="none" stroke-width="0.5" stroke-linecap="butt"/><g stroke="none" stroke-width="0" stroke-linecap="butt"><path d="M158.83333,100.94445v-8.66667h176v8.66667z" fill="url(#color-10)"/><path d="M152.125,101.08334v-9h6.75v9z" fill="#bfbfbf"/></g><g stroke="none" stroke-width="0" stroke-linecap="butt"><path d="M158.83333,266.77779v-8.66667h176v8.66667z" fill="url(#color-11)"/><path d="M156.29903,266.91668v-9h2.57598v9z" fill="#bfbfbf"/></g><g stroke="none" stroke-width="0" stroke-linecap="butt"><g><path d="M163.83335,128.94445c0,-3.22166 2.61167,-5.83334 5.83333,-5.83334c3.22166,0 5.83334,2.61168 5.83334,5.83334c0,3.22166 -2.61167,5.83333 -5.83334,5.83333c-3.22166,0 -5.83333,-2.61167 -5.83333,-5.83333z" fill="url(#color-12)"/><path d="M163.83335,132.94445c0,-3.22166 2.61167,-5.83334 5.83333,-5.83334c3.22166,0 5.83334,2.61167 5.83334,5.83334c0,3.22166 -2.61167,5.83333 -5.83334,5.83333c-3.22166,0 -5.83333,-2.61167 -5.83333,-5.83333z" fill="url(#color-13)"/></g><g><path d="M163.83335,137.27778c0,-3.22166 2.61167,-5.83333 5.83333,-5.83333c3.22166,0 5.83334,2.61167 5.83334,5.83333c0,3.22166 -2.61167,5.83334 -5.83334,5.83334c-3.22166,0 -5.83333,-2.61167 -5.83333,-5.83334z" fill="url(#color-14)"/><path d="M163.83335,141.27778c0,-3.22166 2.61167,-5.83333 5.83333,-5.83333c3.22166,0 5.83334,2.61167 5.83334,5.83333c0,3.22166 -2.61167,5.83334 -5.83334,5.83334c-3.22166,0 -5.83333,-2.61167 -5.83333,-5.83334z" fill="url(#color-15)"/></g></g><g stroke="none" stroke-width="0" stroke-linecap="butt"><g><path d="M163.83335,218.27778c0,-3.22166 2.61167,-5.83333 5.83333,-5.83333c3.22166,0 5.83334,2.61167 5.83334,5.83333c0,3.22166 -2.61167,5.83334 -5.83334,5.83334c-3.22166,0 -5.83333,-2.61167 -5.83333,-5.83334z" fill="url(#color-16)"/><path d="M163.83335,222.27778c0,-3.22166 2.61167,-5.83333 5.83333,-5.83333c3.22166,0 5.83334,2.61167 5.83334,5.83333c0,3.22166 -2.61167,5.83334 -5.83334,5.83334c-3.22166,0 -5.83333,-2.61167 -5.83333,-5.83334z" fill="url(#color-17)"/></g><g><path d="M163.83335,226.61111c0,-3.22166 2.61167,-5.83334 5.83333,-5.83334c3.22166,0 5.83334,2.61168 5.83334,5.83334c0,3.22166 -2.61167,5.83334 -5.83334,5.83334c-3.22166,0 -5.83333,-2.61168 -5.83333,-5.83334z" fill="url(#color-18)"/><path d="M163.83335,230.61111c0,-3.22166 2.61167,-5.83334 5.83333,-5.83334c3.22166,0 5.83334,2.61168 5.83334,5.83334c0,3.22166 -2.61167,5.83334 -5.83334,5.83334c-3.22166,0 -5.83333,-2.61168 -5.83333,-5.83334z" fill="url(#color-19)"/></g></g><path d="M99.83336,158.11111v-49l70.66666,16.33334v18.66666z" fill="url(#color-20)" stroke="none" stroke-width="0" stroke-linecap="butt"/><path d="M99.83336,249.11111v-49l70.66666,16.33334v18.66666z" fill="url(#color-21)" stroke="none" stroke-width="0" stroke-linecap="butt"/><g><g><path d="M309.91285,87.89125l-26.66661,0.0521" fill="none" stroke="#6d6d6d" stroke-width="25" stroke-linecap="round"/><path d="M312.57952,87.88604l-26.66662,0.0521" fill="none" stroke="#808080" stroke-width="25" stroke-linecap="round"/><path d="M299.35418,93.25138c-0.58692,2.43013 -3.01705,1.84321 -3.01705,1.84321l-3.1433,-0.76305c-3.31235,-1.20338 -6.53004,-2.71691 -9.55603,-4.52335c0,0 -2.14373,-1.28624 -0.85749,-3.42997c1.28624,-2.14373 3.42997,-0.85749 3.42997,-0.85749c2.66402,1.60732 5.49515,2.96933 8.42285,4.02245l2.87782,0.69115c0,0 2.43013,0.58692 1.84321,3.01705z" fill="#848484" stroke="none" stroke-width="0.5" stroke-linecap="butt"/><path d="M302.61859,96.64574c-1.20439,-0.18442 -2.52784,0.30015 -3.65125,-0.17157c-0.57934,-0.24326 -4.1052,-3.83607 -4.81106,-4.54193c0,0 -0.94626,-0.94626 -0.76184,-2.14646c-0.38036,-0.88496 -0.50401,-1.92092 -0.8421,-2.83074c0,0 -0.27559,-0.82678 -0.01319,-1.66676c-0.26843,-0.15208 -0.48928,-0.36513 -0.6432,-0.66204c-3.08412,-5.94905 2.7179,-6.79689 5.62765,-7.92949c2.46678,-0.0181 4.9361,-0.14295 7.40046,-0.03228c1.77402,0.07967 3.86135,-0.64758 5.31433,0.37337c1.50618,1.05833 2.19992,2.9563 2.83072,4.74275c0.24627,-0.07374 0.52942,-0.11613 0.85495,-0.11613c2.5,0 2.5,2.5 2.5,2.5l-0.12829,0.20943c0.24554,0.80539 0.50607,1.60605 0.77668,2.40343l1.61938,1.61938c0.45241,0.45241 0.73223,1.07741 0.73223,1.76777c0,1.20135 -0.84738,2.20479 -1.97704,2.44522c0.0033,0.21881 -0.00475,0.43588 -0.0248,0.65072c-0.17305,1.85481 -0.64583,4.22951 -2.29514,5.09557c-1.64035,0.86136 -3.67052,-0.20795 -5.51114,-0.69644c-2.3526,-0.06144 -4.66855,-0.65722 -6.99734,-1.0138zM309.92404,92.66447h2.40774c-0.15532,-0.77249 -0.20744,-1.58336 -0.58324,-2.26825c-0.18751,-0.34173 -0.54529,-0.79211 -0.99826,-1.28152c-0.79618,-0.48147 -1.55134,-1.00031 -2.03043,-1.77058c-0.02687,-0.0432 -0.0485,-0.10863 -0.06604,-0.19309c-0.93403,-0.76944 -1.86022,-1.40097 -2.45423,-1.59382c-2.32424,-0.75457 -6.24921,0.27224 -8.82944,0.14324c0.12987,0.67224 0.15688,1.39228 0.54067,1.94655c1.36157,1.96637 2.50326,0.68272 4.41369,1.04977c1.35432,0.2602 2.71316,0.66274 3.91387,1.34109c1.18964,0.67209 2.32657,1.75605 3.57973,2.62684c0.0353,0.0001 0.07062,0.00004 0.10594,-0.00021z" fill="#787878" stroke="none" stroke-width="0.5" stroke-linecap="butt"/><path d="M296.68798,85.04643c1.11803,-2.23607 3.3541,-1.11803 3.3541,-1.11803l0.88197,0.73607c5.46441,0 14.89096,-1.72248 13.46772,6.90046c-0.27379,1.65879 -0.60356,3.70036 -2.00594,4.62765c-4.6506,3.07511 -5.26528,-0.20849 -7.92355,-2c-1.39063,-0.9372 -3.50738,-0.98769 -4.42686,-2.3901c-0.57105,-0.87097 -1.15224,-1.97865 -1.43938,-3.08169l-0.79002,-0.32024c0,0 -2.23607,-1.11803 -1.11803,-3.3541zM308.25899,89.6342c-0.20311,0.03027 -0.33494,0.03027 -0.33494,0.03027c-0.43161,0 -0.85017,0.0247 -1.25674,0.04436c0.24542,0.13259 0.48545,0.27447 0.71852,0.42753c0.80327,0.52752 1.62796,2.84992 2.07645,2c0.21349,-0.40458 -0.08382,-0.92157 -0.00594,-1.37235c0.06922,-0.40065 0.69819,-0.824 0.43961,-1.13777c-0.29093,-0.35302 -0.91491,0.00243 -1.37235,0.00594c-0.0882,0.00068 -0.17641,0.00135 -0.26461,0.00201z" fill="#676767" stroke="none" stroke-width="0.5" stroke-linecap="butt"/><path d="M311.29578,88.95504c-0.79057,2.37171 -3.16228,1.58114 -3.16228,1.58114l-3,-1c0,0 -2.37171,-0.79057 -1.58114,-3.16228c0.79057,-2.37171 3.16228,-1.58114 3.16228,-1.58114l3,1c0,0 2.37171,0.79057 1.58114,3.16228z" fill="#535353" stroke="none" stroke-width="0.5" stroke-linecap="butt"/></g><g data-paper-data="{&quot;index&quot;:null}"><path d="M285.24625,270.72479l26.66661,0.0521" fill="none" stroke="#6d6d6d" stroke-width="25" stroke-linecap="round"/><path d="M314.57952,270.78211l-26.66662,-0.0521" fill="none" stroke="#808080" stroke-width="25" stroke-linecap="round"/><path d="M301.35416,265.41677c0.58692,2.43013 -1.84321,3.01705 -1.84321,3.01705l-2.87782,0.69115c-2.9277,1.05312 -5.75883,2.41513 -8.42285,4.02245c0,0 -2.14373,1.28624 -3.42997,-0.85749c-1.28624,-2.14373 0.85749,-3.42997 0.85749,-3.42997c3.02599,-1.80644 6.24368,-3.31997 9.55603,-4.52335l3.1433,-0.76305c0,0 2.43013,-0.58692 3.01705,1.84321z" fill="#848484" stroke="none" stroke-width="0.5" stroke-linecap="butt"/><path d="M304.61861,262.02242c2.32879,-0.35658 4.64474,-0.95236 6.99734,-1.0138c1.84062,-0.48849 3.87079,-1.5578 5.51114,-0.69644c1.64931,0.86606 2.12209,3.24076 2.29514,5.09557c0.02005,0.21484 0.0281,0.43191 0.0248,0.65072c1.12966,0.24043 1.97704,1.24387 1.97704,2.44522c0,0.69036 -0.27982,1.31536 -0.73223,1.76777l-1.61938,1.61938c-0.27061,0.79738 -0.53114,1.59804 -0.77668,2.40343l0.12829,0.20943c0,0 0,2.5 -2.5,2.5c-0.32553,0 -0.60868,-0.04239 -0.85495,-0.11613c-0.6308,1.78645 -1.32454,3.68442 -2.83072,4.74275c-1.45298,1.02095 -3.54031,0.2937 -5.31433,0.37337c-2.46436,0.11067 -4.93368,-0.01418 -7.40046,-0.03228c-2.90975,-1.1326 -8.71177,-1.98044 -5.62765,-7.92949c0.15392,-0.29691 0.37477,-0.50996 0.6432,-0.66204c-0.2624,-0.83998 0.01319,-1.66676 0.01319,-1.66676c0.33809,-0.90982 0.46174,-1.94578 0.8421,-2.83074c-0.18442,-1.2002 0.76184,-2.14646 0.76184,-2.14646c0.70586,-0.70586 4.23172,-4.29867 4.81106,-4.54193c1.12341,-0.47172 2.44686,0.01285 3.65125,-0.17157zM311.92404,266.00365c-0.03532,-0.00025 -0.07064,-0.00031 -0.10594,-0.00021c-1.25316,0.87079 -2.39009,1.95475 -3.57973,2.62684c-1.20071,0.67835 -2.55955,1.08089 -3.91387,1.34109c-1.91043,0.36705 -3.05212,-0.9166 -4.41369,1.04977c-0.38379,0.55427 -0.4108,1.27431 -0.54067,1.94655c2.58023,-0.129 6.5052,0.89781 8.82944,0.14324c0.59401,-0.19285 1.5202,-0.82438 2.45423,-1.59382c0.01754,-0.08446 0.03917,-0.14989 0.06604,-0.19309c0.47909,-0.77027 1.23425,-1.28911 2.03043,-1.77058c0.45297,-0.48941 0.81075,-0.93979 0.99826,-1.28152c0.3758,-0.68489 0.42792,-1.49576 0.58324,-2.26825h-2.40774z" fill="#787878" stroke="none" stroke-width="0.5" stroke-linecap="butt"/><path d="M298.688,273.62171c-1.11804,-2.23607 1.11803,-3.3541 1.11803,-3.3541l0.79002,-0.32024c0.28714,-1.10304 0.86833,-2.21072 1.43938,-3.08169c0.91948,-1.40241 3.03623,-1.4529 4.42686,-2.3901c2.65827,-1.79151 3.27295,-5.07511 7.92355,-2c1.40238,0.92729 1.73215,2.96886 2.00594,4.62765c1.42324,8.62294 -8.00331,6.90046 -13.46772,6.90046l-0.88197,0.73607c0,0 -2.23607,1.11804 -3.3541,-1.11803zM310.25899,269.03397c0.0882,0.00066 0.17641,0.00133 0.26461,0.00201c0.45744,0.00351 1.08142,0.35896 1.37235,0.00594c0.25858,-0.31377 -0.37039,-0.73712 -0.43961,-1.13777c-0.07788,-0.45078 0.21943,-0.96777 0.00594,-1.37235c-0.44849,-0.84992 -1.27318,1.47248 -2.07645,2c-0.23307,0.15306 -0.4731,0.29494 -0.71852,0.42753c0.40657,0.01966 0.82513,0.04436 1.25674,0.04436c0,0 0.13183,0 0.33494,0.03027z" fill="#676767" stroke="none" stroke-width="0.5" stroke-linecap="butt"/><path d="M311.71461,272.8754l-3,1c0,0 -2.37171,0.79057 -3.16228,-1.58114c-0.79057,-2.37171 1.58114,-3.16228 1.58114,-3.16228l3,-1c0,0 2.37171,-0.79057 3.16228,1.58114c0.79057,2.37171 -1.58114,3.16228 -1.58114,3.16228z" fill="#535353" stroke="none" stroke-width="0.5" stroke-linecap="butt"/></g></g></g></g></svg>