<svg version="1.1" xmlns="http://www.w3.org/2000/svg" xmlns:xlink="http://www.w3.org/1999/xlink" width="55.96998" height="30.66666" viewBox="0,0,55.96998,30.66666"><defs><linearGradient x1="240.18168" y1="174.08333" x2="240.18168" y2="186.75" gradientUnits="userSpaceOnUse" id="color-1"><stop offset="0" stop-color="#4f565a"/><stop offset="1" stop-color="#636c72"/></linearGradient><linearGradient x1="239.98925" y1="168.54081" x2="239.98925" y2="170.24981" gradientUnits="userSpaceOnUse" id="color-2"><stop offset="0" stop-color="#898989"/><stop offset="1" stop-color="#a1a1a1"/></linearGradient><linearGradient x1="239.93584" y1="178.4744" x2="239.93584" y2="181.03791" gradientUnits="userSpaceOnUse" id="color-3"><stop offset="0" stop-color="#40484d" stop-opacity="0"/><stop offset="1" stop-color="#40484d"/></linearGradient></defs><g transform="translate(-212.01501,-160.91667)"><g data-paper-data="{&quot;isPaintingLayer&quot;:true}" fill-rule="nonzero" stroke-linejoin="miter" stroke-miterlimit="10" stroke-dasharray="" stroke-dashoffset="0" style="mix-blend-mode: normal"><g><path d="M212.01501,171.58333v-10.66666h55.83334v10.66666z" fill="#4f565a" stroke="none" stroke-width="0" stroke-linecap="butt"/><path d="M227.84835,191.58333v-22.33333h24.33333v22.33333z" fill="#687276" stroke="none" stroke-width="none" stroke-linecap="butt"/><path d="M212.04503,183.0758v-22.10663l15.86662,8.33333v22.10663z" fill="#596165" stroke="none" stroke-width="NaN" stroke-linecap="butt"/><path d="M252.11837,191.40913v-22.10663l15.86662,-8.33333v22.10663z" data-paper-data="{&quot;index&quot;:null}" fill="#596165" stroke="none" stroke-width="NaN" stroke-linecap="butt"/><path d="M233.84835,186.75v-12.66667h12.66667v12.66667z" fill="url(#color-1)" stroke="none" stroke-width="none" stroke-linecap="butt"/><g><path d="M238.33364,165.94247h3.20438v16.02192h-3.20438z" fill="#4c565c" stroke="#4c565c" stroke-width="0.5" stroke-linecap="butt"/><path d="M237.47913,181.25152h5.0202v4.27251h-5.0202z" fill="#a1a1a1" stroke="#4c565c" stroke-width="0.5" stroke-linecap="butt"/><path d="M237.79958,168.54081h4.37933v1.70901h-4.37933z" fill="url(#color-2)" stroke="none" stroke-width="0" stroke-linecap="butt"/><path d="M238.22684,171.21113h3.52482v4.37933h-3.52482z" fill="#4c565c" stroke="none" stroke-width="0" stroke-linecap="butt"/><path d="M238.12003,178.4744h3.63163v2.56351h-3.63163z" fill="url(#color-3)" stroke="none" stroke-width="0" stroke-linecap="butt"/><path d="M241.67911,173.17208h-3.3072" fill="none" stroke="#a1a1a1" stroke-width="1.5" stroke-linecap="round"/><path d="M238.37192,175.17177h3.30721" fill="none" stroke="#394045" stroke-width="1.5" stroke-linecap="round"/><path d="M241.67913,177.24841h-3.30721" fill="none" stroke="#394045" stroke-width="1.5" stroke-linecap="round"/><path d="M238.37192,179.47885h3.30721" fill="none" stroke="#394045" stroke-width="1.5" stroke-linecap="round"/><path d="M237.20972,181.05723h3.17647v4.72897h-3.17647z" fill="#4c565c" stroke="none" stroke-width="0" stroke-linecap="butt"/><g fill="none" stroke-width="1.5" stroke-linecap="round"><path d="M242.24872,181.75426v5.3125" stroke="#444d53"/><path d="M240.99872,181.75426v5.3125" stroke="#4c565c"/><path d="M239.93622,181.75426v5.3125" stroke="#535e64"/><path d="M237.74872,181.75426v5.3125" stroke="#444d53"/><path d="M238.68622,181.81676v5.3125" stroke="#4c565c"/></g></g><path d="M229.84835,169.25v-7.66667h18.16667v7.66667z" fill="#4f565a" stroke="none" stroke-width="0" stroke-linecap="butt"/><path d="M231.34835,174.08333v-4.83333h17.66667v4.83333z" fill="#687276" stroke="none" stroke-width="0" stroke-linecap="butt"/><path d="M214.10244,166.34319c-0.00269,-0.0297 -0.00409,-0.06074 -0.00409,-0.09319c0,-0.75 0.75,-0.75 0.75,-0.75c2.62153,0.08156 2.74747,2.08111 4.6052,3.30824c1.75053,1.15632 4.13062,1.59405 5.07963,3.80264c1.53161,3.56439 -2.51452,3.38885 -4.38561,1.95961c-0.60356,-0.48361 -2.15541,1.45763 -3.61884,0.2505c-1.33927,-1.1047 -0.51713,-2.41017 -0.90317,-3.70413c-0.53547,-1.79481 -2.03534,-1.83954 -1.98873,-4.10404z" fill="#565e62" stroke="none" stroke-width="0.5" stroke-linecap="butt"/><path d="M215.4499,178.08129c-0.00125,-0.00579 -0.00247,-0.01164 -0.00365,-0.01754c-0.14709,-0.73543 0.58835,-0.88252 0.58835,-0.88252l0.90652,-0.17758c1.27686,0.01203 1.91266,0.21277 2.8201,1.12022c1.0106,0.40079 2.8494,-0.26224 3.67427,0.33841c1.80052,1.31111 -0.34469,4.50614 -1.84997,4.99923c-3.75498,1.23002 -5.60694,-2.18938 -6.14363,-5.08821c0,0 -0.02184,-0.13105 0.00801,-0.29201z" fill="#565e62" stroke="none" stroke-width="0.5" stroke-linecap="butt"/><path d="M222.08729,186.70741c-0.00187,-0.00245 -0.00374,-0.00492 -0.00561,-0.00741c-0.45,-0.6 0.15,-1.05 0.15,-1.05c0.10059,-0.07545 1.38142,-1.03959 1.43525,-1.06433c4.71701,-2.16808 3.97689,6.76576 -0.44147,3.59296c-0.28056,-0.20147 -0.42919,-0.54131 -0.64378,-0.81196l-0.06875,0.05416c0,0 -0.47561,-0.23781 -0.42565,-0.71341zM223.66974,186.39413l0.11194,0.07254c0.8797,1.28759 2.70491,0.75768 1.53634,-0.68633c-0.32071,-0.3963 -1.09856,0.15862 -1.64828,0.61379z" fill="#565e62" stroke="none" stroke-width="0.5" stroke-linecap="butt"/><path d="M225.3532,185.7448c1.16858,1.44401 -0.74175,2.01197 -1.62145,0.72438l-0.11199,-0.07639c0.54971,-0.45517 1.41273,-1.04429 1.73344,-0.64799z" data-paper-data="{&quot;noHover&quot;:false,&quot;origItem&quot;:[&quot;Path&quot;,{&quot;applyMatrix&quot;:true,&quot;segments&quot;:[[[503.14279,380.40995],[1.09943,-0.91035],[0,0]],[[503.36667,380.55503],[0,0],[1.7594,2.57517]],[[506.43934,379.18236],[2.33715,2.88802],[-0.64142,-0.7926]]],&quot;closed&quot;:true}]}" fill="#565e62" stroke="none" stroke-width="0.5" stroke-linecap="butt"/><path d="M253.28573,184.06556c0.34701,-1.98962 1.41484,-5.33535 4.34963,-4.3418c0.41164,0.13935 0.72126,0.67605 1.15112,0.61213c0.88792,-0.13202 2.7939,-1.05123 3.59219,-0.28288c2.50293,2.40906 -2.45125,5.40912 -4.03039,6.03555c-0.78411,0.46628 -2.10938,2.2297 -2.93773,2.37567c-2.33578,0.41161 -2.30591,-1.81354 -2.31221,-3.38089v-0.5c0,0 0,-0.29752 0.18739,-0.51778z" fill="#565e62" stroke="none" stroke-width="0.5" stroke-linecap="butt"/><path d="M254.7603,176.30586c-0.3908,-0.12581 -0.48072,-0.57544 -0.48072,-0.57544c-0.12343,-0.61755 -0.76062,-2.68304 -0.41325,-3.1902c2.42358,-3.53841 8.68075,2.01961 4.70495,4.35065c-0.57914,0.33956 -1.63726,0.27289 -2.29684,0.27214l-0.90651,-0.17758c0,0 -0.59604,-0.1192 -0.60763,-0.67957z" fill="#565e62" stroke="none" stroke-width="0.5" stroke-linecap="butt"/><path d="M260.29317,166.00344c0.00513,-0.00051 0.00996,-0.00095 0.01445,-0.00132c0.94712,-0.55505 2.60716,-1.49561 3.61123,-1.13029c0.76581,0.27863 2.90717,4.11972 3.00968,5.14294c0.23483,2.34383 -2.78534,4.46758 -0.88728,6.44822c0.13329,2.83362 -1.7612,5.50628 -4.24985,2.62265c-1.21938,-1.4129 -2.03845,-4.32059 -1.4879,-6.07281c0.64744,-2.06058 1.62391,-4.08462 -0.57182,-5.66282c0,0 -0.6,-0.45 -0.15,-1.05c0.2315,-0.30867 0.5027,-0.33945 0.71148,-0.29656z" fill="#565e62" stroke="none" stroke-width="0.5" stroke-linecap="butt"/><path d="M229.30724,163.34647l0.54111,-0.34647c1.92019,0 3.83567,0.02041 5.72852,0.33589c1.17021,-0.00319 5.80735,-0.13424 6.30822,1.1539c0.78149,2.00983 -3.28767,2.85407 -4.27263,3.00385c-2.95397,0.4492 -6.08201,-1.6653 -8.70932,-2.71395c0,0 -0.69636,-0.27854 -0.41782,-0.9749c0.19644,-0.49109 0.60067,-0.49732 0.82191,-0.45832z" fill="#494f53" stroke="none" stroke-width="0.5" stroke-linecap="butt"/><path d="M248.11185,165.76932c-0.15335,-0.49414 0.32047,-0.81002 0.32047,-0.81002l0.38569,-0.23963c0.84816,-0.80512 0.31586,-1.68958 0.9219,-2.40821c0.89913,-1.06616 5.23006,-1.92099 6.34736,-0.71291c0.39051,0.42224 0.14151,1.85156 -0.02002,2.36516c-0.98038,3.11721 -4.67451,2.96012 -7.29354,2.69923c0,0 -0.74628,-0.07463 -0.67165,-0.82091c0.00252,-0.02516 0.0058,-0.04939 0.00979,-0.07272z" fill="#494f53" stroke="none" stroke-width="0.5" stroke-linecap="butt"/><path d="M250.47238,176.83269c-0.41602,0.62404 -1.04006,0.20801 -1.04006,0.20801l-0.81941,-0.81028c-0.23777,-1.28625 0.50774,-2.71199 -0.71456,-3.54709c0,0 -0.6,-0.45 -0.15,-1.05c0.45,-0.6 1.05,-0.15 1.05,-0.15c1.7627,1.39762 0.88261,2.63545 1.28544,4.45291l0.18059,-0.14362c0,0 0.62404,0.41602 0.20801,1.04006z" fill="#646e72" stroke="none" stroke-width="0.5" stroke-linecap="butt"/><path d="M233.24262,188.4319c-0.1819,0.72761 -0.90951,0.5457 -0.90951,0.5457l-0.93476,-0.29427c-1.52889,-1.14736 -2.27663,-1.79474 -2.3,-3.76666c0,0 0,-0.75 0.75,-0.75c0.75,0 0.75,0.75 0.75,0.75c-0.023,1.45863 0.56753,1.71785 1.7,2.56667l0.39857,0.03906c0,0 0.7276,0.18191 0.5457,0.90951z" fill="#646e72" stroke="none" stroke-width="0.5" stroke-linecap="butt"/></g></g></g></svg>