<svg version="1.1" xmlns="http://www.w3.org/2000/svg" xmlns:xlink="http://www.w3.org/1999/xlink" width="51.66305" height="75.2511" viewBox="0,0,51.66305,75.2511"><defs><radialGradient cx="240.44149" cy="208.21143" r="8.47886" gradientUnits="userSpaceOnUse" id="color-1"><stop offset="0" stop-color="#fff696"/><stop offset="1" stop-color="#fff696" stop-opacity="0"/></radialGradient><radialGradient cx="240.16819" cy="205.428" r="11.77245" gradientUnits="userSpaceOnUse" id="color-2"><stop offset="0" stop-color="#fcd81d"/><stop offset="1" stop-color="#fcd81d" stop-opacity="0"/></radialGradient><radialGradient cx="240.49124" cy="207.64309" r="6.68989" gradientUnits="userSpaceOnUse" id="color-3"><stop offset="0" stop-color="#fff156"/><stop offset="1" stop-color="#fff156" stop-opacity="0"/></radialGradient><linearGradient x1="240.13519" y1="206.57577" x2="240.13519" y2="212.8485" gradientUnits="userSpaceOnUse" id="color-4"><stop offset="0" stop-color="#ff8600"/><stop offset="1" stop-color="#ff8600" stop-opacity="0"/></linearGradient><linearGradient x1="240.24341" y1="204.32198" x2="240.24341" y2="221.18561" gradientUnits="userSpaceOnUse" id="color-5"><stop offset="0" stop-color="#ffffff"/><stop offset="1" stop-color="#ffffff" stop-opacity="0"/></linearGradient><radialGradient cx="240.31685" cy="208.44531" r="6.68989" gradientUnits="userSpaceOnUse" id="color-6"><stop offset="0" stop-color="#ffee35"/><stop offset="1" stop-color="#ffee35" stop-opacity="0"/></radialGradient><linearGradient x1="235.37324" y1="206.02092" x2="244.9325" y2="206.02092" gradientUnits="userSpaceOnUse" id="color-7"><stop offset="0" stop-color="#5f5f5f"/><stop offset="1" stop-color="#4c4c4c"/></linearGradient><linearGradient x1="235.37324" y1="206.02092" x2="244.9325" y2="206.02092" gradientUnits="userSpaceOnUse" id="color-8"><stop offset="0" stop-color="#949494"/><stop offset="1" stop-color="#757575"/></linearGradient><linearGradient x1="235.66801" y1="204.21928" x2="238.76944" y2="204.21928" gradientUnits="userSpaceOnUse" id="color-9"><stop offset="0" stop-color="#4c4c4c"/><stop offset="1" stop-color="#4c4c4c" stop-opacity="0"/></linearGradient><linearGradient x1="244.63706" y1="204.21927" x2="241.53564" y2="204.21927" gradientUnits="userSpaceOnUse" id="color-10"><stop offset="0" stop-color="#5f5f5f"/><stop offset="1" stop-color="#5f5f5f" stop-opacity="0"/></linearGradient><linearGradient x1="239.31632" y1="126.50034" x2="239.31632" y2="220.52639" gradientUnits="userSpaceOnUse" id="color-11"><stop offset="0" stop-color="#a300f2"/><stop offset="1" stop-color="#a300f2" stop-opacity="0"/></linearGradient><linearGradient x1="239.01714" y1="98.48158" x2="239.01714" y2="226.50219" gradientUnits="userSpaceOnUse" id="color-12"><stop offset="0" stop-color="#f1f1f1"/><stop offset="1" stop-color="#f1f1f1" stop-opacity="0"/></linearGradient><linearGradient x1="240.28615" y1="206.11823" x2="240.28615" y2="214.02599" gradientUnits="userSpaceOnUse" id="color-13"><stop offset="0" stop-color="#ff4f00"/><stop offset="1" stop-color="#ff4f00" stop-opacity="0"/></linearGradient><linearGradient x1="240.20058" y1="206.36497" x2="240.20058" y2="211.7108" gradientUnits="userSpaceOnUse" id="color-14"><stop offset="0" stop-color="#ffd400"/><stop offset="1" stop-color="#ffd400" stop-opacity="0"/></linearGradient><linearGradient x1="240.1977" y1="206.00691" x2="240.1977" y2="214.88923" gradientUnits="userSpaceOnUse" id="color-15"><stop offset="0" stop-color="#ffee00"/><stop offset="1" stop-color="#ffee00" stop-opacity="0"/></linearGradient><linearGradient x1="240.10642" y1="205.93396" x2="240.10642" y2="209.82134" gradientUnits="userSpaceOnUse" id="color-16"><stop offset="0" stop-color="#ffee00"/><stop offset="1" stop-color="#ffee00" stop-opacity="0"/></linearGradient><linearGradient x1="242.67743" y1="206.00691" x2="242.67743" y2="209.89429" gradientUnits="userSpaceOnUse" id="color-17"><stop offset="0" stop-color="#ffee00"/><stop offset="1" stop-color="#ffee00" stop-opacity="0"/></linearGradient><linearGradient x1="237.53543" y1="206.00691" x2="237.53543" y2="209.89429" gradientUnits="userSpaceOnUse" id="color-18"><stop offset="0" stop-color="#ffee00"/><stop offset="1" stop-color="#ffee00" stop-opacity="0"/></linearGradient><linearGradient x1="235.34149" y1="203.97262" x2="244.95087" y2="203.97262" gradientUnits="userSpaceOnUse" id="color-19"><stop offset="0" stop-color="#888888"/><stop offset="1" stop-color="#696969"/></linearGradient><linearGradient x1="243.62781" y1="155.72479" x2="243.62781" y2="199.68327" gradientUnits="userSpaceOnUse" id="color-20"><stop offset="0" stop-color="#00de98"/><stop offset="1" stop-color="#00386f"/></linearGradient><linearGradient x1="243.62781" y1="155.72479" x2="243.62781" y2="199.68327" gradientUnits="userSpaceOnUse" id="color-21"><stop offset="0" stop-color="#00de98"/><stop offset="1" stop-color="#00386f"/></linearGradient><linearGradient x1="237.4824" y1="167.87077" x2="242.5339" y2="167.87077" gradientUnits="userSpaceOnUse" id="color-22"><stop offset="0" stop-color="#5f5f5f"/><stop offset="1" stop-color="#a8a8a8"/></linearGradient><linearGradient x1="240.04677" y1="161.54813" x2="240.04677" y2="162.48361" gradientUnits="userSpaceOnUse" id="color-23"><stop offset="0" stop-color="#7a7a7a"/><stop offset="1" stop-color="#646464"/></linearGradient><linearGradient x1="228.32943" y1="178.86467" x2="228.32943" y2="200.90384" gradientUnits="userSpaceOnUse" id="color-24"><stop offset="0" stop-color="#00a29c"/><stop offset="1" stop-color="#00478c"/></linearGradient><linearGradient x1="251.6786" y1="178.86467" x2="251.6786" y2="200.90384" gradientUnits="userSpaceOnUse" id="color-25"><stop offset="0" stop-color="#00a29c"/><stop offset="1" stop-color="#00478c"/></linearGradient><linearGradient x1="239.18174" y1="165.17487" x2="239.35658" y2="165.17487" gradientUnits="userSpaceOnUse" id="color-26"><stop offset="0" stop-color="#00eeec"/><stop offset="1" stop-color="#1cfff4"/></linearGradient><linearGradient x1="233.88805" y1="156.23007" x2="233.88805" y2="200.78563" gradientUnits="userSpaceOnUse" id="color-27"><stop offset="0" stop-color="#00ffad"/><stop offset="1" stop-color="#00478c"/></linearGradient><linearGradient x1="233.88805" y1="156.23007" x2="233.88805" y2="200.78563" gradientUnits="userSpaceOnUse" id="color-28"><stop offset="0" stop-color="#00ffad"/><stop offset="1" stop-color="#00478c"/></linearGradient><linearGradient x1="245.93396" y1="156.22214" x2="245.93396" y2="200.77769" gradientUnits="userSpaceOnUse" id="color-29"><stop offset="0" stop-color="#00ffad"/><stop offset="1" stop-color="#00478c"/></linearGradient><linearGradient x1="245.93396" y1="156.22214" x2="245.93396" y2="200.77769" gradientUnits="userSpaceOnUse" id="color-30"><stop offset="0" stop-color="#00ffad"/><stop offset="1" stop-color="#00478c"/></linearGradient><linearGradient x1="219.21812" y1="178.60527" x2="219.21812" y2="188.09109" gradientUnits="userSpaceOnUse" id="color-31"><stop offset="0" stop-color="#00a29c"/><stop offset="1" stop-color="#007995"/></linearGradient><linearGradient x1="249.33401" y1="193.40468" x2="251.85974" y2="193.40468" gradientUnits="userSpaceOnUse" id="color-32"><stop offset="0" stop-color="#002f5e"/><stop offset="1" stop-color="#002f5e" stop-opacity="0"/></linearGradient><linearGradient x1="249.20562" y1="186.04026" x2="251.82852" y2="186.04026" gradientUnits="userSpaceOnUse" id="color-33"><stop offset="0" stop-color="#dbdbdb"/><stop offset="1" stop-color="#dbdbdb" stop-opacity="0"/></linearGradient><linearGradient x1="237.91545" y1="197.61642" x2="241.89834" y2="197.61642" gradientUnits="userSpaceOnUse" id="color-34"><stop offset="0" stop-color="#8b8b8b"/><stop offset="1" stop-color="#7f7f7f"/></linearGradient><linearGradient x1="238.26515" y1="192.76641" x2="241.54863" y2="192.76641" gradientUnits="userSpaceOnUse" id="color-35"><stop offset="0" stop-color="#8b8b8b"/><stop offset="1" stop-color="#7f7f7f"/></linearGradient><linearGradient x1="260.69861" y1="178.60527" x2="260.69861" y2="188.0911" gradientUnits="userSpaceOnUse" id="color-36"><stop offset="0" stop-color="#00a29c"/><stop offset="1" stop-color="#007995"/></linearGradient><linearGradient x1="218.46831" y1="179.88452" x2="218.46831" y2="192.11529" gradientUnits="userSpaceOnUse" id="color-37"><stop offset="0" stop-color="#009a95"/><stop offset="1" stop-color="#005da9"/></linearGradient><linearGradient x1="261.53971" y1="179.88452" x2="261.53971" y2="192.11529" gradientUnits="userSpaceOnUse" id="color-38"><stop offset="0" stop-color="#009a95"/><stop offset="1" stop-color="#005da9"/></linearGradient><linearGradient x1="217.39226" y1="178.94647" x2="217.39226" y2="192.53621" gradientUnits="userSpaceOnUse" id="color-39"><stop offset="0" stop-color="#007c78"/><stop offset="1" stop-color="#00376d"/></linearGradient><linearGradient x1="262.61583" y1="178.94647" x2="262.61583" y2="192.53621" gradientUnits="userSpaceOnUse" id="color-40"><stop offset="0" stop-color="#007c78"/><stop offset="1" stop-color="#00376d"/></linearGradient><linearGradient x1="230.57305" y1="179.1031" x2="233.87596" y2="179.1031" gradientUnits="userSpaceOnUse" id="color-41"><stop offset="0" stop-color="#00b67c"/><stop offset="1" stop-color="#00b67c" stop-opacity="0"/></linearGradient><linearGradient x1="230.57305" y1="179.1031" x2="233.87596" y2="179.1031" gradientUnits="userSpaceOnUse" id="color-42"><stop offset="0" stop-color="#00847e"/><stop offset="1" stop-color="#00847e" stop-opacity="0"/></linearGradient><linearGradient x1="230.57305" y1="179.1031" x2="233.87596" y2="179.1031" gradientUnits="userSpaceOnUse" id="color-43"><stop offset="0" stop-color="#004183"/><stop offset="1" stop-color="#004183" stop-opacity="0"/></linearGradient><linearGradient x1="230.60535" y1="172.98334" x2="233.84023" y2="172.98334" gradientUnits="userSpaceOnUse" id="color-44"><stop offset="0" stop-color="#009c84"/><stop offset="1" stop-color="#009c84" stop-opacity="0"/></linearGradient><linearGradient x1="230.60535" y1="188.08334" x2="233.84023" y2="188.08334" gradientUnits="userSpaceOnUse" id="color-45"><stop offset="0" stop-color="#00779c"/><stop offset="1" stop-color="#00779c" stop-opacity="0"/></linearGradient><linearGradient x1="224.7189" y1="181.97989" x2="229.03287" y2="181.97989" gradientUnits="userSpaceOnUse" id="color-46"><stop offset="0" stop-color="#01878f"/><stop offset="1" stop-color="#018097"/></linearGradient><linearGradient x1="224.7189" y1="181.97989" x2="229.03288" y2="181.97989" gradientUnits="userSpaceOnUse" id="color-47"><stop offset="0" stop-color="#01878f"/><stop offset="1" stop-color="#018097"/></linearGradient><linearGradient x1="224.77196" y1="185.90967" x2="229.07772" y2="185.90967" gradientUnits="userSpaceOnUse" id="color-48"><stop offset="0" stop-color="#01878f"/><stop offset="1" stop-color="#018097"/></linearGradient><linearGradient x1="224.77196" y1="185.90967" x2="229.07772" y2="185.90967" gradientUnits="userSpaceOnUse" id="color-49"><stop offset="0" stop-color="#01878f"/><stop offset="1" stop-color="#018097"/></linearGradient><linearGradient x1="254.86948" y1="181.97989" x2="250.55549" y2="181.97989" gradientUnits="userSpaceOnUse" id="color-50"><stop offset="0" stop-color="#01878f"/><stop offset="1" stop-color="#018097"/></linearGradient><linearGradient x1="254.86945" y1="181.97989" x2="250.55548" y2="181.97989" gradientUnits="userSpaceOnUse" id="color-51"><stop offset="0" stop-color="#01878f"/><stop offset="1" stop-color="#018097"/></linearGradient><linearGradient x1="254.81638" y1="185.90967" x2="250.51065" y2="185.90967" gradientUnits="userSpaceOnUse" id="color-52"><stop offset="0" stop-color="#01878f"/><stop offset="1" stop-color="#018097"/></linearGradient><linearGradient x1="254.81638" y1="185.90967" x2="250.51065" y2="185.90967" gradientUnits="userSpaceOnUse" id="color-53"><stop offset="0" stop-color="#01878f"/><stop offset="1" stop-color="#018097"/></linearGradient></defs><g transform="translate(-214.34966,-152.64965)"><g data-paper-data="{&quot;isPaintingLayer&quot;:true}" fill-rule="nonzero" stroke-linejoin="miter" stroke-miterlimit="10" stroke-dasharray="" stroke-dashoffset="0" style="mix-blend-mode: normal"><path d="M247.87908,208.21143c0,4.34894 -3.32993,7.87446 -7.43759,7.87446c-4.10769,0 -7.43758,-3.52552 -7.43758,-7.87446c0,-4.34894 3.32993,-7.87446 7.43758,-7.87446c4.10769,0 7.43759,3.52552 7.43759,7.87446z" fill="url(#color-1)" stroke="none" stroke-width="0" stroke-linecap="butt"/><path d="M251.78367,205.428c0,6.82325 -5.20042,12.35459 -11.61547,12.35459c-6.41506,0 -11.61548,-5.53134 -11.61548,-12.35459c0,-6.82325 5.20042,-12.35459 11.61548,-12.35459c6.41506,0 11.61547,5.53134 11.61547,12.35459z" fill="url(#color-2)" stroke="none" stroke-width="0" stroke-linecap="butt"/><g><g fill="none" stroke="#00386f" stroke-width="1" stroke-linecap="round"><g><path d="M241.21792,203.02633h-7.92332l-14.75376,-8.375"/><path d="M241.27255,202.15133h-7.92332l-14.75376,-8.375"/><path d="M241.10861,201.21383h-7.92332l-14.75376,-8.375"/></g><g><path d="M264.28137,194.65133l-14.75375,8.375h-7.92332"/><path d="M264.22672,193.77633l-14.75376,8.375h-7.92332"/><path d="M264.39067,192.83883l-14.75376,8.375h-7.92332"/></g></g><path d="M231.37732,203.4762v-3.42857h18.85983v3.42857z" fill="#00386f" stroke="none" stroke-width="0" stroke-linecap="butt"/></g><path d="M246.35955,207.64309c0,3.09004 -2.62732,5.59501 -5.86832,5.59501c-3.24099,0 -5.86832,-2.50497 -5.86832,-5.59501c0,-3.09004 2.62732,-5.59501 5.86832,-5.59501c3.24099,0 5.86832,2.50498 5.86832,5.59501z" fill="url(#color-3)" stroke="none" stroke-width="0" stroke-linecap="butt"/><path d="M236.47987,212.8485v-6.27273c0,0 1.73321,-0.45454 3.65536,-0.45454c2.05048,0 3.65537,0.45454 3.65537,0.45454v6.27273z" fill="url(#color-4)" stroke="none" stroke-width="0" stroke-linecap="butt"/><path d="M242.88874,204.32198l-2.64533,16.86364l-2.64533,-16.86364z" fill="url(#color-5)" stroke="#000000" stroke-width="0" stroke-linecap="round"/><path d="M246.18517,208.44531c0,3.09004 -2.62732,5.59501 -5.86832,5.59501c-3.24098,0 -5.86832,-2.50497 -5.86832,-5.59501c0,-3.09004 2.62732,-5.59501 5.86832,-5.59501c3.24098,0 5.86832,2.50497 5.86832,5.59501z" fill="url(#color-6)" stroke="none" stroke-width="0" stroke-linecap="butt"/><path d="M244.9325,206.02092c0,0.46442 -2.1399,0.84091 -4.77964,0.84091c-2.63972,0 -4.77964,-0.37649 -4.77964,-0.84091c0,-0.46442 2.1399,-0.84091 4.77964,-0.84091c2.63972,0 4.77964,0.37649 4.77964,0.84091z" fill="url(#color-7)" stroke="url(#color-8)" stroke-width="0.5" stroke-linecap="butt"/><path d="M235.66801,206.08134v-3.72414h3.10143l0.0365,4.2069c0,0 -1.21818,-0.04387 -1.765,-0.12799c-0.49376,-0.07596 -1.37292,-0.35477 -1.37292,-0.35477z" fill="url(#color-9)" stroke="none" stroke-width="0" stroke-linecap="butt"/><path d="M243.26411,206.43611c-0.5468,0.08413 -1.765,0.12799 -1.765,0.12799l0.0365,-4.2069h3.10144v3.72414c0,0 -0.87918,0.2788 -1.37292,0.35477z" data-paper-data="{&quot;index&quot;:null}" fill="url(#color-10)" stroke="none" stroke-width="0" stroke-linecap="butt"/><g stroke="#000000" stroke-width="0" stroke-linecap="round"><path d="M242.82395,206.62112l-2.51406,14.93246l-2.95973,-14.93246z" fill="url(#color-11)"/><path d="M243.79294,207.56954l-3.42299,20.33121l-4.02978,-20.33121z" fill="url(#color-12)"/><path d="M241.66846,206.11823c0,0 2.48074,0.54702 2.39598,2.41626c-0.20255,4.46815 -4.14692,5.49149 -4.14692,5.49149c0,0 -3.32774,-0.90981 -3.40969,-5.49149c-0.03489,-1.95089 2.30384,-2.41626 2.30384,-2.41626z" fill="url(#color-13)"/><path d="M241.13508,206.36497c0,0 1.67704,0.3698 1.61975,1.63345c-0.13692,3.02057 -2.80342,3.71239 -2.80342,3.71239c0,0 -2.24963,-0.61506 -2.30505,-3.71239c-0.02358,-1.31885 1.55746,-1.63345 1.55746,-1.63345z" fill="url(#color-14)"/><path d="M241.75037,206.00691c0,0 2.78645,0.61444 2.69129,2.71404c-0.22748,5.01881 -4.65799,6.16828 -4.65799,6.16828c0,0 -3.73784,-1.02195 -3.82993,-6.16828c-0.0392,-2.19132 2.58779,-2.71404 2.58779,-2.71404z" fill="url(#color-15)"/><path d="M240.78596,205.93396c0,0 1.2195,0.26891 1.17784,1.18781c-0.09956,2.1965 -2.03859,2.69957 -2.03859,2.69957c0,0 -1.6359,-0.44726 -1.67618,-2.69957c-0.01716,-0.95904 1.13255,-1.18781 1.13255,-1.18781z" fill="url(#color-16)"/><path d="M243.35698,206.00691c0,0 1.21952,0.26892 1.17784,1.18781c-0.09956,2.1965 -2.03861,2.69957 -2.03861,2.69957c0,0 -1.6359,-0.44726 -1.67618,-2.69957c-0.01715,-0.95904 1.13257,-1.18781 1.13257,-1.18781z" fill="url(#color-17)"/><path d="M238.21496,206.00691c0,0 1.21952,0.26892 1.17784,1.18781c-0.09956,2.1965 -2.03861,2.69957 -2.03861,2.69957c0,0 -1.6359,-0.44726 -1.67618,-2.69957c-0.01715,-0.95904 1.13257,-1.18781 1.13257,-1.18781z" fill="url(#color-18)"/></g><path d="M235.34149,206.10898v-4.27273c0,0 2.57965,-0.51228 4.80467,-0.5c2.22423,0.01228 4.80467,0.5 4.80467,0.5v4.27273c0,0 -2.66532,-0.63636 -4.85088,-0.63636c-2.21637,0 -4.75846,0.63636 -4.75846,0.63636z" fill="url(#color-19)" stroke="none" stroke-width="0" stroke-linecap="butt"/><path d="M244.1812,205.54808v-3.68" fill="none" stroke="#656565" stroke-width="0.5" stroke-linecap="round"/><path d="M243.00221,205.30808v-3.64" fill="none" stroke="#6a6a6a" stroke-width="0.5" stroke-linecap="round"/><path d="M241.90448,201.54808l-0.04064,3.64" fill="none" stroke="#6f6f6f" stroke-width="0.5" stroke-linecap="round"/><path d="M240.76618,201.46808l-0.08132,3.68" fill="none" stroke="#747474" stroke-width="0.5" stroke-linecap="round"/><path d="M239.54654,205.18808l0.04064,-3.76" fill="none" stroke="#787878" stroke-width="0.5" stroke-linecap="round"/><path d="M238.44883,201.50808v3.76" fill="none" stroke="#7b7b7b" stroke-width="0.5" stroke-linecap="round"/><path d="M241.19726,156.79167v-3.875h3.57356v3.875z" fill="#00cd94" stroke="none" stroke-width="0" stroke-linecap="butt"/><path d="M248.27289,200.33699l13.77633,-7.77778" fill="none" stroke="#00386f" stroke-width="2.5" stroke-linecap="round"/><path d="M235.31281,198.89449l0.15795,-37.58147l5.58376,-5.42857v15.66277c0,0 0.69969,1.92095 2.60286,1.92095c1.86991,0 2.56212,-1.79051 2.56212,-1.79051v-15.95287l5.72333,5.42857l-0.18827,37.7619l-2.5751,0.71141l-10.11432,0.0566z" fill="url(#color-20)" stroke="url(#color-21)" stroke-width="2.5" stroke-linecap="round"/><path d="M238.66582,153.04728c0,0 0.76926,0.91199 1.3512,1.36364c0.58192,0.45165 0.9117,0.53754 1.2717,0.63636c0.36001,0.09883 0.71533,-0.09091 0.71533,-0.09091l1.19223,16.90909l-7.39179,1.36364z" fill="#676767" stroke="#ff0000" stroke-width="0" stroke-linecap="round"/><g fill="none" stroke-linecap="round"><g stroke="#b6b6b6" stroke-width="2.5"><path d="M223.767,175.37846v4.09091"/></g><path d="M224.16441,175.53755l-0.03973,4.18182" stroke="#c2c2c2" stroke-width="1.5"/></g><g data-paper-data="{&quot;index&quot;:null}" fill="none" stroke-linecap="round"><g stroke="#b6b6b6" stroke-width="2.5"><path d="M257.08166,175.37846v4.09091"/></g><path d="M256.68425,175.53755l0.03973,4.18182" stroke="#c2c2c2" stroke-width="1.5"/></g><path d="M237.4824,173.76976v-11.79798h5.05148v11.79798z" fill="url(#color-22)" stroke="none" stroke-width="0" stroke-linecap="butt"/><path d="M241.92997,162.01588c0,0.25833 -0.84313,0.46774 -1.88319,0.46774c-1.04006,0 -1.8832,-0.20941 -1.8832,-0.46774c0,-0.25833 0.84314,-0.46775 1.8832,-0.46775c1.04006,0 1.88319,0.20942 1.88319,0.46775z" fill="url(#color-23)" stroke="#7e7e7e" stroke-width="0.5" stroke-linecap="butt"/><path d="M217.95497,194.71383v-1.9375h0.92894v1.9375z" fill="#00386f" stroke="none" stroke-width="0" stroke-linecap="butt"/><path d="M216.98718,178.86467l23.05707,0.125l-0.0413,21.91417l-7.95453,-0.03917l-15.43378,-8.625z" fill="url(#color-24)" stroke="#b6b6b6" stroke-width="0" stroke-linecap="round"/><path d="M217.66848,180.24806v-1.35714h1.68615v1.35714z" fill="#00bcfb" stroke="none" stroke-width="0" stroke-linecap="butt"/><path d="M238.9014,180.31949v19.28572" fill="none" stroke="#3195b6" stroke-width="2.5" stroke-linecap="round"/><path d="M237.83977,183.74806v-4.71428h2.18574v4.71428z" fill="#f00000" stroke="none" stroke-width="0" stroke-linecap="butt"/><path d="M237.83977,200.81949v-6h2.18574v6z" fill="#0098ca" stroke="none" stroke-width="0" stroke-linecap="butt"/><path d="M230.13893,184.71383v7.1875" fill="none" stroke="#00bcfb" stroke-width="1" stroke-linecap="round"/><path d="M231.72358,192.46383l0.10931,-8.6875" fill="none" stroke="#f50000" stroke-width="1" stroke-linecap="round"/><path d="M221.83311,181.15133v7.9375" fill="none" stroke="#006c8a" stroke-width="1" stroke-linecap="round"/><path d="M227.0789,193.96383v-11.875" fill="none" stroke="#005b82" stroke-width="1" stroke-linecap="round"/><path d="M234.51042,184.27633l-0.05463,11.1875" fill="none" stroke="#fa0000" stroke-width="1" stroke-linecap="round"/><path d="M224.72923,194.33883l0.10931,-5.125" fill="none" stroke="#005b82" stroke-width="1" stroke-linecap="round"/><path d="M236.64153,192.40133l-0.05464,-11" fill="none" stroke="#fa0000" stroke-width="1" stroke-linecap="round"/><path d="M262.43717,194.71383v-1.9375h0.92894v1.9375z" fill="#00386f" stroke="none" stroke-width="0" stroke-linecap="butt"/><path d="M263.39342,192.23967l-15.43378,8.625l-7.95453,0.03917l-0.0413,-21.91417l23.05707,-0.125z" fill="url(#color-25)" stroke="#b6b6b6" stroke-width="0" stroke-linecap="round"/><path d="M260.65344,180.24806v-1.35714h1.68615v1.35714z" fill="#00b1ec" stroke="none" stroke-width="0" stroke-linecap="butt"/><path d="M241.10668,199.60521v-19.28572" fill="none" stroke="#3195b6" stroke-width="2.5" stroke-linecap="round"/><path d="M239.98255,183.74806v-4.71428h2.18574v4.71428z" fill="#f00000" stroke="none" stroke-width="0" stroke-linecap="butt"/><path d="M239.98255,200.81949v-6h2.18574v6z" fill="#0098ca" stroke="none" stroke-width="0" stroke-linecap="butt"/><path d="M249.86917,191.90133v-7.1875" fill="none" stroke="#00bcfb" stroke-width="1" stroke-linecap="round"/><path d="M248.17522,183.77633l0.1093,8.6875" fill="none" stroke="#f50000" stroke-width="1" stroke-linecap="round"/><path d="M258.17496,181.15133v7.9375" fill="none" stroke="#006c8a" stroke-width="1" stroke-linecap="round"/><path d="M252.92922,182.08883v11.875" fill="none" stroke="#005b82" stroke-width="1" stroke-linecap="round"/><path d="M245.55234,195.46383l-0.05464,-11.1875" fill="none" stroke="#fa0000" stroke-width="1" stroke-linecap="round"/><path d="M255.27888,194.33883l-0.10931,-5.125" fill="none" stroke="#005b82" stroke-width="1" stroke-linecap="round"/><path d="M243.36659,192.40133l0.05464,-11" fill="none" stroke="#fa0000" stroke-width="1" stroke-linecap="round"/><path d="M240.73517,167.61264v-4.77419h0.22562v4.77419z" fill="#1dfffb" stroke="none" stroke-width="0" stroke-linecap="butt"/><path d="M241.28869,153.41091v17.45455c0,0 -0.35997,0.95908 -1.3512,0.90909c-0.96853,-0.04885 -1.19223,-0.90909 -1.19223,-0.90909l-0.07949,-17.45455" fill="none" stroke="#b1b1b1" stroke-width="1" stroke-linecap="round"/><path d="M231.59295,198.72782l0.15795,-37.58147l5.58376,-5.42857v15.66277c0,0 0.69969,1.92095 2.60286,1.92095c1.86991,0 2.56211,-1.79051 2.56211,-1.79051v-15.95287l5.72333,5.42857l-0.18826,37.7619l-2.5751,0.71141l-10.11432,0.0566z" fill="#ffffff" stroke="#ffffff" stroke-width="2.5" stroke-linecap="round"/><path d="M235.83097,195.54754l-0.09715,-18.33333" fill="none" stroke="#eeeeee" stroke-width="1" stroke-linecap="round"/><path d="M245.93393,177.21421l0.09715,11.77777" fill="none" stroke="#eeeeee" stroke-width="1" stroke-linecap="round"/><path d="M243.50536,184.76976l0.19428,10.66666" fill="none" stroke="#eeeeee" stroke-width="1" stroke-linecap="round"/><path d="M237.57955,199.54754v-13.33333" fill="none" stroke="#eeeeee" stroke-width="1" stroke-linecap="round"/><path d="M242.24247,180.65865l0.09715,-7" fill="none" stroke="#eeeeee" stroke-width="1" stroke-linecap="round"/><path d="M235.05382,159.3253l-0.19429,13.77777" fill="none" stroke="#eeeeee" stroke-width="1" stroke-linecap="round"/><path d="M247.19684,160.3253l-0.19428,12.11111" fill="none" stroke="#fa0000" stroke-width="1" stroke-linecap="round"/><path d="M244.86537,160.99198l-0.29143,13" fill="none" stroke="#eeeeee" stroke-width="1" stroke-linecap="round"/><path d="M239.18174,167.52489v-4.7h0.17486v4.7z" fill="url(#color-26)" stroke="none" stroke-width="0" stroke-linecap="butt"/><path d="M239.9455,167.70942v-4.80645h0.19743v4.80645z" fill="#1dfffb" stroke="none" stroke-width="0" stroke-linecap="butt"/><path d="M238.55155,175.83195l1.23689,-1.05738l1.3167,0.91167v7.72276l-1.27681,0.54738l-1.27681,-0.6931z" fill="#8cffff" stroke="#7e7e7e" stroke-width="0.5" stroke-linecap="round"/><path d="M241.013,175.69407l-1.2568,1.125l-1.14752,-0.875" fill="none" stroke="#55eded" stroke-width="0.5" stroke-linecap="round"/><path d="M238.82725,183.19407l0.87431,-0.6875l1.09286,0.8125" fill="none" stroke="#55eded" stroke-width="0.5" stroke-linecap="round"/><path d="M239.97478,183.63157l-0.16392,-0.5625l-0.05464,-6.5625l0.05464,-1.5" fill="none" stroke="#4fdada" stroke-width="0.5" stroke-linecap="round"/><path d="M238.55155,175.83195l1.23689,-1.05738l1.3167,0.91167v7.72276l-1.27681,0.54738l-1.27681,-0.6931z" fill="none" stroke="#7e7e7e" stroke-width="0.5" stroke-linecap="round"/><path d="M240.03592,176.94953l0.81185,-0.82143l0.02082,6.9881l-0.85348,-0.78572z" fill="#5cffff" stroke="none" stroke-width="0" stroke-linecap="round"/><path d="M240.02184,182.99549l0.60563,0.37012l-0.45125,0.13243z" fill="#57f3f3" stroke="#56eeee" stroke-width="0" stroke-linecap="round"/><path d="M239.55931,182.32109l-0.81186,0.66353l-0.02082,-6.80388l0.85348,0.78572z" data-paper-data="{&quot;index&quot;:null}" fill="#87ffff" stroke="none" stroke-width="0" stroke-linecap="round"/><path d="M236.638,200.90477v-10.7h3.32232v10.7z" fill="#2d2d2d" stroke="none" stroke-width="0" stroke-linecap="butt"/><path d="M239.87289,200.90477v-10.7h3.32232v10.7z" data-paper-data="{&quot;index&quot;:null}" fill="#2d2d2d" stroke="none" stroke-width="0" stroke-linecap="butt"/><path d="M239.71385,183.62961l-0.65833,-0.34296l0.53661,-0.37011z" data-paper-data="{&quot;index&quot;:null}" fill="#5afbfb" stroke="#56eeee" stroke-width="0" stroke-linecap="round"/><path d="M235.44237,156.23007l-0.09715,13.44444l-1.74858,1.88889v11.77778l3.49717,3.77778v13.66667h-4.95435l-1.36001,-0.66667l-0.09716,-39.33333z" fill="url(#color-27)" stroke="url(#color-28)" stroke-width="0.5" stroke-linecap="round"/><path d="M249.13971,160.77767l-0.09715,39.33333l-1.36002,0.66667h-4.95434v-13.66667l3.49717,-3.77777v-11.77778l-1.74858,-1.88889l-0.09715,-13.44444z" data-paper-data="{&quot;index&quot;:null}" fill="url(#color-29)" stroke="url(#color-30)" stroke-width="0.5" stroke-linecap="round"/><path d="M230.48319,192.93828l-13.11447,-7.6l-0.08744,-6.44445l13.20188,0.07778z" fill="#ffffff" stroke="#ffffff" stroke-width="0.5" stroke-linecap="round"/><path d="M221.41721,188.09109l-4.30334,-2.49384l-0.09485,-6.99198l4.30537,0.02536z" fill="url(#color-31)" stroke="#ff9b00" stroke-width="0" stroke-linecap="round"/><path d="M249.33401,199.96024v-13.11111h2.52574v11.74943z" fill="url(#color-32)" stroke="none" stroke-width="0" stroke-linecap="butt"/><path d="M249.53314,178.97161l13.20189,-0.07778l-0.08744,6.44445l-13.11447,7.6z" data-paper-data="{&quot;index&quot;:null}" fill="#ffffff" stroke="#ffffff" stroke-width="0" stroke-linecap="round"/><path d="M237.94945,184.73335v-12.5h4.19664v12.5z" fill="#ffffff" stroke="none" stroke-width="0" stroke-linecap="butt"/><g stroke="#8abcd0" stroke-width="0.5" stroke-linecap="round"><path d="M241.13945,180.55772c0,0 -0.48795,1.7675 -1.08898,1.7675c-0.60104,0 -1.08898,-1.7675 -1.08898,-1.7675l0.01557,-4.93504c0,0 0.48796,-1.7675 1.08898,-1.7675c0.60105,0 1.08899,1.7675 1.08899,1.7675z" fill="#97cee4"/><path d="M239.08179,176.19633h1.88098" fill="none"/><path d="M240.87727,177.58407h-1.79548" fill="none"/><path d="M238.99626,179.80444h1.96648" fill="none"/><path d="M240.88826,178.39883h-1.96648" fill="none"/></g><path d="M249.20562,193.34383v-14.60714h2.6229v13.17857z" fill="url(#color-33)" stroke="none" stroke-width="0" stroke-linecap="butt"/><path d="M237.91545,200.28308v-5.33334h3.9829v5.33334z" fill="url(#color-34)" stroke="none" stroke-width="0" stroke-linecap="butt"/><path d="M238.26515,194.18308v-2.83333h3.28347v2.83333z" fill="url(#color-35)" stroke="none" stroke-width="0" stroke-linecap="butt"/><path d="M239.38475,191.52779v2.41667" fill="none" stroke="#9e9e9e" stroke-width="0.5" stroke-linecap="round"/><path d="M240.47761,193.94446v-2.41667" fill="none" stroke="#9e9e9e" stroke-width="0.5" stroke-linecap="round"/><path d="M258.59233,178.63063l4.30538,-0.02536l-0.09486,6.99199l-4.30334,2.49384z" data-paper-data="{&quot;index&quot;:null}" fill="url(#color-36)" stroke="#ff9b00" stroke-width="0" stroke-linecap="round"/><path d="M218.43469,192.11529l0.06725,-12.23077" fill="none" stroke="url(#color-37)" stroke-width="2" stroke-linecap="round"/><path d="M261.57336,192.11529l-0.06725,-12.23077" fill="none" stroke="url(#color-38)" stroke-width="2" stroke-linecap="round"/><path d="M217.39787,178.94647l-0.0112,13.58974" fill="none" stroke="url(#color-39)" stroke-width="0.5" stroke-linecap="round"/><path d="M262.6102,178.94647l0.0112,13.58974" fill="none" stroke="url(#color-40)" stroke-width="0.5" stroke-linecap="round"/><path d="M230.57305,173.00596v-12.34732l3.30289,-3.33333v15.76398z" fill="url(#color-41)" stroke="none" stroke-width="0" stroke-linecap="butt"/><path d="M230.57305,187.83929v-14.83333h3.30289v14.83333z" fill="url(#color-42)" stroke="none" stroke-width="0" stroke-linecap="butt"/><path d="M230.50021,200.01975l0.07285,-12.23611l3.30289,0.05834v13.03889h-2.04003z" fill="url(#color-43)" stroke="none" stroke-width="0" stroke-linecap="butt"/><path d="M230.60535,175.23334v-4.5h3.23488v4.5z" fill="url(#color-44)" stroke="none" stroke-width="0" stroke-linecap="butt"/><path d="M230.60535,190.33334v-4.5h3.23488v4.5z" fill="url(#color-45)" stroke="none" stroke-width="0" stroke-linecap="butt"/><g fill="none" stroke-linecap="round"><path d="M216.01357,177.36467v6.8125" stroke="#b6b6b6" stroke-width="2.5"/><g><path d="M215.84966,191.86467v-6.8125" stroke="#b6b6b6" stroke-width="3"/><path d="M216.28258,191.88452v-6.6875" stroke="#c2c2c2" stroke-width="2"/></g><path d="M216.44651,184.19702v-6.6875" stroke="#c2c2c2" stroke-width="1.5"/></g><g data-paper-data="{&quot;index&quot;:null}" fill="none" stroke-linecap="round"><path d="M264.34877,177.36467v6.8125" stroke="#b6b6b6" stroke-width="2.5"/><g><path d="M264.51271,191.86467v-6.8125" stroke="#b6b6b6" stroke-width="3"/><path d="M264.07978,191.88452v-6.6875" stroke="#c2c2c2" stroke-width="2"/></g><path d="M263.91584,184.19702v-6.6875" stroke="#c2c2c2" stroke-width="1.5"/></g><g fill="#01878f" stroke="#d5d5d5" stroke-width="1" stroke-linecap="square"><g><path d="M229.03287,183.64476h-0.6153l-1.61401,-2.06928c-0.12551,-0.16281 -0.24412,-0.27485 -0.35587,-0.33613c-0.11173,-0.06302 -0.21964,-0.09454 -0.32372,-0.09454c-0.14083,0 -0.2663,0.03501 -0.37652,0.10504c-0.11173,0.06828 -0.19975,0.16369 -0.26404,0.28623c-0.06429,0.12255 -0.09643,0.2626 -0.09643,0.42016c0,0.16806 0.03368,0.31687 0.10102,0.44642c0.06736,0.12955 0.15689,0.23021 0.26862,0.30199c0.11173,0.07178 0.23266,0.10504 0.36275,0.09979v0.83244c-0.28315,0 -0.52959,-0.07178 -0.73928,-0.21533c-0.20969,-0.1453 -0.37195,-0.34488 -0.48673,-0.59872c-0.11632,-0.25384 -0.17449,-0.54796 -0.17449,-0.88233c0,-0.30987 0.06047,-0.58734 0.18138,-0.83244c0.12092,-0.24684 0.28776,-0.44029 0.5005,-0.58034c0.21273,-0.1418 0.45687,-0.2127 0.73238,-0.2127c0.20203,0 0.37194,0.03151 0.50968,0.09454c0.13623,0.06127 0.26251,0.15406 0.37883,0.27835c0.1148,0.1243 0.2426,0.27835 0.38341,0.46217l1.13877,1.47055l-0.17678,0.07353v-2.37914h0.66582z"/><path d="M229.07772,185.90967c0,0.33516 -0.06204,0.63099 -0.18614,0.88749c-0.12557,0.25479 -0.30051,0.45401 -0.52475,0.59765c-0.22425,0.14364 -0.4829,0.21546 -0.77593,0.21546h-1.33208c-0.29155,0 -0.54945,-0.07182 -0.7737,-0.21546c-0.22425,-0.14364 -0.39918,-0.34285 -0.52475,-0.59765c-0.12557,-0.2565 -0.18839,-0.55233 -0.18839,-0.88749c0,-0.33516 0.06278,-0.63013 0.18839,-0.88493c0.12557,-0.25479 0.3005,-0.45401 0.52475,-0.59765c0.22425,-0.14535 0.48215,-0.21803 0.7737,-0.21803h1.33208c0.29303,0 0.55167,0.07268 0.77593,0.21803c0.22425,0.14364 0.39919,0.34285 0.52475,0.59765c0.12408,0.25479 0.18614,0.54977 0.18614,0.88493zM228.42063,185.90967c0,-0.16758 -0.03438,-0.31892 -0.10315,-0.45401c-0.07027,-0.13509 -0.16446,-0.24197 -0.28256,-0.32063c-0.11811,-0.07866 -0.24967,-0.11799 -0.39471,-0.11799h-1.43301c-0.14652,0 -0.27882,0.03933 -0.39695,0.11799c-0.11811,0.07866 -0.21155,0.18554 -0.28031,0.32063c-0.07027,0.13509 -0.1054,0.28642 -0.1054,0.45401c0,0.16587 0.03513,0.3172 0.1054,0.45401c0.06877,0.13509 0.16222,0.24197 0.28031,0.32063c0.11811,0.07866 0.25042,0.11799 0.39695,0.11799h1.43301c0.14503,0 0.27658,-0.03933 0.39471,-0.11799c0.11811,-0.07866 0.2123,-0.18554 0.28256,-0.32063c0.06877,-0.1368 0.10315,-0.28814 0.10315,-0.45401z"/></g><g data-paper-data="{&quot;index&quot;:null}"><path d="M250.55548,180.31502h0.66582v2.37914l-0.17678,-0.07353l1.13877,-1.47055c0.14083,-0.18382 0.26862,-0.33787 0.38341,-0.46217c0.11632,-0.12429 0.2426,-0.21708 0.37883,-0.27835c0.13776,-0.06303 0.30764,-0.09454 0.50968,-0.09454c0.27553,0 0.51965,0.0709 0.73238,0.2127c0.21273,0.14005 0.37958,0.3335 0.5005,0.58034c0.12092,0.2451 0.18138,0.52257 0.18138,0.83244c0,0.33437 -0.05816,0.62849 -0.17449,0.88233c-0.1148,0.25384 -0.27706,0.45342 -0.48673,0.59872c-0.20969,0.14355 -0.45611,0.21533 -0.73927,0.21533v-0.83244c0.13008,0.00525 0.25102,-0.02801 0.36275,-0.09979c0.11173,-0.07178 0.20127,-0.17244 0.26862,-0.30199c0.06736,-0.12955 0.10102,-0.27836 0.10102,-0.44642c0,-0.15756 -0.03214,-0.29761 -0.09643,-0.42016c-0.06429,-0.12254 -0.15229,-0.21795 -0.26403,-0.28623c-0.11021,-0.07003 -0.23572,-0.10504 -0.37652,-0.10504c-0.10406,0 -0.21199,0.03152 -0.32372,0.09454c-0.11173,0.06128 -0.23035,0.17332 -0.35586,0.33613l-1.61401,2.06928h-0.6153z"/><path d="M250.69679,185.02474c0.12557,-0.25479 0.30051,-0.45401 0.52476,-0.59765c0.22425,-0.14535 0.48289,-0.21803 0.77593,-0.21803h1.33209c0.29155,0 0.54945,0.07268 0.77369,0.21803c0.22425,0.14364 0.39919,0.34285 0.52475,0.59765c0.12557,0.25479 0.18839,0.54977 0.18839,0.88493c0,0.33516 -0.06279,0.63099 -0.18839,0.88749c-0.12557,0.25479 -0.30051,0.45401 -0.52475,0.59765c-0.22425,0.14364 -0.48215,0.21546 -0.77369,0.21546h-1.33209c-0.29303,0 -0.55166,-0.07182 -0.77593,-0.21546c-0.22425,-0.14364 -0.39919,-0.34285 -0.52476,-0.59765c-0.12408,-0.2565 -0.18614,-0.55233 -0.18614,-0.88749c0,-0.33516 0.06204,-0.63013 0.18614,-0.88493zM251.27088,186.36367c0.07027,0.13509 0.16446,0.24197 0.28256,0.32063c0.11811,0.07866 0.24966,0.11799 0.39471,0.11799h1.43301c0.14652,0 0.27882,-0.03933 0.39695,-0.11799c0.11811,-0.07866 0.21155,-0.18554 0.2803,-0.32063c0.07027,-0.1368 0.1054,-0.28814 0.1054,-0.45401c0,-0.16758 -0.03513,-0.31892 -0.1054,-0.45401c-0.06877,-0.13509 -0.16222,-0.24197 -0.2803,-0.32063c-0.11811,-0.07866 -0.25042,-0.11799 -0.39695,-0.11799h-1.43301c-0.14503,0 -0.27657,0.03933 -0.39471,0.11799c-0.11811,0.07866 -0.2123,0.18554 -0.28256,0.32063c-0.06877,0.13509 -0.10315,0.28642 -0.10315,0.45401c0,0.16587 0.03438,0.3172 0.10315,0.45401z"/></g></g><g stroke-width="0.25" stroke-linecap="square"><g><path d="M229.03287,183.64476h-0.6153l-1.61401,-2.06928c-0.12551,-0.16281 -0.24412,-0.27485 -0.35587,-0.33613c-0.11173,-0.06302 -0.21964,-0.09454 -0.32372,-0.09454c-0.14083,0 -0.2663,0.03501 -0.37652,0.10504c-0.11173,0.06828 -0.19975,0.16369 -0.26404,0.28623c-0.06429,0.12255 -0.09643,0.2626 -0.09643,0.42016c0,0.16806 0.03368,0.31687 0.10102,0.44642c0.06736,0.12955 0.15689,0.23021 0.26862,0.30199c0.11173,0.07178 0.23266,0.10504 0.36275,0.09979v0.83244c-0.28315,0 -0.52959,-0.07178 -0.73928,-0.21533c-0.20969,-0.1453 -0.37195,-0.34488 -0.48673,-0.59872c-0.11632,-0.25384 -0.17449,-0.54796 -0.17449,-0.88233c0,-0.30987 0.06047,-0.58734 0.18138,-0.83244c0.12092,-0.24684 0.28776,-0.44029 0.5005,-0.58034c0.21273,-0.1418 0.45687,-0.2127 0.73238,-0.2127c0.20203,0 0.37194,0.03151 0.50968,0.09454c0.13623,0.06127 0.26251,0.15406 0.37883,0.27835c0.1148,0.1243 0.2426,0.27835 0.38341,0.46217l1.13877,1.47055l-0.17678,0.07353v-2.37914h0.66582z" fill="url(#color-46)" stroke="url(#color-47)"/><path d="M229.07772,185.90967c0,0.33516 -0.06204,0.63099 -0.18614,0.88749c-0.12557,0.25479 -0.30051,0.45401 -0.52475,0.59765c-0.22425,0.14364 -0.4829,0.21546 -0.77593,0.21546h-1.33208c-0.29155,0 -0.54945,-0.07182 -0.7737,-0.21546c-0.22425,-0.14364 -0.39918,-0.34285 -0.52475,-0.59765c-0.12557,-0.2565 -0.18839,-0.55233 -0.18839,-0.88749c0,-0.33516 0.06278,-0.63013 0.18839,-0.88493c0.12557,-0.25479 0.3005,-0.45401 0.52475,-0.59765c0.22425,-0.14535 0.48215,-0.21803 0.7737,-0.21803h1.33208c0.29303,0 0.55167,0.07268 0.77593,0.21803c0.22425,0.14364 0.39919,0.34285 0.52475,0.59765c0.12408,0.25479 0.18614,0.54977 0.18614,0.88493zM228.42063,185.90967c0,-0.16758 -0.03438,-0.31892 -0.10315,-0.45401c-0.07027,-0.13509 -0.16446,-0.24197 -0.28256,-0.32063c-0.11811,-0.07866 -0.24967,-0.11799 -0.39471,-0.11799h-1.43301c-0.14652,0 -0.27882,0.03933 -0.39695,0.11799c-0.11811,0.07866 -0.21155,0.18554 -0.28031,0.32063c-0.07027,0.13509 -0.1054,0.28642 -0.1054,0.45401c0,0.16587 0.03513,0.3172 0.1054,0.45401c0.06877,0.13509 0.16222,0.24197 0.28031,0.32063c0.11811,0.07866 0.25042,0.11799 0.39695,0.11799h1.43301c0.14503,0 0.27658,-0.03933 0.39471,-0.11799c0.11811,-0.07866 0.2123,-0.18554 0.28256,-0.32063c0.06877,-0.1368 0.10315,-0.28814 0.10315,-0.45401z" fill="url(#color-48)" stroke="url(#color-49)"/></g><g data-paper-data="{&quot;index&quot;:null}"><path d="M250.55548,180.31502h0.66582v2.37914l-0.17678,-0.07353l1.13877,-1.47055c0.14083,-0.18382 0.26862,-0.33787 0.38341,-0.46217c0.11632,-0.12429 0.2426,-0.21708 0.37883,-0.27835c0.13776,-0.06303 0.30764,-0.09454 0.50968,-0.09454c0.27553,0 0.51965,0.0709 0.73238,0.2127c0.21273,0.14005 0.37958,0.3335 0.5005,0.58034c0.12092,0.2451 0.18138,0.52257 0.18138,0.83244c0,0.33437 -0.05816,0.62849 -0.17449,0.88233c-0.1148,0.25384 -0.27706,0.45342 -0.48673,0.59872c-0.20969,0.14355 -0.45611,0.21533 -0.73927,0.21533v-0.83244c0.13008,0.00525 0.25102,-0.02801 0.36275,-0.09979c0.11173,-0.07178 0.20127,-0.17244 0.26862,-0.30199c0.06736,-0.12955 0.10102,-0.27836 0.10102,-0.44642c0,-0.15756 -0.03214,-0.29761 -0.09643,-0.42016c-0.06429,-0.12254 -0.15229,-0.21795 -0.26403,-0.28623c-0.11021,-0.07003 -0.23572,-0.10504 -0.37652,-0.10504c-0.10406,0 -0.21199,0.03152 -0.32372,0.09454c-0.11173,0.06128 -0.23035,0.17332 -0.35586,0.33613l-1.61401,2.06928h-0.6153z" fill="url(#color-50)" stroke="url(#color-51)"/><path d="M250.69679,185.02474c0.12557,-0.25479 0.30051,-0.45401 0.52476,-0.59765c0.22425,-0.14535 0.48289,-0.21803 0.77593,-0.21803h1.33209c0.29155,0 0.54945,0.07268 0.77369,0.21803c0.22425,0.14364 0.39919,0.34285 0.52475,0.59765c0.12557,0.25479 0.18839,0.54977 0.18839,0.88493c0,0.33516 -0.06279,0.63099 -0.18839,0.88749c-0.12557,0.25479 -0.30051,0.45401 -0.52475,0.59765c-0.22425,0.14364 -0.48215,0.21546 -0.77369,0.21546h-1.33209c-0.29303,0 -0.55166,-0.07182 -0.77593,-0.21546c-0.22425,-0.14364 -0.39919,-0.34285 -0.52476,-0.59765c-0.12408,-0.2565 -0.18614,-0.55233 -0.18614,-0.88749c0,-0.33516 0.06204,-0.63013 0.18614,-0.88493zM251.27088,186.36367c0.07027,0.13509 0.16446,0.24197 0.28256,0.32063c0.11811,0.07866 0.24966,0.11799 0.39471,0.11799h1.43301c0.14652,0 0.27882,-0.03933 0.39695,-0.11799c0.11811,-0.07866 0.21155,-0.18554 0.2803,-0.32063c0.07027,-0.1368 0.1054,-0.28814 0.1054,-0.45401c0,-0.16758 -0.03513,-0.31892 -0.1054,-0.45401c-0.06877,-0.13509 -0.16222,-0.24197 -0.2803,-0.32063c-0.11811,-0.07866 -0.25042,-0.11799 -0.39695,-0.11799h-1.43301c-0.14503,0 -0.27657,0.03933 -0.39471,0.11799c-0.11811,0.07866 -0.2123,0.18554 -0.28256,0.32063c-0.06877,0.13509 -0.10315,0.28642 -0.10315,0.45401c0,0.16587 0.03438,0.3172 0.10315,0.45401z" fill="url(#color-52)" stroke="url(#color-53)"/></g></g><path d="M214.99288,178.7381v-0.92857h2.18574v0.92857z" fill="#ff0000" stroke="none" stroke-width="0" stroke-linecap="butt"/><path d="M262.8849,178.7381v-0.92857h2.18574v0.92857z" fill="#ff0000" stroke="none" stroke-width="0" stroke-linecap="butt"/></g></g></svg>