<svg version="1.1" xmlns="http://www.w3.org/2000/svg" xmlns:xlink="http://www.w3.org/1999/xlink" width="148.02103" height="669.84635" viewBox="0,0,148.02103,669.84635"><defs><linearGradient x1="229.32158" y1="363.31288" x2="193.19061" y2="363.39635" gradientUnits="userSpaceOnUse" id="color-1"><stop offset="0" stop-color="#ff0000"/><stop offset="1" stop-color="#ff0000" stop-opacity="0"/></linearGradient><linearGradient x1="253.79741" y1="363.25634" x2="289.9284" y2="363.17288" gradientUnits="userSpaceOnUse" id="color-2"><stop offset="0" stop-color="#ff0000"/><stop offset="1" stop-color="#ff0000" stop-opacity="0"/></linearGradient><linearGradient x1="267.7836" y1="363.22404" x2="303.91458" y2="363.14057" gradientUnits="userSpaceOnUse" id="color-3"><stop offset="0" stop-color="#ff0000"/><stop offset="1" stop-color="#ff0000" stop-opacity="0"/></linearGradient><radialGradient cx="241.5015" cy="66.23448" r="53.03115" gradientUnits="userSpaceOnUse" id="color-4"><stop offset="0" stop-color="#ff0000"/><stop offset="1" stop-color="#ff0000" stop-opacity="0"/></radialGradient><radialGradient cx="241.5015" cy="66.23448" r="74.01051" gradientUnits="userSpaceOnUse" id="color-5"><stop offset="0" stop-color="#ff0000"/><stop offset="1" stop-color="#ff0000" stop-opacity="0"/></radialGradient><radialGradient cx="227.79505" cy="65.09948" r="29.32427" gradientUnits="userSpaceOnUse" id="color-6"><stop offset="0" stop-color="#ffb7b7"/><stop offset="1" stop-color="#ffb7b7" stop-opacity="0"/></radialGradient><radialGradient cx="253.64662" cy="65.03976" r="29.32427" gradientUnits="userSpaceOnUse" id="color-7"><stop offset="0" stop-color="#ffb7b7"/><stop offset="1" stop-color="#ffb7b7" stop-opacity="0"/></radialGradient><radialGradient cx="240.5279" cy="65.07006" r="29.32427" gradientUnits="userSpaceOnUse" id="color-8"><stop offset="0" stop-color="#ffb7b7"/><stop offset="1" stop-color="#ffb7b7" stop-opacity="0"/></radialGradient><radialGradient cx="241.81509" cy="65.39814" r="14.66213" gradientUnits="userSpaceOnUse" id="color-9"><stop offset="0" stop-color="#ffb7b7"/><stop offset="1" stop-color="#ffb7b7" stop-opacity="0"/></radialGradient><radialGradient cx="235.64297" cy="65.8538" r="14.66213" gradientUnits="userSpaceOnUse" id="color-10"><stop offset="0" stop-color="#ffb7b7"/><stop offset="1" stop-color="#ffb7b7" stop-opacity="0"/></radialGradient><radialGradient cx="228.82605" cy="65.7592" r="10.16061" gradientUnits="userSpaceOnUse" id="color-11"><stop offset="0" stop-color="#ffb7b7"/><stop offset="1" stop-color="#ffb7b7" stop-opacity="0"/></radialGradient><radialGradient cx="255.57791" cy="65.6974" r="11.8969" gradientUnits="userSpaceOnUse" id="color-12"><stop offset="0" stop-color="#ffb7b7"/><stop offset="1" stop-color="#ffb7b7" stop-opacity="0"/></radialGradient><radialGradient cx="254.03454" cy="65.70097" r="10.16059" gradientUnits="userSpaceOnUse" id="color-13"><stop offset="0" stop-color="#ffb7b7"/><stop offset="1" stop-color="#ffb7b7" stop-opacity="0"/></radialGradient><radialGradient cx="262.00934" cy="65.90325" r="7.33106" gradientUnits="userSpaceOnUse" id="color-14"><stop offset="0" stop-color="#ffb7b7"/><stop offset="1" stop-color="#ffb7b7" stop-opacity="0"/></radialGradient><radialGradient cx="246.95968" cy="65.38626" r="14.66213" gradientUnits="userSpaceOnUse" id="color-15"><stop offset="0" stop-color="#ffb7b7"/><stop offset="1" stop-color="#ffb7b7" stop-opacity="0"/></radialGradient><radialGradient cx="225.73825" cy="65.43528" r="11.57537" gradientUnits="userSpaceOnUse" id="color-16"><stop offset="0" stop-color="#ffb7b7"/><stop offset="1" stop-color="#ffb7b7" stop-opacity="0"/></radialGradient><linearGradient x1="214.16988" y1="363.34788" x2="178.0389" y2="363.43135" gradientUnits="userSpaceOnUse" id="color-17"><stop offset="0" stop-color="#ff0000"/><stop offset="1" stop-color="#ff0000" stop-opacity="0"/></linearGradient><linearGradient x1="205.71647" y1="362.27717" x2="227.86128" y2="362.22601" gradientUnits="userSpaceOnUse" id="color-18"><stop offset="0" stop-color="#ff0000"/><stop offset="1" stop-color="#ffffff"/></linearGradient><linearGradient x1="252.91985" y1="362.16812" x2="275.06466" y2="362.11698" gradientUnits="userSpaceOnUse" id="color-19"><stop offset="0" stop-color="#ffffff"/><stop offset="1" stop-color="#ff0000"/></linearGradient><radialGradient cx="219.42035" cy="55.61879" r="44.28975" gradientUnits="userSpaceOnUse" id="color-20"><stop offset="0" stop-color="#ffffff"/><stop offset="1" stop-color="#ffffff" stop-opacity="0"/></radialGradient><radialGradient cx="258.46513" cy="55.5286" r="44.28975" gradientUnits="userSpaceOnUse" id="color-21"><stop offset="0" stop-color="#ffffff"/><stop offset="1" stop-color="#ffffff" stop-opacity="0"/></radialGradient><radialGradient cx="238.65137" cy="55.57437" r="44.28975" gradientUnits="userSpaceOnUse" id="color-22"><stop offset="0" stop-color="#ffffff"/><stop offset="1" stop-color="#ffffff" stop-opacity="0"/></radialGradient><radialGradient cx="240.59546" cy="56.06988" r="22.14488" gradientUnits="userSpaceOnUse" id="color-23"><stop offset="0" stop-color="#ffffff"/><stop offset="1" stop-color="#ffffff" stop-opacity="0"/></radialGradient><radialGradient cx="231.27342" cy="56.75807" r="22.14488" gradientUnits="userSpaceOnUse" id="color-24"><stop offset="0" stop-color="#ffffff"/><stop offset="1" stop-color="#ffffff" stop-opacity="0"/></radialGradient><radialGradient cx="220.97751" cy="56.6152" r="15.34602" gradientUnits="userSpaceOnUse" id="color-25"><stop offset="0" stop-color="#ffffff"/><stop offset="1" stop-color="#ffffff" stop-opacity="0"/></radialGradient><radialGradient cx="261.38206" cy="56.52186" r="17.96843" gradientUnits="userSpaceOnUse" id="color-26"><stop offset="0" stop-color="#ffffff"/><stop offset="1" stop-color="#ffffff" stop-opacity="0"/></radialGradient><radialGradient cx="259.05102" cy="56.52724" r="15.34602" gradientUnits="userSpaceOnUse" id="color-27"><stop offset="0" stop-color="#ffffff"/><stop offset="1" stop-color="#ffffff" stop-opacity="0"/></radialGradient><radialGradient cx="271.09572" cy="56.83275" r="11.07244" gradientUnits="userSpaceOnUse" id="color-28"><stop offset="0" stop-color="#ffffff"/><stop offset="1" stop-color="#ffffff" stop-opacity="0"/></radialGradient><radialGradient cx="248.36556" cy="56.05192" r="22.14488" gradientUnits="userSpaceOnUse" id="color-29"><stop offset="0" stop-color="#ffffff"/><stop offset="1" stop-color="#ffffff" stop-opacity="0"/></radialGradient><radialGradient cx="216.31388" cy="56.12597" r="17.4828" gradientUnits="userSpaceOnUse" id="color-30"><stop offset="0" stop-color="#ffffff"/><stop offset="1" stop-color="#ffffff" stop-opacity="0"/></radialGradient></defs><g transform="translate(-167.49099,-2.73448)"><g data-paper-data="{&quot;isPaintingLayer&quot;:true}" fill-rule="nonzero" stroke-linejoin="miter" stroke-miterlimit="10" stroke-dasharray="" stroke-dashoffset="0" style="mix-blend-mode: normal"><g fill="none" stroke="#ff0000" stroke-width="4" stroke-linecap="round"><g><path d="M243.91534,322.05926c0,0 -53.78141,-18.59777 -42.85996,-44.61744c7.87887,-18.77095 82.8327,-41.48168 77.74824,-63.49364c-7.60174,-32.90996 -76.52834,-64.52957 -76.57937,-80.7933c-0.06676,-21.27719 40.94738,-48.09476 40.94738,-48.09476"/><path d="M241.13454,321.06567c0,0 41.18186,26.62769 41.24863,47.90489c0.05104,16.26372 -68.67611,48.20132 -76.0712,81.14592c-4.94624,22.03513 70.14904,44.39925 78.1456,63.13353c11.08457,25.96885 -42.57932,44.81482 -42.57932,44.81482" data-paper-data="{&quot;index&quot;:null}"/></g><g data-paper-data="{&quot;index&quot;:null}"><path d="M241.04983,294.06577c0,0 53.78141,18.59777 42.85996,44.61744c-7.87886,18.77094 -82.83271,41.48167 -77.74824,63.49364c7.60173,32.90995 76.52834,64.52957 76.57937,80.7933c0.06676,21.27719 -40.94738,48.09476 -40.94738,48.09476"/><path d="M243.8306,295.05935c0,0 -41.18186,-26.62769 -41.24863,-47.90489c-0.05104,-16.26372 68.67611,-48.20132 76.0712,-81.14592c4.94624,-22.03513 -70.14904,-44.39925 -78.1456,-63.13353c-11.08457,-25.96885 42.57932,-44.81482 42.57932,-44.81482" data-paper-data="{&quot;index&quot;:null}"/></g></g><g stroke="none" stroke-width="0" stroke-linecap="butt"><path d="M194.15879,671.9321l-1.93637,-617.0715l36.13099,-0.08346l1.93637,617.0715z" data-paper-data="{&quot;index&quot;:null}" fill="url(#color-1)"/><path d="M254.7656,671.79209l-1.93637,-617.0715l36.13099,-0.08346l1.93637,617.0715z" fill="url(#color-2)"/></g><path d="M268.75179,671.75979l-1.93637,-617.0715l36.13099,-0.08346l1.93637,617.0715z" fill="url(#color-3)" stroke="none" stroke-width="0" stroke-linecap="butt"/><path d="M188.47054,66.35698c-0.07885,-25.12887 23.59998,-45.55468 52.88818,-45.62233c29.2882,-0.06765 53.09488,20.24846 53.17373,45.37733c0.07885,25.12887 -23.59998,45.55468 -52.88818,45.62233c-29.2882,0.06765 -53.09488,-20.24846 -53.17373,-45.37733z" fill="url(#color-4)" stroke="none" stroke-width="0" stroke-linecap="butt"/><path d="M167.49126,66.40545c-0.11005,-35.06995 32.93625,-63.57632 73.81098,-63.67073c40.87472,-0.09442 74.09946,28.25885 74.2095,63.32881c0.11005,35.06995 -32.93625,63.57632 -73.81098,63.67073c-40.87472,0.09442 -74.09946,-28.25885 -74.2095,-63.32881z" fill="url(#color-5)" stroke="none" stroke-width="0" stroke-linecap="butt"/><g stroke="none" stroke-width="0" stroke-linecap="butt"><path d="M198.47088,65.16722c-0.0436,-13.89533 13.04993,-25.19006 29.24521,-25.22747c16.19528,-0.03741 29.35951,11.19666 29.40312,25.09199c0.0436,13.89533 -13.04993,25.19006 -29.24521,25.22747c-16.19528,0.03741 -29.35951,-11.19666 -29.40312,-25.09199z" fill="url(#color-6)"/><path d="M224.32246,65.1075c-0.0436,-13.89533 13.04993,-25.19006 29.24521,-25.22747c16.19528,-0.03741 29.35951,11.19666 29.40312,25.09199c0.0436,13.89533 -13.04993,25.19006 -29.24521,25.22747c-16.19528,0.03741 -29.35951,-11.19666 -29.40312,-25.09199z" fill="url(#color-7)"/><path d="M211.20375,65.1378c-0.0436,-13.89533 13.04993,-25.19006 29.24521,-25.22747c16.19528,-0.03741 29.35951,11.19666 29.40312,25.09199c0.0436,13.89533 -13.04993,25.19006 -29.24521,25.22747c-16.19528,0.03741 -29.35951,-11.19666 -29.40312,-25.09199z" fill="url(#color-8)"/><path d="M227.15302,65.43201c-0.0218,-6.94767 6.52496,-12.59503 14.6226,-12.61373c8.09765,-0.0187 14.67976,5.59833 14.70155,12.54599c0.0218,6.94767 -6.52496,12.59503 -14.6226,12.61373c-8.09765,0.0187 -14.67976,-5.59833 -14.70155,-12.54599z" fill="url(#color-9)"/><path d="M220.9809,65.88767c-0.0218,-6.94767 6.52496,-12.59503 14.6226,-12.61373c8.09765,-0.0187 14.67976,5.59833 14.70155,12.54599c0.0218,6.94767 -6.52496,12.59503 -14.6226,12.61373c-8.09765,0.0187 -14.67976,-5.59833 -14.70155,-12.54599z" fill="url(#color-10)"/><path d="M218.66548,65.78266c-0.01511,-4.81462 4.52168,-8.72812 10.1332,-8.74109c5.61154,-0.01296 10.17282,3.87955 10.18793,8.69414c0.01511,4.81462 -4.52168,8.72812 -10.13322,8.74109c-5.61154,0.01296 -10.1728,-3.87954 -10.18791,-8.69415z" fill="url(#color-11)"/><path d="M243.68103,65.72488c-0.01769,-5.63736 5.29439,-10.21965 11.86483,-10.23483c6.57045,-0.01518 11.9112,4.54251 11.9289,10.17986c0.01769,5.63736 -5.29439,10.21965 -11.86483,10.23483c-6.57045,0.01518 -11.9112,-4.54251 -11.9289,-10.17986z" fill="url(#color-12)"/><path d="M243.87397,65.72443c-0.01511,-4.81462 4.52168,-8.72812 10.13322,-8.74109c5.61154,-0.01296 10.1728,3.87954 10.18791,8.69415c0.01511,4.81462 -4.52168,8.72812 -10.1332,8.74109c-5.61154,0.01296 -10.17282,-3.87955 -10.18793,-8.69414z" fill="url(#color-13)"/><path d="M254.67829,65.92018c-0.0109,-3.47384 3.26249,-6.29751 7.31129,-6.30686c4.04883,-0.00935 7.33987,2.79917 7.35077,6.27299c0.0109,3.47384 -3.26249,6.29751 -7.31129,6.30686c-4.04883,0.00935 -7.33987,-2.79917 -7.35077,-6.27299z" fill="url(#color-14)"/><path d="M232.2976,65.42013c-0.0218,-6.94767 6.52496,-12.59503 14.6226,-12.61373c8.09765,-0.0187 14.67976,5.59833 14.70155,12.54599c0.0218,6.94767 -6.52496,12.59503 -14.6226,12.61373c-8.09765,0.0187 -14.67976,-5.59833 -14.70155,-12.54599z" fill="url(#color-15)"/><path d="M214.16292,65.46201c-0.0172,-5.485 5.15128,-9.94344 11.54416,-9.95821c6.39288,-0.01476 11.58928,4.41973 11.60649,9.90473c0.0172,5.485 -5.15128,9.94344 -11.54416,9.95821c-6.39288,0.01476 -11.58928,-4.41973 -11.60649,-9.90473z" fill="url(#color-16)"/></g><path d="M179.00709,671.9671l-1.93637,-617.0715l36.13099,-0.08346l1.93637,617.0715z" data-paper-data="{&quot;index&quot;:null}" fill="url(#color-17)" stroke="none" stroke-width="0" stroke-linecap="butt"/><g stroke="none" stroke-linecap="butt"><path d="M206.68808,671.90316l-1.94321,-619.25198l22.1448,-0.05116l1.94321,619.25198z" data-paper-data="{&quot;index&quot;:null}" fill="url(#color-18)" stroke-width="NaN"/><path d="M227.96102,672.58083l-1.94549,-619.97878l27.97238,-0.06461l1.94549,619.97878z" fill="#ffffff" stroke-width="0"/><path d="M253.89146,671.79411l-1.94321,-619.25198l22.1448,-0.05116l1.94321,619.25198z" fill="url(#color-19)" stroke-width="NaN"/></g><g stroke="none" stroke-width="0" stroke-linecap="butt"><path d="M175.13076,55.7211c-0.06586,-20.98674 19.70988,-38.04567 44.17035,-38.10217c24.46046,-0.05651 44.34298,16.91081 44.40883,37.89755c0.06586,20.98674 -19.70988,38.04567 -44.17035,38.10217c-24.46046,0.05651 -44.34298,-16.91081 -44.40883,-37.89755z" fill="url(#color-20)"/><path d="M214.17554,55.63091c-0.06586,-20.98674 19.70988,-38.04567 44.17035,-38.10217c24.46046,-0.05651 44.34298,16.91081 44.40883,37.89755c0.06586,20.98674 -19.70988,38.04567 -44.17035,38.10217c-24.46046,0.05651 -44.34298,-16.91081 -44.40883,-37.89755z" fill="url(#color-21)"/><path d="M194.36177,55.67668c-0.06586,-20.98674 19.70988,-38.04567 44.17035,-38.10217c24.46046,-0.05651 44.34298,16.91081 44.40883,37.89755c0.06586,20.98674 -19.70988,38.04567 -44.17035,38.10217c-24.46046,0.05651 -44.34298,-16.91081 -44.40883,-37.89755z" fill="url(#color-22)"/><path d="M218.45066,56.12103c-0.03293,-10.49337 9.85494,-19.02284 22.08518,-19.05109c12.23023,-0.02825 22.1715,8.4554 22.20442,18.94878c0.03293,10.49337 -9.85494,19.02284 -22.08518,19.05109c-12.23023,0.02825 -22.1715,-8.4554 -22.20442,-18.94878z" fill="url(#color-23)"/><path d="M209.12864,56.80923c-0.03293,-10.49337 9.85494,-19.02284 22.08518,-19.05109c12.23023,-0.02825 22.1715,8.4554 22.20442,18.94878c0.03293,10.49337 -9.85494,19.02284 -22.08518,19.05109c-12.23023,0.02825 -22.1715,-8.4554 -22.20442,-18.94878z" fill="url(#color-24)"/><path d="M205.63156,56.65064c-0.02282,-7.27173 6.82928,-13.18248 15.30463,-13.20206c8.47535,-0.01958 15.36445,5.85945 15.38727,13.13116c0.02282,7.27173 -6.82931,13.18249 -15.30464,13.20207c-8.47535,0.01958 -15.36444,-5.85943 -15.38726,-13.13118z" fill="url(#color-25)"/><path d="M243.41368,56.56337c-0.02673,-8.51436 7.99634,-15.43519 17.91998,-15.45811c9.92366,-0.02293 17.99003,6.86075 18.01675,15.3751c0.02673,8.51436 -7.99634,15.4352 -17.92,15.45812c-9.92366,0.02293 -17.99003,-6.86075 -18.01675,-15.37511z" fill="url(#color-26)"/><path d="M243.70506,56.56269c-0.02282,-7.27173 6.82931,-13.18248 15.30465,-13.20206c8.47535,-0.01958 15.36445,5.85945 15.38727,13.13116c0.02282,7.27173 -6.82931,13.18249 -15.30464,13.20207c-8.47535,0.01958 -15.36447,-5.85944 -15.38727,-13.13117z" fill="url(#color-27)"/><path d="M260.02333,56.85833c-0.01647,-5.24669 4.92747,-9.51141 11.04259,-9.52554c6.11512,-0.01413 11.08575,4.2277 11.10221,9.47439c0.01647,5.24669 -4.92747,9.51142 -11.04259,9.52554c-6.11511,0.01412 -11.08575,-4.2277 -11.10221,-9.47439z" fill="url(#color-28)"/><path d="M226.22076,56.10308c-0.03293,-10.49337 9.85494,-19.02284 22.08518,-19.05109c12.23023,-0.02825 22.1715,8.4554 22.20442,18.94878c0.03293,10.49337 -9.85494,19.02284 -22.08518,19.05109c-12.23023,0.02825 -22.1715,-8.4554 -22.20442,-18.94878z" fill="url(#color-29)"/><path d="M198.83114,56.16635c-0.02599,-8.28424 7.78022,-15.01803 17.43566,-15.04033c9.65545,-0.0223 17.50381,6.67532 17.5298,14.95956c0.02599,8.28424 -7.78022,15.01803 -17.43566,15.04033c-9.65545,0.0223 -17.50381,-6.67532 -17.5298,-14.95956z" fill="url(#color-30)"/></g></g></g></svg>