<svg version="1.1" xmlns="http://www.w3.org/2000/svg" xmlns:xlink="http://www.w3.org/1999/xlink" width="54.79382" height="73.54117" viewBox="0,0,54.79382,73.54117"><defs><radialGradient cx="240.41804" cy="205.428" r="12.35459" gradientUnits="userSpaceOnUse" id="color-1"><stop offset="0" stop-color="#fcec00"/><stop offset="1" stop-color="#fcec00" stop-opacity="0"/></radialGradient><linearGradient x1="239.78416" y1="204.32198" x2="239.78416" y2="221.18561" gradientUnits="userSpaceOnUse" id="color-2"><stop offset="0" stop-color="#ffffff"/><stop offset="1" stop-color="#ffffff" stop-opacity="0"/></linearGradient><radialGradient cx="240.01413" cy="208.21143" r="8.89813" gradientUnits="userSpaceOnUse" id="color-3"><stop offset="0" stop-color="#f5eb75"/><stop offset="1" stop-color="#f5eb75" stop-opacity="0"/></radialGradient><linearGradient x1="239.19366" y1="125.00034" x2="239.19366" y2="219.02639" gradientUnits="userSpaceOnUse" id="color-4"><stop offset="0" stop-color="#a300f2"/><stop offset="1" stop-color="#a300f2" stop-opacity="0"/></linearGradient><linearGradient x1="238.95596" y1="96.98158" x2="238.95596" y2="225.00219" gradientUnits="userSpaceOnUse" id="color-5"><stop offset="0" stop-color="#f1f1f1"/><stop offset="1" stop-color="#f1f1f1" stop-opacity="0"/></linearGradient><linearGradient x1="239.96423" y1="204.61823" x2="239.96423" y2="212.52599" gradientUnits="userSpaceOnUse" id="color-6"><stop offset="0" stop-color="#ff4f00"/><stop offset="1" stop-color="#ff4f00" stop-opacity="0"/></linearGradient><linearGradient x1="239.89625" y1="204.86497" x2="239.89625" y2="210.2108" gradientUnits="userSpaceOnUse" id="color-7"><stop offset="0" stop-color="#ffd400"/><stop offset="1" stop-color="#ffd400" stop-opacity="0"/></linearGradient><linearGradient x1="239.89395" y1="204.50691" x2="239.89395" y2="213.38923" gradientUnits="userSpaceOnUse" id="color-8"><stop offset="0" stop-color="#ffee00"/><stop offset="1" stop-color="#ffee00" stop-opacity="0"/></linearGradient><linearGradient x1="239.82143" y1="204.43396" x2="239.82143" y2="208.32133" gradientUnits="userSpaceOnUse" id="color-9"><stop offset="0" stop-color="#ffee00"/><stop offset="1" stop-color="#ffee00" stop-opacity="0"/></linearGradient><linearGradient x1="241.8642" y1="204.50691" x2="241.8642" y2="208.39429" gradientUnits="userSpaceOnUse" id="color-10"><stop offset="0" stop-color="#ffee00"/><stop offset="1" stop-color="#ffee00" stop-opacity="0"/></linearGradient><linearGradient x1="237.77868" y1="204.50691" x2="237.77868" y2="208.39429" gradientUnits="userSpaceOnUse" id="color-11"><stop offset="0" stop-color="#ffee00"/><stop offset="1" stop-color="#ffee00" stop-opacity="0"/></linearGradient><radialGradient cx="239.85356" cy="208.44531" r="6.32236" gradientUnits="userSpaceOnUse" id="color-12"><stop offset="0" stop-color="#feea00"/><stop offset="1" stop-color="#feea00" stop-opacity="0"/></radialGradient><radialGradient cx="240.01839" cy="207.64309" r="6.32236" gradientUnits="userSpaceOnUse" id="color-13"><stop offset="0" stop-color="#feea00"/><stop offset="1" stop-color="#feea00" stop-opacity="0"/></radialGradient><linearGradient x1="235.53038" y1="206.17627" x2="243.91049" y2="206.17627" gradientUnits="userSpaceOnUse" id="color-14"><stop offset="0" stop-color="#5f5f5f"/><stop offset="1" stop-color="#4c4c4c"/></linearGradient><linearGradient x1="235.53038" y1="206.17627" x2="243.91049" y2="206.17627" gradientUnits="userSpaceOnUse" id="color-15"><stop offset="0" stop-color="#949494"/><stop offset="1" stop-color="#757575"/></linearGradient><linearGradient x1="235.7888" y1="204.37464" x2="238.50764" y2="204.37464" gradientUnits="userSpaceOnUse" id="color-16"><stop offset="0" stop-color="#4c4c4c"/><stop offset="1" stop-color="#4c4c4c" stop-opacity="0"/></linearGradient><linearGradient x1="243.65146" y1="204.37462" x2="240.93261" y2="204.37462" gradientUnits="userSpaceOnUse" id="color-17"><stop offset="0" stop-color="#5f5f5f"/><stop offset="1" stop-color="#5f5f5f" stop-opacity="0"/></linearGradient><linearGradient x1="235.20714" y1="163.38446" x2="243.04964" y2="163.38446" gradientUnits="userSpaceOnUse" id="color-18"><stop offset="0" stop-color="#d40000"/><stop offset="1" stop-color="#a30000"/></linearGradient><linearGradient x1="237.32471" y1="168.02612" x2="242.68422" y2="168.02612" gradientUnits="userSpaceOnUse" id="color-19"><stop offset="0" stop-color="#5f5f5f"/><stop offset="1" stop-color="#a8a8a8"/></linearGradient><linearGradient x1="240.04543" y1="161.70349" x2="240.04543" y2="162.63898" gradientUnits="userSpaceOnUse" id="color-20"><stop offset="0" stop-color="#7a7a7a"/><stop offset="1" stop-color="#646464"/></linearGradient><linearGradient x1="239.12763" y1="165.33024" x2="239.31316" y2="165.33024" gradientUnits="userSpaceOnUse" id="color-21"><stop offset="0" stop-color="#00eeec"/><stop offset="1" stop-color="#1cfff4"/></linearGradient><linearGradient x1="230.10999" y1="180.92512" x2="233.61429" y2="180.92512" gradientUnits="userSpaceOnUse" id="color-22"><stop offset="0" stop-color="#dedede"/><stop offset="1" stop-color="#dedede" stop-opacity="0"/></linearGradient><linearGradient x1="235.33365" y1="204.12798" x2="244.10372" y2="204.12798" gradientUnits="userSpaceOnUse" id="color-23"><stop offset="0" stop-color="#888888"/><stop offset="1" stop-color="#696969"/></linearGradient><linearGradient x1="249.79588" y1="185.70288" x2="252.47563" y2="185.70288" gradientUnits="userSpaceOnUse" id="color-24"><stop offset="0" stop-color="#dd0000"/><stop offset="1" stop-color="#dd0000" stop-opacity="0"/></linearGradient><linearGradient x1="249.76275" y1="196.2095" x2="252.54559" y2="196.2095" gradientUnits="userSpaceOnUse" id="color-25"><stop offset="0" stop-color="#dfdfdf"/><stop offset="1" stop-color="#dfdfdf" stop-opacity="0"/></linearGradient><linearGradient x1="239.68189" y1="206.57577" x2="239.68189" y2="212.8485" gradientUnits="userSpaceOnUse" id="color-26"><stop offset="0" stop-color="#fde704"/><stop offset="1" stop-color="#fde704" stop-opacity="0"/></linearGradient><linearGradient x1="238.73066" y1="178.09019" x2="241.23957" y2="178.09019" gradientUnits="userSpaceOnUse" id="color-27"><stop offset="0" stop-color="#c7ffff"/><stop offset="1" stop-color="#91f5f5"/></linearGradient><linearGradient x1="238.1875" y1="192.79167" x2="241.8125" y2="192.79167" gradientUnits="userSpaceOnUse" id="color-28"><stop offset="0" stop-color="#bf0000"/><stop offset="1" stop-color="#bf0000"/></linearGradient><linearGradient x1="238.1875" y1="198.47917" x2="241.8125" y2="198.47917" gradientUnits="userSpaceOnUse" id="color-29"><stop offset="0" stop-color="#bf0000"/><stop offset="1" stop-color="#bf0000"/></linearGradient></defs><g transform="translate(-213.37288,-152.85957)"><g data-paper-data="{&quot;isPaintingLayer&quot;:true}" fill-rule="nonzero" stroke-linejoin="miter" stroke-miterlimit="10" stroke-dasharray="" stroke-dashoffset="0" style="mix-blend-mode: normal"><path d="M241.3125,155.79167v-2.75h3.125v2.75z" fill="#cecece" stroke="none" stroke-width="0" stroke-linecap="butt"/><path d="M252.6079,205.428c0,6.82325 -5.45758,12.35459 -12.18986,12.35459c-6.73227,0 -12.18987,-5.53134 -12.18987,-12.35459c0,-6.82325 5.45759,-12.35459 12.18987,-12.35459c6.73227,0 12.18986,5.53134 12.18986,12.35459z" fill="url(#color-1)" stroke="none" stroke-width="0" stroke-linecap="butt"/><g stroke-width="0"><path d="M242.28416,204.32198l-2.5,16.86364l-2.5,-16.86364z" fill="url(#color-2)" stroke="#000000" stroke-linecap="round"/><path d="M247.81951,208.21143c0,4.34894 -3.49458,7.87446 -7.80538,7.87446c-4.3108,0 -7.80538,-3.52552 -7.80538,-7.87446c0,-4.34894 3.49459,-7.87446 7.80538,-7.87446c4.3108,0 7.80538,3.52552 7.80538,7.87446z" fill="url(#color-3)" stroke="none" stroke-linecap="butt"/><g stroke="#000000" stroke-linecap="round"><path d="M241.98061,205.12111l-1.99752,14.93246l-2.35162,-14.93246z" fill="url(#color-4)"/><path d="M242.75051,206.06953l-2.71971,20.33121l-3.20183,-20.33121z" fill="url(#color-5)"/><path d="M241.06253,204.61823c0,0 1.97104,0.54702 1.90371,2.41626c-0.16093,4.46815 -3.2949,5.49149 -3.2949,5.49149c0,0 -2.64402,-0.90981 -2.70914,-5.49149c-0.02772,-1.95089 1.8305,-2.41626 1.8305,-2.41626z" fill="url(#color-6)"/><path d="M240.63873,204.86497c0,0 1.33247,0.3698 1.28696,1.63345c-0.10879,3.02057 -2.22743,3.71239 -2.22743,3.71239c0,0 -1.78743,-0.61506 -1.83145,-3.71239c-0.01874,-1.31885 1.23746,-1.63345 1.23746,-1.63345z" fill="url(#color-7)"/><path d="M241.12763,204.50691c0,0 2.21395,0.61444 2.13833,2.71404c-0.18075,5.01881 -3.70096,6.16828 -3.70096,6.16828c0,0 -2.96987,-1.02195 -3.04302,-6.16828c-0.03114,-2.19132 2.05609,-2.71404 2.05609,-2.71404z" fill="url(#color-8)"/><path d="M240.36135,204.43396c0,0 0.96894,0.26891 0.93585,1.18781c-0.07911,2.1965 -1.61974,2.69957 -1.61974,2.69957c0,0 -1.29978,-0.44726 -1.33179,-2.69957c-0.01364,-0.95904 0.89985,-1.18781 0.89985,-1.18781z" fill="url(#color-9)"/><path d="M242.40413,204.50691c0,0 0.96895,0.26892 0.93585,1.18781c-0.07911,2.1965 -1.61975,2.69957 -1.61975,2.69957c0,0 -1.29978,-0.44726 -1.33179,-2.69957c-0.01363,-0.95904 0.89986,-1.18781 0.89986,-1.18781z" fill="url(#color-10)"/><path d="M238.3186,204.50691c0,0 0.96895,0.26892 0.93585,1.18781c-0.07911,2.1965 -1.61975,2.69957 -1.61975,2.69957c0,0 -1.29978,-0.44726 -1.33179,-2.69957c-0.01363,-0.95904 0.89986,-1.18781 0.89986,-1.18781z" fill="url(#color-11)"/></g><path d="M245.39949,208.44531c0,3.09004 -2.48299,5.59501 -5.54593,5.59501c-3.06293,0 -5.54593,-2.50497 -5.54593,-5.59501c0,-3.09004 2.48299,-5.59501 5.54593,-5.59501c3.06293,0 5.54593,2.50497 5.54593,5.59501z" fill="url(#color-12)" stroke="none" stroke-linecap="butt"/><path d="M245.56431,207.64309c0,3.09004 -2.48299,5.59501 -5.54593,5.59501c-3.06294,0 -5.54593,-2.50497 -5.54593,-5.59501c0,-3.09004 2.48299,-5.59501 5.54593,-5.59501c3.06294,0 5.54593,2.50498 5.54593,5.59501z" fill="url(#color-13)" stroke="none" stroke-linecap="butt"/></g><path d="M265.6667,181.12501v10.66666l-14.66666,7.66666l1,-18.16666z" data-paper-data="{&quot;index&quot;:null}" fill="none" stroke="#bf0000" stroke-width="5" stroke-linecap="round"/><g fill="#cecece"><path d="M241.26015,156.5283l2.90909,-3.54546v3.54546z" stroke="none" stroke-width="0" stroke-linecap="butt"/><path d="M234.50373,198.94l0.15778,-37.58147l5.57746,-5.42857v15.66277c0,0 0.69889,1.92095 2.59992,1.92095c1.8678,0 2.55923,-1.79051 2.55923,-1.79051v-15.95287l5.71689,5.42857l-0.18805,37.7619l-2.5722,0.71141l-10.10296,0.0566z" stroke="#cecece" stroke-width="2.5" stroke-linecap="round"/></g><path d="M243.91049,206.17627c0,0.46442 -1.87595,0.84091 -4.19005,0.84091c-2.3141,0 -4.19005,-0.37649 -4.19005,-0.84091c0,-0.46442 1.87595,-0.84091 4.19005,-0.84091c2.3141,0 4.19005,0.37649 4.19005,0.84091z" fill="url(#color-14)" stroke="url(#color-15)" stroke-width="0.5" stroke-linecap="butt"/><path d="M235.7888,206.2367v-3.72414h2.71885l0.03198,4.2069c0,0 -1.06792,-0.04387 -1.54727,-0.12799c-0.43285,-0.07596 -1.20357,-0.35477 -1.20357,-0.35477z" fill="url(#color-16)" stroke="none" stroke-width="0" stroke-linecap="butt"/><path d="M242.44792,206.59147c-0.47934,0.08413 -1.54727,0.12799 -1.54727,0.12799l0.03198,-4.2069h2.71886v3.72414c0,0 -0.77072,0.2788 -1.20357,0.35477z" data-paper-data="{&quot;index&quot;:null}" fill="url(#color-17)" stroke="none" stroke-width="0" stroke-linecap="butt"/><path d="M238.24296,153.29356c0,0 0.81617,0.91199 1.43358,1.36364c0.6174,0.45165 0.96729,0.53754 1.34924,0.63636c0.38196,0.09883 0.75895,-0.09091 0.75895,-0.09091l1.26492,16.90909l-7.84251,1.36364z" fill="url(#color-18)" stroke="#ff0000" stroke-width="0" stroke-linecap="round"/><path d="M237.32471,173.92512v-11.79798h5.35951v11.79798z" fill="url(#color-19)" stroke="none" stroke-width="0" stroke-linecap="butt"/><path d="M242.04346,162.17124c0,0.25833 -0.89455,0.46774 -1.99802,0.46774c-1.10348,0 -1.99803,-0.20941 -1.99803,-0.46774c0,-0.25833 0.89455,-0.46775 1.99803,-0.46775c1.10348,0 1.99802,0.20942 1.99802,0.46775z" fill="url(#color-20)" stroke="#7e7e7e" stroke-width="0.5" stroke-linecap="butt"/><path d="M215.2135,194.86919v-1.9375h0.98558v1.9375z" fill="#d80000" stroke="none" stroke-width="0" stroke-linecap="butt"/><path d="M239.79509,203.18169h-8.40644l-15.65338,-8.375" fill="none" stroke="#d80000" stroke-width="1" stroke-linecap="round"/><path d="M239.85309,202.30669h-8.40644l-15.65338,-8.375" fill="none" stroke="#d80000" stroke-width="1" stroke-linecap="round"/><path d="M239.67916,201.36919h-8.40644l-15.65338,-8.375" fill="none" stroke="#d80000" stroke-width="1" stroke-linecap="round"/><path d="M216.07184,179.02002l23.97093,0.125l-0.04294,21.91417l-8.26982,-0.03917l-16.04549,-8.625z" fill="#ff0000" stroke="#b6b6b6" stroke-width="0" stroke-linecap="round"/><path d="M216.01548,179.10183l-0.01189,13.58974" fill="none" stroke="#df0000" stroke-width="0.5" stroke-linecap="round"/><path d="M217.1869,180.03988l-0.07135,12.23077" fill="none" stroke="#f00000" stroke-width="2" stroke-linecap="round"/><path d="M216.3026,180.40342v-1.35714h1.78896v1.35714z" fill="#f00000" stroke="none" stroke-width="0" stroke-linecap="butt"/><path d="M238.83025,180.47485v19.28572" fill="none" stroke="#f00000" stroke-width="2.5" stroke-linecap="round"/><path d="M237.70383,183.90342v-4.71428h2.31902v4.71428z" fill="#f00000" stroke="none" stroke-width="0" stroke-linecap="butt"/><path d="M237.70383,200.97485v-6h2.31902v6z" fill="#f00000" stroke="none" stroke-width="0" stroke-linecap="butt"/><path d="M232.73454,182.97485l-0.06626,9.57143c0,0 -0.22557,2.09115 -2.45374,2.10518c-2.25569,0.01421 -2.44932,-2.17661 -2.44932,-2.17661v-9.5z" fill="#f70000" stroke="#fa0000" stroke-width="1" stroke-linecap="round"/><path d="M229.53343,184.86919v7.1875" fill="none" stroke="#f50000" stroke-width="1" stroke-linecap="round"/><path d="M231.3307,183.93169l-0.11595,8.6875" fill="none" stroke="#f50000" stroke-width="1" stroke-linecap="round"/><path d="M231.73652,182.93169l-2.89877,0.0625" fill="none" stroke="#f50000" stroke-width="1" stroke-linecap="round"/><path d="M220.72119,189.24419v-7.9375" fill="none" stroke="#fa0000" stroke-width="1" stroke-linecap="round"/><path d="M226.28683,182.24419v11.875" fill="none" stroke="#fa0000" stroke-width="1" stroke-linecap="round"/><path d="M234.11347,195.61919l0.05798,-11.1875" fill="none" stroke="#fa0000" stroke-width="1" stroke-linecap="round"/><path d="M223.79388,194.49419l0.11595,-5.125" fill="none" stroke="#fa0000" stroke-width="1" stroke-linecap="round"/><path d="M236.43254,192.55669l-0.05798,-11" fill="none" stroke="#fa0000" stroke-width="1" stroke-linecap="round"/><path d="M239.73714,203.1192v-2.0625h0.57975v2.0625z" fill="#d80000" stroke="none" stroke-width="0" stroke-linecap="butt"/><g data-paper-data="{&quot;index&quot;:null}"><path d="M263.80107,194.86919v-1.9375h0.98558v1.9375z" fill="#d80000" stroke="none" stroke-width="0" stroke-linecap="butt"/><path d="M264.26482,194.80669l-15.65338,8.375h-8.40644" fill="none" stroke="#d80000" stroke-width="1" stroke-linecap="round"/><path d="M264.20687,193.93169l-15.65338,8.375h-8.40644" fill="none" stroke="#d80000" stroke-width="1" stroke-linecap="round"/><path d="M264.38085,192.99419l-15.65338,8.375h-8.40644" fill="none" stroke="#d80000" stroke-width="1" stroke-linecap="round"/><path d="M264.81561,192.39502l-16.37485,8.625l-8.43957,0.03917l-0.04382,-21.91417l24.46298,-0.125z" fill="#ff0000" stroke="#b6b6b6" stroke-width="0" stroke-linecap="round"/><path d="M265.6273,192.02002v-13.125" fill="none" stroke="#b6b6b6" stroke-width="3" stroke-linecap="round"/><path d="M263.99654,192.69157l-0.01189,-13.58974" fill="none" stroke="#df0000" stroke-width="0.5" stroke-linecap="round"/><path d="M265.16796,179.03988v13" fill="none" stroke="#c2c2c2" stroke-width="2" stroke-linecap="round"/><path d="M262.81326,180.03988l0.07135,12.23077" fill="none" stroke="#f00000" stroke-width="2" stroke-linecap="round"/><path d="M261.90855,180.40342v-1.35714h1.78896v1.35714z" fill="#f00000" stroke="none" stroke-width="0" stroke-linecap="butt"/><path d="M241.16998,199.76057v-19.28572" fill="none" stroke="#f00000" stroke-width="2.5" stroke-linecap="round"/><path d="M239.9773,183.90342v-4.71428h2.31902v4.71428z" fill="#f00000" stroke="none" stroke-width="0" stroke-linecap="butt"/><path d="M239.9773,200.97485v-6h2.31902v6z" fill="#f00000" stroke="none" stroke-width="0" stroke-linecap="butt"/><path d="M252.23499,182.97485v9.5c0,0 -0.19364,2.19082 -2.44932,2.17661c-2.22818,-0.01403 -2.45374,-2.10518 -2.45374,-2.10518l-0.06626,-9.57143z" fill="#f70000" stroke="#fa0000" stroke-width="1" stroke-linecap="round"/><path d="M250.46672,192.05669v-7.1875" fill="none" stroke="#f50000" stroke-width="1" stroke-linecap="round"/><path d="M248.66952,183.93169l0.11595,8.6875" fill="none" stroke="#f50000" stroke-width="1" stroke-linecap="round"/><path d="M251.16246,182.99419l-2.89877,-0.0625" fill="none" stroke="#f50000" stroke-width="1" stroke-linecap="round"/><path d="M259.27896,189.24419v-7.9375" fill="none" stroke="#fa0000" stroke-width="1" stroke-linecap="round"/><path d="M253.71339,182.24419v11.875" fill="none" stroke="#fa0000" stroke-width="1" stroke-linecap="round"/><path d="M245.82871,184.43169l0.05798,11.1875" fill="none" stroke="#fa0000" stroke-width="1" stroke-linecap="round"/><path d="M256.09029,189.36919l0.11595,5.125" fill="none" stroke="#fa0000" stroke-width="1" stroke-linecap="round"/><path d="M243.56767,192.55669l0.05798,-11" fill="none" stroke="#fa0000" stroke-width="1" stroke-linecap="round"/><path d="M239.68332,203.1192v-2.0625h0.57975v2.0625z" fill="#d80000" stroke="none" stroke-width="0" stroke-linecap="butt"/></g><path d="M240.77582,167.76801v-4.77419h0.23938v4.77419z" fill="#1dfffb" stroke="none" stroke-width="0" stroke-linecap="butt"/><path d="M241.36308,153.56628v17.45455c0,0 -0.38193,0.95908 -1.43358,0.90909c-1.02759,-0.04885 -1.26491,-0.90909 -1.26491,-0.90909l-0.08433,-17.45455" fill="none" stroke="#acacac" stroke-width="1" stroke-linecap="round"/><path d="M231.07614,198.88318l0.16759,-37.58147l5.92421,-5.42857v15.66277c0,0 0.74235,1.92095 2.76156,1.92095c1.98392,0 2.71834,-1.79051 2.71834,-1.79051v-15.95287l6.07231,5.42857l-0.19974,37.7619l-2.73211,0.71141l-10.73106,0.0566z" fill="#ff0000" stroke="#ff0000" stroke-width="2.5" stroke-linecap="round"/><path d="M235.57256,195.7029l-0.10307,-18.33333" fill="none" stroke="#fa0000" stroke-width="1" stroke-linecap="round"/><path d="M246.39464,189.14734l-0.10307,-11.77777" fill="none" stroke="#fa0000" stroke-width="1" stroke-linecap="round"/><path d="M243.92105,195.59178l-0.20613,-10.66666" fill="none" stroke="#fa0000" stroke-width="1" stroke-linecap="round"/><path d="M237.42777,186.36957v13.33333" fill="none" stroke="#fa0000" stroke-width="1" stroke-linecap="round"/><path d="M242.37503,180.81401l0.10307,-7" fill="none" stroke="#fa0000" stroke-width="1" stroke-linecap="round"/><path d="M234.748,159.48067l-0.20614,13.77777" fill="none" stroke="#fa0000" stroke-width="1" stroke-linecap="round"/><path d="M247.63148,160.48067l-0.20613,12.11111" fill="none" stroke="#fa0000" stroke-width="1" stroke-linecap="round"/><path d="M244.84862,174.14734l0.3092,-13" fill="none" stroke="#fa0000" stroke-width="1" stroke-linecap="round"/><path d="M239.12763,167.68025v-4.7h0.18552v4.7z" fill="url(#color-21)" stroke="none" stroke-width="0" stroke-linecap="butt"/><path d="M239.93798,167.86478v-4.80645h0.20946v4.80645z" fill="#1dfffb" stroke="none" stroke-width="0" stroke-linecap="butt"/><path d="M238.45902,175.98731l1.31231,-1.05738l1.397,0.91167v7.72276l-1.35465,0.54738l-1.35465,-0.6931z" fill="#8cffff" stroke="#7e7e7e" stroke-width="0.5" stroke-linecap="round"/><path d="M241.07059,175.84943l-1.33344,1.125l-1.21749,-0.875" fill="none" stroke="#55eded" stroke-width="0.5" stroke-linecap="round"/><path d="M238.75155,183.34943l0.92761,-0.6875l1.15951,0.8125" fill="none" stroke="#55eded" stroke-width="0.5" stroke-linecap="round"/><path d="M239.96905,183.78693l-0.17393,-0.5625l-0.05798,-6.5625l0.05798,-1.5" fill="none" stroke="#4fdada" stroke-width="0.5" stroke-linecap="round"/><path d="M238.45902,175.98731l1.31231,-1.05738l1.397,0.91167v7.72276l-1.35465,0.54738l-1.35465,-0.6931z" fill="none" stroke="#7e7e7e" stroke-width="0.5" stroke-linecap="round"/><path d="M240.03392,177.10489l0.86135,-0.82143l0.02209,6.9881l-0.90553,-0.78572z" fill="#5cffff" stroke="none" stroke-width="0" stroke-linecap="round"/><path d="M240.019,183.15085l0.64255,0.37012l-0.47877,0.13243z" fill="#57f3f3" stroke="#56eeee" stroke-width="0" stroke-linecap="round"/><path d="M239.52824,182.47645l-0.86136,0.66353l-0.02209,-6.80388l0.90553,0.78572z" data-paper-data="{&quot;index&quot;:null}" fill="#87ffff" stroke="none" stroke-width="0" stroke-linecap="round"/><path d="M239.69219,183.78497l-0.69846,-0.34296l0.56932,-0.37011z" data-paper-data="{&quot;index&quot;:null}" fill="#5afbfb" stroke="#56eeee" stroke-width="0" stroke-linecap="round"/><path d="M235.16031,156.31401l-0.10307,13.44444l-1.85522,1.88889v11.77778l3.71043,3.77778v13.66667h-5.25645l-1.44295,-0.66667l-0.10307,-39.33333z" fill="#ffffff" stroke="#f5f5f5" stroke-width="0.5" stroke-linecap="round"/><path d="M230.10999,200.25845v-39.44444l3.50429,-3.33333v43.55556h-2.16442z" fill="url(#color-22)" stroke="none" stroke-width="0" stroke-linecap="butt"/><path d="M249.81781,160.64734l-0.10307,39.33333l-1.44295,0.66667h-5.25644v-13.66667l3.71043,-3.77777v-11.77778l-1.85522,-1.88889l-0.10307,-13.44444z" data-paper-data="{&quot;index&quot;:null}" fill="#ffffff" stroke="#f5f5f5" stroke-width="0.5" stroke-linecap="round"/><path d="M229.89867,200.20475l-13.91412,-7.6l-0.09276,-2l14.00688,2.3z" fill="#ffffff" stroke="#f5f5f5" stroke-width="0.5" stroke-linecap="round"/><path d="M250.02779,192.50475l14.00688,-2.3c0,0 -0.00583,0.54489 -0.00909,0.84949c-0.00379,0.35448 -0.01232,1.15051 -0.01232,1.15051l-13.98547,7.6z" data-paper-data="{&quot;index&quot;:null}" fill="#ffffff" stroke="#f5f5f5" stroke-width="0.5" stroke-linecap="round"/><g fill="none" stroke-linecap="round"><path d="M214.87288,178.89502v13.125" stroke="#b6b6b6" stroke-width="3"/><path d="M215.33219,192.03988v-13" stroke="#c2c2c2" stroke-width="2"/></g><path d="M235.33365,206.26434v-4.27273c0,0 2.35435,-0.51228 4.38505,-0.5c2.02997,0.01228 4.38505,0.5 4.38505,0.5v4.27273c0,0 -2.43255,-0.63636 -4.42722,-0.63636c-2.0228,0 -4.34289,0.63636 -4.34289,0.63636z" fill="url(#color-23)" stroke="none" stroke-width="0" stroke-linecap="butt"/><path d="M249.79588,192.25845v-13.11111h2.67976v12.60657z" fill="url(#color-24)" stroke="none" stroke-width="0" stroke-linecap="butt"/><path d="M249.76275,200.13808v-7.85714l2.78282,-0.5v6.92857z" fill="url(#color-25)" stroke="none" stroke-width="0" stroke-linecap="butt"/><g><g><path d="M221.33518,182.19615v-4.09091" fill="none" stroke="#b6b6b6" stroke-width="2.5" stroke-linecap="round"/><path d="M222.70553,183.18101v-3.91667" fill="none" stroke="#df0000" stroke-width="0.5" stroke-linecap="round"/><path d="M222.89527,183.40071v-4.31818h1.47574v4.31818z" fill="#f00000" stroke="none" stroke-width="0" stroke-linecap="butt"/></g><path d="M221.71468,182.44616l0.04216,-4.18182" fill="none" stroke="#c2c2c2" stroke-width="1.5" stroke-linecap="round"/></g><g data-paper-data="{&quot;index&quot;:null}"><g><path d="M258.39725,182.19616v-4.09091" fill="none" stroke="#b6b6b6" stroke-width="2.5" stroke-linecap="round"/><path d="M257.02693,179.26434v3.91666" fill="none" stroke="#df0000" stroke-width="0.5" stroke-linecap="round"/><path d="M255.36151,183.40071v-4.31818h1.47574v4.31819z" fill="#f00000" stroke="none" stroke-width="0" stroke-linecap="butt"/></g><path d="M257.97568,178.26433l0.04216,4.18182" fill="none" stroke="#c2c2c2" stroke-width="1.5" stroke-linecap="round"/></g><path d="M243.40127,202.02344v3.68" fill="none" stroke="#656565" stroke-width="0.5" stroke-linecap="round"/><path d="M242.32525,201.82344v3.64" fill="none" stroke="#6a6a6a" stroke-width="0.5" stroke-linecap="round"/><path d="M241.32344,201.70344l-0.0371,3.64" fill="none" stroke="#6f6f6f" stroke-width="0.5" stroke-linecap="round"/><path d="M240.2845,201.62343l-0.07421,3.68" fill="none" stroke="#747474" stroke-width="0.5" stroke-linecap="round"/><path d="M239.2085,201.58344l-0.0371,3.76" fill="none" stroke="#787878" stroke-width="0.5" stroke-linecap="round"/><path d="M238.16958,205.42344v-3.76" fill="none" stroke="#7b7b7b" stroke-width="0.5" stroke-linecap="round"/><path d="M236.22733,212.8485v-6.27273c0,0 1.63798,-0.45454 3.45454,-0.45454c1.93782,0 3.45455,0.45454 3.45455,0.45454v6.27273z" fill="url(#color-26)" stroke="none" stroke-width="0" stroke-linecap="butt"/><path d="M237.65,184.73334v-12.5h4.8v12.5z" fill="#ff0000" stroke="none" stroke-width="0" stroke-linecap="butt"/><g stroke="#a6caca" stroke-width="0.5" stroke-linecap="round"><path d="M241.22174,180.55771c0,0 -0.55811,1.7675 -1.24554,1.7675c-0.68743,0 -1.24554,-1.7675 -1.24554,-1.7675l0.01782,-4.93504c0,0 0.55811,-1.7675 1.24554,-1.7675c0.68744,0 1.24555,1.7675 1.24555,1.7675z" fill="url(#color-27)"/><path d="M241.01965,176.19632h-2.15143" fill="none"/><path d="M238.86822,177.58406h2.05364" fill="none"/><path d="M238.77043,179.80443h2.24922" fill="none"/><path d="M240.93445,178.39882h-2.24922" fill="none"/></g><g><path d="M238.1875,196.16667v-6.75h3.625v6.75z" fill="url(#color-28)" stroke="none" stroke-width="0" stroke-linecap="butt"/><path d="M238.1875,199.91667v-2.875h3.625v2.875z" fill="url(#color-29)" stroke="none" stroke-width="0" stroke-linecap="butt"/><g fill="none" stroke="#d4d4d4" stroke-width="1" stroke-linecap="round"><path d="M231.95,197.13333v3.4"/><path d="M234.55,197.13333v3.4"/></g><g fill="none" stroke="#d4d4d4" stroke-width="1" stroke-linecap="round"><path d="M245.25,197.03333v3.4"/><path d="M247.85,200.43333v-3.4"/></g></g></g></g></svg>