<svg version="1.1" xmlns="http://www.w3.org/2000/svg" xmlns:xlink="http://www.w3.org/1999/xlink" width="61.5" height="54.125" viewBox="0,0,61.5,54.125"><g transform="translate(-210.47222,-148.66667)"><g data-paper-data="{&quot;isPaintingLayer&quot;:true}" fill-rule="nonzero" stroke-linejoin="miter" stroke-miterlimit="10" stroke-dasharray="" stroke-dashoffset="0" style="mix-blend-mode: normal"><path d="M210.47222,202.79168l61.5,-54.125" fill="none" stroke="#000000" stroke-width="0" stroke-linecap="round"/><path d="M240.02136,190.66102c-1.25989,0 -2.37742,-0.2776 -3.35259,-0.83281c-0.97517,-0.55521 -1.7368,-1.32039 -2.28488,-2.29556c-0.54809,-0.97517 -0.82213,-2.0927 -0.82213,-3.35259c0,-1.27413 0.27404,-2.39877 0.82213,-3.37394c0.54809,-0.97517 1.30972,-1.74036 2.28488,-2.29556c0.97517,-0.55521 2.0927,-0.83281 3.35259,-0.83281c1.25277,0 2.36318,0.2776 3.33123,0.83281c0.96805,0.55521 1.72256,1.32039 2.26353,2.29556c0.54809,0.97517 0.82213,2.09982 0.82213,3.37394c0,1.25989 -0.27404,2.37742 -0.82213,3.35259c-0.54097,0.97517 -1.29548,1.74036 -2.26353,2.29556c-0.96805,0.55521 -2.07846,0.83281 -3.33123,0.83281zM239.98932,188.2053c0.74739,0 1.40581,-0.16727 1.97525,-0.50182c0.57656,-0.34166 1.02855,-0.81857 1.35598,-1.43072c0.32743,-0.61215 0.49114,-1.30972 0.49114,-2.0927c0,-0.79722 -0.16371,-1.49478 -0.49114,-2.0927c-0.32743,-0.60503 -0.77942,-1.08194 -1.35598,-1.43072c-0.56944,-0.34878 -1.22786,-0.52317 -1.97525,-0.52317c-0.74739,0 -1.40937,0.17439 -1.98593,0.52317c-0.56944,0.34878 -1.01432,0.82569 -1.33463,1.43072c-0.32031,0.59791 -0.48047,1.29548 -0.48047,2.0927c0,0.78298 0.16016,1.48055 0.48047,2.0927c0.32031,0.61215 0.76519,1.08906 1.33463,1.43072c0.57656,0.33455 1.23854,0.50182 1.98593,0.50182zM234.4693,180.68868l6.34216,-10.58094c0.32743,-0.5125 0.74739,-0.76875 1.25989,-0.76875c0.37726,0 0.69401,0.11033 0.95026,0.33099c0.25625,0.22066 0.4164,0.4947 0.48047,0.82213c0.06406,0.32743 -0.00356,0.65486 -0.20286,0.98229l-3.88644,6.44893z" fill="#00edff" stroke="#00edff" stroke-width="1" stroke-linecap="square"/></g></g></svg>