<svg version="1.1" xmlns="http://www.w3.org/2000/svg" xmlns:xlink="http://www.w3.org/1999/xlink" width="87" height="388.25" viewBox="0,0,87,388.25"><defs><linearGradient x1="236.4578" y1="308.73137" x2="211.03572" y2="308.73137" gradientUnits="userSpaceOnUse" id="color-1"><stop offset="0" stop-color="#e6fffe"/><stop offset="1" stop-color="#e6fffe" stop-opacity="0"/></linearGradient><linearGradient x1="244.93182" y1="309.39803" x2="270.3539" y2="309.39803" gradientUnits="userSpaceOnUse" id="color-2"><stop offset="0" stop-color="#e6fffe"/><stop offset="1" stop-color="#e6fffe" stop-opacity="0"/></linearGradient><radialGradient cx="239" cy="179" r="43.5" gradientUnits="userSpaceOnUse" id="color-3"><stop offset="0" stop-color="#e6fffe"/><stop offset="1" stop-color="#e6fffe" stop-opacity="0"/></radialGradient><radialGradient cx="239" cy="179" r="32.76623" gradientUnits="userSpaceOnUse" id="color-4"><stop offset="0" stop-color="#e6fffe"/><stop offset="1" stop-color="#e6fffe" stop-opacity="0"/></radialGradient><radialGradient cx="239" cy="179" r="39.54545" gradientUnits="userSpaceOnUse" id="color-5"><stop offset="0" stop-color="#e6fffe"/><stop offset="1" stop-color="#e6fffe" stop-opacity="0"/></radialGradient></defs><g transform="translate(-195.5,-140.5)"><g data-paper-data="{&quot;isPaintingLayer&quot;:true}" fill-rule="nonzero" stroke-linejoin="miter" stroke-miterlimit="10" stroke-dasharray="" stroke-dashoffset="0" style="mix-blend-mode: normal"><path d="M211.03572,509.12939v-340.79606h25.42208v340.79606z" data-paper-data="{&quot;index&quot;:null}" fill="url(#color-1)" stroke="none" stroke-width="0" stroke-linecap="butt"/><path d="M232.78572,516v-348h18.07792v348z" fill="#e6fffe" stroke="none" stroke-width="0" stroke-linecap="butt"/><path d="M244.93182,511.79606v-344.79606h25.42208v344.79606z" fill="url(#color-2)" stroke="none" stroke-width="0" stroke-linecap="butt"/><path d="M248.85213,526.25c0,0 3.6628,-25.95864 -0.18508,-53.21686c-3.18777,-22.58204 -14.0112,-46.05601 -14.0112,-56.40109c0,-12.20591 9.85104,-32.73541 11.0931,-56.89232c0.96028,-18.6765 -11.26903,-39.52123 -10.79513,-60.36394c0.46138,-20.29232 13.87538,-40.58273 16.12553,-58.86842c4.91009,-39.90155 -2.22721,-70.25737 -2.22721,-70.25737" data-paper-data="{&quot;index&quot;:null}" fill="none" stroke="#e6fffe" stroke-width="5" stroke-linecap="round"/><path d="M195.5,179c0,-21.26296 19.47562,-38.5 43.5,-38.5c24.02438,0 43.5,17.23704 43.5,38.5c0,21.26296 -19.47562,38.5 -43.5,38.5c-24.02438,0 -43.5,-17.23704 -43.5,-38.5z" fill="url(#color-3)" stroke="none" stroke-width="0" stroke-linecap="butt"/><path d="M206.23377,179c0,-16.01626 14.66994,-29 32.76623,-29c18.09629,0 32.76623,12.98374 32.76623,29c0,16.01626 -14.66994,29 -32.76623,29c-18.09629,0 -32.76623,-12.98374 -32.76623,-29z" fill="url(#color-4)" stroke="none" stroke-width="0" stroke-linecap="butt"/><path d="M199.45455,179c0,-19.32997 17.7051,-35 39.54545,-35c21.84035,0 39.54545,15.67003 39.54545,35c0,19.32997 -17.7051,35 -39.54545,35c-21.84035,0 -39.54545,-15.67003 -39.54545,-35z" fill="url(#color-5)" stroke="none" stroke-width="0" stroke-linecap="butt"/></g></g></svg>