<svg version="1.1" xmlns="http://www.w3.org/2000/svg" xmlns:xlink="http://www.w3.org/1999/xlink" width="23.29766" height="22.03409" viewBox="0,0,23.29766,22.03409"><g transform="translate(-226.11226,-299.29033)"><g data-paper-data="{&quot;isPaintingLayer&quot;:true}" fill-rule="nonzero" stroke="none" stroke-width="0.5" stroke-linecap="butt" stroke-linejoin="miter" stroke-miterlimit="10" stroke-dasharray="" stroke-dashoffset="0" style="mix-blend-mode: normal"><path d="M246.55355,306.11878c0.64005,0.26388 1.29243,0.51556 1.62557,1.08296c3.51167,5.98116 -1.06084,11.36083 -6.54766,13.18578c-1.91476,0.63686 -5.24298,1.41306 -7.19184,0.56146c-1.11223,-0.48602 -1.68931,-1.74385 -2.50741,-2.64049c-1.49317,-1.63651 -3.32469,-3.0122 -4.50237,-4.88857c-2.66578,-4.24734 -1.16163,-10.78602 3.38533,-13.01818c5.09893,-2.50313 10.4051,-0.32735 14.88196,2.08853c0,0 2.19474,1.19713 0.99761,3.39187c-0.04567,0.08373 -0.0928,0.16253 -0.1412,0.23664z" fill="#8b8e8e"/><path d="M245.20505,309.14224c-0.79057,2.37171 -3.16228,1.58114 -3.16228,1.58114l-0.22463,-0.74051c-0.47161,0.10769 -1.0916,-0.03686 -1.41482,0.32306c-0.25242,0.28108 -0.23363,0.68671 -0.17598,1.10921c0.18862,0.11847 0.37482,0.23962 0.55351,0.36899l0.06523,0.70494l0.28512,-0.1222l0.97823,2.28254c0.1438,0.31554 0.22391,0.66621 0.22391,1.0356c0,1.38071 -1.11929,2.5 -2.5,2.5c-0.61475,0 -1.17768,-0.22189 -1.61307,-0.58995l-1.98739,-1.65616l0.14053,-0.16864c-0.2927,-0.19679 -0.56326,-0.42383 -0.80404,-0.69153c-0.28356,-0.31527 -0.40993,-0.91101 -0.42788,-1.64285c-1.9471,-1.91377 -4.01186,-4.81315 -3.44861,-7.11192c1.52649,-6.23 7.06586,-4.44137 10.40759,-1.89285c0,0 0.69076,0.57563 0.89853,1.45072l0.62491,0.09813c0,0 2.37171,0.79057 1.58114,3.16228z" fill="#7a7c7c"/></g></g></svg>