<svg version="1.1" xmlns="http://www.w3.org/2000/svg" xmlns:xlink="http://www.w3.org/1999/xlink" width="48" height="21" viewBox="0,0,48,21"><g transform="translate(-216.83334,-159.77778)"><g data-paper-data="{&quot;isPaintingLayer&quot;:true}" fill-rule="nonzero" stroke-linecap="butt" stroke-linejoin="miter" stroke-miterlimit="10" stroke-dasharray="" stroke-dashoffset="0" style="mix-blend-mode: normal"><path d="M216.83335,180.77779v-21h48v21z" fill="#364b4a" stroke="none" stroke-width="0"/><path d="M228.83335,180.77779c0,0 0.72018,-3.53123 0.17288,-7.89629c-0.44116,-3.5185 -2.17288,-7.81229 -2.17288,-9.43704c0,-1.67435 2,-3.66667 2,-3.66667h22.66666c0,0 -1.06214,2.06396 -0.73854,3.95526c0.47861,2.79731 2.4052,6.00863 2.4052,8.04474c0,3.57932 -1.66666,9 -1.66666,9z" fill="#304040" stroke="none" stroke-width="0"/><path d="M239.92663,178.90325c-3.1299,0.00445 -3.86318,-1.68318 -5.31694,-4.19121c-0.7053,-1.21679 -3.10943,-2.62668 -3.11157,-4.13014c-0.00654,-4.60236 3.75642,-8.33868 8.40481,-8.34529c2.81878,-0.00401 4.31588,1.86439 5.84636,3.96848c0.9934,1.36571 2.57957,2.54138 2.58215,4.35287c0.00654,4.60236 -3.75642,8.33868 -8.40482,8.34529z" data-paper-data="{&quot;index&quot;:null}" fill="#2f2f2f" stroke="#2f2f2f" stroke-width="1.5"/><path d="M233.52672,176.81785c-1.04006,0.69338 -1.73343,-0.34669 -1.73343,-0.34669l-0.63753,-0.95816c-0.98757,-1.35791 -4.11342,-4.46822 -3.83307,-6.27506c0.29168,-1.87981 3.98579,-4.70306 5.29344,-6.01071c0,0 0.88388,-0.88388 1.76776,0c0.88388,0.88388 0,1.76776 0,1.76776c-0.78604,0.78604 -4.30089,3.38474 -4.57415,4.49706c-0.09654,0.39299 0.50711,0.63099 0.74937,0.95513c0.17444,0.23341 2.33677,3.20802 2.61848,3.59538l0.69581,1.04184c0,0 0.69338,1.04006 -0.34669,1.73344z" fill="#2b3a3a" stroke="none" stroke-width="0.5"/><path d="M250.83334,176.02779c-1.25,0 -1.25,-1.25 -1.25,-1.25l0.11204,-1.18392c0.48804,-1.07369 1.48324,-2.001 1.55495,-3.17824c0.08855,-1.45369 -2.02704,-4.7972 -2.5776,-6.1736c0,0 -0.46424,-1.1606 0.69636,-1.62484c1.1606,-0.46424 1.62484,0.69636 1.62484,0.69636c0.70609,1.76523 2.84445,5.26613 2.75574,7.15973c-0.01483,0.31659 -1.41057,3.34593 -1.77838,4.1551l0.11204,0.14941c0,0 0,1.25 -1.25,1.25z" fill="#2b3a3a" stroke="none" stroke-width="0.5"/><path d="M223.85415,179.1551c-1.04397,0.68747 -1.73145,-0.35651 -1.73145,-0.35651l-0.78682,-1.23054c-1.62307,-3.88637 -2.35801,-10.81313 -0.24107,-14.43338c0,0 0.64312,-1.07187 1.71499,-0.42875c1.07187,0.64312 0.42875,1.71499 0.42875,1.71499c-1.76808,2.85171 -0.967,9.08098 0.3952,12.16234l0.57691,0.8404c0,0 0.68747,1.04398 -0.35651,1.73145z" fill="#354646" stroke="none" stroke-width="0.5"/><path d="M258.79328,176.8045c-0.69338,-1.04006 0.34669,-1.73344 0.34669,-1.73344l0.69338,-0.3766c2.68131,-3.56377 0.52861,-6.98714 -1.14226,-10.74233c0,0 -0.50768,-1.14226 0.63459,-1.64993c1.14227,-0.50768 1.64994,0.63459 1.64994,0.63459c2.06945,4.66135 4.19878,8.79007 0.85773,13.25768l-1.30662,0.95673c0,0 -1.04006,0.69338 -1.73344,-0.34669z" fill="#354646" stroke="none" stroke-width="0.5"/></g></g></svg>