<svg version="1.1" xmlns="http://www.w3.org/2000/svg" xmlns:xlink="http://www.w3.org/1999/xlink" width="275.47342" height="198.46437" viewBox="0,0,275.47342,198.46437"><defs><linearGradient x1="103.14125" y1="166.42251" x2="165.84445" y2="166.42251" gradientUnits="userSpaceOnUse" id="color-1"><stop offset="0" stop-color="#0d9700"/><stop offset="1" stop-color="#0a7e00"/></linearGradient><linearGradient x1="315.08172" y1="166.42251" x2="377.78495" y2="166.42251" gradientUnits="userSpaceOnUse" id="color-2"><stop offset="0" stop-color="#0a7e00"/><stop offset="1" stop-color="#0d9700"/></linearGradient><linearGradient x1="140.79872" y1="91.13943" x2="140.79872" y2="99.01071" gradientUnits="userSpaceOnUse" id="color-3"><stop offset="0" stop-color="#096900"/><stop offset="1" stop-color="#096900" stop-opacity="0"/></linearGradient><linearGradient x1="140.41449" y1="93.10245" x2="140.41449" y2="97.2696" gradientUnits="userSpaceOnUse" id="color-4"><stop offset="0" stop-color="#797979"/><stop offset="1" stop-color="#616161"/></linearGradient><linearGradient x1="140.41449" y1="93.33395" x2="140.41449" y2="89.1668" gradientUnits="userSpaceOnUse" id="color-5"><stop offset="0" stop-color="#797979"/><stop offset="1" stop-color="#616161"/></linearGradient><linearGradient x1="340.59047" y1="92.75999" x2="340.59047" y2="100.63127" gradientUnits="userSpaceOnUse" id="color-6"><stop offset="0" stop-color="#096900"/><stop offset="1" stop-color="#096900" stop-opacity="0"/></linearGradient><linearGradient x1="340.70622" y1="93.223" x2="340.70622" y2="97.39015" gradientUnits="userSpaceOnUse" id="color-7"><stop offset="0" stop-color="#797979"/><stop offset="1" stop-color="#616161"/></linearGradient><linearGradient x1="340.70622" y1="93.45451" x2="340.70622" y2="89.28736" gradientUnits="userSpaceOnUse" id="color-8"><stop offset="0" stop-color="#797979"/><stop offset="1" stop-color="#616161"/></linearGradient><linearGradient x1="135.96661" y1="188.02566" x2="157.80561" y2="188.02566" gradientUnits="userSpaceOnUse" id="color-9"><stop offset="0" stop-color="#0a7300"/><stop offset="1" stop-color="#096c00"/></linearGradient><radialGradient cx="252.83341" cy="159.08333" r="28.75" gradientUnits="userSpaceOnUse" id="color-10"><stop offset="0" stop-color="#075b01"/><stop offset="1" stop-color="#075b01" stop-opacity="0"/></radialGradient><radialGradient cx="223.83341" cy="113.75005" r="28.75" gradientUnits="userSpaceOnUse" id="color-11"><stop offset="0" stop-color="#075b01"/><stop offset="1" stop-color="#075b01" stop-opacity="0"/></radialGradient><radialGradient cx="256.50005" cy="112.41671" r="28.75" gradientUnits="userSpaceOnUse" id="color-12"><stop offset="0" stop-color="#075b01"/><stop offset="1" stop-color="#075b01" stop-opacity="0"/></radialGradient><radialGradient cx="236.83341" cy="112.75005" r="28.75" gradientUnits="userSpaceOnUse" id="color-13"><stop offset="0" stop-color="#075b01"/><stop offset="1" stop-color="#075b01" stop-opacity="0"/></radialGradient><radialGradient cx="225.16672" cy="159.08333" r="28.75" gradientUnits="userSpaceOnUse" id="color-14"><stop offset="0" stop-color="#075b01"/><stop offset="1" stop-color="#075b01" stop-opacity="0"/></radialGradient><radialGradient cx="222.83341" cy="127.75005" r="28.75" gradientUnits="userSpaceOnUse" id="color-15"><stop offset="0" stop-color="#075b01"/><stop offset="1" stop-color="#075b01" stop-opacity="0"/></radialGradient><radialGradient cx="222.50007" cy="142.41669" r="28.75" gradientUnits="userSpaceOnUse" id="color-16"><stop offset="0" stop-color="#075b01"/><stop offset="1" stop-color="#075b01" stop-opacity="0"/></radialGradient><radialGradient cx="257.1667" cy="145.41669" r="28.75" gradientUnits="userSpaceOnUse" id="color-17"><stop offset="0" stop-color="#075b01"/><stop offset="1" stop-color="#075b01" stop-opacity="0"/></radialGradient><radialGradient cx="257.83337" cy="127.41671" r="28.75" gradientUnits="userSpaceOnUse" id="color-18"><stop offset="0" stop-color="#075b01"/><stop offset="1" stop-color="#075b01" stop-opacity="0"/></radialGradient><linearGradient x1="185.50007" y1="154.11111" x2="196.50007" y2="154.11111" gradientUnits="userSpaceOnUse" id="color-19"><stop offset="0" stop-color="#0a7401"/><stop offset="1" stop-color="#0a7401" stop-opacity="0"/></linearGradient><linearGradient x1="294.50005" y1="154.11111" x2="283.50005" y2="154.11111" gradientUnits="userSpaceOnUse" id="color-20"><stop offset="0" stop-color="#0a7401"/><stop offset="1" stop-color="#0a7401" stop-opacity="0"/></linearGradient><linearGradient x1="240.25006" y1="212.16669" x2="240.25006" y2="223.16669" gradientUnits="userSpaceOnUse" id="color-21"><stop offset="0" stop-color="#0a7401" stop-opacity="0"/><stop offset="1" stop-color="#0a7401"/></linearGradient><linearGradient x1="317.25005" y1="196.66669" x2="331.25005" y2="196.66669" gradientUnits="userSpaceOnUse" id="color-22"><stop offset="0" stop-color="#042e00" stop-opacity="0"/><stop offset="1" stop-color="#042e00"/></linearGradient><linearGradient x1="335.25005" y1="196.66669" x2="349.25006" y2="196.66669" gradientUnits="userSpaceOnUse" id="color-23"><stop offset="0" stop-color="#042e00"/><stop offset="1" stop-color="#042e00" stop-opacity="0"/></linearGradient><linearGradient x1="130.75" y1="197.91669" x2="144.75" y2="197.91669" gradientUnits="userSpaceOnUse" id="color-24"><stop offset="0" stop-color="#042e00" stop-opacity="0"/><stop offset="1" stop-color="#042e00"/></linearGradient><linearGradient x1="162.5" y1="197.75005" x2="148.5" y2="197.75005" gradientUnits="userSpaceOnUse" id="color-25"><stop offset="0" stop-color="#042e00" stop-opacity="0"/><stop offset="1" stop-color="#042e00"/></linearGradient><linearGradient x1="135.96661" y1="183.39547" x2="157.80561" y2="183.39547" gradientUnits="userSpaceOnUse" id="color-26"><stop offset="0" stop-color="#0b8000"/><stop offset="1" stop-color="#0a7800"/></linearGradient><linearGradient x1="135.89846" y1="231.03264" x2="157.82576" y2="231.03264" gradientUnits="userSpaceOnUse" id="color-27"><stop offset="0" stop-color="#0a7300"/><stop offset="1" stop-color="#096c00"/></linearGradient><linearGradient x1="135.89846" y1="226.40246" x2="157.82576" y2="226.40246" gradientUnits="userSpaceOnUse" id="color-28"><stop offset="0" stop-color="#0b8000"/><stop offset="1" stop-color="#0a7800"/></linearGradient><linearGradient x1="344.06945" y1="230.33809" x2="322.14207" y2="230.33809" gradientUnits="userSpaceOnUse" id="color-29"><stop offset="0" stop-color="#0a7300"/><stop offset="1" stop-color="#096c00"/></linearGradient><linearGradient x1="344.00129" y1="187.3311" x2="322.16229" y2="187.3311" gradientUnits="userSpaceOnUse" id="color-30"><stop offset="0" stop-color="#0a7300"/><stop offset="1" stop-color="#096c00"/></linearGradient><linearGradient x1="344.06945" y1="225.47642" x2="322.14207" y2="225.47642" gradientUnits="userSpaceOnUse" id="color-31"><stop offset="0" stop-color="#0b8000"/><stop offset="1" stop-color="#0a7800"/></linearGradient><linearGradient x1="344.00129" y1="182.46943" x2="322.16229" y2="182.46943" gradientUnits="userSpaceOnUse" id="color-32"><stop offset="0" stop-color="#0b8000"/><stop offset="1" stop-color="#0a7800"/></linearGradient><radialGradient cx="149.5" cy="165.00292" r="3.8" gradientUnits="userSpaceOnUse" id="color-33"><stop offset="0" stop-color="#5d5d5d"/><stop offset="1" stop-color="#727272"/></radialGradient><radialGradient cx="149.625" cy="228.75292" r="3.8" gradientUnits="userSpaceOnUse" id="color-34"><stop offset="0" stop-color="#5d5d5d"/><stop offset="1" stop-color="#727272"/></radialGradient><radialGradient cx="149.5" cy="185.71719" r="3.8" gradientUnits="userSpaceOnUse" id="color-35"><stop offset="0" stop-color="#5d5d5d"/><stop offset="1" stop-color="#727272"/></radialGradient><radialGradient cx="149.35717" cy="206.86007" r="3.8" gradientUnits="userSpaceOnUse" id="color-36"><stop offset="0" stop-color="#5d5d5d"/><stop offset="1" stop-color="#727272"/></radialGradient><radialGradient cx="330.23339" cy="163.50292" r="3.8" gradientUnits="userSpaceOnUse" id="color-37"><stop offset="0" stop-color="#5d5d5d"/><stop offset="1" stop-color="#727272"/></radialGradient><radialGradient cx="330.10839" cy="227.25292" r="3.8" gradientUnits="userSpaceOnUse" id="color-38"><stop offset="0" stop-color="#5d5d5d"/><stop offset="1" stop-color="#727272"/></radialGradient><radialGradient cx="330.23339" cy="184.21719" r="3.8" gradientUnits="userSpaceOnUse" id="color-39"><stop offset="0" stop-color="#5d5d5d"/><stop offset="1" stop-color="#727272"/></radialGradient><radialGradient cx="330.37622" cy="205.36007" r="3.8" gradientUnits="userSpaceOnUse" id="color-40"><stop offset="0" stop-color="#5d5d5d"/><stop offset="1" stop-color="#727272"/></radialGradient><radialGradient cx="249.90003" cy="121.10002" r="21.6" gradientUnits="userSpaceOnUse" id="color-41"><stop offset="0" stop-color="#171717"/><stop offset="1" stop-color="#171717" stop-opacity="0"/></radialGradient><radialGradient cx="229.50003" cy="137.10001" r="21.6" gradientUnits="userSpaceOnUse" id="color-42"><stop offset="0" stop-color="#171717"/><stop offset="1" stop-color="#171717" stop-opacity="0"/></radialGradient><radialGradient cx="249.50003" cy="138.5" r="21.6" gradientUnits="userSpaceOnUse" id="color-43"><stop offset="0" stop-color="#171717"/><stop offset="1" stop-color="#171717" stop-opacity="0"/></radialGradient><radialGradient cx="230.10003" cy="119.70002" r="21.6" gradientUnits="userSpaceOnUse" id="color-44"><stop offset="0" stop-color="#171717"/><stop offset="1" stop-color="#171717" stop-opacity="0"/></radialGradient><linearGradient x1="240.01742" y1="103.42085" x2="240.01742" y2="108.94169" gradientUnits="userSpaceOnUse" id="color-45"><stop offset="0" stop-color="#666666" stop-opacity="0"/><stop offset="1" stop-color="#666666"/></linearGradient><linearGradient x1="239.70001" y1="145.48339" x2="239.70001" y2="152.68334" gradientUnits="userSpaceOnUse" id="color-46"><stop offset="0" stop-color="#666666"/><stop offset="1" stop-color="#666666" stop-opacity="0"/></linearGradient><linearGradient x1="239.90003" y1="200.13338" x2="239.90003" y2="210.93335" gradientUnits="userSpaceOnUse" id="color-47"><stop offset="0" stop-color="#101010"/><stop offset="1" stop-color="#4b4b4b"/></linearGradient><radialGradient cx="220.90003" cy="108.86669" r="10" gradientUnits="userSpaceOnUse" id="color-48"><stop offset="0" stop-color="#aeaeae"/><stop offset="1" stop-color="#c1c1c1"/></radialGradient><radialGradient cx="220.90003" cy="108.86669" r="10" gradientUnits="userSpaceOnUse" id="color-49"><stop offset="0" stop-color="#c2c2c2"/><stop offset="1" stop-color="#aeaeae"/></radialGradient><radialGradient cx="259.10002" cy="108.86669" r="10" gradientUnits="userSpaceOnUse" id="color-50"><stop offset="0" stop-color="#c1c1c1"/><stop offset="1" stop-color="#a7a7a7"/></radialGradient><radialGradient cx="134.75" cy="125.33335" r="20.33333" gradientUnits="userSpaceOnUse" id="color-51"><stop offset="0" stop-color="#000000"/><stop offset="1" stop-color="#000000" stop-opacity="0"/></radialGradient><radialGradient cx="345.25003" cy="124.33335" r="20.33334" gradientUnits="userSpaceOnUse" id="color-52"><stop offset="0" stop-color="#000000"/><stop offset="1" stop-color="#000000" stop-opacity="0"/></radialGradient><linearGradient x1="-512.74008" y1="1538.97701" x2="-512.74008" y2="102.28844" gradientUnits="userSpaceOnUse" id="color-53"><stop offset="0" stop-color="#ffffff"/><stop offset="1" stop-color="#ffffff" stop-opacity="0"/></linearGradient><radialGradient cx="145.56066" cy="134.54611" r="14.68662" gradientUnits="userSpaceOnUse" id="color-54"><stop offset="0" stop-color="#8c9aa1"/><stop offset="1" stop-color="#7f959e"/></radialGradient><linearGradient x1="134.5947" y1="138.94279" x2="134.5947" y2="140.65181" gradientUnits="userSpaceOnUse" id="color-55"><stop offset="0" stop-color="#898989"/><stop offset="1" stop-color="#a1a1a1"/></linearGradient><linearGradient x1="134.5947" y1="141.61313" x2="134.5947" y2="145.99244" gradientUnits="userSpaceOnUse" id="color-56"><stop offset="0" stop-color="#898989"/><stop offset="1" stop-color="#a1a1a1"/></linearGradient><linearGradient x1="134.54132" y1="148.87639" x2="134.54132" y2="151.43989" gradientUnits="userSpaceOnUse" id="color-57"><stop offset="0" stop-color="#a1a1a1"/><stop offset="1" stop-color="#898989"/></linearGradient><linearGradient x1="134.80865" y1="128.56669" x2="134.80865" y2="135.22918" gradientUnits="userSpaceOnUse" id="color-58"><stop offset="0" stop-color="#505a5e"/><stop offset="1" stop-color="#5d6b71"/></linearGradient><linearGradient x1="134.80865" y1="128.56669" x2="134.80865" y2="135.22919" gradientUnits="userSpaceOnUse" id="color-59"><stop offset="0" stop-color="#576266"/><stop offset="1" stop-color="#607178"/></linearGradient><linearGradient x1="134.99165" y1="153.82369" x2="131.81516" y2="153.82369" gradientUnits="userSpaceOnUse" id="color-60"><stop offset="0" stop-color="#b7b7b7" stop-opacity="0"/><stop offset="1" stop-color="#b7b7b7"/></linearGradient><linearGradient x1="-302.24009" y1="1538.47701" x2="-302.24009" y2="101.78843" gradientUnits="userSpaceOnUse" id="color-61"><stop offset="0" stop-color="#ffffff"/><stop offset="1" stop-color="#ffffff" stop-opacity="0"/></linearGradient><radialGradient cx="356.06067" cy="134.04611" r="14.68662" gradientUnits="userSpaceOnUse" id="color-62"><stop offset="0" stop-color="#8c9aa1"/><stop offset="1" stop-color="#7f959e"/></radialGradient><linearGradient x1="345.09471" y1="138.44277" x2="345.09471" y2="140.15181" gradientUnits="userSpaceOnUse" id="color-63"><stop offset="0" stop-color="#898989"/><stop offset="1" stop-color="#a1a1a1"/></linearGradient><linearGradient x1="345.09471" y1="141.11313" x2="345.09471" y2="145.49244" gradientUnits="userSpaceOnUse" id="color-64"><stop offset="0" stop-color="#898989"/><stop offset="1" stop-color="#a1a1a1"/></linearGradient><linearGradient x1="345.04133" y1="148.37639" x2="345.04133" y2="150.93989" gradientUnits="userSpaceOnUse" id="color-65"><stop offset="0" stop-color="#a1a1a1"/><stop offset="1" stop-color="#898989"/></linearGradient><linearGradient x1="345.30867" y1="128.06669" x2="345.30867" y2="134.72917" gradientUnits="userSpaceOnUse" id="color-66"><stop offset="0" stop-color="#505a5e"/><stop offset="1" stop-color="#5d6b71"/></linearGradient><linearGradient x1="345.30866" y1="128.06669" x2="345.30866" y2="134.72919" gradientUnits="userSpaceOnUse" id="color-67"><stop offset="0" stop-color="#576266"/><stop offset="1" stop-color="#607178"/></linearGradient><linearGradient x1="345.49166" y1="153.32369" x2="342.31518" y2="153.32369" gradientUnits="userSpaceOnUse" id="color-68"><stop offset="0" stop-color="#b7b7b7" stop-opacity="0"/><stop offset="1" stop-color="#b7b7b7"/></linearGradient><linearGradient x1="195.17617" y1="235.52332" x2="195.17617" y2="236.39012" gradientUnits="userSpaceOnUse" id="color-69"><stop offset="0" stop-color="#898989"/><stop offset="1" stop-color="#a1a1a1"/></linearGradient><linearGradient x1="195.17617" y1="236.87769" x2="195.17617" y2="239.09886" gradientUnits="userSpaceOnUse" id="color-70"><stop offset="0" stop-color="#898989"/><stop offset="1" stop-color="#a1a1a1"/></linearGradient><linearGradient x1="195.14907" y1="240.56157" x2="195.14907" y2="241.86177" gradientUnits="userSpaceOnUse" id="color-71"><stop offset="0" stop-color="#a1a1a1"/><stop offset="1" stop-color="#898989"/></linearGradient><radialGradient cx="201.95102" cy="230.38287" r="7.44897" gradientUnits="userSpaceOnUse" id="color-72"><stop offset="0" stop-color="#696969"/><stop offset="1" stop-color="#505050"/></radialGradient><linearGradient x1="195.31408" y1="221.02027" x2="195.31408" y2="227.61475" gradientUnits="userSpaceOnUse" id="color-73"><stop offset="0" stop-color="#454545"/><stop offset="1" stop-color="#474747"/></linearGradient><linearGradient x1="-94.87706" y1="862.06879" x2="-94.87706" y2="218.27433" gradientUnits="userSpaceOnUse" id="color-74"><stop offset="0" stop-color="#ffffff"/><stop offset="1" stop-color="#ffffff" stop-opacity="0"/></linearGradient><linearGradient x1="286.17616" y1="235.52332" x2="286.17616" y2="236.39012" gradientUnits="userSpaceOnUse" id="color-75"><stop offset="0" stop-color="#898989"/><stop offset="1" stop-color="#a1a1a1"/></linearGradient><linearGradient x1="286.17616" y1="236.87769" x2="286.17616" y2="239.09886" gradientUnits="userSpaceOnUse" id="color-76"><stop offset="0" stop-color="#898989"/><stop offset="1" stop-color="#a1a1a1"/></linearGradient><linearGradient x1="286.14907" y1="240.56157" x2="286.14907" y2="241.86177" gradientUnits="userSpaceOnUse" id="color-77"><stop offset="0" stop-color="#a1a1a1"/><stop offset="1" stop-color="#898989"/></linearGradient><radialGradient cx="292.95102" cy="230.38287" r="7.44897" gradientUnits="userSpaceOnUse" id="color-78"><stop offset="0" stop-color="#696969"/><stop offset="1" stop-color="#505050"/></radialGradient><linearGradient x1="286.31408" y1="221.02027" x2="286.31408" y2="227.61475" gradientUnits="userSpaceOnUse" id="color-79"><stop offset="0" stop-color="#454545"/><stop offset="1" stop-color="#474747"/></linearGradient><linearGradient x1="-3.87705" y1="862.06879" x2="-3.87705" y2="218.27433" gradientUnits="userSpaceOnUse" id="color-80"><stop offset="0" stop-color="#ffffff"/><stop offset="1" stop-color="#ffffff" stop-opacity="0"/></linearGradient><linearGradient x1="241.91797" y1="247.63913" x2="237.58064" y2="247.63913" gradientUnits="userSpaceOnUse" id="color-81"><stop offset="0" stop-color="#a1a1a1"/><stop offset="1" stop-color="#a7a7a7"/></linearGradient><linearGradient x1="241.91797" y1="247.63913" x2="237.58064" y2="247.63913" gradientUnits="userSpaceOnUse" id="color-82"><stop offset="0" stop-color="#a2a2a2"/><stop offset="1" stop-color="#a7a7a7"/></linearGradient><linearGradient x1="239.74931" y1="236.74473" x2="239.74931" y2="237.87692" gradientUnits="userSpaceOnUse" id="color-83"><stop offset="0" stop-color="#898989"/><stop offset="1" stop-color="#a1a1a1"/></linearGradient><linearGradient x1="239.74931" y1="238.51377" x2="239.74931" y2="241.41502" gradientUnits="userSpaceOnUse" id="color-84"><stop offset="0" stop-color="#898989"/><stop offset="1" stop-color="#a1a1a1"/></linearGradient><linearGradient x1="239.70316" y1="243.32558" x2="239.70316" y2="245.02388" gradientUnits="userSpaceOnUse" id="color-85"><stop offset="0" stop-color="#a1a1a1"/><stop offset="1" stop-color="#898989"/></linearGradient><linearGradient x1="-50.28554" y1="861.8635" x2="-50.28554" y2="218.06904" gradientUnits="userSpaceOnUse" id="color-86"><stop offset="0" stop-color="#ffffff"/><stop offset="1" stop-color="#ffffff" stop-opacity="0"/></linearGradient><radialGradient cx="247.55216" cy="230.65493" r="8.57925" gradientUnits="userSpaceOnUse" id="color-87"><stop offset="0" stop-color="#696969"/><stop offset="1" stop-color="#505050"/></radialGradient><linearGradient x1="239.90815" y1="219.87168" x2="239.90815" y2="227.46679" gradientUnits="userSpaceOnUse" id="color-88"><stop offset="0" stop-color="#454545"/><stop offset="1" stop-color="#474747"/></linearGradient></defs><g transform="translate(-102.5133,-73.44446)"><g data-paper-data="{&quot;isPaintingLayer&quot;:true}" fill-rule="nonzero" stroke-linejoin="miter" stroke-miterlimit="10" stroke-dasharray="" stroke-dashoffset="0" style="mix-blend-mode: normal"><path d="M170.94629,265.77423v-170.50625l12.79725,-12.42427h112.97607l12.72059,11.96125v170.96927z" fill="#096600" stroke="none" stroke-width="NaN" stroke-linecap="butt"/><path d="M112.88746,254.15989l-9.86737,-10.61287l0.26085,-140.68973l12.95066,-11.07425l49.49169,-0.13335v152.77027l-8.20556,9.73994z" data-paper-data="{&quot;index&quot;:null}" fill="#096600" stroke="none" stroke-width="0" stroke-linecap="butt"/><path d="M323.28725,254.15989l-8.20556,-9.73993v-152.77027l49.49169,0.13335l12.95066,11.07425l0.26086,140.68973l-9.86737,10.61287z" data-paper-data="{&quot;index&quot;:null}" fill="#096600" stroke="none" stroke-width="0" stroke-linecap="butt"/><path d="M156.65706,231.7807v-140.75707h172.2422v140.75707z" fill="#096600" stroke="none" stroke-width="0" stroke-linecap="butt"/><path d="M170.94629,256.51391v-170.50625l12.79725,-12.42427h112.97607l12.72059,11.96126v170.96927z" fill="#0d9700" stroke="none" stroke-width="NaN" stroke-linecap="butt"/><path d="M113.00863,247.67761l-9.86737,-10.61286l0.26085,-140.68973l12.95065,-11.07425l49.4917,-0.13335v152.77027l-8.20557,9.73993z" fill="url(#color-1)" stroke="none" stroke-width="0" stroke-linecap="butt"/><path d="M323.28725,247.67761l-8.20556,-9.73994v-152.77027l49.49169,0.13335l12.95066,11.07425l0.26086,140.68973l-9.86737,10.61287z" data-paper-data="{&quot;index&quot;:null}" fill="url(#color-2)" stroke="none" stroke-width="0" stroke-linecap="butt"/><path d="M298.57169,223.06058v14.81653l-9.26033,7.87129h-100.47462l-7.35703,-7.425l-0.05124,-15.26282z" data-paper-data="{&quot;index&quot;:null}" fill="#0b8600" stroke="none" stroke-width="0" stroke-linecap="butt"/><path d="M119.49997,99.01071v-7.87128h42.59753v7.87129z" fill="url(#color-3)" stroke="none" stroke-width="0" stroke-linecap="butt"/><g stroke="none" stroke-width="0" stroke-linecap="butt"><path d="M118.99997,97.2696v-4.16715h42.82904v4.16715z" fill="url(#color-4)"/><path d="M161.82898,89.1668v4.16715h-42.82904v-4.16715z" data-paper-data="{&quot;index&quot;:null}" fill="url(#color-5)"/></g><path d="M319.29161,100.63127v-7.87128h42.59753v7.87129z" data-paper-data="{&quot;index&quot;:null}" fill="url(#color-6)" stroke="none" stroke-width="0" stroke-linecap="butt"/><g stroke="none" stroke-width="0" stroke-linecap="butt"><path d="M319.29161,97.39015v-4.16715h42.82905v4.16715z" fill="url(#color-7)"/><path d="M362.12073,89.28736v4.16715h-42.82905v-4.16715z" data-paper-data="{&quot;index&quot;:null}" fill="url(#color-8)"/></g><path d="M135.96661,219.27926v-62.50725h21.83895v62.50725z" fill="url(#color-9)" stroke="none" stroke-width="0" stroke-linecap="butt"/><path d="M194.85594,271.90882v-10.95807h88.43619v10.95807z" fill="#096600" stroke="none" stroke-width="0" stroke-linecap="butt"/><path d="M195.31894,265.42661v-9.41467h88.43618v9.41467z" fill="#0c8e00" stroke="none" stroke-width="0" stroke-linecap="butt"/><path d="M195.78198,186.40506v-87.04713h89.36222v87.04714l-16.87448,15.25723l-55.35611,0.02232z" fill="#0b8600" stroke="#000000" stroke-width="0" stroke-linecap="butt"/><path d="M195.78198,179.92286v-87.04713h89.36222v87.04713l-16.87448,15.25723l-55.35611,0.02232z" fill="#0c9200" stroke="#000000" stroke-width="0" stroke-linecap="butt"/><path d="M108.25006,218.66669v-52.5l18.25,-18.25v40.25l-7.625,7.625v22.875z" fill="#0d9c00" stroke="#000000" stroke-width="0" stroke-linecap="round"/><path d="M128.25,102.66672h30.5v27.25h-9.75l-20.75,-20.75z" fill="#0c9100" stroke="#0fb700" stroke-width="0" stroke-linecap="round"/><path d="M335.75006,106.16672l5.5,5.5h16v12l-8.5,8.5h-20v-22v-4.2h6.75" fill="#0c9100" stroke="#000000" stroke-width="0" stroke-linecap="round"/><path d="M353.08343,234.44447l9.16667,-9.16667v-32.83333h11.16667v42.66666l-6.33333,6.33334h-14z" fill="#0d9c00" stroke="#000000" stroke-width="0" stroke-linecap="round"/><path d="M353.08343,164.77781l11,-11h6.66667v11z" fill="#0d9c00" stroke="#000000" stroke-width="0" stroke-linecap="round"/><path d="M304.25005,134.44446l-12.5,12.49999v-12.66666h12.66667" data-paper-data="{&quot;index&quot;:null}" fill="#0d9c00" stroke="#000000" stroke-width="0" stroke-linecap="round"/><path d="M196.75007,212.77782h-12.66666v-12.66666l12.5,12.5" fill="#0d9c00" stroke="#000000" stroke-width="0" stroke-linecap="round"/><path d="M176.99931,118.66672h14.0841v12.58334h-4.5023l-9.58181,-9.58181z" fill="#0d9c00" stroke="#000000" stroke-width="0" stroke-linecap="round"/><path d="M296.50005,73.77779l-11,19h-89.33334l-12,-19.33333z" fill="#0b8700" stroke="#000000" stroke-width="0" stroke-linecap="round"/><path d="M183.83341,74.11115l12,18.66667l-25,-6.33333z" fill="#0c9000" stroke="#000000" stroke-width="0" stroke-linecap="round"/><path d="M309.83337,85.77783l-25,6.33333l12,-18.66666z" data-paper-data="{&quot;index&quot;:null}" fill="#0c9000" stroke="#000000" stroke-width="0" stroke-linecap="round"/><path d="M224.08341,159.08333c0,-15.87819 12.87181,-28.75 28.75,-28.75c15.87819,0 28.75,12.87181 28.75,28.75c0,15.87819 -12.87181,28.75 -28.75,28.75c-15.87819,0 -28.75,-12.87181 -28.75,-28.75z" fill="url(#color-10)" stroke="none" stroke-width="0" stroke-linecap="butt"/><path d="M195.08341,113.75005c0,-15.87819 12.87181,-28.75 28.75,-28.75c15.87819,0 28.75,12.87181 28.75,28.75c0,15.87818 -12.87181,28.75 -28.75,28.75c-15.87819,0 -28.75,-12.87182 -28.75,-28.75z" fill="url(#color-11)" stroke="none" stroke-width="0" stroke-linecap="butt"/><path d="M227.75006,112.41671c0,-15.87819 12.87181,-28.75 28.75,-28.75c15.87818,0 28.75,12.87181 28.75,28.75c0,15.87818 -12.87182,28.75 -28.75,28.75c-15.87819,0 -28.75,-12.87182 -28.75,-28.75z" fill="url(#color-12)" stroke="none" stroke-width="0" stroke-linecap="butt"/><path d="M208.08341,112.75005c0,-15.87819 12.87181,-28.75 28.75,-28.75c15.87819,0 28.75,12.87181 28.75,28.75c0,15.87818 -12.87181,28.75 -28.75,28.75c-15.87819,0 -28.75,-12.87182 -28.75,-28.75z" fill="url(#color-13)" stroke="none" stroke-width="0" stroke-linecap="butt"/><path d="M196.41672,159.08333c0,-15.87819 12.87181,-28.75 28.75,-28.75c15.87819,0 28.75,12.87181 28.75,28.75c0,15.87819 -12.87181,28.75 -28.75,28.75c-15.87819,0 -28.75,-12.87181 -28.75,-28.75z" fill="url(#color-14)" stroke="none" stroke-width="0" stroke-linecap="butt"/><path d="M194.08341,127.75005c0,-15.87819 12.87181,-28.75 28.75,-28.75c15.87819,0 28.75,12.87181 28.75,28.75c0,15.87818 -12.87181,28.75 -28.75,28.75c-15.87819,0 -28.75,-12.87182 -28.75,-28.75z" fill="url(#color-15)" stroke="none" stroke-width="0" stroke-linecap="butt"/><path d="M193.75007,142.41669c0,-15.87819 12.87181,-28.75 28.75,-28.75c15.87819,0 28.75,12.87182 28.75,28.75c0,15.87819 -12.87181,28.75 -28.75,28.75c-15.87819,0 -28.75,-12.87181 -28.75,-28.75z" fill="url(#color-16)" stroke="none" stroke-width="0" stroke-linecap="butt"/><path d="M228.41674,145.41669c0,-15.87819 12.87182,-28.75 28.75,-28.75c15.87818,0 28.75,12.87182 28.75,28.75c0,15.87819 -12.87182,28.75 -28.75,28.75c-15.87819,0 -28.75,-12.87181 -28.75,-28.75z" fill="url(#color-17)" stroke="none" stroke-width="0" stroke-linecap="butt"/><path d="M206.89437,165.87523v-64.20219h65.90969v64.20219l-12.4459,11.25307l-40.82826,0.01646z" fill="#757575" stroke="#000000" stroke-width="0" stroke-linecap="butt"/><path d="M229.08341,127.41671c0,-15.87819 12.87181,-28.75 28.75,-28.75c15.87818,0 28.75,12.87181 28.75,28.75c0,15.87818 -12.87182,28.75 -28.75,28.75c-15.87819,0 -28.75,-12.87182 -28.75,-28.75z" fill="url(#color-18)" stroke="none" stroke-width="0" stroke-linecap="butt"/><path d="M206.89437,159.39297v-64.20218h65.90969v64.20218l-12.4459,11.25308l-40.82826,0.01646z" fill="#8e8e8e" stroke="#000000" stroke-width="0" stroke-linecap="butt"/><path d="M266.62505,102.83338c-1.25,0 -1.25,-1.25 -1.25,-1.25l0.02427,-0.75486c-0.02382,-0.40099 -0.24472,-0.86893 -0.60794,-1.0405c-4.60942,0.22816 -9.10661,-0.85809 -13.79317,-0.46072c-5.54777,0.47038 -11.01529,0.75608 -16.62317,0.75608c-3.76947,0 -8.02975,0.13336 -11.73639,-0.52255c-3.97628,-0.70363 -8.15582,-2.33281 -11.37973,0.90644c0,0 -0.88388,0.88389 -1.76777,0c-0.88388,-0.88389 0,-1.76776 0,-1.76776c3.96991,-3.95333 8.72998,-2.51311 13.62027,-1.59356c3.5113,0.66026 7.67712,0.47745 11.26361,0.47745c5.52826,0 10.90783,-0.29548 16.37683,-0.74392c4.96517,-0.40712 9.79879,0.39871 14.70683,0.53928c1.06982,0.68148 2.06923,1.73282 2.39206,2.95949l0.02427,1.24515c0,0 0,1.25 -1.25,1.25z" fill="#9a9a9a" stroke="none" stroke-width="0.5" stroke-linecap="butt"/><path d="M225.41975,101.29695c0.66117,-1.21357 2.20532,-1.21357 2.20532,-1.21357l1.22634,0.01027c0.9109,0.08283 1.82181,0.16566 2.73271,0.24849c7.31992,0.56724 15.02724,1.34597 21.05936,6.00518c1.22735,0.948 4.97421,3.86814 5.57185,5.60675c1.08544,3.15761 -0.17151,4.73225 -0.92845,7.53752c-0.96452,3.57454 -1.07639,7.29633 -0.91437,10.97851c0.10456,2.37653 0.43075,4.96678 1.32649,7.19167c0.96708,2.40208 2.44847,3.68218 1.66561,6.65019c-0.47852,1.81415 -1.7794,3.30365 -2.66911,4.95548c-1.5165,-1.05219 -3.18518,-1.91338 -4.5495,-3.15655c-4.37475,-3.98628 -4.55657,-11.62581 -7.63593,-16.44457c-1.85675,-2.90556 -4.41312,-5.34683 -6.57709,-8.00868c-4.62734,-5.692 -8.21511,-11.29626 -14.09275,-15.85086c0,0 -1.97338,-1.53485 -0.43853,-3.50823c0.65533,-0.84256 1.39058,-1.04557 2.01806,-1.00158z" fill="#929292" stroke="none" stroke-width="0.5" stroke-linecap="butt"/><path d="M246.98234,160.05381c-0.66117,1.21356 -2.20532,1.21357 -2.20532,1.21357l-1.22634,-0.01027c-0.9109,-0.08283 -1.82181,-0.16565 -2.73271,-0.24848c-7.31992,-0.56724 -15.02723,-1.34597 -21.05935,-6.00518c-1.22735,-0.948 -4.97421,-3.86814 -5.57185,-5.60675c-1.08544,-3.15761 0.17151,-4.73225 0.92845,-7.53752c0.96452,-3.57454 1.07639,-7.29633 0.91437,-10.97851c-0.10457,-2.37653 -0.43076,-4.96678 -1.3265,-7.19167c-0.96708,-2.40208 -2.44847,-3.68218 -1.6656,-6.65018c0.47851,-1.81415 1.77941,-3.30365 2.66911,-4.95548c1.5165,1.05218 3.18517,1.91338 4.5495,3.15655c4.37475,3.98628 4.55657,11.62581 7.63593,16.44457c1.85675,2.90555 4.41312,5.34683 6.57709,8.00868c4.62734,5.69199 8.21511,11.29626 14.09275,15.85087c0,0 1.97338,1.53485 0.43853,3.50823c-0.65533,0.84256 -1.39059,1.04557 -2.01807,1.00158z" fill="#929292" stroke="none" stroke-width="0.5" stroke-linecap="butt"/><path d="M228.12506,166.83333c0,1.25 -1.25,1.25 -1.25,1.25h-0.75c-0.15678,0 -3.32207,0.00758 -3.48639,-0.02255c-2.46664,-0.45231 -3.87646,-2.31008 -5.76361,-3.72745c-4.36301,-3.2769 -9,-6.40628 -9,-12.25c0,0 0,-1.25 1.25,-1.25c1.25,0 1.25,1.25 1.25,1.25c0,4.88772 4.31268,7.48824 8,10.25c1.52536,1.14248 2.79252,2.92338 4.73639,3.27256c0.98874,0.17761 2.00905,-0.02256 3.01361,-0.02256h0.75c0,0 1.25,0 1.25,1.25z" fill="#9a9a9a" stroke="none" stroke-width="0.5" stroke-linecap="butt"/><path d="M209.90653,106.15134c-0.57354,-0.70085 -1.03231,-1.45596 -1.23393,-2.3328c-0.617,-2.68331 1.81811,-7.05182 4.31515,-7.90256c1.39097,-0.47391 2.8889,0.61955 4.24823,1.17778c3.00415,1.23371 2.79093,1.87996 5.0436,3.86542c4.21671,3.71652 8.18727,6.93082 11.11677,11.82956c2.8904,8.63348 10.19741,13.15701 14.6266,20.76534c2.16641,3.7214 2.35734,7.47121 4.88179,11.0697c1.26611,1.80478 3.10152,2.83212 3.92759,5.03572c0.62572,1.66916 1.83211,3.7534 0.89824,5.27179c-1.36277,2.21576 -10.40335,1.68862 -12.48651,0.99171c-2.52818,-0.84579 -5.48506,-3.93735 -7.30235,-5.75465c-2.92563,-4.38844 -7.44135,-7.45585 -10.19327,-12.02065c-2.15428,-3.57344 -3.54571,-6.98073 -6.2864,-10.20488c-5.54841,-6.52714 -11.11385,-13.38452 -11.55551,-21.79149zM229.16807,121.52016c-1.67747,-2.65192 -3.75029,-5.20396 -5.91368,-7.67077c1.7424,2.33664 3.54275,4.64693 5.32487,6.92479c0.19535,0.24969 0.39163,0.49834 0.58881,0.74599z" fill="#959595" stroke="none" stroke-width="0.5" stroke-linecap="butt"/><path d="M185.50007,210.11116v-112h11v112z" fill="url(#color-19)" stroke="none" stroke-width="0" stroke-linecap="butt"/><path d="M176.83341,210.11116v-108.33333h12.66666v108.33334z" fill="#0b8600" stroke="#000000" stroke-width="0" stroke-linecap="butt"/><path d="M176.83341,205.77782v-108.33333h12.66666v108.33334z" fill="#0c9200" stroke="#000000" stroke-width="0" stroke-linecap="butt"/><path d="M283.50005,210.11116v-112h11v112z" data-paper-data="{&quot;index&quot;:null}" fill="url(#color-20)" stroke="none" stroke-width="0" stroke-linecap="butt"/><path d="M290.83337,210.11116v-108.33333h12.66667v108.33334z" fill="#0b8600" stroke="#000000" stroke-width="0" stroke-linecap="butt"/><path d="M181.75007,223.16669v-11h117v11z" fill="url(#color-21)" stroke="none" stroke-width="0" stroke-linecap="butt"/><path d="M290.83337,205.44445v-108.33333h12.66667v108.33334z" fill="#0c9200" stroke="#000000" stroke-width="0" stroke-linecap="butt"/><path d="M298.57169,217.96739v14.81653l-9.26033,7.87129h-100.47462l-7.35703,-7.425l-0.05124,-15.26282z" data-paper-data="{&quot;index&quot;:null}" fill="#0c9200" stroke="none" stroke-width="0" stroke-linecap="butt"/><path d="M317.25005,236.44588c0,-11.69587 0,-85.27916 0,-85.27916h14v91.42857c0,0 -5.39667,0.34145 -8.41317,-0.49254c-3.87489,-1.07131 -5.58683,-3.95356 -5.58683,-5.65687z" data-paper-data="{&quot;index&quot;:null}" fill="url(#color-22)" stroke="none" stroke-width="0" stroke-linecap="butt"/><path d="M335.25005,242.73814v-91.57143h14c0,0 0,74.59105 0,85.85059c0,2.75758 -2.85399,4.38923 -4.71429,5.14941c-1.8603,0.76018 -9.28571,0.57143 -9.28571,0.57143z" data-paper-data="{&quot;index&quot;:null}" fill="url(#color-23)" stroke="none" stroke-width="0" stroke-linecap="butt"/><path d="M130.75,237.69588c0,-11.69587 0,-85.27916 0,-85.27916h14v91.42857c0,0 -5.39667,0.34145 -8.41317,-0.49254c-3.87489,-1.07131 -5.58683,-3.95356 -5.58683,-5.65687z" data-paper-data="{&quot;index&quot;:null}" fill="url(#color-24)" stroke="none" stroke-width="0" stroke-linecap="butt"/><path d="M156.91323,243.18605c-3.0165,0.83399 -8.41317,0.49254 -8.41317,0.49254v-91.42857h14c0,0 0,73.58329 0,85.27917c0,1.70331 -1.71194,4.58555 -5.58683,5.65687z" data-paper-data="{&quot;index&quot;:null}" fill="url(#color-25)" stroke="none" stroke-width="0" stroke-linecap="butt"/><path d="M135.96661,214.64913v-62.50725h21.83895v62.50725z" fill="url(#color-26)" stroke="none" stroke-width="0" stroke-linecap="butt"/><path d="M135.89846,237.29105v-18.81264h21.92729v18.34962l-6.22416,6.75337l-9.64739,0.00547z" fill="url(#color-27)" stroke="#000000" stroke-width="0" stroke-linecap="butt"/><path d="M135.89846,232.66088v-18.81263h21.92729v18.34962l-6.22416,6.75337l-9.64739,0.00548z" fill="url(#color-28)" stroke="#000000" stroke-width="0" stroke-linecap="butt"/><g data-paper-data="{&quot;index&quot;:null}" stroke-width="0" stroke-linecap="butt"><path d="M338.0137,242.89233l-9.64738,-0.00547l-6.22417,-6.75337v-18.34962h21.92729v18.81264z" fill="url(#color-29)" stroke="#000000"/><path d="M322.16229,218.58476v-62.50725h21.83895v62.50725z" fill="url(#color-30)" stroke="none"/></g><g data-paper-data="{&quot;index&quot;:null}" stroke-width="0" stroke-linecap="butt"><path d="M338.0137,238.03067l-9.64738,-0.00547l-6.22417,-6.75337v-18.34962h21.92729v18.81264z" fill="url(#color-31)" stroke="#000000"/><path d="M322.16229,213.72309v-62.50725h21.83895v62.50725z" fill="url(#color-32)" stroke="none"/></g><g stroke="none" stroke-width="0" stroke-linecap="butt"><g><path d="M153.23073,231.16957h-11.41882v-74.88333h11.41882z" fill="#8d8d8d"/><path d="M151.92152,231.16957h-11.41882v-74.88333h11.41882z" fill="#ababab"/></g><path d="M142.5,165.66956v-7.6h7.6v7.6z" fill="url(#color-33)"/><path d="M142.5,229.46959v-7.6h7.6v7.6z" fill="url(#color-34)"/><path d="M142.5,186.26957v-7.6h7.6v7.6z" fill="url(#color-35)"/><path d="M142.5,207.46959v-7.6h7.6v7.6z" fill="url(#color-36)"/></g><g data-paper-data="{&quot;index&quot;:null}" stroke="none" stroke-width="0" stroke-linecap="butt"><g><path d="M326.50271,154.78623h11.41882v74.88333h-11.41882z" fill="#8d8d8d"/><path d="M327.8119,154.78623h11.41882v74.88333h-11.41882z" fill="#ababab"/></g><path d="M329.63338,164.16956v-7.6h7.6v7.6z" fill="url(#color-37)"/><path d="M329.63338,227.96959v-7.6h7.6v7.6z" fill="url(#color-38)"/><path d="M329.63338,184.76957v-7.6h7.6v7.6z" fill="url(#color-39)"/><path d="M329.63338,205.96959v-7.6h7.6v7.6z" fill="url(#color-40)"/></g><g><path d="M228.30002,121.10002c0,-11.92935 9.67065,-21.6 21.6,-21.6c11.92935,0 21.6,9.67065 21.6,21.6c0,11.92935 -9.67065,21.6 -21.6,21.6c-11.92935,0 -21.6,-9.67065 -21.6,-21.6z" fill="url(#color-41)" stroke="none" stroke-width="NaN" stroke-linecap="butt"/><path d="M207.90003,137.10001c0,-11.92935 9.67065,-21.6 21.6,-21.6c11.92935,0 21.6,9.67065 21.6,21.6c0,11.92935 -9.67065,21.6 -21.6,21.6c-11.92935,0 -21.6,-9.67065 -21.6,-21.6z" fill="url(#color-42)" stroke="none" stroke-width="NaN" stroke-linecap="butt"/><path d="M227.90003,138.5c0,-11.92935 9.67065,-21.6 21.6,-21.6c11.92935,0 21.6,9.67065 21.6,21.6c0,11.92935 -9.67065,21.6 -21.6,21.6c-11.92935,0 -21.6,-9.67065 -21.6,-21.6z" fill="url(#color-43)" stroke="none" stroke-width="NaN" stroke-linecap="butt"/><path d="M208.50003,119.70002c0,-11.92935 9.67065,-21.6 21.6,-21.6c11.92935,0 21.6,9.67065 21.6,21.6c0,11.92935 -9.67065,21.6 -21.6,21.6c-11.92935,0 -21.6,-9.67065 -21.6,-21.6z" fill="url(#color-44)" stroke="none" stroke-width="NaN" stroke-linecap="butt"/><g fill="#717171" stroke="none" stroke-width="0" stroke-linecap="butt"><path d="M227.04169,179.9167v-15.25h10.46532l-5.45376,15.25z"/><path d="M228.95788,174.01394v-9.33334h23.58381v9.33334z"/><path d="M247.53014,179.9167l-5.45376,-15.25h10.46532v15.25z"/></g><path d="M222.8557,164.06667v-32.89603c0,0 -0.18453,0 0.67389,0c3.30573,0 25.84909,0 32.19718,0c1.10553,0 0.84861,0 0.84861,0v32.89603c0,0 0.25696,0 -0.84861,0c-6.33115,0 -28.7774,0 -32.19718,0c-0.93192,0 -0.67389,0 -0.67389,0z" fill="#717171" stroke="#717171" stroke-width="5" stroke-linecap="butt"/><path d="M222.8557,155.40004v-32.89603c0,0 -0.18453,0 0.67389,0c3.30573,0 25.84909,0 32.19718,0c1.10553,0 0.84861,0 0.84861,0v32.89603c0,0 0.25696,0 -0.84861,0c-6.33115,0 -28.7774,0 -32.19718,0c-0.93192,0 -0.67389,0 -0.67389,0z" fill="#868686" stroke="#868686" stroke-width="5" stroke-linecap="butt"/><path d="M224.62155,110.26668l8.11782,-10.6h14.27617l8.11782,10.6z" fill="#868686" stroke="#000000" stroke-width="0" stroke-linecap="round"/><path d="M225.35954,108.94169l4.60604,-5.52083h20.10369l3.96984,5.52083z" fill="url(#color-45)" stroke="none" stroke-width="0" stroke-linecap="butt"/><path d="M220.50003,152.68334v-7.2h38.4v7.2z" fill="url(#color-46)" stroke="none" stroke-width="0" stroke-linecap="butt"/><path d="M217.20002,145.06667v-35.93333c0,0 -0.24645,0 0.9,0c4.41487,0 34.522,0 43,0c1.47647,0 1.13333,0 1.13333,0v35.93333c0,0 0.34318,0 -1.13333,0c-8.45538,0 -38.43282,0 -43,0c-1.24459,0 -0.9,0 -0.9,0z" fill="#868686" stroke="#868686" stroke-width="5" stroke-linecap="butt"/><g stroke-linecap="butt"><g><path d="M232.0049,204.38812v-39.21115c0,0 -0.0862,0 0.31479,0c1.54415,0 12.07447,0 15.03975,0c0.51641,0 0.3964,0 0.3964,0v39.21115c0,0 0.12003,0 -0.3964,0c-2.95737,0 -13.44233,0 -15.03975,0c-0.43532,0 -0.31479,0 -0.31479,0z" fill="#4b4b4b" stroke="#4b4b4b" stroke-width="5"/><path d="M234.00779,207.56668v-45.53333h3.36947v45.53333z" fill="#555555" stroke="none" stroke-width="0"/><path d="M242.19078,207.56668v-45.53333h3.36947v45.53333z" fill="#555555" stroke="none" stroke-width="0"/></g><path d="M229.50003,205.53335c0,-2.98234 4.65624,-5.4 10.4,-5.4c5.74376,0 10.4,2.41766 10.4,5.4c0,2.98234 -4.65624,5.4 -10.4,5.4c-5.74376,0 -10.4,-2.41766 -10.4,-5.4z" fill="url(#color-47)" stroke="none" stroke-width="NaN"/><path d="M230.30002,205.70449c0,-2.6669 4.34284,-4.82884 9.7,-4.82884c5.35716,0 9.7,2.16194 9.7,4.82884c0,2.6669 -4.34284,4.82885 -9.7,4.82885c-5.35716,0 -9.7,-2.16195 -9.7,-4.82885z" fill="none" stroke="#565656" stroke-width="2"/></g><path d="M220.12503,147.33333v-40.5h7.5v40.5z" fill="#555555" stroke="none" stroke-width="0" stroke-linecap="butt"/><path d="M252.37503,147.33333v-40.5h7.5v40.5z" fill="#555555" stroke="none" stroke-width="0" stroke-linecap="butt"/><g fill="#868686" stroke="none" stroke-width="0" stroke-linecap="butt"><path d="M227.04169,175.7917v-15.25h10.46532l-5.45376,15.25z"/><path d="M228.95788,169.88894v-9.33334h23.58381v9.33334z"/><path d="M247.53014,175.7917l-5.45376,-15.25h10.46532v15.25z"/></g><path d="M229.62503,147.31139v-40.54945h0.85714v40.54945z" fill="#00ffff" stroke="none" stroke-width="0" stroke-linecap="butt"/><path d="M249.50003,147.3114v-40.54945h0.85715v40.54945z" fill="#00ffff" stroke="none" stroke-width="0" stroke-linecap="butt"/><path d="M220.90003,98.86669v20" fill="url(#color-48)" stroke="url(#color-49)" stroke-width="8" stroke-linecap="round"/><path d="M259.10002,98.86669v20" fill="none" stroke="url(#color-50)" stroke-width="8" stroke-linecap="round"/></g><g stroke="none" stroke-linecap="butt"><path d="M114.4167,125.33335c0,-11.22979 9.10354,-20.33333 20.33333,-20.33333c11.22979,0 20.33333,9.10354 20.33333,20.33333c0,11.22979 -9.10354,20.33333 -20.33333,20.33333c-11.22979,0 -20.33333,-9.10354 -20.33333,-20.33333z" fill="url(#color-51)" stroke-width="NaN"/><path d="M118.4167,125.50002c0,-9.1127 7.3873,-16.5 16.5,-16.5c9.1127,0 16.5,7.3873 16.5,16.5c0,9.1127 -7.3873,16.5 -16.5,16.5c-9.1127,0 -16.5,-7.3873 -16.5,-16.5z" fill="#555555" stroke-width="NaN"/></g><g stroke="none" stroke-linecap="butt"><path d="M324.91669,124.33335c0,-11.22979 9.10354,-20.33333 20.33333,-20.33333c11.22979,0 20.33334,9.10355 20.33334,20.33333c0,11.22979 -9.10355,20.33334 -20.33334,20.33334c-11.22979,0 -20.33333,-9.10354 -20.33333,-20.33334z" fill="url(#color-52)" stroke-width="NaN"/><path d="M328.91668,124.50002c0,-9.1127 7.3873,-16.5 16.5,-16.5c9.1127,0 16.5,7.3873 16.5,16.5c0,9.1127 -7.3873,16.5 -16.5,16.5c-9.1127,0 -16.5,-7.3873 -16.5,-16.5z" fill="#555555" stroke-width="NaN"/></g><g><path d="M112.40132,148.02229c-13.22153,-13.22155 -13.14648,-32.58738 0,-45.73386c13.14646,-13.14648 32.35933,-13.10551 45.46482,0c13.10551,13.10551 12.54636,32.91846 0,45.46482c-12.54636,12.54636 -32.24329,13.49055 -45.46482,0.26902z" data-paper-data="{&quot;index&quot;:null}" fill="url(#color-53)" stroke="none" stroke-width="0" stroke-linecap="butt"/><path d="M132.93908,136.34445h3.20438v16.02192h-3.20438z" fill="#a1a1a1" stroke="#a1a1a1" stroke-width="0.5" stroke-linecap="butt"/><path d="M132.08458,151.65352h5.0202v4.27251h-5.0202z" fill="#a1a1a1" stroke="#a1a1a1" stroke-width="0.5" stroke-linecap="butt"/><path d="M132.61868,130.39779h3.95208v11.00172h-3.95208z" fill="#a1a1a1" stroke="#a1a1a1" stroke-width="0.5" stroke-linecap="butt"/><path d="M134.83331,139.48944c-8.0733,0 -14.61799,-6.57542 -14.61799,-14.68662c0,-8.1112 6.5447,-14.68662 14.61799,-14.68662c8.0733,0 14.61799,6.57543 14.61799,14.68662c0,8.1112 -6.5447,14.68662 -14.61799,14.68662z" fill="url(#color-54)" stroke="none" stroke-width="NaN" stroke-linecap="butt"/><path d="M132.40504,138.94279h4.37933v1.70901h-4.37933z" fill="url(#color-55)" stroke="none" stroke-width="0" stroke-linecap="butt"/><path d="M132.83229,141.61313h3.52482v4.37933h-3.52482z" fill="url(#color-56)" stroke="none" stroke-width="0" stroke-linecap="butt"/><path d="M132.72548,148.87639h3.63163v2.56351h-3.63163z" fill="url(#color-57)" stroke="none" stroke-width="0" stroke-linecap="butt"/><path d="M123.91665,115.75002c0,0 3.36637,-5.38679 11.19905,-5.40185c7.96627,-0.01531 10.70094,5.20185 10.70094,5.20185l-4.2,7.8h-12.5l-5.2,-7.6z" fill="#768c94" stroke="#000000" stroke-width="0" stroke-linecap="round"/><path d="M134.83331,137.08762c-6.7847,0 -12.28479,-5.50009 -12.28479,-12.28478c0,-6.7847 5.50009,-12.28479 12.28478,-12.28479c6.7847,0 12.28478,5.50009 12.28478,12.28479c0,6.7847 -5.50009,12.28479 -12.28479,12.28479z" fill="none" stroke="#46f3ff" stroke-width="1.5" stroke-linecap="butt"/><path d="M134.83331,133.26832c-4.67535,0 -8.46548,-3.79013 -8.46548,-8.46548c0,-4.67535 3.79012,-8.46548 8.46548,-8.46548c4.67535,0 8.46548,3.79012 8.46548,8.46548c0,4.67535 -3.79013,8.46548 -8.46548,8.46548z" fill="none" stroke="#8da7b1" stroke-width="1.5" stroke-linecap="butt"/><path d="M132.97736,143.57405h3.3072" fill="none" stroke="#a1a1a1" stroke-width="1.5" stroke-linecap="round"/><path d="M136.28458,145.57376h-3.30721" fill="none" stroke="#a1a1a1" stroke-width="1.5" stroke-linecap="round"/><path d="M132.97737,147.6504h3.30721" fill="none" stroke="#a1a1a1" stroke-width="1.5" stroke-linecap="round"/><path d="M132.97737,149.88083h3.30721" fill="none" stroke="#a1a1a1" stroke-width="1.5" stroke-linecap="round"/><path d="M132.90093,134.71002l0.61007,-6.14333h2.85096l0.3461,6.14333c0,0 0.23708,0.51915 -1.81704,0.51915c-1.83782,0 -1.99009,-0.51915 -1.99009,-0.51915z" fill="url(#color-58)" stroke="url(#color-59)" stroke-width="0.5" stroke-linecap="round"/><path d="M131.81516,151.45922h3.17647v4.72897h-3.17647z" fill="url(#color-60)" stroke="none" stroke-width="0" stroke-linecap="butt"/><g fill="none" stroke-width="1.5" stroke-linecap="round"><path d="M136.85418,152.15625v5.3125" stroke="#666666"/><path d="M135.60417,157.46875v-5.3125" stroke="#797979"/><path d="M134.54167,152.15625v5.3125" stroke="#808080"/><path d="M132.35417,152.15625v5.3125" stroke="#666666"/><path d="M133.29167,157.53125v-5.3125" stroke="#797979"/></g></g><g><path d="M322.9013,147.52229c-13.22153,-13.22155 -13.14648,-32.58738 0,-45.73386c13.14646,-13.14648 32.35933,-13.10551 45.46482,0c13.10551,13.10551 12.54636,32.91846 0,45.46482c-12.54636,12.54636 -32.24329,13.49055 -45.46482,0.26902z" data-paper-data="{&quot;index&quot;:null}" fill="url(#color-61)" stroke="none" stroke-width="0" stroke-linecap="butt"/><path d="M343.4391,135.84445h3.20438v16.02192h-3.20438z" fill="#a1a1a1" stroke="#a1a1a1" stroke-width="0.5" stroke-linecap="butt"/><path d="M342.58459,151.15352h5.0202v4.27251h-5.0202z" fill="#a1a1a1" stroke="#a1a1a1" stroke-width="0.5" stroke-linecap="butt"/><path d="M343.11869,129.89778h3.95208v11.00172h-3.95208z" fill="#a1a1a1" stroke="#a1a1a1" stroke-width="0.5" stroke-linecap="butt"/><path d="M345.33332,138.98942c-8.0733,0 -14.61799,-6.57542 -14.61799,-14.68662c0,-8.1112 6.5447,-14.68662 14.61799,-14.68662c8.0733,0 14.61799,6.57543 14.61799,14.68662c0,8.1112 -6.5447,14.68662 -14.61799,14.68662z" fill="url(#color-62)" stroke="none" stroke-width="NaN" stroke-linecap="butt"/><path d="M342.90505,138.44277h4.37933v1.70901h-4.37933z" fill="url(#color-63)" stroke="none" stroke-width="0" stroke-linecap="butt"/><path d="M343.3323,141.11313h3.52482v4.37933h-3.52482z" fill="url(#color-64)" stroke="none" stroke-width="0" stroke-linecap="butt"/><path d="M343.22549,148.37639h3.63163v2.56351h-3.63163z" fill="url(#color-65)" stroke="none" stroke-width="0" stroke-linecap="butt"/><path d="M334.41666,115.25001c0,0 3.36637,-5.38679 11.19905,-5.40185c7.96627,-0.01531 10.70094,5.20185 10.70094,5.20185l-4.2,7.8h-12.5l-5.2,-7.6z" fill="#768c94" stroke="#000000" stroke-width="0" stroke-linecap="round"/><path d="M345.33332,136.58762c-6.7847,0 -12.28479,-5.50009 -12.28479,-12.28478c0,-6.7847 5.50009,-12.28479 12.28478,-12.28479c6.7847,0 12.28478,5.50009 12.28478,12.28479c0,6.7847 -5.50009,12.28479 -12.28479,12.28479z" fill="none" stroke="#46f3ff" stroke-width="1.5" stroke-linecap="butt"/><path d="M345.33332,132.76832c-4.67535,0 -8.46548,-3.79013 -8.46548,-8.46548c0,-4.67535 3.79012,-8.46548 8.46548,-8.46548c4.67535,0 8.46548,3.79012 8.46548,8.46548c0,4.67535 -3.79013,8.46548 -8.46548,8.46548z" fill="none" stroke="#8da7b1" stroke-width="1.5" stroke-linecap="butt"/><path d="M346.78458,143.07405h-3.3072" fill="none" stroke="#a1a1a1" stroke-width="1.5" stroke-linecap="round"/><path d="M343.47739,145.07376h3.30721" fill="none" stroke="#a1a1a1" stroke-width="1.5" stroke-linecap="round"/><path d="M346.7846,147.1504h-3.30721" fill="none" stroke="#a1a1a1" stroke-width="1.5" stroke-linecap="round"/><path d="M343.47739,149.38081h3.30721" fill="none" stroke="#a1a1a1" stroke-width="1.5" stroke-linecap="round"/><path d="M343.40094,134.21002l0.61007,-6.14333h2.85096l0.3461,6.14333c0,0 0.23708,0.51915 -1.81704,0.51915c-1.83782,0 -1.99009,-0.51915 -1.99009,-0.51915z" fill="url(#color-66)" stroke="url(#color-67)" stroke-width="0.5" stroke-linecap="round"/><path d="M342.31518,150.95922h3.17647v4.72897h-3.17647z" fill="url(#color-68)" stroke="none" stroke-width="0" stroke-linecap="butt"/><g fill="none" stroke-width="1.5" stroke-linecap="round"><path d="M347.35419,156.96875v-5.3125" stroke="#666666"/><path d="M346.10418,156.96875v-5.3125" stroke="#797979"/><path d="M345.04168,156.96875v-5.3125" stroke="#808080"/><path d="M342.85418,156.96875v-5.3125" stroke="#666666"/><path d="M343.79168,157.03125v-5.3125" stroke="#797979"/></g></g><g><path d="M195.29717,235.80058c-4.09473,0 -7.41416,-3.33501 -7.41416,-7.44897c0,-4.11396 3.31943,-7.44897 7.41416,-7.44897c4.09473,0 7.41416,3.33502 7.41416,7.44897c0,4.11396 -3.31943,7.44897 -7.41416,7.44897z" fill="#00fffd" stroke="none" stroke-width="NaN" stroke-linecap="butt"/><path d="M194.33645,234.20546h1.62524v8.12623h-1.62524z" fill="#a1a1a1" stroke="#a1a1a1" stroke-width="0.5" stroke-linecap="butt"/><path d="M193.90305,241.97012h2.54622v2.16699h-2.54622z" fill="#a1a1a1" stroke="#a1a1a1" stroke-width="0.5" stroke-linecap="butt"/><path d="M194.17394,231.18934h2.00447v5.58001h-2.00447z" fill="#a1a1a1" stroke="#a1a1a1" stroke-width="0.5" stroke-linecap="butt"/><path d="M194.06558,235.52332h2.22117v0.8668h-2.22117z" fill="url(#color-69)" stroke="none" stroke-width="0" stroke-linecap="butt"/><path d="M194.28228,236.87769h1.78777v2.22117h-1.78777z" fill="url(#color-70)" stroke="none" stroke-width="0" stroke-linecap="butt"/><path d="M194.22811,240.56157h1.84194v1.3002h-1.84194z" fill="url(#color-71)" stroke="none" stroke-width="0" stroke-linecap="butt"/><path d="M195.29717,235.80058c-4.09473,0 -7.41416,-3.33501 -7.41416,-7.44897c0,-4.11396 3.31943,-7.44897 7.41416,-7.44897c4.09473,0 7.41416,3.33502 7.41416,7.44897c0,4.11396 -3.31943,7.44897 -7.41416,7.44897z" fill="url(#color-72)" stroke="none" stroke-width="NaN" stroke-linecap="butt"/><path d="M189.76031,223.76007c0,0 1.7074,-2.73215 5.68009,-2.73979c4.04045,-0.00777 5.42746,2.63835 5.42746,2.63835l-2.13021,3.95612h-6.33993z" fill="url(#color-73)" stroke="#000000" stroke-width="0" stroke-linecap="round"/><path d="M195.29717,234.58238c-3.44116,0 -6.23077,-2.78961 -6.23077,-6.23077c0,-3.44116 2.78961,-6.23077 6.23077,-6.23077c3.44116,0 6.23077,2.78961 6.23077,6.23077c0,3.44116 -2.78961,6.23077 -6.23077,6.23077z" fill="none" stroke="#00c98b" stroke-width="1" stroke-linecap="butt"/><path d="M195.29717,232.64525c-2.37131,0 -4.29364,-1.92234 -4.29364,-4.29364c0,-2.37131 1.92233,-4.29364 4.29364,-4.29364c2.37131,0 4.29364,1.92233 4.29364,4.29364c0,2.37131 -1.92234,4.29364 -4.29364,4.29364z" fill="none" stroke="#575757" stroke-width="1.5" stroke-linecap="butt"/><path d="M185.25503,238.76813c-5.9247,-5.92471 -5.89106,-14.60273 0,-20.4938c5.89106,-5.89106 14.50054,-5.8727 20.37324,0c5.8727,5.8727 5.62215,14.7511 0,20.37325c-5.62214,5.62214 -14.44854,6.04525 -20.37324,0.12055z" data-paper-data="{&quot;index&quot;:null}" fill="url(#color-74)" stroke="none" stroke-width="0" stroke-linecap="butt"/></g><g><path d="M286.29717,235.80058c-4.09473,0 -7.41416,-3.33501 -7.41416,-7.44897c0,-4.11396 3.31943,-7.44897 7.41416,-7.44897c4.09473,0 7.41416,3.33502 7.41416,7.44897c0,4.11396 -3.31943,7.44897 -7.41416,7.44897z" fill="#00fffd" stroke="none" stroke-width="NaN" stroke-linecap="butt"/><path d="M285.33645,234.20546h1.62524v8.12623h-1.62524z" fill="#a1a1a1" stroke="#a1a1a1" stroke-width="0.5" stroke-linecap="butt"/><path d="M284.90305,241.97012h2.54622v2.16699h-2.54622z" fill="#a1a1a1" stroke="#a1a1a1" stroke-width="0.5" stroke-linecap="butt"/><path d="M285.17394,231.18934h2.00447v5.58001h-2.00447z" fill="#a1a1a1" stroke="#a1a1a1" stroke-width="0.5" stroke-linecap="butt"/><path d="M285.06557,235.52332h2.22117v0.8668h-2.22117z" fill="url(#color-75)" stroke="none" stroke-width="0" stroke-linecap="butt"/><path d="M285.28228,236.87769h1.78777v2.22117h-1.78777z" fill="url(#color-76)" stroke="none" stroke-width="0" stroke-linecap="butt"/><path d="M285.22811,240.56157h1.84194v1.3002h-1.84194z" fill="url(#color-77)" stroke="none" stroke-width="0" stroke-linecap="butt"/><path d="M286.29717,235.80058c-4.09473,0 -7.41416,-3.33501 -7.41416,-7.44897c0,-4.11396 3.31943,-7.44897 7.41416,-7.44897c4.09473,0 7.41416,3.33502 7.41416,7.44897c0,4.11396 -3.31943,7.44897 -7.41416,7.44897z" fill="url(#color-78)" stroke="none" stroke-width="NaN" stroke-linecap="butt"/><path d="M280.76031,223.76007c0,0 1.7074,-2.73215 5.68009,-2.73979c4.04045,-0.00777 5.42746,2.63835 5.42746,2.63835l-2.13021,3.95612h-6.33993z" fill="url(#color-79)" stroke="#000000" stroke-width="0" stroke-linecap="round"/><path d="M286.29717,234.58238c-3.44116,0 -6.23077,-2.78961 -6.23077,-6.23077c0,-3.44116 2.78961,-6.23077 6.23077,-6.23077c3.44116,0 6.23077,2.78961 6.23077,6.23077c0,3.44116 -2.78961,6.23077 -6.23077,6.23077z" fill="none" stroke="#00c98b" stroke-width="1" stroke-linecap="butt"/><path d="M286.29717,232.64525c-2.37131,0 -4.29364,-1.92234 -4.29364,-4.29364c0,-2.37131 1.92233,-4.29364 4.29364,-4.29364c2.37131,0 4.29364,1.92233 4.29364,4.29364c0,2.37131 -1.92234,4.29364 -4.29364,4.29364z" fill="none" stroke="#575757" stroke-width="1.5" stroke-linecap="butt"/><path d="M276.25503,238.76813c-5.9247,-5.92471 -5.89106,-14.60273 0,-20.4938c5.89106,-5.89106 14.50054,-5.8727 20.37324,0c5.8727,5.8727 5.62215,14.7511 0,20.37325c-5.62214,5.62214 -14.44854,6.04525 -20.37324,0.12055z" data-paper-data="{&quot;index&quot;:null}" fill="url(#color-80)" stroke="none" stroke-width="0" stroke-linecap="butt"/></g><g><g stroke-linecap="butt"><path d="M238.31891,235.02336h2.7685l0,10.61431h-2.7685z" fill="#a1a1a1" stroke="#a1a1a1" stroke-width="0.5"/><path d="M237.58064,245.1654h4.33734l0,4.94745h-4.33734z" fill="url(#color-81)" stroke="url(#color-82)" stroke-width="0.5"/><path d="M238.04208,231.08377h3.4145v7.28849h-3.4145z" fill="#a1a1a1" stroke="#a1a1a1" stroke-width="0.5"/><path d="M237.85748,236.74473l3.78363,0v1.1322l-3.78363,0z" fill="url(#color-83)" stroke="none" stroke-width="0"/><path d="M238.22663,238.51377l3.04536,0v2.90125h-3.04536z" fill="url(#color-84)" stroke="none" stroke-width="0"/><path d="M238.13436,243.32558h3.13763v1.6983h-3.13763z" fill="url(#color-85)" stroke="none" stroke-width="0"/></g><path d="M229.84654,238.56284c-5.9247,-5.92471 -5.89106,-14.60273 0,-20.4938c5.89106,-5.89106 14.50054,-5.8727 20.37324,0c5.8727,5.8727 5.62215,14.7511 0,20.37325c-5.62214,5.62214 -14.44854,6.04525 -20.37324,0.12055z" data-paper-data="{&quot;index&quot;:null}" fill="url(#color-86)" stroke="none" stroke-width="0" stroke-linecap="butt"/><path d="M239.88868,236.89471c-4.71605,0 -8.53916,-3.84105 -8.53916,-8.57925c0,-4.7382 3.82311,-8.57925 8.53916,-8.57925c4.71605,0 8.53916,3.84107 8.53916,8.57925c0,4.7382 -3.82311,8.57925 -8.53916,8.57925z" fill="#00fffd" stroke="none" stroke-width="NaN" stroke-linecap="butt"/><path d="M239.88868,236.89471c-4.71605,0 -8.53916,-3.84105 -8.53916,-8.57925c0,-4.7382 3.82311,-8.57925 8.53916,-8.57925c4.71605,0 8.53916,3.84107 8.53916,8.57925c0,4.7382 -3.82311,8.57925 -8.53916,8.57925z" fill="url(#color-87)" stroke="none" stroke-width="NaN" stroke-linecap="butt"/><path d="M233.51167,223.02721c0,0 1.96648,-3.14672 6.54197,-3.15552c4.65354,-0.00895 6.251,3.03868 6.251,3.03868l-2.45345,4.55641l-7.30193,0z" fill="url(#color-88)" stroke="#000000" stroke-width="0" stroke-linecap="round"/><path d="M239.88868,235.49166c-3.96331,0 -7.1762,-3.2129 -7.1762,-7.17621c0,-3.96331 3.21289,-7.17621 7.1762,-7.17621c3.96331,0 7.17621,3.2129 7.17621,7.17621c0,3.96331 -3.2129,7.17621 -7.17621,7.17621z" fill="none" stroke="#ff0000" stroke-width="1" stroke-linecap="butt"/><path d="M239.88868,233.2606c-2.73112,0 -4.94514,-2.21403 -4.94514,-4.94514c0,-2.73112 2.21402,-4.94514 4.94514,-4.94514c2.73112,0 4.94514,2.21402 4.94514,4.94514c0,2.73112 -2.21403,4.94514 -4.94514,4.94514z" fill="none" stroke="#575757" stroke-width="1.5" stroke-linecap="butt"/></g></g></g></svg>