<svg version="1.1" xmlns="http://www.w3.org/2000/svg" xmlns:xlink="http://www.w3.org/1999/xlink" width="210.14522" height="14.53629" viewBox="0,0,210.14522,14.53629"><g transform="translate(-125.09784,-172.66038)"><g data-paper-data="{&quot;isPaintingLayer&quot;:true}" fill-rule="nonzero" stroke-linejoin="miter" stroke-miterlimit="10" stroke-dasharray="" stroke-dashoffset="0" style="mix-blend-mode: normal"><g stroke="#ffcc00" stroke-width="0" stroke-linecap="butt"><path d="M126.95284,174.51537c2.47332,-2.47332 6.48336,-2.47332 8.95668,0c2.47332,2.47332 2.47332,6.48336 0,8.95668c-2.47332,2.47332 -6.48336,2.47332 -8.95668,0c-2.47332,-2.47332 -2.47332,-6.48336 0,-8.95668z" fill="#fcc800"/><path d="M126.95284,174.51537c2.47332,-2.47332 6.48336,-2.47332 8.95668,0c2.47332,2.47332 2.47332,6.48336 0,8.95668c-0.17676,0.17676 0.00831,0.01685 0.00831,0.01685l-4.50948,-4.54067l-4.39015,-4.40431c0,0 -0.32595,0.23203 -0.06536,-0.02855z" fill="#ffdb4a"/></g><path d="M144.58194,183.78584v-9.84606h3.137c0.07633,0 0.23661,0.00382 0.48085,0.01145c0.24424,0.00763 0.48086,0.0229 0.70984,0.04579c0.77852,0.09922 1.43874,0.37781 1.98066,0.83577c0.54191,0.45032 0.95025,1.02659 1.22503,1.72879c0.27478,0.7022 0.41217,1.46927 0.41217,2.30122c0,0.83195 -0.13739,1.59903 -0.41217,2.30123c-0.27478,0.7022 -0.68312,1.28228 -1.22503,1.74024c-0.54191,0.45032 -1.20213,0.7251 -1.98066,0.82432c-0.22135,0.03053 -0.45796,0.04961 -0.70984,0.05724c-0.24424,0 -0.40453,0 -0.48085,0zM146.25349,182.22879h1.46545c0.13738,0 0.30912,-0.00382 0.5152,-0.01145c0.21371,-0.00763 0.40453,-0.02671 0.57245,-0.05724c0.45795,-0.08396 0.83194,-0.29004 1.12198,-0.61824c0.29767,-0.3282 0.51521,-0.7251 0.65259,-1.19069c0.13738,-0.47323 0.20608,-0.96934 0.20608,-1.48836c0,-0.53428 -0.07251,-1.03421 -0.21753,-1.4998c-0.13738,-0.47323 -0.35491,-0.86631 -0.65258,-1.17925c-0.29004,-0.32057 -0.66022,-0.52665 -1.11054,-0.61823c-0.16792,-0.03053 -0.35874,-0.04961 -0.57245,-0.05724c-0.20608,-0.00763 -0.37782,-0.01145 -0.5152,-0.01145h-1.46545zM157.51229,183.99192c-0.74799,0 -1.4044,-0.16029 -1.96921,-0.48086c-0.56481,-0.3282 -1.00751,-0.77851 -1.32808,-1.35096c-0.31294,-0.57245 -0.4694,-1.23266 -0.4694,-1.98066c0,-0.80906 0.15265,-1.51125 0.45795,-2.1066c0.31294,-0.59535 0.74419,-1.05712 1.29373,-1.38532c0.54954,-0.3282 1.18687,-0.49231 1.91197,-0.49231c0.77089,0 1.42347,0.17937 1.95775,0.5381c0.53428,0.35873 0.93118,0.8663 1.19069,1.52271c0.25951,0.64877 0.35873,1.41584 0.29767,2.30123h-1.63719v-0.6068c-0.00763,-0.80142 -0.14883,-1.38531 -0.42361,-1.75168c-0.27477,-0.374 -0.71365,-0.561 -1.31662,-0.561c-0.67167,0 -1.17161,0.2099 -1.49981,0.62969c-0.3282,0.41979 -0.4923,1.03039 -0.4923,1.83182c0,0.748 0.1641,1.32808 0.4923,1.74024c0.3282,0.40453 0.80524,0.60679 1.43112,0.60679c0.40452,0 0.75181,-0.08778 1.04185,-0.26333c0.29767,-0.18318 0.52664,-0.4465 0.68693,-0.78997l1.62575,0.4923c-0.28241,0.66404 -0.71746,1.18305 -1.30517,1.55705c-0.58771,0.36637 -1.23648,0.54954 -1.94631,0.54954zM154.97063,180.55725v-1.24794h5.07186v1.24794zM165.23788,183.99192c-0.91591,0 -1.66008,-0.20608 -2.23253,-0.61824c-0.56482,-0.41216 -0.90828,-0.98843 -1.0304,-1.72879l1.68299,-0.26332c0.08396,0.36637 0.27477,0.65641 0.57244,0.87011c0.29767,0.20608 0.67167,0.30912 1.12199,0.30912c0.39689,0 0.7022,-0.07632 0.91591,-0.22897c0.21371,-0.16028 0.32057,-0.37781 0.32057,-0.65259c0,-0.16791 -0.04198,-0.30149 -0.12593,-0.40071c-0.07632,-0.10686 -0.24806,-0.20608 -0.5152,-0.29767c-0.26714,-0.09922 -0.6793,-0.22136 -1.23649,-0.36637c-0.61825,-0.16791 -1.11053,-0.34347 -1.4769,-0.52665c-0.36637,-0.19081 -0.62969,-0.41597 -0.78998,-0.67548c-0.15265,-0.25951 -0.22898,-0.57244 -0.22898,-0.93881c0,-0.46559 0.11831,-0.86631 0.35492,-1.20214c0.24424,-0.34347 0.58008,-0.6068 1.0075,-0.78997c0.43505,-0.19081 0.94644,-0.28623 1.53415,-0.28623c0.58008,0 1.09147,0.0916 1.53415,0.27478c0.44268,0.17555 0.80143,0.42742 1.0762,0.75562c0.27477,0.3282 0.44268,0.71365 0.50375,1.15634l-1.68299,0.29767c-0.03816,-0.31294 -0.17936,-0.561 -0.42361,-0.74418c-0.24424,-0.18318 -0.56864,-0.28621 -0.97316,-0.30911c-0.38927,-0.0229 -0.7022,0.03816 -0.93881,0.18318c-0.2366,0.13738 -0.35491,0.3282 -0.35491,0.57244c0,0.14502 0.04579,0.26714 0.13738,0.36637c0.09922,0.09922 0.29386,0.19844 0.58389,0.29766c0.29004,0.09922 0.72128,0.22517 1.29373,0.37782c0.58771,0.14502 1.05711,0.31676 1.40821,0.5152c0.35874,0.19081 0.61443,0.41978 0.76708,0.68693c0.16029,0.26714 0.24043,0.59535 0.24043,0.98461c0,0.74036 -0.27095,1.32426 -0.81287,1.75168c-0.54192,0.41979 -1.2861,0.62969 -2.23254,0.62969zM174.10563,183.78584c-0.48085,0.09159 -0.95789,0.12976 -1.43111,0.11449c-0.46559,-0.00763 -0.88156,-0.09159 -1.24793,-0.25187c-0.36637,-0.16028 -0.64877,-0.41598 -0.84722,-0.76708c-0.16792,-0.32057 -0.2557,-0.64496 -0.26333,-0.97316c-0.00763,-0.33584 -0.01145,-0.71365 -0.01145,-1.13344v-6.42283h1.6372v6.31979c0,0.29767 0.00382,0.561 0.01145,0.78997c0.00763,0.22135 0.05343,0.40071 0.13739,0.5381c0.16792,0.27478 0.43124,0.42742 0.78997,0.45795c0.35874,0.03053 0.76708,0.01145 1.22503,-0.05724zM168.96507,177.69502v-1.29372h5.14056v1.29372zM175.7085,183.78584v-7.38454h1.45401v1.79748l-0.18318,-0.22898c0.09159,-0.24425 0.21371,-0.4656 0.36636,-0.66404c0.15265,-0.20608 0.33584,-0.37781 0.54955,-0.5152c0.18318,-0.12213 0.38544,-0.21753 0.60679,-0.28622c0.22135,-0.06869 0.44651,-0.11067 0.67548,-0.12594c0.2366,-0.0229 0.46559,-0.01526 0.68694,0.0229v1.5456c-0.22135,-0.06869 -0.47704,-0.09159 -0.76708,-0.06869c-0.2824,0.0229 -0.53811,0.10304 -0.76708,0.24043c-0.22135,0.12213 -0.40452,0.27859 -0.54954,0.4694c-0.14502,0.19081 -0.25188,0.40834 -0.32057,0.65259c-0.06869,0.24425 -0.10304,0.50758 -0.10304,0.78998v3.75523zM184.27753,183.99192c-0.73273,0 -1.37769,-0.1641 -1.93487,-0.4923c-0.54955,-0.33584 -0.97697,-0.79761 -1.28227,-1.38532c-0.29767,-0.58771 -0.4465,-1.25938 -0.4465,-2.01501c0,-0.77853 0.15265,-1.45783 0.45795,-2.0379c0.31294,-0.58771 0.74418,-1.04567 1.29373,-1.37387c0.54955,-0.3282 1.18686,-0.49231 1.91196,-0.49231c0.748,0 1.39677,0.16792 1.94631,0.50376c0.54955,0.3282 0.97697,0.78616 1.28227,1.37387c0.3053,0.58771 0.45796,1.26319 0.45796,2.02645c0,0.76326 -0.15266,1.43875 -0.45796,2.02646c-0.3053,0.58007 -0.73654,1.03803 -1.29373,1.37386c-0.54955,0.3282 -1.1945,0.4923 -1.93486,0.4923zM184.27753,182.44632c0.6564,0 1.14488,-0.21753 1.46545,-0.65259c0.32057,-0.44269 0.48086,-1.00751 0.48086,-1.69444c0,-0.71747 -0.1641,-1.28991 -0.4923,-1.71733c-0.32057,-0.42742 -0.80524,-0.64114 -1.45401,-0.64114c-0.44268,0 -0.80524,0.09923 -1.08765,0.29767c-0.2824,0.19844 -0.49231,0.47704 -0.62969,0.83577c-0.13739,0.3511 -0.20607,0.75944 -0.20607,1.22503c0,0.70983 0.16028,1.27847 0.48085,1.70589c0.3282,0.42742 0.80906,0.64114 1.44257,0.64114zM190.16226,187.07167l1.43111,-3.90407l0.02289,1.14489l-3.21714,-7.91119h1.71733l2.27834,5.85039h-0.43506l2.22109,-5.85039h1.64864l-4.1216,10.67037zM201.28877,183.78584v-8.04858l-1.84327,1.13344v-1.82037l1.84327,-1.11055h1.68299v9.84606zM209.10807,183.99192c-0.7022,0 -1.32045,-0.14883 -1.85473,-0.44651c-0.52665,-0.29767 -0.93881,-0.71365 -1.23648,-1.24793c-0.29767,-0.53428 -0.44651,-1.14871 -0.44651,-1.84327v-3.17135c0,-0.7022 0.14884,-1.31662 0.44651,-1.84327c0.29767,-0.53428 0.70983,-0.95026 1.23648,-1.24793c0.53428,-0.30531 1.15252,-0.45796 1.85473,-0.45796c0.69456,0 1.30517,0.15265 1.83182,0.45796c0.53428,0.29767 0.95026,0.71365 1.24793,1.24793c0.30531,0.52665 0.45796,1.14107 0.45796,1.84327v3.17135c0,0.69457 -0.15265,1.30899 -0.45796,1.84327c-0.29767,0.53428 -0.71365,0.95026 -1.24793,1.24793c-0.52665,0.29767 -1.13725,0.44651 -1.83182,0.44651zM209.10807,182.42342c0.34347,0 0.65641,-0.08015 0.93881,-0.24043c0.2824,-0.16791 0.50375,-0.39308 0.66403,-0.67548c0.16791,-0.28241 0.25187,-0.59534 0.25187,-0.93881v-3.41177c0,-0.3511 -0.08396,-0.66404 -0.25187,-0.93881c-0.16029,-0.28241 -0.38163,-0.50757 -0.66403,-0.67549c-0.2824,-0.16791 -0.59534,-0.25188 -0.93881,-0.25188c-0.3511,0 -0.66786,0.08396 -0.95026,0.25188c-0.2824,0.16791 -0.50757,0.39308 -0.67549,0.67549c-0.16029,0.27478 -0.24043,0.58771 -0.24043,0.93881v3.41177c0,0.34347 0.08014,0.6564 0.24043,0.93881c0.16791,0.28241 0.39308,0.50757 0.67549,0.67548c0.2824,0.16028 0.59916,0.24043 0.95026,0.24043zM218.10291,183.99192c-0.7022,0 -1.32044,-0.14883 -1.85472,-0.44651c-0.52665,-0.29767 -0.93881,-0.71365 -1.23648,-1.24793c-0.29767,-0.53428 -0.44651,-1.14871 -0.44651,-1.84327v-3.17135c0,-0.7022 0.14884,-1.31662 0.44651,-1.84327c0.29767,-0.53428 0.70983,-0.95026 1.23648,-1.24793c0.53428,-0.30531 1.15252,-0.45796 1.85472,-0.45796c0.69456,0 1.30518,0.15265 1.83183,0.45796c0.53428,0.29767 0.95026,0.71365 1.24793,1.24793c0.30531,0.52665 0.45796,1.14107 0.45796,1.84327v3.17135c0,0.69457 -0.15265,1.30899 -0.45796,1.84327c-0.29767,0.53428 -0.71365,0.95026 -1.24793,1.24793c-0.52665,0.29767 -1.13726,0.44651 -1.83183,0.44651zM218.10291,182.42342c0.34347,0 0.65641,-0.08015 0.93882,-0.24043c0.2824,-0.16791 0.50375,-0.39308 0.66403,-0.67548c0.16791,-0.28241 0.25187,-0.59534 0.25187,-0.93881v-3.41177c0,-0.3511 -0.08396,-0.66404 -0.25187,-0.93881c-0.16029,-0.28241 -0.38163,-0.50757 -0.66403,-0.67549c-0.2824,-0.16791 -0.59535,-0.25188 -0.93882,-0.25188c-0.3511,0 -0.66785,0.08396 -0.95025,0.25188c-0.2824,0.16791 -0.50757,0.39308 -0.67549,0.67549c-0.16029,0.27478 -0.24042,0.58771 -0.24042,0.93881v3.41177c0,0.34347 0.08014,0.6564 0.24042,0.93881c0.16791,0.28241 0.39308,0.50757 0.67549,0.67548c0.2824,0.16028 0.59915,0.24043 0.95025,0.24043zM224.92248,183.78584l-1.09909,-1.0991l8.7584,-8.74696l1.09909,1.0991zM231.63154,183.99192c-0.45033,0 -0.86249,-0.11067 -1.23649,-0.33202c-0.374,-0.22135 -0.67167,-0.5152 -0.89302,-0.88156c-0.22135,-0.374 -0.33201,-0.78997 -0.33201,-1.24793c0,-0.45032 0.11066,-0.85866 0.33201,-1.22503c0.22898,-0.374 0.53046,-0.67166 0.90446,-0.89301c0.374,-0.22897 0.78236,-0.34347 1.22504,-0.34347c0.45033,0 0.86248,0.11067 1.23648,0.33202c0.374,0.22135 0.67166,0.51901 0.89301,0.89301c0.22135,0.36637 0.33201,0.77853 0.33201,1.23648c0,0.45795 -0.11066,0.87393 -0.33201,1.24793c-0.22135,0.36637 -0.51901,0.66021 -0.89301,0.88156c-0.374,0.22135 -0.78615,0.33202 -1.23648,0.33202zM231.63154,182.5837c0.18318,0 0.35491,-0.0458 0.5152,-0.13739c0.16791,-0.09922 0.29767,-0.22898 0.38926,-0.38926c0.09923,-0.16028 0.14884,-0.33584 0.14884,-0.52665c0,-0.19081 -0.04961,-0.36637 -0.14884,-0.52665c-0.09159,-0.16028 -0.22135,-0.28623 -0.38926,-0.37782c-0.16029,-0.09922 -0.33202,-0.14883 -0.5152,-0.14883c-0.19081,0 -0.36637,0.0496 -0.52665,0.14883c-0.16029,0.09159 -0.29004,0.21753 -0.38927,0.37782c-0.09923,0.16028 -0.14883,0.33584 -0.14883,0.52665c0,0.19081 0.04961,0.36637 0.14883,0.52665c0.09923,0.16028 0.22898,0.29004 0.38927,0.38926c0.16029,0.09159 0.33584,0.13739 0.52665,0.13739zM225.88419,178.65673c-0.45795,0 -0.87393,-0.11067 -1.24793,-0.33202c-0.36637,-0.22135 -0.66021,-0.5152 -0.88156,-0.88156c-0.22135,-0.374 -0.33201,-0.78998 -0.33201,-1.24794c0,-0.44269 0.11066,-0.85102 0.33201,-1.22502c0.22898,-0.374 0.53046,-0.67166 0.90446,-0.89301c0.374,-0.22897 0.78235,-0.34347 1.22503,-0.34347c0.45033,0 0.85866,0.11068 1.22503,0.33203c0.374,0.22135 0.67167,0.51901 0.89302,0.89301c0.22135,0.374 0.33201,0.78615 0.33201,1.23647c0,0.45795 -0.11066,0.87394 -0.33201,1.24794c-0.22135,0.36637 -0.51902,0.66021 -0.89302,0.88156c-0.36637,0.22135 -0.7747,0.33202 -1.22503,0.33202zM225.88419,177.24851c0.19081,0 0.36255,-0.04579 0.5152,-0.13738c0.16029,-0.09922 0.28623,-0.22898 0.37781,-0.38926c0.09923,-0.16028 0.14884,-0.33585 0.14884,-0.52666c0,-0.19081 -0.04961,-0.36636 -0.14884,-0.52665c-0.09159,-0.16028 -0.21753,-0.28623 -0.37781,-0.37781c-0.15265,-0.09922 -0.32439,-0.14883 -0.5152,-0.14883c-0.19845,0 -0.37781,0.04961 -0.53809,0.14883c-0.15265,0.09159 -0.27859,0.21753 -0.37781,0.37781c-0.09159,0.16028 -0.13739,0.33584 -0.13739,0.52665c0,0.19081 0.0458,0.36637 0.13739,0.52666c0.09923,0.16028 0.22517,0.29004 0.37781,0.38926c0.16029,0.09159 0.33965,0.13738 0.53809,0.13738zM241.85536,183.99192c-0.73273,0 -1.37769,-0.1641 -1.93487,-0.4923c-0.54954,-0.33584 -0.97697,-0.79761 -1.28227,-1.38532c-0.29767,-0.58771 -0.44651,-1.25938 -0.44651,-2.01501c0,-0.77853 0.15265,-1.45783 0.45796,-2.0379c0.31294,-0.58771 0.74418,-1.04567 1.29372,-1.37387c0.54954,-0.3282 1.18687,-0.49231 1.91197,-0.49231c0.748,0 1.39676,0.16792 1.94631,0.50376c0.54954,0.3282 0.97697,0.78616 1.28227,1.37387c0.30531,0.58771 0.45795,1.26319 0.45795,2.02645c0,0.76326 -0.15265,1.43875 -0.45795,2.02646c-0.30531,0.58007 -0.73655,1.03803 -1.29373,1.37386c-0.54954,0.3282 -1.1945,0.4923 -1.93485,0.4923zM241.85536,182.44632c0.65641,0 1.14488,-0.21753 1.46545,-0.65259c0.32057,-0.44269 0.48086,-1.00751 0.48086,-1.69444c0,-0.71747 -0.1641,-1.28991 -0.4923,-1.71733c-0.32057,-0.42742 -0.80524,-0.64114 -1.45401,-0.64114c-0.44268,0 -0.80524,0.09923 -1.08765,0.29767c-0.2824,0.19844 -0.49231,0.47704 -0.62969,0.83577c-0.13738,0.3511 -0.20608,0.75944 -0.20608,1.22503c0,0.70983 0.16028,1.27847 0.48085,1.70589c0.3282,0.42742 0.80907,0.64114 1.44257,0.64114zM247.69306,183.78584v-7.49903c0,-0.18318 0.00382,-0.38545 0.01145,-0.6068c0.01527,-0.22897 0.05342,-0.45413 0.11449,-0.67548c0.0687,-0.22897 0.187,-0.43507 0.35492,-0.61825c0.21371,-0.22897 0.43888,-0.38926 0.67548,-0.48085c0.24425,-0.09159 0.48468,-0.1412 0.72128,-0.14883c0.24425,-0.01527 0.45414,-0.0229 0.62969,-0.0229h0.91591v1.33953h-0.84721c-0.31294,0 -0.54574,0.08014 -0.69839,0.24043c-0.15265,0.16028 -0.22898,0.36636 -0.22898,0.61823v7.85395zM246.50238,177.69502v-1.29372h4.61391v1.29372zM259.26941,183.78584c-0.48085,0.09159 -0.95788,0.12976 -1.43111,0.11449c-0.46559,-0.00763 -0.88156,-0.09159 -1.24793,-0.25187c-0.36637,-0.16028 -0.64877,-0.41598 -0.84722,-0.76708c-0.16791,-0.32057 -0.25569,-0.64496 -0.26332,-0.97316c-0.00763,-0.33584 -0.01145,-0.71365 -0.01145,-1.13344v-6.42283h1.63719v6.31979c0,0.29767 0.00381,0.561 0.01144,0.78997c0.00763,0.22135 0.05344,0.40071 0.13739,0.5381c0.16791,0.27478 0.43124,0.42742 0.78997,0.45795c0.35873,0.03053 0.76708,0.01145 1.22503,-0.05724zM254.12887,177.69502v-1.29372h5.14055v1.29372zM265.97848,183.78584v-3.54916c0,-0.2366 -0.01907,-0.49612 -0.05724,-0.77853c-0.03053,-0.28241 -0.10304,-0.55337 -0.21753,-0.81288c-0.1145,-0.26714 -0.29005,-0.48467 -0.52666,-0.65258c-0.22897,-0.16791 -0.53809,-0.25188 -0.92735,-0.25188c-0.20608,0 -0.41217,0.03435 -0.61825,0.10305c-0.20608,0.06869 -0.39308,0.187 -0.561,0.35492c-0.16791,0.16791 -0.30149,0.39689 -0.40071,0.68693c-0.09922,0.29004 -0.14883,0.66022 -0.14883,1.11054l-0.97315,-0.42361c0,-0.62588 0.12212,-1.1945 0.36637,-1.70588c0.24425,-0.51138 0.60297,-0.91591 1.07619,-1.21358c0.47323,-0.30531 1.0533,-0.45796 1.74023,-0.45796c0.54954,0 0.99987,0.0916 1.35097,0.27478c0.35873,0.17555 0.64114,0.40834 0.84722,0.69838c0.21371,0.28241 0.37018,0.58389 0.4694,0.90446c0.09922,0.31294 0.1641,0.61443 0.19463,0.90447c0.03053,0.28241 0.04579,0.51138 0.04579,0.68693v4.12161zM260.84939,183.78584v-9.84606h1.4769v5.18635h0.19464v4.6597zM272.77738,183.99192c-0.748,0 -1.4044,-0.16029 -1.96921,-0.48086c-0.56482,-0.3282 -1.0075,-0.77851 -1.32807,-1.35096c-0.31294,-0.57245 -0.46941,-1.23266 -0.46941,-1.98066c0,-0.80906 0.15266,-1.51125 0.45796,-2.1066c0.31294,-0.59535 0.74418,-1.05712 1.29372,-1.38532c0.54954,-0.3282 1.18686,-0.49231 1.91196,-0.49231c0.77089,0 1.42349,0.17937 1.95777,0.5381c0.53428,0.35873 0.93117,0.8663 1.19068,1.52271c0.25951,0.64877 0.35874,1.41584 0.29767,2.30123h-1.63719v-0.6068c-0.00763,-0.80142 -0.14883,-1.38531 -0.42361,-1.75168c-0.27478,-0.374 -0.71365,-0.561 -1.31662,-0.561c-0.67166,0 -1.17161,0.2099 -1.49981,0.62969c-0.3282,0.41979 -0.4923,1.03039 -0.4923,1.83182c0,0.748 0.1641,1.32808 0.4923,1.74024c0.3282,0.40453 0.80523,0.60679 1.43111,0.60679c0.40453,0 0.75181,-0.08778 1.04185,-0.26333c0.29767,-0.18318 0.52665,-0.4465 0.68694,-0.78997l1.62574,0.4923c-0.28241,0.66404 -0.71746,1.18305 -1.30517,1.55705c-0.58771,0.36637 -1.23648,0.54954 -1.94631,0.54954zM270.23572,180.55725v-1.24794h5.07185v1.24794zM283.7407,183.99192c-0.748,0 -1.40439,-0.16029 -1.96921,-0.48086c-0.56482,-0.3282 -1.0075,-0.77851 -1.32807,-1.35096c-0.31294,-0.57245 -0.4694,-1.23266 -0.4694,-1.98066c0,-0.80906 0.15265,-1.51125 0.45795,-2.1066c0.31294,-0.59535 0.74418,-1.05712 1.29372,-1.38532c0.54954,-0.3282 1.18687,-0.49231 1.91197,-0.49231c0.77089,0 1.42348,0.17937 1.95776,0.5381c0.53428,0.35873 0.93118,0.8663 1.19069,1.52271c0.25951,0.64877 0.35873,1.41584 0.29766,2.30123h-1.63719v-0.6068c-0.00763,-0.80142 -0.14883,-1.38531 -0.42361,-1.75168c-0.27478,-0.374 -0.71365,-0.561 -1.31662,-0.561c-0.67166,0 -1.1716,0.2099 -1.49981,0.62969c-0.3282,0.41979 -0.4923,1.03039 -0.4923,1.83182c0,0.748 0.1641,1.32808 0.4923,1.74024c0.3282,0.40453 0.80524,0.60679 1.43112,0.60679c0.40453,0 0.75181,-0.08778 1.04185,-0.26333c0.29767,-0.18318 0.52665,-0.4465 0.68693,-0.78997l1.62574,0.4923c-0.28241,0.66404 -0.71746,1.18305 -1.30517,1.55705c-0.58771,0.36637 -1.23648,0.54954 -1.94631,0.54954zM281.19903,180.55725v-1.24794h5.07186v1.24794zM293.51654,183.78584v-3.54916c0,-0.2366 -0.01908,-0.49612 -0.05724,-0.77853c-0.03053,-0.28241 -0.10303,-0.55337 -0.21752,-0.81288c-0.1145,-0.26714 -0.29005,-0.48467 -0.52665,-0.65258c-0.22897,-0.16791 -0.5381,-0.25188 -0.92736,-0.25188c-0.20608,0 -0.41216,0.03435 -0.61823,0.10305c-0.20608,0.06869 -0.39309,0.187 -0.561,0.35492c-0.16791,0.16791 -0.30149,0.39689 -0.40071,0.68693c-0.09922,0.29004 -0.14883,0.66022 -0.14883,1.11054l-0.97316,-0.42361c0,-0.62588 0.12212,-1.1945 0.36636,-1.70588c0.24425,-0.51138 0.60297,-0.91591 1.0762,-1.21358c0.47323,-0.30531 1.0533,-0.45796 1.74023,-0.45796c0.54954,0 0.99987,0.0916 1.35097,0.27478c0.35873,0.17555 0.64114,0.40834 0.84722,0.69838c0.21371,0.28241 0.37019,0.58389 0.46941,0.90446c0.09922,0.31294 0.1641,0.61443 0.19463,0.90447c0.03053,0.28241 0.0458,0.51138 0.0458,0.68693v4.12161zM288.38743,183.78584v-7.38454h1.47691v2.28978h0.19463v5.09476zM300.19921,183.99192c-0.748,0 -1.40439,-0.16029 -1.96921,-0.48086c-0.56482,-0.3282 -1.0075,-0.77851 -1.32807,-1.35096c-0.31294,-0.57245 -0.4694,-1.23266 -0.4694,-1.98066c0,-0.80906 0.15265,-1.51125 0.45795,-2.1066c0.31294,-0.59535 0.74418,-1.05712 1.29372,-1.38532c0.54954,-0.3282 1.18687,-0.49231 1.91197,-0.49231c0.77089,0 1.42348,0.17937 1.95776,0.5381c0.53428,0.35873 0.93118,0.8663 1.19069,1.52271c0.25951,0.64877 0.35873,1.41584 0.29766,2.30123h-1.63718v-0.6068c-0.00763,-0.80142 -0.14884,-1.38531 -0.42362,-1.75168c-0.27478,-0.374 -0.71365,-0.561 -1.31662,-0.561c-0.67166,0 -1.1716,0.2099 -1.49981,0.62969c-0.3282,0.41979 -0.4923,1.03039 -0.4923,1.83182c0,0.748 0.1641,1.32808 0.4923,1.74024c0.3282,0.40453 0.80524,0.60679 1.43112,0.60679c0.40453,0 0.7518,-0.08778 1.04184,-0.26333c0.29767,-0.18318 0.52665,-0.4465 0.68693,-0.78997l1.62575,0.4923c-0.28241,0.66404 -0.71747,1.18305 -1.30517,1.55705c-0.58771,0.36637 -1.23648,0.54954 -1.94631,0.54954zM297.65755,180.55725v-1.24794h5.07186v1.24794zM313.73028,183.78584v-4.48798c0,-0.50375 -0.12593,-0.89682 -0.37781,-1.17923c-0.25188,-0.29004 -0.59153,-0.43506 -1.01896,-0.43506c-0.26714,0 -0.50375,0.06106 -0.70983,0.18319c-0.20608,0.12213 -0.374,0.30149 -0.50375,0.53809c-0.12213,0.2366 -0.18318,0.5152 -0.18318,0.83577l-0.73273,-0.43506c0,-0.50375 0.1145,-0.95025 0.34347,-1.33952c0.2366,-0.39689 0.55336,-0.7022 0.95025,-0.91591c0.40453,-0.22135 0.85485,-0.33202 1.35097,-0.33202c0.81669,0 1.44257,0.24424 1.87762,0.73273c0.43506,0.48848 0.65259,1.13344 0.65259,1.93487v4.90013zM304.84594,183.78584v-7.38454h1.46546v2.28978h0.19464v5.09476zM309.29956,183.78584v-4.46508c0,-0.51138 -0.12593,-0.91209 -0.37781,-1.20213c-0.25188,-0.29004 -0.59153,-0.43506 -1.01895,-0.43506c-0.41979,0 -0.75944,0.14502 -1.01895,0.43506c-0.25188,0.29004 -0.37781,0.66403 -0.37781,1.12199l-0.73273,-0.4923c0,-0.48085 0.11831,-0.91209 0.35491,-1.29372c0.2366,-0.38163 0.55719,-0.68311 0.96171,-0.90446c0.40453,-0.22135 0.85485,-0.33202 1.35097,-0.33202c0.55718,0 1.01895,0.11831 1.38532,0.35492c0.374,0.2366 0.65259,0.55718 0.83577,0.9617c0.18318,0.39689 0.27477,0.85104 0.27477,1.36242v4.88868zM317.29554,175.2793v-1.51125h1.63719v1.51125zM317.29554,183.78584v-7.38454h1.63719v7.38454zM324.34712,183.99192c-0.748,0 -1.40439,-0.16029 -1.96921,-0.48086c-0.56482,-0.3282 -1.0075,-0.77851 -1.32807,-1.35096c-0.31294,-0.57245 -0.46941,-1.23266 -0.46941,-1.98066c0,-0.80906 0.15266,-1.51125 0.45796,-2.1066c0.31294,-0.59535 0.74418,-1.05712 1.29372,-1.38532c0.54954,-0.3282 1.18686,-0.49231 1.91196,-0.49231c0.77089,0 1.42348,0.17937 1.95776,0.5381c0.53428,0.35873 0.93118,0.8663 1.19069,1.52271c0.25951,0.64877 0.35874,1.41584 0.29767,2.30123h-1.63719v-0.6068c-0.00763,-0.80142 -0.14883,-1.38531 -0.42361,-1.75168c-0.27478,-0.374 -0.71365,-0.561 -1.31662,-0.561c-0.67166,0 -1.1716,0.2099 -1.49981,0.62969c-0.3282,0.41979 -0.4923,1.03039 -0.4923,1.83182c0,0.748 0.1641,1.32808 0.4923,1.74024c0.3282,0.40453 0.80523,0.60679 1.43111,0.60679c0.40453,0 0.75181,-0.08778 1.04185,-0.26333c0.29767,-0.18318 0.52665,-0.4465 0.68694,-0.78997l1.62574,0.4923c-0.28241,0.66404 -0.71747,1.18305 -1.30518,1.55705c-0.58771,0.36637 -1.23648,0.54954 -1.94631,0.54954zM321.80547,180.55725v-1.24794h5.07186v1.24794zM332.07267,183.99192c-0.91591,0 -1.66009,-0.20608 -2.23254,-0.61824c-0.56482,-0.41216 -0.90828,-0.98843 -1.0304,-1.72879l1.68299,-0.26332c0.08396,0.36637 0.27478,0.65641 0.57245,0.87011c0.29767,0.20608 0.67166,0.30912 1.12199,0.30912c0.39689,0 0.7022,-0.07632 0.91591,-0.22897c0.21371,-0.16028 0.32057,-0.37781 0.32057,-0.65259c0,-0.16791 -0.04198,-0.30149 -0.12594,-0.40071c-0.07632,-0.10686 -0.24806,-0.20608 -0.5152,-0.29767c-0.26714,-0.09922 -0.6793,-0.22136 -1.23648,-0.36637c-0.61825,-0.16791 -1.11054,-0.34347 -1.47691,-0.52665c-0.36637,-0.19081 -0.62969,-0.41597 -0.78997,-0.67548c-0.15265,-0.25951 -0.22897,-0.57244 -0.22897,-0.93881c0,-0.46559 0.11831,-0.86631 0.35492,-1.20214c0.24425,-0.34347 0.58008,-0.6068 1.00751,-0.78997c0.43506,-0.19081 0.94644,-0.28623 1.53415,-0.28623c0.58007,0 1.09147,0.0916 1.53415,0.27478c0.44269,0.17555 0.80141,0.42742 1.07619,0.75562c0.27478,0.3282 0.44269,0.71365 0.50376,1.15634l-1.68299,0.29767c-0.03816,-0.31294 -0.17937,-0.561 -0.42362,-0.74418c-0.24425,-0.18318 -0.56862,-0.28621 -0.97315,-0.30911c-0.38926,-0.0229 -0.70221,0.03816 -0.93881,0.18318c-0.2366,0.13738 -0.35492,0.3282 -0.35492,0.57244c0,0.14502 0.0458,0.26714 0.13739,0.36637c0.09922,0.09922 0.29385,0.19844 0.58389,0.29766c0.29004,0.09922 0.72127,0.22517 1.29372,0.37782c0.58771,0.14502 1.05711,0.31676 1.40821,0.5152c0.35873,0.19081 0.61443,0.41978 0.76708,0.68693c0.16028,0.26714 0.24042,0.59535 0.24042,0.98461c0,0.74036 -0.27096,1.32426 -0.81287,1.75168c-0.54191,0.41979 -1.28609,0.62969 -2.23253,0.62969z" fill="#01ebfc" stroke="#01ebfc" stroke-width="0.25" stroke-linecap="square"/></g></g></svg>