<svg version="1.1" xmlns="http://www.w3.org/2000/svg" xmlns:xlink="http://www.w3.org/1999/xlink" width="65.83731" height="64.97344" viewBox="0,0,65.83731,64.97344"><defs><linearGradient x1="1653.97701" y1="827.7401" x2="217.28844" y2="827.7401" gradientUnits="userSpaceOnUse" id="color-1"><stop offset="0" stop-color="#ffffff"/><stop offset="1" stop-color="#ffffff" stop-opacity="0"/></linearGradient><radialGradient cx="249.54611" cy="169.43936" r="14.68662" gradientUnits="userSpaceOnUse" id="color-2"><stop offset="0" stop-color="#8c9aa1"/><stop offset="1" stop-color="#7f959e"/></radialGradient><linearGradient x1="253.94279" y1="180.40532" x2="255.65181" y2="180.40532" gradientUnits="userSpaceOnUse" id="color-3"><stop offset="0" stop-color="#898989"/><stop offset="1" stop-color="#a1a1a1"/></linearGradient><linearGradient x1="256.61313" y1="180.40532" x2="260.99244" y2="180.40532" gradientUnits="userSpaceOnUse" id="color-4"><stop offset="0" stop-color="#898989"/><stop offset="1" stop-color="#a1a1a1"/></linearGradient><linearGradient x1="263.87639" y1="180.4587" x2="266.43989" y2="180.4587" gradientUnits="userSpaceOnUse" id="color-5"><stop offset="0" stop-color="#a1a1a1"/><stop offset="1" stop-color="#898989"/></linearGradient><linearGradient x1="243.5667" y1="180.19137" x2="250.22918" y2="180.19137" gradientUnits="userSpaceOnUse" id="color-6"><stop offset="0" stop-color="#505a5e"/><stop offset="1" stop-color="#5d6b71"/></linearGradient><linearGradient x1="243.5667" y1="180.19137" x2="250.22919" y2="180.19137" gradientUnits="userSpaceOnUse" id="color-7"><stop offset="0" stop-color="#576266"/><stop offset="1" stop-color="#607178"/></linearGradient><linearGradient x1="268.82369" y1="180.00837" x2="268.82369" y2="183.18486" gradientUnits="userSpaceOnUse" id="color-8"><stop offset="0" stop-color="#b7b7b7" stop-opacity="0"/><stop offset="1" stop-color="#b7b7b7"/></linearGradient></defs><g transform="translate(-207.44393,-147.51328)"><g data-paper-data="{&quot;isPaintingLayer&quot;:true}" fill-rule="nonzero" stroke-linejoin="miter" stroke-miterlimit="10" stroke-dasharray="" stroke-dashoffset="0" style="mix-blend-mode: normal"><g><path d="M263.0223,202.5987c-13.22155,13.22153 -32.58738,13.14648 -45.73386,0c-13.14648,-13.14646 -13.10551,-32.35933 0,-45.46482c13.10551,-13.10551 32.91846,-12.54636 45.46482,0c12.54636,12.54636 13.49055,32.24329 0.26902,45.46482z" data-paper-data="{&quot;index&quot;:null}" fill="url(#color-1)" stroke="none" stroke-width="0" stroke-linecap="butt"/><path d="M251.34446,182.06094v-3.20438h16.02192v3.20438z" fill="#a1a1a1" stroke="#a1a1a1" stroke-width="0.5" stroke-linecap="butt"/><path d="M266.65352,182.91544v-5.0202h4.27251v5.0202z" fill="#a1a1a1" stroke="#a1a1a1" stroke-width="0.5" stroke-linecap="butt"/><path d="M245.39779,182.38134v-3.95208h11.00172v3.95208z" fill="#a1a1a1" stroke="#a1a1a1" stroke-width="0.5" stroke-linecap="butt"/><path d="M254.48944,180.16671c0,8.0733 -6.57542,14.61799 -14.68662,14.61799c-8.1112,0 -14.68662,-6.5447 -14.68662,-14.61799c0,-8.0733 6.57543,-14.61799 14.68662,-14.61799c8.1112,0 14.68662,6.5447 14.68662,14.61799z" fill="url(#color-2)" stroke="none" stroke-width="NaN" stroke-linecap="butt"/><path d="M253.94279,182.59498v-4.37933h1.70901v4.37933z" fill="url(#color-3)" stroke="none" stroke-width="0" stroke-linecap="butt"/><path d="M256.61313,182.16773v-3.52482h4.37933v3.52482z" fill="url(#color-4)" stroke="none" stroke-width="0" stroke-linecap="butt"/><path d="M263.87639,182.27454v-3.63163h2.56351v3.63163z" fill="url(#color-5)" stroke="none" stroke-width="0" stroke-linecap="butt"/><path d="M230.75002,191.08337c0,0 -5.38679,-3.36637 -5.40185,-11.19905c-0.01531,-7.96627 5.20185,-10.70094 5.20185,-10.70094l7.8,4.2v12.5l-7.6,5.2z" fill="#768c94" stroke="#000000" stroke-width="0" stroke-linecap="round"/><path d="M252.08762,180.16671c0,6.7847 -5.50009,12.28479 -12.28478,12.28479c-6.7847,0 -12.28479,-5.50009 -12.28479,-12.28478c0,-6.7847 5.50009,-12.28478 12.28479,-12.28478c6.7847,0 12.28479,5.50009 12.28479,12.28479z" fill="none" stroke="#46f3ff" stroke-width="1.5" stroke-linecap="butt"/><path d="M248.26832,180.16671c0,4.67535 -3.79013,8.46548 -8.46548,8.46548c-4.67535,0 -8.46548,-3.79012 -8.46548,-8.46548c0,-4.67535 3.79012,-8.46548 8.46548,-8.46548c4.67535,0 8.46548,3.79013 8.46548,8.46548z" fill="none" stroke="#8da7b1" stroke-width="1.5" stroke-linecap="butt"/><path d="M258.57405,178.71546v3.3072" fill="none" stroke="#a1a1a1" stroke-width="1.5" stroke-linecap="round"/><path d="M260.57376,182.02265v-3.30721" fill="none" stroke="#a1a1a1" stroke-width="1.5" stroke-linecap="round"/><path d="M262.6504,182.02265v-3.30721" fill="none" stroke="#a1a1a1" stroke-width="1.5" stroke-linecap="round"/><path d="M264.88083,182.02265v-3.30721" fill="none" stroke="#a1a1a1" stroke-width="1.5" stroke-linecap="round"/><path d="M249.71003,182.09909l-6.14333,-0.61007v-2.85096l6.14333,-0.3461c0,0 0.51915,-0.23708 0.51915,1.81704c0,1.83782 -0.51915,1.99009 -0.51915,1.99009z" fill="url(#color-6)" stroke="url(#color-7)" stroke-width="0.5" stroke-linecap="round"/><path d="M266.45921,183.18486v-3.17647h4.72897v3.17647z" fill="url(#color-8)" stroke="none" stroke-width="0" stroke-linecap="butt"/><g fill="none" stroke-width="1.5" stroke-linecap="round"><path d="M272.46875,178.14584h-5.3125" stroke="#666666"/><path d="M272.46875,179.39585h-5.3125" stroke="#797979"/><path d="M267.15625,180.45835h5.3125" stroke="#808080"/><path d="M272.46875,182.64585h-5.3125" stroke="#666666"/><path d="M272.53125,181.70835h-5.3125" stroke="#797979"/></g></g></g></g></svg>