<svg version="1.1" xmlns="http://www.w3.org/2000/svg" xmlns:xlink="http://www.w3.org/1999/xlink" width="483.48348" height="364.86487" viewBox="0,0,483.48348,364.86487"><defs><linearGradient x1="244.99908" y1="155.83236" x2="245.37047" y2="204.1688" gradientUnits="userSpaceOnUse" id="color-1"><stop offset="0" stop-color="#1d1d1d"/><stop offset="1" stop-color="#050505"/></linearGradient><linearGradient x1="244.99908" y1="155.83236" x2="245.37047" y2="204.1688" gradientUnits="userSpaceOnUse" id="color-2"><stop offset="0" stop-color="#141414"/><stop offset="1" stop-color="#050505"/></linearGradient><linearGradient x1="202.15428" y1="156.07546" x2="202.52609" y2="204.46631" gradientUnits="userSpaceOnUse" id="color-3"><stop offset="0" stop-color="#2f2f2f"/><stop offset="1" stop-color="#050505"/></linearGradient><linearGradient x1="202.15428" y1="156.07546" x2="202.52609" y2="204.46631" gradientUnits="userSpaceOnUse" id="color-4"><stop offset="0" stop-color="#1a1a1a"/><stop offset="1" stop-color="#0c0c0c"/></linearGradient><linearGradient x1="224.62554" y1="156.28388" x2="224.98856" y2="203.53163" gradientUnits="userSpaceOnUse" id="color-5"><stop offset="0" stop-color="#141414"/><stop offset="1" stop-color="#050505"/></linearGradient><linearGradient x1="243.29603" y1="156.14042" x2="243.65905" y2="203.38817" gradientUnits="userSpaceOnUse" id="color-6"><stop offset="0" stop-color="#141414"/><stop offset="1" stop-color="#050505"/></linearGradient><linearGradient x1="262.96942" y1="156.37029" x2="263.33244" y2="203.61804" gradientUnits="userSpaceOnUse" id="color-7"><stop offset="0" stop-color="#141414"/><stop offset="1" stop-color="#050505"/></linearGradient></defs><g transform="translate(0.99099,3.43343)"><g data-paper-data="{&quot;isPaintingLayer&quot;:true}" fill-rule="nonzero" stroke-linejoin="miter" stroke-miterlimit="10" stroke-dasharray="" stroke-dashoffset="0" style="mix-blend-mode: normal"><path d="M-0.99099,361.43143v-364.86486h483.48348v364.86487z" fill="none" stroke="#000000" stroke-width="0" stroke-linecap="butt"/><g><g data-paper-data="{&quot;index&quot;:null}" stroke-width="5"><path d="M285.02459,179.04126c0.11624,15.12936 -5.90575,24.86824 -5.90575,24.86824l-73.5933,0.56545c0,0 4.27829,-9.96732 4.1639,-24.85486c-0.11607,-15.10637 -4.53529,-23.48159 -4.53529,-23.48159l73.5933,-0.56545c0,0 6.15922,8.12105 6.27714,23.4682z" fill="url(#color-1)" stroke="url(#color-2)" stroke-linecap="round"/><path d="M194.96814,180.32753c-0.10267,-13.36276 3.11466,-24.22079 7.18614,-24.25207c4.07148,-0.03128 7.45527,10.77602 7.55795,24.13878c0.10267,13.36276 -3.11466,24.22079 -7.18614,24.25207c-4.07148,0.03128 -7.45527,-10.77602 -7.55795,-24.13878z" fill="url(#color-3)" stroke="url(#color-4)" stroke-linecap="butt"/><path d="M220.85306,156.33986c0.11501,-0.01884 0.23077,-0.02882 0.34727,-0.02971c3.97527,-0.03054 7.27916,10.5215 7.37941,23.56859c0.10025,13.04714 -3.04107,23.64866 -7.01639,23.6792c-0.06507,0.0005 -0.12998,-0.00184 -0.19468,-0.00696" fill="none" stroke="url(#color-5)" stroke-linecap="butt"/><path d="M239.5235,156.19641c0.11501,-0.01884 0.23077,-0.02882 0.34727,-0.02971c3.97532,-0.03054 7.27916,10.5215 7.37941,23.56859c0.10025,13.04714 -3.04107,23.64866 -7.01639,23.6792c-0.06507,0.0005 -0.12998,-0.00184 -0.19468,-0.00696" fill="none" stroke="url(#color-6)" stroke-linecap="butt"/><path d="M259.19689,156.42628c0.11501,-0.01884 0.23077,-0.02882 0.34727,-0.02971c3.97532,-0.03054 7.27916,10.5215 7.37941,23.56859c0.10025,13.04714 -3.04107,23.64866 -7.01639,23.6792c-0.06507,0.0005 -0.12998,-0.00184 -0.19468,-0.00696" fill="none" stroke="url(#color-7)" stroke-linecap="butt"/></g><path d="M200.875,188.70833h-8.25" fill="none" stroke="#000000" stroke-width="5" stroke-linecap="round"/><path d="M191.33929,194.17262v-4.75" fill="none" stroke="#000000" stroke-width="2.5" stroke-linecap="round"/><path d="M196.625,190.45833v3.5" fill="none" stroke="#000000" stroke-width="2.5" stroke-linecap="round"/><path d="M201.5,191.24405v-5.14286h2.57143v5.14286z" fill="#000000" stroke="none" stroke-width="0" stroke-linecap="butt"/></g></g></g></svg>