<svg version="1.1" xmlns="http://www.w3.org/2000/svg" xmlns:xlink="http://www.w3.org/1999/xlink" width="585.67868" height="585.67868" viewBox="0,0,585.67868,585.67868"><defs><radialGradient cx="240" cy="180" r="59.30931" gradientUnits="userSpaceOnUse" id="color-1"><stop offset="0" stop-color="#5d5d5d"/><stop offset="1" stop-color="#5d5d5d" stop-opacity="0"/></radialGradient><radialGradient cx="254" cy="192" r="59.30931" gradientUnits="userSpaceOnUse" id="color-2"><stop offset="0" stop-color="#5d5d5d"/><stop offset="1" stop-color="#5d5d5d" stop-opacity="0"/></radialGradient><radialGradient cx="217" cy="191" r="59.30931" gradientUnits="userSpaceOnUse" id="color-3"><stop offset="0" stop-color="#5d5d5d"/><stop offset="1" stop-color="#5d5d5d" stop-opacity="0"/></radialGradient></defs><g transform="translate(52.83934,112.83934)"><g data-paper-data="{&quot;isPaintingLayer&quot;:true}" fill-rule="nonzero" stroke="none" stroke-width="0" stroke-linecap="butt" stroke-linejoin="miter" stroke-miterlimit="10" stroke-dasharray="" stroke-dashoffset="0" style="mix-blend-mode: normal"><path d="M180.69069,180c0,-32.75563 26.55369,-59.30931 59.30931,-59.30931c32.75563,0 59.30931,26.55369 59.30931,59.30931c0,32.75563 -26.55369,59.30931 -59.30931,59.30931c-32.75563,0 -59.30931,-26.55369 -59.30931,-59.30931z" fill="url(#color-1)"/><path d="M194.69069,192c0,-32.75563 26.55369,-59.30931 59.30931,-59.30931c32.75563,0 59.30931,26.55369 59.30931,59.30931c0,32.75563 -26.55369,59.30931 -59.30931,59.30931c-32.75563,0 -59.30931,-26.55369 -59.30931,-59.30931z" fill="url(#color-2)"/><path d="M157.69069,191c0,-32.75563 26.55369,-59.30931 59.30931,-59.30931c32.75563,0 59.30931,26.55369 59.30931,59.30931c0,32.75563 -26.55369,59.30931 -59.30931,59.30931c-32.75563,0 -59.30931,-26.55369 -59.30931,-59.30931z" fill="url(#color-3)"/><path d="M-52.83934,180c0,-161.73071 131.10863,-292.83934 292.83934,-292.83934c161.73071,0 292.83934,131.10863 292.83934,292.83934c0,161.73071 -131.10863,292.83934 -292.83934,292.83934c-161.73071,0 -292.83934,-131.10863 -292.83934,-292.83934z" fill="none"/></g></g></svg>