<svg version="1.1" xmlns="http://www.w3.org/2000/svg" xmlns:xlink="http://www.w3.org/1999/xlink" width="35.41789" height="39.35753" viewBox="0,0,35.41789,39.35753"><defs><linearGradient x1="232.32363" y1="162.44336" x2="242.40938" y2="162.44336" gradientUnits="userSpaceOnUse" id="color-1"><stop offset="0" stop-color="#e5e5e5" stop-opacity="0"/><stop offset="1" stop-color="#e5e5e5"/></linearGradient><linearGradient x1="232.17237" y1="197.59222" x2="242.25811" y2="197.59222" gradientUnits="userSpaceOnUse" id="color-2"><stop offset="0" stop-color="#e5e5e5" stop-opacity="0"/><stop offset="1" stop-color="#e5e5e5"/></linearGradient><linearGradient x1="244.7084" y1="183.93582" x2="244.7084" y2="187.23264" gradientUnits="userSpaceOnUse" id="color-3"><stop offset="0" stop-color="#000000"/><stop offset="1" stop-color="#000000" stop-opacity="0"/></linearGradient><linearGradient x1="244.75089" y1="172.24626" x2="244.75089" y2="175.54309" gradientUnits="userSpaceOnUse" id="color-4"><stop offset="0" stop-color="#000000" stop-opacity="0"/><stop offset="1" stop-color="#000000"/></linearGradient><linearGradient x1="256.33123" y1="172.87811" x2="257.92496" y2="181.2762" gradientUnits="userSpaceOnUse" id="color-5"><stop offset="0" stop-color="#c7c7c7"/><stop offset="1" stop-color="#c7c7c7" stop-opacity="0"/></linearGradient><linearGradient x1="258.91435" y1="176.70078" x2="256.79558" y2="183.14253" gradientUnits="userSpaceOnUse" id="color-6"><stop offset="0" stop-color="#c7c7c7"/><stop offset="1" stop-color="#c7c7c7" stop-opacity="0"/></linearGradient><linearGradient x1="242.11442" y1="232.50384" x2="331.053" y2="-43.0337" gradientUnits="userSpaceOnUse" id="color-7"><stop offset="0" stop-color="#cacaca" stop-opacity="0"/><stop offset="1" stop-color="#cacaca"/></linearGradient><linearGradient x1="247.10467" y1="214.91642" x2="306.41923" y2="31.15606" gradientUnits="userSpaceOnUse" id="color-8"><stop offset="0" stop-color="#cacaca" stop-opacity="0"/><stop offset="1" stop-color="#cacaca"/></linearGradient><linearGradient x1="257.94797" y1="187.21046" x2="256.35424" y2="178.81238" gradientUnits="userSpaceOnUse" id="color-9"><stop offset="0" stop-color="#c7c7c7"/><stop offset="1" stop-color="#c7c7c7" stop-opacity="0"/></linearGradient><linearGradient x1="255.34812" y1="183.33878" x2="257.46689" y2="176.89703" gradientUnits="userSpaceOnUse" id="color-10"><stop offset="0" stop-color="#c7c7c7"/><stop offset="1" stop-color="#c7c7c7" stop-opacity="0"/></linearGradient></defs><g transform="translate(-222.79921,-160.32126)"><g data-paper-data="{&quot;isPaintingLayer&quot;:true}" fill-rule="nonzero" stroke-linejoin="miter" stroke-miterlimit="10" stroke-dasharray="" stroke-dashoffset="0" style="mix-blend-mode: normal"><g><path d="M242.29731,163.62002l-9.97368,-0.22413l10.08574,-2.12921z" fill="url(#color-1)" stroke="#000000" stroke-width="0" stroke-linecap="round"/><path d="M242.25811,198.76889l-10.08574,-2.12921l9.97368,-0.22413z" data-paper-data="{&quot;index&quot;:null}" fill="url(#color-2)" stroke="#000000" stroke-width="0" stroke-linecap="round"/><path d="M229.18952,176.9177c0,0 4.61134,-0.82168 6.89677,-1.07293c2.25833,-0.24826 5.1624,-0.31734 5.1624,-0.31734l-0.97428,-14.14684l2.51418,-0.9606l5.57001,4.91746l0.02252,10.1742l5.24444,-0.01161l3.57527,4.08276l-3.55693,4.20344l-5.45421,0.01207l-0.08145,10.59398l-5.23282,5.25604l-2.05175,-1.14327l0.33848,-14.6912c0,0 -2.50879,0.02933 -4.88497,-0.29433c-2.14713,-0.29245 -7.07628,-1.46231 -7.07628,-1.46231l0.01045,4.72l-1.9894,1.57775l-0.96072,-7.5499l-3.46202,-0.30701l0.10187,-1.36379l3.35412,-1.05632l0.19399,-7.13289l2.30965,0.93889z" fill="#00283d" stroke="#000000" stroke-width="0" stroke-linecap="round"/><path d="M248.41748,166.50973l-7.75907,0.95081l-0.44994,-6.12798l2.51396,-1.01129l5.62367,4.82236z" fill="#00a5ff" stroke="#ffffff" stroke-width="0" stroke-linecap="round"/><path d="M248.13171,194.3924l-5.22408,5.2864l-2.60189,-1.27912l0.49415,-6.16739l7.32891,0.85431z" data-paper-data="{&quot;index&quot;:null}" fill="#00a5ff" stroke="#ffffff" stroke-width="0" stroke-linecap="round"/><path d="M239.65001,182.63337c0,0 -5.70937,-0.85601 -7.07584,-1.17135c-1.62263,-0.37445 -5.62416,-1.52865 -5.62416,-1.52865" fill="none" stroke="#003551" stroke-width="1.5" stroke-linecap="round"/><path d="M254.769,177.60093l-17.70324,-1.73816l16.66204,-0.25905l1.70819,2.2179z" fill="#00a5ff" stroke="#00a5ff" stroke-width="0.5" stroke-linecap="round"/><path d="M255.29607,181.52474l-1.69837,2.22544l-16.66303,-0.18529l17.69538,-1.81652z" data-paper-data="{&quot;index&quot;:null}" fill="#00a5ff" stroke="#00a5ff" stroke-width="0.5" stroke-linecap="round"/><path d="M241.18427,183.9514l7.04099,-0.01559l0.00726,3.28124l-7.04099,0.01559z" fill="url(#color-3)" stroke="none" stroke-width="0" stroke-linecap="butt"/><path d="M241.22676,172.26185l7.04099,-0.01559l0.00726,3.28124l-7.04099,0.01559z" data-paper-data="{&quot;index&quot;:null}" fill="url(#color-4)" stroke="none" stroke-width="0" stroke-linecap="butt"/><path d="M229.21718,182.06382l0.07881,4.71662l-2.11565,1.57695l-0.905,-7.38082l5.88267,1.69597z" fill="#00a5ff" stroke="#ffffff" stroke-width="0" stroke-linecap="round"/><path d="M232.66317,176.3901l-6.403,1.70795l0.15982,-7.57116l2.37373,1.38061l0.40445,4.9921z" data-paper-data="{&quot;index&quot;:null}" fill="#00a5ff" stroke="#ffffff" stroke-width="0" stroke-linecap="round"/><path d="M255.59296,179.68854c-0.01183,0.99639 -0.94695,2.35073 -0.94695,2.35073l-2.34806,0.2591c0,0 0.72955,-1.46148 0.75596,-2.60421c0.02639,-1.14273 -0.6401,-2.4107 -0.6401,-2.4107l2.28571,0.24885c0,0 0.90527,1.15984 0.89344,2.15623z" fill="#c7ffff" stroke="#000000" stroke-width="0" stroke-linecap="round"/><g stroke="none" stroke-width="0" stroke-linecap="butt"><path d="M257.57358,182.36483l-0.44103,-2.324l0.70279,-2.17727l0.38176,2.48215z" data-paper-data="{&quot;index&quot;:null}" fill="url(#color-5)"/><path d="M256.53268,181.73019l0.58633,-1.78262l0.52581,2.82468l-0.62435,1.54435z" data-paper-data="{&quot;index&quot;:null}" fill="url(#color-6)"/><g><path d="M256.97619,183.30302c-0.48281,-0.2329 -0.8297,-1.89898 -0.75493,-3.96518c0.07477,-2.06619 0.50454,-3.36982 1.01152,-3.12526c0.50698,0.24456 0.827,1.9224 0.75267,3.97629c-0.07433,2.0539 -0.52645,3.34704 -1.00926,3.11414z" fill="url(#color-7)"/><path d="M257.68931,180.02674c-0.04957,1.36978 -0.3511,2.2322 -0.6731,2.07687c-0.32199,-0.15533 -0.55334,-1.26646 -0.50347,-2.64444c0.04986,-1.37798 0.3365,-2.24739 0.6746,-2.08428c0.3381,0.1631 0.55154,1.28208 0.50197,2.65186z" fill="url(#color-8)"/><path d="M256.70563,177.72375l0.44103,2.324l-0.70279,2.17727l-0.38177,-2.48215z" fill="url(#color-9)"/><path d="M257.7298,178.30938l-0.58633,1.78262l-0.52581,-2.82468l0.62435,-1.54435z" data-paper-data="{&quot;index&quot;:null}" fill="url(#color-10)"/></g></g><path d="M248.56251,192.77921l-9.375,-1.5" fill="none" stroke="#0068a0" stroke-width="2.5" stroke-linecap="round"/><path d="M249.31251,166.85421l-9.375,1.5" data-paper-data="{&quot;index&quot;:null}" fill="none" stroke="#0068a0" stroke-width="2.5" stroke-linecap="round"/><path d="M251.81251,172.0874l-11.19444,1.03652" fill="none" stroke="#0068a0" stroke-width="1.5" stroke-linecap="round"/><path d="M240.60418,186.2256l11.08333,1.02623" data-paper-data="{&quot;index&quot;:null}" fill="none" stroke="#0068a0" stroke-width="1.5" stroke-linecap="round"/><path d="M226.2143,185.76195l3.28571,0.28571" fill="none" stroke="#0068a0" stroke-width="1.5" stroke-linecap="round"/><path d="M229.2143,172.61909l-3.28572,0.28571" data-paper-data="{&quot;index&quot;:null}" fill="none" stroke="#0068a0" stroke-width="1.5" stroke-linecap="round"/><g stroke="#a6caca" stroke-width="0.5" stroke-linecap="round"><path d="M244.40769,181.01707c0,0 -1.24554,-0.55811 -1.24554,-1.24554c0,-0.68743 1.24554,-1.24554 1.24554,-1.24554l3.47768,0.01782c0,0 1.24554,0.55811 1.24554,1.24554c0,0.68744 -1.24554,1.24555 -1.24554,1.24555z" fill="#c7ffff"/><path d="M247.48112,178.66355v2.15143" fill="none"/><path d="M246.50319,180.71719v-2.05364" fill="none"/><path d="M244.93852,180.81498v-2.24922" fill="none"/><path d="M245.92904,178.48056v2.24922" fill="none"/></g><path d="M241.21152,182.16313c-0.23717,0.71151 -0.94868,0.47434 -0.94868,0.47434l-0.6114,-0.20613c-2.08393,-0.5235 -4.27067,-0.12298 -6.33723,-0.66765c-2.37475,-0.62589 -4.67251,-1.7544 -7.14754,-1.7544c0,0 -0.75,0 -0.75,-0.75c0,-0.75 0.75,-0.75 0.75,-0.75c2.61703,0 5.02159,1.12661 7.51913,1.80116c2.04565,0.5525 4.24934,0.14796 6.32944,0.66568l0.72194,0.23832c0,0 0.71151,0.23717 0.47434,0.94868z" fill="#002d45" stroke="none" stroke-width="0.5" stroke-linecap="butt"/><path d="M240.69445,178.14818c0,0.75 -0.75,0.75 -0.75,0.75l-0.21718,-0.00754c-2.52566,-0.36618 -5.31947,-1.48413 -7.82072,-0.38644c0,0 -0.68936,0.29544 -0.9848,-0.39392c-0.29544,-0.68936 0.39392,-0.9848 0.39392,-0.9848c2.85392,-1.20002 5.74569,-0.12395 8.62373,0.28023l0.00505,-0.00754c0,0 0.75,0 0.75,0.75z" fill="#002d45" stroke="none" stroke-width="0.5" stroke-linecap="butt"/><path d="M247.3596,190.97404c-0.37724,0.56586 -0.9431,0.18862 -0.9431,0.18862l-0.11185,-0.11346c-0.82085,-0.23465 -3.66548,-0.52078 -4.12992,-1.22055c-0.04056,-0.06112 0.17549,-1.54466 0.21792,-1.84685c0,0 0.09618,-0.67324 0.76942,-0.57707c0.67324,0.09618 0.57707,0.76942 0.57707,0.76942c-0.05013,0.34576 -0.59053,0.69054 -0.38659,0.97423c0.016,0.02226 2.97424,0.4926 3.32575,0.59299l0.49267,0.28956c0,0 0.56586,0.37724 0.18862,0.9431z" fill="#002d45" stroke="none" stroke-width="0.5" stroke-linecap="butt"/><path d="M247.50001,170.89818c-0.27537,0 -0.44963,-0.1011 -0.55992,-0.22907c-0.90749,-0.18988 -1.83471,-0.10426 -2.77342,-0.10426c0,0 -0.75,0 -0.75,-0.75c0,-0.75 0.75,-0.75 0.75,-0.75c1.21866,0 2.35982,-0.07583 3.53937,0.25108l0.54396,0.83225c0,0 0,0.75 -0.75,0.75z" fill="#002d45" stroke="none" stroke-width="0.5" stroke-linecap="butt"/></g></g></g></svg>