<svg version="1.1" xmlns="http://www.w3.org/2000/svg" xmlns:xlink="http://www.w3.org/1999/xlink" width="65.47745" height="113.15985" viewBox="0,0,65.47745,113.15985"><defs><linearGradient x1="315.08172" y1="166.42251" x2="377.78495" y2="166.42251" gradientUnits="userSpaceOnUse" id="color-1"><stop offset="0" stop-color="#0a7e00"/><stop offset="1" stop-color="#0d9700"/></linearGradient><linearGradient x1="340.59047" y1="92.75999" x2="340.59047" y2="100.63127" gradientUnits="userSpaceOnUse" id="color-2"><stop offset="0" stop-color="#096900"/><stop offset="1" stop-color="#096900" stop-opacity="0"/></linearGradient><linearGradient x1="340.70622" y1="93.223" x2="340.70622" y2="97.39016" gradientUnits="userSpaceOnUse" id="color-3"><stop offset="0" stop-color="#797979"/><stop offset="1" stop-color="#616161"/></linearGradient><linearGradient x1="340.70622" y1="93.45451" x2="340.70622" y2="89.28737" gradientUnits="userSpaceOnUse" id="color-4"><stop offset="0" stop-color="#797979"/><stop offset="1" stop-color="#616161"/></linearGradient><linearGradient x1="317.25005" y1="196.66669" x2="331.25005" y2="196.66669" gradientUnits="userSpaceOnUse" id="color-5"><stop offset="0" stop-color="#042e00" stop-opacity="0"/><stop offset="1" stop-color="#042e00"/></linearGradient><linearGradient x1="335.25005" y1="196.66669" x2="349.25006" y2="196.66669" gradientUnits="userSpaceOnUse" id="color-6"><stop offset="0" stop-color="#042e00"/><stop offset="1" stop-color="#042e00" stop-opacity="0"/></linearGradient><linearGradient x1="344.06945" y1="230.33808" x2="322.14207" y2="230.33808" gradientUnits="userSpaceOnUse" id="color-7"><stop offset="0" stop-color="#0a7300"/><stop offset="1" stop-color="#096c00"/></linearGradient><linearGradient x1="344.00129" y1="187.3311" x2="322.16229" y2="187.3311" gradientUnits="userSpaceOnUse" id="color-8"><stop offset="0" stop-color="#0a7300"/><stop offset="1" stop-color="#096c00"/></linearGradient><linearGradient x1="344.06945" y1="225.47641" x2="322.14207" y2="225.47641" gradientUnits="userSpaceOnUse" id="color-9"><stop offset="0" stop-color="#0b8000"/><stop offset="1" stop-color="#0a7800"/></linearGradient><linearGradient x1="344.00129" y1="182.46943" x2="322.16229" y2="182.46943" gradientUnits="userSpaceOnUse" id="color-10"><stop offset="0" stop-color="#0b8000"/><stop offset="1" stop-color="#0a7800"/></linearGradient><radialGradient cx="330.23339" cy="163.50292" r="3.8" gradientUnits="userSpaceOnUse" id="color-11"><stop offset="0" stop-color="#5d5d5d"/><stop offset="1" stop-color="#727272"/></radialGradient><radialGradient cx="330.10839" cy="227.25292" r="3.8" gradientUnits="userSpaceOnUse" id="color-12"><stop offset="0" stop-color="#5d5d5d"/><stop offset="1" stop-color="#727272"/></radialGradient><radialGradient cx="330.23339" cy="184.21719" r="3.8" gradientUnits="userSpaceOnUse" id="color-13"><stop offset="0" stop-color="#5d5d5d"/><stop offset="1" stop-color="#727272"/></radialGradient><radialGradient cx="330.37622" cy="205.36008" r="3.8" gradientUnits="userSpaceOnUse" id="color-14"><stop offset="0" stop-color="#5d5d5d"/><stop offset="1" stop-color="#727272"/></radialGradient><radialGradient cx="345.25003" cy="124.33335" r="20.33334" gradientUnits="userSpaceOnUse" id="color-15"><stop offset="0" stop-color="#000000"/><stop offset="1" stop-color="#000000" stop-opacity="0"/></radialGradient></defs><g transform="translate(-314.98103,-141.00003)"><g data-paper-data="{&quot;isPaintingLayer&quot;:true}" fill-rule="nonzero" stroke-linejoin="miter" stroke-miterlimit="10" stroke-dasharray="" stroke-dashoffset="0" style="mix-blend-mode: normal"><path d="M323.28725,254.15988l-8.20556,-9.73993c0,0 -1.30062,-26.76361 5.44853,-33.74037c17.18181,-17.76125 53.64808,-25.12535 53.68259,-6.51285c0.0297,16.02014 3.57209,39.38028 3.57209,39.38028l-9.86737,10.61287z" data-paper-data="{&quot;index&quot;:null}" fill="#096600" stroke="none" stroke-width="0" stroke-linecap="butt"/><path d="M323.28725,247.67761l-8.20556,-9.73994v-93.271l65.37679,-0.5016c0,0 -4.75994,44.32567 -4.73798,56.16786c0.0273,14.7244 2.0644,36.73181 2.0644,36.73181l-9.86737,10.61287c0,0 -18.97473,1 -27.16753,1.00001c-5.96521,0 -17.46275,-1 -17.46275,-1z" data-paper-data="{&quot;index&quot;:null}" fill="url(#color-1)" stroke="none" stroke-width="0" stroke-linecap="butt"/><path d="" data-paper-data="{&quot;index&quot;:null}" fill="url(#color-2)" stroke="none" stroke-width="0" stroke-linecap="butt"/><g stroke="none" stroke-width="0" stroke-linecap="butt"><path d="" fill="url(#color-3)"/><path d="" data-paper-data="{&quot;index&quot;:null}" fill="url(#color-4)"/></g><path d="M353.08343,234.44446l9.16667,-9.16667v-32.83333h11.16667v42.66666l-6.33333,6.33334h-14z" fill="#0d9c00" stroke="#000000" stroke-width="0" stroke-linecap="round"/><path d="M353.08343,164.77781l11,-11h6.66667v11z" fill="#0d9c00" stroke="#000000" stroke-width="0" stroke-linecap="round"/><path d="M317.25005,236.44588c0,-11.69587 0,-85.27916 0,-85.27916h14v91.42857c0,0 -5.39667,0.34145 -8.41317,-0.49254c-3.87489,-1.07131 -5.58683,-3.95356 -5.58683,-5.65687z" data-paper-data="{&quot;index&quot;:null}" fill="url(#color-5)" stroke="none" stroke-width="0" stroke-linecap="butt"/><path d="M335.25005,242.73814v-91.57143h14c0,0 0,74.59105 0,85.85059c0,2.75758 -2.85399,4.38923 -4.71429,5.14941c-1.8603,0.76018 -9.28571,0.57143 -9.28571,0.57143z" data-paper-data="{&quot;index&quot;:null}" fill="url(#color-6)" stroke="none" stroke-width="0" stroke-linecap="butt"/><g data-paper-data="{&quot;index&quot;:null}" stroke-width="0" stroke-linecap="butt"><path d="M338.0137,242.89233l-9.64738,-0.00547l-6.22417,-6.75337v-18.34962h21.92729v18.81264z" fill="url(#color-7)" stroke="#000000"/><path d="M322.16229,218.58476v-62.50725h21.83895v62.50725z" fill="url(#color-8)" stroke="none"/></g><g data-paper-data="{&quot;index&quot;:null}" stroke-width="0" stroke-linecap="butt"><path d="M338.0137,238.03067l-9.64738,-0.00547l-6.22417,-6.75337v-18.34962h21.92729v18.81264z" fill="url(#color-9)" stroke="#000000"/><path d="M322.16229,213.7231v-62.50725h21.83895v62.50725z" fill="url(#color-10)" stroke="none"/></g><g data-paper-data="{&quot;index&quot;:null}" stroke="none" stroke-width="0" stroke-linecap="butt"><g><path d="M326.50271,154.78623h11.41882v74.88333h-11.41882z" fill="#8d8d8d"/><path d="M327.8119,154.78623h11.41882c0,0 -0.28433,7.77213 0.07087,17.30743c0.30811,8.27121 1.26246,17.95161 1.26246,24.01744c0,11.7678 -1.33333,33.55846 -1.33333,33.55846h-11.41882c0,0 0.81639,-14.03273 1.201,-28.22025c0.25437,-9.38333 0.13234,-18.83437 0.13234,-24.3382c0,-9.01066 -1.33333,-22.32487 -1.33333,-22.32487z" fill="#ababab"/></g><path d="M329.63338,164.16956v-7.6h7.6v7.6c0,0 -2.00092,-0.66667 -3.40005,-0.66667c-0.98932,0 -4.19995,0.66667 -4.19995,0.66667z" fill="url(#color-11)"/><path d="M329.63338,227.9696v-7.6h7.6v7.6c0,0 -2.11396,-0.66667 -3.06671,-0.66667c-1.4024,0 -4.53329,0.66667 -4.53329,0.66667z" fill="url(#color-12)"/><path d="M329.63338,184.76957c0,0 -0.66667,-3.02813 -0.66667,-4.32513c0,-1.23311 0.66667,-3.27487 0.66667,-3.27487h7.6v7.6c0,0 -1.44729,-0.66667 -2.40005,-0.66667c-1.4024,0 -5.19995,0.66667 -5.19995,0.66667z" fill="url(#color-13)"/><path d="M329.63338,205.9696v-7.6h7.6l-0.33333,6.93333z" fill="url(#color-14)"/></g><g stroke="none" stroke-linecap="butt"><path d="M345.25002,144.66669c11.22979,0 -11.22979,0 0,0z" fill="url(#color-15)" stroke-width="NaN"/><path d="M345.41668,141.00003c-9.1127,0 9.1127,0 0,0z" fill="#555555" stroke-width="NaN"/></g><path d="" fill="#0c8b00" stroke="none" stroke-width="0.5" stroke-linecap="butt"/><path d="M338.375,214.08333c0,0.75 -0.75,0.75 -0.75,0.75l-0.26283,-0.03849c-1.14466,0.17243 -0.31333,2.14411 -1.79467,2.51336c-2.4332,0.60653 -7.17981,-5.51696 -5.52337,-7.69931c0.34119,-0.44951 1.08974,-0.29965 1.61824,-0.49752c1.73871,-0.65098 3.39422,-1.71755 5.21263,-1.77804c0,0 0.75,0 0.75,0.75c0,0.75 -0.75,0.75 -0.75,0.75c-1.55122,-0.09372 -3.23204,1.27406 -4.74957,1.70478c-0.29494,0.08371 -0.69033,-0.18393 -0.91956,0.01966c-0.0715,0.06351 0.36735,1.24741 0.38064,1.28839c0.36964,1.13942 2.2377,3.72667 3.59599,4.0123c0.3387,0.07122 0.10853,-0.68858 0.23099,-1.0123c0.24591,-0.65005 0.83204,-1.20885 1.47434,-1.47434l0.73717,-0.03849c0,0 0.75,0 0.75,0.75z" fill="#a5a5a5" stroke="none" stroke-width="0.5" stroke-linecap="butt"/><path d="M337.65533,186.803c0.53033,0.53033 0,1.06066 0,1.06066l-0.88603,0.85766c-0.55982,0.19633 -1.0457,0.56395 -1.59088,0.7979c-3.02399,1.29764 0.0336,1.8941 2.032,2.89329c0,0 0.67082,0.33541 0.33541,1.00623c-0.33541,0.67082 -1.00623,0.33541 -1.00623,0.33541c-1.1189,-0.55945 -3.25758,-1.17463 -4.01062,-2.21558c-1.69794,-2.34708 1.84226,-3.58999 3.45173,-4.09323l0.61397,-0.64234c0,0 0.53033,-0.53033 1.06066,0z" fill="#a5a5a5" stroke="none" stroke-width="0.5" stroke-linecap="butt"/><path d="M337.625,168.58333c0.75,0 0.75,0.75 0.75,0.75l-0.07918,0.58541c-0.17761,0.35296 -0.35522,0.70593 -0.53283,1.05889c-0.74346,0.99128 -1.14573,2.38075 -2.42065,2.82352c-1.34178,0.46599 -2.21253,-0.36328 -2.99767,-1.18749c-0.39284,-0.41239 -1.09599,-0.34283 -1.58919,-0.62768c-2.30719,-1.33253 -3.67528,-4.45813 -0.37388,-5.61205c0.99498,-0.34777 1.51175,-0.29279 2.4934,-0.2906c0.83461,0.00187 1.69262,0.03299 2.48717,0.28849c0,0 0.71151,0.23717 0.47434,0.94868c-0.23717,0.71151 -0.94868,0.47434 -0.94868,0.47434c-0.63687,-0.22256 -1.33819,-0.21328 -2.01283,-0.21151c-3.94312,0.01032 -3.32438,2.00034 -0.44658,3.31411c0.89265,0.40751 1.33974,1.80741 2.47925,1.46807c0.59729,-0.17787 1.23941,-1.72323 1.57935,-2.17648c0.15572,-0.3137 0.31145,-0.62741 0.46717,-0.94111l-0.07918,0.08541c0,0 0,-0.75 0.75,-0.75z" fill="#a5a5a5" stroke="none" stroke-width="0.5" stroke-linecap="butt"/></g></g></svg>