<svg version="1.1" xmlns="http://www.w3.org/2000/svg" xmlns:xlink="http://www.w3.org/1999/xlink" width="51.02412" height="64.93928" viewBox="0,0,51.02412,64.93928"><defs><linearGradient x1="272.39975" y1="217.11934" x2="272.09001" y2="143.0878" gradientUnits="userSpaceOnUse" id="color-1"><stop offset="0" stop-color="#24ffff"/><stop offset="1" stop-color="#24ffff" stop-opacity="0"/></linearGradient><radialGradient cx="272.33577" cy="172.62182" r="16.20319" gradientUnits="userSpaceOnUse" id="color-2"><stop offset="0" stop-color="#24ffff"/><stop offset="1" stop-color="#24ffff" stop-opacity="0"/></radialGradient><linearGradient x1="297.1415" y1="212.25721" x2="257.59576" y2="149.67207" gradientUnits="userSpaceOnUse" id="color-3"><stop offset="0" stop-color="#24ffff"/><stop offset="1" stop-color="#24ffff" stop-opacity="0"/></linearGradient><linearGradient x1="227.63665" y1="157.23079" x2="297.54726" y2="181.588" gradientUnits="userSpaceOnUse" id="color-4"><stop offset="0" stop-color="#24ffff"/><stop offset="1" stop-color="#24ffff" stop-opacity="0"/></linearGradient><linearGradient x1="240.29073" y1="138.50963" x2="288.98937" y2="194.26989" gradientUnits="userSpaceOnUse" id="color-5"><stop offset="0" stop-color="#24ffff"/><stop offset="1" stop-color="#24ffff" stop-opacity="0"/></linearGradient><linearGradient x1="315.79382" y1="152.8427" x2="249.64698" y2="186.08966" gradientUnits="userSpaceOnUse" id="color-6"><stop offset="0" stop-color="#24ffff"/><stop offset="1" stop-color="#24ffff" stop-opacity="0"/></linearGradient><linearGradient x1="273.06642" y1="228.78601" x2="272.75667" y2="154.75446" gradientUnits="userSpaceOnUse" id="color-7"><stop offset="0" stop-color="#24ffff"/><stop offset="1" stop-color="#24ffff" stop-opacity="0"/></linearGradient><radialGradient cx="273.00243" cy="184.28849" r="16.20319" gradientUnits="userSpaceOnUse" id="color-8"><stop offset="0" stop-color="#24ffff"/><stop offset="1" stop-color="#24ffff" stop-opacity="0"/></radialGradient><linearGradient x1="297.80817" y1="223.92388" x2="258.26243" y2="161.33874" gradientUnits="userSpaceOnUse" id="color-9"><stop offset="0" stop-color="#24ffff"/><stop offset="1" stop-color="#24ffff" stop-opacity="0"/></linearGradient><linearGradient x1="228.30332" y1="168.89746" x2="298.21392" y2="193.25467" gradientUnits="userSpaceOnUse" id="color-10"><stop offset="0" stop-color="#24ffff"/><stop offset="1" stop-color="#24ffff" stop-opacity="0"/></linearGradient><linearGradient x1="240.9574" y1="150.17629" x2="289.65604" y2="205.93656" gradientUnits="userSpaceOnUse" id="color-11"><stop offset="0" stop-color="#24ffff"/><stop offset="1" stop-color="#24ffff" stop-opacity="0"/></linearGradient><linearGradient x1="316.46049" y1="164.50937" x2="250.31364" y2="197.75632" gradientUnits="userSpaceOnUse" id="color-12"><stop offset="0" stop-color="#24ffff"/><stop offset="1" stop-color="#24ffff" stop-opacity="0"/></linearGradient></defs><g transform="translate(-248.22879,-143.07458)"><g data-paper-data="{&quot;isPaintingLayer&quot;:true}" fill-rule="nonzero" stroke="none" stroke-linecap="butt" stroke-linejoin="miter" stroke-miterlimit="10" stroke-dasharray="" stroke-dashoffset="0" style="mix-blend-mode: normal"><g><path d="M275.24791,143.07458l-2.93706,31.23095l-3.37875,-31.20453z" fill="url(#color-1)" stroke-width="0"/><path d="M256.13258,172.62182c0,-8.94877 7.25441,-16.20319 16.20319,-16.20319c8.94877,0 16.20319,7.25441 16.20319,16.20319c0,8.94877 -7.25441,16.20319 -16.20319,16.20319c-8.94877,0 -16.20319,-7.25441 -16.20319,-16.20319z" fill="url(#color-2)" stroke-width="0.5"/><path d="M260.26541,147.9852l14.08255,28.03l-19.42183,-24.65626z" fill="url(#color-3)" stroke-width="0"/><path d="M296.50827,184.57011l-28.4117,-13.33843l30.48967,7.37419z" data-paper-data="{&quot;index&quot;:null}" fill="url(#color-4)" stroke-width="0"/><path d="M286.61085,196.34719l-18.08909,-25.65002l22.84613,21.49542z" data-paper-data="{&quot;index&quot;:null}" fill="url(#color-5)" stroke-width="0"/><path d="M248.22879,183.26808l29.27092,-11.27884l-26.43454,16.922z" data-paper-data="{&quot;index&quot;:null}" fill="url(#color-6)" stroke-width="0"/></g><g><path d="M275.91457,154.74125l-2.93706,31.23095l-3.37874,-31.20453z" fill="url(#color-7)" stroke-width="0"/><path d="M256.79925,184.28849c0,-8.94878 7.25441,-16.20319 16.20318,-16.20319c8.94878,0 16.20319,7.25441 16.20319,16.20319c0,8.94878 -7.25441,16.20318 -16.20319,16.20318c-8.94878,0 -16.20318,-7.25441 -16.20318,-16.20318z" fill="url(#color-8)" stroke-width="0.5"/><path d="M260.93208,159.65187l14.08255,28.03l-19.42183,-24.65626z" fill="url(#color-9)" stroke-width="0"/><path d="M297.17494,196.23678l-28.4117,-13.33843l30.48968,7.37419z" data-paper-data="{&quot;index&quot;:null}" fill="url(#color-10)" stroke-width="0"/><path d="M287.27751,208.01386l-18.08909,-25.65002l22.84613,21.49542z" data-paper-data="{&quot;index&quot;:null}" fill="url(#color-11)" stroke-width="0"/><path d="M248.89546,194.93475l29.27092,-11.27884l-26.43453,16.922z" data-paper-data="{&quot;index&quot;:null}" fill="url(#color-12)" stroke-width="0"/></g></g></g></svg>