<svg version="1.1" xmlns="http://www.w3.org/2000/svg" xmlns:xlink="http://www.w3.org/1999/xlink" width="44.90347" height="17.31746" viewBox="0,0,44.90347,17.31746"><defs><linearGradient x1="227.66939" y1="180.05678" x2="230.30828" y2="180.05678" gradientUnits="userSpaceOnUse" id="color-1"><stop offset="0" stop-color="#7d7f7f"/><stop offset="1" stop-color="#6b6d6d"/></linearGradient><linearGradient x1="257.83606" y1="177.76511" x2="257.83606" y2="182.87622" gradientUnits="userSpaceOnUse" id="color-2"><stop offset="0" stop-color="#727575"/><stop offset="1" stop-color="#7a7c7c"/></linearGradient><linearGradient x1="239.94983" y1="188.93972" x2="239.94983" y2="171.62225" gradientUnits="userSpaceOnUse" id="color-3"><stop offset="0" stop-color="#7d7f7f"/><stop offset="1" stop-color="#939696"/></linearGradient><linearGradient x1="239.89162" y1="175.87623" x2="239.89162" y2="184.65401" gradientUnits="userSpaceOnUse" id="color-4"><stop offset="0" stop-color="#727575"/><stop offset="1" stop-color="#7a7c7c"/></linearGradient></defs><g transform="translate(-227.66938,-171.62226)"><g data-paper-data="{&quot;isPaintingLayer&quot;:true}" fill-rule="nonzero" stroke-linejoin="miter" stroke-miterlimit="10" stroke-dasharray="" stroke-dashoffset="0" style="mix-blend-mode: normal"><g fill="none" stroke="#5b5d5d" stroke-width="1" stroke-linecap="round"><g><path d="M251.94444,186.43038v-12.11111"/><path d="M253.83333,174.31927v12.11111"/></g><g><path d="M255.94444,174.31927v12.11111"/><path d="M257.83333,186.43038v-12.11111"/></g></g><g fill="none" stroke="#5b5d5d" stroke-width="1" stroke-linecap="round"><path d="M259.83333,174.31927v12.11111"/><path d="M261.72222,174.31927v12.11111"/></g><g fill="none" stroke="#5b5d5d" stroke-width="1" stroke-linecap="round"><path d="M263.83333,186.43038v-12.11111"/><path d="M265.72222,174.31927v12.11111"/></g><g fill="none" stroke="#5b5d5d" stroke-width="1" stroke-linecap="round"><path d="M267.61111,186.43038v-12.11111"/><path d="M269.5,174.31927v12.11111"/></g><path d="M229.83605,184.87622l-2.16667,-2.16667v-4.83333l2.63889,-2.63889z" fill="url(#color-1)" stroke="#000000" stroke-width="0" stroke-linecap="round"/><path d="M267.83606,182.87622h-20v-5.11111h20z" fill="url(#color-2)" stroke="none" stroke-width="0" stroke-linecap="butt"/><path d="M271.32283,185.01909h-24.33333" fill="none" stroke="#7d7f7f" stroke-width="2.5" stroke-linecap="round"/><path d="M246.9895,182.16193h24.33333" fill="none" stroke="#868989" stroke-width="2.5" stroke-linecap="round"/><path d="M271.32285,178.44764h-24.33333" fill="none" stroke="#868989" stroke-width="2.5" stroke-linecap="round"/><path d="M271.32283,175.59052h-24.33333" fill="none" stroke="#7d7f7f" stroke-width="2.5" stroke-linecap="round"/><path d="M250.16411,188.93972h-20.42857v-17.31746h20.42857z" fill="url(#color-3)" stroke="none" stroke-width="0" stroke-linecap="butt"/><path d="M250.05828,184.65401h-20.33333v-8.77778h20.33333z" fill="url(#color-4)" stroke="none" stroke-width="0" stroke-linecap="butt"/></g></g></svg>