<svg version="1.1" xmlns="http://www.w3.org/2000/svg" xmlns:xlink="http://www.w3.org/1999/xlink" width="40.20949" height="29.35548" viewBox="0,0,40.20949,29.35548"><g transform="translate(-214.4953,-216.9879)"><g data-paper-data="{&quot;isPaintingLayer&quot;:true}" fill-rule="nonzero" stroke="none" stroke-linecap="butt" stroke-linejoin="miter" stroke-miterlimit="10" stroke-dasharray="" stroke-dashoffset="0" style="mix-blend-mode: normal"><path d="M245.25,245.24841c-7.59107,0 -18.90505,0.70776 -29.72426,1.09497c0.48072,-3.00457 1.03656,-6.05009 1.03656,-9.00659c0,-3.40962 -1.86177,-8.68881 -2.06231,-12.45674c-0.03091,-0.58074 0.09346,-1.19049 0.29976,-1.81947h38.42514c0.29926,5.28051 1.14991,9.91269 1.47184,15.17084c0.11513,1.88051 -1.03308,4.36758 -1.78547,7.04346c-2.67605,-0.01675 -5.26291,-0.02648 -7.66128,-0.02648z" data-paper-data="{&quot;index&quot;:null}" fill="#0b8600" stroke-width="0"/><path d="M253.23448,239.49896c-14.67595,0.34128 -27.51481,2.65625 -35.98447,2.65625c-0.35097,0 -0.7079,-0.00148 -1.07007,-0.00434c0.22246,-1.61693 0.38237,-3.22831 0.38237,-4.81407c0,-3.40962 -1.86177,-8.68881 -2.06231,-12.45674c-0.09814,-1.84393 1.36916,-3.98025 2.05397,-6.09604c8.78492,-0.36659 20.52688,-1.20535 32.52999,-1.79612c0.2522,0.79548 0.57917,1.51983 1.03079,2.04672c0.23831,0.27803 3.04336,2.58885 3.05192,2.80935c0.22505,5.79616 1.18366,10.72941 1.53008,16.38746c0.02379,0.38849 -0.00635,0.80286 -0.07577,1.23944c-0.46289,0.00802 -0.92518,0.01736 -1.3865,0.02809z" data-paper-data="{&quot;index&quot;:null}" fill="#0c9200" stroke-width="0"/><path d="" fill="#686868" stroke-width="0.5"/><path d="M246.9661,224.39678c0.58638,0.23128 0.96834,0.61324 0.96834,0.61324l2.04626,3.41119c-0.79485,5.81288 -3.14506,8.66639 -8.8419,10.17118c-2.96244,0.00417 -5.13468,0.30604 -7.79906,1.72643c-2.77859,1.48128 -4.824,3.88624 -8.68963,2.3279c-2.71874,-1.096 -1.79171,-4.22881 -2.74078,-6.12783c-0.54091,-1.08233 -1.74418,-1.79858 -2.11436,-2.95053c-1.23143,-3.83193 0.9276,-7.6911 3.75577,-10.03145c3.65949,-3.02828 5.40202,-2.04082 9.58806,-1.57372c4.36693,0.48729 8.22543,0.06576 12.48511,1.44289c0,0 0.82771,0.2759 1.34219,0.9907z" fill="#686868" stroke-width="0.5"/><path d="" fill="#686868" stroke-width="0.5"/><path d="" fill="#606060" stroke-width="0.5"/><path d="M227.80742,227.94891c0.24766,-0.22483 0.45224,-0.34174 0.45224,-0.34174l2.45929,-1.40061c1.08268,-0.41804 2.08754,-1.2407 3.24805,-1.25413c2.49692,-0.02889 8.57288,1.90773 6.47508,6.52766c-1.74964,3.85318 -9.12246,1.74054 -11.88174,1.05638c0,0 -2.42536,-0.60634 -1.81902,-3.0317c0.20371,-0.81482 0.61272,-1.28746 1.0661,-1.55587z" fill="#606060" stroke-width="0.5"/><path d="" fill="#606060" stroke-width="0.5"/><path d="" fill="#0d9c00" stroke-width="0.5"/><path d="M223.5,221.86111l-0.09617,-0.03849c-1.0597,0.35321 -3.9995,0.44938 -4.68687,1.13141c-0.21479,0.21312 -0.11017,1.84222 -0.15369,1.99606c-0.70618,2.4968 -2.50248,5.1792 -2.62645,7.81663c-0.22267,-1.06281 -0.47565,-2.15965 -0.70748,-3.24115c0.5898,-1.62227 1.38794,-3.23827 1.87405,-4.9201c0.2517,-0.87083 -0.11284,-2.01483 0.51298,-2.6706c0.96403,-1.01016 3.93311,-1.07522 5.31312,-1.53526l0.5705,-0.03849c0,0 0.74999,0 0.75,0.74999v0.00001c-0.00001,0.74999 -0.75,0.74999 -0.75,0.74999z" fill="#0d9c00" stroke-width="0.5"/><path d="M216.50416,235.44237c0,0 0.19126,0.38253 -0.00393,0.71429c-0.0302,-0.31281 -0.07053,-0.63591 -0.11899,-0.96737c0.03825,0.08449 0.07919,0.16885 0.12292,0.25308z" fill="#0d9c00" stroke-width="0.5"/><path d="M246.73718,222.82263c0,0 -0.71151,0.23717 -0.94868,-0.47434c-0.23717,-0.71151 0.47434,-0.94868 0.47434,-0.94868c2.82386,-0.91548 5.15621,-0.64539 6.87992,0.39263c0.01522,0.02266 0.02346,0.0401 0.02391,0.05173c0.02408,0.62016 0.05656,1.23044 0.09578,1.83279c-1.74299,-1.24349 -4.25009,-1.63883 -6.52527,-0.85413z" fill="#0d9c00" stroke-width="0.5"/><path d="M250.96967,234.91412c0.53033,-0.53033 1.06066,0 1.06066,0l-0.19699,0.11366c0.62663,0 1.25327,0.00279 1.87986,0.00969c0.15368,-0.00947 0.3544,-0.68617 0.56333,-1.55882c0.09892,0.90436 0.19149,1.81628 0.27129,2.74335c-0.16836,0.09976 -0.36485,0.19817 -0.59434,0.2961c-0.70669,0.00611 -1.41342,0.00968 -2.12014,0.00968l-0.86366,-0.553c0,0 -0.53033,-0.53033 0,-1.06066z" fill="#0d9c00" stroke-width="0.5"/><path d="" fill="#0d9c00" stroke-width="0.5"/><path d="" fill="#0d9c00" stroke-width="0.5"/></g></g></svg>