<svg version="1.1" xmlns="http://www.w3.org/2000/svg" xmlns:xlink="http://www.w3.org/1999/xlink" width="34.77914" height="37.87123" viewBox="0,0,34.77914,37.87123"><defs><linearGradient x1="232.61351" y1="163.10635" x2="242.31838" y2="163.10635" gradientUnits="userSpaceOnUse" id="color-1"><stop offset="0" stop-color="#e5e5e5" stop-opacity="0"/><stop offset="1" stop-color="#e5e5e5"/></linearGradient><linearGradient x1="232.46796" y1="196.92783" x2="242.17283" y2="196.92783" gradientUnits="userSpaceOnUse" id="color-2"><stop offset="0" stop-color="#e5e5e5" stop-opacity="0"/><stop offset="1" stop-color="#e5e5e5"/></linearGradient><linearGradient x1="244.52708" y1="183.79464" x2="244.53407" y2="186.95197" gradientUnits="userSpaceOnUse" id="color-3"><stop offset="0" stop-color="#c50000"/><stop offset="1" stop-color="#c50000" stop-opacity="0"/></linearGradient><linearGradient x1="244.57495" y1="175.70385" x2="244.56796" y2="172.54654" gradientUnits="userSpaceOnUse" id="color-4"><stop offset="0" stop-color="#c50000"/><stop offset="1" stop-color="#c50000" stop-opacity="0"/></linearGradient><linearGradient x1="255.71449" y1="173.14703" x2="257.24803" y2="181.22797" gradientUnits="userSpaceOnUse" id="color-5"><stop offset="0" stop-color="#c7c7c7"/><stop offset="1" stop-color="#c7c7c7" stop-opacity="0"/></linearGradient><linearGradient x1="258.20005" y1="176.82534" x2="256.1613" y2="183.02381" gradientUnits="userSpaceOnUse" id="color-6"><stop offset="0" stop-color="#c7c7c7"/><stop offset="1" stop-color="#c7c7c7" stop-opacity="0"/></linearGradient><linearGradient x1="242.03456" y1="230.52103" x2="327.61444" y2="-34.61104" gradientUnits="userSpaceOnUse" id="color-7"><stop offset="0" stop-color="#cacaca" stop-opacity="0"/><stop offset="1" stop-color="#cacaca"/></linearGradient><linearGradient x1="246.83636" y1="213.59779" x2="303.91095" y2="36.777" gradientUnits="userSpaceOnUse" id="color-8"><stop offset="0" stop-color="#cacaca" stop-opacity="0"/><stop offset="1" stop-color="#cacaca"/></linearGradient><linearGradient x1="257.27016" y1="186.93812" x2="255.73663" y2="178.85719" gradientUnits="userSpaceOnUse" id="color-9"><stop offset="0" stop-color="#c7c7c7"/><stop offset="1" stop-color="#c7c7c7" stop-opacity="0"/></linearGradient><linearGradient x1="254.7685" y1="183.21265" x2="256.80726" y2="177.01417" gradientUnits="userSpaceOnUse" id="color-10"><stop offset="0" stop-color="#c7c7c7"/><stop offset="1" stop-color="#c7c7c7" stop-opacity="0"/></linearGradient></defs><g transform="translate(-222.75,-161.06438)"><g data-paper-data="{&quot;isPaintingLayer&quot;:true}" fill-rule="nonzero" stroke-linejoin="miter" stroke-miterlimit="10" stroke-dasharray="" stroke-dashoffset="0" style="mix-blend-mode: normal"><path d="M242.21055,164.23857l-9.59703,-0.21567l9.70486,-2.0488z" fill="url(#color-1)" stroke="#000000" stroke-width="0" stroke-linecap="round"/><path d="M242.17283,198.06006l-9.70486,-2.0488l9.59703,-0.21567z" data-paper-data="{&quot;index&quot;:null}" fill="url(#color-2)" stroke="#000000" stroke-width="0" stroke-linecap="round"/><path d="M229.59776,177.03406c0,0 4.43719,-0.79065 6.63632,-1.03241c2.17305,-0.23888 4.96745,-0.30535 4.96745,-0.30535l-0.93748,-13.6126l2.41924,-0.92432l5.35966,4.73175l0.02167,9.78998l5.04638,-0.01118l3.44026,3.92857l-3.42261,4.0447l-5.24823,0.01161l-0.07837,10.19391l-5.03521,5.05755l-1.97427,-1.1001l0.32569,-14.1364c0,0 -2.41405,0.02822 -4.70049,-0.28321c-2.06604,-0.28141 -6.80905,-1.40708 -6.80905,-1.40708l0.01006,4.54175l-1.91428,1.51816l-0.92444,-7.26478l-3.33128,-0.29542l0.09802,-1.31229l3.22745,-1.01643l0.18666,-6.86352l2.22242,0.90343z" fill="#ff0000" stroke="#000000" stroke-width="0" stroke-linecap="round"/><path d="M248.09959,167.01914l-7.46606,0.9149l-0.43295,-5.89656l2.41902,-0.9731l5.41129,4.64025z" fill="#ffffff" stroke="#ffffff" stroke-width="0" stroke-linecap="round"/><path d="M247.82461,193.84885l-5.02679,5.08676l-2.50363,-1.23081l0.47549,-5.93448l7.05214,0.82205z" data-paper-data="{&quot;index&quot;:null}" fill="#ffffff" stroke="#ffffff" stroke-width="0" stroke-linecap="round"/><path d="M239.65001,182.63334c0,0 -5.70937,-0.85601 -7.07585,-1.17135c-1.62263,-0.37446 -5.62416,-1.52865 -5.62416,-1.52865" fill="none" stroke="#ff1b1b" stroke-width="1.5" stroke-linecap="round"/><path d="M254.21125,177.69149l-17.03469,-1.67252l16.03281,-0.24926l1.64369,2.13414z" fill="#ffffff" stroke="#ffffff" stroke-width="0.5" stroke-linecap="round"/><path d="M254.71842,181.46712l-1.63423,2.14139l-16.03376,-0.17829l17.02712,-1.74792z" data-paper-data="{&quot;index&quot;:null}" fill="#ffffff" stroke="#ffffff" stroke-width="0.5" stroke-linecap="round"/><path d="M241.13954,183.80214l6.77509,-0.015l0.00699,3.15732l-6.77509,0.015z" fill="url(#color-3)" stroke="none" stroke-width="0" stroke-linecap="butt"/><path d="M241.18042,172.55403l6.77509,-0.015l0.00699,3.15732l-6.77509,0.015z" data-paper-data="{&quot;index&quot;:null}" fill="url(#color-4)" stroke="none" stroke-width="0" stroke-linecap="butt"/><path d="M229.62438,181.98584l0.07583,4.5385l-2.03575,1.5174l-0.87083,-7.10209l5.66052,1.63192z" fill="#ffffff" stroke="#ffffff" stroke-width="0" stroke-linecap="round"/><path d="M232.94023,176.52639l-6.16119,1.64345l0.15378,-7.28524l2.28409,1.32847l0.38918,4.80358z" data-paper-data="{&quot;index&quot;:null}" fill="#ffffff" stroke="#ffffff" stroke-width="0" stroke-linecap="round"/><path d="M255.0041,179.70026c-0.01138,0.95876 -0.91119,2.26196 -0.91119,2.26196l-2.25939,0.24932c0,0 0.702,-1.40629 0.72741,-2.50587c0.0254,-1.09958 -0.61593,-2.31966 -0.61593,-2.31966l2.1994,0.23945c0,0 0.87108,1.11604 0.8597,2.0748z" fill="#c7ffff" stroke="#000000" stroke-width="0" stroke-linecap="round"/><g stroke="none" stroke-width="0" stroke-linecap="butt"><path d="M256.90991,182.27549l-0.42437,-2.23623l0.67625,-2.09505l0.36735,2.38842z" data-paper-data="{&quot;index&quot;:null}" fill="url(#color-5)"/><path d="M255.90832,181.66481l0.56418,-1.7153l0.50595,2.71801l-0.60078,1.48603z" data-paper-data="{&quot;index&quot;:null}" fill="url(#color-6)"/><g><path d="M256.33508,183.17825c-0.46458,-0.22411 -0.79837,-1.82727 -0.72642,-3.81544c0.07195,-1.98817 0.48549,-3.24256 0.97332,-3.00724c0.48783,0.23533 0.79577,1.8498 0.72424,3.82613c-0.07152,1.97633 -0.50657,3.22065 -0.97115,2.99654z" fill="url(#color-7)"/><path d="M257.02128,180.02569c-0.0477,1.31805 -0.33785,2.1479 -0.64768,1.99844c-0.30983,-0.14946 -0.53244,-1.21864 -0.48445,-2.54458c0.04798,-1.32594 0.32379,-2.16251 0.64912,-2.00557c0.32534,0.15694 0.53071,1.23366 0.48301,2.55171z" fill="url(#color-8)"/><path d="M256.07475,177.80967l0.42437,2.23623l-0.67625,2.09505l-0.36736,-2.38842z" fill="url(#color-9)"/><path d="M257.06023,178.37318l-0.56418,1.7153l-0.50595,-2.71801l0.60078,-1.48603z" data-paper-data="{&quot;index&quot;:null}" fill="url(#color-10)"/></g></g><path d="M223.5,181.76191v-4.14286" fill="none" stroke="#ff0000" stroke-width="1.5" stroke-linecap="round"/><path d="M248.64286,190.7619l-2.57143,-0.28571" fill="none" stroke="#ff0000" stroke-width="1.5" stroke-linecap="round"/><path d="M249.21429,168.76191l-2,0.28571" fill="none" stroke="#ff0000" stroke-width="1.5" stroke-linecap="round"/><g stroke="#a6caca" stroke-width="0.5" stroke-linecap="round"><path d="M244.40768,181.01703c0,0 -1.24554,-0.55811 -1.24554,-1.24554c0,-0.68743 1.24554,-1.24554 1.24554,-1.24554l3.47768,0.01782c0,0 1.24554,0.55811 1.24554,1.24554c0,0.68744 -1.24554,1.24555 -1.24554,1.24555z" fill="#c7ffff"/><path d="M247.48111,178.66351v2.15143" fill="none"/><path d="M246.50318,178.66351v2.05364" fill="none"/><path d="M244.93851,180.81494v-2.24922" fill="none"/><path d="M245.92903,178.48052v2.24922" fill="none"/></g><path d="M248.14548,168.61169c0.22952,0.01326 0.22952,0.24942 0.22952,0.24942l-0.04199,0.30534c-0.8861,1.32915 -1.51933,4.51013 -3.12468,4.528c-0.67515,0 -2.761,-0.0317 -2.4076,-1.31673c0.14164,-0.51504 0.98502,-0.7906 0.90947,-1.31939c-0.0879,-0.61518 -0.56834,-1.04706 -0.58333,-1.64442c0.4972,-1.953 3.68371,-1.46521 4.94326,-0.85973c0,0 0.03835,0.01918 0.07534,0.05752z" fill="#d80000" stroke="none" stroke-width="0.5" stroke-linecap="butt"/><path d="M245.92728,186.07665c0.09322,-0.04546 0.19723,-0.01079 0.19723,-0.01079l0.30351,0.1035c0.46404,0.31917 1.5057,1.78258 1.30422,2.31712c-0.35741,0.94826 -1.49551,2.38206 -2.53581,1.40253c-0.25526,-0.74074 -1.29174,-2.73618 -1.31006,-3.31325c-0.03896,-1.22682 1.28042,-0.99081 2.04092,-0.49911z" fill="#d80000" stroke="none" stroke-width="0.5" stroke-linecap="butt"/><path d="M241.54584,188.27588c0.02052,-0.03885 0.05616,-0.07608 0.11509,-0.10555c0.22361,-0.1118 0.33541,0.1118 0.33541,0.1118c1.38838,2.77676 -1.51809,2.65725 -0.6426,-0.05816z" fill="#d80000" stroke="none" stroke-width="0.5" stroke-linecap="butt"/><path d="M241.53928,178.73485c-0.97888,0.3192 -1.82549,0.84823 -3.00581,0.53877c-1.77366,-0.46503 -0.26642,-1.74042 0.83227,-1.76225c0.97596,-0.3371 2.12931,-0.98531 3.10419,-0.13428c0.79468,0.69372 0.09802,1.35451 -0.6972,1.35777z" fill="#d80000" stroke="none" stroke-width="0.5" stroke-linecap="butt"/><path d="M231.64944,179.70927c-1.92195,-2.12353 2.83686,-2.72068 4.32034,-2.19646c0.23459,2.09955 -2.93975,3.99334 -4.32034,2.19646z" fill="#d80000" stroke="none" stroke-width="0.5" stroke-linecap="butt"/></g></g></svg>