<svg version="1.1" xmlns="http://www.w3.org/2000/svg" xmlns:xlink="http://www.w3.org/1999/xlink" width="72" height="424.25" viewBox="0,0,72,424.25"><defs><linearGradient x1="237.3961" y1="308.73137" x2="216.35717" y2="308.73137" gradientUnits="userSpaceOnUse" id="color-1"><stop offset="0" stop-color="#e6fffe"/><stop offset="1" stop-color="#e6fffe" stop-opacity="0"/></linearGradient><linearGradient x1="244.40909" y1="309.39803" x2="265.44808" y2="309.39803" gradientUnits="userSpaceOnUse" id="color-2"><stop offset="0" stop-color="#e6fffe"/><stop offset="1" stop-color="#e6fffe" stop-opacity="0"/></linearGradient><radialGradient cx="239.5" cy="179" r="36" gradientUnits="userSpaceOnUse" id="color-3"><stop offset="0" stop-color="#e6fffe"/><stop offset="1" stop-color="#e6fffe" stop-opacity="0"/></radialGradient><radialGradient cx="239.5" cy="179" r="27.11687" gradientUnits="userSpaceOnUse" id="color-4"><stop offset="0" stop-color="#e6fffe"/><stop offset="1" stop-color="#e6fffe" stop-opacity="0"/></radialGradient><radialGradient cx="239.5" cy="179" r="32.72724" gradientUnits="userSpaceOnUse" id="color-5"><stop offset="0" stop-color="#e6fffe"/><stop offset="1" stop-color="#e6fffe" stop-opacity="0"/></radialGradient></defs><g transform="translate(-203.5,-140.5)"><g data-paper-data="{&quot;isPaintingLayer&quot;:true}" fill-rule="nonzero" stroke-linejoin="miter" stroke-miterlimit="10" stroke-dasharray="" stroke-dashoffset="0" style="mix-blend-mode: normal"><path d="M216.35717,509.12939v-340.79606h21.03899v340.79606z" data-paper-data="{&quot;index&quot;:null}" fill="url(#color-1)" stroke="none" stroke-width="0" stroke-linecap="butt"/><path d="M234.35717,516v-348h14.96107v348z" fill="#e6fffe" stroke="none" stroke-width="0" stroke-linecap="butt"/><path d="M244.40909,511.79606v-344.79606h21.03899v344.79606z" fill="url(#color-2)" stroke="none" stroke-width="0" stroke-linecap="butt"/><path d="M245.17072,562.25c0,0 3.03133,-25.95864 -0.15319,-53.21686c-2.63821,-22.58204 -11.59547,-46.05601 -11.59547,-56.40109c0,-12.20591 8.15256,-32.73541 9.18049,-56.89232c0.79471,-18.6765 -9.3261,-39.52123 -8.93393,-60.36394c0.38183,-20.29232 11.48309,-40.58273 13.34533,-58.86842c4.06355,-39.90155 -1.84326,-70.25737 -1.84326,-70.25737" data-paper-data="{&quot;index&quot;:null}" fill="none" stroke="#e6fffe" stroke-width="5" stroke-linecap="round"/><path d="M203.5,179c0,-21.26296 16.11773,-38.5 36,-38.5c19.88225,0 36,17.23704 36,38.5c0,21.26296 -16.11775,38.5 -36,38.5c-19.88227,0 -36,-17.23704 -36,-38.5z" fill="url(#color-3)" stroke="none" stroke-width="0" stroke-linecap="butt"/><path d="M212.38313,179c0,-16.01626 12.14064,-29 27.11687,-29c14.97623,0 27.11687,12.98374 27.11687,29c0,16.01626 -12.14064,29 -27.11687,29c-14.97623,0 -27.11687,-12.98374 -27.11687,-29z" fill="url(#color-4)" stroke="none" stroke-width="0" stroke-linecap="butt"/><path d="M206.77276,179c0,-19.32997 14.65249,-35 32.72724,-35c18.07475,0 32.72724,15.67003 32.72724,35c0,19.32997 -14.65249,35 -32.72724,35c-18.07475,0 -32.72724,-15.67003 -32.72724,-35z" fill="url(#color-5)" stroke="none" stroke-width="0" stroke-linecap="butt"/><path d="M249.17072,451.25c0,0 3.03133,-25.95864 -0.15319,-53.21686c-2.63821,-22.58204 -11.59547,-46.05601 -11.59547,-56.40109c0,-12.20591 8.15256,-32.73541 9.18049,-56.89232c0.79471,-18.6765 -9.3261,-39.52123 -8.93393,-60.36394c0.38183,-20.29232 11.48309,-40.58273 13.34533,-58.86842" data-paper-data="{&quot;index&quot;:null}" fill="none" stroke="#e6fffe" stroke-width="5" stroke-linecap="round"/></g></g></svg>