<svg version="1.1" xmlns="http://www.w3.org/2000/svg" xmlns:xlink="http://www.w3.org/1999/xlink" width="195" height="195" viewBox="0,0,195,195"><g transform="translate(-142.5,-82.5)"><g data-paper-data="{&quot;isPaintingLayer&quot;:true}" fill-rule="nonzero" stroke-linejoin="miter" stroke-miterlimit="10" stroke-dasharray="" stroke-dashoffset="0" style="mix-blend-mode: normal"><path d="M207.18674,184.56423c-0.56374,0 -1.09691,-0.09848 -1.59952,-0.29545c-0.49582,-0.20376 -0.93051,-0.49921 -1.30407,-0.88636c-0.37356,-0.39394 -0.66562,-0.87277 -0.87617,-1.43651c-0.21055,-0.56374 -0.31583,-1.21237 -0.31583,-1.94591c0,-0.95767 0.17659,-1.77611 0.52978,-2.45531c0.35998,-0.6792 0.849,-1.19879 1.46707,-1.55877c0.62487,-0.36677 1.32444,-0.55015 2.09873,-0.55015c1.07993,0 1.93572,0.2513 2.56738,0.75391c0.63166,0.50261 1.05955,1.20558 1.28369,2.10892l-1.49764,0.23432c-0.1698,-0.51619 -0.44488,-0.92711 -0.82523,-1.23275c-0.37356,-0.31243 -0.8524,-0.46865 -1.43651,-0.46865c-0.58411,-0.01358 -1.07314,0.11207 -1.46707,0.37696c-0.38714,0.26489 -0.6792,0.63845 -0.87617,1.12068c-0.19697,0.47544 -0.29545,1.03239 -0.29545,1.67084c0,0.63845 0.09509,1.19539 0.28526,1.67084c0.19697,0.47544 0.49242,0.84561 0.88636,1.11049c0.39394,0.2581 0.88296,0.39054 1.46707,0.39733c0.44148,0.00679 0.82863,-0.07132 1.16143,-0.23432c0.33281,-0.16301 0.60449,-0.41092 0.81504,-0.74373c0.21055,-0.3396 0.35318,-0.76071 0.4279,-1.26331h-1.54858v-1.15125h3.10735c0.00679,0.06792 0.01019,0.1664 0.01019,0.29545c0.00679,0.12226 0.01019,0.19357 0.01019,0.21395c0,0.82863 -0.16301,1.56556 -0.48902,2.2108c-0.32602,0.63845 -0.79467,1.14106 -1.40595,1.50783c-0.60449,0.36677 -1.33123,0.55015 -2.18024,0.55015zM215.37799,184.56423c-0.65203,0 -1.22596,-0.14603 -1.72178,-0.43808c-0.48902,-0.29885 -0.86938,-0.70977 -1.14106,-1.23275c-0.26489,-0.52299 -0.39733,-1.12068 -0.39733,-1.79309c0,-0.69279 0.13584,-1.29727 0.40752,-1.81347c0.27847,-0.52299 0.66222,-0.93051 1.15125,-1.22256c0.48902,-0.29206 1.05616,-0.43808 1.7014,-0.43808c0.66562,0 1.24294,0.14942 1.73196,0.44827c0.48902,0.29206 0.86938,0.69958 1.14106,1.22256c0.27168,0.52299 0.40752,1.12408 0.40752,1.80328c0,0.6792 -0.13584,1.28029 -0.40752,1.80328c-0.27168,0.51619 -0.65543,0.92371 -1.15125,1.22256c-0.48902,0.29206 -1.06295,0.43808 -1.72178,0.43808zM215.37799,183.18885c0.58411,0 1.0188,-0.19357 1.30407,-0.58072c0.28526,-0.39394 0.4279,-0.89655 0.4279,-1.50783c0,-0.63845 -0.14603,-1.14785 -0.43808,-1.5282c-0.28526,-0.38035 -0.71656,-0.57053 -1.29388,-0.57053c-0.39394,0 -0.71656,0.0883 -0.96786,0.26489c-0.2513,0.17659 -0.43808,0.4245 -0.56034,0.74373c-0.12226,0.31243 -0.18338,0.67581 -0.18338,1.09012c0,0.63166 0.14263,1.13766 0.4279,1.51802c0.29206,0.38035 0.71995,0.57053 1.28369,0.57053zM222.89565,184.56423c-0.65203,0 -1.22596,-0.14603 -1.72178,-0.43808c-0.48902,-0.29885 -0.86938,-0.70977 -1.14106,-1.23275c-0.26489,-0.52299 -0.39733,-1.12068 -0.39733,-1.79309c0,-0.69279 0.13584,-1.29727 0.40752,-1.81347c0.27847,-0.52299 0.66222,-0.93051 1.15125,-1.22256c0.48902,-0.29206 1.05616,-0.43808 1.7014,-0.43808c0.66562,0 1.24294,0.14942 1.73196,0.44827c0.48902,0.29206 0.86938,0.69958 1.14106,1.22256c0.27168,0.52299 0.40752,1.12408 0.40752,1.80328c0,0.6792 -0.13584,1.28029 -0.40752,1.80328c-0.27168,0.51619 -0.65543,0.92371 -1.15125,1.22256c-0.48902,0.29206 -1.06295,0.43808 -1.72178,0.43808zM222.89565,183.18885c0.58411,0 1.0188,-0.19357 1.30407,-0.58072c0.28526,-0.39394 0.4279,-0.89655 0.4279,-1.50783c0,-0.63845 -0.14603,-1.14785 -0.43808,-1.5282c-0.28526,-0.38035 -0.71656,-0.57053 -1.29388,-0.57053c-0.39394,0 -0.71656,0.0883 -0.96786,0.26489c-0.2513,0.17659 -0.43808,0.4245 -0.56034,0.74373c-0.12226,0.31243 -0.18338,0.67581 -0.18338,1.09012c0,0.63166 0.14263,1.13766 0.4279,1.51802c0.29206,0.38035 0.71995,0.57053 1.28369,0.57053zM230.14843,184.56423c-0.60449,0 -1.13087,-0.15282 -1.57914,-0.45846c-0.44827,-0.30564 -0.79806,-0.71995 -1.04937,-1.24294c-0.24451,-0.52299 -0.36677,-1.11049 -0.36677,-1.76253c0,-0.66562 0.12226,-1.25992 0.36677,-1.7829c0.2513,-0.52299 0.60449,-0.9339 1.05955,-1.23275c0.46186,-0.30564 1.00182,-0.45846 1.6199,-0.45846c0.62487,0 1.14785,0.15282 1.56896,0.45846c0.4279,0.29885 0.75052,0.70977 0.96786,1.23275c0.22414,0.52299 0.3362,1.11729 0.3362,1.7829c0,0.65203 -0.11207,1.23954 -0.3362,1.76253c-0.21734,0.52299 -0.54336,0.9373 -0.97805,1.24294c-0.43469,0.30564 -0.97126,0.45846 -1.60971,0.45846zM230.37257,183.24997c0.39394,0 0.70977,-0.0883 0.94749,-0.26489c0.24451,-0.18338 0.4211,-0.43808 0.52978,-0.7641c0.11546,-0.32602 0.1732,-0.69958 0.1732,-1.12068c0,-0.43469 -0.05773,-0.81165 -0.1732,-1.13087c-0.10867,-0.32602 -0.28187,-0.57732 -0.51959,-0.75391c-0.23093,-0.18338 -0.53317,-0.27508 -0.90673,-0.27508c-0.39394,0 -0.71995,0.09848 -0.97805,0.29545c-0.2513,0.19018 -0.43808,0.44827 -0.56034,0.77429c-0.12226,0.32602 -0.18338,0.68939 -0.18338,1.09012c0,0.40073 0.05773,0.7641 0.1732,1.09012c0.12226,0.32602 0.30564,0.58411 0.55015,0.77429c0.2513,0.19018 0.56713,0.28526 0.94749,0.28526zM232.02302,184.38084v-4.61517h-0.18338v-4.14652h1.47726v8.7617zM241.93901,182.75076v-2.18024h-2.17005v-1.15125h2.17005v-2.17005h1.15125v2.17005h2.17005v1.15125h-2.17005v2.18024zM248.36125,184.38084v-7.16218l-1.64027,1.00861v-1.6199l1.64027,-0.98824h1.49764v8.7617zM257.75227,184.56423c-0.62487,0 -1.17502,-0.13244 -1.65046,-0.39733c-0.46865,-0.26489 -0.83542,-0.63505 -1.10031,-1.11049c-0.26489,-0.47544 -0.39733,-1.0222 -0.39733,-1.64027v-2.82208c0,-0.62487 0.13244,-1.17162 0.39733,-1.64027c0.26489,-0.47544 0.63166,-0.84561 1.10031,-1.11049c0.47544,-0.27168 1.02559,-0.40752 1.65046,-0.40752c0.61807,0 1.16143,0.13584 1.63008,0.40752c0.47544,0.26489 0.84561,0.63505 1.11049,1.11049c0.27168,0.46865 0.40752,1.01541 0.40752,1.64027v2.82208c0,0.61807 -0.13584,1.16483 -0.40752,1.64027c-0.26489,0.47544 -0.63505,0.84561 -1.11049,1.11049c-0.46865,0.26489 -1.01201,0.39733 -1.63008,0.39733zM257.75227,183.16847c0.30564,0 0.58411,-0.07132 0.83542,-0.21395c0.2513,-0.14942 0.44827,-0.34979 0.59091,-0.60109c0.14942,-0.2513 0.22414,-0.52978 0.22414,-0.83542v-3.03603c0,-0.31243 -0.07471,-0.59091 -0.22414,-0.83542c-0.14263,-0.2513 -0.3396,-0.45167 -0.59091,-0.60109c-0.2513,-0.14942 -0.52978,-0.22414 -0.83542,-0.22414c-0.31243,0 -0.5943,0.07471 -0.84561,0.22414c-0.2513,0.14942 -0.45167,0.34979 -0.60109,0.60109c-0.14263,0.24451 -0.21395,0.52299 -0.21395,0.83542v3.03603c0,0.30564 0.07132,0.58411 0.21395,0.83542c0.14942,0.2513 0.34979,0.45167 0.60109,0.60109c0.2513,0.14263 0.53317,0.21395 0.84561,0.21395zM265.75651,184.56423c-0.62487,0 -1.17502,-0.13244 -1.65046,-0.39733c-0.46865,-0.26489 -0.83542,-0.63505 -1.10031,-1.11049c-0.26489,-0.47544 -0.39733,-1.0222 -0.39733,-1.64027v-2.82208c0,-0.62487 0.13244,-1.17162 0.39733,-1.64027c0.26489,-0.47544 0.63166,-0.84561 1.10031,-1.11049c0.47544,-0.27168 1.02559,-0.40752 1.65046,-0.40752c0.61807,0 1.16143,0.13584 1.63008,0.40752c0.47544,0.26489 0.84561,0.63505 1.11049,1.11049c0.27168,0.46865 0.40752,1.01541 0.40752,1.64027v2.82208c0,0.61807 -0.13584,1.16483 -0.40752,1.64027c-0.26489,0.47544 -0.63505,0.84561 -1.11049,1.11049c-0.46865,0.26489 -1.01201,0.39733 -1.63008,0.39733zM265.75651,183.16847c0.30564,0 0.58411,-0.07132 0.83542,-0.21395c0.2513,-0.14942 0.44827,-0.34979 0.59091,-0.60109c0.14942,-0.2513 0.22414,-0.52978 0.22414,-0.83542v-3.03603c0,-0.31243 -0.07471,-0.59091 -0.22414,-0.83542c-0.14263,-0.2513 -0.3396,-0.45167 -0.59091,-0.60109c-0.2513,-0.14942 -0.52978,-0.22414 -0.83542,-0.22414c-0.31243,0 -0.5943,0.07471 -0.84561,0.22414c-0.2513,0.14942 -0.45167,0.34979 -0.60109,0.60109c-0.14263,0.24451 -0.21395,0.52299 -0.21395,0.83542v3.03603c0,0.30564 0.07132,0.58411 0.21395,0.83542c0.14942,0.2513 0.34979,0.45167 0.60109,0.60109c0.2513,0.14263 0.53317,0.21395 0.84561,0.21395zM273.76076,184.56423c-0.62487,0 -1.17502,-0.13244 -1.65046,-0.39733c-0.46865,-0.26489 -0.83542,-0.63505 -1.10031,-1.11049c-0.26489,-0.47544 -0.39733,-1.0222 -0.39733,-1.64027v-2.82208c0,-0.62487 0.13244,-1.17162 0.39733,-1.64027c0.26489,-0.47544 0.63166,-0.84561 1.10031,-1.11049c0.47544,-0.27168 1.02559,-0.40752 1.65046,-0.40752c0.61807,0 1.16143,0.13584 1.63008,0.40752c0.47544,0.26489 0.84561,0.63505 1.11049,1.11049c0.27168,0.46865 0.40752,1.01541 0.40752,1.64027v2.82208c0,0.61807 -0.13584,1.16483 -0.40752,1.64027c-0.26489,0.47544 -0.63505,0.84561 -1.11049,1.11049c-0.46865,0.26489 -1.01201,0.39733 -1.63008,0.39733zM273.76076,183.16847c0.30564,0 0.58411,-0.07132 0.83542,-0.21395c0.2513,-0.14942 0.44827,-0.34979 0.59091,-0.60109c0.14942,-0.2513 0.22414,-0.52978 0.22414,-0.83542v-3.03603c0,-0.31243 -0.07471,-0.59091 -0.22414,-0.83542c-0.14263,-0.2513 -0.3396,-0.45167 -0.59091,-0.60109c-0.2513,-0.14942 -0.52978,-0.22414 -0.83542,-0.22414c-0.31243,0 -0.5943,0.07471 -0.84561,0.22414c-0.2513,0.14942 -0.45167,0.34979 -0.60109,0.60109c-0.14263,0.24451 -0.21395,0.52299 -0.21395,0.83542v3.03603c0,0.30564 0.07132,0.58411 0.21395,0.83542c0.14942,0.2513 0.34979,0.45167 0.60109,0.60109c0.2513,0.14263 0.53317,0.21395 0.84561,0.21395z" fill="#ffffff" stroke="#ffffff" stroke-width="0.25" stroke-linecap="square"/><path d="M142.5,277.5v-195h195v195z" fill="none" stroke="none" stroke-width="0" stroke-linecap="butt"/></g></g></svg>