<svg version="1.1" xmlns="http://www.w3.org/2000/svg" xmlns:xlink="http://www.w3.org/1999/xlink" width="58.25411" height="75.0031" viewBox="0,0,58.25411,75.0031"><defs><radialGradient cx="240.01834" cy="207.64308" r="6.32236" gradientUnits="userSpaceOnUse" id="color-1"><stop offset="0" stop-color="#fff156"/><stop offset="1" stop-color="#fff156" stop-opacity="0"/></radialGradient><linearGradient x1="239.68185" y1="206.57576" x2="239.68185" y2="212.84849" gradientUnits="userSpaceOnUse" id="color-2"><stop offset="0" stop-color="#ff8600"/><stop offset="1" stop-color="#ff8600" stop-opacity="0"/></linearGradient><radialGradient cx="240.01411" cy="208.21142" r="8.89813" gradientUnits="userSpaceOnUse" id="color-3"><stop offset="0" stop-color="#fff696"/><stop offset="1" stop-color="#fff696" stop-opacity="0"/></radialGradient><radialGradient cx="240.41806" cy="205.42799" r="12.35459" gradientUnits="userSpaceOnUse" id="color-4"><stop offset="0" stop-color="#fcd81d"/><stop offset="1" stop-color="#fcd81d" stop-opacity="0"/></radialGradient><linearGradient x1="239.78413" y1="204.32197" x2="239.78413" y2="221.1856" gradientUnits="userSpaceOnUse" id="color-5"><stop offset="0" stop-color="#ffffff"/><stop offset="1" stop-color="#ffffff" stop-opacity="0"/></linearGradient><radialGradient cx="239.85353" cy="208.4453" r="6.32236" gradientUnits="userSpaceOnUse" id="color-6"><stop offset="0" stop-color="#ffee35"/><stop offset="1" stop-color="#ffee35" stop-opacity="0"/></radialGradient><linearGradient x1="235.18152" y1="206.02091" x2="244.21561" y2="206.02091" gradientUnits="userSpaceOnUse" id="color-7"><stop offset="0" stop-color="#5f5f5f"/><stop offset="1" stop-color="#4c4c4c"/></linearGradient><linearGradient x1="235.18152" y1="206.02091" x2="244.21561" y2="206.02091" gradientUnits="userSpaceOnUse" id="color-8"><stop offset="0" stop-color="#949494"/><stop offset="1" stop-color="#757575"/></linearGradient><linearGradient x1="235.46008" y1="204.21927" x2="238.39113" y2="204.21927" gradientUnits="userSpaceOnUse" id="color-9"><stop offset="0" stop-color="#4c4c4c"/><stop offset="1" stop-color="#4c4c4c" stop-opacity="0"/></linearGradient><linearGradient x1="243.93641" y1="204.21926" x2="241.00536" y2="204.21926" gradientUnits="userSpaceOnUse" id="color-10"><stop offset="0" stop-color="#5f5f5f"/><stop offset="1" stop-color="#5f5f5f" stop-opacity="0"/></linearGradient><linearGradient x1="237.11586" y1="167.87076" x2="242.89364" y2="167.87076" gradientUnits="userSpaceOnUse" id="color-11"><stop offset="0" stop-color="#5f5f5f"/><stop offset="1" stop-color="#a8a8a8"/></linearGradient><linearGradient x1="240.04891" y1="161.54812" x2="240.04891" y2="162.48361" gradientUnits="userSpaceOnUse" id="color-12"><stop offset="0" stop-color="#7a7a7a"/><stop offset="1" stop-color="#646464"/></linearGradient><linearGradient x1="226.64692" y1="178.86466" x2="226.64692" y2="200.90383" gradientUnits="userSpaceOnUse" id="color-13"><stop offset="0" stop-color="#00a29c"/><stop offset="1" stop-color="#00478c"/></linearGradient><linearGradient x1="253.35315" y1="178.86466" x2="253.35315" y2="200.90383" gradientUnits="userSpaceOnUse" id="color-14"><stop offset="0" stop-color="#00a29c"/><stop offset="1" stop-color="#00478c"/></linearGradient><linearGradient x1="239.05953" y1="165.17487" x2="239.25951" y2="165.17487" gradientUnits="userSpaceOnUse" id="color-15"><stop offset="0" stop-color="#00eeec"/><stop offset="1" stop-color="#1cfff4"/></linearGradient><linearGradient x1="233.00474" y1="156.23006" x2="233.00474" y2="200.78562" gradientUnits="userSpaceOnUse" id="color-16"><stop offset="0" stop-color="#00ffad"/><stop offset="1" stop-color="#00478c"/></linearGradient><linearGradient x1="233.00474" y1="156.23006" x2="233.00474" y2="200.78562" gradientUnits="userSpaceOnUse" id="color-17"><stop offset="0" stop-color="#00ffad"/><stop offset="1" stop-color="#00478c"/></linearGradient><linearGradient x1="246.78256" y1="156.22213" x2="246.78256" y2="200.77768" gradientUnits="userSpaceOnUse" id="color-18"><stop offset="0" stop-color="#00ffad"/><stop offset="1" stop-color="#00478c"/></linearGradient><linearGradient x1="246.78256" y1="156.22213" x2="246.78256" y2="200.77768" gradientUnits="userSpaceOnUse" id="color-19"><stop offset="0" stop-color="#00ffad"/><stop offset="1" stop-color="#00478c"/></linearGradient><linearGradient x1="216.22561" y1="178.60526" x2="216.22561" y2="188.09108" gradientUnits="userSpaceOnUse" id="color-20"><stop offset="0" stop-color="#00a29c"/><stop offset="1" stop-color="#007995"/></linearGradient><linearGradient x1="250.67145" y1="193.40467" x2="253.56033" y2="193.40467" gradientUnits="userSpaceOnUse" id="color-21"><stop offset="0" stop-color="#002f5e"/><stop offset="1" stop-color="#002f5e" stop-opacity="0"/></linearGradient><linearGradient x1="234.96939" y1="203.97261" x2="244.42397" y2="203.97261" gradientUnits="userSpaceOnUse" id="color-22"><stop offset="0" stop-color="#888888"/><stop offset="1" stop-color="#696969"/></linearGradient><linearGradient x1="250.52461" y1="186.04025" x2="253.52461" y2="186.04025" gradientUnits="userSpaceOnUse" id="color-23"><stop offset="0" stop-color="#dbdbdb"/><stop offset="1" stop-color="#dbdbdb" stop-opacity="0"/></linearGradient><linearGradient x1="237.61116" y1="197.61641" x2="242.16671" y2="197.61641" gradientUnits="userSpaceOnUse" id="color-24"><stop offset="0" stop-color="#8b8b8b"/><stop offset="1" stop-color="#7f7f7f"/></linearGradient><linearGradient x1="238.01116" y1="192.7664" x2="241.76672" y2="192.7664" gradientUnits="userSpaceOnUse" id="color-25"><stop offset="0" stop-color="#8b8b8b"/><stop offset="1" stop-color="#7f7f7f"/></linearGradient><linearGradient x1="263.66999" y1="178.60526" x2="263.66999" y2="188.09109" gradientUnits="userSpaceOnUse" id="color-26"><stop offset="0" stop-color="#00a29c"/><stop offset="1" stop-color="#007995"/></linearGradient><linearGradient x1="215.368" y1="179.88451" x2="215.368" y2="192.11528" gradientUnits="userSpaceOnUse" id="color-27"><stop offset="0" stop-color="#009a95"/><stop offset="1" stop-color="#005da9"/></linearGradient><linearGradient x1="264.63206" y1="179.88451" x2="264.63206" y2="192.11528" gradientUnits="userSpaceOnUse" id="color-28"><stop offset="0" stop-color="#009a95"/><stop offset="1" stop-color="#005da9"/></linearGradient><linearGradient x1="214.13724" y1="178.94646" x2="214.13724" y2="192.5362" gradientUnits="userSpaceOnUse" id="color-29"><stop offset="0" stop-color="#007c78"/><stop offset="1" stop-color="#00376d"/></linearGradient><linearGradient x1="265.86287" y1="178.94646" x2="265.86287" y2="192.5362" gradientUnits="userSpaceOnUse" id="color-30"><stop offset="0" stop-color="#007c78"/><stop offset="1" stop-color="#00376d"/></linearGradient><linearGradient x1="229.2131" y1="179.10309" x2="232.99088" y2="179.10309" gradientUnits="userSpaceOnUse" id="color-31"><stop offset="0" stop-color="#00b67c"/><stop offset="1" stop-color="#00b67c" stop-opacity="0"/></linearGradient><linearGradient x1="229.2131" y1="179.10309" x2="232.99088" y2="179.10309" gradientUnits="userSpaceOnUse" id="color-32"><stop offset="0" stop-color="#00847e"/><stop offset="1" stop-color="#00847e" stop-opacity="0"/></linearGradient><linearGradient x1="229.2131" y1="179.10309" x2="232.99088" y2="179.10309" gradientUnits="userSpaceOnUse" id="color-33"><stop offset="0" stop-color="#004183"/><stop offset="1" stop-color="#004183" stop-opacity="0"/></linearGradient><linearGradient x1="229.25005" y1="172.98333" x2="232.95003" y2="172.98333" gradientUnits="userSpaceOnUse" id="color-34"><stop offset="0" stop-color="#009c84"/><stop offset="1" stop-color="#009c84" stop-opacity="0"/></linearGradient><linearGradient x1="229.25005" y1="188.08333" x2="232.95003" y2="188.08333" gradientUnits="userSpaceOnUse" id="color-35"><stop offset="0" stop-color="#00779c"/><stop offset="1" stop-color="#00779c" stop-opacity="0"/></linearGradient><linearGradient x1="238.90798" y1="126.50033" x2="238.90798" y2="220.52638" gradientUnits="userSpaceOnUse" id="color-36"><stop offset="0" stop-color="#a300f2"/><stop offset="1" stop-color="#a300f2" stop-opacity="0"/></linearGradient><linearGradient x1="238.62522" y1="98.48157" x2="238.62522" y2="226.50218" gradientUnits="userSpaceOnUse" id="color-37"><stop offset="0" stop-color="#f1f1f1"/><stop offset="1" stop-color="#f1f1f1" stop-opacity="0"/></linearGradient><linearGradient x1="239.82452" y1="206.11822" x2="239.82452" y2="214.02598" gradientUnits="userSpaceOnUse" id="color-38"><stop offset="0" stop-color="#ff4f00"/><stop offset="1" stop-color="#ff4f00" stop-opacity="0"/></linearGradient><linearGradient x1="239.74366" y1="206.36496" x2="239.74366" y2="211.71079" gradientUnits="userSpaceOnUse" id="color-39"><stop offset="0" stop-color="#ffd400"/><stop offset="1" stop-color="#ffd400" stop-opacity="0"/></linearGradient><linearGradient x1="239.74093" y1="206.0069" x2="239.74093" y2="214.88922" gradientUnits="userSpaceOnUse" id="color-40"><stop offset="0" stop-color="#ffee00"/><stop offset="1" stop-color="#ffee00" stop-opacity="0"/></linearGradient><linearGradient x1="239.65467" y1="205.93395" x2="239.65467" y2="209.82133" gradientUnits="userSpaceOnUse" id="color-41"><stop offset="0" stop-color="#ffee00"/><stop offset="1" stop-color="#ffee00" stop-opacity="0"/></linearGradient><linearGradient x1="242.08443" y1="206.0069" x2="242.08443" y2="209.89428" gradientUnits="userSpaceOnUse" id="color-42"><stop offset="0" stop-color="#ffee00"/><stop offset="1" stop-color="#ffee00" stop-opacity="0"/></linearGradient><linearGradient x1="237.22492" y1="206.0069" x2="237.22492" y2="209.89428" gradientUnits="userSpaceOnUse" id="color-43"><stop offset="0" stop-color="#ffee00"/><stop offset="1" stop-color="#ffee00" stop-opacity="0"/></linearGradient><linearGradient x1="222.51726" y1="181.97988" x2="227.45149" y2="181.97988" gradientUnits="userSpaceOnUse" id="color-44"><stop offset="0" stop-color="#01878f"/><stop offset="1" stop-color="#018097"/></linearGradient><linearGradient x1="222.51726" y1="181.97988" x2="227.4515" y2="181.97988" gradientUnits="userSpaceOnUse" id="color-45"><stop offset="0" stop-color="#01878f"/><stop offset="1" stop-color="#018097"/></linearGradient><linearGradient x1="222.57797" y1="185.90966" x2="227.50277" y2="185.90966" gradientUnits="userSpaceOnUse" id="color-46"><stop offset="0" stop-color="#01878f"/><stop offset="1" stop-color="#018097"/></linearGradient><linearGradient x1="222.57797" y1="185.90966" x2="227.50277" y2="185.90966" gradientUnits="userSpaceOnUse" id="color-47"><stop offset="0" stop-color="#01878f"/><stop offset="1" stop-color="#018097"/></linearGradient><linearGradient x1="257.00279" y1="181.97988" x2="252.06856" y2="181.97988" gradientUnits="userSpaceOnUse" id="color-48"><stop offset="0" stop-color="#01878f"/><stop offset="1" stop-color="#018097"/></linearGradient><linearGradient x1="257.00275" y1="181.97988" x2="252.06855" y2="181.97988" gradientUnits="userSpaceOnUse" id="color-49"><stop offset="0" stop-color="#01878f"/><stop offset="1" stop-color="#018097"/></linearGradient><linearGradient x1="256.94207" y1="185.90966" x2="252.01726" y2="185.90966" gradientUnits="userSpaceOnUse" id="color-50"><stop offset="0" stop-color="#01878f"/><stop offset="1" stop-color="#018097"/></linearGradient><linearGradient x1="256.94207" y1="185.90966" x2="252.01726" y2="185.90966" gradientUnits="userSpaceOnUse" id="color-51"><stop offset="0" stop-color="#01878f"/><stop offset="1" stop-color="#018097"/></linearGradient></defs><g transform="translate(-210.87282,-152.89764)"><g data-paper-data="{&quot;isPaintingLayer&quot;:true}" fill-rule="nonzero" stroke-linejoin="miter" stroke-miterlimit="10" stroke-dasharray="" stroke-dashoffset="0" style="mix-blend-mode: normal"><path d="M245.56427,207.64308c0,3.09004 -2.48299,5.59501 -5.54593,5.59501c-3.06294,0 -5.54593,-2.50497 -5.54593,-5.59501c0,-3.09004 2.48299,-5.59501 5.54593,-5.59501c3.06294,0 5.54593,2.50498 5.54593,5.59501z" fill="url(#color-1)" stroke="none" stroke-width="0" stroke-linecap="butt"/><path d="M236.22733,212.84849v-6.27273c0,0 1.63798,-0.45454 3.45454,-0.45454c1.93782,0 3.45455,0.45454 3.45455,0.45454v6.27273z" fill="url(#color-2)" stroke="none" stroke-width="0" stroke-linecap="butt"/><path d="M238.46943,153.04728c0,0 0.87987,0.91199 1.54546,1.36364c0.66558,0.45165 1.04278,0.53754 1.45454,0.63636c0.41177,0.09883 0.81818,-0.09091 0.81818,-0.09091l1.36364,16.90909l-8.45455,1.36364z" fill="#676767" stroke="#ff0000" stroke-width="0" stroke-linecap="round"/><g fill="none" stroke-linecap="round"><g stroke="#b6b6b6" stroke-width="2.5"><path d="M221.4285,175.37845v4.09091"/></g><path d="M221.88306,175.53754l-0.04545,4.18182" stroke="#c2c2c2" stroke-width="1.5"/></g><g data-paper-data="{&quot;index&quot;:null}" fill="none" stroke-linecap="round"><g stroke="#b6b6b6" stroke-width="2.5"><path d="M259.53301,175.37845v4.09091"/></g><path d="M259.07849,175.53754l0.04545,4.18182" stroke="#c2c2c2" stroke-width="1.5"/></g><path d="M247.81947,208.21142c0,4.34894 -3.49458,7.87446 -7.80538,7.87446c-4.3108,0 -7.80538,-3.52552 -7.80538,-7.87446c0,-4.34894 3.49459,-7.87446 7.80538,-7.87446c4.3108,0 7.80538,3.52552 7.80538,7.87446z" fill="url(#color-3)" stroke="none" stroke-width="0" stroke-linecap="butt"/><path d="M252.60793,205.42799c0,6.82325 -5.45758,12.35459 -12.18986,12.35459c-6.73227,0 -12.18987,-5.53134 -12.18987,-12.35459c0,-6.82325 5.45759,-12.35459 12.18987,-12.35459c6.73227,0 12.18986,5.53134 12.18986,12.35459z" fill="url(#color-4)" stroke="none" stroke-width="0" stroke-linecap="butt"/><g fill="none" stroke="#00386f" stroke-width="1" stroke-linecap="round"><path d="M239.77908,203.02632h-9.0625l-16.875,-8.375"/><path d="M239.84158,202.15132h-9.0625l-16.875,-8.375"/><path d="M239.65408,201.21382h-9.0625l-16.875,-8.375"/></g><g fill="none" stroke="#00386f" stroke-width="1" stroke-linecap="round"><path d="M266.15853,194.65132l-16.875,8.375h-9.0625"/><path d="M266.09603,193.77632l-16.875,8.375h-9.0625"/><path d="M266.28353,192.83882l-16.875,8.375h-9.0625"/></g><path d="M242.28413,204.32197l-2.5,16.86364l-2.5,-16.86364z" fill="url(#color-5)" stroke="#000000" stroke-width="0" stroke-linecap="round"/><path d="M245.39946,208.4453c0,3.09004 -2.48299,5.59501 -5.54593,5.59501c-3.06293,0 -5.54593,-2.50497 -5.54593,-5.59501c0,-3.09004 2.48299,-5.59501 5.54593,-5.59501c3.06293,0 5.54593,2.50497 5.54593,5.59501z" fill="url(#color-6)" stroke="none" stroke-width="0" stroke-linecap="butt"/><path d="M244.21561,206.02091c0,0.46442 -2.02235,0.84091 -4.51705,0.84091c-2.4947,0 -4.51705,-0.37649 -4.51705,-0.84091c0,-0.46442 2.02235,-0.84091 4.51705,-0.84091c2.4947,0 4.51705,0.37649 4.51705,0.84091z" fill="url(#color-7)" stroke="url(#color-8)" stroke-width="0.5" stroke-linecap="butt"/><path d="M235.46008,206.08133v-3.72414h2.93103l0.03448,4.2069c0,0 -1.15126,-0.04387 -1.66802,-0.12799c-0.46663,-0.07596 -1.2975,-0.35477 -1.2975,-0.35477z" fill="url(#color-9)" stroke="none" stroke-width="0" stroke-linecap="butt"/><path d="M229.07147,203.47619v-3.42857h21.57143v3.42857z" fill="#00386f" stroke="none" stroke-width="0" stroke-linecap="butt"/><path d="M242.63888,206.4361c-0.51675,0.08413 -1.66802,0.12799 -1.66802,0.12799l0.03448,-4.2069h2.93104v3.72414c0,0 -0.83087,0.2788 -1.2975,0.35477z" data-paper-data="{&quot;index&quot;:null}" fill="url(#color-10)" stroke="none" stroke-width="0" stroke-linecap="butt"/><path d="M237.11586,173.76975v-11.79798h5.77778v11.79798z" fill="url(#color-11)" stroke="none" stroke-width="0" stroke-linecap="butt"/><path d="M242.20289,162.01587c0,0.25833 -0.96436,0.46774 -2.15395,0.46774c-1.1896,0 -2.15396,-0.20941 -2.15396,-0.46774c0,-0.25833 0.96436,-0.46775 2.15396,-0.46775c1.1896,0 2.15395,0.20942 2.15395,0.46775z" fill="url(#color-12)" stroke="#7e7e7e" stroke-width="0.5" stroke-linecap="butt"/><path d="M213.27908,194.71382v-1.9375h1.0625v1.9375z" fill="#00386f" stroke="none" stroke-width="0" stroke-linecap="butt"/><path d="M213.67391,178.86466l26.37212,0.125l-0.04724,21.91417l-9.09821,-0.03917l-17.65278,-8.625z" fill="url(#color-13)" stroke="#b6b6b6" stroke-width="0" stroke-linecap="round"/><path d="M214.45316,180.24805v-1.35714h1.92857v1.35714z" fill="#00bcfb" stroke="none" stroke-width="0" stroke-linecap="butt"/><path d="M238.73889,180.31948v19.28572" fill="none" stroke="#3195b6" stroke-width="2.5" stroke-linecap="round"/><path d="M237.52461,183.74805v-4.71428h2.5v4.71428z" fill="#f00000" stroke="none" stroke-width="0" stroke-linecap="butt"/><path d="M237.52461,200.81948v-6h2.5v6z" fill="#0098ca" stroke="none" stroke-width="0" stroke-linecap="butt"/><path d="M228.71658,191.90132v-7.1875" fill="none" stroke="#00bcfb" stroke-width="1" stroke-linecap="round"/><path d="M230.65408,183.77632l-0.125,8.6875" fill="none" stroke="#f50000" stroke-width="1" stroke-linecap="round"/><path d="M219.21658,189.08882v-7.9375" fill="none" stroke="#006c8a" stroke-width="1" stroke-linecap="round"/><path d="M225.21658,193.96382v-11.875" fill="none" stroke="#005b82" stroke-width="1" stroke-linecap="round"/><path d="M233.71658,184.27632l-0.0625,11.1875" fill="none" stroke="#fa0000" stroke-width="1" stroke-linecap="round"/><path d="M222.52908,194.33882l0.125,-5.125" fill="none" stroke="#005b82" stroke-width="1" stroke-linecap="round"/><path d="M236.09158,181.40132l0.0625,11" fill="none" stroke="#fa0000" stroke-width="1" stroke-linecap="round"/><path d="M265.65853,194.71382v-1.9375h1.0625v1.9375z" fill="#00386f" stroke="none" stroke-width="0" stroke-linecap="butt"/><path d="M266.75228,192.23966l-17.65278,8.625l-9.09821,0.03917l-0.04724,-21.91417l26.37212,-0.125z" fill="url(#color-14)" stroke="#b6b6b6" stroke-width="0" stroke-linecap="round"/><path d="M263.61834,180.24805v-1.35714h1.92857v1.35714z" fill="#00b1ec" stroke="none" stroke-width="0" stroke-linecap="butt"/><path d="M241.26121,180.31948v19.28572" fill="none" stroke="#3195b6" stroke-width="2.5" stroke-linecap="round"/><path d="M239.97548,183.74805v-4.71428h2.5v4.71428z" fill="#f00000" stroke="none" stroke-width="0" stroke-linecap="butt"/><path d="M239.97548,200.81948v-6h2.5v6z" fill="#0098ca" stroke="none" stroke-width="0" stroke-linecap="butt"/><path d="M251.28356,184.71382v7.1875" fill="none" stroke="#00bcfb" stroke-width="1" stroke-linecap="round"/><path d="M249.47106,192.46382l-0.125,-8.6875" fill="none" stroke="#f50000" stroke-width="1" stroke-linecap="round"/><path d="M260.78353,189.08882v-7.9375" fill="none" stroke="#006c8a" stroke-width="1" stroke-linecap="round"/><path d="M254.78356,193.96382v-11.875" fill="none" stroke="#005b82" stroke-width="1" stroke-linecap="round"/><path d="M246.28356,184.27632l0.0625,11.1875" fill="none" stroke="#fa0000" stroke-width="1" stroke-linecap="round"/><path d="M257.34603,189.21382l0.125,5.125" fill="none" stroke="#005b82" stroke-width="1" stroke-linecap="round"/><path d="M243.90856,181.40132l-0.0625,11" fill="none" stroke="#fa0000" stroke-width="1" stroke-linecap="round"/><path d="M240.83631,167.61264v-4.77419h0.25806v4.77419z" fill="#1dfffb" stroke="none" stroke-width="0" stroke-linecap="butt"/><path d="M241.46939,153.41091v17.45455c0,0 -0.41174,0.95908 -1.54546,0.90909c-1.10778,-0.04885 -1.36363,-0.90909 -1.36363,-0.90909l-0.09091,-17.45455" fill="none" stroke="#b1b1b1" stroke-width="1" stroke-linecap="round"/><path d="M230.37965,198.72781l0.18067,-37.58147l6.38655,-5.42857v15.66277c0,0 0.80028,1.92095 2.97708,1.92095c2.13875,0 2.93049,-1.79051 2.93049,-1.79051v-15.95287l6.54621,5.42857l-0.21533,37.7619l-2.94533,0.71141l-11.56853,0.0566z" fill="#ffffff" stroke="#ffffff" stroke-width="2.5" stroke-linecap="round"/><path d="M235.22698,195.54753l-0.11111,-18.33333" fill="none" stroke="#eeeeee" stroke-width="1" stroke-linecap="round"/><path d="M246.89363,188.99197l-0.11111,-11.77777" fill="none" stroke="#eeeeee" stroke-width="1" stroke-linecap="round"/><path d="M244.00478,184.76975l0.22222,10.66666" fill="none" stroke="#eeeeee" stroke-width="1" stroke-linecap="round"/><path d="M237.22698,186.2142v13.33333" fill="none" stroke="#eeeeee" stroke-width="1" stroke-linecap="round"/><path d="M242.67144,173.65864l-0.11111,7" fill="none" stroke="#eeeeee" stroke-width="1" stroke-linecap="round"/><path d="M234.11588,173.10307l0.22223,-13.77777" fill="none" stroke="#eeeeee" stroke-width="1" stroke-linecap="round"/><path d="M248.00478,172.43641l0.22222,-12.11111" fill="none" stroke="#fa0000" stroke-width="1" stroke-linecap="round"/><path d="M245.227,173.99197l0.33333,-13" fill="none" stroke="#eeeeee" stroke-width="1" stroke-linecap="round"/><path d="M239.05953,167.52488v-4.7h0.2v4.7z" fill="url(#color-15)" stroke="none" stroke-width="0" stroke-linecap="butt"/><path d="M239.9331,167.70941v-4.80645h0.22581v4.80645z" fill="#1dfffb" stroke="none" stroke-width="0" stroke-linecap="butt"/><path d="M238.33873,175.83194l1.41473,-1.05738l1.50602,0.91167v7.72276l-1.46037,0.54738l-1.46037,-0.6931z" fill="#8cffff" stroke="#7e7e7e" stroke-width="0.5" stroke-linecap="round"/><path d="M241.15408,175.69406l-1.4375,1.125l-1.3125,-0.875" fill="none" stroke="#55eded" stroke-width="0.5" stroke-linecap="round"/><path d="M238.65408,183.19406l1,-0.6875l1.25,0.8125" fill="none" stroke="#55eded" stroke-width="0.5" stroke-linecap="round"/><path d="M239.96658,183.63156l-0.1875,-0.5625l-0.0625,-6.5625l0.0625,-1.5" fill="none" stroke="#4fdada" stroke-width="0.5" stroke-linecap="round"/><path d="M238.33873,175.83194l1.41473,-1.05738l1.50602,0.91167v7.72276l-1.46037,0.54738l-1.46037,-0.6931z" fill="none" stroke="#7e7e7e" stroke-width="0.5" stroke-linecap="round"/><path d="M240.03652,176.94952l0.92857,-0.82143l0.02381,6.9881l-0.9762,-0.78572z" fill="#5cffff" stroke="none" stroke-width="0" stroke-linecap="round"/><path d="M240.02041,182.99548l0.6927,0.37012l-0.51613,0.13243z" fill="#57f3f3" stroke="#56eeee" stroke-width="0" stroke-linecap="round"/><path d="M239.49139,182.32108l-0.92858,0.66353l-0.02381,-6.80388l0.9762,0.78572z" data-paper-data="{&quot;index&quot;:null}" fill="#87ffff" stroke="none" stroke-width="0" stroke-linecap="round"/><path d="M236.15005,200.90476v-10.7h3.8v10.7z" fill="#2d2d2d" stroke="none" stroke-width="0" stroke-linecap="butt"/><path d="M239.85005,200.90476v-10.7h3.8v10.7z" data-paper-data="{&quot;index&quot;:null}" fill="#2d2d2d" stroke="none" stroke-width="0" stroke-linecap="butt"/><path d="M239.66814,183.6296l-0.75297,-0.34296l0.61375,-0.37011z" data-paper-data="{&quot;index&quot;:null}" fill="#5afbfb" stroke="#56eeee" stroke-width="0" stroke-linecap="round"/><path d="M234.78252,156.23006l-0.11111,13.44444l-2,1.88889v11.77778l4,3.77778v13.66667h-5.66667l-1.55556,-0.66667l-0.11111,-39.33333z" fill="url(#color-16)" stroke="url(#color-17)" stroke-width="0.5" stroke-linecap="round"/><path d="M250.44922,160.77767l-0.11111,39.33333l-1.55556,0.66667h-5.66666v-13.66667l4,-3.77777v-11.77778l-2,-1.88889l-0.11111,-13.44444z" data-paper-data="{&quot;index&quot;:null}" fill="url(#color-18)" stroke="url(#color-19)" stroke-width="0.5" stroke-linecap="round"/><path d="M229.11031,192.93827l-15,-7.6l-0.1,-6.44445l15.1,0.07778z" fill="#ffffff" stroke="#ffffff" stroke-width="0.5" stroke-linecap="round"/><path d="M218.74088,188.09108l-4.92206,-2.49384l-0.10849,-6.99198l4.92439,0.02536z" fill="url(#color-20)" stroke="#ff9b00" stroke-width="0" stroke-linecap="round"/><path d="M250.67145,199.96023v-13.11111h2.88889v11.74943z" fill="url(#color-21)" stroke="none" stroke-width="0" stroke-linecap="butt"/><path d="M250.89922,178.9716l15.1,-0.07778l-0.1,6.44445l-15,7.6z" data-paper-data="{&quot;index&quot;:null}" fill="#ffffff" stroke="#ffffff" stroke-width="0" stroke-linecap="round"/><path d="M234.96939,206.10897v-4.27273c0,0 2.53809,-0.51228 4.72727,-0.5c2.18839,0.01228 4.72727,0.5 4.72727,0.5v4.27273c0,0 -2.62239,-0.63636 -4.77273,-0.63636c-2.18066,0 -4.68182,0.63636 -4.68182,0.63636z" fill="url(#color-22)" stroke="none" stroke-width="0" stroke-linecap="butt"/><path d="M243.6667,201.86807v3.68" fill="none" stroke="#656565" stroke-width="0.5" stroke-linecap="round"/><path d="M242.5067,205.30807v-3.64" fill="none" stroke="#6a6a6a" stroke-width="0.5" stroke-linecap="round"/><path d="M241.42666,201.54807l-0.04,3.64" fill="none" stroke="#6f6f6f" stroke-width="0.5" stroke-linecap="round"/><path d="M240.22668,205.14807l0.08,-3.68" fill="none" stroke="#747474" stroke-width="0.5" stroke-linecap="round"/><path d="M239.14669,201.42807l-0.04,3.76" fill="none" stroke="#787878" stroke-width="0.5" stroke-linecap="round"/><path d="M238.02667,205.26807v-3.76" fill="none" stroke="#7b7b7b" stroke-width="0.5" stroke-linecap="round"/><path d="M237.65005,184.73334v-12.5h4.8v12.5z" fill="#ffffff" stroke="none" stroke-width="0" stroke-linecap="butt"/><g stroke="#8abcd0" stroke-width="0.5" stroke-linecap="round"><path d="M241.2987,180.55771c0,0 -0.55811,1.7675 -1.24554,1.7675c-0.68743,0 -1.24554,-1.7675 -1.24554,-1.7675l0.01782,-4.93504c0,0 0.55811,-1.7675 1.24554,-1.7675c0.68744,0 1.24555,1.7675 1.24555,1.7675z" fill="#97cee4"/><path d="M238.94519,176.19632h2.15143" fill="none"/><path d="M238.94519,177.58406h2.05364" fill="none"/><path d="M241.09661,179.80443h-2.24922" fill="none"/><path d="M238.76221,178.39882h2.24922" fill="none"/></g><path d="M250.52461,193.34382v-14.60714h3v13.17857z" fill="url(#color-23)" stroke="none" stroke-width="0" stroke-linecap="butt"/><path d="M237.61116,200.28307v-5.33334h4.55555v5.33334z" fill="url(#color-24)" stroke="none" stroke-width="0" stroke-linecap="butt"/><path d="M238.01116,194.18307v-2.83333h3.75555v2.83333z" fill="url(#color-25)" stroke="none" stroke-width="0" stroke-linecap="butt"/><path d="M239.29171,191.52778v2.41667" fill="none" stroke="#9e9e9e" stroke-width="0.5" stroke-linecap="round"/><path d="M240.54171,193.94445v-2.41667" fill="none" stroke="#9e9e9e" stroke-width="0.5" stroke-linecap="round"/><path d="M261.26089,178.63062l4.9244,-0.02536l-0.1085,6.99199l-4.92206,2.49384z" data-paper-data="{&quot;index&quot;:null}" fill="url(#color-26)" stroke="#ff9b00" stroke-width="0" stroke-linecap="round"/><path d="M215.32953,192.11528l0.07692,-12.23077" fill="none" stroke="url(#color-27)" stroke-width="2" stroke-linecap="round"/><path d="M264.59362,179.88451l0.07692,12.23077" fill="none" stroke="url(#color-28)" stroke-width="2" stroke-linecap="round"/><path d="M214.14363,178.94646l-0.01282,13.58974" fill="none" stroke="url(#color-29)" stroke-width="0.5" stroke-linecap="round"/><path d="M265.85645,178.94646l0.01282,13.58974" fill="none" stroke="url(#color-30)" stroke-width="0.5" stroke-linecap="round"/><path d="M229.2131,173.00595v-12.34732l3.77777,-3.33333v15.76398z" fill="url(#color-31)" stroke="none" stroke-width="0" stroke-linecap="butt"/><path d="M229.2131,187.83928v-14.83333h3.77777v14.83333z" fill="url(#color-32)" stroke="none" stroke-width="0" stroke-linecap="butt"/><path d="M229.12978,200.01974l0.08333,-12.23611l3.77777,0.05834v13.03889h-2.33334z" fill="url(#color-33)" stroke="none" stroke-width="0" stroke-linecap="butt"/><path d="M229.25005,175.23333v-4.5h3.7v4.5z" fill="url(#color-34)" stroke="none" stroke-width="0" stroke-linecap="butt"/><path d="M229.25005,190.33333v-4.5h3.7v4.5z" fill="url(#color-35)" stroke="none" stroke-width="0" stroke-linecap="butt"/><g fill="none" stroke-linecap="round"><path d="M212.56033,184.17716v-6.8125" stroke="#b6b6b6" stroke-width="2.5"/><g><path d="M212.37283,185.05216v6.8125" stroke="#b6b6b6" stroke-width="3"/><path d="M212.86801,191.88451v-6.6875" stroke="#c2c2c2" stroke-width="2"/></g><path d="M213.05551,184.19701v-6.6875" stroke="#c2c2c2" stroke-width="1.5"/></g><g data-paper-data="{&quot;index&quot;:null}" fill="none" stroke-linecap="round"><path d="M267.43944,184.17716v-6.8125" stroke="#b6b6b6" stroke-width="2.5"/><g><path d="M267.62694,185.05216v6.8125" stroke="#b6b6b6" stroke-width="3"/><path d="M267.13176,191.88451v-6.6875" stroke="#c2c2c2" stroke-width="2"/></g><path d="M266.94426,177.50951v6.6875" stroke="#c2c2c2" stroke-width="1.5"/></g><g stroke="#000000" stroke-width="0" stroke-linecap="round"><path d="M242.22289,206.62111l-2.37594,14.93246l-2.79713,-14.93246z" fill="url(#color-36)"/><path d="M243.13865,207.56953l-3.23495,20.33121l-3.8084,-20.33121z" fill="url(#color-37)"/><path d="M241.13088,206.11822c0,0 2.34445,0.54702 2.26436,2.41626c-0.19142,4.46815 -3.91911,5.49149 -3.91911,5.49149c0,0 -3.14492,-0.90981 -3.22238,-5.49149c-0.03297,-1.95089 2.17728,-2.41626 2.17728,-2.41626z" fill="url(#color-38)"/><path d="M240.6268,206.36496c0,0 1.5849,0.3698 1.53077,1.63345c-0.1294,3.02057 -2.64941,3.71239 -2.64941,3.71239c0,0 -2.12605,-0.61506 -2.17841,-3.71239c-0.02229,-1.31885 1.47189,-1.63345 1.47189,-1.63345z" fill="url(#color-39)"/><path d="M241.2083,206.0069c0,0 2.63337,0.61444 2.54343,2.71404c-0.21499,5.01881 -4.40209,6.16828 -4.40209,6.16828c0,0 -3.5325,-1.02195 -3.61951,-6.16828c-0.03704,-2.19132 2.44561,-2.71404 2.44561,-2.71404z" fill="url(#color-40)"/><path d="M240.29687,205.93395c0,0 1.1525,0.26891 1.11314,1.18781c-0.0941,2.1965 -1.92659,2.69957 -1.92659,2.69957c0,0 -1.54602,-0.44726 -1.58409,-2.69957c-0.01622,-0.95904 1.07032,-1.18781 1.07032,-1.18781z" fill="url(#color-41)"/><path d="M242.72664,206.0069c0,0 1.15251,0.26892 1.11314,1.18781c-0.0941,2.1965 -1.92661,2.69957 -1.92661,2.69957c0,0 -1.54602,-0.44726 -1.58409,-2.69957c-0.01621,-0.95904 1.07034,-1.18781 1.07034,-1.18781z" fill="url(#color-42)"/><path d="M237.86711,206.0069c0,0 1.15251,0.26892 1.11314,1.18781c-0.0941,2.1965 -1.92661,2.69957 -1.92661,2.69957c0,0 -1.54602,-0.44726 -1.58409,-2.69957c-0.01621,-0.95904 1.07034,-1.18781 1.07034,-1.18781z" fill="url(#color-43)"/></g><g fill="#01878f" stroke="#d5d5d5" stroke-width="1" stroke-linecap="square"><g><path d="M227.45149,183.64475h-0.70376l-1.84607,-2.06928c-0.14355,-0.16281 -0.27923,-0.27485 -0.40703,-0.33613c-0.1278,-0.06302 -0.25122,-0.09454 -0.37026,-0.09454c-0.16106,0 -0.30461,0.03501 -0.43066,0.10504c-0.1278,0.06828 -0.22846,0.16369 -0.30199,0.28623c-0.07353,0.12255 -0.11029,0.2626 -0.11029,0.42016c0,0.16806 0.03851,0.31687 0.11554,0.44642c0.07703,0.12955 0.17944,0.23021 0.30724,0.30199c0.1278,0.07178 0.2661,0.10504 0.41491,0.09979v0.83244c-0.32387,0 -0.60573,-0.07178 -0.84557,-0.21533c-0.23984,-0.1453 -0.42541,-0.34488 -0.55671,-0.59872c-0.13305,-0.25384 -0.19957,-0.54796 -0.19957,-0.88233c0,-0.30987 0.06915,-0.58734 0.20745,-0.83244c0.1383,-0.24684 0.32912,-0.44029 0.57246,-0.58034c0.24334,-0.1418 0.52257,-0.2127 0.83769,-0.2127c0.23109,0 0.42541,0.03151 0.58297,0.09454c0.15581,0.06127 0.30024,0.15406 0.43329,0.27835c0.1313,0.1243 0.27748,0.27835 0.43854,0.46217l1.30249,1.47055l-0.2022,0.07353v-2.37914h0.76154z"/><path d="M227.50277,185.90966c0,0.33516 -0.07096,0.63099 -0.2129,0.88749c-0.14364,0.25479 -0.34371,0.45401 -0.60021,0.59765c-0.2565,0.14364 -0.55233,0.21546 -0.88749,0.21546h-1.52361c-0.33345,0 -0.62843,-0.07182 -0.88493,-0.21546c-0.2565,-0.14364 -0.45657,-0.34285 -0.60021,-0.59765c-0.14364,-0.2565 -0.21546,-0.55233 -0.21546,-0.88749c0,-0.33516 0.07182,-0.63013 0.21546,-0.88493c0.14364,-0.25479 0.34371,-0.45401 0.60021,-0.59765c0.2565,-0.14535 0.55148,-0.21803 0.88493,-0.21803h1.52361c0.33516,0 0.63099,0.07268 0.88749,0.21803c0.2565,0.14364 0.45657,0.34285 0.60021,0.59765c0.14193,0.25479 0.2129,0.54977 0.2129,0.88493zM226.75123,185.90966c0,-0.16758 -0.03933,-0.31892 -0.11799,-0.45401c-0.08037,-0.13509 -0.1881,-0.24197 -0.32319,-0.32063c-0.13509,-0.07866 -0.28557,-0.11799 -0.45144,-0.11799h-1.63904c-0.16758,0 -0.31892,0.03933 -0.45401,0.11799c-0.13509,0.07866 -0.24197,0.18554 -0.32063,0.32063c-0.08037,0.13509 -0.12056,0.28642 -0.12056,0.45401c0,0.16587 0.04018,0.3172 0.12056,0.45401c0.07866,0.13509 0.18554,0.24197 0.32063,0.32063c0.13509,0.07866 0.28642,0.11799 0.45401,0.11799h1.63904c0.16587,0 0.31635,-0.03933 0.45144,-0.11799c0.13509,-0.07866 0.24282,-0.18554 0.32319,-0.32063c0.07866,-0.1368 0.11799,-0.28814 0.11799,-0.45401z"/></g><g data-paper-data="{&quot;index&quot;:null}"><path d="M252.06855,180.31501h0.76154v2.37914l-0.2022,-0.07353l1.30249,-1.47055c0.16106,-0.18382 0.30724,-0.33787 0.43854,-0.46217c0.13305,-0.12429 0.27748,-0.21708 0.43329,-0.27835c0.15756,-0.06303 0.35188,-0.09454 0.58297,-0.09454c0.31512,0 0.59435,0.0709 0.83769,0.2127c0.24334,0.14005 0.43416,0.3335 0.57246,0.58034c0.1383,0.2451 0.20745,0.52257 0.20745,0.83244c0,0.33437 -0.06652,0.62849 -0.19957,0.88233c-0.1313,0.25384 -0.31687,0.45342 -0.55671,0.59872c-0.23984,0.14355 -0.5217,0.21533 -0.84557,0.21533v-0.83244c0.14881,0.00525 0.28711,-0.02801 0.41491,-0.09979c0.1278,-0.07178 0.23021,-0.17244 0.30724,-0.30199c0.07703,-0.12955 0.11554,-0.27836 0.11554,-0.44642c0,-0.15756 -0.03676,-0.29761 -0.11029,-0.42016c-0.07353,-0.12254 -0.17419,-0.21795 -0.30199,-0.28623c-0.12605,-0.07003 -0.2696,-0.10504 -0.43066,-0.10504c-0.11904,0 -0.24246,0.03152 -0.37026,0.09454c-0.1278,0.06128 -0.26348,0.17332 -0.40703,0.33613l-1.84607,2.06928h-0.70376z"/><path d="M252.23016,185.02473c0.14364,-0.25479 0.34371,-0.45401 0.60021,-0.59765c0.2565,-0.14535 0.55233,-0.21803 0.88749,-0.21803h1.52361c0.33345,0 0.62843,0.07268 0.88493,0.21803c0.2565,0.14364 0.45657,0.34285 0.60021,0.59765c0.14364,0.25479 0.21546,0.54977 0.21546,0.88493c0,0.33516 -0.07182,0.63099 -0.21546,0.88749c-0.14364,0.25479 -0.34371,0.45401 -0.60021,0.59765c-0.2565,0.14364 -0.55148,0.21546 -0.88493,0.21546h-1.52361c-0.33516,0 -0.63099,-0.07182 -0.88749,-0.21546c-0.2565,-0.14364 -0.45657,-0.34285 -0.60021,-0.59765c-0.14193,-0.2565 -0.2129,-0.55233 -0.2129,-0.88749c0,-0.33516 0.07096,-0.63013 0.2129,-0.88493zM252.8868,186.36366c0.08037,0.13509 0.1881,0.24197 0.32319,0.32063c0.13509,0.07866 0.28557,0.11799 0.45144,0.11799h1.63904c0.16758,0 0.31892,-0.03933 0.45401,-0.11799c0.13509,-0.07866 0.24197,-0.18554 0.32063,-0.32063c0.08037,-0.1368 0.12056,-0.28814 0.12056,-0.45401c0,-0.16758 -0.04018,-0.31892 -0.12056,-0.45401c-0.07866,-0.13509 -0.18554,-0.24197 -0.32063,-0.32063c-0.13509,-0.07866 -0.28642,-0.11799 -0.45401,-0.11799h-1.63904c-0.16587,0 -0.31635,0.03933 -0.45144,0.11799c-0.13509,0.07866 -0.24282,0.18554 -0.32319,0.32063c-0.07866,0.13509 -0.11799,0.28642 -0.11799,0.45401c0,0.16587 0.03933,0.3172 0.11799,0.45401z"/></g></g><g stroke-width="0.25" stroke-linecap="square"><g><path d="M227.45149,183.64475h-0.70376l-1.84607,-2.06928c-0.14355,-0.16281 -0.27923,-0.27485 -0.40703,-0.33613c-0.1278,-0.06302 -0.25122,-0.09454 -0.37026,-0.09454c-0.16106,0 -0.30461,0.03501 -0.43066,0.10504c-0.1278,0.06828 -0.22846,0.16369 -0.30199,0.28623c-0.07353,0.12255 -0.11029,0.2626 -0.11029,0.42016c0,0.16806 0.03851,0.31687 0.11554,0.44642c0.07703,0.12955 0.17944,0.23021 0.30724,0.30199c0.1278,0.07178 0.2661,0.10504 0.41491,0.09979v0.83244c-0.32387,0 -0.60573,-0.07178 -0.84557,-0.21533c-0.23984,-0.1453 -0.42541,-0.34488 -0.55671,-0.59872c-0.13305,-0.25384 -0.19957,-0.54796 -0.19957,-0.88233c0,-0.30987 0.06915,-0.58734 0.20745,-0.83244c0.1383,-0.24684 0.32912,-0.44029 0.57246,-0.58034c0.24334,-0.1418 0.52257,-0.2127 0.83769,-0.2127c0.23109,0 0.42541,0.03151 0.58297,0.09454c0.15581,0.06127 0.30024,0.15406 0.43329,0.27835c0.1313,0.1243 0.27748,0.27835 0.43854,0.46217l1.30249,1.47055l-0.2022,0.07353v-2.37914h0.76154z" fill="url(#color-44)" stroke="url(#color-45)"/><path d="M227.50277,185.90966c0,0.33516 -0.07096,0.63099 -0.2129,0.88749c-0.14364,0.25479 -0.34371,0.45401 -0.60021,0.59765c-0.2565,0.14364 -0.55233,0.21546 -0.88749,0.21546h-1.52361c-0.33345,0 -0.62843,-0.07182 -0.88493,-0.21546c-0.2565,-0.14364 -0.45657,-0.34285 -0.60021,-0.59765c-0.14364,-0.2565 -0.21546,-0.55233 -0.21546,-0.88749c0,-0.33516 0.07182,-0.63013 0.21546,-0.88493c0.14364,-0.25479 0.34371,-0.45401 0.60021,-0.59765c0.2565,-0.14535 0.55148,-0.21803 0.88493,-0.21803h1.52361c0.33516,0 0.63099,0.07268 0.88749,0.21803c0.2565,0.14364 0.45657,0.34285 0.60021,0.59765c0.14193,0.25479 0.2129,0.54977 0.2129,0.88493zM226.75123,185.90966c0,-0.16758 -0.03933,-0.31892 -0.11799,-0.45401c-0.08037,-0.13509 -0.1881,-0.24197 -0.32319,-0.32063c-0.13509,-0.07866 -0.28557,-0.11799 -0.45144,-0.11799h-1.63904c-0.16758,0 -0.31892,0.03933 -0.45401,0.11799c-0.13509,0.07866 -0.24197,0.18554 -0.32063,0.32063c-0.08037,0.13509 -0.12056,0.28642 -0.12056,0.45401c0,0.16587 0.04018,0.3172 0.12056,0.45401c0.07866,0.13509 0.18554,0.24197 0.32063,0.32063c0.13509,0.07866 0.28642,0.11799 0.45401,0.11799h1.63904c0.16587,0 0.31635,-0.03933 0.45144,-0.11799c0.13509,-0.07866 0.24282,-0.18554 0.32319,-0.32063c0.07866,-0.1368 0.11799,-0.28814 0.11799,-0.45401z" fill="url(#color-46)" stroke="url(#color-47)"/></g><g data-paper-data="{&quot;index&quot;:null}"><path d="M252.06855,180.31501h0.76154v2.37914l-0.2022,-0.07353l1.30249,-1.47055c0.16106,-0.18382 0.30724,-0.33787 0.43854,-0.46217c0.13305,-0.12429 0.27748,-0.21708 0.43329,-0.27835c0.15756,-0.06303 0.35188,-0.09454 0.58297,-0.09454c0.31512,0 0.59435,0.0709 0.83769,0.2127c0.24334,0.14005 0.43416,0.3335 0.57246,0.58034c0.1383,0.2451 0.20745,0.52257 0.20745,0.83244c0,0.33437 -0.06652,0.62849 -0.19957,0.88233c-0.1313,0.25384 -0.31687,0.45342 -0.55671,0.59872c-0.23984,0.14355 -0.5217,0.21533 -0.84557,0.21533v-0.83244c0.14881,0.00525 0.28711,-0.02801 0.41491,-0.09979c0.1278,-0.07178 0.23021,-0.17244 0.30724,-0.30199c0.07703,-0.12955 0.11554,-0.27836 0.11554,-0.44642c0,-0.15756 -0.03676,-0.29761 -0.11029,-0.42016c-0.07353,-0.12254 -0.17419,-0.21795 -0.30199,-0.28623c-0.12605,-0.07003 -0.2696,-0.10504 -0.43066,-0.10504c-0.11904,0 -0.24246,0.03152 -0.37026,0.09454c-0.1278,0.06128 -0.26348,0.17332 -0.40703,0.33613l-1.84607,2.06928h-0.70376z" fill="url(#color-48)" stroke="url(#color-49)"/><path d="M252.23016,185.02473c0.14364,-0.25479 0.34371,-0.45401 0.60021,-0.59765c0.2565,-0.14535 0.55233,-0.21803 0.88749,-0.21803h1.52361c0.33345,0 0.62843,0.07268 0.88493,0.21803c0.2565,0.14364 0.45657,0.34285 0.60021,0.59765c0.14364,0.25479 0.21546,0.54977 0.21546,0.88493c0,0.33516 -0.07182,0.63099 -0.21546,0.88749c-0.14364,0.25479 -0.34371,0.45401 -0.60021,0.59765c-0.2565,0.14364 -0.55148,0.21546 -0.88493,0.21546h-1.52361c-0.33516,0 -0.63099,-0.07182 -0.88749,-0.21546c-0.2565,-0.14364 -0.45657,-0.34285 -0.60021,-0.59765c-0.14193,-0.2565 -0.2129,-0.55233 -0.2129,-0.88749c0,-0.33516 0.07096,-0.63013 0.2129,-0.88493zM252.8868,186.36366c0.08037,0.13509 0.1881,0.24197 0.32319,0.32063c0.13509,0.07866 0.28557,0.11799 0.45144,0.11799h1.63904c0.16758,0 0.31892,-0.03933 0.45401,-0.11799c0.13509,-0.07866 0.24197,-0.18554 0.32063,-0.32063c0.08037,-0.1368 0.12056,-0.28814 0.12056,-0.45401c0,-0.16758 -0.04018,-0.31892 -0.12056,-0.45401c-0.07866,-0.13509 -0.18554,-0.24197 -0.32063,-0.32063c-0.13509,-0.07866 -0.28642,-0.11799 -0.45401,-0.11799h-1.63904c-0.16587,0 -0.31635,0.03933 -0.45144,0.11799c-0.13509,0.07866 -0.24282,0.18554 -0.32319,0.32063c-0.07866,0.13509 -0.11799,0.28642 -0.11799,0.45401c0,0.16587 0.03933,0.3172 0.11799,0.45401z" fill="url(#color-50)" stroke="url(#color-51)"/></g></g><path d="M211.39287,178.73809v-0.92857h2.5v0.92857z" fill="#ff0000" stroke="none" stroke-width="0" stroke-linecap="butt"/><path d="M266.17064,178.73809v-0.92857h2.5v0.92857z" fill="#ff0000" stroke="none" stroke-width="0" stroke-linecap="butt"/></g></g></svg>