<svg version="1.1" xmlns="http://www.w3.org/2000/svg" xmlns:xlink="http://www.w3.org/1999/xlink" width="285.21844" height="197.25448" viewBox="0,0,285.21844,197.25448"><defs><linearGradient x1="347.42008" y1="88.31963" x2="347.42008" y2="117.9527" gradientUnits="userSpaceOnUse" id="color-1"><stop offset="0" stop-color="#191919"/><stop offset="1" stop-color="#282828"/></linearGradient><linearGradient x1="347.42008" y1="163.32826" x2="347.42008" y2="192.96139" gradientUnits="userSpaceOnUse" id="color-2"><stop offset="0" stop-color="#191919"/><stop offset="1" stop-color="#282828"/></linearGradient><linearGradient x1="347.42008" y1="221.6684" x2="347.42008" y2="192.03535" gradientUnits="userSpaceOnUse" id="color-3"><stop offset="0" stop-color="#191919"/><stop offset="1" stop-color="#282828"/></linearGradient><linearGradient x1="347.14519" y1="162.94243" x2="347.14519" y2="190.26045" gradientUnits="userSpaceOnUse" id="color-4"><stop offset="0" stop-color="#0f0f0f"/><stop offset="1" stop-color="#0f0f0f" stop-opacity="0"/></linearGradient><linearGradient x1="347.42008" y1="220.6684" x2="347.42008" y2="250.30146" gradientUnits="userSpaceOnUse" id="color-5"><stop offset="0" stop-color="#191919"/><stop offset="1" stop-color="#282828"/></linearGradient><linearGradient x1="347.42008" y1="279.00847" x2="347.42008" y2="249.37548" gradientUnits="userSpaceOnUse" id="color-6"><stop offset="0" stop-color="#191919"/><stop offset="1" stop-color="#282828"/></linearGradient><linearGradient x1="260.37289" y1="94.73726" x2="260.37289" y2="124.37035" gradientUnits="userSpaceOnUse" id="color-7"><stop offset="0" stop-color="#191919"/><stop offset="1" stop-color="#282828"/></linearGradient><linearGradient x1="260.37289" y1="153.07727" x2="260.37289" y2="123.44431" gradientUnits="userSpaceOnUse" id="color-8"><stop offset="0" stop-color="#191919"/><stop offset="1" stop-color="#282828"/></linearGradient><linearGradient x1="260.37289" y1="152.1513" x2="260.37289" y2="181.78438" gradientUnits="userSpaceOnUse" id="color-9"><stop offset="0" stop-color="#191919"/><stop offset="1" stop-color="#282828"/></linearGradient><linearGradient x1="260.37289" y1="210.4914" x2="260.37289" y2="180.85834" gradientUnits="userSpaceOnUse" id="color-10"><stop offset="0" stop-color="#191919"/><stop offset="1" stop-color="#282828"/></linearGradient><linearGradient x1="260.24978" y1="188.80683" x2="260.24978" y2="210.10557" gradientUnits="userSpaceOnUse" id="color-11"><stop offset="0" stop-color="#111111" stop-opacity="0"/><stop offset="1" stop-color="#111111"/></linearGradient><linearGradient x1="260.37289" y1="169.74595" x2="260.37289" y2="199.37901" gradientUnits="userSpaceOnUse" id="color-12"><stop offset="0" stop-color="#191919"/><stop offset="1" stop-color="#282828"/></linearGradient><linearGradient x1="260.37289" y1="228.08602" x2="260.37289" y2="198.45297" gradientUnits="userSpaceOnUse" id="color-13"><stop offset="0" stop-color="#191919"/><stop offset="1" stop-color="#282828"/></linearGradient><linearGradient x1="260.37289" y1="227.16001" x2="260.37289" y2="256.79304" gradientUnits="userSpaceOnUse" id="color-14"><stop offset="0" stop-color="#191919"/><stop offset="1" stop-color="#282828"/></linearGradient><linearGradient x1="260.37289" y1="285.50005" x2="260.37289" y2="255.86708" gradientUnits="userSpaceOnUse" id="color-15"><stop offset="0" stop-color="#191919"/><stop offset="1" stop-color="#282828"/></linearGradient><linearGradient x1="218.70139" y1="94.7279" x2="218.70139" y2="124.36097" gradientUnits="userSpaceOnUse" id="color-16"><stop offset="0" stop-color="#191919"/><stop offset="1" stop-color="#282828"/></linearGradient><linearGradient x1="218.70139" y1="153.06788" x2="218.70139" y2="123.43493" gradientUnits="userSpaceOnUse" id="color-17"><stop offset="0" stop-color="#191919"/><stop offset="1" stop-color="#282828"/></linearGradient><linearGradient x1="218.70139" y1="152.14184" x2="218.70139" y2="181.77504" gradientUnits="userSpaceOnUse" id="color-18"><stop offset="0" stop-color="#191919"/><stop offset="1" stop-color="#282828"/></linearGradient><linearGradient x1="218.70139" y1="210.48206" x2="218.70139" y2="180.849" gradientUnits="userSpaceOnUse" id="color-19"><stop offset="0" stop-color="#191919"/><stop offset="1" stop-color="#282828"/></linearGradient><linearGradient x1="218.57844" y1="188.79744" x2="218.57844" y2="210.09623" gradientUnits="userSpaceOnUse" id="color-20"><stop offset="0" stop-color="#111111" stop-opacity="0"/><stop offset="1" stop-color="#111111"/></linearGradient><linearGradient x1="218.70139" y1="169.73662" x2="218.70139" y2="199.36969" gradientUnits="userSpaceOnUse" id="color-21"><stop offset="0" stop-color="#191919"/><stop offset="1" stop-color="#282828"/></linearGradient><linearGradient x1="218.70139" y1="228.0767" x2="218.70139" y2="198.44365" gradientUnits="userSpaceOnUse" id="color-22"><stop offset="0" stop-color="#191919"/><stop offset="1" stop-color="#282828"/></linearGradient><linearGradient x1="218.70139" y1="227.15066" x2="218.70139" y2="256.78363" gradientUnits="userSpaceOnUse" id="color-23"><stop offset="0" stop-color="#191919"/><stop offset="1" stop-color="#282828"/></linearGradient><linearGradient x1="218.70139" y1="285.49064" x2="218.70139" y2="255.85768" gradientUnits="userSpaceOnUse" id="color-24"><stop offset="0" stop-color="#191919"/><stop offset="1" stop-color="#282828"/></linearGradient><linearGradient x1="132.58015" y1="88.24566" x2="132.58015" y2="117.87873" gradientUnits="userSpaceOnUse" id="color-25"><stop offset="0" stop-color="#191919"/><stop offset="1" stop-color="#282828"/></linearGradient><linearGradient x1="132.58015" y1="146.58569" x2="132.58015" y2="116.9527" gradientUnits="userSpaceOnUse" id="color-26"><stop offset="0" stop-color="#191919"/><stop offset="1" stop-color="#282828"/></linearGradient><linearGradient x1="132.58015" y1="145.65965" x2="132.58015" y2="175.29278" gradientUnits="userSpaceOnUse" id="color-27"><stop offset="0" stop-color="#191919"/><stop offset="1" stop-color="#282828"/></linearGradient><linearGradient x1="132.58015" y1="203.9998" x2="132.58015" y2="174.36674" gradientUnits="userSpaceOnUse" id="color-28"><stop offset="0" stop-color="#191919"/><stop offset="1" stop-color="#282828"/></linearGradient><linearGradient x1="132.30525" y1="182.31525" x2="132.30525" y2="203.61397" gradientUnits="userSpaceOnUse" id="color-29"><stop offset="0" stop-color="#111111" stop-opacity="0"/><stop offset="1" stop-color="#111111"/></linearGradient><linearGradient x1="132.58015" y1="169.75437" x2="132.58015" y2="192.88743" gradientUnits="userSpaceOnUse" id="color-30"><stop offset="0" stop-color="#191919"/><stop offset="1" stop-color="#282828"/></linearGradient><linearGradient x1="132.58015" y1="221.59444" x2="132.58015" y2="191.96139" gradientUnits="userSpaceOnUse" id="color-31"><stop offset="0" stop-color="#191919"/><stop offset="1" stop-color="#282828"/></linearGradient><linearGradient x1="132.58015" y1="220.6684" x2="132.58015" y2="250.30146" gradientUnits="userSpaceOnUse" id="color-32"><stop offset="0" stop-color="#191919"/><stop offset="1" stop-color="#282828"/></linearGradient><linearGradient x1="132.58015" y1="279.00847" x2="132.58015" y2="249.37548" gradientUnits="userSpaceOnUse" id="color-33"><stop offset="0" stop-color="#191919"/><stop offset="1" stop-color="#282828"/></linearGradient><linearGradient x1="347.42008" y1="146.65965" x2="347.42008" y2="117.02669" gradientUnits="userSpaceOnUse" id="color-34"><stop offset="0" stop-color="#191919"/><stop offset="1" stop-color="#282828"/></linearGradient><linearGradient x1="347.42008" y1="145.73361" x2="347.42008" y2="175.36674" gradientUnits="userSpaceOnUse" id="color-35"><stop offset="0" stop-color="#191919"/><stop offset="1" stop-color="#282828"/></linearGradient><linearGradient x1="347.42008" y1="204.07376" x2="347.42008" y2="174.4407" gradientUnits="userSpaceOnUse" id="color-36"><stop offset="0" stop-color="#191919"/><stop offset="1" stop-color="#282828"/></linearGradient><linearGradient x1="132.30525" y1="209.90981" x2="132.30525" y2="231.20859" gradientUnits="userSpaceOnUse" id="color-37"><stop offset="0" stop-color="#111111" stop-opacity="0"/><stop offset="1" stop-color="#111111"/></linearGradient><linearGradient x1="347.14519" y1="209.98384" x2="347.14519" y2="231.28255" gradientUnits="userSpaceOnUse" id="color-38"><stop offset="0" stop-color="#111111" stop-opacity="0"/><stop offset="1" stop-color="#111111"/></linearGradient><linearGradient x1="133" y1="88.33337" x2="133" y2="146.33335" gradientUnits="userSpaceOnUse" id="color-39"><stop offset="0" stop-color="#0e0e0e"/><stop offset="1" stop-color="#0e0e0e" stop-opacity="0"/></linearGradient><linearGradient x1="348.00005" y1="88.33337" x2="348.00005" y2="146.33335" gradientUnits="userSpaceOnUse" id="color-40"><stop offset="0" stop-color="#0e0e0e"/><stop offset="1" stop-color="#0e0e0e" stop-opacity="0"/></linearGradient><linearGradient x1="133" y1="278.33334" x2="133" y2="220.33336" gradientUnits="userSpaceOnUse" id="color-41"><stop offset="0" stop-color="#0e0e0e"/><stop offset="1" stop-color="#0e0e0e" stop-opacity="0"/></linearGradient><linearGradient x1="347.00005" y1="279.33334" x2="347.00005" y2="221.33336" gradientUnits="userSpaceOnUse" id="color-42"><stop offset="0" stop-color="#0e0e0e"/><stop offset="1" stop-color="#0e0e0e" stop-opacity="0"/></linearGradient></defs><g transform="translate(-97.3909,-88.24566)"><g data-paper-data="{&quot;isPaintingLayer&quot;:true}" fill-rule="nonzero" stroke="none" stroke-width="0" stroke-linecap="butt" stroke-linejoin="miter" stroke-miterlimit="10" stroke-dasharray="" stroke-dashoffset="0" style="mix-blend-mode: normal"><path d="M312.23064,98.21441v-9.26033h70.37854v9.26033z" fill="#131313"/><path d="M312.23064,117.9527v-29.63306h70.37854v29.63307z" fill="url(#color-1)"/><path d="M312.23064,192.96139v-29.63307h70.37854v29.63307z" fill="url(#color-2)"/><path d="M382.60934,192.03535v29.63307h-70.37853v-29.63307z" data-paper-data="{&quot;index&quot;:null}" fill="url(#color-3)"/><path d="M312.23064,197.66875v-8.3343h69.82871v8.3343z" fill="#1a1a1a"/><path d="M312.23064,181.46317v-10.18637h69.82871v10.18637z" fill="#131313"/><path d="M312.23064,213.87433v-9.26033h70.37854v9.26033z" fill="#131313"/><path d="M312.23064,190.26045v-27.31798h69.82871v27.31798z" fill="url(#color-4)"/><path d="M312.23064,250.30146v-29.63307h70.37854v29.63307z" fill="url(#color-5)"/><path d="M382.60934,249.37548v29.63307h-70.37853v-29.63307z" data-paper-data="{&quot;index&quot;:null}" fill="url(#color-6)"/><path d="M244.63035,124.37035v-29.63306h31.48513v29.63307z" fill="url(#color-7)"/><path d="M276.11537,123.44431v29.63306h-31.48513v-29.63306z" data-paper-data="{&quot;index&quot;:null}" fill="url(#color-8)"/><path d="M244.63035,181.78438v-29.63307h31.48513v29.63307z" fill="url(#color-9)"/><path d="M276.11537,180.85834v29.63307h-31.48513v-29.63307z" data-paper-data="{&quot;index&quot;:null}" fill="url(#color-10)"/><path d="M244.63035,186.49174v-8.3343h31.23916v8.3343z" fill="#1a1a1a"/><path d="M244.63035,202.69732v-9.26034h31.48513v9.26034z" fill="#131313"/><path d="M244.63035,210.10557v-21.29877h31.23916v21.29877z" fill="url(#color-11)"/><path d="M244.63035,199.37901v-29.63307h31.48513v29.63307z" fill="url(#color-12)"/><path d="M276.11537,198.45297v29.63306h-31.48513v-29.63306z" data-paper-data="{&quot;index&quot;:null}" fill="url(#color-13)"/><path d="M244.63035,256.79304v-29.63307h31.48513v29.63307z" fill="url(#color-14)"/><path d="M276.11537,255.86708v29.63306h-31.48513v-29.63306z" data-paper-data="{&quot;index&quot;:null}" fill="url(#color-15)"/><path d="M244.63035,107.70599v-9.26033h31.48513v9.26033z" fill="#131313"/><path d="M202.95882,124.36097v-29.63307h31.48514v29.63307z" fill="url(#color-16)"/><path d="M234.444,123.43493v29.63307h-31.48514v-29.63306z" data-paper-data="{&quot;index&quot;:null}" fill="url(#color-17)"/><path d="M202.95882,181.77504v-29.63306h31.48514v29.63306z" fill="url(#color-18)"/><path d="M234.444,180.849v29.63306h-31.48514v-29.63306z" data-paper-data="{&quot;index&quot;:null}" fill="url(#color-19)"/><path d="M202.95882,186.48233v-8.3343h31.23916v8.3343z" fill="#1a1a1a"/><path d="M202.95882,202.68793v-9.26033h31.48514v9.26033z" fill="#131313"/><path d="M202.95882,210.09623v-21.29877h31.23916v21.29877z" fill="url(#color-20)"/><path d="M202.95882,199.36969v-29.63307h31.48514v29.63307z" fill="url(#color-21)"/><path d="M234.444,198.44365v29.63307h-31.48514v-29.63307z" data-paper-data="{&quot;index&quot;:null}" fill="url(#color-22)"/><path d="M202.95882,256.78363v-29.63307h31.48514v29.63307z" fill="url(#color-23)"/><path d="M234.444,255.85768v29.63307h-31.48514v-29.63307z" data-paper-data="{&quot;index&quot;:null}" fill="url(#color-24)"/><path d="M202.95882,106.69666v-9.26033h31.48514v9.26033z" fill="#131313"/><path d="M97.39107,117.87873v-29.63307h70.37853v29.63307z" fill="url(#color-25)"/><path d="M167.76943,116.9527v29.63307h-70.37853v-29.63307z" data-paper-data="{&quot;index&quot;:null}" fill="url(#color-26)"/><path d="M97.39107,175.29278v-29.63307h70.37853v29.63307z" fill="url(#color-27)"/><path d="M167.76943,174.36674v29.63306h-70.37853v-29.63306z" data-paper-data="{&quot;index&quot;:null}" fill="url(#color-28)"/><path d="M97.39107,180.00014v-8.3343h69.8287v8.3343z" fill="#1a1a1a"/><path d="M97.39107,196.20574v-9.26034h70.37853v9.26034z" fill="#131313"/><path d="M97.39107,203.61397v-21.29877h69.8287v21.29877z" fill="url(#color-29)"/><path d="M97.39107,192.88743v-23.13307h70.37853v23.13307z" fill="url(#color-30)"/><path d="M167.76943,191.96139v29.63306h-70.37853v-29.63306z" data-paper-data="{&quot;index&quot;:null}" fill="url(#color-31)"/><path d="M97.39107,213.80037v-9.26033h70.37853v9.26033z" fill="#131313"/><path d="M97.39107,250.30146v-29.63307h70.37853v29.63307z" fill="url(#color-32)"/><path d="M167.76943,249.37548v29.63307h-70.37853v-29.63307z" data-paper-data="{&quot;index&quot;:null}" fill="url(#color-33)"/><path d="M97.39107,100.21441v-9.26033h70.37853v9.26033z" fill="#131313"/><path d="M382.60934,117.02669v29.63307h-70.37853v-29.63306z" data-paper-data="{&quot;index&quot;:null}" fill="url(#color-34)"/><path d="M312.23064,175.36674v-29.63307h70.37854v29.63307z" fill="url(#color-35)"/><path d="M382.60934,174.4407v29.63307h-70.37853v-29.63307z" data-paper-data="{&quot;index&quot;:null}" fill="url(#color-36)"/><path d="M312.23064,100.45447v-10.18636h69.82871v10.18636z" fill="#131313"/><g><path d="M97.39107,132.58605v-8.3343h69.8287v8.3343z" fill="#1a1a1a"/><path d="M97.39107,116.38049v-10.18637h69.8287v10.18637z" fill="#131313"/><path d="M97.39107,148.79161v-9.26033h70.37853v9.26033z" fill="#131313"/><path d="M97.39107,173.79449v-10.18636h69.8287v10.18636z" fill="#131313"/><path d="M97.39107,207.59479v-8.3343h69.8287v8.3343z" fill="#131313"/><path d="M97.39107,191.38921v-10.18636h69.8287v10.18636z" fill="#131313"/><path d="M97.39107,231.20859v-21.29877h69.8287v21.29877z" fill="url(#color-37)"/><path d="M97.39107,265.00874v-8.3343h69.8287v8.3343z" fill="#1a1a1a"/><path d="M97.39107,248.80324v-10.18637h69.8287v10.18637z" fill="#131313"/></g><g><path d="M312.23064,231.28255v-21.29877h69.82871v21.29877z" fill="url(#color-38)"/><path d="M312.23064,265.00874v-8.3343h69.82871v8.3343z" fill="#1a1a1a"/><path d="M312.23064,249.63655v-10.18637h69.82871v10.18637z" fill="#131313"/><path d="M312.23064,132.66001v-8.3343h69.82871v8.3343z" fill="#1a1a1a"/><path d="M312.23064,116.45447v-10.18636h69.82871v10.18636z" fill="#131313"/><path d="M312.23064,148.86557v-9.26033h70.37854v9.26033z" fill="#131313"/><path d="M312.23064,190.07412v-8.3343h69.82871v8.3343z" fill="#131313"/><path d="M312.23064,173.86845v-10.18637h69.82871v10.18637z" fill="#131313"/><path d="M312.23064,206.2797v-9.26033h70.37854v9.26033z" fill="#131313"/></g><g fill="#131313"><path d="M202.95882,140.06824v-8.3343h31.23916v8.3343z"/><path d="M202.95882,123.86274v-10.18636h31.23916v10.18636z"/><path d="M202.95882,156.27382v-9.26033h31.48514v9.26033z"/><path d="M202.95882,215.07698v-8.3343h31.23916v8.3343z"/><path d="M202.95882,198.8714v-10.18637h31.23916v10.18637z"/><path d="M202.95882,231.28255v-9.26033h31.48514v9.26033z"/><path d="M202.95882,272.491v-8.3343h31.23916v8.3343z"/><path d="M202.95882,256.28549v-10.18636h31.23916v10.18636z"/><path d="M202.95882,181.27675v-10.18636h31.23916v10.18636z"/></g><g fill="#131313"><path d="M244.63035,140.07763v-8.3343h31.23916v8.3343z"/><path d="M244.63035,123.87209v-10.18636h31.23916v10.18636z"/><path d="M244.63035,156.28314v-9.26033h31.48513v9.26033z"/><path d="M244.63035,215.08637v-8.3343h31.23916v8.3343z"/><path d="M244.63035,198.88079v-10.18636h31.23916v10.18636z"/><path d="M244.63035,231.29195v-9.26033h31.48513v9.26033z"/><path d="M244.63035,272.50032v-8.3343h31.23916v8.3343z"/><path d="M244.63035,256.29483v-10.18636h31.23916v10.18636z"/><path d="M244.63035,181.28616v-10.18637h31.23916v10.18637z"/></g><path d="M98.50007,146.33335v-58h69v58z" fill="url(#color-39)"/><path d="M313.50005,146.33335v-58h69v58z" fill="url(#color-40)"/><path d="M167.50005,220.33336v58h-69v-58z" data-paper-data="{&quot;index&quot;:null}" fill="url(#color-41)"/><path d="M381.50006,221.33336v58h-69v-58z" data-paper-data="{&quot;index&quot;:null}" fill="url(#color-42)"/></g></g></svg>