<svg version="1.1" xmlns="http://www.w3.org/2000/svg" xmlns:xlink="http://www.w3.org/1999/xlink" width="93.35491" height="14.21549" viewBox="0,0,93.35491,14.21549"><g transform="translate(-125.09785,-194.08895)"><g data-paper-data="{&quot;isPaintingLayer&quot;:true}" fill-rule="nonzero" stroke-linejoin="miter" stroke-miterlimit="10" stroke-dasharray="" stroke-dashoffset="0" style="mix-blend-mode: normal"><g stroke="#ffcc00" stroke-width="0" stroke-linecap="butt"><path d="M126.95284,195.94394c2.47332,-2.47332 6.48336,-2.47332 8.95668,0c2.47332,2.47332 2.47332,6.48336 0,8.95668c-2.47332,2.47332 -6.48336,2.47332 -8.95668,0c-2.47332,-2.47332 -2.47332,-6.48336 0,-8.95668z" fill="#fcc800"/><path d="M126.95284,195.94394c2.47332,-2.47332 6.48336,-2.47332 8.95668,0c2.47332,2.47332 2.47332,6.48336 0,8.95668c-0.17675,0.17675 0.00831,0.01685 0.00831,0.01685l-4.50948,-4.54067l-4.39015,-4.40431c0,0 -0.32594,0.23203 -0.06536,-0.02855z" fill="#ffdb4a"/></g><path d="M144.58194,204.69897v-9.84605h1.6601l4.5681,6.93803v-6.93803h1.67154v9.84605h-1.67154l-4.5681,-6.93803v6.93803zM157.64846,204.90506c-0.73272,0 -1.37767,-0.1641 -1.93485,-0.4923c-0.54954,-0.33584 -0.97697,-0.79761 -1.28228,-1.38531c-0.29767,-0.58771 -0.44651,-1.25939 -0.44651,-2.01501c0,-0.77853 0.15265,-1.45783 0.45795,-2.0379c0.31294,-0.58771 0.74418,-1.04566 1.29373,-1.37386c0.54954,-0.3282 1.18686,-0.49231 1.91196,-0.49231c0.74799,0 1.39677,0.16792 1.94632,0.50376c0.54954,0.3282 0.97697,0.78616 1.28228,1.37387c0.3053,0.58771 0.45795,1.26319 0.45795,2.02645c0,0.76326 -0.15265,1.43875 -0.45795,2.02646c-0.3053,0.58007 -0.73655,1.03803 -1.29373,1.37386c-0.54954,0.3282 -1.19451,0.4923 -1.93487,0.4923zM157.64846,203.35945c0.6564,0 1.1449,-0.21753 1.46547,-0.65258c0.32057,-0.44269 0.48085,-1.00751 0.48085,-1.69444c0,-0.71747 -0.1641,-1.28991 -0.4923,-1.71733c-0.32057,-0.42742 -0.80525,-0.64114 -1.45402,-0.64114c-0.44269,0 -0.80524,0.09922 -1.08764,0.29767c-0.28241,0.19844 -0.49231,0.47704 -0.62969,0.83577c-0.13738,0.3511 -0.20608,0.75944 -0.20608,1.22503c0,0.70983 0.16029,1.27846 0.48086,1.70588c0.3282,0.42742 0.80905,0.64114 1.44255,0.64114zM165.57904,204.69897v-9.84605h3.13699c0.07632,0 0.23661,0.00382 0.48086,0.01145c0.24424,0.00763 0.48085,0.0229 0.70983,0.04579c0.77853,0.09922 1.43875,0.37781 1.98067,0.83577c0.54192,0.45032 0.95025,1.02659 1.22503,1.72879c0.27477,0.7022 0.41215,1.46927 0.41215,2.30122c0,0.83195 -0.13738,1.59903 -0.41215,2.30123c-0.27477,0.7022 -0.68311,1.28228 -1.22503,1.74024c-0.54192,0.45032 -1.20214,0.7251 -1.98067,0.82432c-0.22135,0.03053 -0.45795,0.04961 -0.70983,0.05724c-0.24424,0 -0.40453,0 -0.48086,0zM167.25058,203.14192h1.46545c0.13739,0 0.30913,-0.00382 0.51521,-0.01145c0.21371,-0.00763 0.40453,-0.02671 0.57245,-0.05724c0.45795,-0.08396 0.83195,-0.29004 1.12199,-0.61824c0.29767,-0.3282 0.5152,-0.7251 0.65259,-1.19069c0.13739,-0.47323 0.20608,-0.96934 0.20608,-1.48836c0,-0.53428 -0.07251,-1.03422 -0.21753,-1.49981c-0.13739,-0.47323 -0.35492,-0.86629 -0.65259,-1.17923c-0.29004,-0.32057 -0.66021,-0.52665 -1.11053,-0.61824c-0.16792,-0.03053 -0.35874,-0.04961 -0.57245,-0.05724c-0.20608,-0.00763 -0.37782,-0.01145 -0.51521,-0.01145h-1.46545zM177.21566,204.90506c-0.53428,0 -0.98841,-0.09922 -1.36241,-0.29767c-0.36637,-0.20608 -0.64496,-0.47704 -0.83577,-0.81288c-0.18318,-0.34347 -0.27478,-0.71747 -0.27478,-1.12199c0,-0.3511 0.05724,-0.66785 0.17174,-0.95025c0.12212,-0.29004 0.3053,-0.53809 0.54954,-0.74417c0.24424,-0.20608 0.56482,-0.37782 0.96171,-0.51521c0.29004,-0.09159 0.63351,-0.17555 1.0304,-0.25188c0.40452,-0.07632 0.83958,-0.14883 1.30517,-0.21753c0.46559,-0.06869 0.95408,-0.14121 1.46546,-0.21753l-0.58389,0.33202c0,-0.50375 -0.1145,-0.87774 -0.34347,-1.12199c-0.22897,-0.24425 -0.62205,-0.36637 -1.17923,-0.36637c-0.3282,0 -0.64877,0.08014 -0.96171,0.24042c-0.3053,0.15265 -0.52283,0.41598 -0.65259,0.78998l-1.49981,-0.46941c0.18318,-0.62588 0.53047,-1.12581 1.04185,-1.49981c0.51138,-0.38163 1.20213,-0.57245 2.07225,-0.57245c0.6564,0 1.23266,0.10687 1.72878,0.32058c0.50375,0.21371 0.87775,0.56481 1.12199,1.05329c0.12976,0.25951 0.20607,0.52665 0.22897,0.80142c0.03053,0.26714 0.04581,0.56099 0.04581,0.88156v4.53376h-1.44256v-1.60285l0.24042,0.26333c-0.33584,0.53428 -0.7251,0.92736 -1.16778,1.17924c-0.44268,0.24425 -0.99606,0.36637 -1.6601,0.36637zM177.54768,203.58843c0.36637,0 0.68312,-0.06488 0.95026,-0.19464c0.26714,-0.12975 0.47704,-0.29004 0.62969,-0.48085c0.16029,-0.19081 0.26714,-0.374 0.32057,-0.54954c0.08396,-0.20608 0.12976,-0.44269 0.13739,-0.70983c0.01527,-0.27478 0.02289,-0.49612 0.02289,-0.66403l0.5152,0.14883c-0.49612,0.07632 -0.92354,0.14501 -1.28227,0.20608c-0.35874,0.06107 -0.66403,0.11831 -0.91591,0.17174c-0.25187,0.04579 -0.47705,0.10304 -0.67549,0.17173c-0.19081,0.06869 -0.35491,0.14884 -0.4923,0.24043c-0.12976,0.09159 -0.22897,0.19844 -0.29767,0.32057c-0.06869,0.1145 -0.10304,0.24806 -0.10304,0.40071c0,0.18318 0.04579,0.34728 0.13738,0.4923c0.09159,0.13738 0.22517,0.24806 0.40072,0.33202c0.17555,0.07632 0.39307,0.11449 0.65258,0.11449zM191.89022,204.69897v-4.48797c0,-0.50375 -0.12594,-0.89683 -0.37782,-1.17923c-0.25187,-0.29004 -0.59153,-0.43506 -1.01895,-0.43506c-0.26714,0 -0.50375,0.06105 -0.70983,0.18318c-0.20608,0.12213 -0.37399,0.30149 -0.50375,0.53809c-0.12212,0.2366 -0.18318,0.51521 -0.18318,0.83578l-0.73274,-0.43507c0,-0.50375 0.1145,-0.95025 0.34347,-1.33952c0.2366,-0.39689 0.55336,-0.7022 0.95025,-0.91591c0.40452,-0.22135 0.85486,-0.33202 1.35097,-0.33202c0.81669,0 1.44256,0.24424 1.87762,0.73273c0.43506,0.48848 0.65259,1.13344 0.65259,1.93487v4.90013zM183.00587,204.69897v-7.38453h1.46546v2.28978h0.19463v5.09475zM187.4595,204.69897v-4.46507c0,-0.51138 -0.12594,-0.91209 -0.37781,-1.20213c-0.25187,-0.29004 -0.59153,-0.43506 -1.01895,-0.43506c-0.41979,0 -0.75944,0.14502 -1.01895,0.43506c-0.25187,0.29004 -0.37781,0.66404 -0.37781,1.12199l-0.73273,-0.49231c0,-0.48085 0.11831,-0.91209 0.35491,-1.29372c0.2366,-0.38163 0.55718,-0.68311 0.96171,-0.90446c0.40452,-0.22135 0.85485,-0.33202 1.35097,-0.33202c0.55718,0 1.01894,0.11831 1.38531,0.35492c0.374,0.2366 0.65259,0.55718 0.83577,0.9617c0.18318,0.39689 0.27478,0.85103 0.27478,1.36241v4.88868zM197.37889,204.90506c-0.53428,0 -0.98842,-0.09922 -1.36241,-0.29767c-0.36637,-0.20608 -0.64497,-0.47704 -0.83578,-0.81288c-0.18318,-0.34347 -0.27477,-0.71747 -0.27477,-1.12199c0,-0.3511 0.05723,-0.66785 0.17172,-0.95025c0.12212,-0.29004 0.3053,-0.53809 0.54955,-0.74417c0.24425,-0.20608 0.56482,-0.37782 0.96171,-0.51521c0.29004,-0.09159 0.63351,-0.17555 1.0304,-0.25188c0.40453,-0.07632 0.83958,-0.14883 1.30518,-0.21753c0.46559,-0.06869 0.95407,-0.14121 1.46545,-0.21753l-0.58389,0.33202c0,-0.50375 -0.11449,-0.87774 -0.34346,-1.12199c-0.22898,-0.24425 -0.62206,-0.36637 -1.17924,-0.36637c-0.3282,0 -0.64877,0.08014 -0.96171,0.24042c-0.30531,0.15265 -0.52283,0.41598 -0.65259,0.78998l-1.49981,-0.46941c0.18318,-0.62588 0.53047,-1.12581 1.04185,-1.49981c0.51139,-0.38163 1.20213,-0.57245 2.07225,-0.57245c0.65641,0 1.23267,0.10687 1.72879,0.32058c0.50375,0.21371 0.87774,0.56481 1.12199,1.05329c0.12976,0.25951 0.20608,0.52665 0.22898,0.80142c0.03053,0.26714 0.04579,0.56099 0.04579,0.88156v4.53376h-1.44256v-1.60285l0.24043,0.26333c-0.33584,0.53428 -0.72511,0.92736 -1.16779,1.17924c-0.44268,0.24425 -0.99605,0.36637 -1.66008,0.36637zM197.71091,203.58843c0.36637,0 0.68312,-0.06488 0.95027,-0.19464c0.26714,-0.12975 0.47703,-0.29004 0.62968,-0.48085c0.16029,-0.19081 0.26714,-0.374 0.32058,-0.54954c0.08396,-0.20608 0.12976,-0.44269 0.13739,-0.70983c0.01527,-0.27478 0.0229,-0.49612 0.0229,-0.66403l0.51519,0.14883c-0.49612,0.07632 -0.92354,0.14501 -1.28227,0.20608c-0.35873,0.06107 -0.66403,0.11831 -0.91591,0.17174c-0.25187,0.04579 -0.47704,0.10304 -0.67548,0.17173c-0.19081,0.06869 -0.35492,0.14884 -0.4923,0.24043c-0.12976,0.09159 -0.22898,0.19844 -0.29768,0.32057c-0.0687,0.1145 -0.10304,0.24806 -0.10304,0.40071c0,0.18318 0.0458,0.34728 0.13739,0.4923c0.09159,0.13738 0.22516,0.24806 0.40071,0.33202c0.17555,0.07632 0.39307,0.11449 0.65259,0.11449zM206.29465,208.17944c-0.41216,0 -0.80905,-0.06488 -1.19068,-0.19463c-0.374,-0.12213 -0.70983,-0.3053 -1.0075,-0.54955c-0.29767,-0.2366 -0.54192,-0.52283 -0.73273,-0.85867l1.51126,-0.74418c0.14502,0.26714 0.34346,0.46559 0.59533,0.59535c0.25951,0.12975 0.53428,0.19464 0.82432,0.19464c0.34347,0 0.64877,-0.06106 0.91591,-0.18319c0.26714,-0.12213 0.47322,-0.30149 0.61824,-0.53809c0.15265,-0.22897 0.22516,-0.51902 0.21753,-0.87012v-2.1066h0.20608v-5.60996h1.44256v7.73946c0,0.19081 -0.00763,0.37018 -0.0229,0.53809c-0.01527,0.16791 -0.04197,0.33584 -0.08014,0.50375c-0.10686,0.47323 -0.31675,0.86248 -0.62969,1.16779c-0.31294,0.31294 -0.69839,0.54192 -1.15634,0.68693c-0.45795,0.15265 -0.96171,0.22898 -1.51126,0.22898zM206.14582,204.90506c-0.6793,0 -1.27083,-0.17173 -1.77458,-0.5152c-0.50375,-0.34347 -0.89683,-0.80906 -1.17924,-1.39676c-0.27478,-0.58771 -0.41215,-1.24794 -0.41215,-1.98067c0,-0.748 0.13738,-1.41585 0.41215,-2.00356c0.2824,-0.58771 0.6793,-1.04948 1.19069,-1.38532c0.51902,-0.34347 1.12581,-0.5152 1.82037,-0.5152c0.7022,0 1.28991,0.17173 1.76314,0.5152c0.48085,0.33584 0.84339,0.79761 1.08764,1.38532c0.25187,0.58771 0.37781,1.25556 0.37781,2.00356c0,0.73272 -0.12594,1.39296 -0.37781,1.98067c-0.24425,0.58771 -0.61061,1.05329 -1.09909,1.39676c-0.48848,0.34347 -1.09146,0.5152 -1.80893,0.5152zM206.39769,203.42815c0.44268,0 0.7976,-0.09923 1.06475,-0.29767c0.27478,-0.20608 0.47322,-0.4923 0.59534,-0.85867c0.12976,-0.36637 0.19464,-0.78615 0.19464,-1.25938c0,-0.48848 -0.06488,-0.91209 -0.19464,-1.27083c-0.12212,-0.36637 -0.31674,-0.64877 -0.58389,-0.84722c-0.25951,-0.20608 -0.59916,-0.30912 -1.01896,-0.30912c-0.44268,0 -0.80905,0.11066 -1.09909,0.33201c-0.2824,0.21371 -0.49231,0.50375 -0.62969,0.87011c-0.13738,0.36637 -0.20608,0.77471 -0.20608,1.22503c0,0.45032 0.06488,0.85867 0.19463,1.22503c0.13738,0.36637 0.34347,0.65641 0.61825,0.87012c0.2824,0.21371 0.63732,0.32057 1.06474,0.32057zM214.96724,204.90506c-0.748,0 -1.4044,-0.16029 -1.96921,-0.48086c-0.56481,-0.3282 -1.0075,-0.77851 -1.32807,-1.35097c-0.31294,-0.57245 -0.46941,-1.23266 -0.46941,-1.98066c0,-0.80906 0.15265,-1.51125 0.45795,-2.10659c0.31294,-0.59535 0.74418,-1.05712 1.29373,-1.38532c0.54954,-0.3282 1.18687,-0.49231 1.91197,-0.49231c0.77089,0 1.42348,0.17937 1.95776,0.5381c0.53428,0.35873 0.93117,0.8663 1.19068,1.52271c0.25951,0.64877 0.35873,1.41584 0.29767,2.30123h-1.63719v-0.6068c-0.00763,-0.80142 -0.14884,-1.38531 -0.42361,-1.75168c-0.27478,-0.374 -0.71364,-0.561 -1.31662,-0.561c-0.67167,0 -1.1716,0.2099 -1.4998,0.62969c-0.3282,0.41979 -0.49231,1.03039 -0.49231,1.83182c0,0.748 0.16411,1.32808 0.49231,1.74024c0.3282,0.40453 0.80524,0.60679 1.43111,0.60679c0.40453,0 0.75181,-0.08778 1.04185,-0.26333c0.29767,-0.18318 0.52665,-0.44649 0.68694,-0.78996l1.62574,0.4923c-0.2824,0.66404 -0.71746,1.18305 -1.30517,1.55705c-0.58771,0.36637 -1.23648,0.54954 -1.94631,0.54954zM212.42558,201.47039v-1.24793h5.07187v1.24793z" fill="#01ebfc" stroke="#01ebfc" stroke-width="0.25" stroke-linecap="square"/></g></g></svg>