<svg version="1.1" xmlns="http://www.w3.org/2000/svg" xmlns:xlink="http://www.w3.org/1999/xlink" width="36.98156" height="655.55223" viewBox="0,0,36.98156,655.55223"><defs><linearGradient x1="231.41673" y1="362.27719" x2="237.70829" y2="362.22603" gradientUnits="userSpaceOnUse" id="color-1"><stop offset="0" stop-color="#ff0000"/><stop offset="1" stop-color="#ffffff"/></linearGradient><linearGradient x1="244.82767" y1="362.16814" x2="251.11923" y2="362.117" gradientUnits="userSpaceOnUse" id="color-2"><stop offset="0" stop-color="#ffffff"/><stop offset="1" stop-color="#ff0000"/></linearGradient><linearGradient x1="238.12318" y1="363.3129" x2="227.85802" y2="363.39637" gradientUnits="userSpaceOnUse" id="color-3"><stop offset="0" stop-color="#ff0000"/><stop offset="1" stop-color="#ff0000" stop-opacity="0"/></linearGradient><linearGradient x1="245.07699" y1="363.25636" x2="255.34216" y2="363.1729" gradientUnits="userSpaceOnUse" id="color-4"><stop offset="0" stop-color="#ff0000"/><stop offset="1" stop-color="#ff0000" stop-opacity="0"/></linearGradient><linearGradient x1="249.05061" y1="363.22406" x2="259.31576" y2="363.14059" gradientUnits="userSpaceOnUse" id="color-5"><stop offset="0" stop-color="#ff0000"/><stop offset="1" stop-color="#ff0000" stop-opacity="0"/></linearGradient><linearGradient x1="233.81843" y1="363.3479" x2="223.55326" y2="363.43137" gradientUnits="userSpaceOnUse" id="color-6"><stop offset="0" stop-color="#ff0000"/><stop offset="1" stop-color="#ff0000" stop-opacity="0"/></linearGradient><radialGradient cx="243.7405" cy="59.21861" r="6.4169" gradientUnits="userSpaceOnUse" id="color-7"><stop offset="0" stop-color="#ffffff"/><stop offset="1" stop-color="#ffffff" stop-opacity="0"/></radialGradient><radialGradient cx="235.80427" cy="59.78189" r="4.4468" gradientUnits="userSpaceOnUse" id="color-8"><stop offset="0" stop-color="#ffffff"/><stop offset="1" stop-color="#ffffff" stop-opacity="0"/></radialGradient><radialGradient cx="246.8368" cy="59.69393" r="4.4468" gradientUnits="userSpaceOnUse" id="color-9"><stop offset="0" stop-color="#ffffff"/><stop offset="1" stop-color="#ffffff" stop-opacity="0"/></radialGradient><radialGradient cx="241.48896" cy="59.23657" r="6.4169" gradientUnits="userSpaceOnUse" id="color-10"><stop offset="0" stop-color="#ffffff"/><stop offset="1" stop-color="#ffffff" stop-opacity="0"/></radialGradient><radialGradient cx="238.78772" cy="59.92476" r="6.4169" gradientUnits="userSpaceOnUse" id="color-11"><stop offset="0" stop-color="#ffffff"/><stop offset="1" stop-color="#ffffff" stop-opacity="0"/></radialGradient><radialGradient cx="247.51227" cy="59.68855" r="5.2067" gradientUnits="userSpaceOnUse" id="color-12"><stop offset="0" stop-color="#ffffff"/><stop offset="1" stop-color="#ffffff" stop-opacity="0"/></radialGradient><radialGradient cx="234.45292" cy="59.29266" r="5.06598" gradientUnits="userSpaceOnUse" id="color-13"><stop offset="0" stop-color="#ffffff"/><stop offset="1" stop-color="#ffffff" stop-opacity="0"/></radialGradient><radialGradient cx="250.32698" cy="59.99944" r="3.20844" gradientUnits="userSpaceOnUse" id="color-14"><stop offset="0" stop-color="#ffffff"/><stop offset="1" stop-color="#ffffff" stop-opacity="0"/></radialGradient><radialGradient cx="241.0923" cy="55.07439" r="12.83379" gradientUnits="userSpaceOnUse" id="color-15"><stop offset="0" stop-color="#ffffff"/><stop offset="1" stop-color="#ffffff" stop-opacity="0"/></radialGradient><radialGradient cx="246.83369" cy="55.02862" r="12.83379" gradientUnits="userSpaceOnUse" id="color-16"><stop offset="0" stop-color="#ffffff"/><stop offset="1" stop-color="#ffffff" stop-opacity="0"/></radialGradient><radialGradient cx="235.51973" cy="55.11881" r="12.83379" gradientUnits="userSpaceOnUse" id="color-17"><stop offset="0" stop-color="#ffffff"/><stop offset="1" stop-color="#ffffff" stop-opacity="0"/></radialGradient></defs><g transform="translate(-222.68593,-17.02862)"><g data-paper-data="{&quot;isPaintingLayer&quot;:true}" fill-rule="nonzero" stroke-linejoin="miter" stroke-miterlimit="10" stroke-dasharray="" stroke-dashoffset="0" style="mix-blend-mode: normal"><g fill="none" stroke="#ff0000" stroke-width="4" stroke-linecap="round"><g><path d="M242.26941,322.05928c0,0 -15.27981,-18.59777 -12.17693,-44.61744c2.23847,-18.77095 23.53358,-41.48168 22.08903,-63.49364c-2.15973,-32.90996 -21.74244,-64.52957 -21.75693,-80.7933c-0.01897,-21.27719 11.63355,-48.09476 11.63355,-48.09476"/><path d="M241.47934,321.06568c0,0 11.70015,26.62769 11.71914,47.90489c0.01449,16.26372 -19.51154,48.20132 -21.61257,81.14592c-1.40528,22.03513 19.93002,44.39925 22.20192,63.13353c3.14923,25.96885 -12.09719,44.81482 -12.09719,44.81482" data-paper-data="{&quot;index&quot;:null}"/></g><g data-paper-data="{&quot;index&quot;:null}"><path d="M241.45528,294.06577c0,0 15.27981,18.59777 12.17693,44.61744c-2.23847,18.77094 -23.53358,41.48167 -22.08903,63.49364c2.15973,32.90995 21.74244,64.52957 21.75693,80.7933c0.01897,21.27719 -11.63355,48.09476 -11.63355,48.09476"/><path d="M242.24532,295.05937c0,0 -11.70015,-26.62769 -11.71914,-47.90489c-0.01449,-16.26372 19.51154,-48.20132 21.61257,-81.14592c1.40528,-22.03513 -19.93002,-44.39925 -22.20192,-63.13353c-3.14923,-25.96885 12.09719,-44.81482 12.09719,-44.81482" data-paper-data="{&quot;index&quot;:null}"/></g></g><g stroke="none" stroke-linecap="butt"><path d="M231.69279,671.90318l-0.55208,-619.25198l6.29156,-0.05116l0.55208,619.25198z" data-paper-data="{&quot;index&quot;:null}" fill="url(#color-1)" stroke-width="NaN"/><path d="M237.73663,672.58085l-0.55273,-619.97878l7.94722,-0.06461l0.55273,619.97878z" fill="#ffffff" stroke-width="0"/><path d="M245.10372,671.79413l-0.55208,-619.25198l6.29156,-0.05116l0.55208,619.25198z" fill="url(#color-2)" stroke-width="NaN"/></g><g stroke="none" stroke-width="0" stroke-linecap="butt"><path d="M228.13307,671.93212l-0.55014,-617.0715l10.26516,-0.08346l0.55014,617.0715z" data-paper-data="{&quot;index&quot;:null}" fill="url(#color-3)"/><path d="M245.35206,671.79211l-0.55014,-617.0715l10.26516,-0.08346l0.55014,617.0715z" fill="url(#color-4)"/></g><path d="M249.32568,671.75981l-0.55014,-617.0715l10.26516,-0.08346l0.55014,617.0715z" fill="url(#color-5)" stroke="none" stroke-width="0" stroke-linecap="butt"/><path d="M223.82835,671.96712l-0.55014,-617.0715l10.26516,-0.08346l0.55014,617.0715z" data-paper-data="{&quot;index&quot;:null}" fill="url(#color-6)" stroke="none" stroke-width="0" stroke-linecap="butt"/><g stroke="none" stroke-width="0" stroke-linecap="butt"><path d="M237.32361,59.26977c-0.00954,-10.49337 2.85565,-19.02284 6.3996,-19.05109c3.54394,-0.02825 6.4246,8.4554 6.43416,18.94878c0.00954,10.49337 -2.85565,19.02284 -6.3996,19.05109c-3.54394,0.02825 -6.4246,-8.4554 -6.43416,-18.94878z" fill="url(#color-7)"/><path d="M231.3575,59.81733c-0.00661,-7.27173 1.97891,-13.18248 4.43481,-13.20206c2.4559,-0.01958 4.45214,5.85945 4.45877,13.13116c0.00661,7.27173 -1.97891,13.18249 -4.43481,13.20207c-2.4559,0.01958 -4.45214,-5.85943 -4.45874,-13.13118z" fill="url(#color-8)"/><path d="M242.39003,59.72938c-0.00661,-7.27173 1.97891,-13.18248 4.43481,-13.20206c2.4559,-0.01958 4.45214,5.85945 4.45877,13.13116c0.00661,7.27173 -1.97891,13.18249 -4.43481,13.20207c-2.4559,0.01958 -4.45214,-5.85944 -4.45877,-13.13117z" fill="url(#color-9)"/><path d="M235.07207,59.28772c-0.00954,-10.49337 2.85565,-19.02284 6.3996,-19.05109c3.54394,-0.02825 6.4246,8.4554 6.43416,18.94878c0.00954,10.49337 -2.85565,19.02284 -6.3996,19.05109c-3.54394,0.02825 -6.4246,-8.4554 -6.43416,-18.94878z" fill="url(#color-10)"/><path d="M232.37084,59.97592c-0.00954,-10.49337 2.85565,-19.02284 6.3996,-19.05109c3.54394,-0.02825 6.4246,8.4554 6.43416,18.94878c0.00954,10.49337 -2.85565,19.02284 -6.3996,19.05109c-3.54394,0.02825 -6.4246,-8.4554 -6.43416,-18.94878z" fill="url(#color-11)"/><path d="M242.30559,59.73006c-0.00774,-8.51436 2.31709,-15.43519 5.19264,-15.45811c2.87556,-0.02293 5.21296,6.86075 5.22068,15.3751c0.00774,8.51436 -2.31709,15.4352 -5.19267,15.45812c-2.87556,0.02293 -5.21296,-6.86075 -5.22068,-15.37511z" fill="url(#color-12)"/><path d="M229.38696,59.33304c-0.00754,-8.28424 2.25447,-15.01803 5.05231,-15.04033c2.79784,-0.0223 5.07206,6.67532 5.0796,14.95956c0.00754,8.28424 -2.25447,15.01803 -5.05231,15.04033c-2.79784,0.0223 -5.07206,-6.67532 -5.0796,-14.95956z" fill="url(#color-13)"/><path d="M247.11856,60.02502c-0.00477,-5.24669 1.42782,-9.51141 3.19979,-9.52554c1.77197,-0.01413 3.2123,4.2277 3.21707,9.47439c0.00477,5.24669 -1.42782,9.51142 -3.19979,9.52554c-1.77197,0.01412 -3.2123,-4.2277 -3.21707,-9.47439z" fill="url(#color-14)"/><g><path d="M228.25853,55.1767c-0.01909,-20.98674 5.71131,-38.04567 12.79919,-38.10217c7.08789,-0.05651 12.84923,16.91081 12.8683,37.89755c0.01909,20.98674 -5.71131,38.04567 -12.79919,38.10217c-7.08789,0.05651 -12.84923,-16.91081 -12.8683,-37.89755z" fill="url(#color-15)"/><path d="M233.99995,55.13093c-0.01909,-20.98674 5.71131,-38.04567 12.79919,-38.10217c7.08789,-0.05651 12.84923,16.91081 12.8683,37.89755c0.01909,20.98674 -5.71131,38.04567 -12.79919,38.10217c-7.08789,0.05651 -12.84923,-16.91081 -12.8683,-37.89755z" fill="url(#color-16)"/><path d="M222.68598,55.22112c-0.01909,-20.98674 5.71131,-38.04567 12.79919,-38.10217c7.08789,-0.05651 12.84923,16.91081 12.8683,37.89755c0.01909,20.98674 -5.71131,38.04567 -12.79919,38.10217c-7.08789,0.05651 -12.84923,-16.91081 -12.8683,-37.89755z" fill="url(#color-17)"/></g></g></g></g></svg>