<svg version="1.1" xmlns="http://www.w3.org/2000/svg" xmlns:xlink="http://www.w3.org/1999/xlink" width="175.5" height="102" viewBox="0,0,175.5,102"><g transform="translate(-152.25,-129)"><g data-paper-data="{&quot;isPaintingLayer&quot;:true}" fill-rule="nonzero" stroke-linejoin="miter" stroke-miterlimit="10" stroke-dasharray="" stroke-dashoffset="0" style="mix-blend-mode: normal"><path d="M152.25,231l175.5,-102" fill="none" stroke="#000000" stroke-width="0" stroke-linecap="round"/><path d="M205.64211,194.70099v-29.40197c0,0 -0.40771,0 1.14372,0c11.31542,0 59.91308,0 66.42819,0c1.49901,0 1.1646,0 1.1646,0v29.40197c0,0 0.07793,0 -1.42108,0c-6.41875,0 -53.78599,0 -65.91523,0c-1.87008,0 -1.40019,0 -1.40019,0z" fill="#005b66" stroke="#00e5ff" stroke-width="5" stroke-linecap="butt"/><path d="M231.99224,185.68103c-1.09056,0 -2.02472,-0.23671 -2.80248,-0.71013c-0.77776,-0.48187 -1.37377,-1.14974 -1.788,-2.00358c-0.41425,-0.85385 -0.62136,-1.84296 -0.62136,-2.96733c0,-1.12438 0.20712,-2.11349 0.62137,-2.96733c0.41425,-0.85385 1.01024,-1.51748 1.78801,-1.9909c0.77776,-0.48187 1.71193,-0.72281 2.80248,-0.72281c1.09056,0 2.02472,0.24094 2.80248,0.72282c0.78622,0.47342 1.38644,1.13705 1.80069,1.99091c0.41425,0.85385 0.62137,1.84296 0.62137,2.96733c0,1.12438 -0.20712,2.11349 -0.62136,2.96733c-0.41425,0.85385 -1.01447,1.52171 -1.80069,2.00358c-0.77776,0.47342 -1.71192,0.71013 -2.80248,0.71013zM231.99224,183.95642c0.73549,0.00846 1.34418,-0.15217 1.82605,-0.48187c0.49033,-0.3297 0.85807,-0.79044 1.10324,-1.38221c0.24516,-0.60023 0.36775,-1.29768 0.36775,-2.09235c0,-0.79467 -0.12258,-1.48366 -0.36774,-2.06698c-0.24516,-0.59178 -0.61291,-1.05251 -1.10323,-1.38221c-0.48187,-0.3297 -1.09056,-0.49878 -1.82605,-0.50724c-0.72704,-0.00846 -1.33572,0.15217 -1.82605,0.48187c-0.48187,0.3297 -0.8454,0.79467 -1.09056,1.3949c-0.24516,0.59178 -0.36774,1.285 -0.36774,2.07967c0,0.79467 0.11835,1.48789 0.35507,2.07967c0.24516,0.59178 0.61291,1.05252 1.10324,1.38222c0.49033,0.32125 1.09901,0.4861 1.82605,0.49456zM238.73724,185.45277v-10.90558h6.55603v1.82605h-4.74266v2.7264h3.84232v1.81337h-3.84231v4.53976zM246.66357,185.45277v-10.90558h6.55603v1.82605h-4.74266v2.7264h3.84232v1.81337h-3.84231v4.53976z" fill="#00e5ff" stroke="#00e5ff" stroke-width="0.5" stroke-linecap="square"/></g></g></svg>