<svg version="1.1" xmlns="http://www.w3.org/2000/svg" xmlns:xlink="http://www.w3.org/1999/xlink" width="38.71159" height="30.84126" viewBox="0,0,38.71159,30.84126"><defs><linearGradient x1="244.17069" y1="180.37919" x2="244.17069" y2="182.84595" gradientUnits="userSpaceOnUse" id="color-1"><stop offset="0" stop-color="#000000"/><stop offset="1" stop-color="#000000" stop-opacity="0"/></linearGradient><linearGradient x1="243.97069" y1="169.84544" x2="243.97069" y2="172.3122" gradientUnits="userSpaceOnUse" id="color-2"><stop offset="0" stop-color="#000000" stop-opacity="0"/><stop offset="1" stop-color="#000000"/></linearGradient><linearGradient x1="237.29542" y1="175.97346" x2="240.64555" y2="175.97346" gradientUnits="userSpaceOnUse" id="color-3"><stop offset="0" stop-color="#00688e" stop-opacity="0"/><stop offset="1" stop-color="#00688e"/></linearGradient><linearGradient x1="226.745" y1="175.82643" x2="228.24506" y2="175.82643" gradientUnits="userSpaceOnUse" id="color-4"><stop offset="0" stop-color="#009cd4"/><stop offset="1" stop-color="#009cd4" stop-opacity="0"/></linearGradient><linearGradient x1="234.25829" y1="144.70242" x2="259.36132" y2="182.97047" gradientUnits="userSpaceOnUse" id="color-5"><stop offset="0" stop-color="#c7c7c7"/><stop offset="1" stop-color="#c7c7c7" stop-opacity="0"/></linearGradient><linearGradient x1="277.79404" y1="164.68041" x2="239.29727" y2="189.43123" gradientUnits="userSpaceOnUse" id="color-6"><stop offset="0" stop-color="#c7c7c7"/><stop offset="1" stop-color="#c7c7c7" stop-opacity="0"/></linearGradient><linearGradient x1="-28.82509" y1="381.23131" x2="1588.62553" y2="-679.78152" gradientUnits="userSpaceOnUse" id="color-7"><stop offset="0" stop-color="#cacaca" stop-opacity="0"/><stop offset="1" stop-color="#cacaca"/></linearGradient><linearGradient x1="62.54744" y1="312.56151" x2="1141.25096" y2="-395.04481" gradientUnits="userSpaceOnUse" id="color-8"><stop offset="0" stop-color="#cacaca" stop-opacity="0"/><stop offset="1" stop-color="#cacaca"/></linearGradient><linearGradient x1="258.03202" y1="208.49184" x2="232.92902" y2="170.2238" gradientUnits="userSpaceOnUse" id="color-9"><stop offset="0" stop-color="#c7c7c7"/><stop offset="1" stop-color="#c7c7c7" stop-opacity="0"/></linearGradient><linearGradient x1="214.22132" y1="188.28027" x2="252.71809" y2="163.52943" gradientUnits="userSpaceOnUse" id="color-10"><stop offset="0" stop-color="#c7c7c7"/><stop offset="1" stop-color="#c7c7c7" stop-opacity="0"/></linearGradient></defs><g transform="translate(-222.49734,-159.8494)"><g data-paper-data="{&quot;isPaintingLayer&quot;:true}" fill-rule="nonzero" stroke-linejoin="miter" stroke-miterlimit="10" stroke-dasharray="" stroke-dashoffset="0" style="mix-blend-mode: normal"><path d="M243.67201,172.33934l-0.07162,-6.23984l1.60088,0.06163l1.46705,2.34341l0.21923,5.15802z" data-paper-data="{&quot;index&quot;:null}" fill="#001922" stroke="#8f8f8f" stroke-width="0" stroke-linecap="round"/><path d="M242.85159,170.0391l-1.7715,0.11429" data-paper-data="{&quot;index&quot;:null}" fill="none" stroke="#00baff" stroke-width="1" stroke-linecap="round"/><path d="M241.42296,182.3253l1.7715,0.11429" fill="none" stroke="#00baff" stroke-width="1" stroke-linecap="round"/><path d="M244.94707,168.5631l-0.10076,5.1617l-1.41287,2.37647l-1.59904,0.09836l-0.07163,-6.23984z" data-paper-data="{&quot;index&quot;:null}" fill="#000c11" stroke="#8f8f8f" stroke-width="0" stroke-linecap="round"/><path d="M241.93572,182.45614l0.07163,-6.23984l1.59904,0.09836l1.41287,2.37647l0.10076,5.1617z" data-paper-data="{&quot;index&quot;:null}" fill="#000c11" stroke="#8f8f8f" stroke-width="0" stroke-linecap="round"/><path d="M246.83917,178.50619l-0.10076,5.1617l-1.41287,2.37647l-1.59904,0.09836l-0.07163,-6.23984z" fill="#00283d" stroke="#8f8f8f" stroke-width="0" stroke-linecap="round"/><path d="M241.97061,182.84595v-2.46677h4.40017v2.46677z" fill="url(#color-1)" stroke="none" stroke-width="0" stroke-linecap="butt"/><path d="M243.67201,172.33934l-0.07162,-6.23984l1.60088,0.06163l1.46705,2.34341l0.21923,5.15802z" data-paper-data="{&quot;index&quot;:null}" fill="#00283d" stroke="#8f8f8f" stroke-width="0" stroke-linecap="round"/><path d="M246.17077,169.84544v2.46676h-4.40017v-2.46676z" data-paper-data="{&quot;index&quot;:null}" fill="url(#color-2)" stroke="none" stroke-width="0" stroke-linecap="butt"/><path d="M225.31783,175.04193l13.39828,-1.17089l3.73017,-2.60462l4.31849,-0.64278l5.48673,0.42072l5.46604,3.00334l1.01391,2.27285l-0.85805,2.23719l-5.43952,2.80266l-5.90947,0.5046l-4.39857,-1.05835l-3.54904,-2.7739l-13.25951,-1.47803" fill="#00baff" stroke="#00baff" stroke-width="0.5" stroke-linecap="round"/><path d="M252.26539,170.95672l5.4645,3.08046l0.46894,1.0233l-6.4937,-3.1258l-3.03177,-0.25094l-1.0397,-0.95959z" fill="#00283d" stroke="#00283d" stroke-width="0.5" stroke-linecap="round"/><path d="M247.933,181.86474l1.01796,-0.93339l3.02538,-0.30582l6.42213,-3.10994l-0.44593,0.98105l-5.39421,3.04392z" data-paper-data="{&quot;index&quot;:null}" fill="#00283d" stroke="#00283d" stroke-width="0.5" stroke-linecap="round"/><path d="M237.29542,177.97354v-4.05016l3.35013,-0.40002v4.90019z" fill="url(#color-3)" stroke="none" stroke-width="0" stroke-linecap="butt"/><path d="M253.0735,176.88235l-1.85332,2.34152l-4.55758,0.25234l-4.96262,-0.18306l-3.13415,-1.20416l-0.94707,-2.34937l1.17747,-1.97372l2.74891,-0.99166l5.15711,-0.29922l4.40723,0.58948z" fill="#00283d" stroke="#8f8f8f" stroke-width="0" stroke-linecap="round"/><path d="M253.75375,177.73168c-0.29767,0.42803 -0.85641,0.83521 -1.44015,1.18354c-0.58374,0.34833 -1.07413,0.31677 -1.07413,0.31677c0,0 0.63656,-1.71976 0.6271,-2.99874c-0.00946,-1.27898 -0.67251,-3.14023 -0.67251,-3.14023c0,0 0.65964,0.07374 1.05664,0.34305c0.39701,0.26931 0.94773,0.38716 1.44191,1.15353c0.49418,0.76637 0.52821,0.91077 0.54128,1.56441c0.01307,0.65365 -0.18248,1.14964 -0.48015,1.57767z" fill="#a5ffff" stroke="#8f8f8f" stroke-width="0.5" stroke-linecap="round"/><path d="M226.7189,175.94476l-0.0472,2.41785l-0.66182,1.11319l-0.74902,0.04607l-0.03355,-2.92287z" fill="#00283d" stroke="#8f8f8f" stroke-width="0" stroke-linecap="round"/><path d="M225.24854,174.96447l-0.03355,-2.92287l0.74988,0.02887l0.6872,1.0977l0.10269,2.41613z" data-paper-data="{&quot;index&quot;:null}" fill="#00283d" stroke="#8f8f8f" stroke-width="0" stroke-linecap="round"/><path d="M225.41275,176.5824l-2.91541,-0.21143l0.09159,-0.74483l1.15141,-0.59283l2.41624,0.10008z" data-paper-data="{&quot;index&quot;:null}" fill="#00283d" stroke="#8f8f8f" stroke-width="0" stroke-linecap="round"/><g stroke-linecap="butt"><path d="M246.44552,170.70105l-0.66121,0.00759l-0.02909,-2.53462l0.66121,-0.00759z" fill="#8d8d8d" stroke="none" stroke-width="0"/><path d="M247.29082,170.72807l-0.97712,0.01122l-0.02952,-2.57136l0.97712,-0.01122z" fill="#b7b7b7" stroke="#000000" stroke-width="0"/><path d="M246.98126,168.56405c0.00122,0.10651 -0.08413,0.19384 -0.19064,0.19507c-0.10651,0.00122 -0.19384,-0.08413 -0.19507,-0.19064c-0.00122,-0.10651 0.08413,-0.19384 0.19064,-0.19507c0.10651,-0.00122 0.19384,0.08413 0.19507,0.19064z" fill="#8d8d8d" stroke="none" stroke-width="0.5"/><path d="M247.02811,169.44525c0.00122,0.10651 -0.08413,0.19384 -0.19064,0.19507c-0.10651,0.00122 -0.19384,-0.08413 -0.19507,-0.19064c-0.00122,-0.10651 0.08413,-0.19384 0.19064,-0.19507c0.10651,-0.00122 0.19384,0.08413 0.19507,0.19064z" fill="#8d8d8d" stroke="none" stroke-width="0.5"/><path d="M247.03654,170.17992c0.00122,0.10651 -0.08413,0.19384 -0.19064,0.19507c-0.10651,0.00122 -0.19384,-0.08413 -0.19507,-0.19064c-0.00122,-0.10651 0.08413,-0.19384 0.19064,-0.19507c0.10651,-0.00122 0.19384,0.08413 0.19507,0.19064z" fill="#8d8d8d" stroke="none" stroke-width="0.5"/></g><g stroke-linecap="butt"><path d="M246.37372,184.36046l-0.66121,0.00759l-0.0291,-2.53463l0.66121,-0.00759z" fill="#8d8d8d" stroke="none" stroke-width="0"/><path d="M247.21902,184.38749l-0.97712,0.01122l-0.02952,-2.57136l0.97712,-0.01122z" fill="#b7b7b7" stroke="#000000" stroke-width="0"/><path d="M246.90945,182.22347c0.00122,0.10651 -0.08413,0.19384 -0.19064,0.19506c-0.10651,0.00122 -0.19384,-0.08413 -0.19506,-0.19064c-0.00122,-0.10651 0.08413,-0.19384 0.19064,-0.19507c0.10651,-0.00122 0.19384,0.08413 0.19507,0.19064z" fill="#8d8d8d" stroke="none" stroke-width="0.5"/><path d="M246.95631,183.10466c0.00122,0.10651 -0.08413,0.19384 -0.19064,0.19507c-0.10651,0.00122 -0.19384,-0.08413 -0.19507,-0.19064c-0.00122,-0.10651 0.08413,-0.19384 0.19064,-0.19507c0.10651,-0.00122 0.19384,0.08413 0.19507,0.19064z" fill="#8d8d8d" stroke="none" stroke-width="0.5"/><path d="M246.96474,183.83933c0.00122,0.10651 -0.08413,0.19384 -0.19064,0.19507c-0.10651,0.00122 -0.19384,-0.08413 -0.19507,-0.19064c-0.00122,-0.10651 0.08413,-0.19384 0.19064,-0.19507c0.10651,-0.00122 0.19384,0.08413 0.19507,0.19064z" fill="#8d8d8d" stroke="none" stroke-width="0.5"/></g><path d="M226.745,176.72199v-1.8135l1.50006,-0.17911v2.19412z" fill="url(#color-4)" stroke="none" stroke-width="0" stroke-linecap="butt"/><path d="M238.71048,175.04342c0.00405,0 0.00805,0.00006 0.01199,0.00016c0.09001,-0.19034 0.19019,-0.37534 0.27969,-0.55435c0,0 0.13417,-0.26834 0.40251,-0.13417c0.26834,0.13417 0.13417,0.40251 0.13417,0.40251c-0.16966,0.33932 -0.41158,0.7079 -0.46793,1.09679c0.19293,0.38858 0.77972,0.61056 1.15398,0.83187c0,0 0.1876,0.11256 0.14628,0.30564c1.00352,0.13946 1.99813,0.7586 2.92358,1.1103c0.87549,0.33271 1.78895,0.2048 2.65499,0.40653l0.01986,-0.09932l0.39457,0.07892c0.14022,0.02518 0.24662,0.14781 0.24662,0.29528c0,0.11976 -0.07018,0.22314 -0.17165,0.27125l-0.3142,0.1571l-0.00516,-0.01032l-0.02492,0.02336c-0.97626,0.24288 -1.90612,-0.05943 -2.88093,-0.06678c-1.29102,-0.50293 -4.28442,-1.1634 -4.71543,-2.78577c-0.04591,-0.17281 -0.05408,-0.34301 -0.03601,-0.51023c-0.01864,-0.05357 -0.03552,-0.10986 -0.05056,-0.16916l-0.00146,-0.34958c0,0 0,-0.30001 0.30001,-0.30001z" fill="#002d45" stroke="none" stroke-width="0.5" stroke-linecap="butt"/><path d="M248.01085,178.54356c0,-0.10459 0.03647,-0.17272 0.08397,-0.2171c0.03542,-0.24292 0.29604,-0.24292 0.29604,-0.24292c0.93213,0.00587 1.54006,0.46424 1.54006,-0.66003v-0.32001c0,-0.16569 0.13432,-0.30001 0.30001,-0.30001c0.06863,0 0.13188,0.02304 0.18243,0.06182l0.31759,0.23819l-0.11037,0.14716c0.44604,0.51324 0.63271,1.27887 -0.21478,1.65752c-0.47559,0.21249 -1.33297,-0.06461 -1.85494,-0.06461h-0.24001c0,0 -0.30001,0 -0.30001,-0.30001z" fill="#002d45" stroke="none" stroke-width="0.5" stroke-linecap="butt"/><path d="M252.44207,181.1109c0.07276,0.29106 -0.21829,0.36382 -0.21829,0.36382l-0.32001,0.08c-0.86517,0.21629 -1.91083,0.29301 -2.78563,0.08c0,0 -0.29106,-0.07277 -0.21829,-0.36382c0.07276,-0.29106 0.36382,-0.21829 0.36382,-0.21829c0.77297,0.19955 1.72891,0.11142 2.49458,-0.08l0.32001,-0.08c0,0 0.29106,-0.07276 0.36382,0.21829z" fill="#002d45" stroke="none" stroke-width="0.5" stroke-linecap="butt"/><path d="M256.92333,174.03551c-0.21214,0.21214 -0.42428,0 -0.42428,0l-0.08,-0.08c-0.26854,-0.2806 -0.5789,-0.31434 -0.90562,-0.51696c-1.07819,-0.66862 -2.24034,-1.63526 -3.52242,-1.63526c0,0 -0.30001,0 -0.30001,-0.30001c0,-0.30001 0.30001,-0.30001 0.30001,-0.30001c1.4119,0 3.82067,1.32745 4.85232,2.32796l0.08,0.08c0,0 0.21214,0.21214 0,0.42428z" fill="#002d45" stroke="none" stroke-width="0.5" stroke-linecap="butt"/><path d="M245.35074,167.56312c-0.21376,0 -0.27522,-0.15231 -0.29288,-0.23989c-0.18904,-0.19696 -0.36587,-0.4951 -0.53299,-0.35181c-0.20246,0.17361 -0.07417,0.86573 -0.07417,1.09172c0,0 0,0.30001 -0.30001,0.30001c-0.30001,0 -0.30001,-0.30001 -0.30001,-0.30001c0,-0.60199 -0.12314,-2.0361 0.97485,-1.63723c0.25717,0.09342 0.41315,0.36956 0.65939,0.48886l0.16584,0.34834c0,0 0,0.30001 -0.30001,0.30001z" fill="#002d45" stroke="none" stroke-width="0.5" stroke-linecap="butt"/><path d="M245.32287,184.81168c0.21214,0.21214 0,0.42428 0,0.42428l-0.15797,0.1362c-0.96286,0.36005 -1.14915,-0.50565 -1.15421,-1.30838c0,0 0,-0.30001 0.30001,-0.30001c0.30001,0 0.30001,0.30001 0.30001,0.30001c-0.00187,0.23591 -0.01735,1.06262 0.28585,0.7717l0.00203,-0.0238c0,0 0.21214,-0.21214 0.42428,0z" fill="#002d45" stroke="none" stroke-width="0.5" stroke-linecap="butt"/><path d="M236.93041,174.94342c0,0.30001 -0.30001,0.30001 -0.30001,0.30001c-0.45335,0 -1.06671,0 -1.52006,0c-1.44452,0 -2.93343,0.07886 -4.36352,0.23776c-0.62086,0.06899 -1.37011,0.00766 -1.8246,0.4744c0,0 -0.21214,0.21214 -0.42428,0c-0.21214,-0.21214 0,-0.42428 0,-0.42428c0.5962,-0.5844 1.38755,-0.55809 2.17556,-0.64565c1.4532,-0.16147 2.96963,-0.24226 4.43683,-0.24226c0.45335,0 0.9067,0 1.36005,0h0.16001c0,0 0.30001,0 0.30001,0.30001z" fill="#00b3f5" stroke="none" stroke-width="0.5" stroke-linecap="butt"/><path d="M248.61087,180.46364c0,0.30001 -0.30001,0.30001 -0.30001,0.30001h-0.08c-2.0124,0 -3.73201,0.15513 -5.73906,-0.24583c0,0 -0.29419,-0.05884 -0.23535,-0.35302c0.05884,-0.29418 0.35302,-0.23535 0.35302,-0.23535c1.97233,0.39489 3.64174,0.23418 5.62139,0.23418h0.08c0,0 0.30001,0 0.30001,0.30001z" fill="#00b3f5" stroke="none" stroke-width="0.5" stroke-linecap="butt"/><path d="M248.60191,172.29607c-0.07276,0.29106 -0.36382,0.21829 -0.36382,0.21829l-0.31307,-0.07836c-0.80881,-0.16488 -1.54775,-0.2084 -2.30844,-0.58439c0,0 -0.26834,-0.13417 -0.13417,-0.40251c0.13417,-0.26834 0.40251,-0.13417 0.40251,-0.13417c0.71248,0.36116 1.40891,0.38554 2.17174,0.53566l0.32696,0.08166c0,0 0.29105,0.07276 0.21829,0.36381z" fill="#00b3f5" stroke="none" stroke-width="0.5" stroke-linecap="butt"/><path d="M254.9415,177.58993c-0.16641,-0.24963 0.08321,-0.41604 0.08321,-0.41604l0.40642,-0.2104c0.21872,0.0045 0.42815,-0.09128 0.63919,-0.14891c0.2094,-0.05719 1.19912,-0.07126 1.22184,-0.45507c0.01879,-0.31747 -0.48797,-0.42542 -0.64796,-0.51453c-0.7845,-0.43695 -1.55576,-1.00368 -2.27311,-1.54159c0,0 -0.24001,-0.18001 -0.06,-0.42002c0.18001,-0.24001 0.42002,-0.06 0.42002,-0.06c0.77239,0.5794 2.48113,1.19092 2.95057,1.99493c0.76884,1.31681 -1.35487,1.73234 -2.25054,1.74522l-0.07359,0.10962c0,0 -0.24963,0.16642 -0.41604,-0.08321z" fill="#00b3f5" stroke="none" stroke-width="0.5" stroke-linecap="butt"/><path d="M225.26994,176.62348v-2.00008h1.44006v2.00008z" fill="#00283d" stroke="none" stroke-width="0" stroke-linecap="butt"/><path d="M225.98997,177.56352c-0.30001,0 -0.30001,-0.30001 -0.30001,-0.30001l0.00896,-0.31277c0.0606,-0.23474 0.06321,-0.58341 0.0847,-0.92705c-0.35509,0.19127 -0.81039,0.17978 -1.47371,0.17978c0,0 -0.30001,0 -0.30001,-0.30001c0,-0.30001 0.30001,-0.30001 0.30001,-0.30001c0.93953,0 1.24211,0.19467 1.62006,-0.70383v-0.27621c0,-0.16569 0.13432,-0.30001 0.30001,-0.30001c0.16569,0 0.30001,0.13432 0.30001,0.30001v0.40002h-0.01451c-0.01924,0.04888 -0.03854,0.09574 -0.05794,0.14066c0.08118,0.63186 -0.01697,1.27694 -0.17652,1.93218l0.00896,0.16725c0,0 0,0.30001 -0.30001,0.30001z" fill="#002d45" stroke="none" stroke-width="0.5" stroke-linecap="butt"/><path d="M243.49924,186.14767l2.51439,0.05714" fill="none" stroke="#00baff" stroke-width="1" stroke-linecap="round"/><path d="M243.38495,166.21544l2.51439,-0.05714" data-paper-data="{&quot;index&quot;:null}" fill="none" stroke="#00baff" stroke-width="1" stroke-linecap="round"/><path d="M225.10232,179.36518l1.7715,0.11429" fill="none" stroke="#00baff" stroke-width="1" stroke-linecap="round"/><path d="M226.79381,172.08489l-1.7715,0.11429" data-paper-data="{&quot;index&quot;:null}" fill="none" stroke="#00baff" stroke-width="1" stroke-linecap="round"/><g stroke-width="2" stroke-linecap="butt"><path d="M242.60952,177.28129v-2.53343c0,0 -0.0223,0 0.14445,0c0.45535,0 2.88457,0 3.82237,0c0.25359,0 0.23335,0 0.23335,0v2.53343c0,0 0.04619,0 -0.23335,0c-0.95828,0 -3.35501,0 -3.82237,0c-0.18671,0 -0.14445,0 -0.14445,0z" fill="#009ed8" stroke="#003856"/><path d="M243.27621,177.28129v-2.53343c0,0 -0.0223,0 0.14445,0c0.45535,0 2.88457,0 3.82238,0c0.25359,0 0.23334,0 0.23334,0v2.53343c0,0 0.04619,0 -0.23334,0c-0.95828,0 -3.35501,0 -3.82238,0c-0.18671,0 -0.14445,0 -0.14445,0z" fill="#00466b" stroke="#00466b"/></g><g stroke="none" stroke-width="0" stroke-linecap="butt"><path d="M252.97085,187.16246l-6.94674,-10.58991l13.36312,-8.66759c0,0 1.65937,3.87075 1.80752,6.02523c0.14846,2.15899 -0.91766,6.91522 -0.91766,6.91522z" data-paper-data="{&quot;index&quot;:null}" fill="url(#color-5)"/><path d="M235.16409,183.00258l10.6532,-6.84927l7.91944,12.29672c0,0 -4.85187,1.97386 -7.28561,2.15152c-2.40915,0.17587 -7.24377,-1.09086 -7.24377,-1.09086z" data-paper-data="{&quot;index&quot;:null}" fill="url(#color-6)"/><g><path d="M242.37257,190.36943c-8.27742,-1.6655 -13.78831,-9.2997 -11.89461,-18.07172c1.8937,-8.77201 9.70154,-13.7795 18.39316,-12.03066c8.69162,1.74884 13.73485,9.39656 11.85239,18.11636c-1.88245,8.71981 -10.07355,13.65151 -18.35096,11.98601z" fill="url(#color-7)"/><path d="M255.652,177.27902c-1.25543,5.81537 -6.71822,9.10439 -12.23854,7.99366c-5.52033,-1.11076 -9.19565,-6.20212 -7.93269,-12.05232c1.26296,-5.8502 6.47011,-9.18977 12.26668,-8.02343c5.79657,1.16633 9.15998,6.26671 7.90457,12.08209z" fill="url(#color-8)"/><path d="M239.31949,166.03181l6.94674,10.58989l-12.87141,8.51675c0,0 -2.25588,-4.09527 -2.74571,-6.46495c-0.41768,-2.02069 0.07901,-7.00637 0.07901,-7.00637z" fill="url(#color-9)"/><path d="M256.85128,169.9581l-10.6532,6.84927l-9.49723,-14.47419c0,0 4.90906,-2.07291 7.29243,-2.40649c2.2736,-0.31821 6.69392,0.44901 6.69392,0.44901z" data-paper-data="{&quot;index&quot;:null}" fill="url(#color-10)"/></g></g></g></g></svg>