<svg version="1.1" xmlns="http://www.w3.org/2000/svg" xmlns:xlink="http://www.w3.org/1999/xlink" width="39.34616" height="29.40332" viewBox="0,0,39.34616,29.40332"><g transform="translate(-259.22554,-216.34509)"><g data-paper-data="{&quot;isPaintingLayer&quot;:true}" fill-rule="nonzero" stroke="none" stroke-linecap="butt" stroke-linejoin="miter" stroke-miterlimit="10" stroke-dasharray="" stroke-dashoffset="0" style="mix-blend-mode: normal"><path d="M298.57169,223.06059v14.81653l-9.26033,7.87129c0,0 -15.1895,-0.28263 -30.03372,-0.42291c0.71609,-3.92466 0.57387,-7.73414 0.22236,-12.11212c-0.28062,-3.49499 -0.12117,-6.8314 -0.07366,-10.1528z" data-paper-data="{&quot;index&quot;:null}" fill="#0b8600" stroke-width="0"/><path d="M298.57169,217.96739v14.81653l-9.26033,7.87129c0,0 -14.32249,-1.19298 -29.52215,-1.22237c0.00971,-1.98813 -0.11365,-4.03288 -0.28921,-6.21945c-0.46301,-5.76658 0.27201,-11.10143 -0.27446,-16.64948c2.71197,-0.08952 5.39824,-0.15577 8.02719,-0.19031c16.37462,-0.21512 31.31897,1.59379 31.31897,1.59379z" data-paper-data="{&quot;index&quot;:null}" fill="#0c9200" stroke-width="0"/><path d="" fill="#686868" stroke-width="0.5"/><path d="" fill="#686868" stroke-width="0.5"/><path d="M273.55778,222.69416c0.35057,-0.08304 0.60889,-0.08304 0.60889,-0.08304c0.88889,0 3.11111,0 4,0c2.69565,0 5.46567,-0.16324 8.15534,0.00483c4.5751,0.28588 9.82258,0.34192 6.9922,7.10837c-0.61298,1.46542 -4.63837,3.26135 -6.02951,3.9562c-1.88989,0.94397 -3.46976,2.44607 -5.37694,3.35461c-2.49517,1.18865 -6.56552,1.29494 -9.28063,0.9008c-4.60157,-0.66798 -7.18838,-0.46569 -7.62395,-6.28425c-0.09521,-1.27185 1.06965,-2.3168 1.65954,-3.44758c0.95708,-1.83465 2.26445,-3.47762 3.6058,-5.0533c0,0 1.49416,-1.74318 3.28925,-0.45665z" fill="#686868" stroke-width="0.5"/><path d="" fill="#606060" stroke-width="0.5"/><path d="" fill="#606060" stroke-width="0.5"/><path d="M275.22509,233.5287c-0.18352,0.2532 -1.51622,1.94851 -3.44517,0.66255c-2.08013,-1.38675 -0.69338,-3.46688 -0.69338,-3.46688l0.57618,-0.8536c1.64232,-2.75778 5.01365,-7.25857 9.11748,-5.51653c1.78304,0.75688 4.02003,2.07023 4.21806,3.99712c0.45195,4.39738 -6.57798,4.92148 -9.77318,5.17734z" fill="#606060" stroke-width="0.5"/><path d="" fill="#0d9c00" stroke-width="0.5"/><path d="" fill="#0d9c00" stroke-width="0.5"/><path d="" fill="#0d9c00" stroke-width="0.5"/><path d="M271.36367,216.58078c0.53033,0.53033 0,1.06066 0,1.06066l-0.82748,0.78899c-2.77909,0.73991 -6.65767,1.94621 -7.6517,5.23135c-0.63677,2.10441 1.03218,5.54533 1.03218,7.78267c0,0 0,0.75 -0.75,0.75c-0.75,0 -0.75,-0.75 -0.75,-0.75c0,-2.53302 -1.64591,-5.75436 -0.96782,-8.21734c0.99261,-3.60539 5.23045,-5.38222 8.3483,-6.10198l0.50586,-0.54434c0,0 0.53033,-0.53033 1.06066,0z" fill="#0d9c00" stroke-width="0.5"/><path d="M291.91667,218.77778c0,0.75 -0.75,0.75 -0.75,0.75l-0.84857,-0.02239c-1.85069,-0.47129 -4.82099,-0.90061 -6.40208,0.22976c0,0 -0.62404,0.41603 -1.04006,-0.20801c-0.41602,-0.62404 0.20801,-1.04006 0.20801,-1.04006c2.08258,-1.32119 5.2337,-1.01833 7.59792,-0.4369l0.48477,-0.0224c0,0 0.75,0 0.75,0.75z" fill="#0d9c00" stroke-width="0.5"/></g></g></svg>