<svg version="1.1" xmlns="http://www.w3.org/2000/svg" xmlns:xlink="http://www.w3.org/1999/xlink" width="230" height="230" viewBox="0,0,230,230"><defs><linearGradient x1="277.59737" y1="173.36458" x2="241.32822" y2="173.36458" gradientUnits="userSpaceOnUse" id="color-1"><stop offset="0" stop-color="#e0e0e0" stop-opacity="0"/><stop offset="1" stop-color="#e0e0e0"/></linearGradient><linearGradient x1="271.03281" y1="177.60554" x2="241.13674" y2="177.60554" gradientUnits="userSpaceOnUse" id="color-2"><stop offset="0" stop-color="#e0e0e0" stop-opacity="0"/><stop offset="1" stop-color="#e0e0e0"/></linearGradient><linearGradient x1="265.08828" y1="182.04303" x2="238.67505" y2="182.04303" gradientUnits="userSpaceOnUse" id="color-3"><stop offset="0" stop-color="#e0e0e0" stop-opacity="0"/><stop offset="1" stop-color="#e0e0e0"/></linearGradient><linearGradient x1="256.57871" y1="186.42114" x2="232.93106" y2="186.42114" gradientUnits="userSpaceOnUse" id="color-4"><stop offset="0" stop-color="#e0e0e0" stop-opacity="0"/><stop offset="1" stop-color="#e0e0e0"/></linearGradient><linearGradient x1="202.453" y1="173.49257" x2="238.72216" y2="173.49257" gradientUnits="userSpaceOnUse" id="color-5"><stop offset="0" stop-color="#e0e0e0" stop-opacity="0"/><stop offset="1" stop-color="#e0e0e0"/></linearGradient><linearGradient x1="209.01756" y1="177.73353" x2="238.91363" y2="177.73353" gradientUnits="userSpaceOnUse" id="color-6"><stop offset="0" stop-color="#e0e0e0" stop-opacity="0"/><stop offset="1" stop-color="#e0e0e0"/></linearGradient><linearGradient x1="214.96211" y1="182.17102" x2="241.37532" y2="182.17102" gradientUnits="userSpaceOnUse" id="color-7"><stop offset="0" stop-color="#e0e0e0" stop-opacity="0"/><stop offset="1" stop-color="#e0e0e0"/></linearGradient><linearGradient x1="223.47167" y1="186.54913" x2="247.11932" y2="186.54913" gradientUnits="userSpaceOnUse" id="color-8"><stop offset="0" stop-color="#e0e0e0" stop-opacity="0"/><stop offset="1" stop-color="#e0e0e0"/></linearGradient></defs><g transform="translate(-125,-65)"><g data-paper-data="{&quot;isPaintingLayer&quot;:true}" fill-rule="nonzero" stroke-linejoin="miter" stroke-miterlimit="10" stroke-dasharray="" stroke-dashoffset="0" style="mix-blend-mode: normal"><g fill="none" stroke-width="2.5" stroke-linecap="round"><g data-paper-data="{&quot;index&quot;:null}"><path d="M277.59737,173.36458h-36.26916" stroke="url(#color-1)"/><path d="M271.03281,177.60554h-29.89607" stroke="url(#color-2)"/><path d="M265.08826,182.04303h-26.41321" stroke="url(#color-3)"/><path d="M256.57871,186.42114h-17.8707" stroke="url(#color-4)"/></g><g><path d="M202.453,173.49257h36.26915" stroke="url(#color-5)"/><path d="M209.01756,177.73353h29.89607" stroke="url(#color-6)"/><path d="M214.9621,182.17102h26.41322" stroke="url(#color-7)"/><path d="M242.21766,186.54913h-18.74599" stroke="url(#color-8)"/></g></g><path d="M125,295v-230h230v230z" fill="none" stroke="none" stroke-width="NaN" stroke-linecap="butt"/><path d="M231.03683,188.05404l9.32632,-16.08907c0,0 -0.01096,-0.1999 0.52304,0.69644c1.4927,2.5055 9.06234,15.39264 9.06234,15.39264c0,0 0.28572,0 -1.41132,0c-4.5139,0 -14.48204,0 -16.6536,0c-1.10026,0 -0.84679,0 -0.84679,0z" fill="none" stroke="#bf9200" stroke-width="5" stroke-linecap="round"/><path d="M236.59025,180.11066c1.02592,0 5.73523,0 7.86777,0c0.80175,0 0.66676,0 0.66676,0c0,0 -3.57617,6.08835 -4.28138,7.27204c-0.25229,0.42346 -0.24711,0.32902 -0.24711,0.32902l-4.40609,-7.60106c0,0 -0.11975,0 0.40005,0z" data-paper-data="{&quot;index&quot;:null}" fill="#ffffff" stroke="#bf9200" stroke-width="3" stroke-linecap="round"/><g stroke-linecap="round"><path d="M231.03683,188.05403l9.32632,-16.08907c0,0 -0.01096,-0.1999 0.52304,0.69643c1.4927,2.5055 9.06234,15.39264 9.06234,15.39264c0,0 0.28572,0 -1.41132,0c-4.5139,0 -14.48204,0 -16.6536,0c-1.10026,0 -0.84679,0 -0.84679,0z" fill="none" stroke="#ffde00" stroke-width="2"/><path d="M236.59025,180.11065c1.02592,0 5.73523,0 7.86777,0c0.80175,0 0.66676,0 0.66676,0c0,0 -3.57617,6.08835 -4.28138,7.27204c-0.25229,0.42346 -0.24711,0.32902 -0.24711,0.32902l-4.40609,-7.60106c0,0 -0.11975,0 0.40005,0z" data-paper-data="{&quot;index&quot;:null}" fill="#ffde00" stroke="#ffffff" stroke-width="0"/></g></g></g></svg>