<svg version="1.1" xmlns="http://www.w3.org/2000/svg" xmlns:xlink="http://www.w3.org/1999/xlink" width="263" height="259" viewBox="0,0,263,259"><defs><linearGradient x1="-1511.99247" y1="982.58432" x2="268.14086" y2="982.58432" gradientUnits="userSpaceOnUse" id="color-1"><stop offset="0" stop-color="#ffffff"/><stop offset="1" stop-color="#ffffff" stop-opacity="0"/></linearGradient><linearGradient x1="1991.99247" y1="982.58432" x2="211.85914" y2="982.58432" gradientUnits="userSpaceOnUse" id="color-2"><stop offset="0" stop-color="#ffffff"/><stop offset="1" stop-color="#ffffff" stop-opacity="0"/></linearGradient></defs><g transform="translate(-108.5,-50.5)"><g data-paper-data="{&quot;isPaintingLayer&quot;:true}" fill-rule="nonzero" stroke-linecap="butt" stroke-linejoin="miter" stroke-miterlimit="10" stroke-dasharray="" stroke-dashoffset="0" style="mix-blend-mode: normal"><path d="M281.98443,179.99999c0,22.9968 -18.79707,41.63941 -41.98443,41.63941c-23.18736,0 -41.98443,-18.64258 -41.98443,-41.63941c0,-22.9968 18.79707,-41.63939 41.98443,-41.63939c23.18736,0 41.98443,18.64258 41.98443,41.63939z" fill="none" stroke="#00edff" stroke-width="6"/><path d="M277.375,176.20833c0,21.81525 -17.90861,39.5 -40,39.5c-22.09139,0 -40,-17.68475 -40,-39.5c0,-21.81525 17.90861,-39.5 40,-39.5c22.09139,0 40,17.68475 40,39.5z" fill="none" stroke="none" stroke-width="0"/><path d="M211.47419,208.00098c-16.38219,-16.38219 -15.21227,-40.78773 0.33333,-56.33333c15.54561,-15.54561 40.09492,-16.23841 56.33333,0c16.23841,16.23841 16.28918,40.04416 0,56.33333c-16.28918,16.28918 -40.28447,16.38219 -56.66667,0z" fill="url(#color-1)" stroke="none" stroke-width="0"/><path d="M268.52582,208.00098c-16.3822,16.38219 -40.37749,16.28918 -56.66667,0c-16.28918,-16.28917 -16.23841,-40.09492 0,-56.33333c16.23841,-16.23841 40.78772,-15.54561 56.33333,0c15.5456,15.5456 16.71552,39.95114 0.33333,56.33333z" data-paper-data="{&quot;index&quot;:null}" fill="url(#color-2)" stroke="none" stroke-width="0"/><path d="M108.5,309.5v-259h263v259z" fill="none" stroke="none" stroke-width="0"/></g></g></svg>