<svg version="1.1" xmlns="http://www.w3.org/2000/svg" xmlns:xlink="http://www.w3.org/1999/xlink" width="48.55171" height="56.87927" viewBox="0,0,48.55171,56.87927"><defs><linearGradient x1="240.02585" y1="154.06036" x2="240.02585" y2="198.77253" gradientUnits="userSpaceOnUse" id="color-1"><stop offset="0" stop-color="#828282"/><stop offset="1" stop-color="#747474"/></linearGradient><linearGradient x1="240.02585" y1="154.06036" x2="240.02585" y2="198.77253" gradientUnits="userSpaceOnUse" id="color-2"><stop offset="0" stop-color="#828282"/><stop offset="1" stop-color="#747474"/></linearGradient><linearGradient x1="240.10739" y1="162.00455" x2="240.10739" y2="187.14741" gradientUnits="userSpaceOnUse" id="color-3"><stop offset="0" stop-color="#828282"/><stop offset="1" stop-color="#747474"/></linearGradient></defs><g transform="translate(-215.55865,-151.56036)"><g data-paper-data="{&quot;isPaintingLayer&quot;:true}" fill-rule="nonzero" stroke-linejoin="miter" stroke-miterlimit="10" stroke-dasharray="" stroke-dashoffset="0" style="mix-blend-mode: normal"><path d="M217.62221,205.93963v-44.71217c0,0 -0.10819,0 0.43644,0c3.30926,0 36.32893,0 43.5,0c0.89824,0 0.77573,0 0.77573,0v44.71217c0,0 0.01575,0 -0.77573,0c-3.87606,0 -35.75289,0 -43.125,0c-0.99869,0 -0.81144,0 -0.81144,0z" fill="#696969" stroke="#696969" stroke-width="5" stroke-linecap="butt"/><path d="M217.67392,198.77253v-44.71217c0,0 -0.10819,0 0.43644,0c3.30926,0 36.32893,0 43.5,0c0.89824,0 0.77573,0 0.77573,0v44.71217c0,0 0.01575,0 -0.77573,0c-3.87606,0 -35.75289,0 -43.125,0c-0.99869,0 -0.81144,0 -0.81144,0z" fill="url(#color-1)" stroke="url(#color-2)" stroke-width="5" stroke-linecap="butt"/><path d="M261.52524,197.88789l-43.6,0.2" fill="none" stroke="#00ffee" stroke-width="2.5" stroke-linecap="round"/><path d="M262.06274,158.2575l-0.125,28.75h-3.5l-12.25,-13.5v-15.25z" data-paper-data="{&quot;index&quot;:null}" fill="#727272" stroke="#717171" stroke-width="0.5" stroke-linecap="round"/><path d="M218.32524,154.88786l43.6,-0.2" fill="none" stroke="#00ffee" stroke-width="2.5" stroke-linecap="round"/><path d="M218.06274,194.1325l0.125,-28.75h3.5l12.25,13.5v15.25z" fill="#727272" stroke="#717171" stroke-width="0.5" stroke-linecap="round"/><path d="M252.41095,176.20098c0,6.94301 -5.56446,12.57143 -12.42857,12.57143c-6.86411,0 -12.42857,-5.62842 -12.42857,-12.57143c0,-6.94301 5.56446,-12.57143 12.42857,-12.57143c6.86411,0 12.42857,5.62842 12.42857,12.57143z" fill="none" stroke="#00ffee" stroke-width="4" stroke-linecap="butt"/><path d="M252.41096,176.20098c0,6.94301 -5.56446,12.57143 -12.42857,12.57143c-6.86411,0 -12.42857,-5.62842 -12.42857,-12.57143c0,-6.94301 5.56446,-12.57143 12.42857,-12.57143c6.86411,0 12.42857,5.62842 12.42857,12.57143z" fill="#585858" stroke="#6a6a6a" stroke-width="0.5" stroke-linecap="butt"/><path d="M252.53596,174.57598c0,6.94301 -5.56446,12.57143 -12.42857,12.57143c-6.86411,0 -12.42857,-5.62842 -12.42857,-12.57143c0,-6.94301 5.56446,-12.57143 12.42857,-12.57143c6.86411,0 12.42857,5.62842 12.42857,12.57143z" fill="url(#color-3)" stroke="#7b7b7b" stroke-width="0.5" stroke-linecap="butt"/><g fill="none" stroke-width="1.5" stroke-linecap="round"><g><g><g stroke="#00ffee"><path d="M239.68396,168.69881h0.76513"/><path d="M242.69301,169.08902l-0.74067,-0.1919"/></g><g stroke="#505050"><path d="M244.02026,170.10483l0.48266,0.59368"/><path d="M245.61565,172.68579l-0.31833,-0.69577"/></g></g><g data-paper-data="{&quot;index&quot;:null}"><g stroke="#505050"><path d="M245.78801,174.3927l0.02083,0.76484"/><path d="M245.47982,177.41126l0.17168,-0.74563"/></g><g stroke="#00ffee"><path d="M243.9202,179.26429l0.58033,-0.49864"/><path d="M242.65078,180.09358l-0.68685,0.33715"/></g></g></g><g data-paper-data="{&quot;index&quot;:null}"><g><g stroke="#00ffee"><path d="M240.41367,180.72499h-0.76513"/><path d="M237.40463,180.33476l0.74068,0.1919"/></g><g stroke="#505050"><path d="M236.07737,179.31899l-0.48266,-0.59368"/><path d="M234.80031,177.43378l-0.31832,-0.69577"/></g></g><g data-paper-data="{&quot;index&quot;:null}"><g stroke="#505050"><path d="M234.2888,174.26626l0.02083,0.76484"/><path d="M234.61781,172.0125l-0.17168,0.74563"/></g><g stroke="#00ffee"><path d="M235.5971,170.65815l0.58033,-0.49864"/><path d="M237.44685,169.33022l0.68685,-0.33715"/></g></g></g></g><path d="M243.31274,174.80038c0,2.00203 -1.567,3.625 -3.5,3.625c-1.933,0 -3.5,-1.62297 -3.5,-3.625c0,-2.00203 1.567,-3.625 3.5,-3.625c1.933,0 3.5,1.62297 3.5,3.625z" fill="#b3c7c9" stroke="none" stroke-width="1.5" stroke-linecap="butt"/></g></g></svg>