<svg version="1.1" xmlns="http://www.w3.org/2000/svg" xmlns:xlink="http://www.w3.org/1999/xlink" width="123" height="123" viewBox="0,0,123,123"><g transform="translate(-178.5,-118.5)"><g data-paper-data="{&quot;isPaintingLayer&quot;:true}" fill-rule="nonzero" stroke-linecap="butt" stroke-linejoin="miter" stroke-miterlimit="10" stroke-dasharray="" stroke-dashoffset="0" style="mix-blend-mode: normal"><g stroke="#ffcc00" stroke-width="0"><path d="M235.52426,175.51537c2.47332,-2.47332 6.48336,-2.47332 8.95668,0c2.47332,2.47332 2.47332,6.48336 0,8.95668c-2.47332,2.47332 -6.48336,2.47332 -8.95668,0c-2.47332,-2.47332 -2.47332,-6.48336 0,-8.95668z" fill="#fcc800"/><path d="M235.52426,175.51537c2.47332,-2.47332 6.48336,-2.47332 8.95668,0c2.47332,2.47332 2.47332,6.48336 0,8.95668c-0.17675,0.17675 0.00831,0.01685 0.00831,0.01685l-4.50948,-4.54067l-4.39015,-4.40432c0,0 -0.32594,0.23203 -0.06536,-0.02855z" fill="#ffdb4a"/></g><path d="M178.5,241.5v-123h123v123z" fill="none" stroke="none" stroke-width="0"/><path d="M236.57092,181.2895l0.10944,-0.45768l6.92247,1.65538l-0.10944,0.45768z" fill="#b89300" stroke="#b89300" stroke-width="0.25"/><path d="M236.68037,182.94488l-0.10944,-0.45768l6.92247,-1.65538l0.10944,0.45768z" data-paper-data="{&quot;index&quot;:null}" fill="#b89300" stroke="#b89300" stroke-width="0.25"/><path d="M239.30747,182.18603v-1h1.40909v1z" fill="#fcc800" stroke="none" stroke-width="0"/><g fill="none" stroke="#a48300" stroke-width="0.5"><path d="M239.31037,181.38852h-0.98787v-3.75761h3.35501v3.75761l-0.98336,0.01782"/><path d="M240.95987,181.37769v0.9914h-1.90654v-0.9914"/></g></g></g></svg>