<svg version="1.1" xmlns="http://www.w3.org/2000/svg" xmlns:xlink="http://www.w3.org/1999/xlink" width="483.48348" height="364.86487" viewBox="0,0,483.48348,364.86487"><defs><linearGradient x1="184.10034" y1="161.96339" x2="229.90128" y2="161.96339" gradientUnits="userSpaceOnUse" id="color-1"><stop offset="0" stop-color="#282828"/><stop offset="1" stop-color="#3d3d3d"/></linearGradient><linearGradient x1="184.10034" y1="161.96339" x2="229.90128" y2="161.96339" gradientUnits="userSpaceOnUse" id="color-2"><stop offset="0" stop-color="#282828"/><stop offset="1" stop-color="#3d3d3d"/></linearGradient><linearGradient x1="233.54913" y1="161.96339" x2="279.75539" y2="161.96339" gradientUnits="userSpaceOnUse" id="color-3"><stop offset="0" stop-color="#3d3d3d"/><stop offset="1" stop-color="#282828"/></linearGradient><linearGradient x1="233.54913" y1="161.96339" x2="279.75539" y2="161.96339" gradientUnits="userSpaceOnUse" id="color-4"><stop offset="0" stop-color="#3d3d3d"/><stop offset="1" stop-color="#282828"/></linearGradient><linearGradient x1="184.10034" y1="198.03669" x2="229.90128" y2="198.03669" gradientUnits="userSpaceOnUse" id="color-5"><stop offset="0" stop-color="#171717"/><stop offset="1" stop-color="#2e2e2e"/></linearGradient><linearGradient x1="184.10034" y1="198.03669" x2="229.90128" y2="198.03669" gradientUnits="userSpaceOnUse" id="color-6"><stop offset="0" stop-color="#171717"/><stop offset="1" stop-color="#2e2e2e"/></linearGradient><linearGradient x1="279.75539" y1="198.03669" x2="233.54913" y2="198.03669" gradientUnits="userSpaceOnUse" id="color-7"><stop offset="0" stop-color="#171717"/><stop offset="1" stop-color="#2e2e2e"/></linearGradient><linearGradient x1="279.75539" y1="198.03669" x2="233.54913" y2="198.03669" gradientUnits="userSpaceOnUse" id="color-8"><stop offset="0" stop-color="#171717"/><stop offset="1" stop-color="#2e2e2e"/></linearGradient><linearGradient x1="208.68963" y1="94.8365" x2="208.68963" y2="121.9327" gradientUnits="userSpaceOnUse" id="color-9"><stop offset="0" stop-color="#191919"/><stop offset="1" stop-color="#000000"/></linearGradient><linearGradient x1="254.62568" y1="94.8365" x2="254.62568" y2="121.9327" gradientUnits="userSpaceOnUse" id="color-10"><stop offset="0" stop-color="#191919"/><stop offset="1" stop-color="#000000"/></linearGradient><linearGradient x1="20491.35534" y1="529.23487" x2="-5353.18558" y2="529.23487" gradientUnits="userSpaceOnUse" id="color-11"><stop offset="0" stop-color="#43e900"/><stop offset="1" stop-color="#43e900" stop-opacity="0"/></linearGradient><linearGradient x1="209.79958" y1="247.90834" x2="199.41451" y2="86.27299" gradientUnits="userSpaceOnUse" id="color-12"><stop offset="0" stop-color="#43e900"/><stop offset="1" stop-color="#43e900" stop-opacity="0"/></linearGradient><linearGradient x1="230.04958" y1="246.40835" x2="219.66451" y2="84.77299" gradientUnits="userSpaceOnUse" id="color-13"><stop offset="0" stop-color="#43e900"/><stop offset="1" stop-color="#43e900" stop-opacity="0"/></linearGradient><linearGradient x1="265.79958" y1="242.15835" x2="255.41451" y2="80.52299" gradientUnits="userSpaceOnUse" id="color-14"><stop offset="0" stop-color="#43e900"/><stop offset="1" stop-color="#43e900" stop-opacity="0"/></linearGradient><linearGradient x1="197.96052" y1="252.65835" x2="208.34559" y2="91.02299" gradientUnits="userSpaceOnUse" id="color-15"><stop offset="0" stop-color="#43e900"/><stop offset="1" stop-color="#43e900" stop-opacity="0"/></linearGradient><linearGradient x1="260.79958" y1="250.90835" x2="250.41451" y2="89.27299" gradientUnits="userSpaceOnUse" id="color-16"><stop offset="0" stop-color="#43e900"/><stop offset="1" stop-color="#43e900" stop-opacity="0"/></linearGradient><linearGradient x1="274.29958" y1="250.15835" x2="263.9145" y2="88.52299" gradientUnits="userSpaceOnUse" id="color-17"><stop offset="0" stop-color="#43e900"/><stop offset="1" stop-color="#43e900" stop-opacity="0"/></linearGradient></defs><g transform="translate(0.99099,3.43344)"><g data-paper-data="{&quot;isPaintingLayer&quot;:true}" fill-rule="nonzero" stroke-linejoin="miter" stroke-miterlimit="10" stroke-dasharray="" stroke-dashoffset="0" style="mix-blend-mode: normal"><g><path d="M278.94476,136.83939c0,0 10.02547,8.77402 11.83556,21.04239c0.9022,6.11488 -0.51739,17.67944 -0.10905,29.27844c0.42199,11.98668 3.5709,24.87587 4.93883,34.48031c1.26006,8.84712 -1.26325,34.76766 -1.26325,34.76766" fill="none" stroke="#171717" stroke-width="12.5" stroke-linecap="round"/><g stroke-width="5" stroke-linecap="butt"><path d="M184.10034,231.6838c0,0 -0.17485,-113.37797 0.05847,-131.03563c0.11264,-8.52425 7.23726,-8.40518 7.23726,-8.40518h38.50521v139.44081z" fill="url(#color-1)" stroke="url(#color-2)"/><path d="M233.54913,231.6838v-139.44081h39.45095c0,0 6.7553,1.35253 6.7553,7.59987c0,17.017 0,131.84093 0,131.84093z" data-paper-data="{&quot;index&quot;:null}" fill="url(#color-3)" stroke="url(#color-4)"/></g><g stroke-width="5" stroke-linecap="butt"><path d="M184.10034,259.34675c0,-17.65751 0,-135.08364 0,-135.08364c0,0 2.36106,3.80234 8.35325,3.74264c7.57401,-0.07546 37.44768,0.31054 37.44768,0.31054v139.4408c0,0 -30.28915,0 -37.99857,0c-4.28555,0 -7.80237,-3.93682 -7.80237,-8.41035z" fill="url(#color-5)" stroke="url(#color-6)"/><path d="M233.54913,267.7571v-139.4408c0,0 29.51127,-0.17225 38.37216,-0.27669c5.44128,-0.03229 7.83409,-3.23607 7.83409,-3.23607c0,0 0,117.24333 0,134.74588c0,4.37714 -4.3224,8.20768 -7.59971,8.20768c-7.76155,0 -38.60654,0 -38.60654,0z" data-paper-data="{&quot;index&quot;:null}" fill="url(#color-7)" stroke="url(#color-8)"/></g><path d="M225.71298,108.3846c0,7.48241 -7.62161,13.5481 -17.02335,13.5481c-9.40174,0 -17.02336,-6.06569 -17.02336,-13.5481c0,-7.48241 7.62162,-13.5481 17.02336,-13.5481c9.40174,0 17.02335,6.06569 17.02335,13.5481z" fill="url(#color-9)" stroke="none" stroke-width="0" stroke-linecap="butt"/><path d="M271.64903,108.3846c0,7.48241 -7.62162,13.5481 -17.02336,13.5481c-9.40174,0 -17.02336,-6.06569 -17.02336,-13.5481c0,-7.48241 7.62162,-13.5481 17.02336,-13.5481c9.40174,0 17.02336,6.06569 17.02336,13.5481z" fill="url(#color-10)" stroke="none" stroke-width="0" stroke-linecap="butt"/></g><path d="" fill="url(#color-11)" stroke="none" stroke-width="0" stroke-linecap="butt"/><path d="M203.35737,112.96476c0,0 -2.24213,2.70862 -4.43626,3.04432c-1.46909,0.22477 -3.64338,-0.71633 -3.64338,-0.71633c0,0 -2.01157,-1.9436 -2.16935,-4.39923c-0.10563,-1.64409 1.04312,-5.124 1.29656,-8.16557c0.14883,-1.7861 -0.54042,-3.34005 -0.67053,-4.48172c-0.11298,-0.99135 0.33925,-1.69382 0.33925,-1.69382c0,0 1.23935,-1.64536 2.30201,-1.80794c0.93091,-0.14243 2.88563,1.47806 4.79699,1.50129c2.43239,0.02957 2.98591,3.49479 2.98591,3.49479c0,0 -1.12914,4.13095 -0.76939,5.77512c0.55476,2.53547 -0.03181,7.44908 -0.03181,7.44908z" fill="url(#color-12)" stroke="none" stroke-width="0" stroke-linecap="butt"/><path d="M223.60737,111.46476c0,0 -2.24213,2.70861 -4.43626,3.04432c-1.4691,0.22477 -3.64338,-0.71633 -3.64338,-0.71633c0,0 -2.01157,-1.9436 -2.16935,-4.39923c-0.10564,-1.64409 1.04312,-5.12399 1.29656,-8.16557c0.14882,-1.7861 -0.54042,-3.34005 -0.67054,-4.48172c-0.11298,-0.99135 0.33925,-1.69382 0.33925,-1.69382c0,0 1.23936,-1.64535 2.30201,-1.80794c0.93091,-0.14243 2.88562,1.47806 4.79698,1.50129c2.43239,0.02957 2.98592,3.49479 2.98592,3.49479c0,0 -1.12914,4.13094 -0.7694,5.77513c0.55476,2.53547 -0.03181,7.44907 -0.03181,7.44907z" fill="url(#color-13)" stroke="none" stroke-width="0" stroke-linecap="butt"/><g fill="none" stroke="#171717" stroke-width="2.5" stroke-linecap="round"><path d="M220.02501,116.50833l-21.25,-13"/><path d="M198.51836,115.81889l21.7633,-12.12111"/></g><g fill="none" stroke="#171717" stroke-width="2.5" stroke-linecap="round"><path d="M198.77501,104.10833l21.25,13"/><path d="M198.51836,116.41889l21.7633,-12.12111"/></g><g fill="none" stroke="#393939" stroke-width="2.5" stroke-linecap="round"><path d="M198.37501,101.70833l21.25,13"/><path d="M198.11835,114.01889l21.7633,-12.12111"/></g><path d="M259.35737,107.21476c0,0 -2.24213,2.70861 -4.43626,3.04432c-1.46909,0.22477 -3.64337,-0.71633 -3.64337,-0.71633c0,0 -2.01157,-1.9436 -2.16935,-4.39923c-0.10564,-1.64409 1.04313,-5.12399 1.29657,-8.16557c0.14882,-1.7861 -0.54042,-3.34005 -0.67054,-4.48172c-0.11298,-0.99135 0.33925,-1.69382 0.33925,-1.69382c0,0 1.23936,-1.64535 2.30201,-1.80794c0.93091,-0.14243 2.88563,1.47806 4.79698,1.50129c2.43239,0.02957 2.98592,3.49479 2.98592,3.49479c0,0 -1.12914,4.13094 -0.7694,5.77513c0.55476,2.53547 -0.03181,7.44907 -0.03181,7.44907z" fill="url(#color-14)" stroke="none" stroke-width="0" stroke-linecap="butt"/><g fill="none" stroke="#171717" stroke-width="2.5" stroke-linecap="round"><path d="M256.07572,119.31595l-2.00143,-18.99729"/><path d="M241.45635,110.75618l26.91679,-1.94569"/></g><g fill="none" stroke="#171717" stroke-width="2.5" stroke-linecap="round"><path d="M256.27572,120.51595l-2.00143,-18.99729"/><path d="M268.57315,110.01049l-26.91679,1.94569"/></g><g fill="none" stroke="#393939" stroke-width="2.5" stroke-linecap="round"><path d="M255.87573,118.11595l-2.00143,-18.99729"/><path d="M268.17314,107.61049l-26.91679,1.94569"/></g><path d="M204.37093,110.26569c0.35975,-1.64418 -0.7694,-5.77513 -0.7694,-5.77513c0,0 0.55353,-3.46523 2.98592,-3.49479c1.91136,-0.02323 3.86607,-1.64372 4.79698,-1.50129c1.06265,0.16259 2.30201,1.80794 2.30201,1.80794c0,0 0.45223,0.70247 0.33925,1.69382c-0.13011,1.14167 -0.81936,2.69562 -0.67054,4.48172c0.25344,3.04157 1.4022,6.52147 1.29656,8.16557c-0.15777,2.45563 -2.16935,4.39923 -2.16935,4.39923c0,0 -2.17428,0.9411 -3.64338,0.71633c-2.19413,-0.33571 -4.43626,-3.04432 -4.43626,-3.04432c0,0 -0.58657,-4.9136 -0.03181,-7.44907z" data-paper-data="{&quot;index&quot;:null}" fill="url(#color-15)" stroke="none" stroke-width="0" stroke-linecap="butt"/><path d="M254.35737,115.96476c0,0 -2.24213,2.70861 -4.43626,3.04432c-1.4691,0.22477 -3.64338,-0.71633 -3.64338,-0.71633c0,0 -2.01157,-1.9436 -2.16935,-4.39923c-0.10564,-1.64409 1.04312,-5.12399 1.29656,-8.16557c0.14882,-1.7861 -0.54042,-3.34005 -0.67054,-4.48172c-0.11298,-0.99135 0.33925,-1.69382 0.33925,-1.69382c0,0 1.23936,-1.64535 2.30201,-1.80794c0.93091,-0.14243 2.88562,1.47806 4.79698,1.50129c2.43239,0.02957 2.98592,3.49479 2.98592,3.49479c0,0 -1.12914,4.13094 -0.7694,5.77513c0.55476,2.53547 -0.03181,7.44907 -0.03181,7.44907z" fill="url(#color-16)" stroke="none" stroke-width="0" stroke-linecap="butt"/><path d="M267.85737,115.21476c0,0 -2.24213,2.70861 -4.43626,3.04432c-1.4691,0.22477 -3.64338,-0.71633 -3.64338,-0.71633c0,0 -2.01157,-1.9436 -2.16935,-4.39923c-0.10564,-1.64409 1.04312,-5.12399 1.29656,-8.16557c0.14882,-1.7861 -0.54042,-3.34005 -0.67054,-4.48172c-0.11298,-0.99135 0.33925,-1.69382 0.33925,-1.69382c0,0 1.23936,-1.64535 2.30201,-1.80794c0.93091,-0.14243 2.88562,1.47806 4.79698,1.50129c2.43239,0.02957 2.98591,3.49479 2.98591,3.49479c0,0 -1.12914,4.13094 -0.76939,5.77513c0.55476,2.53547 -0.03181,7.44907 -0.03181,7.44907z" fill="url(#color-17)" stroke="none" stroke-width="0" stroke-linecap="butt"/><path d="M-0.99099,361.43143v-364.86486h483.48348v364.86487z" fill="none" stroke="#000000" stroke-width="0" stroke-linecap="butt"/></g></g></svg>