<svg version="1.1" xmlns="http://www.w3.org/2000/svg" xmlns:xlink="http://www.w3.org/1999/xlink" width="207.56911" height="200.80003" viewBox="0,0,207.56911,200.80003"><defs><linearGradient x1="233.7005" y1="177.76806" x2="233.7005" y2="181.99457" gradientUnits="userSpaceOnUse" id="color-1"><stop offset="0" stop-color="#ffffff"/><stop offset="1" stop-color="#eeeeee"/></linearGradient><linearGradient x1="233.7005" y1="177.76806" x2="233.7005" y2="181.99457" gradientUnits="userSpaceOnUse" id="color-2"><stop offset="0" stop-color="#e5e5e5"/><stop offset="1" stop-color="#ffffff"/></linearGradient><linearGradient x1="225.46147" y1="177.08462" x2="230.533" y2="176.7989" gradientUnits="userSpaceOnUse" id="color-3"><stop offset="0" stop-color="#e60000"/><stop offset="1" stop-color="#ff0000"/></linearGradient><linearGradient x1="225.46147" y1="177.08462" x2="230.533" y2="176.7989" gradientUnits="userSpaceOnUse" id="color-4"><stop offset="0" stop-color="#ff0000"/><stop offset="1" stop-color="#e60000"/></linearGradient><linearGradient x1="225.46329" y1="182.1543" x2="230.5312" y2="182.49788" gradientUnits="userSpaceOnUse" id="color-5"><stop offset="0" stop-color="#e60000"/><stop offset="1" stop-color="#ff0000"/></linearGradient><linearGradient x1="225.46329" y1="182.1543" x2="230.5312" y2="182.49788" gradientUnits="userSpaceOnUse" id="color-6"><stop offset="0" stop-color="#ff0000"/><stop offset="1" stop-color="#e60000"/></linearGradient><linearGradient x1="225.05109" y1="179.63392" x2="231.04497" y2="179.63392" gradientUnits="userSpaceOnUse" id="color-7"><stop offset="0" stop-color="#ff0000"/><stop offset="1" stop-color="#e60000"/></linearGradient><linearGradient x1="255.56212" y1="179.08253" x2="219.25598" y2="179.5241" gradientUnits="userSpaceOnUse" id="color-8"><stop offset="0" stop-color="#a300f2"/><stop offset="1" stop-color="#a300f2" stop-opacity="0"/></linearGradient><linearGradient x1="266.37985" y1="178.85916" x2="216.94744" y2="179.46037" gradientUnits="userSpaceOnUse" id="color-9"><stop offset="0" stop-color="#f1f1f1"/><stop offset="1" stop-color="#f1f1f1" stop-opacity="0"/></linearGradient><linearGradient x1="224.82301" y1="179.75397" x2="221.76958" y2="179.79111" gradientUnits="userSpaceOnUse" id="color-10"><stop offset="0" stop-color="#ff4f00"/><stop offset="1" stop-color="#ff4f00" stop-opacity="0"/></linearGradient><linearGradient x1="224.7274" y1="179.72888" x2="222.66324" y2="179.75398" gradientUnits="userSpaceOnUse" id="color-11"><stop offset="0" stop-color="#ffd400"/><stop offset="1" stop-color="#ffd400" stop-opacity="0"/></linearGradient><linearGradient x1="224.86565" y1="179.72631" x2="221.43594" y2="179.76803" gradientUnits="userSpaceOnUse" id="color-12"><stop offset="0" stop-color="#ffee00"/><stop offset="1" stop-color="#ffee00" stop-opacity="0"/></linearGradient><linearGradient x1="224.89349" y1="179.69797" x2="223.39246" y2="179.71622" gradientUnits="userSpaceOnUse" id="color-13"><stop offset="0" stop-color="#ffee00"/><stop offset="1" stop-color="#ffee00" stop-opacity="0"/></linearGradient><linearGradient x1="224.87491" y1="180.48708" x2="223.37388" y2="180.50534" gradientUnits="userSpaceOnUse" id="color-14"><stop offset="0" stop-color="#ffee00"/><stop offset="1" stop-color="#ffee00" stop-opacity="0"/></linearGradient><linearGradient x1="224.85572" y1="178.90954" x2="223.3547" y2="178.9278" gradientUnits="userSpaceOnUse" id="color-15"><stop offset="0" stop-color="#ffee00"/><stop offset="1" stop-color="#ffee00" stop-opacity="0"/></linearGradient><linearGradient x1="254.74469" y1="180.23057" x2="232.58812" y2="179.7977" gradientUnits="userSpaceOnUse" id="color-16"><stop offset="0" stop-color="#b7b7b7"/><stop offset="1" stop-color="#b7b7b7" stop-opacity="0"/></linearGradient><radialGradient cx="224.83463" cy="179.701" r="6.97852" gradientUnits="userSpaceOnUse" id="color-17"><stop offset="0" stop-color="#bfe8ff"/><stop offset="1" stop-color="#bfe8ff" stop-opacity="0"/></radialGradient></defs><g transform="translate(-136.21545,-79.59999)"><g data-paper-data="{&quot;isPaintingLayer&quot;:true}" fill-rule="nonzero" stroke-linejoin="miter" stroke-miterlimit="10" stroke-dasharray="" stroke-dashoffset="0" style="mix-blend-mode: normal"><path d="M272.55557,214.16553l-65.11113,-68.33106" fill="none" stroke="#000000" stroke-width="0" stroke-linecap="round"/><g><g stroke-linecap="round"><path d="M227.22904,178.73249l8.87445,-0.96444l4.06847,2.26116l-4.22244,1.96533l-8.70425,-1.30483z" fill="url(#color-1)" stroke="url(#color-2)" stroke-width="0.5"/><path d="M228.46869,178.08535l-2.9529,-0.03714l-0.12001,-2.13003l3.90578,0.69572l1.29144,1.25003z" fill="url(#color-3)" stroke="url(#color-4)" stroke-width="0.5"/><path d="M230.60335,181.43363l-1.30563,1.2352l-3.91347,0.65109l0.14431,-2.12852l2.95313,-0.00342z" data-paper-data="{&quot;index&quot;:null}" fill="url(#color-5)" stroke="url(#color-6)" stroke-width="0.5"/><path d="M231.04496,179.63392h-5.99387" fill="none" stroke="url(#color-7)" stroke-width="0.5"/><g stroke="#000000" stroke-width="0"><path d="M224.63829,180.53492l-5.77523,-0.70118l5.75481,-0.97815z" fill="url(#color-8)"/><path d="M224.2757,180.83665l-7.86323,-0.95468l7.83542,-1.33179z" fill="url(#color-9)"/><path d="M224.82815,180.17806c0,0 -0.20196,0.76365 -0.92404,0.74643c-1.72603,-0.04116 -2.1359,-1.24647 -2.1359,-1.24647c0,0 0.33889,-1.0252 2.1077,-1.07187c0.75316,-0.01987 0.94158,0.69546 0.94158,0.69546z" fill="url(#color-10)"/><path d="M224.73089,180.01557c0,0 -0.13654,0.51624 -0.62468,0.5046c-1.16684,-0.02782 -1.44392,-0.84264 -1.44392,-0.84264c0,0 0.2291,-0.69307 1.42486,-0.72461c0.50916,-0.01343 0.63653,0.47015 0.63653,0.47015z" fill="url(#color-11)"/><path d="M224.87145,180.20266c0,0 -0.22686,0.85775 -1.03793,0.83841c-1.93875,-0.04622 -2.39913,-1.40007 -2.39913,-1.40007c0,0 0.38066,-1.15155 2.36746,-1.20397c0.84599,-0.02231 1.05762,0.78117 1.05762,0.78117z" fill="url(#color-12)"/><path d="M224.89601,179.90645c0,0 -0.09928,0.37539 -0.45425,0.36693c-0.8485,-0.02023 -1.04999,-0.61275 -1.04999,-0.61275c0,0 0.1666,-0.50399 1.03612,-0.52692c0.37025,-0.00977 0.46287,0.34188 0.46287,0.34188z" fill="url(#color-13)"/><path d="M224.87745,180.69556c0,0 -0.09928,0.3754 -0.45425,0.36694c-0.8485,-0.02023 -1.04999,-0.61275 -1.04999,-0.61275c0,0 0.1666,-0.50399 1.03612,-0.52692c0.37025,-0.00976 0.46287,0.34189 0.46287,0.34189z" fill="url(#color-14)"/><path d="M224.85826,179.11802c0,0 -0.09929,0.3754 -0.45425,0.36693c-0.8485,-0.02023 -1.04998,-0.61275 -1.04998,-0.61275c0,0 0.1666,-0.50399 1.03612,-0.52692c0.37025,-0.00976 0.46287,0.34188 0.46287,0.34188z" fill="url(#color-15)"/></g></g><path d="M235.37727,182.64169c-2.07009,-0.78068 -8.17058,-2.0304 -8.15172,-2.81033c0.0184,-0.76143 6.18701,-2.12748 8.15735,-2.82139c2.10071,-0.73981 7.69013,0.59436 7.63279,2.96676c-0.05734,2.3724 -5.63487,3.42058 -7.63842,2.66496z" fill="url(#color-16)" stroke="none" stroke-width="0" stroke-linecap="butt"/></g><path d="M231.81315,179.701c0,3.88824 -3.12439,7.04028 -6.97852,7.04028c-3.85413,0 -6.97852,-3.15204 -6.97852,-7.04028c0,-3.88824 3.12439,-7.04028 6.97852,-7.04028c3.85413,0 6.97852,3.15204 6.97852,7.04028z" fill="url(#color-17)" stroke="none" stroke-width="0" stroke-linecap="butt"/><path d="M343.78457,79.59999l-207.56911,200.80003" fill="none" stroke="#000000" stroke-width="0" stroke-linecap="round"/></g></g></svg>