<svg version="1.1" xmlns="http://www.w3.org/2000/svg" xmlns:xlink="http://www.w3.org/1999/xlink" width="60.24405" height="98.94939" viewBox="0,0,60.24405,98.94939"><defs><linearGradient x1="263.47716" y1="228.25104" x2="256.37386" y2="197.81143" gradientUnits="userSpaceOnUse" id="color-1"><stop offset="0" stop-color="#ffffff" stop-opacity="0"/><stop offset="1" stop-color="#ffffff"/></linearGradient><linearGradient x1="248.92176" y1="162.54488" x2="256.02505" y2="192.98451" gradientUnits="userSpaceOnUse" id="color-2"><stop offset="0" stop-color="#ffffff" stop-opacity="0"/><stop offset="1" stop-color="#ffffff"/></linearGradient><linearGradient x1="286.85837" y1="196.86799" x2="255.60458" y2="197.34561" gradientUnits="userSpaceOnUse" id="color-3"><stop offset="0" stop-color="#ffffff" stop-opacity="0"/><stop offset="1" stop-color="#ffffff"/></linearGradient><linearGradient x1="226.77886" y1="199.5882" x2="258.03265" y2="199.11058" gradientUnits="userSpaceOnUse" id="color-4"><stop offset="0" stop-color="#ffffff" stop-opacity="0"/><stop offset="1" stop-color="#ffffff"/></linearGradient><radialGradient cx="256.08829" cy="197.56413" r="24.44599" gradientUnits="userSpaceOnUse" id="color-5"><stop offset="0" stop-color="#ffde00"/><stop offset="1" stop-color="#ffde00" stop-opacity="0"/></radialGradient><linearGradient x1="278.11051" y1="182.32074" x2="255.94085" y2="160.28593" gradientUnits="userSpaceOnUse" id="color-6"><stop offset="0" stop-color="#ffffff" stop-opacity="0"/><stop offset="1" stop-color="#ffffff"/></linearGradient><linearGradient x1="230.91481" y1="134.34446" x2="253.08447" y2="156.37929" gradientUnits="userSpaceOnUse" id="color-7"><stop offset="0" stop-color="#ffffff" stop-opacity="0"/><stop offset="1" stop-color="#ffffff"/></linearGradient><linearGradient x1="281.28154" y1="143.31407" x2="255.04162" y2="160.29917" gradientUnits="userSpaceOnUse" id="color-8"><stop offset="0" stop-color="#ffffff" stop-opacity="0"/><stop offset="1" stop-color="#ffffff"/></linearGradient><linearGradient x1="231.79626" y1="177.49233" x2="258.03618" y2="160.50721" gradientUnits="userSpaceOnUse" id="color-9"><stop offset="0" stop-color="#ffffff" stop-opacity="0"/><stop offset="1" stop-color="#ffffff"/></linearGradient><radialGradient cx="255.56758" cy="160.2278" r="24.44599" gradientUnits="userSpaceOnUse" id="color-10"><stop offset="0" stop-color="#ffde00"/><stop offset="1" stop-color="#ffde00" stop-opacity="0"/></radialGradient><radialGradient cx="260.42245" cy="186.81713" r="15.08772" gradientUnits="userSpaceOnUse" id="color-11"><stop offset="0" stop-color="#ffe537"/><stop offset="1" stop-color="#ffe537" stop-opacity="0"/></radialGradient><radialGradient cx="254.44639" cy="210.24452" r="15.08772" gradientUnits="userSpaceOnUse" id="color-12"><stop offset="0" stop-color="#ffe537"/><stop offset="1" stop-color="#ffe537" stop-opacity="0"/></radialGradient><radialGradient cx="265.30185" cy="170.68173" r="15.08772" gradientUnits="userSpaceOnUse" id="color-13"><stop offset="0" stop-color="#ffe537"/><stop offset="1" stop-color="#ffe537" stop-opacity="0"/></radialGradient><radialGradient cx="258.93074" cy="146.44292" r="15.08772" gradientUnits="userSpaceOnUse" id="color-14"><stop offset="0" stop-color="#ffe537"/><stop offset="1" stop-color="#ffe537" stop-opacity="0"/></radialGradient><radialGradient cx="267.94847" cy="199.37027" r="15.08772" gradientUnits="userSpaceOnUse" id="color-15"><stop offset="0" stop-color="#ffe537"/><stop offset="1" stop-color="#ffe537" stop-opacity="0"/></radialGradient></defs><g transform="translate(-226.69658,-130.52533)"><g data-paper-data="{&quot;isPaintingLayer&quot;:true}" fill-rule="nonzero" stroke-width="0" stroke-linejoin="miter" stroke-miterlimit="10" stroke-dasharray="" stroke-dashoffset="0" style="mix-blend-mode: normal"><g><path d="M258.23335,229.47472l-1.98738,-31.63346l12.47498,29.18609z" data-paper-data="{&quot;index&quot;:null}" fill="url(#color-1)" stroke="#000000" stroke-linecap="round"/><path d="M254.16557,161.32121l1.98738,31.63346l-12.47499,-29.18609z" fill="url(#color-2)" stroke="#000000" stroke-linecap="round"/><path d="M286.94063,202.25204l-31.33807,-5.03776l31.17352,-5.73035z" data-paper-data="{&quot;index&quot;:null}" fill="url(#color-3)" stroke="#000000" stroke-linecap="round"/><path d="M226.69658,194.20413l31.33406,4.77512l-31.1695,5.99299z" fill="url(#color-4)" stroke="#000000" stroke-linecap="round"/><path d="M255.72707,173.92681c13.19958,-0.20171 24.06167,10.21755 24.26117,23.27209c0.1995,13.05454 -10.33916,23.80084 -23.53873,24.00255c-13.19958,0.20171 -24.06167,-10.21755 -24.26117,-23.27209c-0.1995,-13.05454 10.33916,-23.80084 23.53873,-24.00255z" fill="url(#color-5)" stroke="none" stroke-linecap="butt"/></g><g><path d="M274.31459,186.1399l-18.46633,-25.76082l26.05814,18.12253z" data-paper-data="{&quot;index&quot;:null}" fill="url(#color-6)" stroke="#000000" stroke-linecap="round"/><path d="M234.71073,130.52533l18.46633,25.76082l-26.05815,-18.12252z" fill="url(#color-7)" stroke="#000000" stroke-linecap="round"/><path d="M284.20752,147.83437l-29.23729,12.35453l23.38528,-21.39518z" data-paper-data="{&quot;index&quot;:null}" fill="url(#color-8)" stroke="#000000" stroke-linecap="round"/><path d="M228.87025,172.972l29.09456,-12.57504l-23.24254,21.61568z" fill="url(#color-9)" stroke="#000000" stroke-linecap="round"/><path d="M242.72171,140.38249c11.08204,-7.17341 25.81711,-4.10356 32.9117,6.85671c7.09459,10.96027 3.8621,25.66052 -7.21993,32.83393c-11.08204,7.17341 -25.81711,4.10356 -32.9117,-6.85671c-7.09459,-10.96027 -3.8621,-25.66052 7.21993,-32.83393z" fill="url(#color-10)" stroke="none" stroke-linecap="butt"/></g><path d="M260.21872,173.48536c7.91516,-0.12096 14.42287,5.74983 14.53539,13.11276c0.11252,7.36294 -6.21277,13.42983 -14.12792,13.55079c-7.91516,0.12096 -14.42287,-5.74983 -14.53539,-13.11276c-0.11252,-7.36294 6.21277,-13.42983 14.12792,-13.55079z" fill="url(#color-11)" stroke="none" stroke-linecap="butt"/><path d="M254.24265,196.91274c7.91516,-0.12096 14.42288,5.74983 14.5354,13.11277c0.11252,7.36294 -6.21278,13.42983 -14.12793,13.55079c-7.91516,0.12096 -14.42287,-5.74982 -14.53539,-13.11276c-0.11252,-7.36294 6.21277,-13.42984 14.12792,-13.5508z" fill="url(#color-12)" stroke="none" stroke-linecap="butt"/><path d="M265.09812,157.34996c7.91516,-0.12096 14.42288,5.74983 14.5354,13.11276c0.11252,7.36293 -6.21278,13.42983 -14.12793,13.55079c-7.91516,0.12096 -14.42287,-5.74982 -14.53539,-13.11276c-0.11252,-7.36294 6.21277,-13.42983 14.12792,-13.55079z" fill="url(#color-13)" stroke="none" stroke-linecap="butt"/><path d="M258.72701,133.11114c7.91516,-0.12096 14.42287,5.74983 14.53539,13.11277c0.11252,7.36293 -6.21277,13.42983 -14.12792,13.55079c-7.91516,0.12096 -14.42287,-5.74983 -14.53539,-13.11276c-0.11252,-7.36293 6.21277,-13.42984 14.12792,-13.5508z" fill="url(#color-14)" stroke="none" stroke-linecap="butt"/><path d="M267.74474,186.0385c7.91516,-0.12096 14.42287,5.74983 14.53539,13.11277c0.11252,7.36293 -6.21277,13.42983 -14.12792,13.55079c-7.91516,0.12096 -14.42287,-5.74983 -14.53539,-13.11276c-0.11252,-7.36294 6.21277,-13.42984 14.12792,-13.5508z" fill="url(#color-15)" stroke="none" stroke-linecap="butt"/></g></g></svg>