<svg version="1.1" xmlns="http://www.w3.org/2000/svg" xmlns:xlink="http://www.w3.org/1999/xlink" width="15.59221" height="2.67189" viewBox="0,0,15.59221,2.67189"><defs><linearGradient x1="247.79615" y1="179.98617" x2="232.2037" y2="180.02675" gradientUnits="userSpaceOnUse" id="color-1"><stop offset="0" stop-color="#ffea00"/><stop offset="1" stop-color="#ffea00" stop-opacity="0"/></linearGradient><linearGradient x1="246.65327" y1="179.9834" x2="237.27521" y2="180.00782" gradientUnits="userSpaceOnUse" id="color-2"><stop offset="0" stop-color="#fff47e"/><stop offset="1" stop-color="#fff47e" stop-opacity="0"/></linearGradient></defs><g transform="translate(-232.2039,-178.66408)"><g data-paper-data="{&quot;isPaintingLayer&quot;:true}" fill-rule="nonzero" stroke-linejoin="miter" stroke-miterlimit="10" stroke-dasharray="" stroke-dashoffset="0" style="mix-blend-mode: normal"><path d="M244.48748,181.30922c-0.64796,0.00316 -2.79913,0.07822 -4.75456,-0.038c-1.76225,-0.10473 -4.08497,-0.16329 -5.50952,-0.37593c-1.47185,-0.2197 -2.01687,-0.59566 -2.01949,-0.8348c-0.00256,-0.23348 0.53709,-0.65964 1.90877,-0.89081c1.46243,-0.24647 3.81723,-0.29446 5.68722,-0.4233c1.8409,-0.12684 4.04048,-0.06846 4.65871,-0.07147c1.83526,-0.00896 3.32949,0.57349 3.33747,1.30094c0.00798,0.72745 -1.47333,1.32442 -3.30858,1.33338z" fill="url(#color-1)" stroke="none" stroke-width="0" stroke-linecap="butt"/><path d="M244.66328,180.77915c-0.38972,0.0019 -1.68353,0.04704 -2.85963,-0.02285c-1.0599,-0.06299 -2.4569,-0.09821 -3.3137,-0.2261c-0.88524,-0.13214 -1.21305,-0.35826 -1.21462,-0.50209c-0.00154,-0.14043 0.32303,-0.39674 1.14803,-0.53578c0.87958,-0.14824 2.29587,-0.1771 3.42057,-0.25459c1.10721,-0.07629 2.43014,-0.04117 2.80198,-0.04299c1.10382,-0.00539 2.00252,0.34493 2.00732,0.78245c0.0048,0.43752 -0.88613,0.79657 -1.98994,0.80196z" fill="url(#color-2)" stroke="none" stroke-width="0" stroke-linecap="butt"/><path d="M241.76667,179.82222h3.73333" fill="none" stroke="#ffffff" stroke-width="0.5" stroke-linecap="round"/></g></g></svg>