<svg version="1.1" xmlns="http://www.w3.org/2000/svg" xmlns:xlink="http://www.w3.org/1999/xlink" width="149.73663" height="247.29672" viewBox="0,0,149.73663,247.29672"><defs><linearGradient x1="310.67769" y1="242.19215" x2="286.99893" y2="242.19215" gradientUnits="userSpaceOnUse" id="color-1"><stop offset="0" stop-color="#730000"/><stop offset="1" stop-color="#6b0000"/></linearGradient><linearGradient x1="310.60407" y1="195.75" x2="287.02072" y2="195.75" gradientUnits="userSpaceOnUse" id="color-2"><stop offset="0" stop-color="#730000"/><stop offset="1" stop-color="#6b0000"/></linearGradient><linearGradient x1="310.67769" y1="236.94215" x2="286.99893" y2="236.94215" gradientUnits="userSpaceOnUse" id="color-3"><stop offset="0" stop-color="#800000"/><stop offset="1" stop-color="#780000"/></linearGradient><linearGradient x1="310.60407" y1="190.5" x2="287.02072" y2="190.5" gradientUnits="userSpaceOnUse" id="color-4"><stop offset="0" stop-color="#800000"/><stop offset="1" stop-color="#780000"/></linearGradient><linearGradient x1="241.91561" y1="80.37499" x2="241.91561" y2="84.87499" gradientUnits="userSpaceOnUse" id="color-5"><stop offset="0" stop-color="#797979"/><stop offset="1" stop-color="#616161"/></linearGradient><linearGradient x1="241.91561" y1="80.62499" x2="241.91561" y2="76.12497" gradientUnits="userSpaceOnUse" id="color-6"><stop offset="0" stop-color="#797979"/><stop offset="1" stop-color="#616161"/></linearGradient><radialGradient cx="240.41561" cy="152.99997" r="60.88835" gradientUnits="userSpaceOnUse" id="color-7"><stop offset="0" stop-color="#bb0000"/><stop offset="1" stop-color="#bb0000" stop-opacity="0"/></radialGradient><radialGradient cx="189" cy="249.11111" r="5.83334" gradientUnits="userSpaceOnUse" id="color-8"><stop offset="0" stop-color="#ffffff"/><stop offset="1" stop-color="#ffffff" stop-opacity="0"/></radialGradient><radialGradient cx="193" cy="249.11111" r="5.83334" gradientUnits="userSpaceOnUse" id="color-9"><stop offset="0" stop-color="#ffffff"/><stop offset="1" stop-color="#ffffff" stop-opacity="0"/></radialGradient><radialGradient cx="197.33333" cy="249.11111" r="5.83334" gradientUnits="userSpaceOnUse" id="color-10"><stop offset="0" stop-color="#ffffff"/><stop offset="1" stop-color="#ffffff" stop-opacity="0"/></radialGradient><radialGradient cx="201.33333" cy="249.11111" r="5.83334" gradientUnits="userSpaceOnUse" id="color-11"><stop offset="0" stop-color="#ffffff"/><stop offset="1" stop-color="#ffffff" stop-opacity="0"/></radialGradient><radialGradient cx="278.33333" cy="249.11111" r="5.83334" gradientUnits="userSpaceOnUse" id="color-12"><stop offset="0" stop-color="#ffffff"/><stop offset="1" stop-color="#ffffff" stop-opacity="0"/></radialGradient><radialGradient cx="282.33333" cy="249.11111" r="5.83333" gradientUnits="userSpaceOnUse" id="color-13"><stop offset="0" stop-color="#ffffff"/><stop offset="1" stop-color="#ffffff" stop-opacity="0"/></radialGradient><radialGradient cx="286.66667" cy="249.11111" r="5.83334" gradientUnits="userSpaceOnUse" id="color-14"><stop offset="0" stop-color="#ffffff"/><stop offset="1" stop-color="#ffffff" stop-opacity="0"/></radialGradient><radialGradient cx="290.66667" cy="249.11111" r="5.83333" gradientUnits="userSpaceOnUse" id="color-15"><stop offset="0" stop-color="#ffffff"/><stop offset="1" stop-color="#ffffff" stop-opacity="0"/></radialGradient><linearGradient x1="194.83333" y1="318.94444" x2="194.83333" y2="164.96091" gradientUnits="userSpaceOnUse" id="color-16"><stop offset="0" stop-color="#ffffff" stop-opacity="0"/><stop offset="1" stop-color="#ffffff"/></linearGradient><linearGradient x1="285.83333" y1="318.94444" x2="285.83333" y2="164.96091" gradientUnits="userSpaceOnUse" id="color-17"><stop offset="0" stop-color="#ffffff" stop-opacity="0"/><stop offset="1" stop-color="#ffffff"/></linearGradient></defs><g transform="translate(-166.16561,-71.64773)"><g data-paper-data="{&quot;isPaintingLayer&quot;:true}" fill-rule="nonzero" stroke-linecap="butt" stroke-linejoin="miter" stroke-miterlimit="10" stroke-dasharray="" stroke-dashoffset="0" style="mix-blend-mode: normal"><g><g data-paper-data="{&quot;index&quot;:null}" stroke-width="0"><path d="M304.13822,255.74914l-10.41797,-0.00591l-6.72132,-7.29279v-19.81529h23.67873v20.31529z" fill="url(#color-1)" stroke="#000000"/><path d="M287.02072,229.5v-67.5h23.58333v67.5z" fill="url(#color-2)" stroke="none"/></g><g data-paper-data="{&quot;index&quot;:null}" stroke-width="0"><path d="M304.13822,250.49914l-10.41797,-0.00591l-6.72132,-7.29279v-19.81529h23.67873v20.31529z" fill="url(#color-3)" stroke="#000000"/><path d="M287.02072,224.25v-67.5h23.58333v67.5z" fill="url(#color-4)" stroke="none"/></g><path d="M166.34617,280.45872v-184.12539l13.81943,-13.41666h122l13.73664,12.91666v184.62539z" fill="#ba0000" stroke="none" stroke-width="NaN"/><path d="M166.34617,270.45872v-184.12539l13.81943,-13.41666c0,0 13.96974,2 19.5844,2c10.05767,0 40.06664,-2.64135 65.50664,-3.19768c19.48453,-0.4261 36.90896,1.19768 36.90896,1.19768l13.73664,12.91666v184.62539z" fill="#da0000" stroke="none" stroke-width="NaN"/><path d="M304.16562,234.33334v16l-10,8.5h-108.5l-7.94467,-8.01807l-0.05533,-16.48193z" data-paper-data="{&quot;index&quot;:null}" fill="#ba0000" stroke="none" stroke-width="0"/><path d="M304.16562,228.83334v16l-10,8.5h-108.5l-7.94467,-8.01807l-0.05533,-16.48193z" data-paper-data="{&quot;index&quot;:null}" fill="#ce0000" stroke="none" stroke-width="0"/><g stroke="none" stroke-width="0"><path d="M183.79061,84.87499v-4.5h116.25v4.5z" fill="url(#color-5)"/><path d="M300.04062,76.12497v4.5c0,0 -45.75359,0 -66.2906,0c-17.82871,0 -49.9594,0 -49.9594,0v-4.5c0,0 40.78255,0.5 59.9594,0.5c9.50719,0 21.56614,-1.61806 32.99437,-1.73945c12.09053,-0.12842 23.29623,1.23945 23.29623,1.23945z" data-paper-data="{&quot;index&quot;:null}" fill="url(#color-6)"/></g><path d="M192.16561,287.08333v-11.83334h95.5v11.83334c0,0 -17.40803,1.10743 -38.40836,0.81422c-12.51668,-0.17476 -29.5333,-1.81422 -36.00724,-1.81422c-9.50808,0 -21.0844,1 -21.0844,1z" fill="#ba0000" stroke="none" stroke-width="0"/><path d="M191.66561,280.58333v-10.16667h95.5v10.16667c0,0 -11.94597,1.22292 -27.92696,0.90694c-21.20227,-0.41922 -48.74672,-2.40694 -57.48863,-2.40694c-5.83526,0 -10.0844,1.5 -10.0844,1.5z" fill="#da0000" stroke="none" stroke-width="0"/><path d="M193.16561,194.75v-94c0,0 40.49558,4 57.3344,4c15.14875,0 39.1656,-4 39.1656,-4v94l-18.22233,16.4759c0,0 -23.72779,0.00988 -34.94407,0.01418c-9.37927,0.0036 -27.83359,0.00992 -27.83359,0.00992z" fill="#ba0000" stroke="#000000" stroke-width="0"/><path d="M193.16561,187.75c0,0 6,-37.34538 6,-54.41667c0,-13.32359 -6,-39.58333 -6,-39.58333h96.5c0,0 -7,54.5507 -7,71.58333c0,9.25208 7,22.41667 7,22.41667l-18.22233,16.4759c0,0 -17.28611,-1.99021 -27.94169,-1.98592c-8.98351,0.00362 -31.83597,2.01002 -31.83597,2.01002z" fill="#ce0000" stroke="#000000" stroke-width="0"/><g stroke="none"><path d="M186.74898,249.94442l-5.33334,-5v-11h24.66666v16z" fill="#616161" stroke-width="NaN"/><path d="M186.74898,247.27776l-5.33334,-5v-11c0,0 4.22964,2 7.3344,2c4.5509,0 17.33226,-2 17.33226,-2c0,0 2,4.03419 2,6.63779c0,2.72427 -2,9.36221 -2,9.36221c0,0 -6.21345,-1.5 -8.83226,-1.5c-3.54238,0 -10.50106,1.5 -10.50106,1.5z" fill="#808080" stroke-width="NaN"/></g><g data-paper-data="{&quot;index&quot;:null}" stroke="none"><path d="M274.74893,250.27776v-16h24.66667v11l-5.33333,5z" fill="#616161" stroke-width="NaN"/><path d="M274.74893,247.61109c0,0 -1,-5.92327 -1,-8.69554c0,-2.54086 1,-7.30446 1,-7.30446c0,0 10.15105,2 14.50107,2c3.79668,0 10.1656,-2 10.1656,-2v11l-5.33333,5c0,0 -6.86222,-2 -9.83227,-2c-3.41271,0 -9.50107,2 -9.50107,2z" fill="#808080" stroke-width="NaN"/></g><path d="M295.91562,152.99997c0,31.20409 -24.8482,56.5 -55.5,56.5c-30.6518,0 -55.5,-25.29591 -55.5,-56.5c0,-31.20409 24.8482,-56.5 55.5,-56.5c30.6518,0 55.5,25.29591 55.5,56.5z" fill="url(#color-7)" stroke="none" stroke-width="NaN"/><path d="M291.66562,270.0833l12.48081,-11.5008l-0.06801,-40.75077l-21.9128,0.25157l22,-20v-123.5l11.5,10v185.5z" fill="#ffffff" stroke="none" stroke-width="NaN"/><path d="M166.16561,270.08331v-185.5l11.5,-10v123.5l22,20l-21.9128,-0.25157l-0.068,40.75077l12.4808,11.50081z" data-paper-data="{&quot;index&quot;:null}" fill="#ffffff" stroke="none" stroke-width="NaN"/><path d="M257.45475,122.51534c0.28775,-0.11383 0.63241,-0.18201 1.04526,-0.18201c2.5,0 2.5,2.5 2.5,2.5l-0.16627,-0.01197c0.11557,0.23601 0.19633,0.50615 0.21243,0.81041c1.24771,1.03899 2.38497,2.23009 3.76817,3.07493c1.05571,0.64481 2.59385,0.46924 3.45344,1.35886c0.95223,0.9855 0.97836,2.56192 1.54194,3.81106c1.78947,3.96625 5.5152,7.26166 7.07104,11.19376c0.46172,1.16692 0.10535,2.50808 0.11926,3.76295c0.06059,5.46605 -0.93941,9.04046 -2.37338,14.31432c-9.24658,8.31401 -19.74746,15.40145 -29.74409,22.68417c-4.15501,3.027 -8.93964,7.26793 -14.67607,7.08238c-7.2986,-0.23608 -12.38309,-8.18335 -15.00736,-14.10321c-0.9481,-2.13874 -0.76391,-4.70666 -1.88309,-6.76105c-2.40091,-4.40715 -7.0058,-7.2002 -9.40887,-11.67786c-0.85924,-1.72112 -2.27167,-3.26418 -2.57773,-5.16336c-0.94061,-5.83674 3.62249,-12.66188 5.90314,-17.76447c0.78834,-1.76379 1.21456,-3.75064 2.40165,-5.27488c1.77471,-2.27877 5.05105,-2.81404 7.46193,-4.40465c5.83043,-3.84669 9.76178,-8.1139 17.05713,-9.40723c2.73954,-0.48567 5.5645,-0.03137 8.34676,-0.02416c4.05992,0.01053 5.07751,-0.46801 8.45183,0.94094c0.10921,0.0456 3.96309,1.97115 6.50291,3.24107z" fill="#ba0000" stroke="none" stroke-width="0.5"/><path d="M225.39144,174.35277c-0.19299,0.07635 -0.42415,0.12207 -0.70104,0.12207c-1.67671,0 -1.67671,-1.6767 -1.67671,-1.6767l0.11151,0.00803c-0.07752,-0.15829 -0.13168,-0.33946 -0.14247,-0.54353c-0.83682,-0.69683 -1.59956,-1.49568 -2.52725,-2.0623c-0.70804,-0.43247 -1.73965,-0.31471 -2.31616,-0.91137c-0.63865,-0.66096 -0.65616,-1.71824 -1.03415,-2.55602c-1.20017,-2.6601 -3.69895,-4.87027 -4.74242,-7.50746c-0.30967,-0.78263 -0.07066,-1.68213 -0.07999,-2.52374c-0.04064,-3.66599 0.63005,-6.06329 1.59178,-9.60038c6.20153,-5.57606 13.24428,-10.32949 19.94886,-15.21389c2.7867,-2.03016 5.99567,-4.87447 9.843,-4.75003c4.89505,0.15833 8.30513,5.48843 10.06519,9.45878c0.63587,1.43442 0.51234,3.15668 1.26296,4.53452c1.61026,2.9558 4.69868,4.82906 6.31037,7.83214c0.57628,1.15433 1.52357,2.18923 1.72884,3.46298c0.63085,3.9146 -2.42955,8.49211 -3.95914,11.91433c-0.52873,1.18295 -0.81459,2.51549 -1.61075,3.53777c-1.19027,1.52833 -3.38765,1.88734 -5.00458,2.95413c-3.91037,2.57991 -6.54706,5.44185 -11.43993,6.30927c-1.83737,0.32573 -3.73202,0.02105 -5.59803,0.01621c-2.72293,-0.00706 -3.4054,0.31388 -5.6685,-0.63108c-0.07324,-0.03059 -2.65797,-1.32202 -4.36139,-2.17373z" data-paper-data="{&quot;index&quot;:null}" fill="#aa0000" stroke="none" stroke-width="0.5"/><path d="M236.00005,106.83333c0,2.5 -2.5,2.5 -2.5,2.5c-8,0 -18,0 -26,0c0,0 -2.5,0 -2.5,-2.5c0,-2.5 2.5,-2.5 2.5,-2.5c8,0 16,0 24,0h2c0,0 2.5,0 2.5,2.5z" fill="#c30000" stroke="none" stroke-width="0.5"/><path d="M275.74528,123.93278c-1.09945,2.24527 -3.34471,1.14582 -3.34471,1.14582l-2.58663,-1.4385c-4.66118,-4.88424 -9.04818,-9.97365 -13.2661,-15.24503c0,0 -1.56174,-1.95217 0.39043,-3.51391c1.95217,-1.56174 3.51391,0.39043 3.51391,0.39043c4.12565,5.15807 8.4167,10.13881 12.97841,14.916l1.16886,0.40046c0,0 2.24527,1.09945 1.14582,3.34472z" fill="#c30000" stroke="none" stroke-width="0.5"/><path d="M251.00112,191.90607c-0.07274,-2.49894 2.4262,-2.57169 2.4262,-2.57169l4.57006,-0.13215c6.08234,-0.47845 10.98189,-2.82842 16.71211,-4.74062c0,0 2.37171,-0.79057 3.16228,1.58114c0.79057,2.37171 -1.58114,3.16228 -1.58114,3.16228c-6.19008,2.06096 -11.43437,4.42512 -18.01493,4.98945l-4.7029,0.13778c0,0 -2.49894,0.07274 -2.57168,-2.4262z" fill="#c30000" stroke="none" stroke-width="0.5"/><path d="M217.87174,196.6239c-0.79057,2.37171 -3.16228,1.58114 -3.16228,1.58114l-3.3697,-1.15726c-1.44658,-1.07148 -2.89315,-2.14296 -4.33973,-3.21445c0,0 -2,-1.5 -0.5,-3.5c1.5,-2 3.5,-0.5 3.5,-0.5c1.22009,0.92852 2.44018,1.85703 3.66027,2.78555l2.6303,0.84274c0,0 2.37171,0.79057 1.58114,3.16228z" fill="#c30000" stroke="none" stroke-width="0.5"/><path d="M264.26777,225.6011c-1.76777,1.76777 -3.53553,0 -3.53553,0l0.76777,-0.26777c-8.50469,-0.01302 -16.18352,-2.93512 -24.49505,-4.02969c-4.9609,-0.65331 -9.87729,-1.28535 -14.8585,-1.99543c0,0 -2.47487,-0.35355 -2.12132,-2.82843c0.35355,-2.47487 2.82843,-2.12132 2.82843,-2.12132c4.96484,0.71073 9.86623,1.32883 14.80868,1.98857c8.08418,1.07911 15.57401,4.00034 23.83777,3.9863l2.76777,1.73223c0,0 1.76777,1.76777 0,3.53553z" fill="#d40000" stroke="none" stroke-width="0.5"/><path d="M182.50005,147.33333c2.5,0 2.5,2.5 2.5,2.5c0,8.33333 0,18.66667 0,27c0,3.19875 -1.36634,8.08432 1.26777,10.23223c0,0 1.76777,1.76777 0,3.53553c-1.76777,1.76777 -3.53553,0 -3.53553,0c-0.84731,-0.93702 -2.16608,-1.60496 -2.54193,-2.81106c-0.24352,-0.78146 -0.1903,-9.70952 -0.1903,-10.95671c0,-8.33333 0,-16.66667 0,-25v-2c0,0 0,-2.5 2.5,-2.5z" fill="#d40000" stroke="none" stroke-width="0.5"/><path d="M295.50001,127.33333c-2.5,0 -2.5,-2.5 -2.5,-2.5v-4c0,-3.11646 -0.30794,-6.25149 0.03218,-9.34934c0.65537,-5.96919 1.97383,-11.58214 1.96782,-17.65066c0,0 0,-2.5 2.5,-2.5c2.5,0 2.5,2.5 2.5,2.5c-0.00843,9.1183 -2.00001,17.87649 -2,27v4c0,0 0,2.5 -2.5,2.5z" fill="#d40000" stroke="none" stroke-width="0.5"/><path d="M230.00005,261.83333c0,-2.5 2.5,-2.5 2.5,-2.5h2c8.13514,0.0461 17.41221,2.78273 25.17742,5.16969c3.06777,0.94301 6.02056,2.38087 9.19432,2.8581c3.17375,0.47723 6.41883,-0.02779 9.62826,-0.02779c0,0 2.5,0 2.5,2.5c0,2.5 -2.5,2.5 -2.5,2.5c-0.4648,0 -10.12956,0.00862 -10.37174,-0.02779c-0.24125,-0.03628 -9.47789,-2.88706 -9.92126,-3.02362c-4.28162,-1.31874 -8.62921,-2.16071 -13.00884,-3.09937c-3.62317,-0.77654 -6.99245,-1.87498 -10.69815,-1.84922h-2c0,0 -2.5,0 -2.5,-2.5z" fill="#d40000" stroke="none" stroke-width="0.5"/><path d="M243.00005,267.83333c0,2.5 -2.5,2.5 -2.5,2.5c-9,0 -21,0 -30,0c0,0 -2.5,0 -2.5,-2.5c0,-2.5 2.5,-2.5 2.5,-2.5c9,0 18,0 27,0h3c0,0 2.5,0 2.5,2.5z" fill="#d40000" stroke="none" stroke-width="0.5"/></g><path d="M202.50003,169.83333c-2.5,0 -2.5,-2.5 -2.5,-2.5l0.29581,-4.17964c1.27248,-0.96683 2.54496,-1.93365 3.81744,-2.90048c0,0 2.08013,-1.38675 3.46688,0.69338c1.38675,2.08013 -0.69338,3.46688 -0.69338,3.46688c-0.72752,0.36651 -1.45504,0.73301 -2.18256,1.09952l0.29581,1.82036c0,0 0,1.00574 -0.63791,1.7414c1.53464,-0.8802 2.90568,0.49083 2.90568,0.49083c2.11851,2.11851 4.75264,3.83778 6.31934,6.39154c1.50676,2.45606 2.42816,6.88772 3.82723,9.47434c0.76934,1.42237 2.0043,2.55624 2.78407,3.97292c0.26798,0.48686 -0.249,1.59367 0.30488,1.63911c1.16619,0.09568 2.13132,-0.97732 3.2411,-1.34818c1.02628,-0.34296 2.09952,-0.52488 3.14929,-0.78732l1.60634,-0.07464c0,0 2.5,0 2.5,2.5c0,2.5 -2.5,2.5 -2.5,2.5l-0.39366,-0.07464c-2.12398,0.53099 -8.42383,2.19483 -9.60962,1.8645c-1.41318,-0.39368 -1.70738,-2.38608 -2.54971,-3.58714c-0.98545,-1.40513 -2.12062,-2.71978 -2.93353,-4.2313c-1.54444,-2.87168 -1.92055,-6.30067 -3.60059,-9.09519c-1.37103,-2.28053 -3.7991,-3.7269 -5.68066,-5.60846c0,0 -1.7656,-1.7656 -0.00324,-3.53229c-0.32149,0.16264 -0.7243,0.26452 -1.22899,0.26452z" fill="#ba0000" stroke="none" stroke-width="0.5"/><path d="M258.26394,174.21529c1.11803,-2.23607 3.3541,-1.11803 3.3541,-1.11803l0.88197,0.73607c4.43037,0.06468 5.75176,-0.97067 10.0152,-2.79786c0,0 2.29786,-0.9848 3.28266,1.31306c0.9848,2.29786 -1.31306,3.28266 -1.31306,3.28266c-4.73207,2.02803 -6.86087,3.14404 -11.9848,3.20214l-1.84048,-0.74606c0.20095,0.11791 0.4046,0.27464 0.60825,0.47829c1.76777,1.76777 0,3.53553 0,3.53553l-1.78201,1.52968c-5.88131,2.52348 -11.23605,5.08994 -17.57476,6.16854c0,0 -2.46598,0.411 -2.87698,-2.05499c-0.411,-2.46598 2.05499,-2.87698 2.05499,-2.87698c5.91726,-0.96293 10.93542,-3.47596 16.42524,-5.83146l0.21799,-0.47032c0,0 1.02904,-1.02904 2.302,-0.73176l-0.65227,-0.2644c0,0 -2.23607,-1.11803 -1.11803,-3.3541z" fill="#ba0000" stroke="none" stroke-width="0.5"/><path d="M274.50001,166.83333c-2.5,0 -2.5,-2.5 -2.5,-2.5c0,-2 0,-9 0,-11c0,0 0,-2.5 2.5,-2.5c2.5,0 2.5,2.5 2.5,2.5c0,2 0,4 0,6v5c0,0 0,2.5 -2.5,2.5z" fill="#ba0000" stroke="none" stroke-width="0.5"/><path d="M222.00003,111.33333c0,2.5 -2.5,2.5 -2.5,2.5c-4,0 -10,0 -14,0c0,0 -2.5,0 -2.5,-2.5c0,-2.5 2.5,-2.5 2.5,-2.5c4,0 8,0 12,0h2c0,0 2.5,0 2.5,2.5z" fill="#ba0000" stroke="none" stroke-width="0.5"/><path d="M248.61806,145.5694c-2.23607,1.11803 -3.3541,-1.11803 -3.3541,-1.11803l-0.68449,-1.51757c-1.66667,-2 -3.33333,-4 -5,-6c0,0 -1.60046,-1.92055 0.32009,-3.52101c1.92055,-1.60046 3.52101,0.32009 3.52101,0.32009c1.66667,2 3.33333,4 5,6l1.31551,2.48243c0,0 1.11803,2.23607 -1.11803,3.3541z" fill="#970000" stroke="none" stroke-width="0.5"/><path d="M236.56923,161.445c-0.63358,0.53038 -1.7803,0.99545 -1.23491,1.18971c0.55741,0.19854 0.84483,-0.58846 1.23491,-1.18971zM236.95025,144.83696c0.62484,0.07911 1.30762,0.4219 1.78584,1.37834c1.11803,2.23607 -1.11803,3.3541 -1.11803,3.3541l-0.72758,0.2865c0.20321,-0.01083 0.40659,-0.01774 0.60955,-0.02257c1.53279,-0.03646 3.07861,0.22596 4.59954,0.03228c3.01919,-0.38446 8.32319,-2.59214 11.35716,-0.84198c1.57057,0.90599 2.358,2.75498 3.537,4.13248c-1.12236,1.83052 -2.30157,3.62737 -3.36708,5.49155c-0.80883,1.41511 -1.15907,3.13133 -2.25243,4.34018c-3.72024,4.1132 -8.73757,2.71814 -13.56874,2.82676c-2.04735,0.04603 -4.44696,1.36983 -6.13976,0.21736c-1.14175,-0.77732 0.43969,-2.74354 0.40118,-4.12424c-0.02759,-0.98937 -1.98977,0.04815 -2.96733,-0.10666c-1.14142,-0.18077 -2.1876,-0.74901 -3.29851,-1.06742c-4.63363,-1.32808 -12.08223,-3.26671 -9.49255,-10.60332c0.52502,-1.48739 2.82513,-1.40377 4.23678,-2.10749c4.61087,-2.29859 8.37358,-4.10139 13.46444,-5.14094c0,0 2.44739,-0.48948 2.94052,1.95508z" fill="#970000" stroke="none" stroke-width="0.5"/><g fill="none" stroke="none" stroke-width="1" font-family="sans-serif" font-weight="normal" font-size="12" text-anchor="start"/><g fill="none" stroke="none" stroke-width="1" font-family="sans-serif" font-weight="normal" font-size="12" text-anchor="start"/><g stroke="none" stroke-width="0"><g><g><path d="M189,254.94444c-3.22166,0 -5.83334,-2.61167 -5.83334,-5.83333c0,-3.22166 2.61168,-5.83334 5.83334,-5.83334c3.22166,0 5.83333,2.61167 5.83333,5.83334c0,3.22166 -2.61167,5.83333 -5.83333,5.83333z" fill="url(#color-8)"/><path d="M193,254.94444c-3.22166,0 -5.83334,-2.61167 -5.83334,-5.83333c0,-3.22166 2.61168,-5.83334 5.83334,-5.83334c3.22166,0 5.83333,2.61167 5.83333,5.83334c0,3.22166 -2.61167,5.83333 -5.83333,5.83333z" fill="url(#color-9)"/></g><g><path d="M197.33333,254.94444c-3.22166,0 -5.83333,-2.61167 -5.83333,-5.83333c0,-3.22166 2.61167,-5.83334 5.83333,-5.83334c3.22166,0 5.83333,2.61167 5.83333,5.83334c0,3.22166 -2.61167,5.83333 -5.83333,5.83333z" fill="url(#color-10)"/><path d="M201.33333,254.94444c-3.22166,0 -5.83333,-2.61167 -5.83333,-5.83333c0,-3.22166 2.61167,-5.83334 5.83333,-5.83334c3.22166,0 5.83334,2.61167 5.83334,5.83334c0,3.22166 -2.61168,5.83333 -5.83334,5.83333z" fill="url(#color-11)"/></g></g><g><g><path d="M278.33333,254.94444c-3.22166,0 -5.83333,-2.61167 -5.83333,-5.83333c0,-3.22166 2.61167,-5.83334 5.83333,-5.83334c3.22166,0 5.83334,2.61168 5.83334,5.83334c0,3.22166 -2.61167,5.83333 -5.83334,5.83333z" fill="url(#color-12)"/><path d="M282.33333,254.94444c-3.22166,0 -5.83333,-2.61167 -5.83333,-5.83333c0,-3.22166 2.61167,-5.83334 5.83333,-5.83334c3.22166,0 5.83334,2.61167 5.83334,5.83334c0,3.22166 -2.61167,5.83333 -5.83334,5.83333z" fill="url(#color-13)"/></g><g><path d="M286.66667,254.94444c-3.22166,0 -5.83334,-2.61167 -5.83334,-5.83333c0,-3.22166 2.61168,-5.83333 5.83334,-5.83334c3.22166,0 5.83334,2.61168 5.83334,5.83334c0,3.22166 -2.61167,5.83333 -5.83334,5.83333z" fill="url(#color-14)"/><path d="M290.66667,254.94444c-3.22166,0 -5.83334,-2.61167 -5.83333,-5.83333c0,-3.22166 2.61167,-5.83334 5.83333,-5.83334c3.22166,0 5.83334,2.61167 5.83334,5.83334c0,3.22166 -2.61167,5.83333 -5.83334,5.83333z" fill="url(#color-15)"/></g></g><path d="M218.16667,318.94444h-49l16.33333,-70.66666h18.66667z" fill="url(#color-16)"/><path d="M309.16667,318.94444h-49l16.33334,-70.66666l18.66666,0z" fill="url(#color-17)"/></g></g></g></svg>