<svg version="1.1" xmlns="http://www.w3.org/2000/svg" xmlns:xlink="http://www.w3.org/1999/xlink" width="55.81221" height="59.04314" viewBox="0,0,55.81221,59.04314"><defs><linearGradient x1="197.07092" y1="229.98419" x2="196.72762" y2="147.93348" gradientUnits="userSpaceOnUse" id="color-1"><stop offset="0" stop-color="#24ffff"/><stop offset="1" stop-color="#24ffff" stop-opacity="0"/></linearGradient><radialGradient cx="197" cy="180.66666" r="17.95833" gradientUnits="userSpaceOnUse" id="color-2"><stop offset="0" stop-color="#24ffff"/><stop offset="1" stop-color="#24ffff" stop-opacity="0"/></radialGradient><linearGradient x1="224.49272" y1="224.59539" x2="180.66335" y2="155.23097" gradientUnits="userSpaceOnUse" id="color-3"><stop offset="0" stop-color="#24ffff"/><stop offset="1" stop-color="#24ffff" stop-opacity="0"/></linearGradient><linearGradient x1="147.45904" y1="163.60846" x2="224.94242" y2="190.60406" gradientUnits="userSpaceOnUse" id="color-4"><stop offset="0" stop-color="#24ffff"/><stop offset="1" stop-color="#24ffff" stop-opacity="0"/></linearGradient><linearGradient x1="161.48382" y1="142.8594" x2="215.45754" y2="204.65967" gradientUnits="userSpaceOnUse" id="color-5"><stop offset="0" stop-color="#24ffff"/><stop offset="1" stop-color="#24ffff" stop-opacity="0"/></linearGradient><linearGradient x1="245.16547" y1="158.74504" x2="171.85354" y2="195.59334" gradientUnits="userSpaceOnUse" id="color-6"><stop offset="0" stop-color="#24ffff"/><stop offset="1" stop-color="#24ffff" stop-opacity="0"/></linearGradient></defs><g transform="translate(-170.28174,-147.91884)"><g data-paper-data="{&quot;isPaintingLayer&quot;:true}" fill-rule="nonzero" stroke="none" stroke-linecap="butt" stroke-linejoin="miter" stroke-miterlimit="10" stroke-dasharray="" stroke-dashoffset="0" style="mix-blend-mode: normal"><path d="M200.22759,147.91884l-3.2552,34.61392l-3.74474,-34.58463z" fill="url(#color-1)" stroke-width="0"/><path d="M179.04167,180.66666c0,-9.91811 8.04022,-17.95833 17.95833,-17.95833c9.91811,0 17.95833,8.04022 17.95833,17.95833c0,9.91811 -8.04022,17.95833 -17.95833,17.95833c-9.91811,0 -17.95833,-8.04022 -17.95833,-17.95833z" fill="url(#color-2)" stroke-width="0.5"/><path d="M183.62218,153.36138l15.60798,31.06623l-21.52562,-27.32705z" fill="url(#color-3)" stroke-width="0"/><path d="M223.79089,193.9092l-31.48928,-14.78326l33.79234,8.17297z" data-paper-data="{&quot;index&quot;:null}" fill="url(#color-4)" stroke-width="0"/><path d="M212.82137,206.96198l-20.04852,-28.42845l25.32084,23.82382z" data-paper-data="{&quot;index&quot;:null}" fill="url(#color-5)" stroke-width="0"/><path d="M170.28174,192.46613l32.44157,-12.50058l-29.29795,18.755z" data-paper-data="{&quot;index&quot;:null}" fill="url(#color-6)" stroke-width="0"/></g></g></svg>