<svg version="1.1" xmlns="http://www.w3.org/2000/svg" xmlns:xlink="http://www.w3.org/1999/xlink" width="974.24324" height="427.92793" viewBox="0,0,974.24324,427.92793"><defs><linearGradient x1="641" y1="179.05836" x2="641" y2="187.05834" gradientUnits="userSpaceOnUse" id="color-1"><stop offset="0" stop-color="#ff5050" stop-opacity="0"/><stop offset="1" stop-color="#ff5050"/></linearGradient><linearGradient x1="641" y1="164.3155" x2="641" y2="172.31548" gradientUnits="userSpaceOnUse" id="color-2"><stop offset="0" stop-color="#ff5050" stop-opacity="0"/><stop offset="1" stop-color="#ff5050"/></linearGradient><linearGradient x1="641" y1="185.84407" x2="641" y2="193.84407" gradientUnits="userSpaceOnUse" id="color-3"><stop offset="0" stop-color="#ff5050"/><stop offset="1" stop-color="#ff5050" stop-opacity="0"/></linearGradient><linearGradient x1="641" y1="170.24406" x2="641" y2="178.24405" gradientUnits="userSpaceOnUse" id="color-4"><stop offset="0" stop-color="#ff5050"/><stop offset="1" stop-color="#ff5050" stop-opacity="0"/></linearGradient><radialGradient cx="284.88258" cy="171.3667" r="8.25" gradientUnits="userSpaceOnUse" id="color-5"><stop offset="0" stop-color="#ffa2a2"/><stop offset="1" stop-color="#ffa2a2" stop-opacity="0"/></radialGradient><radialGradient cx="284.88258" cy="186.7" r="8.25" gradientUnits="userSpaceOnUse" id="color-6"><stop offset="0" stop-color="#ffa2a2"/><stop offset="1" stop-color="#ffa2a2" stop-opacity="0"/></radialGradient></defs><g transform="translate(-26.03604,33.96394)"><g data-paper-data="{&quot;isPaintingLayer&quot;:true}" fill-rule="nonzero" stroke="none" stroke-linecap="butt" stroke-linejoin="miter" stroke-miterlimit="10" stroke-dasharray="" stroke-dashoffset="0" style="mix-blend-mode: normal"><path d="M26.03604,393.964v-427.92793h427.92793v427.92793z" fill="none" stroke-width="0"/><path d="M281.72072,187.05834v-7.99998h718.55856v7.99998z" data-paper-data="{&quot;index&quot;:null}" fill="url(#color-1)" stroke-width="NaN"/><path d="M281.72072,172.31548v-7.99998h718.55856v7.99998z" data-paper-data="{&quot;index&quot;:null}" fill="url(#color-2)" stroke-width="NaN"/><path d="M1000.27928,184.6298v3h-718.55856v-3z" data-paper-data="{&quot;index&quot;:null}" fill="#ff0000" stroke-width="NaN"/><path d="M1000.27928,185.84407v7.99998h-718.55856v-7.99998z" data-paper-data="{&quot;index&quot;:null}" fill="url(#color-3)" stroke-width="NaN"/><path d="M1000.27928,170.24406v7.99998h-718.55856v-7.99998z" data-paper-data="{&quot;index&quot;:null}" fill="url(#color-4)" stroke-width="NaN"/><path d="M1000.27928,169.02978v3h-718.55856v-3z" data-paper-data="{&quot;index&quot;:null}" fill="#ff0000" stroke-width="NaN"/><path d="M276.63258,171.3667c0,-4.55635 3.69365,-8.25 8.25,-8.25c4.55635,0 8.25,3.69365 8.25,8.25c0,4.55635 -3.69365,8.25 -8.25,8.25c-4.55635,0 -8.25,-3.69365 -8.25,-8.25z" fill="url(#color-5)" stroke-width="0"/><path d="M276.63258,186.7c0,-4.55635 3.69365,-8.25 8.25,-8.25c4.55635,0 8.25,3.69365 8.25,8.25c0,4.55635 -3.69365,8.25 -8.25,8.25c-4.55635,0 -8.25,-3.69365 -8.25,-8.25z" fill="url(#color-6)" stroke-width="0"/></g></g></svg>