<svg version="1.1" xmlns="http://www.w3.org/2000/svg" xmlns:xlink="http://www.w3.org/1999/xlink" width="100.8919" height="669.84635" viewBox="0,0,100.8919,669.84635"><defs><radialGradient cx="241.50152" cy="66.23448" r="50.44595" gradientUnits="userSpaceOnUse" id="color-1"><stop offset="0" stop-color="#ff0000"/><stop offset="1" stop-color="#ff0000" stop-opacity="0"/></radialGradient><radialGradient cx="241.50152" cy="66.23448" r="36.14632" gradientUnits="userSpaceOnUse" id="color-2"><stop offset="0" stop-color="#ff0000"/><stop offset="1" stop-color="#ff0000" stop-opacity="0"/></radialGradient><linearGradient x1="234.65796" y1="363.31288" x2="213.65063" y2="363.39635" gradientUnits="userSpaceOnUse" id="color-3"><stop offset="0" stop-color="#ff0000"/><stop offset="1" stop-color="#ff0000" stop-opacity="0"/></linearGradient><linearGradient x1="248.8887" y1="363.25634" x2="269.89604" y2="363.17288" gradientUnits="userSpaceOnUse" id="color-4"><stop offset="0" stop-color="#ff0000"/><stop offset="1" stop-color="#ff0000" stop-opacity="0"/></linearGradient><linearGradient x1="257.02059" y1="363.22404" x2="278.02789" y2="363.14057" gradientUnits="userSpaceOnUse" id="color-5"><stop offset="0" stop-color="#ff0000"/><stop offset="1" stop-color="#ff0000" stop-opacity="0"/></linearGradient><linearGradient x1="225.84843" y1="363.34788" x2="204.84109" y2="363.43135" gradientUnits="userSpaceOnUse" id="color-6"><stop offset="0" stop-color="#ff0000"/><stop offset="1" stop-color="#ff0000" stop-opacity="0"/></linearGradient><radialGradient cx="232.15914" cy="65.09948" r="19.98756" gradientUnits="userSpaceOnUse" id="color-7"><stop offset="0" stop-color="#ffb7b7"/><stop offset="1" stop-color="#ffb7b7" stop-opacity="0"/></radialGradient><radialGradient cx="249.7797" cy="65.03976" r="19.98757" gradientUnits="userSpaceOnUse" id="color-8"><stop offset="0" stop-color="#ffb7b7"/><stop offset="1" stop-color="#ffb7b7" stop-opacity="0"/></radialGradient><radialGradient cx="240.83791" cy="65.07006" r="19.98756" gradientUnits="userSpaceOnUse" id="color-9"><stop offset="0" stop-color="#ffb7b7"/><stop offset="1" stop-color="#ffb7b7" stop-opacity="0"/></radialGradient><radialGradient cx="241.71525" cy="65.39814" r="9.9938" gradientUnits="userSpaceOnUse" id="color-10"><stop offset="0" stop-color="#ffb7b7"/><stop offset="1" stop-color="#ffb7b7" stop-opacity="0"/></radialGradient><radialGradient cx="237.50828" cy="65.8538" r="9.99381" gradientUnits="userSpaceOnUse" id="color-11"><stop offset="0" stop-color="#ffb7b7"/><stop offset="1" stop-color="#ffb7b7" stop-opacity="0"/></radialGradient><radialGradient cx="232.86184" cy="65.7592" r="6.92554" gradientUnits="userSpaceOnUse" id="color-12"><stop offset="0" stop-color="#ffb7b7"/><stop offset="1" stop-color="#ffb7b7" stop-opacity="0"/></radialGradient><radialGradient cx="251.09607" cy="65.6974" r="8.10899" gradientUnits="userSpaceOnUse" id="color-13"><stop offset="0" stop-color="#ffb7b7"/><stop offset="1" stop-color="#ffb7b7" stop-opacity="0"/></radialGradient><radialGradient cx="250.0441" cy="65.70097" r="6.92555" gradientUnits="userSpaceOnUse" id="color-14"><stop offset="0" stop-color="#ffb7b7"/><stop offset="1" stop-color="#ffb7b7" stop-opacity="0"/></radialGradient><radialGradient cx="255.47976" cy="65.90325" r="4.99687" gradientUnits="userSpaceOnUse" id="color-15"><stop offset="0" stop-color="#ffb7b7"/><stop offset="1" stop-color="#ffb7b7" stop-opacity="0"/></radialGradient><radialGradient cx="245.22181" cy="65.38626" r="9.99381" gradientUnits="userSpaceOnUse" id="color-16"><stop offset="0" stop-color="#ffb7b7"/><stop offset="1" stop-color="#ffb7b7" stop-opacity="0"/></radialGradient><radialGradient cx="230.75721" cy="65.43528" r="7.88982" gradientUnits="userSpaceOnUse" id="color-17"><stop offset="0" stop-color="#ffb7b7"/><stop offset="1" stop-color="#ffb7b7" stop-opacity="0"/></radialGradient><linearGradient x1="220.93342" y1="362.27717" x2="233.8089" y2="362.22601" gradientUnits="userSpaceOnUse" id="color-18"><stop offset="0" stop-color="#ff0000"/><stop offset="1" stop-color="#ffffff"/></linearGradient><linearGradient x1="248.37848" y1="362.16812" x2="261.25395" y2="362.11698" gradientUnits="userSpaceOnUse" id="color-19"><stop offset="0" stop-color="#ffffff"/><stop offset="1" stop-color="#ff0000"/></linearGradient><radialGradient cx="226.45086" cy="55.61879" r="30.18811" gradientUnits="userSpaceOnUse" id="color-20"><stop offset="0" stop-color="#ffffff"/><stop offset="1" stop-color="#ffffff" stop-opacity="0"/></radialGradient><radialGradient cx="239.55886" cy="55.57437" r="30.1881" gradientUnits="userSpaceOnUse" id="color-21"><stop offset="0" stop-color="#ffffff"/><stop offset="1" stop-color="#ffffff" stop-opacity="0"/></radialGradient><radialGradient cx="240.88395" cy="56.06988" r="15.09407" gradientUnits="userSpaceOnUse" id="color-22"><stop offset="0" stop-color="#ffffff"/><stop offset="1" stop-color="#ffffff" stop-opacity="0"/></radialGradient><radialGradient cx="234.53" cy="56.75807" r="15.09408" gradientUnits="userSpaceOnUse" id="color-23"><stop offset="0" stop-color="#ffffff"/><stop offset="1" stop-color="#ffffff" stop-opacity="0"/></radialGradient><radialGradient cx="227.51223" cy="56.6152" r="10.45992" gradientUnits="userSpaceOnUse" id="color-24"><stop offset="0" stop-color="#ffffff"/><stop offset="1" stop-color="#ffffff" stop-opacity="0"/></radialGradient><radialGradient cx="255.0522" cy="56.52186" r="12.24738" gradientUnits="userSpaceOnUse" id="color-25"><stop offset="0" stop-color="#ffffff"/><stop offset="1" stop-color="#ffffff" stop-opacity="0"/></radialGradient><radialGradient cx="253.46335" cy="56.52724" r="10.45992" gradientUnits="userSpaceOnUse" id="color-26"><stop offset="0" stop-color="#ffffff"/><stop offset="1" stop-color="#ffffff" stop-opacity="0"/></radialGradient><radialGradient cx="261.67306" cy="56.83275" r="7.54701" gradientUnits="userSpaceOnUse" id="color-27"><stop offset="0" stop-color="#ffffff"/><stop offset="1" stop-color="#ffffff" stop-opacity="0"/></radialGradient><radialGradient cx="246.1801" cy="56.05192" r="15.09408" gradientUnits="userSpaceOnUse" id="color-28"><stop offset="0" stop-color="#ffffff"/><stop offset="1" stop-color="#ffffff" stop-opacity="0"/></radialGradient><radialGradient cx="224.33352" cy="56.12597" r="11.91638" gradientUnits="userSpaceOnUse" id="color-29"><stop offset="0" stop-color="#ffffff"/><stop offset="1" stop-color="#ffffff" stop-opacity="0"/></radialGradient><radialGradient cx="253.06399" cy="55.5286" r="30.18811" gradientUnits="userSpaceOnUse" id="color-30"><stop offset="0" stop-color="#ffffff"/><stop offset="1" stop-color="#ffffff" stop-opacity="0"/></radialGradient></defs><g transform="translate(-191.05555,-2.73449)"><g data-paper-data="{&quot;isPaintingLayer&quot;:true}" fill-rule="nonzero" stroke-linejoin="miter" stroke-miterlimit="10" stroke-dasharray="" stroke-dashoffset="0" style="mix-blend-mode: normal"><path d="M191.05573,66.40545c-0.07504,-35.06995 22.44953,-63.57632 50.30993,-63.67073c27.8604,-0.09442 50.50656,28.25885 50.5816,63.32881c0.07504,35.06995 -22.44953,63.57632 -50.30993,63.67073c-27.8604,0.09442 -50.50656,-28.25885 -50.5816,-63.32881z" fill="url(#color-1)" stroke="none" stroke-width="0" stroke-linecap="butt"/><path d="M205.3553,66.35698c-0.05372,-25.12887 16.08586,-45.55468 36.04886,-45.62233c19.963,-0.06765 36.18974,20.24846 36.24352,45.37733c0.05372,25.12887 -16.08586,45.55468 -36.04886,45.62233c-19.963,0.06765 -36.18974,-20.24846 -36.24352,-45.37733z" fill="url(#color-2)" stroke="none" stroke-width="0" stroke-linecap="butt"/><g fill="none" stroke="#ff0000" stroke-width="4" stroke-linecap="round"><g><path d="M243.14308,403.3926c0,0 -31.26964,-18.59777 -24.91969,-44.61744c4.58096,-18.77095 48.16071,-41.48168 45.20448,-63.49364c-4.41982,-32.90996 -44.4952,-64.52957 -44.52486,-80.7933c-0.03882,-21.27719 23.80768,-48.09476 23.80768,-48.09476"/><path d="M241.52623,402.39901c0,0 23.94398,26.62769 23.98284,47.90489c0.02965,16.26372 -39.92974,48.20132 -44.22943,81.14592c-2.87586,22.03513 40.78615,44.39925 45.43552,63.13353c6.4448,25.96885 -24.75651,44.81482 -24.75651,44.81482" data-paper-data="{&quot;index&quot;:null}"/></g><g data-paper-data="{&quot;index&quot;:null}"><path d="M241.47699,375.39911c0,0 31.26964,18.59777 24.91969,44.61744c-4.58096,18.77094 -48.16071,41.48167 -45.20448,63.49364c4.41982,32.90995 44.4952,64.52957 44.52486,80.7933c0.03882,21.27719 -23.80768,48.09476 -23.80768,48.09476"/><path d="M243.09379,376.39269c0,0 -23.94398,-26.62769 -23.98284,-47.90489c-0.02965,-16.26372 39.92974,-48.20132 44.22943,-81.14592c2.87586,-22.03513 -40.78615,-44.39925 -45.43552,-63.13353c-6.4448,-25.96885 24.75651,-44.81482 24.75651,-44.81482" data-paper-data="{&quot;index&quot;:null}"/></g></g><g stroke="none" stroke-width="0" stroke-linecap="butt"><path d="M214.21351,671.9321l-1.12584,-617.0715l21.00733,-0.08346l1.12584,617.0715z" data-paper-data="{&quot;index&quot;:null}" fill="url(#color-3)"/><path d="M249.45162,671.79209l-1.12584,-617.0715l21.00733,-0.08346l1.12584,617.0715z" fill="url(#color-4)"/></g><path d="M257.58351,671.75979l-1.12584,-617.0715l21.00733,-0.08346l1.12584,617.0715z" fill="url(#color-5)" stroke="none" stroke-width="0" stroke-linecap="butt"/><path d="M205.40405,671.9671l-1.12584,-617.0715l21.00733,-0.08346l1.12584,617.0715z" data-paper-data="{&quot;index&quot;:null}" fill="url(#color-6)" stroke="none" stroke-width="0" stroke-linecap="butt"/><g stroke="none" stroke-width="0" stroke-linecap="butt"><path d="M212.17163,65.16722c-0.0297,-13.89533 8.8949,-25.19006 19.93368,-25.22747c11.03878,-0.03741 20.0116,11.19666 20.04134,25.09199c0.0297,13.89533 -8.8949,25.19006 -19.93368,25.22747c-11.03878,0.03741 -20.0116,-11.19666 -20.04134,-25.09199z" fill="url(#color-7)"/><path d="M229.79219,65.1075c-0.0297,-13.89533 8.8949,-25.19006 19.93368,-25.22747c11.03878,-0.03741 20.0116,11.19666 20.04134,25.09199c0.0297,13.89533 -8.8949,25.19006 -19.93368,25.22747c-11.03878,0.03741 -20.0116,-11.19666 -20.04134,-25.09199z" fill="url(#color-8)"/><path d="M220.8504,65.1378c-0.0297,-13.89533 8.8949,-25.19006 19.93368,-25.22747c11.03878,-0.03741 20.0116,11.19666 20.04135,25.09199c0.0297,13.89533 -8.8949,25.19006 -19.93368,25.22747c-11.03878,0.03741 -20.0116,-11.19666 -20.04135,-25.09199z" fill="url(#color-9)"/><path d="M231.72149,65.43201c-0.01485,-6.94767 4.44745,-12.59503 9.96684,-12.61373c5.51939,-0.0187 10.00583,5.59833 10.02068,12.54599c0.01485,6.94767 -4.44745,12.59503 -9.96684,12.61373c-5.51939,0.0187 -10.00583,-5.59833 -10.02068,-12.54599z" fill="url(#color-10)"/><path d="M227.51458,65.88767c-0.01485,-6.94767 4.44745,-12.59503 9.96684,-12.61373c5.51939,-0.0187 10.00582,5.59833 10.02067,12.54599c0.01485,6.94767 -4.44745,12.59503 -9.96684,12.61373c-5.51939,0.0187 -10.00582,-5.59833 -10.02067,-12.54599z" fill="url(#color-11)"/><path d="M225.93636,65.78267c-0.0103,-4.81462 3.082,-8.72812 6.90685,-8.74109c3.82486,-0.01296 6.93387,3.87955 6.94412,8.69414c0.0103,4.81462 -3.08199,8.72812 -6.90685,8.74109c-3.82486,0.01296 -6.93382,-3.87954 -6.94413,-8.69415z" fill="url(#color-12)"/><path d="M242.98708,65.72488c-0.01207,-5.63736 3.60868,-10.21965 8.08715,-10.23483c4.47848,-0.01518 8.11876,4.54251 8.13078,10.17986c0.01207,5.63736 -3.60868,10.21965 -8.08715,10.23483c-4.47848,0.01518 -8.11877,-4.54251 -8.13078,-10.17986z" fill="url(#color-13)"/><path d="M243.11862,65.72443c-0.0103,-4.81462 3.08199,-8.72812 6.90685,-8.74109c3.82486,-0.01296 6.93382,3.87954 6.94412,8.69415c0.01031,4.81462 -3.08199,8.72812 -6.90685,8.74109c-3.82486,0.01296 -6.93387,-3.87955 -6.94412,-8.69414z" fill="url(#color-14)"/><path d="M250.48288,65.92018c-0.00743,-3.47384 2.22373,-6.29751 4.98342,-6.30686c2.7597,-0.00935 5.00291,2.79917 5.01033,6.27299c0.00743,3.47384 -2.22373,6.29751 -4.98342,6.30686c-2.75969,0.00935 -5.00291,-2.79917 -5.01033,-6.27299z" fill="url(#color-15)"/><path d="M235.22805,65.42013c-0.01485,-6.94767 4.44745,-12.59503 9.96684,-12.61373c5.51939,-0.0187 10.00583,5.59833 10.02067,12.54599c0.01485,6.94767 -4.44745,12.59503 -9.96684,12.61373c-5.51939,0.0187 -10.00582,-5.59833 -10.02067,-12.54599z" fill="url(#color-16)"/><path d="M222.86739,65.46202c-0.01175,-5.485 3.51116,-9.94344 7.86856,-9.95821c4.35741,-0.01476 7.89933,4.41973 7.91102,9.90473c0.01175,5.485 -3.51116,9.94344 -7.86856,9.95821c-4.35741,0.01476 -7.89933,-4.41973 -7.91102,-9.90473z" fill="url(#color-17)"/></g><g stroke="none" stroke-linecap="butt"><path d="M221.49837,671.90316l-1.12982,-619.25198l12.87547,-0.05116l1.12982,619.25198z" data-paper-data="{&quot;index&quot;:null}" fill="url(#color-18)" stroke-width="NaN"/><path d="M233.8669,672.58083l-1.13114,-619.97878l16.26373,-0.06461l1.13114,619.97878z" fill="#ffffff" stroke-width="0"/><path d="M248.94341,671.79411l-1.12982,-619.25198l12.87547,-0.05116l1.12982,619.25198z" fill="url(#color-19)" stroke-width="NaN"/></g><path d="M196.26286,55.7211c-0.04492,-20.98674 13.43437,-38.04567 30.10672,-38.10217c16.6724,-0.05651 30.22442,16.91081 30.26928,37.89755c0.04492,20.98674 -13.43436,38.04567 -30.10671,38.10217c-16.6724,0.05651 -30.22442,-16.91081 -30.26928,-37.89755z" fill="url(#color-20)" stroke="none" stroke-width="0" stroke-linecap="butt"/><path d="M209.37081,55.67668c-0.04492,-20.98674 13.43437,-38.04567 30.10672,-38.10217c16.67241,-0.05651 30.22442,16.91081 30.26928,37.89755c0.04492,20.98674 -13.43437,38.04567 -30.10672,38.10217c-16.6724,0.05651 -30.22442,-16.91081 -30.26928,-37.89755z" fill="url(#color-21)" stroke="none" stroke-width="0" stroke-linecap="butt"/><path d="M225.78992,56.12103c-0.02243,-10.49337 6.71715,-19.02284 15.05338,-19.05109c8.33617,-0.02825 15.11219,8.4554 15.13467,18.94878c0.02243,10.49337 -6.71715,19.02284 -15.05338,19.05109c-8.33617,0.02825 -15.11218,-8.4554 -15.13467,-18.94878z" fill="url(#color-22)" stroke="none" stroke-width="0" stroke-linecap="butt"/><path d="M219.43597,56.80923c-0.02243,-10.49337 6.71715,-19.02284 15.05338,-19.05109c8.33617,-0.02825 15.11218,8.4554 15.13467,18.94878c0.02243,10.49337 -6.71715,19.02284 -15.05338,19.05109c-8.33617,0.02825 -15.11218,-8.4554 -15.13467,-18.94878z" fill="url(#color-23)" stroke="none" stroke-width="0" stroke-linecap="butt"/><path d="M217.05235,56.65064c-0.01554,-7.27173 4.65488,-13.18248 10.43173,-13.20206c5.77686,-0.01958 10.47248,5.85945 10.48807,13.13116c0.01554,7.27173 -4.65487,13.18249 -10.43173,13.20207c-5.77686,0.01958 -10.47248,-5.85943 -10.48802,-13.13118z" fill="url(#color-24)" stroke="none" stroke-width="0" stroke-linecap="butt"/><path d="M242.80486,56.56337c-0.01821,-8.51436 5.45034,-15.43519 12.21433,-15.45811c6.76399,-0.02293 12.26212,6.86075 12.28028,15.3751c0.01821,8.51436 -5.45033,15.4352 -12.21438,15.45812c-6.76399,0.02293 -12.26212,-6.86075 -12.28028,-15.37511z" fill="url(#color-25)" stroke="none" stroke-width="0" stroke-linecap="butt"/><path d="M243.00348,56.56269c-0.01554,-7.27173 4.65487,-13.18248 10.43173,-13.20206c5.77686,-0.01958 10.47247,5.85945 10.48807,13.13116c0.01554,7.27173 -4.65488,13.18249 -10.43173,13.20207c-5.77686,0.01958 -10.47248,-5.85944 -10.48807,-13.13117z" fill="url(#color-26)" stroke="none" stroke-width="0" stroke-linecap="butt"/><path d="M254.1261,56.85833c-0.01121,-5.24669 3.35857,-9.51141 7.52666,-9.52554c4.16809,-0.01413 7.5561,4.2277 7.56731,9.47439c0.01121,5.24669 -3.35858,9.51142 -7.52667,9.52554c-4.16809,0.01412 -7.55609,-4.2277 -7.56731,-9.47439z" fill="url(#color-27)" stroke="none" stroke-width="0" stroke-linecap="butt"/><path d="M231.08608,56.10308c-0.02243,-10.49337 6.71716,-19.02284 15.05339,-19.05109c8.33617,-0.02825 15.11218,8.4554 15.13467,18.94878c0.02243,10.49337 -6.71715,19.02284 -15.05338,19.05109c-8.33617,0.02825 -15.11219,-8.4554 -15.13467,-18.94878z" fill="url(#color-28)" stroke="none" stroke-width="0" stroke-linecap="butt"/><path d="M212.41719,56.16635c-0.01773,-8.28424 5.30305,-15.01803 11.88424,-15.04033c6.58119,-0.0223 11.93069,6.67532 11.94842,14.95956c0.01773,8.28424 -5.30305,15.01803 -11.88423,15.04033c-6.58119,0.0223 -11.9307,-6.67532 -11.94843,-14.95956z" fill="url(#color-29)" stroke="none" stroke-width="0" stroke-linecap="butt"/><path d="M222.87599,55.63091c-0.04492,-20.98674 13.43437,-38.04567 30.10672,-38.10217c16.67241,-0.05651 30.22442,16.91081 30.26928,37.89755c0.04492,20.98674 -13.43436,38.04567 -30.10671,38.10217c-16.6724,0.05651 -30.22442,-16.91081 -30.26928,-37.89755z" fill="url(#color-30)" stroke="none" stroke-width="0" stroke-linecap="butt"/></g></g></svg>