<svg version="1.1" xmlns="http://www.w3.org/2000/svg" xmlns:xlink="http://www.w3.org/1999/xlink" width="34.46173" height="38.29498" viewBox="0,0,34.46173,38.29498"><defs><linearGradient x1="232.53087" y1="162.91732" x2="242.34434" y2="162.91732" gradientUnits="userSpaceOnUse" id="color-1"><stop offset="0" stop-color="#e5e5e5" stop-opacity="0"/><stop offset="1" stop-color="#e5e5e5"/></linearGradient><linearGradient x1="232.38369" y1="197.11726" x2="242.19715" y2="197.11726" gradientUnits="userSpaceOnUse" id="color-2"><stop offset="0" stop-color="#e5e5e5" stop-opacity="0"/><stop offset="1" stop-color="#e5e5e5"/></linearGradient><linearGradient x1="244.58129" y1="183.82955" x2="244.58129" y2="187.03737" gradientUnits="userSpaceOnUse" id="color-3"><stop offset="0" stop-color="#397029"/><stop offset="1" stop-color="#397029" stop-opacity="0"/></linearGradient><linearGradient x1="244.62263" y1="172.45555" x2="244.62263" y2="175.66337" gradientUnits="userSpaceOnUse" id="color-4"><stop offset="0" stop-color="#397029" stop-opacity="0"/><stop offset="1" stop-color="#397029"/></linearGradient><linearGradient x1="255.89033" y1="173.07035" x2="257.44103" y2="181.24172" gradientUnits="userSpaceOnUse" id="color-5"><stop offset="0" stop-color="#c7c7c7"/><stop offset="1" stop-color="#c7c7c7" stop-opacity="0"/></linearGradient><linearGradient x1="258.40371" y1="176.78982" x2="256.34214" y2="183.05768" gradientUnits="userSpaceOnUse" id="color-6"><stop offset="0" stop-color="#c7c7c7"/><stop offset="1" stop-color="#c7c7c7" stop-opacity="0"/></linearGradient><linearGradient x1="242.05734" y1="231.08636" x2="328.59481" y2="-37.0124" gradientUnits="userSpaceOnUse" id="color-7"><stop offset="0" stop-color="#cacaca" stop-opacity="0"/><stop offset="1" stop-color="#cacaca"/></linearGradient><linearGradient x1="246.91287" y1="213.97373" x2="304.62608" y2="35.17442" gradientUnits="userSpaceOnUse" id="color-8"><stop offset="0" stop-color="#cacaca" stop-opacity="0"/><stop offset="1" stop-color="#cacaca"/></linearGradient><linearGradient x1="257.46342" y1="187.01579" x2="255.91272" y2="178.84443" gradientUnits="userSpaceOnUse" id="color-9"><stop offset="0" stop-color="#c7c7c7"/><stop offset="1" stop-color="#c7c7c7" stop-opacity="0"/></linearGradient><linearGradient x1="254.93376" y1="183.24862" x2="256.99532" y2="176.98079" gradientUnits="userSpaceOnUse" id="color-10"><stop offset="0" stop-color="#c7c7c7"/><stop offset="1" stop-color="#c7c7c7" stop-opacity="0"/></linearGradient></defs><g transform="translate(-223.26356,-160.85251)"><g data-paper-data="{&quot;isPaintingLayer&quot;:true}" fill-rule="nonzero" stroke-linejoin="miter" stroke-miterlimit="10" stroke-dasharray="" stroke-dashoffset="0" style="mix-blend-mode: normal"><g><path d="M242.23529,164.06221l-9.70442,-0.21808l9.81346,-2.07173z" fill="url(#color-1)" stroke="#000000" stroke-width="0" stroke-linecap="round"/><path d="M242.19715,198.26214l-9.81346,-2.07173l9.70442,-0.21808z" data-paper-data="{&quot;index&quot;:null}" fill="url(#color-2)" stroke="#000000" stroke-width="0" stroke-linecap="round"/><path d="M229.48137,177.00087c0,0 4.48684,-0.7995 6.71057,-1.04396c2.19736,-0.24156 5.02303,-0.30877 5.02303,-0.30877l-0.94797,-13.76492l2.44631,-0.93467l5.41963,4.7847l0.02191,9.89953l5.10285,-0.0113l3.47875,3.97253l-3.4609,4.08996l-5.30696,0.01174l-0.07925,10.30797l-5.09155,5.11414l-1.99636,-1.11241l0.32934,-14.29458c0,0 -2.44106,0.02853 -4.75309,-0.28638c-2.08916,-0.28456 -6.88524,-1.42283 -6.88524,-1.42283l0.01017,4.59257l-1.9357,1.53515l-0.93479,-7.34607l-3.36856,-0.29872l0.09912,-1.32697l3.26357,-1.0278l0.18875,-6.94032l2.24729,0.91354z" fill="#458833" stroke="#000000" stroke-width="0" stroke-linecap="round"/><path d="M248.19023,166.8739l-7.5496,0.92514l-0.4378,-5.96254l2.44609,-0.98399l5.47184,4.69217z" fill="#397029" stroke="#ffffff" stroke-width="0" stroke-linecap="round"/><path d="M239.65002,182.63336c0,0 -5.70937,-0.85601 -7.07585,-1.17135c-1.62263,-0.37446 -5.62416,-1.52865 -5.62416,-1.52865" fill="none" stroke="#4d9838" stroke-width="1.5" stroke-linecap="round"/><path d="M247.91218,194.00381l-5.08304,5.14368l-2.53164,-1.24458l0.48081,-6.00089l7.13105,0.83125z" data-paper-data="{&quot;index&quot;:null}" fill="#397029" stroke="#ffffff" stroke-width="0" stroke-linecap="round"/><path d="M254.37027,177.66569l-17.2253,-1.69123l16.21221,-0.25205l1.66208,2.15802z" fill="#397029" stroke="#397029" stroke-width="0.5" stroke-linecap="round"/><path d="M254.88312,181.48356l-1.65251,2.16535l-16.21317,-0.18029l17.21765,-1.76748z" data-paper-data="{&quot;index&quot;:null}" fill="#397029" stroke="#397029" stroke-width="0.5" stroke-linecap="round"/><path d="M241.1523,183.8447l6.8509,-0.01517l0.00706,3.19265l-6.8509,0.01517z" fill="url(#color-3)" stroke="none" stroke-width="0" stroke-linecap="butt"/><path d="M241.19364,172.47075l6.8509,-0.01517l0.00706,3.19265l-6.8509,0.01517z" data-paper-data="{&quot;index&quot;:null}" fill="url(#color-4)" stroke="none" stroke-width="0" stroke-linecap="butt"/><path d="M229.50829,182.0081l0.07668,4.58928l-2.05853,1.53438l-0.88057,-7.18155l5.72385,1.65018z" fill="#397029" stroke="#ffffff" stroke-width="0" stroke-linecap="round"/><path d="M232.86125,176.48752l-6.23013,1.66184l0.1555,-7.36676l2.30964,1.34334l0.39353,4.85732z" data-paper-data="{&quot;index&quot;:null}" fill="#397029" stroke="#ffffff" stroke-width="0" stroke-linecap="round"/><path d="M255.17199,179.69694c-0.01151,0.96949 -0.92138,2.28727 -0.92138,2.28727l-2.28467,0.25211c0,0 0.70986,-1.42202 0.73555,-2.53391c0.02568,-1.11188 -0.62282,-2.34561 -0.62282,-2.34561l2.22401,0.24213c0,0 0.88083,1.12853 0.86932,2.09801z" fill="#c7ffff" stroke="#000000" stroke-width="0" stroke-linecap="round"/><g stroke="none" stroke-width="0" stroke-linecap="butt"><path d="M257.09914,182.30098l-0.42912,-2.26126l0.68381,-2.11849l0.37146,2.41514z" data-paper-data="{&quot;index&quot;:null}" fill="url(#color-5)"/><path d="M256.08634,181.68344l0.5705,-1.73449l0.51161,2.74842l-0.6075,1.50266z" data-paper-data="{&quot;index&quot;:null}" fill="url(#color-6)"/><g><path d="M256.51786,183.21384c-0.46978,-0.22662 -0.8073,-1.84771 -0.73454,-3.85813c0.07275,-2.01041 0.49092,-3.27884 0.98421,-3.04089c0.49329,0.23796 0.80467,1.8705 0.73235,3.86894c-0.07232,1.99845 -0.51224,3.25668 -0.98202,3.03007z" fill="url(#color-7)"/><path d="M257.21173,180.02601c-0.04823,1.3328 -0.34163,2.17193 -0.65492,2.0208c-0.3133,-0.15114 -0.5384,-1.23227 -0.48988,-2.57305c0.04852,-1.34078 0.32741,-2.18671 0.65639,-2.02801c0.32898,0.15869 0.53665,1.24746 0.48841,2.58026z" fill="url(#color-8)"/><path d="M256.25462,177.78516l0.42912,2.26126l-0.68381,2.11849l-0.37147,-2.41514z" fill="url(#color-9)"/><path d="M257.25113,178.35499l-0.5705,1.73449l-0.51161,-2.74842l0.6075,-1.50266z" data-paper-data="{&quot;index&quot;:null}" fill="url(#color-10)"/></g></g><path d="M240.2143,172.61906l11.14286,-0.14286" fill="none" stroke="#5ab242" stroke-width="2.5" stroke-linecap="round"/><path d="M240.35715,186.76193l11.14286,-0.14285" fill="none" stroke="#5ab242" stroke-width="2.5" stroke-linecap="round"/><path d="M230.3889,185.70373h-3.55556" fill="none" stroke="#5ab242" stroke-width="1.5" stroke-linecap="round"/><path d="M226.05557,173.03704h3.55555" fill="none" stroke="#5ab242" stroke-width="1.5" stroke-linecap="round"/><g stroke="#a6caca" stroke-width="0.5" stroke-linecap="round"><path d="M244.40769,181.01706c0,0 -1.24554,-0.55811 -1.24554,-1.24554c0,-0.68743 1.24554,-1.24554 1.24554,-1.24554l3.47768,0.01782c0,0 1.24554,0.55811 1.24554,1.24554c0,0.68744 -1.24554,1.24555 -1.24554,1.24555z" fill="#c7ffff"/><path d="M247.48112,178.66354v2.15143" fill="none"/><path d="M246.50319,180.71718v-2.05364" fill="none"/><path d="M244.93852,178.56575v2.24922" fill="none"/><path d="M245.92904,180.72976v-2.24922" fill="none"/></g><path d="M233.54545,177.91581c0.02271,-0.02271 0.04542,-0.03959 0.06776,-0.05175c0.0209,-0.03691 0.04336,-0.05936 0.04336,-0.05936c1.86701,-1.85788 4.96378,-0.7568 6.61655,0.94249c0.56422,2.10456 -0.16155,3.23409 -2.35837,2.04512c-0.36648,-0.19835 -0.41006,-1.20472 -0.61389,-1.24352c-0.55368,-0.10539 -1.55252,0.68579 -2.28533,0.67946c-1.0582,-0.36182 -0.72935,-1.31901 -1.35895,-1.84777l-0.11111,-0.11111c0,0 -0.17678,-0.17678 0,-0.35355z" fill="#5ab242" stroke="none" stroke-width="0.5" stroke-linecap="butt"/><path d="M230.05108,178.53175c0.06207,-0.1336 0.2267,-0.1336 0.2267,-0.1336h0.22222c2.59379,0 1.37986,1.8037 -0.47201,0.56912c0,0 -0.20801,-0.13868 -0.06934,-0.34669c0.02866,-0.04299 0.06029,-0.07118 0.09242,-0.08883z" fill="#5ab242" stroke="none" stroke-width="0.5" stroke-linecap="butt"/><path d="M243.92008,189.74705c0.02331,-0.68177 0.17863,-0.69277 0.84081,-1.11594c0.54355,-0.01437 1.65566,-0.22329 2.11308,0.15171c0.69685,0.57128 0.26539,1.89843 -0.50052,2.20742c-0.91462,0.36899 -1.51121,-0.21176 -2.17735,-0.57749c-0.0559,0.04225 -0.14001,0.07073 -0.25234,0.01457c-0.1027,-0.05135 -0.13465,-0.12629 -0.13917,-0.19231c-0.01669,-0.0057 -0.03345,-0.01115 -0.05031,-0.01635c0,0 -0.23717,-0.07906 -0.15811,-0.31623c0.07906,-0.23717 0.31623,-0.15811 0.31623,-0.15811c0.00256,0.0009 0.00513,0.00181 0.00769,0.00273z" fill="#5ab242" stroke="none" stroke-width="0.5" stroke-linecap="butt"/><path d="M242.83246,169.76263c-0.05721,0.02442 -0.11024,0.02442 -0.11024,0.02442l-0.45939,-0.17094c-0.68666,-2.22766 2.68731,-1.45165 4.38833,-1.43694c0.83824,0.27175 1.392,1.63376 0.43947,2.33847c-1.00358,0.74247 -3.402,-0.19817 -4.25816,-0.75501z" fill="#5ab242" stroke="none" stroke-width="0.5" stroke-linecap="butt"/></g></g></g></svg>