<svg version="1.1" xmlns="http://www.w3.org/2000/svg" xmlns:xlink="http://www.w3.org/1999/xlink" width="130" height="43.66667" viewBox="0,0,130,43.66667"><g transform="translate(-175,-158.16667)"><g data-paper-data="{&quot;isPaintingLayer&quot;:true}" fill-rule="nonzero" stroke-linejoin="miter" stroke-miterlimit="10" stroke-dasharray="" stroke-dashoffset="0" style="mix-blend-mode: normal"><path d="M197.52385,196.58735v-33.1747c0,0 -0.50405,0 1.41395,0c13.9891,0 74.06966,0 82.1242,0c1.85321,0 1.43978,0 1.43978,0v33.1747c0,0 0.09634,0 -1.75687,0c-7.9354,0 -66.49482,0 -81.49002,0c-2.31194,0 -1.73104,0 -1.73104,0z" fill="#004148" stroke="#00e5ff" stroke-width="4" stroke-linecap="butt"/><path d="M175,201.83334v-43.66667h130v43.66667z" fill="none" stroke="none" stroke-width="0" stroke-linecap="butt"/><path d="M210.56245,188.43539v-13.4375h2.26563l6.23438,9.46875v-9.46875h2.28125v13.4375h-2.28125l-6.23437,-9.46875v9.46875zM228.39512,188.71664c-1,0 -1.88021,-0.22396 -2.64062,-0.67187c-0.75,-0.45833 -1.33333,-1.08854 -1.75,-1.89062c-0.40625,-0.80208 -0.60937,-1.71875 -0.60937,-2.75c0,-1.0625 0.20833,-1.98958 0.625,-2.78125c0.42708,-0.80208 1.01563,-1.42708 1.76563,-1.875c0.75,-0.44792 1.61979,-0.67187 2.60938,-0.67187c1.02083,0 1.90625,0.22917 2.65625,0.6875c0.75,0.44792 1.33333,1.07292 1.75,1.875c0.41667,0.80208 0.625,1.72396 0.625,2.76563c0,1.04167 -0.20833,1.96354 -0.625,2.76563c-0.41667,0.79167 -1.00521,1.41667 -1.76562,1.875c-0.75,0.44792 -1.63021,0.67188 -2.64062,0.67188zM228.39512,186.60727c0.89583,0 1.5625,-0.29687 2,-0.89062c0.4375,-0.60417 0.65625,-1.375 0.65625,-2.3125c0,-0.97917 -0.22396,-1.76042 -0.67187,-2.34375c-0.4375,-0.58333 -1.09896,-0.875 -1.98437,-0.875c-0.60417,0 -1.09896,0.13542 -1.48437,0.40625c-0.38542,0.27083 -0.67187,0.65104 -0.85937,1.14063c-0.1875,0.47917 -0.28125,1.03646 -0.28125,1.67188c0,0.96875 0.21875,1.74479 0.65625,2.32813c0.44792,0.58333 1.10417,0.875 1.96875,0.875zM235.48719,188.43539v-10.07812h1.98438v2.45313l-0.25,-0.3125c0.125,-0.33333 0.29167,-0.63542 0.5,-0.90625c0.20833,-0.28125 0.45833,-0.51562 0.75,-0.70312c0.25,-0.16667 0.52604,-0.29687 0.82813,-0.39062c0.30208,-0.09375 0.60938,-0.15104 0.92188,-0.17187c0.32292,-0.03125 0.63542,-0.02083 0.9375,0.03125v2.10938c-0.30208,-0.09375 -0.65104,-0.125 -1.04687,-0.09375c-0.38542,0.03125 -0.73437,0.14063 -1.04687,0.32813c-0.30208,0.16667 -0.55208,0.38021 -0.75,0.64063c-0.19792,0.26042 -0.34375,0.55729 -0.4375,0.89063c-0.09375,0.33333 -0.14062,0.69271 -0.14062,1.07813v5.125zM255.02479,188.43539v-6.125c0,-0.6875 -0.17187,-1.22396 -0.51562,-1.60937c-0.34375,-0.39583 -0.80729,-0.59375 -1.39062,-0.59375c-0.36458,0 -0.6875,0.08333 -0.96875,0.25c-0.28125,0.16667 -0.51042,0.41146 -0.6875,0.73438c-0.16667,0.32292 -0.25,0.70313 -0.25,1.14063l-1,-0.59375c0,-0.6875 0.15625,-1.29687 0.46875,-1.82812c0.32292,-0.54167 0.75521,-0.95833 1.29688,-1.25c0.55208,-0.30208 1.16667,-0.45312 1.84375,-0.45312c1.11458,0 1.96875,0.33333 2.5625,1c0.59375,0.66667 0.89063,1.54688 0.89063,2.64063v6.6875zM242.89979,188.43539v-10.07812h2v3.125h0.26563v6.95313zM248.97792,188.43539v-6.09375c0,-0.69792 -0.17187,-1.24479 -0.51562,-1.64062c-0.34375,-0.39583 -0.80729,-0.59375 -1.39062,-0.59375c-0.57292,0 -1.03646,0.19792 -1.39062,0.59375c-0.34375,0.39583 -0.51562,0.90625 -0.51562,1.53125l-1,-0.67187c0,-0.65625 0.16146,-1.24479 0.48438,-1.76562c0.32292,-0.52083 0.76042,-0.93229 1.3125,-1.23437c0.55208,-0.30208 1.16667,-0.45312 1.84375,-0.45312c0.76042,0 1.39063,0.16146 1.89063,0.48438c0.51042,0.32292 0.89063,0.76042 1.14063,1.3125c0.25,0.54167 0.375,1.16146 0.375,1.85938v6.67188zM262.51551,188.71664c-0.72917,0 -1.34896,-0.13542 -1.85937,-0.40625c-0.5,-0.28125 -0.88021,-0.65104 -1.14062,-1.10937c-0.25,-0.46875 -0.375,-0.97917 -0.375,-1.53125c0,-0.47917 0.07813,-0.91146 0.23438,-1.29687c0.16667,-0.39583 0.41667,-0.73437 0.75,-1.01562c0.33333,-0.28125 0.77083,-0.51562 1.3125,-0.70312c0.39583,-0.125 0.86458,-0.23958 1.40625,-0.34375c0.55208,-0.10417 1.14583,-0.20312 1.78125,-0.29687c0.63542,-0.09375 1.30208,-0.19271 2,-0.29687l-0.79687,0.45313c0,-0.6875 -0.15625,-1.19792 -0.46875,-1.53125c-0.3125,-0.33333 -0.84896,-0.5 -1.60937,-0.5c-0.44792,0 -0.88542,0.10938 -1.3125,0.32813c-0.41667,0.20833 -0.71354,0.56771 -0.89062,1.07813l-2.04687,-0.64062c0.25,-0.85417 0.72396,-1.53646 1.42188,-2.04687c0.69792,-0.52083 1.64063,-0.78125 2.82813,-0.78125c0.89583,0 1.68229,0.14583 2.35938,0.4375c0.6875,0.29167 1.19792,0.77083 1.53125,1.4375c0.17708,0.35417 0.28125,0.71875 0.3125,1.09375c0.04167,0.36458 0.0625,0.76563 0.0625,1.20313v6.1875h-1.96875v-2.1875l0.32813,0.35938c-0.45833,0.72917 -0.98958,1.26563 -1.59375,1.60938c-0.60417,0.33333 -1.35937,0.5 -2.26562,0.5zM262.96864,186.91977c0.5,0 0.93229,-0.08854 1.29688,-0.26562c0.36458,-0.17708 0.65104,-0.39583 0.85938,-0.65625c0.21875,-0.26042 0.36458,-0.51042 0.4375,-0.75c0.11458,-0.28125 0.17708,-0.60417 0.1875,-0.96875c0.02083,-0.375 0.03125,-0.67708 0.03125,-0.90625l0.70313,0.20313c-0.67708,0.10417 -1.26042,0.19792 -1.75,0.28125c-0.48958,0.08333 -0.90625,0.16146 -1.25,0.23438c-0.34375,0.0625 -0.65104,0.14063 -0.92187,0.23438c-0.26042,0.09375 -0.48437,0.20313 -0.67187,0.32813c-0.17708,0.125 -0.3125,0.27083 -0.40625,0.4375c-0.09375,0.15625 -0.14062,0.33854 -0.14062,0.54688c0,0.25 0.0625,0.47396 0.1875,0.67188c0.125,0.1875 0.30729,0.33854 0.54688,0.45313c0.23958,0.10417 0.53646,0.15625 0.89063,0.15625zM270.63652,188.43539v-13.71875h2.23438v13.71875z" fill="#002e33" stroke="#002e33" stroke-width="0.25" stroke-linecap="square"/><path d="M208.84578,186.71872v-13.4375h2.26563l6.23438,9.46875v-9.46875h2.28125v13.4375h-2.28125l-6.23437,-9.46875v9.46875zM226.67845,186.99997c-1,0 -1.88021,-0.22396 -2.64062,-0.67187c-0.75,-0.45833 -1.33333,-1.08854 -1.75,-1.89062c-0.40625,-0.80208 -0.60937,-1.71875 -0.60937,-2.75c0,-1.0625 0.20833,-1.98958 0.625,-2.78125c0.42708,-0.80208 1.01563,-1.42708 1.76563,-1.875c0.75,-0.44792 1.61979,-0.67187 2.60938,-0.67187c1.02083,0 1.90625,0.22917 2.65625,0.6875c0.75,0.44792 1.33333,1.07292 1.75,1.875c0.41667,0.80208 0.625,1.72396 0.625,2.76563c0,1.04167 -0.20833,1.96354 -0.625,2.76563c-0.41667,0.79167 -1.00521,1.41667 -1.76562,1.875c-0.75,0.44792 -1.63021,0.67188 -2.64062,0.67188zM226.67845,184.8906c0.89583,0 1.5625,-0.29687 2,-0.89062c0.4375,-0.60417 0.65625,-1.375 0.65625,-2.3125c0,-0.97917 -0.22396,-1.76042 -0.67187,-2.34375c-0.4375,-0.58333 -1.09896,-0.875 -1.98437,-0.875c-0.60417,0 -1.09896,0.13542 -1.48437,0.40625c-0.38542,0.27083 -0.67187,0.65104 -0.85937,1.14063c-0.1875,0.47917 -0.28125,1.03646 -0.28125,1.67188c0,0.96875 0.21875,1.74479 0.65625,2.32813c0.44792,0.58333 1.10417,0.875 1.96875,0.875zM233.77052,186.71872v-10.07812h1.98438v2.45313l-0.25,-0.3125c0.125,-0.33333 0.29167,-0.63542 0.5,-0.90625c0.20833,-0.28125 0.45833,-0.51562 0.75,-0.70312c0.25,-0.16667 0.52604,-0.29687 0.82813,-0.39062c0.30208,-0.09375 0.60938,-0.15104 0.92188,-0.17187c0.32292,-0.03125 0.63542,-0.02083 0.9375,0.03125v2.10938c-0.30208,-0.09375 -0.65104,-0.125 -1.04687,-0.09375c-0.38542,0.03125 -0.73437,0.14063 -1.04687,0.32813c-0.30208,0.16667 -0.55208,0.38021 -0.75,0.64063c-0.19792,0.26042 -0.34375,0.55729 -0.4375,0.89063c-0.09375,0.33333 -0.14062,0.69271 -0.14062,1.07813v5.125zM253.30812,186.71872v-6.125c0,-0.6875 -0.17187,-1.22396 -0.51562,-1.60937c-0.34375,-0.39583 -0.80729,-0.59375 -1.39062,-0.59375c-0.36458,0 -0.6875,0.08333 -0.96875,0.25c-0.28125,0.16667 -0.51042,0.41146 -0.6875,0.73438c-0.16667,0.32292 -0.25,0.70313 -0.25,1.14063l-1,-0.59375c0,-0.6875 0.15625,-1.29687 0.46875,-1.82812c0.32292,-0.54167 0.75521,-0.95833 1.29688,-1.25c0.55208,-0.30208 1.16667,-0.45312 1.84375,-0.45312c1.11458,0 1.96875,0.33333 2.5625,1c0.59375,0.66667 0.89063,1.54688 0.89063,2.64063v6.6875zM241.18312,186.71872v-10.07812h2v3.125h0.26563v6.95313zM247.26125,186.71872v-6.09375c0,-0.69792 -0.17187,-1.24479 -0.51562,-1.64062c-0.34375,-0.39583 -0.80729,-0.59375 -1.39062,-0.59375c-0.57292,0 -1.03646,0.19792 -1.39062,0.59375c-0.34375,0.39583 -0.51562,0.90625 -0.51562,1.53125l-1,-0.67187c0,-0.65625 0.16146,-1.24479 0.48438,-1.76562c0.32292,-0.52083 0.76042,-0.93229 1.3125,-1.23437c0.55208,-0.30208 1.16667,-0.45312 1.84375,-0.45312c0.76042,0 1.39063,0.16146 1.89063,0.48438c0.51042,0.32292 0.89063,0.76042 1.14063,1.3125c0.25,0.54167 0.375,1.16146 0.375,1.85938v6.67188zM260.79884,186.99997c-0.72917,0 -1.34896,-0.13542 -1.85937,-0.40625c-0.5,-0.28125 -0.88021,-0.65104 -1.14062,-1.10937c-0.25,-0.46875 -0.375,-0.97917 -0.375,-1.53125c0,-0.47917 0.07813,-0.91146 0.23438,-1.29687c0.16667,-0.39583 0.41667,-0.73437 0.75,-1.01562c0.33333,-0.28125 0.77083,-0.51562 1.3125,-0.70312c0.39583,-0.125 0.86458,-0.23958 1.40625,-0.34375c0.55208,-0.10417 1.14583,-0.20312 1.78125,-0.29687c0.63542,-0.09375 1.30208,-0.19271 2,-0.29687l-0.79687,0.45313c0,-0.6875 -0.15625,-1.19792 -0.46875,-1.53125c-0.3125,-0.33333 -0.84896,-0.5 -1.60937,-0.5c-0.44792,0 -0.88542,0.10938 -1.3125,0.32813c-0.41667,0.20833 -0.71354,0.56771 -0.89062,1.07813l-2.04687,-0.64062c0.25,-0.85417 0.72396,-1.53646 1.42188,-2.04687c0.69792,-0.52083 1.64063,-0.78125 2.82813,-0.78125c0.89583,0 1.68229,0.14583 2.35938,0.4375c0.6875,0.29167 1.19792,0.77083 1.53125,1.4375c0.17708,0.35417 0.28125,0.71875 0.3125,1.09375c0.04167,0.36458 0.0625,0.76563 0.0625,1.20313v6.1875h-1.96875v-2.1875l0.32813,0.35938c-0.45833,0.72917 -0.98958,1.26563 -1.59375,1.60938c-0.60417,0.33333 -1.35937,0.5 -2.26562,0.5zM261.25197,185.2031c0.5,0 0.93229,-0.08854 1.29688,-0.26562c0.36458,-0.17708 0.65104,-0.39583 0.85938,-0.65625c0.21875,-0.26042 0.36458,-0.51042 0.4375,-0.75c0.11458,-0.28125 0.17708,-0.60417 0.1875,-0.96875c0.02083,-0.375 0.03125,-0.67708 0.03125,-0.90625l0.70313,0.20313c-0.67708,0.10417 -1.26042,0.19792 -1.75,0.28125c-0.48958,0.08333 -0.90625,0.16146 -1.25,0.23438c-0.34375,0.0625 -0.65104,0.14063 -0.92187,0.23438c-0.26042,0.09375 -0.48437,0.20313 -0.67187,0.32813c-0.17708,0.125 -0.3125,0.27083 -0.40625,0.4375c-0.09375,0.15625 -0.14062,0.33854 -0.14062,0.54688c0,0.25 0.0625,0.47396 0.1875,0.67188c0.125,0.1875 0.30729,0.33854 0.54688,0.45313c0.23958,0.10417 0.53646,0.15625 0.89063,0.15625zM268.91985,186.71872v-13.71875h2.23438v13.71875z" fill="#01ebfc" stroke="#01ebfc" stroke-width="0.25" stroke-linecap="square"/></g></g></svg>