<svg version="1.1" xmlns="http://www.w3.org/2000/svg" xmlns:xlink="http://www.w3.org/1999/xlink" width="207.56911" height="200.80003" viewBox="0,0,207.56911,200.80003"><defs><linearGradient x1="233.7005" y1="187.56102" x2="233.7005" y2="191.78753" gradientUnits="userSpaceOnUse" id="color-1"><stop offset="0" stop-color="#ffffff"/><stop offset="1" stop-color="#eeeeee"/></linearGradient><linearGradient x1="233.7005" y1="187.56102" x2="233.7005" y2="191.78753" gradientUnits="userSpaceOnUse" id="color-2"><stop offset="0" stop-color="#e5e5e5"/><stop offset="1" stop-color="#ffffff"/></linearGradient><linearGradient x1="225.46147" y1="186.87758" x2="230.533" y2="186.59186" gradientUnits="userSpaceOnUse" id="color-3"><stop offset="0" stop-color="#e60000"/><stop offset="1" stop-color="#ff0000"/></linearGradient><linearGradient x1="225.46147" y1="186.87758" x2="230.533" y2="186.59186" gradientUnits="userSpaceOnUse" id="color-4"><stop offset="0" stop-color="#ff0000"/><stop offset="1" stop-color="#e60000"/></linearGradient><linearGradient x1="225.46329" y1="191.94726" x2="230.5312" y2="192.29084" gradientUnits="userSpaceOnUse" id="color-5"><stop offset="0" stop-color="#e60000"/><stop offset="1" stop-color="#ff0000"/></linearGradient><linearGradient x1="225.46329" y1="191.94726" x2="230.5312" y2="192.29084" gradientUnits="userSpaceOnUse" id="color-6"><stop offset="0" stop-color="#ff0000"/><stop offset="1" stop-color="#e60000"/></linearGradient><linearGradient x1="225.05109" y1="189.42688" x2="231.04497" y2="189.42688" gradientUnits="userSpaceOnUse" id="color-7"><stop offset="0" stop-color="#ff0000"/><stop offset="1" stop-color="#e60000"/></linearGradient><linearGradient x1="255.56212" y1="188.87549" x2="219.25598" y2="189.31706" gradientUnits="userSpaceOnUse" id="color-8"><stop offset="0" stop-color="#a300f2"/><stop offset="1" stop-color="#a300f2" stop-opacity="0"/></linearGradient><linearGradient x1="266.37985" y1="188.65212" x2="216.94744" y2="189.25333" gradientUnits="userSpaceOnUse" id="color-9"><stop offset="0" stop-color="#f1f1f1"/><stop offset="1" stop-color="#f1f1f1" stop-opacity="0"/></linearGradient><linearGradient x1="224.82301" y1="189.54693" x2="221.76958" y2="189.58407" gradientUnits="userSpaceOnUse" id="color-10"><stop offset="0" stop-color="#ff4f00"/><stop offset="1" stop-color="#ff4f00" stop-opacity="0"/></linearGradient><linearGradient x1="224.7274" y1="189.52184" x2="222.66324" y2="189.54694" gradientUnits="userSpaceOnUse" id="color-11"><stop offset="0" stop-color="#ffd400"/><stop offset="1" stop-color="#ffd400" stop-opacity="0"/></linearGradient><linearGradient x1="224.86565" y1="189.51927" x2="221.43594" y2="189.56099" gradientUnits="userSpaceOnUse" id="color-12"><stop offset="0" stop-color="#ffee00"/><stop offset="1" stop-color="#ffee00" stop-opacity="0"/></linearGradient><linearGradient x1="224.89349" y1="189.49093" x2="223.39246" y2="189.50918" gradientUnits="userSpaceOnUse" id="color-13"><stop offset="0" stop-color="#ffee00"/><stop offset="1" stop-color="#ffee00" stop-opacity="0"/></linearGradient><linearGradient x1="224.87491" y1="190.28004" x2="223.37388" y2="190.2983" gradientUnits="userSpaceOnUse" id="color-14"><stop offset="0" stop-color="#ffee00"/><stop offset="1" stop-color="#ffee00" stop-opacity="0"/></linearGradient><linearGradient x1="224.85572" y1="188.7025" x2="223.3547" y2="188.72076" gradientUnits="userSpaceOnUse" id="color-15"><stop offset="0" stop-color="#ffee00"/><stop offset="1" stop-color="#ffee00" stop-opacity="0"/></linearGradient><radialGradient cx="224.40605" cy="189.33026" r="6.97852" gradientUnits="userSpaceOnUse" id="color-16"><stop offset="0" stop-color="#bfe8ff"/><stop offset="1" stop-color="#bfe8ff" stop-opacity="0"/></radialGradient></defs><g transform="translate(-136.21545,-79.59999)"><g data-paper-data="{&quot;isPaintingLayer&quot;:true}" fill-rule="nonzero" stroke-linejoin="miter" stroke-miterlimit="10" stroke-dasharray="" stroke-dashoffset="0" style="mix-blend-mode: normal"><path d="M195.85172,133.66845l88.29658,92.66309" fill="none" stroke="#000000" stroke-width="0" stroke-linecap="round"/><g stroke-linecap="round"><path d="M227.22904,188.52545l8.87445,-0.96444l4.06847,2.26116l-4.22244,1.96533l-8.70425,-1.30483z" fill="url(#color-1)" stroke="url(#color-2)" stroke-width="0.5"/><path d="M228.46869,187.87831l-2.9529,-0.03714l-0.12001,-2.13003l3.90578,0.69572l1.29144,1.25003z" fill="url(#color-3)" stroke="url(#color-4)" stroke-width="0.5"/><path d="M230.60335,191.22659l-1.30563,1.2352l-3.91347,0.65109l0.14431,-2.12852l2.95313,-0.00342z" data-paper-data="{&quot;index&quot;:null}" fill="url(#color-5)" stroke="url(#color-6)" stroke-width="0.5"/><path d="M225.05109,189.42688h5.99387" fill="none" stroke="url(#color-7)" stroke-width="0.5"/><g stroke="#000000" stroke-width="0"><path d="M224.63829,190.32788l-5.77523,-0.70118l5.75481,-0.97815z" fill="url(#color-8)"/><path d="M224.2757,190.62961l-7.86323,-0.95468l7.83542,-1.33179z" fill="url(#color-9)"/><path d="M224.82815,189.97102c0,0 -0.20196,0.76365 -0.92404,0.74643c-1.72603,-0.04116 -2.1359,-1.24647 -2.1359,-1.24647c0,0 0.33889,-1.0252 2.1077,-1.07187c0.75316,-0.01987 0.94158,0.69546 0.94158,0.69546z" fill="url(#color-10)"/><path d="M224.73089,189.80853c0,0 -0.13654,0.51624 -0.62468,0.5046c-1.16684,-0.02782 -1.44392,-0.84264 -1.44392,-0.84264c0,0 0.2291,-0.69307 1.42486,-0.72461c0.50916,-0.01343 0.63653,0.47015 0.63653,0.47015z" fill="url(#color-11)"/><path d="M224.87145,189.99562c0,0 -0.22686,0.85775 -1.03793,0.83841c-1.93875,-0.04622 -2.39913,-1.40007 -2.39913,-1.40007c0,0 0.38066,-1.15155 2.36746,-1.20397c0.84599,-0.02231 1.05762,0.78117 1.05762,0.78117z" fill="url(#color-12)"/><path d="M224.89601,189.69941c0,0 -0.09928,0.37539 -0.45425,0.36693c-0.8485,-0.02023 -1.04999,-0.61275 -1.04999,-0.61275c0,0 0.1666,-0.50399 1.03612,-0.52692c0.37025,-0.00977 0.46287,0.34188 0.46287,0.34188z" fill="url(#color-13)"/><path d="M224.87745,190.48852c0,0 -0.09928,0.3754 -0.45425,0.36694c-0.8485,-0.02023 -1.04999,-0.61275 -1.04999,-0.61275c0,0 0.1666,-0.50399 1.03612,-0.52692c0.37025,-0.00976 0.46287,0.34189 0.46287,0.34189z" fill="url(#color-14)"/><path d="M224.85826,188.91098c0,0 -0.09929,0.3754 -0.45425,0.36693c-0.8485,-0.02023 -1.04998,-0.61275 -1.04998,-0.61275c0,0 0.1666,-0.50399 1.03612,-0.52692c0.37025,-0.00976 0.46287,0.34188 0.46287,0.34188z" fill="url(#color-15)"/></g></g><path d="M231.38458,189.33026c0,3.88824 -3.12439,7.04028 -6.97852,7.04028c-3.85413,0 -6.97852,-3.15204 -6.97852,-7.04028c0,-3.88824 3.12439,-7.04028 6.97852,-7.04028c3.85413,0 6.97852,3.15204 6.97852,7.04028z" fill="url(#color-16)" stroke="none" stroke-width="0" stroke-linecap="butt"/><path d="M343.78457,79.59999l-207.56911,200.80003" fill="none" stroke="#000000" stroke-width="0" stroke-linecap="round"/></g></g></svg>