<svg version="1.1" xmlns="http://www.w3.org/2000/svg" xmlns:xlink="http://www.w3.org/1999/xlink" width="48.55171" height="56.87927" viewBox="0,0,48.55171,56.87927"><defs><linearGradient x1="240.02588" y1="154.06036" x2="240.02588" y2="198.77254" gradientUnits="userSpaceOnUse" id="color-1"><stop offset="0" stop-color="#828282"/><stop offset="1" stop-color="#747474"/></linearGradient><linearGradient x1="240.02588" y1="154.06036" x2="240.02588" y2="198.77254" gradientUnits="userSpaceOnUse" id="color-2"><stop offset="0" stop-color="#828282"/><stop offset="1" stop-color="#747474"/></linearGradient><linearGradient x1="240.1074" y1="162.00455" x2="240.1074" y2="187.14743" gradientUnits="userSpaceOnUse" id="color-3"><stop offset="0" stop-color="#828282"/><stop offset="1" stop-color="#747474"/></linearGradient></defs><g transform="translate(-215.55867,-151.56036)"><g data-paper-data="{&quot;isPaintingLayer&quot;:true}" fill-rule="nonzero" stroke-linejoin="miter" stroke-miterlimit="10" stroke-dasharray="" stroke-dashoffset="0" style="mix-blend-mode: normal"><path d="M217.62224,205.93962v-44.71216c0,0 -0.10819,0 0.43644,0c3.30926,0 36.32893,0 43.5,0c0.89824,0 0.77573,0 0.77573,0v44.71217c0,0 0.01575,0 -0.77573,0c-3.87606,0 -35.75289,0 -43.125,0c-0.99869,0 -0.81144,-0.00001 -0.81144,-0.00001z" fill="#696969" stroke="#696969" stroke-width="5" stroke-linecap="butt"/><path d="M217.67394,198.77252v-44.71216c0,0 -0.10819,0 0.43644,0c3.30926,0 36.32893,0 43.5,0c0.89824,0 0.77573,0 0.77573,0v44.71217c0,0 0.01575,0 -0.77573,0c-3.87606,0 -35.75289,0 -43.125,0c-0.99869,0 -0.81144,0 -0.81144,0z" fill="url(#color-1)" stroke="url(#color-2)" stroke-width="5" stroke-linecap="butt"/><path d="M261.52527,197.88786l-43.6,0.2" fill="none" stroke="#ff0000" stroke-width="2.5" stroke-linecap="round"/><path d="M262.06277,158.2575l-0.125,28.75001h-3.5l-12.25,-13.5v-15.25001z" data-paper-data="{&quot;index&quot;:null}" fill="#727272" stroke="#717171" stroke-width="0.5" stroke-linecap="round"/><path d="M218.32526,154.88786l43.6,-0.2" fill="none" stroke="#ff0000" stroke-width="2.5" stroke-linecap="round"/><path d="M218.06274,194.13256l0.125,-28.75001h3.5l12.25,13.50001v15.25z" fill="#727272" stroke="#717171" stroke-width="0.5" stroke-linecap="round"/><path d="M252.41096,176.20098c0,6.94301 -5.56446,12.57144 -12.42857,12.57144c-6.86411,0 -12.42857,-5.62843 -12.42857,-12.57144c0,-6.94301 5.56446,-12.57143 12.42857,-12.57143c6.86411,0 12.42857,5.62842 12.42857,12.57143z" fill="none" stroke="#ff0000" stroke-width="4" stroke-linecap="butt"/><path d="M252.41096,176.20098c0,6.94301 -5.56446,12.57144 -12.42857,12.57144c-6.86411,0 -12.42857,-5.62843 -12.42857,-12.57144c0,-6.94301 5.56446,-12.57143 12.42857,-12.57143c6.86411,0 12.42857,5.62842 12.42857,12.57143z" fill="#585858" stroke="#6a6a6a" stroke-width="0.5" stroke-linecap="butt"/><path d="M252.53596,174.57598c0,6.94301 -5.56446,12.57144 -12.42857,12.57144c-6.86411,0 -12.42857,-5.62843 -12.42857,-12.57144c0,-6.94301 5.56446,-12.57143 12.42857,-12.57143c6.86411,0 12.42857,5.62842 12.42857,12.57143z" fill="url(#color-3)" stroke="#7b7b7b" stroke-width="0.5" stroke-linecap="butt"/><g fill="none" stroke-width="1.5" stroke-linecap="round"><g><g><g><path d="M240.33279,168.68782h-0.78174" stroke="#505050"/><path d="M241.86868,168.89046l0.75674,0.19607" stroke="#ff0000"/></g><g><path d="M244.47461,170.73089l-0.49314,-0.60656" stroke="#505050"/><path d="M245.61146,172.76133l-0.32524,-0.71086" stroke="#ff0000"/></g></g><g data-paper-data="{&quot;index&quot;:null}"><g><path d="M245.78757,174.50533l0.02128,0.78143" stroke="#505050"/><path d="M245.47272,177.58941l0.1754,-0.76182" stroke="#ff0000"/></g><g><path d="M244.47217,178.97316l-0.59292,0.50946" stroke="#505050"/><path d="M242.58225,180.32984l-0.70175,0.34447" stroke="#ff0000"/></g></g></g><g data-paper-data="{&quot;index&quot;:null}"><g><g><path d="M239.51487,180.97499h0.78174" stroke="#505050"/><path d="M237.22228,180.57634l0.75675,0.19606" stroke="#ff0000"/></g><g><path d="M235.37305,178.9319l0.49314,0.60656" stroke="#505050"/><path d="M234.23622,176.90147l0.32523,0.71086" stroke="#ff0000"/></g></g><g data-paper-data="{&quot;index&quot;:null}"><g><path d="M234.03882,174.37612l0.02128,0.78144" stroke="#505050"/><path d="M234.37495,172.07347l-0.1754,0.76182" stroke="#ff0000"/></g><g><path d="M235.37553,170.68968l0.59292,-0.50946" stroke="#505050"/><path d="M237.26542,169.33297l0.70175,-0.34447" stroke="#ff0000"/></g></g></g></g><path d="M243.31274,174.80037c0,2.00203 -1.567,3.625 -3.5,3.625c-1.933,0 -3.5,-1.62297 -3.5,-3.625c0,-2.00203 1.567,-3.625 3.5,-3.625c1.933,0 3.5,1.62297 3.5,3.625z" fill="#cab4b4" stroke="none" stroke-width="1.5" stroke-linecap="butt"/></g></g></svg>