<svg version="1.1" xmlns="http://www.w3.org/2000/svg" xmlns:xlink="http://www.w3.org/1999/xlink" width="29.37431" height="5.03356" viewBox="0,0,29.37431,5.03356"><defs><linearGradient x1="225.31289" y1="180" x2="254.68719" y2="180" gradientUnits="userSpaceOnUse" id="color-1"><stop offset="0" stop-color="#ff5300" stop-opacity="0"/><stop offset="1" stop-color="#ff5300"/></linearGradient><linearGradient x1="234.86692" y1="179.9844" x2="252.53407" y2="179.9844" gradientUnits="userSpaceOnUse" id="color-2"><stop offset="0" stop-color="#ff5300" stop-opacity="0"/><stop offset="1" stop-color="#ff5300"/></linearGradient></defs><g transform="translate(-225.31289,-177.48322)"><g data-paper-data="{&quot;isPaintingLayer&quot;:true}" fill-rule="nonzero" stroke-linejoin="miter" stroke-miterlimit="10" stroke-dasharray="" stroke-dashoffset="0" style="mix-blend-mode: normal"><path d="M248.45403,182.46639c-1.2207,0.00596 -5.2733,0.14736 -8.95716,-0.07157c-3.31992,-0.19732 -7.69572,-0.30763 -10.37943,-0.70821c-2.77286,-0.41391 -3.79959,-1.12216 -3.80454,-1.57267c-0.00481,-0.43987 1.01182,-1.24271 3.59595,-1.67819c2.75509,-0.46433 7.19133,-0.55476 10.71422,-0.79747c3.46808,-0.23896 7.61191,-0.12898 8.77657,-0.13463c3.45747,-0.01688 6.27248,1.0804 6.28749,2.45088c0.01503,1.37045 -2.77563,2.49509 -6.23305,2.51198z" fill="url(#color-1)" stroke="none" stroke-width="0" stroke-linecap="butt"/><path d="M248.7852,181.46781c-0.7342,0.00359 -3.17161,0.08863 -5.38731,-0.04303c-1.99676,-0.11865 -4.62859,-0.18505 -6.24271,-0.42593c-1.66771,-0.24892 -2.28527,-0.67495 -2.28824,-0.9459c-0.00291,-0.26456 0.60857,-0.74739 2.1628,-1.00936c1.65704,-0.27929 4.3252,-0.33363 6.44404,-0.47965c2.08591,-0.14371 4.57817,-0.07754 5.27864,-0.08099c2.07948,-0.01017 3.77255,0.6498 3.78161,1.47405c0.00905,0.82426 -1.66939,1.50067 -3.74884,1.51082z" fill="url(#color-2)" stroke="none" stroke-width="0" stroke-linecap="butt"/><path d="M245.83333,179.8108h4.26667" fill="none" stroke="#ff8750" stroke-width="1.45" stroke-linecap="round"/></g></g></svg>