<svg version="1.1" xmlns="http://www.w3.org/2000/svg" xmlns:xlink="http://www.w3.org/1999/xlink" width="20.59514" height="3.52919" viewBox="0,0,20.59514,3.52919"><defs><linearGradient x1="229.48816" y1="180.03674" x2="250.08332" y2="180.03674" gradientUnits="userSpaceOnUse" id="color-1"><stop offset="0" stop-color="#ffcc00" stop-opacity="0"/><stop offset="1" stop-color="#ffcc00"/></linearGradient><linearGradient x1="236.1868" y1="180.02583" x2="248.57373" y2="180.02583" gradientUnits="userSpaceOnUse" id="color-2"><stop offset="0" stop-color="#ffe47d" stop-opacity="0"/><stop offset="1" stop-color="#ffe47d"/></linearGradient></defs><g transform="translate(-229.48817,-178.27215)"><g data-paper-data="{&quot;isPaintingLayer&quot;:true}" fill-rule="nonzero" stroke-linejoin="miter" stroke-miterlimit="10" stroke-dasharray="" stroke-dashoffset="0" style="mix-blend-mode: normal"><path d="M245.71307,181.76601c-0.85587,0.00418 -3.69726,0.10332 -6.28012,-0.05018c-2.32769,-0.13834 -5.39568,-0.21569 -7.27731,-0.49655c-1.94412,-0.2902 -2.664,-0.78678 -2.66746,-1.10265c-0.00338,-0.3084 0.70942,-0.8713 2.52122,-1.17663c1.93167,-0.32556 5.04203,-0.38895 7.51203,-0.55913c2.43157,-0.16754 5.33692,-0.09043 6.15351,-0.09439c2.42413,-0.01183 4.3978,0.7575 4.40833,1.71837c0.01053,0.96086 -1.94607,1.74937 -4.37017,1.76121z" fill="url(#color-1)" stroke="none" stroke-width="0" stroke-linecap="butt"/><path d="M245.94526,181.06589c-0.51477,0.00251 -2.2237,0.06214 -3.77719,-0.03017c-1.39998,-0.0832 -3.24523,-0.12974 -4.37694,-0.29864c-1.16928,-0.17453 -1.60227,-0.47323 -1.60435,-0.6632c-0.00204,-0.18549 0.42668,-0.52403 1.5164,-0.70769c1.1618,-0.19582 3.03252,-0.23392 4.5181,-0.33629c1.46248,-0.10076 3.20988,-0.05437 3.70101,-0.05678c1.45799,-0.00713 2.64504,0.4556 2.65139,1.0335c0.00634,0.5779 -1.17046,1.05217 -2.62842,1.05928z" fill="url(#color-2)" stroke="none" stroke-width="0" stroke-linecap="butt"/><path d="M242.89999,180.01079h4.26667" fill="none" stroke="#fceeb4" stroke-width="0.75" stroke-linecap="round"/></g></g></svg>