<svg version="1.1" xmlns="http://www.w3.org/2000/svg" xmlns:xlink="http://www.w3.org/1999/xlink" width="41.24405" height="63.5522" viewBox="0,0,41.24405,63.5522"><defs><linearGradient x1="267.00222" y1="212.44804" x2="262.13918" y2="191.6086" gradientUnits="userSpaceOnUse" id="color-1"><stop offset="0" stop-color="#ffffff" stop-opacity="0"/><stop offset="1" stop-color="#ffffff"/></linearGradient><linearGradient x1="257.03735" y1="167.46455" x2="261.90038" y2="188.30401" gradientUnits="userSpaceOnUse" id="color-2"><stop offset="0" stop-color="#ffffff" stop-opacity="0"/><stop offset="1" stop-color="#ffffff"/></linearGradient><linearGradient x1="283.00937" y1="190.9627" x2="261.61252" y2="191.28969" gradientUnits="userSpaceOnUse" id="color-3"><stop offset="0" stop-color="#ffffff" stop-opacity="0"/><stop offset="1" stop-color="#ffffff"/></linearGradient><linearGradient x1="241.87797" y1="192.825" x2="263.27482" y2="192.49801" gradientUnits="userSpaceOnUse" id="color-4"><stop offset="0" stop-color="#ffffff" stop-opacity="0"/><stop offset="1" stop-color="#ffffff"/></linearGradient><radialGradient cx="261.94368" cy="191.43929" r="16.73612" gradientUnits="userSpaceOnUse" id="color-5"><stop offset="0" stop-color="#ffde00"/><stop offset="1" stop-color="#ffde00" stop-opacity="0"/></radialGradient><radialGradient cx="264.91091" cy="184.08172" r="10.3293" gradientUnits="userSpaceOnUse" id="color-6"><stop offset="0" stop-color="#ffe537"/><stop offset="1" stop-color="#ffe537" stop-opacity="0"/></radialGradient><radialGradient cx="260.8196" cy="200.12049" r="10.3293" gradientUnits="userSpaceOnUse" id="color-7"><stop offset="0" stop-color="#ffe537"/><stop offset="1" stop-color="#ffe537" stop-opacity="0"/></radialGradient><radialGradient cx="270.06335" cy="192.6758" r="10.3293" gradientUnits="userSpaceOnUse" id="color-8"><stop offset="0" stop-color="#ffe537"/><stop offset="1" stop-color="#ffe537" stop-opacity="0"/></radialGradient><linearGradient x1="277.21771" y1="184.45466" x2="262.35627" y2="169.68363" gradientUnits="userSpaceOnUse" id="color-9"><stop offset="0" stop-color="#ffffff" stop-opacity="0"/><stop offset="1" stop-color="#ffffff"/></linearGradient><linearGradient x1="245.58006" y1="152.29376" x2="260.4415" y2="167.06481" gradientUnits="userSpaceOnUse" id="color-10"><stop offset="0" stop-color="#ffffff" stop-opacity="0"/><stop offset="1" stop-color="#ffffff"/></linearGradient><linearGradient x1="279.34341" y1="158.30654" x2="261.75347" y2="169.6925" gradientUnits="userSpaceOnUse" id="color-11"><stop offset="0" stop-color="#ffffff" stop-opacity="0"/><stop offset="1" stop-color="#ffffff"/></linearGradient><linearGradient x1="246.17094" y1="181.21794" x2="263.76088" y2="169.83196" gradientUnits="userSpaceOnUse" id="color-12"><stop offset="0" stop-color="#ffffff" stop-opacity="0"/><stop offset="1" stop-color="#ffffff"/></linearGradient><radialGradient cx="262.10605" cy="169.64466" r="16.38737" gradientUnits="userSpaceOnUse" id="color-13"><stop offset="0" stop-color="#ffde00"/><stop offset="1" stop-color="#ffde00" stop-opacity="0"/></radialGradient><radialGradient cx="268.63142" cy="176.65245" r="10.11406" gradientUnits="userSpaceOnUse" id="color-14"><stop offset="0" stop-color="#ffe537"/><stop offset="1" stop-color="#ffe537" stop-opacity="0"/></radialGradient><radialGradient cx="264.36055" cy="160.40396" r="10.11406" gradientUnits="userSpaceOnUse" id="color-15"><stop offset="0" stop-color="#ffe537"/><stop offset="1" stop-color="#ffe537" stop-opacity="0"/></radialGradient></defs><g transform="translate(-241.82164,-149.7336)"><g data-paper-data="{&quot;isPaintingLayer&quot;:true}" fill-rule="nonzero" stroke-width="0" stroke-linejoin="miter" stroke-miterlimit="10" stroke-dasharray="" stroke-dashoffset="0" style="mix-blend-mode: normal"><g><g><path d="M263.41222,213.2858l-1.36059,-21.65678l8.54057,19.98127z" data-paper-data="{&quot;index&quot;:null}" fill="url(#color-1)" stroke="#000000" stroke-linecap="round"/><path d="M260.62735,166.6268l1.36059,21.65678l-8.54058,-19.98127z" fill="url(#color-2)" stroke="#000000" stroke-linecap="round"/><path d="M283.06569,194.64871l-21.45455,-3.44893l21.3419,-3.92309z" data-paper-data="{&quot;index&quot;:null}" fill="url(#color-3)" stroke="#000000" stroke-linecap="round"/><path d="M241.82164,189.13898l21.4518,3.26912l-21.33914,4.1029z" fill="url(#color-4)" stroke="#000000" stroke-linecap="round"/><path d="M261.69638,175.2568c9.03665,-0.13809 16.47301,6.9951 16.60959,15.93245c0.13658,8.93735 -7.07836,16.29444 -16.11499,16.43253c-9.03665,0.13809 -16.47301,-6.9951 -16.60959,-15.93245c-0.13658,-8.93735 7.07836,-16.29444 16.11499,-16.43253z" fill="url(#color-5)" stroke="none" stroke-linecap="butt"/></g><path d="M264.77144,174.95458c5.41885,-0.08281 9.87413,3.93643 9.95116,8.97721c0.07703,5.04079 -4.25336,9.19428 -9.6722,9.27709c-5.41885,0.08281 -9.87413,-3.93643 -9.95116,-8.97721c-0.07703,-5.04079 4.25336,-9.19428 9.6722,-9.27709z" fill="url(#color-6)" stroke="none" stroke-linecap="butt"/><path d="M260.68012,190.99334c5.41885,-0.08281 9.87414,3.93643 9.95117,8.97721c0.07703,5.04079 -4.25337,9.19428 -9.67221,9.27709c-5.41885,0.08281 -9.87413,-3.93642 -9.95116,-8.97721c-0.07703,-5.04079 4.25336,-9.19429 9.6722,-9.2771z" fill="url(#color-7)" stroke="none" stroke-linecap="butt"/><path d="M269.92387,183.54866c5.41885,-0.08281 9.87413,3.93643 9.95116,8.97721c0.07703,5.04078 -4.25336,9.19428 -9.6722,9.27709c-5.41885,0.08281 -9.87413,-3.93643 -9.95116,-8.97721c-0.07703,-5.04079 4.25336,-9.19429 9.6722,-9.2771z" fill="url(#color-8)" stroke="none" stroke-linecap="butt"/></g><g><g><path d="M274.67311,187.01484l-12.37891,-17.26877l17.46808,12.14844z" data-paper-data="{&quot;index&quot;:null}" fill="url(#color-9)" stroke="#000000" stroke-linecap="round"/><path d="M248.12466,149.7336l12.37891,17.26877l-17.46809,-12.14843z" fill="url(#color-10)" stroke="#000000" stroke-linecap="round"/><path d="M281.30484,161.33672l-19.59922,8.28186l15.67633,-14.34226z" data-paper-data="{&quot;index&quot;:null}" fill="url(#color-11)" stroke="#000000" stroke-linecap="round"/><path d="M244.20949,178.18773l19.50354,-8.42968l-15.58064,14.49007z" fill="url(#color-12)" stroke="#000000" stroke-linecap="round"/><path d="M253.49482,156.34135c7.42885,-4.8087 17.3065,-2.75082 22.06236,4.5964c4.75586,7.34722 2.58896,17.20153 -4.83988,22.01023c-7.42885,4.8087 -17.3065,2.75082 -22.06236,-4.5964c-4.75586,-7.34722 -2.58896,-17.20153 4.83988,-22.01023z" fill="url(#color-13)" stroke="none" stroke-linecap="butt"/></g><path d="M268.49485,167.7155c5.30593,-0.08109 9.66838,3.8544 9.74381,8.79014c0.07543,4.93574 -4.16474,9.00269 -9.47066,9.08377c-5.30593,0.08109 -9.66837,-3.85439 -9.7438,-8.79014c-0.07543,-4.93575 4.16473,-9.00269 9.47065,-9.08377z" fill="url(#color-14)" stroke="none" stroke-linecap="butt"/><path d="M264.22398,151.467c5.30593,-0.08109 9.66837,3.8544 9.7438,8.79015c0.07543,4.93574 -4.16473,9.00269 -9.47065,9.08377c-5.30593,0.08109 -9.66837,-3.8544 -9.7438,-8.79014c-0.07543,-4.93574 4.16473,-9.0027 9.47065,-9.08378z" fill="url(#color-15)" stroke="none" stroke-linecap="butt"/></g></g></g></svg>