<svg version="1.1" xmlns="http://www.w3.org/2000/svg" xmlns:xlink="http://www.w3.org/1999/xlink" width="61.5" height="54.125" viewBox="0,0,61.5,54.125"><g transform="translate(-210.47222,-148.66667)"><g data-paper-data="{&quot;isPaintingLayer&quot;:true}" fill-rule="nonzero" stroke-linejoin="miter" stroke-miterlimit="10" stroke-dasharray="" stroke-dashoffset="0" style="mix-blend-mode: normal"><path d="M210.47222,202.79167l61.5,-54.125" fill="none" stroke="#000000" stroke-width="0" stroke-linecap="round"/><path d="M240.20821,190.68771c-1.36666,0 -2.58028,-0.28472 -3.64087,-0.85416c-1.05347,-0.57656 -1.88272,-1.35954 -2.48775,-2.34895c-0.59791,-0.99652 -0.89687,-2.11405 -0.89687,-3.35259c0,-0.41996 0.12101,-0.76163 0.36302,-1.02499c0.24913,-0.27048 0.54809,-0.40573 0.89687,-0.40573c0.36302,0 0.66198,0.13524 0.89687,0.40573c0.23489,0.26337 0.35234,0.60503 0.35234,1.02499c0,0.74739 0.19219,1.43428 0.57656,2.06067c0.38437,0.62639 0.90399,1.12821 1.55885,1.50546c0.65486,0.37014 1.39157,0.55521 2.21015,0.55521c1.20295,0 2.17456,-0.33099 2.91483,-0.99296c0.74027,-0.66909 1.11041,-1.60511 1.11041,-2.80806c0,-0.76163 -0.16371,-1.44852 -0.49114,-2.06067c-0.32743,-0.61215 -0.77586,-1.09973 -1.34531,-1.46275c-0.56232,-0.36302 -1.19939,-0.54453 -1.91119,-0.54453c-0.39861,0 -0.73316,-0.13524 -1.00364,-0.40573c-0.26337,-0.2776 -0.39505,-0.61571 -0.39505,-1.01432c0,-0.40573 0.13168,-0.74027 0.39505,-1.00364c0.27048,-0.26337 0.60503,-0.39505 1.00364,-0.39505c0.5125,0 1.00364,-0.13168 1.47343,-0.39505c0.47691,-0.26337 0.8684,-0.61571 1.17447,-1.05703c0.31319,-0.44844 0.46979,-0.95737 0.46979,-1.52682c0,-0.79722 -0.29184,-1.46987 -0.87552,-2.01796c-0.58368,-0.54809 -1.33107,-0.82213 -2.24218,-0.82213c-0.69045,0 -1.32395,0.1388 -1.90051,0.4164c-0.57656,0.27048 -1.03211,0.6335 -1.36666,1.08906c-0.33455,0.45555 -0.50182,0.96449 -0.50182,1.52682c0,0.41996 -0.12101,0.77231 -0.36302,1.05703c-0.23489,0.2776 -0.53385,0.4164 -0.89687,0.4164c-0.34878,0 -0.64774,-0.13168 -0.89687,-0.39505c-0.24201,-0.26337 -0.36302,-0.59435 -0.36302,-0.99296c0,-1.06058 0.27404,-2.00728 0.82213,-2.84009c0.54809,-0.83993 1.29548,-1.5019 2.24218,-1.98593c0.9467,-0.48403 2.00372,-0.72604 3.17108,-0.72604c1.07482,0 2.04287,0.23489 2.90415,0.70468c0.8684,0.46267 1.55173,1.08906 2.04999,1.87916c0.50538,0.7901 0.75807,1.68697 0.75807,2.69061c0,0.7118 -0.16016,1.34175 -0.48047,1.88983c-0.32031,0.54809 -0.72604,1.01788 -1.21718,1.40937c-0.49114,0.39149 -1.01076,0.71536 -1.55885,0.97161c0.96805,0.32743 1.75103,0.76875 2.34895,1.32395c0.60503,0.55521 1.04635,1.19939 1.32395,1.93254c0.28472,0.72604 0.42708,1.51614 0.42708,2.3703c0,1.18159 -0.30252,2.24218 -0.90755,3.18175c-0.59791,0.93958 -1.39869,1.67985 -2.40233,2.22082c-0.99652,0.53385 -2.09626,0.80078 -3.2992,0.80078z" fill="#ffffff" stroke="#f3f3f3" stroke-width="1" stroke-linecap="square"/></g></g></svg>