<svg version="1.1" xmlns="http://www.w3.org/2000/svg" xmlns:xlink="http://www.w3.org/1999/xlink" width="64.89196" height="107.14514" viewBox="0,0,64.89196,107.14514"><defs><linearGradient x1="103.14125" y1="166.42252" x2="165.84445" y2="166.42252" gradientUnits="userSpaceOnUse" id="color-1"><stop offset="0" stop-color="#0d9700"/><stop offset="1" stop-color="#0a7e00"/></linearGradient><linearGradient x1="140.79872" y1="91.13945" x2="140.79872" y2="99.01072" gradientUnits="userSpaceOnUse" id="color-2"><stop offset="0" stop-color="#096900"/><stop offset="1" stop-color="#096900" stop-opacity="0"/></linearGradient><linearGradient x1="140.41449" y1="93.10247" x2="140.41449" y2="97.26961" gradientUnits="userSpaceOnUse" id="color-3"><stop offset="0" stop-color="#797979"/><stop offset="1" stop-color="#616161"/></linearGradient><linearGradient x1="140.41449" y1="93.33396" x2="140.41449" y2="89.16681" gradientUnits="userSpaceOnUse" id="color-4"><stop offset="0" stop-color="#797979"/><stop offset="1" stop-color="#616161"/></linearGradient><linearGradient x1="135.96661" y1="188.02567" x2="157.80561" y2="188.02567" gradientUnits="userSpaceOnUse" id="color-5"><stop offset="0" stop-color="#0a7300"/><stop offset="1" stop-color="#096c00"/></linearGradient><linearGradient x1="130.75" y1="197.9167" x2="144.75" y2="197.9167" gradientUnits="userSpaceOnUse" id="color-6"><stop offset="0" stop-color="#042e00" stop-opacity="0"/><stop offset="1" stop-color="#042e00"/></linearGradient><linearGradient x1="162.5" y1="197.75006" x2="148.5" y2="197.75006" gradientUnits="userSpaceOnUse" id="color-7"><stop offset="0" stop-color="#042e00" stop-opacity="0"/><stop offset="1" stop-color="#042e00"/></linearGradient><linearGradient x1="135.96661" y1="183.39548" x2="157.80561" y2="183.39548" gradientUnits="userSpaceOnUse" id="color-8"><stop offset="0" stop-color="#0b8000"/><stop offset="1" stop-color="#0a7800"/></linearGradient><linearGradient x1="135.89846" y1="231.03265" x2="157.82576" y2="231.03265" gradientUnits="userSpaceOnUse" id="color-9"><stop offset="0" stop-color="#0a7300"/><stop offset="1" stop-color="#096c00"/></linearGradient><linearGradient x1="135.89846" y1="226.40246" x2="157.82576" y2="226.40246" gradientUnits="userSpaceOnUse" id="color-10"><stop offset="0" stop-color="#0b8000"/><stop offset="1" stop-color="#0a7800"/></linearGradient><radialGradient cx="149.5" cy="165.00293" r="3.8" gradientUnits="userSpaceOnUse" id="color-11"><stop offset="0" stop-color="#5d5d5d"/><stop offset="1" stop-color="#727272"/></radialGradient><radialGradient cx="149.625" cy="228.75293" r="3.8" gradientUnits="userSpaceOnUse" id="color-12"><stop offset="0" stop-color="#5d5d5d"/><stop offset="1" stop-color="#727272"/></radialGradient><radialGradient cx="149.5" cy="185.7172" r="3.8" gradientUnits="userSpaceOnUse" id="color-13"><stop offset="0" stop-color="#5d5d5d"/><stop offset="1" stop-color="#727272"/></radialGradient><radialGradient cx="149.35717" cy="206.86009" r="3.8" gradientUnits="userSpaceOnUse" id="color-14"><stop offset="0" stop-color="#5d5d5d"/><stop offset="1" stop-color="#727272"/></radialGradient><radialGradient cx="134.75" cy="125.33336" r="20.33333" gradientUnits="userSpaceOnUse" id="color-15"><stop offset="0" stop-color="#000000"/><stop offset="1" stop-color="#000000" stop-opacity="0"/></radialGradient></defs><g transform="translate(-100.9525,-147.01476)"><g data-paper-data="{&quot;isPaintingLayer&quot;:true}" fill-rule="nonzero" stroke-linejoin="miter" stroke-miterlimit="10" stroke-dasharray="" stroke-dashoffset="0" style="mix-blend-mode: normal"><path d="M112.88746,254.15989l-9.86737,-10.61287c0,0 1.56336,-34.17107 1.60083,-54.38244c0.04721,-25.46187 61.10237,55.25538 61.10237,55.25538l-8.20556,9.73994z" data-paper-data="{&quot;index&quot;:null}" fill="#096600" stroke="none" stroke-width="0" stroke-linecap="butt"/><path d="M113.00863,247.67762l-9.86737,-10.61286c0,0 1.04611,-24.867 1.07738,-41.73565c0.01924,-10.37939 -3.26614,-46.99982 -3.26614,-46.99982l64.89196,-1.31453v90.92294l-8.20557,9.73993c0,0 -8.28209,-0.7999 -15.34403,-0.57871c-8.72487,0.27327 -16.90332,1.57871 -21.04486,1.5787c-3.16093,0 -8.24137,-1 -8.24137,-1z" fill="url(#color-1)" stroke="none" stroke-width="0" stroke-linecap="butt"/><path d="" fill="url(#color-2)" stroke="none" stroke-width="0" stroke-linecap="butt"/><g stroke="none" stroke-width="0" stroke-linecap="butt"><path d="" fill="url(#color-3)"/><path d="" data-paper-data="{&quot;index&quot;:null}" fill="url(#color-4)"/></g><path d="M135.96661,219.27926v-62.50725h21.83895v62.50725z" fill="url(#color-5)" stroke="none" stroke-width="0" stroke-linecap="butt"/><path d="M108.25006,218.6667v-52.5l18.25,-18.25v40.25l-7.625,7.625v22.875z" fill="#0d9c00" stroke="#000000" stroke-width="0" stroke-linecap="round"/><path d="" fill="#0c9100" stroke="#0fb700" stroke-width="0" stroke-linecap="round"/><path d="M130.75,237.69589c0,-11.69587 0,-85.27916 0,-85.27916h14v91.42857c0,0 -5.39667,0.34145 -8.41317,-0.49254c-3.87489,-1.07131 -5.58683,-3.95356 -5.58683,-5.65687z" data-paper-data="{&quot;index&quot;:null}" fill="url(#color-6)" stroke="none" stroke-width="0" stroke-linecap="butt"/><path d="M156.91323,243.18605c-3.0165,0.83399 -8.41317,0.49254 -8.41317,0.49254v-91.42857h14c0,0 0,73.58329 0,85.27917c0,1.70331 -1.71194,4.58555 -5.58683,5.65687z" data-paper-data="{&quot;index&quot;:null}" fill="url(#color-7)" stroke="none" stroke-width="0" stroke-linecap="butt"/><path d="M135.96661,214.64915v-62.50725h21.83895v62.50725z" fill="url(#color-8)" stroke="none" stroke-width="0" stroke-linecap="butt"/><path d="M135.89846,237.29107v-18.81264h21.92729v18.34962l-6.22416,6.75337l-9.64739,0.00547z" fill="url(#color-9)" stroke="#000000" stroke-width="0" stroke-linecap="butt"/><path d="M135.89846,232.66088v-18.81263h21.92729v18.34962l-6.22416,6.75337l-9.64739,0.00548z" fill="url(#color-10)" stroke="#000000" stroke-width="0" stroke-linecap="butt"/><g stroke="none" stroke-width="0" stroke-linecap="butt"><g><path d="M153.23073,231.16957h-11.41882v-74.88333h11.41882z" fill="#8d8d8d"/><path d="M151.92152,231.16957h-11.41882c0,0 1,-10.58502 1,-18.39179c0,-6.41095 -1.21955,-19.21696 -1.45291,-31.01746c-0.26467,-13.38375 0.45291,-25.47408 0.45291,-25.47408h11.41882c0,0 0.66667,10.87932 0.66667,18.82487c0,7.4498 0.80319,23.35321 0.62344,36.32472c-0.15108,10.90246 -1.29011,19.73374 -1.29011,19.73374z" fill="#ababab"/></g><path d="M142.5,165.66957c0,0 0.66667,-2.6679 0.66667,-3.89179c0,-1.30432 -0.66667,-3.70821 -0.66667,-3.70821h7.6v7.6c0,0 -1.76765,1 -2.93333,1c-1.34258,0 -4.66667,-1 -4.66667,-1z" fill="url(#color-11)"/><path d="M142.5,229.46961v-7.6h7.6l-0.66667,6.6z" fill="url(#color-12)"/><path d="M142.5,186.26958v-7.6h7.6c0,0 -0.66667,2.46109 -0.66667,3.77487c0,1.21121 0.66667,3.82513 0.66667,3.82513z" fill="url(#color-13)"/><path d="M142.5,207.46961v-7.6h7.6v7.6c0,0 -2.97856,-0.33333 -4.26667,-0.33333c-1.24367,0 -3.33333,0.33333 -3.33333,0.33333z" fill="url(#color-14)"/></g><g stroke="none" stroke-linecap="butt"><path d="" fill="url(#color-15)" stroke-width="NaN"/><path d="" fill="#555555" stroke-width="NaN"/></g><path d="" fill="#4b4b4b" stroke="none" stroke-width="0.5" stroke-linecap="butt"/><path d="" fill="#404040" stroke="none" stroke-width="0.5" stroke-linecap="butt"/><path d="M117.74145,150.66677c0.00563,-0.0001 0.00855,-0.0001 0.00855,-0.0001l0.00061,0.00154c0.10425,0.01658 0.20975,0.04114 0.31553,0.07523c1.97038,-0.86751 3.58011,-2.65769 5.6987,-3.02924c1.44414,-0.25327 2.87873,0.5583 4.31809,0.83745c1.31314,1.58861 3.91356,4.50505 4.5598,6.39056c1.2366,3.60798 -0.83021,9.2355 -2.04527,12.58435c-2.44454,6.7375 -4.76627,13.84762 -5.86619,20.94556c-0.50683,3.27066 -0.77955,7.02387 -0.9861,10.34989c-0.18411,2.96466 0.39277,4.36828 -0.61267,7.10209c-1.74778,4.75224 -5.07342,10.46129 -11.14559,7.40002c-1.0265,-0.51751 -1.56325,-1.68593 -2.34488,-2.52889c-1.07236,-1.56994 -2.46003,-2.96583 -3.21709,-4.70983c-2.75585,-6.34848 0.84264,-15.28534 2.36518,-21.36479c0.24849,-0.99223 -0.51712,-5.14281 -0.53383,-5.37672c-0.17174,-2.4049 -0.01531,-4.84923 -0.46378,-7.21817c-0.60045,-3.17169 -1.73243,-6.61471 -0.9974,-9.93182c0.48067,-2.16922 2.13791,-3.92559 3.54734,-5.64317c1.66706,-2.03153 3.38879,-4.14141 5.62131,-5.5278c0,0 0.83634,-0.50181 1.77769,-0.35617z" fill="#0c8b00" stroke="none" stroke-width="0.5" stroke-linecap="butt"/><path d="" fill="#0c8b00" stroke="none" stroke-width="0.5" stroke-linecap="butt"/><path d="M145.875,188.33333c0,-0.75 0.75,-0.75 0.75,-0.75h0.75c1.06814,0 3.32866,-0.37854 4.09115,0.53844c0.37167,0.44697 0.1526,2.49857 0.13878,3.13387c-0.82469,1.64939 -0.35853,3.56654 -1.32611,5.19513c-3.64689,6.13829 -10.83722,-6.72517 -3.75674,-5.85288c0,0 0.73544,0.14709 0.58835,0.88252c-0.14709,0.73544 -0.88252,0.58835 -0.88252,0.58835c-2.76988,-0.99309 -0.14793,6.13849 2.31168,4.34374c1.40194,-1.02298 0.90078,-4.09212 1.60547,-5.50149c-0.0095,-0.27367 0.20512,-1.76795 0.13878,-1.86613c-0.12635,-0.18699 -2.54485,0.03844 -2.90885,0.03844h-0.75c0,0 -0.75,0 -0.75,-0.75z" fill="#a5a5a5" stroke="none" stroke-width="0.5" stroke-linecap="butt"/><path d="M149.71041,172.50415c-0.67082,0.33541 -1.00623,-0.33541 -1.00623,-0.33541l0.42082,-0.08541c-1.84794,0 -1.59945,0.65648 -3.14611,1.41126c-4.4466,2.16998 -4.60389,-2.46711 -4.60389,-5.41126c0,0 0,-0.75 0.75,-0.75c0.75,0 0.75,0.75 0.75,0.75c0,0.90303 -0.45205,3.34804 0.08503,4.0307c1.18667,1.50835 3.35743,-1.18486 4.1778,-1.49222c0.12348,-0.04626 1.65081,-0.03849 1.98717,-0.03849l0.92082,0.91459c0,0 0.33541,0.67082 -0.33541,1.00623z" fill="#a5a5a5" stroke="none" stroke-width="0.5" stroke-linecap="butt"/><path d="M144.875,218.58333c0,-0.75 0.75,-0.75 0.75,-0.75c1.08333,0 2.66667,0 3.75,0c0.16736,0 0.43135,-0.00674 0.66578,0.01215c-0.07065,-0.08969 -0.13845,-0.17603 -0.19611,-0.23182c-0.54327,-0.52572 -1.33522,-0.7241 -1.93123,-1.18918c-1.1652,-0.90923 -3.53526,-1.55135 -4.00626,-3.12382c-1.10789,-3.69873 3.90347,-4.80575 6.39972,-4.19494c0,0 0.72761,0.1819 0.54571,0.90951c-0.1819,0.72761 -0.90951,0.54571 -0.90951,0.54571c-0.96841,-0.24827 -3.13457,-0.28776 -3.87957,0.38082c-0.52249,0.4689 -1.16264,1.77282 -0.42097,2.34877c0.60097,0.46668 1.45575,0.48844 2.10196,0.89015c1.94368,1.20824 6.73298,5.15265 1.63048,5.15265c-1.08333,0 -2.16667,0 -3.25,0h-0.5c0,0 -0.75,0 -0.75,-0.75z" fill="#a5a5a5" stroke="none" stroke-width="0.5" stroke-linecap="butt"/></g></g></svg>