<svg version="1.1" xmlns="http://www.w3.org/2000/svg" xmlns:xlink="http://www.w3.org/1999/xlink" width="46.14659" height="42.92399" viewBox="0,0,46.14659,42.92399"><defs><linearGradient x1="310.61967" y1="234.61029" x2="310.621" y2="256.99128" gradientUnits="userSpaceOnUse" id="color-1"><stop offset="0" stop-color="#000000"/><stop offset="1" stop-color="#000000" stop-opacity="0"/></linearGradient><linearGradient x1="301.41666" y1="241.63889" x2="291.91666" y2="241.63889" gradientUnits="userSpaceOnUse" id="color-2"><stop offset="0" stop-color="#c4c8c8" stop-opacity="0"/><stop offset="1" stop-color="#c4c8c8"/></linearGradient></defs><g transform="translate(-284.57458,-226.38889)"><g data-paper-data="{&quot;isPaintingLayer&quot;:true}" fill-rule="nonzero" stroke-linejoin="miter" stroke-miterlimit="10" stroke-dasharray="" stroke-dashoffset="0" style="mix-blend-mode: normal"><g><g><path d="M316.96657,260.58131c0,0 -0.80024,-3.8783 -0.80039,-6.37411c-0.00022,-3.55215 0.79919,-12.3116 0.79919,-12.3116" fill="none" stroke="#f7fbfb" stroke-width="5.5" stroke-linecap="round"/><path d="M310.46536,241.896c0,0 1.00064,9.7563 1.00086,13.31119c0.00013,2.20961 -0.99967,4.37453 -0.99967,4.37453" fill="none" stroke="#f7fbfb" stroke-width="5.5" stroke-linecap="round"/><path d="M303.96657,261.18212c0,0 -0.8002,-3.16519 -0.80033,-5.3749c-0.00022,-3.5549 0.79914,-13.91082 0.79914,-13.91082" fill="none" stroke="#f7fbfb" stroke-width="5.5" stroke-linecap="round"/><path d="M302.46216,242.82187l2.7273,-0.00017l0.0007,11.25l-2.7273,0.00017z" fill="#00ddff" stroke="none" stroke-width="0" stroke-linecap="butt"/><path d="M316.09853,242.82101l2.72722,-0.00017l0.0007,11.25l-2.72722,0.00017z" fill="#00ddff" stroke="none" stroke-width="0" stroke-linecap="butt"/><path d="M317.70136,263.40885c-1.39328,0.00009 -2.52274,-0.66419 -2.52279,-1.48379c-0.00005,-0.81952 1.12934,-1.48409 2.52261,-1.48417c1.39328,-0.00009 2.52281,0.66426 2.52286,1.48386c0.00005,0.81952 -1.12941,1.48402 -2.52268,1.4841z" fill="#797c7c" stroke="none" stroke-width="0" stroke-linecap="butt"/><path d="M310.66794,262.54259c-1.39328,0.00009 -2.52283,-0.66419 -2.52287,-1.48379c-0.00005,-0.81952 1.12941,-1.48409 2.52269,-1.48417c1.39328,-0.00009 2.52281,0.66426 2.52285,1.48386c0.00005,0.81952 -1.12941,1.48402 -2.52267,1.4841z" fill="#797c7c" stroke="none" stroke-width="0" stroke-linecap="butt"/><path d="M303.91794,263.94301c-1.39328,0.00009 -2.52283,-0.6642 -2.52287,-1.4838c-0.00005,-0.81952 1.12941,-1.48409 2.52269,-1.48417c1.39328,-0.00009 2.52281,0.66426 2.52285,1.48387c0.00005,0.81952 -1.12941,1.48402 -2.52267,1.4841z" fill="#797c7c" stroke="none" stroke-width="0" stroke-linecap="butt"/><path d="M300.44111,247.11092l20.3571,-0.00126l0.00138,9.88095l-20.3571,0.00126z" fill="url(#color-1)" stroke="none" stroke-width="NaN" stroke-linecap="butt"/></g><path d="M305.07167,258.61266c0.26289,0.15736 0.43201,0.24931 0.1924,-0.03127zM304.41137,258.26351c-0.00734,-0.03719 -0.01137,-0.07806 -0.01137,-0.12295c0,-0.5 0.5,-0.5 0.5,-0.5l0.83593,0.05916c1.79681,2.81625 -2.16097,1.33797 -3.87782,1.91518c0,0 -0.47434,0.15811 -0.63246,-0.31623c-0.15811,-0.47434 0.31623,-0.63246 0.31623,-0.63246c0.89217,-0.29513 1.86246,-0.52145 2.81293,-0.41462c0.01701,0.00191 0.03596,0.00598 0.05656,0.01191z" fill="#dee3e3" stroke="none" stroke-width="0.5" stroke-linecap="butt"/><path d="M312.94721,256.71695c0.22361,0.44721 -0.22361,0.67082 -0.22361,0.67082l-0.50234,0.23786c-0.75841,0.1862 -1.44765,0.20799 -2.2,0.4c0,0 -0.48507,0.12127 -0.60634,-0.3638c-0.12127,-0.48507 0.3638,-0.60634 0.3638,-0.60634c0.75841,-0.1862 1.44765,-0.20799 2.2,-0.4l0.29766,-0.16214c0,0 0.44721,-0.22361 0.67082,0.22361z" fill="#dee3e3" stroke="none" stroke-width="0.5" stroke-linecap="butt"/><path d="M318.10002,259.24056c-0.3109,0 -0.42848,-0.19331 -0.47295,-0.33954c-1.47036,-0.57922 -1.62613,-1.39541 -1.21212,-3.08173c0,0 0.12127,-0.48507 0.60634,-0.3638c0.48507,0.12127 0.3638,0.60634 0.3638,0.60634c-0.35193,1.37894 -0.37021,1.58997 0.87304,2.00439l0.34189,0.67434c0,0 0,0.5 -0.5,0.5z" fill="#dee3e3" stroke="none" stroke-width="0.5" stroke-linecap="butt"/></g><path d="M311.15822,228.53777c7.31459,-0.07613 19.56295,-1.85641 19.56295,-1.85641l-0.60798,15.36478c0,0 -8.40917,2.91978 -11.72628,4.99147c-4.04139,2.52403 -10.78114,9.06541 -10.78114,9.06541l-15.71711,0.65117c0.30955,-8.19532 -0.32101,-14.20255 -0.63865,-22.46161c-0.0787,-2.04622 -0.0505,-4.12112 -0.16768,-6.17662c7.55879,0.25996 15.42694,0.4702 20.07589,0.42181z" data-paper-data="{&quot;index&quot;:null}" fill="#f7fbfb" stroke="#8f8f8f" stroke-width="0" stroke-linecap="round"/><path d="M309.16668,237.1323c6.12092,0 13.32288,-1 13.32288,-1l-15,10.25h-15.64933c-0.12548,-3.07226 -0.31844,-6.11813 -0.47828,-9.49411c7.34876,0.14051 14.04271,0.24411 17.80473,0.24411z" data-paper-data="{&quot;index&quot;:null}" fill="#e5e9e9" stroke="none" stroke-width="0" stroke-linecap="butt"/><path d="M287.01777,268.5272c0,0 -1.10601,1.10601 -2.44319,0.69353c0.91019,-0.1456 1.77319,-0.43249 2.56475,-0.86545z" fill="#eff4f4" stroke="none" stroke-width="0.5" stroke-linecap="butt"/><path d="M325.98607,235.87747c-1.11803,2.23607 -3.3541,1.11803 -3.3541,1.11803l-1.38197,-0.73607c-2.48718,-1.99203 -4.90832,-1.5 -8,-1.5c0,0 -2.5,0 -2.5,-2.5c0,-2.5 2.5,-2.5 2.5,-2.5c4.32859,0 7.35833,-0.11755 11,2.5l0.61803,0.26393c0,0 2.23607,1.11803 1.11803,3.3541z" fill="#eff4f4" stroke="none" stroke-width="0.5" stroke-linecap="butt"/><path d="M301.5753,229.84084c0.99082,0.05619 2.47376,-1.20803 3.34136,-0.97141c2.27397,0.62017 2.79078,1.52459 2.17061,3.79856c-0.83347,3.05606 -11.23688,2.18826 -12.27278,0.37543c-0.73685,-0.43488 -1.23117,-1.23698 -1.23117,-2.15454c0,-1.38071 1.11929,-2.5 2.5,-2.5c0.46872,0 0.90731,0.12899 1.28221,0.35341c1.04565,0.34217 2.32165,0.99146 4.20976,1.09855z" fill="#eff4f4" stroke="none" stroke-width="0.5" stroke-linecap="butt"/><path d="M305.13151,250.41245c0.51819,0.04496 2.84562,-0.51002 3.25825,-0.37248c2.34992,0.78331 2.58807,1.6391 1.95656,3.91312c-0.91224,3.28491 -9.6783,0.92319 -11.54696,0.7795c-1.02644,-0.07893 -2.12963,0.95214 -3.04936,0.48963c-1.06585,0 -1.97591,-0.667 -2.33555,-1.60637c-0.15953,-0.25211 -0.23036,-0.52739 -0.1636,-0.8278c-0.00057,-0.02188 -0.00085,-0.04382 -0.00085,-0.06584c0,-1.01183 0.60111,-1.88327 1.4657,-2.27668c2.57265,-1.82647 7.53444,-0.28306 10.41581,-0.03309z" fill="#eff4f4" stroke="none" stroke-width="0.5" stroke-linecap="butt"/><path d="M291.91666,256.88889v-30.5h9.5v30.5z" data-paper-data="{&quot;index&quot;:null}" fill="url(#color-2)" stroke="none" stroke-width="none" stroke-linecap="butt"/></g></g></svg>