<svg version="1.1" xmlns="http://www.w3.org/2000/svg" xmlns:xlink="http://www.w3.org/1999/xlink" width="45.84494" height="45.01604" viewBox="0,0,45.84494,45.01604"><defs><linearGradient x1="1219.65649" y1="628.77873" x2="224.26456" y2="628.77873" gradientUnits="userSpaceOnUse" id="color-1"><stop offset="0" stop-color="#ffffff"/><stop offset="1" stop-color="#ffffff" stop-opacity="0"/></linearGradient><radialGradient cx="246.6139" cy="172.68318" r="10.17544" gradientUnits="userSpaceOnUse" id="color-2"><stop offset="0" stop-color="#8c9aa1"/><stop offset="1" stop-color="#7f959e"/></radialGradient><linearGradient x1="249.66005" y1="180.2808" x2="250.84416" y2="180.2808" gradientUnits="userSpaceOnUse" id="color-3"><stop offset="0" stop-color="#898989"/><stop offset="1" stop-color="#a1a1a1"/></linearGradient><linearGradient x1="251.5102" y1="180.2808" x2="254.54436" y2="180.2808" gradientUnits="userSpaceOnUse" id="color-4"><stop offset="0" stop-color="#898989"/><stop offset="1" stop-color="#a1a1a1"/></linearGradient><linearGradient x1="256.54247" y1="180.31779" x2="258.31854" y2="180.31779" gradientUnits="userSpaceOnUse" id="color-5"><stop offset="0" stop-color="#a1a1a1"/><stop offset="1" stop-color="#898989"/></linearGradient><linearGradient x1="242.47111" y1="180.13257" x2="247.08715" y2="180.13257" gradientUnits="userSpaceOnUse" id="color-6"><stop offset="0" stop-color="#505a5e"/><stop offset="1" stop-color="#5d6b71"/></linearGradient><linearGradient x1="242.47111" y1="180.13257" x2="247.08718" y2="180.13257" gradientUnits="userSpaceOnUse" id="color-7"><stop offset="0" stop-color="#576266"/><stop offset="1" stop-color="#607178"/></linearGradient><linearGradient x1="259.97015" y1="180.00579" x2="259.97015" y2="182.20657" gradientUnits="userSpaceOnUse" id="color-8"><stop offset="0" stop-color="#b7b7b7" stop-opacity="0"/><stop offset="1" stop-color="#b7b7b7"/></linearGradient></defs><g transform="translate(-217.44393,-157.49198)"><g data-paper-data="{&quot;isPaintingLayer&quot;:true}" fill-rule="nonzero" stroke-linejoin="miter" stroke-miterlimit="10" stroke-dasharray="" stroke-dashoffset="0" style="mix-blend-mode: normal"><path d="M255.95071,195.65723c-9.16039,9.16037 -22.57776,9.10838 -31.68614,0c-9.10838,-9.10836 -9.07999,-22.41976 0,-31.49974c9.07999,-9.07999 22.80715,-8.69259 31.49974,0c8.69259,8.69259 9.34676,22.33936 0.18639,31.49974z" data-paper-data="{&quot;index&quot;:null}" fill="url(#color-1)" stroke="none" stroke-width="0" stroke-linecap="butt"/><path d="M247.85988,181.42789v-2.22012h11.10059v2.22012z" fill="#a1a1a1" stroke="#a1a1a1" stroke-width="0.5" stroke-linecap="butt"/><path d="M258.46656,182.01993v-3.47818h2.96016v3.47818z" fill="#a1a1a1" stroke="#a1a1a1" stroke-width="0.5" stroke-linecap="butt"/><path d="M243.73979,181.64986v-2.73815h7.62241v2.73815z" fill="#a1a1a1" stroke="#a1a1a1" stroke-width="0.5" stroke-linecap="butt"/><path d="M250.03882,180.11549c0,5.59349 -4.5557,10.12789 -10.17544,10.12789c-5.61974,0 -10.17544,-4.53441 -10.17544,-10.12789c0,-5.59349 4.55571,-10.12789 10.17544,-10.12789c5.61974,0 10.17544,4.53441 10.17544,10.12789z" fill="url(#color-2)" stroke="none" stroke-width="NaN" stroke-linecap="butt"/><path d="M249.66005,181.79788v-3.03416h1.18407v3.03416z" fill="url(#color-3)" stroke="none" stroke-width="0" stroke-linecap="butt"/><path d="M251.5102,181.50187v-2.44213h3.03416v2.44213z" fill="url(#color-4)" stroke="none" stroke-width="0" stroke-linecap="butt"/><path d="M256.54247,181.5759v-2.51614h1.7761v2.51614z" fill="url(#color-5)" stroke="none" stroke-width="0" stroke-linecap="butt"/><path d="M233.59128,187.67896c0,0 -3.73217,-2.33235 -3.7426,-7.75912c-0.01061,-5.51933 3.60404,-7.41401 3.60404,-7.41401l5.40413,2.90992v8.66047l-5.26557,3.60276z" fill="#768c94" stroke="#000000" stroke-width="0" stroke-linecap="round"/><path d="M248.37478,180.11549c0,4.7007 -3.81067,8.51136 -8.51136,8.51136c-4.7007,0 -8.51136,-3.81067 -8.51136,-8.51136c0,-4.7007 3.81067,-8.51136 8.51136,-8.51136c4.7007,0 8.51136,3.81067 8.51136,8.51136z" fill="none" stroke="#46f3ff" stroke-width="1.5" stroke-linecap="butt"/><path d="M245.72862,180.11549c0,3.23926 -2.62594,5.8652 -5.8652,5.8652c-3.23926,0 -5.8652,-2.62594 -5.8652,-5.8652c0,-3.23926 2.62594,-5.8652 5.8652,-5.8652c3.23926,0 5.8652,2.62594 5.8652,5.8652z" fill="none" stroke="#8da7b1" stroke-width="1.5" stroke-linecap="butt"/><path d="M252.86879,181.40137v-2.29135" fill="none" stroke="#a1a1a1" stroke-width="1.5" stroke-linecap="round"/><path d="M254.25425,179.10999v2.29136" fill="none" stroke="#a1a1a1" stroke-width="1.5" stroke-linecap="round"/><path d="M255.69305,181.40135v-2.29136" fill="none" stroke="#a1a1a1" stroke-width="1.5" stroke-linecap="round"/><path d="M257.23836,181.40135v-2.29136" fill="none" stroke="#a1a1a1" stroke-width="1.5" stroke-linecap="round"/><path d="M246.72749,181.45431l-4.25633,-0.42268v-1.97525l4.25633,-0.23979c0,0 0.35969,-0.16426 0.35969,1.25891c0,1.27331 -0.35969,1.37881 -0.35969,1.37881z" fill="url(#color-6)" stroke="url(#color-7)" stroke-width="0.5" stroke-linecap="round"/><path d="M258.33196,182.20657v-2.20078h3.27641v2.20078z" fill="url(#color-8)" stroke="none" stroke-width="0" stroke-linecap="butt"/><g fill="none" stroke-width="1.5" stroke-linecap="round"><path d="M262.49556,178.71535h-3.6807" stroke="#666666"/><path d="M258.81486,179.5814h3.6807" stroke="#797979"/><path d="M258.81486,180.31757h3.6807" stroke="#808080"/><path d="M258.81486,181.83315h3.6807" stroke="#666666"/><path d="M258.85817,181.18361h3.6807" stroke="#797979"/></g></g></g></svg>