<svg version="1.1" xmlns="http://www.w3.org/2000/svg" xmlns:xlink="http://www.w3.org/1999/xlink" width="29.85714" height="30.14287" viewBox="0,0,29.85714,30.14287"><g transform="translate(-225.87134,-121.55896)"><g data-paper-data="{&quot;isPaintingLayer&quot;:true}" fill-rule="nonzero" stroke-linejoin="miter" stroke-miterlimit="10" stroke-dasharray="" stroke-dashoffset="0" style="mix-blend-mode: normal"><path d="M253.22848,136.63039c0,6.94301 -5.56446,12.57144 -12.42857,12.57144c-6.86411,0 -12.42857,-5.62843 -12.42857,-12.57144c0,-6.94301 5.56446,-12.57143 12.42857,-12.57143c6.86411,0 12.42857,5.62842 12.42857,12.57143z" fill="none" stroke="#00daff" stroke-width="5" stroke-linecap="butt"/><path d="M253.22849,136.63039c0,6.94301 -5.56446,12.57144 -12.42857,12.57144c-6.86411,0 -12.42857,-5.62843 -12.42857,-12.57144c0,-6.94301 5.56446,-12.57143 12.42857,-12.57143c6.86411,0 12.42857,5.62842 12.42857,12.57143z" fill="#585858" stroke="#6a6a6a" stroke-width="0.5" stroke-linecap="butt"/><path d="M253.35349,135.00539c0,6.94301 -5.56446,12.57144 -12.42857,12.57144c-6.86411,0 -12.42857,-5.62843 -12.42857,-12.57144c0,-6.94301 5.56446,-12.57143 12.42857,-12.57143c6.86411,0 12.42857,5.62842 12.42857,12.57143z" fill="#717171" stroke="#7b7b7b" stroke-width="0.5" stroke-linecap="butt"/><g fill="none" stroke-width="1.5" stroke-linecap="round"><g><g><g><path d="M240.36859,129.11723h0.78174" stroke="#ffb300"/><path d="M242.6862,129.31986l0.75674,0.19607" stroke="#505050"/></g><g><path d="M245.29213,131.16031l-0.49314,-0.60656" stroke="#ffb300"/><path d="M246.42901,133.19074l-0.32524,-0.71086" stroke="#505050"/></g></g><g data-paper-data="{&quot;index&quot;:null}"><g stroke="#ffb300"><path d="M246.62638,135.71613l-0.02128,-0.78143"/><path d="M246.46564,137.25696l-0.1754,0.76182"/></g><g><path d="M244.69677,139.91199l0.59292,-0.50946" stroke="#505050"/><path d="M243.39978,140.75925l-0.70175,0.34447" stroke="#ffb300"/></g></g></g><g data-paper-data="{&quot;index&quot;:null}"><g><g><path d="M241.11413,141.4044h-0.78174" stroke="#ffb300"/><path d="M238.79654,141.20177l-0.75675,-0.19606" stroke="#505050"/></g><g><path d="M236.19059,139.36132l0.49314,0.60656" stroke="#ffb300"/><path d="M235.37897,138.04171l-0.32523,-0.71086" stroke="#505050"/></g></g><g data-paper-data="{&quot;index&quot;:null}"><g stroke="#ffb300"><path d="M234.87762,135.58693l-0.02128,-0.78144"/><path d="M235.01708,133.26466l0.1754,-0.76182"/></g><g><path d="M236.78596,130.60962l-0.59292,0.50946" stroke="#505050"/><path d="M238.08294,129.76238l0.70175,-0.34447" stroke="#ffb300"/></g></g></g></g><path d="M244.13028,135.22979c0,2.00203 -1.567,3.625 -3.5,3.625c-1.933,0 -3.5,-1.62297 -3.5,-3.625c0,-2.00203 1.567,-3.625 3.5,-3.625c1.933,0 3.5,1.62297 3.5,3.625z" fill="#cab4b4" stroke="none" stroke-width="1.5" stroke-linecap="butt"/></g></g></svg>