<svg version="1.1" xmlns="http://www.w3.org/2000/svg" xmlns:xlink="http://www.w3.org/1999/xlink" width="37.68115" height="182.77081" viewBox="0,0,37.68115,182.77081"><defs><linearGradient x1="130.12527" y1="173.17135" x2="197.83691" y2="173.17135" gradientUnits="userSpaceOnUse" id="color-1"><stop offset="0" stop-color="#da0000"/><stop offset="1" stop-color="#b80000"/></linearGradient><linearGradient x1="153.50694" y1="173.14584" x2="162.17361" y2="173.14584" gradientUnits="userSpaceOnUse" id="color-2"><stop offset="0" stop-color="#e1e1e1"/><stop offset="1" stop-color="#ffffff"/></linearGradient><linearGradient x1="319.34028" y1="173.14584" x2="328.00695" y2="173.14584" gradientUnits="userSpaceOnUse" id="color-3"><stop offset="0" stop-color="#e1e1e1"/><stop offset="1" stop-color="#ffffff"/></linearGradient></defs><g transform="translate(-128.15572,-85.14584)"><g data-paper-data="{&quot;isPaintingLayer&quot;:true}" fill-rule="nonzero" stroke-linejoin="miter" stroke-miterlimit="10" stroke-dasharray="" stroke-dashoffset="0" style="mix-blend-mode: normal"><path d="M140.6499,267.91664l-10.65552,-11.46057c0,0 5.0285,-15.37295 5.05199,-28.03997c0.01681,-9.06276 -0.53051,-26.30922 -1.25985,-45.11829c-1.41341,-36.45031 -3.51045,-78.76902 -3.51045,-78.76902l13.98509,-11.9588l21.44482,-0.144v164.97275l-8.86098,10.51791z" data-paper-data="{&quot;index&quot;:null}" fill="#ba0000" stroke="none" stroke-width="0" stroke-linecap="butt"/><path d="M140.78079,260.91667l-10.65552,-11.46056c0,0 3.5134,-6.72645 3.52696,-14.04074c0.0153,-8.24927 -3.91753,-28.00812 -4.47169,-50.98608c-0.13045,-5.40894 2.79752,-10.45947 2.7704,-16.01227c-0.03621,-7.41542 -3.62588,-14.35716 -3.74481,-21.48404c-0.44482,-26.654 2.20084,-49.40415 2.20084,-49.40415l13.98508,-11.9588l21.44483,-0.144v164.97275l-8.86098,10.51791c0,0 0.63983,-2.00001 -7.72585,-2.00001c-3.86266,0 -8.46925,2 -8.46925,2z" fill="url(#color-1)" stroke="none" stroke-width="0" stroke-linecap="butt"/><path d="M152.5,223.33333c-2.5,0 -2.5,-2.5 -2.5,-2.5l0.01931,-1.68991c-0.31589,-2.52709 -0.2287,-5.13226 -0.91204,-7.58563c-0.77807,-2.79349 -2.79734,-5.0928 -3.91697,-7.76775c-1.52212,-3.63656 -3.65384,-8.62817 -4.15802,-12.55625c-0.63108,-4.91679 -0.03228,-10.43796 -0.03228,-15.40046c0,0 0,-2.5 2.5,-2.5c2.5,0 2.5,2.5 2.5,2.5c0,4.70597 -0.59668,9.93171 -0.03228,14.59954c0.85999,7.11253 6.04567,13.0292 7.92501,19.676c0.07703,0.27244 0.91567,7.03603 1.08796,8.41437l0.01931,2.31009c0,0 0,2.5 -2.5,2.5z" fill="#be0000" stroke="none" stroke-width="0.5" stroke-linecap="butt"/><path d="M146.91105,161.36734c2.46598,0.411 2.05499,2.87698 2.05499,2.87698l-0.17801,1.06803c-1.10874,6.62106 -2.01609,13.71975 -1.78929,20.44004c0.37264,11.04191 1.99664,22.03409 2.00131,33.08094c0,0 0,2.5 -2.5,2.5c-2.5,0 -2.5,-2.5 -2.5,-2.5c0.00485,-10.9912 -1.6483,-21.93139 -1.99869,-32.91906c-0.22501,-7.05608 0.70121,-14.47182 1.8547,-21.4239l0.17801,-1.06803c0,0 0.411,-2.46598 2.87698,-2.05499z" fill="#be0000" stroke="none" stroke-width="0.5" stroke-linecap="butt"/><g stroke="none" stroke-width="0" stroke-linecap="butt"><g><path d="M162.17361,261.14585h-8.66667l0,-176h8.66667z" fill="url(#color-2)"/><path d="M162.3125,267.85419h-9v-6.75h9z" fill="#bfbfbf"/></g><g><path d="" fill="url(#color-3)"/><path d="" fill="#bfbfbf"/></g></g><g><path d="M148.77918,134.98646v-26.66666" fill="none" stroke="#6d6d6d" stroke-width="25" stroke-linecap="round"/><path d="M148.77918,105.65315v26.66666" fill="none" stroke="#808080" stroke-width="25" stroke-linecap="round"/><path d="M145.35214,136.51253c-1.6792,1.8521 -3.53131,0.17291 -3.53131,0.17291l-1.96479,-2.50914c-1.27476,-7.72649 -0.85601,-15.52271 -0.85601,-23.34297c0,0 0,-2.5 2.5,-2.5c2.5,0 2.5,2.5 2.5,2.5c0,7.53012 -0.46461,15.08696 0.78798,22.52097l0.39122,-0.37308c0,0 1.8521,1.6792 0.1729,3.5313z" fill="#797979" stroke="none" stroke-width="0.5" stroke-linecap="butt"/><path d="M152.5,125.33333c-2.5,0 -2.5,-2.5 -2.5,-2.5v-3c0.00434,-4.63159 0.4455,-8.71967 1.01931,-13.31009c0,0 0.31008,-2.48069 2.79078,-2.1706c2.48069,0.31009 2.17061,2.79078 2.17061,2.79078c-0.55027,4.40214 -0.98512,8.25436 -0.98069,12.68992v3c0,0 0,2.5 -2.5,2.5z" fill="#797979" stroke="none" stroke-width="0.5" stroke-linecap="butt"/><path d="M153.64693,110.40039c0.0861,-0.11473 0.17281,-0.22898 0.26004,-0.34283c-0.24229,0.10432 -0.48074,0.21519 -0.71063,0.3402h0.38306c0,0 0.02426,0 0.06752,0.00263zM144.00026,113.87376c-0.12166,-0.07915 -0.23694,-0.16945 -0.34498,-0.27244c0.00716,0.04859 0.01881,0.09278 0.03539,0.132c0.05203,0.12304 0.16761,0.1524 0.30959,0.14044zM141.59058,106.98344c-1.12304,-2.97261 -1.57518,-9.59785 4.83252,-6.95925c0.31033,0.12779 0.5848,0.31074 0.82645,0.5364c0.19712,-0.06063 0.40198,-0.10871 0.61207,-0.14447c1.07422,-1.0341 2.48125,-1.6845 4.32362,-1.56615c4.2624,0.27382 3.82193,3.57942 2.63005,6.14312l3.58543,-1.79272c0.28696,-0.15108 0.61382,-0.23658 0.96065,-0.23658c1.14046,0 2.06499,0.92453 2.06499,2.06499c0,0.32168 -0.07356,0.62619 -0.20477,0.89761l-1.5389,3.37185l-0.06382,-0.02913l-0.05021,0.24436c-0.51942,0.668 -5.33862,6.95317 -5.86058,7.24044c-1.44362,0.79454 -3.26224,0.47192 -4.89969,0.6566c-2.02406,0.22828 -6.82428,1.29168 -8.46815,-1.26237c-1.40708,-2.18615 -0.19631,-6.21684 1.25032,-9.16472zM149.90855,109.22967c-0.22576,0.05459 -0.4566,0.10338 -0.69097,0.14606c0.04875,0.05562 0.12662,0.08531 0.24139,0.08211c0.19723,-0.00549 0.34014,-0.091 0.44959,-0.22817z" fill="#6a6a6a" stroke="none" stroke-width="0.5" stroke-linecap="butt"/><path d="M149.64628,109.82966l-0.14628,1.00367c-1.62656,-0.05329 -3.50808,0.71605 -4.87968,-0.15988c-0.25171,-0.16075 -0.47758,-0.34766 -0.68332,-0.55496l-0.08385,0.09577l-1.93916,-1.69784c-0.52907,-0.4584 -0.86374,-1.13521 -0.86374,-1.8902c0,-1.38071 1.11929,-2.5 2.5,-2.5c0.1348,0 0.26711,0.01067 0.39613,0.03121l4.3777,0.62539c0.21619,-0.0115 0.42235,0.01162 0.61408,0.05622c0.85394,-0.0019 1.70789,-0.00381 2.56183,-0.00571c0,0 2.5,0 2.5,2.5c0,2.5 -2.5,2.5 -2.5,2.5c-0.61791,-0.00122 -1.23581,-0.00245 -1.85372,-0.00367z" fill="#5d5d5d" stroke="none" stroke-width="0.5" stroke-linecap="butt"/></g></g></g></svg>