<svg version="1.1" xmlns="http://www.w3.org/2000/svg" xmlns:xlink="http://www.w3.org/1999/xlink" width="285.21838" height="197.25447" viewBox="0,0,285.21838,197.25447"><defs><linearGradient x1="347.42004" y1="88.31959" x2="347.42004" y2="117.95266" gradientUnits="userSpaceOnUse" id="color-1"><stop offset="0" stop-color="#191919"/><stop offset="1" stop-color="#282828"/></linearGradient><linearGradient x1="347.42004" y1="163.32826" x2="347.42004" y2="192.96137" gradientUnits="userSpaceOnUse" id="color-2"><stop offset="0" stop-color="#191919"/><stop offset="1" stop-color="#282828"/></linearGradient><linearGradient x1="347.42004" y1="221.66839" x2="347.42004" y2="192.03533" gradientUnits="userSpaceOnUse" id="color-3"><stop offset="0" stop-color="#191919"/><stop offset="1" stop-color="#282828"/></linearGradient><linearGradient x1="347.14516" y1="162.94243" x2="347.14516" y2="190.26043" gradientUnits="userSpaceOnUse" id="color-4"><stop offset="0" stop-color="#0f0f0f"/><stop offset="1" stop-color="#0f0f0f" stop-opacity="0"/></linearGradient><linearGradient x1="347.14516" y1="205.98379" x2="347.14516" y2="227.28254" gradientUnits="userSpaceOnUse" id="color-5"><stop offset="0" stop-color="#111111" stop-opacity="0"/><stop offset="1" stop-color="#111111"/></linearGradient><linearGradient x1="347.42004" y1="220.66839" x2="347.42004" y2="250.30145" gradientUnits="userSpaceOnUse" id="color-6"><stop offset="0" stop-color="#191919"/><stop offset="1" stop-color="#282828"/></linearGradient><linearGradient x1="347.42004" y1="279.00847" x2="347.42004" y2="249.37543" gradientUnits="userSpaceOnUse" id="color-7"><stop offset="0" stop-color="#191919"/><stop offset="1" stop-color="#282828"/></linearGradient><linearGradient x1="260.37284" y1="94.73722" x2="260.37284" y2="124.3703" gradientUnits="userSpaceOnUse" id="color-8"><stop offset="0" stop-color="#191919"/><stop offset="1" stop-color="#282828"/></linearGradient><linearGradient x1="260.37284" y1="153.07727" x2="260.37284" y2="123.44426" gradientUnits="userSpaceOnUse" id="color-9"><stop offset="0" stop-color="#191919"/><stop offset="1" stop-color="#282828"/></linearGradient><linearGradient x1="260.37284" y1="152.15125" x2="260.37284" y2="181.78436" gradientUnits="userSpaceOnUse" id="color-10"><stop offset="0" stop-color="#191919"/><stop offset="1" stop-color="#282828"/></linearGradient><linearGradient x1="260.37284" y1="210.49138" x2="260.37284" y2="180.85832" gradientUnits="userSpaceOnUse" id="color-11"><stop offset="0" stop-color="#191919"/><stop offset="1" stop-color="#282828"/></linearGradient><linearGradient x1="260.24978" y1="188.80681" x2="260.24978" y2="210.10555" gradientUnits="userSpaceOnUse" id="color-12"><stop offset="0" stop-color="#111111" stop-opacity="0"/><stop offset="1" stop-color="#111111"/></linearGradient><linearGradient x1="260.37284" y1="169.74593" x2="260.37284" y2="199.37901" gradientUnits="userSpaceOnUse" id="color-13"><stop offset="0" stop-color="#191919"/><stop offset="1" stop-color="#282828"/></linearGradient><linearGradient x1="260.37284" y1="228.08603" x2="260.37284" y2="198.45297" gradientUnits="userSpaceOnUse" id="color-14"><stop offset="0" stop-color="#191919"/><stop offset="1" stop-color="#282828"/></linearGradient><linearGradient x1="260.37284" y1="227.15999" x2="260.37284" y2="256.79303" gradientUnits="userSpaceOnUse" id="color-15"><stop offset="0" stop-color="#191919"/><stop offset="1" stop-color="#282828"/></linearGradient><linearGradient x1="260.37284" y1="285.50005" x2="260.37284" y2="255.86703" gradientUnits="userSpaceOnUse" id="color-16"><stop offset="0" stop-color="#191919"/><stop offset="1" stop-color="#282828"/></linearGradient><linearGradient x1="218.70139" y1="94.72786" x2="218.70139" y2="124.36094" gradientUnits="userSpaceOnUse" id="color-17"><stop offset="0" stop-color="#191919"/><stop offset="1" stop-color="#282828"/></linearGradient><linearGradient x1="218.70139" y1="153.06788" x2="218.70139" y2="123.43491" gradientUnits="userSpaceOnUse" id="color-18"><stop offset="0" stop-color="#191919"/><stop offset="1" stop-color="#282828"/></linearGradient><linearGradient x1="218.70139" y1="152.14184" x2="218.70139" y2="181.77502" gradientUnits="userSpaceOnUse" id="color-19"><stop offset="0" stop-color="#191919"/><stop offset="1" stop-color="#282828"/></linearGradient><linearGradient x1="218.70139" y1="210.48204" x2="218.70139" y2="180.84898" gradientUnits="userSpaceOnUse" id="color-20"><stop offset="0" stop-color="#191919"/><stop offset="1" stop-color="#282828"/></linearGradient><linearGradient x1="218.5784" y1="188.79742" x2="218.5784" y2="210.09621" gradientUnits="userSpaceOnUse" id="color-21"><stop offset="0" stop-color="#111111" stop-opacity="0"/><stop offset="1" stop-color="#111111"/></linearGradient><linearGradient x1="218.70139" y1="169.73656" x2="218.70139" y2="199.36962" gradientUnits="userSpaceOnUse" id="color-22"><stop offset="0" stop-color="#191919"/><stop offset="1" stop-color="#282828"/></linearGradient><linearGradient x1="218.70139" y1="228.07669" x2="218.70139" y2="198.44358" gradientUnits="userSpaceOnUse" id="color-23"><stop offset="0" stop-color="#191919"/><stop offset="1" stop-color="#282828"/></linearGradient><linearGradient x1="218.70139" y1="227.15065" x2="218.70139" y2="256.78362" gradientUnits="userSpaceOnUse" id="color-24"><stop offset="0" stop-color="#191919"/><stop offset="1" stop-color="#282828"/></linearGradient><linearGradient x1="218.70139" y1="285.49064" x2="218.70139" y2="255.85767" gradientUnits="userSpaceOnUse" id="color-25"><stop offset="0" stop-color="#191919"/><stop offset="1" stop-color="#282828"/></linearGradient><linearGradient x1="132.58015" y1="88.24562" x2="132.58015" y2="117.87869" gradientUnits="userSpaceOnUse" id="color-26"><stop offset="0" stop-color="#191919"/><stop offset="1" stop-color="#282828"/></linearGradient><linearGradient x1="132.58015" y1="146.58569" x2="132.58015" y2="116.95266" gradientUnits="userSpaceOnUse" id="color-27"><stop offset="0" stop-color="#191919"/><stop offset="1" stop-color="#282828"/></linearGradient><linearGradient x1="132.58015" y1="145.65965" x2="132.58015" y2="175.29276" gradientUnits="userSpaceOnUse" id="color-28"><stop offset="0" stop-color="#191919"/><stop offset="1" stop-color="#282828"/></linearGradient><linearGradient x1="132.58015" y1="203.99978" x2="132.58015" y2="174.36672" gradientUnits="userSpaceOnUse" id="color-29"><stop offset="0" stop-color="#191919"/><stop offset="1" stop-color="#282828"/></linearGradient><linearGradient x1="132.30525" y1="182.31518" x2="132.30525" y2="203.61395" gradientUnits="userSpaceOnUse" id="color-30"><stop offset="0" stop-color="#111111" stop-opacity="0"/><stop offset="1" stop-color="#111111"/></linearGradient><linearGradient x1="132.58015" y1="169.75435" x2="132.58015" y2="192.88741" gradientUnits="userSpaceOnUse" id="color-31"><stop offset="0" stop-color="#191919"/><stop offset="1" stop-color="#282828"/></linearGradient><linearGradient x1="132.58015" y1="221.59443" x2="132.58015" y2="191.96137" gradientUnits="userSpaceOnUse" id="color-32"><stop offset="0" stop-color="#191919"/><stop offset="1" stop-color="#282828"/></linearGradient><linearGradient x1="132.30525" y1="205.90981" x2="132.30525" y2="227.20858" gradientUnits="userSpaceOnUse" id="color-33"><stop offset="0" stop-color="#111111" stop-opacity="0"/><stop offset="1" stop-color="#111111"/></linearGradient><linearGradient x1="132.58015" y1="220.66839" x2="132.58015" y2="250.30145" gradientUnits="userSpaceOnUse" id="color-34"><stop offset="0" stop-color="#191919"/><stop offset="1" stop-color="#282828"/></linearGradient><linearGradient x1="132.58015" y1="279.00847" x2="132.58015" y2="249.37543" gradientUnits="userSpaceOnUse" id="color-35"><stop offset="0" stop-color="#191919"/><stop offset="1" stop-color="#282828"/></linearGradient><linearGradient x1="347.42004" y1="146.65965" x2="347.42004" y2="117.02664" gradientUnits="userSpaceOnUse" id="color-36"><stop offset="0" stop-color="#191919"/><stop offset="1" stop-color="#282828"/></linearGradient><linearGradient x1="347.42004" y1="145.73361" x2="347.42004" y2="175.36672" gradientUnits="userSpaceOnUse" id="color-37"><stop offset="0" stop-color="#191919"/><stop offset="1" stop-color="#282828"/></linearGradient><linearGradient x1="347.42004" y1="204.07376" x2="347.42004" y2="174.44068" gradientUnits="userSpaceOnUse" id="color-38"><stop offset="0" stop-color="#191919"/><stop offset="1" stop-color="#282828"/></linearGradient><linearGradient x1="133" y1="88.33337" x2="133" y2="146.33335" gradientUnits="userSpaceOnUse" id="color-39"><stop offset="0" stop-color="#0e0e0e"/><stop offset="1" stop-color="#0e0e0e" stop-opacity="0"/></linearGradient><linearGradient x1="348.00005" y1="88.33337" x2="348.00005" y2="146.33335" gradientUnits="userSpaceOnUse" id="color-40"><stop offset="0" stop-color="#0e0e0e"/><stop offset="1" stop-color="#0e0e0e" stop-opacity="0"/></linearGradient><linearGradient x1="133" y1="278.33333" x2="133" y2="220.33336" gradientUnits="userSpaceOnUse" id="color-41"><stop offset="0" stop-color="#0e0e0e"/><stop offset="1" stop-color="#0e0e0e" stop-opacity="0"/></linearGradient><linearGradient x1="347.00005" y1="279.33333" x2="347.00005" y2="221.33336" gradientUnits="userSpaceOnUse" id="color-42"><stop offset="0" stop-color="#0e0e0e"/><stop offset="1" stop-color="#0e0e0e" stop-opacity="0"/></linearGradient></defs><g transform="translate(-97.3909,-88.24562)"><g data-paper-data="{&quot;isPaintingLayer&quot;:true}" fill-rule="nonzero" stroke="none" stroke-width="0" stroke-linecap="butt" stroke-linejoin="miter" stroke-miterlimit="10" stroke-dasharray="" stroke-dashoffset="0" style="mix-blend-mode: normal"><path d="M312.23064,98.21437v-9.26033h70.37854v9.26033z" fill="#131313"/><path d="M312.23064,117.95266v-29.63306h70.37854v29.63307z" fill="url(#color-1)"/><path d="M312.23064,192.96137v-29.63307h70.37854v29.63307z" fill="url(#color-2)"/><path d="M382.60929,192.03533v29.63307h-70.37853v-29.63307z" data-paper-data="{&quot;index&quot;:null}" fill="url(#color-3)"/><path d="M312.23064,197.66873v-8.3343h69.82871v8.3343z" fill="#1a1a1a"/><path d="M312.23064,181.46315v-10.18637h69.82871v10.18637z" fill="#131313"/><path d="M312.23064,213.87428v-9.26033h70.37854v9.26033z" fill="#131313"/><path d="M312.23064,190.26043v-27.31798h69.82871v27.31798z" fill="url(#color-4)"/><path d="M312.23064,227.28254v-21.29877h69.82871v21.29877z" fill="url(#color-5)"/><path d="M312.23064,250.30145v-29.63307h70.37854v29.63307z" fill="url(#color-6)"/><path d="M382.60929,249.37543v29.63307h-70.37853v-29.63307z" data-paper-data="{&quot;index&quot;:null}" fill="url(#color-7)"/><path d="M312.23064,261.00874v-8.3343h69.82871v8.3343z" fill="#1a1a1a"/><path d="M312.23064,245.63653v-10.18637h69.82871v10.18637z" fill="#131313"/><path d="M244.63033,124.3703v-29.63306h31.48513v29.63307z" fill="url(#color-8)"/><path d="M276.11537,123.44426v29.63306h-31.48513v-29.63306z" data-paper-data="{&quot;index&quot;:null}" fill="url(#color-9)"/><path d="M244.63033,136.07763v-8.3343h31.23916v8.3343z" fill="#1a1a1a"/><path d="M244.63033,119.87205v-10.18636h31.23916v10.18636z" fill="#131313"/><path d="M244.63033,152.28314v-9.26033h31.48513v9.26033z" fill="#131313"/><path d="M244.63033,181.78436v-29.63307h31.48513v29.63307z" fill="url(#color-10)"/><path d="M276.11537,180.85832v29.63307h-31.48513v-29.63307z" data-paper-data="{&quot;index&quot;:null}" fill="url(#color-11)"/><path d="M244.63033,186.49172v-8.3343h31.23916v8.3343z" fill="#1a1a1a"/><path d="M244.63033,202.6973v-9.26034h31.48513v9.26034z" fill="#131313"/><path d="M244.63033,210.10555v-21.29877h31.23916v21.29877z" fill="url(#color-12)"/><path d="M244.63033,199.37901v-29.63307h31.48513v29.63307z" fill="url(#color-13)"/><path d="M276.11537,198.45297v29.63306h-31.48513v-29.63306z" data-paper-data="{&quot;index&quot;:null}" fill="url(#color-14)"/><path d="M244.63033,211.08635v-8.3343h31.23916v8.3343z" fill="#131313"/><path d="M244.63033,194.88077v-10.18636h31.23916v10.18636z" fill="#131313"/><path d="M244.63033,227.2919v-9.26033h31.48513v9.26033z" fill="#131313"/><path d="M244.63033,256.79303v-29.63307h31.48513v29.63307z" fill="url(#color-15)"/><path d="M276.11537,255.86703v29.63306h-31.48513v-29.63306z" data-paper-data="{&quot;index&quot;:null}" fill="url(#color-16)"/><path d="M244.63033,268.50032v-8.3343h31.23916v8.3343z" fill="#1a1a1a"/><path d="M244.63033,252.29483v-10.18636h31.23916v10.18636z" fill="#131313"/><path d="M244.63033,105.70595v-9.26033h31.48513v9.26033z" fill="#131313"/><path d="M202.95882,124.36094v-29.63307h31.48514v29.63307z" fill="url(#color-17)"/><path d="M234.44395,123.43491v29.63307h-31.48514v-29.63306z" data-paper-data="{&quot;index&quot;:null}" fill="url(#color-18)"/><path d="M202.95882,136.06824v-8.3343h31.23916v8.3343z" fill="#1a1a1a"/><path d="M202.95882,119.86269v-10.18636h31.23916v10.18636z" fill="#131313"/><path d="M202.95882,152.27382v-9.26033h31.48514v9.26033z" fill="#131313"/><path d="M202.95882,181.77502v-29.63306h31.48514v29.63306z" fill="url(#color-19)"/><path d="M234.44395,180.84898v29.63306h-31.48514v-29.63306z" data-paper-data="{&quot;index&quot;:null}" fill="url(#color-20)"/><path d="M202.95882,186.48233v-8.3343h31.23916v8.3343z" fill="#1a1a1a"/><path d="M202.95882,202.68791v-9.26033h31.48514v9.26033z" fill="#131313"/><path d="M202.95882,210.09621v-21.29877h31.23916v21.29877z" fill="url(#color-21)"/><path d="M202.95882,199.36962v-29.63307h31.48514v29.63307z" fill="url(#color-22)"/><path d="M234.44395,198.44358v29.63307h-31.48514v-29.63307z" data-paper-data="{&quot;index&quot;:null}" fill="url(#color-23)"/><path d="M202.95882,211.07696v-8.3343h31.23916v8.3343z" fill="#131313"/><path d="M202.95882,194.87138v-10.18637h31.23916v10.18637z" fill="#131313"/><path d="M202.95882,227.28254v-9.26033h31.48514v9.26033z" fill="#131313"/><path d="M202.95882,256.78362v-29.63307h31.48514v29.63307z" fill="url(#color-24)"/><path d="M234.44395,255.85767v29.63307h-31.48514v-29.63307z" data-paper-data="{&quot;index&quot;:null}" fill="url(#color-25)"/><path d="M202.95882,268.491v-8.3343h31.23916v8.3343z" fill="#1a1a1a"/><path d="M202.95882,252.28544v-10.18636h31.23916v10.18636z" fill="#131313"/><path d="M202.95882,104.69664v-9.26033h31.48514v9.26033z" fill="#131313"/><path d="M97.39104,117.87869v-29.63307h70.37853v29.63307z" fill="url(#color-26)"/><path d="M167.76943,116.95266v29.63307h-70.37853v-29.63307z" data-paper-data="{&quot;index&quot;:null}" fill="url(#color-27)"/><path d="M97.39104,128.58603v-8.3343h69.8287v8.3343z" fill="#1a1a1a"/><path d="M97.39104,112.38046v-10.18637h69.8287v10.18637z" fill="#131313"/><path d="M97.39104,144.79161v-9.26033h70.37853v9.26033z" fill="#131313"/><path d="M97.39104,175.29276v-29.63307h70.37853v29.63307z" fill="url(#color-28)"/><path d="M167.76943,174.36672v29.63306h-70.37853v-29.63306z" data-paper-data="{&quot;index&quot;:null}" fill="url(#color-29)"/><path d="M97.39104,180.00009v-8.3343h69.8287v8.3343z" fill="#1a1a1a"/><path d="M97.39104,169.79447v-10.18636h69.8287v10.18636z" fill="#131313"/><path d="M97.39104,196.20572v-9.26034h70.37853v9.26034z" fill="#131313"/><path d="M97.39104,203.61395v-21.29877h69.8287v21.29877z" fill="url(#color-30)"/><path d="M97.39104,192.88741v-23.13307h70.37853v23.13307z" fill="url(#color-31)"/><path d="M167.76943,191.96137v29.63306h-70.37853v-29.63306z" data-paper-data="{&quot;index&quot;:null}" fill="url(#color-32)"/><path d="M97.39104,203.59477v-8.3343h69.8287v8.3343z" fill="#1a1a1a"/><path d="M97.39104,187.38914v-10.18636h69.8287v10.18636z" fill="#131313"/><path d="M97.39104,213.80032v-9.26033h70.37853v9.26033z" fill="#131313"/><path d="M97.39104,227.20858v-21.29877h69.8287v21.29877z" fill="url(#color-33)"/><path d="M97.39104,250.30145v-29.63307h70.37853v29.63307z" fill="url(#color-34)"/><path d="M167.76943,249.37543v29.63307h-70.37853v-29.63307z" data-paper-data="{&quot;index&quot;:null}" fill="url(#color-35)"/><path d="M97.39104,261.00874v-8.3343h69.8287v8.3343z" fill="#1a1a1a"/><path d="M97.39104,244.80323v-10.18637h69.8287v10.18637z" fill="#131313"/><path d="M97.39104,98.21437v-9.26033h70.37853v9.26033z" fill="#131313"/><path d="M382.60929,117.02664v29.63307h-70.37853v-29.63306z" data-paper-data="{&quot;index&quot;:null}" fill="url(#color-36)"/><path d="M312.23064,128.65999v-8.3343h69.82871v8.3343z" fill="#1a1a1a"/><path d="M312.23064,112.45443v-10.18636h69.82871v10.18636z" fill="#131313"/><path d="M312.23064,144.86557v-9.26033h70.37854v9.26033z" fill="#131313"/><path d="M312.23064,175.36672v-29.63307h70.37854v29.63307z" fill="url(#color-37)"/><path d="M382.60929,174.44068v29.63307h-70.37853v-29.63307z" data-paper-data="{&quot;index&quot;:null}" fill="url(#color-38)"/><path d="M312.23064,186.0741v-8.3343h69.82871v8.3343z" fill="#131313"/><path d="M312.23064,169.86843v-10.18637h69.82871v10.18637z" fill="#131313"/><path d="M312.23064,202.27968v-9.26033h70.37854v9.26033z" fill="#131313"/><path d="M312.23064,98.45443v-10.18636h69.82871v10.18636z" fill="#131313"/><path d="M202.95882,177.27675v-10.18636h31.23916v10.18636z" fill="#131313"/><path d="M244.63033,177.28614v-10.18637h31.23916v10.18637z" fill="#131313"/><path d="M98.50007,146.33335v-58h69v58z" fill="url(#color-39)"/><path d="M313.50005,146.33335v-58h69v58z" fill="url(#color-40)"/><path d="M167.50005,220.33336v58h-69v-58z" data-paper-data="{&quot;index&quot;:null}" fill="url(#color-41)"/><path d="M381.50006,221.33336v58h-69v-58z" data-paper-data="{&quot;index&quot;:null}" fill="url(#color-42)"/></g></g></svg>