<svg version="1.1" xmlns="http://www.w3.org/2000/svg" xmlns:xlink="http://www.w3.org/1999/xlink" width="52.02423" height="14.84723" viewBox="0,0,52.02423,14.84723"><defs><linearGradient x1="265.52968" y1="179.89819" x2="269.87017" y2="179.89819" gradientUnits="userSpaceOnUse" id="color-1"><stop offset="0" stop-color="#40484d" stop-opacity="0"/><stop offset="1" stop-color="#40484d"/></linearGradient><linearGradient x1="230.967" y1="180.21653" x2="232.21734" y2="180.21653" gradientUnits="userSpaceOnUse" id="color-2"><stop offset="0" stop-color="#5d676e" stop-opacity="0"/><stop offset="1" stop-color="#5d676e"/></linearGradient></defs><g transform="translate(-229.40971,-172.5764)"><g data-paper-data="{&quot;isPaintingLayer&quot;:true}" fill-rule="nonzero" stroke-linejoin="miter" stroke-miterlimit="10" stroke-dasharray="" stroke-dashoffset="0" style="mix-blend-mode: normal"><g><g><path d="M244.31083,182.61101v-5.4256h27.12804v5.4256z" fill="#4c565c" stroke="#4c565c" stroke-width="0.5" stroke-linecap="butt"/><path d="M270.23185,184.05785v-8.50012h7.23414v8.50012z" fill="#a1a1a1" stroke="#4c565c" stroke-width="0.5" stroke-linecap="butt"/><path d="M248.7103,183.51527v-7.41501h2.89367v7.41501z" fill="#69757e" stroke="none" stroke-width="0" stroke-linecap="butt"/><path d="M253.23164,182.79184v-5.96816h7.41501v5.96816z" fill="#4c565c" stroke="none" stroke-width="0" stroke-linecap="butt"/><path d="M265.52968,182.97269v-6.14901h4.34049v6.14901z" fill="url(#color-1)" stroke="none" stroke-width="0" stroke-linecap="butt"/><path d="M256.55188,176.94651v5.59969" fill="none" stroke="#394045" stroke-width="2.5" stroke-linecap="round"/><path d="M259.93772,176.94648v5.59971" fill="none" stroke="#394045" stroke-width="2.5" stroke-linecap="round"/><path d="M263.45385,182.54619v-5.59971" fill="none" stroke="#394045" stroke-width="2.5" stroke-linecap="round"/><path d="M267.2304,176.94648v5.59971" fill="none" stroke="#394045" stroke-width="2.5" stroke-linecap="round"/><path d="M269.90288,184.51401v-5.37834h8.00701v5.37834z" fill="#4c565c" stroke="none" stroke-width="0" stroke-linecap="butt"/><g fill="none" stroke-width="2.5" stroke-linecap="round"><path d="M271.08308,175.98206h8.99503" stroke="#444d53"/><path d="M280.07811,178.09854h-8.99503" stroke="#4c565c"/><path d="M271.08308,179.89755h8.99503" stroke="#535e64"/><path d="M280.07811,183.60138h-8.99503" stroke="#444d53"/><path d="M280.18394,182.01402h-8.99503" stroke="#4c565c"/></g></g><g><g><path d="M232.94108,184.42313l-0.93753,-0.70316l-2.34384,-1.64069v-3.86733l2.92981,-1.87507z" fill="#7a8791" stroke="#7a8791" stroke-width="0.5" stroke-linecap="round"/><path d="M232.21734,184.1741l-1.25034,-0.82533v-6.28324l1.2465,-0.80656z" fill="url(#color-2)" stroke="none" stroke-width="0" stroke-linecap="butt"/></g><g stroke-width="0"><path d="M232.23152,187.42363v-14.73333h18.04167v14.73333z" fill="#707c86" stroke="none" stroke-linecap="butt"/><path d="M243.62277,177.40696l3.35876,-3.35876l3.35876,3.35876l-3.35876,3.35876z" fill="#707c86" stroke="none" stroke-linecap="butt"/><path d="M232.29402,186.06109v-12h14.66667v12z" fill="#8898a4" stroke="none" stroke-linecap="butt"/><path d="M232.25236,187.39307v-1.41667h14.75l3.25,1.41667z" fill="#7a8791" stroke="none" stroke-linecap="butt"/><path d="M250.25236,172.5764l-3.25,1.41667h-14.75v-1.41667z" data-paper-data="{&quot;index&quot;:null}" fill="#7a8791" stroke="none" stroke-linecap="butt"/><g><path d="M232.25235,184.82759v-2.25h14.75v2.25z" fill="#e88b00" stroke="none" stroke-linecap="butt"/><path d="M246.91902,184.74425v-2.16667l3.41667,1.75v1.91667z" fill="#cf7c00" stroke="#000000" stroke-linecap="round"/></g><g data-paper-data="{&quot;index&quot;:null}"><path d="M247.00235,175.16092v2.25h-14.75v-2.25z" fill="#e88b00" stroke="none" stroke-linecap="butt"/><path d="M250.33569,173.74425v1.91667l-3.41667,1.75v-2.16667z" fill="#cf7c00" stroke="#000000" stroke-linecap="round"/></g></g></g></g></g></g></svg>