<svg version="1.1" xmlns="http://www.w3.org/2000/svg" xmlns:xlink="http://www.w3.org/1999/xlink" width="73.72373" height="56.87928" viewBox="0,0,73.72373,56.87928"><defs><linearGradient x1="236.7395" y1="177.58511" x2="236.7395" y2="189.08511" gradientUnits="userSpaceOnUse" id="color-1"><stop offset="0" stop-color="#515151"/><stop offset="1" stop-color="#515151" stop-opacity="0"/></linearGradient><linearGradient x1="236.80619" y1="172.04347" x2="236.80619" y2="160.54343" gradientUnits="userSpaceOnUse" id="color-2"><stop offset="0" stop-color="#696969"/><stop offset="1" stop-color="#696969" stop-opacity="0"/></linearGradient><linearGradient x1="216.88795" y1="175.47794" x2="210.48886" y2="175.47794" gradientUnits="userSpaceOnUse" id="color-3"><stop offset="0" stop-color="#585858"/><stop offset="1" stop-color="#676767"/></linearGradient><linearGradient x1="216.88795" y1="175.47794" x2="210.48886" y2="175.47794" gradientUnits="userSpaceOnUse" id="color-4"><stop offset="0" stop-color="#585858"/><stop offset="1" stop-color="#676767"/></linearGradient><linearGradient x1="206.79385" y1="175.83709" x2="202.22641" y2="175.83709" gradientUnits="userSpaceOnUse" id="color-5"><stop offset="0" stop-color="#585858"/><stop offset="1" stop-color="#676767"/></linearGradient><linearGradient x1="206.79385" y1="175.83709" x2="202.22641" y2="175.83709" gradientUnits="userSpaceOnUse" id="color-6"><stop offset="0" stop-color="#585858"/><stop offset="1" stop-color="#676767"/></linearGradient><linearGradient x1="209.21272" y1="175.8044" x2="196.27199" y2="175.8044" gradientUnits="userSpaceOnUse" id="color-7"><stop offset="0" stop-color="#494949"/><stop offset="1" stop-color="#7a7a7a"/></linearGradient><linearGradient x1="209.21272" y1="175.8044" x2="196.27199" y2="175.8044" gradientUnits="userSpaceOnUse" id="color-8"><stop offset="0" stop-color="#494949"/><stop offset="1" stop-color="#7a7a7a"/></linearGradient><linearGradient x1="196.40352" y1="175.78381" x2="194.30046" y2="175.78381" gradientUnits="userSpaceOnUse" id="color-9"><stop offset="0" stop-color="#585858"/><stop offset="1" stop-color="#676767"/></linearGradient><linearGradient x1="196.40352" y1="175.78381" x2="194.30046" y2="175.78381" gradientUnits="userSpaceOnUse" id="color-10"><stop offset="0" stop-color="#585858"/><stop offset="1" stop-color="#676767"/></linearGradient><linearGradient x1="234.61276" y1="175.79239" x2="206.5082" y2="175.79239" gradientUnits="userSpaceOnUse" id="color-11"><stop offset="0" stop-color="#494949"/><stop offset="1" stop-color="#7a7a7a"/></linearGradient><linearGradient x1="234.61276" y1="175.79239" x2="206.5082" y2="175.79239" gradientUnits="userSpaceOnUse" id="color-12"><stop offset="0" stop-color="#494949"/><stop offset="1" stop-color="#7a7a7a"/></linearGradient><linearGradient x1="236.17525" y1="169.04026" x2="236.17525" y2="181.79026" gradientUnits="userSpaceOnUse" id="color-13"><stop offset="0" stop-color="#8b8b8b"/><stop offset="1" stop-color="#7a7a7a"/></linearGradient><linearGradient x1="236.17525" y1="169.04026" x2="236.17525" y2="181.79026" gradientUnits="userSpaceOnUse" id="color-14"><stop offset="0" stop-color="#8b8b8b"/><stop offset="1" stop-color="#7a7a7a"/></linearGradient></defs><g transform="translate(-191.80046,-151.56039)"><g data-paper-data="{&quot;isPaintingLayer&quot;:true}" fill-rule="nonzero" stroke-linejoin="miter" stroke-miterlimit="10" stroke-dasharray="" stroke-dashoffset="0" style="mix-blend-mode: normal"><path d="M262.26444,205.93968c-7.37211,0 -39.24894,0 -43.125,0c-0.79148,0 -0.77573,0 -0.77573,0v-44.71217c0,0 -0.12251,0 0.77573,0c7.17107,0 40.19074,0 43.5,0c0.54463,0 0.43644,0 0.43644,0v44.71217c0,0 0.18725,0 -0.81144,0z" data-paper-data="{&quot;index&quot;:null}" fill="#696969" stroke="#696969" stroke-width="5" stroke-linecap="butt"/><path d="M263.02419,198.77258c0,0 0.18725,0 -0.81144,0c-7.37211,0 -39.24894,0 -43.125,0c-0.79148,0 -0.77573,0 -0.77573,0v-44.71218c0,0 -0.12251,0 0.77573,0c7.17107,0 40.19074,0 43.5,0c0.54463,0 0.43644,0 0.43644,0v44.71217z" data-paper-data="{&quot;index&quot;:null}" fill="#7a7a7a" stroke="#787878" stroke-width="5" stroke-linecap="butt"/><path d="M247.13535,192.17421v-15.25l12.25,-13.5h3.5l0.125,28.75z" data-paper-data="{&quot;index&quot;:null}" fill="#727272" stroke="#717171" stroke-width="0.5" stroke-linecap="round"/><path d="M215.82285,189.08511v-11.5h41.83334v11.5z" data-paper-data="{&quot;index&quot;:null}" fill="url(#color-1)" stroke="none" stroke-width="0" stroke-linecap="butt"/><path d="M234.51035,158.25752v15.25l-12.25,13.5h-3.5l-0.125,-28.75z" data-paper-data="{&quot;index&quot;:null}" fill="#727272" stroke="#717171" stroke-width="0.5" stroke-linecap="round"/><path d="M257.62287,160.54343v11.5h-41.63333v-11.5z" data-paper-data="{&quot;index&quot;:null}" fill="url(#color-2)" stroke="none" stroke-width="0" stroke-linecap="butt"/><g data-paper-data="{&quot;index&quot;:null}" stroke-linecap="butt"><path d="M213.68844,169.14038c1.76707,0 3.19955,2.83742 3.19955,6.33756c0,3.50014 -1.43249,6.33756 -3.19955,6.33756c-1.76707,0 -3.19955,-2.83742 -3.19955,-6.33756c0,-3.50014 1.43249,-6.33756 3.19955,-6.33756z" fill="url(#color-3)" stroke="url(#color-4)" stroke-width="5"/><path d="M213.81148,167.56188c2.58263,0 4.67625,3.54889 4.67625,7.92668c0,4.37779 -2.09362,7.92668 -4.67625,7.92668c-2.58263,0 -4.67627,-3.54889 -4.67627,-7.92668c0,-4.37779 2.09364,-7.92668 4.67627,-7.92668z" fill="none" stroke="#787878" stroke-width="2"/></g><path d="M204.51015,171.31358c1.26127,0 2.28373,2.02525 2.28373,4.52353c0,2.49828 -1.02247,4.52353 -2.28373,4.52353c-1.26126,0 -2.28372,-2.02525 -2.28372,-4.52353c0,-2.49828 1.02246,-4.52353 2.28372,-4.52353z" data-paper-data="{&quot;index&quot;:null}" fill="url(#color-5)" stroke="url(#color-6)" stroke-width="5" stroke-linecap="butt"/><path d="M204.473,169.63812c2.18857,0 3.96276,2.77025 3.96276,6.18752c0,3.41727 -1.77419,6.1875 -3.96276,6.1875c-2.18857,0 -3.96275,-2.77023 -3.96275,-6.1875c0,-3.41727 1.77418,-6.18752 3.96275,-6.18752z" data-paper-data="{&quot;index&quot;:null}" fill="none" stroke="#787878" stroke-width="2" stroke-linecap="butt"/><g data-paper-data="{&quot;index&quot;:null}" stroke-linecap="butt"><path d="M207.73381,173.70923c0,0 1.47961,0.72129 1.47893,2.05408c-0.00074,1.45953 -1.47893,2.13626 -1.47893,2.13626h-11.46181v-4.19034z" fill="url(#color-7)" stroke="url(#color-8)" stroke-width="5"/><path d="M194.30046,175.78381c0,-1.15034 0.47079,-2.08286 1.05154,-2.08286c0.58075,0 1.05154,0.93253 1.05154,2.08286c0,1.15034 -0.47079,2.08286 -1.05154,2.08286c-0.58075,0 -1.05154,-0.93253 -1.05154,-2.08286z" fill="url(#color-9)" stroke="url(#color-10)" stroke-width="5"/><path d="M192.91023,175.85222c0,-2.09089 1.08555,-3.78591 2.42465,-3.78591c1.3391,0 2.42466,1.69502 2.42466,3.78591c0,2.09089 -1.08556,3.78589 -2.42466,3.78589c-1.3391,0 -2.42465,-1.695 -2.42465,-3.78589z" fill="none" stroke="#787878" stroke-width="2"/></g><path d="M206.5082,180.34264v-9.10051h24.8926c0,0 3.21034,1.46971 3.21195,4.63948c0.00147,2.89454 -3.21195,4.46103 -3.21195,4.46103z" data-paper-data="{&quot;index&quot;:null}" fill="url(#color-11)" stroke="url(#color-12)" stroke-width="5" stroke-linecap="butt"/><path d="M216.48775,181.79026v-12.75h34.875c0,0 4.49774,2.05909 4.5,6.5c0.00206,4.05531 -4.5,6.25 -4.5,6.25z" data-paper-data="{&quot;index&quot;:null}" fill="url(#color-13)" stroke="url(#color-14)" stroke-width="5" stroke-linecap="butt"/><path d="M251.1562,179.1268l-32,0.16666" data-paper-data="{&quot;index&quot;:null}" fill="none" stroke="#00ffee" stroke-width="1.5" stroke-linecap="round"/><path d="M250.9895,171.29345h-32" data-paper-data="{&quot;index&quot;:null}" fill="none" stroke="#00ffee" stroke-width="1.5" stroke-linecap="round"/><path d="M217.32285,175.1268h17.33334" data-paper-data="{&quot;index&quot;:null}" fill="none" stroke="#00ffee" stroke-width="1.5" stroke-linecap="round"/><path d="M253.38239,167.0117c0,0 5.48882,1.92469 5.78383,8.2875c0.25447,5.48843 -5.92669,8.28393 -5.92669,8.28393" data-paper-data="{&quot;index&quot;:null}" fill="none" stroke="#00ffee" stroke-width="1.5" stroke-linecap="round"/><path d="M218.45859,197.17359l43.6,0.2" data-paper-data="{&quot;index&quot;:null}" fill="none" stroke="#00ffee" stroke-width="4" stroke-linecap="round"/><path d="M262.37287,155.45931l-43.6,-0.2" data-paper-data="{&quot;index&quot;:null}" fill="none" stroke="#00ffee" stroke-width="4" stroke-linecap="round"/></g></g></svg>