<svg version="1.1" xmlns="http://www.w3.org/2000/svg" xmlns:xlink="http://www.w3.org/1999/xlink" width="62.05" height="60.378" viewBox="0,0,62.05,60.378"><defs><linearGradient x1="235.36679" y1="162.1751" x2="235.36679" y2="176.78417" gradientUnits="userSpaceOnUse" id="color-1"><stop offset="0" stop-color="#00edff" stop-opacity="0"/><stop offset="1" stop-color="#00edff"/></linearGradient><linearGradient x1="245.14188" y1="182.68129" x2="245.14188" y2="198.15455" gradientUnits="userSpaceOnUse" id="color-2"><stop offset="0" stop-color="#00edff"/><stop offset="1" stop-color="#00edff" stop-opacity="0"/></linearGradient></defs><g transform="translate(-208.975,-149.81101)"><g data-paper-data="{&quot;isPaintingLayer&quot;:true}" fill-rule="nonzero" stroke-linejoin="miter" stroke-miterlimit="10" stroke-dasharray="" stroke-dashoffset="0" style="mix-blend-mode: normal"><path d="M271.025,149.81102l-40.78656,39.68751" fill="none" stroke="#000000" stroke-width="0" stroke-linecap="round"/><path d="M221.33748,198.15966l-12.36248,12.02936" fill="none" stroke="#000000" stroke-width="0" stroke-linecap="round"/><g data-paper-data="{&quot;index&quot;:null}" fill="none" stroke="#00edff" stroke-linecap="round"><path d="M221.24956,177.34712l1.45283,-0.29057l1.59811,0.29057l0.14528,5.66604l-1.7434,1.59811l-1.59811,-1.59811z" stroke-width="1.5"/><path d="M220.959,180.39807l-2.03396,-2.90566v-2.03396l2.03396,1.59811z" stroke-width="1"/><path d="M224.59107,177.20185l2.03396,-1.59811v2.03396l-2.03396,2.90566z" data-paper-data="{&quot;index&quot;:null}" stroke-width="1"/></g><path d="M222.50276,176.78417c0.85052,-5.35224 4.21244,-10.232 9.46127,-12.81756c1.67257,-0.8239 3.41306,-1.35392 5.16243,-1.60997" fill="none" stroke="url(#color-1)" stroke-width="2.5" stroke-linecap="butt"/><path d="M223.07503,175.41129c0,-0.41421 0.33579,-0.75 0.75,-0.75c0.41421,0 0.75,0.33579 0.75,0.75c0,0.41421 -0.33579,0.75 -0.75,0.75c-0.41421,0 -0.75,-0.33579 -0.75,-0.75z" fill="#00edff" stroke="none" stroke-width="0.5" stroke-linecap="butt"/><path d="M220.97503,174.01129c0,-0.41421 0.33579,-0.75 0.75,-0.75c0.41421,0 0.75,0.33579 0.75,0.75c0,0.41421 -0.33579,0.75 -0.75,0.75c-0.41421,0 -0.75,-0.33579 -0.75,-0.75z" fill="#00edff" stroke="none" stroke-width="0.5" stroke-linecap="butt"/><path d="M221.52503,171.81129c0,-0.27614 0.22386,-0.5 0.5,-0.5c0.27614,0 0.5,0.22386 0.5,0.5c0,0.27614 -0.22386,0.5 -0.5,0.5c-0.27614,0 -0.5,-0.22386 -0.5,-0.5z" fill="#00edff" stroke="none" stroke-width="0.5" stroke-linecap="butt"/><path d="M224.02503,173.71128c0,-0.27614 0.22386,-0.5 0.5,-0.5c0.27614,0 0.5,0.22386 0.5,0.5c0,0.27614 -0.22386,0.5 -0.5,0.5c-0.27614,0 -0.5,-0.22386 -0.5,-0.5z" fill="#00edff" stroke="none" stroke-width="0.5" stroke-linecap="butt"/><path d="M225.72503,172.11128c0,-0.27614 0.22386,-0.5 0.5,-0.5c0.27614,0 0.5,0.22386 0.5,0.5c0,0.27614 -0.22386,0.5 -0.5,0.5c-0.27614,0 -0.5,-0.22386 -0.5,-0.5z" fill="#00edff" stroke="none" stroke-width="0.5" stroke-linecap="butt"/><path d="M222.62503,169.21128c0,-0.27614 0.22386,-0.5 0.5,-0.5c0.27614,0 0.5,0.22386 0.5,0.5c0,0.27614 -0.22386,0.5 -0.5,0.5c-0.27614,0 -0.5,-0.22386 -0.5,-0.5z" fill="#00edff" stroke="none" stroke-width="0.5" stroke-linecap="butt"/><path d="M220.17503,172.01129c0,-0.13807 0.11193,-0.25 0.25,-0.25c0.13807,0 0.25,0.11193 0.25,0.25c0,0.13807 -0.11193,0.25 -0.25,0.25c-0.13807,0 -0.25,-0.11193 -0.25,-0.25z" fill="#00edff" stroke="none" stroke-width="0.5" stroke-linecap="butt"/><path d="M225.27503,173.91129c0,-0.13807 0.11193,-0.25 0.25,-0.25c0.13807,0 0.25,0.11193 0.25,0.25c0,0.13807 -0.11193,0.25 -0.25,0.25c-0.13807,0 -0.25,-0.11193 -0.25,-0.25z" fill="#00edff" stroke="none" stroke-width="0.5" stroke-linecap="butt"/><path d="M228.77503,171.41129c0,-0.13807 0.11193,-0.25 0.25,-0.25c0.13807,0 0.25,0.11193 0.25,0.25c0,0.13807 -0.11193,0.25 -0.25,0.25c-0.13807,0 -0.25,-0.11193 -0.25,-0.25z" fill="#00edff" stroke="none" stroke-width="0.5" stroke-linecap="butt"/><path d="M221.07503,170.11128c0,-0.13807 0.11193,-0.25 0.25,-0.25c0.13807,0 0.25,0.11193 0.25,0.25c0,0.13807 -0.11193,0.25 -0.25,0.25c-0.13807,0 -0.25,-0.11193 -0.25,-0.25z" fill="#00edff" stroke="none" stroke-width="0.5" stroke-linecap="butt"/><path d="M224.97503,165.11128c0,-0.13807 0.11193,-0.25 0.25,-0.25c0.13807,0 0.25,0.11193 0.25,0.25c0,0.13807 -0.11193,0.25 -0.25,0.25c-0.13807,0 -0.25,-0.11193 -0.25,-0.25z" fill="#00edff" stroke="none" stroke-width="0.5" stroke-linecap="butt"/><path d="M224.50409,167.64845c-0.23717,0.07906 -0.31623,-0.15811 -0.31623,-0.15811l-0.1,-0.3c0,0 -0.07906,-0.23717 0.15811,-0.31623c0.23717,-0.07906 0.31623,0.15811 0.31623,0.15811l0.1,0.3c0,0 0.07906,0.23717 -0.15811,0.31623z" fill="#00edff" stroke="none" stroke-width="0.5" stroke-linecap="butt"/><path d="M228.07503,169.41129c0,-0.13807 0.11193,-0.25 0.25,-0.25c0.13807,0 0.25,0.11193 0.25,0.25c0,0.13807 -0.11193,0.25 -0.25,0.25c-0.13807,0 -0.25,-0.11193 -0.25,-0.25z" fill="#00edff" stroke="none" stroke-width="0.5" stroke-linecap="butt"/><g fill="none" stroke="#00edff" stroke-linecap="round"><path d="M254.07481,174.86446l-0.02115,-6.47734l2.45741,-2.19846l0.3284,4.11963l0.6542,-0.00214l0.42928,-4.16532l2.59168,2.2252l-0.08697,6.34274l5.99555,0.01174l0.01293,2.72048l-6.02455,4.98136l-6.25884,-0.04219l-6.02823,-4.82646l-0.01287,-2.70108z" stroke-width="1.5"/><path d="M255.6632,183.58996l3.41991,-0.01117" stroke-width="1.5"/><path d="M254.28889,175.30365l0.02132,6.52894" stroke-width="1"/><path d="M260.32063,181.70931l-0.01962,-6.01076" stroke-width="1"/></g><path d="M257.21608,182.68129c-0.55776,5.17195 -3.44598,10.04339 -8.25352,12.95678c-2.45144,1.48558 -5.12323,2.29316 -7.79534,2.47611" fill="none" stroke="url(#color-2)" stroke-width="2.5" stroke-linecap="butt"/><path d="M253.67503,184.91129c0,-0.41421 0.33579,-0.75 0.75,-0.75c0.20552,0 0.39173,0.08266 0.52719,0.21655c0.17625,-0.47671 0.63484,-0.81655 1.17281,-0.81655c0.27853,0 0.53578,0.0911 0.74358,0.24512c0.2293,-0.27219 0.57266,-0.44512 0.95642,-0.44512c0.69036,0 1.25,0.55964 1.25,1.25c0,0.69036 -0.55964,1.25 -1.25,1.25c-0.27853,0 -0.53578,-0.0911 -0.74358,-0.24512c-0.2293,0.27219 -0.57266,0.44512 -0.95642,0.44512c-0.48586,0 -0.90698,-0.2772 -1.11383,-0.68208c-0.13743,0.17194 -0.34894,0.28208 -0.58617,0.28208c-0.41421,0 -0.75,-0.33579 -0.75,-0.75z" fill="#00edff" stroke="none" stroke-width="0.5" stroke-linecap="butt"/><path d="M252.87503,186.61128c0,-0.41421 0.33579,-0.75 0.75,-0.75c0.41421,0 0.75,0.33579 0.75,0.75c0,0.41421 -0.33579,0.75 -0.75,0.75c-0.41421,0 -0.75,-0.33579 -0.75,-0.75z" fill="#00edff" stroke="none" stroke-width="0.5" stroke-linecap="butt"/><path d="M255.77503,188.61128c0,-0.41421 0.33579,-0.75 0.75,-0.75c0.41421,0 0.75,0.33579 0.75,0.75c0,0.41421 -0.33579,0.75 -0.75,0.75c-0.41421,0 -0.75,-0.33579 -0.75,-0.75z" fill="#00edff" stroke="none" stroke-width="0.5" stroke-linecap="butt"/><path d="M257.37503,187.21128c0,-0.41421 0.33579,-0.75 0.75,-0.75c0.41421,0 0.75,0.33579 0.75,0.75c0,0.41421 -0.33579,0.75 -0.75,0.75c-0.41421,0 -0.75,-0.33579 -0.75,-0.75z" fill="#00edff" stroke="none" stroke-width="0.5" stroke-linecap="butt"/><path d="M252.22503,188.01129c0,-0.27614 0.22386,-0.5 0.5,-0.5c0.27614,0 0.5,0.22386 0.5,0.5c0,0.27614 -0.22386,0.5 -0.5,0.5c-0.27614,0 -0.5,-0.22386 -0.5,-0.5z" fill="#00edff" stroke="none" stroke-width="0.5" stroke-linecap="butt"/><path d="M256.12503,190.81129c0,-0.27614 0.22386,-0.5 0.5,-0.5c0.27614,0 0.5,0.22386 0.5,0.5c0,0.27614 -0.22386,0.5 -0.5,0.5c-0.27614,0 -0.5,-0.22386 -0.5,-0.5z" fill="#00edff" stroke="none" stroke-width="0.5" stroke-linecap="butt"/><path d="M252.27503,185.31129c0,-0.13807 0.11193,-0.25 0.25,-0.25c0.13807,0 0.25,0.11193 0.25,0.25c0,0.13807 -0.11193,0.25 -0.25,0.25c-0.13807,0 -0.25,-0.11193 -0.25,-0.25z" fill="#00edff" stroke="none" stroke-width="0.5" stroke-linecap="butt"/><path d="M258.97503,188.91129c0,-0.13807 0.11193,-0.25 0.25,-0.25c0.13807,0 0.25,0.11193 0.25,0.25c0,0.13807 -0.11193,0.25 -0.25,0.25c-0.13807,0 -0.25,-0.11193 -0.25,-0.25z" fill="#00edff" stroke="none" stroke-width="0.5" stroke-linecap="butt"/><path d="M250.97503,189.01129c0,-0.13807 0.11193,-0.25 0.25,-0.25c0.13807,0 0.25,0.11193 0.25,0.25c0,0.13807 -0.11193,0.25 -0.25,0.25c-0.13807,0 -0.25,-0.11193 -0.25,-0.25z" fill="#00edff" stroke="none" stroke-width="0.5" stroke-linecap="butt"/><path d="M259.37503,185.41129c0,-0.13807 0.11193,-0.25 0.25,-0.25c0.13807,0 0.25,0.11193 0.25,0.25c0,0.13807 -0.11193,0.25 -0.25,0.25c-0.13807,0 -0.25,-0.11193 -0.25,-0.25z" fill="#00edff" stroke="none" stroke-width="0.5" stroke-linecap="butt"/><path d="M255.37503,193.31129c0,-0.13807 0.11193,-0.25 0.25,-0.25c0.13807,0 0.25,0.11193 0.25,0.25c0,0.13807 -0.11193,0.25 -0.25,0.25c-0.13807,0 -0.25,-0.11193 -0.25,-0.25z" fill="#00edff" stroke="none" stroke-width="0.5" stroke-linecap="butt"/><path d="M249.67503,187.71128c0,-0.13807 0.11193,-0.25 0.25,-0.25c0.13807,0 0.25,0.11193 0.25,0.25c0,0.13807 -0.11193,0.25 -0.25,0.25c-0.13807,0 -0.25,-0.11193 -0.25,-0.25z" fill="#00edff" stroke="none" stroke-width="0.5" stroke-linecap="butt"/><path d="M253.37503,193.71128c0,-0.13807 0.11193,-0.25 0.25,-0.25c0.13807,0 0.25,0.11193 0.25,0.25c0,0.13807 -0.11193,0.25 -0.25,0.25c-0.13807,0 -0.25,-0.11193 -0.25,-0.25z" fill="#00edff" stroke="none" stroke-width="0.5" stroke-linecap="butt"/><path d="M248.57503,190.01129c0,-0.13807 0.11193,-0.25 0.25,-0.25c0.13807,0 0.25,0.11193 0.25,0.25c0,0.13807 -0.11193,0.25 -0.25,0.25c-0.13807,0 -0.25,-0.11193 -0.25,-0.25z" fill="#00edff" stroke="none" stroke-width="0.5" stroke-linecap="butt"/><path d="M257.21982,173.96098v2.85073" fill="none" stroke="#00edff" stroke-width="1.5" stroke-linecap="round"/></g></g></svg>