<svg version="1.1" xmlns="http://www.w3.org/2000/svg" xmlns:xlink="http://www.w3.org/1999/xlink" width="542.29286" height="473.2564" viewBox="0,0,542.29286,473.2564"><defs><linearGradient x1="242.37766" y1="-13.33409" x2="242.37766" y2="395.07435" gradientUnits="userSpaceOnUse" id="color-1"><stop offset="0" stop-color="#000b0b"/><stop offset="1" stop-color="#000000"/></linearGradient><radialGradient cx="337.89868" cy="187.0001" r="229.6282" gradientUnits="userSpaceOnUse" id="color-2"><stop offset="0" stop-color="#000505"/><stop offset="1" stop-color="#000e0e"/></radialGradient><radialGradient cx="337.89868" cy="187.00009" r="231.82434" gradientUnits="userSpaceOnUse" id="color-3"><stop offset="0" stop-color="#000000" stop-opacity="0"/><stop offset="1" stop-color="#000000" stop-opacity="0"/></radialGradient><radialGradient cx="115.89868" cy="173.0001" r="229.6282" gradientUnits="userSpaceOnUse" id="color-4"><stop offset="0" stop-color="#000505"/><stop offset="1" stop-color="#000e0e"/></radialGradient><radialGradient cx="115.89868" cy="173.00009" r="231.82434" gradientUnits="userSpaceOnUse" id="color-5"><stop offset="0" stop-color="#000000" stop-opacity="0"/><stop offset="1" stop-color="#000000" stop-opacity="0"/></radialGradient><radialGradient cx="237.24925" cy="106.63232" r="257.5" gradientUnits="userSpaceOnUse" id="color-6"><stop offset="0" stop-color="#00eeff"/><stop offset="1" stop-color="#002c2f"/></radialGradient><radialGradient cx="227.74925" cy="166.55104" r="239.5" gradientUnits="userSpaceOnUse" id="color-7"><stop offset="0" stop-color="#00e9fa"/><stop offset="1" stop-color="#002c2f"/></radialGradient><radialGradient cx="232.74925" cy="219.5511" r="239.5" gradientUnits="userSpaceOnUse" id="color-8"><stop offset="0" stop-color="#00e9fa"/><stop offset="1" stop-color="#002c2f"/></radialGradient><radialGradient cx="227.74925" cy="276.5511" r="239.5" gradientUnits="userSpaceOnUse" id="color-9"><stop offset="0" stop-color="#00e9fa"/><stop offset="1" stop-color="#002c2f"/></radialGradient><linearGradient x1="217.25" y1="135.03295" x2="395.25" y2="135.03295" gradientUnits="userSpaceOnUse" id="color-10"><stop offset="0" stop-color="#001618"/><stop offset="1" stop-color="#001212"/></linearGradient><linearGradient x1="217.25" y1="192.033" x2="395.25" y2="192.033" gradientUnits="userSpaceOnUse" id="color-11"><stop offset="0" stop-color="#001618"/><stop offset="1" stop-color="#001212"/></linearGradient><linearGradient x1="216.75" y1="247.033" x2="394.75" y2="247.033" gradientUnits="userSpaceOnUse" id="color-12"><stop offset="0" stop-color="#001618"/><stop offset="1" stop-color="#001212"/></linearGradient></defs><g transform="translate(31.14643,56.62811)"><g data-paper-data="{&quot;isPaintingLayer&quot;:true}" fill-rule="nonzero" stroke-linejoin="miter" stroke-miterlimit="10" stroke-dasharray="" stroke-dashoffset="0" style="mix-blend-mode: normal"><g stroke-width="0" stroke-linecap="butt"><path d="M-26.39111,395.07435v-408.40841h537.53754v408.40841z" fill="url(#color-1)" stroke="none"/><path d="M190.85357,372.87825l205.72938,-415.50635l88.36084,43.75005l-205.72938,415.50635z" fill="url(#color-2)" stroke="url(#color-3)"/><path d="M-31.14643,358.87825l205.72938,-415.50635l88.36084,43.75005l-205.72938,415.50635z" fill="url(#color-4)" stroke="url(#color-5)"/></g><path d="M494.74925,106.63232h-515" fill="none" stroke="url(#color-6)" stroke-width="4" stroke-linecap="round"/><path d="M1.74925,163.85118h479" fill="none" stroke="url(#color-7)" stroke-width="4" stroke-linecap="round"/><path d="M0.74925,218.85119h479" data-paper-data="{&quot;index&quot;:null}" fill="none" stroke="url(#color-8)" stroke-width="4" stroke-linecap="round"/><path d="M478.74925,273.85114h-479" fill="none" stroke="url(#color-9)" stroke-width="4" stroke-linecap="round"/><path d="M217.25,148.03295v-26h178v26z" fill="url(#color-10)" stroke="none" stroke-width="0" stroke-linecap="butt"/><path d="M217.25,205.033v-26h178v26z" fill="url(#color-11)" stroke="none" stroke-width="0" stroke-linecap="butt"/><path d="M216.75,260.03301v-26h178v26z" fill="url(#color-12)" stroke="none" stroke-width="0" stroke-linecap="butt"/><g stroke-width="0.5" stroke-linecap="square"><path d="M185.83258,67.35886c-1.49132,0 -2.83352,-0.25901 -4.02657,-0.77705c-1.17736,-0.51804 -2.15064,-1.25585 -2.91985,-2.21344c-0.75351,-0.95759 -1.2323,-2.09569 -1.43637,-3.41434l3.50854,-0.54158c0.29827,1.19306 0.9105,2.11925 1.83668,2.77857c0.94189,0.65932 2.02506,0.98898 3.24952,0.98898c0.72212,0 1.39713,-0.10989 2.02506,-0.32966c0.64362,-0.23547 1.16166,-0.56514 1.55412,-0.98899c0.40814,-0.43956 0.61223,-0.97328 0.61223,-1.60121c0,-0.28257 -0.04709,-0.54158 -0.14128,-0.77705c-0.09419,-0.23547 -0.23547,-0.44739 -0.42385,-0.63577c-0.18838,-0.18838 -0.42385,-0.36105 -0.70641,-0.51803c-0.28257,-0.15698 -0.61223,-0.29042 -0.98899,-0.40029l-5.22748,-1.53056c-0.45524,-0.14129 -0.94188,-0.3218 -1.45992,-0.54157c-0.51804,-0.21977 -1.01253,-0.51804 -1.48347,-0.8948c-0.45524,-0.39246 -0.832,-0.88694 -1.13027,-1.48346c-0.29827,-0.61222 -0.44739,-1.36574 -0.44739,-2.26054c0,-1.30294 0.32966,-2.39397 0.98898,-3.27305c0.67503,-0.89479 1.56982,-1.56196 2.68438,-2.0015c1.11456,-0.43956 2.35472,-0.65147 3.72046,-0.63577c1.39713,0 2.63729,0.23547 3.72046,0.70642c1.08317,0.45524 1.98582,1.13027 2.70793,2.02506c0.73781,0.87909 1.2637,1.93872 1.57767,3.17888l-3.64981,0.63578c-0.15698,-0.72212 -0.44739,-1.3265 -0.87124,-1.81313c-0.42385,-0.50233 -0.94189,-0.88694 -1.55411,-1.15381c-0.61222,-0.26686 -1.26369,-0.40814 -1.95441,-0.42385c-0.67503,-0.0157 -1.30294,0.08633 -1.88378,0.30612c-0.58084,0.20408 -1.05178,0.50233 -1.41284,0.89479c-0.34536,0.39246 -0.51804,0.85556 -0.51804,1.3893c0,0.48665 0.14914,0.88694 0.44741,1.20092c0.31396,0.31396 0.69071,0.56513 1.13027,0.75351c0.43956,0.18838 0.89479,0.33751 1.36574,0.44741l3.62627,1.01253c0.48665,0.14129 1.03608,0.32181 1.6483,0.5416c0.62793,0.21977 1.22446,0.53375 1.78959,0.94189c0.58084,0.40814 1.05178,0.94189 1.41283,1.60121c0.37676,0.64362 0.56513,1.47563 0.56513,2.496c0,1.05178 -0.21976,1.97797 -0.65932,2.77857c-0.42385,0.7849 -1.01252,1.43639 -1.76603,1.95442c-0.73781,0.51804 -1.58551,0.9105 -2.5431,1.17736c-0.94189,0.26686 -1.93087,0.40031 -2.96695,0.40031zM202.50529,67.38241c-1.11456,0 -2.04076,-0.18838 -2.77857,-0.56513c-0.72212,-0.37676 -1.30293,-0.85555 -1.74249,-1.43637c-0.42385,-0.58084 -0.74566,-1.20091 -0.96543,-1.86023c-0.20408,-0.65932 -0.33751,-1.2794 -0.40029,-1.86022c-0.0471,-0.58084 -0.07064,-1.05962 -0.07064,-1.43637v-8.47699h3.41436v7.32319c0,0.47094 0.03139,0.99683 0.09419,1.57767c0.07849,0.58084 0.23548,1.14597 0.47095,1.6954c0.23547,0.53374 0.58868,0.97328 1.05963,1.31864c0.47095,0.34537 1.11456,0.51804 1.93087,0.51804c0.42385,0 0.8477,-0.07063 1.27155,-0.21192c0.42385,-0.14129 0.80846,-0.38461 1.15382,-0.72996c0.34536,-0.34536 0.62008,-0.8163 0.82416,-1.41283c0.20408,-0.59653 0.30612,-1.35004 0.30612,-2.26054l2.00153,0.8477c0,1.28725 -0.25118,2.45676 -0.75352,3.50854c-0.50233,1.05178 -1.24015,1.89163 -2.21343,2.51956c-0.97328,0.62793 -2.1742,0.94189 -3.60272,0.94189zM207.47375,66.935v-4.70944h-0.40029v-10.4785h3.3908v15.18796zM232.64208,66.935v-9.2305c0,-1.03608 -0.25901,-1.84454 -0.77705,-2.42535c-0.51804,-0.59653 -1.2166,-0.89479 -2.09569,-0.89479c-0.54943,0 -1.03608,0.12558 -1.45992,0.37676c-0.42385,0.25117 -0.76922,0.62008 -1.03608,1.10672c-0.25117,0.48665 -0.37675,1.05963 -0.37675,1.71895l-1.50702,-0.89479c0,-1.03608 0.23547,-1.95441 0.70641,-2.75502c0.48665,-0.81631 1.13812,-1.44422 1.95443,-1.88378c0.832,-0.45524 1.7582,-0.68286 2.77857,-0.68286c1.6797,0 2.96695,0.50233 3.86174,1.50702c0.89479,1.00468 1.3422,2.33119 1.3422,3.97949v10.0782zM214.36945,66.935v-15.18794h3.01404v4.70944h0.40031v10.47852zM223.52932,66.935v-9.18341c0,-1.05178 -0.25902,-1.87592 -0.77706,-2.47244c-0.51804,-0.59653 -1.2166,-0.89479 -2.09569,-0.89479c-0.86341,0 -1.56197,0.29827 -2.0957,0.89479c-0.51804,0.59653 -0.77705,1.36574 -0.77705,2.30763l-1.50702,-1.01253c0,-0.98899 0.24333,-1.87592 0.72997,-2.66082c0.48665,-0.7849 1.14597,-1.40498 1.97797,-1.86022c0.832,-0.45524 1.7582,-0.68286 2.77857,-0.68286c1.14597,0 2.09571,0.24332 2.84922,0.72997c0.76922,0.48665 1.3422,1.14597 1.71895,1.97797c0.37676,0.81631 0.56513,1.75035 0.56513,2.80213v10.05466zM257.91782,66.935v-9.2305c0,-1.03608 -0.25901,-1.84454 -0.77705,-2.42535c-0.51804,-0.59653 -1.2166,-0.89479 -2.09569,-0.89479c-0.54943,0 -1.03607,0.12558 -1.45992,0.37676c-0.42385,0.25117 -0.76922,0.62008 -1.03608,1.10672c-0.25118,0.48665 -0.37676,1.05963 -0.37676,1.71895l-1.50702,-0.89479c0,-1.03608 0.23547,-1.95441 0.70641,-2.75502c0.48665,-0.81631 1.13811,-1.44422 1.95443,-1.88378c0.832,-0.45524 1.7582,-0.68286 2.77857,-0.68286c1.6797,0 2.96695,0.50233 3.86174,1.50702c0.89479,1.00468 1.3422,2.33119 1.3422,3.97949v10.0782zM239.64518,66.935v-15.18794h3.01404v4.70944h0.40031v10.47852zM248.80504,66.935v-9.18341c0,-1.05178 -0.25901,-1.87592 -0.77705,-2.47244c-0.51804,-0.59653 -1.21661,-0.89479 -2.0957,-0.89479c-0.86341,0 -1.56196,0.29827 -2.09569,0.89479c-0.51804,0.59653 -0.77705,1.36574 -0.77705,2.30763l-1.50702,-1.01253c0,-0.98899 0.24332,-1.87592 0.72997,-2.66082c0.48665,-0.7849 1.14597,-1.40498 1.97797,-1.86022c0.832,-0.45524 1.7582,-0.68286 2.77857,-0.68286c1.14597,0 2.09571,0.24332 2.84922,0.72997c0.76922,0.48665 1.3422,1.14597 1.71896,1.97797c0.37676,0.81631 0.56513,1.75035 0.56513,2.80213v10.05466zM269.20649,67.35886c-1.09888,0 -2.03291,-0.20409 -2.80211,-0.61223c-0.75351,-0.42385 -1.32649,-0.98113 -1.71894,-1.67184c-0.37676,-0.70641 -0.56513,-1.47563 -0.56513,-2.30763c0,-0.72212 0.11774,-1.37359 0.35321,-1.95441c0.25117,-0.59653 0.62793,-1.10671 1.13027,-1.53056c0.50234,-0.42385 1.16165,-0.77705 1.97796,-1.05962c0.59652,-0.18838 1.30294,-0.36105 2.11925,-0.51803c0.832,-0.15698 1.72679,-0.30611 2.68438,-0.44739c0.95759,-0.14129 1.96227,-0.29042 3.01405,-0.44739l-1.2009,0.68287c0,-1.03608 -0.23547,-1.80529 -0.70641,-2.30763c-0.47094,-0.50233 -1.2794,-0.75351 -2.42536,-0.75351c-0.67503,0 -1.33434,0.16484 -1.97796,0.4945c-0.62793,0.31396 -1.07532,0.85555 -1.34219,1.62476l-3.08468,-0.96542c0.37676,-1.28725 1.09103,-2.31548 2.14281,-3.08468c1.05178,-0.7849 2.47247,-1.17736 4.26206,-1.17736c1.35003,0 2.53524,0.21977 3.55563,0.65932c1.03607,0.43956 1.80529,1.16166 2.30762,2.16634c0.26686,0.53374 0.42385,1.08317 0.47095,1.6483c0.0628,0.54943 0.09419,1.15382 0.09419,1.81314v9.32469h-2.96695v-3.29661l0.4945,0.5416c-0.69072,1.09887 -1.49132,1.90733 -2.40181,2.42537c-0.9105,0.50233 -2.0486,0.75351 -3.41434,0.75351zM269.88936,64.65094c0.75351,0 1.40498,-0.13343 1.95442,-0.40029c0.54943,-0.26687 0.98113,-0.59653 1.29511,-0.98899c0.32966,-0.39246 0.54943,-0.76921 0.65932,-1.13026c0.17268,-0.42385 0.26686,-0.9105 0.28256,-1.45993c0.03139,-0.56513 0.0471,-1.02037 0.0471,-1.36573l1.05964,0.30612c-1.02038,0.15698 -1.89948,0.29827 -2.63729,0.42385c-0.73781,0.12558 -1.36574,0.24332 -1.88378,0.35322c-0.51804,0.09419 -0.98113,0.21193 -1.38928,0.35322c-0.39246,0.14129 -0.72996,0.30612 -1.01252,0.4945c-0.26686,0.18838 -0.47095,0.40815 -0.61223,0.65932c-0.14128,0.23547 -0.21191,0.51018 -0.21191,0.82416c0,0.37676 0.09418,0.71427 0.28256,1.01254c0.18838,0.28257 0.4631,0.51019 0.82416,0.68288c0.36105,0.15699 0.80846,0.23548 1.3422,0.23548zM281.16245,66.935v-15.18794h2.9905v3.69692l-0.37676,-0.47095c0.18838,-0.50233 0.43955,-0.95759 0.75351,-1.36574c0.31396,-0.42385 0.69071,-0.77705 1.13027,-1.05962c0.37676,-0.25117 0.79275,-0.44738 1.24801,-0.58867c0.45524,-0.14129 0.91835,-0.22763 1.3893,-0.25902c0.48665,-0.0471 0.95759,-0.03139 1.41283,0.0471v3.17888c-0.45524,-0.14129 -0.98113,-0.18838 -1.57765,-0.14128c-0.58083,0.0471 -1.10671,0.21193 -1.57765,0.4945c-0.45524,0.25117 -0.832,0.57298 -1.13027,0.96544c-0.29827,0.39246 -0.51804,0.83985 -0.65933,1.3422c-0.14128,0.50233 -0.21191,1.04393 -0.21191,1.62477v7.72349zM293.89432,73.69305l2.94341,-8.02959l0.04709,2.35472l-6.61676,-16.27112h3.53208l4.6859,12.03263h-0.89479l4.56816,-12.03262h3.3908l-8.477,21.946z" fill="#00383d" stroke="#00383d"/><path d="M182.83258,64.35886c-1.49132,0 -2.83352,-0.25901 -4.02657,-0.77705c-1.17736,-0.51804 -2.15064,-1.25585 -2.91985,-2.21344c-0.75351,-0.95759 -1.2323,-2.09569 -1.43637,-3.41433l3.50854,-0.54158c0.29827,1.19306 0.9105,2.11925 1.83668,2.77857c0.94189,0.65932 2.02506,0.98898 3.24952,0.98898c0.72212,0 1.39713,-0.10989 2.02506,-0.32966c0.64362,-0.23547 1.16165,-0.56514 1.55411,-0.98899c0.40814,-0.43956 0.61223,-0.97328 0.61223,-1.60121c0,-0.28257 -0.0471,-0.54158 -0.14129,-0.77705c-0.09419,-0.23547 -0.23547,-0.44739 -0.42385,-0.63577c-0.18838,-0.18838 -0.42385,-0.36105 -0.70641,-0.51803c-0.28257,-0.15698 -0.61223,-0.29042 -0.98899,-0.40029l-5.22748,-1.53056c-0.45524,-0.14129 -0.94189,-0.3218 -1.45993,-0.54157c-0.51804,-0.21977 -1.01252,-0.51804 -1.48347,-0.8948c-0.45524,-0.39246 -0.832,-0.88694 -1.13027,-1.48346c-0.29827,-0.61222 -0.44739,-1.36574 -0.44739,-2.26053c0,-1.30294 0.32966,-2.39397 0.98898,-3.27305c0.67503,-0.8948 1.56982,-1.56197 2.68438,-2.00151c1.11456,-0.43956 2.35472,-0.65147 3.72046,-0.63576c1.39713,0 2.63729,0.23547 3.72046,0.70641c1.08317,0.45524 1.98582,1.13026 2.70793,2.02506c0.73781,0.87909 1.2637,1.93872 1.57767,3.17888l-3.64981,0.63578c-0.15698,-0.72212 -0.44739,-1.3265 -0.87124,-1.81313c-0.42385,-0.50234 -0.94189,-0.88694 -1.55411,-1.15381c-0.61222,-0.26686 -1.2637,-0.40814 -1.95441,-0.42385c-0.67503,-0.0157 -1.30294,0.08633 -1.88377,0.30612c-0.58084,0.20408 -1.05178,0.50233 -1.41284,0.8948c-0.34536,0.39246 -0.51804,0.85555 -0.51804,1.3893c0,0.48664 0.14914,0.88694 0.44741,1.20091c0.31396,0.31396 0.69071,0.56513 1.13027,0.75351c0.43956,0.18838 0.89479,0.33751 1.36574,0.44741l3.62627,1.01253c0.48665,0.14129 1.03608,0.32181 1.6483,0.5416c0.62793,0.21977 1.22446,0.53375 1.78959,0.94189c0.58084,0.40814 1.05178,0.94189 1.41283,1.60121c0.37676,0.64362 0.56513,1.47563 0.56513,2.496c0,1.05178 -0.21976,1.97797 -0.65932,2.77857c-0.42385,0.7849 -1.01252,1.43638 -1.76603,1.95442c-0.73781,0.51804 -1.58551,0.9105 -2.5431,1.17736c-0.94189,0.26687 -1.93087,0.40031 -2.96695,0.40031zM199.50529,64.38241c-1.11456,0 -2.04076,-0.18838 -2.77857,-0.56514c-0.72212,-0.37676 -1.30293,-0.85555 -1.74249,-1.43637c-0.42385,-0.58084 -0.74566,-1.20091 -0.96543,-1.86023c-0.20408,-0.65932 -0.33751,-1.2794 -0.40029,-1.86022c-0.0471,-0.58084 -0.07064,-1.05962 -0.07064,-1.43637v-8.47699h3.41436v7.32319c0,0.47095 0.03139,0.99684 0.09419,1.57767c0.07849,0.58084 0.23548,1.14597 0.47095,1.6954c0.23547,0.53374 0.58868,0.97328 1.05963,1.31864c0.47095,0.34536 1.11456,0.51804 1.93087,0.51804c0.42385,0 0.8477,-0.07063 1.27155,-0.21192c0.42385,-0.14129 0.80846,-0.38461 1.15382,-0.72996c0.34536,-0.34536 0.62008,-0.8163 0.82416,-1.41283c0.20408,-0.59653 0.30612,-1.35004 0.30612,-2.26054l2.00152,0.8477c0,1.28725 -0.25118,2.45676 -0.75351,3.50854c-0.50233,1.05178 -1.24016,1.89163 -2.21344,2.51956c-0.97328,0.62793 -2.17419,0.94189 -3.60271,0.94189zM204.47375,63.935v-4.70944h-0.40029v-10.4785h3.3908v15.18796zM229.64208,63.935v-9.2305c0,-1.03608 -0.25901,-1.84454 -0.77705,-2.42535c-0.51804,-0.59653 -1.21661,-0.89479 -2.0957,-0.89479c-0.54943,0 -1.03608,0.12558 -1.45992,0.37676c-0.42385,0.25117 -0.76922,0.62008 -1.03608,1.10672c-0.25117,0.48665 -0.37676,1.05963 -0.37676,1.71895l-1.50702,-0.89479c0,-1.03608 0.23547,-1.95441 0.70641,-2.75502c0.48665,-0.81631 1.13811,-1.44422 1.95442,-1.88378c0.832,-0.45524 1.7582,-0.68286 2.77858,-0.68286c1.6797,0 2.96695,0.50234 3.86174,1.50702c0.89479,1.00468 1.3422,2.33118 1.3422,3.97949v10.0782zM211.36945,63.935v-15.18794h3.01405v4.70944h0.40031v10.47852zM220.52932,63.935v-9.18341c0,-1.05178 -0.25901,-1.87592 -0.77705,-2.47244c-0.51804,-0.59653 -1.2166,-0.89479 -2.09569,-0.89479c-0.86341,0 -1.56197,0.29827 -2.0957,0.89479c-0.51804,0.59653 -0.77705,1.36574 -0.77705,2.30763l-1.50702,-1.01253c0,-0.98899 0.24333,-1.87592 0.72997,-2.66082c0.48665,-0.7849 1.14597,-1.40498 1.97797,-1.86022c0.832,-0.45524 1.7582,-0.68286 2.77857,-0.68286c1.14597,0 2.09571,0.24332 2.84922,0.72997c0.76922,0.48665 1.3422,1.14597 1.71896,1.97797c0.37676,0.81631 0.56513,1.75035 0.56513,2.80213v10.05466zM254.91781,63.935v-9.2305c0,-1.03608 -0.25901,-1.84454 -0.77705,-2.42535c-0.51804,-0.59653 -1.21661,-0.89479 -2.0957,-0.89479c-0.54943,0 -1.03607,0.12558 -1.45992,0.37676c-0.42385,0.25117 -0.76922,0.62008 -1.03608,1.10672c-0.25117,0.48665 -0.37676,1.05963 -0.37676,1.71895l-1.50702,-0.89479c0,-1.03608 0.23547,-1.95441 0.70641,-2.75502c0.48665,-0.81631 1.13812,-1.44422 1.95443,-1.88378c0.832,-0.45524 1.7582,-0.68286 2.77858,-0.68286c1.67969,0 2.96695,0.50234 3.86174,1.50702c0.8948,1.00468 1.3422,2.33118 1.3422,3.97949v10.0782zM236.64518,63.935v-15.18794h3.01405v4.70944h0.40031v10.47852zM245.80504,63.935v-9.18341c0,-1.05178 -0.25901,-1.87592 -0.77705,-2.47244c-0.51804,-0.59653 -1.21661,-0.89479 -2.0957,-0.89479c-0.86341,0 -1.56196,0.29827 -2.09569,0.89479c-0.51804,0.59653 -0.77705,1.36574 -0.77705,2.30763l-1.50702,-1.01253c0,-0.98899 0.24332,-1.87592 0.72997,-2.66082c0.48665,-0.7849 1.14597,-1.40498 1.97797,-1.86022c0.832,-0.45524 1.7582,-0.68286 2.77857,-0.68286c1.14597,0 2.09571,0.24332 2.84922,0.72997c0.76922,0.48665 1.3422,1.14597 1.71895,1.97797c0.37676,0.81631 0.56513,1.75035 0.56513,2.80213v10.05466zM266.20649,64.35886c-1.09888,0 -2.03291,-0.20409 -2.80211,-0.61223c-0.75351,-0.42385 -1.3265,-0.98113 -1.71894,-1.67184c-0.37676,-0.70641 -0.56513,-1.47563 -0.56513,-2.30763c0,-0.72212 0.11774,-1.37359 0.35321,-1.95441c0.25117,-0.59653 0.62793,-1.10671 1.13027,-1.53056c0.50234,-0.42385 1.16165,-0.77705 1.97796,-1.05962c0.59652,-0.18838 1.30294,-0.36105 2.11925,-0.51803c0.832,-0.15698 1.72679,-0.30611 2.68438,-0.44739c0.95759,-0.14129 1.96227,-0.29042 3.01405,-0.44739l-1.2009,0.68287c0,-1.03608 -0.23547,-1.80529 -0.70641,-2.30763c-0.47094,-0.50233 -1.2794,-0.75351 -2.42536,-0.75351c-0.67503,0 -1.33434,0.16484 -1.97796,0.4945c-0.62793,0.31396 -1.07532,0.85555 -1.34219,1.62476l-3.08468,-0.96542c0.37676,-1.28725 1.09103,-2.31548 2.14281,-3.08468c1.05178,-0.7849 2.47246,-1.17736 4.26205,-1.17736c1.35003,0 2.53525,0.21977 3.55564,0.65933c1.03607,0.43955 1.80529,1.16165 2.30762,2.16634c0.26686,0.53374 0.42385,1.08317 0.47094,1.6483c0.0628,0.54943 0.09419,1.15382 0.09419,1.81314v9.32469h-2.96695v-3.29661l0.4945,0.5416c-0.69072,1.09887 -1.49132,1.90733 -2.40181,2.42537c-0.9105,0.50234 -2.0486,0.75351 -3.41434,0.75351zM266.88935,61.65094c0.75351,0 1.40498,-0.13343 1.95443,-0.40029c0.54943,-0.26686 0.98113,-0.59653 1.29511,-0.98899c0.32966,-0.39246 0.54943,-0.76921 0.65932,-1.13026c0.17268,-0.42385 0.26686,-0.9105 0.28256,-1.45993c0.03139,-0.56513 0.0471,-1.02037 0.0471,-1.36574l1.05964,0.30612c-1.02038,0.15698 -1.89948,0.29827 -2.63729,0.42385c-0.73781,0.12558 -1.36574,0.24332 -1.88378,0.35322c-0.51804,0.09419 -0.98113,0.21193 -1.38928,0.35322c-0.39246,0.14129 -0.72996,0.30612 -1.01252,0.4945c-0.26686,0.18838 -0.47095,0.40815 -0.61223,0.65932c-0.14128,0.23547 -0.21191,0.51018 -0.21191,0.82416c0,0.37676 0.09418,0.71427 0.28256,1.01254c0.18838,0.28257 0.4631,0.51019 0.82416,0.68288c0.36105,0.15698 0.80846,0.23547 1.3422,0.23547zM278.16245,63.935v-15.18794h2.9905v3.69692l-0.37676,-0.47095c0.18838,-0.50233 0.43955,-0.95759 0.75351,-1.36574c0.31396,-0.42385 0.69071,-0.77706 1.13027,-1.05962c0.37676,-0.25118 0.79275,-0.44738 1.24801,-0.58867c0.45524,-0.14129 0.91835,-0.22763 1.3893,-0.25902c0.48665,-0.0471 0.95759,-0.03139 1.41283,0.0471v3.17888c-0.45524,-0.14129 -0.98113,-0.18838 -1.57765,-0.14128c-0.58083,0.0471 -1.10671,0.21193 -1.57765,0.4945c-0.45524,0.25117 -0.832,0.57298 -1.13027,0.96544c-0.29827,0.39246 -0.51804,0.83985 -0.65933,1.3422c-0.14128,0.50233 -0.21191,1.04393 -0.21191,1.62477v7.72348zM290.89432,70.69305l2.94341,-8.02959l0.0471,2.35472l-6.61676,-16.27112h3.53208l4.6859,12.03263h-0.89479l4.56816,-12.03262h3.3908l-8.477,21.946z" fill="#00eeff" stroke="#01ebfc"/></g><path d="M15.29413,139.6858v-9.84605h3.137c0.07633,0 0.23661,0.00382 0.48085,0.01145c0.24424,0.00763 0.48086,0.0229 0.70984,0.04579c0.77852,0.09922 1.43874,0.37781 1.98066,0.83577c0.54191,0.45032 0.95025,1.02659 1.22503,1.72879c0.27478,0.7022 0.41217,1.46927 0.41217,2.30122c0,0.83195 -0.13739,1.59903 -0.41217,2.30123c-0.27478,0.7022 -0.68312,1.28227 -1.22503,1.74023c-0.54191,0.45032 -1.20213,0.7251 -1.98066,0.82432c-0.22135,0.03053 -0.45796,0.04961 -0.70984,0.05724c-0.24424,0 -0.40453,0 -0.48085,0zM16.96568,138.12875h1.46545c0.13738,0 0.30912,-0.00382 0.5152,-0.01145c0.21371,-0.00763 0.40453,-0.02671 0.57245,-0.05724c0.45795,-0.08396 0.83194,-0.29004 1.12198,-0.61824c0.29767,-0.3282 0.51521,-0.7251 0.65259,-1.19069c0.13738,-0.47323 0.20608,-0.96933 0.20608,-1.48835c0,-0.53428 -0.07251,-1.03422 -0.21753,-1.49981c-0.13738,-0.47323 -0.35491,-0.8663 -0.65258,-1.17924c-0.29004,-0.32057 -0.66022,-0.52665 -1.11054,-0.61824c-0.16792,-0.03053 -0.35874,-0.04961 -0.57245,-0.05724c-0.20608,-0.00763 -0.37782,-0.01145 -0.5152,-0.01145h-1.46545zM28.22448,139.89188c-0.74799,0 -1.4044,-0.16029 -1.96921,-0.48086c-0.56481,-0.3282 -1.00751,-0.77852 -1.32808,-1.35097c-0.31294,-0.57245 -0.4694,-1.23266 -0.4694,-1.98066c0,-0.80906 0.15265,-1.51125 0.45795,-2.1066c0.31294,-0.59535 0.74419,-1.05712 1.29373,-1.38532c0.54954,-0.3282 1.18687,-0.4923 1.91197,-0.4923c0.77089,0 1.42347,0.17937 1.95775,0.5381c0.53428,0.35873 0.93118,0.86629 1.19069,1.5227c0.25951,0.64877 0.35873,1.41585 0.29767,2.30123h-1.63719v-0.60679c-0.00763,-0.80142 -0.14883,-1.38531 -0.42361,-1.75168c-0.27477,-0.374 -0.71365,-0.56099 -1.31662,-0.56099c-0.67167,0 -1.17161,0.20989 -1.49981,0.62968c-0.3282,0.41979 -0.4923,1.0304 -0.4923,1.83183c0,0.748 0.1641,1.32807 0.4923,1.74023c0.3282,0.40453 0.80524,0.60679 1.43112,0.60679c0.40452,0 0.75181,-0.08777 1.04185,-0.26332c0.29767,-0.18318 0.52664,-0.44651 0.68693,-0.78997l1.62575,0.4923c-0.28241,0.66404 -0.71746,1.18305 -1.30517,1.55705c-0.58771,0.36637 -1.23648,0.54955 -1.94631,0.54955zM25.68282,136.4572v-1.24793h5.07186v1.24793zM35.95007,139.89188c-0.91591,0 -1.66008,-0.20607 -2.23253,-0.61823c-0.56482,-0.41216 -0.90828,-0.98843 -1.0304,-1.72879l1.68299,-0.26332c0.08396,0.36637 0.27477,0.6564 0.57244,0.87011c0.29767,0.20608 0.67167,0.30912 1.12199,0.30912c0.39689,0 0.7022,-0.07632 0.91591,-0.22897c0.21371,-0.16028 0.32057,-0.37781 0.32057,-0.65259c0,-0.16791 -0.04198,-0.30149 -0.12593,-0.40071c-0.07632,-0.10686 -0.24806,-0.20609 -0.5152,-0.29767c-0.26714,-0.09922 -0.6793,-0.22135 -1.23649,-0.36637c-0.61825,-0.16791 -1.11053,-0.34347 -1.4769,-0.52665c-0.36637,-0.19081 -0.62969,-0.41597 -0.78998,-0.67548c-0.15265,-0.25951 -0.22898,-0.57244 -0.22898,-0.93881c0,-0.46559 0.11831,-0.8663 0.35492,-1.20214c0.24424,-0.34347 0.58008,-0.6068 1.0075,-0.78997c0.43505,-0.19081 0.94644,-0.28622 1.53415,-0.28622c0.58008,0 1.09147,0.09159 1.53415,0.27477c0.44268,0.17555 0.80143,0.42743 1.0762,0.75563c0.27477,0.3282 0.44268,0.71365 0.50375,1.15634l-1.68299,0.29767c-0.03816,-0.31294 -0.17936,-0.56099 -0.42361,-0.74417c-0.24424,-0.18318 -0.56864,-0.28622 -0.97316,-0.30912c-0.38927,-0.0229 -0.7022,0.03816 -0.93881,0.18318c-0.2366,0.13738 -0.35491,0.3282 -0.35491,0.57245c0,0.14502 0.04579,0.26714 0.13738,0.36637c0.09922,0.09922 0.29386,0.19844 0.58389,0.29766c0.29004,0.09922 0.72128,0.22517 1.29373,0.37782c0.58771,0.14502 1.05711,0.31675 1.40821,0.51519c0.35874,0.19081 0.61443,0.41979 0.76708,0.68694c0.16029,0.26714 0.24043,0.59535 0.24043,0.98461c0,0.74036 -0.27095,1.32425 -0.81287,1.75168c-0.54192,0.41979 -1.2861,0.62969 -2.23254,0.62969zM44.81782,139.6858c-0.48085,0.09159 -0.95789,0.12976 -1.43111,0.11449c-0.46559,-0.00763 -0.88156,-0.09159 -1.24793,-0.25187c-0.36637,-0.16028 -0.64877,-0.41598 -0.84722,-0.76708c-0.16792,-0.32057 -0.2557,-0.64496 -0.26333,-0.97316c-0.00763,-0.33584 -0.01145,-0.71364 -0.01145,-1.13343v-6.42283h1.6372v6.31979c0,0.29767 0.00382,0.561 0.01145,0.78997c0.00763,0.22135 0.05343,0.40071 0.13739,0.53809c0.16792,0.27478 0.43124,0.42743 0.78997,0.45796c0.35874,0.03053 0.76708,0.01145 1.22503,-0.05724zM39.67726,133.59499v-1.29372h5.14056v1.29372zM46.42069,139.6858v-7.38453h1.45401v1.79747l-0.18318,-0.22897c0.09159,-0.24425 0.21371,-0.4656 0.36636,-0.66404c0.15265,-0.20608 0.33584,-0.37781 0.54955,-0.5152c0.18318,-0.12213 0.38544,-0.21753 0.60679,-0.28622c0.22135,-0.06869 0.44651,-0.11067 0.67548,-0.12594c0.2366,-0.0229 0.46559,-0.01526 0.68694,0.0229v1.5456c-0.22135,-0.06869 -0.47704,-0.09159 -0.76708,-0.06869c-0.2824,0.0229 -0.53811,0.10304 -0.76708,0.24043c-0.22135,0.12213 -0.40452,0.27859 -0.54954,0.4694c-0.14502,0.19081 -0.25188,0.40834 -0.32057,0.65259c-0.06869,0.24425 -0.10304,0.50756 -0.10304,0.78997v3.75524zM54.98972,139.89188c-0.73273,0 -1.37769,-0.16411 -1.93487,-0.49231c-0.54955,-0.33584 -0.97697,-0.7976 -1.28227,-1.38531c-0.29767,-0.58771 -0.4465,-1.25938 -0.4465,-2.01501c0,-0.77853 0.15265,-1.45783 0.45795,-2.0379c0.31294,-0.58771 0.74418,-1.04567 1.29373,-1.37387c0.54955,-0.3282 1.18686,-0.4923 1.91196,-0.4923c0.748,0 1.39677,0.16791 1.94631,0.50375c0.54955,0.3282 0.97697,0.78616 1.28227,1.37387c0.3053,0.58771 0.45796,1.26319 0.45796,2.02645c0,0.76326 -0.15266,1.43875 -0.45796,2.02646c-0.3053,0.58007 -0.73654,1.03803 -1.29373,1.37386c-0.54955,0.3282 -1.1945,0.49231 -1.93486,0.49231zM54.98972,138.34626c0.6564,0 1.14488,-0.21753 1.46545,-0.65258c0.32057,-0.44269 0.48086,-1.00751 0.48086,-1.69443c0,-0.71747 -0.1641,-1.28991 -0.4923,-1.71733c-0.32057,-0.42742 -0.80524,-0.64114 -1.45401,-0.64114c-0.44268,0 -0.80524,0.09923 -1.08765,0.29767c-0.2824,0.19844 -0.49231,0.47704 -0.62969,0.83577c-0.13739,0.3511 -0.20607,0.75944 -0.20607,1.22503c0,0.70983 0.16028,1.27846 0.48085,1.70588c0.3282,0.42742 0.80906,0.64113 1.44257,0.64113zM60.87445,142.97162l1.43111,-3.90407l0.02289,1.14488l-3.21714,-7.91118h1.71733l2.27834,5.85038h-0.43506l2.22109,-5.85038h1.64864l-4.1216,10.67037zM70.78738,139.6858l3.38888,-8.289h-4.29334v-1.55705h6.05647v1.55705l-3.37743,8.289zM80.49605,139.89188c-0.49612,0 -0.96171,-0.10304 -1.39677,-0.30912c-0.43506,-0.20608 -0.80906,-0.4923 -1.12199,-0.85867c-0.30531,-0.36637 -0.52665,-0.78998 -0.66403,-1.27083l1.57995,-0.42361c0.0687,0.25951 0.18701,0.4885 0.35492,0.68694c0.16791,0.19081 0.36636,0.33964 0.59533,0.44651c0.2366,0.09922 0.47704,0.14883 0.72129,0.14883c0.32057,0 0.6106,-0.07632 0.87011,-0.22897c0.26714,-0.16028 0.47704,-0.37018 0.62969,-0.62969c0.16029,-0.25951 0.24043,-0.54955 0.24043,-0.87012c0,-0.32057 -0.08014,-0.6106 -0.24043,-0.87011c-0.16029,-0.25951 -0.374,-0.46559 -0.64114,-0.61823c-0.25951,-0.15265 -0.54572,-0.22897 -0.85866,-0.22897c-0.38163,0 -0.69839,0.06869 -0.95027,0.20608c-0.24425,0.12975 -0.43124,0.27477 -0.56099,0.43506l-1.40821,-0.45796l0.29767,-5.20924h5.34663v1.5456h-4.46507l0.61825,-0.5839l-0.21753,3.6293l-0.29767,-0.36636c0.25187,-0.2366 0.54573,-0.41215 0.88157,-0.52665c0.33584,-0.1145 0.66404,-0.17173 0.98461,-0.17173c0.61061,0 1.15251,0.1412 1.62574,0.42361c0.48085,0.28241 0.85485,0.66403 1.12199,1.14488c0.27478,0.48085 0.41217,1.03039 0.41217,1.64864c0,0.61825 -0.16029,1.17543 -0.48086,1.67155c-0.32057,0.49612 -0.74035,0.89301 -1.25937,1.19068c-0.51902,0.29767 -1.09146,0.44651 -1.71734,0.44651zM86.96106,139.6858l-1.0991,-1.0991l8.75841,-8.74695l1.09909,1.0991zM93.67011,139.89188c-0.45033,0 -0.86248,-0.11067 -1.23648,-0.33202c-0.374,-0.22135 -0.67166,-0.5152 -0.89301,-0.88156c-0.22135,-0.374 -0.33202,-0.78997 -0.33202,-1.24793c0,-0.45032 0.11067,-0.85866 0.33202,-1.22503c0.22898,-0.374 0.53046,-0.67166 0.90446,-0.89301c0.374,-0.22897 0.78235,-0.34347 1.22503,-0.34347c0.45033,0 0.86248,0.11067 1.23648,0.33202c0.374,0.22135 0.67167,0.51902 0.89302,0.89302c0.22135,0.36637 0.33201,0.77853 0.33201,1.23648c0,0.45795 -0.11066,0.87393 -0.33201,1.24793c-0.22135,0.36637 -0.51902,0.66021 -0.89302,0.88156c-0.374,0.22135 -0.78616,0.33202 -1.23648,0.33202zM93.67011,138.48367c0.18318,0 0.35492,-0.04581 0.5152,-0.13739c0.16791,-0.09922 0.29767,-0.22897 0.38926,-0.38925c0.09923,-0.16028 0.14884,-0.33584 0.14884,-0.52665c0,-0.19081 -0.04961,-0.36637 -0.14884,-0.52665c-0.09159,-0.16028 -0.22134,-0.28623 -0.38926,-0.37781c-0.16029,-0.09922 -0.33203,-0.14883 -0.5152,-0.14883c-0.19081,0 -0.36636,0.04961 -0.52665,0.14883c-0.16029,0.09159 -0.29004,0.21753 -0.38927,0.37781c-0.09923,0.16028 -0.14883,0.33584 -0.14883,0.52665c0,0.19081 0.04961,0.36637 0.14883,0.52665c0.09923,0.16028 0.22898,0.29003 0.38927,0.38925c0.16029,0.09159 0.33584,0.13739 0.52665,0.13739zM87.92276,134.55668c-0.45795,0 -0.87392,-0.11067 -1.24792,-0.33202c-0.36637,-0.22135 -0.66021,-0.51519 -0.88156,-0.88156c-0.22135,-0.374 -0.33203,-0.78998 -0.33203,-1.24794c0,-0.44269 0.11068,-0.85103 0.33203,-1.22503c0.22898,-0.374 0.53046,-0.67166 0.90446,-0.89301c0.374,-0.22897 0.78234,-0.34347 1.22503,-0.34347c0.45033,0 0.85867,0.11067 1.22504,0.33202c0.374,0.22135 0.67166,0.51902 0.89301,0.89302c0.22135,0.374 0.33201,0.78615 0.33201,1.23647c0,0.45795 -0.11066,0.87394 -0.33201,1.24794c-0.22135,0.36637 -0.51901,0.66021 -0.89301,0.88156c-0.36637,0.22135 -0.77471,0.33202 -1.22504,0.33202zM87.92276,133.14847c0.19081,0 0.36256,-0.04579 0.51521,-0.13738c0.16029,-0.09922 0.28621,-0.22898 0.3778,-0.38926c0.09923,-0.16028 0.14884,-0.33584 0.14884,-0.52665c0,-0.19081 -0.04961,-0.36637 -0.14884,-0.52665c-0.09159,-0.16028 -0.21752,-0.28622 -0.3778,-0.37781c-0.15265,-0.09922 -0.3244,-0.14884 -0.51521,-0.14884c-0.19845,0 -0.37781,0.04962 -0.53809,0.14884c-0.15265,0.09159 -0.27859,0.21753 -0.37782,0.37781c-0.09159,0.16028 -0.13738,0.33584 -0.13738,0.52665c0,0.19081 0.04579,0.36637 0.13738,0.52665c0.09923,0.16028 0.22517,0.29004 0.37782,0.38926c0.16029,0.09159 0.33965,0.13738 0.53809,0.13738zM103.89396,139.89188c-0.73273,0 -1.37768,-0.16411 -1.93487,-0.49231c-0.54954,-0.33584 -0.97697,-0.7976 -1.28228,-1.38531c-0.29767,-0.58771 -0.44651,-1.25938 -0.44651,-2.01501c0,-0.77853 0.15265,-1.45783 0.45795,-2.0379c0.31294,-0.58771 0.74418,-1.04567 1.29372,-1.37387c0.54954,-0.3282 1.18687,-0.4923 1.91197,-0.4923c0.748,0 1.39676,0.16791 1.9463,0.50375c0.54954,0.3282 0.97697,0.78616 1.28228,1.37387c0.30531,0.58771 0.45795,1.26319 0.45795,2.02645c0,0.76326 -0.15265,1.43875 -0.45795,2.02646c-0.30531,0.58007 -0.73655,1.03803 -1.29373,1.37386c-0.54954,0.3282 -1.1945,0.49231 -1.93485,0.49231zM103.89396,138.34626c0.65641,0 1.14488,-0.21753 1.46545,-0.65258c0.32057,-0.44269 0.48085,-1.00751 0.48085,-1.69443c0,-0.71747 -0.1641,-1.28991 -0.4923,-1.71733c-0.32057,-0.42742 -0.80523,-0.64114 -1.454,-0.64114c-0.44268,0 -0.80524,0.09923 -1.08765,0.29767c-0.2824,0.19844 -0.49231,0.47704 -0.62969,0.83577c-0.13738,0.3511 -0.20608,0.75944 -0.20608,1.22503c0,0.70983 0.16029,1.27846 0.48086,1.70588c0.3282,0.42742 0.80906,0.64113 1.44257,0.64113zM109.73166,139.6858v-7.49902c0,-0.18318 0.00382,-0.38545 0.01145,-0.6068c0.01527,-0.22897 0.05343,-0.45413 0.11449,-0.67548c0.0687,-0.22897 0.187,-0.43507 0.35492,-0.61825c0.21371,-0.22897 0.43888,-0.38926 0.67548,-0.48085c0.24425,-0.09159 0.48467,-0.1412 0.72128,-0.14883c0.24425,-0.01527 0.45414,-0.0229 0.62969,-0.0229h0.91591v1.33952h-0.84722c-0.31294,0 -0.54574,0.08014 -0.69839,0.24043c-0.15265,0.16028 -0.22898,0.36636 -0.22898,0.61823v7.85395zM108.54097,133.59499v-1.29372h4.61391v1.29372zM121.30799,139.6858c-0.48085,0.09159 -0.95788,0.12976 -1.43111,0.11449c-0.46559,-0.00763 -0.88156,-0.09159 -1.24793,-0.25187c-0.36637,-0.16028 -0.64878,-0.41598 -0.84722,-0.76708c-0.16791,-0.32057 -0.25569,-0.64496 -0.26332,-0.97316c-0.00763,-0.33584 -0.01145,-0.71364 -0.01145,-1.13343v-6.42283h1.63718v6.31979c0,0.29767 0.00382,0.561 0.01145,0.78997c0.00763,0.22135 0.05343,0.40071 0.13739,0.53809c0.16791,0.27478 0.43124,0.42743 0.78997,0.45796c0.35873,0.03053 0.76708,0.01145 1.22503,-0.05724zM116.16744,133.59499v-1.29372h5.14055v1.29372zM128.01707,139.6858v-3.54916c0,-0.2366 -0.01907,-0.49611 -0.05724,-0.77852c-0.03053,-0.28241 -0.10304,-0.55337 -0.21753,-0.81288c-0.1145,-0.26714 -0.29005,-0.48468 -0.52665,-0.65259c-0.22898,-0.16791 -0.53809,-0.25187 -0.92736,-0.25187c-0.20608,0 -0.41216,0.03435 -0.61824,0.10305c-0.20608,0.06869 -0.39308,0.187 -0.56099,0.35491c-0.16791,0.16791 -0.30149,0.39689 -0.40071,0.68693c-0.09923,0.29004 -0.14884,0.66022 -0.14884,1.11055l-0.97316,-0.42361c0,-0.62588 0.12212,-1.1945 0.36637,-1.70588c0.24425,-0.51138 0.60297,-0.91591 1.07619,-1.21358c0.47322,-0.30531 1.0533,-0.45796 1.74023,-0.45796c0.54954,0 0.99987,0.09159 1.35097,0.27477c0.35873,0.17555 0.64114,0.40835 0.84722,0.69839c0.21371,0.28241 0.37018,0.58389 0.4694,0.90446c0.09922,0.31294 0.1641,0.61442 0.19463,0.90446c0.03053,0.28241 0.0458,0.51139 0.0458,0.68694v4.1216zM122.88797,139.6858v-9.84605h1.47691v5.18635h0.19463v4.6597zM134.81598,139.89188c-0.748,0 -1.4044,-0.16029 -1.96922,-0.48086c-0.56482,-0.3282 -1.00749,-0.77852 -1.32806,-1.35097c-0.31294,-0.57245 -0.46941,-1.23266 -0.46941,-1.98066c0,-0.80906 0.15266,-1.51125 0.45796,-2.1066c0.31294,-0.59535 0.74417,-1.05712 1.29372,-1.38532c0.54954,-0.3282 1.18687,-0.4923 1.91197,-0.4923c0.77089,0 1.42348,0.17937 1.95776,0.5381c0.53428,0.35873 0.93117,0.86629 1.19068,1.5227c0.25951,0.64877 0.35874,1.41585 0.29767,2.30123h-1.6372v-0.60679c-0.00763,-0.80142 -0.14883,-1.38531 -0.4236,-1.75168c-0.27478,-0.374 -0.71365,-0.56099 -1.31663,-0.56099c-0.67166,0 -1.1716,0.20989 -1.4998,0.62968c-0.3282,0.41979 -0.4923,1.0304 -0.4923,1.83183c0,0.748 0.1641,1.32807 0.4923,1.74023c0.3282,0.40453 0.80523,0.60679 1.43111,0.60679c0.40453,0 0.75181,-0.08777 1.04185,-0.26332c0.29767,-0.18318 0.52666,-0.44651 0.68694,-0.78997l1.62573,0.4923c-0.28241,0.66404 -0.71747,1.18305 -1.30517,1.55705c-0.58771,0.36637 -1.23647,0.54955 -1.9463,0.54955zM132.27432,136.4572v-1.24793h5.07186v1.24793zM145.7793,139.89188c-0.748,0 -1.40439,-0.16029 -1.96921,-0.48086c-0.56482,-0.3282 -1.0075,-0.77852 -1.32807,-1.35097c-0.31294,-0.57245 -0.4694,-1.23266 -0.4694,-1.98066c0,-0.80906 0.15265,-1.51125 0.45795,-2.1066c0.31294,-0.59535 0.74418,-1.05712 1.29372,-1.38532c0.54954,-0.3282 1.18687,-0.4923 1.91197,-0.4923c0.77089,0 1.42348,0.17937 1.95776,0.5381c0.53428,0.35873 0.93117,0.86629 1.19069,1.5227c0.25951,0.64877 0.35874,1.41585 0.29767,2.30123h-1.63719v-0.60679c-0.00763,-0.80142 -0.14884,-1.38531 -0.42362,-1.75168c-0.27478,-0.374 -0.71365,-0.56099 -1.31662,-0.56099c-0.67166,0 -1.1716,0.20989 -1.4998,0.62968c-0.3282,0.41979 -0.49231,1.0304 -0.49231,1.83183c0,0.748 0.16411,1.32807 0.49231,1.74023c0.3282,0.40453 0.80524,0.60679 1.43112,0.60679c0.40453,0 0.75181,-0.08777 1.04185,-0.26332c0.29767,-0.18318 0.52665,-0.44651 0.68693,-0.78997l1.62574,0.4923c-0.28241,0.66404 -0.71747,1.18305 -1.30518,1.55705c-0.58771,0.36637 -1.23648,0.54955 -1.94631,0.54955zM143.23764,136.4572v-1.24793h5.07186v1.24793zM155.55516,139.6858v-3.54916c0,-0.2366 -0.01909,-0.49611 -0.05725,-0.77852c-0.03053,-0.28241 -0.10303,-0.55337 -0.21752,-0.81288c-0.1145,-0.26714 -0.29004,-0.48468 -0.52665,-0.65259c-0.22897,-0.16791 -0.53809,-0.25187 -0.92736,-0.25187c-0.20608,0 -0.41216,0.03435 -0.61824,0.10305c-0.20608,0.06869 -0.39308,0.187 -0.56099,0.35491c-0.16791,0.16791 -0.30149,0.39689 -0.40072,0.68693c-0.09922,0.29004 -0.14883,0.66022 -0.14883,1.11055l-0.97318,-0.42361c0,-0.62588 0.12212,-1.1945 0.36638,-1.70588c0.24425,-0.51138 0.60297,-0.91591 1.0762,-1.21358c0.47323,-0.30531 1.0533,-0.45796 1.74023,-0.45796c0.54954,0 0.99987,0.09159 1.35097,0.27477c0.35873,0.17555 0.64114,0.40835 0.84722,0.69839c0.21371,0.28241 0.37018,0.58389 0.4694,0.90446c0.09922,0.31294 0.1641,0.61442 0.19463,0.90446c0.03053,0.28241 0.04579,0.51139 0.04579,0.68694v4.1216zM150.42603,139.6858v-7.38453h1.47693v2.28977h0.19463v5.09476zM162.23778,139.89188c-0.748,0 -1.40439,-0.16029 -1.9692,-0.48086c-0.56482,-0.3282 -1.00751,-0.77852 -1.32808,-1.35097c-0.31294,-0.57245 -0.4694,-1.23266 -0.4694,-1.98066c0,-0.80906 0.15265,-1.51125 0.45795,-2.1066c0.31294,-0.59535 0.74418,-1.05712 1.29372,-1.38532c0.54954,-0.3282 1.18687,-0.4923 1.91197,-0.4923c0.77089,0 1.42348,0.17937 1.95776,0.5381c0.53428,0.35873 0.93117,0.86629 1.19069,1.5227c0.25951,0.64877 0.35874,1.41585 0.29767,2.30123h-1.63719v-0.60679c-0.00763,-0.80142 -0.14883,-1.38531 -0.42361,-1.75168c-0.27478,-0.374 -0.71365,-0.56099 -1.31663,-0.56099c-0.67166,0 -1.1716,0.20989 -1.49981,0.62968c-0.3282,0.41979 -0.4923,1.0304 -0.4923,1.83183c0,0.748 0.1641,1.32807 0.4923,1.74023c0.3282,0.40453 0.80524,0.60679 1.43112,0.60679c0.40453,0 0.75181,-0.08777 1.04185,-0.26332c0.29767,-0.18318 0.52665,-0.44651 0.68694,-0.78997l1.62574,0.4923c-0.28241,0.66404 -0.71747,1.18305 -1.30517,1.55705c-0.58771,0.36637 -1.23648,0.54955 -1.94631,0.54955zM159.69613,136.4572v-1.24793h5.07187v1.24793zM175.76886,139.6858v-4.48797c0,-0.50375 -0.12593,-0.89683 -0.37781,-1.17923c-0.25188,-0.29004 -0.59153,-0.43506 -1.01896,-0.43506c-0.26714,0 -0.50376,0.06106 -0.70983,0.18319c-0.20608,0.12213 -0.374,0.30149 -0.50375,0.53809c-0.12213,0.2366 -0.18318,0.5152 -0.18318,0.83577l-0.73273,-0.43506c0,-0.50375 0.1145,-0.95025 0.34347,-1.33952c0.2366,-0.39689 0.55337,-0.7022 0.95026,-0.91591c0.40453,-0.22135 0.85485,-0.33202 1.35097,-0.33202c0.81669,0 1.44256,0.24425 1.87761,0.73273c0.43506,0.48848 0.65259,1.13344 0.65259,1.93486v4.90013zM166.88451,139.6858v-7.38453h1.46546v2.28977h0.19463v5.09476zM171.33813,139.6858v-4.46507c0,-0.51138 -0.12593,-0.91209 -0.37781,-1.20213c-0.25188,-0.29004 -0.59153,-0.43506 -1.01896,-0.43506c-0.41979,0 -0.75943,0.14502 -1.01895,0.43506c-0.25188,0.29004 -0.37782,0.66404 -0.37782,1.12199l-0.73273,-0.4923c0,-0.48085 0.11831,-0.9121 0.35492,-1.29373c0.2366,-0.38163 0.55719,-0.68311 0.96171,-0.90446c0.40453,-0.22135 0.85485,-0.33202 1.35097,-0.33202c0.55718,0 1.01894,0.11831 1.38531,0.35492c0.374,0.2366 0.65259,0.55718 0.83577,0.9617c0.18318,0.39689 0.27478,0.85104 0.27478,1.36242v4.88868zM179.33412,131.17926v-1.51126h1.63718v1.51126zM179.33412,139.6858v-7.38453h1.63718v7.38454zM186.3857,139.89188c-0.748,0 -1.4044,-0.16029 -1.96922,-0.48086c-0.56482,-0.3282 -1.00749,-0.77852 -1.32806,-1.35097c-0.31294,-0.57245 -0.46941,-1.23266 -0.46941,-1.98066c0,-0.80906 0.15265,-1.51125 0.45796,-2.1066c0.31294,-0.59535 0.74418,-1.05712 1.29373,-1.38532c0.54954,-0.3282 1.18686,-0.4923 1.91196,-0.4923c0.77089,0 1.42348,0.17937 1.95776,0.5381c0.53428,0.35873 0.93117,0.86629 1.19069,1.5227c0.25951,0.64877 0.35874,1.41585 0.29767,2.30123h-1.63719v-0.60679c-0.00763,-0.80142 -0.14883,-1.38531 -0.42361,-1.75168c-0.27478,-0.374 -0.71365,-0.56099 -1.31662,-0.56099c-0.67166,0 -1.17161,0.20989 -1.49981,0.62968c-0.3282,0.41979 -0.4923,1.0304 -0.4923,1.83183c0,0.748 0.1641,1.32807 0.4923,1.74023c0.3282,0.40453 0.80524,0.60679 1.43112,0.60679c0.40453,0 0.7518,-0.08777 1.04184,-0.26332c0.29767,-0.18318 0.52665,-0.44651 0.68694,-0.78997l1.62574,0.4923c-0.28241,0.66404 -0.71747,1.18305 -1.30517,1.55705c-0.58771,0.36637 -1.23648,0.54955 -1.94631,0.54955zM183.84405,136.4572v-1.24793h5.07185v1.24793zM194.11129,139.89188c-0.91591,0 -1.66009,-0.20607 -2.23254,-0.61823c-0.56482,-0.41216 -0.90827,-0.98843 -1.0304,-1.72879l1.68299,-0.26332c0.08396,0.36637 0.27477,0.6564 0.57244,0.87011c0.29767,0.20608 0.67167,0.30912 1.12199,0.30912c0.39689,0 0.70221,-0.07632 0.91592,-0.22897c0.21371,-0.16028 0.32056,-0.37781 0.32056,-0.65259c0,-0.16791 -0.04198,-0.30149 -0.12593,-0.40071c-0.07632,-0.10686 -0.24805,-0.20609 -0.5152,-0.29767c-0.26714,-0.09922 -0.6793,-0.22135 -1.23648,-0.36637c-0.61825,-0.16791 -1.11054,-0.34347 -1.47691,-0.52665c-0.36637,-0.19081 -0.6297,-0.41597 -0.78998,-0.67548c-0.15265,-0.25951 -0.22897,-0.57244 -0.22897,-0.93881c0,-0.46559 0.11831,-0.8663 0.35492,-1.20214c0.24425,-0.34347 0.58008,-0.6068 1.00751,-0.78997c0.43506,-0.19081 0.94644,-0.28622 1.53414,-0.28622c0.58007,0 1.09147,0.09159 1.53415,0.27477c0.44269,0.17555 0.80142,0.42743 1.0762,0.75563c0.27478,0.3282 0.44269,0.71365 0.50375,1.15634l-1.68299,0.29767c-0.03816,-0.31294 -0.17937,-0.56099 -0.42361,-0.74417c-0.24425,-0.18318 -0.56862,-0.28622 -0.97315,-0.30912c-0.38926,-0.0229 -0.70221,0.03816 -0.93882,0.18318c-0.2366,0.13738 -0.35492,0.3282 -0.35492,0.57245c0,0.14502 0.0458,0.26714 0.13739,0.36637c0.09922,0.09922 0.29385,0.19844 0.58389,0.29766c0.29004,0.09922 0.72127,0.22517 1.29372,0.37782c0.58771,0.14502 1.05712,0.31675 1.40822,0.51519c0.35873,0.19081 0.61443,0.41979 0.76708,0.68694c0.16028,0.26714 0.24043,0.59535 0.24043,0.98461c0,0.74036 -0.27096,1.32425 -0.81288,1.75168c-0.54191,0.41979 -1.28609,0.62969 -2.23253,0.62969z" fill="#01ebfc" stroke="#01ebfc" stroke-width="0.25" stroke-linecap="square"/><path d="M15.4608,196.09895v-9.84606h3.137c0.07633,0 0.23661,0.00382 0.48085,0.01145c0.24424,0.00763 0.48086,0.0229 0.70984,0.04579c0.77852,0.09922 1.43874,0.37781 1.98066,0.83577c0.54191,0.45032 0.95025,1.02659 1.22503,1.72879c0.27478,0.7022 0.41217,1.46927 0.41217,2.30122c0,0.83195 -0.13739,1.59903 -0.41217,2.30123c-0.27478,0.7022 -0.68312,1.28228 -1.22503,1.74024c-0.54191,0.45032 -1.20213,0.7251 -1.98066,0.82432c-0.22135,0.03053 -0.45796,0.04961 -0.70984,0.05724c-0.24424,0 -0.40453,0 -0.48085,0zM17.13235,194.5419h1.46545c0.13738,0 0.30912,-0.00382 0.5152,-0.01145c0.21371,-0.00763 0.40453,-0.02671 0.57245,-0.05724c0.45795,-0.08396 0.83194,-0.29004 1.12198,-0.61824c0.29767,-0.3282 0.51521,-0.7251 0.65259,-1.19069c0.13738,-0.47323 0.20608,-0.96934 0.20608,-1.48836c0,-0.53428 -0.07251,-1.03421 -0.21753,-1.4998c-0.13738,-0.47323 -0.35491,-0.86631 -0.65258,-1.17925c-0.29004,-0.32057 -0.66022,-0.52665 -1.11054,-0.61823c-0.16792,-0.03053 -0.35874,-0.04961 -0.57245,-0.05724c-0.20608,-0.00763 -0.37782,-0.01145 -0.5152,-0.01145h-1.46545zM28.39115,196.30503c-0.74799,0 -1.4044,-0.16029 -1.96921,-0.48086c-0.56481,-0.3282 -1.00751,-0.77851 -1.32808,-1.35096c-0.31294,-0.57245 -0.4694,-1.23266 -0.4694,-1.98066c0,-0.80906 0.15265,-1.51125 0.45795,-2.1066c0.31294,-0.59535 0.74419,-1.05712 1.29373,-1.38532c0.54954,-0.3282 1.18687,-0.49231 1.91197,-0.49231c0.77089,0 1.42347,0.17937 1.95775,0.5381c0.53428,0.35873 0.93118,0.8663 1.19069,1.52271c0.25951,0.64877 0.35873,1.41584 0.29767,2.30123h-1.63719v-0.6068c-0.00763,-0.80142 -0.14883,-1.38531 -0.42361,-1.75168c-0.27477,-0.374 -0.71365,-0.561 -1.31662,-0.561c-0.67167,0 -1.17161,0.2099 -1.49981,0.62969c-0.3282,0.41979 -0.4923,1.03039 -0.4923,1.83182c0,0.748 0.1641,1.32808 0.4923,1.74024c0.3282,0.40453 0.80524,0.60679 1.43112,0.60679c0.40452,0 0.75181,-0.08778 1.04185,-0.26333c0.29767,-0.18318 0.52664,-0.4465 0.68693,-0.78997l1.62575,0.4923c-0.28241,0.66404 -0.71746,1.18305 -1.30517,1.55705c-0.58771,0.36637 -1.23648,0.54954 -1.94631,0.54954zM25.84949,192.87036v-1.24794h5.07186v1.24794zM36.11674,196.30503c-0.91591,0 -1.66008,-0.20608 -2.23253,-0.61824c-0.56482,-0.41216 -0.90828,-0.98843 -1.0304,-1.72879l1.68299,-0.26332c0.08396,0.36637 0.27477,0.65641 0.57244,0.87011c0.29767,0.20608 0.67167,0.30912 1.12199,0.30912c0.39689,0 0.7022,-0.07632 0.91591,-0.22897c0.21371,-0.16028 0.32057,-0.37781 0.32057,-0.65259c0,-0.16791 -0.04198,-0.30149 -0.12593,-0.40071c-0.07632,-0.10686 -0.24806,-0.20608 -0.5152,-0.29767c-0.26714,-0.09922 -0.6793,-0.22136 -1.23649,-0.36637c-0.61825,-0.16791 -1.11053,-0.34347 -1.4769,-0.52665c-0.36637,-0.19081 -0.62969,-0.41597 -0.78998,-0.67548c-0.15265,-0.25951 -0.22898,-0.57244 -0.22898,-0.93881c0,-0.46559 0.11831,-0.86631 0.35492,-1.20214c0.24424,-0.34347 0.58008,-0.6068 1.0075,-0.78997c0.43505,-0.19081 0.94644,-0.28623 1.53415,-0.28623c0.58008,0 1.09147,0.0916 1.53415,0.27478c0.44268,0.17555 0.80143,0.42742 1.0762,0.75562c0.27477,0.3282 0.44268,0.71365 0.50375,1.15634l-1.68299,0.29767c-0.03816,-0.31294 -0.17936,-0.561 -0.42361,-0.74418c-0.24424,-0.18318 -0.56864,-0.28621 -0.97316,-0.30911c-0.38927,-0.0229 -0.7022,0.03816 -0.93881,0.18318c-0.2366,0.13738 -0.35491,0.3282 -0.35491,0.57244c0,0.14502 0.04579,0.26714 0.13738,0.36637c0.09922,0.09922 0.29386,0.19844 0.58389,0.29766c0.29004,0.09922 0.72128,0.22517 1.29373,0.37782c0.58771,0.14502 1.05711,0.31676 1.40821,0.5152c0.35874,0.19081 0.61443,0.41978 0.76708,0.68693c0.16029,0.26714 0.24043,0.59535 0.24043,0.98461c0,0.74036 -0.27095,1.32426 -0.81287,1.75168c-0.54192,0.41979 -1.2861,0.62969 -2.23254,0.62969zM44.98449,196.09895c-0.48085,0.09159 -0.95789,0.12976 -1.43111,0.11449c-0.46559,-0.00763 -0.88156,-0.09159 -1.24793,-0.25187c-0.36637,-0.16028 -0.64877,-0.41598 -0.84722,-0.76708c-0.16792,-0.32057 -0.2557,-0.64496 -0.26333,-0.97316c-0.00763,-0.33584 -0.01145,-0.71365 -0.01145,-1.13344v-6.42283h1.6372v6.31979c0,0.29767 0.00382,0.561 0.01145,0.78997c0.00763,0.22135 0.05343,0.40071 0.13739,0.5381c0.16792,0.27478 0.43124,0.42742 0.78997,0.45795c0.35874,0.03053 0.76708,0.01145 1.22503,-0.05724zM39.84393,190.00812v-1.29372h5.14056v1.29372zM46.58736,196.09895v-7.38454h1.45401v1.79748l-0.18318,-0.22898c0.09159,-0.24425 0.21371,-0.4656 0.36636,-0.66404c0.15265,-0.20608 0.33584,-0.37781 0.54955,-0.5152c0.18318,-0.12213 0.38544,-0.21753 0.60679,-0.28622c0.22135,-0.06869 0.44651,-0.11067 0.67548,-0.12594c0.2366,-0.0229 0.46559,-0.01526 0.68694,0.0229v1.5456c-0.22135,-0.06869 -0.47704,-0.09159 -0.76708,-0.06869c-0.2824,0.0229 -0.53811,0.10304 -0.76708,0.24043c-0.22135,0.12213 -0.40452,0.27859 -0.54954,0.4694c-0.14502,0.19081 -0.25188,0.40834 -0.32057,0.65259c-0.06869,0.24425 -0.10304,0.50758 -0.10304,0.78998v3.75523zM55.15639,196.30503c-0.73273,0 -1.37769,-0.1641 -1.93487,-0.4923c-0.54955,-0.33584 -0.97697,-0.79761 -1.28227,-1.38532c-0.29767,-0.58771 -0.4465,-1.25938 -0.4465,-2.01501c0,-0.77853 0.15265,-1.45783 0.45795,-2.0379c0.31294,-0.58771 0.74418,-1.04567 1.29373,-1.37387c0.54955,-0.3282 1.18686,-0.49231 1.91196,-0.49231c0.748,0 1.39677,0.16792 1.94631,0.50376c0.54955,0.3282 0.97697,0.78616 1.28227,1.37387c0.3053,0.58771 0.45796,1.26319 0.45796,2.02645c0,0.76326 -0.15266,1.43875 -0.45796,2.02646c-0.3053,0.58007 -0.73654,1.03803 -1.29373,1.37386c-0.54955,0.3282 -1.1945,0.4923 -1.93486,0.4923zM55.15639,194.75943c0.6564,0 1.14488,-0.21753 1.46545,-0.65259c0.32057,-0.44269 0.48086,-1.00751 0.48086,-1.69444c0,-0.71747 -0.1641,-1.28991 -0.4923,-1.71733c-0.32057,-0.42742 -0.80524,-0.64114 -1.45401,-0.64114c-0.44268,0 -0.80524,0.09923 -1.08765,0.29767c-0.2824,0.19844 -0.49231,0.47704 -0.62969,0.83577c-0.13739,0.3511 -0.20607,0.75944 -0.20607,1.22503c0,0.70983 0.16028,1.27847 0.48085,1.70589c0.3282,0.42742 0.80906,0.64114 1.44257,0.64114zM61.04112,199.38478l1.43111,-3.90407l0.02289,1.14489l-3.21714,-7.91119h1.71733l2.27834,5.85039h-0.43506l2.22109,-5.85039h1.64864l-4.1216,10.67037zM72.16763,196.09895v-8.04858l-1.84327,1.13344v-1.82037l1.84327,-1.11055h1.68299v9.84606zM79.98693,196.30503c-0.7022,0 -1.32045,-0.14883 -1.85473,-0.44651c-0.52665,-0.29767 -0.93881,-0.71365 -1.23648,-1.24793c-0.29767,-0.53428 -0.44651,-1.14871 -0.44651,-1.84327v-3.17135c0,-0.7022 0.14884,-1.31662 0.44651,-1.84327c0.29767,-0.53428 0.70983,-0.95026 1.23648,-1.24793c0.53428,-0.30531 1.15252,-0.45796 1.85473,-0.45796c0.69456,0 1.30517,0.15265 1.83182,0.45796c0.53428,0.29767 0.95026,0.71365 1.24793,1.24793c0.30531,0.52665 0.45796,1.14107 0.45796,1.84327v3.17135c0,0.69457 -0.15265,1.30899 -0.45796,1.84327c-0.29767,0.53428 -0.71365,0.95026 -1.24793,1.24793c-0.52665,0.29767 -1.13725,0.44651 -1.83182,0.44651zM79.98693,194.73653c0.34347,0 0.65641,-0.08015 0.93881,-0.24043c0.2824,-0.16791 0.50375,-0.39308 0.66403,-0.67548c0.16791,-0.28241 0.25187,-0.59534 0.25187,-0.93881v-3.41177c0,-0.3511 -0.08396,-0.66404 -0.25187,-0.93881c-0.16029,-0.28241 -0.38163,-0.50757 -0.66403,-0.67549c-0.2824,-0.16791 -0.59534,-0.25188 -0.93881,-0.25188c-0.3511,0 -0.66786,0.08396 -0.95026,0.25188c-0.2824,0.16791 -0.50757,0.39308 -0.67549,0.67549c-0.16029,0.27478 -0.24043,0.58771 -0.24043,0.93881v3.41177c0,0.34347 0.08014,0.6564 0.24043,0.93881c0.16791,0.28241 0.39308,0.50757 0.67549,0.67548c0.2824,0.16028 0.59916,0.24043 0.95026,0.24043zM88.98177,196.30503c-0.7022,0 -1.32044,-0.14883 -1.85472,-0.44651c-0.52665,-0.29767 -0.93881,-0.71365 -1.23648,-1.24793c-0.29767,-0.53428 -0.44651,-1.14871 -0.44651,-1.84327v-3.17135c0,-0.7022 0.14884,-1.31662 0.44651,-1.84327c0.29767,-0.53428 0.70983,-0.95026 1.23648,-1.24793c0.53428,-0.30531 1.15252,-0.45796 1.85472,-0.45796c0.69456,0 1.30518,0.15265 1.83183,0.45796c0.53428,0.29767 0.95026,0.71365 1.24793,1.24793c0.30531,0.52665 0.45796,1.14107 0.45796,1.84327v3.17135c0,0.69457 -0.15265,1.30899 -0.45796,1.84327c-0.29767,0.53428 -0.71365,0.95026 -1.24793,1.24793c-0.52665,0.29767 -1.13726,0.44651 -1.83183,0.44651zM88.98177,194.73653c0.34347,0 0.65641,-0.08015 0.93882,-0.24043c0.2824,-0.16791 0.50375,-0.39308 0.66403,-0.67548c0.16791,-0.28241 0.25187,-0.59534 0.25187,-0.93881v-3.41177c0,-0.3511 -0.08396,-0.66404 -0.25187,-0.93881c-0.16029,-0.28241 -0.38163,-0.50757 -0.66403,-0.67549c-0.2824,-0.16791 -0.59535,-0.25188 -0.93882,-0.25188c-0.3511,0 -0.66785,0.08396 -0.95025,0.25188c-0.2824,0.16791 -0.50757,0.39308 -0.67549,0.67549c-0.16029,0.27478 -0.24042,0.58771 -0.24042,0.93881v3.41177c0,0.34347 0.08014,0.6564 0.24042,0.93881c0.16791,0.28241 0.39308,0.50757 0.67549,0.67548c0.2824,0.16028 0.59915,0.24043 0.95025,0.24043zM95.80134,196.09895l-1.09909,-1.0991l8.7584,-8.74696l1.09909,1.0991zM102.5104,196.30503c-0.45033,0 -0.86249,-0.11067 -1.23649,-0.33202c-0.374,-0.22135 -0.67167,-0.5152 -0.89302,-0.88156c-0.22135,-0.374 -0.33201,-0.78997 -0.33201,-1.24793c0,-0.45032 0.11066,-0.85866 0.33201,-1.22503c0.22898,-0.374 0.53046,-0.67166 0.90446,-0.89301c0.374,-0.22897 0.78236,-0.34347 1.22504,-0.34347c0.45033,0 0.86248,0.11067 1.23648,0.33202c0.374,0.22135 0.67166,0.51901 0.89301,0.89301c0.22135,0.36637 0.33201,0.77853 0.33201,1.23648c0,0.45795 -0.11066,0.87393 -0.33201,1.24793c-0.22135,0.36637 -0.51901,0.66021 -0.89301,0.88156c-0.374,0.22135 -0.78615,0.33202 -1.23648,0.33202zM102.5104,194.89681c0.18318,0 0.35491,-0.0458 0.5152,-0.13739c0.16791,-0.09922 0.29767,-0.22898 0.38926,-0.38926c0.09923,-0.16028 0.14884,-0.33584 0.14884,-0.52665c0,-0.19081 -0.04961,-0.36637 -0.14884,-0.52665c-0.09159,-0.16028 -0.22135,-0.28623 -0.38926,-0.37782c-0.16029,-0.09922 -0.33202,-0.14883 -0.5152,-0.14883c-0.19081,0 -0.36637,0.0496 -0.52665,0.14883c-0.16029,0.09159 -0.29004,0.21753 -0.38927,0.37782c-0.09923,0.16028 -0.14883,0.33584 -0.14883,0.52665c0,0.19081 0.04961,0.36637 0.14883,0.52665c0.09923,0.16028 0.22898,0.29004 0.38927,0.38926c0.16029,0.09159 0.33584,0.13739 0.52665,0.13739zM96.76305,190.96984c-0.45795,0 -0.87393,-0.11067 -1.24793,-0.33202c-0.36637,-0.22135 -0.66021,-0.5152 -0.88156,-0.88156c-0.22135,-0.374 -0.33201,-0.78998 -0.33201,-1.24794c0,-0.44269 0.11066,-0.85102 0.33201,-1.22502c0.22898,-0.374 0.53046,-0.67166 0.90446,-0.89301c0.374,-0.22897 0.78235,-0.34347 1.22503,-0.34347c0.45033,0 0.85866,0.11068 1.22503,0.33203c0.374,0.22135 0.67167,0.51901 0.89302,0.89301c0.22135,0.374 0.33201,0.78615 0.33201,1.23647c0,0.45795 -0.11066,0.87394 -0.33201,1.24794c-0.22135,0.36637 -0.51902,0.66021 -0.89302,0.88156c-0.36637,0.22135 -0.7747,0.33202 -1.22503,0.33202zM96.76305,189.56162c0.19081,0 0.36255,-0.04579 0.5152,-0.13738c0.16029,-0.09922 0.28623,-0.22898 0.37781,-0.38926c0.09923,-0.16028 0.14884,-0.33585 0.14884,-0.52666c0,-0.19081 -0.04961,-0.36636 -0.14884,-0.52665c-0.09159,-0.16028 -0.21753,-0.28623 -0.37781,-0.37781c-0.15265,-0.09922 -0.32439,-0.14883 -0.5152,-0.14883c-0.19845,0 -0.37781,0.04961 -0.53809,0.14883c-0.15265,0.09159 -0.27859,0.21753 -0.37781,0.37781c-0.09159,0.16028 -0.13739,0.33584 -0.13739,0.52665c0,0.19081 0.0458,0.36637 0.13739,0.52666c0.09923,0.16028 0.22517,0.29004 0.37781,0.38926c0.16029,0.09159 0.33965,0.13738 0.53809,0.13738zM112.73422,196.30503c-0.73273,0 -1.37769,-0.1641 -1.93487,-0.4923c-0.54954,-0.33584 -0.97697,-0.79761 -1.28227,-1.38532c-0.29767,-0.58771 -0.44651,-1.25938 -0.44651,-2.01501c0,-0.77853 0.15265,-1.45783 0.45796,-2.0379c0.31294,-0.58771 0.74418,-1.04567 1.29372,-1.37387c0.54954,-0.3282 1.18687,-0.49231 1.91197,-0.49231c0.748,0 1.39676,0.16792 1.94631,0.50376c0.54954,0.3282 0.97697,0.78616 1.28227,1.37387c0.30531,0.58771 0.45795,1.26319 0.45795,2.02645c0,0.76326 -0.15265,1.43875 -0.45795,2.02646c-0.30531,0.58007 -0.73655,1.03803 -1.29373,1.37386c-0.54954,0.3282 -1.1945,0.4923 -1.93485,0.4923zM112.73422,194.75943c0.65641,0 1.14488,-0.21753 1.46545,-0.65259c0.32057,-0.44269 0.48086,-1.00751 0.48086,-1.69444c0,-0.71747 -0.1641,-1.28991 -0.4923,-1.71733c-0.32057,-0.42742 -0.80524,-0.64114 -1.45401,-0.64114c-0.44268,0 -0.80524,0.09923 -1.08765,0.29767c-0.2824,0.19844 -0.49231,0.47704 -0.62969,0.83577c-0.13738,0.3511 -0.20608,0.75944 -0.20608,1.22503c0,0.70983 0.16028,1.27847 0.48085,1.70589c0.3282,0.42742 0.80907,0.64114 1.44257,0.64114zM118.57192,196.09895v-7.49903c0,-0.18318 0.00382,-0.38545 0.01145,-0.6068c0.01527,-0.22897 0.05342,-0.45413 0.11449,-0.67548c0.0687,-0.22897 0.187,-0.43507 0.35492,-0.61825c0.21371,-0.22897 0.43888,-0.38926 0.67548,-0.48085c0.24425,-0.09159 0.48468,-0.1412 0.72128,-0.14883c0.24425,-0.01527 0.45414,-0.0229 0.62969,-0.0229h0.91591v1.33953h-0.84721c-0.31294,0 -0.54574,0.08014 -0.69839,0.24043c-0.15265,0.16028 -0.22898,0.36636 -0.22898,0.61823v7.85395zM117.38124,190.00812v-1.29372h4.61391v1.29372zM130.14828,196.09895c-0.48085,0.09159 -0.95788,0.12976 -1.43111,0.11449c-0.46559,-0.00763 -0.88156,-0.09159 -1.24793,-0.25187c-0.36637,-0.16028 -0.64877,-0.41598 -0.84722,-0.76708c-0.16791,-0.32057 -0.25569,-0.64496 -0.26332,-0.97316c-0.00763,-0.33584 -0.01145,-0.71365 -0.01145,-1.13344v-6.42283h1.63719v6.31979c0,0.29767 0.00381,0.561 0.01144,0.78997c0.00763,0.22135 0.05344,0.40071 0.13739,0.5381c0.16791,0.27478 0.43124,0.42742 0.78997,0.45795c0.35873,0.03053 0.76708,0.01145 1.22503,-0.05724zM125.00773,190.00812v-1.29372h5.14055v1.29372zM136.85735,196.09895v-3.54916c0,-0.2366 -0.01907,-0.49612 -0.05724,-0.77853c-0.03053,-0.28241 -0.10304,-0.55337 -0.21753,-0.81288c-0.1145,-0.26714 -0.29005,-0.48467 -0.52666,-0.65258c-0.22897,-0.16791 -0.53809,-0.25188 -0.92735,-0.25188c-0.20608,0 -0.41217,0.03435 -0.61825,0.10305c-0.20608,0.06869 -0.39308,0.187 -0.561,0.35492c-0.16791,0.16791 -0.30149,0.39689 -0.40071,0.68693c-0.09922,0.29004 -0.14883,0.66022 -0.14883,1.11054l-0.97315,-0.42361c0,-0.62588 0.12212,-1.1945 0.36637,-1.70588c0.24425,-0.51138 0.60297,-0.91591 1.07619,-1.21358c0.47323,-0.30531 1.0533,-0.45796 1.74023,-0.45796c0.54954,0 0.99987,0.0916 1.35097,0.27478c0.35873,0.17555 0.64114,0.40834 0.84722,0.69838c0.21371,0.28241 0.37018,0.58389 0.4694,0.90446c0.09922,0.31294 0.1641,0.61443 0.19463,0.90447c0.03053,0.28241 0.04579,0.51138 0.04579,0.68693v4.12161zM131.72825,196.09895v-9.84606h1.4769v5.18635h0.19464v4.6597zM143.65624,196.30503c-0.748,0 -1.4044,-0.16029 -1.96921,-0.48086c-0.56482,-0.3282 -1.0075,-0.77851 -1.32807,-1.35096c-0.31294,-0.57245 -0.46941,-1.23266 -0.46941,-1.98066c0,-0.80906 0.15266,-1.51125 0.45796,-2.1066c0.31294,-0.59535 0.74418,-1.05712 1.29372,-1.38532c0.54954,-0.3282 1.18686,-0.49231 1.91196,-0.49231c0.77089,0 1.42349,0.17937 1.95777,0.5381c0.53428,0.35873 0.93117,0.8663 1.19068,1.52271c0.25951,0.64877 0.35874,1.41584 0.29767,2.30123h-1.63719v-0.6068c-0.00763,-0.80142 -0.14883,-1.38531 -0.42361,-1.75168c-0.27478,-0.374 -0.71365,-0.561 -1.31662,-0.561c-0.67166,0 -1.17161,0.2099 -1.49981,0.62969c-0.3282,0.41979 -0.4923,1.03039 -0.4923,1.83182c0,0.748 0.1641,1.32808 0.4923,1.74024c0.3282,0.40453 0.80523,0.60679 1.43111,0.60679c0.40453,0 0.75181,-0.08778 1.04185,-0.26333c0.29767,-0.18318 0.52665,-0.4465 0.68694,-0.78997l1.62574,0.4923c-0.28241,0.66404 -0.71746,1.18305 -1.30517,1.55705c-0.58771,0.36637 -1.23648,0.54954 -1.94631,0.54954zM141.11458,192.87036v-1.24794h5.07185v1.24794zM154.61956,196.30503c-0.748,0 -1.40439,-0.16029 -1.96921,-0.48086c-0.56482,-0.3282 -1.0075,-0.77851 -1.32807,-1.35096c-0.31294,-0.57245 -0.4694,-1.23266 -0.4694,-1.98066c0,-0.80906 0.15265,-1.51125 0.45795,-2.1066c0.31294,-0.59535 0.74418,-1.05712 1.29372,-1.38532c0.54954,-0.3282 1.18687,-0.49231 1.91197,-0.49231c0.77089,0 1.42348,0.17937 1.95776,0.5381c0.53428,0.35873 0.93118,0.8663 1.19069,1.52271c0.25951,0.64877 0.35873,1.41584 0.29766,2.30123h-1.63719v-0.6068c-0.00763,-0.80142 -0.14883,-1.38531 -0.42361,-1.75168c-0.27478,-0.374 -0.71365,-0.561 -1.31662,-0.561c-0.67166,0 -1.1716,0.2099 -1.49981,0.62969c-0.3282,0.41979 -0.4923,1.03039 -0.4923,1.83182c0,0.748 0.1641,1.32808 0.4923,1.74024c0.3282,0.40453 0.80524,0.60679 1.43112,0.60679c0.40453,0 0.75181,-0.08778 1.04185,-0.26333c0.29767,-0.18318 0.52665,-0.4465 0.68693,-0.78997l1.62574,0.4923c-0.28241,0.66404 -0.71746,1.18305 -1.30517,1.55705c-0.58771,0.36637 -1.23648,0.54954 -1.94631,0.54954zM152.0779,192.87036v-1.24794h5.07186v1.24794zM164.3954,196.09895v-3.54916c0,-0.2366 -0.01908,-0.49612 -0.05724,-0.77853c-0.03053,-0.28241 -0.10303,-0.55337 -0.21752,-0.81288c-0.1145,-0.26714 -0.29005,-0.48467 -0.52665,-0.65258c-0.22897,-0.16791 -0.5381,-0.25188 -0.92736,-0.25188c-0.20608,0 -0.41216,0.03435 -0.61823,0.10305c-0.20608,0.06869 -0.39309,0.187 -0.561,0.35492c-0.16791,0.16791 -0.30149,0.39689 -0.40071,0.68693c-0.09922,0.29004 -0.14883,0.66022 -0.14883,1.11054l-0.97316,-0.42361c0,-0.62588 0.12212,-1.1945 0.36636,-1.70588c0.24425,-0.51138 0.60297,-0.91591 1.0762,-1.21358c0.47323,-0.30531 1.0533,-0.45796 1.74023,-0.45796c0.54954,0 0.99987,0.0916 1.35097,0.27478c0.35873,0.17555 0.64114,0.40834 0.84722,0.69838c0.21371,0.28241 0.37019,0.58389 0.46941,0.90446c0.09922,0.31294 0.1641,0.61443 0.19463,0.90447c0.03053,0.28241 0.0458,0.51138 0.0458,0.68693v4.12161zM159.26629,196.09895v-7.38454h1.47691v2.28978h0.19463v5.09476zM171.07807,196.30503c-0.748,0 -1.40439,-0.16029 -1.96921,-0.48086c-0.56482,-0.3282 -1.0075,-0.77851 -1.32807,-1.35096c-0.31294,-0.57245 -0.4694,-1.23266 -0.4694,-1.98066c0,-0.80906 0.15265,-1.51125 0.45795,-2.1066c0.31294,-0.59535 0.74418,-1.05712 1.29372,-1.38532c0.54954,-0.3282 1.18687,-0.49231 1.91197,-0.49231c0.77089,0 1.42348,0.17937 1.95776,0.5381c0.53428,0.35873 0.93118,0.8663 1.19069,1.52271c0.25951,0.64877 0.35873,1.41584 0.29766,2.30123h-1.63718v-0.6068c-0.00763,-0.80142 -0.14884,-1.38531 -0.42362,-1.75168c-0.27478,-0.374 -0.71365,-0.561 -1.31662,-0.561c-0.67166,0 -1.1716,0.2099 -1.49981,0.62969c-0.3282,0.41979 -0.4923,1.03039 -0.4923,1.83182c0,0.748 0.1641,1.32808 0.4923,1.74024c0.3282,0.40453 0.80524,0.60679 1.43112,0.60679c0.40453,0 0.7518,-0.08778 1.04184,-0.26333c0.29767,-0.18318 0.52665,-0.4465 0.68693,-0.78997l1.62575,0.4923c-0.28241,0.66404 -0.71747,1.18305 -1.30517,1.55705c-0.58771,0.36637 -1.23648,0.54954 -1.94631,0.54954zM168.53641,192.87036v-1.24794h5.07186v1.24794zM184.60914,196.09895v-4.48798c0,-0.50375 -0.12593,-0.89682 -0.37781,-1.17923c-0.25188,-0.29004 -0.59153,-0.43506 -1.01896,-0.43506c-0.26714,0 -0.50375,0.06106 -0.70983,0.18319c-0.20608,0.12213 -0.374,0.30149 -0.50375,0.53809c-0.12213,0.2366 -0.18318,0.5152 -0.18318,0.83577l-0.73273,-0.43506c0,-0.50375 0.1145,-0.95025 0.34347,-1.33952c0.2366,-0.39689 0.55336,-0.7022 0.95025,-0.91591c0.40453,-0.22135 0.85485,-0.33202 1.35097,-0.33202c0.81669,0 1.44257,0.24424 1.87762,0.73273c0.43506,0.48848 0.65259,1.13344 0.65259,1.93487v4.90013zM175.7248,196.09895v-7.38454h1.46546v2.28978h0.19464v5.09476zM180.17842,196.09895v-4.46508c0,-0.51138 -0.12593,-0.91209 -0.37781,-1.20213c-0.25188,-0.29004 -0.59153,-0.43506 -1.01895,-0.43506c-0.41979,0 -0.75944,0.14502 -1.01895,0.43506c-0.25188,0.29004 -0.37781,0.66403 -0.37781,1.12199l-0.73273,-0.4923c0,-0.48085 0.11831,-0.91209 0.35491,-1.29372c0.2366,-0.38163 0.55719,-0.68311 0.96171,-0.90446c0.40453,-0.22135 0.85485,-0.33202 1.35097,-0.33202c0.55718,0 1.01895,0.11831 1.38532,0.35492c0.374,0.2366 0.65259,0.55718 0.83577,0.9617c0.18318,0.39689 0.27477,0.85104 0.27477,1.36242v4.88868zM188.1744,187.59241v-1.51125h1.63719v1.51125zM188.1744,196.09895v-7.38454h1.63719v7.38454zM195.22598,196.30503c-0.748,0 -1.40439,-0.16029 -1.96921,-0.48086c-0.56482,-0.3282 -1.0075,-0.77851 -1.32807,-1.35096c-0.31294,-0.57245 -0.46941,-1.23266 -0.46941,-1.98066c0,-0.80906 0.15266,-1.51125 0.45796,-2.1066c0.31294,-0.59535 0.74418,-1.05712 1.29372,-1.38532c0.54954,-0.3282 1.18686,-0.49231 1.91196,-0.49231c0.77089,0 1.42348,0.17937 1.95776,0.5381c0.53428,0.35873 0.93118,0.8663 1.19069,1.52271c0.25951,0.64877 0.35874,1.41584 0.29767,2.30123h-1.63719v-0.6068c-0.00763,-0.80142 -0.14883,-1.38531 -0.42361,-1.75168c-0.27478,-0.374 -0.71365,-0.561 -1.31662,-0.561c-0.67166,0 -1.1716,0.2099 -1.49981,0.62969c-0.3282,0.41979 -0.4923,1.03039 -0.4923,1.83182c0,0.748 0.1641,1.32808 0.4923,1.74024c0.3282,0.40453 0.80523,0.60679 1.43111,0.60679c0.40453,0 0.75181,-0.08778 1.04185,-0.26333c0.29767,-0.18318 0.52665,-0.4465 0.68694,-0.78997l1.62574,0.4923c-0.28241,0.66404 -0.71747,1.18305 -1.30518,1.55705c-0.58771,0.36637 -1.23648,0.54954 -1.94631,0.54954zM192.68433,192.87036v-1.24794h5.07186v1.24794zM202.95153,196.30503c-0.91591,0 -1.66009,-0.20608 -2.23254,-0.61824c-0.56482,-0.41216 -0.90828,-0.98843 -1.0304,-1.72879l1.68299,-0.26332c0.08396,0.36637 0.27478,0.65641 0.57245,0.87011c0.29767,0.20608 0.67166,0.30912 1.12199,0.30912c0.39689,0 0.7022,-0.07632 0.91591,-0.22897c0.21371,-0.16028 0.32057,-0.37781 0.32057,-0.65259c0,-0.16791 -0.04198,-0.30149 -0.12594,-0.40071c-0.07632,-0.10686 -0.24806,-0.20608 -0.5152,-0.29767c-0.26714,-0.09922 -0.6793,-0.22136 -1.23648,-0.36637c-0.61825,-0.16791 -1.11054,-0.34347 -1.47691,-0.52665c-0.36637,-0.19081 -0.62969,-0.41597 -0.78997,-0.67548c-0.15265,-0.25951 -0.22897,-0.57244 -0.22897,-0.93881c0,-0.46559 0.11831,-0.86631 0.35492,-1.20214c0.24425,-0.34347 0.58008,-0.6068 1.00751,-0.78997c0.43506,-0.19081 0.94644,-0.28623 1.53415,-0.28623c0.58007,0 1.09147,0.0916 1.53415,0.27478c0.44269,0.17555 0.80141,0.42742 1.07619,0.75562c0.27478,0.3282 0.44269,0.71365 0.50376,1.15634l-1.68299,0.29767c-0.03816,-0.31294 -0.17937,-0.561 -0.42362,-0.74418c-0.24425,-0.18318 -0.56862,-0.28621 -0.97315,-0.30911c-0.38926,-0.0229 -0.70221,0.03816 -0.93881,0.18318c-0.2366,0.13738 -0.35492,0.3282 -0.35492,0.57244c0,0.14502 0.0458,0.26714 0.13739,0.36637c0.09922,0.09922 0.29385,0.19844 0.58389,0.29766c0.29004,0.09922 0.72127,0.22517 1.29372,0.37782c0.58771,0.14502 1.05711,0.31676 1.40821,0.5152c0.35873,0.19081 0.61443,0.41978 0.76708,0.68693c0.16028,0.26714 0.24042,0.59535 0.24042,0.98461c0,0.74036 -0.27096,1.32426 -0.81287,1.75168c-0.54191,0.41979 -1.28609,0.62969 -2.23253,0.62969z" fill="#01ebfc" stroke="#01ebfc" stroke-width="0.25" stroke-linecap="square"/><path d="M15.79413,251.51208v-9.84605h1.6601l4.5681,6.93803v-6.93803h1.67154v9.84605h-1.67154l-4.5681,-6.93803v6.93803zM28.86065,251.71817c-0.73272,0 -1.37767,-0.1641 -1.93485,-0.4923c-0.54954,-0.33584 -0.97697,-0.79761 -1.28228,-1.38531c-0.29767,-0.58771 -0.44651,-1.25939 -0.44651,-2.01501c0,-0.77853 0.15265,-1.45783 0.45795,-2.0379c0.31294,-0.58771 0.74418,-1.04566 1.29373,-1.37386c0.54954,-0.3282 1.18686,-0.49231 1.91196,-0.49231c0.74799,0 1.39677,0.16792 1.94632,0.50376c0.54954,0.3282 0.97697,0.78616 1.28228,1.37387c0.3053,0.58771 0.45795,1.26319 0.45795,2.02645c0,0.76326 -0.15265,1.43875 -0.45795,2.02646c-0.3053,0.58007 -0.73655,1.03803 -1.29373,1.37386c-0.54954,0.3282 -1.19451,0.4923 -1.93487,0.4923zM28.86065,250.17256c0.6564,0 1.1449,-0.21753 1.46547,-0.65258c0.32057,-0.44269 0.48085,-1.00751 0.48085,-1.69444c0,-0.71747 -0.1641,-1.28991 -0.4923,-1.71733c-0.32057,-0.42742 -0.80525,-0.64114 -1.45402,-0.64114c-0.44269,0 -0.80524,0.09922 -1.08764,0.29767c-0.28241,0.19844 -0.49231,0.47704 -0.62969,0.83577c-0.13738,0.3511 -0.20608,0.75944 -0.20608,1.22503c0,0.70983 0.16029,1.27846 0.48086,1.70588c0.3282,0.42742 0.80905,0.64114 1.44255,0.64114zM36.79123,251.51208v-9.84605h3.13699c0.07632,0 0.23661,0.00382 0.48086,0.01145c0.24424,0.00763 0.48085,0.0229 0.70983,0.04579c0.77853,0.09922 1.43875,0.37781 1.98067,0.83577c0.54192,0.45032 0.95025,1.02659 1.22503,1.72879c0.27477,0.7022 0.41215,1.46927 0.41215,2.30122c0,0.83195 -0.13738,1.59903 -0.41215,2.30123c-0.27477,0.7022 -0.68311,1.28228 -1.22503,1.74024c-0.54192,0.45032 -1.20214,0.7251 -1.98067,0.82432c-0.22135,0.03053 -0.45795,0.04961 -0.70983,0.05724c-0.24424,0 -0.40453,0 -0.48086,0zM38.46277,249.95503h1.46545c0.13739,0 0.30913,-0.00382 0.51521,-0.01145c0.21371,-0.00763 0.40453,-0.02671 0.57245,-0.05724c0.45795,-0.08396 0.83195,-0.29004 1.12199,-0.61824c0.29767,-0.3282 0.5152,-0.7251 0.65259,-1.19069c0.13739,-0.47323 0.20608,-0.96934 0.20608,-1.48836c0,-0.53428 -0.07251,-1.03422 -0.21753,-1.49981c-0.13739,-0.47323 -0.35492,-0.86629 -0.65259,-1.17923c-0.29004,-0.32057 -0.66021,-0.52665 -1.11053,-0.61824c-0.16792,-0.03053 -0.35874,-0.04961 -0.57245,-0.05724c-0.20608,-0.00763 -0.37782,-0.01145 -0.51521,-0.01145h-1.46545zM48.42785,251.71817c-0.53428,0 -0.98841,-0.09922 -1.36241,-0.29767c-0.36637,-0.20608 -0.64496,-0.47704 -0.83577,-0.81288c-0.18318,-0.34347 -0.27478,-0.71747 -0.27478,-1.12199c0,-0.3511 0.05724,-0.66785 0.17174,-0.95025c0.12212,-0.29004 0.3053,-0.53809 0.54954,-0.74417c0.24424,-0.20608 0.56482,-0.37782 0.96171,-0.51521c0.29004,-0.09159 0.63351,-0.17555 1.0304,-0.25188c0.40452,-0.07632 0.83958,-0.14883 1.30517,-0.21753c0.46559,-0.06869 0.95408,-0.14121 1.46546,-0.21753l-0.58389,0.33202c0,-0.50375 -0.1145,-0.87774 -0.34347,-1.12199c-0.22897,-0.24425 -0.62205,-0.36637 -1.17923,-0.36637c-0.3282,0 -0.64877,0.08014 -0.96171,0.24042c-0.3053,0.15265 -0.52283,0.41598 -0.65259,0.78998l-1.49981,-0.46941c0.18318,-0.62588 0.53047,-1.12581 1.04185,-1.49981c0.51138,-0.38163 1.20213,-0.57245 2.07225,-0.57245c0.6564,0 1.23266,0.10687 1.72878,0.32058c0.50375,0.21371 0.87775,0.56481 1.12199,1.05329c0.12976,0.25951 0.20607,0.52665 0.22897,0.80142c0.03053,0.26714 0.04581,0.56099 0.04581,0.88156v4.53376h-1.44256v-1.60285l0.24042,0.26333c-0.33584,0.53428 -0.7251,0.92736 -1.16778,1.17924c-0.44268,0.24425 -0.99606,0.36637 -1.6601,0.36637zM48.75987,250.40154c0.36637,0 0.68312,-0.06488 0.95026,-0.19464c0.26714,-0.12975 0.47704,-0.29004 0.62969,-0.48085c0.16029,-0.19081 0.26714,-0.374 0.32057,-0.54954c0.08396,-0.20608 0.12976,-0.44269 0.13739,-0.70983c0.01527,-0.27478 0.02289,-0.49612 0.02289,-0.66403l0.5152,0.14883c-0.49612,0.07632 -0.92354,0.14501 -1.28227,0.20608c-0.35874,0.06107 -0.66403,0.11831 -0.91591,0.17174c-0.25187,0.04579 -0.47705,0.10304 -0.67549,0.17173c-0.19081,0.06869 -0.35491,0.14884 -0.4923,0.24043c-0.12976,0.09159 -0.22897,0.19844 -0.29767,0.32057c-0.06869,0.1145 -0.10304,0.24806 -0.10304,0.40071c0,0.18318 0.04579,0.34728 0.13738,0.4923c0.09159,0.13738 0.22517,0.24806 0.40072,0.33202c0.17555,0.07632 0.39307,0.11449 0.65258,0.11449zM63.10241,251.51208v-4.48797c0,-0.50375 -0.12594,-0.89683 -0.37782,-1.17923c-0.25187,-0.29004 -0.59153,-0.43506 -1.01895,-0.43506c-0.26714,0 -0.50375,0.06105 -0.70983,0.18318c-0.20608,0.12213 -0.37399,0.30149 -0.50375,0.53809c-0.12212,0.2366 -0.18318,0.51521 -0.18318,0.83578l-0.73274,-0.43507c0,-0.50375 0.1145,-0.95025 0.34347,-1.33952c0.2366,-0.39689 0.55336,-0.7022 0.95025,-0.91591c0.40452,-0.22135 0.85486,-0.33202 1.35097,-0.33202c0.81669,0 1.44256,0.24424 1.87762,0.73273c0.43506,0.48848 0.65259,1.13344 0.65259,1.93487v4.90013zM54.21806,251.51208v-7.38453h1.46546v2.28978h0.19463v5.09475zM58.67169,251.51208v-4.46507c0,-0.51138 -0.12594,-0.91209 -0.37781,-1.20213c-0.25187,-0.29004 -0.59153,-0.43506 -1.01895,-0.43506c-0.41979,0 -0.75944,0.14502 -1.01895,0.43506c-0.25187,0.29004 -0.37781,0.66404 -0.37781,1.12199l-0.73273,-0.49231c0,-0.48085 0.11831,-0.91209 0.35491,-1.29372c0.2366,-0.38163 0.55718,-0.68311 0.96171,-0.90446c0.40452,-0.22135 0.85485,-0.33202 1.35097,-0.33202c0.55718,0 1.01894,0.11831 1.38531,0.35492c0.374,0.2366 0.65259,0.55718 0.83577,0.9617c0.18318,0.39689 0.27478,0.85103 0.27478,1.36241v4.88868zM68.59108,251.71817c-0.53428,0 -0.98842,-0.09922 -1.36241,-0.29767c-0.36637,-0.20608 -0.64497,-0.47704 -0.83578,-0.81288c-0.18318,-0.34347 -0.27477,-0.71747 -0.27477,-1.12199c0,-0.3511 0.05723,-0.66785 0.17172,-0.95025c0.12212,-0.29004 0.3053,-0.53809 0.54955,-0.74417c0.24425,-0.20608 0.56482,-0.37782 0.96171,-0.51521c0.29004,-0.09159 0.63351,-0.17555 1.0304,-0.25188c0.40453,-0.07632 0.83958,-0.14883 1.30518,-0.21753c0.46559,-0.06869 0.95407,-0.14121 1.46545,-0.21753l-0.58389,0.33202c0,-0.50375 -0.11449,-0.87774 -0.34346,-1.12199c-0.22898,-0.24425 -0.62206,-0.36637 -1.17924,-0.36637c-0.3282,0 -0.64877,0.08014 -0.96171,0.24042c-0.30531,0.15265 -0.52283,0.41598 -0.65259,0.78998l-1.49981,-0.46941c0.18318,-0.62588 0.53047,-1.12581 1.04185,-1.49981c0.51139,-0.38163 1.20213,-0.57245 2.07225,-0.57245c0.65641,0 1.23267,0.10687 1.72879,0.32058c0.50375,0.21371 0.87774,0.56481 1.12199,1.05329c0.12976,0.25951 0.20608,0.52665 0.22898,0.80142c0.03053,0.26714 0.04579,0.56099 0.04579,0.88156v4.53376h-1.44256v-1.60285l0.24043,0.26333c-0.33584,0.53428 -0.72511,0.92736 -1.16779,1.17924c-0.44268,0.24425 -0.99605,0.36637 -1.66008,0.36637zM68.9231,250.40154c0.36637,0 0.68312,-0.06488 0.95027,-0.19464c0.26714,-0.12975 0.47703,-0.29004 0.62968,-0.48085c0.16029,-0.19081 0.26714,-0.374 0.32058,-0.54954c0.08396,-0.20608 0.12976,-0.44269 0.13739,-0.70983c0.01527,-0.27478 0.0229,-0.49612 0.0229,-0.66403l0.51519,0.14883c-0.49612,0.07632 -0.92354,0.14501 -1.28227,0.20608c-0.35873,0.06107 -0.66403,0.11831 -0.91591,0.17174c-0.25187,0.04579 -0.47704,0.10304 -0.67548,0.17173c-0.19081,0.06869 -0.35492,0.14884 -0.4923,0.24043c-0.12976,0.09159 -0.22898,0.19844 -0.29768,0.32057c-0.0687,0.1145 -0.10304,0.24806 -0.10304,0.40071c0,0.18318 0.0458,0.34728 0.13739,0.4923c0.09159,0.13738 0.22516,0.24806 0.40071,0.33202c0.17555,0.07632 0.39307,0.11449 0.65259,0.11449zM77.50684,254.99254c-0.41216,0 -0.80905,-0.06488 -1.19068,-0.19463c-0.374,-0.12213 -0.70983,-0.3053 -1.0075,-0.54955c-0.29767,-0.2366 -0.54192,-0.52283 -0.73273,-0.85867l1.51126,-0.74418c0.14502,0.26714 0.34346,0.46559 0.59533,0.59535c0.25951,0.12975 0.53428,0.19464 0.82432,0.19464c0.34347,0 0.64877,-0.06106 0.91591,-0.18319c0.26714,-0.12213 0.47322,-0.30149 0.61824,-0.53809c0.15265,-0.22897 0.22516,-0.51902 0.21753,-0.87012v-2.1066h0.20608v-5.60996h1.44256v7.73946c0,0.19081 -0.00763,0.37018 -0.0229,0.53809c-0.01527,0.16791 -0.04197,0.33584 -0.08014,0.50375c-0.10686,0.47323 -0.31675,0.86248 -0.62969,1.16779c-0.31294,0.31294 -0.69839,0.54192 -1.15634,0.68693c-0.45795,0.15265 -0.96171,0.22898 -1.51126,0.22898zM77.35801,251.71817c-0.6793,0 -1.27083,-0.17173 -1.77458,-0.5152c-0.50375,-0.34347 -0.89683,-0.80906 -1.17924,-1.39676c-0.27478,-0.58771 -0.41215,-1.24794 -0.41215,-1.98067c0,-0.748 0.13738,-1.41585 0.41215,-2.00356c0.2824,-0.58771 0.6793,-1.04948 1.19069,-1.38532c0.51902,-0.34347 1.12581,-0.5152 1.82037,-0.5152c0.7022,0 1.28991,0.17173 1.76314,0.5152c0.48085,0.33584 0.84339,0.79761 1.08764,1.38532c0.25187,0.58771 0.37781,1.25556 0.37781,2.00356c0,0.73272 -0.12594,1.39296 -0.37781,1.98067c-0.24425,0.58771 -0.61061,1.05329 -1.09909,1.39676c-0.48848,0.34347 -1.09146,0.5152 -1.80893,0.5152zM77.60988,250.24126c0.44268,0 0.7976,-0.09923 1.06475,-0.29767c0.27478,-0.20608 0.47322,-0.4923 0.59534,-0.85867c0.12976,-0.36637 0.19464,-0.78615 0.19464,-1.25938c0,-0.48848 -0.06488,-0.91209 -0.19464,-1.27083c-0.12212,-0.36637 -0.31674,-0.64877 -0.58389,-0.84722c-0.25951,-0.20608 -0.59916,-0.30912 -1.01896,-0.30912c-0.44268,0 -0.80905,0.11066 -1.09909,0.33201c-0.2824,0.21371 -0.49231,0.50375 -0.62969,0.87011c-0.13738,0.36637 -0.20608,0.77471 -0.20608,1.22503c0,0.45032 0.06488,0.85867 0.19463,1.22503c0.13738,0.36637 0.34347,0.65641 0.61825,0.87012c0.2824,0.21371 0.63732,0.32057 1.06474,0.32057zM86.17943,251.71817c-0.748,0 -1.4044,-0.16029 -1.96921,-0.48086c-0.56481,-0.3282 -1.0075,-0.77851 -1.32807,-1.35097c-0.31294,-0.57245 -0.46941,-1.23266 -0.46941,-1.98066c0,-0.80906 0.15265,-1.51125 0.45795,-2.10659c0.31294,-0.59535 0.74418,-1.05712 1.29373,-1.38532c0.54954,-0.3282 1.18687,-0.49231 1.91197,-0.49231c0.77089,0 1.42348,0.17937 1.95776,0.5381c0.53428,0.35873 0.93117,0.8663 1.19068,1.52271c0.25951,0.64877 0.35873,1.41584 0.29767,2.30123h-1.63719v-0.6068c-0.00763,-0.80142 -0.14884,-1.38531 -0.42361,-1.75168c-0.27478,-0.374 -0.71364,-0.561 -1.31662,-0.561c-0.67167,0 -1.1716,0.2099 -1.4998,0.62969c-0.3282,0.41979 -0.49231,1.03039 -0.49231,1.83182c0,0.748 0.16411,1.32808 0.49231,1.74024c0.3282,0.40453 0.80524,0.60679 1.43111,0.60679c0.40453,0 0.75181,-0.08778 1.04185,-0.26333c0.29767,-0.18318 0.52665,-0.44649 0.68694,-0.78996l1.62574,0.4923c-0.2824,0.66404 -0.71746,1.18305 -1.30517,1.55705c-0.58771,0.36637 -1.23648,0.54954 -1.94631,0.54954zM83.63777,248.2835v-1.24793h5.07187v1.24793z" fill="#01ebfc" stroke="#01ebfc" stroke-width="0.25" stroke-linecap="square"/></g></g></svg>