<svg version="1.1" xmlns="http://www.w3.org/2000/svg" xmlns:xlink="http://www.w3.org/1999/xlink" width="53.43075" height="75.16726" viewBox="0,0,53.43075,75.16726"><defs><radialGradient cx="239.60402" cy="208.21142" r="8.85134" gradientUnits="userSpaceOnUse" id="color-1"><stop offset="0" stop-color="#fff696"/><stop offset="1" stop-color="#fff696" stop-opacity="0"/></radialGradient><radialGradient cx="239.88933" cy="205.42799" r="12.28963" gradientUnits="userSpaceOnUse" id="color-2"><stop offset="0" stop-color="#fcd81d"/><stop offset="1" stop-color="#fcd81d" stop-opacity="0"/></radialGradient><linearGradient x1="238.40003" y1="155.72478" x2="238.40003" y2="199.68326" gradientUnits="userSpaceOnUse" id="color-3"><stop offset="0" stop-color="#00de98"/><stop offset="1" stop-color="#00386f"/></linearGradient><linearGradient x1="238.40003" y1="155.72478" x2="238.40003" y2="199.68326" gradientUnits="userSpaceOnUse" id="color-4"><stop offset="0" stop-color="#00de98"/><stop offset="1" stop-color="#00386f"/></linearGradient><linearGradient x1="242.69311" y1="167.87076" x2="237.4197" y2="167.87076" gradientUnits="userSpaceOnUse" id="color-5"><stop offset="0" stop-color="#5f5f5f"/><stop offset="1" stop-color="#a8a8a8"/></linearGradient><linearGradient x1="240.01609" y1="161.54812" x2="240.01609" y2="162.48361" gradientUnits="userSpaceOnUse" id="color-6"><stop offset="0" stop-color="#7a7a7a"/><stop offset="1" stop-color="#646464"/></linearGradient><linearGradient x1="252.24818" y1="178.86466" x2="252.24818" y2="200.90383" gradientUnits="userSpaceOnUse" id="color-7"><stop offset="0" stop-color="#00a29c"/><stop offset="1" stop-color="#00478c"/></linearGradient><linearGradient x1="227.87325" y1="178.86466" x2="227.87325" y2="200.90383" gradientUnits="userSpaceOnUse" id="color-8"><stop offset="0" stop-color="#00a29c"/><stop offset="1" stop-color="#00478c"/></linearGradient><linearGradient x1="240.91912" y1="165.17487" x2="240.73659" y2="165.17487" gradientUnits="userSpaceOnUse" id="color-9"><stop offset="0" stop-color="#00eeec"/><stop offset="1" stop-color="#1cfff4"/></linearGradient><linearGradient x1="246.44536" y1="156.23006" x2="246.44536" y2="200.78562" gradientUnits="userSpaceOnUse" id="color-10"><stop offset="0" stop-color="#00ffad"/><stop offset="1" stop-color="#00478c"/></linearGradient><linearGradient x1="246.44536" y1="156.23006" x2="246.44536" y2="200.78562" gradientUnits="userSpaceOnUse" id="color-11"><stop offset="0" stop-color="#00ffad"/><stop offset="1" stop-color="#00478c"/></linearGradient><linearGradient x1="233.87026" y1="156.22213" x2="233.87026" y2="200.77768" gradientUnits="userSpaceOnUse" id="color-12"><stop offset="0" stop-color="#00ffad"/><stop offset="1" stop-color="#00478c"/></linearGradient><linearGradient x1="233.87026" y1="156.22213" x2="233.87026" y2="200.77768" gradientUnits="userSpaceOnUse" id="color-13"><stop offset="0" stop-color="#00ffad"/><stop offset="1" stop-color="#00478c"/></linearGradient><linearGradient x1="261.75977" y1="178.60526" x2="261.75977" y2="188.09108" gradientUnits="userSpaceOnUse" id="color-14"><stop offset="0" stop-color="#00a29c"/><stop offset="1" stop-color="#007995"/></linearGradient><linearGradient x1="230.32085" y1="193.40467" x2="227.68415" y2="193.40467" gradientUnits="userSpaceOnUse" id="color-15"><stop offset="0" stop-color="#002f5e"/><stop offset="1" stop-color="#002f5e" stop-opacity="0"/></linearGradient><linearGradient x1="230.45487" y1="186.04025" x2="227.71674" y2="186.04025" gradientUnits="userSpaceOnUse" id="color-16"><stop offset="0" stop-color="#dbdbdb"/><stop offset="1" stop-color="#dbdbdb" stop-opacity="0"/></linearGradient><linearGradient x1="242.24104" y1="197.61641" x2="238.08317" y2="197.61641" gradientUnits="userSpaceOnUse" id="color-17"><stop offset="0" stop-color="#8b8b8b"/><stop offset="1" stop-color="#7f7f7f"/></linearGradient><linearGradient x1="241.87597" y1="192.7664" x2="238.44825" y2="192.7664" gradientUnits="userSpaceOnUse" id="color-18"><stop offset="0" stop-color="#8b8b8b"/><stop offset="1" stop-color="#7f7f7f"/></linearGradient><linearGradient x1="218.45698" y1="178.60526" x2="218.45698" y2="188.09109" gradientUnits="userSpaceOnUse" id="color-19"><stop offset="0" stop-color="#00a29c"/><stop offset="1" stop-color="#007995"/></linearGradient><linearGradient x1="262.54252" y1="179.88451" x2="262.54252" y2="192.11528" gradientUnits="userSpaceOnUse" id="color-20"><stop offset="0" stop-color="#009a95"/><stop offset="1" stop-color="#005da9"/></linearGradient><linearGradient x1="217.57892" y1="179.88451" x2="217.57892" y2="192.11528" gradientUnits="userSpaceOnUse" id="color-21"><stop offset="0" stop-color="#009a95"/><stop offset="1" stop-color="#005da9"/></linearGradient><linearGradient x1="263.66584" y1="178.94646" x2="263.66584" y2="192.5362" gradientUnits="userSpaceOnUse" id="color-22"><stop offset="0" stop-color="#007c78"/><stop offset="1" stop-color="#00376d"/></linearGradient><linearGradient x1="216.45553" y1="178.94646" x2="216.45553" y2="192.5362" gradientUnits="userSpaceOnUse" id="color-23"><stop offset="0" stop-color="#007c78"/><stop offset="1" stop-color="#00376d"/></linearGradient><linearGradient x1="249.906" y1="179.10309" x2="246.458" y2="179.10309" gradientUnits="userSpaceOnUse" id="color-24"><stop offset="0" stop-color="#00b67c"/><stop offset="1" stop-color="#00b67c" stop-opacity="0"/></linearGradient><linearGradient x1="249.906" y1="179.10309" x2="246.458" y2="179.10309" gradientUnits="userSpaceOnUse" id="color-25"><stop offset="0" stop-color="#00847e"/><stop offset="1" stop-color="#00847e" stop-opacity="0"/></linearGradient><linearGradient x1="249.906" y1="179.10309" x2="246.458" y2="179.10309" gradientUnits="userSpaceOnUse" id="color-26"><stop offset="0" stop-color="#004183"/><stop offset="1" stop-color="#004183" stop-opacity="0"/></linearGradient><linearGradient x1="249.87228" y1="172.98333" x2="246.49529" y2="172.98333" gradientUnits="userSpaceOnUse" id="color-27"><stop offset="0" stop-color="#009c84"/><stop offset="1" stop-color="#009c84" stop-opacity="0"/></linearGradient><linearGradient x1="249.87228" y1="188.08333" x2="246.49529" y2="188.08333" gradientUnits="userSpaceOnUse" id="color-28"><stop offset="0" stop-color="#00779c"/><stop offset="1" stop-color="#00779c" stop-opacity="0"/></linearGradient><radialGradient cx="239.59981" cy="207.64308" r="6.28912" gradientUnits="userSpaceOnUse" id="color-29"><stop offset="0" stop-color="#fff156"/><stop offset="1" stop-color="#fff156" stop-opacity="0"/></radialGradient><linearGradient x1="239.93453" y1="206.57576" x2="239.93453" y2="212.84849" gradientUnits="userSpaceOnUse" id="color-30"><stop offset="0" stop-color="#ff8600"/><stop offset="1" stop-color="#ff8600" stop-opacity="0"/></linearGradient><linearGradient x1="239.83279" y1="204.32197" x2="239.83279" y2="221.1856" gradientUnits="userSpaceOnUse" id="color-31"><stop offset="0" stop-color="#ffffff"/><stop offset="1" stop-color="#ffffff" stop-opacity="0"/></linearGradient><radialGradient cx="239.76375" cy="208.4453" r="6.28912" gradientUnits="userSpaceOnUse" id="color-32"><stop offset="0" stop-color="#ffee35"/><stop offset="1" stop-color="#ffee35" stop-opacity="0"/></radialGradient><linearGradient x1="244.4112" y1="206.02091" x2="235.42461" y2="206.02091" gradientUnits="userSpaceOnUse" id="color-33"><stop offset="0" stop-color="#5f5f5f"/><stop offset="1" stop-color="#4c4c4c"/></linearGradient><linearGradient x1="244.4112" y1="206.02091" x2="235.42461" y2="206.02091" gradientUnits="userSpaceOnUse" id="color-34"><stop offset="0" stop-color="#949494"/><stop offset="1" stop-color="#757575"/></linearGradient><linearGradient x1="244.13409" y1="204.21927" x2="241.21846" y2="204.21927" gradientUnits="userSpaceOnUse" id="color-35"><stop offset="0" stop-color="#4c4c4c"/><stop offset="1" stop-color="#4c4c4c" stop-opacity="0"/></linearGradient><linearGradient x1="235.70235" y1="204.21926" x2="238.61797" y2="204.21926" gradientUnits="userSpaceOnUse" id="color-36"><stop offset="0" stop-color="#5f5f5f"/><stop offset="1" stop-color="#5f5f5f" stop-opacity="0"/></linearGradient><linearGradient x1="244.62221" y1="203.97261" x2="235.21734" y2="203.97261" gradientUnits="userSpaceOnUse" id="color-37"><stop offset="0" stop-color="#888888"/><stop offset="1" stop-color="#696969"/></linearGradient><linearGradient x1="240.70434" y1="126.50033" x2="240.70434" y2="220.52638" gradientUnits="userSpaceOnUse" id="color-38"><stop offset="0" stop-color="#a300f2"/><stop offset="1" stop-color="#a300f2" stop-opacity="0"/></linearGradient><linearGradient x1="240.9856" y1="98.48157" x2="240.9856" y2="226.50218" gradientUnits="userSpaceOnUse" id="color-39"><stop offset="0" stop-color="#f1f1f1"/><stop offset="1" stop-color="#f1f1f1" stop-opacity="0"/></linearGradient><linearGradient x1="239.79261" y1="206.11822" x2="239.79261" y2="214.02598" gradientUnits="userSpaceOnUse" id="color-40"><stop offset="0" stop-color="#ff4f00"/><stop offset="1" stop-color="#ff4f00" stop-opacity="0"/></linearGradient><linearGradient x1="239.87305" y1="206.36496" x2="239.87305" y2="211.71079" gradientUnits="userSpaceOnUse" id="color-41"><stop offset="0" stop-color="#ffd400"/><stop offset="1" stop-color="#ffd400" stop-opacity="0"/></linearGradient><linearGradient x1="239.87576" y1="206.0069" x2="239.87576" y2="214.88922" gradientUnits="userSpaceOnUse" id="color-42"><stop offset="0" stop-color="#ffee00"/><stop offset="1" stop-color="#ffee00" stop-opacity="0"/></linearGradient><linearGradient x1="239.96157" y1="205.93395" x2="239.96157" y2="209.82133" gradientUnits="userSpaceOnUse" id="color-43"><stop offset="0" stop-color="#ffee00"/><stop offset="1" stop-color="#ffee00" stop-opacity="0"/></linearGradient><linearGradient x1="237.54458" y1="206.0069" x2="237.54458" y2="209.89428" gradientUnits="userSpaceOnUse" id="color-44"><stop offset="0" stop-color="#ffee00"/><stop offset="1" stop-color="#ffee00" stop-opacity="0"/></linearGradient><linearGradient x1="242.37854" y1="206.0069" x2="242.37854" y2="209.89428" gradientUnits="userSpaceOnUse" id="color-45"><stop offset="0" stop-color="#ffee00"/><stop offset="1" stop-color="#ffee00" stop-opacity="0"/></linearGradient><linearGradient x1="256.01734" y1="181.97988" x2="251.51384" y2="181.97988" gradientUnits="userSpaceOnUse" id="color-46"><stop offset="0" stop-color="#01878f"/><stop offset="1" stop-color="#018097"/></linearGradient><linearGradient x1="256.01734" y1="181.97988" x2="251.51383" y2="181.97988" gradientUnits="userSpaceOnUse" id="color-47"><stop offset="0" stop-color="#01878f"/><stop offset="1" stop-color="#018097"/></linearGradient><linearGradient x1="255.96193" y1="185.90966" x2="251.46703" y2="185.90966" gradientUnits="userSpaceOnUse" id="color-48"><stop offset="0" stop-color="#01878f"/><stop offset="1" stop-color="#018097"/></linearGradient><linearGradient x1="255.96193" y1="185.90966" x2="251.46703" y2="185.90966" gradientUnits="userSpaceOnUse" id="color-49"><stop offset="0" stop-color="#01878f"/><stop offset="1" stop-color="#018097"/></linearGradient><linearGradient x1="224.54219" y1="181.97988" x2="229.04569" y2="181.97988" gradientUnits="userSpaceOnUse" id="color-50"><stop offset="0" stop-color="#01878f"/><stop offset="1" stop-color="#018097"/></linearGradient><linearGradient x1="224.54222" y1="181.97988" x2="229.0457" y2="181.97988" gradientUnits="userSpaceOnUse" id="color-51"><stop offset="0" stop-color="#01878f"/><stop offset="1" stop-color="#018097"/></linearGradient><linearGradient x1="224.59762" y1="185.90966" x2="229.09251" y2="185.90966" gradientUnits="userSpaceOnUse" id="color-52"><stop offset="0" stop-color="#01878f"/><stop offset="1" stop-color="#018097"/></linearGradient><linearGradient x1="224.59762" y1="185.90966" x2="229.09251" y2="185.90966" gradientUnits="userSpaceOnUse" id="color-53"><stop offset="0" stop-color="#01878f"/><stop offset="1" stop-color="#018097"/></linearGradient></defs><g transform="translate(-213.34547,-152.73348)"><g data-paper-data="{&quot;isPaintingLayer&quot;:true}" fill-rule="nonzero" stroke-linejoin="miter" stroke-miterlimit="10" stroke-dasharray="" stroke-dashoffset="0" style="mix-blend-mode: normal"><path d="M236.87601,156.16667v-3.125h2v3.125z" data-paper-data="{&quot;index&quot;:null}" fill="#00cd94" stroke="none" stroke-width="0" stroke-linecap="butt"/><path d="M239.60402,200.33696c4.28811,0 7.76433,3.52552 7.76433,7.87446c0,4.34894 -3.47619,7.87446 -7.76433,7.87446c-4.28812,0 -7.76433,-3.52552 -7.76433,-7.87446c0,-4.34894 3.47619,-7.87446 7.76433,-7.87446z" data-paper-data="{&quot;index&quot;:null}" fill="url(#color-1)" stroke="none" stroke-width="0" stroke-linecap="butt"/><path d="M239.88932,193.0734c6.69689,0 12.12577,5.53134 12.12577,12.35459c0,6.82325 -5.42889,12.35459 -12.12577,12.35459c-6.69689,0 -12.12576,-5.53134 -12.12576,-12.35459c0,-6.82325 5.42888,-12.35459 12.12576,-12.35459z" data-paper-data="{&quot;index&quot;:null}" fill="url(#color-2)" stroke="none" stroke-width="0" stroke-linecap="butt"/><path d="M231.42859,200.33698l-14.38155,-7.77778" data-paper-data="{&quot;index&quot;:null}" fill="none" stroke="#00386f" stroke-width="2.5" stroke-linecap="round"/><g data-paper-data="{&quot;index&quot;:null}"><g fill="none" stroke="#00386f" stroke-width="1" stroke-linecap="round"><g><path d="M263.43569,194.65132l-15.40192,8.375h-8.2714"/><path d="M263.37864,193.77632l-15.40192,8.375h-8.2714"/><path d="M263.54979,192.83882l-15.40192,8.375h-8.2714"/></g><g><path d="M239.35901,203.02632h-8.2714l-15.40192,-8.375"/><path d="M239.41606,202.15132h-8.2714l-15.40192,-8.375"/><path d="M239.24492,201.21382h-8.2714l-15.40192,-8.375"/></g></g><path d="M230.3469,203.47619v-3.42857h19.68838v3.42857z" fill="#00386f" stroke="none" stroke-width="0" stroke-linecap="butt"/></g><path d="M243.16318,199.68326l-10.55867,-0.0566l-2.68823,-0.71141l-0.19653,-37.7619l5.97476,-5.42857v15.95287c0,0 0.72262,1.79051 2.67467,1.79051c1.98677,0 2.7172,-1.92095 2.7172,-1.92095v-15.66277l5.82905,5.42857l0.1649,37.58147z" data-paper-data="{&quot;index&quot;:null}" fill="url(#color-3)" stroke="url(#color-4)" stroke-width="2.5" stroke-linecap="round"/><path d="M244.44473,173.2291l-7.71652,-1.36364l1.2446,-16.90909c0,0 0.37094,0.18974 0.74676,0.09091c0.37582,-0.09882 0.72009,-0.18471 1.32757,-0.63636c0.60749,-0.45165 1.41056,-1.36364 1.41056,-1.36364z" data-paper-data="{&quot;index&quot;:null}" fill="#676767" stroke="#ff0000" stroke-width="0" stroke-linecap="round"/><g data-paper-data="{&quot;index&quot;:null}" fill="none" stroke-linecap="round"><g stroke="#b6b6b6" stroke-width="2.5"><path d="M257.01105,179.46936v-4.09091"/></g><path d="M256.59619,175.53754l0.04148,4.18182" stroke="#c2c2c2" stroke-width="1.5"/></g><g data-paper-data="{&quot;index&quot;:null}" fill="none" stroke-linecap="round"><g stroke="#b6b6b6" stroke-width="2.5"><path d="M222.23283,175.37845v4.09091"/></g><path d="M222.64769,175.53754l-0.04148,4.18182" stroke="#c2c2c2" stroke-width="1.5"/></g><path d="M237.4197,173.76975v-11.79798h5.27341v11.79798z" data-paper-data="{&quot;index&quot;:null}" fill="url(#color-5)" stroke="none" stroke-width="0" stroke-linecap="butt"/><path d="M240.01608,161.54812c1.08575,0 1.96593,0.20942 1.96593,0.46775c0,0.25833 -0.88018,0.46774 -1.96593,0.46774c-1.08574,0 -1.96592,-0.20941 -1.96592,-0.46774c0,-0.25833 0.88017,-0.46775 1.96592,-0.46775z" data-paper-data="{&quot;index&quot;:null}" fill="url(#color-6)" stroke="#7e7e7e" stroke-width="0.5" stroke-linecap="butt"/><path d="M263.47934,194.71382v-1.9375h0.96975v1.9375z" data-paper-data="{&quot;index&quot;:null}" fill="#00386f" stroke="none" stroke-width="0" stroke-linecap="butt"/><path d="M264.47763,192.23966l-16.1118,8.625l-8.30399,0.03917l-0.04312,-21.91417l24.07,-0.125z" data-paper-data="{&quot;index&quot;:null}" fill="url(#color-7)" stroke="#b6b6b6" stroke-width="0" stroke-linecap="round"/><path d="M261.61727,180.24805v-1.35714h1.76022v1.35714z" data-paper-data="{&quot;index&quot;:null}" fill="#00bcfb" stroke="none" stroke-width="0" stroke-linecap="butt"/><path d="M241.21176,199.6052v-19.28572" data-paper-data="{&quot;index&quot;:null}" fill="none" stroke="#3195b6" stroke-width="2.5" stroke-linecap="round"/><path d="M240.03827,183.74805v-4.71428h2.28177v4.71428z" data-paper-data="{&quot;index&quot;:null}" fill="#f00000" stroke="none" stroke-width="0" stroke-linecap="butt"/><path d="M240.03827,200.81948v-6h2.28177v6z" data-paper-data="{&quot;index&quot;:null}" fill="#0098ca" stroke="none" stroke-width="0" stroke-linecap="butt"/><path d="M250.35919,184.71382v7.1875" data-paper-data="{&quot;index&quot;:null}" fill="none" stroke="#00bcfb" stroke-width="1" stroke-linecap="round"/><path d="M248.70492,192.46382l-0.1141,-8.6875" data-paper-data="{&quot;index&quot;:null}" fill="none" stroke="#f50000" stroke-width="1" stroke-linecap="round"/><path d="M259.0299,181.15132v7.9375" data-paper-data="{&quot;index&quot;:null}" fill="none" stroke="#006c8a" stroke-width="1" stroke-linecap="round"/><path d="M253.55366,193.96382v-11.875" data-paper-data="{&quot;index&quot;:null}" fill="none" stroke="#005b82" stroke-width="1" stroke-linecap="round"/><path d="M245.79565,184.27632l0.05705,11.1875" data-paper-data="{&quot;index&quot;:null}" fill="none" stroke="#fa0000" stroke-width="1" stroke-linecap="round"/><path d="M256.00655,194.33882l-0.1141,-5.125" data-paper-data="{&quot;index&quot;:null}" fill="none" stroke="#005b82" stroke-width="1" stroke-linecap="round"/><path d="M243.62797,181.40132l-0.05705,11" data-paper-data="{&quot;index&quot;:null}" fill="none" stroke="#fa0000" stroke-width="1" stroke-linecap="round"/><path d="M215.67229,194.71382v-1.9375h0.96975v1.9375z" data-paper-data="{&quot;index&quot;:null}" fill="#00386f" stroke="none" stroke-width="0" stroke-linecap="butt"/><path d="M216.03268,178.86466l24.07,0.125l-0.04312,21.91417l-8.30399,-0.03917l-16.1118,-8.625z" data-paper-data="{&quot;index&quot;:null}" fill="url(#color-8)" stroke="#b6b6b6" stroke-width="0" stroke-linecap="round"/><path d="M216.74391,180.24805v-1.35714h1.76022v1.35714z" data-paper-data="{&quot;index&quot;:null}" fill="#00b1ec" stroke="none" stroke-width="0" stroke-linecap="butt"/><path d="M238.90962,180.31948v19.28572" data-paper-data="{&quot;index&quot;:null}" fill="none" stroke="#3195b6" stroke-width="2.5" stroke-linecap="round"/><path d="M237.80135,183.74805v-4.71428h2.28177v4.71428z" data-paper-data="{&quot;index&quot;:null}" fill="#f00000" stroke="none" stroke-width="0" stroke-linecap="butt"/><path d="M237.80135,200.81948v-6h2.28177v6z" data-paper-data="{&quot;index&quot;:null}" fill="#0098ca" stroke="none" stroke-width="0" stroke-linecap="butt"/><path d="M229.76217,184.71382v7.1875" data-paper-data="{&quot;index&quot;:null}" fill="none" stroke="#00bcfb" stroke-width="1" stroke-linecap="round"/><path d="M231.53054,183.77632l-0.1141,8.6875" data-paper-data="{&quot;index&quot;:null}" fill="none" stroke="#f50000" stroke-width="1" stroke-linecap="round"/><path d="M221.09149,189.08882v-7.9375" data-paper-data="{&quot;index&quot;:null}" fill="none" stroke="#006c8a" stroke-width="1" stroke-linecap="round"/><path d="M226.56769,182.08882v11.875" data-paper-data="{&quot;index&quot;:null}" fill="none" stroke="#005b82" stroke-width="1" stroke-linecap="round"/><path d="M234.26865,195.46382l0.05705,-11.1875" data-paper-data="{&quot;index&quot;:null}" fill="none" stroke="#fa0000" stroke-width="1" stroke-linecap="round"/><path d="M224.22892,189.21382l-0.1141,5.125" data-paper-data="{&quot;index&quot;:null}" fill="none" stroke="#005b82" stroke-width="1" stroke-linecap="round"/><path d="M236.49337,181.40132l0.05705,11" data-paper-data="{&quot;index&quot;:null}" fill="none" stroke="#fa0000" stroke-width="1" stroke-linecap="round"/><path d="M239.06191,167.61264v-4.77419h0.23553v4.77419z" data-paper-data="{&quot;index&quot;:null}" fill="#1dfffb" stroke="none" stroke-width="0" stroke-linecap="butt"/><path d="M241.45775,153.41091l-0.08298,17.45455c0,0 -0.23352,0.86024 -1.2446,0.90909c-1.03477,0.04999 -1.41056,-0.90909 -1.41056,-0.90909v-17.45455" data-paper-data="{&quot;index&quot;:null}" fill="none" stroke="#b1b1b1" stroke-width="1" stroke-linecap="round"/><path d="M244.92415,199.51659l-10.55867,-0.0566l-2.68823,-0.71141l-0.19653,-37.7619l5.97476,-5.42857v15.95287c0,0 0.72262,1.79051 2.67467,1.79051c1.98677,0 2.7172,-1.92095 2.7172,-1.92095v-15.66277l5.82905,5.42857l0.1649,37.58147z" data-paper-data="{&quot;index&quot;:null}" fill="#ffffff" stroke="#ffffff" stroke-width="2.5" stroke-linecap="round"/><path d="M244.51851,177.2142l-0.10141,18.33333" data-paper-data="{&quot;index&quot;:null}" fill="none" stroke="#eeeeee" stroke-width="1" stroke-linecap="round"/><path d="M233.76888,188.99197l0.10141,-11.77777" data-paper-data="{&quot;index&quot;:null}" fill="none" stroke="#eeeeee" stroke-width="1" stroke-linecap="round"/><path d="M236.40555,184.76975l-0.20282,10.66666" data-paper-data="{&quot;index&quot;:null}" fill="none" stroke="#eeeeee" stroke-width="1" stroke-linecap="round"/><path d="M242.59169,186.2142v13.33333" data-paper-data="{&quot;index&quot;:null}" fill="none" stroke="#eeeeee" stroke-width="1" stroke-linecap="round"/><path d="M237.72392,180.65864l-0.10141,-7" data-paper-data="{&quot;index&quot;:null}" fill="none" stroke="#eeeeee" stroke-width="1" stroke-linecap="round"/><path d="M245.22839,159.3253l0.20283,13.77777" data-paper-data="{&quot;index&quot;:null}" fill="none" stroke="#eeeeee" stroke-width="1" stroke-linecap="round"/><path d="M232.75472,172.43641l-0.20282,-12.11111" data-paper-data="{&quot;index&quot;:null}" fill="none" stroke="#fa0000" stroke-width="1" stroke-linecap="round"/><path d="M235.29002,173.99197l-0.30423,-13" data-paper-data="{&quot;index&quot;:null}" fill="none" stroke="#eeeeee" stroke-width="1" stroke-linecap="round"/><path d="M240.73657,167.52488v-4.7h0.18255v4.7z" data-paper-data="{&quot;index&quot;:null}" fill="url(#color-9)" stroke="none" stroke-width="0" stroke-linecap="butt"/><path d="M239.91569,167.70941v-4.80645h0.20611v4.80645z" data-paper-data="{&quot;index&quot;:null}" fill="#1dfffb" stroke="none" stroke-width="0" stroke-linecap="butt"/><path d="M241.57699,183.26327l-1.33289,0.6931l-1.33289,-0.54738v-7.72276l1.37455,-0.91167l1.29123,1.05738z" data-paper-data="{&quot;index&quot;:null}" fill="#8cffff" stroke="#7e7e7e" stroke-width="0.5" stroke-linecap="round"/><path d="M241.51735,175.94406l-1.19793,0.875l-1.31202,-1.125" data-paper-data="{&quot;index&quot;:null}" fill="none" stroke="#55eded" stroke-width="0.5" stroke-linecap="round"/><path d="M239.23559,183.31906l1.14088,-0.8125l0.9127,0.6875" data-paper-data="{&quot;index&quot;:null}" fill="none" stroke="#55eded" stroke-width="0.5" stroke-linecap="round"/><path d="M240.26237,175.00656l0.05705,1.5l-0.05705,6.5625l-0.17113,0.5625" data-paper-data="{&quot;index&quot;:null}" fill="none" stroke="#4fdada" stroke-width="0.5" stroke-linecap="round"/><path d="M241.57699,183.26327l-1.33289,0.6931l-1.33289,-0.54738v-7.72276l1.37455,-0.91167l1.29123,1.05738z" data-paper-data="{&quot;index&quot;:null}" fill="none" stroke="#7e7e7e" stroke-width="0.5" stroke-linecap="round"/><path d="M240.04914,182.33047l-0.89098,0.78572l0.02173,-6.9881l0.84752,0.82143z" data-paper-data="{&quot;index&quot;:null}" fill="#5cffff" stroke="none" stroke-width="0" stroke-linecap="round"/><path d="M239.88096,183.49803l-0.47108,-0.13243l0.63223,-0.37012z" data-paper-data="{&quot;index&quot;:null}" fill="#57f3f3" stroke="#56eeee" stroke-width="0" stroke-linecap="round"/><path d="M240.50324,176.96645l0.89098,-0.78572l-0.02173,6.80388l-0.84753,-0.66353z" data-paper-data="{&quot;index&quot;:null}" fill="#87ffff" stroke="none" stroke-width="0" stroke-linecap="round"/><path d="M240.10633,200.90476v-10.7h3.46828v10.7z" data-paper-data="{&quot;index&quot;:null}" fill="#2d2d2d" stroke="none" stroke-width="0" stroke-linecap="butt"/><path d="M236.72932,200.90476v-10.7h3.46828v10.7z" data-paper-data="{&quot;index&quot;:null}" fill="#2d2d2d" stroke="none" stroke-width="0" stroke-linecap="butt"/><path d="M240.4907,182.91653l0.56017,0.37011l-0.68724,0.34296z" data-paper-data="{&quot;index&quot;:null}" fill="#5afbfb" stroke="#56eeee" stroke-width="0" stroke-linecap="round"/><path d="M249.79193,160.78562l-0.10141,39.33333l-1.41976,0.66667h-5.172v-13.66667l3.65082,-3.77778v-11.77778l-1.82541,-1.88889l-0.10141,-13.44444z" data-paper-data="{&quot;index&quot;:null}" fill="url(#color-10)" stroke="url(#color-11)" stroke-width="0.5" stroke-linecap="round"/><path d="M235.49284,156.22212l-0.10141,13.44444l-1.82541,1.88889v11.77778l3.65082,3.77777v13.66667h-5.17199l-1.41976,-0.66667l-0.10141,-39.33333z" data-paper-data="{&quot;index&quot;:null}" fill="url(#color-12)" stroke="url(#color-13)" stroke-width="0.5" stroke-linecap="round"/><path d="M249.99983,178.9716l13.78186,-0.07778l-0.09127,6.44445l-13.6906,7.6z" data-paper-data="{&quot;index&quot;:null}" fill="#ffffff" stroke="#ffffff" stroke-width="0.5" stroke-linecap="round"/><path d="M259.56096,178.63062l4.49452,-0.02536l-0.09902,6.99198l-4.49239,2.49384z" data-paper-data="{&quot;index&quot;:null}" fill="url(#color-14)" stroke="#ff9b00" stroke-width="0" stroke-linecap="round"/><path d="M227.68414,198.59855v-11.74943h2.63671v13.11111z" data-paper-data="{&quot;index&quot;:null}" fill="url(#color-15)" stroke="none" stroke-width="0" stroke-linecap="butt"/><path d="M230.11297,192.93827l-13.6906,-7.6l-0.09127,-6.44445l13.78186,0.07778z" data-paper-data="{&quot;index&quot;:null}" fill="#ffffff" stroke="#ffffff" stroke-width="0" stroke-linecap="round"/><path d="M237.82455,184.73334v-12.5h4.381v12.5z" data-paper-data="{&quot;index&quot;:null}" fill="#ffffff" stroke="none" stroke-width="0" stroke-linecap="butt"/><g data-paper-data="{&quot;index&quot;:null}" stroke="#8abcd0" stroke-width="0.5" stroke-linecap="round"><path d="M238.85912,175.62267c0,0 0.50938,-1.7675 1.13682,-1.7675c0.62742,0 1.13681,1.7675 1.13681,1.7675l0.01627,4.93504c0,0 -0.50938,1.7675 -1.13681,1.7675c-0.62742,0 -1.13681,-1.7675 -1.13681,-1.7675z" fill="#97cee4"/><path d="M239.05983,176.19632h1.96363" fill="none"/><path d="M241.02346,177.58406h-1.87437" fill="none"/><path d="M239.05987,179.80443h2.05287" fill="none"/><path d="M239.13762,178.39882h2.05287" fill="none"/></g><path d="M227.71675,191.91525v-13.17857h2.73812v14.60714z" data-paper-data="{&quot;index&quot;:null}" fill="url(#color-16)" stroke="none" stroke-width="0" stroke-linecap="butt"/><path d="M238.08316,200.28307v-5.33334h4.15788v5.33334z" data-paper-data="{&quot;index&quot;:null}" fill="url(#color-17)" stroke="none" stroke-width="0" stroke-linecap="butt"/><path d="M238.44825,194.18307v-2.83333h3.42772v2.83333z" data-paper-data="{&quot;index&quot;:null}" fill="url(#color-18)" stroke="none" stroke-width="0" stroke-linecap="butt"/><path d="M240.70719,191.52778v2.41667" data-paper-data="{&quot;index&quot;:null}" fill="none" stroke="#9e9e9e" stroke-width="0.5" stroke-linecap="round"/><path d="M239.56632,193.94445v-2.41667" data-paper-data="{&quot;index&quot;:null}" fill="none" stroke="#9e9e9e" stroke-width="0.5" stroke-linecap="round"/><path d="M220.75268,188.09109l-4.49239,-2.49384l-0.09903,-6.99199l4.49453,0.02536z" data-paper-data="{&quot;index&quot;:null}" fill="url(#color-19)" stroke="#ff9b00" stroke-width="0" stroke-linecap="round"/><path d="M262.50742,179.88451l0.0702,12.23077" data-paper-data="{&quot;index&quot;:null}" fill="none" stroke="url(#color-20)" stroke-width="2" stroke-linecap="round"/><path d="M217.54379,192.11528l0.0702,-12.23077" data-paper-data="{&quot;index&quot;:null}" fill="none" stroke="url(#color-21)" stroke-width="2" stroke-linecap="round"/><path d="M263.67169,192.5362l-0.0117,-13.58974" data-paper-data="{&quot;index&quot;:null}" fill="none" stroke="url(#color-22)" stroke-width="0.5" stroke-linecap="round"/><path d="M216.4497,192.5362l0.0117,-13.58974" data-paper-data="{&quot;index&quot;:null}" fill="none" stroke="url(#color-23)" stroke-width="0.5" stroke-linecap="round"/><path d="M246.45801,173.08928v-15.76398l3.44799,3.33333v12.34732z" data-paper-data="{&quot;index&quot;:null}" fill="url(#color-24)" stroke="none" stroke-width="0" stroke-linecap="butt"/><path d="M246.45801,187.83928v-14.83333h3.44799v14.83333z" data-paper-data="{&quot;index&quot;:null}" fill="url(#color-25)" stroke="none" stroke-width="0" stroke-linecap="butt"/><path d="M248.58766,200.88086h-2.12966v-13.03889l3.44799,-0.05834l0.07606,12.23611z" data-paper-data="{&quot;index&quot;:null}" fill="url(#color-26)" stroke="none" stroke-width="0" stroke-linecap="butt"/><path d="M246.49527,175.23333v-4.5h3.37701v4.5z" data-paper-data="{&quot;index&quot;:null}" fill="url(#color-27)" stroke="none" stroke-width="0" stroke-linecap="butt"/><path d="M246.49527,190.33333v-4.5h3.37701v4.5z" data-paper-data="{&quot;index&quot;:null}" fill="url(#color-28)" stroke="none" stroke-width="0" stroke-linecap="butt"/><g data-paper-data="{&quot;index&quot;:null}" fill="none" stroke-linecap="round"><path d="M265.1051,184.17716v-6.8125" stroke="#b6b6b6" stroke-width="2.5"/><g><path d="M265.27622,191.86466v-6.8125" stroke="#b6b6b6" stroke-width="3"/><path d="M264.82427,185.19701v6.6875" stroke="#c2c2c2" stroke-width="2"/></g><path d="M264.65314,184.19701v-6.6875" stroke="#c2c2c2" stroke-width="1.5"/></g><g data-paper-data="{&quot;index&quot;:null}" fill="none" stroke-linecap="round"><path d="M215.0166,184.17716v-6.8125" stroke="#b6b6b6" stroke-width="2.5"/><g><path d="M214.84547,185.05216v6.8125" stroke="#b6b6b6" stroke-width="3"/><path d="M215.29742,191.88451v-6.6875" stroke="#c2c2c2" stroke-width="2"/></g><path d="M215.46855,184.19701v-6.6875" stroke="#c2c2c2" stroke-width="1.5"/></g><path d="M239.59982,202.04807c3.04684,0 5.51677,2.50497 5.51677,5.59501c0,3.09004 -2.46994,5.59501 -5.51677,5.59501c-3.04684,0 -5.51677,-2.50497 -5.51677,-5.59501c0,-3.09003 2.46994,-5.59501 5.51677,-5.59501z" data-paper-data="{&quot;index&quot;:null}" fill="url(#color-29)" stroke="none" stroke-width="0" stroke-linecap="butt"/><path d="M236.4981,212.84849v-6.27273c0,0 1.50875,-0.45454 3.43639,-0.45454c1.807,0 3.43638,0.45454 3.43638,0.45454v6.27273z" data-paper-data="{&quot;index&quot;:null}" fill="url(#color-30)" stroke="none" stroke-width="0" stroke-linecap="butt"/><path d="M242.31965,204.32197l-2.48686,16.86364l-2.48686,-16.86364z" data-paper-data="{&quot;index&quot;:null}" fill="url(#color-31)" stroke="#000000" stroke-width="0" stroke-linecap="round"/><path d="M239.76375,202.85029c3.04684,0 5.51677,2.50497 5.51677,5.59501c0,3.09004 -2.46995,5.59501 -5.51677,5.59501c-3.04684,0 -5.51677,-2.50497 -5.51677,-5.59501c0,-3.09004 2.46995,-5.59501 5.51677,-5.59501z" data-paper-data="{&quot;index&quot;:null}" fill="url(#color-32)" stroke="none" stroke-width="0" stroke-linecap="butt"/><path d="M239.91792,205.18c2.4816,0 4.49331,0.37649 4.49331,0.84091c0,0.46442 -2.01173,0.84091 -4.49331,0.84091c-2.4816,0 -4.49331,-0.37649 -4.49331,-0.84091c0,-0.46442 2.01173,-0.84091 4.49331,-0.84091z" data-paper-data="{&quot;index&quot;:null}" fill="url(#color-33)" stroke="url(#color-34)" stroke-width="0.5" stroke-linecap="butt"/><path d="M244.13408,206.08133c0,0 -0.82649,0.27881 -1.29067,0.35477c-0.51406,0.08412 -1.65926,0.12799 -1.65926,0.12799l0.03431,-4.2069h2.91563v3.72414z" data-paper-data="{&quot;index&quot;:null}" fill="url(#color-35)" stroke="none" stroke-width="0" stroke-linecap="butt"/><path d="M236.99303,206.4361c-0.46416,-0.07597 -1.29067,-0.35477 -1.29067,-0.35477v-3.72414h2.91564l0.03431,4.2069c0,0 -1.14522,-0.04386 -1.65926,-0.12799z" data-paper-data="{&quot;index&quot;:null}" fill="url(#color-36)" stroke="none" stroke-width="0" stroke-linecap="butt"/><path d="M239.96501,205.47261c-2.13905,0 -4.74764,0.63636 -4.74764,0.63636v-4.27273c0,0 2.52553,-0.48772 4.70242,-0.5c2.17767,-0.01228 4.70242,0.5 4.70242,0.5v4.27273c0,0 -2.488,-0.63636 -4.6572,-0.63636z" data-paper-data="{&quot;index&quot;:null}" fill="url(#color-37)" stroke="none" stroke-width="0" stroke-linecap="butt"/><path d="M235.97063,201.86807v3.68" data-paper-data="{&quot;index&quot;:null}" fill="none" stroke="#656565" stroke-width="0.5" stroke-linecap="round"/><path d="M237.12452,205.30807v-3.64" data-paper-data="{&quot;index&quot;:null}" fill="none" stroke="#6a6a6a" stroke-width="0.5" stroke-linecap="round"/><path d="M238.23867,205.18807l-0.03978,-3.64" data-paper-data="{&quot;index&quot;:null}" fill="none" stroke="#6f6f6f" stroke-width="0.5" stroke-linecap="round"/><path d="M239.39256,205.14807l-0.07959,-3.68" data-paper-data="{&quot;index&quot;:null}" fill="none" stroke="#747474" stroke-width="0.5" stroke-linecap="round"/><path d="M240.50665,205.18807l-0.03978,-3.76" data-paper-data="{&quot;index&quot;:null}" fill="none" stroke="#787878" stroke-width="0.5" stroke-linecap="round"/><path d="M241.581,201.50807v3.76" data-paper-data="{&quot;index&quot;:null}" fill="none" stroke="#7b7b7b" stroke-width="0.5" stroke-linecap="round"/><g data-paper-data="{&quot;index&quot;:null}" stroke="#000000" stroke-width="0" stroke-linecap="round"><path d="M242.55271,206.62111l-2.78242,14.93246l-2.36345,-14.93246z" fill="url(#color-38)"/><path d="M243.5022,207.56953l-3.78837,20.33121l-3.21793,-20.33121z" fill="url(#color-39)"/><path d="M241.17877,206.11822c0,0 2.19862,0.46537 2.16582,2.41626c-0.07704,4.58168 -3.20543,5.49149 -3.20543,5.49149c0,0 -3.70807,-1.02334 -3.89849,-5.49149c-0.07969,-1.86924 2.25244,-2.41626 2.25244,-2.41626z" fill="url(#color-40)"/><path d="M240.8101,206.36496c0,0 1.48633,0.3146 1.46416,1.63345c-0.0521,3.09733 -2.16696,3.71239 -2.16696,3.71239c0,0 -2.50676,-0.69182 -2.63548,-3.71239c-0.05385,-1.26365 1.52272,-1.63345 1.52272,-1.63345z" fill="url(#color-41)"/><path d="M241.43272,206.0069c0,0 2.46961,0.52272 2.43276,2.71404c-0.08657,5.14633 -3.60049,6.16828 -3.60049,6.16828c0,0 -4.16509,-1.14947 -4.37894,-6.16828c-0.08946,-2.0996 2.53006,-2.71404 2.53006,-2.71404z" fill="url(#color-42)"/><path d="M240.64299,205.93395c0,0 1.08083,0.22877 1.0647,1.18781c-0.03787,2.25231 -1.57577,2.69957 -1.57577,2.69957c0,0 -1.82286,-0.50307 -1.91646,-2.69957c-0.03916,-0.9189 1.10728,-1.18781 1.10728,-1.18781z" fill="url(#color-43)"/><path d="M238.22599,206.0069c0,0 1.08084,0.22877 1.06472,1.18781c-0.03787,2.25231 -1.57577,2.69957 -1.57577,2.69957c0,0 -1.82288,-0.50307 -1.91648,-2.69957c-0.03918,-0.91889 1.10728,-1.18781 1.10728,-1.18781z" fill="url(#color-44)"/><path d="M243.05997,206.0069c0,0 1.08084,0.22877 1.06472,1.18781c-0.03787,2.25231 -1.57577,2.69957 -1.57577,2.69957c0,0 -1.82288,-0.50307 -1.91648,-2.69957c-0.03918,-0.91889 1.10728,-1.18781 1.10728,-1.18781z" fill="url(#color-45)"/></g><g data-paper-data="{&quot;index&quot;:null}" fill="#01878f" stroke="#d5d5d5" stroke-width="1" stroke-linecap="square"><g><path d="M251.51383,180.31501h0.69506v2.37914l-0.18455,-0.07353l1.18879,-1.47055c0.147,-0.18382 0.28041,-0.33787 0.40026,-0.46217c0.12143,-0.12429 0.25326,-0.21708 0.39547,-0.27835c0.14379,-0.06303 0.32115,-0.09454 0.53207,-0.09454c0.28761,0 0.54247,0.0709 0.76456,0.2127c0.2221,0.14005 0.39626,0.3335 0.52249,0.58034c0.12623,0.2451 0.18935,0.52257 0.18935,0.83244c0,0.33437 -0.06072,0.62849 -0.18215,0.88233c-0.11983,0.25384 -0.2892,0.45342 -0.50811,0.59872c-0.2189,0.14355 -0.47615,0.21533 -0.77175,0.21533v-0.83244c0.13582,0.00525 0.26204,-0.02801 0.37869,-0.09979c0.11665,-0.07178 0.21011,-0.17244 0.28042,-0.30199c0.0703,-0.12955 0.10546,-0.27836 0.10546,-0.44642c0,-0.15756 -0.03355,-0.29761 -0.10066,-0.42016c-0.06713,-0.12254 -0.15899,-0.21795 -0.27564,-0.28623c-0.11505,-0.07003 -0.24605,-0.10504 -0.39306,-0.10504c-0.10865,0 -0.22129,0.03152 -0.33794,0.09454c-0.11665,0.06128 -0.24048,0.17332 -0.3715,0.33613l-1.68492,2.06928h-0.64233z"/><path d="M251.66135,185.02473c0.13109,-0.2548 0.31371,-0.45401 0.54781,-0.59765c0.23411,-0.14535 0.50411,-0.21803 0.81002,-0.21803h1.39061c0.30435,0 0.57358,0.07268 0.80768,0.21803c0.2341,0.14364 0.41672,0.34286 0.54781,0.59765c0.13111,0.2548 0.19666,0.54977 0.19666,0.88493c0,0.33516 -0.06557,0.63099 -0.19666,0.88749c-0.13109,0.2548 -0.31371,0.45401 -0.54781,0.59765c-0.2341,0.14364 -0.50333,0.21546 -0.80768,0.21546h-1.39061c-0.30591,0 -0.57592,-0.07182 -0.81002,-0.21546c-0.2341,-0.14364 -0.41672,-0.34286 -0.54781,-0.59765c-0.12956,-0.2565 -0.19432,-0.55233 -0.19432,-0.88749c0,-0.33516 0.06479,-0.63014 0.19432,-0.88493zM252.26066,186.36367c0.07336,0.13509 0.17169,0.24197 0.29498,0.32063c0.12331,0.07866 0.26065,0.11799 0.41204,0.11799h1.49596c0.15296,0 0.29109,-0.03933 0.41438,-0.11799c0.12329,-0.07866 0.22084,-0.18554 0.29263,-0.32063c0.07336,-0.13681 0.11004,-0.28814 0.11004,-0.45401c0,-0.16759 -0.03669,-0.31892 -0.11004,-0.45401c-0.07178,-0.13509 -0.16934,-0.24197 -0.29263,-0.32063c-0.12331,-0.07866 -0.26143,-0.11799 -0.41438,-0.11799h-1.49596c-0.1514,0 -0.28875,0.03933 -0.41204,0.11799c-0.1233,0.07866 -0.22163,0.18554 -0.29498,0.32063c-0.07179,0.13509 -0.10769,0.28643 -0.10769,0.45401c0,0.16587 0.0359,0.31721 0.10769,0.45401z"/></g><g data-paper-data="{&quot;index&quot;:null}"><path d="M229.04569,183.64475h-0.64233l-1.68492,-2.06928c-0.13102,-0.16281 -0.25485,-0.27485 -0.3715,-0.33613c-0.11665,-0.06302 -0.2293,-0.09454 -0.33794,-0.09454c-0.14699,0 -0.27801,0.03501 -0.39306,0.10504c-0.11665,0.06828 -0.20853,0.16369 -0.27564,0.28623c-0.0671,0.12255 -0.10066,0.2626 -0.10066,0.42016c0,0.16806 0.03515,0.31687 0.10546,0.44642c0.07031,0.12955 0.16377,0.23021 0.28042,0.30199c0.11665,0.07178 0.24288,0.10504 0.37869,0.09979v0.83244c-0.2956,0 -0.55284,-0.07178 -0.77175,-0.21533c-0.21889,-0.1453 -0.38826,-0.34488 -0.50811,-0.59872c-0.12143,-0.25384 -0.18215,-0.54796 -0.18215,-0.88233c0,-0.30987 0.06312,-0.58734 0.18935,-0.83244c0.12623,-0.24684 0.3004,-0.44029 0.52249,-0.58034c0.22209,-0.1418 0.47694,-0.2127 0.76456,-0.2127c0.21091,0 0.38826,0.03151 0.53207,0.09454c0.14221,0.06127 0.27404,0.15406 0.39547,0.27835c0.11984,0.1243 0.25325,0.27835 0.40026,0.46217l1.18879,1.47055l-0.18455,0.07353v-2.37914h0.69506z"/><path d="M229.09251,185.90966c0,0.33516 -0.06479,0.63099 -0.19432,0.88749c-0.13109,0.2548 -0.31371,0.45401 -0.54781,0.59765c-0.23411,0.14364 -0.50411,0.21546 -0.81002,0.21546h-1.39061c-0.30435,0 -0.57358,-0.07182 -0.80768,-0.21546c-0.2341,-0.14364 -0.41672,-0.34286 -0.54781,-0.59765c-0.13111,-0.2565 -0.19666,-0.55233 -0.19666,-0.88749c0,-0.33516 0.06557,-0.63014 0.19666,-0.88493c0.13109,-0.2548 0.31371,-0.45401 0.54781,-0.59765c0.2341,-0.14535 0.50333,-0.21803 0.80768,-0.21803h1.39061c0.30591,0 0.57592,0.07268 0.81002,0.21803c0.2341,0.14364 0.41672,0.34286 0.54781,0.59765c0.12956,0.2548 0.19432,0.54977 0.19432,0.88493zM228.40657,185.90965c0,-0.16759 -0.0359,-0.31892 -0.10769,-0.45401c-0.07336,-0.13509 -0.17169,-0.24197 -0.29498,-0.32063c-0.12331,-0.07866 -0.26065,-0.11799 -0.41204,-0.11799h-1.49596c-0.15296,0 -0.29109,0.03933 -0.41438,0.11799c-0.12329,0.07866 -0.22084,0.18554 -0.29263,0.32063c-0.07336,0.13509 -0.11004,0.28643 -0.11004,0.45401c0,0.16587 0.03669,0.31721 0.11004,0.45401c0.07178,0.13509 0.16934,0.24197 0.29263,0.32063c0.12331,0.07866 0.26143,0.11799 0.41438,0.11799h1.49596c0.1514,0 0.28875,-0.03933 0.41204,-0.11799c0.1233,-0.07866 0.22163,-0.18554 0.29498,-0.32063c0.07179,-0.13681 0.10769,-0.28814 0.10769,-0.45401z"/></g></g><g data-paper-data="{&quot;index&quot;:null}" stroke-width="0.25" stroke-linecap="square"><g><path d="M251.51383,180.31501h0.69506v2.37914l-0.18455,-0.07353l1.18879,-1.47055c0.147,-0.18382 0.28041,-0.33787 0.40026,-0.46217c0.12143,-0.12429 0.25326,-0.21708 0.39547,-0.27835c0.14379,-0.06303 0.32115,-0.09454 0.53207,-0.09454c0.28761,0 0.54247,0.0709 0.76456,0.2127c0.2221,0.14005 0.39626,0.3335 0.52249,0.58034c0.12623,0.2451 0.18935,0.52257 0.18935,0.83244c0,0.33437 -0.06072,0.62849 -0.18215,0.88233c-0.11983,0.25384 -0.2892,0.45342 -0.50811,0.59872c-0.2189,0.14355 -0.47615,0.21533 -0.77175,0.21533v-0.83244c0.13582,0.00525 0.26204,-0.02801 0.37869,-0.09979c0.11665,-0.07178 0.21011,-0.17244 0.28042,-0.30199c0.0703,-0.12955 0.10546,-0.27836 0.10546,-0.44642c0,-0.15756 -0.03355,-0.29761 -0.10066,-0.42016c-0.06713,-0.12254 -0.15899,-0.21795 -0.27564,-0.28623c-0.11505,-0.07003 -0.24605,-0.10504 -0.39306,-0.10504c-0.10865,0 -0.22129,0.03152 -0.33794,0.09454c-0.11665,0.06128 -0.24048,0.17332 -0.3715,0.33613l-1.68492,2.06928h-0.64233z" fill="url(#color-46)" stroke="url(#color-47)"/><path d="M251.66135,185.02473c0.13109,-0.2548 0.31371,-0.45401 0.54781,-0.59765c0.23411,-0.14535 0.50411,-0.21803 0.81002,-0.21803h1.39061c0.30435,0 0.57358,0.07268 0.80768,0.21803c0.2341,0.14364 0.41672,0.34286 0.54781,0.59765c0.13111,0.2548 0.19666,0.54977 0.19666,0.88493c0,0.33516 -0.06557,0.63099 -0.19666,0.88749c-0.13109,0.2548 -0.31371,0.45401 -0.54781,0.59765c-0.2341,0.14364 -0.50333,0.21546 -0.80768,0.21546h-1.39061c-0.30591,0 -0.57592,-0.07182 -0.81002,-0.21546c-0.2341,-0.14364 -0.41672,-0.34286 -0.54781,-0.59765c-0.12956,-0.2565 -0.19432,-0.55233 -0.19432,-0.88749c0,-0.33516 0.06479,-0.63014 0.19432,-0.88493zM252.26066,186.36367c0.07336,0.13509 0.17169,0.24197 0.29498,0.32063c0.12331,0.07866 0.26065,0.11799 0.41204,0.11799h1.49596c0.15296,0 0.29109,-0.03933 0.41438,-0.11799c0.12329,-0.07866 0.22084,-0.18554 0.29263,-0.32063c0.07336,-0.13681 0.11004,-0.28814 0.11004,-0.45401c0,-0.16759 -0.03669,-0.31892 -0.11004,-0.45401c-0.07178,-0.13509 -0.16934,-0.24197 -0.29263,-0.32063c-0.12331,-0.07866 -0.26143,-0.11799 -0.41438,-0.11799h-1.49596c-0.1514,0 -0.28875,0.03933 -0.41204,0.11799c-0.1233,0.07866 -0.22163,0.18554 -0.29498,0.32063c-0.07179,0.13509 -0.10769,0.28643 -0.10769,0.45401c0,0.16587 0.0359,0.31721 0.10769,0.45401z" fill="url(#color-48)" stroke="url(#color-49)"/></g><g data-paper-data="{&quot;index&quot;:null}"><path d="M229.04569,183.64475h-0.64233l-1.68492,-2.06928c-0.13102,-0.16281 -0.25485,-0.27485 -0.3715,-0.33613c-0.11665,-0.06302 -0.2293,-0.09454 -0.33794,-0.09454c-0.14699,0 -0.27801,0.03501 -0.39306,0.10504c-0.11665,0.06828 -0.20853,0.16369 -0.27564,0.28623c-0.0671,0.12255 -0.10066,0.2626 -0.10066,0.42016c0,0.16806 0.03515,0.31687 0.10546,0.44642c0.07031,0.12955 0.16377,0.23021 0.28042,0.30199c0.11665,0.07178 0.24288,0.10504 0.37869,0.09979v0.83244c-0.2956,0 -0.55284,-0.07178 -0.77175,-0.21533c-0.21889,-0.1453 -0.38826,-0.34488 -0.50811,-0.59872c-0.12143,-0.25384 -0.18215,-0.54796 -0.18215,-0.88233c0,-0.30987 0.06312,-0.58734 0.18935,-0.83244c0.12623,-0.24684 0.3004,-0.44029 0.52249,-0.58034c0.22209,-0.1418 0.47694,-0.2127 0.76456,-0.2127c0.21091,0 0.38826,0.03151 0.53207,0.09454c0.14221,0.06127 0.27404,0.15406 0.39547,0.27835c0.11984,0.1243 0.25325,0.27835 0.40026,0.46217l1.18879,1.47055l-0.18455,0.07353v-2.37914h0.69506z" fill="url(#color-50)" stroke="url(#color-51)"/><path d="M229.09251,185.90966c0,0.33516 -0.06479,0.63099 -0.19432,0.88749c-0.13109,0.2548 -0.31371,0.45401 -0.54781,0.59765c-0.23411,0.14364 -0.50411,0.21546 -0.81002,0.21546h-1.39061c-0.30435,0 -0.57358,-0.07182 -0.80768,-0.21546c-0.2341,-0.14364 -0.41672,-0.34286 -0.54781,-0.59765c-0.13111,-0.2565 -0.19666,-0.55233 -0.19666,-0.88749c0,-0.33516 0.06557,-0.63014 0.19666,-0.88493c0.13109,-0.2548 0.31371,-0.45401 0.54781,-0.59765c0.2341,-0.14535 0.50333,-0.21803 0.80768,-0.21803h1.39061c0.30591,0 0.57592,0.07268 0.81002,0.21803c0.2341,0.14364 0.41672,0.34286 0.54781,0.59765c0.12956,0.2548 0.19432,0.54977 0.19432,0.88493zM228.40657,185.90965c0,-0.16759 -0.0359,-0.31892 -0.10769,-0.45401c-0.07336,-0.13509 -0.17169,-0.24197 -0.29498,-0.32063c-0.12331,-0.07866 -0.26065,-0.11799 -0.41204,-0.11799h-1.49596c-0.15296,0 -0.29109,0.03933 -0.41438,0.11799c-0.12329,0.07866 -0.22084,0.18554 -0.29263,0.32063c-0.07336,0.13509 -0.11004,0.28643 -0.11004,0.45401c0,0.16587 0.03669,0.31721 0.11004,0.45401c0.07178,0.13509 0.16934,0.24197 0.29263,0.32063c0.12331,0.07866 0.26143,0.11799 0.41438,0.11799h1.49596c0.1514,0 0.28875,-0.03933 0.41204,-0.11799c0.1233,-0.07866 0.22163,-0.18554 0.29498,-0.32063c0.07179,-0.13681 0.10769,-0.28814 0.10769,-0.45401z" fill="url(#color-52)" stroke="url(#color-53)"/></g></g><path d="M263.88887,178.73809v-0.92857h2.28177v0.92857z" data-paper-data="{&quot;index&quot;:null}" fill="#ff0000" stroke="none" stroke-width="0" stroke-linecap="butt"/><path d="M213.89287,178.73809v-0.92857h2.28177v0.92857z" data-paper-data="{&quot;index&quot;:null}" fill="#ff0000" stroke="none" stroke-width="0" stroke-linecap="butt"/></g></g></svg>