<svg version="1.1" xmlns="http://www.w3.org/2000/svg" xmlns:xlink="http://www.w3.org/1999/xlink" width="974.24324" height="427.92793" viewBox="0,0,974.24324,427.92793"><defs><linearGradient x1="641" y1="186.00301" x2="641" y2="191.55855" gradientUnits="userSpaceOnUse" id="color-1"><stop offset="0" stop-color="#ff5050"/><stop offset="1" stop-color="#ff5050" stop-opacity="0"/></linearGradient><linearGradient x1="641" y1="181.66768" x2="641" y2="187.22321" gradientUnits="userSpaceOnUse" id="color-2"><stop offset="0" stop-color="#ff5050" stop-opacity="0"/><stop offset="1" stop-color="#ff5050"/></linearGradient><radialGradient cx="284.88258" cy="186.70001" r="7" gradientUnits="userSpaceOnUse" id="color-3"><stop offset="0" stop-color="#ff9d9d"/><stop offset="1" stop-color="#ff9d9d" stop-opacity="0"/></radialGradient><linearGradient x1="641" y1="170.66966" x2="641" y2="176.22523" gradientUnits="userSpaceOnUse" id="color-4"><stop offset="0" stop-color="#ff5050"/><stop offset="1" stop-color="#ff5050" stop-opacity="0"/></linearGradient><linearGradient x1="641" y1="166.04863" x2="641" y2="171.60419" gradientUnits="userSpaceOnUse" id="color-5"><stop offset="0" stop-color="#ff5050" stop-opacity="0"/><stop offset="1" stop-color="#ff5050"/></linearGradient><radialGradient cx="284.88258" cy="171.36671" r="7" gradientUnits="userSpaceOnUse" id="color-6"><stop offset="0" stop-color="#ff9d9d"/><stop offset="1" stop-color="#ff9d9d" stop-opacity="0"/></radialGradient></defs><g transform="translate(-26.03604,33.96392)"><g data-paper-data="{&quot;isPaintingLayer&quot;:true}" fill-rule="nonzero" stroke="none" stroke-linecap="butt" stroke-linejoin="miter" stroke-miterlimit="10" stroke-dasharray="" stroke-dashoffset="0" style="mix-blend-mode: normal"><path d="M26.03604,393.96401v-427.92793h427.92793v427.92793z" fill="none" stroke-width="0"/><g><path d="M1000.27928,185.15973v2.08333h-718.55856v-2.08333z" data-paper-data="{&quot;index&quot;:null}" fill="#ff0000" stroke-width="NaN"/><path d="M1000.27928,186.00301v5.55554h-718.55856v-5.55554z" data-paper-data="{&quot;index&quot;:null}" fill="url(#color-1)" stroke-width="NaN"/><path d="M281.72072,187.22321v-5.55554h718.55856v5.55554z" data-paper-data="{&quot;index&quot;:null}" fill="url(#color-2)" stroke-width="NaN"/></g><path d="M277.88258,186.70001c0,-3.86599 3.13401,-7 7,-7c3.86599,0 7,3.13401 7,7c0,3.86599 -3.13401,7 -7,7c-3.86599,0 -7,-3.13401 -7,-7z" fill="url(#color-3)" stroke-width="0"/><g><path d="M1000.27928,169.82643v2.08333h-718.55856v-2.08333z" data-paper-data="{&quot;index&quot;:null}" fill="#ff0000" stroke-width="NaN"/><path d="M1000.27928,170.66966v5.55554h-718.55856v-5.55554z" data-paper-data="{&quot;index&quot;:null}" fill="url(#color-4)" stroke-width="NaN"/><path d="M281.72072,171.60419v-5.55554h718.55856v5.55554z" data-paper-data="{&quot;index&quot;:null}" fill="url(#color-5)" stroke-width="NaN"/></g><path d="M277.88258,171.36671c0,-3.86599 3.13401,-7 7,-7c3.86599,0 7,3.13401 7,7c0,3.86599 -3.13401,7 -7,7c-3.86599,0 -7,-3.13401 -7,-7z" fill="url(#color-6)" stroke-width="0"/></g></g></svg>