<svg version="1.1" xmlns="http://www.w3.org/2000/svg" xmlns:xlink="http://www.w3.org/1999/xlink" width="631.61615" height="282.07305" viewBox="0,0,631.61615,282.07305"><g transform="translate(47.18289,-74.58873)"><g data-paper-data="{&quot;isPaintingLayer&quot;:true}" fill-rule="nonzero" stroke-linejoin="miter" stroke-miterlimit="10" stroke-dasharray="" stroke-dashoffset="0" style="mix-blend-mode: normal"><path d="M93.33334,178.37838l4,-2.33333l3,-2.33334l-1.66667,-6.33334l2.66667,-5l4.66667,0.33334l3.66667,-2.33334l2.66667,-1.66666l-1.33333,-4.66666l0.66667,-3.33334l5.33333,-4h5l7.33333,2.33334l9,-8l0.33333,-2.33334l-1.66667,-2.66666l8.5,-8l11.83333,6.16666l11.83333,4l14.83333,-17.83333l15,-8.66667l11.33333,5.33334l9.33333,-1.33334l14,-5.33333l8.66667,10.33333l-3.33333,7.33334l9,15.66666l7,13.33334l-0.66667,16l-12.33333,1.16666l-10.66667,6.83334l17.5,13.5l6.5,16.16666l-23,10l-7.33333,9.66666l-20,3.66667l-12.33333,9.66666l-12.16667,1.33334l-5.66667,6.33333l-8.66667,-7.33333l-0.33333,-11l-10.33333,-6.33334l-1.5,-8.16666l-18.83333,-7.66667l-18,5.16667l-1,-5.66667l-8.33333,-5.33333l-4.66667,-10l-6,-3l-2.66667,-6.66667z" fill="#001b1d" stroke="#001b1d" stroke-width="4" stroke-linecap="round"/><path d="M70.83334,209.12837l-9.66667,0.33334l-11.33334,0.66666l-4,2l16,-0.66666l11,4.66666l-1,5.66667l7.66667,5.33333l-6.66667,8l-9,5.66667l-12.33333,-4.33334l-9.33334,6.66666l-12.33334,4l-7.66666,-3l-13,-4.66666l-3.33334,-15.33334l-20.33333,-10.66666h-6l-8.66667,-4.33334h-9l-6,-6l9,-7l14.75981,5.65215l17.90551,-1.11841l23.64216,4.45056l30.4336,0.60836c0,0 14.63847,2.26489 18.12752,2.88218c1.89343,0.33499 1.13142,0.52518 1.13142,0.52518z" fill="#001b1d" stroke="#001b1d" stroke-width="4" stroke-linecap="round"/><path d="M366.34212,149.05963l8.46784,0.52924l4.76316,-5.82164l-6.35088,-1.05848l-3.70468,-4.23392v-5.2924l10.05556,-7.9386l17.99415,-3.17544l12.70175,-4.76316l7.40936,5.2924l7.9386,-2.11696l8.46784,-2.11696l7.40936,3.17544l17.99415,-7.9386l12.70175,7.9386h10.5848l6.35088,1.58772l7.40936,5.82164l18.52339,-11.64327l5.82164,2.73441l3.70468,6.96833l13.76023,4.23392l1.05848,6.88012l4.76316,6.35088l-4.23392,5.2924l-4.76316,5.82164l-7.40936,0.52924l-8.46784,4.23392l-4.23392,-0.52924l-4.76316,-1.58772l-5.82164,4.76316l-12.70175,-3.17544h-6.88012l-6.35088,2.11696l-5.82164,-0.52924l-4.56374,19.64089l-22.62712,-1.10604l-22.91996,-19.42482l-20.89211,4.004l-9.20175,-10.6462l-9.6462,1.0614l-8.90936,-0.58772l-10.7924,0.7076z" fill="#001b1d" stroke="#001b1d" stroke-width="4" stroke-linecap="round"/><path d="M334.43889,158.6536l1.44716,7.03287l-3.35471,5.80912l1.61436,10.91657l-4.01661,9.04189l2.28721,5.28013l-17.86859,5.60429l-5.99415,11.27369l3.74718,11.14201l5.86516,3.47826l-4.71827,13.3639l1.80701,12.89466l-2.21828,14.33617l-20.38847,10.58988l-23.61842,-19.27305l-18.71137,7.95795l-11.44556,-4.02756l-24.70413,4.32505l-3.48154,-17.07308l7.1678,-20.90748l-12.66658,0.17339l-10.93574,5.82079l-9.37081,-12.98585l-1.50337,-14.98391l-1.11967,-18.03305l-6.82185,-4.28384l1.54028,-13.39837l14.62212,-3.26159l8.52386,-4.02899l6.52031,-10.6946l17.29303,-1.03059l22.20388,6.71145l7.67214,-9.85729l6.47851,-11.66552l11.50106,1.99389l0.07812,3.14369l1.56363,1.7637l11.91835,1.71844l4.83474,-5.98728l4.17285,-2.75451l6.65465,0.40013l2.39272,2.41463l1.45812,4.62919l3.14369,-0.07812l4.34553,-0.07264l3.71103,-2.84907l4.98003,2.70378l2.0981,6.20378l3.78915,0.29463l4.62372,-0.25628z" data-paper-data="{&quot;index&quot;:null}" fill="#001b1d" stroke="#001b1d" stroke-width="4" stroke-linecap="round"/><path d="M77.02072,123.95347l-4.97282,3.6166l-10.17167,-1.58226l-3.16452,3.39056l-5.42489,-1.13018l-3.39056,-6.55508l-6.103,-2.4864l-7.68527,-6.32905l-8.36337,-1.35622l-4.74678,-4.2947l2.71245,-4.74678l6.55508,-0.22604l7.68527,-0.45207l2.71245,-1.35622l-10.84978,0.45207l-7.45923,-3.16452l0.67811,-3.84263l-5.19886,-3.61659l4.52075,-5.42489l6.103,-3.84263l8.36337,2.93849l6.32905,-4.52074l8.36338,-2.71245l5.19885,2.03433l8.81545,3.16452l2.26038,10.39771l13.78827,7.23319h4.06867l5.87697,2.93849h6.103l4.06867,4.06867l-6.103,4.74678l-4.52075,-0.45208l-4.74678,5.19886l-6.55507,-0.45208l-3.39056,2.03433l1.13018,2.71245z" data-paper-data="{&quot;index&quot;:null}" fill="#001b1d" stroke="#001b1d" stroke-width="4" stroke-linecap="round"/><path d="M408.04353,246.56181l-0.5911,1.41865l1.77331,1.06398l3.42839,-0.23644l2.48263,2.71907l2.36441,-0.23644l3.19195,2.48263l-2.12797,2.12797h-3.19195l-3.07373,1.53687h-2.12797l-7.21145,3.78305l-1.18221,5.43814l-4.6106,1.65508l-2.71907,1.06398l-4.37416,-1.41865l-3.31018,-2.36441l-4.37416,1.53687l-3.19195,-2.00975l-2.36441,-2.83729l2.71907,-1.89153l-0.35466,-2.00975l3.90127,-1.65508l5.67458,0.23644l-1.41865,-0.70932l-4.0195,-0.23644l-3.42839,-0.11822l-1.41865,-2.48263l2.48263,-2.24619l4.37416,-0.70932l4.0195,-3.31018l3.19195,-1.30042l1.77331,-3.42839l2.83729,-0.5911l1.65508,1.77331l5.31992,-0.82755l2.60085,1.89153z" data-paper-data="{&quot;index&quot;:null}" fill="#001b1d" stroke="#001b1d" stroke-width="4" stroke-linecap="round"/><path d="M124.23183,317.84623l1.84549,-1.34217l3.77486,0.5872l1.1744,-1.25829l2.01326,0.41943l1.25829,2.43269l2.26491,0.92274l2.85212,2.3488l3.10377,0.50331l1.7616,1.59383l-1.00663,1.7616l-2.43269,0.08389l-2.85212,0.16777l-1.00663,0.50332l4.02652,-0.16777l2.76823,1.1744l-0.25166,1.42606l1.92937,1.34217l-1.67771,2.01326l-2.26492,1.42606l-3.10377,-1.09052l-2.3488,1.67771l-3.10377,1.00663l-1.92937,-0.75497l-3.27154,-1.1744l-0.83886,-3.85874l-5.11703,-2.68434h-1.50994l-2.18103,-1.09052h-2.26491l-1.50994,-1.50994l2.26492,-1.7616l1.67771,0.16777l1.7616,-1.92937l2.43268,0.16777l1.25828,-0.75497l-0.41943,-1.00663z" data-paper-data="{&quot;index&quot;:null}" fill="#001b1d" stroke="#001b1d" stroke-width="4" stroke-linecap="round"/><path d="M-23.66666,280.87836l4,-2.33333l3,-2.33334l-1.66667,-6.33334l2.66667,-5l4.66667,0.33334l3.66667,-2.33334l2.66667,-1.66666l-1.33333,-4.66666l0.66667,-3.33334l5.33333,-4h5l7.33333,2.33334l9,-8l0.33333,-2.33334l-1.66667,-2.66666l8.5,-8l11.83333,6.16666l11.83333,4l14.83333,-17.83333l15,-8.66667l11.33333,5.33334l9.33333,-1.33334l12,7.16667l10.66667,-2.16667l-3.33333,7.33334l9,15.66666l7,13.33334l-0.66667,16l-12.33333,1.16666l-10.66667,6.83334l17.5,13.5l6.5,16.16666l-23,10l-7.33333,9.66666l-20,3.66667l-12.33333,9.66666l-12.16667,1.33334l-5.66667,6.33333l-8.66667,-7.33333l-0.33333,-11l-10.33333,-6.33334l-1.5,-8.16666l-18.83333,-7.66667l-18,5.16667l-1,-5.66667l-8.33333,-5.33333l-4.66667,-10l-6,-3l-2.66667,-6.66667z" fill="#001b1d" stroke="#001b1d" stroke-width="4" stroke-linecap="round"/><path d="M493.49999,272.04504l1.66666,-4l-5,-3l-9.66666,0.66667l-7,-7.66667l-6.66667,0.66667l-9,-7l6,-6h9l8.66667,-4.33334h6l20.33333,-10.66666l3.33334,-15.33334l13,-4.66666l7.66666,-3l12.33334,4l9.33334,6.66666l12.33333,-4.33334l9,5.66667l6.66667,8l-7.66667,5.33333l1,5.66667l-11,4.66666l-16,-0.66666l4,2l11.33334,0.66666l9.66667,0.33334l4,7l-7,6.33333l-12.33333,2l-11.33334,9.33334l-9,3.66666l-5,9.66667l-8,1.66666l-4.66666,-5l-15,2.33334l-7.33334,-5.33334z" data-paper-data="{&quot;index&quot;:null}" fill="#001b1d" stroke="#001b1d" stroke-width="4" stroke-linecap="round"/><path d="M249.50001,152.11112l4.33333,6l-30.33333,70.33333l-19.66667,4l-10.66667,7.66667l-37.33333,-64.33333l22.66667,-20.66667l57.66667,-11.66667z" fill="#001b1d" stroke="#003337" stroke-width="0" stroke-linecap="round"/><path d="M173.83334,234.44445v-27h17.66667v27z" fill="#001b1d" stroke="none" stroke-width="0" stroke-linecap="butt"/><path d="M242.14821,180.15596l-13.63344,-25.97256l18.00371,-9.45045l13.63344,25.97256z" fill="#001b1d" stroke="none" stroke-width="0" stroke-linecap="butt"/><path d="M136.34447,192.77173c-1.50224,-0.01093 -3.05003,0.31329 -4.50219,-0.06609c-5.04214,-1.31726 -11.4899,-6.54595 -9.73532,-12.38983c0.30799,-1.0258 1.60601,-1.45533 2.18307,-2.35762c1.06632,-1.66731 -0.05367,-4.14363 0.92244,-5.86532c0.63882,-1.12677 2.43943,-1.18457 3.16065,-2.26048c0.82163,-1.22571 0.20074,-3.18129 1.20923,-4.2585c2.63172,-2.81104 4.55881,-1.34719 7.43385,-1.76909c2.76057,-0.40511 2.63719,-1.45313 5.30208,-2.77807c5.17631,-2.57358 10.10536,-3.27373 15.79292,-3.23548c1.52608,-0.3346 3.03293,-1.23372 4.57825,-1.0038c2.73037,0.40622 4.67233,2.94183 7.04154,4.35845c0.9047,0.54095 2.12691,0.40938 3,1c1.06635,0.72136 1.51936,2.1874 2.64238,2.81693c0.59669,0.33448 1.35947,-0.17289 2.04329,-0.1903c1.56435,-0.03983 3.14141,0.20993 4.69454,0.01873c5.43053,-0.66853 9.74152,-3.10362 15.30546,-3.01873c1.98635,0.03031 4.04489,-0.34956 5.95671,0.1903c1.00067,0.28257 1.34462,1.66998 2.27504,2.1342c1.17842,0.58796 2.6647,0.32933 3.84268,0.91816c1.47346,0.73652 2.45182,2.28155 3.946,2.97508c2.99989,1.39241 5.19897,0.40976 8.29091,0.80173c5.10832,0.64759 9.99012,3.02944 15.08912,3.01282c3.94281,1.46777 8.08573,-0.33659 12.19909,-1c3.75848,-0.60618 8.94314,-0.48923 12.70591,-0.01355c6.50063,0.82179 11.29525,3.61852 14.82117,9.16694c1.40155,2.20549 2.55036,5.85147 4.27777,7.9006c0.69511,0.82457 2.01575,1.01751 2.60221,1.92259c0.84132,1.29838 1.40819,2.85032 1.49155,4.3952c0.08113,1.50359 -0.81162,2.90968 -1.01689,4.4014c-0.13363,0.97115 0.12735,1.96806 0.00656,2.94089c-0.26733,2.15305 -1.72815,6.53821 -1.08813,8.95424c0.31429,1.18641 1.63606,1.9199 1.99829,3.09256c0.36481,1.18103 0.06801,2.47124 0.10201,3.70686c0,5.8716 -0.77158,10.7408 -2.65848,16.36902c-0.66681,1.98897 -0.59159,4.42489 -2.0215,5.95981c-1.01185,1.08617 -7.86363,1.71524 -9.13435,0.79779c-0.51288,-0.3703 -4.68614,-8.19061 -5.03038,-9.25926c-0.29674,-0.92116 0.52855,-2.25282 -0.19382,-2.89685c-0.62644,-0.55851 -1.62564,0.45373 -2.46147,0.52949c-1.0777,0.09768 -2.17268,0.12287 -3.24634,-0.01217c-4.56116,-0.57366 -6.13605,-1.22153 -10.30789,-3.02005c-4.33492,-1.86883 -6.44841,-5.68295 -10.03074,-8.53442c-2.57963,-2.05334 -4.83377,-3.81656 -7.18279,-6.16559c-3.91692,-3.95401 -10.89701,-8.05401 -16.38011,-9.17636c-6.15203,-1.25927 -13.02698,0.64134 -19.25258,-0.12369c-1.04622,-0.12856 -1.9613,-0.82049 -3,-1c-2.29925,-0.39736 -4.68904,0.32235 -7,0c-1.04398,-0.14562 -1.95402,-0.86947 -3,-1c-1.62242,-0.20246 -3.27994,0.19357 -4.905,0.01355c-1.36601,-0.15132 -2.64016,-0.80068 -4,-1c-1.97886,-0.29006 -4.01917,0.27622 -6,0c-3.82188,-0.53295 -6.94549,-0.98012 -10.84989,-0.9861c-2.66698,-0.33083 -5.31717,-0.84299 -8,-1c-1.47064,-0.08607 -2.9893,0.29297 -4.41904,-0.06205c-2.5359,-0.62969 -4.73563,-2.24036 -7.21619,-3.06141l-0.20943,0.12829c0,0 -1.35792,0 -2.07219,-1.00079z" fill="#001e20" stroke="none" stroke-width="0.5" stroke-linecap="butt"/><path d="M-3.79276,210.89422l14.07962,-2.17109l21.28008,6.70149c0,0 17.44496,-1.99089 17.97635,-1.21645c0.59638,0.86916 0.4616,2.09378 1,3c0.54706,0.92079 1.87508,1.33182 2.18307,2.35762c0.47097,1.56863 0,3.27561 0,4.91342c-1,1 -2.36851,1.7346 -3,3c-0.47997,0.96178 0.51818,2.3475 -0.10551,3.22294c-1.06626,1.49665 -2.75114,2.58951 -4.47973,3.21309c-4.49908,1.62302 -10.30962,-0.40908 -13.71312,-3.13329c-1.42459,-1.14026 -1.93262,-3.25333 -3.47312,-4.23134c-1.42251,-0.9031 -3.15061,-1.28317 -4.51698,-2.26915c-2.28644,-1.64991 -3.86515,-5.19365 -6.33558,-6.63233c-2.02697,-1.18043 -4.42994,-1.73938 -6.27064,-3.19327c-1.29473,-1.02266 -0.53535,4.57972 -2.12174,4.12634c-1.05588,-0.30176 -3.94687,-2.21321 -5.03964,-2.32187c-1.70955,-0.16998 -6.5331,-5.6761 -7.46306,-5.36611z" fill="#001e20" stroke="none" stroke-width="0.5" stroke-linecap="butt"/><path d="M11.5903,299.77252c-0.81517,0.08527 -1.38789,-0.17493 -1.78545,-0.53389c-0.43008,-0.31953 -0.79763,-0.83029 -0.87375,-1.64675c-1.43028,-7.18172 -2.20013,-13.00671 -1.31167,-20.34098c0.20229,-1.66988 -0.14001,-3.47354 0.5241,-5.01899c1.60531,-3.73569 7.49097,-5.00114 10.96767,-5.44066c3.61132,-0.45653 7.39594,0.45962 11,0c1.36333,-0.17386 2.6388,-0.81018 4,-1c7.13671,-0.9952 15.10331,-0.01873 22.30546,-0.01873c1.75888,0 3.61999,0.70124 5.27554,0.10727c1.13125,-0.40586 1.85712,-1.62814 3,-2c2.19439,-0.71398 4.70348,-0.12309 6.85709,-0.95198c2.29099,-0.88177 4.56867,-1.8126 6.76899,-2.90108c1.19482,-0.59107 2.08971,-1.78948 3.37392,-2.14694c0.52129,-0.1451 9.35936,-0.10727 9.72446,-0.10727c2.98624,0 6.23045,-1.02836 8.95671,0.1903c4.80468,2.14774 4.73282,8.05861 4.54329,12.3097c-0.09813,2.20092 0.73513,4.8076 -0.56664,6.58497c-1.05374,1.43873 -3.77613,0.19984 -5.19443,1.28092c-0.90565,0.69032 -0.68606,2.18393 -0.8327,3.31319c-0.35707,2.74976 -1.10613,5.60933 -0.45987,8.30581c0.35579,1.48453 1.40847,2.70885 2.1127,4.06328c0.31063,1.22143 1.15899,2.4246 0.9319,3.66428c-0.83189,4.54111 -3.37365,6.1746 -5.87584,9.53923c-0.75303,1.01258 -1.03428,2.42649 -2.0395,3.18931c-2.46577,1.87117 -4.81533,1.54697 -7.57561,1.55901c-6.06296,0.02645 -10.89768,-0.4051 -16.69897,-2.0997c-1.46704,-0.42853 -3.08554,-0.44984 -4.43293,-1.17122c-2.37434,-1.27119 -3.93925,-3.73106 -6.23647,-5.13682c-2.29853,-1.40656 -4.79953,-2.48296 -7.01838,-4.01214c-0.79131,-0.54535 -1.42853,-1.37599 -2.33771,-1.6874c-1.66397,-0.56994 -3.51666,0.10727 -5.27554,0.10727c-3,0 -6,0 -9,0c-2.23585,-0.06165 -4.26781,1.34431 -6.42562,1.93312c-4.15135,1.13281 -10.24505,0.06688 -14.57438,0.06688z" fill="#001e20" stroke="none" stroke-width="0.5" stroke-linecap="butt"/><path d="M406.18124,139.50161c-0.16267,-0.32151 -0.26457,-0.72435 -0.26457,-1.22909c0,-2.5 2.5,-2.5 2.5,-2.5l2.79057,0.12829c4.63209,1.60442 8.20864,0.41056 12.90397,-0.10956c4.05192,-0.44885 7.87894,-0.46038 11.905,-0.98645c2.05592,-0.26864 5.29045,-2.54268 6.82607,-2.9654c3.86093,-1.06283 9.71059,-0.13725 13.36495,1.06141c1.87637,0.61546 3.65649,1.6145 5.60989,1.90399c1.50325,0.22278 3.16729,-0.45856 4.55625,0.15802c3.39972,1.50918 4.36841,4.68272 3.43602,8.03416c-0.40895,1.46996 -1.63958,2.57367 -2.45937,3.86051c-2.243,2.243 -3.94005,4.39036 -6.92197,5.70131c-8.1979,3.60407 -16.25242,0.73691 -24.61093,2.18143c-5.52299,0.95449 -13.01954,2.47425 -18.47488,-0.21037c-2.89006,-1.42222 -4.7638,-4.36051 -7.38735,-6.22924c-1.21419,-0.86486 -2.79024,-1.12897 -4,-2c-1.25604,-0.90435 -2.20399,-2.17356 -3.30599,-3.26034c0,0 -1.76777,-1.76777 0,-3.53553c1.7242,-1.7242 3.44841,-0.08498 3.53234,-0.00314z" fill="#001e20" stroke="none" stroke-width="0.5" stroke-linecap="butt"/><path d="M516.14023,239.77889c2.34582,-0.44804 4.92444,-0.3961 6.96211,-1.633c2.7426,-1.6648 4.29519,-5.94673 7.35762,-7.18307c0.36514,-0.14741 6.55167,-0.27774 7.26217,-0.17157c4.67412,0.69847 9.65666,3.08657 12.00424,7.52456c0.61741,1.16719 0.1903,2.63628 0.1903,3.95671c0,1.32043 0.30401,2.7323 -0.1903,3.95671c-1.33202,3.29943 -5.52163,5.35587 -8.51913,6.415c-3.35925,1.09065 -4.54529,2.79685 -7.32879,4.6564c-2.19196,1.46436 -4.80106,2.28034 -6.8768,3.90525c-0.93002,0.72803 -1.50949,1.99777 -2.62826,2.37634c-0.14195,0.04803 -7.38065,0.33334 -8.35716,0.15802c-5.73958,-1.03048 -8.06282,-4.60376 -10.75013,-9.19297c-2.64932,-4.52433 -5.95352,-6.09673 -1.46535,-12.1823c0.84136,-1.14081 2.8295,-0.26285 4.21548,-0.56017c1.96081,-0.42063 4.01875,-1.7457 6,-2c0.10319,-0.01324 0.97267,-0.02119 2.12402,-0.02591z" fill="#001e20" stroke="none" stroke-width="0.5" stroke-linecap="butt"/><path d="M399.57312,248.0052c1.34624,0.21541 2.45078,0.58605 3.55291,1.13926l0.08122,-0.24365l2.94531,0.98177c1.02156,0.31417 1.76412,1.26534 1.76412,2.38994c0,1.1246 -0.74256,2.07576 -1.76412,2.38994l-2.82156,0.94052c-1.15286,0.5624 -2.38548,0.98627 -3.45255,1.69765c-0.93976,0.62651 -1.44086,1.90325 -2.50507,2.28159c-2.02963,0.72156 -8.12833,0.1784 -9.19278,-2.19166c-0.7883,-1.75522 0.26971,-3.97944 1.2493,-5.63552c0.20203,-0.34155 5.94581,-4.1265 6.60002,-4.56264c0,0 2.08013,-1.38675 3.46688,0.69338c0.02671,0.04007 0.05214,0.07988 0.07632,0.11943z" fill="#001e20" stroke="none" stroke-width="0.5" stroke-linecap="butt"/><g fill="none" stroke="none" stroke-width="1" stroke-linecap="butt" font-family="sans-serif" font-weight="normal" font-size="12" text-anchor="start"/></g></g></svg>