<svg version="1.1" xmlns="http://www.w3.org/2000/svg" xmlns:xlink="http://www.w3.org/1999/xlink" width="278" height="16.2" viewBox="0,0,278,16.2"><defs><linearGradient x1="-62" y1="246.96639" x2="216" y2="246.96639" gradientUnits="userSpaceOnUse" id="color-1"><stop offset="0" stop-color="#01ebfc"/><stop offset="1" stop-color="#00b8c5"/></linearGradient><linearGradient x1="91.625" y1="248.10441" x2="91.625" y2="255.13333" gradientUnits="userSpaceOnUse" id="color-2"><stop offset="0" stop-color="#008d97" stop-opacity="0"/><stop offset="1" stop-color="#008d97"/></linearGradient></defs><g transform="translate(62,-238.93333)"><g data-paper-data="{&quot;isPaintingLayer&quot;:true}" fill-rule="nonzero" stroke-linejoin="miter" stroke-miterlimit="10" stroke-dasharray="" stroke-dashoffset="0" style="mix-blend-mode: normal"><path d="M21.51265,251.81538l-5.06343,-6.60346v6.47123h-1.78892v-10.45352h0.89446l4.9312,6.30789v-6.30789h1.78114v10.58575zM23.80606,247.84087c0,-1.16669 0.33445,-2.11559 1.00335,-2.84672c0.67408,-0.73112 1.56336,-1.09668 2.66783,-1.09668c1.15632,0 2.05596,0.3526 2.69894,1.05779c0.64297,0.70001 0.96446,1.66188 0.96446,2.88561c0,1.21854 -0.32667,2.1856 -0.98002,2.90116c-0.65335,0.71557 -1.54781,1.07335 -2.68338,1.07335c-1.16151,0 -2.06374,-0.36038 -2.70672,-1.08113c-0.64297,-0.72594 -0.96446,-1.6904 -0.96446,-2.89339zM25.6572,247.84087c0,1.68003 0.60668,2.52005 1.82003,2.52005c0.55483,0 0.99298,-0.21778 1.31447,-0.65335c0.32667,-0.43556 0.49001,-1.0578 0.49001,-1.8667c0,-1.65929 -0.60149,-2.48894 -1.80448,-2.48894c-0.56001,0 -1.00335,0.22038 -1.33002,0.66112c-0.32667,0.43556 -0.49001,1.04484 -0.49001,1.82781zM39.38299,251.67538h-2.31782v-10.43797c1.48299,-0.05185 2.41375,-0.07778 2.79227,-0.07778c1.51929,0 2.72486,0.44593 3.61673,1.3378c0.89187,0.89187 1.3378,2.07411 1.3378,3.54673c0,3.75414 -1.80966,5.63121 -5.42899,5.63121zM38.9241,242.85522v7.13235c0.30075,0.02593 0.62223,0.03889 0.96446,0.03889c0.93854,0 1.67226,-0.33964 2.20115,-1.01891c0.5289,-0.67927 0.79335,-1.62818 0.79335,-2.84671c0,-2.23486 -1.03706,-3.35229 -3.11117,-3.35229c-0.20223,0 -0.48483,0.01556 -0.84779,0.04667zM50.5919,250.91314c-0.16074,0.26445 -0.44334,0.48223 -0.84779,0.65335c-0.39927,0.16593 -0.81669,0.2489 -1.25225,0.2489c-0.82446,0 -1.47262,-0.20482 -1.94448,-0.61446c-0.46668,-0.40964 -0.70001,-0.99298 -0.70001,-1.75003c0,-0.8815 0.32927,-1.57114 0.9878,-2.06893c0.66372,-0.50297 1.60744,-0.75446 2.83116,-0.75446c0.20741,0 0.45371,0.0363 0.7389,0.10889c0,-0.89705 -0.56779,-1.34558 -1.70337,-1.34558c-0.6689,0 -1.22891,0.11148 -1.68003,0.33445l-0.38889,-1.38447c0.61705,-0.29556 1.34817,-0.44334 2.19337,-0.44334c1.16151,0 2.01189,0.26445 2.55116,0.79335c0.54445,0.5289 0.81668,1.53484 0.81668,3.01783v1.62558c0,1.0215 0.20482,1.66188 0.61446,1.92115c-0.14519,0.25408 -0.30852,0.40964 -0.49001,0.46668c-0.18149,0.06222 -0.3889,0.09334 -0.62224,0.09334c-0.25408,0 -0.48482,-0.09334 -0.69223,-0.28001c-0.20223,-0.19185 -0.33963,-0.39927 -0.41223,-0.62224zM50.42079,248.08198c-0.30593,-0.06222 -0.53408,-0.09334 -0.68446,-0.09334c-1.40521,0 -2.10781,0.46149 -2.10781,1.38447c0,0.68446 0.39667,1.02668 1.19002,1.02668c1.06817,0 1.60225,-0.53408 1.60225,-1.60225zM62.95806,251.67538v-4.78342c0,-1.00076 -0.44853,-1.50114 -1.34558,-1.50114c-0.26445,0 -0.52112,0.07778 -0.77002,0.23334c-0.2489,0.15556 -0.4226,0.33704 -0.52112,0.54445v5.50677h-1.78114v-5.06343c0,-0.37334 -0.11667,-0.6689 -0.35001,-0.88668c-0.23334,-0.22297 -0.56001,-0.33445 -0.98002,-0.33445c-0.22815,0 -0.47446,0.08297 -0.7389,0.2489c-0.25926,0.16593 -0.44853,0.34741 -0.56779,0.54445v5.49121h-1.78114v-7.63792h1.22113l0.36556,0.67668c0.4926,-0.54445 1.13298,-0.81668 1.92115,-0.81668c1.01113,0 1.77336,0.27482 2.28671,0.82446c0.22297,-0.2489 0.53408,-0.44853 0.93335,-0.5989c0.39927,-0.15038 0.79853,-0.22556 1.1978,-0.22556c0.85039,0 1.51151,0.24371 1.98337,0.73112c0.47186,0.48741 0.70779,1.15632 0.70779,2.0067v5.04009zM70.91523,250.91314c-0.16074,0.26445 -0.44334,0.48223 -0.84779,0.65335c-0.39927,0.16593 -0.81668,0.2489 -1.25224,0.2489c-0.82446,0 -1.47262,-0.20482 -1.94448,-0.61446c-0.46668,-0.40964 -0.70001,-0.99298 -0.70001,-1.75003c0,-0.8815 0.32927,-1.57114 0.9878,-2.06893c0.66372,-0.50297 1.60744,-0.75446 2.83116,-0.75446c0.20741,0 0.45371,0.0363 0.7389,0.10889c0,-0.89705 -0.56779,-1.34558 -1.70336,-1.34558c-0.6689,0 -1.22891,0.11148 -1.68003,0.33445l-0.3889,-1.38447c0.61705,-0.29556 1.34817,-0.44334 2.19337,-0.44334c1.16151,0 2.01189,0.26445 2.55116,0.79335c0.54445,0.5289 0.81668,1.53484 0.81668,3.01783v1.62558c0,1.0215 0.20482,1.66188 0.61446,1.92115c-0.14519,0.25408 -0.30852,0.40964 -0.49001,0.46668c-0.18149,0.06222 -0.3889,0.09334 -0.62224,0.09334c-0.25408,0 -0.48482,-0.09334 -0.69223,-0.28001c-0.20223,-0.19185 -0.33964,-0.39927 -0.41223,-0.62224zM70.74412,248.08198c-0.30593,-0.06222 -0.53408,-0.09334 -0.68446,-0.09334c-1.40521,0 -2.10781,0.46149 -2.10781,1.38447c0,0.68446 0.39667,1.02668 1.19002,1.02668c1.06817,0 1.60225,-0.53408 1.60225,-1.60225zM73.87012,253.63541l1.1278,-1.39225c0.62223,0.57038 1.31706,0.85557 2.08448,0.85557c0.51334,0 0.93594,-0.07519 1.2678,-0.22556c0.33186,-0.15038 0.49779,-0.36038 0.49779,-0.63001c0,-0.45112 -0.36816,-0.67668 -1.10446,-0.67668c-0.19704,0 -0.49519,0.02593 -0.89446,0.07778c-0.39408,0.04667 -0.68964,0.07 -0.88668,0.07c-1.22891,0 -1.84337,-0.44075 -1.84337,-1.32225c0,-0.25408 0.10111,-0.50038 0.30334,-0.7389c0.20741,-0.24371 0.44853,-0.4226 0.72335,-0.53668c-0.87113,-0.5652 -1.30669,-1.36632 -1.30669,-2.40338c0,-0.81927 0.29815,-1.49595 0.89446,-2.03004c0.60149,-0.53408 1.3378,-0.80113 2.20893,-0.80113c0.68446,0 1.25743,0.12963 1.71892,0.38889l0.70001,-0.81668l1.23669,1.12002l-0.84779,0.62224c0.29038,0.44593 0.43557,0.97224 0.43557,1.57892c0,0.87113 -0.26445,1.56854 -0.79335,2.09226c-0.5289,0.51853 -1.1978,0.77779 -2.0067,0.77779c-0.12963,0 -0.30075,-0.01296 -0.51334,-0.03889l-0.28778,-0.03889c-0.03629,0 -0.16593,0.05185 -0.38889,0.15556c-0.21778,0.09852 -0.32667,0.20222 -0.32667,0.31112c0,0.19185 0.16334,0.28778 0.49001,0.28778c0.15038,0 0.39667,-0.03629 0.7389,-0.10889c0.34741,-0.07259 0.64557,-0.10889 0.89446,-0.10889c1.73707,0 2.6056,0.69742 2.6056,2.09226c0,0.76742 -0.34741,1.37151 -1.04224,1.81226c-0.69483,0.44075 -1.53225,0.66112 -2.51227,0.66112c-1.16669,0 -2.22449,-0.34482 -3.17339,-1.03446zM75.65904,246.72084c0,0.45112 0.12445,0.81409 0.37334,1.08891c0.2489,0.26963 0.58334,0.40445 1.00335,0.40445c0.42519,0 0.75187,-0.13223 0.98002,-0.39667c0.22815,-0.26445 0.34223,-0.63001 0.34223,-1.09669c0,-0.38371 -0.12444,-0.70779 -0.37334,-0.97224c-0.24371,-0.26963 -0.56001,-0.40445 -0.94891,-0.40445c-0.40445,0 -0.73631,0.12963 -0.99557,0.38889c-0.25408,0.25408 -0.38112,0.58334 -0.38112,0.9878zM88.58723,248.40088h-5.45232c0.03111,0.61186 0.23853,1.08631 0.62224,1.42336c0.3889,0.33705 0.90742,0.50557 1.55558,0.50557c0.81409,0 1.43373,-0.2126 1.85892,-0.63779l0.68446,1.36114c-0.62742,0.50816 -1.56336,0.76224 -2.80783,0.76224c-1.16151,0 -2.08189,-0.33964 -2.76116,-1.01891c-0.67408,-0.68446 -1.01113,-1.63596 -1.01113,-2.8545c0,-1.20298 0.37074,-2.17782 1.11224,-2.9245c0.7415,-0.74668 1.63336,-1.12002 2.6756,-1.12002c1.10965,0 1.99893,0.33186 2.66783,0.99557c0.6689,0.65853 1.00335,1.49854 1.00335,2.52005c0,0.21778 -0.04926,0.54705 -0.14778,0.9878zM83.19713,247.06307h3.74896c-0.12445,-1.11484 -0.74149,-1.67225 -1.85114,-1.67225c-1.01631,0 -1.64892,0.55741 -1.89781,1.67225z" fill="#01ebfc" stroke="#00ebfc" stroke-width="0.5" stroke-linecap="square"/><path d="M15.97813,251.25284h-2.31782v-10.43797c1.48299,-0.05185 2.41375,-0.07778 2.79227,-0.07778c1.51929,0 2.72487,0.44593 3.61673,1.3378c0.89187,0.89187 1.3378,2.07411 1.3378,3.54673c0,3.75414 -1.80966,5.63121 -5.42899,5.63121zM15.51923,242.43268v7.13235c0.30075,0.02593 0.62223,0.03889 0.96446,0.03889c0.93854,0 1.67226,-0.33963 2.20115,-1.01891c0.5289,-0.67927 0.79335,-1.62818 0.79335,-2.84672c0,-2.23486 -1.03706,-3.35228 -3.11117,-3.35228c-0.20223,0 -0.48483,0.01556 -0.84779,0.04667zM29.75374,247.97833h-5.45232c0.03111,0.61186 0.23852,1.08631 0.62223,1.42336c0.3889,0.33705 0.90742,0.50557 1.55558,0.50557c0.81409,0 1.43373,-0.2126 1.85892,-0.63779l0.68446,1.36114c-0.62742,0.50816 -1.56336,0.76223 -2.80783,0.76223c-1.16151,0 -2.08189,-0.33963 -2.76116,-1.01891c-0.67408,-0.68446 -1.01113,-1.63596 -1.01113,-2.8545c0,-1.20298 0.37074,-2.17782 1.11224,-2.9245c0.7415,-0.74668 1.63337,-1.12002 2.67561,-1.12002c1.10965,0 1.99893,0.33186 2.66783,0.99557c0.6689,0.65853 1.00335,1.49854 1.00335,2.52005c0,0.21778 -0.04926,0.54705 -0.14778,0.9878zM24.36365,246.64053h3.74896c-0.12445,-1.11484 -0.7415,-1.67225 -1.85115,-1.67225c-1.01631,0 -1.64892,0.55741 -1.89781,1.67225zM35.58506,242.12156c-0.3889,-0.12963 -0.68964,-0.19445 -0.90224,-0.19445c-0.33705,0 -0.62223,0.14519 -0.85557,0.43557c-0.23334,0.29038 -0.35001,0.64816 -0.35001,1.07335c0,0.06222 0.00259,0.12185 0.00778,0.17889h1.57892v1.47003h-1.55558v6.16789h-1.78114v-6.16789h-1.11224v-1.47003h1.12002c0.03629,-0.93335 0.31112,-1.68781 0.82446,-2.26337c0.51853,-0.57556 1.18743,-0.86335 2.0067,-0.86335c0.42001,0 0.93594,0.09334 1.54781,0.28001zM43.54026,247.97833h-5.45232c0.03111,0.61186 0.23852,1.08631 0.62223,1.42336c0.3889,0.33705 0.90742,0.50557 1.55558,0.50557c0.81409,0 1.43373,-0.2126 1.85892,-0.63779l0.68446,1.36114c-0.62742,0.50816 -1.56336,0.76223 -2.80783,0.76223c-1.16151,0 -2.08189,-0.33963 -2.76116,-1.01891c-0.67408,-0.68446 -1.01113,-1.63596 -1.01113,-2.8545c0,-1.20298 0.37074,-2.17782 1.11224,-2.9245c0.7415,-0.74668 1.63337,-1.12002 2.67561,-1.12002c1.10965,0 1.99893,0.33186 2.66783,0.99557c0.6689,0.65853 1.00335,1.49854 1.00335,2.52005c0,0.21778 -0.04926,0.54705 -0.14778,0.9878zM38.15016,246.64053h3.74896c-0.12445,-1.11484 -0.7415,-1.67225 -1.85115,-1.67225c-1.01631,0 -1.64891,0.55741 -1.89781,1.67225zM49.36379,250.4906c-0.16074,0.26445 -0.44334,0.48223 -0.84779,0.65334c-0.39927,0.16593 -0.81668,0.2489 -1.25224,0.2489c-0.82446,0 -1.47262,-0.20482 -1.94448,-0.61446c-0.46668,-0.40964 -0.70001,-0.99298 -0.70001,-1.75003c0,-0.8815 0.32927,-1.57114 0.9878,-2.06893c0.66372,-0.50297 1.60744,-0.75446 2.83116,-0.75446c0.20741,0 0.45371,0.03629 0.7389,0.10889c0,-0.89705 -0.56779,-1.34558 -1.70336,-1.34558c-0.6689,0 -1.22891,0.11149 -1.68003,0.33445l-0.3889,-1.38447c0.61705,-0.29556 1.34817,-0.44334 2.19337,-0.44334c1.16151,0 2.01189,0.26445 2.55116,0.79335c0.54445,0.5289 0.81668,1.53484 0.81668,3.01783v1.62558c0,1.0215 0.20482,1.66188 0.61446,1.92114c-0.14519,0.25408 -0.30852,0.40964 -0.49001,0.46668c-0.18149,0.06222 -0.3889,0.09334 -0.62224,0.09334c-0.25408,0 -0.48482,-0.09334 -0.69223,-0.28001c-0.20223,-0.19185 -0.33964,-0.39927 -0.41223,-0.62223zM49.19268,247.65944c-0.30593,-0.06222 -0.53408,-0.09334 -0.68446,-0.09334c-1.40521,0 -2.10781,0.46149 -2.10781,1.38447c0,0.68446 0.39667,1.02669 1.19002,1.02669c1.06817,0 1.60225,-0.53408 1.60225,-1.60225zM53.16647,245.05384h-0.88668v-1.43891h0.88668v-1.54781l1.78114,-0.66112v2.20893h2.09226v1.43891h-2.09226v3.33673c0,0.54964 0.08555,0.93853 0.25667,1.16669c0.17111,0.22297 0.46927,0.33445 0.89446,0.33445c0.43038,0 0.82964,-0.11667 1.1978,-0.35001v1.64114c-0.41482,0.14 -1.00335,0.21 -1.76559,0.21c-0.76223,0 -1.34817,-0.21519 -1.75781,-0.64557c-0.40445,-0.43038 -0.60668,-1.04224 -0.60668,-1.83559zM66.16868,251.25284v-7.52902l-2.12338,1.27558v-1.78114c1.36373,-0.65853 2.44227,-1.47521 3.23562,-2.45004h0.74668v10.48463zM71.20725,245.71496c0,-1.42595 0.34741,-2.63153 1.04224,-3.61673c0.69483,-0.9852 1.62558,-1.47781 2.79227,-1.47781c2.42671,0 3.64006,1.77336 3.64006,5.3201c0,1.65929 -0.32927,2.98413 -0.9878,3.97451c-0.65335,0.9852 -1.57114,1.47781 -2.75338,1.47781c-1.27558,0 -2.21671,-0.4563 -2.82338,-1.36891c-0.60668,-0.91261 -0.91001,-2.34893 -0.91001,-4.30897zM73.1284,245.83941c0,1.39484 0.13482,2.42153 0.40445,3.08006c0.27482,0.65335 0.72594,0.98002 1.35336,0.98002c0.67927,0 1.1615,-0.29556 1.44669,-0.88668c0.28519,-0.59112 0.42778,-1.64632 0.42778,-3.16561c0,-1.4104 -0.13741,-2.38264 -0.41223,-2.91672c-0.27482,-0.53927 -0.72335,-0.8089 -1.34558,-0.8089c-1.24965,0 -1.87448,1.23928 -1.87448,3.71784zM79.76145,245.71496c0,-1.42595 0.34741,-2.63153 1.04224,-3.61673c0.69483,-0.9852 1.62558,-1.47781 2.79227,-1.47781c2.42671,0 3.64006,1.77336 3.64006,5.3201c0,1.65929 -0.32927,2.98413 -0.9878,3.97451c-0.65335,0.9852 -1.57114,1.47781 -2.75338,1.47781c-1.27558,0 -2.21671,-0.4563 -2.82338,-1.36891c-0.60668,-0.91261 -0.91001,-2.34893 -0.91001,-4.30897zM81.68259,245.83941c0,1.39484 0.13482,2.42153 0.40445,3.08006c0.27482,0.65335 0.72594,0.98002 1.35336,0.98002c0.67927,0 1.1615,-0.29556 1.44669,-0.88668c0.28519,-0.59112 0.42779,-1.64632 0.42779,-3.16561c0,-1.4104 -0.13741,-2.38264 -0.41223,-2.91672c-0.27482,-0.53927 -0.72335,-0.8089 -1.34558,-0.8089c-1.24965,0 -1.87448,1.23928 -1.87448,3.71784zM87.99674,243.08602c0,-0.72594 0.2126,-1.31706 0.63779,-1.77336c0.42519,-0.46149 0.96705,-0.69223 1.62558,-0.69223c0.65335,0 1.17187,0.22815 1.55558,0.68446c0.3889,0.4563 0.58334,1.09409 0.58334,1.91337c0,0.76223 -0.20482,1.3741 -0.61446,1.83559c-0.40964,0.46149 -0.93853,0.69223 -1.58669,0.69223c-1.46743,0 -2.20115,-0.88668 -2.20115,-2.66005zM89.32677,243.15602c0,0.47704 0.07518,0.84261 0.22556,1.09669c0.15556,0.25408 0.34741,0.38112 0.57557,0.38112c0.62742,0 0.94113,-0.49001 0.94113,-1.47003c0,-0.95409 -0.27741,-1.43114 -0.83224,-1.43114c-0.60668,0 -0.91001,0.47445 -0.91001,1.42336zM90.16678,251.39284h-1.40002l6.54901,-10.77242h1.38447zM92.99016,248.73279c0,-0.72075 0.21,-1.30928 0.63001,-1.76559c0.42519,-0.46149 0.96705,-0.69223 1.62558,-0.69223c0.65335,0 1.17187,0.22815 1.55558,0.68446c0.3889,0.4563 0.58334,1.0915 0.58334,1.90559c0,0.76223 -0.20482,1.3741 -0.61446,1.83559c-0.40445,0.46149 -0.93335,0.69223 -1.5867,0.69223c-1.46225,0 -2.19337,-0.88668 -2.19337,-2.66005zM94.31241,248.80279c0,0.47186 0.07519,0.83742 0.22556,1.09669c0.15038,0.25408 0.34482,0.38112 0.58334,0.38112c0.62742,0 0.94113,-0.49001 0.94113,-1.47003c0,-0.95409 -0.27741,-1.43113 -0.83224,-1.43113c-0.61186,0 -0.91779,0.47445 -0.91779,1.42336zM102.63094,247.41832c0,-1.16669 0.33445,-2.11559 1.00335,-2.84671c0.67408,-0.73112 1.56336,-1.09669 2.66783,-1.09669c1.15632,0 2.05596,0.3526 2.69894,1.0578c0.64297,0.70001 0.96446,1.66188 0.96446,2.88561c0,1.21854 -0.32667,2.1856 -0.98002,2.90116c-0.65335,0.71557 -1.5478,1.07335 -2.68338,1.07335c-1.16151,0 -2.06374,-0.36038 -2.70672,-1.08113c-0.64297,-0.72594 -0.96446,-1.6904 -0.96446,-2.89339zM104.48208,247.41832c0,1.68003 0.60668,2.52005 1.82004,2.52005c0.55483,0 0.99298,-0.21778 1.31447,-0.65334c0.32667,-0.43556 0.49001,-1.0578 0.49001,-1.8667c0,-1.65929 -0.60149,-2.48893 -1.80447,-2.48893c-0.56001,0 -1.00335,0.22038 -1.33003,0.66112c-0.32667,0.43556 -0.49001,1.04483 -0.49001,1.82781zM115.64517,242.12156c-0.3889,-0.12963 -0.68964,-0.19445 -0.90224,-0.19445c-0.33705,0 -0.62224,0.14519 -0.85557,0.43557c-0.23334,0.29038 -0.35,0.64816 -0.35,1.07335c0,0.06222 0.00259,0.12185 0.00778,0.17889h1.57892v1.47003h-1.55558v6.16789h-1.78114v-6.16789h-1.11224v-1.47003h1.12002c0.03629,-0.93335 0.31112,-1.68781 0.82446,-2.26337c0.51853,-0.57556 1.18743,-0.86335 2.0067,-0.86335c0.42001,0 0.93594,0.09334 1.5478,0.28001zM121.45743,245.05384h-0.88668v-1.43891h0.88668v-1.54781l1.78114,-0.66112v2.20893h2.09226v1.43891h-2.09226v3.33673c0,0.54964 0.08556,0.93853 0.25667,1.16669c0.17111,0.22297 0.46927,0.33445 0.89446,0.33445c0.43038,0 0.82964,-0.11667 1.1978,-0.35001v1.64114c-0.41482,0.14 -1.00335,0.21 -1.76559,0.21c-0.76223,0 -1.34818,-0.21519 -1.75781,-0.64557c-0.40445,-0.43038 -0.60668,-1.04224 -0.60668,-1.83559zM131.91252,251.25284v-4.70564c0,-0.47186 -0.14778,-0.85039 -0.44334,-1.13558c-0.29556,-0.28519 -0.67927,-0.42778 -1.15113,-0.42778c-0.29556,0 -0.59371,0.08037 -0.89446,0.24111c-0.30075,0.16074 -0.51334,0.34223 -0.63779,0.54445v5.48343h-1.81226v-10.47686l1.81226,-0.42778v3.75674c0.4563,-0.42001 1.08891,-0.63001 1.89781,-0.63001c0.95409,0 1.69559,0.26445 2.22448,0.79335c0.5289,0.5289 0.79335,1.28854 0.79335,2.27893v4.70564zM142.441,247.97833h-5.45232c0.03111,0.61186 0.23852,1.08631 0.62223,1.42336c0.3889,0.33705 0.90742,0.50557 1.55558,0.50557c0.81409,0 1.43373,-0.2126 1.85892,-0.63779l0.68446,1.36114c-0.62742,0.50816 -1.56336,0.76223 -2.80783,0.76223c-1.16151,0 -2.08189,-0.33963 -2.76116,-1.01891c-0.67408,-0.68446 -1.01113,-1.63596 -1.01113,-2.8545c0,-1.20298 0.37074,-2.17782 1.11224,-2.9245c0.7415,-0.74668 1.63336,-1.12002 2.6756,-1.12002c1.10965,0 1.99893,0.33186 2.66783,0.99557c0.6689,0.65853 1.00335,1.49854 1.00335,2.52005c0,0.21778 -0.04926,0.54705 -0.14778,0.9878zM137.0509,246.64053h3.74896c-0.12445,-1.11484 -0.74149,-1.67225 -1.85114,-1.67225c-1.01631,0 -1.64892,0.55741 -1.89781,1.67225zM155.22952,247.97833h-5.45232c0.03111,0.61186 0.23852,1.08631 0.62223,1.42336c0.3889,0.33705 0.90742,0.50557 1.55558,0.50557c0.81409,0 1.43373,-0.2126 1.85892,-0.63779l0.68446,1.36114c-0.62742,0.50816 -1.56336,0.76223 -2.80783,0.76223c-1.16151,0 -2.08189,-0.33963 -2.76116,-1.01891c-0.6741,-0.68446 -1.01115,-1.63596 -1.01115,-2.8545c0,-1.20298 0.37075,-2.17782 1.11226,-2.9245c0.7415,-0.74668 1.63337,-1.12002 2.67561,-1.12002c1.10965,0 1.99893,0.33186 2.66783,0.99557c0.6689,0.65853 1.00335,1.49854 1.00335,2.52005c0,0.21778 -0.04926,0.54705 -0.14778,0.9878zM149.83942,246.64053h3.74896c-0.12445,-1.11484 -0.7415,-1.67225 -1.85115,-1.67225c-1.01631,0 -1.64892,0.55741 -1.89781,1.67225zM161.71418,251.25284v-4.41008c0,-0.65335 -0.12445,-1.1278 -0.37334,-1.42336c-0.2489,-0.30075 -0.65594,-0.45112 -1.22113,-0.45112c-0.26445,0 -0.54445,0.0726 -0.84002,0.21778c-0.29556,0.14519 -0.5263,0.32927 -0.69223,0.55223v5.51454h-1.78114v-7.63792h1.28336l0.32667,0.71557c0.48223,-0.57038 1.1978,-0.85557 2.14671,-0.85557c0.90742,0 1.62299,0.27223 2.14671,0.81668c0.52371,0.54445 0.78557,1.30409 0.78557,2.27893v4.68231zM172.23812,247.97833h-5.45232c0.03111,0.61186 0.23852,1.08631 0.62223,1.42336c0.3889,0.33705 0.90742,0.50557 1.55558,0.50557c0.81409,0 1.43373,-0.2126 1.85892,-0.63779l0.68446,1.36114c-0.62742,0.50816 -1.56336,0.76223 -2.80783,0.76223c-1.16151,0 -2.08189,-0.33963 -2.76116,-1.01891c-0.67408,-0.68446 -1.01113,-1.63596 -1.01113,-2.8545c0,-1.20298 0.37074,-2.17782 1.11224,-2.9245c0.7415,-0.74668 1.63337,-1.12002 2.67561,-1.12002c1.10965,0 1.99893,0.33186 2.66783,0.99557c0.6689,0.65853 1.00335,1.49854 1.00335,2.52005c0,0.21778 -0.04926,0.54705 -0.14778,0.9878zM166.84803,246.64053h3.74896c-0.12445,-1.11484 -0.7415,-1.67225 -1.85115,-1.67225c-1.01631,0 -1.64891,0.55741 -1.89781,1.67225zM182.65063,251.25284v-4.78342c0,-1.00076 -0.44853,-1.50114 -1.34558,-1.50114c-0.26445,0 -0.52112,0.07778 -0.77002,0.23334c-0.2489,0.15556 -0.4226,0.33704 -0.52112,0.54445v5.50677h-1.78114v-5.06343c0,-0.37334 -0.11667,-0.6689 -0.35001,-0.88668c-0.23334,-0.22297 -0.56001,-0.33445 -0.98002,-0.33445c-0.22815,0 -0.47445,0.08297 -0.7389,0.2489c-0.25926,0.16593 -0.44853,0.34741 -0.56779,0.54445v5.49121h-1.78114v-7.63792h1.22113l0.36556,0.67668c0.4926,-0.54445 1.13298,-0.81668 1.92115,-0.81668c1.01113,0 1.77336,0.27482 2.28671,0.82446c0.22297,-0.2489 0.53409,-0.44852 0.93335,-0.5989c0.39927,-0.15038 0.79853,-0.22556 1.1978,-0.22556c0.85039,0 1.51151,0.24371 1.98337,0.73112c0.47186,0.48741 0.70779,1.15632 0.70779,2.0067v5.04009zM187.75331,240.65931c0.28519,0 0.5289,0.10111 0.73112,0.30334c0.20223,0.20223 0.30334,0.44593 0.30334,0.73112c0,0.28519 -0.10111,0.5289 -0.30334,0.73112c-0.20223,0.20223 -0.44593,0.30334 -0.73112,0.30334c-0.28519,0 -0.5289,-0.10111 -0.73112,-0.30334c-0.20223,-0.20223 -0.30334,-0.44593 -0.30334,-0.73112c0,-0.28519 0.10111,-0.5289 0.30334,-0.73112c0.20223,-0.20223 0.44593,-0.30334 0.73112,-0.30334zM186.83552,251.25284v-6.17567h-0.97224v-1.46225h2.77672v7.63792zM197.53003,247.97833h-5.45232c0.03111,0.61186 0.23852,1.08631 0.62223,1.42336c0.3889,0.33705 0.90742,0.50557 1.55558,0.50557c0.81409,0 1.43373,-0.2126 1.85892,-0.63779l0.68446,1.36114c-0.62742,0.50816 -1.56336,0.76223 -2.80783,0.76223c-1.16151,0 -2.08189,-0.33963 -2.76116,-1.01891c-0.67408,-0.68446 -1.01113,-1.63596 -1.01113,-2.8545c0,-1.20298 0.37074,-2.17782 1.11224,-2.9245c0.7415,-0.74668 1.63336,-1.12002 2.6756,-1.12002c1.10965,0 1.99893,0.33186 2.66783,0.99557c0.6689,0.65853 1.00335,1.49854 1.00335,2.52005c0,0.21778 -0.04926,0.54705 -0.14778,0.9878zM192.13993,246.64053h3.74896c-0.12445,-1.11484 -0.74149,-1.67225 -1.85114,-1.67225c-1.01631,0 -1.64892,0.55741 -1.89781,1.67225zM198.63237,250.76283l0.63779,-1.42336c0.5289,0.42519 1.13039,0.63779 1.80447,0.63779c0.68964,0 1.03446,-0.2463 1.03446,-0.7389c0,-0.29038 -0.1037,-0.5289 -0.31112,-0.71557c-0.20741,-0.18667 -0.61446,-0.40445 -1.22113,-0.65335c-1.31187,-0.54964 -1.96781,-1.31447 -1.96781,-2.29448c0,-0.66372 0.25149,-1.17965 0.75446,-1.54781c0.50297,-0.36816 1.14594,-0.55223 1.92892,-0.55223c0.79335,0 1.54003,0.17889 2.24004,0.53668l-0.51334,1.38447c-0.3889,-0.33705 -0.93076,-0.50557 -1.62558,-0.50557c-0.62223,0 -0.93335,0.2489 -0.93335,0.74668c0,0.19185 0.10111,0.36815 0.30334,0.5289c0.20741,0.15556 0.64557,0.36556 1.31447,0.63001c0.6689,0.26445 1.15113,0.58334 1.44669,0.95669c0.29556,0.37334 0.44334,0.82705 0.44334,1.36113c0,0.71038 -0.26445,1.2678 -0.79335,1.67225c-0.52371,0.40445 -1.23669,0.60668 -2.13892,0.60668c-0.50816,0 -0.9152,-0.04148 -1.22113,-0.12445c-0.30593,-0.08296 -0.70001,-0.25149 -1.18224,-0.50557z" fill="#01ebfc" stroke="#00ecfd" stroke-width="0.5" stroke-linecap="square"/><path d="M15.97813,250.24453h-2.31782v-6.98741c1.48299,-0.03471 2.41375,-0.05206 2.79227,-0.05206c1.51929,0 2.72487,0.29852 3.61673,0.89555c0.89187,0.59704 1.3378,1.38845 1.3378,2.37426c0,2.5131 -1.80966,3.76965 -5.42899,3.76965zM15.51923,244.34012v4.77454c0.30075,0.01736 0.62223,0.02604 0.96446,0.02604c0.93854,0 1.67226,-0.22736 2.20115,-0.68208c0.5289,-0.45472 0.79335,-1.08994 0.79335,-1.90565c0,-1.49606 -1.03706,-2.24409 -3.11117,-2.24409c-0.20223,0 -0.48483,0.01041 -0.84779,0.03124zM29.75374,248.0525h-5.45232c0.03111,0.40959 0.23852,0.7272 0.62223,0.95283c0.3889,0.22563 0.90742,0.33844 1.55558,0.33844c0.81409,0 1.43373,-0.14232 1.85892,-0.42695l0.68446,0.91116c-0.62742,0.34017 -1.56336,0.51026 -2.80783,0.51026c-1.16151,0 -2.08189,-0.22736 -2.76116,-0.68208c-0.67408,-0.45819 -1.01113,-1.09515 -1.01113,-1.91086c0,-0.8053 0.37074,-1.45788 1.11224,-1.95772c0.7415,-0.49984 1.63337,-0.74976 2.67561,-0.74976c1.10965,0 1.99893,0.22215 2.66783,0.66645c0.6689,0.44083 1.00335,1.00316 1.00335,1.68698c0,0.14578 -0.04926,0.3662 -0.14778,0.66125zM24.36365,247.15695h3.74896c-0.12445,-0.7463 -0.7415,-1.11944 -1.85115,-1.11944c-1.01631,0 -1.64892,0.37314 -1.89781,1.11944zM35.58506,244.13185c-0.3889,-0.08677 -0.68964,-0.13017 -0.90224,-0.13017c-0.33705,0 -0.62223,0.09718 -0.85557,0.29157c-0.23334,0.19439 -0.35001,0.4339 -0.35001,0.71852c0,0.04165 0.00259,0.08157 0.00778,0.11975h1.57892v0.98407h-1.55558v4.12892h-1.78114v-4.12892h-1.11224v-0.98407h1.12002c0.03629,-0.62481 0.31112,-1.12986 0.82446,-1.51515c0.51853,-0.38529 1.18743,-0.57794 2.0067,-0.57794c0.42001,0 0.93594,0.06249 1.54781,0.18744zM43.54026,248.0525h-5.45232c0.03111,0.40959 0.23852,0.7272 0.62223,0.95283c0.3889,0.22563 0.90742,0.33844 1.55558,0.33844c0.81409,0 1.43373,-0.14232 1.85892,-0.42695l0.68446,0.91116c-0.62742,0.34017 -1.56336,0.51026 -2.80783,0.51026c-1.16151,0 -2.08189,-0.22736 -2.76116,-0.68208c-0.67408,-0.45819 -1.01113,-1.09515 -1.01113,-1.91086c0,-0.8053 0.37074,-1.45788 1.11224,-1.95772c0.7415,-0.49984 1.63337,-0.74976 2.67561,-0.74976c1.10965,0 1.99893,0.22215 2.66783,0.66645c0.6689,0.44083 1.00335,1.00316 1.00335,1.68698c0,0.14578 -0.04926,0.3662 -0.14778,0.66125zM38.15016,247.15695h3.74896c-0.12445,-0.7463 -0.7415,-1.11944 -1.85115,-1.11944c-1.01631,0 -1.64891,0.37314 -1.89781,1.11944zM49.36379,249.73426c-0.16074,0.17703 -0.44334,0.32282 -0.84779,0.43737c-0.39927,0.11107 -0.81668,0.16662 -1.25224,0.16662c-0.82446,0 -1.47262,-0.13711 -1.94448,-0.41133c-0.46668,-0.27422 -0.70001,-0.66472 -0.70001,-1.17151c0,-0.59009 0.32927,-1.05176 0.9878,-1.38498c0.66372,-0.3367 1.60744,-0.50505 2.83116,-0.50505c0.20741,0 0.45371,0.02429 0.7389,0.07289c0,-0.6005 -0.56779,-0.90076 -1.70336,-0.90076c-0.6689,0 -1.22891,0.07462 -1.68003,0.22388l-0.3889,-0.92679c0.61705,-0.19786 1.34817,-0.29678 2.19337,-0.29678c1.16151,0 2.01189,0.17703 2.55116,0.53109c0.54445,0.35405 0.81668,1.02745 0.81668,2.0202v1.0882c0,0.68382 0.20482,1.1125 0.61446,1.28606c-0.14519,0.17009 -0.30852,0.27422 -0.49001,0.31241c-0.18149,0.04165 -0.3889,0.06248 -0.62224,0.06248c-0.25408,0 -0.48482,-0.06249 -0.69223,-0.18744c-0.20223,-0.12843 -0.33964,-0.26728 -0.41223,-0.41654zM49.19268,247.83903c-0.30593,-0.04165 -0.53408,-0.06248 -0.68446,-0.06248c-1.40521,0 -2.10781,0.30893 -2.10781,0.92679c0,0.45819 0.39667,0.68729 1.19002,0.68729c1.06817,0 1.60225,-0.35753 1.60225,-1.07258zM53.16647,246.09478h-0.88668v-0.96324h0.88668v-1.03614l1.78114,-0.44257v1.4787h2.09226v0.96324h-2.09226v2.23367c0,0.36794 0.08555,0.62828 0.25667,0.78101c0.17111,0.14926 0.46927,0.22388 0.89446,0.22388c0.43038,0 0.82964,-0.0781 1.1978,-0.23431v1.09861c-0.41482,0.09372 -1.00335,0.14058 -1.76559,0.14058c-0.76223,0 -1.34817,-0.14406 -1.75781,-0.43216c-0.40445,-0.28811 -0.60668,-0.6977 -0.60668,-1.22878zM65.94312,250.24453h-2.03004c0.77261,-1.59672 2.10263,-3.55445 3.99007,-5.87316h-4.78342v-1.14548h7.20235v0.53108l-0.94113,1.18714c-0.31112,0.39918 -0.63779,0.83654 -0.98002,1.31208c-0.34223,0.47555 -0.67408,0.95977 -0.99557,1.45267c-0.32149,0.48943 -0.60667,0.94935 -0.85557,1.37978c-0.2489,0.42695 -0.45112,0.81225 -0.60668,1.15589zM71.84504,249.71344l0.7389,-1.02051c0.75187,0.39571 1.40003,0.59356 1.94448,0.59356c1.1978,0 1.7967,-0.4929 1.7967,-1.4787c0,-0.47555 -0.13741,-0.82092 -0.41223,-1.03613c-0.26963,-0.21868 -0.72334,-0.32802 -1.36113,-0.32802c-0.57038,0 -1.13039,0.18917 -1.68003,0.56752l-0.73112,-0.32281v-3.46246h5.62344v1.05175h-3.84229v1.24961c0.31112,-0.09372 0.68705,-0.14058 1.1278,-0.14058c1.02669,0 1.81485,0.19959 2.36449,0.59877c0.55483,0.39571 0.83224,0.95803 0.83224,1.68697c0,1.77722 -1.23669,2.66583 -3.71007,2.66583c-1.02669,0 -1.92374,-0.20827 -2.69116,-0.6248zM79.44255,244.77749c0,-0.48596 0.2126,-0.88167 0.63779,-1.18713c0.42519,-0.30893 0.96705,-0.46339 1.62558,-0.46339c0.65335,0 1.17187,0.15273 1.55558,0.45819c0.3889,0.30545 0.58334,0.73241 0.58334,1.28085c0,0.51026 -0.20482,0.91986 -0.61446,1.22879c-0.40964,0.30893 -0.93853,0.46339 -1.58669,0.46339c-1.46743,0 -2.20115,-0.59357 -2.20115,-1.7807zM80.77258,244.82435c0,0.31934 0.07518,0.56406 0.22556,0.73415c0.15556,0.17009 0.34741,0.25513 0.57557,0.25513c0.62742,0 0.94113,-0.32802 0.94113,-0.98406c0,-0.63869 -0.27741,-0.95803 -0.83224,-0.95803c-0.60668,0 -0.91001,0.31761 -0.91001,0.95283zM81.61259,250.33824h-1.40002l6.54901,-7.21129h1.38447zM84.43597,248.55756c0,-0.48248 0.21,-0.87646 0.63001,-1.18193c0.42519,-0.30893 0.96705,-0.4634 1.62558,-0.4634c0.65335,0 1.17187,0.15274 1.55558,0.45819c0.3889,0.30545 0.58334,0.73067 0.58334,1.27564c0,0.51026 -0.20482,0.91986 -0.61446,1.22879c-0.40445,0.30893 -0.93335,0.4634 -1.5867,0.4634c-1.46225,0 -2.19337,-0.59356 -2.19337,-1.78069zM85.75822,248.60442c0,0.31588 0.07519,0.56059 0.22556,0.73414c0.15038,0.17009 0.34482,0.25513 0.58334,0.25513c0.62742,0 0.94113,-0.32802 0.94113,-0.98407c0,-0.63869 -0.27741,-0.95803 -0.83224,-0.95803c-0.61186,0 -0.91779,0.31761 -0.91779,0.95283zM94.07675,247.67762c0,-0.781 0.33445,-1.41622 1.00335,-1.90565c0.67408,-0.48943 1.56336,-0.73414 2.66783,-0.73414c1.15632,0 2.05596,0.23604 2.69894,0.70811c0.64297,0.4686 0.96446,1.1125 0.96446,1.93169c0,0.81572 -0.32667,1.46309 -0.98002,1.9421c-0.65335,0.47902 -1.5478,0.71852 -2.68338,0.71852c-1.16151,0 -2.06374,-0.24125 -2.70672,-0.72373c-0.64297,-0.48596 -0.96446,-1.13159 -0.96446,-1.9369zM95.92789,247.67762c0,1.12465 0.60668,1.68698 1.82004,1.68698c0.55483,0 0.99298,-0.14578 1.31447,-0.43736c0.32667,-0.29157 0.49001,-0.70812 0.49001,-1.24961c0,-1.11076 -0.60149,-1.66615 -1.80447,-1.66615c-0.56001,0 -1.00335,0.14753 -1.33003,0.44257c-0.32667,0.29157 -0.49001,0.69944 -0.49001,1.22358zM107.09098,244.13185c-0.3889,-0.08677 -0.68964,-0.13017 -0.90224,-0.13017c-0.33705,0 -0.62224,0.09718 -0.85557,0.29157c-0.23334,0.19439 -0.35001,0.4339 -0.35001,0.71852c0,0.04165 0.0026,0.08157 0.00778,0.11975h1.57892v0.98407h-1.55558v4.12892h-1.78114v-4.12892h-1.11224v-0.98407h1.12002c0.03629,-0.62481 0.31112,-1.12986 0.82446,-1.51515c0.51853,-0.38529 1.18743,-0.57794 2.0067,-0.57794c0.42001,0 0.93594,0.06249 1.5478,0.18744zM112.90325,246.09478h-0.88668v-0.96324h0.88668v-1.03614l1.78114,-0.44257v1.4787h2.09226v0.96324h-2.09226v2.23367c0,0.36794 0.08555,0.62828 0.25667,0.78101c0.17111,0.14926 0.46927,0.22388 0.89446,0.22388c0.43038,0 0.82964,-0.0781 1.1978,-0.23431v1.09861c-0.41482,0.09372 -1.00335,0.14058 -1.76559,0.14058c-0.76223,0 -1.34817,-0.14406 -1.75781,-0.43216c-0.40445,-0.28811 -0.60668,-0.6977 -0.60668,-1.22878zM123.35833,250.24453v-3.15006c0,-0.31588 -0.14778,-0.56927 -0.44334,-0.76018c-0.29556,-0.19091 -0.67927,-0.28636 -1.15113,-0.28636c-0.29556,0 -0.59371,0.0538 -0.89446,0.16141c-0.30075,0.10761 -0.51334,0.2291 -0.63779,0.36446v3.67073h-1.81226v-7.01344l1.81226,-0.28636v2.51484c0.4563,-0.28116 1.08891,-0.42174 1.89781,-0.42174c0.95409,0 1.69559,0.17703 2.22448,0.53108c0.5289,0.35405 0.79335,0.86257 0.79335,1.52557v3.15006zM133.88681,248.0525h-5.45232c0.03111,0.40959 0.23853,0.7272 0.62224,0.95283c0.3889,0.22563 0.90742,0.33844 1.55558,0.33844c0.81409,0 1.43373,-0.14232 1.85892,-0.42695l0.68446,0.91116c-0.62742,0.34017 -1.56336,0.51026 -2.80783,0.51026c-1.16151,0 -2.08189,-0.22736 -2.76116,-0.68208c-0.67408,-0.45819 -1.01113,-1.09515 -1.01113,-1.91086c0,-0.8053 0.37074,-1.45788 1.11224,-1.95772c0.7415,-0.49984 1.63336,-0.74976 2.6756,-0.74976c1.10965,0 1.99893,0.22215 2.66783,0.66645c0.6689,0.44083 1.00335,1.00316 1.00335,1.68698c0,0.14578 -0.04926,0.3662 -0.14778,0.66125zM128.49671,247.15695h3.74896c-0.12445,-0.7463 -0.74149,-1.11944 -1.85114,-1.11944c-1.01631,0 -1.64892,0.37314 -1.89781,1.11944zM146.67531,248.0525h-5.45232c0.03111,0.40959 0.23852,0.7272 0.62223,0.95283c0.3889,0.22563 0.90742,0.33844 1.55558,0.33844c0.81409,0 1.43373,-0.14232 1.85892,-0.42695l0.68446,0.91116c-0.62742,0.34017 -1.56336,0.51026 -2.80783,0.51026c-1.16151,0 -2.08189,-0.22736 -2.76116,-0.68208c-0.67408,-0.45819 -1.01113,-1.09515 -1.01113,-1.91086c0,-0.8053 0.37074,-1.45788 1.11224,-1.95772c0.7415,-0.49984 1.63337,-0.74976 2.67561,-0.74976c1.10965,0 1.99893,0.22215 2.66783,0.66645c0.6689,0.44083 1.00335,1.00316 1.00335,1.68698c0,0.14578 -0.04926,0.3662 -0.14778,0.66125zM141.28522,247.15695h3.74896c-0.12445,-0.7463 -0.7415,-1.11944 -1.85115,-1.11944c-1.01631,0 -1.64891,0.37314 -1.89781,1.11944zM153.15999,250.24453v-2.95221c0,-0.43736 -0.12445,-0.75497 -0.37334,-0.95282c-0.2489,-0.20133 -0.65593,-0.30199 -1.22113,-0.30199c-0.26445,0 -0.54445,0.04859 -0.84002,0.14578c-0.29556,0.09719 -0.5263,0.22042 -0.69223,0.36968v3.69155h-1.78116v-5.11299h1.28337l0.32667,0.47902c0.48223,-0.38182 1.1978,-0.57273 2.14671,-0.57273c0.90742,0 1.62299,0.18223 2.14671,0.54671c0.52371,0.36446 0.78557,0.87299 0.78557,1.52556v3.13444zM163.68394,248.0525h-5.45232c0.03111,0.40959 0.23852,0.7272 0.62223,0.95283c0.3889,0.22563 0.90742,0.33844 1.55558,0.33844c0.81409,0 1.43373,-0.14232 1.85892,-0.42695l0.68446,0.91116c-0.62742,0.34017 -1.56336,0.51026 -2.80783,0.51026c-1.16151,0 -2.08189,-0.22736 -2.76116,-0.68208c-0.67408,-0.45819 -1.01113,-1.09515 -1.01113,-1.91086c0,-0.8053 0.37074,-1.45788 1.11224,-1.95772c0.7415,-0.49984 1.63336,-0.74976 2.6756,-0.74976c1.10965,0 1.99893,0.22215 2.66783,0.66645c0.6689,0.44083 1.00335,1.00316 1.00335,1.68698c0,0.14578 -0.04926,0.3662 -0.14778,0.66125zM158.29384,247.15695h3.74896c-0.12445,-0.7463 -0.74149,-1.11944 -1.85114,-1.11944c-1.01631,0 -1.64892,0.37314 -1.89781,1.11944zM174.09644,250.24453v-3.20213c0,-0.66993 -0.44853,-1.00489 -1.34558,-1.00489c-0.26445,0 -0.52112,0.05206 -0.77002,0.1562c-0.2489,0.10414 -0.4226,0.22563 -0.52112,0.36447v3.68635h-1.78114v-3.38957c0,-0.24992 -0.11667,-0.44778 -0.35001,-0.59356c-0.23334,-0.14926 -0.56001,-0.22388 -0.98002,-0.22388c-0.22815,0 -0.47445,0.05554 -0.7389,0.16662c-0.25926,0.11107 -0.44853,0.23256 -0.56779,0.36446v3.67594h-1.78114v-5.11299h1.22113l0.36556,0.45298c0.4926,-0.36446 1.13298,-0.54671 1.92115,-0.54671c1.01113,0 1.77336,0.18398 2.28671,0.55192c0.22297,-0.16662 0.53409,-0.30026 0.93335,-0.40092c0.39927,-0.10067 0.79853,-0.15099 1.1978,-0.15099c0.85039,0 1.51151,0.16314 1.98337,0.48943c0.47186,0.32629 0.70779,0.77406 0.70779,1.34332v3.37395zM179.19912,243.153c0.28519,0 0.5289,0.06768 0.73112,0.20306c0.20223,0.13538 0.30334,0.29852 0.30334,0.48943c0,0.19091 -0.10111,0.35406 -0.30334,0.48943c-0.20223,0.13538 -0.44593,0.20306 -0.73112,0.20306c-0.28519,0 -0.5289,-0.06769 -0.73112,-0.20306c-0.20223,-0.13538 -0.30334,-0.29852 -0.30334,-0.48943c0,-0.19091 0.10111,-0.35406 0.30334,-0.48943c0.20223,-0.13538 0.44593,-0.20306 0.73112,-0.20306zM178.28132,250.24453v-4.13413h-0.97224v-0.97886h2.77672v5.11299zM188.97584,248.0525h-5.45232c0.03111,0.40959 0.23853,0.7272 0.62224,0.95283c0.3889,0.22563 0.90742,0.33844 1.55558,0.33844c0.81409,0 1.43373,-0.14232 1.85892,-0.42695l0.68446,0.91116c-0.62742,0.34017 -1.56336,0.51026 -2.80783,0.51026c-1.16151,0 -2.08189,-0.22736 -2.76116,-0.68208c-0.67408,-0.45819 -1.01113,-1.09515 -1.01113,-1.91086c0,-0.8053 0.37074,-1.45788 1.11224,-1.95772c0.7415,-0.49984 1.63337,-0.74976 2.67561,-0.74976c1.10965,0 1.99893,0.22215 2.66783,0.66645c0.6689,0.44083 1.00335,1.00316 1.00335,1.68698c0,0.14578 -0.04926,0.3662 -0.14778,0.66125zM183.58574,247.15695h3.74896c-0.12445,-0.7463 -0.7415,-1.11944 -1.85115,-1.11944c-1.01631,0 -1.64891,0.37314 -1.89781,1.11944zM190.07818,249.9165l0.63779,-0.95283c0.5289,0.28463 1.13039,0.42695 1.80447,0.42695c0.68964,0 1.03446,-0.16488 1.03446,-0.49464c0,-0.19439 -0.1037,-0.35406 -0.31112,-0.47902c-0.20741,-0.12496 -0.61446,-0.27075 -1.22113,-0.43737c-1.31187,-0.36794 -1.96781,-0.87993 -1.96781,-1.53597c0,-0.44431 0.25149,-0.78969 0.75446,-1.03614c0.50297,-0.24645 1.14594,-0.36968 1.92892,-0.36968c0.79335,0 1.54003,0.11975 2.24004,0.35926l-0.51334,0.92679c-0.3889,-0.22563 -0.93076,-0.33844 -1.62558,-0.33844c-0.62223,0 -0.93335,0.16662 -0.93335,0.49984c0,0.12843 0.10111,0.24645 0.30334,0.35406c0.20741,0.10414 0.64557,0.24471 1.31447,0.42174c0.6689,0.17703 1.15113,0.3905 1.44669,0.64042c0.29556,0.24992 0.44334,0.55365 0.44334,0.91118c0,0.47555 -0.26445,0.84869 -0.79335,1.11944c-0.52371,0.27075 -1.23669,0.40613 -2.13892,0.40613c-0.50816,0 -0.9152,-0.02777 -1.22113,-0.08331c-0.30593,-0.05553 -0.70001,-0.16835 -1.18224,-0.33843z" fill="#01ebfc" stroke="#00ecfd" stroke-width="0.5" stroke-linecap="square"/><path d="M-62,254.99945v-16.06611h278v16.06611z" fill="url(#color-1)" stroke="none" stroke-width="0" stroke-linecap="butt"/><path d="M-32.375,255.13333v-7.02892h248v7.02892z" fill="url(#color-2)" stroke="none" stroke-width="0" stroke-linecap="butt"/></g></g></svg>