<svg version="1.1" xmlns="http://www.w3.org/2000/svg" xmlns:xlink="http://www.w3.org/1999/xlink" width="22.72014" height="3.89332" viewBox="0,0,22.72014,3.89332"><defs><linearGradient x1="228.63993" y1="180.00001" x2="251.36008" y2="180.00001" gradientUnits="userSpaceOnUse" id="color-1"><stop offset="0" stop-color="#ffaa00" stop-opacity="0"/><stop offset="1" stop-color="#ffaa00"/></linearGradient><linearGradient x1="236.0297" y1="179.98796" x2="249.69471" y2="179.98796" gradientUnits="userSpaceOnUse" id="color-2"><stop offset="0" stop-color="#ffaa00" stop-opacity="0"/><stop offset="1" stop-color="#ffaa00"/></linearGradient></defs><g transform="translate(-228.63992,-178.05336)"><g data-paper-data="{&quot;isPaintingLayer&quot;:true}" fill-rule="nonzero" stroke-linejoin="miter" stroke-miterlimit="10" stroke-dasharray="" stroke-dashoffset="0" style="mix-blend-mode: normal"><path d="M246.53891,181.9077c-0.94418,0.00461 -4.07874,0.11398 -6.9281,-0.05536c-2.56786,-0.15262 -5.95241,-0.23794 -8.02818,-0.54778c-2.14472,-0.32014 -2.93887,-0.86796 -2.94269,-1.21642c-0.00372,-0.34022 0.78262,-0.9612 2.78136,-1.29803c2.13098,-0.35915 5.56227,-0.42909 8.28712,-0.61682c2.68246,-0.18482 5.88758,-0.09976 6.78842,-0.10413c2.67425,-0.01305 4.85157,0.83566 4.86318,1.89568c0.01162,1.06 -2.14686,1.92987 -4.82108,1.94294z" fill="url(#color-1)" stroke="none" stroke-width="0" stroke-linecap="butt"/><path d="M246.79507,181.13533c-0.56788,0.00277 -2.45314,0.06855 -4.16692,-0.03328c-1.54443,-0.09178 -3.58007,-0.14313 -4.82855,-0.32945c-1.28992,-0.19253 -1.76759,-0.52206 -1.76989,-0.73163c-0.00225,-0.20463 0.47071,-0.57809 1.67286,-0.78071c1.28167,-0.21603 3.34541,-0.25806 4.98428,-0.37099c1.61338,-0.11115 3.54108,-0.05998 4.08288,-0.06264c1.60842,-0.00787 2.91795,0.50261 2.92496,1.14013c0.007,0.63753 -1.29123,1.16073 -2.89962,1.16857z" fill="url(#color-2)" stroke="none" stroke-width="0" stroke-linecap="butt"/><path d="M243.83333,179.87746h4.26667" fill="none" stroke="#fada9a" stroke-width="1.1" stroke-linecap="round"/></g></g></svg>