<svg version="1.1" xmlns="http://www.w3.org/2000/svg" xmlns:xlink="http://www.w3.org/1999/xlink" width="157.03004" height="669.84635" viewBox="0,0,157.03004,669.84635"><defs><linearGradient x1="228.58027" y1="363.31288" x2="190.25026" y2="363.39635" gradientUnits="userSpaceOnUse" id="color-1"><stop offset="0" stop-color="#ff0000"/><stop offset="1" stop-color="#ff0000" stop-opacity="0"/></linearGradient><linearGradient x1="254.54578" y1="363.25634" x2="292.87581" y2="363.17288" gradientUnits="userSpaceOnUse" id="color-2"><stop offset="0" stop-color="#ff0000"/><stop offset="1" stop-color="#ff0000" stop-opacity="0"/></linearGradient><linearGradient x1="269.38321" y1="363.22404" x2="307.71323" y2="363.14057" gradientUnits="userSpaceOnUse" id="color-3"><stop offset="0" stop-color="#ff0000"/><stop offset="1" stop-color="#ff0000" stop-opacity="0"/></linearGradient><radialGradient cx="241.5015" cy="66.23448" r="56.25879" gradientUnits="userSpaceOnUse" id="color-4"><stop offset="0" stop-color="#ff0000"/><stop offset="1" stop-color="#ff0000" stop-opacity="0"/></radialGradient><radialGradient cx="241.5015" cy="66.23448" r="78.51501" gradientUnits="userSpaceOnUse" id="color-5"><stop offset="0" stop-color="#ff0000"/><stop offset="1" stop-color="#ff0000" stop-opacity="0"/></radialGradient><radialGradient cx="226.96084" cy="65.09948" r="31.10903" gradientUnits="userSpaceOnUse" id="color-6"><stop offset="0" stop-color="#ffb7b7"/><stop offset="1" stop-color="#ffb7b7" stop-opacity="0"/></radialGradient><radialGradient cx="254.38581" cy="65.03976" r="31.10903" gradientUnits="userSpaceOnUse" id="color-7"><stop offset="0" stop-color="#ffb7b7"/><stop offset="1" stop-color="#ffb7b7" stop-opacity="0"/></radialGradient><radialGradient cx="240.46865" cy="65.07006" r="31.10903" gradientUnits="userSpaceOnUse" id="color-8"><stop offset="0" stop-color="#ffb7b7"/><stop offset="1" stop-color="#ffb7b7" stop-opacity="0"/></radialGradient><radialGradient cx="241.83418" cy="65.39814" r="15.55451" gradientUnits="userSpaceOnUse" id="color-9"><stop offset="0" stop-color="#ffb7b7"/><stop offset="1" stop-color="#ffb7b7" stop-opacity="0"/></radialGradient><radialGradient cx="235.2864" cy="65.8538" r="15.55451" gradientUnits="userSpaceOnUse" id="color-10"><stop offset="0" stop-color="#ffb7b7"/><stop offset="1" stop-color="#ffb7b7" stop-opacity="0"/></radialGradient><radialGradient cx="228.05459" cy="65.7592" r="10.77902" gradientUnits="userSpaceOnUse" id="color-11"><stop offset="0" stop-color="#ffb7b7"/><stop offset="1" stop-color="#ffb7b7" stop-opacity="0"/></radialGradient><radialGradient cx="256.43464" cy="65.6974" r="12.62098" gradientUnits="userSpaceOnUse" id="color-12"><stop offset="0" stop-color="#ffb7b7"/><stop offset="1" stop-color="#ffb7b7" stop-opacity="0"/></radialGradient><radialGradient cx="254.79734" cy="65.70097" r="10.77899" gradientUnits="userSpaceOnUse" id="color-13"><stop offset="0" stop-color="#ffb7b7"/><stop offset="1" stop-color="#ffb7b7" stop-opacity="0"/></radialGradient><radialGradient cx="263.25751" cy="65.90325" r="7.77725" gradientUnits="userSpaceOnUse" id="color-14"><stop offset="0" stop-color="#ffb7b7"/><stop offset="1" stop-color="#ffb7b7" stop-opacity="0"/></radialGradient><radialGradient cx="247.29188" cy="65.38626" r="15.55451" gradientUnits="userSpaceOnUse" id="color-15"><stop offset="0" stop-color="#ffb7b7"/><stop offset="1" stop-color="#ffb7b7" stop-opacity="0"/></radialGradient><radialGradient cx="224.77885" cy="65.43528" r="12.27988" gradientUnits="userSpaceOnUse" id="color-16"><stop offset="0" stop-color="#ffb7b7"/><stop offset="1" stop-color="#ffb7b7" stop-opacity="0"/></radialGradient><linearGradient x1="212.5064" y1="363.34788" x2="174.17638" y2="363.43135" gradientUnits="userSpaceOnUse" id="color-17"><stop offset="0" stop-color="#ff0000"/><stop offset="1" stop-color="#ff0000" stop-opacity="0"/></linearGradient><linearGradient x1="203.53849" y1="362.27717" x2="227.0311" y2="362.22601" gradientUnits="userSpaceOnUse" id="color-18"><stop offset="0" stop-color="#ff0000"/><stop offset="1" stop-color="#ffffff"/></linearGradient><linearGradient x1="253.61481" y1="362.16812" x2="277.10742" y2="362.11698" gradientUnits="userSpaceOnUse" id="color-19"><stop offset="0" stop-color="#ffffff"/><stop offset="1" stop-color="#ff0000"/></linearGradient><radialGradient cx="218.07643" cy="55.61879" r="46.98536" gradientUnits="userSpaceOnUse" id="color-20"><stop offset="0" stop-color="#ffffff"/><stop offset="1" stop-color="#ffffff" stop-opacity="0"/></radialGradient><radialGradient cx="259.49759" cy="55.5286" r="46.98536" gradientUnits="userSpaceOnUse" id="color-21"><stop offset="0" stop-color="#ffffff"/><stop offset="1" stop-color="#ffffff" stop-opacity="0"/></radialGradient><radialGradient cx="238.4779" cy="55.57437" r="46.98536" gradientUnits="userSpaceOnUse" id="color-22"><stop offset="0" stop-color="#ffffff"/><stop offset="1" stop-color="#ffffff" stop-opacity="0"/></radialGradient><radialGradient cx="240.54032" cy="56.06988" r="23.49268" gradientUnits="userSpaceOnUse" id="color-23"><stop offset="0" stop-color="#ffffff"/><stop offset="1" stop-color="#ffffff" stop-opacity="0"/></radialGradient><radialGradient cx="230.65091" cy="56.75807" r="23.49268" gradientUnits="userSpaceOnUse" id="color-24"><stop offset="0" stop-color="#ffffff"/><stop offset="1" stop-color="#ffffff" stop-opacity="0"/></radialGradient><radialGradient cx="219.72836" cy="56.6152" r="16.28003" gradientUnits="userSpaceOnUse" id="color-25"><stop offset="0" stop-color="#ffffff"/><stop offset="1" stop-color="#ffffff" stop-opacity="0"/></radialGradient><radialGradient cx="262.59205" cy="56.52186" r="19.06204" gradientUnits="userSpaceOnUse" id="color-26"><stop offset="0" stop-color="#ffffff"/><stop offset="1" stop-color="#ffffff" stop-opacity="0"/></radialGradient><radialGradient cx="260.11914" cy="56.52724" r="16.28003" gradientUnits="userSpaceOnUse" id="color-27"><stop offset="0" stop-color="#ffffff"/><stop offset="1" stop-color="#ffffff" stop-opacity="0"/></radialGradient><radialGradient cx="272.89692" cy="56.83275" r="11.74634" gradientUnits="userSpaceOnUse" id="color-28"><stop offset="0" stop-color="#ffffff"/><stop offset="1" stop-color="#ffffff" stop-opacity="0"/></radialGradient><radialGradient cx="248.78333" cy="56.05192" r="23.49268" gradientUnits="userSpaceOnUse" id="color-29"><stop offset="0" stop-color="#ffffff"/><stop offset="1" stop-color="#ffffff" stop-opacity="0"/></radialGradient><radialGradient cx="214.78089" cy="56.12597" r="18.54686" gradientUnits="userSpaceOnUse" id="color-30"><stop offset="0" stop-color="#ffffff"/><stop offset="1" stop-color="#ffffff" stop-opacity="0"/></radialGradient></defs><g transform="translate(-162.98648,-2.73448)"><g data-paper-data="{&quot;isPaintingLayer&quot;:true}" fill-rule="nonzero" stroke-linejoin="miter" stroke-miterlimit="10" stroke-dasharray="" stroke-dashoffset="0" style="mix-blend-mode: normal"><g fill="none" stroke="#ff0000" stroke-width="4" stroke-linecap="round"><g><path d="M244.06226,356.05926c0,0 -57.05471,-18.59777 -45.46855,-44.61744c8.3584,-18.77095 87.87415,-41.48168 82.48023,-63.49364c-8.0644,-32.90996 -81.18609,-64.52957 -81.24022,-80.7933c-0.07082,-21.27719 43.43956,-48.09476 43.43956,-48.09476"/><path d="M241.11221,355.06567c0,0 43.68831,26.62769 43.75915,47.90489c0.05415,16.26372 -72.85595,48.20132 -80.70112,81.14592c-5.24728,22.03513 74.41852,44.39925 82.90178,63.13353c11.75921,25.96885 -45.17083,44.81482 -45.17083,44.81482" data-paper-data="{&quot;index&quot;:null}"/></g><g data-paper-data="{&quot;index&quot;:null}"><path d="M241.02234,328.06577c0,0 57.05471,18.59777 45.46855,44.61744c-8.35839,18.77094 -87.87416,41.48167 -82.48023,63.49364c8.06439,32.90995 81.18609,64.52957 81.24022,80.7933c0.07082,21.27719 -43.43956,48.09476 -43.43956,48.09476"/><path d="M243.97236,329.05935c0,0 -43.68831,-26.62769 -43.75915,-47.90489c-0.05415,-16.26372 72.85595,-48.20132 80.70112,-81.14592c5.24728,-22.03513 -74.41852,-44.39925 -82.90178,-63.13353c-11.75921,-25.96885 45.17083,-44.81482 45.17083,-44.81482" data-paper-data="{&quot;index&quot;:null}"/></g></g><g stroke="none" stroke-width="0" stroke-linecap="butt"><path d="M191.27737,671.9321l-2.05422,-617.0715l38.33003,-0.08346l2.05422,617.0715z" data-paper-data="{&quot;index&quot;:null}" fill="url(#color-1)"/><path d="M255.57289,671.79209l-2.05422,-617.0715l38.33003,-0.08346l2.05422,617.0715z" fill="url(#color-2)"/></g><path d="M270.41033,671.75979l-2.05422,-617.0715l38.33003,-0.08346l2.05422,617.0715z" fill="url(#color-3)" stroke="none" stroke-width="0" stroke-linecap="butt"/><path d="M185.24292,66.35698c-0.08365,-25.12887 25.03635,-45.55468 56.10712,-45.62233c31.07077,-0.06765 56.3264,20.24846 56.41004,45.37733c0.08365,25.12887 -25.03635,45.55468 -56.10712,45.62233c-31.07077,0.06765 -56.3264,-20.24846 -56.41004,-45.37733z" fill="url(#color-4)" stroke="none" stroke-width="0" stroke-linecap="butt"/><path d="M162.98677,66.40545c-0.11675,-35.06995 34.94085,-63.57632 78.30334,-63.67073c43.36248,-0.09442 78.60938,28.25885 78.72612,63.32881c0.11675,35.06995 -34.94085,63.57632 -78.30334,63.67073c-43.36248,0.09442 -78.60938,-28.25885 -78.72612,-63.32881z" fill="url(#color-5)" stroke="none" stroke-width="0" stroke-linecap="butt"/><g stroke="none" stroke-width="0" stroke-linecap="butt"><path d="M195.85191,65.16722c-0.04625,-13.89533 13.84419,-25.19006 31.02516,-25.22747c17.18097,-0.03741 31.14642,11.19666 31.19268,25.09199c0.04625,13.89533 -13.84419,25.19006 -31.02516,25.22747c-17.18097,0.03741 -31.14642,-11.19666 -31.19268,-25.09199z" fill="url(#color-6)"/><path d="M223.27689,65.1075c-0.04625,-13.89533 13.84419,-25.19006 31.02516,-25.22747c17.18097,-0.03741 31.14642,11.19666 31.19268,25.09199c0.04625,13.89533 -13.84419,25.19006 -31.02516,25.22747c-17.18097,0.03741 -31.14642,-11.19666 -31.19268,-25.09199z" fill="url(#color-7)"/><path d="M209.35974,65.1378c-0.04625,-13.89533 13.84419,-25.19006 31.02516,-25.22747c17.18097,-0.03741 31.14642,11.19666 31.19268,25.09199c0.04625,13.89533 -13.84419,25.19006 -31.02516,25.22747c-17.18097,0.03741 -31.14642,-11.19666 -31.19268,-25.09199z" fill="url(#color-8)"/><path d="M226.27973,65.43201c-0.02313,-6.94767 6.92209,-12.59503 15.51258,-12.61373c8.5905,-0.0187 15.57321,5.59833 15.59633,12.54599c0.02313,6.94767 -6.92209,12.59503 -15.51258,12.61373c-8.5905,0.0187 -15.57321,-5.59833 -15.59633,-12.54599z" fill="url(#color-9)"/><path d="M219.73196,65.88767c-0.02313,-6.94767 6.92209,-12.59503 15.51258,-12.61373c8.5905,-0.0187 15.57321,5.59833 15.59633,12.54599c0.02313,6.94767 -6.92209,12.59503 -15.51258,12.61373c-8.5905,0.0187 -15.57321,-5.59833 -15.59633,-12.54599z" fill="url(#color-10)"/><path d="M217.27561,65.78267c-0.01603,-4.81462 4.79688,-8.72812 10.74994,-8.74109c5.95308,-0.01296 10.79197,3.87955 10.808,8.69414c0.01603,4.81462 -4.79688,8.72812 -10.74996,8.74109c-5.95308,0.01296 -10.79195,-3.87954 -10.80798,-8.69415z" fill="url(#color-11)"/><path d="M243.81368,65.72488c-0.01877,-5.63736 5.61662,-10.21965 12.58696,-10.23483c6.97035,-0.01518 12.63615,4.54251 12.65493,10.17986c0.01877,5.63736 -5.61662,10.21965 -12.58696,10.23483c-6.97035,0.01518 -12.63615,-4.54251 -12.65493,-10.17986z" fill="url(#color-12)"/><path d="M244.01837,65.72443c-0.01603,-4.81462 4.79688,-8.72812 10.74996,-8.74109c5.95308,-0.01296 10.79195,3.87954 10.80798,8.69415c0.01603,4.81462 -4.79688,8.72812 -10.74994,8.74109c-5.95308,0.01296 -10.79197,-3.87955 -10.808,-8.69414z" fill="url(#color-13)"/><path d="M255.48027,65.92018c-0.01156,-3.47384 3.46106,-6.29751 7.75628,-6.30686c4.29525,-0.00935 7.7866,2.79917 7.79816,6.27299c0.01156,3.47384 -3.46106,6.29751 -7.75628,6.30686c-4.29525,0.00935 -7.7866,-2.79917 -7.79816,-6.27299z" fill="url(#color-14)"/><path d="M231.73742,65.42013c-0.02313,-6.94767 6.92209,-12.59503 15.51258,-12.61373c8.5905,-0.0187 15.57321,5.59833 15.59633,12.54599c0.02313,6.94767 -6.92209,12.59503 -15.51258,12.61373c-8.5905,0.0187 -15.57321,-5.59833 -15.59633,-12.54599z" fill="url(#color-15)"/><path d="M212.49901,65.46202c-0.01825,-5.485 5.4648,-9.94344 12.24677,-9.95821c6.78197,-0.01476 12.29464,4.41973 12.3129,9.90473c0.01825,5.485 -5.4648,9.94344 -12.24677,9.95821c-6.78197,0.01476 -12.29464,-4.41973 -12.3129,-9.90473z" fill="url(#color-16)"/></g><path d="M175.20349,671.9671l-2.05422,-617.0715l38.33003,-0.08346l2.05422,617.0715z" data-paper-data="{&quot;index&quot;:null}" fill="url(#color-17)" stroke="none" stroke-width="0" stroke-linecap="butt"/><g stroke="none" stroke-linecap="butt"><path d="M204.56923,671.90316l-2.06148,-619.25198l23.4926,-0.05116l2.06148,619.25198z" data-paper-data="{&quot;index&quot;:null}" fill="url(#color-18)" stroke-width="NaN"/><path d="M227.13691,672.58083l-2.0639,-619.97878l29.67486,-0.06461l2.0639,619.97878z" fill="#ffffff" stroke-width="0"/><path d="M254.64555,671.79411l-2.06148,-619.25198l23.4926,-0.05116l2.06148,619.25198z" fill="url(#color-19)" stroke-width="NaN"/></g><g stroke="none" stroke-width="0" stroke-linecap="butt"><path d="M171.09124,55.7211c-0.06987,-20.98674 20.90948,-38.04567 46.85869,-38.10217c25.9492,-0.05651 47.04183,16.91081 47.11169,37.89755c0.06987,20.98674 -20.90948,38.04567 -46.85869,38.10217c-25.9492,0.05651 -47.04183,-16.91081 -47.11169,-37.89755z" fill="url(#color-20)"/><path d="M212.5124,55.63091c-0.06987,-20.98674 20.90948,-38.04567 46.85869,-38.10217c25.9492,-0.05651 47.04183,16.91081 47.11169,37.89755c0.06987,20.98674 -20.90948,38.04567 -46.85869,38.10217c-25.9492,0.05651 -47.04183,-16.91081 -47.11169,-37.89755z" fill="url(#color-21)"/><path d="M191.4927,55.67668c-0.06987,-20.98674 20.90948,-38.04567 46.85869,-38.10217c25.9492,-0.05651 47.04183,16.91081 47.11169,37.89755c0.06987,20.98674 -20.90948,38.04567 -46.85869,38.10217c-25.9492,0.05651 -47.04183,-16.91081 -47.11169,-37.89755z" fill="url(#color-22)"/><path d="M217.04772,56.12103c-0.03493,-10.49337 10.45474,-19.02284 23.42935,-19.05109c12.9746,-0.02825 23.52092,8.4554 23.55585,18.94878c0.03493,10.49337 -10.45474,19.02284 -23.42935,19.05109c-12.9746,0.02825 -23.52092,-8.4554 -23.55585,-18.94878z" fill="url(#color-23)"/><path d="M207.15833,56.80923c-0.03493,-10.49337 10.45474,-19.02284 23.42935,-19.05109c12.9746,-0.02825 23.52092,8.4554 23.55585,18.94878c0.03493,10.49337 -10.45474,19.02284 -23.42935,19.05109c-12.9746,0.02825 -23.52092,-8.4554 -23.55585,-18.94878z" fill="url(#color-24)"/><path d="M203.44841,56.65064c-0.02421,-7.27173 7.24493,-13.18248 16.23612,-13.20206c8.99119,-0.01958 16.29958,5.85945 16.32379,13.13116c0.02421,7.27173 -7.24496,13.18249 -16.23613,13.20207c-8.99119,0.01958 -16.29957,-5.85943 -16.32378,-13.13118z" fill="url(#color-25)"/><path d="M243.53006,56.56337c-0.02836,-8.51436 8.48302,-15.43519 19.01064,-15.45811c10.52764,-0.02293 19.08496,6.86075 19.1133,15.3751c0.02836,8.51436 -8.48302,15.4352 -19.01067,15.45812c-10.52764,0.02293 -19.08496,-6.86075 -19.1133,-15.37511z" fill="url(#color-26)"/><path d="M243.83918,56.56269c-0.02421,-7.27173 7.24496,-13.18248 16.23614,-13.20206c8.99119,-0.01958 16.29958,5.85945 16.32379,13.13116c0.02421,7.27173 -7.24496,13.18249 -16.23613,13.20207c-8.99119,0.01958 -16.2996,-5.85944 -16.32379,-13.13117z" fill="url(#color-27)"/><path d="M261.15063,56.85833c-0.01747,-5.24669 5.22737,-9.51141 11.71468,-9.52554c6.4873,-0.01413 11.76046,4.2277 11.77792,9.47439c0.01747,5.24669 -5.22737,9.51142 -11.71468,9.52554c-6.48729,0.01412 -11.76046,-4.2277 -11.77792,-9.47439z" fill="url(#color-28)"/><path d="M225.29073,56.10308c-0.03493,-10.49337 10.45474,-19.02284 23.42935,-19.05109c12.9746,-0.02825 23.52092,8.4554 23.55585,18.94878c0.03493,10.49337 -10.45474,19.02284 -23.42935,19.05109c-12.9746,0.02825 -23.52092,-8.4554 -23.55585,-18.94878z" fill="url(#color-29)"/><path d="M196.23409,56.16635c-0.02757,-8.28424 8.25375,-15.01803 18.49685,-15.04033c10.24311,-0.0223 18.56914,6.67532 18.59672,14.95956c0.02757,8.28424 -8.25375,15.01803 -18.49685,15.04033c-10.24311,0.0223 -18.56914,-6.67532 -18.59672,-14.95956z" fill="url(#color-30)"/></g></g></g></svg>