<svg version="1.1" xmlns="http://www.w3.org/2000/svg" xmlns:xlink="http://www.w3.org/1999/xlink" width="298.26682" height="251.05186" viewBox="0,0,298.26682,251.05186"><defs><radialGradient cx="239.86814" cy="178.9855" r="129.66058" gradientUnits="userSpaceOnUse" id="color-1"><stop offset="0" stop-color="#d1b7a0"/><stop offset="1" stop-color="#d1b7a0" stop-opacity="0"/></radialGradient><radialGradient cx="239.81898" cy="179.01023" r="91.43228" gradientUnits="userSpaceOnUse" id="color-2"><stop offset="0" stop-color="#de9d64"/><stop offset="1" stop-color="#de9d64" stop-opacity="0"/></radialGradient><linearGradient x1="327.22642" y1="279.95477" x2="307.03243" y2="179.68696" gradientUnits="userSpaceOnUse" id="color-3"><stop offset="0" stop-color="#d1b7a0" stop-opacity="0"/><stop offset="1" stop-color="#d1b7a0"/></linearGradient><linearGradient x1="269.63704" y1="120.4432" x2="281.26627" y2="151.39629" gradientUnits="userSpaceOnUse" id="color-4"><stop offset="0" stop-color="#d1b7a0" stop-opacity="0"/><stop offset="1" stop-color="#d1b7a0"/></linearGradient><linearGradient x1="303.21302" y1="145.34609" x2="297.0529" y2="206.94585" gradientUnits="userSpaceOnUse" id="color-5"><stop offset="0" stop-color="#d1b7a0" stop-opacity="0"/><stop offset="1" stop-color="#d1b7a0"/></linearGradient><linearGradient x1="246.35212" y1="78.81946" x2="213.02508" y2="130.99018" gradientUnits="userSpaceOnUse" id="color-6"><stop offset="0" stop-color="#d1b7a0" stop-opacity="0"/><stop offset="1" stop-color="#d1b7a0"/></linearGradient><radialGradient cx="239.61985" cy="179.00713" r="63.74633" gradientUnits="userSpaceOnUse" id="color-7"><stop offset="0" stop-color="#ff7800"/><stop offset="1" stop-color="#ff7800" stop-opacity="0"/></radialGradient><radialGradient cx="239.78153" cy="178.99307" r="62.17205" gradientUnits="userSpaceOnUse" id="color-8"><stop offset="0" stop-color="#dd8b44"/><stop offset="1" stop-color="#dd8b44" stop-opacity="0"/></radialGradient><linearGradient x1="216.26771" y1="128.6958" x2="206.78518" y2="153.9351" gradientUnits="userSpaceOnUse" id="color-9"><stop offset="0" stop-color="#d1b7a0" stop-opacity="0"/><stop offset="1" stop-color="#d1b7a0"/></linearGradient><linearGradient x1="138.77354" y1="90.71717" x2="158.96751" y2="190.98498" gradientUnits="userSpaceOnUse" id="color-10"><stop offset="0" stop-color="#d1b7a0" stop-opacity="0"/><stop offset="1" stop-color="#d1b7a0"/></linearGradient><radialGradient cx="239.7591" cy="179.00502" r="44.69189" gradientUnits="userSpaceOnUse" id="color-11"><stop offset="0" stop-color="#ff7800" stop-opacity="0"/><stop offset="1" stop-color="#ff7800"/></radialGradient><radialGradient cx="239.6649" cy="178.99684" r="28.65869" gradientUnits="userSpaceOnUse" id="color-12"><stop offset="0" stop-color="#ffb500" stop-opacity="0"/><stop offset="1" stop-color="#ffb500"/></radialGradient><radialGradient cx="239.67355" cy="179.00248" r="21.93067" gradientUnits="userSpaceOnUse" id="color-13"><stop offset="0" stop-color="#ffca00" stop-opacity="0"/><stop offset="1" stop-color="#ffca00"/></radialGradient><radialGradient cx="281.5" cy="232.33333" r="6.5" gradientUnits="userSpaceOnUse" id="color-14"><stop offset="0" stop-color="#fcd900"/><stop offset="1" stop-color="#fcd900" stop-opacity="0"/></radialGradient><radialGradient cx="294.5" cy="161.33333" r="4.5" gradientUnits="userSpaceOnUse" id="color-15"><stop offset="0" stop-color="#fcd900"/><stop offset="1" stop-color="#fcd900" stop-opacity="0"/></radialGradient><radialGradient cx="243.5" cy="73.33333" r="5.5" gradientUnits="userSpaceOnUse" id="color-16"><stop offset="0" stop-color="#fcd900"/><stop offset="1" stop-color="#fcd900" stop-opacity="0"/></radialGradient><radialGradient cx="154.5" cy="167.33333" r="5.5" gradientUnits="userSpaceOnUse" id="color-17"><stop offset="0" stop-color="#fcd900"/><stop offset="1" stop-color="#fcd900" stop-opacity="0"/></radialGradient><radialGradient cx="192.5" cy="239.33333" r="2.5" gradientUnits="userSpaceOnUse" id="color-18"><stop offset="0" stop-color="#fcd900"/><stop offset="1" stop-color="#fcd900" stop-opacity="0"/></radialGradient><radialGradient cx="261.5" cy="256.83333" r="3.5" gradientUnits="userSpaceOnUse" id="color-19"><stop offset="0" stop-color="#fcd900"/><stop offset="1" stop-color="#fcd900" stop-opacity="0"/></radialGradient><radialGradient cx="189.5" cy="118.33333" r="3" gradientUnits="userSpaceOnUse" id="color-20"><stop offset="0" stop-color="#fcd900"/><stop offset="1" stop-color="#fcd900" stop-opacity="0"/></radialGradient><radialGradient cx="280.5" cy="121.33333" r="3" gradientUnits="userSpaceOnUse" id="color-21"><stop offset="0" stop-color="#fcd900"/><stop offset="1" stop-color="#fcd900" stop-opacity="0"/></radialGradient><radialGradient cx="327.5" cy="206.33333" r="3" gradientUnits="userSpaceOnUse" id="color-22"><stop offset="0" stop-color="#fcd900"/><stop offset="1" stop-color="#fcd900" stop-opacity="0"/></radialGradient></defs><g transform="translate(-83.8666,-53.47407)"><g data-paper-data="{&quot;isPaintingLayer&quot;:true}" fill-rule="nonzero" stroke-linejoin="miter" stroke-miterlimit="10" stroke-dasharray="" stroke-dashoffset="0" style="mix-blend-mode: normal"><g stroke="none" stroke-linecap="butt"><path d="M354.8732,238.07223c-14.22456,19.82964 -43.91947,36.51782 -69.35086,46.45299c-14.14923,5.52762 -29.54739,19.97173 -45.65421,19.97173c-24.5167,0 -51.43635,1.21675 -68.4034,-12.11676c-20.05307,-15.75859 -28.67372,-48.13683 -38.4608,-73.66916c-5.34538,-13.94488 -18.64718,-23.89994 -18.64718,-39.72555c0,-16.94434 -2.66484,-35.45776 6.02685,-49.33614c11.63577,-18.57937 37.0508,-31.31705 53.46991,-44.48391c21.49023,-17.23342 36.32483,-31.69136 66.01461,-31.69136c12.27138,0 24.46257,14.4206 35.83573,18.17294c15.84749,5.22858 30.10667,1.4643 40.7813,13.07711c15.81296,17.20275 22.43095,41.36602 30.39146,63.97329c4.59391,13.0465 18.50298,15.67042 18.50298,30.28809c0,24.26143 1.41454,42.4685 -10.50638,59.08677z" data-paper-data="{&quot;index&quot;:null}" fill="url(#color-1)" stroke-width="0"/><path d="M328.32542,179.01023c0,10.30788 -9.8082,12.1582 -13.04768,21.35812c-5.61343,15.9419 -10.28024,32.98102 -21.43098,45.11179c-7.52741,8.18896 -17.58248,5.53446 -28.75759,9.22151c-8.01997,2.64602 -16.6168,12.81495 -25.27015,12.81495c-20.93621,0 -31.39712,-10.19524 -46.55129,-22.34764c-11.57825,-9.28483 -29.50004,-18.26701 -37.7052,-31.36857c-6.12908,-9.78657 -4.24991,-22.84158 -4.24991,-34.79018c0,-11.15967 9.37995,-18.17968 13.14936,-28.0131c6.90155,-18.00453 12.98056,-40.83657 27.1213,-51.94898c11.9646,-9.4023 30.94745,-8.54434 48.2358,-8.54434c11.35797,0 22.21625,10.18554 32.19381,14.0834c17.93334,7.00595 38.87317,18.77388 48.90386,32.75708c8.40626,11.71864 7.40878,24.55766 7.40878,41.66599z" fill="url(#color-2)" stroke-width="0"/><path d="M254.28964,201.49083c-0.08053,-0.85884 -0.13383,-1.66375 -0.16137,-2.41711c-0.36167,-9.88637 3.70982,-10.8983 8.89448,-8.51675c3.85891,-0.09715 7.38856,2.27123 8.75727,5.88756c4.79633,3.92725 9.0765,8.21783 10.54787,9.08685c1.6083,0.94989 4.92793,8.17429 6.84947,10.17573c0.0447,0.04656 8.89428,-4.0952 10.97611,-2.33846c4.70099,3.96692 5.83859,7.38834 4.45995,13.11878c-0.26009,1.08113 -2.14451,2.22857 -1.38078,3.03677c8.41801,8.90801 19.57979,9.6514 26.95292,15.07527c4.39168,3.23066 8.5644,11.66145 12.86266,14.13721c10.05422,5.79117 39.0852,10.15985 39.0852,10.15985c0,0 -18.31271,-1.32582 -28.60737,-1.71409c-12.73899,-0.48045 -18.44257,-0.98224 -22.25761,-2.71049c-4.76607,-2.15905 -14.54775,-8.22929 -18.56144,-11.64754c-8.79062,-7.48644 -14.77056,-2.49917 -24.60116,-9.03378c-3.96492,-2.63557 -4.44097,-4.77024 -4.78321,-8.76416c-0.14809,-1.72826 -25.05134,-25.06679 -28.09638,-30.95822z" data-paper-data="{&quot;index&quot;:null}" fill="url(#color-3)" stroke-width="0.5"/><path d="M262.88555,153.58017c-0.17367,-2.1369 2.65955,-12.80054 2.40428,-13.29982c-0.58994,-1.15383 -0.82488,-1.8207 -0.18885,-3.22228c1.57699,-3.47505 4.07069,-3.13126 5.1995,-6.68926c0.5154,-1.62455 2.15847,-4.96385 3.09577,-6.37193c0.75029,-1.12709 2.22843,-2.24121 5.63947,-4.55401c2.75655,-1.86902 7.5513,-5.36791 7.5513,-5.36791c0,0 -7.21297,6.16841 -8.97856,9.47787c-0.7548,1.41482 -0.45562,4.44115 -1.10681,6.07895c-1.09325,2.74972 -4.02679,4.86458 -4.81004,8.7486c-0.07106,0.35236 0.64213,0.34441 0.89855,0.59635c1.35917,1.33538 1.63299,2.46839 1.02305,4.36105c-0.27011,0.83817 -3.40598,1.21754 -3.41027,1.23794c-0.18428,0.87781 0.14231,3.42726 -0.13608,3.9631c-0.2547,0.49023 -0.69382,2.39959 -1.33669,4.2977c0.24384,1.22601 -0.31858,2.47977 -1.39344,3.11384c-1.01398,1.54076 -2.30376,1.96035 -3.89722,-0.81264c-0.12142,-0.2113 -0.24462,-0.44114 -0.36957,-0.69046z" data-paper-data="{&quot;index&quot;:null}" fill="url(#color-4)" stroke-width="0.5"/><path d="M264.39067,195.36256c1.48131,-3.7307 15.08324,-19.27821 15.06897,-20.32799c-0.03296,-2.42602 0.12595,-3.74021 2.35625,-5.56497c5.52973,-4.5243 9.42998,-1.87847 14.27634,-6.91379c2.21281,-2.29905 7.74086,-6.54073 10.48219,-8.12645c2.19432,-1.26933 5.59953,-1.91298 13.24338,-2.96499c6.17719,-0.85013 17.12748,-2.74498 17.12748,-2.74498c0,0 -17.22369,4.36918 -22.93261,8.45907c-2.44061,1.74847 -4.4491,7.0761 -6.90079,9.28482c-4.1161,3.70817 -10.79426,4.82411 -15.33111,10.69332c-0.41161,0.5325 0.79206,1.11077 1.01344,1.74637c1.17339,3.36889 0.69305,5.49769 -1.90084,8.16837c-1.14871,1.1827 -6.72671,-0.78209 -6.75085,-0.75135c-1.03753,1.32048 -2.60442,5.87043 -3.51623,6.53882c-0.83418,0.61149 -3.15521,3.45191 -5.80894,6.1044c-0.60786,2.26003 -2.59198,3.89782 -4.922,4.07031c-2.98012,1.7448 -5.49293,1.37905 -5.86695,-4.59713c-0.0285,-0.45541 -0.04458,-0.94338 -0.04752,-1.4655z" data-paper-data="{&quot;index&quot;:null}" fill="url(#color-5)" stroke-width="0.5"/><path d="M245.16557,143.64909c-0.32576,0.40801 -0.64067,0.78114 -0.94518,1.12095c-3.99598,4.45944 -6.19508,3.18977 -7.45345,-0.02611c-1.72214,-1.57894 -2.26499,-4.09375 -1.34199,-6.2444c-0.43982,-3.72618 -0.50205,-7.39383 -0.77803,-8.39061c-0.30165,-1.08957 1.28716,-5.63189 1.29082,-7.31121c0.00007,-0.03906 -5.59574,-1.95246 -5.76475,-3.59252c-0.3816,-3.70338 0.5602,-5.67206 3.56839,-7.58962c0.56754,-0.36177 1.87064,-0.07002 1.87744,-0.74301c0.07479,-7.41788 -4.47606,-12.43116 -5.4098,-17.89202c-0.55615,-3.25268 1.16782,-8.67905 0.33522,-11.56357c-1.94759,-6.74728 -12.76094,-20.84753 -12.76094,-20.84753c0,0 7.42179,8.27141 11.74406,12.76567c5.3485,5.56136 7.62273,8.17621 8.55888,10.53204c1.16948,2.94306 2.88105,9.69745 3.19374,12.87305c0.68478,6.95506 5.38555,7.29445 6.92335,14.27171c0.62023,2.8141 -0.0692,3.94416 -1.59807,5.82811c-0.66159,0.81522 0.38355,21.44639 -0.76491,25.29259z" data-paper-data="{&quot;index&quot;:null}" fill="url(#color-6)" stroke-width="0.5"/><path d="M183.07875,149.95774c6.99336,-9.74905 21.59257,-17.95362 34.09567,-22.83813c6.95632,-2.7176 14.5267,-9.81889 22.44545,-9.81889c12.0534,0 25.28816,-0.59819 33.62987,5.95707c9.8589,7.74754 14.09715,23.66598 18.90888,36.2187c2.628,6.85586 9.16769,11.75018 9.16769,19.53068c0,8.33051 1.31014,17.43247 -2.96303,24.25564c-5.72062,9.13435 -18.21567,15.39672 -26.28796,21.87007c-10.56545,8.47263 -17.85875,15.58074 -32.45544,15.58074c-6.0331,0 -12.02679,-7.08973 -17.61827,-8.93456c-7.79126,-2.57058 -14.80165,-0.71989 -20.04973,-6.42923c-7.77428,-8.45756 -11.02795,-20.33719 -14.94164,-31.45182c-2.25854,-6.41417 -9.09678,-7.70422 -9.09678,-14.89083c0,-11.92791 -0.69544,-20.87921 5.16534,-29.04942z" data-paper-data="{&quot;index&quot;:null}" fill="url(#color-7)" stroke-width="0"/><path d="M294.92628,207.32508c-6.82065,9.50828 -21.05934,17.51024 -33.25363,22.27414c-6.78452,2.65046 -14.16794,9.57641 -21.89112,9.57641c-11.75571,0 -24.66363,0.5834 -32.79932,-5.80996c-9.61541,-7.55621 -13.74899,-23.08154 -18.4419,-35.32423c-2.5631,-6.68656 -8.94128,-11.45999 -8.94128,-19.04835c0,-8.1248 -1.27779,-17.00193 2.88986,-23.65659c5.57932,-8.90878 17.76581,-15.01648 25.63876,-21.32998c10.30451,-8.2634 17.4177,-15.19593 31.65391,-15.19593c5.88412,0 11.72978,6.91462 17.18318,8.71388c7.59885,2.5071 14.4361,0.70214 19.55456,6.27044c7.58227,8.24869 10.75561,19.83494 14.57265,30.67509c2.20279,6.25576 8.87214,7.51395 8.87214,14.5231c0,11.63332 0.67825,20.36356 -5.0378,28.332z" data-paper-data="{&quot;index&quot;:null}" fill="url(#color-8)" stroke-width="0"/><path d="M221.62254,156.42292c-0.1019,0.20329 -0.20234,0.39071 -0.30137,0.563c-1.29933,2.26111 -2.35099,1.91897 -3.17782,0.66263c-0.87642,-0.51701 -1.33501,-1.53934 -1.13621,-2.53904c-0.52421,-1.54774 -0.88228,-3.10466 -1.08995,-3.50438c-0.22701,-0.43691 0.03926,-2.51574 -0.11099,-3.23155c-0.00349,-0.01664 -2.56051,-0.32599 -2.78074,-1.00945c-0.49734,-1.5433 -0.27406,-2.46714 0.83422,-3.55604c0.20909,-0.20544 0.79064,-0.19891 0.73269,-0.48627c-0.63868,-3.16708 -3.03067,-4.89153 -3.92213,-7.13365c-0.53097,-1.33549 -0.28701,-3.80318 -0.90249,-4.95681c-1.43966,-2.69853 -7.32118,-7.72829 -7.32118,-7.72829c0,0 3.90967,2.85301 6.15738,4.37704c2.78139,1.88587 3.98667,2.79431 4.59846,3.71335c0.76428,1.14814 2.10405,3.87104 2.52432,5.1957c0.92046,2.90121 2.95382,2.62087 4.23968,5.45445c0.51863,1.14285 0.32706,1.68664 -0.15399,2.62746c-0.20817,0.40712 2.10208,9.10229 1.96047,10.84475z" data-paper-data="{&quot;index&quot;:null}" fill="url(#color-9)" stroke-width="0.5"/><path d="M211.71033,169.18112c0.08053,0.85884 0.13383,1.66375 0.16137,2.41711c0.36167,9.88637 -3.70981,10.8983 -8.89445,8.51675c-3.85891,0.09715 -7.38856,-2.27123 -8.75726,-5.88756c-4.79635,-3.92725 -9.0765,-8.21783 -10.54785,-9.08685c-1.6083,-0.94989 -4.92793,-8.17429 -6.84948,-10.17571c-0.04473,-0.04657 -8.89427,4.0952 -10.9761,2.33846c-4.701,-3.96691 -5.83859,-7.38835 -4.45996,-13.11878c0.26011,-1.08113 2.14452,-2.22854 1.38078,-3.03676c-8.41801,-8.90801 -19.57978,-9.6514 -26.95291,-15.07527c-4.39168,-3.23066 -8.5644,-11.66145 -12.86267,-14.13722c-10.05423,-5.79117 -39.0852,-10.15984 -39.0852,-10.15984c0,0 18.31271,1.32583 28.60739,1.71409c12.73899,0.48045 18.44257,0.98224 22.25762,2.71049c4.76606,2.15905 14.54774,8.2293 18.56143,11.64754c8.79061,7.48644 14.77056,2.49917 24.60116,9.03381c3.96492,2.63558 4.44097,4.77022 4.78321,8.76416c0.14809,1.72826 25.05132,25.06679 28.09634,30.95822z" fill="url(#color-10)" stroke-width="0.5"/><path d="M283.02082,179.00502c0,5.03847 -4.79422,5.9429 -6.37767,10.43981c-2.74383,7.79237 -5.02495,16.12105 -10.47542,22.05055c-3.67938,4.00276 -8.59428,2.70524 -14.05664,4.50745c-3.92016,1.29337 -8.12225,6.26392 -12.35199,6.26392c-10.23357,0 -15.34683,-4.98341 -22.75416,-10.92348c-5.65942,-4.53841 -14.41956,-8.92887 -18.43022,-15.33287c-2.99588,-4.78367 -2.07734,-11.16491 -2.07734,-17.00537c0,-5.45483 4.5849,-8.88619 6.42738,-13.69275c3.37345,-8.80057 6.34486,-19.96084 13.25683,-25.39254c5.84828,-4.59582 15.12705,-4.17647 23.57756,-4.17647c5.55174,0 10.85925,4.97866 15.73627,6.88393c8.76578,3.42449 19.00113,9.17662 23.90409,16.01158c4.10897,5.72804 3.62139,12.00373 3.62139,20.36624z" fill="url(#color-11)" stroke-width="0"/><path d="M211.92331,178.99684c0,-3.23094 3.07428,-3.8109 4.08968,-6.69454c1.7595,-4.99686 3.22225,-10.33762 6.71738,-14.13993c2.35938,-2.56677 5.51111,-1.73474 9.01384,-2.89042c2.51378,-0.82938 5.20838,-4.01674 7.9207,-4.01674c6.56228,0 9.84115,3.19561 14.59112,7.0047c3.6291,2.91025 9.24654,5.72564 11.81839,9.8322c1.9211,3.06751 1.33211,7.15954 1.33211,10.90471c0,3.49789 -2.9401,5.69824 -4.12156,8.78046c-2.16323,5.64338 -4.06861,12.79989 -8.50092,16.28299c-3.75022,2.94708 -9.70023,2.67813 -15.11911,2.67813c-3.56006,0 -6.96348,-3.19257 -10.09086,-4.4143c-5.62106,-2.19595 -12.18448,-5.8845 -15.32853,-10.26741c-2.63486,-3.6731 -2.3222,-7.69738 -2.3222,-13.05987z" data-paper-data="{&quot;index&quot;:null}" fill="url(#color-12)" stroke-width="0"/><path d="M220.2217,169.0086c2.40593,-3.35396 7.42852,-6.1766 11.72995,-7.85701c2.39319,-0.93494 4.99763,-3.37799 7.7219,-3.37799c4.14673,0 8.69989,-0.20579 11.56969,2.04942c3.39177,2.6654 4.84983,8.14182 6.50522,12.46033c0.90413,2.35861 3.15397,4.04241 3.15397,6.71914c0,2.86597 0.45074,5.99729 -1.01938,8.34466c-1.96805,3.14251 -6.26673,5.29693 -9.04386,7.52396c-3.63484,2.91485 -6.14394,5.36025 -11.16564,5.36025c-2.07557,0 -4.1376,-2.43908 -6.06123,-3.07377c-2.68043,-0.88436 -5.09221,-0.24768 -6.8977,-2.21186c-2.67457,-2.90966 -3.79395,-6.9966 -5.14039,-10.82037c-0.77702,-2.20668 -3.12957,-2.65046 -3.12957,-5.12291c0,-4.10353 -0.23926,-7.18308 1.77703,-9.99386z" data-paper-data="{&quot;index&quot;:null}" fill="url(#color-13)" stroke-width="0"/></g><path d="M273.5,223.33333l13,13" fill="none" stroke="url(#color-14)" stroke-width="2.5" stroke-linecap="round"/><path d="M288.5,163.33333l9,-2" fill="none" stroke="url(#color-15)" stroke-width="1.5" stroke-linecap="round"/><path d="M244.5,79.33333l-1,-11" fill="none" stroke="url(#color-16)" stroke-width="2" stroke-linecap="round"/><path d="M161.5,168.33333l-11,-1" fill="none" stroke="url(#color-17)" stroke-width="2" stroke-linecap="round"/><path d="M191.5,240.33333l4,-5" fill="none" stroke="url(#color-18)" stroke-width="4" stroke-linecap="round"/><path d="M261.5,260.33333v-7" fill="none" stroke="url(#color-19)" stroke-width="4" stroke-linecap="round"/><path d="M186.5,112.33333l6,6" fill="none" stroke="url(#color-20)" stroke-width="2.5" stroke-linecap="round"/><path d="M277.5,123.33333l5,-6" fill="none" stroke="url(#color-21)" stroke-width="4" stroke-linecap="round"/><path d="M322.5,205.33333l6,1" fill="none" stroke="url(#color-22)" stroke-width="4" stroke-linecap="round"/></g></g></svg>