<svg version="1.1" xmlns="http://www.w3.org/2000/svg" xmlns:xlink="http://www.w3.org/1999/xlink" width="525.52553" height="683.47995" viewBox="0,0,525.52553,683.47995"><defs><linearGradient x1="253.7098" y1="148.77171" x2="239.6077" y2="148.77171" gradientUnits="userSpaceOnUse" id="color-1"><stop offset="0" stop-color="#ffffff" stop-opacity="0"/><stop offset="1" stop-color="#ffffff"/></linearGradient><linearGradient x1="227.63859" y1="145.66737" x2="241.74067" y2="145.66737" gradientUnits="userSpaceOnUse" id="color-2"><stop offset="0" stop-color="#ffffff" stop-opacity="0"/><stop offset="1" stop-color="#ffffff"/></linearGradient><linearGradient x1="240.40067" y1="-97.10025" x2="240.40067" y2="389.70206" gradientUnits="userSpaceOnUse" id="color-3"><stop offset="0" stop-color="#fff3d2" stop-opacity="0"/><stop offset="1" stop-color="#fff3d2"/></linearGradient><linearGradient x1="238.20587" y1="143.22821" x2="258.61618" y2="143.22821" gradientUnits="userSpaceOnUse" id="color-4"><stop offset="0" stop-color="#fffbce"/><stop offset="1" stop-color="#fffbce" stop-opacity="0"/></linearGradient><linearGradient x1="221.38377" y1="145.44561" x2="241.79417" y2="145.44561" gradientUnits="userSpaceOnUse" id="color-5"><stop offset="0" stop-color="#fffbce" stop-opacity="0"/><stop offset="1" stop-color="#fffbce"/></linearGradient><linearGradient x1="239.98922" y1="87.73877" x2="247.28328" y2="87.73877" gradientUnits="userSpaceOnUse" id="color-6"><stop offset="0" stop-color="#fffe66"/><stop offset="1" stop-color="#fffe66" stop-opacity="0"/></linearGradient><linearGradient x1="240.01086" y1="87.73877" x2="232.71678" y2="87.73877" gradientUnits="userSpaceOnUse" id="color-7"><stop offset="0" stop-color="#fffe66"/><stop offset="1" stop-color="#fffe66" stop-opacity="0"/></linearGradient><radialGradient cx="241.7584" cy="394.87478" r="30.98352" gradientUnits="userSpaceOnUse" id="color-8"><stop offset="0" stop-color="#ffffff"/><stop offset="1" stop-color="#ffffff" stop-opacity="0"/></radialGradient><radialGradient cx="234.50009" cy="396.8334" r="23.91667" gradientUnits="userSpaceOnUse" id="color-9"><stop offset="0" stop-color="#ffffff"/><stop offset="1" stop-color="#ffffff" stop-opacity="0"/></radialGradient><radialGradient cx="244.25009" cy="398.5834" r="23.91667" gradientUnits="userSpaceOnUse" id="color-10"><stop offset="0" stop-color="#ffffff"/><stop offset="1" stop-color="#ffffff" stop-opacity="0"/></radialGradient></defs><g transform="translate(22.76269,246.18164)"><g data-paper-data="{&quot;isPaintingLayer&quot;:true}" fill-rule="nonzero" stroke-linejoin="miter" stroke-miterlimit="10" stroke-dasharray="" stroke-dashoffset="0" style="mix-blend-mode: normal"><g stroke="none" stroke-width="0" stroke-linecap="butt"><path d="M239.6077,392.17292v-486.80225h14.10208v486.80225z" data-paper-data="{&quot;index&quot;:null}" fill="url(#color-1)"/><path d="M227.63859,389.0685v-486.80225h14.1021v486.80225z" fill="url(#color-2)"/><path d="M232.03171,389.70206v-486.80225h16.73795v486.80225z" fill="url(#color-3)"/><path d="M236.20511,389.70206v-486.80225h8.39107v486.80225z" fill="#fff3d2"/><path d="M238.20587,386.62937v-486.80225h20.41035v486.80225z" data-paper-data="{&quot;index&quot;:null}" fill="url(#color-4)"/><path d="M221.38382,388.8468v-486.80225h20.41035v486.80225z" data-paper-data="{&quot;index&quot;:null}" fill="url(#color-5)"/></g><path d="M-22.76269,433.00316v-506.00601h525.52553v506.00601z" fill="none" stroke="none" stroke-width="0" stroke-linecap="butt"/><g fill="none" stroke="#ffffd1" stroke-width="5" stroke-linecap="round"><path d="M239.11575,61.31834c0,0 11.94716,11.65005 11.91434,29.40309c-0.03269,17.68604 -19.39434,29.91273 -19.28958,53.03999c0.10477,23.12727 16.90386,23.57445 16.97585,43.99627c0.07728,21.92059 -17.53167,28.85269 -18.65864,50.9303c-1.12698,22.07761 20.59396,24.99385 20.7975,46.23426c-0.57388,18.42935 -21.14593,27.71638 -21.14438,47.8127c0.00284,15.76484 11.03711,40.58338 11.03711,40.58338"/><path d="M242.66063,-243.68163c0,0 11.94716,11.65005 11.91434,29.40309c-0.03269,17.68604 -19.39434,29.91273 -19.28958,53.03999c0.10477,23.12727 16.90386,23.57445 16.97585,43.99627c0.07728,21.92059 -17.53167,28.85269 -18.65864,50.9303c-1.12698,22.07761 20.59396,24.99385 20.7975,46.23426c-0.57388,18.42935 -21.14593,27.71638 -21.14438,47.8127c0.00284,15.76484 11.03711,40.58338 11.03711,40.58338"/></g><g stroke="none" stroke-width="0" stroke-linecap="butt"><path d="M239.98922,396.12249v-616.76742h7.29407v616.76742z" fill="url(#color-6)"/><path d="M232.71678,396.12249v-616.76742h7.29407v616.76742z" data-paper-data="{&quot;index&quot;:null}" fill="url(#color-7)"/></g><path d="M248.79796,437.29832l-49.70101,-37.00976l35.62189,-47.83724l49.70101,37.00975z" fill="url(#color-8)" stroke="none" stroke-width="0" stroke-linecap="butt"/><path d="M255.00009,396.8334c0,11.59798 -9.17816,21 -20.5,21c-11.32184,0 -20.5,-9.40202 -20.5,-21c0,-11.59798 9.17816,-21 20.5,-21c11.32184,0 20.5,9.40202 20.5,21z" fill="url(#color-9)" stroke="none" stroke-width="0" stroke-linecap="butt"/><path d="M264.75005,398.5834c0,11.59798 -9.17817,21 -20.5,21c-11.32183,0 -20.5,-9.40202 -20.5,-21c0,-11.59798 9.17817,-21 20.5,-21c11.32183,0 20.5,9.40202 20.5,21z" fill="url(#color-10)" stroke="none" stroke-width="0" stroke-linecap="butt"/></g></g></svg>