<svg version="1.1" xmlns="http://www.w3.org/2000/svg" xmlns:xlink="http://www.w3.org/1999/xlink" width="73.72369" height="56.87929" viewBox="0,0,73.72369,56.87929"><defs><linearGradient x1="239.3278" y1="154.06036" x2="239.3278" y2="198.77254" gradientUnits="userSpaceOnUse" id="color-1"><stop offset="0" stop-color="#828282"/><stop offset="1" stop-color="#747474"/></linearGradient><linearGradient x1="239.3278" y1="154.06036" x2="239.3278" y2="198.77254" gradientUnits="userSpaceOnUse" id="color-2"><stop offset="0" stop-color="#828282"/><stop offset="1" stop-color="#747474"/></linearGradient><linearGradient x1="243.26053" y1="177.58511" x2="243.26053" y2="189.08511" gradientUnits="userSpaceOnUse" id="color-3"><stop offset="0" stop-color="#515151"/><stop offset="1" stop-color="#515151" stop-opacity="0"/></linearGradient><linearGradient x1="243.19386" y1="172.04344" x2="243.19386" y2="160.54343" gradientUnits="userSpaceOnUse" id="color-4"><stop offset="0" stop-color="#696969"/><stop offset="1" stop-color="#696969" stop-opacity="0"/></linearGradient><linearGradient x1="263.11208" y1="175.47793" x2="269.51117" y2="175.47793" gradientUnits="userSpaceOnUse" id="color-5"><stop offset="0" stop-color="#585858"/><stop offset="1" stop-color="#676767"/></linearGradient><linearGradient x1="263.11208" y1="175.47793" x2="269.51117" y2="175.47793" gradientUnits="userSpaceOnUse" id="color-6"><stop offset="0" stop-color="#585858"/><stop offset="1" stop-color="#676767"/></linearGradient><linearGradient x1="273.20615" y1="175.83708" x2="277.7736" y2="175.83708" gradientUnits="userSpaceOnUse" id="color-7"><stop offset="0" stop-color="#585858"/><stop offset="1" stop-color="#676767"/></linearGradient><linearGradient x1="273.20615" y1="175.83708" x2="277.7736" y2="175.83708" gradientUnits="userSpaceOnUse" id="color-8"><stop offset="0" stop-color="#585858"/><stop offset="1" stop-color="#676767"/></linearGradient><linearGradient x1="270.78729" y1="175.8044" x2="283.72803" y2="175.8044" gradientUnits="userSpaceOnUse" id="color-9"><stop offset="0" stop-color="#494949"/><stop offset="1" stop-color="#7a7a7a"/></linearGradient><linearGradient x1="270.78729" y1="175.8044" x2="283.72803" y2="175.8044" gradientUnits="userSpaceOnUse" id="color-10"><stop offset="0" stop-color="#494949"/><stop offset="1" stop-color="#7a7a7a"/></linearGradient><linearGradient x1="283.5965" y1="175.7838" x2="285.6996" y2="175.7838" gradientUnits="userSpaceOnUse" id="color-11"><stop offset="0" stop-color="#585858"/><stop offset="1" stop-color="#676767"/></linearGradient><linearGradient x1="283.5965" y1="175.7838" x2="285.6996" y2="175.7838" gradientUnits="userSpaceOnUse" id="color-12"><stop offset="0" stop-color="#585858"/><stop offset="1" stop-color="#676767"/></linearGradient><linearGradient x1="245.38731" y1="175.79236" x2="273.49185" y2="175.79236" gradientUnits="userSpaceOnUse" id="color-13"><stop offset="0" stop-color="#494949"/><stop offset="1" stop-color="#7a7a7a"/></linearGradient><linearGradient x1="245.38731" y1="175.79236" x2="273.49185" y2="175.79236" gradientUnits="userSpaceOnUse" id="color-14"><stop offset="0" stop-color="#494949"/><stop offset="1" stop-color="#7a7a7a"/></linearGradient><linearGradient x1="243.8248" y1="181.79025" x2="243.8248" y2="169.04025" gradientUnits="userSpaceOnUse" id="color-15"><stop offset="0" stop-color="#7a7a7a"/><stop offset="1" stop-color="#8b8b8b"/></linearGradient><linearGradient x1="243.8248" y1="181.79025" x2="243.8248" y2="169.04025" gradientUnits="userSpaceOnUse" id="color-16"><stop offset="0" stop-color="#7a7a7a"/><stop offset="1" stop-color="#8b8b8b"/></linearGradient></defs><g transform="translate(-214.47587,-151.56036)"><g data-paper-data="{&quot;isPaintingLayer&quot;:true}" fill-rule="nonzero" stroke-linejoin="miter" stroke-miterlimit="10" stroke-dasharray="" stroke-dashoffset="0" style="mix-blend-mode: normal"><path d="M216.92416,205.93965v-44.71217c0,0 -0.10819,0 0.43644,0c3.30926,0 36.32893,0 43.5,0c0.89824,0 0.77573,0 0.77573,0v44.71217c0,0 0.01575,0 -0.77573,0c-3.87606,0 -35.75289,0 -43.125,0c-0.99869,0 -0.81144,0 -0.81144,0z" fill="#696969" stroke="#696969" stroke-width="5" stroke-linecap="butt"/><path d="M216.97587,198.77253v-44.71217c0,0 -0.10819,0 0.43644,0c3.30926,0 36.32893,0 43.5,0c0.89824,0 0.77573,0 0.77573,0v44.71218c0,0 0.01575,0 -0.77573,0c-3.87606,0 -35.75289,0 -43.125,0c-0.99869,0 -0.81144,0 -0.81144,0z" fill="url(#color-1)" stroke="url(#color-2)" stroke-width="5" stroke-linecap="butt"/><path d="M216.98969,192.1742l0.125,-28.75h3.5l12.25,13.5v15.25z" data-paper-data="{&quot;index&quot;:null}" fill="#727272" stroke="#717171" stroke-width="0.5" stroke-linecap="round"/><path d="M222.34386,189.08511v-11.5h41.83334v11.5z" fill="url(#color-3)" stroke="none" stroke-width="0" stroke-linecap="butt"/><path d="M261.36469,158.25751l-0.125,28.75h-3.5l-12.25,-13.5v-15.25z" data-paper-data="{&quot;index&quot;:null}" fill="#727272" stroke="#717171" stroke-width="0.5" stroke-linecap="round"/><path d="M264.0105,160.54343v11.5h-41.63333v-11.5z" data-paper-data="{&quot;index&quot;:null}" fill="url(#color-4)" stroke="none" stroke-width="0" stroke-linecap="butt"/><g stroke-linecap="butt"><path d="M269.51117,175.47793c0,3.50014 -1.43248,6.33756 -3.19955,6.33756c-1.76706,0 -3.19955,-2.83742 -3.19955,-6.33756c0,-3.50014 1.43248,-6.33756 3.19955,-6.33756c1.76706,0 3.19955,2.83742 3.19955,6.33756z" fill="url(#color-5)" stroke="url(#color-6)" stroke-width="5"/><path d="M270.86482,175.48857c0,4.37779 -2.09364,7.92668 -4.67627,7.92668c-2.58263,0 -4.67625,-3.54889 -4.67625,-7.92668c0,-4.37779 2.09362,-7.92668 4.67625,-7.92668c2.58263,0 4.67627,3.54889 4.67627,7.92668z" fill="none" stroke="#787878" stroke-width="2"/></g><path d="M277.7736,175.83708c0,2.49828 -1.02246,4.52353 -2.28372,4.52353c-1.26126,0 -2.28373,-2.02525 -2.28373,-4.52353c0,-2.49828 1.02246,-4.52353 2.28373,-4.52353c1.26126,0 2.28372,2.02525 2.28372,4.52353z" fill="url(#color-7)" stroke="url(#color-8)" stroke-width="5" stroke-linecap="butt"/><path d="M279.48982,175.82562c0,3.41727 -1.77418,6.1875 -3.96275,6.1875c-2.18857,0 -3.96276,-2.77023 -3.96276,-6.1875c0,-3.41727 1.77419,-6.18752 3.96276,-6.18752c2.18857,0 3.96275,2.77025 3.96275,6.18752z" fill="none" stroke="#787878" stroke-width="2" stroke-linecap="butt"/><g stroke-linecap="butt"><path d="M283.72803,173.70922v4.19034h-11.46181c0,0 -1.47819,-0.67673 -1.47893,-2.13626c-0.00068,-1.33279 1.47893,-2.05408 1.47893,-2.05408z" fill="url(#color-9)" stroke="url(#color-10)" stroke-width="5"/><path d="M284.64802,177.86665c-0.58075,0 -1.05154,-0.93252 -1.05154,-2.08286c0,-1.15033 0.47079,-2.08286 1.05154,-2.08286c0.58075,0 1.05154,0.93252 1.05154,2.08286c0,1.15033 -0.47079,2.08286 -1.05154,2.08286z" fill="url(#color-11)" stroke="url(#color-12)" stroke-width="5"/><path d="M284.66517,179.63811c-1.3391,0 -2.42466,-1.695 -2.42466,-3.78589c0,-2.09089 1.08556,-3.78591 2.42466,-3.78591c1.3391,0 2.42465,1.69502 2.42465,3.78591c0,2.09089 -1.08555,3.78589 -2.42465,3.78589z" fill="none" stroke="#787878" stroke-width="2"/></g><path d="M248.59926,180.34263c0,0 -3.21342,-1.56649 -3.21195,-4.46103c0.00161,-3.16977 3.21195,-4.63948 3.21195,-4.63948h24.8926v9.10051z" fill="url(#color-13)" stroke="url(#color-14)" stroke-width="5" stroke-linecap="butt"/><path d="M263.5123,169.04025v12.75h-34.875c0,0 -4.49774,-2.05909 -4.5,-6.5c-0.00206,-4.05531 4.5,-6.25 4.5,-6.25z" data-paper-data="{&quot;index&quot;:null}" fill="url(#color-15)" stroke="url(#color-16)" stroke-width="5" stroke-linecap="butt"/><path d="M228.84386,179.12677l32,0.16666" fill="none" stroke="#00ffee" stroke-width="1.5" stroke-linecap="round"/><path d="M229.01053,171.29342h32" fill="none" stroke="#00ffee" stroke-width="1.5" stroke-linecap="round"/><path d="M245.34386,175.12677h17.33334" fill="none" stroke="#00ffee" stroke-width="1.5" stroke-linecap="round"/><path d="M226.76053,183.58313c0,0 -6.18116,-2.7955 -5.92669,-8.28393c0.29501,-6.36281 5.78383,-8.2875 5.78383,-8.2875" fill="none" stroke="#00ffee" stroke-width="1.5" stroke-linecap="round"/><path d="M261.54147,197.17359l-43.6,0.2" fill="none" stroke="#00ffee" stroke-width="4" stroke-linecap="round"/><path d="M217.62719,155.45929l43.6,-0.2" fill="none" stroke="#00ffee" stroke-width="4" stroke-linecap="round"/></g></g></svg>