<svg version="1.1" xmlns="http://www.w3.org/2000/svg" xmlns:xlink="http://www.w3.org/1999/xlink" width="291" height="291" viewBox="0,0,291,291"><g transform="translate(-94.5,-34.5)"><g data-paper-data="{&quot;isPaintingLayer&quot;:true}" fill-rule="nonzero" stroke-linejoin="miter" stroke-miterlimit="10" stroke-dasharray="" stroke-dashoffset="0" style="mix-blend-mode: normal"><g stroke="none" stroke-linecap="butt"><path d="M223.55556,140.60053v-2.11111h7.55556v2.11111z" fill="#59625f" stroke-width="0"/><path d="M223.55556,140.70634c0,-1.10457 1.69493,-2 3.78572,-2c2.09079,0 3.78571,0.89543 3.78571,2c0,1.10457 -1.69492,2 -3.78571,2c-2.09079,0 -3.78572,-0.89543 -3.78572,-2z" fill="#59625f" stroke-width="none"/><path d="M223.55556,138.56349c0,-1.10457 1.69493,-2 3.78572,-2c2.09079,0 3.78571,0.89543 3.78571,2c0,1.10457 -1.69492,2 -3.78571,2c-2.09079,0 -3.78572,-0.89543 -3.78572,-2z" fill="#707b77" stroke-width="none"/></g><path d="M94.5,325.5v-291h291v291z" fill="none" stroke="none" stroke-width="0" stroke-linecap="butt"/><g><g data-paper-data="{&quot;index&quot;:null}" stroke-width="0"><g><path d="M189.78682,183.59624l27.83586,-38.23414l21.60117,0.18281l-0.00154,76.01721l-23.16683,0.19228z" fill="#75817d" stroke="#323645" stroke-linecap="round"/><path d="M239.34352,145.64265v75.94762h-5.33333v-75.94762z" fill="#8f9e99" stroke="none" stroke-linecap="butt"/></g><path d="M189.80534,183.78572v-3.025h3.8v3.025z" fill="#75817d" stroke="none" stroke-linecap="butt"/></g><path d="M215.51443,141.61229l23.70254,-0.20058l0.00154,77.40291l-21.60117,0.18281l-27.83586,-38.23414z" fill="#84918d" stroke="#323645" stroke-width="0" stroke-linecap="round"/><path d="M233.87984,218.77639v-77.33333h5.33334v77.33333z" fill="#97a6a1" stroke="none" stroke-width="0" stroke-linecap="butt"/><path d="M208.21318,165.35973h10.5l11.16667,11.16666" fill="none" stroke="#899792" stroke-width="2.5" stroke-linecap="round"/><path d="M226.71318,154.0264l-5.83333,-5.83334" fill="none" stroke="#899792" stroke-width="2.5" stroke-linecap="round"/><path d="M223.96318,193.10973l-6.41666,-6.41667h-9.83334l-6.5,-6.5" fill="none" stroke="#899792" stroke-width="2.5" stroke-linecap="round"/><path d="M229.37984,216.02639l-6.5,-6.5v-7.66667" fill="none" stroke="#899792" stroke-width="2.5" stroke-linecap="round"/></g><g data-paper-data="{&quot;index&quot;:null}" stroke="none" stroke-linecap="butt"><path d="M230.94444,221.33597v2.11111h-7.55555v-2.11111z" fill="#59625f" stroke-width="0"/><path d="M227.1746,219.23016c2.09079,0 3.78571,0.89543 3.78571,2c0,1.10457 -1.69492,2 -3.78571,2c-2.09079,0 -3.78572,-0.89543 -3.78572,-2c0,-1.10457 1.69493,-2 3.78572,-2z" fill="#59625f" stroke-width="none"/><path d="M227.1746,221.37301c2.09079,0 3.78571,0.89543 3.78571,2c0,1.10457 -1.69492,2 -3.78571,2c-2.09079,0 -3.78572,-0.89543 -3.78572,-2c0,-1.10457 1.69493,-2 3.78572,-2z" fill="#707b77" stroke-width="none"/></g></g></g></svg>