<svg version="1.1" xmlns="http://www.w3.org/2000/svg" xmlns:xlink="http://www.w3.org/1999/xlink" width="61.5" height="54.125" viewBox="0,0,61.5,54.125"><g transform="translate(-210.47222,-148.66667)"><g data-paper-data="{&quot;isPaintingLayer&quot;:true}" fill-rule="nonzero" stroke-linejoin="miter" stroke-miterlimit="10" stroke-dasharray="" stroke-dashoffset="0" style="mix-blend-mode: normal"><path d="M210.47222,202.79168l61.5,-54.125" fill="none" stroke="#000000" stroke-width="0" stroke-linecap="round"/><path d="M236.37515,190.67168c-0.36302,0 -0.68333,-0.13524 -0.96093,-0.40573c-0.27048,-0.2776 -0.40573,-0.60859 -0.40573,-0.99296c0,-0.14236 0.02135,-0.28116 0.06406,-0.4164c0.04983,-0.13524 0.11033,-0.28472 0.18151,-0.44844l7.84762,-16.29315h-8.30673c-0.40573,0 -0.74027,-0.13168 -1.00364,-0.39505c-0.26337,-0.26337 -0.39505,-0.59791 -0.39505,-1.00364c0,-0.39861 0.13168,-0.7296 0.39505,-0.99296c0.26337,-0.26337 0.59791,-0.39505 1.00364,-0.39505h10.4101c0.38437,0 0.7118,0.13524 0.98229,0.40573c0.2776,0.27048 0.4164,0.59791 0.4164,0.98229c0,0.12812 -0.02135,0.25269 -0.06406,0.3737c-0.03559,0.11389 -0.0783,0.23489 -0.12812,0.36302l-8.75516,18.44991c-0.29184,0.5125 -0.71892,0.76875 -1.28124,0.76875z" fill="#00edff" stroke="#00edff" stroke-width="1" stroke-linecap="square"/></g></g></svg>