<svg version="1.1" xmlns="http://www.w3.org/2000/svg" xmlns:xlink="http://www.w3.org/1999/xlink" width="31.5743" height="5.41056" viewBox="0,0,31.5743,5.41056"><defs><linearGradient x1="224.21287" y1="180" x2="255.78717" y2="180" gradientUnits="userSpaceOnUse" id="color-1"><stop offset="0" stop-color="#ff5300" stop-opacity="0"/><stop offset="1" stop-color="#ff5300"/></linearGradient><linearGradient x1="234.48246" y1="179.98325" x2="253.47279" y2="179.98325" gradientUnits="userSpaceOnUse" id="color-2"><stop offset="0" stop-color="#ff5300" stop-opacity="0"/><stop offset="1" stop-color="#ff5300"/></linearGradient></defs><g transform="translate(-224.21286,-177.29472)"><g data-paper-data="{&quot;isPaintingLayer&quot;:true}" fill-rule="nonzero" stroke-linejoin="miter" stroke-miterlimit="10" stroke-dasharray="" stroke-dashoffset="0" style="mix-blend-mode: normal"><g><path d="M249.08717,182.65112c-1.31212,0.00641 -5.66825,0.1584 -9.62801,-0.07693c-3.56857,-0.2121 -8.27209,-0.33067 -11.1568,-0.76125c-2.98053,-0.44491 -4.08416,-1.2062 -4.08948,-1.69046c-0.00517,-0.47281 1.0876,-1.33578 3.86527,-1.80388c2.96143,-0.49911 7.72993,-0.59631 11.51667,-0.8572c3.72782,-0.25686 8.18201,-0.13864 9.43389,-0.14471c3.71642,-0.01814 6.74226,1.16132 6.75839,2.63444c0.01616,1.47309 -2.98351,2.68196 -6.69988,2.70012z" fill="url(#color-1)" stroke="none" stroke-width="0" stroke-linecap="butt"/><path d="M249.44314,181.57775c-0.78919,0.00386 -3.40915,0.09527 -5.79079,-0.04625c-2.14631,-0.12754 -4.97525,-0.19891 -6.71026,-0.45783c-1.79261,-0.26756 -2.45643,-0.7255 -2.45962,-1.01674c-0.00313,-0.28437 0.65415,-0.80337 2.32478,-1.08496c1.78114,-0.30021 4.64914,-0.35862 6.92667,-0.51557c2.24214,-0.15447 4.92105,-0.08335 5.67399,-0.08706c2.23522,-0.01093 4.0551,0.69847 4.06484,1.58445c0.00973,0.88599 -1.79442,1.61306 -4.02961,1.62397z" fill="url(#color-2)" stroke="none" stroke-width="0" stroke-linecap="butt"/><path d="M250.5,179.87746h-4.26667" fill="none" stroke="#ff8c56" stroke-width="1.5" stroke-linecap="round"/></g></g></g></svg>