<svg version="1.1" xmlns="http://www.w3.org/2000/svg" xmlns:xlink="http://www.w3.org/1999/xlink" width="30.5242" height="29.11525" viewBox="0,0,30.5242,29.11525"><defs><linearGradient x1="247.0717" y1="180.20556" x2="247.9385" y2="180.20556" gradientUnits="userSpaceOnUse" id="color-1"><stop offset="0" stop-color="#898989"/><stop offset="1" stop-color="#a1a1a1"/></linearGradient><linearGradient x1="248.42607" y1="180.20556" x2="250.64724" y2="180.20556" gradientUnits="userSpaceOnUse" id="color-2"><stop offset="0" stop-color="#898989"/><stop offset="1" stop-color="#a1a1a1"/></linearGradient><linearGradient x1="252.10996" y1="180.23265" x2="253.41015" y2="180.23265" gradientUnits="userSpaceOnUse" id="color-3"><stop offset="0" stop-color="#a1a1a1"/><stop offset="1" stop-color="#898989"/></linearGradient><radialGradient cx="241.93125" cy="173.4307" r="7.44897" gradientUnits="userSpaceOnUse" id="color-4"><stop offset="0" stop-color="#696969"/><stop offset="1" stop-color="#505050"/></radialGradient><linearGradient x1="232.56865" y1="180.06764" x2="239.16313" y2="180.06764" gradientUnits="userSpaceOnUse" id="color-5"><stop offset="0" stop-color="#454545"/><stop offset="1" stop-color="#474747"/></linearGradient><linearGradient x1="873.61716" y1="470.25878" x2="229.82271" y2="470.25878" gradientUnits="userSpaceOnUse" id="color-6"><stop offset="0" stop-color="#ffffff"/><stop offset="1" stop-color="#ffffff" stop-opacity="0"/></linearGradient></defs><g transform="translate(-225.41129,-165.44237)"><g data-paper-data="{&quot;isPaintingLayer&quot;:true}" fill-rule="nonzero" stroke-linejoin="miter" stroke-miterlimit="10" stroke-dasharray="" stroke-dashoffset="0" style="mix-blend-mode: normal"><path d="M247.34896,180.08455c0,4.09473 -3.33501,7.41416 -7.44897,7.41416c-4.11396,0 -7.44897,-3.31943 -7.44897,-7.41416c0,-4.09473 3.33502,-7.41416 7.44897,-7.41416c4.11396,0 7.44897,3.31943 7.44897,7.41416z" fill="#00fffd" stroke="none" stroke-width="NaN" stroke-linecap="butt"/><path d="M245.75384,181.04528v-1.62524h8.12623v1.62524z" fill="#a1a1a1" stroke="#a1a1a1" stroke-width="0.5" stroke-linecap="butt"/><path d="M253.5185,181.47868v-2.54622h2.16699v2.54622z" fill="#a1a1a1" stroke="#a1a1a1" stroke-width="0.5" stroke-linecap="butt"/><path d="M242.73772,181.20779v-2.00447h5.58001v2.00447z" fill="#a1a1a1" stroke="#a1a1a1" stroke-width="0.5" stroke-linecap="butt"/><path d="M247.0717,181.31615v-2.22117h0.8668v2.22117z" fill="url(#color-1)" stroke="none" stroke-width="0" stroke-linecap="butt"/><path d="M248.42607,181.09945v-1.78777h2.22117v1.78777z" fill="url(#color-2)" stroke="none" stroke-width="0" stroke-linecap="butt"/><path d="M252.10996,181.15362v-1.84194h1.3002v1.84194z" fill="url(#color-3)" stroke="none" stroke-width="0" stroke-linecap="butt"/><path d="M247.34896,180.08455c0,4.09473 -3.33501,7.41416 -7.44897,7.41416c-4.11396,0 -7.44897,-3.31943 -7.44897,-7.41416c0,-4.09473 3.33502,-7.41416 7.44897,-7.41416c4.11396,0 7.44897,3.31943 7.44897,7.41416z" fill="url(#color-4)" stroke="none" stroke-width="NaN" stroke-linecap="butt"/><path d="M235.30845,185.62141c0,0 -2.73215,-1.7074 -2.73979,-5.68009c-0.00777,-4.04045 2.63835,-5.42746 2.63835,-5.42746l3.95612,2.13021v6.33993z" fill="url(#color-5)" stroke="#000000" stroke-width="0" stroke-linecap="round"/><path d="M246.13076,180.08455c0,3.44116 -2.78961,6.23077 -6.23077,6.23077c-3.44116,0 -6.23077,-2.78961 -6.23077,-6.23077c0,-3.44116 2.78961,-6.23077 6.23077,-6.23077c3.44116,0 6.23077,2.78961 6.23077,6.23077z" fill="none" stroke="#00c98b" stroke-width="1" stroke-linecap="butt"/><path d="M244.19363,180.08455c0,2.37131 -1.92234,4.29364 -4.29364,4.29364c-2.37131,0 -4.29364,-1.92233 -4.29364,-4.29364c0,-2.37131 1.92233,-4.29364 4.29364,-4.29364c2.37131,0 4.29364,1.92234 4.29364,4.29364z" fill="none" stroke="#575757" stroke-width="1.5" stroke-linecap="butt"/><path d="M250.31651,190.1267c-5.92471,5.9247 -14.60273,5.89107 -20.4938,0c-5.89107,-5.89106 -5.87271,-14.50054 0,-20.37324c5.87271,-5.87271 14.75109,-5.62215 20.37324,0c5.62215,5.62215 6.04525,14.44854 0.12055,20.37324z" data-paper-data="{&quot;index&quot;:null}" fill="url(#color-6)" stroke="none" stroke-width="0" stroke-linecap="butt"/></g></g></svg>