<svg version="1.1" xmlns="http://www.w3.org/2000/svg" xmlns:xlink="http://www.w3.org/1999/xlink" width="607.11546" height="499.36765" viewBox="0,0,607.11546,499.36765"><defs><linearGradient x1="-63.55773" y1="188.16669" x2="77.44227" y2="188.16669" gradientUnits="userSpaceOnUse" id="color-1"><stop offset="0" stop-color="#001214"/><stop offset="1" stop-color="#001214" stop-opacity="0"/></linearGradient><linearGradient x1="539.44228" y1="216.16669" x2="398.44228" y2="216.16669" gradientUnits="userSpaceOnUse" id="color-2"><stop offset="0" stop-color="#001214"/><stop offset="1" stop-color="#001214" stop-opacity="0"/></linearGradient><linearGradient x1="253.78532" y1="-69.33325" x2="254.09923" y2="71.66657" gradientUnits="userSpaceOnUse" id="color-3"><stop offset="0" stop-color="#001214"/><stop offset="1" stop-color="#001214" stop-opacity="0"/></linearGradient><linearGradient x1="245.78532" y1="429.33326" x2="246.09923" y2="288.33344" gradientUnits="userSpaceOnUse" id="color-4"><stop offset="0" stop-color="#001214"/><stop offset="1" stop-color="#001214" stop-opacity="0"/></linearGradient><linearGradient x1="-63.55773" y1="188.16669" x2="77.44227" y2="188.16669" gradientUnits="userSpaceOnUse" id="color-5"><stop offset="0" stop-color="#001214"/><stop offset="1" stop-color="#001214" stop-opacity="0"/></linearGradient><linearGradient x1="539.44228" y1="216.16669" x2="398.44228" y2="216.16669" gradientUnits="userSpaceOnUse" id="color-6"><stop offset="0" stop-color="#001214"/><stop offset="1" stop-color="#001214" stop-opacity="0"/></linearGradient><linearGradient x1="253.78532" y1="-69.33325" x2="254.09923" y2="71.66657" gradientUnits="userSpaceOnUse" id="color-7"><stop offset="0" stop-color="#001214"/><stop offset="1" stop-color="#001214" stop-opacity="0"/></linearGradient><linearGradient x1="245.78532" y1="429.33326" x2="246.09923" y2="288.33345" gradientUnits="userSpaceOnUse" id="color-8"><stop offset="0" stop-color="#001214"/><stop offset="1" stop-color="#001214" stop-opacity="0"/></linearGradient></defs><g transform="translate(63.55773,69.68382)"><g data-paper-data="{&quot;isPaintingLayer&quot;:true}" fill-rule="nonzero" stroke="none" stroke-width="0" stroke-linecap="butt" stroke-linejoin="miter" stroke-miterlimit="10" stroke-dasharray="" stroke-dashoffset="0" style="mix-blend-mode: normal"><g><path d="M-63.55773,401.66669v-427h141v427z" fill="url(#color-1)"/><path d="M398.44228,429.66669v-427h141v427z" data-paper-data="{&quot;index&quot;:null}" fill="url(#color-2)"/><path d="M543.55773,71.316l-578.91705,0.70115l-0.3139,-140.99981l578.91705,-0.70115z" data-paper-data="{&quot;index&quot;:null}" fill="url(#color-3)"/><path d="M535.24383,429.68383l-578.91705,-0.70115l0.3139,-140.99981l578.91705,0.70115z" data-paper-data="{&quot;index&quot;:null}" fill="url(#color-4)"/></g><g><path d="M-63.55773,401.66669v-427h141v427z" fill="url(#color-5)"/><path d="M398.44228,429.66669v-427h141v427z" data-paper-data="{&quot;index&quot;:null}" fill="url(#color-6)"/><path d="M543.55773,71.316l-578.91705,0.70115l-0.3139,-140.99981l578.91705,-0.70115z" data-paper-data="{&quot;index&quot;:null}" fill="url(#color-7)"/><path d="M535.24383,429.68384l-578.91705,-0.70115l0.3139,-140.99981l578.91705,0.70115z" data-paper-data="{&quot;index&quot;:null}" fill="url(#color-8)"/></g></g></g></svg>