<svg version="1.1" xmlns="http://www.w3.org/2000/svg" xmlns:xlink="http://www.w3.org/1999/xlink" width="195" height="195" viewBox="0,0,195,195"><g transform="translate(-142.5,-82.5)"><g data-paper-data="{&quot;isPaintingLayer&quot;:true}" fill-rule="nonzero" stroke-linejoin="miter" stroke-miterlimit="10" stroke-dasharray="" stroke-dashoffset="0" style="mix-blend-mode: normal"><path d="M191.24128,184.38085v-8.7617h5.65435v1.37538h-4.19746v2.15986h3.46393v1.37538h-3.46393v2.47569h4.19746v1.37538zM197.62398,184.38085l2.40437,-3.32129l-2.35343,-3.24998h1.72178l1.47726,2.09873l1.45689,-2.09873h1.73196l-2.35343,3.24998l2.41456,3.32129h-1.73196l-1.51802,-2.17005l-1.5282,2.17005zM207.70589,184.56423c-0.6792,0 -1.25992,-0.14942 -1.74215,-0.44827c-0.47544,-0.30564 -0.84221,-0.71995 -1.10031,-1.24294c-0.2513,-0.52299 -0.37696,-1.11389 -0.37696,-1.77272c0,-0.67241 0.12905,-1.27011 0.38714,-1.79309c0.26489,-0.52299 0.63845,-0.9339 1.12068,-1.23275c0.48223,-0.29885 1.05616,-0.44827 1.72178,-0.44827c0.74712,0 1.37878,0.19018 1.89497,0.57053c0.51619,0.37356 0.85579,0.88296 1.0188,1.5282l-1.46707,0.39733c-0.10867,-0.35318 -0.29545,-0.62826 -0.56034,-0.82523c-0.26489,-0.19697 -0.56374,-0.29545 -0.89655,-0.29545c-0.38714,0 -0.70297,0.09169 -0.94749,0.27508c-0.24451,0.17659 -0.4279,0.4245 -0.55015,0.74373c-0.11546,0.31922 -0.1732,0.6792 -0.1732,1.07993c0,0.62487 0.13924,1.13087 0.41771,1.51802c0.27847,0.38035 0.69618,0.57053 1.25313,0.57053c0.38714,0 0.69279,-0.0883 0.91692,-0.26489c0.22414,-0.18338 0.39394,-0.44148 0.5094,-0.77429l1.49764,0.3362c-0.20376,0.66562 -0.56034,1.17841 -1.06974,1.53839c-0.50261,0.35998 -1.12068,0.53997 -1.85422,0.53997zM214.65643,184.56423c-0.66562,0 -1.24973,-0.14263 -1.75234,-0.4279c-0.50261,-0.29206 -0.89655,-0.69279 -1.18181,-1.20219c-0.27847,-0.5094 -0.41771,-1.09691 -0.41771,-1.76253c0,-0.71995 0.13584,-1.34482 0.40752,-1.8746c0.27847,-0.52978 0.66222,-0.94069 1.15125,-1.23275c0.48902,-0.29206 1.05616,-0.43808 1.7014,-0.43808c0.68599,0 1.26671,0.15961 1.74215,0.47884c0.47544,0.31922 0.82863,0.77089 1.05955,1.35501c0.23093,0.57732 0.31922,1.25992 0.26489,2.04779h-1.45689v-0.53997c-0.00679,-0.71316 -0.13244,-1.23275 -0.37696,-1.55877c-0.24451,-0.33281 -0.63505,-0.49921 -1.17162,-0.49921c-0.5977,0 -1.04257,0.18678 -1.33463,0.56034c-0.29206,0.37356 -0.43808,0.91692 -0.43808,1.63008c0,0.66562 0.14603,1.18181 0.43808,1.54858c0.29206,0.35998 0.71656,0.53997 1.2735,0.53997c0.35998,0 0.66901,-0.07811 0.92711,-0.23432c0.26489,-0.16301 0.46865,-0.39733 0.61128,-0.70297l1.4467,0.43808c-0.2513,0.59091 -0.63845,1.05276 -1.16143,1.38557c-0.52299,0.32602 -1.10031,0.48902 -1.73196,0.48902zM212.39468,181.50783v-1.11049h4.51329v1.11049zM219.11663,184.38085v-8.94508h1.45689v8.94508zM222.52876,184.38085v-8.94508h1.45689v8.94508zM228.80375,184.56423c-0.66562,0 -1.24973,-0.14263 -1.75234,-0.4279c-0.50261,-0.29206 -0.89655,-0.69279 -1.18181,-1.20219c-0.27847,-0.5094 -0.41771,-1.09691 -0.41771,-1.76253c0,-0.71995 0.13584,-1.34482 0.40752,-1.8746c0.27847,-0.52978 0.66222,-0.94069 1.15125,-1.23275c0.48902,-0.29206 1.05616,-0.43808 1.7014,-0.43808c0.68599,0 1.26671,0.15961 1.74215,0.47884c0.47544,0.31922 0.82863,0.77089 1.05955,1.35501c0.23093,0.57732 0.31922,1.25992 0.26489,2.04779h-1.45689v-0.53997c-0.00679,-0.71316 -0.13244,-1.23275 -0.37696,-1.55877c-0.24451,-0.33281 -0.63505,-0.49921 -1.17162,-0.49921c-0.5977,0 -1.04257,0.18678 -1.33463,0.56034c-0.29206,0.37356 -0.43808,0.91692 -0.43808,1.63008c0,0.66562 0.14603,1.18181 0.43808,1.54858c0.29206,0.35998 0.71656,0.53997 1.2735,0.53997c0.35998,0 0.66901,-0.07811 0.92711,-0.23432c0.26489,-0.16301 0.46865,-0.39733 0.61128,-0.70297l1.4467,0.43808c-0.2513,0.59091 -0.63845,1.05276 -1.16143,1.38557c-0.52299,0.32602 -1.10031,0.48902 -1.73196,0.48902zM226.542,181.50783v-1.11049h4.51329v1.11049zM237.50296,184.38085v-3.15829c0,-0.21055 -0.01698,-0.44148 -0.05094,-0.69279c-0.02717,-0.2513 -0.09169,-0.49242 -0.19357,-0.72335c-0.10188,-0.23772 -0.2581,-0.43129 -0.46865,-0.58072c-0.20376,-0.14942 -0.47884,-0.22414 -0.82523,-0.22414c-0.18338,0 -0.36677,0.03056 -0.55015,0.09169c-0.18338,0.06113 -0.34979,0.1664 -0.49921,0.31583c-0.14942,0.14942 -0.26828,0.35318 -0.35658,0.61128c-0.0883,0.2581 -0.13244,0.58751 -0.13244,0.98824l-0.86598,-0.37696c0,-0.55695 0.10867,-1.06295 0.32602,-1.51802c0.21734,-0.45506 0.53657,-0.81504 0.95767,-1.07993c0.4211,-0.27168 0.9373,-0.40752 1.54858,-0.40752c0.48902,0 0.88975,0.0815 1.20219,0.24451c0.31922,0.15622 0.57053,0.36337 0.75391,0.62147c0.19018,0.2513 0.32941,0.51959 0.41771,0.80485c0.0883,0.27847 0.14603,0.54676 0.1732,0.80485c0.02717,0.2513 0.04075,0.45506 0.04075,0.61128v3.66769zM232.93872,184.38085v-6.57127h1.31425v2.0376h0.1732v4.53367zM244.40889,184.38085c-0.4279,0.0815 -0.8524,0.11546 -1.2735,0.10188c-0.41431,-0.00679 -0.78448,-0.0815 -1.11049,-0.22414c-0.32602,-0.14263 -0.57732,-0.37016 -0.75391,-0.6826c-0.14942,-0.28526 -0.22753,-0.57393 -0.23432,-0.86598c-0.00679,-0.29885 -0.01019,-0.63505 -0.01019,-1.00861v-5.71548h1.45689v5.62379c0,0.26489 0.0034,0.49921 0.01019,0.70297c0.00679,0.19697 0.04754,0.35658 0.12226,0.47884c0.14942,0.24451 0.38375,0.38035 0.70297,0.40752c0.31922,0.02717 0.6826,0.01019 1.09012,-0.05094zM239.83447,178.96082v-1.15125h4.57442v1.15125zM252.74881,182.75077v-2.18024h-2.17005v-1.15125h2.17005v-2.17005h1.15125v2.17005h2.17005v1.15125h-2.17005v2.18024zM257.40851,184.37066v-1.28369l3.739,-3.33148c0.29206,-0.26489 0.49582,-0.5128 0.61128,-0.74373c0.11546,-0.23093 0.1732,-0.45167 0.1732,-0.66222c0,-0.29206 -0.06452,-0.55355 -0.19357,-0.78448c-0.12226,-0.23093 -0.29545,-0.41092 -0.51959,-0.53997c-0.21734,-0.13584 -0.47204,-0.20376 -0.7641,-0.20376c-0.29885,0 -0.56713,0.07132 -0.80485,0.21395c-0.23093,0.13584 -0.41092,0.31922 -0.53997,0.55015c-0.12905,0.23093 -0.19018,0.48223 -0.18338,0.75391h-1.50783c0,-0.58411 0.12905,-1.09351 0.38714,-1.5282c0.26489,-0.43469 0.62487,-0.77089 1.07993,-1.00861c0.46186,-0.24451 0.99503,-0.36677 1.59952,-0.36677c0.56374,0 1.06635,0.12565 1.50783,0.37696c0.44827,0.2513 0.79806,0.5977 1.04937,1.03918c0.2581,0.43469 0.38714,0.94069 0.38714,1.51802c0,0.41431 -0.05773,0.7641 -0.1732,1.04937c-0.10867,0.28526 -0.27508,0.54676 -0.49921,0.78448c-0.22414,0.23772 -0.50261,0.50261 -0.83542,0.79467l-2.65907,2.35343l-0.13244,-0.36677h4.29934v1.38557zM269.91763,184.56423c-0.44148,0 -0.85579,-0.09169 -1.24294,-0.27508c-0.38714,-0.18338 -0.71995,-0.43808 -0.99843,-0.7641c-0.27168,-0.32602 -0.46865,-0.70297 -0.59091,-1.13087l1.40595,-0.37696c0.06113,0.23093 0.1664,0.43469 0.31583,0.61128c0.14942,0.1698 0.32602,0.30224 0.52978,0.39733c0.21055,0.0883 0.4245,0.13244 0.64185,0.13244c0.28526,0 0.54336,-0.06792 0.77429,-0.20376c0.23772,-0.14263 0.4245,-0.32941 0.56034,-0.56034c0.14263,-0.23093 0.21395,-0.48902 0.21395,-0.77429c0,-0.28526 -0.07132,-0.54336 -0.21395,-0.77429c-0.14263,-0.23093 -0.33281,-0.41431 -0.57053,-0.55015c-0.23093,-0.13584 -0.48563,-0.20376 -0.7641,-0.20376c-0.3396,0 -0.62147,0.06113 -0.84561,0.18338c-0.21734,0.11546 -0.38375,0.24451 -0.49921,0.38714l-1.25313,-0.40752l0.26489,-4.63555h4.75781v1.37538h-3.97333l0.55015,-0.51959l-0.19357,3.2296l-0.26489,-0.32602c0.22414,-0.21055 0.48563,-0.36677 0.78448,-0.46865c0.29885,-0.10188 0.59091,-0.15282 0.87617,-0.15282c0.54336,0 1.02559,0.12565 1.4467,0.37696c0.4279,0.2513 0.76071,0.59091 0.99843,1.0188c0.24451,0.4279 0.36677,0.91692 0.36677,1.46707c0,0.55015 -0.14263,1.04597 -0.4279,1.48745c-0.28526,0.44148 -0.65883,0.79467 -1.12068,1.05955c-0.46186,0.26489 -0.97126,0.39733 -1.5282,0.39733zM277.60639,184.56423c-0.62487,0 -1.17502,-0.13244 -1.65046,-0.39733c-0.46865,-0.26489 -0.83542,-0.63505 -1.10031,-1.11049c-0.26489,-0.47544 -0.39733,-1.0222 -0.39733,-1.64027v-2.82208c0,-0.62487 0.13244,-1.17162 0.39733,-1.64027c0.26489,-0.47544 0.63166,-0.84561 1.10031,-1.11049c0.47544,-0.27168 1.02559,-0.40752 1.65046,-0.40752c0.61807,0 1.16143,0.13584 1.63008,0.40752c0.47544,0.26489 0.84561,0.63505 1.11049,1.11049c0.27168,0.46865 0.40752,1.01541 0.40752,1.64027v2.82208c0,0.61807 -0.13584,1.16483 -0.40752,1.64027c-0.26489,0.47544 -0.63505,0.84561 -1.11049,1.11049c-0.46865,0.26489 -1.01201,0.39733 -1.63008,0.39733zM277.60639,183.16847c0.30564,0 0.58411,-0.07132 0.83542,-0.21395c0.2513,-0.14942 0.44827,-0.34979 0.59091,-0.60109c0.14942,-0.2513 0.22414,-0.52978 0.22414,-0.83542v-3.03603c0,-0.31243 -0.07471,-0.59091 -0.22414,-0.83542c-0.14263,-0.2513 -0.3396,-0.45167 -0.59091,-0.60109c-0.2513,-0.14942 -0.52978,-0.22414 -0.83542,-0.22414c-0.31243,0 -0.5943,0.07471 -0.84561,0.22414c-0.2513,0.14942 -0.45167,0.34979 -0.60109,0.60109c-0.14263,0.24451 -0.21395,0.52299 -0.21395,0.83542v3.03603c0,0.30564 0.07132,0.58411 0.21395,0.83542c0.14942,0.2513 0.34979,0.45167 0.60109,0.60109c0.2513,0.14263 0.53317,0.21395 0.84561,0.21395zM285.61062,184.56423c-0.62487,0 -1.17502,-0.13244 -1.65046,-0.39733c-0.46865,-0.26489 -0.83542,-0.63505 -1.10031,-1.11049c-0.26489,-0.47544 -0.39733,-1.0222 -0.39733,-1.64027v-2.82208c0,-0.62487 0.13244,-1.17162 0.39733,-1.64027c0.26489,-0.47544 0.63166,-0.84561 1.10031,-1.11049c0.47544,-0.27168 1.02559,-0.40752 1.65046,-0.40752c0.61807,0 1.16143,0.13584 1.63008,0.40752c0.47544,0.26489 0.84561,0.63505 1.11049,1.11049c0.27168,0.46865 0.40752,1.01541 0.40752,1.64027v2.82208c0,0.61807 -0.13584,1.16483 -0.40752,1.64027c-0.26489,0.47544 -0.63505,0.84561 -1.11049,1.11049c-0.46865,0.26489 -1.01201,0.39733 -1.63008,0.39733zM285.61062,183.16847c0.30564,0 0.58411,-0.07132 0.83542,-0.21395c0.2513,-0.14942 0.44827,-0.34979 0.59091,-0.60109c0.14942,-0.2513 0.22414,-0.52978 0.22414,-0.83542v-3.03603c0,-0.31243 -0.07471,-0.59091 -0.22414,-0.83542c-0.14263,-0.2513 -0.3396,-0.45167 -0.59091,-0.60109c-0.2513,-0.14942 -0.52978,-0.22414 -0.83542,-0.22414c-0.31243,0 -0.5943,0.07471 -0.84561,0.22414c-0.2513,0.14942 -0.45167,0.34979 -0.60109,0.60109c-0.14263,0.24451 -0.21395,0.52299 -0.21395,0.83542v3.03603c0,0.30564 0.07132,0.58411 0.21395,0.83542c0.14942,0.2513 0.34979,0.45167 0.60109,0.60109c0.2513,0.14263 0.53317,0.21395 0.84561,0.21395z" fill="#ffffff" stroke="#ffffff" stroke-width="0.25" stroke-linecap="square"/><path d="M142.5,277.5v-195h195v195z" fill="none" stroke="none" stroke-width="0" stroke-linecap="butt"/></g></g></svg>