<svg version="1.1" xmlns="http://www.w3.org/2000/svg" xmlns:xlink="http://www.w3.org/1999/xlink" width="207.56911" height="200.80003" viewBox="0,0,207.56911,200.80003"><defs><linearGradient x1="240.04382" y1="188.17568" x2="240.04382" y2="170.88832" gradientUnits="userSpaceOnUse" id="color-1"><stop offset="0" stop-color="#17d4d4"/><stop offset="1" stop-color="#17d4d4" stop-opacity="0"/></linearGradient><linearGradient x1="239.94645" y1="171.85767" x2="239.94645" y2="189.14502" gradientUnits="userSpaceOnUse" id="color-2"><stop offset="0" stop-color="#18d3d3"/><stop offset="1" stop-color="#18d3d3" stop-opacity="0"/></linearGradient></defs><g transform="translate(-136.21544,-79.59998)"><g data-paper-data="{&quot;isPaintingLayer&quot;:true}" fill-rule="nonzero" stroke-linejoin="miter" stroke-miterlimit="10" stroke-dasharray="" stroke-dashoffset="0" style="mix-blend-mode: normal"><g><path d="M250.55928,164.40557v15.66666h-21.03093v-15.66666z" data-paper-data="{&quot;index&quot;:null}" fill="url(#color-1)" stroke="none" stroke-width="0" stroke-linecap="butt"/><path d="M229.43099,195.62779v-15.66667h21.03093v15.66667z" data-paper-data="{&quot;index&quot;:null}" fill="url(#color-2)" stroke="none" stroke-width="0" stroke-linecap="butt"/><path d="M229.37501,179.9896l21.25,0.02083" fill="none" stroke="#1bffff" stroke-width="1.5" stroke-linecap="round"/><path d="M236.46114,180.94872c0,0 -0.35074,0.3917 -1.0019,0.33647c-0.26239,-0.02226 -0.66173,-0.56811 -0.97042,-0.54505c-0.35819,0.02676 -0.73607,0.5048 -1.10697,0.50122c-0.41078,-0.00396 -0.76439,-0.45871 -1.1321,-0.43491c-0.60191,0.03896 -0.96256,0.52689 -1.26278,0.52689c-0.52839,0 -1.13168,-0.38461 -1.13168,-0.38461" fill="none" stroke="#1bffff" stroke-width="0.5" stroke-linecap="round"/><path d="M246.63957,178.79488c0,0 -0.35074,0.3917 -1.0019,0.33647c-0.26239,-0.02226 -0.66173,-0.56811 -0.97042,-0.54505c-0.35819,0.02676 -0.73607,0.5048 -1.10697,0.50122c-0.41079,-0.00396 -0.7644,-0.45871 -1.13211,-0.43491c-0.60191,0.03895 -0.96256,0.52688 -1.26278,0.52688c-0.52839,0 -1.13168,-0.38461 -1.13168,-0.38461" fill="none" stroke="#1bffff" stroke-width="0.5" stroke-linecap="round"/><path d="M230.59675,178.35481c0,0 0.60329,-0.38461 1.13168,-0.38461c0.30022,0 0.66086,0.48793 1.26278,0.52688c0.36771,0.0238 0.72133,-0.43095 1.13211,-0.43491c0.3709,-0.00358 0.74878,0.47446 1.10697,0.50122c0.30869,0.02306 0.70803,-0.52279 0.97042,-0.54505c0.65116,-0.05523 1.0019,0.33647 1.0019,0.33647" data-paper-data="{&quot;index&quot;:null}" fill="none" stroke="#1bffff" stroke-width="0.5" stroke-linecap="round"/><path d="M240.91,181.81636c0,0 0.60329,-0.38461 1.13168,-0.38461c0.30022,0 0.66086,0.48793 1.26278,0.52688c0.36771,0.0238 0.72133,-0.43095 1.13211,-0.43491c0.3709,-0.00358 0.74878,0.47446 1.10697,0.50122c0.30869,0.02306 0.70803,-0.52279 0.97042,-0.54505c0.65116,-0.05523 1.0019,0.33647 1.0019,0.33647" data-paper-data="{&quot;index&quot;:null}" fill="none" stroke="#1bffff" stroke-width="0.5" stroke-linecap="round"/></g><g fill="none" stroke="#000000" stroke-width="0" stroke-linecap="round"><path d="M299.52833,242.47216l-119.05665,-124.94432"/><path d="M343.78455,79.59998l-207.56911,200.80003"/></g></g></g></svg>