<svg version="1.1" xmlns="http://www.w3.org/2000/svg" xmlns:xlink="http://www.w3.org/1999/xlink" width="647.5" height="477.66667" viewBox="0,0,647.5,477.66667"><g transform="translate(88.25,59.66667)"><g data-paper-data="{&quot;isPaintingLayer&quot;:true}" fill-rule="nonzero" stroke-linejoin="miter" stroke-miterlimit="10" stroke-dasharray="" stroke-dashoffset="0" style="mix-blend-mode: normal"><path d="M-7.5,368.33333v-375h492v375z" fill="#000000" stroke="none" stroke-width="0" stroke-linecap="butt"/><g fill="none" stroke="#00edff" stroke-linecap="round"><path d="M220.38622,89.50017v26.11039" stroke-width="3.5"/><path d="M238.72515,108.50332v5.05659c0,0 -1.494,0.57461 -3.44768,0.57461c-2.0686,0 -3.33275,-0.57461 -3.33275,-0.57461l0.11492,-5.17151c0,0 -3.95318,-4.45768 -3.93275,-7.69981c-0.07587,-3.37382 0.36172,-5.66521 2.30764,-7.70047c1.47798,-1.54583 2.93926,-2.43705 4.7877,-2.39778c1.84844,0.03927 3.66199,0.45593 5.23846,2.48527c1.60921,2.07148 2.33352,3.83621 2.12704,7.44283c0.01793,2.21637 -2.54466,6.07503 -3.6413,7.63421c-0.37196,0.52886 -0.22129,0.35068 -0.22129,0.35068z" stroke-width="2"/><path d="M238.15053,108.54809c0,0 -1.8639,0.30334 -2.75167,0.28362c-0.83252,-0.0185 -2.41984,-0.39854 -2.41984,-0.39854" stroke-width="1.5"/><path d="M234.27302,108.73762v5.09244" stroke-width="1.5"/><path d="M236.49685,113.73006v-4.59244" stroke-width="1.5"/><path d="M235.4924,105.07502l0.44476,1.2343l-0.80445,0.4597l0.34476,1.49399" stroke-width="1.5"/><path d="M250.71804,115.47163v-26.11039" stroke-width="3.5"/><path d="M237.90577,94.03578c0,0 1.39942,1.65493 1.95868,3.96978c0.47599,2.49968 -0.34977,4.08973 -0.34977,4.08973" stroke-width="1.5"/></g><g fill="#000d0f" stroke="none" stroke-width="0" stroke-linecap="butt"><path d="M-21,58.33333v-118h526v118z"/><path d="M-24,418v-118h526v118z"/></g><g fill="none" stroke="#00edff" stroke-width="2.5" stroke-linecap="round"><path d="M193,102.55648l-280,0.01969"/><g><path d="M278,102.57617l280,-0.01969"/><path d="M499,190.10469l-534,0.03755"/></g></g><g fill="#00edff" stroke-linecap="square"><path d="M140.83939,154.05041c-0.81826,0 -1.5547,-0.14212 -2.20931,-0.42636c-0.646,-0.28424 -1.18002,-0.68906 -1.60207,-1.21447c-0.41344,-0.52541 -0.67614,-1.14987 -0.78812,-1.87339l1.92507,-0.29716c0.16365,0.65461 0.49957,1.16279 1.00775,1.52455c0.5168,0.36176 1.11111,0.54264 1.78295,0.54264c0.39621,0 0.76658,-0.06029 1.11111,-0.18088c0.35314,-0.1292 0.63738,-0.31008 0.85272,-0.54264c0.22395,-0.24117 0.33592,-0.53402 0.33592,-0.87856c0,-0.15504 -0.02584,-0.29716 -0.07752,-0.42636c-0.05168,-0.1292 -0.1292,-0.24548 -0.23256,-0.34884c-0.10336,-0.10336 -0.23256,-0.19811 -0.3876,-0.28424c-0.15504,-0.08613 -0.33592,-0.15935 -0.54264,-0.21964l-2.86822,-0.8398c-0.24979,-0.07752 -0.5168,-0.17657 -0.80104,-0.29716c-0.28424,-0.12059 -0.55556,-0.28424 -0.81396,-0.49096c-0.24979,-0.21533 -0.4565,-0.48665 -0.62016,-0.81396c-0.16365,-0.33592 -0.24548,-0.74936 -0.24548,-1.24031c0,-0.7149 0.18088,-1.31353 0.54264,-1.79587c0.37037,-0.49096 0.86133,-0.85702 1.47287,-1.09819c0.61154,-0.24117 1.29199,-0.35745 2.04135,-0.34884c0.76658,0 1.44703,0.1292 2.04135,0.3876c0.59432,0.24979 1.08958,0.62016 1.48579,1.11111c0.40482,0.48234 0.69337,1.06374 0.86564,1.74419l-2.00259,0.34884c-0.08613,-0.39621 -0.24548,-0.72782 -0.47804,-0.99483c-0.23256,-0.27563 -0.5168,-0.48665 -0.85272,-0.63308c-0.33592,-0.14643 -0.69337,-0.22395 -1.07235,-0.23256c-0.37037,-0.00861 -0.7149,0.04737 -1.03359,0.16796c-0.31869,0.11197 -0.57709,0.27563 -0.7752,0.49096c-0.18949,0.21533 -0.28424,0.46942 -0.28424,0.76228c0,0.26701 0.08183,0.48665 0.24548,0.65892c0.17227,0.17227 0.37898,0.31008 0.62016,0.41344c0.24117,0.10336 0.49096,0.18519 0.74936,0.24548l1.98967,0.55556c0.26701,0.07752 0.56848,0.17657 0.9044,0.29716c0.34453,0.12059 0.67184,0.29285 0.98191,0.5168c0.31869,0.22395 0.57709,0.5168 0.7752,0.87856c0.20672,0.35314 0.31008,0.80965 0.31008,1.36951c0,0.57709 -0.12059,1.08527 -0.36176,1.52455c-0.23256,0.43066 -0.55556,0.78812 -0.96899,1.07235c-0.40482,0.28424 -0.86994,0.49957 -1.39535,0.646c-0.5168,0.14643 -1.05943,0.21964 -1.62791,0.21964zM151.74452,153.81785c-0.54264,0.10336 -1.08097,0.14643 -1.61499,0.1292c-0.52541,-0.00861 -0.99483,-0.10336 -1.40827,-0.28424c-0.41344,-0.18088 -0.73213,-0.46942 -0.95607,-0.86564c-0.18949,-0.36176 -0.28855,-0.72782 -0.29716,-1.09819c-0.00861,-0.37898 -0.01292,-0.80534 -0.01292,-1.27907v-7.24808h1.84755v7.1318c0,0.33592 0.00431,0.63308 0.01292,0.89148c0.00861,0.24979 0.06029,0.4522 0.15504,0.60724c0.18949,0.31008 0.48665,0.48234 0.89148,0.5168c0.40482,0.03445 0.86564,0.01292 1.38243,-0.0646zM145.94347,146.94445v-1.45995h5.80105v1.45995zM155.87893,154.05041c-0.60293,0 -1.11542,-0.11197 -1.53747,-0.33592c-0.41344,-0.23256 -0.72782,-0.53833 -0.94315,-0.91732c-0.20672,-0.3876 -0.31008,-0.80965 -0.31008,-1.26615c0,-0.39621 0.0646,-0.75366 0.1938,-1.07235c0.13781,-0.3273 0.34453,-0.60724 0.62016,-0.8398c0.27563,-0.23256 0.63738,-0.42636 1.08527,-0.5814c0.3273,-0.10336 0.7149,-0.19811 1.16279,-0.28424c0.4565,-0.08613 0.94746,-0.16796 1.47287,-0.24548c0.52541,-0.07752 1.07666,-0.15935 1.65375,-0.24548l-0.65892,0.37468c0,-0.56848 -0.1292,-0.99053 -0.3876,-1.26615c-0.2584,-0.27563 -0.70198,-0.41344 -1.33075,-0.41344c-0.37037,0 -0.73213,0.09044 -1.08527,0.27132c-0.34453,0.17227 -0.59001,0.46942 -0.73644,0.89148l-1.69251,-0.52972c0.20672,-0.70629 0.59862,-1.27046 1.17571,-1.69251c0.57709,-0.43066 1.35659,-0.646 2.33851,-0.646c0.74074,0 1.39105,0.12059 1.95091,0.36176c0.56848,0.24117 0.99053,0.63738 1.26615,1.18863c0.14643,0.29285 0.23256,0.59432 0.2584,0.9044c0.03445,0.30147 0.05168,0.63308 0.05168,0.99483v5.11629h-1.62791v-1.80879l0.27132,0.29716c-0.37898,0.60293 -0.81826,1.04651 -1.31783,1.33075c-0.49957,0.27563 -1.12403,0.41344 -1.87339,0.41344zM156.2536,152.56462c0.41344,0 0.77089,-0.07321 1.07235,-0.21964c0.30147,-0.14643 0.53833,-0.3273 0.7106,-0.54264c0.18088,-0.21533 0.30147,-0.42205 0.36176,-0.62016c0.09475,-0.23256 0.14643,-0.49957 0.15504,-0.80104c0.01723,-0.31008 0.02584,-0.55986 0.02584,-0.74936l0.5814,0.16796c-0.55986,0.08613 -1.04221,0.16365 -1.44703,0.23256c-0.40482,0.06891 -0.74936,0.13351 -1.03359,0.1938c-0.28424,0.05168 -0.53833,0.11628 -0.76228,0.1938c-0.21533,0.07752 -0.40052,0.16796 -0.55556,0.27132c-0.14643,0.10336 -0.2584,0.22395 -0.33592,0.36176c-0.07752,0.1292 -0.11628,0.27993 -0.11628,0.4522c0,0.20672 0.05168,0.3919 0.15504,0.55556c0.10336,0.15504 0.25409,0.27993 0.4522,0.37468c0.19811,0.08613 0.44358,0.1292 0.73644,0.1292zM163.06117,157.52587l1.61499,-4.4057l0.02584,1.29199l-3.6305,-8.92767h1.93799l2.57107,6.60208h-0.49096l2.50647,-6.60208h1.86047l-4.65118,12.04138zM178.56307,153.81785c-0.54264,0.10336 -1.08097,0.14643 -1.61499,0.1292c-0.52541,-0.00861 -0.99483,-0.10336 -1.40827,-0.28424c-0.41344,-0.18088 -0.73213,-0.46942 -0.95607,-0.86564c-0.18949,-0.36176 -0.28855,-0.72782 -0.29716,-1.09819c-0.00861,-0.37898 -0.01292,-0.80534 -0.01292,-1.27907v-7.24808h1.84755v7.1318c0,0.33592 0.00431,0.63308 0.01292,0.89148c0.00861,0.24979 0.06029,0.4522 0.15504,0.60724c0.18949,0.31008 0.48665,0.48234 0.89148,0.5168c0.40482,0.03445 0.86564,0.01292 1.38243,-0.0646zM172.76202,146.94445v-1.45995h5.80105v1.45995zM183.48559,154.06333c-0.61154,0 -1.11973,-0.10336 -1.52455,-0.31008c-0.39621,-0.20672 -0.7149,-0.46942 -0.95607,-0.78812c-0.23256,-0.31869 -0.40913,-0.65892 -0.52972,-1.02067c-0.11197,-0.36176 -0.18519,-0.70198 -0.21964,-1.02067c-0.02584,-0.31869 -0.03876,-0.5814 -0.03876,-0.78812v-4.65118h1.87339v4.0181c0,0.2584 0.01723,0.54694 0.05168,0.86564c0.04307,0.31869 0.1292,0.62877 0.2584,0.93024c0.1292,0.29285 0.323,0.53402 0.5814,0.72352c0.2584,0.18949 0.61154,0.28424 1.05943,0.28424c0.23256,0 0.46512,-0.03876 0.69768,-0.11628c0.23256,-0.07752 0.44358,-0.21103 0.63308,-0.40052c0.18949,-0.18949 0.34022,-0.44789 0.4522,-0.7752c0.11197,-0.3273 0.16796,-0.74074 0.16796,-1.24031l1.09819,0.46512c0,0.70629 -0.13781,1.34798 -0.41344,1.92507c-0.27563,0.57709 -0.68045,1.0379 -1.21447,1.38243c-0.53402,0.34453 -1.19294,0.5168 -1.97675,0.5168zM186.2117,153.81785v-2.58399h-0.21964v-5.74937h1.86047v8.33336zM195.78337,153.81785v-4.00518c0,-0.26701 -0.02153,-0.55986 -0.0646,-0.87856c-0.03445,-0.31869 -0.11628,-0.62446 -0.24548,-0.91732c-0.1292,-0.30147 -0.3273,-0.54694 -0.59432,-0.73644c-0.2584,-0.18949 -0.60724,-0.28424 -1.04651,-0.28424c-0.23256,0 -0.46512,0.03876 -0.69768,0.11628c-0.23256,0.07752 -0.44358,0.21103 -0.63308,0.40052c-0.18949,0.18949 -0.34022,0.44789 -0.4522,0.7752c-0.11197,0.3273 -0.16796,0.74505 -0.16796,1.25323l-1.09819,-0.47804c0,-0.70629 0.13781,-1.34798 0.41344,-1.92507c0.27563,-0.57709 0.68045,-1.03359 1.21447,-1.36951c0.53402,-0.34453 1.18863,-0.5168 1.96383,-0.5168c0.62016,0 1.12834,0.10336 1.52455,0.31008c0.40482,0.19811 0.72352,0.46081 0.95607,0.78812c0.24117,0.31869 0.41774,0.65892 0.52972,1.02067c0.11197,0.35314 0.18519,0.69337 0.21964,1.02067c0.03445,0.31869 0.05168,0.57709 0.05168,0.7752v4.65118zM189.99524,153.81785v-8.33336h1.66667v2.58399h0.21964v5.74937zM203.32465,154.05041c-0.8441,0 -1.58484,-0.18088 -2.22223,-0.54264c-0.63738,-0.37037 -1.13695,-0.87856 -1.49871,-1.52455c-0.35314,-0.646 -0.52972,-1.39105 -0.52972,-2.23515c0,-0.91301 0.17227,-1.70543 0.5168,-2.37727c0.35314,-0.67184 0.8398,-1.19294 1.45995,-1.56331c0.62016,-0.37037 1.33937,-0.55556 2.15763,-0.55556c0.86994,0 1.60638,0.20241 2.20931,0.60724c0.60293,0.40482 1.05082,0.97761 1.34367,1.71835c0.29285,0.73213 0.40482,1.59776 0.33592,2.59691h-1.84755v-0.68476c-0.00861,-0.9044 -0.16796,-1.56331 -0.47804,-1.97675c-0.31008,-0.42205 -0.80534,-0.63308 -1.48579,-0.63308c-0.75797,0 -1.32214,0.23687 -1.69251,0.7106c-0.37037,0.47373 -0.55556,1.16279 -0.55556,2.06719c0,0.8441 0.18519,1.49871 0.55556,1.96383c0.37037,0.4565 0.9087,0.68476 1.61499,0.68476c0.4565,0 0.84841,-0.09905 1.17571,-0.29716c0.33592,-0.20672 0.59432,-0.50388 0.7752,-0.89148l1.83463,0.55556c-0.31869,0.74936 -0.80965,1.33506 -1.47287,1.75711c-0.66322,0.41344 -1.39535,0.62016 -2.19639,0.62016zM200.45642,150.17443v-1.40827h5.72353v1.40827zM212.15913,154.05041c-0.76658,0 -1.43411,-0.1938 -2.00259,-0.5814c-0.56848,-0.3876 -1.01206,-0.91301 -1.33075,-1.57623c-0.31008,-0.66322 -0.46512,-1.40827 -0.46512,-2.23515c0,-0.8441 0.15504,-1.59776 0.46512,-2.26099c0.31869,-0.66322 0.76658,-1.18433 1.34367,-1.56331c0.5857,-0.3876 1.27046,-0.5814 2.05427,-0.5814c0.79242,0 1.45565,0.1938 1.98967,0.5814c0.54264,0.37898 0.95177,0.90009 1.22739,1.56331c0.28424,0.66322 0.42636,1.41689 0.42636,2.26099c0,0.82688 -0.14212,1.57192 -0.42636,2.23515c-0.27563,0.66322 -0.68906,1.18863 -1.24031,1.57623c-0.55125,0.3876 -1.2317,0.5814 -2.04135,0.5814zM212.44337,152.38374c0.49957,0 0.90009,-0.11197 1.20155,-0.33592c0.31008,-0.23256 0.53402,-0.55556 0.67184,-0.96899c0.14643,-0.41344 0.21964,-0.88717 0.21964,-1.42119c0,-0.55125 -0.07321,-1.02929 -0.21964,-1.43411c-0.13781,-0.41344 -0.35745,-0.73213 -0.65892,-0.95607c-0.29285,-0.23256 -0.67614,-0.34884 -1.14987,-0.34884c-0.49957,0 -0.91301,0.12489 -1.24031,0.37468c-0.31869,0.24117 -0.55556,0.56848 -0.7106,0.98191c-0.15504,0.41344 -0.23256,0.87425 -0.23256,1.38243c0,0.50818 0.07321,0.96899 0.21964,1.38243c0.15504,0.41344 0.3876,0.74074 0.69768,0.98191c0.31869,0.24117 0.71921,0.36176 1.20155,0.36176zM214.5364,153.81785v-5.85273h-0.23256v-5.25841h1.87339v11.11114zM222.15267,153.81785v-8.46256c0,-0.20672 0.00431,-0.43497 0.01292,-0.68476c0.01723,-0.2584 0.06029,-0.51249 0.1292,-0.76228c0.07752,-0.2584 0.21103,-0.49096 0.40052,-0.69768c0.24117,-0.2584 0.49526,-0.43928 0.76228,-0.54264c0.27563,-0.10336 0.54694,-0.15935 0.81396,-0.16796c0.27563,-0.01723 0.51249,-0.02584 0.7106,-0.02584h1.03359v1.51163h-0.95607c-0.35314,0 -0.61585,0.09044 -0.78812,0.27132c-0.17227,0.18088 -0.2584,0.41344 -0.2584,0.69768v8.86307zM220.809,146.94445v-1.45995h5.20673v1.45995zM230.62091,154.05041c-0.82688,0 -1.5547,-0.18519 -2.18347,-0.55556c-0.62016,-0.37898 -1.1025,-0.90009 -1.44703,-1.56331c-0.33592,-0.66322 -0.50388,-1.42119 -0.50388,-2.27391c0,-0.87856 0.17227,-1.64514 0.5168,-2.29975c0.35314,-0.66322 0.8398,-1.18002 1.45995,-1.55039c0.62016,-0.37037 1.33937,-0.55556 2.15763,-0.55556c0.8441,0 1.57623,0.18949 2.19639,0.56848c0.62016,0.37037 1.1025,0.88717 1.44703,1.55039c0.34453,0.66322 0.5168,1.4255 0.5168,2.28683c0,0.86133 -0.17227,1.6236 -0.5168,2.28683c-0.34453,0.65461 -0.83118,1.17141 -1.45995,1.55039c-0.62016,0.37037 -1.34798,0.55556 -2.18347,0.55556zM230.62091,152.30622c0.74074,0 1.29199,-0.24548 1.65375,-0.73644c0.36176,-0.49957 0.54264,-1.13695 0.54264,-1.91215c0,-0.80965 -0.18519,-1.45565 -0.55556,-1.93799c-0.36176,-0.48234 -0.9087,-0.72352 -1.64083,-0.72352c-0.49957,0 -0.9087,0.11197 -1.22739,0.33592c-0.31869,0.22395 -0.55556,0.53833 -0.7106,0.94315c-0.15504,0.39621 -0.23256,0.85702 -0.23256,1.38243c0,0.80104 0.18088,1.44273 0.54264,1.92507c0.37037,0.48234 0.91301,0.72352 1.62791,0.72352zM236.48517,153.81785v-8.33336h1.64083v2.02843l-0.20672,-0.2584c0.10336,-0.27563 0.24117,-0.52541 0.41344,-0.74936c0.17227,-0.23256 0.37898,-0.42636 0.62016,-0.5814c0.20672,-0.13781 0.43497,-0.24548 0.68476,-0.323c0.24979,-0.07752 0.50388,-0.12489 0.76228,-0.14212c0.26701,-0.02584 0.52541,-0.01723 0.7752,0.02584v1.74419c-0.24979,-0.07752 -0.53833,-0.10336 -0.86564,-0.07752c-0.31869,0.02584 -0.60724,0.11628 -0.86564,0.27132c-0.24979,0.13781 -0.4565,0.31438 -0.62016,0.52972c-0.16365,0.21533 -0.28424,0.46081 -0.36176,0.73644c-0.07752,0.27563 -0.11628,0.57278 -0.11628,0.89148v4.23774zM251.48786,153.81785v-4.00518c0,-0.26701 -0.02153,-0.55986 -0.0646,-0.87856c-0.03445,-0.31869 -0.11628,-0.62446 -0.24548,-0.91732c-0.1292,-0.30147 -0.3273,-0.54694 -0.59432,-0.73644c-0.2584,-0.18949 -0.60724,-0.28424 -1.04651,-0.28424c-0.23256,0 -0.46512,0.03876 -0.69768,0.11628c-0.23256,0.07752 -0.44358,0.21103 -0.63308,0.40052c-0.18949,0.18949 -0.34022,0.44789 -0.4522,0.7752c-0.11197,0.3273 -0.16796,0.74505 -0.16796,1.25323l-1.09819,-0.47804c0,-0.70629 0.13781,-1.34798 0.41344,-1.92507c0.27563,-0.57709 0.68045,-1.03359 1.21447,-1.36951c0.53402,-0.34453 1.18863,-0.5168 1.96383,-0.5168c0.62016,0 1.12834,0.10336 1.52455,0.31008c0.40482,0.19811 0.72352,0.46081 0.95607,0.78812c0.24117,0.31869 0.41774,0.65892 0.52972,1.02067c0.11197,0.35314 0.18519,0.69337 0.21964,1.02067c0.03445,0.31869 0.05168,0.57709 0.05168,0.7752v4.65118zM245.69973,153.81785v-8.33336h1.66667v2.58399h0.21964v5.74937zM259.02914,154.05041c-0.8441,0 -1.58484,-0.18088 -2.22223,-0.54264c-0.63738,-0.37037 -1.13695,-0.87856 -1.49871,-1.52455c-0.35314,-0.646 -0.52972,-1.39105 -0.52972,-2.23515c0,-0.91301 0.17227,-1.70543 0.5168,-2.37727c0.35314,-0.67184 0.8398,-1.19294 1.45995,-1.56331c0.62016,-0.37037 1.33937,-0.55556 2.15763,-0.55556c0.86994,0 1.60638,0.20241 2.20931,0.60724c0.60293,0.40482 1.05082,0.97761 1.34367,1.71835c0.29285,0.73213 0.40482,1.59776 0.33592,2.59691h-1.84755v-0.68476c-0.00861,-0.9044 -0.16796,-1.56331 -0.47804,-1.97675c-0.31008,-0.42205 -0.80534,-0.63308 -1.48579,-0.63308c-0.75797,0 -1.32214,0.23687 -1.69251,0.7106c-0.37037,0.47373 -0.55556,1.16279 -0.55556,2.06719c0,0.8441 0.18519,1.49871 0.55556,1.96383c0.37037,0.4565 0.9087,0.68476 1.61499,0.68476c0.4565,0 0.84841,-0.09905 1.17571,-0.29716c0.33592,-0.20672 0.59432,-0.50388 0.7752,-0.89148l1.83463,0.55556c-0.31869,0.74936 -0.80965,1.33506 -1.47287,1.75711c-0.66322,0.41344 -1.39535,0.62016 -2.19639,0.62016zM256.16091,150.17443v-1.40827h5.72353v1.40827zM265.99162,153.81785l-2.54523,-8.34628l1.82171,0.01292l1.62791,5.34885l1.64083,-5.34885h1.57623l1.64083,5.34885l1.62791,-5.34885h1.82171l-2.54523,8.33336h-1.44703l-1.88631,-5.73645l-1.88631,5.73645zM282.80025,154.06333c-0.61154,0 -1.11973,-0.10336 -1.52455,-0.31008c-0.39621,-0.20672 -0.7149,-0.46942 -0.95607,-0.78812c-0.23256,-0.31869 -0.40913,-0.65892 -0.52972,-1.02067c-0.11197,-0.36176 -0.18519,-0.70198 -0.21964,-1.02067c-0.02584,-0.31869 -0.03876,-0.5814 -0.03876,-0.78812v-4.65118h1.87339v4.0181c0,0.2584 0.01723,0.54694 0.05168,0.86564c0.04307,0.31869 0.1292,0.62877 0.2584,0.93024c0.1292,0.29285 0.323,0.53402 0.5814,0.72352c0.2584,0.18949 0.61154,0.28424 1.05943,0.28424c0.23256,0 0.46512,-0.03876 0.69768,-0.11628c0.23256,-0.07752 0.44358,-0.21103 0.63308,-0.40052c0.18949,-0.18949 0.34022,-0.44789 0.4522,-0.7752c0.11197,-0.3273 0.16796,-0.74074 0.16796,-1.24031l1.09819,0.46512c0,0.70629 -0.13781,1.34798 -0.41344,1.92507c-0.27563,0.57709 -0.68045,1.0379 -1.21447,1.38243c-0.53402,0.34453 -1.19294,0.5168 -1.97675,0.5168zM285.52635,153.81785v-2.58399h-0.21964v-5.74937h1.86047v8.33336zM293.32802,154.05041c-0.80965,0 -1.4901,-0.1938 -2.04135,-0.5814c-0.55125,-0.3876 -0.96469,-0.91301 -1.24031,-1.57623c-0.27563,-0.66322 -0.41344,-1.40827 -0.41344,-2.23515c0,-0.8441 0.13781,-1.59776 0.41344,-2.26099c0.27563,-0.66322 0.68045,-1.18433 1.21447,-1.56331c0.54264,-0.3876 1.21017,-0.5814 2.00259,-0.5814c0.78381,0 1.46426,0.1938 2.04135,0.5814c0.5857,0.37898 1.0379,0.90009 1.35659,1.56331c0.31869,0.66322 0.47804,1.41689 0.47804,2.26099c0,0.82688 -0.15935,1.57192 -0.47804,2.23515c-0.31008,0.66322 -0.75366,1.18863 -1.33075,1.57623c-0.56848,0.3876 -1.23601,0.5814 -2.00259,0.5814zM289.30992,157.52587v-12.04138h1.65375v5.85273h0.21964v6.18865zM293.04378,152.38374c0.48234,0 0.87856,-0.12059 1.18863,-0.36176c0.31869,-0.24117 0.55556,-0.56848 0.7106,-0.98191c0.15504,-0.41344 0.23256,-0.87425 0.23256,-1.38243c0,-0.50818 -0.07752,-0.96899 -0.23256,-1.38243c-0.15504,-0.41344 -0.39621,-0.74074 -0.72352,-0.98191c-0.3273,-0.24979 -0.73644,-0.37468 -1.22739,-0.37468c-0.47373,0 -0.86133,0.11628 -1.16279,0.34884c-0.30147,0.22395 -0.5211,0.54264 -0.65892,0.95607c-0.13781,0.40482 -0.20672,0.88286 -0.20672,1.43411c0,0.53402 0.06891,1.00775 0.20672,1.42119c0.13781,0.41344 0.35745,0.73644 0.65892,0.96899c0.31008,0.22395 0.7149,0.33592 1.21447,0.33592zM302.17177,154.05041c-0.76658,0 -1.43411,-0.1938 -2.00259,-0.5814c-0.56848,-0.3876 -1.01206,-0.91301 -1.33075,-1.57623c-0.31008,-0.66322 -0.46512,-1.40827 -0.46512,-2.23515c0,-0.8441 0.15504,-1.59776 0.46512,-2.26099c0.31869,-0.66322 0.76658,-1.18433 1.34367,-1.56331c0.5857,-0.3876 1.27046,-0.5814 2.05427,-0.5814c0.79242,0 1.45565,0.1938 1.98967,0.5814c0.54264,0.37898 0.95177,0.90009 1.22739,1.56331c0.28424,0.66322 0.42636,1.41689 0.42636,2.26099c0,0.82688 -0.14212,1.57192 -0.42636,2.23515c-0.27563,0.66322 -0.68906,1.18863 -1.24031,1.57623c-0.55125,0.3876 -1.2317,0.5814 -2.04135,0.5814zM302.456,152.38374c0.49957,0 0.90009,-0.11197 1.20155,-0.33592c0.31008,-0.23256 0.53402,-0.55556 0.67184,-0.96899c0.14643,-0.41344 0.21964,-0.88717 0.21964,-1.42119c0,-0.55125 -0.07321,-1.02929 -0.21964,-1.43411c-0.13781,-0.41344 -0.35745,-0.73213 -0.65892,-0.95607c-0.29285,-0.23256 -0.67614,-0.34884 -1.14987,-0.34884c-0.49957,0 -0.91301,0.12489 -1.24031,0.37468c-0.31869,0.24117 -0.55556,0.56848 -0.7106,0.98191c-0.15504,0.41344 -0.23256,0.87425 -0.23256,1.38243c0,0.50818 0.07321,0.96899 0.21964,1.38243c0.15504,0.41344 0.3876,0.74074 0.69768,0.98191c0.31869,0.24117 0.71921,0.36176 1.20155,0.36176zM304.54903,153.81785v-5.85273h-0.23256v-5.25841h1.87339v11.11114zM310.68209,154.05041c-0.60293,0 -1.11542,-0.11197 -1.53747,-0.33592c-0.41344,-0.23256 -0.72782,-0.53833 -0.94315,-0.91732c-0.20672,-0.3876 -0.31008,-0.80965 -0.31008,-1.26615c0,-0.39621 0.0646,-0.75366 0.1938,-1.07235c0.13781,-0.3273 0.34453,-0.60724 0.62016,-0.8398c0.27563,-0.23256 0.63738,-0.42636 1.08527,-0.5814c0.3273,-0.10336 0.7149,-0.19811 1.16279,-0.28424c0.4565,-0.08613 0.94746,-0.16796 1.47287,-0.24548c0.52541,-0.07752 1.07666,-0.15935 1.65375,-0.24548l-0.65892,0.37468c0,-0.56848 -0.1292,-0.99053 -0.3876,-1.26615c-0.2584,-0.27563 -0.70198,-0.41344 -1.33075,-0.41344c-0.37037,0 -0.73213,0.09044 -1.08527,0.27132c-0.34453,0.17227 -0.59001,0.46942 -0.73644,0.89148l-1.69251,-0.52972c0.20672,-0.70629 0.59862,-1.27046 1.17571,-1.69251c0.57709,-0.43066 1.35659,-0.646 2.33851,-0.646c0.74074,0 1.39105,0.12059 1.95091,0.36176c0.56848,0.24117 0.99053,0.63738 1.26615,1.18863c0.14643,0.29285 0.23256,0.59432 0.2584,0.9044c0.03445,0.30147 0.05168,0.63308 0.05168,0.99483v5.11629h-1.62791v-1.80879l0.27132,0.29716c-0.37898,0.60293 -0.81826,1.04651 -1.31783,1.33075c-0.49957,0.27563 -1.12403,0.41344 -1.87339,0.41344zM311.05677,152.56462c0.41344,0 0.77089,-0.07321 1.07235,-0.21964c0.30147,-0.14643 0.53833,-0.3273 0.7106,-0.54264c0.18088,-0.21533 0.30147,-0.42205 0.36176,-0.62016c0.09475,-0.23256 0.14643,-0.49957 0.15504,-0.80104c0.01723,-0.31008 0.02584,-0.55986 0.02584,-0.74936l0.5814,0.16796c-0.55986,0.08613 -1.04221,0.16365 -1.44703,0.23256c-0.40482,0.06891 -0.74936,0.13351 -1.03359,0.1938c-0.28424,0.05168 -0.53833,0.11628 -0.76228,0.1938c-0.21533,0.07752 -0.40052,0.16796 -0.55556,0.27132c-0.14643,0.10336 -0.2584,0.22395 -0.33592,0.36176c-0.07752,0.1292 -0.11628,0.27993 -0.11628,0.4522c0,0.20672 0.05168,0.3919 0.15504,0.55556c0.10336,0.15504 0.25409,0.27993 0.4522,0.37468c0.19811,0.08613 0.44358,0.1292 0.73644,0.1292zM322.11292,153.81785c-0.54264,0.10336 -1.08097,0.14643 -1.61499,0.1292c-0.52541,-0.00861 -0.99483,-0.10336 -1.40827,-0.28424c-0.41344,-0.18088 -0.73213,-0.46942 -0.95607,-0.86564c-0.18949,-0.36176 -0.28855,-0.72782 -0.29716,-1.09819c-0.00861,-0.37898 -0.01292,-0.80534 -0.01292,-1.27907v-7.24808h1.84755v7.1318c0,0.33592 0.00431,0.63308 0.01292,0.89148c0.00861,0.24979 0.06029,0.4522 0.15504,0.60724c0.18949,0.31008 0.48665,0.48234 0.89148,0.5168c0.40482,0.03445 0.86564,0.01292 1.38243,-0.0646zM316.31186,146.94445v-1.45995h5.80105v1.45995zM327.28281,154.05041c-0.8441,0 -1.58484,-0.18088 -2.22223,-0.54264c-0.63738,-0.37037 -1.13695,-0.87856 -1.49871,-1.52455c-0.35314,-0.646 -0.52972,-1.39105 -0.52972,-2.23515c0,-0.91301 0.17227,-1.70543 0.5168,-2.37727c0.35314,-0.67184 0.8398,-1.19294 1.45995,-1.56331c0.62016,-0.37037 1.33937,-0.55556 2.15763,-0.55556c0.86994,0 1.60638,0.20241 2.20931,0.60724c0.60293,0.40482 1.05082,0.97761 1.34367,1.71835c0.29285,0.73213 0.40482,1.59776 0.33592,2.59691h-1.84755v-0.68476c-0.00861,-0.9044 -0.16796,-1.56331 -0.47804,-1.97675c-0.31008,-0.42205 -0.80534,-0.63308 -1.48579,-0.63308c-0.75797,0 -1.32214,0.23687 -1.69251,0.7106c-0.37037,0.47373 -0.55556,1.16279 -0.55556,2.06719c0,0.8441 0.18519,1.49871 0.55556,1.96383c0.37037,0.4565 0.9087,0.68476 1.61499,0.68476c0.4565,0 0.84841,-0.09905 1.17571,-0.29716c0.33592,-0.20672 0.59432,-0.50388 0.7752,-0.89148l1.83463,0.55556c-0.31869,0.74936 -0.80965,1.33506 -1.47287,1.75711c-0.66322,0.41344 -1.39535,0.62016 -2.19639,0.62016zM324.41458,150.17443v-1.40827h5.72353v1.40827zM336.00103,154.05041c-1.03359,0 -1.87339,-0.23256 -2.51939,-0.69768c-0.63738,-0.46512 -1.02498,-1.11542 -1.16279,-1.95091l1.89923,-0.29716c0.09475,0.41344 0.31008,0.74074 0.646,0.98191c0.33592,0.23256 0.75797,0.34884 1.26615,0.34884c0.44789,0 0.79242,-0.08613 1.03359,-0.2584c0.24117,-0.18088 0.36176,-0.42636 0.36176,-0.73644c0,-0.18949 -0.04737,-0.34022 -0.14212,-0.4522c-0.08613,-0.12059 -0.27993,-0.23256 -0.5814,-0.33592c-0.30147,-0.11197 -0.76658,-0.24979 -1.39535,-0.41344c-0.69768,-0.18949 -1.25323,-0.3876 -1.66667,-0.59432c-0.41344,-0.21533 -0.7106,-0.46942 -0.89148,-0.76228c-0.17227,-0.29285 -0.2584,-0.646 -0.2584,-1.05943c0,-0.52541 0.13351,-0.97761 0.40052,-1.35659c0.27563,-0.3876 0.65461,-0.68476 1.13695,-0.89148c0.49096,-0.21533 1.06805,-0.323 1.73127,-0.323c0.65461,0 1.2317,0.10336 1.73127,0.31008c0.49957,0.19811 0.9044,0.48234 1.21447,0.85272c0.31008,0.37037 0.49957,0.80534 0.56848,1.30491l-1.89923,0.33592c-0.04307,-0.35314 -0.20241,-0.63308 -0.47804,-0.8398c-0.27563,-0.20672 -0.64169,-0.323 -1.09819,-0.34884c-0.43928,-0.02584 -0.79242,0.04307 -1.05943,0.20672c-0.26701,0.15504 -0.40052,0.37037 -0.40052,0.646c0,0.16365 0.05168,0.30147 0.15504,0.41344c0.11197,0.11197 0.33161,0.22395 0.65892,0.33592c0.3273,0.11197 0.81396,0.25409 1.45995,0.42636c0.66322,0.16365 1.19294,0.35745 1.58915,0.5814c0.40482,0.21533 0.69337,0.47373 0.86564,0.7752c0.18088,0.30147 0.27132,0.67184 0.27132,1.11111c0,0.83549 -0.30577,1.49441 -0.91732,1.97675c-0.61154,0.47373 -1.45134,0.7106 -2.51939,0.7106zM341.89964,153.81785v-1.70543h1.86047v1.70543zM341.89964,151.04006v-8.33336h1.86047v8.33336z" stroke="#001819" stroke-width="3.5"/><path d="M140.83939,154.05041c-0.81826,0 -1.5547,-0.14212 -2.20931,-0.42636c-0.646,-0.28424 -1.18002,-0.68906 -1.60207,-1.21447c-0.41344,-0.52541 -0.67614,-1.14987 -0.78812,-1.87339l1.92507,-0.29716c0.16365,0.65461 0.49957,1.16279 1.00775,1.52455c0.5168,0.36176 1.11111,0.54264 1.78295,0.54264c0.39621,0 0.76658,-0.06029 1.11111,-0.18088c0.35314,-0.1292 0.63738,-0.31008 0.85272,-0.54264c0.22395,-0.24117 0.33592,-0.53402 0.33592,-0.87856c0,-0.15504 -0.02584,-0.29716 -0.07752,-0.42636c-0.05168,-0.1292 -0.1292,-0.24548 -0.23256,-0.34884c-0.10336,-0.10336 -0.23256,-0.19811 -0.3876,-0.28424c-0.15504,-0.08613 -0.33592,-0.15935 -0.54264,-0.21964l-2.86822,-0.8398c-0.24979,-0.07752 -0.5168,-0.17657 -0.80104,-0.29716c-0.28424,-0.12059 -0.55556,-0.28424 -0.81396,-0.49096c-0.24979,-0.21533 -0.4565,-0.48665 -0.62016,-0.81396c-0.16365,-0.33592 -0.24548,-0.74936 -0.24548,-1.24031c0,-0.7149 0.18088,-1.31353 0.54264,-1.79587c0.37037,-0.49096 0.86133,-0.85702 1.47287,-1.09819c0.61154,-0.24117 1.29199,-0.35745 2.04135,-0.34884c0.76658,0 1.44703,0.1292 2.04135,0.3876c0.59432,0.24979 1.08958,0.62016 1.48579,1.11111c0.40482,0.48234 0.69337,1.06374 0.86564,1.74419l-2.00259,0.34884c-0.08613,-0.39621 -0.24548,-0.72782 -0.47804,-0.99483c-0.23256,-0.27563 -0.5168,-0.48665 -0.85272,-0.63308c-0.33592,-0.14643 -0.69337,-0.22395 -1.07235,-0.23256c-0.37037,-0.00861 -0.7149,0.04737 -1.03359,0.16796c-0.31869,0.11197 -0.57709,0.27563 -0.7752,0.49096c-0.18949,0.21533 -0.28424,0.46942 -0.28424,0.76228c0,0.26701 0.08183,0.48665 0.24548,0.65892c0.17227,0.17227 0.37898,0.31008 0.62016,0.41344c0.24117,0.10336 0.49096,0.18519 0.74936,0.24548l1.98967,0.55556c0.26701,0.07752 0.56848,0.17657 0.9044,0.29716c0.34453,0.12059 0.67184,0.29285 0.98191,0.5168c0.31869,0.22395 0.57709,0.5168 0.7752,0.87856c0.20672,0.35314 0.31008,0.80965 0.31008,1.36951c0,0.57709 -0.12059,1.08527 -0.36176,1.52455c-0.23256,0.43066 -0.55556,0.78812 -0.96899,1.07235c-0.40482,0.28424 -0.86994,0.49957 -1.39535,0.646c-0.5168,0.14643 -1.05943,0.21964 -1.62791,0.21964zM151.74452,153.81785c-0.54264,0.10336 -1.08097,0.14643 -1.61499,0.1292c-0.52541,-0.00861 -0.99483,-0.10336 -1.40827,-0.28424c-0.41344,-0.18088 -0.73213,-0.46942 -0.95607,-0.86564c-0.18949,-0.36176 -0.28855,-0.72782 -0.29716,-1.09819c-0.00861,-0.37898 -0.01292,-0.80534 -0.01292,-1.27907v-7.24808h1.84755v7.1318c0,0.33592 0.00431,0.63308 0.01292,0.89148c0.00861,0.24979 0.06029,0.4522 0.15504,0.60724c0.18949,0.31008 0.48665,0.48234 0.89148,0.5168c0.40482,0.03445 0.86564,0.01292 1.38243,-0.0646zM145.94347,146.94445v-1.45995h5.80105v1.45995zM155.87893,154.05041c-0.60293,0 -1.11542,-0.11197 -1.53747,-0.33592c-0.41344,-0.23256 -0.72782,-0.53833 -0.94315,-0.91732c-0.20672,-0.3876 -0.31008,-0.80965 -0.31008,-1.26615c0,-0.39621 0.0646,-0.75366 0.1938,-1.07235c0.13781,-0.3273 0.34453,-0.60724 0.62016,-0.8398c0.27563,-0.23256 0.63738,-0.42636 1.08527,-0.5814c0.3273,-0.10336 0.7149,-0.19811 1.16279,-0.28424c0.4565,-0.08613 0.94746,-0.16796 1.47287,-0.24548c0.52541,-0.07752 1.07666,-0.15935 1.65375,-0.24548l-0.65892,0.37468c0,-0.56848 -0.1292,-0.99053 -0.3876,-1.26615c-0.2584,-0.27563 -0.70198,-0.41344 -1.33075,-0.41344c-0.37037,0 -0.73213,0.09044 -1.08527,0.27132c-0.34453,0.17227 -0.59001,0.46942 -0.73644,0.89148l-1.69251,-0.52972c0.20672,-0.70629 0.59862,-1.27046 1.17571,-1.69251c0.57709,-0.43066 1.35659,-0.646 2.33851,-0.646c0.74074,0 1.39105,0.12059 1.95091,0.36176c0.56848,0.24117 0.99053,0.63738 1.26615,1.18863c0.14643,0.29285 0.23256,0.59432 0.2584,0.9044c0.03445,0.30147 0.05168,0.63308 0.05168,0.99483v5.11629h-1.62791v-1.80879l0.27132,0.29716c-0.37898,0.60293 -0.81826,1.04651 -1.31783,1.33075c-0.49957,0.27563 -1.12403,0.41344 -1.87339,0.41344zM156.2536,152.56462c0.41344,0 0.77089,-0.07321 1.07235,-0.21964c0.30147,-0.14643 0.53833,-0.3273 0.7106,-0.54264c0.18088,-0.21533 0.30147,-0.42205 0.36176,-0.62016c0.09475,-0.23256 0.14643,-0.49957 0.15504,-0.80104c0.01723,-0.31008 0.02584,-0.55986 0.02584,-0.74936l0.5814,0.16796c-0.55986,0.08613 -1.04221,0.16365 -1.44703,0.23256c-0.40482,0.06891 -0.74936,0.13351 -1.03359,0.1938c-0.28424,0.05168 -0.53833,0.11628 -0.76228,0.1938c-0.21533,0.07752 -0.40052,0.16796 -0.55556,0.27132c-0.14643,0.10336 -0.2584,0.22395 -0.33592,0.36176c-0.07752,0.1292 -0.11628,0.27993 -0.11628,0.4522c0,0.20672 0.05168,0.3919 0.15504,0.55556c0.10336,0.15504 0.25409,0.27993 0.4522,0.37468c0.19811,0.08613 0.44358,0.1292 0.73644,0.1292zM163.06117,157.52587l1.61499,-4.4057l0.02584,1.29199l-3.6305,-8.92767h1.93799l2.57107,6.60208h-0.49096l2.50647,-6.60208h1.86047l-4.65118,12.04138zM178.56307,153.81785c-0.54264,0.10336 -1.08097,0.14643 -1.61499,0.1292c-0.52541,-0.00861 -0.99483,-0.10336 -1.40827,-0.28424c-0.41344,-0.18088 -0.73213,-0.46942 -0.95607,-0.86564c-0.18949,-0.36176 -0.28855,-0.72782 -0.29716,-1.09819c-0.00861,-0.37898 -0.01292,-0.80534 -0.01292,-1.27907v-7.24808h1.84755v7.1318c0,0.33592 0.00431,0.63308 0.01292,0.89148c0.00861,0.24979 0.06029,0.4522 0.15504,0.60724c0.18949,0.31008 0.48665,0.48234 0.89148,0.5168c0.40482,0.03445 0.86564,0.01292 1.38243,-0.0646zM172.76202,146.94445v-1.45995h5.80105v1.45995zM183.48559,154.06333c-0.61154,0 -1.11973,-0.10336 -1.52455,-0.31008c-0.39621,-0.20672 -0.7149,-0.46942 -0.95607,-0.78812c-0.23256,-0.31869 -0.40913,-0.65892 -0.52972,-1.02067c-0.11197,-0.36176 -0.18519,-0.70198 -0.21964,-1.02067c-0.02584,-0.31869 -0.03876,-0.5814 -0.03876,-0.78812v-4.65118h1.87339v4.0181c0,0.2584 0.01723,0.54694 0.05168,0.86564c0.04307,0.31869 0.1292,0.62877 0.2584,0.93024c0.1292,0.29285 0.323,0.53402 0.5814,0.72352c0.2584,0.18949 0.61154,0.28424 1.05943,0.28424c0.23256,0 0.46512,-0.03876 0.69768,-0.11628c0.23256,-0.07752 0.44358,-0.21103 0.63308,-0.40052c0.18949,-0.18949 0.34022,-0.44789 0.4522,-0.7752c0.11197,-0.3273 0.16796,-0.74074 0.16796,-1.24031l1.09819,0.46512c0,0.70629 -0.13781,1.34798 -0.41344,1.92507c-0.27563,0.57709 -0.68045,1.0379 -1.21447,1.38243c-0.53402,0.34453 -1.19294,0.5168 -1.97675,0.5168zM186.2117,153.81785v-2.58399h-0.21964v-5.74937h1.86047v8.33336zM195.78337,153.81785v-4.00518c0,-0.26701 -0.02153,-0.55986 -0.0646,-0.87856c-0.03445,-0.31869 -0.11628,-0.62446 -0.24548,-0.91732c-0.1292,-0.30147 -0.3273,-0.54694 -0.59432,-0.73644c-0.2584,-0.18949 -0.60724,-0.28424 -1.04651,-0.28424c-0.23256,0 -0.46512,0.03876 -0.69768,0.11628c-0.23256,0.07752 -0.44358,0.21103 -0.63308,0.40052c-0.18949,0.18949 -0.34022,0.44789 -0.4522,0.7752c-0.11197,0.3273 -0.16796,0.74505 -0.16796,1.25323l-1.09819,-0.47804c0,-0.70629 0.13781,-1.34798 0.41344,-1.92507c0.27563,-0.57709 0.68045,-1.03359 1.21447,-1.36951c0.53402,-0.34453 1.18863,-0.5168 1.96383,-0.5168c0.62016,0 1.12834,0.10336 1.52455,0.31008c0.40482,0.19811 0.72352,0.46081 0.95607,0.78812c0.24117,0.31869 0.41774,0.65892 0.52972,1.02067c0.11197,0.35314 0.18519,0.69337 0.21964,1.02067c0.03445,0.31869 0.05168,0.57709 0.05168,0.7752v4.65118zM189.99524,153.81785v-8.33336h1.66667v2.58399h0.21964v5.74937zM203.32465,154.05041c-0.8441,0 -1.58484,-0.18088 -2.22223,-0.54264c-0.63738,-0.37037 -1.13695,-0.87856 -1.49871,-1.52455c-0.35314,-0.646 -0.52972,-1.39105 -0.52972,-2.23515c0,-0.91301 0.17227,-1.70543 0.5168,-2.37727c0.35314,-0.67184 0.8398,-1.19294 1.45995,-1.56331c0.62016,-0.37037 1.33937,-0.55556 2.15763,-0.55556c0.86994,0 1.60638,0.20241 2.20931,0.60724c0.60293,0.40482 1.05082,0.97761 1.34367,1.71835c0.29285,0.73213 0.40482,1.59776 0.33592,2.59691h-1.84755v-0.68476c-0.00861,-0.9044 -0.16796,-1.56331 -0.47804,-1.97675c-0.31008,-0.42205 -0.80534,-0.63308 -1.48579,-0.63308c-0.75797,0 -1.32214,0.23687 -1.69251,0.7106c-0.37037,0.47373 -0.55556,1.16279 -0.55556,2.06719c0,0.8441 0.18519,1.49871 0.55556,1.96383c0.37037,0.4565 0.9087,0.68476 1.61499,0.68476c0.4565,0 0.84841,-0.09905 1.17571,-0.29716c0.33592,-0.20672 0.59432,-0.50388 0.7752,-0.89148l1.83463,0.55556c-0.31869,0.74936 -0.80965,1.33506 -1.47287,1.75711c-0.66322,0.41344 -1.39535,0.62016 -2.19639,0.62016zM200.45642,150.17443v-1.40827h5.72353v1.40827zM212.15913,154.05041c-0.76658,0 -1.43411,-0.1938 -2.00259,-0.5814c-0.56848,-0.3876 -1.01206,-0.91301 -1.33075,-1.57623c-0.31008,-0.66322 -0.46512,-1.40827 -0.46512,-2.23515c0,-0.8441 0.15504,-1.59776 0.46512,-2.26099c0.31869,-0.66322 0.76658,-1.18433 1.34367,-1.56331c0.5857,-0.3876 1.27046,-0.5814 2.05427,-0.5814c0.79242,0 1.45565,0.1938 1.98967,0.5814c0.54264,0.37898 0.95177,0.90009 1.22739,1.56331c0.28424,0.66322 0.42636,1.41689 0.42636,2.26099c0,0.82688 -0.14212,1.57192 -0.42636,2.23515c-0.27563,0.66322 -0.68906,1.18863 -1.24031,1.57623c-0.55125,0.3876 -1.2317,0.5814 -2.04135,0.5814zM212.44337,152.38374c0.49957,0 0.90009,-0.11197 1.20155,-0.33592c0.31008,-0.23256 0.53402,-0.55556 0.67184,-0.96899c0.14643,-0.41344 0.21964,-0.88717 0.21964,-1.42119c0,-0.55125 -0.07321,-1.02929 -0.21964,-1.43411c-0.13781,-0.41344 -0.35745,-0.73213 -0.65892,-0.95607c-0.29285,-0.23256 -0.67614,-0.34884 -1.14987,-0.34884c-0.49957,0 -0.91301,0.12489 -1.24031,0.37468c-0.31869,0.24117 -0.55556,0.56848 -0.7106,0.98191c-0.15504,0.41344 -0.23256,0.87425 -0.23256,1.38243c0,0.50818 0.07321,0.96899 0.21964,1.38243c0.15504,0.41344 0.3876,0.74074 0.69768,0.98191c0.31869,0.24117 0.71921,0.36176 1.20155,0.36176zM214.5364,153.81785v-5.85273h-0.23256v-5.25841h1.87339v11.11114zM222.15267,153.81785v-8.46256c0,-0.20672 0.00431,-0.43497 0.01292,-0.68476c0.01723,-0.2584 0.06029,-0.51249 0.1292,-0.76228c0.07752,-0.2584 0.21103,-0.49096 0.40052,-0.69768c0.24117,-0.2584 0.49526,-0.43928 0.76228,-0.54264c0.27563,-0.10336 0.54694,-0.15935 0.81396,-0.16796c0.27563,-0.01723 0.51249,-0.02584 0.7106,-0.02584h1.03359v1.51163h-0.95607c-0.35314,0 -0.61585,0.09044 -0.78812,0.27132c-0.17227,0.18088 -0.2584,0.41344 -0.2584,0.69768v8.86307zM220.809,146.94445v-1.45995h5.20673v1.45995zM230.62091,154.05041c-0.82688,0 -1.5547,-0.18519 -2.18347,-0.55556c-0.62016,-0.37898 -1.1025,-0.90009 -1.44703,-1.56331c-0.33592,-0.66322 -0.50388,-1.42119 -0.50388,-2.27391c0,-0.87856 0.17227,-1.64514 0.5168,-2.29975c0.35314,-0.66322 0.8398,-1.18002 1.45995,-1.55039c0.62016,-0.37037 1.33937,-0.55556 2.15763,-0.55556c0.8441,0 1.57623,0.18949 2.19639,0.56848c0.62016,0.37037 1.1025,0.88717 1.44703,1.55039c0.34453,0.66322 0.5168,1.4255 0.5168,2.28683c0,0.86133 -0.17227,1.6236 -0.5168,2.28683c-0.34453,0.65461 -0.83118,1.17141 -1.45995,1.55039c-0.62016,0.37037 -1.34798,0.55556 -2.18347,0.55556zM230.62091,152.30622c0.74074,0 1.29199,-0.24548 1.65375,-0.73644c0.36176,-0.49957 0.54264,-1.13695 0.54264,-1.91215c0,-0.80965 -0.18519,-1.45565 -0.55556,-1.93799c-0.36176,-0.48234 -0.9087,-0.72352 -1.64083,-0.72352c-0.49957,0 -0.9087,0.11197 -1.22739,0.33592c-0.31869,0.22395 -0.55556,0.53833 -0.7106,0.94315c-0.15504,0.39621 -0.23256,0.85702 -0.23256,1.38243c0,0.80104 0.18088,1.44273 0.54264,1.92507c0.37037,0.48234 0.91301,0.72352 1.62791,0.72352zM236.48517,153.81785v-8.33336h1.64083v2.02843l-0.20672,-0.2584c0.10336,-0.27563 0.24117,-0.52541 0.41344,-0.74936c0.17227,-0.23256 0.37898,-0.42636 0.62016,-0.5814c0.20672,-0.13781 0.43497,-0.24548 0.68476,-0.323c0.24979,-0.07752 0.50388,-0.12489 0.76228,-0.14212c0.26701,-0.02584 0.52541,-0.01723 0.7752,0.02584v1.74419c-0.24979,-0.07752 -0.53833,-0.10336 -0.86564,-0.07752c-0.31869,0.02584 -0.60724,0.11628 -0.86564,0.27132c-0.24979,0.13781 -0.4565,0.31438 -0.62016,0.52972c-0.16365,0.21533 -0.28424,0.46081 -0.36176,0.73644c-0.07752,0.27563 -0.11628,0.57278 -0.11628,0.89148v4.23774zM251.48786,153.81785v-4.00518c0,-0.26701 -0.02153,-0.55986 -0.0646,-0.87856c-0.03445,-0.31869 -0.11628,-0.62446 -0.24548,-0.91732c-0.1292,-0.30147 -0.3273,-0.54694 -0.59432,-0.73644c-0.2584,-0.18949 -0.60724,-0.28424 -1.04651,-0.28424c-0.23256,0 -0.46512,0.03876 -0.69768,0.11628c-0.23256,0.07752 -0.44358,0.21103 -0.63308,0.40052c-0.18949,0.18949 -0.34022,0.44789 -0.4522,0.7752c-0.11197,0.3273 -0.16796,0.74505 -0.16796,1.25323l-1.09819,-0.47804c0,-0.70629 0.13781,-1.34798 0.41344,-1.92507c0.27563,-0.57709 0.68045,-1.03359 1.21447,-1.36951c0.53402,-0.34453 1.18863,-0.5168 1.96383,-0.5168c0.62016,0 1.12834,0.10336 1.52455,0.31008c0.40482,0.19811 0.72352,0.46081 0.95607,0.78812c0.24117,0.31869 0.41774,0.65892 0.52972,1.02067c0.11197,0.35314 0.18519,0.69337 0.21964,1.02067c0.03445,0.31869 0.05168,0.57709 0.05168,0.7752v4.65118zM245.69973,153.81785v-8.33336h1.66667v2.58399h0.21964v5.74937zM259.02914,154.05041c-0.8441,0 -1.58484,-0.18088 -2.22223,-0.54264c-0.63738,-0.37037 -1.13695,-0.87856 -1.49871,-1.52455c-0.35314,-0.646 -0.52972,-1.39105 -0.52972,-2.23515c0,-0.91301 0.17227,-1.70543 0.5168,-2.37727c0.35314,-0.67184 0.8398,-1.19294 1.45995,-1.56331c0.62016,-0.37037 1.33937,-0.55556 2.15763,-0.55556c0.86994,0 1.60638,0.20241 2.20931,0.60724c0.60293,0.40482 1.05082,0.97761 1.34367,1.71835c0.29285,0.73213 0.40482,1.59776 0.33592,2.59691h-1.84755v-0.68476c-0.00861,-0.9044 -0.16796,-1.56331 -0.47804,-1.97675c-0.31008,-0.42205 -0.80534,-0.63308 -1.48579,-0.63308c-0.75797,0 -1.32214,0.23687 -1.69251,0.7106c-0.37037,0.47373 -0.55556,1.16279 -0.55556,2.06719c0,0.8441 0.18519,1.49871 0.55556,1.96383c0.37037,0.4565 0.9087,0.68476 1.61499,0.68476c0.4565,0 0.84841,-0.09905 1.17571,-0.29716c0.33592,-0.20672 0.59432,-0.50388 0.7752,-0.89148l1.83463,0.55556c-0.31869,0.74936 -0.80965,1.33506 -1.47287,1.75711c-0.66322,0.41344 -1.39535,0.62016 -2.19639,0.62016zM256.16091,150.17443v-1.40827h5.72353v1.40827zM265.99162,153.81785l-2.54523,-8.34628l1.82171,0.01292l1.62791,5.34885l1.64083,-5.34885h1.57623l1.64083,5.34885l1.62791,-5.34885h1.82171l-2.54523,8.33336h-1.44703l-1.88631,-5.73645l-1.88631,5.73645zM282.80025,154.06333c-0.61154,0 -1.11973,-0.10336 -1.52455,-0.31008c-0.39621,-0.20672 -0.7149,-0.46942 -0.95607,-0.78812c-0.23256,-0.31869 -0.40913,-0.65892 -0.52972,-1.02067c-0.11197,-0.36176 -0.18519,-0.70198 -0.21964,-1.02067c-0.02584,-0.31869 -0.03876,-0.5814 -0.03876,-0.78812v-4.65118h1.87339v4.0181c0,0.2584 0.01723,0.54694 0.05168,0.86564c0.04307,0.31869 0.1292,0.62877 0.2584,0.93024c0.1292,0.29285 0.323,0.53402 0.5814,0.72352c0.2584,0.18949 0.61154,0.28424 1.05943,0.28424c0.23256,0 0.46512,-0.03876 0.69768,-0.11628c0.23256,-0.07752 0.44358,-0.21103 0.63308,-0.40052c0.18949,-0.18949 0.34022,-0.44789 0.4522,-0.7752c0.11197,-0.3273 0.16796,-0.74074 0.16796,-1.24031l1.09819,0.46512c0,0.70629 -0.13781,1.34798 -0.41344,1.92507c-0.27563,0.57709 -0.68045,1.0379 -1.21447,1.38243c-0.53402,0.34453 -1.19294,0.5168 -1.97675,0.5168zM285.52635,153.81785v-2.58399h-0.21964v-5.74937h1.86047v8.33336zM293.32802,154.05041c-0.80965,0 -1.4901,-0.1938 -2.04135,-0.5814c-0.55125,-0.3876 -0.96469,-0.91301 -1.24031,-1.57623c-0.27563,-0.66322 -0.41344,-1.40827 -0.41344,-2.23515c0,-0.8441 0.13781,-1.59776 0.41344,-2.26099c0.27563,-0.66322 0.68045,-1.18433 1.21447,-1.56331c0.54264,-0.3876 1.21017,-0.5814 2.00259,-0.5814c0.78381,0 1.46426,0.1938 2.04135,0.5814c0.5857,0.37898 1.0379,0.90009 1.35659,1.56331c0.31869,0.66322 0.47804,1.41689 0.47804,2.26099c0,0.82688 -0.15935,1.57192 -0.47804,2.23515c-0.31008,0.66322 -0.75366,1.18863 -1.33075,1.57623c-0.56848,0.3876 -1.23601,0.5814 -2.00259,0.5814zM289.30992,157.52587v-12.04138h1.65375v5.85273h0.21964v6.18865zM293.04378,152.38374c0.48234,0 0.87856,-0.12059 1.18863,-0.36176c0.31869,-0.24117 0.55556,-0.56848 0.7106,-0.98191c0.15504,-0.41344 0.23256,-0.87425 0.23256,-1.38243c0,-0.50818 -0.07752,-0.96899 -0.23256,-1.38243c-0.15504,-0.41344 -0.39621,-0.74074 -0.72352,-0.98191c-0.3273,-0.24979 -0.73644,-0.37468 -1.22739,-0.37468c-0.47373,0 -0.86133,0.11628 -1.16279,0.34884c-0.30147,0.22395 -0.5211,0.54264 -0.65892,0.95607c-0.13781,0.40482 -0.20672,0.88286 -0.20672,1.43411c0,0.53402 0.06891,1.00775 0.20672,1.42119c0.13781,0.41344 0.35745,0.73644 0.65892,0.96899c0.31008,0.22395 0.7149,0.33592 1.21447,0.33592zM302.17177,154.05041c-0.76658,0 -1.43411,-0.1938 -2.00259,-0.5814c-0.56848,-0.3876 -1.01206,-0.91301 -1.33075,-1.57623c-0.31008,-0.66322 -0.46512,-1.40827 -0.46512,-2.23515c0,-0.8441 0.15504,-1.59776 0.46512,-2.26099c0.31869,-0.66322 0.76658,-1.18433 1.34367,-1.56331c0.5857,-0.3876 1.27046,-0.5814 2.05427,-0.5814c0.79242,0 1.45565,0.1938 1.98967,0.5814c0.54264,0.37898 0.95177,0.90009 1.22739,1.56331c0.28424,0.66322 0.42636,1.41689 0.42636,2.26099c0,0.82688 -0.14212,1.57192 -0.42636,2.23515c-0.27563,0.66322 -0.68906,1.18863 -1.24031,1.57623c-0.55125,0.3876 -1.2317,0.5814 -2.04135,0.5814zM302.456,152.38374c0.49957,0 0.90009,-0.11197 1.20155,-0.33592c0.31008,-0.23256 0.53402,-0.55556 0.67184,-0.96899c0.14643,-0.41344 0.21964,-0.88717 0.21964,-1.42119c0,-0.55125 -0.07321,-1.02929 -0.21964,-1.43411c-0.13781,-0.41344 -0.35745,-0.73213 -0.65892,-0.95607c-0.29285,-0.23256 -0.67614,-0.34884 -1.14987,-0.34884c-0.49957,0 -0.91301,0.12489 -1.24031,0.37468c-0.31869,0.24117 -0.55556,0.56848 -0.7106,0.98191c-0.15504,0.41344 -0.23256,0.87425 -0.23256,1.38243c0,0.50818 0.07321,0.96899 0.21964,1.38243c0.15504,0.41344 0.3876,0.74074 0.69768,0.98191c0.31869,0.24117 0.71921,0.36176 1.20155,0.36176zM304.54903,153.81785v-5.85273h-0.23256v-5.25841h1.87339v11.11114zM310.68209,154.05041c-0.60293,0 -1.11542,-0.11197 -1.53747,-0.33592c-0.41344,-0.23256 -0.72782,-0.53833 -0.94315,-0.91732c-0.20672,-0.3876 -0.31008,-0.80965 -0.31008,-1.26615c0,-0.39621 0.0646,-0.75366 0.1938,-1.07235c0.13781,-0.3273 0.34453,-0.60724 0.62016,-0.8398c0.27563,-0.23256 0.63738,-0.42636 1.08527,-0.5814c0.3273,-0.10336 0.7149,-0.19811 1.16279,-0.28424c0.4565,-0.08613 0.94746,-0.16796 1.47287,-0.24548c0.52541,-0.07752 1.07666,-0.15935 1.65375,-0.24548l-0.65892,0.37468c0,-0.56848 -0.1292,-0.99053 -0.3876,-1.26615c-0.2584,-0.27563 -0.70198,-0.41344 -1.33075,-0.41344c-0.37037,0 -0.73213,0.09044 -1.08527,0.27132c-0.34453,0.17227 -0.59001,0.46942 -0.73644,0.89148l-1.69251,-0.52972c0.20672,-0.70629 0.59862,-1.27046 1.17571,-1.69251c0.57709,-0.43066 1.35659,-0.646 2.33851,-0.646c0.74074,0 1.39105,0.12059 1.95091,0.36176c0.56848,0.24117 0.99053,0.63738 1.26615,1.18863c0.14643,0.29285 0.23256,0.59432 0.2584,0.9044c0.03445,0.30147 0.05168,0.63308 0.05168,0.99483v5.11629h-1.62791v-1.80879l0.27132,0.29716c-0.37898,0.60293 -0.81826,1.04651 -1.31783,1.33075c-0.49957,0.27563 -1.12403,0.41344 -1.87339,0.41344zM311.05677,152.56462c0.41344,0 0.77089,-0.07321 1.07235,-0.21964c0.30147,-0.14643 0.53833,-0.3273 0.7106,-0.54264c0.18088,-0.21533 0.30147,-0.42205 0.36176,-0.62016c0.09475,-0.23256 0.14643,-0.49957 0.15504,-0.80104c0.01723,-0.31008 0.02584,-0.55986 0.02584,-0.74936l0.5814,0.16796c-0.55986,0.08613 -1.04221,0.16365 -1.44703,0.23256c-0.40482,0.06891 -0.74936,0.13351 -1.03359,0.1938c-0.28424,0.05168 -0.53833,0.11628 -0.76228,0.1938c-0.21533,0.07752 -0.40052,0.16796 -0.55556,0.27132c-0.14643,0.10336 -0.2584,0.22395 -0.33592,0.36176c-0.07752,0.1292 -0.11628,0.27993 -0.11628,0.4522c0,0.20672 0.05168,0.3919 0.15504,0.55556c0.10336,0.15504 0.25409,0.27993 0.4522,0.37468c0.19811,0.08613 0.44358,0.1292 0.73644,0.1292zM322.11292,153.81785c-0.54264,0.10336 -1.08097,0.14643 -1.61499,0.1292c-0.52541,-0.00861 -0.99483,-0.10336 -1.40827,-0.28424c-0.41344,-0.18088 -0.73213,-0.46942 -0.95607,-0.86564c-0.18949,-0.36176 -0.28855,-0.72782 -0.29716,-1.09819c-0.00861,-0.37898 -0.01292,-0.80534 -0.01292,-1.27907v-7.24808h1.84755v7.1318c0,0.33592 0.00431,0.63308 0.01292,0.89148c0.00861,0.24979 0.06029,0.4522 0.15504,0.60724c0.18949,0.31008 0.48665,0.48234 0.89148,0.5168c0.40482,0.03445 0.86564,0.01292 1.38243,-0.0646zM316.31186,146.94445v-1.45995h5.80105v1.45995zM327.28281,154.05041c-0.8441,0 -1.58484,-0.18088 -2.22223,-0.54264c-0.63738,-0.37037 -1.13695,-0.87856 -1.49871,-1.52455c-0.35314,-0.646 -0.52972,-1.39105 -0.52972,-2.23515c0,-0.91301 0.17227,-1.70543 0.5168,-2.37727c0.35314,-0.67184 0.8398,-1.19294 1.45995,-1.56331c0.62016,-0.37037 1.33937,-0.55556 2.15763,-0.55556c0.86994,0 1.60638,0.20241 2.20931,0.60724c0.60293,0.40482 1.05082,0.97761 1.34367,1.71835c0.29285,0.73213 0.40482,1.59776 0.33592,2.59691h-1.84755v-0.68476c-0.00861,-0.9044 -0.16796,-1.56331 -0.47804,-1.97675c-0.31008,-0.42205 -0.80534,-0.63308 -1.48579,-0.63308c-0.75797,0 -1.32214,0.23687 -1.69251,0.7106c-0.37037,0.47373 -0.55556,1.16279 -0.55556,2.06719c0,0.8441 0.18519,1.49871 0.55556,1.96383c0.37037,0.4565 0.9087,0.68476 1.61499,0.68476c0.4565,0 0.84841,-0.09905 1.17571,-0.29716c0.33592,-0.20672 0.59432,-0.50388 0.7752,-0.89148l1.83463,0.55556c-0.31869,0.74936 -0.80965,1.33506 -1.47287,1.75711c-0.66322,0.41344 -1.39535,0.62016 -2.19639,0.62016zM324.41459,150.17443v-1.40827h5.72353v1.40827zM336.00104,154.05041c-1.03359,0 -1.87339,-0.23256 -2.51939,-0.69768c-0.63738,-0.46512 -1.02498,-1.11542 -1.16279,-1.95091l1.89923,-0.29716c0.09475,0.41344 0.31008,0.74074 0.646,0.98191c0.33592,0.23256 0.75797,0.34884 1.26615,0.34884c0.44789,0 0.79242,-0.08613 1.03359,-0.2584c0.24117,-0.18088 0.36176,-0.42636 0.36176,-0.73644c0,-0.18949 -0.04737,-0.34022 -0.14212,-0.4522c-0.08613,-0.12059 -0.27993,-0.23256 -0.5814,-0.33592c-0.30147,-0.11197 -0.76658,-0.24979 -1.39535,-0.41344c-0.69768,-0.18949 -1.25323,-0.3876 -1.66667,-0.59432c-0.41344,-0.21533 -0.7106,-0.46942 -0.89148,-0.76228c-0.17227,-0.29285 -0.2584,-0.646 -0.2584,-1.05943c0,-0.52541 0.13351,-0.97761 0.40052,-1.35659c0.27563,-0.3876 0.65461,-0.68476 1.13695,-0.89148c0.49096,-0.21533 1.06805,-0.323 1.73127,-0.323c0.65461,0 1.2317,0.10336 1.73127,0.31008c0.49957,0.19811 0.9044,0.48234 1.21447,0.85272c0.31008,0.37037 0.49957,0.80534 0.56848,1.30491l-1.89923,0.33592c-0.04307,-0.35314 -0.20241,-0.63308 -0.47804,-0.8398c-0.27563,-0.20672 -0.64169,-0.323 -1.09819,-0.34884c-0.43928,-0.02584 -0.79242,0.04307 -1.05943,0.20672c-0.26701,0.15504 -0.40052,0.37037 -0.40052,0.646c0,0.16365 0.05168,0.30147 0.15504,0.41344c0.11197,0.11197 0.33161,0.22395 0.65892,0.33592c0.3273,0.11197 0.81396,0.25409 1.45995,0.42636c0.66322,0.16365 1.19294,0.35745 1.58915,0.5814c0.40482,0.21533 0.69337,0.47373 0.86564,0.7752c0.18088,0.30147 0.27132,0.67184 0.27132,1.11111c0,0.83549 -0.30577,1.49441 -0.91732,1.97675c-0.61154,0.47373 -1.45134,0.7106 -2.51939,0.7106zM341.89965,153.81785v-1.70543h1.86047v1.70543zM341.89965,151.04006v-8.33336h1.86047v8.33336z" stroke="#004347" stroke-width="2.5"/><path d="M140.83938,154.05041c-0.81826,0 -1.5547,-0.14212 -2.20931,-0.42636c-0.646,-0.28424 -1.18002,-0.68906 -1.60207,-1.21447c-0.41344,-0.52541 -0.67614,-1.14987 -0.78812,-1.87339l1.92507,-0.29716c0.16365,0.65461 0.49957,1.16279 1.00775,1.52455c0.5168,0.36176 1.11111,0.54264 1.78295,0.54264c0.39621,0 0.76658,-0.06029 1.11111,-0.18088c0.35314,-0.1292 0.63738,-0.31008 0.85272,-0.54264c0.22395,-0.24117 0.33592,-0.53402 0.33592,-0.87856c0,-0.15504 -0.02584,-0.29716 -0.07752,-0.42636c-0.05168,-0.1292 -0.1292,-0.24548 -0.23256,-0.34884c-0.10336,-0.10336 -0.23256,-0.19811 -0.3876,-0.28424c-0.15504,-0.08613 -0.33592,-0.15935 -0.54264,-0.21964l-2.86822,-0.8398c-0.24979,-0.07752 -0.5168,-0.17657 -0.80104,-0.29716c-0.28424,-0.12059 -0.55556,-0.28424 -0.81396,-0.49096c-0.24979,-0.21533 -0.4565,-0.48665 -0.62016,-0.81396c-0.16365,-0.33592 -0.24548,-0.74936 -0.24548,-1.24031c0,-0.7149 0.18088,-1.31353 0.54264,-1.79587c0.37037,-0.49096 0.86133,-0.85702 1.47287,-1.09819c0.61154,-0.24117 1.29199,-0.35745 2.04135,-0.34884c0.76658,0 1.44703,0.1292 2.04135,0.3876c0.59432,0.24979 1.08958,0.62016 1.48579,1.11111c0.40482,0.48234 0.69337,1.06374 0.86564,1.74419l-2.00259,0.34884c-0.08613,-0.39621 -0.24548,-0.72782 -0.47804,-0.99483c-0.23256,-0.27563 -0.5168,-0.48665 -0.85272,-0.63308c-0.33592,-0.14643 -0.69337,-0.22395 -1.07235,-0.23256c-0.37037,-0.00861 -0.7149,0.04737 -1.03359,0.16796c-0.31869,0.11197 -0.57709,0.27563 -0.7752,0.49096c-0.18949,0.21533 -0.28424,0.46942 -0.28424,0.76228c0,0.26701 0.08183,0.48665 0.24548,0.65892c0.17227,0.17227 0.37898,0.31008 0.62016,0.41344c0.24117,0.10336 0.49096,0.18519 0.74936,0.24548l1.98967,0.55556c0.26701,0.07752 0.56848,0.17657 0.9044,0.29716c0.34453,0.12059 0.67184,0.29285 0.98191,0.5168c0.31869,0.22395 0.57709,0.5168 0.7752,0.87856c0.20672,0.35314 0.31008,0.80965 0.31008,1.36951c0,0.57709 -0.12059,1.08527 -0.36176,1.52455c-0.23256,0.43066 -0.55556,0.78812 -0.96899,1.07235c-0.40482,0.28424 -0.86994,0.49957 -1.39535,0.646c-0.5168,0.14643 -1.05943,0.21964 -1.62791,0.21964zM151.74451,153.81785c-0.54264,0.10336 -1.08097,0.14643 -1.61499,0.1292c-0.52541,-0.00861 -0.99483,-0.10336 -1.40827,-0.28424c-0.41344,-0.18088 -0.73213,-0.46942 -0.95607,-0.86564c-0.18949,-0.36176 -0.28855,-0.72782 -0.29716,-1.09819c-0.00861,-0.37898 -0.01292,-0.80534 -0.01292,-1.27907v-7.24808h1.84755v7.1318c0,0.33592 0.00431,0.63308 0.01292,0.89148c0.00861,0.24979 0.06029,0.4522 0.15504,0.60724c0.18949,0.31008 0.48665,0.48234 0.89148,0.5168c0.40482,0.03445 0.86564,0.01292 1.38243,-0.0646zM145.94346,146.94445v-1.45995h5.80105v1.45995zM155.87892,154.05041c-0.60293,0 -1.11542,-0.11197 -1.53747,-0.33592c-0.41344,-0.23256 -0.72782,-0.53833 -0.94315,-0.91732c-0.20672,-0.3876 -0.31008,-0.80965 -0.31008,-1.26615c0,-0.39621 0.0646,-0.75366 0.1938,-1.07235c0.13781,-0.3273 0.34453,-0.60724 0.62016,-0.8398c0.27563,-0.23256 0.63738,-0.42636 1.08527,-0.5814c0.3273,-0.10336 0.7149,-0.19811 1.16279,-0.28424c0.4565,-0.08613 0.94746,-0.16796 1.47287,-0.24548c0.52541,-0.07752 1.07666,-0.15935 1.65375,-0.24548l-0.65892,0.37468c0,-0.56848 -0.1292,-0.99053 -0.3876,-1.26615c-0.2584,-0.27563 -0.70198,-0.41344 -1.33075,-0.41344c-0.37037,0 -0.73213,0.09044 -1.08527,0.27132c-0.34453,0.17227 -0.59001,0.46942 -0.73644,0.89148l-1.69251,-0.52972c0.20672,-0.70629 0.59862,-1.27046 1.17571,-1.69251c0.57709,-0.43066 1.35659,-0.646 2.33851,-0.646c0.74074,0 1.39105,0.12059 1.95091,0.36176c0.56848,0.24117 0.99053,0.63738 1.26615,1.18863c0.14643,0.29285 0.23256,0.59432 0.2584,0.9044c0.03445,0.30147 0.05168,0.63308 0.05168,0.99483v5.11629h-1.62791v-1.80879l0.27132,0.29716c-0.37898,0.60293 -0.81826,1.04651 -1.31783,1.33075c-0.49957,0.27563 -1.12403,0.41344 -1.87339,0.41344zM156.25359,152.56462c0.41344,0 0.77089,-0.07321 1.07235,-0.21964c0.30147,-0.14643 0.53833,-0.3273 0.7106,-0.54264c0.18088,-0.21533 0.30147,-0.42205 0.36176,-0.62016c0.09475,-0.23256 0.14643,-0.49957 0.15504,-0.80104c0.01723,-0.31008 0.02584,-0.55986 0.02584,-0.74936l0.5814,0.16796c-0.55986,0.08613 -1.04221,0.16365 -1.44703,0.23256c-0.40482,0.06891 -0.74936,0.13351 -1.03359,0.1938c-0.28424,0.05168 -0.53833,0.11628 -0.76228,0.1938c-0.21533,0.07752 -0.40052,0.16796 -0.55556,0.27132c-0.14643,0.10336 -0.2584,0.22395 -0.33592,0.36176c-0.07752,0.1292 -0.11628,0.27993 -0.11628,0.4522c0,0.20672 0.05168,0.3919 0.15504,0.55556c0.10336,0.15504 0.25409,0.27993 0.4522,0.37468c0.19811,0.08613 0.44358,0.1292 0.73644,0.1292zM163.06116,157.52587l1.61499,-4.4057l0.02584,1.29199l-3.6305,-8.92767h1.93799l2.57107,6.60208h-0.49096l2.50647,-6.60208h1.86047l-4.65118,12.04138zM178.56306,153.81785c-0.54264,0.10336 -1.08097,0.14643 -1.61499,0.1292c-0.52541,-0.00861 -0.99483,-0.10336 -1.40827,-0.28424c-0.41344,-0.18088 -0.73213,-0.46942 -0.95607,-0.86564c-0.18949,-0.36176 -0.28855,-0.72782 -0.29716,-1.09819c-0.00861,-0.37898 -0.01292,-0.80534 -0.01292,-1.27907v-7.24808h1.84755v7.1318c0,0.33592 0.00431,0.63308 0.01292,0.89148c0.00861,0.24979 0.06029,0.4522 0.15504,0.60724c0.18949,0.31008 0.48665,0.48234 0.89148,0.5168c0.40482,0.03445 0.86564,0.01292 1.38243,-0.0646zM172.76201,146.94445v-1.45995h5.80105v1.45995zM183.48558,154.06333c-0.61154,0 -1.11973,-0.10336 -1.52455,-0.31008c-0.39621,-0.20672 -0.7149,-0.46942 -0.95607,-0.78812c-0.23256,-0.31869 -0.40913,-0.65892 -0.52972,-1.02067c-0.11197,-0.36176 -0.18519,-0.70198 -0.21964,-1.02067c-0.02584,-0.31869 -0.03876,-0.5814 -0.03876,-0.78812v-4.65118h1.87339v4.0181c0,0.2584 0.01723,0.54694 0.05168,0.86564c0.04307,0.31869 0.1292,0.62877 0.2584,0.93024c0.1292,0.29285 0.323,0.53402 0.5814,0.72352c0.2584,0.18949 0.61154,0.28424 1.05943,0.28424c0.23256,0 0.46512,-0.03876 0.69768,-0.11628c0.23256,-0.07752 0.44358,-0.21103 0.63308,-0.40052c0.18949,-0.18949 0.34022,-0.44789 0.4522,-0.7752c0.11197,-0.3273 0.16796,-0.74074 0.16796,-1.24031l1.09819,0.46512c0,0.70629 -0.13781,1.34798 -0.41344,1.92507c-0.27563,0.57709 -0.68045,1.0379 -1.21447,1.38243c-0.53402,0.34453 -1.19294,0.5168 -1.97675,0.5168zM186.21169,153.81785v-2.58399h-0.21964v-5.74937h1.86047v8.33336zM195.78337,153.81785v-4.00518c0,-0.26701 -0.02153,-0.55986 -0.0646,-0.87856c-0.03445,-0.31869 -0.11628,-0.62446 -0.24548,-0.91732c-0.1292,-0.30147 -0.3273,-0.54694 -0.59432,-0.73644c-0.2584,-0.18949 -0.60724,-0.28424 -1.04651,-0.28424c-0.23256,0 -0.46512,0.03876 -0.69768,0.11628c-0.23256,0.07752 -0.44358,0.21103 -0.63308,0.40052c-0.18949,0.18949 -0.34022,0.44789 -0.4522,0.7752c-0.11197,0.3273 -0.16796,0.74505 -0.16796,1.25323l-1.09819,-0.47804c0,-0.70629 0.13781,-1.34798 0.41344,-1.92507c0.27563,-0.57709 0.68045,-1.03359 1.21447,-1.36951c0.53402,-0.34453 1.18863,-0.5168 1.96383,-0.5168c0.62016,0 1.12834,0.10336 1.52455,0.31008c0.40482,0.19811 0.72352,0.46081 0.95607,0.78812c0.24117,0.31869 0.41774,0.65892 0.52972,1.02067c0.11197,0.35314 0.18519,0.69337 0.21964,1.02067c0.03445,0.31869 0.05168,0.57709 0.05168,0.7752v4.65118zM189.99524,153.81785v-8.33336h1.66667v2.58399h0.21964v5.74937zM203.32465,154.05041c-0.8441,0 -1.58484,-0.18088 -2.22223,-0.54264c-0.63738,-0.37037 -1.13695,-0.87856 -1.49871,-1.52455c-0.35314,-0.646 -0.52972,-1.39105 -0.52972,-2.23515c0,-0.91301 0.17227,-1.70543 0.5168,-2.37727c0.35314,-0.67184 0.8398,-1.19294 1.45995,-1.56331c0.62016,-0.37037 1.33937,-0.55556 2.15763,-0.55556c0.86994,0 1.60638,0.20241 2.20931,0.60724c0.60293,0.40482 1.05082,0.97761 1.34367,1.71835c0.29285,0.73213 0.40482,1.59776 0.33592,2.59691h-1.84755v-0.68476c-0.00861,-0.9044 -0.16796,-1.56331 -0.47804,-1.97675c-0.31008,-0.42205 -0.80534,-0.63308 -1.48579,-0.63308c-0.75797,0 -1.32214,0.23687 -1.69251,0.7106c-0.37037,0.47373 -0.55556,1.16279 -0.55556,2.06719c0,0.8441 0.18519,1.49871 0.55556,1.96383c0.37037,0.4565 0.9087,0.68476 1.61499,0.68476c0.4565,0 0.84841,-0.09905 1.17571,-0.29716c0.33592,-0.20672 0.59432,-0.50388 0.7752,-0.89148l1.83463,0.55556c-0.31869,0.74936 -0.80965,1.33506 -1.47287,1.75711c-0.66322,0.41344 -1.39535,0.62016 -2.19639,0.62016zM200.45641,150.17443v-1.40827h5.72353v1.40827zM212.15912,154.05041c-0.76658,0 -1.43411,-0.1938 -2.00259,-0.5814c-0.56848,-0.3876 -1.01206,-0.91301 -1.33075,-1.57623c-0.31008,-0.66322 -0.46512,-1.40827 -0.46512,-2.23515c0,-0.8441 0.15504,-1.59776 0.46512,-2.26099c0.31869,-0.66322 0.76658,-1.18433 1.34367,-1.56331c0.5857,-0.3876 1.27046,-0.5814 2.05427,-0.5814c0.79242,0 1.45565,0.1938 1.98967,0.5814c0.54264,0.37898 0.95177,0.90009 1.22739,1.56331c0.28424,0.66322 0.42636,1.41689 0.42636,2.26099c0,0.82688 -0.14212,1.57192 -0.42636,2.23515c-0.27563,0.66322 -0.68906,1.18863 -1.24031,1.57623c-0.55125,0.3876 -1.2317,0.5814 -2.04135,0.5814zM212.44337,152.38374c0.49957,0 0.90009,-0.11197 1.20155,-0.33592c0.31008,-0.23256 0.53402,-0.55556 0.67184,-0.96899c0.14643,-0.41344 0.21964,-0.88717 0.21964,-1.42119c0,-0.55125 -0.07321,-1.02929 -0.21964,-1.43411c-0.13781,-0.41344 -0.35745,-0.73213 -0.65892,-0.95607c-0.29285,-0.23256 -0.67614,-0.34884 -1.14987,-0.34884c-0.49957,0 -0.91301,0.12489 -1.24031,0.37468c-0.31869,0.24117 -0.55556,0.56848 -0.7106,0.98191c-0.15504,0.41344 -0.23256,0.87425 -0.23256,1.38243c0,0.50818 0.07321,0.96899 0.21964,1.38243c0.15504,0.41344 0.3876,0.74074 0.69768,0.98191c0.31869,0.24117 0.71921,0.36176 1.20155,0.36176zM214.5364,153.81785v-5.85273h-0.23256v-5.25841h1.87339v11.11114zM222.15266,153.81785v-8.46256c0,-0.20672 0.00431,-0.43497 0.01292,-0.68476c0.01723,-0.2584 0.06029,-0.51249 0.1292,-0.76228c0.07752,-0.2584 0.21103,-0.49096 0.40052,-0.69768c0.24117,-0.2584 0.49526,-0.43928 0.76228,-0.54264c0.27563,-0.10336 0.54694,-0.15935 0.81396,-0.16796c0.27563,-0.01723 0.51249,-0.02584 0.7106,-0.02584h1.03359v1.51163h-0.95607c-0.35314,0 -0.61585,0.09044 -0.78812,0.27132c-0.17227,0.18088 -0.2584,0.41344 -0.2584,0.69768v8.86307zM220.80899,146.94445v-1.45995h5.20673v1.45995zM230.62091,154.05041c-0.82688,0 -1.5547,-0.18519 -2.18347,-0.55556c-0.62016,-0.37898 -1.1025,-0.90009 -1.44703,-1.56331c-0.33592,-0.66322 -0.50388,-1.42119 -0.50388,-2.27391c0,-0.87856 0.17227,-1.64514 0.5168,-2.29975c0.35314,-0.66322 0.8398,-1.18002 1.45995,-1.55039c0.62016,-0.37037 1.33937,-0.55556 2.15763,-0.55556c0.8441,0 1.57623,0.18949 2.19639,0.56848c0.62016,0.37037 1.1025,0.88717 1.44703,1.55039c0.34453,0.66322 0.5168,1.4255 0.5168,2.28683c0,0.86133 -0.17227,1.6236 -0.5168,2.28683c-0.34453,0.65461 -0.83118,1.17141 -1.45995,1.55039c-0.62016,0.37037 -1.34798,0.55556 -2.18347,0.55556zM230.62091,152.30622c0.74074,0 1.29199,-0.24548 1.65375,-0.73644c0.36176,-0.49957 0.54264,-1.13695 0.54264,-1.91215c0,-0.80965 -0.18519,-1.45565 -0.55556,-1.93799c-0.36176,-0.48234 -0.9087,-0.72352 -1.64083,-0.72352c-0.49957,0 -0.9087,0.11197 -1.22739,0.33592c-0.31869,0.22395 -0.55556,0.53833 -0.7106,0.94315c-0.15504,0.39621 -0.23256,0.85702 -0.23256,1.38243c0,0.80104 0.18088,1.44273 0.54264,1.92507c0.37037,0.48234 0.91301,0.72352 1.62791,0.72352zM236.48517,153.81785v-8.33336h1.64083v2.02843l-0.20672,-0.2584c0.10336,-0.27563 0.24117,-0.52541 0.41344,-0.74936c0.17227,-0.23256 0.37898,-0.42636 0.62016,-0.5814c0.20672,-0.13781 0.43497,-0.24548 0.68476,-0.323c0.24979,-0.07752 0.50388,-0.12489 0.76228,-0.14212c0.26701,-0.02584 0.52541,-0.01723 0.7752,0.02584v1.74419c-0.24979,-0.07752 -0.53833,-0.10336 -0.86564,-0.07752c-0.31869,0.02584 -0.60724,0.11628 -0.86564,0.27132c-0.24979,0.13781 -0.4565,0.31438 -0.62016,0.52972c-0.16365,0.21533 -0.28424,0.46081 -0.36176,0.73644c-0.07752,0.27563 -0.11628,0.57278 -0.11628,0.89148v4.23774zM251.48786,153.81785v-4.00518c0,-0.26701 -0.02153,-0.55986 -0.0646,-0.87856c-0.03445,-0.31869 -0.11628,-0.62446 -0.24548,-0.91732c-0.1292,-0.30147 -0.3273,-0.54694 -0.59432,-0.73644c-0.2584,-0.18949 -0.60724,-0.28424 -1.04651,-0.28424c-0.23256,0 -0.46512,0.03876 -0.69768,0.11628c-0.23256,0.07752 -0.44358,0.21103 -0.63308,0.40052c-0.18949,0.18949 -0.34022,0.44789 -0.4522,0.7752c-0.11197,0.3273 -0.16796,0.74505 -0.16796,1.25323l-1.09819,-0.47804c0,-0.70629 0.13781,-1.34798 0.41344,-1.92507c0.27563,-0.57709 0.68045,-1.03359 1.21447,-1.36951c0.53402,-0.34453 1.18863,-0.5168 1.96383,-0.5168c0.62016,0 1.12834,0.10336 1.52455,0.31008c0.40482,0.19811 0.72352,0.46081 0.95607,0.78812c0.24117,0.31869 0.41774,0.65892 0.52972,1.02067c0.11197,0.35314 0.18519,0.69337 0.21964,1.02067c0.03445,0.31869 0.05168,0.57709 0.05168,0.7752v4.65118zM245.69973,153.81785v-8.33336h1.66667v2.58399h0.21964v5.74937zM259.02914,154.05041c-0.8441,0 -1.58484,-0.18088 -2.22223,-0.54264c-0.63738,-0.37037 -1.13695,-0.87856 -1.49871,-1.52455c-0.35314,-0.646 -0.52972,-1.39105 -0.52972,-2.23515c0,-0.91301 0.17227,-1.70543 0.5168,-2.37727c0.35314,-0.67184 0.8398,-1.19294 1.45995,-1.56331c0.62016,-0.37037 1.33937,-0.55556 2.15763,-0.55556c0.86994,0 1.60638,0.20241 2.20931,0.60724c0.60293,0.40482 1.05082,0.97761 1.34367,1.71835c0.29285,0.73213 0.40482,1.59776 0.33592,2.59691h-1.84755v-0.68476c-0.00861,-0.9044 -0.16796,-1.56331 -0.47804,-1.97675c-0.31008,-0.42205 -0.80534,-0.63308 -1.48579,-0.63308c-0.75797,0 -1.32214,0.23687 -1.69251,0.7106c-0.37037,0.47373 -0.55556,1.16279 -0.55556,2.06719c0,0.8441 0.18519,1.49871 0.55556,1.96383c0.37037,0.4565 0.9087,0.68476 1.61499,0.68476c0.4565,0 0.84841,-0.09905 1.17571,-0.29716c0.33592,-0.20672 0.59432,-0.50388 0.7752,-0.89148l1.83463,0.55556c-0.31869,0.74936 -0.80965,1.33506 -1.47287,1.75711c-0.66322,0.41344 -1.39535,0.62016 -2.19639,0.62016zM256.1609,150.17443v-1.40827h5.72353v1.40827zM265.99162,153.81785l-2.54523,-8.34628l1.82171,0.01292l1.62791,5.34885l1.64083,-5.34885h1.57623l1.64083,5.34885l1.62791,-5.34885h1.82171l-2.54523,8.33336h-1.44703l-1.88631,-5.73645l-1.88631,5.73645zM282.80025,154.06333c-0.61154,0 -1.11973,-0.10336 -1.52455,-0.31008c-0.39621,-0.20672 -0.7149,-0.46942 -0.95607,-0.78812c-0.23256,-0.31869 -0.40913,-0.65892 -0.52972,-1.02067c-0.11197,-0.36176 -0.18519,-0.70198 -0.21964,-1.02067c-0.02584,-0.31869 -0.03876,-0.5814 -0.03876,-0.78812v-4.65118h1.87339v4.0181c0,0.2584 0.01723,0.54694 0.05168,0.86564c0.04307,0.31869 0.1292,0.62877 0.2584,0.93024c0.1292,0.29285 0.323,0.53402 0.5814,0.72352c0.2584,0.18949 0.61154,0.28424 1.05943,0.28424c0.23256,0 0.46512,-0.03876 0.69768,-0.11628c0.23256,-0.07752 0.44358,-0.21103 0.63308,-0.40052c0.18949,-0.18949 0.34022,-0.44789 0.4522,-0.7752c0.11197,-0.3273 0.16796,-0.74074 0.16796,-1.24031l1.09819,0.46512c0,0.70629 -0.13781,1.34798 -0.41344,1.92507c-0.27563,0.57709 -0.68045,1.0379 -1.21447,1.38243c-0.53402,0.34453 -1.19294,0.5168 -1.97675,0.5168zM285.52635,153.81785v-2.58399h-0.21964v-5.74937h1.86047v8.33336zM293.32802,154.05041c-0.80965,0 -1.4901,-0.1938 -2.04135,-0.5814c-0.55125,-0.3876 -0.96469,-0.91301 -1.24031,-1.57623c-0.27563,-0.66322 -0.41344,-1.40827 -0.41344,-2.23515c0,-0.8441 0.13781,-1.59776 0.41344,-2.26099c0.27563,-0.66322 0.68045,-1.18433 1.21447,-1.56331c0.54264,-0.3876 1.21017,-0.5814 2.00259,-0.5814c0.78381,0 1.46426,0.1938 2.04135,0.5814c0.5857,0.37898 1.0379,0.90009 1.35659,1.56331c0.31869,0.66322 0.47804,1.41689 0.47804,2.26099c0,0.82688 -0.15935,1.57192 -0.47804,2.23515c-0.31008,0.66322 -0.75366,1.18863 -1.33075,1.57623c-0.56848,0.3876 -1.23601,0.5814 -2.00259,0.5814zM289.30992,157.52587v-12.04138h1.65375v5.85273h0.21964v6.18865zM293.04377,152.38374c0.48234,0 0.87856,-0.12059 1.18863,-0.36176c0.31869,-0.24117 0.55556,-0.56848 0.7106,-0.98191c0.15504,-0.41344 0.23256,-0.87425 0.23256,-1.38243c0,-0.50818 -0.07752,-0.96899 -0.23256,-1.38243c-0.15504,-0.41344 -0.39621,-0.74074 -0.72352,-0.98191c-0.3273,-0.24979 -0.73644,-0.37468 -1.22739,-0.37468c-0.47373,0 -0.86133,0.11628 -1.16279,0.34884c-0.30147,0.22395 -0.5211,0.54264 -0.65892,0.95607c-0.13781,0.40482 -0.20672,0.88286 -0.20672,1.43411c0,0.53402 0.06891,1.00775 0.20672,1.42119c0.13781,0.41344 0.35745,0.73644 0.65892,0.96899c0.31008,0.22395 0.7149,0.33592 1.21447,0.33592zM302.17177,154.05041c-0.76658,0 -1.43411,-0.1938 -2.00259,-0.5814c-0.56848,-0.3876 -1.01206,-0.91301 -1.33075,-1.57623c-0.31008,-0.66322 -0.46512,-1.40827 -0.46512,-2.23515c0,-0.8441 0.15504,-1.59776 0.46512,-2.26099c0.31869,-0.66322 0.76658,-1.18433 1.34367,-1.56331c0.5857,-0.3876 1.27046,-0.5814 2.05427,-0.5814c0.79242,0 1.45565,0.1938 1.98967,0.5814c0.54264,0.37898 0.95177,0.90009 1.22739,1.56331c0.28424,0.66322 0.42636,1.41689 0.42636,2.26099c0,0.82688 -0.14212,1.57192 -0.42636,2.23515c-0.27563,0.66322 -0.68906,1.18863 -1.24031,1.57623c-0.55125,0.3876 -1.2317,0.5814 -2.04135,0.5814zM302.456,152.38374c0.49957,0 0.90009,-0.11197 1.20155,-0.33592c0.31008,-0.23256 0.53402,-0.55556 0.67184,-0.96899c0.14643,-0.41344 0.21964,-0.88717 0.21964,-1.42119c0,-0.55125 -0.07321,-1.02929 -0.21964,-1.43411c-0.13781,-0.41344 -0.35745,-0.73213 -0.65892,-0.95607c-0.29285,-0.23256 -0.67614,-0.34884 -1.14987,-0.34884c-0.49957,0 -0.91301,0.12489 -1.24031,0.37468c-0.31869,0.24117 -0.55556,0.56848 -0.7106,0.98191c-0.15504,0.41344 -0.23256,0.87425 -0.23256,1.38243c0,0.50818 0.07321,0.96899 0.21964,1.38243c0.15504,0.41344 0.3876,0.74074 0.69768,0.98191c0.31869,0.24117 0.71921,0.36176 1.20155,0.36176zM304.54903,153.81785v-5.85273h-0.23256v-5.25841h1.87339v11.11114zM310.68209,154.05041c-0.60293,0 -1.11542,-0.11197 -1.53747,-0.33592c-0.41344,-0.23256 -0.72782,-0.53833 -0.94315,-0.91732c-0.20672,-0.3876 -0.31008,-0.80965 -0.31008,-1.26615c0,-0.39621 0.0646,-0.75366 0.1938,-1.07235c0.13781,-0.3273 0.34453,-0.60724 0.62016,-0.8398c0.27563,-0.23256 0.63738,-0.42636 1.08527,-0.5814c0.3273,-0.10336 0.7149,-0.19811 1.16279,-0.28424c0.4565,-0.08613 0.94746,-0.16796 1.47287,-0.24548c0.52541,-0.07752 1.07666,-0.15935 1.65375,-0.24548l-0.65892,0.37468c0,-0.56848 -0.1292,-0.99053 -0.3876,-1.26615c-0.2584,-0.27563 -0.70198,-0.41344 -1.33075,-0.41344c-0.37037,0 -0.73213,0.09044 -1.08527,0.27132c-0.34453,0.17227 -0.59001,0.46942 -0.73644,0.89148l-1.69251,-0.52972c0.20672,-0.70629 0.59862,-1.27046 1.17571,-1.69251c0.57709,-0.43066 1.35659,-0.646 2.33851,-0.646c0.74074,0 1.39105,0.12059 1.95091,0.36176c0.56848,0.24117 0.99053,0.63738 1.26615,1.18863c0.14643,0.29285 0.23256,0.59432 0.2584,0.9044c0.03445,0.30147 0.05168,0.63308 0.05168,0.99483v5.11629h-1.62791v-1.80879l0.27132,0.29716c-0.37898,0.60293 -0.81826,1.04651 -1.31783,1.33075c-0.49957,0.27563 -1.12403,0.41344 -1.87339,0.41344zM311.05677,152.56462c0.41344,0 0.77089,-0.07321 1.07235,-0.21964c0.30147,-0.14643 0.53833,-0.3273 0.7106,-0.54264c0.18088,-0.21533 0.30147,-0.42205 0.36176,-0.62016c0.09475,-0.23256 0.14643,-0.49957 0.15504,-0.80104c0.01723,-0.31008 0.02584,-0.55986 0.02584,-0.74936l0.5814,0.16796c-0.55986,0.08613 -1.04221,0.16365 -1.44703,0.23256c-0.40482,0.06891 -0.74936,0.13351 -1.03359,0.1938c-0.28424,0.05168 -0.53833,0.11628 -0.76228,0.1938c-0.21533,0.07752 -0.40052,0.16796 -0.55556,0.27132c-0.14643,0.10336 -0.2584,0.22395 -0.33592,0.36176c-0.07752,0.1292 -0.11628,0.27993 -0.11628,0.4522c0,0.20672 0.05168,0.3919 0.15504,0.55556c0.10336,0.15504 0.25409,0.27993 0.4522,0.37468c0.19811,0.08613 0.44358,0.1292 0.73644,0.1292zM322.11292,153.81785c-0.54264,0.10336 -1.08097,0.14643 -1.61499,0.1292c-0.52541,-0.00861 -0.99483,-0.10336 -1.40827,-0.28424c-0.41344,-0.18088 -0.73213,-0.46942 -0.95607,-0.86564c-0.18949,-0.36176 -0.28855,-0.72782 -0.29716,-1.09819c-0.00861,-0.37898 -0.01292,-0.80534 -0.01292,-1.27907v-7.24808h1.84755v7.1318c0,0.33592 0.00431,0.63308 0.01292,0.89148c0.00861,0.24979 0.06029,0.4522 0.15504,0.60724c0.18949,0.31008 0.48665,0.48234 0.89148,0.5168c0.40482,0.03445 0.86564,0.01292 1.38243,-0.0646zM316.31186,146.94445v-1.45995h5.80105v1.45995zM327.2828,154.05041c-0.8441,0 -1.58484,-0.18088 -2.22223,-0.54264c-0.63738,-0.37037 -1.13695,-0.87856 -1.49871,-1.52455c-0.35314,-0.646 -0.52972,-1.39105 -0.52972,-2.23515c0,-0.91301 0.17227,-1.70543 0.5168,-2.37727c0.35314,-0.67184 0.8398,-1.19294 1.45995,-1.56331c0.62016,-0.37037 1.33937,-0.55556 2.15763,-0.55556c0.86994,0 1.60638,0.20241 2.20931,0.60724c0.60293,0.40482 1.05082,0.97761 1.34367,1.71835c0.29285,0.73213 0.40482,1.59776 0.33592,2.59691h-1.84755v-0.68476c-0.00861,-0.9044 -0.16796,-1.56331 -0.47804,-1.97675c-0.31008,-0.42205 -0.80534,-0.63308 -1.48579,-0.63308c-0.75797,0 -1.32214,0.23687 -1.69251,0.7106c-0.37037,0.47373 -0.55556,1.16279 -0.55556,2.06719c0,0.8441 0.18519,1.49871 0.55556,1.96383c0.37037,0.4565 0.9087,0.68476 1.61499,0.68476c0.4565,0 0.84841,-0.09905 1.17571,-0.29716c0.33592,-0.20672 0.59432,-0.50388 0.7752,-0.89148l1.83463,0.55556c-0.31869,0.74936 -0.80965,1.33506 -1.47287,1.75711c-0.66322,0.41344 -1.39535,0.62016 -2.19639,0.62016zM324.41459,150.17443v-1.40827h5.72353v1.40827zM336.00103,154.05041c-1.03359,0 -1.87339,-0.23256 -2.51939,-0.69768c-0.63738,-0.46512 -1.02498,-1.11542 -1.16279,-1.95091l1.89923,-0.29716c0.09475,0.41344 0.31008,0.74074 0.646,0.98191c0.33592,0.23256 0.75797,0.34884 1.26615,0.34884c0.44789,0 0.79242,-0.08613 1.03359,-0.2584c0.24117,-0.18088 0.36176,-0.42636 0.36176,-0.73644c0,-0.18949 -0.04737,-0.34022 -0.14212,-0.4522c-0.08613,-0.12059 -0.27993,-0.23256 -0.5814,-0.33592c-0.30147,-0.11197 -0.76658,-0.24979 -1.39535,-0.41344c-0.69768,-0.18949 -1.25323,-0.3876 -1.66667,-0.59432c-0.41344,-0.21533 -0.7106,-0.46942 -0.89148,-0.76228c-0.17227,-0.29285 -0.2584,-0.646 -0.2584,-1.05943c0,-0.52541 0.13351,-0.97761 0.40052,-1.35659c0.27563,-0.3876 0.65461,-0.68476 1.13695,-0.89148c0.49096,-0.21533 1.06805,-0.323 1.73127,-0.323c0.65461,0 1.2317,0.10336 1.73127,0.31008c0.49957,0.19811 0.9044,0.48234 1.21447,0.85272c0.31008,0.37037 0.49957,0.80534 0.56848,1.30491l-1.89923,0.33592c-0.04307,-0.35314 -0.20241,-0.63308 -0.47804,-0.8398c-0.27563,-0.20672 -0.64169,-0.323 -1.09819,-0.34884c-0.43928,-0.02584 -0.79242,0.04307 -1.05943,0.20672c-0.26701,0.15504 -0.40052,0.37037 -0.40052,0.646c0,0.16365 0.05168,0.30147 0.15504,0.41344c0.11197,0.11197 0.33161,0.22395 0.65892,0.33592c0.3273,0.11197 0.81396,0.25409 1.45995,0.42636c0.66322,0.16365 1.19294,0.35745 1.58915,0.5814c0.40482,0.21533 0.69337,0.47373 0.86564,0.7752c0.18088,0.30147 0.27132,0.67184 0.27132,1.11111c0,0.83549 -0.30577,1.49441 -0.91732,1.97675c-0.61154,0.47373 -1.45134,0.7106 -2.51939,0.7106zM341.89965,153.81785v-1.70543h1.86047v1.70543zM341.89965,151.04006v-8.33336h1.86047v8.33336z" stroke="#005358" stroke-width="1"/><path d="M140.83938,154.05041c-0.81826,0 -1.5547,-0.14212 -2.20931,-0.42636c-0.646,-0.28424 -1.18002,-0.68906 -1.60207,-1.21447c-0.41344,-0.52541 -0.67614,-1.14987 -0.78812,-1.87339l1.92507,-0.29716c0.16365,0.65461 0.49957,1.16279 1.00775,1.52455c0.5168,0.36176 1.11111,0.54264 1.78295,0.54264c0.39621,0 0.76658,-0.06029 1.11111,-0.18088c0.35314,-0.1292 0.63738,-0.31008 0.85272,-0.54264c0.22395,-0.24117 0.33592,-0.53402 0.33592,-0.87856c0,-0.15504 -0.02584,-0.29716 -0.07752,-0.42636c-0.05168,-0.1292 -0.1292,-0.24548 -0.23256,-0.34884c-0.10336,-0.10336 -0.23256,-0.19811 -0.3876,-0.28424c-0.15504,-0.08613 -0.33592,-0.15935 -0.54264,-0.21964l-2.86822,-0.8398c-0.24979,-0.07752 -0.5168,-0.17657 -0.80104,-0.29716c-0.28424,-0.12059 -0.55556,-0.28424 -0.81396,-0.49096c-0.24979,-0.21533 -0.4565,-0.48665 -0.62016,-0.81396c-0.16365,-0.33592 -0.24548,-0.74936 -0.24548,-1.24031c0,-0.7149 0.18088,-1.31353 0.54264,-1.79587c0.37037,-0.49096 0.86133,-0.85702 1.47287,-1.09819c0.61154,-0.24117 1.29199,-0.35745 2.04135,-0.34884c0.76658,0 1.44703,0.1292 2.04135,0.3876c0.59432,0.24979 1.08958,0.62016 1.48579,1.11111c0.40482,0.48234 0.69337,1.06374 0.86564,1.74419l-2.00259,0.34884c-0.08613,-0.39621 -0.24548,-0.72782 -0.47804,-0.99483c-0.23256,-0.27563 -0.5168,-0.48665 -0.85272,-0.63308c-0.33592,-0.14643 -0.69337,-0.22395 -1.07235,-0.23256c-0.37037,-0.00861 -0.7149,0.04737 -1.03359,0.16796c-0.31869,0.11197 -0.57709,0.27563 -0.7752,0.49096c-0.18949,0.21533 -0.28424,0.46942 -0.28424,0.76228c0,0.26701 0.08183,0.48665 0.24548,0.65892c0.17227,0.17227 0.37898,0.31008 0.62016,0.41344c0.24117,0.10336 0.49096,0.18519 0.74936,0.24548l1.98967,0.55556c0.26701,0.07752 0.56848,0.17657 0.9044,0.29716c0.34453,0.12059 0.67184,0.29285 0.98191,0.5168c0.31869,0.22395 0.57709,0.5168 0.7752,0.87856c0.20672,0.35314 0.31008,0.80965 0.31008,1.36951c0,0.57709 -0.12059,1.08527 -0.36176,1.52455c-0.23256,0.43066 -0.55556,0.78812 -0.96899,1.07235c-0.40482,0.28424 -0.86994,0.49957 -1.39535,0.646c-0.5168,0.14643 -1.05943,0.21964 -1.62791,0.21964zM151.74451,153.81785c-0.54264,0.10336 -1.08097,0.14643 -1.61499,0.1292c-0.52541,-0.00861 -0.99483,-0.10336 -1.40827,-0.28424c-0.41344,-0.18088 -0.73213,-0.46942 -0.95607,-0.86564c-0.18949,-0.36176 -0.28855,-0.72782 -0.29716,-1.09819c-0.00861,-0.37898 -0.01292,-0.80534 -0.01292,-1.27907v-7.24808h1.84755v7.1318c0,0.33592 0.00431,0.63308 0.01292,0.89148c0.00861,0.24979 0.06029,0.4522 0.15504,0.60724c0.18949,0.31008 0.48665,0.48234 0.89148,0.5168c0.40482,0.03445 0.86564,0.01292 1.38243,-0.0646zM145.94346,146.94445v-1.45995h5.80105v1.45995zM155.87892,154.05041c-0.60293,0 -1.11542,-0.11197 -1.53747,-0.33592c-0.41344,-0.23256 -0.72782,-0.53833 -0.94315,-0.91732c-0.20672,-0.3876 -0.31008,-0.80965 -0.31008,-1.26615c0,-0.39621 0.0646,-0.75366 0.1938,-1.07235c0.13781,-0.3273 0.34453,-0.60724 0.62016,-0.8398c0.27563,-0.23256 0.63738,-0.42636 1.08527,-0.5814c0.3273,-0.10336 0.7149,-0.19811 1.16279,-0.28424c0.4565,-0.08613 0.94746,-0.16796 1.47287,-0.24548c0.52541,-0.07752 1.07666,-0.15935 1.65375,-0.24548l-0.65892,0.37468c0,-0.56848 -0.1292,-0.99053 -0.3876,-1.26615c-0.2584,-0.27563 -0.70198,-0.41344 -1.33075,-0.41344c-0.37037,0 -0.73213,0.09044 -1.08527,0.27132c-0.34453,0.17227 -0.59001,0.46942 -0.73644,0.89148l-1.69251,-0.52972c0.20672,-0.70629 0.59862,-1.27046 1.17571,-1.69251c0.57709,-0.43066 1.35659,-0.646 2.33851,-0.646c0.74074,0 1.39105,0.12059 1.95091,0.36176c0.56848,0.24117 0.99053,0.63738 1.26615,1.18863c0.14643,0.29285 0.23256,0.59432 0.2584,0.9044c0.03445,0.30147 0.05168,0.63308 0.05168,0.99483v5.11629h-1.62791v-1.80879l0.27132,0.29716c-0.37898,0.60293 -0.81826,1.04651 -1.31783,1.33075c-0.49957,0.27563 -1.12403,0.41344 -1.87339,0.41344zM156.25359,152.56462c0.41344,0 0.77089,-0.07321 1.07235,-0.21964c0.30147,-0.14643 0.53833,-0.3273 0.7106,-0.54264c0.18088,-0.21533 0.30147,-0.42205 0.36176,-0.62016c0.09475,-0.23256 0.14643,-0.49957 0.15504,-0.80104c0.01723,-0.31008 0.02584,-0.55986 0.02584,-0.74936l0.5814,0.16796c-0.55986,0.08613 -1.04221,0.16365 -1.44703,0.23256c-0.40482,0.06891 -0.74936,0.13351 -1.03359,0.1938c-0.28424,0.05168 -0.53833,0.11628 -0.76228,0.1938c-0.21533,0.07752 -0.40052,0.16796 -0.55556,0.27132c-0.14643,0.10336 -0.2584,0.22395 -0.33592,0.36176c-0.07752,0.1292 -0.11628,0.27993 -0.11628,0.4522c0,0.20672 0.05168,0.3919 0.15504,0.55556c0.10336,0.15504 0.25409,0.27993 0.4522,0.37468c0.19811,0.08613 0.44358,0.1292 0.73644,0.1292zM163.06116,157.52587l1.61499,-4.4057l0.02584,1.29199l-3.6305,-8.92767h1.93799l2.57107,6.60208h-0.49096l2.50647,-6.60208h1.86047l-4.65118,12.04138zM178.56306,153.81785c-0.54264,0.10336 -1.08097,0.14643 -1.61499,0.1292c-0.52541,-0.00861 -0.99483,-0.10336 -1.40827,-0.28424c-0.41344,-0.18088 -0.73213,-0.46942 -0.95607,-0.86564c-0.18949,-0.36176 -0.28855,-0.72782 -0.29716,-1.09819c-0.00861,-0.37898 -0.01292,-0.80534 -0.01292,-1.27907v-7.24808h1.84755v7.1318c0,0.33592 0.00431,0.63308 0.01292,0.89148c0.00861,0.24979 0.06029,0.4522 0.15504,0.60724c0.18949,0.31008 0.48665,0.48234 0.89148,0.5168c0.40482,0.03445 0.86564,0.01292 1.38243,-0.0646zM172.76201,146.94445v-1.45995h5.80105v1.45995zM183.48558,154.06333c-0.61154,0 -1.11973,-0.10336 -1.52455,-0.31008c-0.39621,-0.20672 -0.7149,-0.46942 -0.95607,-0.78812c-0.23256,-0.31869 -0.40913,-0.65892 -0.52972,-1.02067c-0.11197,-0.36176 -0.18519,-0.70198 -0.21964,-1.02067c-0.02584,-0.31869 -0.03876,-0.5814 -0.03876,-0.78812v-4.65118h1.87339v4.0181c0,0.2584 0.01723,0.54694 0.05168,0.86564c0.04307,0.31869 0.1292,0.62877 0.2584,0.93024c0.1292,0.29285 0.323,0.53402 0.5814,0.72352c0.2584,0.18949 0.61154,0.28424 1.05943,0.28424c0.23256,0 0.46512,-0.03876 0.69768,-0.11628c0.23256,-0.07752 0.44358,-0.21103 0.63308,-0.40052c0.18949,-0.18949 0.34022,-0.44789 0.4522,-0.7752c0.11197,-0.3273 0.16796,-0.74074 0.16796,-1.24031l1.09819,0.46512c0,0.70629 -0.13781,1.34798 -0.41344,1.92507c-0.27563,0.57709 -0.68045,1.0379 -1.21447,1.38243c-0.53402,0.34453 -1.19294,0.5168 -1.97675,0.5168zM186.21169,153.81785v-2.58399h-0.21964v-5.74937h1.86047v8.33336zM195.78336,153.81785v-4.00518c0,-0.26701 -0.02153,-0.55986 -0.0646,-0.87856c-0.03445,-0.31869 -0.11628,-0.62446 -0.24548,-0.91732c-0.1292,-0.30147 -0.3273,-0.54694 -0.59432,-0.73644c-0.2584,-0.18949 -0.60724,-0.28424 -1.04651,-0.28424c-0.23256,0 -0.46512,0.03876 -0.69768,0.11628c-0.23256,0.07752 -0.44358,0.21103 -0.63308,0.40052c-0.18949,0.18949 -0.34022,0.44789 -0.4522,0.7752c-0.11197,0.3273 -0.16796,0.74505 -0.16796,1.25323l-1.09819,-0.47804c0,-0.70629 0.13781,-1.34798 0.41344,-1.92507c0.27563,-0.57709 0.68045,-1.03359 1.21447,-1.36951c0.53402,-0.34453 1.18863,-0.5168 1.96383,-0.5168c0.62016,0 1.12834,0.10336 1.52455,0.31008c0.40482,0.19811 0.72352,0.46081 0.95607,0.78812c0.24117,0.31869 0.41774,0.65892 0.52972,1.02067c0.11197,0.35314 0.18519,0.69337 0.21964,1.02067c0.03445,0.31869 0.05168,0.57709 0.05168,0.7752v4.65118zM189.99523,153.81785v-8.33336h1.66667v2.58399h0.21964v5.74937zM203.32464,154.05041c-0.8441,0 -1.58484,-0.18088 -2.22223,-0.54264c-0.63738,-0.37037 -1.13695,-0.87856 -1.49871,-1.52455c-0.35314,-0.646 -0.52972,-1.39105 -0.52972,-2.23515c0,-0.91301 0.17227,-1.70543 0.5168,-2.37727c0.35314,-0.67184 0.8398,-1.19294 1.45995,-1.56331c0.62016,-0.37037 1.33937,-0.55556 2.15763,-0.55556c0.86994,0 1.60638,0.20241 2.20931,0.60724c0.60293,0.40482 1.05082,0.97761 1.34367,1.71835c0.29285,0.73213 0.40482,1.59776 0.33592,2.59691h-1.84755v-0.68476c-0.00861,-0.9044 -0.16796,-1.56331 -0.47804,-1.97675c-0.31008,-0.42205 -0.80534,-0.63308 -1.48579,-0.63308c-0.75797,0 -1.32214,0.23687 -1.69251,0.7106c-0.37037,0.47373 -0.55556,1.16279 -0.55556,2.06719c0,0.8441 0.18519,1.49871 0.55556,1.96383c0.37037,0.4565 0.9087,0.68476 1.61499,0.68476c0.4565,0 0.84841,-0.09905 1.17571,-0.29716c0.33592,-0.20672 0.59432,-0.50388 0.7752,-0.89148l1.83463,0.55556c-0.31869,0.74936 -0.80965,1.33506 -1.47287,1.75711c-0.66322,0.41344 -1.39535,0.62016 -2.19639,0.62016zM200.45641,150.17443v-1.40827h5.72353v1.40827zM212.15912,154.05041c-0.76658,0 -1.43411,-0.1938 -2.00259,-0.5814c-0.56848,-0.3876 -1.01206,-0.91301 -1.33075,-1.57623c-0.31008,-0.66322 -0.46512,-1.40827 -0.46512,-2.23515c0,-0.8441 0.15504,-1.59776 0.46512,-2.26099c0.31869,-0.66322 0.76658,-1.18433 1.34367,-1.56331c0.5857,-0.3876 1.27046,-0.5814 2.05427,-0.5814c0.79242,0 1.45565,0.1938 1.98967,0.5814c0.54264,0.37898 0.95177,0.90009 1.22739,1.56331c0.28424,0.66322 0.42636,1.41689 0.42636,2.26099c0,0.82688 -0.14212,1.57192 -0.42636,2.23515c-0.27563,0.66322 -0.68906,1.18863 -1.24031,1.57623c-0.55125,0.3876 -1.2317,0.5814 -2.04135,0.5814zM212.44336,152.38374c0.49957,0 0.90009,-0.11197 1.20155,-0.33592c0.31008,-0.23256 0.53402,-0.55556 0.67184,-0.96899c0.14643,-0.41344 0.21964,-0.88717 0.21964,-1.42119c0,-0.55125 -0.07321,-1.02929 -0.21964,-1.43411c-0.13781,-0.41344 -0.35745,-0.73213 -0.65892,-0.95607c-0.29285,-0.23256 -0.67614,-0.34884 -1.14987,-0.34884c-0.49957,0 -0.91301,0.12489 -1.24031,0.37468c-0.31869,0.24117 -0.55556,0.56848 -0.7106,0.98191c-0.15504,0.41344 -0.23256,0.87425 -0.23256,1.38243c0,0.50818 0.07321,0.96899 0.21964,1.38243c0.15504,0.41344 0.3876,0.74074 0.69768,0.98191c0.31869,0.24117 0.71921,0.36176 1.20155,0.36176zM214.53639,153.81785v-5.85273h-0.23256v-5.25841h1.87339v11.11114zM222.15266,153.81785v-8.46256c0,-0.20672 0.00431,-0.43497 0.01292,-0.68476c0.01723,-0.2584 0.06029,-0.51249 0.1292,-0.76228c0.07752,-0.2584 0.21103,-0.49096 0.40052,-0.69768c0.24117,-0.2584 0.49526,-0.43928 0.76228,-0.54264c0.27563,-0.10336 0.54694,-0.15935 0.81396,-0.16796c0.27563,-0.01723 0.51249,-0.02584 0.7106,-0.02584h1.03359v1.51163h-0.95607c-0.35314,0 -0.61585,0.09044 -0.78812,0.27132c-0.17227,0.18088 -0.2584,0.41344 -0.2584,0.69768v8.86307zM220.80899,146.94445v-1.45995h5.20673v1.45995zM230.6209,154.05041c-0.82688,0 -1.5547,-0.18519 -2.18347,-0.55556c-0.62016,-0.37898 -1.1025,-0.90009 -1.44703,-1.56331c-0.33592,-0.66322 -0.50388,-1.42119 -0.50388,-2.27391c0,-0.87856 0.17227,-1.64514 0.5168,-2.29975c0.35314,-0.66322 0.8398,-1.18002 1.45995,-1.55039c0.62016,-0.37037 1.33937,-0.55556 2.15763,-0.55556c0.8441,0 1.57623,0.18949 2.19639,0.56848c0.62016,0.37037 1.1025,0.88717 1.44703,1.55039c0.34453,0.66322 0.5168,1.4255 0.5168,2.28683c0,0.86133 -0.17227,1.6236 -0.5168,2.28683c-0.34453,0.65461 -0.83118,1.17141 -1.45995,1.55039c-0.62016,0.37037 -1.34798,0.55556 -2.18347,0.55556zM230.6209,152.30622c0.74074,0 1.29199,-0.24548 1.65375,-0.73644c0.36176,-0.49957 0.54264,-1.13695 0.54264,-1.91215c0,-0.80965 -0.18519,-1.45565 -0.55556,-1.93799c-0.36176,-0.48234 -0.9087,-0.72352 -1.64083,-0.72352c-0.49957,0 -0.9087,0.11197 -1.22739,0.33592c-0.31869,0.22395 -0.55556,0.53833 -0.7106,0.94315c-0.15504,0.39621 -0.23256,0.85702 -0.23256,1.38243c0,0.80104 0.18088,1.44273 0.54264,1.92507c0.37037,0.48234 0.91301,0.72352 1.62791,0.72352zM236.48516,153.81785v-8.33336h1.64083v2.02843l-0.20672,-0.2584c0.10336,-0.27563 0.24117,-0.52541 0.41344,-0.74936c0.17227,-0.23256 0.37898,-0.42636 0.62016,-0.5814c0.20672,-0.13781 0.43497,-0.24548 0.68476,-0.323c0.24979,-0.07752 0.50388,-0.12489 0.76228,-0.14212c0.26701,-0.02584 0.52541,-0.01723 0.7752,0.02584v1.74419c-0.24979,-0.07752 -0.53833,-0.10336 -0.86564,-0.07752c-0.31869,0.02584 -0.60724,0.11628 -0.86564,0.27132c-0.24979,0.13781 -0.4565,0.31438 -0.62016,0.52972c-0.16365,0.21533 -0.28424,0.46081 -0.36176,0.73644c-0.07752,0.27563 -0.11628,0.57278 -0.11628,0.89148v4.23774zM251.48785,153.81785v-4.00518c0,-0.26701 -0.02153,-0.55986 -0.0646,-0.87856c-0.03445,-0.31869 -0.11628,-0.62446 -0.24548,-0.91732c-0.1292,-0.30147 -0.3273,-0.54694 -0.59432,-0.73644c-0.2584,-0.18949 -0.60724,-0.28424 -1.04651,-0.28424c-0.23256,0 -0.46512,0.03876 -0.69768,0.11628c-0.23256,0.07752 -0.44358,0.21103 -0.63308,0.40052c-0.18949,0.18949 -0.34022,0.44789 -0.4522,0.7752c-0.11197,0.3273 -0.16796,0.74505 -0.16796,1.25323l-1.09819,-0.47804c0,-0.70629 0.13781,-1.34798 0.41344,-1.92507c0.27563,-0.57709 0.68045,-1.03359 1.21447,-1.36951c0.53402,-0.34453 1.18863,-0.5168 1.96383,-0.5168c0.62016,0 1.12834,0.10336 1.52455,0.31008c0.40482,0.19811 0.72352,0.46081 0.95607,0.78812c0.24117,0.31869 0.41774,0.65892 0.52972,1.02067c0.11197,0.35314 0.18519,0.69337 0.21964,1.02067c0.03445,0.31869 0.05168,0.57709 0.05168,0.7752v4.65118zM245.69972,153.81785v-8.33336h1.66667v2.58399h0.21964v5.74937zM259.02913,154.05041c-0.8441,0 -1.58484,-0.18088 -2.22223,-0.54264c-0.63738,-0.37037 -1.13695,-0.87856 -1.49871,-1.52455c-0.35314,-0.646 -0.52972,-1.39105 -0.52972,-2.23515c0,-0.91301 0.17227,-1.70543 0.5168,-2.37727c0.35314,-0.67184 0.8398,-1.19294 1.45995,-1.56331c0.62016,-0.37037 1.33937,-0.55556 2.15763,-0.55556c0.86994,0 1.60638,0.20241 2.20931,0.60724c0.60293,0.40482 1.05082,0.97761 1.34367,1.71835c0.29285,0.73213 0.40482,1.59776 0.33592,2.59691h-1.84755v-0.68476c-0.00861,-0.9044 -0.16796,-1.56331 -0.47804,-1.97675c-0.31008,-0.42205 -0.80534,-0.63308 -1.48579,-0.63308c-0.75797,0 -1.32214,0.23687 -1.69251,0.7106c-0.37037,0.47373 -0.55556,1.16279 -0.55556,2.06719c0,0.8441 0.18519,1.49871 0.55556,1.96383c0.37037,0.4565 0.9087,0.68476 1.61499,0.68476c0.4565,0 0.84841,-0.09905 1.17571,-0.29716c0.33592,-0.20672 0.59432,-0.50388 0.7752,-0.89148l1.83463,0.55556c-0.31869,0.74936 -0.80965,1.33506 -1.47287,1.75711c-0.66322,0.41344 -1.39535,0.62016 -2.19639,0.62016zM256.1609,150.17443v-1.40827h5.72353v1.40827zM265.99161,153.81785l-2.54523,-8.34628l1.82171,0.01292l1.62791,5.34885l1.64083,-5.34885h1.57623l1.64083,5.34885l1.62791,-5.34885h1.82171l-2.54523,8.33336h-1.44703l-1.88631,-5.73645l-1.88631,5.73645zM282.80024,154.06333c-0.61154,0 -1.11973,-0.10336 -1.52455,-0.31008c-0.39621,-0.20672 -0.7149,-0.46942 -0.95607,-0.78812c-0.23256,-0.31869 -0.40913,-0.65892 -0.52972,-1.02067c-0.11197,-0.36176 -0.18519,-0.70198 -0.21964,-1.02067c-0.02584,-0.31869 -0.03876,-0.5814 -0.03876,-0.78812v-4.65118h1.87339v4.0181c0,0.2584 0.01723,0.54694 0.05168,0.86564c0.04307,0.31869 0.1292,0.62877 0.2584,0.93024c0.1292,0.29285 0.323,0.53402 0.5814,0.72352c0.2584,0.18949 0.61154,0.28424 1.05943,0.28424c0.23256,0 0.46512,-0.03876 0.69768,-0.11628c0.23256,-0.07752 0.44358,-0.21103 0.63308,-0.40052c0.18949,-0.18949 0.34022,-0.44789 0.4522,-0.7752c0.11197,-0.3273 0.16796,-0.74074 0.16796,-1.24031l1.09819,0.46512c0,0.70629 -0.13781,1.34798 -0.41344,1.92507c-0.27563,0.57709 -0.68045,1.0379 -1.21447,1.38243c-0.53402,0.34453 -1.19294,0.5168 -1.97675,0.5168zM285.52634,153.81785v-2.58399h-0.21964v-5.74937h1.86047v8.33336zM293.32801,154.05041c-0.80965,0 -1.4901,-0.1938 -2.04135,-0.5814c-0.55125,-0.3876 -0.96469,-0.91301 -1.24031,-1.57623c-0.27563,-0.66322 -0.41344,-1.40827 -0.41344,-2.23515c0,-0.8441 0.13781,-1.59776 0.41344,-2.26099c0.27563,-0.66322 0.68045,-1.18433 1.21447,-1.56331c0.54264,-0.3876 1.21017,-0.5814 2.00259,-0.5814c0.78381,0 1.46426,0.1938 2.04135,0.5814c0.5857,0.37898 1.0379,0.90009 1.35659,1.56331c0.31869,0.66322 0.47804,1.41689 0.47804,2.26099c0,0.82688 -0.15935,1.57192 -0.47804,2.23515c-0.31008,0.66322 -0.75366,1.18863 -1.33075,1.57623c-0.56848,0.3876 -1.23601,0.5814 -2.00259,0.5814zM289.30991,157.52587v-12.04138h1.65375v5.85273h0.21964v6.18865zM293.04377,152.38374c0.48234,0 0.87856,-0.12059 1.18863,-0.36176c0.31869,-0.24117 0.55556,-0.56848 0.7106,-0.98191c0.15504,-0.41344 0.23256,-0.87425 0.23256,-1.38243c0,-0.50818 -0.07752,-0.96899 -0.23256,-1.38243c-0.15504,-0.41344 -0.39621,-0.74074 -0.72352,-0.98191c-0.3273,-0.24979 -0.73644,-0.37468 -1.22739,-0.37468c-0.47373,0 -0.86133,0.11628 -1.16279,0.34884c-0.30147,0.22395 -0.5211,0.54264 -0.65892,0.95607c-0.13781,0.40482 -0.20672,0.88286 -0.20672,1.43411c0,0.53402 0.06891,1.00775 0.20672,1.42119c0.13781,0.41344 0.35745,0.73644 0.65892,0.96899c0.31008,0.22395 0.7149,0.33592 1.21447,0.33592zM302.17176,154.05041c-0.76658,0 -1.43411,-0.1938 -2.00259,-0.5814c-0.56848,-0.3876 -1.01206,-0.91301 -1.33075,-1.57623c-0.31008,-0.66322 -0.46512,-1.40827 -0.46512,-2.23515c0,-0.8441 0.15504,-1.59776 0.46512,-2.26099c0.31869,-0.66322 0.76658,-1.18433 1.34367,-1.56331c0.5857,-0.3876 1.27046,-0.5814 2.05427,-0.5814c0.79242,0 1.45565,0.1938 1.98967,0.5814c0.54264,0.37898 0.95177,0.90009 1.22739,1.56331c0.28424,0.66322 0.42636,1.41689 0.42636,2.26099c0,0.82688 -0.14212,1.57192 -0.42636,2.23515c-0.27563,0.66322 -0.68906,1.18863 -1.24031,1.57623c-0.55125,0.3876 -1.2317,0.5814 -2.04135,0.5814zM302.45599,152.38374c0.49957,0 0.90009,-0.11197 1.20155,-0.33592c0.31008,-0.23256 0.53402,-0.55556 0.67184,-0.96899c0.14643,-0.41344 0.21964,-0.88717 0.21964,-1.42119c0,-0.55125 -0.07321,-1.02929 -0.21964,-1.43411c-0.13781,-0.41344 -0.35745,-0.73213 -0.65892,-0.95607c-0.29285,-0.23256 -0.67614,-0.34884 -1.14987,-0.34884c-0.49957,0 -0.91301,0.12489 -1.24031,0.37468c-0.31869,0.24117 -0.55556,0.56848 -0.7106,0.98191c-0.15504,0.41344 -0.23256,0.87425 -0.23256,1.38243c0,0.50818 0.07321,0.96899 0.21964,1.38243c0.15504,0.41344 0.3876,0.74074 0.69768,0.98191c0.31869,0.24117 0.71921,0.36176 1.20155,0.36176zM304.54902,153.81785v-5.85273h-0.23256v-5.25841h1.87339v11.11114zM310.68208,154.05041c-0.60293,0 -1.11542,-0.11197 -1.53747,-0.33592c-0.41344,-0.23256 -0.72782,-0.53833 -0.94315,-0.91732c-0.20672,-0.3876 -0.31008,-0.80965 -0.31008,-1.26615c0,-0.39621 0.0646,-0.75366 0.1938,-1.07235c0.13781,-0.3273 0.34453,-0.60724 0.62016,-0.8398c0.27563,-0.23256 0.63738,-0.42636 1.08527,-0.5814c0.3273,-0.10336 0.7149,-0.19811 1.16279,-0.28424c0.4565,-0.08613 0.94746,-0.16796 1.47287,-0.24548c0.52541,-0.07752 1.07666,-0.15935 1.65375,-0.24548l-0.65892,0.37468c0,-0.56848 -0.1292,-0.99053 -0.3876,-1.26615c-0.2584,-0.27563 -0.70198,-0.41344 -1.33075,-0.41344c-0.37037,0 -0.73213,0.09044 -1.08527,0.27132c-0.34453,0.17227 -0.59001,0.46942 -0.73644,0.89148l-1.69251,-0.52972c0.20672,-0.70629 0.59862,-1.27046 1.17571,-1.69251c0.57709,-0.43066 1.35659,-0.646 2.33851,-0.646c0.74074,0 1.39105,0.12059 1.95091,0.36176c0.56848,0.24117 0.99053,0.63738 1.26615,1.18863c0.14643,0.29285 0.23256,0.59432 0.2584,0.9044c0.03445,0.30147 0.05168,0.63308 0.05168,0.99483v5.11629h-1.62791v-1.80879l0.27132,0.29716c-0.37898,0.60293 -0.81826,1.04651 -1.31783,1.33075c-0.49957,0.27563 -1.12403,0.41344 -1.87339,0.41344zM311.05676,152.56462c0.41344,0 0.77089,-0.07321 1.07235,-0.21964c0.30147,-0.14643 0.53833,-0.3273 0.7106,-0.54264c0.18088,-0.21533 0.30147,-0.42205 0.36176,-0.62016c0.09475,-0.23256 0.14643,-0.49957 0.15504,-0.80104c0.01723,-0.31008 0.02584,-0.55986 0.02584,-0.74936l0.5814,0.16796c-0.55986,0.08613 -1.04221,0.16365 -1.44703,0.23256c-0.40482,0.06891 -0.74936,0.13351 -1.03359,0.1938c-0.28424,0.05168 -0.53833,0.11628 -0.76228,0.1938c-0.21533,0.07752 -0.40052,0.16796 -0.55556,0.27132c-0.14643,0.10336 -0.2584,0.22395 -0.33592,0.36176c-0.07752,0.1292 -0.11628,0.27993 -0.11628,0.4522c0,0.20672 0.05168,0.3919 0.15504,0.55556c0.10336,0.15504 0.25409,0.27993 0.4522,0.37468c0.19811,0.08613 0.44358,0.1292 0.73644,0.1292zM322.11291,153.81785c-0.54264,0.10336 -1.08097,0.14643 -1.61499,0.1292c-0.52541,-0.00861 -0.99483,-0.10336 -1.40827,-0.28424c-0.41344,-0.18088 -0.73213,-0.46942 -0.95607,-0.86564c-0.18949,-0.36176 -0.28855,-0.72782 -0.29716,-1.09819c-0.00861,-0.37898 -0.01292,-0.80534 -0.01292,-1.27907v-7.24808h1.84755v7.1318c0,0.33592 0.00431,0.63308 0.01292,0.89148c0.00861,0.24979 0.06029,0.4522 0.15504,0.60724c0.18949,0.31008 0.48665,0.48234 0.89148,0.5168c0.40482,0.03445 0.86564,0.01292 1.38243,-0.0646zM316.31186,146.94445v-1.45995h5.80105v1.45995zM327.2828,154.05041c-0.8441,0 -1.58484,-0.18088 -2.22223,-0.54264c-0.63738,-0.37037 -1.13695,-0.87856 -1.49871,-1.52455c-0.35314,-0.646 -0.52972,-1.39105 -0.52972,-2.23515c0,-0.91301 0.17227,-1.70543 0.5168,-2.37727c0.35314,-0.67184 0.8398,-1.19294 1.45995,-1.56331c0.62016,-0.37037 1.33937,-0.55556 2.15763,-0.55556c0.86994,0 1.60638,0.20241 2.20931,0.60724c0.60293,0.40482 1.05082,0.97761 1.34367,1.71835c0.29285,0.73213 0.40482,1.59776 0.33592,2.59691h-1.84755v-0.68476c-0.00861,-0.9044 -0.16796,-1.56331 -0.47804,-1.97675c-0.31008,-0.42205 -0.80534,-0.63308 -1.48579,-0.63308c-0.75797,0 -1.32214,0.23687 -1.69251,0.7106c-0.37037,0.47373 -0.55556,1.16279 -0.55556,2.06719c0,0.8441 0.18519,1.49871 0.55556,1.96383c0.37037,0.4565 0.9087,0.68476 1.61499,0.68476c0.4565,0 0.84841,-0.09905 1.17571,-0.29716c0.33592,-0.20672 0.59432,-0.50388 0.7752,-0.89148l1.83463,0.55556c-0.31869,0.74936 -0.80965,1.33506 -1.47287,1.75711c-0.66322,0.41344 -1.39535,0.62016 -2.19639,0.62016zM324.41458,150.17443v-1.40827h5.72353v1.40827zM336.00103,154.05041c-1.03359,0 -1.87339,-0.23256 -2.51939,-0.69768c-0.63738,-0.46512 -1.02498,-1.11542 -1.16279,-1.95091l1.89923,-0.29716c0.09475,0.41344 0.31008,0.74074 0.646,0.98191c0.33592,0.23256 0.75797,0.34884 1.26615,0.34884c0.44789,0 0.79242,-0.08613 1.03359,-0.2584c0.24117,-0.18088 0.36176,-0.42636 0.36176,-0.73644c0,-0.18949 -0.04737,-0.34022 -0.14212,-0.4522c-0.08613,-0.12059 -0.27993,-0.23256 -0.5814,-0.33592c-0.30147,-0.11197 -0.76658,-0.24979 -1.39535,-0.41344c-0.69768,-0.18949 -1.25323,-0.3876 -1.66667,-0.59432c-0.41344,-0.21533 -0.7106,-0.46942 -0.89148,-0.76228c-0.17227,-0.29285 -0.2584,-0.646 -0.2584,-1.05943c0,-0.52541 0.13351,-0.97761 0.40052,-1.35659c0.27563,-0.3876 0.65461,-0.68476 1.13695,-0.89148c0.49096,-0.21533 1.06805,-0.323 1.73127,-0.323c0.65461,0 1.2317,0.10336 1.73127,0.31008c0.49957,0.19811 0.9044,0.48234 1.21447,0.85272c0.31008,0.37037 0.49957,0.80534 0.56848,1.30491l-1.89923,0.33592c-0.04307,-0.35314 -0.20241,-0.63308 -0.47804,-0.8398c-0.27563,-0.20672 -0.64169,-0.323 -1.09819,-0.34884c-0.43928,-0.02584 -0.79242,0.04307 -1.05943,0.20672c-0.26701,0.15504 -0.40052,0.37037 -0.40052,0.646c0,0.16365 0.05168,0.30147 0.15504,0.41344c0.11197,0.11197 0.33161,0.22395 0.65892,0.33592c0.3273,0.11197 0.81396,0.25409 1.45995,0.42636c0.66322,0.16365 1.19294,0.35745 1.58915,0.5814c0.40482,0.21533 0.69337,0.47373 0.86564,0.7752c0.18088,0.30147 0.27132,0.67184 0.27132,1.11111c0,0.83549 -0.30577,1.49441 -0.91732,1.97675c-0.61154,0.47373 -1.45134,0.7106 -2.51939,0.7106zM341.89964,153.81785v-1.70543h1.86047v1.70543zM341.89964,151.04006v-8.33336h1.86047v8.33336z" stroke="none" stroke-width="1"/></g></g></g></svg>