<svg version="1.1" xmlns="http://www.w3.org/2000/svg" xmlns:xlink="http://www.w3.org/1999/xlink" width="343.84384" height="493.99399" viewBox="0,0,343.84384,493.99399"><g transform="translate(-68.07808,66.99698)"><g data-paper-data="{&quot;isPaintingLayer&quot;:true}" fill-rule="nonzero" stroke="none" stroke-linecap="butt" stroke-linejoin="miter" stroke-miterlimit="10" stroke-dasharray="" stroke-dashoffset="0" style="mix-blend-mode: normal"><path d="M68.07808,426.99701v-493.99399h343.84384v493.99399z" fill="none" stroke-width="0"/><g><path d="M113.12313,291.61693v-207.2072h127.62763v207.20721z" fill="#7c7e88" stroke-width="0"/><g fill="#787a84" stroke-width="0.5"><path d="M191.01393,270.61861c-4.47214,-2.23607 -2.23606,-6.7082 -2.23606,-6.7082l0.97214,-1.76394c3.06922,-4.09229 7.70955,-7.10921 9.36579,-12.12273c0.11487,-0.3477 -0.61501,0.72688 -0.94285,0.56375c-0.87938,-0.43757 -1.3259,-1.46072 -2.09289,-2.07432c-2.58394,-2.06716 -6.37539,-3.25537 -7.44945,-6.95329c-0.81163,-2.79442 -0.86785,-6.13715 0.47907,-8.71656c2.14214,-4.10229 8.54235,-3.20172 12.13303,-3.17253c3.0758,0.61516 6.07272,0.35246 9.15607,1.10942c5.84609,1.43519 13.01304,6.5474 14.68374,12.58291c1.83458,6.62751 -2.66345,11.28484 -3.92272,17.22888c-0.28017,1.32247 0.11217,2.70281 0.09022,4.05446c-0.02881,1.77369 -0.34365,4.2104 1.21299,5.6513c0.98825,0.91476 2.19134,1.5658 3.28701,2.3487c0,0 4,3 1,7c-3,4 -7,1 -7,1c-1.571,-1.2171 -3.33752,-2.21692 -4.71299,-3.65131c-4.23084,-4.41207 -4.81396,-12.54199 -3.6968,-18.29423c0.55983,-2.88258 2.15727,-6.02065 3.21486,-8.77425c0.45295,-1.17934 1.17518,-2.64493 0.86243,-3.99688c-0.39859,-1.72295 -2.54997,-2.45725 -3.68345,-3.29536c-3.38887,-2.50575 -6.49214,-2.21202 -10.36183,-2.81495c1.11369,1.00292 2.14507,2.14065 2.95484,2.88594c1.32443,1.219 3.81433,1.78019 4.05715,3.56376c1.5016,11.02949 -5.2689,14.72353 -10.63421,21.87727l-0.02786,0.23607c0,0 -2.23607,4.47214 -6.70821,2.23607z"/><path d="M149.96268,184.29577c4.85072,1.21268 3.63804,6.06339 3.63804,6.06339l-0.38129,1.33948c-0.17162,1.09176 -0.48431,2.17052 -0.51487,3.27526c-0.02457,0.88838 1.00678,1.4657 1.54545,2.17257c2.61095,3.42623 5.13709,4.99677 8.62866,7.24675c1.34312,0.86551 2.40391,2.15618 3.82097,2.89443c2.41082,1.25597 5.16363,1.77012 7.56779,3.03879c4.88292,2.57672 8.53489,7.76718 7.95273,13.36561c-0.20354,1.95738 -0.60586,3.91843 -1.30653,5.7574c-0.64601,1.69549 -1.64064,3.25188 -2.69008,4.73199c-2.19884,3.10119 -5.756,5.81857 -8.438,8.50056c0,0 -3.53554,3.53554 -7.07107,0c-3.53554,-3.53554 0,-7.07107 0,-7.07107c2.7509,-2.7509 7.48158,-5.94312 8.87193,-9.76745c0.42494,-1.16886 1.60147,-2.57536 0.9202,-3.61588c-2.74228,-4.18834 -6.07655,-3.80335 -10.70621,-6.22231c-1.53823,-0.80371 -2.71818,-2.16855 -4.17903,-3.10557c-5.59398,-3.58806 -13.98736,-9.02897 -14.8259,-16.58068c-0.21135,-1.90339 0.32342,-3.81649 0.48513,-5.72474l0.61871,-2.66052c0,0 1.21268,-4.85072 6.0634,-3.63804z"/><path d="M224.25,179.64647c5,0 5,5 5,5v3.5c-0.17907,6.83882 -3.41715,13.99858 -5.60789,20.38943c-2.79759,2.95074 -0.55221,4.12488 -3.37651,8.08965c-0.6065,0.85142 -5.75026,4.9077 -6.93446,5.26434c-1.57723,0.47501 -3.29158,0.34665 -4.93559,0.244c-1.70764,-0.10662 -3.47789,-0.21411 -5.05897,-0.86802c-6.33331,-2.61936 -5.76592,-9.56212 -9.83498,-13.81038c-4.63007,-4.83399 -10.58337,-6.95533 -15.99757,-10.63053c-3.01288,-2.04516 -5.72017,-4.60399 -8.99011,-6.20634c0,0 -4.47214,-2.23607 -2.23606,-6.70821c2.23607,-4.47214 6.70821,-2.23607 6.70821,-2.23607c3.5959,1.82504 6.68305,4.51474 10.00989,6.79366c6.07799,4.16348 12.91199,6.71832 18.00243,12.36947c1.30704,1.45102 3.71412,6.59474 4.65999,8.44972c0.99979,1.96073 1.78441,3.91682 4.51048,3.11587c0.28107,-0.08258 0.29475,-0.52077 0.51903,-0.70924c0.47368,-0.39803 1.08742,-0.61164 1.5465,-1.02642c0.91216,-0.82414 -0.14991,-2.53093 0.29746,-3.67596c0.48327,-1.23692 1.55069,-2.15626 2.32603,-3.23439c1.43438,-4.46624 4.6692,-10.83631 4.39211,-15.61058v-3.5c0,0 0,-5 5,-5z"/><path d="M185.71447,119.61094c3.53554,-3.53553 7.07107,0 7.07107,0l1,1c4.90167,5.16993 6.14703,12.46445 2.77382,19.07117c-0.5365,1.05077 -1.71369,1.63995 -2.40915,2.593c-1.20618,1.65294 -2.09714,3.51871 -3.27279,5.19349c-2.53149,3.60624 -5.03372,4.25499 -5.12807,7.59726c-0.03721,1.31796 5.03164,4.04551 5.53619,4.54508c1.29003,1.27731 1.92179,3.15644 3.31316,4.32255c0.72523,0.60781 1.73521,0.81854 2.4416,1.44815c1.5297,1.36344 2.71841,3.09896 4.33318,4.36049c0,0 3.90435,3.12347 0.78087,7.02782c-3.12348,3.90435 -7.02782,0.78087 -7.02782,0.78087c-1.70164,-1.3842 -3.0252,-3.18463 -4.66682,-4.63951c-0.74646,-0.66155 -1.81754,-0.88403 -2.5584,-1.55185c-1.29655,-1.16872 -2.42793,-3.39811 -3.68684,-4.67745c-3.79871,-3.86034 -8.4338,-4.8088 -8.46381,-11.45492c-0.02883,-6.38647 2.97334,-7.70519 6.87193,-13.40275c1.2988,-1.89811 2.36241,-3.95527 3.72721,-5.8065c0.42009,-0.56982 1.21104,-0.80958 1.59085,-1.407c1.40566,-2.21097 0.45828,-5.42306 -1.22618,-6.92883l-1,-1c0,0 -3.53554,-3.53553 0,-7.07107z"/><path d="M228.28554,163.18202c-3.26503,3.26503 -6.53005,0.49963 -7.01056,0.05734c-1.18875,-0.57362 -2.4435,-1.05406 -3.42223,-1.92426c-1.02597,-0.91219 -1.5094,-2.29375 -2.28414,-3.4271c-3.60734,-5.2771 -5.78612,-11.28572 -6.29427,-17.74883c-0.37172,-4.72794 0.06232,-9.3517 -0.92724,-14.01211c0,0 -0.98058,-4.9029 3.92233,-5.88348c4.90291,-0.98058 5.88349,3.92232 5.88349,3.92232c1.47509,7.69498 0.62225,15.39695 2.87374,23.00286c0.87754,2.9645 2.58938,6.41852 5.45943,7.50558l1.79946,1.4366c0,0 3.53554,3.53553 0,7.07107zM221.90182,163.55738l0.11211,0.06123c-0.03723,-0.02061 -0.0746,-0.04102 -0.11211,-0.06123z"/></g><path d="M224,287.81314v-180h13v180z" fill="#6a6c75" stroke-width="0"/><path d="M229.5,287.81314v-180h13v180z" fill="#767882" stroke-width="0"/></g></g></g></svg>