<svg version="1.1" xmlns="http://www.w3.org/2000/svg" xmlns:xlink="http://www.w3.org/1999/xlink" width="41.18847" height="47.55931" viewBox="0,0,41.18847,47.55931"><defs><linearGradient x1="238.49537" y1="334.52949" x2="238.56962" y2="351.56497" gradientUnits="userSpaceOnUse" id="color-1"><stop offset="0" stop-color="#5f5f5f"/><stop offset="1" stop-color="#757575"/></linearGradient></defs><g transform="translate(-217.87075,-302.00681)"><g data-paper-data="{&quot;isPaintingLayer&quot;:true}" fill-rule="nonzero" stroke-linejoin="miter" stroke-miterlimit="10" stroke-dasharray="" stroke-dashoffset="0" style="mix-blend-mode: normal"><g><g stroke="none" stroke-width="0" stroke-linecap="butt"><path d="M217.87075,310.61445l41.03999,-0.17886l0.14848,34.07094l-41.03996,0.17886z" fill="#818181"/><path d="M238.53981,349.5652c-10.90522,0.04753 -19.7325,-1.72769 -19.75301,-6.43189c-0.02051,-4.70421 8.84797,-5.5566 19.75319,-5.60414c10.90522,-0.04753 19.71761,0.72781 19.73812,5.43202c0.02051,4.70421 -8.83308,6.55649 -19.73829,6.60402z" fill="url(#color-1)"/><path d="M238.42785,319.04273c-10.90522,0.04753 -19.76228,-3.72747 -19.7828,-8.43168c-0.02051,-4.70421 8.80331,-8.55626 19.70853,-8.60379c10.90522,-0.04753 19.76227,3.72747 19.78278,8.43168c0.02051,4.70421 -8.8033,8.55626 -19.70852,8.60379z" fill="#818181"/></g><path d="M222.84027,310.78636l0.10462,24.00451" fill="none" stroke="#727272" stroke-width="3" stroke-linecap="round"/><path d="M230.28594,331.27429l-0.10463,-24.00451" fill="none" stroke="#727272" stroke-width="4" stroke-linecap="round"/><path d="M239.18577,330.07399l-0.10463,-24.00452" fill="none" stroke="#727272" stroke-width="4" stroke-linecap="round"/><path d="M254.201,310.64967l0.10464,24.00452" fill="none" stroke="#727272" stroke-width="3" stroke-linecap="round"/><path d="M246.93758,331.97609l-0.10462,-24.00452" fill="none" stroke="#727272" stroke-width="4" stroke-linecap="round"/></g><path d="M245.05431,344.90971c-0.2117,2.49102 -2.70273,2.27932 -2.70273,2.27932l-2.50344,-0.21275c-2.59534,-0.22353 -5.02343,-0.51352 -7.6153,-0.62646c-1.23669,-0.05388 -2.63535,0.30881 -3.69946,-0.32362c-0.17245,-0.10249 -0.33891,-0.21259 -0.50026,-0.32923l-0.04761,0.07734l-2.7399,-1.6868c-0.72234,-0.42904 -1.2115,-1.2121 -1.22493,-2.11375c-0.01851,-1.24292 0.87328,-2.28746 2.05872,-2.49839l2.69949,-0.53246c0,0 2.45274,-0.48377 2.93652,1.96898c0.01516,0.07687 0.02745,0.1518 0.037,0.22485c2.70066,-0.35089 6.18085,0.66174 8.51915,0.85752l2.50344,0.21276c0,0 2.49102,0.2117 2.27932,2.70272z" fill="#5f5f5f" stroke="none" stroke-width="0.5" stroke-linecap="butt"/><path d="M256.41173,343.03223c-0.75518,2.38322 -3.13839,1.62804 -3.13839,1.62804l-1.26105,-0.61163c-0.99865,0.09821 -1.9973,0.19642 -2.99595,0.29463c0,0 -2.488,0.24468 -2.73268,-2.24331c-0.24469,-2.488 2.24331,-2.73268 2.24331,-2.73268c0.99865,-0.09821 1.9973,-0.19642 2.99595,-0.29463l3.26078,0.82121c0,0 2.38322,0.75516 1.62804,3.13838z" fill="#5f5f5f" stroke="none" stroke-width="0.5" stroke-linecap="butt"/></g></g></svg>