<svg version="1.1" xmlns="http://www.w3.org/2000/svg" xmlns:xlink="http://www.w3.org/1999/xlink" width="62.97463" height="38.05686" viewBox="0,0,62.97463,38.05686"><defs><linearGradient x1="220.50543" y1="172.64817" x2="216.09796" y2="172.64817" gradientUnits="userSpaceOnUse" id="color-1"><stop offset="0" stop-color="#898989"/><stop offset="1" stop-color="#a1a1a1"/></linearGradient><linearGradient x1="215.44547" y1="172.70192" x2="212.86549" y2="172.70192" gradientUnits="userSpaceOnUse" id="color-2"><stop offset="0" stop-color="#a1a1a1"/><stop offset="1" stop-color="#898989"/></linearGradient><linearGradient x1="223.46791" y1="185.35442" x2="221.74792" y2="185.35442" gradientUnits="userSpaceOnUse" id="color-3"><stop offset="0" stop-color="#898989"/><stop offset="1" stop-color="#a1a1a1"/></linearGradient><linearGradient x1="220.78043" y1="185.35442" x2="216.37296" y2="185.35442" gradientUnits="userSpaceOnUse" id="color-4"><stop offset="0" stop-color="#898989"/><stop offset="1" stop-color="#a1a1a1"/></linearGradient><linearGradient x1="215.7397" y1="185.40817" x2="213.15972" y2="185.40817" gradientUnits="userSpaceOnUse" id="color-5"><stop offset="0" stop-color="#a1a1a1"/><stop offset="1" stop-color="#898989"/></linearGradient><linearGradient x1="223.19291" y1="172.64817" x2="221.47292" y2="172.64817" gradientUnits="userSpaceOnUse" id="color-6"><stop offset="0" stop-color="#898989"/><stop offset="1" stop-color="#a1a1a1"/></linearGradient><linearGradient x1="216.95474" y1="184.14902" x2="216.95474" y2="187.3255" gradientUnits="userSpaceOnUse" id="color-7"><stop offset="0" stop-color="#b7b7b7" stop-opacity="0"/><stop offset="1" stop-color="#b7b7b7"/></linearGradient><linearGradient x1="210.80089" y1="184.91825" x2="210.80089" y2="188.09473" gradientUnits="userSpaceOnUse" id="color-8"><stop offset="0" stop-color="#b7b7b7" stop-opacity="0"/><stop offset="1" stop-color="#b7b7b7"/></linearGradient><linearGradient x1="210.72397" y1="172.30287" x2="210.72397" y2="175.47935" gradientUnits="userSpaceOnUse" id="color-9"><stop offset="0" stop-color="#b7b7b7" stop-opacity="0"/><stop offset="1" stop-color="#b7b7b7"/></linearGradient><linearGradient x1="216.80089" y1="171.37979" x2="216.80089" y2="174.55627" gradientUnits="userSpaceOnUse" id="color-10"><stop offset="0" stop-color="#b7b7b7" stop-opacity="0"/><stop offset="1" stop-color="#b7b7b7"/></linearGradient><linearGradient x1="259.17022" y1="172.64817" x2="263.57769" y2="172.64817" gradientUnits="userSpaceOnUse" id="color-11"><stop offset="0" stop-color="#898989"/><stop offset="1" stop-color="#a1a1a1"/></linearGradient><linearGradient x1="264.23018" y1="172.70192" x2="266.81016" y2="172.70192" gradientUnits="userSpaceOnUse" id="color-12"><stop offset="0" stop-color="#a1a1a1"/><stop offset="1" stop-color="#898989"/></linearGradient><linearGradient x1="256.20773" y1="185.35442" x2="257.92772" y2="185.35442" gradientUnits="userSpaceOnUse" id="color-13"><stop offset="0" stop-color="#898989"/><stop offset="1" stop-color="#a1a1a1"/></linearGradient><linearGradient x1="258.89522" y1="185.35442" x2="263.30269" y2="185.35442" gradientUnits="userSpaceOnUse" id="color-14"><stop offset="0" stop-color="#898989"/><stop offset="1" stop-color="#a1a1a1"/></linearGradient><linearGradient x1="263.93595" y1="185.40817" x2="266.51593" y2="185.40817" gradientUnits="userSpaceOnUse" id="color-15"><stop offset="0" stop-color="#a1a1a1"/><stop offset="1" stop-color="#898989"/></linearGradient><linearGradient x1="256.48274" y1="172.64817" x2="258.20273" y2="172.64817" gradientUnits="userSpaceOnUse" id="color-16"><stop offset="0" stop-color="#898989"/><stop offset="1" stop-color="#a1a1a1"/></linearGradient><linearGradient x1="262.72091" y1="184.14902" x2="262.72091" y2="187.3255" gradientUnits="userSpaceOnUse" id="color-17"><stop offset="0" stop-color="#b7b7b7" stop-opacity="0"/><stop offset="1" stop-color="#b7b7b7"/></linearGradient><linearGradient x1="268.87476" y1="184.91825" x2="268.87476" y2="188.09473" gradientUnits="userSpaceOnUse" id="color-18"><stop offset="0" stop-color="#b7b7b7" stop-opacity="0"/><stop offset="1" stop-color="#b7b7b7"/></linearGradient><linearGradient x1="268.95168" y1="172.30287" x2="268.95168" y2="175.47935" gradientUnits="userSpaceOnUse" id="color-19"><stop offset="0" stop-color="#b7b7b7" stop-opacity="0"/><stop offset="1" stop-color="#b7b7b7"/></linearGradient><linearGradient x1="262.87475" y1="171.37979" x2="262.87475" y2="174.55627" gradientUnits="userSpaceOnUse" id="color-20"><stop offset="0" stop-color="#b7b7b7" stop-opacity="0"/><stop offset="1" stop-color="#b7b7b7"/></linearGradient><linearGradient x1="239.96163" y1="159.59737" x2="239.96163" y2="165.78551" gradientUnits="userSpaceOnUse" id="color-21"><stop offset="0" stop-color="#ffca00"/><stop offset="1" stop-color="#deb200"/></linearGradient><linearGradient x1="239.77981" y1="191.35411" x2="239.77981" y2="197.54225" gradientUnits="userSpaceOnUse" id="color-22"><stop offset="0" stop-color="#deb200"/><stop offset="1" stop-color="#ffca00"/></linearGradient><linearGradient x1="239.76189" y1="191.37498" x2="239.76189" y2="192.61041" gradientUnits="userSpaceOnUse" id="color-23"><stop offset="0" stop-color="#deb200"/><stop offset="1" stop-color="#deb200" stop-opacity="0"/></linearGradient><linearGradient x1="239.76189" y1="164.62171" x2="239.76189" y2="165.85714" gradientUnits="userSpaceOnUse" id="color-24"><stop offset="0" stop-color="#deb200" stop-opacity="0"/><stop offset="1" stop-color="#deb200"/></linearGradient><linearGradient x1="240.44839" y1="187.58815" x2="240.44839" y2="189.22813" gradientUnits="userSpaceOnUse" id="color-25"><stop offset="0" stop-color="#deb200"/><stop offset="1" stop-color="#deb200" stop-opacity="0"/></linearGradient><linearGradient x1="240.44839" y1="183.08815" x2="240.44839" y2="184.72813" gradientUnits="userSpaceOnUse" id="color-26"><stop offset="0" stop-color="#deb200" stop-opacity="0"/><stop offset="1" stop-color="#deb200"/></linearGradient><linearGradient x1="240.43021" y1="172.58815" x2="240.43021" y2="174.22813" gradientUnits="userSpaceOnUse" id="color-27"><stop offset="0" stop-color="#deb200"/><stop offset="1" stop-color="#deb200" stop-opacity="0"/></linearGradient><linearGradient x1="240.43021" y1="168.08815" x2="240.43021" y2="169.72813" gradientUnits="userSpaceOnUse" id="color-28"><stop offset="0" stop-color="#deb200" stop-opacity="0"/><stop offset="1" stop-color="#deb200"/></linearGradient><radialGradient cx="233.96566" cy="171.15042" r="3.63636" gradientUnits="userSpaceOnUse" id="color-29"><stop offset="0" stop-color="#9f9f9f"/><stop offset="1" stop-color="#838383"/></radialGradient><radialGradient cx="234.04258" cy="186.22734" r="3.63636" gradientUnits="userSpaceOnUse" id="color-30"><stop offset="0" stop-color="#9f9f9f"/><stop offset="1" stop-color="#838383"/></radialGradient></defs><g transform="translate(-208.3505,-159.54137)"><g data-paper-data="{&quot;isPaintingLayer&quot;:true}" fill-rule="nonzero" stroke-linejoin="miter" stroke-miterlimit="10" stroke-dasharray="" stroke-dashoffset="0" style="mix-blend-mode: normal"><g data-paper-data="{&quot;index&quot;:null}" stroke-linecap="butt"><path d="M209.68305,174.31441v-3.22498h16.12491v3.22498z" fill="#a1a1a1" stroke="#a1a1a1" stroke-width="0.5"/><path d="M220.72043,174.63691v-3.97748h11.07244v3.97748z" fill="#a1a1a1" stroke="#a1a1a1" stroke-width="0.5"/><path d="M216.09795,174.42191v-3.54748h4.40748v3.54748z" fill="url(#color-1)" stroke="none" stroke-width="0"/><path d="M212.86547,174.52941v-3.65499h2.57999v3.65499z" fill="url(#color-2)" stroke="none" stroke-width="0"/><path d="M209.95804,187.02066v-3.22498h16.12491v3.22498z" fill="#a1a1a1" stroke="#a1a1a1" stroke-width="0.5"/><path d="M208.6255,187.88066v-5.05248h4.29998v5.05248z" fill="#a1a1a1" stroke="#a1a1a1" stroke-width="0.5"/><path d="M220.99543,187.34316v-3.97748h11.07244v3.97748z" fill="#a1a1a1" stroke="#a1a1a1" stroke-width="0.5"/><path d="M221.74792,187.55816v-4.40748h1.71999v4.40748z" fill="url(#color-3)" stroke="none" stroke-width="0"/><path d="M216.37295,187.12816v-3.54748h4.40748v3.54748z" fill="url(#color-4)" stroke="none" stroke-width="0"/><path d="M213.15971,187.23566v-3.65498h2.57999v3.65498z" fill="url(#color-5)" stroke="none" stroke-width="0"/><path d="M221.47292,174.85191v-4.40748h1.71999v4.40748z" fill="url(#color-6)" stroke="none" stroke-width="0"/><path d="M213.12701,187.3255v-3.17647h7.65546v3.17647z" fill="url(#color-7)" stroke="none" stroke-width="0"/><path d="M208.43471,188.09473v-3.17647h4.73238v3.17647z" fill="url(#color-8)" stroke="none" stroke-width="0"/><path d="M208.60051,175.17441v-5.05247h4.29998v5.05247z" fill="#a1a1a1" stroke="#a1a1a1" stroke-width="0.5"/><path d="M208.35778,175.47935v-3.17647h4.73238v3.17647z" fill="url(#color-9)" stroke="none" stroke-width="0"/><path d="M213.12701,174.55627v-3.17647h7.34777v3.17647z" fill="url(#color-10)" stroke="none" stroke-width="0"/></g><g stroke-linecap="butt"><path d="M253.86769,174.31441v-3.22498h16.12491v3.22498z" fill="#a1a1a1" stroke="#a1a1a1" stroke-width="0.5"/><path d="M247.88278,174.63691v-3.97748h11.07244v3.97748z" fill="#a1a1a1" stroke="#a1a1a1" stroke-width="0.5"/><path d="M259.17022,174.42191v-3.54748h4.40748v3.54748z" fill="url(#color-11)" stroke="none" stroke-width="0"/><path d="M264.23018,174.52941v-3.65499h2.57999v3.65499z" fill="url(#color-12)" stroke="none" stroke-width="0"/><path d="M253.59269,187.02066v-3.22498h16.12491v3.22498z" fill="#a1a1a1" stroke="#a1a1a1" stroke-width="0.5"/><path d="M266.75016,187.88066v-5.05248h4.29998v5.05248z" fill="#a1a1a1" stroke="#a1a1a1" stroke-width="0.5"/><path d="M247.60778,187.34316v-3.97748h11.07244v3.97748z" fill="#a1a1a1" stroke="#a1a1a1" stroke-width="0.5"/><path d="M256.20773,187.55816v-4.40748h1.71999v4.40748z" fill="url(#color-13)" stroke="none" stroke-width="0"/><path d="M258.89522,187.12816v-3.54748h4.40748v3.54748z" fill="url(#color-14)" stroke="none" stroke-width="0"/><path d="M263.93595,187.23566v-3.65498h2.57999v3.65498z" fill="url(#color-15)" stroke="none" stroke-width="0"/><path d="M256.48274,174.85191v-4.40748h1.71999v4.40748z" fill="url(#color-16)" stroke="none" stroke-width="0"/><path d="M258.89318,187.3255v-3.17647h7.65546v3.17647z" fill="url(#color-17)" stroke="none" stroke-width="0"/><path d="M266.50856,188.09473v-3.17647h4.73238v3.17647z" fill="url(#color-18)" stroke="none" stroke-width="0"/><path d="M266.77516,175.17441v-5.05247h4.29998v5.05247z" fill="#a1a1a1" stroke="#a1a1a1" stroke-width="0.5"/><path d="M266.58549,175.47935v-3.17647h4.73238v3.17647z" fill="url(#color-19)" stroke="none" stroke-width="0"/><path d="M259.20087,174.55627v-3.17647h7.34777v3.17647z" fill="url(#color-20)" stroke="none" stroke-width="0"/></g><g data-paper-data="{&quot;index&quot;:null}" stroke="none" stroke-width="0" stroke-linecap="butt"><path d="M228.61671,159.54137h22.68986v21.42049h-22.68986z" fill="#ffca00"/><path d="M228.77538,159.59737h22.37251v6.18814h-22.37251z" fill="url(#color-21)"/></g><g stroke="none" stroke-width="0" stroke-linecap="butt"><path d="M228.43488,176.17775h22.68986v21.42049h-22.68986z" fill="#ffca00"/><path d="M228.59355,191.35411h22.37251v6.18814h-22.37251z" fill="url(#color-22)"/></g><g><path d="M249.66766,190.79571l-2.10313,2.78383l-3.66665,0.01053l-1.5632,-2.66219l-4.55617,-0.20914l-0.66412,0.8908l-1.54916,2.22668l-3.66665,0.01053l-1.78574,-2.77265z" fill="#ffca00" stroke="#eebe00" stroke-width="0.5" stroke-linecap="round"/><path d="M248.72246,192.55898l-5.66308,0.01626l-0.8269,-1.1741l-4.68807,0.00448l-0.77911,1.1877l-5.95719,0.0171l-0.76809,-1.17962l19.44377,-0.05581z" fill="url(#color-23)" stroke="none" stroke-width="0" stroke-linecap="butt"/></g><g data-paper-data="{&quot;index&quot;:null}"><path d="M230.11285,166.15804l1.78574,-2.77265l3.66665,0.01052l1.54916,2.22668l0.66412,0.8908l4.55617,-0.20914l1.5632,-2.66219l3.66664,0.01053l2.10313,2.78383z" fill="#ffca00" stroke="#eebe00" stroke-width="0.5" stroke-linecap="round"/><path d="M249.48377,165.85714l-19.44377,-0.05581l0.76809,-1.17962l5.9572,0.0171l0.7791,1.1877l4.68807,0.00448l0.82691,-1.1741l5.66307,0.01626z" fill="url(#color-24)" stroke="none" stroke-width="0" stroke-linecap="butt"/></g><path d="M223.38678,165.81127h32.97409v25.54592h-32.97409z" fill="#ffca00" stroke="none" stroke-width="0" stroke-linecap="butt"/><path d="M225.57945,189.2226v-21.15572h6.97038l8.14182,10.44303l-0.07085,10.71269z" fill="#deb200" stroke="#eebe00" stroke-width="0.5" stroke-linecap="butt"/><path d="M253.935,167.91076v9.56803h-3.15247l-3.68228,-4.72304l0.03205,-4.84499z" data-paper-data="{&quot;index&quot;:null}" fill="#deb200" stroke="#eebe00" stroke-width="0.5" stroke-linecap="butt"/><g stroke="none" stroke-width="0" stroke-linecap="butt"><path d="M226.94596,187.58815v-2.85744h26.6945v2.85744z" fill="#ffca00"/><path d="M226.94596,189.22813v-1.63998h27.00489v1.63998z" fill="url(#color-25)"/><path d="M253.95085,183.08815v1.63998h-27.0049v-1.63998z" data-paper-data="{&quot;index&quot;:null}" fill="url(#color-26)"/></g><g stroke="none" stroke-width="0" stroke-linecap="butt"><path d="M226.92777,172.58815v-2.85744h26.6945v2.85744z" fill="#ffca00"/><path d="M226.92777,174.22813v-1.63998h27.00489v1.63998z" fill="url(#color-27)"/><path d="M253.93267,168.08815v1.63998h-27.0049v-1.63998z" data-paper-data="{&quot;index&quot;:null}" fill="url(#color-28)"/></g><path d="M231.89161,171.12278l7.27273,0.03431" fill="none" stroke="url(#color-29)" stroke-width="2.5" stroke-linecap="round"/><path d="M239.24126,186.23402l-7.27273,-0.03431" fill="none" stroke="url(#color-30)" stroke-width="2.5" stroke-linecap="round"/><path d="M242.99348,177.47122c-0.02126,-0.09694 -0.02126,-0.16667 -0.02126,-0.16667v-0.55556c0.40047,-2.78987 3.00308,-2.03383 3.65296,0.24076c1.22618,1.83096 4.99766,1.02181 5.39524,3.65448c0.28936,1.91602 -1.98912,2.21975 -3.29112,2.06974c-2.50598,-0.28873 -5.70852,-2.50749 -5.75709,-5.07608c0,0 0,-0.06973 0.02126,-0.16667z" fill="#ffd800" stroke="none" stroke-width="0.5" stroke-linecap="butt"/><path d="M250.25,190.19344c0,0.75 -0.75,0.75 -0.75,0.75l-0.81925,-0.00115c-1.2604,-0.14651 -2.06895,0.25626 -3.2969,0.43805c0,0 -0.74246,0.10607 -0.84853,-0.6364c-0.10607,-0.74246 0.6364,-0.84853 0.6364,-0.84853c1.31092,-0.17892 2.22165,-0.59678 3.59199,-0.45083l0.7363,-0.00115c0,0 0.75,0 0.75,0.75z" fill="#ffd800" stroke="none" stroke-width="0.5" stroke-linecap="butt"/><path d="M224.72222,167.55454c0.75,0 0.75,0.75 0.75,0.75l-0.00579,0.75969c-0.21203,1.67649 -0.32754,3.20444 -0.32754,4.90697c0,0 0,0.75 -0.75,0.75c-0.75,0 -0.75,-0.75 -0.75,-0.75c0,-1.75898 0.12517,-3.35884 0.33912,-5.09303l-0.00579,-0.57364c0,0 0,-0.75 0.75,-0.75z" fill="#ffd800" stroke="none" stroke-width="0.5" stroke-linecap="butt"/><path d="M254.13889,166.63788c0,0.75 -0.75,0.75 -0.75,0.75l-0.72461,-0.00189c-1.26932,0.18459 -2.3199,0.15494 -3.59064,-0.0039c0,0 -0.74421,-0.09303 -0.65118,-0.83723c0.09303,-0.74421 0.83723,-0.65118 0.83723,-0.65118c1.18797,0.1485 2.11246,0.16279 3.29825,-0.0039l0.83094,-0.00189c0,0 0.75,0 0.75,0.75z" fill="#ffd800" stroke="none" stroke-width="0.5" stroke-linecap="butt"/><path d="M252.8835,180.78932c0.0413,-0.16519 0.11072,-0.28349 0.19337,-0.3677c0.01767,-0.09633 0.05873,-0.20034 0.13242,-0.31087c0.41603,-0.62404 1.04006,-0.20801 1.04006,-0.20801c0.5609,0.42368 0.97212,1.10379 1.10987,1.79309l-0.01706,0.05317h0.01894v0.77778c0,0.41421 -0.33579,0.75 -0.75,0.75c-0.23361,0 -0.44228,-0.10681 -0.57983,-0.27426l-0.55189,-0.66227l0.23768,-0.19807c-0.13344,-0.18354 -0.24292,-0.37767 -0.31554,-0.58133l0.02768,0.13798c0,0 -0.72761,-0.1819 -0.54571,-0.90951z" fill="#ffd800" stroke="none" stroke-width="0.5" stroke-linecap="butt"/></g></g></svg>