<svg version="1.1" xmlns="http://www.w3.org/2000/svg" xmlns:xlink="http://www.w3.org/1999/xlink" width="152.39294" height="13.8839" viewBox="0,0,152.39294,13.8839"><g transform="translate(-166.57658,-259.59461)"><g data-paper-data="{&quot;isPaintingLayer&quot;:true}" fill="#00edff" fill-rule="nonzero" stroke="#00edff" stroke-width="0.5" stroke-linecap="square" stroke-linejoin="miter" stroke-miterlimit="10" stroke-dasharray="" stroke-dashoffset="0" style="mix-blend-mode: normal"><g><path d="M167.50563,273.22849c-0.19714,0 -0.36143,-0.06571 -0.49286,-0.19714c-0.12413,-0.12413 -0.18619,-0.28477 -0.18619,-0.48191v-11.90533c0,-0.20445 0.06206,-0.37238 0.1862,-0.50381c0.13143,-0.13143 0.29572,-0.19714 0.49286,-0.19714h1.9824c0.20445,0 0.36873,0.06571 0.49287,0.19714c0.12413,0.13143 0.1862,0.29936 0.1862,0.50381c0,0.18984 -0.06207,0.34682 -0.18619,0.47096c-0.12413,0.12413 -0.28842,0.1862 -0.49286,0.1862h-1.30334v10.56913h1.30335c0.20445,0 0.36873,0.06206 0.49287,0.1862c0.12413,0.13143 0.1862,0.29572 0.1862,0.49287c0,0.19714 -0.06207,0.35777 -0.18619,0.48191c-0.12413,0.13143 -0.28841,0.19714 -0.49285,0.19714zM176.73341,270.17275c-0.18984,0 -0.35048,-0.06571 -0.48191,-0.19714c-0.13143,-0.13143 -0.19714,-0.29206 -0.19714,-0.48191v-8.8496c0,-0.20445 0.06571,-0.36873 0.19714,-0.49286c0.13143,-0.13143 0.29207,-0.19714 0.48191,-0.19714h2.61764c0.65715,0 1.23763,0.14603 1.74145,0.4381c0.50381,0.28476 0.89811,0.68271 1.18287,1.19382c0.28476,0.51112 0.42715,1.0989 0.42715,1.76334c0,0.63524 -0.14238,1.20112 -0.42714,1.69764c-0.28476,0.49652 -0.67905,0.88349 -1.18287,1.16096c-0.50381,0.27747 -1.08429,0.41619 -1.74144,0.41619h-1.92763v2.86955c0,0.18985 -0.06571,0.35048 -0.19714,0.48191c-0.12413,0.13143 -0.28842,0.19714 -0.49286,0.19714zM177.42341,265.37557h1.92764c0.40159,0 0.75572,-0.08762 1.06239,-0.26286c0.30667,-0.17524 0.54762,-0.41619 0.72286,-0.72286c0.17524,-0.30667 0.26286,-0.6535 0.26286,-1.04048c0,-0.4235 -0.08762,-0.79223 -0.26286,-1.10619c-0.17524,-0.32127 -0.41619,-0.57318 -0.72286,-0.75572c-0.30667,-0.18255 -0.6608,-0.27381 -1.06239,-0.27381h-1.92763zM184.71626,265.70414c0,-0.52572 0.12778,-0.99302 0.38334,-1.40192c0.25556,-0.41619 0.60239,-0.74476 1.04049,-0.98572c0.4381,-0.24826 0.91636,-0.37239 1.43478,-0.37239c0.52572,0 0.91636,0.08396 1.17192,0.2519c0.26286,0.16794 0.36143,0.37238 0.29572,0.61334c-0.0219,0.11682 -0.07302,0.2081 -0.15333,0.27382c-0.07302,0.06571 -0.15698,0.10953 -0.2519,0.13143c-0.09492,0.01461 -0.19714,0.0073 -0.30667,-0.02191c-0.56222,-0.10953 -1.06604,-0.11682 -1.51144,-0.0219c-0.4454,0.09492 -0.79588,0.27381 -1.05144,0.53667c-0.25556,0.26286 -0.38334,0.59508 -0.38334,0.99668zM184.72721,270.17275c-0.20445,0 -0.36508,-0.05476 -0.48191,-0.16428c-0.11683,-0.10953 -0.17524,-0.27381 -0.17524,-0.49286v-5.83766c0,-0.21175 0.05841,-0.37238 0.17524,-0.48191c0.11683,-0.11682 0.27746,-0.17524 0.48191,-0.17524c0.21905,0 0.38334,0.05476 0.49286,0.16428c0.10953,0.10953 0.16429,0.27382 0.16429,0.49287v5.83767c0,0.21175 -0.05476,0.37604 -0.16428,0.49287c-0.10953,0.10953 -0.27381,0.16429 -0.49286,0.16429zM193.26463,270.22751c-0.72286,0 -1.36541,-0.15333 -1.92764,-0.46c-0.56222,-0.31397 -1.00397,-0.74112 -1.32524,-1.28144c-0.31398,-0.54762 -0.47095,-1.17557 -0.47095,-1.88382c0,-0.71556 0.14968,-1.3435 0.44905,-1.88383c0.29936,-0.54762 0.71556,-0.97477 1.24858,-1.28144c0.53302,-0.31397 1.14271,-0.47095 1.82907,-0.47095c0.68636,0 1.27049,0.14968 1.7524,0.44905c0.48921,0.29937 0.86159,0.71556 1.11715,1.24858c0.26286,0.52572 0.39429,1.13176 0.39429,1.81811c0,0.16794 -0.05841,0.30667 -0.17524,0.41619c-0.10953,0.10953 -0.2519,0.16429 -0.42714,0.16429h-5.26813v-1.05144h5.22433l-0.53667,0.37238c-0.0073,-0.4381 -0.09492,-0.82874 -0.26286,-1.17191c-0.16064,-0.34318 -0.39429,-0.61334 -0.70096,-0.81048c-0.30667,-0.20444 -0.67905,-0.30667 -1.11715,-0.30667c-0.49651,0 -0.92001,0.10953 -1.27049,0.32857c-0.35048,0.21175 -0.62064,0.50747 -0.81048,0.88715c-0.18255,0.37968 -0.27381,0.81048 -0.27381,1.29239c0,0.48191 0.10953,0.90906 0.32857,1.28144c0.21905,0.37238 0.51842,0.66811 0.8981,0.88716c0.38699,0.21905 0.82874,0.32857 1.32525,0.32857c0.27016,0 0.54762,-0.04746 0.83239,-0.14238c0.28476,-0.10223 0.51477,-0.21905 0.69001,-0.35048c0.13143,-0.09492 0.27382,-0.14604 0.42715,-0.15334c0.15333,-0.0073 0.28476,0.04016 0.39429,0.14239c0.14603,0.12413 0.2227,0.26651 0.23001,0.42715c0.0146,0.15333 -0.05476,0.28842 -0.20809,0.40525c-0.29207,0.23366 -0.6608,0.42715 -1.1062,0.58048c-0.4381,0.14604 -0.85794,0.21905 -1.25953,0.21905zM200.62991,270.22751c-0.61334,0 -1.17922,-0.09491 -1.69763,-0.28476c-0.51842,-0.18985 -0.92001,-0.42714 -1.20477,-0.71191c-0.13143,-0.13873 -0.18619,-0.29571 -0.16428,-0.47095c0.0219,-0.18254 0.10587,-0.33223 0.25191,-0.44905c0.17524,-0.13873 0.34683,-0.19714 0.51477,-0.17524c0.17524,0.0219 0.32492,0.09858 0.44905,0.23001c0.14603,0.16794 0.37969,0.32492 0.70096,0.47096c0.32857,0.13873 0.69366,0.2081 1.09525,0.2081c0.51112,0 0.8981,-0.08032 1.16096,-0.24095c0.26286,-0.16794 0.40159,-0.38333 0.41619,-0.64619c0.0073,-0.26286 -0.12048,-0.4892 -0.38334,-0.67905c-0.25556,-0.18985 -0.72286,-0.34683 -1.40191,-0.47095c-0.8762,-0.17524 -1.51509,-0.43445 -1.91668,-0.77762c-0.39429,-0.35048 -0.59143,-0.78128 -0.59143,-1.29239c0,-0.4381 0.13143,-0.80319 0.39429,-1.09525c0.26286,-0.29206 0.59874,-0.51111 1.00763,-0.65715c0.40889,-0.14603 0.83604,-0.21905 1.28144,-0.21905c0.57683,0 1.0843,0.09127 1.5224,0.27381c0.4454,0.18254 0.79953,0.43444 1.06239,0.75572c0.12413,0.14604 0.17889,0.29572 0.16429,0.44905c-0.0073,0.14604 -0.08032,0.27381 -0.21905,0.38334c-0.13873,0.09492 -0.30301,0.12413 -0.49285,0.08762c-0.18984,-0.03651 -0.35048,-0.11318 -0.48191,-0.23c-0.21905,-0.21175 -0.45635,-0.35777 -0.71191,-0.4381c-0.24826,-0.08032 -0.54032,-0.12047 -0.87619,-0.12047c-0.37969,0 -0.70461,0.06571 -0.97477,0.19714c-0.26286,0.13143 -0.39429,0.32492 -0.39429,0.58048c0,0.15333 0.04016,0.29572 0.12048,0.42715c0.08762,0.12413 0.25191,0.2373 0.49287,0.33953c0.24826,0.09492 0.60603,0.19349 1.07334,0.29572c0.65715,0.12413 1.17192,0.28842 1.5443,0.49287c0.37969,0.19714 0.6535,0.4308 0.82144,0.70096c0.16794,0.26286 0.25191,0.56953 0.25191,0.92001c0,0.40159 -0.10953,0.76302 -0.32857,1.0843c-0.21174,0.32128 -0.52572,0.58048 -0.94191,0.77763c-0.40889,0.18985 -0.92366,0.28476 -1.54429,0.28476zM207.73083,270.22751c-0.61334,0 -1.17922,-0.09491 -1.69763,-0.28476c-0.51842,-0.18985 -0.92001,-0.42714 -1.20477,-0.71191c-0.13143,-0.13873 -0.18619,-0.29571 -0.16428,-0.47095c0.0219,-0.18254 0.10587,-0.33223 0.25191,-0.44905c0.17524,-0.13873 0.34683,-0.19714 0.51477,-0.17524c0.17524,0.0219 0.32492,0.09858 0.44905,0.23001c0.14603,0.16794 0.37969,0.32492 0.70096,0.47096c0.32857,0.13873 0.69365,0.2081 1.09525,0.2081c0.51112,0 0.8981,-0.08032 1.16096,-0.24095c0.26286,-0.16794 0.40159,-0.38333 0.41619,-0.64619c0.0073,-0.26286 -0.12048,-0.4892 -0.38334,-0.67905c-0.25556,-0.18985 -0.72286,-0.34683 -1.40191,-0.47095c-0.8762,-0.17524 -1.51509,-0.43445 -1.91668,-0.77762c-0.39429,-0.35048 -0.59143,-0.78128 -0.59143,-1.29239c0,-0.4381 0.13143,-0.80319 0.39429,-1.09525c0.26286,-0.29206 0.59874,-0.51111 1.00763,-0.65715c0.40889,-0.14603 0.83604,-0.21905 1.28144,-0.21905c0.57683,0 1.0843,0.09127 1.5224,0.27381c0.4454,0.18254 0.79953,0.43444 1.06239,0.75572c0.12413,0.14604 0.17889,0.29572 0.16429,0.44905c-0.0073,0.14604 -0.08032,0.27381 -0.21905,0.38334c-0.13873,0.09492 -0.30301,0.12413 -0.49285,0.08762c-0.18984,-0.03651 -0.35048,-0.11318 -0.48191,-0.23c-0.21905,-0.21175 -0.45635,-0.35777 -0.71191,-0.4381c-0.24826,-0.08032 -0.54032,-0.12047 -0.87619,-0.12047c-0.37969,0 -0.70461,0.06571 -0.97477,0.19714c-0.26286,0.13143 -0.39429,0.32492 -0.39429,0.58048c0,0.15333 0.04016,0.29572 0.12048,0.42715c0.08762,0.12413 0.25191,0.2373 0.49287,0.33953c0.24826,0.09492 0.60603,0.19349 1.07334,0.29572c0.65715,0.12413 1.17192,0.28842 1.5443,0.49287c0.37969,0.19714 0.6535,0.4308 0.82144,0.70096c0.16794,0.26286 0.25191,0.56953 0.25191,0.92001c0,0.40159 -0.10953,0.76302 -0.32857,1.0843c-0.21174,0.32128 -0.52572,0.58048 -0.94191,0.77763c-0.40889,0.18985 -0.92366,0.28476 -1.54429,0.28476z"/><path d="M216.86721,270.17276c-0.18984,0 -0.33587,-0.06571 -0.4381,-0.19714c-0.10222,-0.13143 -0.13508,-0.29206 -0.09857,-0.48191l1.88382,-8.8496c0.04381,-0.20445 0.14239,-0.36873 0.29572,-0.49286c0.16064,-0.13143 0.33588,-0.19714 0.52572,-0.19714h5.91433c0.20445,0 0.35413,0.06206 0.44905,0.1862c0.09492,0.11683 0.12413,0.27016 0.08762,0.46c-0.04381,0.18255 -0.13873,0.33222 -0.28476,0.44905c-0.13873,0.10953 -0.31033,0.16429 -0.51477,0.16429h-5.22432l-0.67905,3.17622h3.74574c0.20445,0 0.35413,0.05842 0.44905,0.17524c0.09492,0.11682 0.12413,0.27016 0.08762,0.46c-0.03651,0.18254 -0.12778,0.33222 -0.27381,0.44905c-0.14603,0.11682 -0.32127,0.17524 -0.52572,0.17524h-3.74574l-0.70096,3.26384h5.22433c0.20445,0 0.35413,0.05842 0.44905,0.17524c0.10222,0.10953 0.13508,0.25556 0.09857,0.4381c-0.04381,0.19714 -0.13873,0.35413 -0.28476,0.47096c-0.14603,0.11682 -0.32127,0.17524 -0.52572,0.17524zM231.25656,270.18371c-0.18984,0 -0.33587,-0.06207 -0.4381,-0.18619c-0.10222,-0.12413 -0.13143,-0.28476 -0.08762,-0.48191l0.67905,-3.20907c0.10222,-0.49652 0.09492,-0.90176 -0.02191,-1.21572c-0.10953,-0.31397 -0.30302,-0.54762 -0.58048,-0.70096c-0.27746,-0.15333 -0.61699,-0.23 -1.01858,-0.23c-0.36508,0 -0.7119,0.07301 -1.04048,0.21905c-0.32857,0.14604 -0.60604,0.34318 -0.83239,0.59143c-0.22635,0.24825 -0.37604,0.53667 -0.44905,0.86525h-0.82143c0.11683,-0.55492 0.35413,-1.04779 0.71191,-1.47858c0.35778,-0.4308 0.79223,-0.77032 1.30335,-1.01857c0.51842,-0.25556 1.06604,-0.38333 1.64287,-0.38333c0.60603,0 1.11715,0.12778 1.53334,0.38334c0.4235,0.25556 0.71921,0.63159 0.88716,1.1281c0.16794,0.49652 0.17524,1.10985 0.0219,1.84001l-0.67905,3.20908c-0.04381,0.19714 -0.14238,0.35777 -0.29571,0.48191c-0.15333,0.12413 -0.32492,0.1862 -0.51476,0.1862zM225.87891,270.18371c-0.18984,0 -0.33588,-0.06207 -0.4381,-0.18619c-0.10222,-0.12413 -0.13143,-0.28476 -0.08762,-0.48191l1.23763,-5.82671c0.04381,-0.20444 0.14238,-0.36509 0.29572,-0.48191c0.15333,-0.12413 0.32492,-0.18619 0.51477,-0.18619c0.20445,0 0.35413,0.06206 0.44905,0.1862c0.09492,0.11682 0.12048,0.27747 0.07667,0.48191l-1.23763,5.82672c-0.04381,0.19714 -0.13873,0.35777 -0.28476,0.48191c-0.14603,0.12413 -0.32127,0.1862 -0.52572,0.1862zM236.73618,270.17276c-0.4381,0 -0.80683,-0.10953 -1.1062,-0.32857c-0.29936,-0.22635 -0.51112,-0.52937 -0.63524,-0.90905c-0.11683,-0.38699 -0.12413,-0.82143 -0.0219,-1.30334l1.32525,-6.23195c0.04381,-0.18984 0.13873,-0.34682 0.28476,-0.47095c0.14603,-0.12413 0.31763,-0.18619 0.51477,-0.18619c0.18984,0 0.33222,0.06206 0.42715,0.1862c0.09492,0.12413 0.12048,0.28111 0.07667,0.47096l-1.32524,6.23196c-0.07302,0.35048 -0.04016,0.6462 0.09858,0.88715c0.14603,0.23366 0.35778,0.35048 0.63524,0.35048h0.44905c0.15333,0 0.27016,0.06206 0.35048,0.1862c0.08762,0.11682 0.11318,0.27016 0.07667,0.46c-0.04381,0.19714 -0.14968,0.35777 -0.31762,0.48191c-0.16794,0.11682 -0.36508,0.17524 -0.59143,0.17524zM235.06045,264.4008c-0.18255,0 -0.32127,-0.05111 -0.41619,-0.15333c-0.08762,-0.10223 -0.11318,-0.23366 -0.07666,-0.39429c0.03651,-0.17524 0.12048,-0.31397 0.25191,-0.41619c0.13873,-0.10223 0.29936,-0.15334 0.48191,-0.15334h3.02288c0.18255,0 0.31763,0.05111 0.40524,0.15334c0.09492,0.10223 0.12413,0.24095 0.08762,0.41619c-0.03651,0.16063 -0.12413,0.29206 -0.26286,0.39429c-0.13143,0.10223 -0.28842,0.15333 -0.47095,0.15333zM242.72492,270.22751c-0.72286,0 -1.33255,-0.15333 -1.82906,-0.46c-0.49651,-0.31397 -0.84699,-0.74112 -1.05144,-1.28144c-0.19714,-0.54762 -0.2227,-1.17557 -0.07666,-1.88382c0.15333,-0.71556 0.4381,-1.3435 0.85429,-1.88383c0.41619,-0.54762 0.92366,-0.97477 1.52239,-1.28144c0.59874,-0.31397 1.24128,-0.47095 1.92764,-0.47095c0.68636,0 1.23763,0.14968 1.65382,0.44905c0.4235,0.29937 0.70826,0.71556 0.85429,1.24858c0.15333,0.52572 0.15698,1.13176 0.01095,1.81811c-0.03651,0.16794 -0.12413,0.30667 -0.26286,0.41619c-0.13873,0.10953 -0.29571,0.16429 -0.47095,0.16429h-5.26813l0.23001,-1.05144h5.22433l-0.61334,0.37239c0.08031,-0.4381 0.07301,-0.82874 -0.02191,-1.17191c-0.08762,-0.34318 -0.26286,-0.61334 -0.52572,-0.81048c-0.26286,-0.20444 -0.61334,-0.30667 -1.05144,-0.30667c-0.49651,0 -0.94556,0.10952 -1.34715,0.32857c-0.39429,0.21175 -0.72651,0.50747 -0.99667,0.88716c-0.26286,0.37968 -0.4454,0.81048 -0.54762,1.29239c-0.10222,0.48191 -0.08397,0.90906 0.05477,1.28144c0.14603,0.37238 0.38698,0.6681 0.72286,0.88715c0.33588,0.21905 0.75208,0.32857 1.24858,0.32857c0.27016,0 0.55858,-0.04746 0.86525,-0.14238c0.30667,-0.10223 0.55858,-0.21905 0.75572,-0.35048c0.15333,-0.09492 0.30667,-0.14604 0.46,-0.15333c0.16064,-0.0073 0.28476,0.04016 0.37238,0.14238c0.11683,0.12413 0.16429,0.26651 0.14239,0.42715c-0.0219,0.15333 -0.12413,0.28841 -0.30667,0.40524c-0.33588,0.23366 -0.74111,0.42715 -1.21572,0.58048c-0.4746,0.14604 -0.9127,0.21905 -1.3143,0.21905zM249.09348,265.70415c0.10953,-0.52572 0.33587,-0.99302 0.67905,-1.40191c0.34317,-0.41619 0.75937,-0.74477 1.24858,-0.98572c0.4892,-0.24826 0.99302,-0.37238 1.51144,-0.37238c0.52572,0 0.90176,0.08397 1.12811,0.25191c0.22635,0.16794 0.27746,0.37238 0.15333,0.61334c-0.04381,0.11682 -0.11318,0.2081 -0.20809,0.27381c-0.08762,0.06571 -0.18254,0.10953 -0.28476,0.13143c-0.09492,0.01461 -0.19349,0.0073 -0.29571,-0.0219c-0.54033,-0.10953 -1.04414,-0.11682 -1.51144,-0.0219c-0.46,0.09492 -0.84699,0.27381 -1.16096,0.53667c-0.31398,0.26286 -0.51112,0.59508 -0.59143,0.99668zM248.15157,270.17276c-0.20445,0 -0.35413,-0.05476 -0.44905,-0.16428c-0.09492,-0.10953 -0.11683,-0.27381 -0.06571,-0.49286l1.23763,-5.83766c0.04381,-0.21175 0.13508,-0.37238 0.27381,-0.48191c0.14603,-0.11682 0.32127,-0.17524 0.52572,-0.17524c0.21905,0 0.36873,0.05477 0.44905,0.16429c0.08762,0.10953 0.10953,0.27381 0.06571,0.49286l-1.23763,5.83767c-0.04381,0.21175 -0.13508,0.37604 -0.27381,0.49287c-0.13143,0.10953 -0.30667,0.16429 -0.52572,0.16429z"/><path d="M260.83592,270.17276c-0.18985,0 -0.35048,-0.06571 -0.48191,-0.19714c-0.13143,-0.13143 -0.19714,-0.29206 -0.19714,-0.48191v-9.5396h1.35811v9.53961c0,0.18985 -0.06571,0.35048 -0.19714,0.48191c-0.13143,0.13143 -0.29207,0.19714 -0.48191,0.19714zM257.33113,261.21364c-0.18255,0 -0.33222,-0.05841 -0.44905,-0.17524c-0.11683,-0.11683 -0.17524,-0.26651 -0.17524,-0.44905c0,-0.18255 0.05841,-0.33223 0.17524,-0.44905c0.11682,-0.12413 0.26651,-0.18619 0.44905,-0.18619h6.99863c0.18254,0 0.33222,0.06206 0.44905,0.1862c0.11682,0.11683 0.17524,0.26651 0.17524,0.44905c0,0.18255 -0.05842,0.33222 -0.17524,0.44905c-0.11683,0.11683 -0.26651,0.17524 -0.44905,0.17524zM267.61589,270.22751c-0.70826,0 -1.33255,-0.15333 -1.87287,-0.46c-0.54032,-0.31397 -0.96747,-0.74112 -1.28144,-1.28144c-0.30667,-0.54762 -0.46,-1.17557 -0.46,-1.88382c0,-0.71556 0.15333,-1.3435 0.46,-1.88383c0.31398,-0.54762 0.74112,-0.97477 1.28145,-1.28144c0.54033,-0.31397 1.16462,-0.47095 1.87288,-0.47095c0.69366,0 1.31064,0.15698 1.85097,0.47096c0.54033,0.30667 0.96382,0.73382 1.27049,1.28144c0.31398,0.54033 0.47096,1.16826 0.47096,1.88383c0,0.70826 -0.15333,1.3362 -0.46,1.88383c-0.30667,0.54033 -0.73016,0.96747 -1.27048,1.28144c-0.54032,0.30667 -1.16097,0.46 -1.86192,0.46zM267.61589,269.04465c0.4527,0 0.85064,-0.10223 1.19382,-0.30667c0.35048,-0.21175 0.62429,-0.50017 0.82144,-0.86524c0.19714,-0.36509 0.29572,-0.78858 0.29572,-1.27048c0,-0.48191 -0.09857,-0.9054 -0.29571,-1.27049c-0.19714,-0.37238 -0.47095,-0.6608 -0.82143,-0.86524c-0.34317,-0.21175 -0.74111,-0.31762 -1.19382,-0.31762c-0.46,0 -0.86524,0.10587 -1.21572,0.31763c-0.34317,0.20444 -0.61699,0.49287 -0.82143,0.86525c-0.19714,0.36509 -0.29571,0.78858 -0.29571,1.27049c0,0.48191 0.09858,0.9054 0.29572,1.27049c0.20445,0.36509 0.47825,0.6535 0.82144,0.86525c0.35048,0.20444 0.75572,0.30667 1.21573,0.30667zM280.40606,270.30419c-0.56223,0 -1.09525,-0.08762 -1.59906,-0.26286c-0.50381,-0.17524 -0.94556,-0.41984 -1.32524,-0.73381c-0.37238,-0.31397 -0.64619,-0.6754 -0.82143,-1.08429c-0.08762,-0.18254 -0.08762,-0.35048 0,-0.50381c0.09492,-0.16063 0.25191,-0.26286 0.47096,-0.30667c0.16063,-0.03651 0.31396,-0.01095 0.46,0.07667c0.15333,0.08032 0.27016,0.20444 0.35048,0.37238c0.10222,0.21905 0.27381,0.41984 0.51477,0.60239c0.24096,0.18254 0.52937,0.33222 0.86525,0.44905c0.34317,0.10953 0.70461,0.16429 1.0843,0.16429c0.41619,0 0.79953,-0.06571 1.15001,-0.19714c0.35777,-0.13143 0.64254,-0.32127 0.85429,-0.56953c0.21905,-0.24825 0.32857,-0.55492 0.32857,-0.92001c0,-0.4673 -0.18255,-0.88349 -0.54762,-1.24858c-0.35778,-0.36509 -0.94922,-0.59143 -1.7743,-0.67905c-1.08065,-0.10223 -1.93129,-0.41985 -2.55192,-0.95286c-0.62064,-0.53302 -0.93096,-1.19017 -0.93096,-1.97144c0,-0.57683 0.16063,-1.06604 0.48191,-1.46763c0.32127,-0.40159 0.75937,-0.70461 1.3143,-0.90905c0.55492,-0.21174 1.17192,-0.31762 1.85097,-0.31762c0.53302,0 0.99668,0.07302 1.39097,0.21905c0.40159,0.14603 0.74842,0.35048 1.04049,0.61334c0.29936,0.26286 0.55858,0.57318 0.77763,0.93096c0.11682,0.18984 0.16429,0.37238 0.14238,0.54762c-0.01461,0.16794 -0.09857,0.29937 -0.2519,0.39429c-0.16064,0.10222 -0.33952,0.12413 -0.53667,0.06571c-0.18985,-0.05841 -0.33222,-0.17159 -0.42714,-0.33952c-0.13873,-0.25556 -0.31032,-0.47095 -0.51476,-0.64619c-0.19714,-0.17524 -0.43081,-0.31032 -0.70096,-0.40524c-0.27016,-0.10222 -0.58778,-0.15333 -0.95286,-0.15333c-0.64985,-0.0073 -1.19382,0.11318 -1.63192,0.36144c-0.4308,0.24826 -0.64619,0.62794 -0.64619,1.13905c0,0.26286 0.06571,0.51477 0.19714,0.75573c0.13873,0.24096 0.38699,0.44905 0.74477,0.62429c0.36508,0.17524 0.88715,0.29572 1.56621,0.36144c1.03683,0.10223 1.84367,0.41985 2.4205,0.95287c0.58413,0.52572 0.8762,1.21938 0.8762,2.08097c0,0.49652 -0.10223,0.92731 -0.30667,1.29239c-0.20445,0.36509 -0.47825,0.6754 -0.82143,0.93096c-0.34318,0.24825 -0.73747,0.43445 -1.18287,0.55858c-0.4381,0.11682 -0.89081,0.17524 -1.35811,0.17524zM288.62559,270.17276c-0.4381,0 -0.83239,-0.10953 -1.18287,-0.32857c-0.34318,-0.22635 -0.61699,-0.52937 -0.82143,-0.90905c-0.19714,-0.38699 -0.29571,-0.82143 -0.29571,-1.30334v-6.23195c0,-0.18984 0.05841,-0.34682 0.17524,-0.47095c0.12413,-0.12413 0.28476,-0.18619 0.48191,-0.18619c0.18984,0 0.34317,0.06206 0.46,0.1862c0.12413,0.12413 0.1862,0.28111 0.1862,0.47096v6.23196c0,0.35048 0.09491,0.6462 0.28476,0.88715c0.19714,0.23366 0.43445,0.35048 0.71191,0.35048h0.44905c0.15333,0 0.28476,0.06206 0.39429,0.1862c0.10953,0.11682 0.16429,0.27016 0.16429,0.46c0,0.19714 -0.07302,0.35777 -0.21905,0.48191c-0.13873,0.11682 -0.32128,0.17524 -0.54763,0.17524zM285.72318,264.4008c-0.18255,0 -0.33222,-0.05111 -0.44905,-0.15333c-0.10953,-0.10223 -0.16429,-0.23366 -0.16429,-0.39429c0,-0.17524 0.05477,-0.31397 0.16429,-0.41619c0.11682,-0.10223 0.26651,-0.15334 0.44905,-0.15334h3.02288c0.18254,0 0.32857,0.05111 0.4381,0.15334c0.11682,0.10223 0.17524,0.24095 0.17524,0.41619c0,0.16063 -0.05842,0.29206 -0.17524,0.39429c-0.10953,0.10223 -0.25556,0.15333 -0.4381,0.15333zM294.25293,270.22751c-0.63524,0 -1.20842,-0.15698 -1.71953,-0.47095c-0.50381,-0.32128 -0.90176,-0.75572 -1.19382,-1.30334c-0.29206,-0.54762 -0.4381,-1.16462 -0.4381,-1.85096c0,-0.68635 0.15699,-1.30334 0.47096,-1.85096c0.32128,-0.55492 0.75207,-0.98937 1.29239,-1.30334c0.54762,-0.32128 1.16461,-0.48191 1.85097,-0.48191c0.67905,0 1.28874,0.16063 1.82907,0.48191c0.54033,0.31397 0.96747,0.74842 1.28145,1.30335c0.32128,0.54762 0.48191,1.16462 0.48191,1.85097h-0.51476c0,0.68635 -0.14603,1.30335 -0.4381,1.85097c-0.29206,0.54762 -0.69,0.98207 -1.19382,1.30335c-0.50381,0.31397 -1.07334,0.47096 -1.70858,0.47096zM294.51579,269.04465c0.4381,0 0.83239,-0.10587 1.18287,-0.31762c0.35048,-0.21175 0.6243,-0.50382 0.82144,-0.8762c0.20445,-0.37238 0.30667,-0.78858 0.30667,-1.24858c0,-0.4673 -0.10222,-0.88715 -0.30667,-1.25953c-0.19714,-0.37238 -0.47095,-0.66444 -0.82143,-0.87619c-0.35048,-0.21175 -0.74477,-0.31762 -1.18287,-0.31762c-0.4381,0 -0.83604,0.10587 -1.19382,0.31763c-0.35048,0.21175 -0.62794,0.50382 -0.83239,0.8762c-0.20444,0.37238 -0.30667,0.79223 -0.30667,1.25954c0,0.46 0.10223,0.8762 0.30667,1.24858c0.20445,0.37238 0.48191,0.66445 0.83239,0.8762c0.35778,0.21175 0.75573,0.31763 1.19382,0.31763zM297.4401,270.18371c-0.18984,0 -0.35048,-0.06207 -0.48191,-0.18619c-0.12413,-0.12413 -0.18619,-0.28476 -0.18619,-0.48191v-1.99335l0.25191,-1.39096l1.0843,0.47096v2.91336c0,0.19714 -0.06571,0.35777 -0.19714,0.48191c-0.12413,0.12413 -0.28111,0.1862 -0.47095,0.1862zM300.73624,265.70415c0,-0.52572 0.12778,-0.99302 0.38334,-1.40191c0.25556,-0.41619 0.60239,-0.74477 1.04049,-0.98572c0.4381,-0.24826 0.91636,-0.37238 1.43478,-0.37238c0.52572,0 0.91636,0.08397 1.17192,0.25191c0.26286,0.16794 0.36143,0.37238 0.29572,0.61334c-0.0219,0.11682 -0.07302,0.2081 -0.15333,0.27381c-0.07302,0.06571 -0.15698,0.10953 -0.2519,0.13143c-0.09492,0.01461 -0.19714,0.0073 -0.30667,-0.0219c-0.56223,-0.10953 -1.06604,-0.11682 -1.51144,-0.0219c-0.4454,0.09492 -0.79588,0.27381 -1.05144,0.53667c-0.25556,0.26286 -0.38334,0.59508 -0.38334,0.99668zM300.74719,270.17276c-0.20445,0 -0.36509,-0.05476 -0.48191,-0.16428c-0.11683,-0.10953 -0.17524,-0.27381 -0.17524,-0.49286v-5.83766c0,-0.21175 0.05841,-0.37238 0.17524,-0.48191c0.11682,-0.11682 0.27746,-0.17524 0.48191,-0.17524c0.21905,0 0.38334,0.05477 0.49286,0.16429c0.10953,0.10953 0.16429,0.27381 0.16429,0.49286v5.83767c0,0.21175 -0.05476,0.37604 -0.16428,0.49287c-0.10953,0.10953 -0.27381,0.16429 -0.49286,0.16429zM309.05229,270.17276c-0.4381,0 -0.83239,-0.10953 -1.18287,-0.32857c-0.34318,-0.22635 -0.61699,-0.52937 -0.82143,-0.90905c-0.19714,-0.38699 -0.29571,-0.82143 -0.29571,-1.30334v-6.23195c0,-0.18984 0.05841,-0.34682 0.17524,-0.47095c0.12413,-0.12413 0.28476,-0.18619 0.48191,-0.18619c0.18984,0 0.34317,0.06206 0.46,0.1862c0.12413,0.12413 0.1862,0.28111 0.1862,0.47096v6.23196c0,0.35048 0.09491,0.6462 0.28476,0.88715c0.19714,0.23366 0.43445,0.35048 0.71191,0.35048h0.44905c0.15333,0 0.28476,0.06206 0.39429,0.1862c0.10953,0.11682 0.16429,0.27016 0.16429,0.46c0,0.19714 -0.07302,0.35777 -0.21905,0.48191c-0.13873,0.11682 -0.32127,0.17524 -0.54762,0.17524zM306.14988,264.4008c-0.18255,0 -0.33222,-0.05111 -0.44905,-0.15333c-0.10953,-0.10223 -0.16428,-0.23366 -0.16428,-0.39429c0,-0.17524 0.05477,-0.31397 0.16429,-0.41619c0.11682,-0.10223 0.26651,-0.15334 0.44905,-0.15334h3.02288c0.18254,0 0.32857,0.05111 0.4381,0.15334c0.11682,0.10223 0.17524,0.24095 0.17524,0.41619c0,0.16063 -0.05842,0.29206 -0.17524,0.39429c-0.10953,0.10223 -0.25556,0.15333 -0.4381,0.15333zM316.04711,273.22849c-0.18985,0 -0.35048,-0.06571 -0.48191,-0.19714c-0.13143,-0.12413 -0.19714,-0.28477 -0.19714,-0.48191c0,-0.19714 0.06571,-0.36142 0.19714,-0.49285c0.13143,-0.12413 0.29206,-0.18619 0.48191,-0.18619h1.30335v-10.56913h-1.30334c-0.18985,0 -0.35048,-0.06206 -0.48191,-0.18619c-0.13143,-0.12413 -0.19714,-0.28111 -0.19714,-0.47095c0,-0.20445 0.06571,-0.37239 0.19714,-0.50382c0.13143,-0.13143 0.29206,-0.19714 0.48191,-0.19714h1.99335c0.19714,0 0.35777,0.06571 0.48191,0.19714c0.13143,0.13143 0.19714,0.29937 0.19714,0.50382v11.90534c0,0.19714 -0.06571,0.35777 -0.19714,0.48191c-0.12413,0.13143 -0.28476,0.19714 -0.48191,0.19714z"/></g></g></g></svg>