<svg version="1.1" xmlns="http://www.w3.org/2000/svg" xmlns:xlink="http://www.w3.org/1999/xlink" width="81" height="468.25" viewBox="0,0,81,468.25"><defs><linearGradient x1="236.63312" y1="308.73137" x2="212.96429" y2="308.73137" gradientUnits="userSpaceOnUse" id="color-1"><stop offset="0" stop-color="#e6fffe"/><stop offset="1" stop-color="#e6fffe" stop-opacity="0"/></linearGradient><linearGradient x1="244.52273" y1="309.39803" x2="268.19156" y2="309.39803" gradientUnits="userSpaceOnUse" id="color-2"><stop offset="0" stop-color="#e6fffe"/><stop offset="1" stop-color="#e6fffe" stop-opacity="0"/></linearGradient><radialGradient cx="239" cy="179" r="40.5" gradientUnits="userSpaceOnUse" id="color-3"><stop offset="0" stop-color="#e6fffe"/><stop offset="1" stop-color="#e6fffe" stop-opacity="0"/></radialGradient><radialGradient cx="239" cy="179" r="30.50649" gradientUnits="userSpaceOnUse" id="color-4"><stop offset="0" stop-color="#e6fffe"/><stop offset="1" stop-color="#e6fffe" stop-opacity="0"/></radialGradient><radialGradient cx="239" cy="179" r="36.81818" gradientUnits="userSpaceOnUse" id="color-5"><stop offset="0" stop-color="#e6fffe"/><stop offset="1" stop-color="#e6fffe" stop-opacity="0"/></radialGradient></defs><g transform="translate(-198.5,-140.5)"><g data-paper-data="{&quot;isPaintingLayer&quot;:true}" fill-rule="nonzero" stroke-linejoin="miter" stroke-miterlimit="10" stroke-dasharray="" stroke-dashoffset="0" style="mix-blend-mode: normal"><path d="M212.96429,509.12939v-340.79606h23.66883v340.79606z" data-paper-data="{&quot;index&quot;:null}" fill="url(#color-1)" stroke="none" stroke-width="0" stroke-linecap="butt"/><path d="M233.21429,516v-348h16.83117v348z" fill="#e6fffe" stroke="none" stroke-width="0" stroke-linecap="butt"/><path d="M244.52273,511.79606v-344.79606h23.66883v344.79606z" fill="url(#color-2)" stroke="none" stroke-width="0" stroke-linecap="butt"/><path d="M246.37957,606.25c0,0 3.41019,-25.95864 -0.17232,-53.21686c-2.96792,-22.58204 -13.04491,-46.05601 -13.04491,-56.40109c0,-12.20591 9.17166,-32.73541 10.32806,-56.89232c0.89405,-18.6765 -10.49186,-39.52123 -10.05064,-60.36394c0.42956,-20.29232 12.91846,-40.58273 15.01342,-58.86842c4.57146,-39.90155 -2.07361,-70.25737 -2.07361,-70.25737" data-paper-data="{&quot;index&quot;:null}" fill="none" stroke="#e6fffe" stroke-width="5" stroke-linecap="round"/><path d="M198.5,179c0,-21.26296 18.13247,-38.5 40.5,-38.5c22.36753,0 40.5,17.23704 40.5,38.5c0,21.26296 -18.13247,38.5 -40.5,38.5c-22.36753,0 -40.5,-17.23704 -40.5,-38.5z" fill="url(#color-3)" stroke="none" stroke-width="0" stroke-linecap="butt"/><path d="M208.49351,179c0,-16.01626 13.65822,-29 30.50649,-29c16.84827,0 30.50649,12.98374 30.50649,29c0,16.01626 -13.65822,29 -30.50649,29c-16.84827,0 -30.50649,-12.98374 -30.50649,-29z" fill="url(#color-4)" stroke="none" stroke-width="0" stroke-linecap="butt"/><path d="M202.18182,179c0,-19.32997 16.48406,-35 36.81818,-35c20.33412,0 36.81818,15.67003 36.81818,35c0,19.32997 -16.48406,35 -36.81818,35c-20.33412,0 -36.81818,-15.67003 -36.81818,-35z" fill="url(#color-5)" stroke="none" stroke-width="0" stroke-linecap="butt"/><path d="M246.37957,537.25c0,0 3.41019,-25.95864 -0.17232,-53.21686c-2.96792,-22.58204 -13.04491,-46.05601 -13.04491,-56.40109c0,-12.20591 9.17166,-32.73541 10.32806,-56.89232c0.89405,-18.6765 -10.49186,-39.52123 -10.05064,-60.36394c0.42956,-20.29232 12.91846,-40.58273 15.01342,-58.86842c4.57146,-39.90155 -2.07361,-70.25737 -2.07361,-70.25737" data-paper-data="{&quot;index&quot;:null}" fill="none" stroke="#e6fffe" stroke-width="5" stroke-linecap="round"/></g></g></svg>